<svg class="icon" style="width: 1em;height: 1em;vertical-align: middle;fill: currentColor;overflow: hidden;" viewBox="0 0 1024 1024" version="1.1" xmlns="http://www.w3.org/2000/svg" width="32" height="32"><path d="M526.908235 184.470588a26.352941 26.352941 0 0 1 3.312941 52.495059l-3.312941 0.210824h-289.731764v579.764705H527.058824c13.432471 0 24.515765 10.059294 26.142117 23.04l0.210824 3.312942a26.352941 26.352941 0 0 1-23.04 26.142117l-3.312941 0.210824H210.823529a26.352941 26.352941 0 0 1-26.142117-23.04L184.470588 843.294118V210.823529c0-13.432471 10.059294-24.515765 23.04-26.142117L210.823529 184.470588h316.084706z" fill="#568af2" /><path d="M526.004706 350.298353a26.352941 26.352941 0 0 1 39.604706 34.575059l-2.349177 2.710588-139.474823 139.474824 139.474823 139.474823c9.426824 9.456941 10.24 24.244706 2.349177 34.575059l-2.349177 2.710588a26.352941 26.352941 0 0 1-34.575059 2.349177l-2.710588-2.349177-158.117647-158.117647a26.352941 26.352941 0 0 1-2.349176-34.575059l2.379294-2.710588 158.117647-158.117647z" fill="#568af2" /><path d="M843.294118 500.555294a26.352941 26.352941 0 0 1 3.312941 52.495059l-3.312941 0.210823H386.499765a26.352941 26.352941 0 0 1-3.312941-52.495058l3.312941-0.210824H843.294118z" fill="#568af2" /></svg>