<svg class="icon" style="width: 1em;height: 1em;vertical-align: middle;fill: currentColor;overflow: hidden;" viewBox="0 0 1024 1024" version="1.1" xmlns="http://www.w3.org/2000/svg" width="32" height="32"><path d="M853.323294 214.588235c14.576941 0 26.352941 11.806118 26.352941 26.352941v263.529412a26.352941 26.352941 0 1 1-52.705882 0V267.294118H176.941176v474.352941h325.029648c13.432471 0 24.515765 10.059294 26.142117 23.04l0.210824 3.312941a26.352941 26.352941 0 0 1-26.352941 26.352941H150.588235a26.352941 26.352941 0 0 1-26.352941-26.352941V240.941176c0-14.546824 11.806118-26.352941 26.352941-26.352941h702.735059z" fill="#568af2" /><path d="M853.323294 653.793882a26.352941 26.352941 0 0 1 0 52.705883h-245.940706a26.352941 26.352941 0 1 1 0-52.705883h245.940706z" fill="#568af2" /><path d="M746.857412 573.680941a26.352941 26.352941 0 0 1 37.255529 0l87.853177 87.853177a26.352941 26.352941 0 0 1 0 37.255529l-87.853177 87.853177a26.352941 26.352941 0 1 1-37.255529-37.285648l69.180235-69.210352-69.180235-69.210353a26.352941 26.352941 0 0 1-2.349177-34.544942l2.349177-2.710588zM837.511529 219.858824a26.352941 26.352941 0 1 1 31.62353 42.164705l-351.352471 263.529412a26.352941 26.352941 0 0 1-31.623529 0L134.776471 262.023529a26.352941 26.352941 0 0 1 31.623529-42.164705l335.540706 251.663058L837.511529 219.858824z" fill="#568af2" /></svg>