<svg class="icon" style="width: 1em;height: 1em;vertical-align: middle;fill: currentColor;overflow: hidden;" viewBox="0 0 1024 1024" version="1.1" xmlns="http://www.w3.org/2000/svg" width="32" height="32"><path d="M0 0h1024v1024H0z" fill="#568af2" fill-opacity="0" /><path d="M240.007529 240.037647a26.352941 26.352941 0 0 1 34.575059-2.379294l2.710588 2.349176 39.122824 39.152942a26.352941 26.352941 0 0 1-34.575059 39.604705l-2.710588-2.349176-39.122824-39.152941a26.352941 26.352941 0 0 1 0-37.25553zM205.944471 493.176471a26.352941 26.352941 0 0 1 3.312941 52.495058l-3.312941 0.210824H150.588235a26.352941 26.352941 0 0 1-3.312941-52.495059l3.312941-0.210823h55.356236zM279.130353 722.642824a26.352941 26.352941 0 0 1 39.634823 34.575058l-2.349176 2.710589-39.152941 39.122823a26.352941 26.352941 0 0 1-39.604706-34.575059l2.349176-2.710588 39.152942-39.122823zM722.642824 722.642824a26.352941 26.352941 0 0 1 34.575058-2.349177l2.710589 2.349177 39.122823 39.152941a26.352941 26.352941 0 0 1-34.575059 39.604706l-2.710588-2.349177-39.122823-39.152941a26.352941 26.352941 0 0 1 0-37.255529zM888.470588 493.176471a26.352941 26.352941 0 0 1 3.312941 52.495058l-3.312941 0.210824h-55.356235a26.352941 26.352941 0 0 1-3.312941-52.495059l3.312941-0.210823H888.470588zM761.765647 240.037647a26.352941 26.352941 0 0 1 39.634824 34.544941l-2.349177 2.710588-39.152941 39.152942a26.352941 26.352941 0 0 1-39.604706-34.605177l2.349177-2.710588 39.152941-39.122824zM519.529412 124.235294c13.432471 0 24.515765 10.059294 26.142117 23.04l0.210824 3.312941v55.356236a26.352941 26.352941 0 0 1-52.495059 3.312941l-0.210823-3.312941V150.588235c0-14.546824 11.806118-26.352941 26.352941-26.352941zM519.529412 282.352941a237.176471 237.176471 0 1 0 0 474.352941 237.176471 237.176471 0 0 0 0-474.352941z m0 52.705883a184.470588 184.470588 0 1 1 0 368.941176 184.470588 184.470588 0 0 1 0-368.941176zM519.529412 806.791529c13.432471 0 24.515765 10.029176 26.142117 23.04l0.210824 3.312942V888.470588a26.352941 26.352941 0 0 1-52.495059 3.312941l-0.210823-3.312941v-55.326117c0-14.576941 11.806118-26.352941 26.352941-26.352942z" fill="#568af2" /></svg>