<svg class="icon" style="width: 1em;height: 1em;vertical-align: middle;fill: currentColor;overflow: hidden;" viewBox="0 0 1024 1024" version="1.1" xmlns="http://www.w3.org/2000/svg" width="32" height="32"><path d="M583.740235 164.954353a79.028706 79.028706 0 0 1-140.950588 0 26.352941 26.352941 0 0 0-30.509176-13.402353 377.133176 377.133176 0 0 0-156.16 87.371294 26.352941 26.352941 0 0 0-5.722353 30.960941 79.058824 79.058824 0 0 1-65.957647 113.814589l-6.294589 0.150588a26.352941 26.352941 0 0 0-25.298823 18.432A377.584941 377.584941 0 0 0 135.529412 515.614118c0 25.750588 2.590118 51.2 7.68 76.077176 2.710588 13.221647 14.938353 22.256941 28.370823 20.931765a79.058824 79.058824 0 0 1 68.306824 129.626353 26.352941 26.352941 0 0 0 1.204706 35.237647 377.615059 377.615059 0 0 0 164.231529 100.201412 26.352941 26.352941 0 0 0 32.617412-17.227295 79.088941 79.088941 0 0 1 150.64847 0 26.352941 26.352941 0 0 0 32.617412 17.227295 377.615059 377.615059 0 0 0 164.23153-100.171295 26.352941 26.352941 0 0 0 1.14447-35.267764 79.058824 79.058824 0 0 1 68.306824-129.626353 26.352941 26.352941 0 0 0 28.431059-20.931765c5.089882-24.877176 7.649882-50.296471 7.649882-76.077176 0-38.851765-5.872941-76.950588-17.287529-113.332706a26.352941 26.352941 0 0 0-25.328942-18.432h-1.505882a79.028706 79.028706 0 0 1-70.776471-113.965177 26.352941 26.352941 0 0 0-5.662117-30.960941 377.133176 377.133176 0 0 0-156.16-87.371294 26.352941 26.352941 0 0 0-30.509177 13.402353z m34.936471 43.128471l2.770823 0.933647a324.397176 324.397176 0 0 1 96.256 53.910588l3.46353 2.891294-0.512 1.686588a131.824941 131.824941 0 0 0-5.360941 37.285647l0.150588 6.384941a131.794824 131.794824 0 0 0 112.76047 124.024471l1.656471 6.625882c5.571765 23.973647 8.432941 48.670118 8.432941 73.788236l-0.301176 13.281882a327.378824 327.378824 0 0 1-2.108236 26.322824l-0.692705 4.848941-0.813177 0.060235a131.794824 131.794824 0 0 0-119.085176 131.162353l0.210823 7.228235c1.024 19.215059 6.204235 37.677176 14.998588 54.302118l1.686589 2.951529-0.783059 0.783059a325.150118 325.150118 0 0 1-93.605647 59.361882l-9.818353 3.855059-2.078118-3.614117a131.794824 131.794824 0 0 0-112.64-63.36753L506.88 752.941176a131.824941 131.824941 0 0 0-106.285176 63.247059l-2.108236 3.614118-9.758117-3.885177a324.939294 324.939294 0 0 1-84.299295-51.2l-10.119529-8.914823 1.686588-3.011765c9.878588-18.672941 15.209412-39.695059 15.209412-61.500235l-0.150588-6.384941a131.794824 131.794824 0 0 0-112.700235-124.024471l-7.04753-0.813176-0.692706-4.848941a328.583529 328.583529 0 0 1-2.379294-39.604706l0.240941-12.528942c0.783059-20.781176 3.523765-41.291294 8.161883-61.259294l1.65647-6.625882 6.053647-1.024a131.794824 131.794824 0 0 0 106.857412-129.385412l-0.210823-7.619764a131.493647 131.493647 0 0 0-5.12-29.665883l-0.572236-1.686588 3.493647-2.861177a324.397176 324.397176 0 0 1 96.286118-53.910588l2.740706-0.963764 1.626353 2.198588a131.674353 131.674353 0 0 0 103.815529 50.597647 131.674353 131.674353 0 0 0 103.785412-50.597647l1.626353-2.198588z" fill="#568af2" /><path d="M513.264941 366.290824a149.323294 149.323294 0 1 0 0 298.646588 149.323294 149.323294 0 0 0 0-298.646588z m0 52.705882a96.617412 96.617412 0 1 1 0 193.234823 96.617412 96.617412 0 0 1 0-193.234823z" fill="#568af2" /></svg>