<svg class="icon" style="width: 1em;height: 1em;vertical-align: middle;fill: currentColor;overflow: hidden;" viewBox="0 0 1024 1024" version="1.1" xmlns="http://www.w3.org/2000/svg" width="32" height="32"><path d="M579.764706 237.176471c13.432471 0 24.515765 10.059294 26.142118 23.04l0.210823 3.312941v184.470588h184.470588c13.432471 0 24.515765 10.059294 26.142118 23.04l0.210823 3.312941a26.352941 26.352941 0 0 1-23.04 26.142118l-3.312941 0.210823h-210.823529a26.352941 26.352941 0 0 1-26.142118-23.04l-0.210823-3.312941v-210.823529c0-14.546824 11.806118-26.352941 26.352941-26.352941zM474.352941 553.411765c13.432471 0 24.515765 10.059294 26.142118 23.04l0.210823 3.312941v210.823529a26.352941 26.352941 0 0 1-52.495058 3.312941l-0.210824-3.312941v-184.470588H263.529412a26.352941 26.352941 0 0 1-26.142118-23.04l-0.210823-3.312941c0-13.432471 10.059294-24.515765 23.04-26.142118l3.312941-0.210823h210.823529z" fill="#568af2" /><path d="M824.651294 192.180706a26.352941 26.352941 0 0 1 39.634824 34.575059l-2.349177 2.710588-263.529412 263.529412a26.352941 26.352941 0 0 1-39.634823-34.575059l2.349176-2.710588 263.529412-263.529412zM455.710118 561.121882a26.352941 26.352941 0 0 1 39.634823 34.575059l-2.349176 2.710588-263.529412 263.529412a26.352941 26.352941 0 0 1-39.634824-34.575059l2.349177-2.710588 263.529412-263.529412z" fill="#568af2" /></svg>