<?xml version="1.0" standalone="no"?><!DOCTYPE svg PUBLIC "-//W3C//DTD SVG 1.1//EN" "http://www.w3.org/Graphics/SVG/1.1/DTD/svg11.dtd"><svg t="1769161954100" class="icon" viewBox="0 0 1024 1024" version="1.1" xmlns="http://www.w3.org/2000/svg" p-id="1907" width="32" height="32" xmlns:xlink="http://www.w3.org/1999/xlink"><path d="M844.559059 396.559059H176.941176a26.352941 26.352941 0 0 0-26.352941 26.352941v386.499765c0 33.972706 27.527529 61.500235 61.500236 61.500235h597.323294a61.500235 61.500235 0 0 0 61.500235-61.500235V422.912a26.352941 26.352941 0 0 0-26.352941-26.352941zM203.294118 449.234824h614.881882v360.176941c0 4.848941-3.915294 8.794353-8.764235 8.794353H212.088471l-2.017883-0.240942a8.794353 8.794353 0 0 1-6.77647-8.553411V449.234824z" fill="#5689f2" p-id="1908"></path><path d="M809.411765 203.294118H212.088471A61.500235 61.500235 0 0 0 150.588235 264.794353v158.117647c0 14.546824 11.806118 26.352941 26.352941 26.352941h667.617883a26.352941 26.352941 0 0 0 26.352941-26.352941v-158.117647a61.500235 61.500235 0 0 0-61.500235-61.500235z m0 52.705882l2.017882 0.240941c3.885176 0.903529 6.776471 4.397176 6.776471 8.553412l-0.030118 131.734588H203.294118V264.794353c0-4.848941 3.915294-8.794353 8.794353-8.794353h597.323294zM667.798588 509.680941a26.352941 26.352941 0 0 1 39.634824 34.575059l-2.379294 2.710588-210.82353 210.82353a26.352941 26.352941 0 0 1-34.544941 2.349176l-2.710588-2.379294-105.411765-105.411765a26.352941 26.352941 0 0 1 34.575059-39.604706l2.710588 2.349177 86.738824 86.738823 192.210823-192.150588z" fill="#5689f2" p-id="1909"></path><path d="M370.206118 150.588235c13.432471 0 24.515765 10.059294 26.142117 23.04l0.210824 3.312941v140.559059a26.352941 26.352941 0 0 1-52.525177 3.312941l-0.180706-3.312941V176.941176c0-14.546824 11.776-26.352941 26.352942-26.352941zM651.294118 150.588235c13.432471 0 24.515765 10.059294 26.142117 23.04l0.210824 3.312941v140.559059a26.352941 26.352941 0 0 1-52.495059 3.312941l-0.210824-3.312941V176.941176c0-14.546824 11.806118-26.352941 26.352942-26.352941z" fill="#5689f2" p-id="1910"></path></svg>