<svg class="icon" style="width: 1em;height: 1em;vertical-align: middle;fill: currentColor;overflow: hidden;" viewBox="0 0 1024 1024" version="1.1" xmlns="http://www.w3.org/2000/svg" width="32" height="32"><path d="M667.617882 184.470588c14.546824 0 26.352941 11.806118 26.352942 26.352941v632.470589a26.352941 26.352941 0 0 1-26.352942 26.352941h-175.706353a26.352941 26.352941 0 0 1-26.352941-26.352941V210.823529c0-14.546824 11.806118-26.352941 26.352941-26.352941h175.706353z m-26.383058 52.705883h-122.970353v579.764705h122.970353V237.176471z" fill="#568af2" /><path d="M843.294118 184.470588c14.546824 0 26.352941 11.806118 26.352941 26.352941v632.470589a26.352941 26.352941 0 0 1-26.352941 26.352941h-175.676236a26.352941 26.352941 0 0 1-26.352941-26.352941V210.823529c0-14.546824 11.776-26.352941 26.352941-26.352941H843.294118z m-26.352942 52.705883h-122.970352v579.764705h122.970352V237.176471zM281.027765 184.470588l3.312941 0.210824 140.589176 17.558588c14.155294 1.776941 24.365176 14.546824 22.949647 28.762353l-61.500235 614.912a26.352941 26.352941 0 0 1-29.30447 23.552l-149.323295-17.558588a26.352941 26.352941 0 0 1-23.100235-29.184L254.915765 207.841882a26.352941 26.352941 0 0 1 29.455059-23.190588l-3.312942-0.180706z m23.220706 55.808L239.977412 802.605176l96.617412 11.354353 56.259764-562.627764-88.606117-11.053177z" fill="#568af2" /><path d="M755.440941 342.588235c14.576941 0 26.352941 11.806118 26.352941 26.352941V421.647059a26.352941 26.352941 0 1 1-52.705882 0v-52.705883c0-14.546824 11.806118-26.352941 26.352941-26.352941zM579.764706 342.588235c14.546824 0 26.352941 11.806118 26.352941 26.352941V421.647059a26.352941 26.352941 0 1 1-52.705882 0v-52.705883c0-14.546824 11.806118-26.352941 26.352941-26.352941z" fill="#568af2" /></svg>