<svg class="icon" style="width: 1em;height: 1em;vertical-align: middle;fill: currentColor;overflow: hidden;" viewBox="0 0 1024 1024" version="1.1" xmlns="http://www.w3.org/2000/svg" width="32" height="32"><path d="M532.088471 159.382588a149.323294 149.323294 0 1 1 0 298.646588 149.323294 149.323294 0 0 1 0-298.646588z m0 52.705883a96.617412 96.617412 0 1 0 0 193.234823 96.617412 96.617412 0 0 0 0-193.234823zM623.435294 545.882353c103.695059 0 128.361412 2.017882 160.105412 18.191059a166.912 166.912 0 0 1 72.944941 72.944941c16.173176 31.744 18.191059 56.410353 18.191059 160.105412v21.082353a26.352941 26.352941 0 0 1-26.352941 26.352941h-632.470589a26.352941 26.352941 0 0 1-26.352941-26.352941v-21.082353c0-103.695059 2.017882-128.361412 18.191059-160.105412a166.912 166.912 0 0 1 72.944941-72.944941c31.744-16.173176 56.380235-18.191059 160.075294-18.191059H623.435294z m17.709177 52.705882h-218.112c-78.366118 0.301176-98.996706 2.529882-118.482824 12.438589a114.206118 114.206118 0 0 0-49.904941 49.904941c-9.938824 19.486118-12.167529 40.116706-12.408471 118.482823l-0.030117 12.408471H821.910588v-3.794824c-0.120471-82.522353-2.017882-105.351529-11.38447-124.988235l-1.054118-2.108235a114.206118 114.206118 0 0 0-49.904941-49.904941c-19.456-9.938824-40.116706-12.167529-118.452706-12.408471z" fill="#568af2" /></svg>