<svg class="icon" style="width: 1em;height: 1em;vertical-align: middle;fill: currentColor;overflow: hidden;" viewBox="0 0 1024 1024" version="1.1" xmlns="http://www.w3.org/2000/svg" width="32" height="32"><path d="M786.823529 180.705882a79.058824 79.058824 0 0 1 79.058824 79.058824v527.058823a79.058824 79.058824 0 0 1-79.058824 79.058824h-527.058823A79.058824 79.058824 0 0 1 180.705882 786.823529v-527.058823A79.058824 79.058824 0 0 1 259.764706 180.705882h527.058823z m0 52.705883h-527.058823a26.352941 26.352941 0 0 0-26.352941 26.352941v527.058823c0 14.546824 11.806118 26.352941 26.352941 26.352942h527.058823a26.352941 26.352941 0 0 0 26.352942-26.352942v-527.058823a26.352941 26.352941 0 0 0-26.352942-26.352941z" fill="#568af2" /><path d="M397.251765 374.663529c49.844706-6.083765 83.666824 26.202353 98.273882 68.728471a26.352941 26.352941 0 1 1-49.874823 17.106824c-7.439059-21.744941-22.287059-35.930353-42.014118-33.520942-26.202353 3.162353-49.874824 47.164235-46.98353 105.502118 2.590118 53.579294 28.16 87.431529 50.808471 87.431529 9.637647 0 18.733176-5.300706 27.346824-15.36a76.498824 76.498824 0 0 0 11.565176-17.769411 26.352941 26.352941 0 0 1 48.429177 20.781176c-3.614118 8.372706-10.089412 19.787294-19.998118 31.322353-17.709176 20.660706-40.146824 33.731765-67.343059 33.731765-55.205647 0-99.629176-58.88-103.484235-137.547294-4.035765-82.612706 33.912471-153.208471 93.30447-160.436706zM558.441412 409.088c14.546824 0 26.352941 11.806118 26.352941 26.352941v210.82353a26.352941 26.352941 0 0 1-52.705882 0v-210.82353c0-14.546824 11.776-26.352941 26.352941-26.352941z" fill="#568af2" /><path d="M637.500235 426.676706a105.411765 105.411765 0 0 1 105.411765 105.411765v114.176a26.352941 26.352941 0 0 1-52.705882 0v-114.176a52.705882 52.705882 0 1 0-105.411765 0v114.176a26.352941 26.352941 0 0 1-52.705882 0v-114.176a105.411765 105.411765 0 0 1 105.411764-105.411765z" fill="#568af2" /></svg>