<svg class="icon" style="width: 1em;height: 1em;vertical-align: middle;fill: currentColor;overflow: hidden;" viewBox="0 0 1024 1024" version="1.1" xmlns="http://www.w3.org/2000/svg" width="32" height="32"><path d="M414.117647 154.352941a149.323294 149.323294 0 1 1 0 298.676706 149.323294 149.323294 0 0 1 0-298.676706z m0 52.705883a96.617412 96.617412 0 1 0 0 193.264941 96.617412 96.617412 0 0 0 0-193.264941zM630.603294 184.681412a26.352941 26.352941 0 0 1 36.171294-8.975059 149.232941 149.232941 0 0 1 72.372706 128 149.232941 149.232941 0 0 1-72.372706 127.969882 26.352941 26.352941 0 0 1-27.196235-45.17647 96.557176 96.557176 0 0 0 46.863059-82.82353 96.557176 96.557176 0 0 0-46.863059-82.823529 26.352941 26.352941 0 0 1-8.975059-36.171294zM452.758588 540.852706c103.695059 0 128.361412 2.017882 160.105412 18.191059a166.912 166.912 0 0 1 72.944941 72.944941c16.173176 31.744 18.191059 56.410353 18.191059 160.105412v21.082353a26.352941 26.352941 0 0 1-26.352941 26.352941H150.588235A26.352941 26.352941 0 0 1 124.235294 813.176471v-21.082353c0-103.695059 2.017882-128.361412 18.191059-160.105412a166.912 166.912 0 0 1 72.944941-72.944941c31.744-16.173176 56.410353-18.191059 160.105412-18.191059h77.281882z m17.709177 52.736h-112.700236c-78.366118 0.271059-98.996706 2.499765-118.482823 12.438588a114.206118 114.206118 0 0 0-49.904941 49.904941c-9.938824 19.456-12.167529 40.116706-12.408471 118.452706l-0.030118 12.408471h474.322824V783.058824c-0.090353-82.552471-1.987765-105.381647-11.384471-124.988236l-1.024-2.108235a114.206118 114.206118 0 0 0-49.904941-49.904941c-19.486118-9.938824-40.116706-12.167529-118.482823-12.438588zM753.121882 570.578824a26.352941 26.352941 0 0 1 35.418353-11.535059 166.912 166.912 0 0 1 72.944941 72.944941c16.173176 31.744 18.191059 56.410353 18.191059 160.105412v21.082353a26.352941 26.352941 0 1 1-52.705882 0v-21.082353c0-93.093647-1.807059-115.290353-12.438588-136.161883a114.206118 114.206118 0 0 0-49.904941-49.904941 26.352941 26.352941 0 0 1-11.504942-35.44847z" fill="#568af2" /></svg>