<svg class="icon" style="width: 1em;height: 1em;vertical-align: middle;fill: currentColor;overflow: hidden;" viewBox="0 0 1024 1024" version="1.1" xmlns="http://www.w3.org/2000/svg" width="32" height="32"><path d="M809.411765 250.970353a26.352941 26.352941 0 0 1 3.312941 52.525176l-3.312941 0.180706h-105.411765a26.352941 26.352941 0 0 1-3.312941-52.495059l3.312941-0.210823h105.411765zM563.440941 180.705882c13.432471 0 24.545882 10.059294 26.172235 23.04l0.180706 3.312942v140.559058a26.352941 26.352941 0 0 1-52.495058 3.312942l-0.210824-3.312942V207.058824c0-14.546824 11.806118-26.352941 26.352941-26.352942z" fill="#568af2" /><path d="M563.440941 250.970353a26.352941 26.352941 0 0 1 3.312941 52.525176l-3.312941 0.180706H176.941176a26.352941 26.352941 0 0 1-3.312941-52.495059l3.312941-0.210823h386.499765zM317.500235 496.941176a26.352941 26.352941 0 0 1 3.312941 52.495059l-3.312941 0.210824H176.941176a26.352941 26.352941 0 0 1-3.312941-52.495059l3.312941-0.210824h140.559059zM458.029176 426.676706c13.432471 0 24.545882 10.029176 26.172236 23.04l0.180706 3.312941v140.528941a26.352941 26.352941 0 0 1-52.495059 3.312941l-0.210824-3.312941v-140.528941c0-14.576941 11.806118-26.352941 26.352941-26.352941z" fill="#568af2" /><path d="M844.559059 496.941176a26.352941 26.352941 0 0 1 3.312941 52.495059l-3.312941 0.210824H458.029176a26.352941 26.352941 0 0 1-3.312941-52.495059l3.312941-0.210824h386.529883zM809.411765 742.912a26.352941 26.352941 0 0 1 3.312941 52.495059l-3.312941 0.210823h-105.411765a26.352941 26.352941 0 0 1-3.312941-52.525176l3.312941-0.180706h105.411765zM563.440941 672.617412c13.432471 0 24.545882 10.059294 26.172235 23.070117l0.180706 3.312942v140.528941a26.352941 26.352941 0 0 1-52.495058 3.312941l-0.210824-3.312941v-140.559059c0-14.546824 11.806118-26.352941 26.352941-26.352941z" fill="#568af2" /><path d="M563.440941 742.912a26.352941 26.352941 0 0 1 3.312941 52.495059l-3.312941 0.210823H176.941176a26.352941 26.352941 0 0 1-3.312941-52.525176l3.312941-0.180706h386.499765z" fill="#568af2" /></svg>