<svg class="icon" style="width: 1em;height: 1em;vertical-align: middle;fill: currentColor;overflow: hidden;" viewBox="0 0 1024 1024" version="1.1" xmlns="http://www.w3.org/2000/svg" width="32" height="32"><path d="M0 0h1024v1024H0z" fill="#568af2" fill-opacity="0" /><path d="M417.882353 180.705882H242.206118A61.500235 61.500235 0 0 0 180.705882 242.206118v175.676235c0 33.972706 27.527529 61.500235 61.500236 61.500235h175.676235a61.500235 61.500235 0 0 0 61.500235-61.500235V242.206118A61.500235 61.500235 0 0 0 417.882353 180.705882zM242.206118 233.411765h175.676235c4.848941 0 8.794353 3.915294 8.794353 8.794353v175.676235c0 4.848941-3.915294 8.794353-8.794353 8.794353H242.206118a8.794353 8.794353 0 0 1-8.794353-8.794353V242.206118c0-4.848941 3.915294-8.794353 8.794353-8.794353zM417.882353 567.205647H242.206118A61.500235 61.500235 0 0 0 180.705882 628.705882v175.676236c0 33.972706 27.527529 61.500235 61.500236 61.500235h175.676235a61.500235 61.500235 0 0 0 61.500235-61.500235v-175.676236a61.500235 61.500235 0 0 0-61.500235-61.500235z m-175.676235 52.705882h175.676235c4.848941 0 8.794353 3.915294 8.794353 8.794353v175.676236c0 4.848941-3.915294 8.794353-8.794353 8.794353H242.206118a8.794353 8.794353 0 0 1-8.794353-8.794353v-175.676236c0-4.848941 3.915294-8.794353 8.794353-8.794353zM804.382118 180.705882h-175.676236a61.500235 61.500235 0 0 0-61.500235 61.500236v175.676235c0 33.972706 27.527529 61.500235 61.500235 61.500235h175.676236a61.500235 61.500235 0 0 0 61.500235-61.500235V242.206118A61.500235 61.500235 0 0 0 804.382118 180.705882z m-175.676236 52.705883h175.676236c4.848941 0 8.794353 3.915294 8.794353 8.794353v175.676235c0 4.848941-3.915294 8.794353-8.794353 8.794353h-175.676236a8.794353 8.794353 0 0 1-8.794353-8.794353V242.206118c0-4.848941 3.915294-8.794353 8.794353-8.794353zM804.382118 567.205647h-175.676236a61.500235 61.500235 0 0 0-61.500235 61.500235v175.676236c0 33.972706 27.527529 61.500235 61.500235 61.500235h175.676236a61.500235 61.500235 0 0 0 61.500235-61.500235v-175.676236a61.500235 61.500235 0 0 0-61.500235-61.500235z m-175.676236 52.705882h175.676236c4.848941 0 8.794353 3.915294 8.794353 8.794353v175.676236c0 4.848941-3.915294 8.794353-8.794353 8.794353h-175.676236a8.794353 8.794353 0 0 1-8.794353-8.794353v-175.676236c0-4.848941 3.915294-8.794353 8.794353-8.794353z" fill="#568af2" /></svg>