<svg class="icon" style="width: 1em;height: 1em;vertical-align: middle;fill: currentColor;overflow: hidden;" viewBox="0 0 1024 1024" version="1.1" xmlns="http://www.w3.org/2000/svg" width="32" height="32"><path d="M0 0h1024v1024H0z" fill="#568af2" fill-opacity="0" /><path d="M501.970824 124.235294C293.345882 124.235294 124.235294 293.345882 124.235294 501.970824c0 208.594824 169.110588 377.705412 377.73553 377.705411 208.594824 0 377.705412-169.110588 377.705411-377.705411 0-25.901176-2.590118-51.501176-7.740235-76.498824-5.632-27.346824-44.272941-28.340706-51.320471-1.355294a197.270588 197.270588 0 1 1-240.790588-240.790588c26.985412-7.047529 25.961412-45.718588-1.355294-51.320471-24.997647-5.150118-50.597647-7.770353-76.498823-7.770353z m-27.286589 53.820235l-3.162353 2.590118a249.976471 249.976471 0 0 0 158.238118 443.512471l7.920941-0.150589a249.976471 249.976471 0 0 0 185.615059-91.587764l2.529882-3.222589-0.63247 7.04753c-17.136941 163.388235-155.316706 290.725647-323.222588 290.725647-179.501176 0-325.029647-145.498353-325.029648-324.999529 0-167.936 127.337412-306.115765 290.725648-323.252706l7.017411-0.662589z" fill="#568af2" /></svg>