<svg class="icon" style="width: 1em;height: 1em;vertical-align: middle;fill: currentColor;overflow: hidden;" viewBox="0 0 1024 1024" version="1.1" xmlns="http://www.w3.org/2000/svg" width="32" height="32"><path d="M783.058824 686.441412a96.617412 96.617412 0 1 1 0 193.234823 96.617412 96.617412 0 0 1 0-193.234823z m0-281.118118a96.617412 96.617412 0 1 1-47.104 181.007059l-149.594353 149.624471a96.617412 96.617412 0 1 1-37.25553-37.285648l149.564235-149.594352A96.617412 96.617412 0 0 1 783.058824 405.323294z m0-281.088a96.617412 96.617412 0 1 1-47.104 181.007059l-149.594353 149.624471a96.617412 96.617412 0 0 1-131.493647 131.493647l-149.624471 149.594353a96.617412 96.617412 0 1 1-37.255529-37.285648l149.594352-149.594352a96.617412 96.617412 0 0 1 131.493648-131.493648l149.594352-149.594352A96.617412 96.617412 0 0 1 783.058824 124.235294z m-281.088 0a96.617412 96.617412 0 1 1-47.104 181.007059l-149.594353 149.624471a96.617412 96.617412 0 1 1-37.285647-37.285648l149.594352-149.594352a96.617412 96.617412 0 0 1 84.389648-143.75153z m-281.118118 0a96.617412 96.617412 0 1 1 0 193.264941 96.617412 96.617412 0 0 1 0-193.264941z" fill="#568af2" /></svg>