<svg class="icon" style="width: 1em;height: 1em;vertical-align: middle;fill: currentColor;overflow: hidden;" viewBox="0 0 1024 1024" version="1.1" xmlns="http://www.w3.org/2000/svg" width="32" height="32"><path d="M824.651294 214.588235c30.418824 0 55.024941 24.636235 55.024941 55.024941v504.832c0 30.418824-24.636235 55.055059-55.024941 55.055059H179.260235a55.024941 55.024941 0 0 1-55.024941-55.055059V269.613176c0-30.388706 24.636235-55.024941 55.024941-55.024941z m-287.563294 175.676236H466.823529l-3.312941 0.210823a26.352941 26.352941 0 0 0-23.04 26.142118v228.412235l0.210824 3.312941a26.352941 26.352941 0 0 0 26.142117 23.04h70.264471l3.312941-0.210823a26.352941 26.352941 0 0 0 23.04-26.142118l-0.180706-3.312941a26.352941 26.352941 0 0 0-26.172235-23.04l-43.911529-0.030118v-52.705882h43.911529l3.312941-0.180706a26.352941 26.352941 0 0 0-3.312941-52.495059l-43.911529-0.030117v-70.264471h43.911529l3.312941-0.180706a26.352941 26.352941 0 0 0-3.312941-52.525176z m158.117647 0a79.058824 79.058824 0 0 0-79.058823 79.058823v123.000471l0.150588 4.999529a79.058824 79.058824 0 0 0 157.967059-4.999529v-123.000471l-0.150589-4.999529a79.058824 79.058824 0 0 0-78.908235-74.059294z m-311.988706 28.220235c-49.694118-73.276235-147.094588-29.244235-140.348235 52.464941 2.56 30.569412 14.968471 46.381176 44.724706 68.367059l10.270117 7.408941 4.005647 2.981647 6.656 5.300706c9.697882 8.282353 12.739765 13.944471 13.432471 22.437647 2.56 30.810353-26.804706 44.092235-44.152471 18.552471a26.352941 26.352941 0 0 0-43.610352 29.605647c49.694118 73.276235 147.034353 29.214118 140.288-52.464941-2.499765-30.569412-14.938353-46.411294-44.694589-68.367059l-10.24-7.439059-7.559529-5.722353c-12.197647-9.728-15.781647-15.661176-16.564706-24.997647-2.56-30.780235 26.834824-44.092235 44.182588-18.522353a26.352941 26.352941 0 0 0 43.610353-29.605647z m312.018824 24.485647c14.546824 0 26.322824 11.806118 26.322823 26.352941v123.000471l-0.180706 3.312941a26.352941 26.352941 0 0 1-52.525176-3.312941v-123.000471l0.210823-3.312941a26.352941 26.352941 0 0 1 26.142118-23.04z" fill="#568af2" /></svg>