<svg class="icon" style="width: 1em;height: 1em;vertical-align: middle;fill: currentColor;overflow: hidden;" viewBox="0 0 1024 1024" version="1.1" xmlns="http://www.w3.org/2000/svg" width="32" height="32"><path d="M834.529882 327.800471c0.120471 3.493647 0.150588 7.860706 0.060236 13.101176l-0.090353 3.674353V658.672941l0.090353 3.945412c0.090353 5.360941 0.060235 9.788235-0.060236 13.342118v2.379294l-0.090353 0.12047-0.150588 2.650353a20.419765 20.419765 0 0 1-6.324706 13.944471 27.527529 27.527529 0 0 1-3.584 3.343059l-0.783059 0.602353c-0.180706 0.090353-0.331294 0.210824-0.512 0.361411l-0.722823 0.39153-0.843294 0.602353-237.477647 139.655529-59.452236 34.996706-0.240941 0.120471-1.505882 0.903529a26.503529 26.503529 0 0 1-0.391529 0.240941l1.114352-0.752941-2.831058 1.475765a27.075765 27.075765 0 0 1-11.053177 2.499764l2.680471-0.240941a25.419294 25.419294 0 0 1-14.21553-2.288941l-2.620235-1.295059a26.352941 26.352941 0 0 0 1.024 0.602353l-0.421647-0.210823-1.505882-0.933647-0.301177-0.090353-144.384-84.992-152.485647-89.690353-0.421647-0.301177-1.204706-0.692706-0.813176-0.662588-0.421647-0.301176a26.322824 26.322824 0 0 1-1.385412-1.144471l-0.722824-0.692706a14.456471 14.456471 0 0 1-0.843294-0.843294l0.783059 0.752941a21.624471 21.624471 0 0 1-7.649882-15.058823l-0.090353-0.301177-0.150588-2.198588-0.060236-0.180706v-1.807059a251.361882 251.361882 0 0 1-0.12047-14.757647l0.090353-4.788706V345.991529c-0.361412-14.757647-0.060235-23.883294 0.903529-27.407058 0.933647-5.12 4.427294-9.999059 10.511059-14.576942l298.465882-175.646117c6.415059-3.674353 12.438588-5.12 18.040471-4.246588 0.963765 0.150588 2.108235 0.451765 3.373176 0.903529 1.355294 0.301176 2.680471 0.722824 3.915294 1.264941l0.90353 0.421647 0.240941 0.120471 3.794823 1.927529 3.343059 1.957647c3.252706 1.807059 6.896941 3.915294 10.932706 6.384941h-0.060235l265.577412 156.310589c7.830588 4.065882 13.854118 7.619765 18.100706 10.631529l0.602352 0.391529 0.722824 0.542118a29.906824 29.906824 0 0 1 5.059765 4.457412c0.873412 1.024 1.626353 2.138353 2.258823 3.312941 1.264941 2.048 2.108235 4.126118 2.469647 6.234353 0.240941 0.903529 0.451765 2.108235 0.602353 3.704471l0.030118 0.150588 0.301176 3.824941v-0.361412 1.505883z m-440.922353-105.050353l-47.887058 28.190117a26.202353 26.202353 0 0 0 6.565647 7.920941l2.710588 1.92753 104.779294 65.475765-95.533176 59.693176-123.904-72.884706-25.780706 15.179294v30.780236l128 75.294117v114.56753l-118.362353-69.662118-2.95153-1.505882a26.202353 26.202353 0 0 0-6.686117-1.867294v58.849882l128 75.324235v140.528941l48.790588 28.762353a26.202353 26.202353 0 0 0 3.734588-10.541176l0.210824-3.312941v-124.416L483.087059 692.705882v140.649412l26.624 15.721412 26.081882-15.390118V692.705882l87.853177-51.681882v124.476235l0.210823 3.312941c0.481882 3.885176 1.807059 7.499294 3.824941 10.661648l48.670118-28.792471v-140.649412l128-75.324235 0.030118-58.849882a26.202353 26.202353 0 0 0-6.656 1.897411l-2.95153 1.505883-118.422588 69.601882v-114.537412l128-75.294117v-30.418824l-26.051765-15.390118-123.632941 72.734118-95.503059-59.693176 104.809412-65.475765 2.710588-1.92753a26.202353 26.202353 0 0 0 6.415059-7.710117l-47.887059-28.310588L509.44 295.152941l-115.892706-72.432941z m230.068706 242.567529v114.567529L535.792941 631.567059v-114.56753l87.853177-51.681882z m-228.382117 0.030118l87.823058 51.651764v114.537412l-87.823058-51.651765v-114.537411z m114.145882-108.032l94.057412 58.759529-94.027294 55.296-93.997177-55.296 93.967059-58.759529z" fill="#568af2" /></svg>