<svg class="icon" style="width: 1em;height: 1em;vertical-align: middle;fill: currentColor;overflow: hidden;" viewBox="0 0 1024 1024" version="1.1" xmlns="http://www.w3.org/2000/svg" width="32" height="32"><path d="M513.445647 131.945412a26.352941 26.352941 0 0 1 37.255529 0L707.764706 288.978824l-175.706353 175.706352 37.285647 37.25553-37.285647 37.285647 175.706353 175.676235-157.06353 157.06353a26.352941 26.352941 0 0 1-34.544941 2.349176l-2.710588-2.349176-157.063529-157.06353 175.676235-175.676235-37.255529-37.285647 37.255529-37.25553-175.676235-175.706352zM196.638118 129.596235l2.710588 2.349177 157.033412 157.033412-37.285647 37.285647 175.706353 175.676235-175.706353 175.706353 37.285647 37.255529-157.033412 157.06353a26.352941 26.352941 0 0 1-39.634824-34.575059l2.349177-2.710588 157.033412-157.033412-157.033412-157.06353a26.352941 26.352941 0 0 1-2.349177-34.544941l2.349177-2.710588 157.033412-157.063529-157.033412-157.033412A26.352941 26.352941 0 0 1 196.668235 129.596235z m705.445647 2.349177c9.426824 9.456941 10.24 24.244706 2.349176 34.575059l-2.349176 2.710588-157.06353 157.033412 157.06353 157.063529c9.426824 9.426824 10.24 24.244706 2.349176 34.575059l-2.349176 2.710588-157.06353 157.033412 157.06353 157.063529a26.352941 26.352941 0 0 1-34.575059 39.604706l-2.710588-2.349176-157.033412-157.06353 37.255529-37.255529-175.676235-175.706353 175.676235-175.676235L707.764706 288.978824l157.063529-157.033412a26.352941 26.352941 0 0 1 37.25553 0z" fill="#568af2" /></svg>