<svg class="icon" style="width: 1em;height: 1em;vertical-align: middle;fill: currentColor;overflow: hidden;" viewBox="0 0 1024 1024" version="1.1" xmlns="http://www.w3.org/2000/svg" width="32" height="32"><path d="M532.088471 124.235294a272.323765 272.323765 0 0 1 182.512941 474.413177l190.042353 256.572235a26.352941 26.352941 0 0 1-21.202824 42.044235H180.705882a26.352941 26.352941 0 0 1-21.172706-42.044235l190.042353-256.572235a272.323765 272.323765 0 0 1 182.512942-474.413177z m0 52.705882a219.617882 219.617882 0 0 0-150.979765 379.120942l129.807059-175.194353a26.352941 26.352941 0 0 1 42.345411 0l129.776942 175.194353a219.617882 219.617882 0 0 0-150.949647-379.120942z" fill="#568af2" /></svg>