<svg class="icon" style="width: 1em;height: 1em;vertical-align: middle;fill: currentColor;overflow: hidden;" viewBox="0 0 1024 1024" version="1.1" xmlns="http://www.w3.org/2000/svg" width="32" height="32"><path d="M524.559059 668.039529l312.048941 176.850824 2.981647 1.445647a26.202353 26.202353 0 0 0 9.336471 1.957647H498.236235a26.352941 26.352941 0 0 0 26.352941-26.352941l-0.030117-153.901177z m-52.705883 0v153.901177l0.240942 3.312941a26.352941 26.352941 0 0 0 26.142117 23.04H147.546353a26.232471 26.232471 0 0 0 12.318118-3.403294l311.988705-176.850824z m3.915295-474.74447a26.202353 26.202353 0 0 0-3.915295 13.763765v370.537411l-136.31247-77.221647-2.981647-1.475764a26.352941 26.352941 0 0 0-23.009883 47.314823l135.228236 76.589177L133.872941 799.021176l-2.770823 1.807059a26.383059 26.383059 0 0 0-7.137883 8.041412L475.346824 193.987765z m44.995764 0.090353l0.361412 0.602353 351.352471 614.881882a26.202353 26.202353 0 0 0-9.878589-9.848471l-310.934588-176.188235 135.228235-76.619294 2.800942-1.807059a26.352941 26.352941 0 0 0-28.762353-44.032l-136.372706 77.221647V207.058824l-0.180706-3.312942a26.202353 26.202353 0 0 0-3.614118-10.36047z" fill="#568af2" /></svg>