<svg class="icon" style="width: 1em;height: 1em;vertical-align: middle;fill: currentColor;overflow: hidden;" viewBox="0 0 1024 1024" version="1.1" xmlns="http://www.w3.org/2000/svg" width="32" height="32"><path d="M773.029647 570.970353H281.088a96.617412 96.617412 0 0 0-96.617412 96.647529v105.411765a96.617412 96.617412 0 0 0 96.617412 96.617412h491.941647a96.617412 96.617412 0 0 0 96.617412-96.617412v-105.411765a96.617412 96.617412 0 0 0-96.617412-96.647529z m-316.235294-368.941177a26.352941 26.352941 0 0 1 3.312941 52.525177l-3.312941 0.180706H281.088c-22.829176 0-41.562353 17.438118-43.700706 39.695059l-0.210823 4.21647v105.411765c0 22.859294 17.408 41.622588 39.695058 43.730823l4.216471 0.210824h175.706353a26.352941 26.352941 0 0 1 3.312941 52.495059l-3.312941 0.210823H281.088a96.617412 96.617412 0 0 1-96.466824-91.136l-0.150588-5.481411v-105.411765c0-51.531294 40.357647-93.665882 91.136-96.496941l5.481412-0.150589h175.706353z m245.940706-17.558588a166.912 166.912 0 1 1 0 333.793883 166.912 166.912 0 0 1 0-333.793883z m0 114.206118a52.705882 52.705882 0 1 0 0 105.411765 52.705882 52.705882 0 0 0 0-105.411765z" fill="#568af2" /></svg>