<svg class="icon" style="width: 1em;height: 1em;vertical-align: middle;fill: currentColor;overflow: hidden;" viewBox="0 0 1024 1024" version="1.1" xmlns="http://www.w3.org/2000/svg" width="32" height="32"><path d="M496.128 127.879529a26.352941 26.352941 0 0 1 26.714353 0l298.676706 175.676236a26.352941 26.352941 0 0 1 12.980706 22.708706V677.647059c0 9.336471-4.939294 17.980235-12.980706 22.708706l-298.676706 175.706353a26.352941 26.352941 0 0 1-26.714353 0l-298.676706-175.706353a26.352941 26.352941 0 0 1-12.980706-22.708706V326.264471c0-9.336471 4.939294-17.980235 12.980706-22.708706z m176.188235 272.233412a26.352941 26.352941 0 0 0-36.321882-8.372706l-126.644706 79.119059-126.433882-79.119059-2.891294-1.596235a26.352941 26.352941 0 0 0-25.057883 46.260706l128.150588 80.203294v143.480471l0.210824 3.312941a26.352941 26.352941 0 0 0 52.525176-3.312941l-0.030117-143.600942 128.090353-80.052705 2.710588-1.92753a26.352941 26.352941 0 0 0 5.662118-34.394353z" fill="#568af2" /></svg>