<svg class="icon" style="width: 1em;height: 1em;vertical-align: middle;fill: currentColor;overflow: hidden;" viewBox="0 0 1024 1024" version="1.1" xmlns="http://www.w3.org/2000/svg" width="32" height="32"><path d="M0 0h1024v1024H0z" fill="#568af2" fill-opacity="0" /><path d="M501.970824 124.235294a131.764706 131.764706 0 0 1 131.614117 125.379765l0.150588 6.384941v35.237647a26.352941 26.352941 0 0 1-52.525176 3.312941l-0.180706-3.312941V256a79.058824 79.058824 0 0 0-157.967059-4.999529l-0.150588 4.999529v244.856471a26.352941 26.352941 0 0 1-52.525176 3.312941l-0.180706-3.312941V256a131.764706 131.764706 0 0 1 131.764706-131.764706zM607.382588 475.678118c13.432471 0 24.515765 10.029176 26.142118 23.04l0.210823 3.312941v245.88047a131.764706 131.764706 0 0 1-263.378823 6.384942l-0.150588-6.384942V712.282353a26.352941 26.352941 0 0 1 52.495058-3.312941l0.210824 3.312941v35.659294a79.058824 79.058824 0 0 0 157.967059 4.999529l0.150588-4.999529V502.061176c0-14.576941 11.776-26.352941 26.352941-26.352941z" fill="#568af2" /><path d="M290.936471 370.206118a26.352941 26.352941 0 0 1 3.312941 52.495058l-3.312941 0.210824H255.698824a78.908235 78.908235 0 0 0-78.757648 79.058824 78.938353 78.938353 0 0 0 73.788236 78.908235l4.999529 0.150588h246.241883a26.352941 26.352941 0 0 1 3.312941 52.495059l-3.312941 0.210823H255.698824a131.614118 131.614118 0 0 1-131.493648-131.764705c0-70.625882 55.416471-128.301176 125.108706-131.614118l6.384942-0.150588H290.936471zM747.730824 370.206118a131.855059 131.855059 0 0 1 131.945411 131.764706 131.855059 131.855059 0 0 1-125.56047 131.614117l-6.384941 0.150588h-33.792a26.352941 26.352941 0 0 1-3.312942-52.525176l3.312942-0.180706h33.792a79.149176 79.149176 0 0 0 79.239529-79.058823 79.149176 79.149176 0 0 0-74.24-78.908236l-4.999529-0.150588h-245.76a26.352941 26.352941 0 0 1-3.312942-52.525176l3.312942-0.180706h245.76z" fill="#568af2" /></svg>