<svg class="icon" style="width: 1em;height: 1em;vertical-align: middle;fill: currentColor;overflow: hidden;" viewBox="0 0 1024 1024" version="1.1" xmlns="http://www.w3.org/2000/svg" width="32" height="32"><path d="M853.323294 124.235294c14.576941 0 26.352941 11.806118 26.352941 26.352941v702.735059a26.352941 26.352941 0 0 1-26.352941 26.352941h-193.234823a26.352941 26.352941 0 0 1-26.352942-26.352941l-0.030117-305.302588-150.377412-150.40753a26.352941 26.352941 0 0 1-7.499294-15.179294l-0.210824-3.463529V150.588235c0-14.546824 11.776-26.352941 26.352942-26.352941zM361.411765 124.235294c14.546824 0 26.352941 11.806118 26.352941 26.352941v287.744l150.407529 150.40753a26.352941 26.352941 0 0 1 7.469177 15.179294l0.240941 3.463529v245.940706a26.352941 26.352941 0 0 1-26.352941 26.352941H150.588235a26.352941 26.352941 0 0 1-26.352941-26.352941V150.588235c0-14.546824 11.806118-26.352941 26.352941-26.352941z" fill="#568af2" /></svg>