<svg class="icon" style="width: 1em;height: 1em;vertical-align: middle;fill: currentColor;overflow: hidden;" viewBox="0 0 1024 1024" version="1.1" xmlns="http://www.w3.org/2000/svg" width="32" height="32"><path d="M527.751529 127.457882l0.542118 0.301177 304.308706 175.706353c8.131765 4.698353 13.161412 13.402353 13.161412 22.799059V677.647059a26.352941 26.352941 0 0 1-13.161412 22.829176L528.263529 876.122353a26.503529 26.503529 0 0 1 10.179765-10.631529l0.210824-0.361412 0.391529-0.843294a26.503529 26.503529 0 0 0 0.692706-1.626353l0.210823-0.602353 94.358589-267.414588 165.285647 105.200941 2.921412 1.596235a26.352941 26.352941 0 0 0 25.389176-46.08l-167.815529-106.767059 173.778823-205.312 0.240941-0.301176a26.503529 26.503529 0 0 0 1.505883-2.017883l0.391529-0.602353a26.112 26.112 0 0 0 4.096-14.185411v-1.204706l-0.060235-0.421647a26.503529 26.503529 0 0 0-0.180706-1.897412l-0.150588-0.993882a26.834824 26.834824 0 0 0-5.903059-12.528942l-0.451765-0.512-0.361412-0.391529a26.443294 26.443294 0 0 0-1.686588-1.626353l-0.542118-0.481882a26.895059 26.895059 0 0 0-5.933176-3.794824l-2.921412-1.14447a26.503529 26.503529 0 0 0-1.566117-0.451765l-1.505883-0.331294-0.542117-0.120471a26.352941 26.352941 0 0 0-9.125647 0l2.800941-0.301176a26.503529 26.503529 0 0 0-1.566118 0.12047l-1.204706 0.210824-267.776 47.22447V150.588235l-0.180706-3.312941a26.383059 26.383059 0 0 0-13.522823-19.817412z m-25.389176 0.060236a26.352941 26.352941 0 0 0-13.583059 23.070117l-0.030118 196.969412-267.745882-47.224471-1.204706-0.210823a26.503529 26.503529 0 0 0-1.566117-0.150588H217.750588a26.292706 26.292706 0 0 0-5.180235 0.240941l-0.662588 0.090353-0.572236 0.12047a26.202353 26.202353 0 0 0-11.89647 5.722353l1.776941-1.355294a26.503529 26.503529 0 0 0-1.475765 1.114353l-0.301176 0.240941a26.864941 26.864941 0 0 0-7.981177 11.745883l-0.180706 0.602353-0.271058 0.903529a26.443294 26.443294 0 0 0-0.421647 1.897412l-0.090353 0.391529a26.804706 26.804706 0 0 0 0.060235 9.547294c0.632471 3.252706 1.867294 6.324706 3.614118 9.065412l0.030117 0.120471 0.39153 0.572235a26.503529 26.503529 0 0 0 1.505882 2.017882l0.240941 0.301177 173.748706 205.312-167.755294 106.797176-2.710588 1.92753a26.352941 26.352941 0 0 0 30.991059 42.526117l165.285647-105.200941 94.358588 267.444706 0.210823 0.572235a26.503529 26.503529 0 0 0 0.692706 1.626353l0.39153 0.843294a26.352941 26.352941 0 0 0 9.728 10.601412l0.873411 0.512-0.210823-0.12047-304.278588-175.676236a26.352941 26.352941 0 0 1-13.19153-22.829176V326.264471c0-9.396706 5.029647-18.100706 13.19153-22.799059l304.278588-175.706353z m80.896 453.481411l-68.156235 193.144471-68.156236-193.144471h136.312471z m-68.156235-150.829176l58.88 98.123294h-117.76l58.88-98.123294z m-231.454118-65.264941l189.138824 33.370353-66.740706 111.254588-122.398118-144.624941z m462.908235 0l-122.398117 144.624941-66.740706-111.254588 189.138823-33.370353z" fill="#568af2" /></svg>