<svg class="icon" style="width: 1em;height: 1em;vertical-align: middle;fill: currentColor;overflow: hidden;" viewBox="0 0 1024 1024" version="1.1" xmlns="http://www.w3.org/2000/svg" width="32" height="32"><path d="M651.294118 704v149.323294l0.210823 3.312941a26.352941 26.352941 0 0 0 26.142118 23.04H150.588235l3.373177-0.210823a26.232471 26.232471 0 0 0 15.269647-7.499294l167.936-167.966118h314.127059z m221.153882-8.222118l-0.481882 0.512-175.676236 175.676236a26.383059 26.383059 0 0 1 7.710118-18.642824v-149.323294h149.323294l3.312941-0.210824a26.292706 26.292706 0 0 0 15.811765-8.011294zM124.235294 326.264471c0 14.576941 11.806118 26.352941 26.352941 26.352941h149.323294v314.096941l-167.966117 167.996235-2.349177 2.710588a26.383059 26.383059 0 0 0-5.360941 15.902118z m753.603765-185.374118c1.204706 3.011765 1.837176 6.264471 1.837176 9.697882v527.058824l-0.180706-3.312941a26.352941 26.352941 0 0 0-26.172235-23.04h-149.323294v-314.127059l167.966118-167.936 2.349176-2.710588a26.352941 26.352941 0 0 0 4.517647-22.618353z m-226.544941 211.727059v298.676706h-298.676706v-298.676706h298.676706zM308.073412 131.523765A26.262588 26.262588 0 0 0 299.971765 150.588235l-0.030118 149.323294H150.588235l-3.312941 0.210824a26.292706 26.292706 0 0 0-15.751529 7.951059l0.421647-0.421647 175.706353-175.706353z m545.249882-7.288471a26.383059 26.383059 0 0 1-18.612706 7.710118l-167.996235 167.966117H352.617412V150.588235l-0.180706-3.312941a26.352941 26.352941 0 0 0-26.172235-23.04z" fill="#568af2" /></svg>