<svg class="icon" style="width: 1em;height: 1em;vertical-align: middle;fill: currentColor;overflow: hidden;" viewBox="0 0 1024 1024" version="1.1" xmlns="http://www.w3.org/2000/svg" width="32" height="32"><path d="M822.362353 699.843765l-0.843294 0.512-298.676706 175.706353c-0.060235 0 0.030118 0 0.120471-0.090353a23.883294 23.883294 0 0 0 5.330823-4.156236 26.593882 26.593882 0 0 0 2.168471-2.499764l0.150588-0.210824 0.240941-0.301176a26.262588 26.262588 0 0 0 1.355294-2.108236l0.210824-0.361411 91.949176-162.334118h183.777883l2.16847-0.090353a26.202353 26.202353 0 0 0 7.529412-1.746823h0.060235l0.602353-0.271059a26.232471 26.232471 0 0 0 2.379294-1.174589l0.271059-0.150588a26.774588 26.774588 0 0 0 1.204706-0.722823z m-625.633882 0.090353l1.114353 0.63247a26.864941 26.864941 0 0 0 2.379294 1.204706l0.662588 0.301177a24.576 24.576 0 0 0 6.475294 1.716705h0.150588l1.505883 0.150589 1.264941 0.060235h184.289882l91.979294 162.334118 0.210824 0.331294a26.262588 26.262588 0 0 0 1.204706 1.897412l0.391529 0.542117a26.322824 26.322824 0 0 0 5.150118 5.180235l0.210823 0.180706 1.114353 0.752942a26.292706 26.292706 0 0 0 1.204706 0.783058l-298.586353-175.646117a26.443294 26.443294 0 0 1-0.722823-0.421647z m258.409411 4.065882h108.664471l-54.332235 95.894588-54.332236-95.894588z m379.361883-377.735529V677.647059v-0.301177a25.810824 25.810824 0 0 0-3.252706-12.40847l-0.150588-0.301177-92.220236-162.695529 92.220236-162.665412a26.624 26.624 0 0 0 3.19247-9.517176v-0.180706l0.090353-0.692706a26.262588 26.262588 0 0 0 0.120471-2.349177v-0.271058z m-650.029177 0.692705l0.060236 1.204706 0.150588 1.41553a26.232471 26.232471 0 0 0 3.072 9.426823l0.150588 0.271059 92.16 162.635294-92.16 162.755765-0.180706 0.301176a26.202353 26.202353 0 0 0-3.252706 12.67953l0.060236-1.897412a26.262588 26.262588 0 0 0-0.060236 1.204706z m125.891765 228.442353l54.332235 95.894589H256.030118l54.332235-95.894589z m398.215529-0.030117l54.362353 95.924706h-108.694588l54.332235-95.924706z m-114.898823-202.752l84.630588 149.323294-84.630588 149.353412H425.261176l-84.60047-149.38353 84.60047-149.293176h168.417883z m169.261176 0l-54.362353 95.894588-54.332235-95.894588h108.694588z m-506.910117 0h108.66447l-54.332235 95.894588-54.332235-95.894588z m240.399058-224.918588a26.864941 26.864941 0 0 0-7.770352 6.746352l-0.301177 0.361412-0.361412 0.542118a26.262588 26.262588 0 0 0-1.234823 1.897412l-0.210824 0.361411-91.979294 162.304H209.889882a26.202353 26.202353 0 0 0-11.956706 3.373177l-0.090352 0.060235-0.90353 0.542118 0.512-0.301177 298.676706-175.706353z m26.202353 0.030117l0.210824 0.150588 298.676706 175.676236a26.443294 26.443294 0 0 1 0.391529 0.240941l-0.752941-0.451765a27.527529 27.527529 0 0 0-9.517176-3.19247h-0.180706l-0.692706-0.120471a26.262588 26.262588 0 0 0-2.349177-0.120471H624.368941l-91.949176-162.334117-0.210824-0.301177a26.262588 26.262588 0 0 0-1.355294-2.108235l-0.240941-0.361412a26.322824 26.322824 0 0 0-5.029647-5.12l-0.301177-0.210823-1.325176-0.90353a26.292706 26.292706 0 0 0-1.325177-0.843294z m-13.161411 76.288l54.332235 95.894588h-108.664471l54.332236-95.894588z" fill="#568af2" /></svg>