<svg class="icon" style="width: 1em;height: 1em;vertical-align: middle;fill: currentColor;overflow: hidden;" viewBox="0 0 1024 1024" version="1.1" xmlns="http://www.w3.org/2000/svg" width="32" height="32"><path d="M483.328 131.945412a26.352941 26.352941 0 0 1 34.575059-2.349177l2.710588 2.349177 351.352471 351.382588a26.352941 26.352941 0 0 1-34.575059 39.634824l-2.710588-2.379295L501.970824 187.843765 187.843765 501.940706l314.096941 314.096941 174.652235-174.592a26.352941 26.352941 0 0 1 34.544941-2.349176l2.710589 2.349176c9.426824 9.426824 10.24 24.244706 2.349176 34.575059l-2.349176 2.710588-193.264942 193.234824a26.352941 26.352941 0 0 1-34.544941 2.349176l-2.710588-2.349176L131.915294 520.583529a26.352941 26.352941 0 0 1-2.349176-34.544941l2.349176-2.710588L483.328 131.915294z" fill="#568af2" /><path d="M465.769412 475.617882l20.961882-0.271058 8.824471 0.090352 19.124706 0.542118c6.656 0.271059 13.613176 0.602353 20.811294 1.054118 37.225412 2.349176 73.968941 7.017412 108.574117 14.637176 63.638588 14.004706 114.748235 36.653176 148.841412 70.716236 33.520941 33.520941 46.863059 79.450353 44.303059 133.300705-1.716706 36.261647-10.541176 74.360471-24.033882 112.489412-3.945412 11.113412-8.131765 21.654588-12.318118 31.503059l-6.174118 13.884235-4.72847 9.818353a158.027294 158.027294 0 0 1-1.114353 2.168471 26.352941 26.352941 0 1 1-46.682353-24.45553l3.222588-6.565647 3.222588-6.957176c5.059765-11.203765 10.149647-23.672471 14.878118-37.044706 11.956706-33.641412 19.636706-66.921412 21.082353-97.340235 1.927529-40.267294-7.228235-71.860706-28.912941-93.515294-25.630118-25.630118-68.186353-44.483765-122.910118-56.530824a666.383059 666.383059 0 0 0-100.532706-13.492706l-19.516235-0.993882a786.944 786.944 0 0 0-9.125647-0.301177l-16.926118-0.301176-16.655059 0.180706-2.108235 0.060235a26.352941 26.352941 0 1 1-2.108235-52.675765z" fill="#568af2" /><path d="M518.475294 413.063529a26.352941 26.352941 0 0 1 39.604706 34.544942l-2.349176 2.710588-51.651765 51.621647 51.651765 51.651765c9.426824 9.456941 10.24 24.244706 2.349176 34.575058l-2.349176 2.710589a26.352941 26.352941 0 0 1-34.575059 2.349176l-2.710589-2.349176-70.26447-70.294589a26.352941 26.352941 0 0 1-2.349177-34.544941l2.349177-2.710588 70.294588-70.264471z" fill="#568af2" /></svg>