<svg class="icon" style="width: 1em;height: 1em;vertical-align: middle;fill: currentColor;overflow: hidden;" viewBox="0 0 1024 1024" version="1.1" xmlns="http://www.w3.org/2000/svg" width="32" height="32"><path d="M509.470118 532.510118l285.334588 167.845647 2.951529 1.505882c7.559529 3.252706 16.052706 2.710588 22.979765-1.054118l-297.863529 175.254589a26.503529 26.503529 0 0 1 12.950588-22.738824V677.647059l-0.180706-3.312941a26.352941 26.352941 0 0 0-52.495059 3.312941v175.676235l0.180706 3.312941c1.084235 8.432941 6.113882 15.661176 13.221647 19.666824l-0.421647-0.240941-298.676706-175.706353a26.383059 26.383059 0 0 1 26.744471 0l285.274353-167.845647z m12.769882-404.992l0.602353 0.361411 298.676706 175.676236a26.413176 26.413176 0 0 1-27.316706 0.361411l-140.559059 87.853177-2.710588 1.927529a26.352941 26.352941 0 0 0 30.629647 42.767059l140.559059-87.853176 2.710588-1.92753a26.352941 26.352941 0 0 0 9.667765-20.660706V677.647059a26.443294 26.443294 0 0 1-12.980706-22.708706l-285.696-168.056471V150.588235l-0.180706-3.312941a26.352941 26.352941 0 0 0-13.402353-19.757176z m-25.479529 0a26.352941 26.352941 0 0 0-13.613177 23.070117l-0.030118 336.293647-285.665882 168.056471-2.710588 1.837176a26.352941 26.352941 0 0 0-10.270118 20.841412V326.264471a26.443294 26.443294 0 0 1 12.378353 22.347294l140.559059 87.853176 2.921412 1.566118a26.352941 26.352941 0 0 0 24.997647-46.260706l-140.528941-87.853177-2.921412-1.566117a26.383059 26.383059 0 0 0-25.178353 1.686588l0.752941-0.481882 298.676706-175.676236z" fill="#568af2" /></svg>