<svg class="icon" style="width: 1em;height: 1em;vertical-align: middle;fill: currentColor;overflow: hidden;" viewBox="0 0 1024 1024" version="1.1" xmlns="http://www.w3.org/2000/svg" width="32" height="32"><path d="M226.273882 178.688c83.787294-48.368941 193.475765-22.256941 287.774118 54.633412-43.399529 35.358118-83.546353 81.498353-116.404706 136.071529l-5.330823 9.035294c-103.424 179.139765-92.672 382.674824 31.774117 454.505412 27.648 15.962353 58.127059 23.792941 89.961412 24.395294-111.344941 2.048-239.104-84.841412-319.548235-224.135529-103.393882-179.139765-92.641882-382.674824 31.774117-454.475294z m292.894118 50.477176c93.153882-73.667765 200.372706-97.942588 282.624-50.477176 124.416 71.830588 135.168 275.365647 31.774118 454.475294-80.444235 139.324235-208.173176 226.213647-319.548236 224.165647a184.711529 184.711529 0 0 0 89.99153-24.395294c124.416-71.830588 135.168-275.365647 31.744-454.475294-33.792-58.548706-75.926588-107.821176-121.675294-145.167059z" fill="#568af2" /></svg>