<svg class="icon" style="width: 1em;height: 1em;vertical-align: middle;fill: currentColor;overflow: hidden;" viewBox="0 0 1024 1024" version="1.1" xmlns="http://www.w3.org/2000/svg" width="32" height="32"><path d="M548.291765 138.661647l3.915294 3.584 322.981647 322.981647c22.768941 22.768941 23.943529 58.910118 3.614118 83.064471l-3.614118 3.915294-322.981647 322.981647a61.500235 61.500235 0 0 1-83.064471 3.614118l-3.915294-3.614118L142.245647 552.207059a61.500235 61.500235 0 0 1-3.614118-83.064471l3.614118-3.915294L465.227294 142.245647a61.500235 61.500235 0 0 1 83.064471-3.614118z m-43.309177 203.143529a166.912 166.912 0 1 0 0 333.824 166.912 166.912 0 0 0 0-333.824z m0 52.705883a114.206118 114.206118 0 1 1 0 228.412235 114.206118 114.206118 0 0 1 0-228.412235z" fill="#568af2" /></svg>