<svg class="icon" style="width: 1em;height: 1em;vertical-align: middle;fill: currentColor;overflow: hidden;" viewBox="0 0 1024 1024" version="1.1" xmlns="http://www.w3.org/2000/svg" width="32" height="32"><path d="M527.058824 154.352941c13.432471 0 24.515765 10.059294 26.142117 23.04l0.210824 3.312941v79.058824H843.294118c13.432471 0 24.515765 10.059294 26.142117 23.04l0.210824 3.312941v562.206118a26.352941 26.352941 0 0 1-23.04 26.142117l-3.312941 0.210824H527.058824a26.352941 26.352941 0 0 1-26.142118-23.070118l-0.210824-3.312941v-79.058823H210.823529a26.352941 26.352941 0 0 1-26.142117-23.04l-0.210824-3.312942V180.705882c0-13.432471 10.059294-24.515765 23.04-26.142117L210.823529 154.352941h316.235295z m106.496 322.048l-2.650353 2.409412-2.288942 2.770823a26.383059 26.383059 0 0 0 0.873412 31.864471l2.409412 2.620235 51.922823 49.182118-47.796705 54.934588-2.168471 2.861177a26.352941 26.352941 0 0 0 39.393882 34.304l2.529883-2.56 64.421647-73.968941 2.108235-2.770824a26.383059 26.383059 0 0 0-1.295059-30.840471l-2.590117-2.831058-70.264471-66.56-2.770824-2.288942a26.383059 26.383059 0 0 0-31.834352 0.873412z m-244.856471-106.315294l-2.740706 2.319059-70.264471 66.56-2.379294 2.56a26.383059 26.383059 0 0 0-1.686588 30.84047l2.288941 3.041883 64.451765 73.968941 2.499765 2.56a26.383059 26.383059 0 0 0 31.804235 2.168471l2.861176-2.138353 2.529883-2.529883a26.383059 26.383059 0 0 0 2.198588-31.804235l-2.168471-2.861176-47.826823-54.934589 51.922823-49.182117 2.43953-2.620236a26.352941 26.352941 0 0 0-35.900235-37.948235z" fill="#568af2" /></svg>