<svg class="icon" style="width: 1em;height: 1em;vertical-align: middle;fill: currentColor;overflow: hidden;" viewBox="0 0 1024 1024" version="1.1" xmlns="http://www.w3.org/2000/svg" width="32" height="32"><path d="M124.355765 511.126588l-0.120471-9.155764c0-208.624941 169.110588-377.735529 377.73553-377.73553 205.522824 0 372.736 164.171294 377.615058 368.549647l0.090353 9.125647v0.060236c0 205.522824-164.141176 372.736-368.549647 377.615058l-9.155764 0.090353c-205.552941 0-372.766118-164.141176-377.615059-368.549647zM564.464941 190.644706l3.945412 1.897412a149.323294 149.323294 0 0 1-42.104471 281.118117 202.059294 202.059294 0 0 0-282.895058-156.009411 316.054588 316.054588 0 0 0-52.796236 121.825882 149.353412 149.353412 0 0 1 283.01553 38.128941 202.089412 202.089412 0 0 0-156.009412 282.925177 315.934118 315.934118 0 0 0 121.735529 52.766117 149.383529 149.383529 0 0 1 38.219294-282.985412 202.089412 202.089412 0 0 0 282.955295 156.009412 316.235294 316.235294 0 0 0 52.766117-121.735529 149.383529 149.383529 0 0 1-283.015529-38.249412 202.059294 202.059294 0 0 0 156.009412-282.925176 316.355765 316.355765 0 0 0-121.825883-52.766118z" fill="#568af2" /></svg>