<svg class="icon" style="width: 1em;height: 1em;vertical-align: middle;fill: currentColor;overflow: hidden;" viewBox="0 0 1024 1024" version="1.1" xmlns="http://www.w3.org/2000/svg" width="32" height="32"><path d="M343.853176 651.294118a26.352941 26.352941 0 0 1 3.312942 52.495058l-3.312942 0.210824H247.326118l0.692706 0.903529a324.547765 324.547765 0 0 0 243.922823 121.916236l10.029177 0.150588c71.258353 0 139.113412-22.979765 195.041882-64.752941a26.352941 26.352941 0 1 1 31.533176 42.224941 377.464471 377.464471 0 0 1-226.575058 75.233882 377.524706 377.524706 0 0 1-327.198118-188.837647 26.352941 26.352941 0 0 1 19.516235-39.333647l3.312941-0.210823h146.251294zM653.071059 155.678118a377.765647 377.765647 0 0 1 226.605176 346.292706c0 67.222588-17.588706 131.915294-50.537411 188.867764a26.352941 26.352941 0 0 1-43.550118 3.072l-2.108235-3.072-70.987295-123.00047a26.352941 26.352941 0 0 1 43.791059-29.123765l1.837177 2.770823 46.170353 79.932236 3.072-8.011294c11.595294-31.744 18.221176-65.355294 19.425882-99.900236l0.180706-11.535058c0-130.439529-77.522824-246.663529-195.011765-297.984a26.352941 26.352941 0 1 1 21.082353-48.308706z m-151.100235 214.528a131.764706 131.764706 0 1 1 0 263.529411 131.764706 131.764706 0 0 1 0-263.529411z m0-245.970824c19.154824 0 31.533176 19.576471 24.304941 36.562824l-1.505883 2.981647-71.017411 122.970353a26.352941 26.352941 0 0 1-47.104-23.401412l1.475764-2.95153 46.140236-79.962352-3.373177 0.481882c-152.455529 24.094118-269.703529 154.142118-273.829647 312.380235l-0.120471 8.673883c0 10.902588 0.542118 21.775059 1.596236 32.527058a26.352941 26.352941 0 1 1-52.434824 5.210353 381.921882 381.921882 0 0 1-1.867294-37.737411c0-208.624941 169.110588-377.735529 377.73553-377.73553z" fill="#568af2" /></svg>