<svg class="icon" style="width: 1em;height: 1em;vertical-align: middle;fill: currentColor;overflow: hidden;" viewBox="0 0 1024 1024" version="1.1" xmlns="http://www.w3.org/2000/svg" width="32" height="32"><path d="M493.176471 124.235294a245.970824 245.970824 0 0 1 27.346823 490.405647 114.838588 114.838588 0 0 1-21.955765 1.475765l-5.391058 0.030118a26.352941 26.352941 0 0 1-7.800471-1.174589l-1.957647-0.301176a193.264941 193.264941 0 0 0 343.552-121.494588 26.352941 26.352941 0 0 1 52.705882 0 245.970824 245.970824 0 0 1-490.405647 27.316705 114.657882 114.657882 0 0 1-1.445647-21.805176l-0.060235-5.511529c0-2.710588 0.421647-5.330824 1.174588-7.800471 0.843294-5.722353 2.108235-11.354353 3.764706-16.775529a193.264941 193.264941 0 0 0 100.472471 358.4 26.352941 26.352941 0 0 1 0 52.705882 245.970824 245.970824 0 1 1 0-491.941647l2.620235 0.150588a116.043294 116.043294 0 0 1 39.514353 4.818824 193.264941 193.264941 0 0 0-358.4 100.47247 26.352941 26.352941 0 1 1-52.675765-0.030117 245.970824 245.970824 0 1 1 491.91153 0l-0.150589 2.68047a116.043294 116.043294 0 0 1-1.325176 24.636235 193.264941 193.264941 0 0 0-121.494588-343.552 26.352941 26.352941 0 1 1 0-52.705882z" fill="#568af2" /></svg>