<svg class="icon" style="width: 1em;height: 1em;vertical-align: middle;fill: currentColor;overflow: hidden;" viewBox="0 0 1024 1024" version="1.1" xmlns="http://www.w3.org/2000/svg" width="32" height="32"><path d="M494.91968 5.12a155.32032 155.32032 0 0 1 155.11552 147.456 442.1632 442.1632 0 0 1 271.9744 528.30208 154.95168 154.95168 0 0 1 62.75072 124.68224c0 40.5504-15.64672 78.68416-43.13088 107.39712a154.91072 154.91072 0 0 1-112.18944 47.9232 154.58304 154.58304 0 0 1-87.98208-27.36128 439.9104 439.9104 0 0 1-246.53824 75.12064c-89.21088 0-174.44864-26.54208-246.5792-75.12064a155.32032 155.32032 0 0 1-180.55168-252.68224 442.20416 442.20416 0 0 1 271.9744-528.26112 155.36128 155.36128 0 0 1 155.15648-147.456z m141.59872 219.136l-3.15392 6.67648a155.48416 155.48416 0 0 1-138.4448 84.7872 155.32032 155.32032 0 0 1-141.59872-91.42272 370.4832 370.4832 0 0 0-218.7264 428.15488 155.32032 155.32032 0 0 1 162.4064 227.1232 367.73888 367.73888 0 0 0 197.91872 57.344c71.31136 0 139.4688-20.15232 198.00064-57.26208a155.32032 155.32032 0 0 1 162.28352-227.28704 370.56512 370.56512 0 0 0-218.7264-428.11392z" fill="#568af2" /></svg>