<svg class="icon" style="width: 1em;height: 1em;vertical-align: middle;fill: currentColor;overflow: hidden;" viewBox="0 0 1024 1024" version="1.1" xmlns="http://www.w3.org/2000/svg" width="32" height="32"><path d="M0 0h1024v1024H0z" fill="#568af2" fill-opacity="0" /><path d="M409.088 314.970353a26.352941 26.352941 0 0 1 3.312941 52.525176l-3.312941 0.180706H338.823529a131.764706 131.764706 0 1 0 102.098824 215.070118l7.378823-9.035294 4.005648-5.12 8.583529-11.444706 8.794353-12.137412c6.174118-8.704 12.468706-17.829647 18.733176-27.105882l16.564706-25.057883 17.438118-26.864941c9.517176-14.456471 19.365647-28.912941 28.973176-42.435764l9.035294-12.528942 4.969412-6.656 9.336471-12.137411c7.469176-9.456941 14.155294-17.227294 20.08847-23.130353a184.470588 184.470588 0 1 1 137.276236 314.729411l-6.776471 0.090353H655.058824a26.352941 26.352941 0 0 1-3.312942-52.495058l3.312942-0.210824h70.26447a131.764706 131.764706 0 1 0-93.214118-224.858353c-3.553882 3.553882-7.860706 8.432941-12.769882 14.486588l-7.80047 9.908706-8.613648 11.444706-8.553411 11.896471c-6.174118 8.673882-12.438588 17.769412-18.672941 27.015529l-21.38353 32.466824-12.589176 19.395764c-9.577412 14.516706-19.425882 29.003294-29.093647 42.586353l-9.276236 12.830118-4.969411 6.656-9.336471 12.137412a268.950588 268.950588 0 0 1-20.178824 23.100235 184.470588 184.470588 0 1 1-136.82447-315.181176l6.77647-0.120471h70.264471z" fill="#568af2" /><path d="M706.710588 568.651294a26.352941 26.352941 0 0 1 39.604706 34.575059l-2.349176 2.710588-51.651765 51.621647 51.651765 51.651765c9.426824 9.426824 10.24 24.244706 2.349176 34.575059l-2.349176 2.710588a26.352941 26.352941 0 0 1-34.575059 2.349176l-2.710588-2.379294-70.264471-70.26447a26.352941 26.352941 0 0 1-2.349176-34.575059l2.349176-2.710588 70.294588-70.264471zM320.180706 252.416a26.352941 26.352941 0 0 1 34.575059-2.349176l2.710588 2.349176 70.264471 70.294588c9.426824 9.426824 10.24 24.214588 2.349176 34.544941l-2.349176 2.710589-70.264471 70.26447a26.352941 26.352941 0 0 1-39.634824-34.544941l2.349177-2.710588 51.621647-51.651765-51.621647-51.621647a26.352941 26.352941 0 0 1-2.349177-34.575059l2.349177-2.710588z" fill="#568af2" /></svg>