<svg class="icon" style="width: 1em;height: 1em;vertical-align: middle;fill: currentColor;overflow: hidden;" viewBox="0 0 1024 1024" version="1.1" xmlns="http://www.w3.org/2000/svg" width="32" height="32"><path d="M522.511059 124.235294c60.536471 0 112.128 47.344941 144.293647 139.294118-43.068235 9.878588-91.437176 26.955294-144.26353 51.83247 28.641882 13.552941 58.669176 29.334588 89.871059 47.49553 31.051294 18.070588 59.482353 36.291765 85.293177 54.482823 2.951529 31.593412 4.487529 65.656471 4.487529 102.189177 0 36.592941-1.536 70.746353-4.487529 102.4-25.780706 18.040471-54.211765 36.171294-85.293177 54.272a1207.085176 1207.085176 0 0 1-89.901176 47.646117c53.007059 25.118118 101.195294 42.375529 144.052706 52.404706-32.195765 91.467294-83.666824 138.571294-144.052706 138.571294-59.482353 0-110.893176-47.856941-143.299765-138.752 42.646588-10.029176 90.593882-27.256471 143.299765-52.224a1137.965176 1137.965176 0 0 1-56.681412-28.912941l-22.046118-12.288-11.203764-6.445176c-31.021176-18.070588-59.392-36.171294-85.172706-54.211765a1089.536 1089.536 0 0 1-4.577883-102.460235c0-36.502588 1.596235-70.625882 4.608-102.309647a1177.901176 1177.901176 0 0 1 85.142589-54.362353l11.053176-6.354824c27.286588-15.540706 53.609412-29.214118 78.908235-41.140706-52.585412-24.696471-100.683294-41.773176-143.570823-51.651764 32.376471-91.376941 83.907765-139.474824 143.540706-139.474824zM170.224941 308.946824c32.677647-51.440941 105.712941-68.999529 208.715294-45.236706-14.908235 42.134588-25.780706 93.455059-31.503059 153.509647C298.164706 451.915294 258.409412 486.520471 227.990588 520.071529c30.358588 33.129412 70.083765 67.403294 119.416471 101.918118 5.812706 60.355765 16.775529 111.856941 31.804235 154.081882-106.315294 24.997647-179.742118 5.330824-211.546353-50.176-30.840471-53.910588-11.203765-126.885647 60.325647-205.824-72.643765-79.239529-91.708235-152.064-60.325647-206.908235z m496.790588-45.477648c105.291294-24.064 179.079529-4.818824 210.31153 49.694118 31.382588 54.844235 12.348235 127.668706-60.29553 206.908235 71.499294 78.908235 91.136 151.913412 60.29553 205.824-31.713882 55.386353-104.869647 75.083294-210.763294 50.356706 14.817882-42.134588 25.539765-93.665882 31.141647-154.322823 49.302588-34.544941 88.967529-68.758588 119.326117-101.857883-30.418824-33.520941-70.144-68.065882-119.326117-102.731294-5.541647-60.416-16.173176-111.796706-30.900706-153.810823z" fill="#568af2" /></svg>