<svg class="icon" style="width: 1em;height: 1em;vertical-align: middle;fill: currentColor;overflow: hidden;" viewBox="0 0 1024 1024" version="1.1" xmlns="http://www.w3.org/2000/svg" width="32" height="32"><path d="M250.970353 686.441412a96.617412 96.617412 0 1 1 0 193.234823 96.617412 96.617412 0 0 1 0-193.234823zM813.176471 405.323294c13.432471 0 24.515765 10.059294 26.142117 23.070118l0.210824 3.312941V783.058824a26.352941 26.352941 0 0 1-23.04 26.142117l-3.312941 0.210824H461.793882a26.352941 26.352941 0 0 1-3.312941-52.495059l3.312941-0.210824h325.029647V431.676235c0-13.432471 10.059294-24.515765 23.04-26.142117l3.312942-0.210824z m-210.82353-210.823529a26.352941 26.352941 0 0 1 3.312941 52.525176l-3.312941 0.180706H277.323294V572.235294a26.352941 26.352941 0 0 1-23.04 26.142118l-3.312941 0.210823a26.352941 26.352941 0 0 1-26.142118-23.04L224.617412 572.235294V220.852706c0-13.432471 10.059294-24.515765 23.070117-26.142118l3.312942-0.210823H602.352941z m210.82353-70.264471a96.617412 96.617412 0 1 1 0 193.264941 96.617412 96.617412 0 0 1 0-193.264941z" fill="#568af2" /></svg>