<svg class="icon" style="width: 1em;height: 1em;vertical-align: middle;fill: currentColor;overflow: hidden;" viewBox="0 0 1024 1024" version="1.1" xmlns="http://www.w3.org/2000/svg" width="32" height="32"><path d="M504.591059 136.824471a26.202353 26.202353 0 0 0-3.885177 13.763764v702.735059l0.210824 3.312941a26.383059 26.383059 0 0 0 15.119059 20.630589l-0.752941-0.361412-316.235295-158.117647a26.352941 26.352941 0 0 1-11.023058-36.803765l316.235294-544.617412z m44.875294-0.120471l0.391529 0.662588 316.235294 544.617412a26.352941 26.352941 0 0 1-11.023058 36.803765l-316.235294 158.117647a26.413176 26.413176 0 0 1 14.576941-23.582118V150.588235l-0.210824-3.312941a26.202353 26.202353 0 0 0-3.734588-10.541176z" fill="#568af2" /></svg>