<svg class="icon" style="width: 1em;height: 1em;vertical-align: middle;fill: currentColor;overflow: hidden;" viewBox="0 0 1024 1024" version="1.1" xmlns="http://www.w3.org/2000/svg" width="32" height="32"><path d="M0 0h1024v1024H0z" fill="#568af2" fill-opacity="0" /><path d="M607.322353 184.470588a26.352941 26.352941 0 0 1 3.403294 52.495059l-3.312941 0.210824-166.942118 0.301176v149.383529a26.352941 26.352941 0 0 1-23.04 26.172236l-3.312941 0.210823-237.176471-0.030117v193.264941h272.293648c13.432471 0 24.545882 10.059294 26.172235 23.04l0.180706 3.312941a26.352941 26.352941 0 0 1-23.04 26.142118l-3.312941 0.210823H150.588235a26.352941 26.352941 0 0 1-26.142117-23.04l-0.210824-3.312941v-245.940706c0-13.432471 10.059294-24.545882 23.04-26.172235l3.312941-0.180706 237.176471-0.030118V211.184941c0-13.402353 10.029176-24.485647 23.009882-26.142117l3.312941-0.210824 193.234824-0.361412z" fill="#568af2" /><path d="M853.323294 360.508235c13.432471 0 24.545882 10.059294 26.172235 23.070118l0.180706 3.312941v238.531765a26.352941 26.352941 0 0 1-23.04 26.172235l-3.312941 0.210824-202.029176-0.030118v156.370824a26.352941 26.352941 0 0 1-23.009883 26.142117l-3.312941 0.210824-193.234823 0.391529a26.352941 26.352941 0 0 1-3.403295-52.495059l3.312942-0.210823 166.942117-0.331294v-156.400942c0-13.432471 10.059294-24.545882 23.04-26.172235l3.312941-0.180706 202.029177-0.030117V413.214118h-213.534118a26.352941 26.352941 0 0 1-26.142117-23.04l-0.210824-3.312942c0-13.402353 10.059294-24.515765 23.04-26.142117l3.312941-0.180706h239.887059z" fill="#568af2" /></svg>