<svg class="icon" style="width: 1em;height: 1em;vertical-align: middle;fill: currentColor;overflow: hidden;" viewBox="0 0 1024 1024" version="1.1" xmlns="http://www.w3.org/2000/svg" width="32" height="32"><path d="M245.970824 848.323765a61.500235 61.500235 0 0 1-61.31953-56.922353l-0.180706-4.577883V224.617412c0-32.406588 25.088-58.970353 56.922353-61.31953l4.577883-0.150588h562.176c32.436706 0 58.970353 25.088 61.319529 56.892235l0.180706 4.577883v562.206117a61.500235 61.500235 0 0 1-56.922353 61.31953l-4.577882 0.180706H245.970824z m344.666352-632.470589h-74.511058l-60.416 60.416-2.349177 2.710589a26.383059 26.383059 0 0 0 0 31.86447l2.349177 2.710589 86.768941 86.738823-86.738824 86.799059-2.379294 2.710588a26.383059 26.383059 0 0 0 0 31.864471l2.349177 2.710588 86.768941 86.738823-86.738824 86.799059-2.379294 2.710589a26.383059 26.383059 0 0 0 0 31.86447l2.349177 2.710588 60.446117 60.416h74.511059l-79.058823-79.088941 86.799058-86.738823 2.349177-2.710589a26.383059 26.383059 0 0 0 0-31.86447l-2.349177-2.710588-86.799058-86.799059 86.799058-86.738824 2.349177-2.710588a26.383059 26.383059 0 0 0 0-31.864471l-2.349177-2.710588-86.799058-86.799059 79.028705-79.028706z" fill="#568af2" /></svg>