<svg class="icon" style="width: 1em;height: 1em;vertical-align: middle;fill: currentColor;overflow: hidden;" viewBox="0 0 1024 1024" version="1.1" xmlns="http://www.w3.org/2000/svg" width="32" height="32"><path d="M790.588235 184.470588a79.058824 79.058824 0 0 1 78.908236 74.059294l0.150588 4.99953v87.853176a26.352941 26.352941 0 0 1-52.495059 3.312941l-0.210824-3.312941V263.529412a26.352941 26.352941 0 0 0-23.04-26.142118l-3.312941-0.210823h-289.91247l0.030117 325.029647c0 92.039529-60.295529 190.343529-142.004706 254.795294l431.887059-0.060236a26.352941 26.352941 0 0 0 26.142118-23.04l0.210823-3.312941v-61.500235a26.352941 26.352941 0 0 1 52.495059-3.312941l0.210824 3.312941v61.500235a79.058824 79.058824 0 0 1-74.059294 78.908236l-4.99953 0.150588H263.529412a79.058824 79.058824 0 0 1-78.908236-74.059294l-0.150588-4.99953V263.529412a79.058824 79.058824 0 0 1 74.059294-78.908236l4.99953-0.150588h527.058823z m-178.176 377.253647l-0.180706-0.240941-0.090353-0.090353-0.993882-1.264941a27.798588 27.798588 0 0 1-1.807059-2.861176 26.262588 26.262588 0 0 1 0.060236-25.359059l0.662588-1.144471a27.678118 27.678118 0 0 1 1.084235-1.626353l0.331294-0.451765 0.542118-0.692705a26.503529 26.503529 0 0 1 1.385412-1.566118l105.833411-105.833412a26.352941 26.352941 0 0 1 39.634824 34.544941l-2.349177 2.710589-60.446117 60.416H843.294118a26.352941 26.352941 0 0 1 3.312941 52.525176l-3.312941 0.180706h-147.215059l60.446117 60.446118c9.426824 9.426824 10.24 24.214588 2.349177 34.544941l-2.349177 2.710588a26.352941 26.352941 0 0 1-34.575058 2.349176l-2.710589-2.349176-105.833411-105.863529-0.632471-0.692706 1.054118 1.14447-1.204706-1.325176-0.210824-0.210824z" fill="#568af2" /></svg>