<svg class="icon" style="width: 1em;height: 1em;vertical-align: middle;fill: currentColor;overflow: hidden;" viewBox="0 0 1024 1024" version="1.1" xmlns="http://www.w3.org/2000/svg" width="32" height="32"><path d="M677.647059 124.235294c14.546824 0 26.352941 11.806118 26.352941 26.352941v43.91153H677.647059a26.352941 26.352941 0 0 0-26.352941 26.352941V783.058824c0 14.546824 11.806118 26.352941 26.352941 26.352941h26.352941V194.499765h149.323294c13.432471 0 24.545882 10.059294 26.172235 23.070117l0.180706 3.312942V783.058824a26.352941 26.352941 0 0 1-26.352941 26.352941h-149.323294v43.911529a26.352941 26.352941 0 0 1-23.04 26.172235l-3.312941 0.180706H326.264471a26.352941 26.352941 0 0 1-26.352942-26.352941v-43.911529h26.352942a26.352941 26.352941 0 0 0 26.352941-26.352941V220.852706a26.352941 26.352941 0 0 0-26.352941-26.352941h-26.352942v614.912H150.588235a26.352941 26.352941 0 0 1-26.142117-23.04L124.235294 783.058824V220.852706c0-14.546824 11.806118-26.352941 26.352941-26.352941h149.323294V150.588235c0-13.432471 10.059294-24.515765 23.070118-26.142117l3.312941-0.210824z" fill="#568af2" /></svg>