<svg class="icon" style="width: 1em;height: 1em;vertical-align: middle;fill: currentColor;overflow: hidden;" viewBox="0 0 1024 1024" version="1.1" xmlns="http://www.w3.org/2000/svg" width="32" height="32"><path d="M501.970824 721.558588a79.058824 79.058824 0 1 1 0 158.117647 79.058824 79.058824 0 0 1 0-158.117647z m147.636705-456.31247a281.6 281.6 0 0 1 90.834824 87.190588 26.352941 26.352941 0 0 1-8.312471 36.924235 131.644235 131.644235 0 0 0-63.247058 112.609883c0 47.766588 25.6 91.045647 66.288941 114.386823a26.352941 26.352941 0 0 1 9.306353 36.713412A281.6 281.6 0 0 1 658.672941 740.894118a26.352941 26.352941 0 0 1-37.49647-9.456942 131.704471 131.704471 0 0 0-115.742118-68.758588c-48.609882 0-92.521412 26.503529-115.561412 68.367059a26.352941 26.352941 0 0 1-37.526588 9.336471 281.6 281.6 0 0 1-87.100235-90.804706 26.352941 26.352941 0 0 1 7.740235-35.267765 131.584 131.584 0 0 0 57.584941-108.905412c0-43.971765-21.684706-84.239059-57.223529-108.694588a26.352941 26.352941 0 0 1-7.649883-35.297882A281.569882 281.569882 0 0 1 361.411765 265.637647a26.352941 26.352941 0 0 1 35.297882 7.68 131.553882 131.553882 0 0 0 108.694588 57.223529 131.584 131.584 0 0 0 108.905412-57.584941 26.352941 26.352941 0 0 1 35.267765-7.740235zM203.294118 422.912a79.058824 79.058824 0 1 1 0 158.117647 79.058824 79.058824 0 0 1 0-158.117647z m597.323294 0a79.058824 79.058824 0 1 1 0 158.117647 79.058824 79.058824 0 0 1 0-158.117647z m-298.646588-298.676706a79.058824 79.058824 0 1 1 0 158.117647 79.058824 79.058824 0 0 1 0-158.117647z" fill="#568af2" /></svg>