<svg class="icon" style="width: 1em;height: 1em;vertical-align: middle;fill: currentColor;overflow: hidden;" viewBox="0 0 1024 1024" version="1.1" xmlns="http://www.w3.org/2000/svg" width="32" height="32"><path d="M496.128 127.879529a26.352941 26.352941 0 0 1 26.714353 0l298.676706 175.676236a26.352941 26.352941 0 0 1 12.980706 22.708706V677.647059c0 9.336471-4.939294 17.980235-12.980706 22.708706l-298.676706 175.706353a26.352941 26.352941 0 0 1-26.714353 0l-298.676706-175.706353a26.352941 26.352941 0 0 1-12.980706-22.708706V326.264471c0-9.336471 4.939294-17.980235 12.980706-22.708706z m13.372235 312.591059a26.352941 26.352941 0 0 0-26.352941 26.352941v140.559059l0.180706 3.312941a26.352941 26.352941 0 0 0 52.525176-3.312941V466.823529l-0.210823-3.312941a26.352941 26.352941 0 0 0-26.142118-23.04z m140.528941-70.26447a26.352941 26.352941 0 0 0-26.352941 26.352941v210.823529l0.210824 3.312941a26.352941 26.352941 0 0 0 52.495059-3.312941v-210.823529l-0.180706-3.312941a26.352941 26.352941 0 0 0-26.172236-23.04z m-281.088 140.528941a26.352941 26.352941 0 0 0-26.352941 26.352941v70.294588l0.210824 3.312941a26.352941 26.352941 0 0 0 52.495059-3.312941v-70.294588l-0.210824-3.312941a26.352941 26.352941 0 0 0-26.142118-23.04z" fill="#568af2" /></svg>