<svg class="icon" style="width: 1em;height: 1em;vertical-align: middle;fill: currentColor;overflow: hidden;" viewBox="0 0 1024 1024" version="1.1" xmlns="http://www.w3.org/2000/svg" width="32" height="32"><path d="M0 0h1024v1024H0z" fill="#568af2" fill-opacity="0" /><path d="M192.180706 398.004706a26.352941 26.352941 0 0 1 34.575059-2.379294l2.710588 2.379294 210.823529 210.823529a26.352941 26.352941 0 0 1-34.575058 39.604706l-2.710589-2.349176-210.823529-210.82353a26.352941 26.352941 0 0 1 0-37.255529z" fill="#568af2" /><path d="M403.004235 398.004706a26.352941 26.352941 0 0 1 39.634824 34.544941l-2.349177 2.710588-210.823529 210.82353a26.352941 26.352941 0 0 1-39.634824-34.575059l2.349177-2.710588 210.823529-210.82353zM647.740235 223.623529a26.352941 26.352941 0 0 1 37.195294-2.529882c95.804235 83.546353 149.564235 188.988235 149.564236 300.935529 0 111.977412-53.76 217.419294-149.564236 300.965648a26.352941 26.352941 0 0 1-34.635294-39.725177c84.931765-74.059294 131.493647-165.436235 131.493647-261.240471 0-95.774118-46.592-187.181176-131.493647-261.24047a26.352941 26.352941 0 0 1-2.56-37.165177z" fill="#568af2" /><path d="M523.324235 330.872471a26.352941 26.352941 0 0 1 36.803765-5.842824c74.089412 53.850353 116.254118 122.789647 116.254118 196.999529 0 74.24-42.164706 143.179294-116.254118 196.99953a26.352941 26.352941 0 0 1-31.021176-42.616471c61.500235-44.664471 94.569412-98.755765 94.569411-154.383059 0-55.627294-33.069176-109.688471-94.569411-154.352941a26.352941 26.352941 0 0 1-5.782589-36.803764z" fill="#568af2" /></svg>