<svg class="icon" style="width: 1em;height: 1em;vertical-align: middle;fill: currentColor;overflow: hidden;" viewBox="0 0 1024 1024" version="1.1" xmlns="http://www.w3.org/2000/svg" width="32" height="32"><path d="M872.598588 519.920941l-0.602353 0.662588-351.412706 351.382589 2.017883-2.228706a26.473412 26.473412 0 0 0 4.608-8.824471l-0.512 1.505883a26.443294 26.443294 0 0 0 0.391529-1.114353l0.120471-0.39153 99.779764-332.619294h226.334118l3.312941-0.180706a26.292706 26.292706 0 0 0 15.962353-8.192zM131.192471 519.830588c4.818824 5.240471 11.745882 8.523294 19.395764 8.523294l226.334118-0.030117 99.809882 332.619294 0.120471 0.391529a26.443294 26.443294 0 0 0 0.361412 1.084236l0.662588 1.626352a26.232471 26.232471 0 0 0 4.638118 7.107765l0.722823 0.752941L131.945412 520.583529z m440.741647 8.493177l-69.993412 233.291294-69.993412-233.291294h139.986824zM482.996706 132.306824a26.232471 26.232471 0 0 0-6.264471 10.721882l0.481883-1.505882a26.443294 26.443294 0 0 0-0.361412 1.084235l-0.120471 0.421647-99.809882 332.559059H150.588235l-3.312941 0.210823a26.292706 26.292706 0 0 0-16.082823 8.312471l0.752941-0.783059z m37.948235 0l351.021177 351.021176a26.292706 26.292706 0 0 0-18.642824-7.710118l-226.334118-0.030117-99.779764-332.559059-0.120471-0.421647a26.443294 26.443294 0 0 0-0.391529-1.084235l-0.632471-1.626353a26.202353 26.202353 0 0 0-4.336941-6.746353l-0.783059-0.843294zM571.934118 475.557647h-140.047059l70.023529-233.291294 70.02353 233.291294z" fill="#568af2" /></svg>