<svg class="icon" style="width: 1em;height: 1em;vertical-align: middle;fill: currentColor;overflow: hidden;" viewBox="0 0 1024 1024" version="1.1" xmlns="http://www.w3.org/2000/svg" width="32" height="32"><path d="M532.088471 124.235294c100.201412 0 194.258824 39.213176 264.402823 107.971765a379.512471 379.512471 0 0 1 51.07953 61.982117 26.352941 26.352941 0 1 1-43.971765 29.033412A326.806588 326.806588 0 0 0 759.567059 269.854118a323.824941 323.824941 0 0 0-227.508706-92.912942c-179.501176 0-325.029647 145.528471-325.029647 325.029648s145.528471 324.999529 325.029647 324.999529c86.256941 0 167.152941-33.731765 227.508706-92.882824a326.836706 326.836706 0 0 0 43.971765-53.398588 26.352941 26.352941 0 0 1 44.001882 29.033412c-14.757647 22.407529-31.924706 43.188706-51.07953 61.982118a376.530824 376.530824 0 0 1-264.432941 107.971764c-208.594824 0-377.705412-169.110588-377.705411-377.705411 0-208.624941 169.110588-377.735529 377.735529-377.73553z m191.60847 251.331765l2.710588 2.349176 105.411765 105.411765 0.421647 0.451765a26.503529 26.503529 0 0 1 1.385412 1.566117l-1.807059-2.017882a26.563765 26.563765 0 0 1 7.649882 20.419765l0.060236-1.807059a26.232471 26.232471 0 0 1-5.360941 15.962353l-0.542118 0.692706a26.503529 26.503529 0 0 1-1.385412 1.566117l-0.421647 0.421647-105.411765 105.411765a26.352941 26.352941 0 0 1-39.634823-34.544941l2.349176-2.710588 60.385883-60.446118h-194.710589a96.677647 96.677647 0 0 1-87.521882 70.144l-5.481412 0.150588a96.617412 96.617412 0 1 1 93.003294-122.970353l194.770824-0.030117-60.446118-60.416a26.352941 26.352941 0 0 1-2.349176-34.544941l2.349176-2.710589a26.352941 26.352941 0 0 1 34.575059-2.349176z" fill="#568af2" /></svg>