<svg class="icon" style="width: 1em;height: 1em;vertical-align: middle;fill: currentColor;overflow: hidden;" viewBox="0 0 1024 1024" version="1.1" xmlns="http://www.w3.org/2000/svg" width="32" height="32"><path d="M479.141647 257.867294a26.352941 26.352941 0 0 1 45.628235 0l61.590589 106.706824 262.113882-49.152a26.352941 26.352941 0 0 1 12.950588 50.989176l-3.222588 0.813177-243.892706 45.718588 10.330353 17.889882 231.514353 24.847059a26.352941 26.352941 0 0 1-2.319059 52.555294l-3.312941-0.150588-193.234824-20.690824 15.058824 26.112 191.668706 84.811294a26.352941 26.352941 0 0 1-18.221177 49.362824l-3.132235-1.144471-125.590588-55.567058 96.798117 167.604705a26.352941 26.352941 0 0 1-19.516235 39.333648l-3.312941 0.210823H212.871529a26.352941 26.352941 0 0 1-22.829176-39.544471l173.236706-300.062117-204.589177 66.017882a26.352941 26.352941 0 0 1-19.275294-48.941176l3.072-1.204706 260.096-83.937883z" fill="#568af2" /></svg>