<svg class="icon" style="width: 1em;height: 1em;vertical-align: middle;fill: currentColor;overflow: hidden;" viewBox="0 0 1024 1024" version="1.1" xmlns="http://www.w3.org/2000/svg" width="32" height="32"><path d="M479.081412 197.752471a26.352941 26.352941 0 0 1 45.778823 0l351.352471 614.912a26.352941 26.352941 0 0 1-22.889412 39.424h-176.489412c9.426824 0.271059 18.672941-4.517647 23.702589-13.281883l87.823058-153.72047 1.475765-3.011765a26.352941 26.352941 0 0 0-47.22447-23.160471l-87.853177 153.750589-1.445647 2.951529a26.352941 26.352941 0 0 0 23.552 36.442353H501.157647c9.396706 0.301176 18.672941-4.517647 23.642353-13.251765l175.706353-307.471059 1.445647-2.951529a26.352941 26.352941 0 0 0-47.224471-23.190588l-175.676235 307.471059-1.475765 2.951529a26.352941 26.352941 0 0 0 23.582118 36.442353h-175.706353c9.426824 0.301176 18.672941-4.517647 23.672471-13.251765l263.529411-461.191529 1.475765-2.95153a26.352941 26.352941 0 0 0-47.22447-23.190588l-263.529412 461.19153-1.475765 2.951529a26.352941 26.352941 0 0 0 23.552 36.442353H150.588235a26.352941 26.352941 0 0 1-22.889411-39.393882z" fill="#568af2" /></svg>