<svg class="icon" style="width: 1em;height: 1em;vertical-align: middle;fill: currentColor;overflow: hidden;" viewBox="0 0 1024 1024" version="1.1" xmlns="http://www.w3.org/2000/svg" width="32" height="32"><path d="M843.294118 606.117647c13.432471 0 24.515765 10.059294 26.142117 23.04l0.210824 3.312941v158.117647a79.058824 79.058824 0 0 1-74.059294 78.908236l-4.99953 0.150588H263.529412a79.058824 79.058824 0 0 1-78.908236-74.059294l-0.150588-4.99953V632.470588a26.352941 26.352941 0 0 1 52.495059-3.312941l0.210824 3.312941v158.117647c0 13.432471 10.059294 24.515765 23.04 26.142118l3.312941 0.210823h527.058823a26.352941 26.352941 0 0 0 26.142118-23.04l0.210823-3.312941V632.470588c0-14.546824 11.806118-26.352941 26.352942-26.352941z m-140.257883-291.689412c9.818353 9.035294 11.203765 23.823059 3.764706 34.454589l-2.258823 2.800941-24.997647 27.045647 59.392 59.422117a26.352941 26.352941 0 0 1-34.544942 39.634824l-2.710588-2.379294-57.946353-57.916235-48.549647 52.585411 55.928471 55.928471a26.352941 26.352941 0 0 1-34.575059 39.604706l-2.710588-2.349177-54.422589-54.422588-48.399058 52.525177a114.206118 114.206118 0 1 1-41.562353-32.617412l196.367059-212.811294a26.352941 26.352941 0 0 1 37.225411-1.505883z m87.552-129.957647a79.058824 79.058824 0 0 1 78.908236 74.059294l0.150588 4.99953V421.647059a26.352941 26.352941 0 0 1-52.495059 3.312941l-0.210824-3.312941V263.529412a26.352941 26.352941 0 0 0-23.04-26.142118l-3.312941-0.210823H263.529412a26.352941 26.352941 0 0 0-26.142118 23.04l-0.210823 3.312941V421.647059a26.352941 26.352941 0 0 1-52.495059 3.312941L184.470588 421.647059V263.529412a79.058824 79.058824 0 0 1 74.059294-78.908236l4.99953-0.150588h527.058823z" fill="#568af2" /></svg>