<svg class="icon" style="width: 1em;height: 1em;vertical-align: middle;fill: currentColor;overflow: hidden;" viewBox="0 0 1024 1024" version="1.1" xmlns="http://www.w3.org/2000/svg" width="32" height="32"><path d="M523.294118 120.470588a96.617412 96.617412 0 0 1 93.696 120.289883l84.028235 48.489411a96.617412 96.617412 0 1 1 92.069647 162.093177v93.726117a96.677647 96.677647 0 0 1-23.823059 190.313412 96.316235 96.316235 0 0 1-68.276706-28.250353l-83.998117 48.489412a96.617412 96.617412 0 1 1-187.422118 0.030118l-83.968-48.51953a96.617412 96.617412 0 1 1-92.099765-162.032941v-93.786353a96.677647 96.677647 0 0 1 23.823059-190.283294c26.654118 0 50.778353 10.782118 68.246588 28.190118l84.028236-48.489412A96.617412 96.617412 0 0 1 523.294118 120.470588z m-67.343059 165.918118L371.350588 335.209412a96.677647 96.677647 0 0 1-65.114353 114.627764v96.64753a96.677647 96.677647 0 0 1 65.114353 114.627765l84.630588 48.850823a96.316235 96.316235 0 0 1 67.312942-27.316706c26.202353 0 49.935059 10.390588 67.312941 27.316706l84.630588-48.850823a96.677647 96.677647 0 0 1 65.114353-114.627765v-96.64753a96.677647 96.677647 0 0 1-65.114353-114.597647L590.607059 286.418824a96.316235 96.316235 0 0 1-67.343059 27.346823c-26.202353 0-49.935059-10.420706-67.343059-27.346823z m67.343059 115.169882a96.617412 96.617412 0 1 1 0 193.264941 96.617412 96.617412 0 0 1 0-193.264941z" fill="#568af2" /></svg>