<svg class="icon" style="width: 1em;height: 1em;vertical-align: middle;fill: currentColor;overflow: hidden;" viewBox="0 0 1024 1024" version="1.1" xmlns="http://www.w3.org/2000/svg" width="32" height="32"><path d="M222.268235 212.088471c60.114824-53.729882 177.694118-25.720471 301.537883 57.042823l3.794823 2.590118c-46.622118 31.533176-94.057412 70.776471-139.565176 116.314353-44.574118 44.574118-83.124706 90.955294-114.326589 136.613647 31.623529 46.802824 71.017412 94.448941 116.736 140.167529 44.754824 44.754824 91.346824 83.425882 137.185883 114.718118-128.933647 87.913412-252.024471 117.157647-311.747765 57.434353-59.813647-59.813647-30.418824-183.175529 57.825882-312.32-86.347294-127.849412-114.688-249.494588-55.41647-308.766118z m305.332706 59.632941c128.060235-86.678588 249.976471-115.2 309.368471-55.838118 59.271529 59.271529 30.930824 180.916706-55.416471 308.766118 88.214588 129.144471 117.639529 252.506353 57.825883 312.32-59.753412 59.723294-182.814118 30.479059-311.717648-57.434353a960.572235 960.572235 0 0 0 128.90353-106.526118l8.252235-8.192c45.718588-45.718588 85.112471-93.364706 116.705883-140.167529-31.201882-45.658353-69.752471-92.069647-114.296471-136.613647a977.106824 977.106824 0 0 0-126.494118-107.279059z" fill="#568af2" /></svg>