<svg class="icon" style="width: 1em;height: 1em;vertical-align: middle;fill: currentColor;overflow: hidden;" viewBox="0 0 1024 1024" version="1.1" xmlns="http://www.w3.org/2000/svg" width="32" height="32"><path d="M396.589176 252.867765a26.352941 26.352941 0 0 1 21.564236-1.536l3.433412 1.536 228.412235 123.00047a26.352941 26.352941 0 0 1 13.613176 19.576471l0.240941 3.614118v210.823529a26.352941 26.352941 0 0 1-52.525176 3.312941l-0.180706-3.312941-0.030118-195.102118-202.029176-108.784941-202.029176 108.784941v249.615059l214.528 115.531294c11.836235 6.384941 16.835765 20.48 12.107294 32.707765l-1.385412 3.011765a26.352941 26.352941 0 0 1-32.707765 12.077176l-3.011765-1.385412-228.382117-122.970353a26.352941 26.352941 0 0 1-13.613177-19.606588l-0.240941-3.614117V399.058824c0-8.493176 4.065882-16.353882 10.812235-21.293177l3.041883-1.897412 228.382117-123.00047z" fill="#568af2" /><path d="M614.279529 228.442353a26.352941 26.352941 0 0 1 32.707765-12.077177l3.011765 1.385412 228.382117 122.970353a26.352941 26.352941 0 0 1 13.613177 19.606588l0.240941 3.614118v281.088a26.352941 26.352941 0 0 1-10.812235 21.263059l-3.041883 1.927529-228.382117 122.970353a26.352941 26.352941 0 0 1-21.564235 1.566118l-3.433412-1.566118-228.412236-122.970353a26.352941 26.352941 0 0 1-13.613176-19.606588l-0.240941-3.614118v-210.823529a26.352941 26.352941 0 0 1 52.525176-3.312941l0.180706 3.312941v195.102118l202.029177 108.784941 202.059294-108.784941v-249.645177L625.001412 264.131765a26.352941 26.352941 0 0 1-12.107294-32.677647l1.385411-3.011765z" fill="#568af2" /></svg>