<svg class="icon" style="width: 1em;height: 1em;vertical-align: middle;fill: currentColor;overflow: hidden;" viewBox="0 0 1024 1024" version="1.1" xmlns="http://www.w3.org/2000/svg" width="32" height="32"><path d="M671.201882 825.795765a26.352941 26.352941 0 0 1-16.353882 33.490823 374.723765 374.723765 0 0 1-80.384 18.070588 26.352941 26.352941 0 1 1-5.842824-52.404705 323.734588 323.734588 0 0 0 69.089883-15.510589 26.352941 26.352941 0 0 1 33.490823 16.353883z m-244.766117-16.353883a322.017882 322.017882 0 0 0 69.089882 15.510589 26.352941 26.352941 0 1 1-5.842823 52.404705 376.410353 376.410353 0 0 1-80.353883-18.070588 26.352941 26.352941 0 1 1 17.106824-49.844706z m380.897882-87.491764c10.661647 9.938824 11.264 26.593882 1.355294 37.255529a379.904 379.904 0 0 1-52.796235 47.073882 26.352941 26.352941 0 0 1-31.262118-42.465882 326.174118 326.174118 0 0 0 45.477647-40.508235 26.352941 26.352941 0 0 1 37.225412-1.355294z m-513.264941 1.355294a327.168 327.168 0 0 0 45.477647 40.538353 26.352941 26.352941 0 0 1-31.292235 42.405647 379.301647 379.301647 0 0 1-52.766118-47.043765 26.352941 26.352941 0 1 1 38.550588-35.900235zM599.341176 703.548235a26.352941 26.352941 0 0 1-20.690823 31.021177 238.260706 238.260706 0 0 1-93.214118 0 26.352941 26.352941 0 1 1 10.300236-51.712 185.554824 185.554824 0 0 0 72.613647 0 26.352941 26.352941 0 0 1 31.021176 20.690823z m-222.388705-101.677176a185.404235 185.404235 0 0 0 53.097411 53.820235 26.352941 26.352941 0 1 1-29.184 43.91153 238.019765 238.019765 0 0 1-68.21647-69.150118 26.352941 26.352941 0 0 1 44.272941-28.611765z m346.654117-7.830588a26.352941 26.352941 0 0 1 7.830588 36.412235 238.200471 238.200471 0 0 1-68.21647 69.150118 26.352941 26.352941 0 1 1-29.184-43.91153 185.434353 185.434353 0 0 0 53.127529-53.820235 26.352941 26.352941 0 0 1 36.442353-7.830588z m-502.452706 2.981647a322.349176 322.349176 0 0 0 22.377412 54.753882 26.352941 26.352941 0 1 1-46.742588 24.335059 375.808 375.808 0 0 1-26.051765-63.698824 26.352941 26.352941 0 1 1 50.416941-15.390117z m654.697412-17.528471c13.914353 4.246588 21.775059 18.974118 17.528471 32.918588a374.844235 374.844235 0 0 1-26.051765 63.698824 26.352941 26.352941 0 0 1-46.772706-24.335059 323.132235 323.132235 0 0 0 22.40753-54.753882 26.352941 26.352941 0 0 1 32.88847-17.528471z m-343.792941-174.170353a96.617412 96.617412 0 1 1 0 193.264941 96.617412 96.617412 0 0 1 0-193.264941z m-205.884235 32.015059l3.282823 0.421647c14.305882 2.620235 23.792941 16.353882 21.172706 30.659765a185.735529 185.735529 0 0 0 0 67.102117 26.352941 26.352941 0 1 1-51.862588 9.487059 238.441412 238.441412 0 0 1 0-86.106353 26.352941 26.352941 0 0 1 27.407059-21.564235z m439.145411 21.564235a238.290824 238.290824 0 0 1 0 86.136471 26.352941 26.352941 0 1 1-51.83247-9.547294 185.584941 185.584941 0 0 0 0-67.072 26.352941 26.352941 0 0 1 51.83247-9.517177z m136.884706-32.466823a376.892235 376.892235 0 0 1 7.55953 75.535059 26.352941 26.352941 0 0 1-52.705883 0 328.764235 328.764235 0 0 0-6.505411-65.054118 26.352941 26.352941 0 0 1 51.651764-10.480941z m-709.270588-20.570353c14.275765 2.891294 23.491765 16.805647 20.600471 31.051294a324.457412 324.457412 0 0 0-6.505412 65.054118 26.352941 26.352941 0 0 1-52.705882 0 381.921882 381.921882 0 0 1 7.529411-75.535059 26.352941 26.352941 0 0 1 31.081412-20.570353z m244.495059-94.177883a26.352941 26.352941 0 0 1-7.378824 36.532706 185.344 185.344 0 0 0-53.097411 53.850353 26.352941 26.352941 0 0 1-44.272942-28.611764 238.110118 238.110118 0 0 1 68.186353-69.12 26.352941 26.352941 0 0 1 36.562824 7.348705z m225.792-7.348705a238.140235 238.140235 0 0 1 68.21647 69.12 26.352941 26.352941 0 0 1-44.272941 28.611764 185.494588 185.494588 0 0 0-53.127529-53.850353 26.352941 26.352941 0 1 1 29.184-43.881411zM269.793882 266.661647a26.352941 26.352941 0 0 1 4.788706 36.954353 326.083765 326.083765 0 0 0-31.021176 48.519529 26.352941 26.352941 0 0 1-46.742588-24.335058A377.283765 377.283765 0 0 1 232.809412 271.420235a26.352941 26.352941 0 0 1 36.954353-4.758588z m561.54353 4.758588a379.482353 379.482353 0 0 1 36.020706 56.380236 26.352941 26.352941 0 0 1-46.772706 24.335058 324.577882 324.577882 0 0 0-31.021177-48.489411 26.352941 26.352941 0 0 1 41.773177-32.225883z m-299.248941-6.625882c15.751529 0 31.352471 1.505882 46.592 4.577882a26.352941 26.352941 0 0 1-10.300236 51.681883 185.434353 185.434353 0 0 0-72.583529 0 26.352941 26.352941 0 0 1-10.330353-51.681883 238.140235 238.140235 0 0 1 46.622118-4.577882zM375.536941 158.117647a26.352941 26.352941 0 0 1 21.865412 47.947294 324.065882 324.065882 0 0 0-57.886118 34.032941 26.352941 26.352941 0 0 1-31.262117-42.465882A378.277647 378.277647 0 0 1 375.567059 158.117647z m278.166588 13.040941c6.023529-13.251765 21.684706-19.094588 34.936471-13.040941a376.771765 376.771765 0 0 1 67.252706 39.544471 26.352941 26.352941 0 0 1-31.262118 42.435764 325.571765 325.571765 0 0 0-57.886117-34.032941 26.352941 26.352941 0 0 1-13.040942-34.93647z m-121.615058-46.923294c14.215529 0 28.370824 0.783059 42.375529 2.349177a26.352941 26.352941 0 0 1-5.842824 52.404705 328.794353 328.794353 0 0 0-73.095529 0 26.352941 26.352941 0 0 1-5.842823-52.404705c14.004706-1.566118 28.16-2.349176 42.405647-2.349177z" fill="#568af2" /></svg>