<svg class="icon" style="width: 1em;height: 1em;vertical-align: middle;fill: currentColor;overflow: hidden;" viewBox="0 0 1024 1024" version="1.1" xmlns="http://www.w3.org/2000/svg" width="32" height="32"><path d="M461.793882 124.235294a96.617412 96.617412 0 0 1 96.64753 96.617412l-0.030118 254.735059h168.658824a96.075294 96.075294 0 0 1-10.360471-38.430118l-0.150588-5.481412a96.617412 96.617412 0 1 1 102.098823 96.496941l-5.481411 0.150589-254.765177-0.030118v168.688941a96.617412 96.617412 0 1 1-52.495059 92.190118l-85.684706-188.476235a26.352941 26.352941 0 0 1 3.011765-26.804706l2.349177-2.710589 42.857411-42.887529h-131.403294c5.963294 11.655529 9.637647 24.666353 10.420706 38.460235l0.150588 5.481412a96.617412 96.617412 0 1 1-102.098823-96.466823l5.451294-0.150589 217.479529-0.030117-42.857411-42.827294a26.352941 26.352941 0 0 1-6.625883-26.142118l1.264941-3.403294 39.002353-85.744941a96.617412 96.617412 0 0 1 2.56-193.234824z" fill="#568af2" /></svg>