<svg class="icon" style="width: 1em;height: 1em;vertical-align: middle;fill: currentColor;overflow: hidden;" viewBox="0 0 1024 1024" version="1.1" xmlns="http://www.w3.org/2000/svg" width="32" height="32"><path d="M813.176471 124.235294a96.617412 96.617412 0 0 1 96.617411 96.617412V783.058824A96.617412 96.617412 0 0 1 813.176471 879.676235H250.970353A96.617412 96.617412 0 0 1 154.352941 783.058824V220.852706a96.617412 96.617412 0 0 1 96.617412-96.617412z m-210.82353 421.647059a26.352941 26.352941 0 0 0-26.352941 26.352941v140.559059l0.210824 3.312941a26.352941 26.352941 0 0 0 52.495058-3.312941V572.235294l-0.210823-3.312941a26.352941 26.352941 0 0 0-26.142118-23.04z m-140.559059 140.559059h-140.528941l-3.312941 0.180706a26.352941 26.352941 0 0 0 3.312941 52.525176h140.528941l3.312942-0.210823a26.352941 26.352941 0 0 0-3.312942-52.495059z m281.118118-140.559059a26.352941 26.352941 0 0 0-26.352941 26.352941v140.559059l0.180706 3.312941a26.352941 26.352941 0 0 0 52.525176-3.312941V572.235294l-0.210823-3.312941a26.352941 26.352941 0 0 0-26.142118-23.04z m-281.118118 0h-140.528941l-3.312941 0.210823a26.352941 26.352941 0 0 0 3.312941 52.495059h140.528941l3.312942-0.210823a26.352941 26.352941 0 0 0-3.312942-52.495059z m-140.528941-281.088a26.352941 26.352941 0 0 0-26.352941 26.352941v140.528941l0.180706 3.312941a26.352941 26.352941 0 0 0 52.525176-3.312941V291.147294l-0.210823-3.312941a26.352941 26.352941 0 0 0-26.142118-23.04z m140.528941 0a26.352941 26.352941 0 0 0-26.352941 26.352941v140.528941l0.210824 3.312941a26.352941 26.352941 0 0 0 52.495059-3.312941V291.147294l-0.180706-3.312941a26.352941 26.352941 0 0 0-26.172236-23.04z m281.118118 140.528941H602.352941l-3.312941 0.210824a26.352941 26.352941 0 0 0 3.312941 52.495058h140.559059l3.312941-0.180705a26.352941 26.352941 0 0 0-3.312941-52.525177z m0-140.528941H602.352941l-3.312941 0.180706a26.352941 26.352941 0 0 0 3.312941 52.525176h140.559059l3.312941-0.210823a26.352941 26.352941 0 0 0-3.312941-52.495059z" fill="#568af2" /></svg>