<svg class="icon" style="width: 1em;height: 1em;vertical-align: middle;fill: currentColor;overflow: hidden;" viewBox="0 0 1024 1024" version="1.1" xmlns="http://www.w3.org/2000/svg" width="32" height="32"><path d="M154.352941 150.588235a26.352941 26.352941 0 0 1 38.128941-23.582117l339.576471 169.803294-363.128471 181.579294a26.352941 26.352941 0 0 0 0 47.134118l363.128471 181.579294-339.576471 169.803294a26.352941 26.352941 0 0 1-37.948235-20.178824l-0.180706-3.403294z m717.312-23.582117A26.352941 26.352941 0 0 1 909.793882 150.588235v702.735059a26.352941 26.352941 0 0 1-38.128941 23.582118l-339.606588-169.803294 363.188706-181.579294a26.352941 26.352941 0 0 0 0-47.134118l-363.188706-181.609412z" fill="#568af2" /></svg>