<svg class="icon" style="width: 1em;height: 1em;vertical-align: middle;fill: currentColor;overflow: hidden;" viewBox="0 0 1024 1024" version="1.1" xmlns="http://www.w3.org/2000/svg" width="32" height="32"><path d="M479.623529 226.966588a26.352941 26.352941 0 0 1 44.694589 0l351.35247 562.206118a26.352941 26.352941 0 0 1-22.347294 40.327529H150.588235a26.352941 26.352941 0 0 1-22.347294-40.357647z m22.347295 233.592471a26.352941 26.352941 0 0 0-26.352942 26.352941v91.256471l-93.665882 62.494117-2.650353 2.017883a26.352941 26.352941 0 0 0-4.668235 34.514823l1.987764 2.650353a26.352941 26.352941 0 0 0 34.544942 4.668235l90.804706-60.53647 90.774588 60.53647 2.861176 1.656471a26.352941 26.352941 0 0 0 26.383059-45.507765l-93.665882-62.464v-91.286588l-0.210824-3.312941a26.352941 26.352941 0 0 0-26.142117-23.04z" fill="#568af2" /></svg>