<svg class="icon" style="width: 1em;height: 1em;vertical-align: middle;fill: currentColor;overflow: hidden;" viewBox="0 0 1024 1024" version="1.1" xmlns="http://www.w3.org/2000/svg" width="32" height="32"><path d="M759.416471 131.945412A26.352941 26.352941 0 0 1 799.021176 166.550588l-2.349176 2.710588-245.970824 245.940706a26.352941 26.352941 0 0 1-34.544941 2.379294l-2.710588-2.379294L267.444706 169.261176a26.352941 26.352941 0 0 1 34.575059-39.634823l2.710588 2.349176 227.297882 227.297883 227.358118-227.297883zM513.445647 588.739765a26.352941 26.352941 0 0 1 34.575059-2.349177l2.710588 2.349177 245.940706 245.970823a26.352941 26.352941 0 0 1-34.575059 39.604706l-2.710588-2.349176-227.328-227.328-227.297882 227.328a26.352941 26.352941 0 0 1-34.575059 2.349176l-2.710588-2.349176a26.352941 26.352941 0 0 1-2.349177-34.575059l2.349177-2.710588 245.970823-245.940706zM847.239529 237.357176a26.352941 26.352941 0 0 1 39.634824 34.575059l-2.349177 2.710589-227.328 227.297882 227.328 227.358118c9.426824 9.426824 10.24 24.214588 2.349177 34.544941l-2.349177 2.710588a26.352941 26.352941 0 0 1-34.575058 2.349176l-2.710589-2.349176-245.940705-245.970824a26.352941 26.352941 0 0 1-2.379295-34.544941l2.379295-2.710588L847.209412 237.327059zM162.063059 237.357176a26.352941 26.352941 0 0 1 34.575059-2.349176l2.710588 2.349176 245.940706 245.970824c9.456941 9.426824 10.24 24.244706 2.379294 34.575059l-2.379294 2.710588-245.940706 245.940706a26.352941 26.352941 0 0 1-39.634824-34.575059l2.349177-2.710588 227.297882-227.328-227.297882-227.297882a26.352941 26.352941 0 0 1-2.349177-34.575059l2.349177-2.710589z" fill="#568af2" /></svg>