<svg class="icon" style="width: 1em;height: 1em;vertical-align: middle;fill: currentColor;overflow: hidden;" viewBox="0 0 1024 1024" version="1.1" xmlns="http://www.w3.org/2000/svg" width="32" height="32"><path d="M465.227294 142.245647a61.500235 61.500235 0 0 1 86.979765 0l322.981647 322.981647c24.033882 24.033882 24.033882 62.945882 0 86.979765L552.207059 875.188706a61.500235 61.500235 0 0 1-86.979765 0L142.245647 552.207059a61.500235 61.500235 0 0 1 0-86.979765z m40.508235 191.397647a26.352941 26.352941 0 0 0-26.352941 26.352941l-0.030117 85.172706-60.235295-60.235294-2.710588-2.349176a26.352941 26.352941 0 0 0-34.544941 39.634823l60.235294 60.235294h-85.232941l-3.282824 0.210824a26.352941 26.352941 0 0 0 3.312942 52.525176l85.202823-0.030117-60.235294 60.265411-2.379294 2.710589a26.352941 26.352941 0 0 0 39.634823 34.575058l60.235295-60.265411v85.232941l0.210823 3.312941a26.352941 26.352941 0 0 0 52.525177-3.312941l-0.030118-85.263059 60.295529 60.295529 2.710589 2.349177a26.352941 26.352941 0 0 0 34.544941-39.634824l-60.265412-60.265411h85.232941l3.312941-0.180706a26.352941 26.352941 0 0 0-3.312941-52.495059l-85.263059-0.030118 60.29553-60.235294 2.349176-2.710588a26.352941 26.352941 0 0 0-39.604706-34.575059l-60.295529 60.265412v-85.232941l-0.180706-3.282824a26.352941 26.352941 0 0 0-26.142118-23.04z" fill="#568af2" /></svg>