<svg class="icon" style="width: 1em;height: 1em;vertical-align: middle;fill: currentColor;overflow: hidden;" viewBox="0 0 1024 1024" version="1.1" xmlns="http://www.w3.org/2000/svg" width="32" height="32"><path d="M871.966118 131.945412c9.426824 9.456941 10.24 24.244706 2.349176 34.575059l-2.349176 2.710588-27.437177 27.407059v610.605176l27.437177 27.467294a26.352941 26.352941 0 0 1-34.575059 39.604706l-2.710588-2.349176-27.437177-27.437177H196.638118l-27.407059 27.437177a26.352941 26.352941 0 0 1-39.634824-34.575059l2.349177-2.710588 27.407059-27.407059V196.608l-27.407059-27.407059A26.352941 26.352941 0 0 1 166.550588 129.626353l2.710588 2.349176 27.376942 27.407059h610.665411l27.407059-27.407059a26.352941 26.352941 0 0 1 37.285647 0z m-369.995294 132.818823c-56.018824 0-107.489882 19.425882-148.058353 51.892706L391.529412 354.183529a185.524706 185.524706 0 0 0-37.285647 37.285647l-37.556706-37.586823a236.182588 236.182588 0 0 0-51.862588 148.058353c0 56.018824 19.395765 107.459765 51.862588 148.028235l37.556706-37.556706c8.463059 11.294118 18.191059 21.594353 29.003294 30.689883l8.282353 6.595764-37.586824 37.526589a236.182588 236.182588 0 0 0 148.058353 51.892705c56.018824 0 107.459765-19.425882 148.028235-51.892705l-37.556705-37.556706a185.554824 185.554824 0 0 0 30.689882-28.973177l6.565647-8.282353 37.556706 37.556706a236.182588 236.182588 0 0 0 51.892706-148.028235c0-56.018824-19.425882-107.489882-51.892706-148.058353L649.728 391.529412a185.524706 185.524706 0 0 0-37.285647-37.285647l37.556706-37.556706a236.182588 236.182588 0 0 0-148.028235-51.862588z m-0.030118 274.462118l110.501647 110.471529a183.657412 183.657412 0 0 1-110.471529 36.74353 183.657412 183.657412 0 0 1-110.47153-36.74353l110.441412-110.471529z m-147.727059-147.727059l110.471529 110.441412-110.471529 110.501647a183.657412 183.657412 0 0 1-36.743529-110.471529c0-38.490353 11.806118-74.209882 31.924706-103.755295l4.818823-6.716235z m295.514353 0a183.657412 183.657412 0 0 1 36.713412 110.47153 183.657412 183.657412 0 0 1-36.74353 110.471529l-110.471529-110.501647 110.501647-110.441412z m-147.787294 73.185882l37.285647 37.25553-37.285647 37.285647-37.25553-37.285647 37.25553-37.25553z m0-147.184941c38.490353 0 74.209882 11.745882 103.785412 31.924706l6.716235 4.788706-110.501647 110.471529-110.441412-110.471529a183.657412 183.657412 0 0 1 110.47153-36.743529z" fill="#568af2" /></svg>