<svg class="icon" style="width: 1em;height: 1em;vertical-align: middle;fill: currentColor;overflow: hidden;" viewBox="0 0 1024 1024" version="1.1" xmlns="http://www.w3.org/2000/svg" width="32" height="32"><path d="M233.411765 879.676235a79.058824 79.058824 0 0 1-78.908236-74.059294l-0.150588-4.999529V203.294118a79.058824 79.058824 0 0 1 74.059294-78.908236l4.99953-0.150588h421.647059a79.058824 79.058824 0 0 1 78.908235 74.059294l0.150588 4.99953v237.808941a62.042353 62.042353 0 0 1 8.794353-0.632471H813.176471c33.972706 0 61.500235 27.527529 61.500235 61.500236v298.646588a79.058824 79.058824 0 0 1-79.058824 79.058823H233.411765z m263.529411-491.911529h-210.823529l-3.312941 0.210823a26.352941 26.352941 0 0 0 0 52.284236l3.312941 0.210823h210.823529l3.312942-0.210823a26.352941 26.352941 0 0 0-3.312942-52.495059z m-70.26447-122.970353H286.117647l-3.312941 0.180706a26.352941 26.352941 0 0 0 0 52.314353l3.312941 0.210823h140.559059l3.312941-0.210823a26.352941 26.352941 0 0 0-3.312941-52.495059z" fill="#568af2" /></svg>