<svg class="icon" style="width: 1em;height: 1em;vertical-align: middle;fill: currentColor;overflow: hidden;" viewBox="0 0 1024 1024" version="1.1" xmlns="http://www.w3.org/2000/svg" width="32" height="32"><path d="M528.263529 677.918118l317.500236 95.232 3.222588 0.752941a26.202353 26.202353 0 0 0 12.348235-0.873412l-0.421647 0.120471-351.382588 105.411764a26.352941 26.352941 0 0 1 18.793412-25.238588l-0.030118-175.405176zM268.950588 224.256a26.352941 26.352941 0 0 0 12.107294 38.490353l194.56 81.076706v279.341176L160.225882 722.793412l-3.102117 1.204706a26.352941 26.352941 0 0 0 18.974117 49.061647l299.489883-94.59953v174.863059l0.210823 3.312941c1.355294 10.601412 8.975059 19.275294 19.034353 22.076236l-0.451765-0.150589-351.35247-105.411764a26.352941 26.352941 0 0 1-17.829647-32.225883L265.728 231.424a26.352941 26.352941 0 0 1 2.680471-6.324706z m609.822118 516.668235l0.271059 0.993883a26.352941 26.352941 0 0 0-18.100706-19.245177L528.263529 622.893176v-279.04l194.620236-81.106823 2.981647-1.445647a26.352941 26.352941 0 0 0 11.203764-33.008941l1.084236 3.132235 140.559059 509.500235zM491.821176 126.253176a26.352941 26.352941 0 0 1 20.269177 0l210.823529 87.853177a26.413176 26.413176 0 0 1-20.269176 0l-200.673882 83.606588-200.704-83.606588-3.132236-1.084235a26.292706 26.292706 0 0 0-17.799529 1.385411l0.662588-0.301176z" fill="#568af2" /></svg>