<svg class="icon" style="width: 1em;height: 1em;vertical-align: middle;fill: currentColor;overflow: hidden;" viewBox="0 0 1024 1024" version="1.1" xmlns="http://www.w3.org/2000/svg" width="32" height="32"><path d="M538.352941 125.952l6.927059 0.752941a378.187294 378.187294 0 0 1 35.568941 5.782588l1.566118 0.331295a375.085176 375.085176 0 0 1 81.558588 27.828705l0.783059 0.361412a376.229647 376.229647 0 0 1 73.938823 46.592l-9.637647-7.469176a379.392 379.392 0 0 1 65.325177 62.704941l1.114353 1.385412c3.734588 4.608 7.348706 9.306353 10.87247 14.064941l-0.060235-0.030118 0.542118 0.692706c6.234353 8.523294 12.137412 17.287529 17.648941 26.292706l0.481882 0.873412a260.216471 260.216471 0 0 1 5.722353 9.758117c4.999529 8.734118 9.637647 17.769412 13.914353 26.955294l1.204706 2.650353 0.361412 0.722824c1.264941 2.770824 2.499765 5.601882 3.674353 8.432941l0.481882 1.114353a375.115294 375.115294 0 0 1 3.794824 9.336471l0.963764 2.56a348.581647 348.581647 0 0 1 3.734589 10.24 373.519059 373.519059 0 0 1 11.986823 42.345411l-0.752941-3.282823c1.084235 4.698353 2.108235 9.426824 3.011765 14.185412l0.12047 0.813176a374.844235 374.844235 0 0 1 6.475294 70.02353c0 205.522824-164.141176 372.736-368.549647 377.615058l-9.155764 0.090353c-208.624941 0-377.735529-169.110588-377.73553-377.705411 0-4.397176 0.060235-8.794353 0.210824-13.161412l-0.210824 13.161412a384.150588 384.150588 0 0 1 7.137882-73.396706l0.572236-2.921412-0.120471 0.512 0.542118-2.469647c0.451765-2.258824 0.963765-4.517647 1.505882-6.806588l-2.048 9.276235a375.567059 375.567059 0 0 1 26.50353-81.257412l0.63247-1.385412A375.898353 375.898353 0 0 1 207.751529 265.035294l-7.619764 9.758118a379.211294 379.211294 0 0 1 55.958588-59.602824l-1.385412 1.204706a379.753412 379.753412 0 0 1 20.088471-16.263529l0.692706-0.512-0.180706 0.12047 1.505882-1.114353 5.601882-4.065882-7.107764 5.180235a379.030588 379.030588 0 0 1 26.23247-18.010353l0.451765-0.301176a377.856 377.856 0 0 1 37.195294-20.419765l0.783059-0.361412a376.048941 376.048941 0 0 1 172.423529-36.261647l-10.420705-0.150588a384.421647 384.421647 0 0 1 35.117176 1.626353l-2.891294-0.271059 4.156235 0.361412z m276.690824 323.011765l-0.602353 2.138353a325.210353 325.210353 0 0 1-312.470588 235.339294A325.210353 325.210353 0 0 1 188.837647 448.993882a319.849412 319.849412 0 0 0 5.421177 131.704471 377.856 377.856 0 0 0 615.303529 0.030118 319.638588 319.638588 0 0 0 5.451294-131.764706zM213.082353 370.025412l-1.234824 2.770823a315.090824 315.090824 0 0 0-20.48 63.006118 377.344 377.344 0 0 0 310.603295 162.785882c126.403765 0 241.332706-62.674824 310.603294-162.695529a315.934118 315.934118 0 0 0-21.744942-65.867294 325.029647 325.029647 0 0 1-288.858352 175.856941c-123.211294 0-233.743059-69.180235-288.888471-175.887059zM259.614118 296.899765l-1.054118 1.204706a318.343529 318.343529 0 0 0-30.177882 42.646588 376.681412 376.681412 0 0 0 273.588706 117.278117c105.110588 0 203.053176-43.248941 273.588705-117.127529a313.404235 313.404235 0 0 0-31.141647-43.941647 324.758588 324.758588 0 0 1-242.447058 108.363294 324.216471 324.216471 0 0 1-242.356706-108.423529z m397.94447-71.740236L650.541176 228.894118a323.704471 323.704471 0 0 1-148.60047 35.84c-55.326118 0-108.483765-13.824-155.587765-39.544471-16.926118 9.456941-32.918588 20.48-47.73647 32.888471a375.567059 375.567059 0 0 0 203.294117 59.392c73.185882 0 143.269647-20.901647 203.324236-59.331765a313.615059 313.615059 0 0 0-47.706353-33.008941z" fill="#568af2" /></svg>