<svg class="icon" style="width: 1em;height: 1em;vertical-align: middle;fill: currentColor;overflow: hidden;" viewBox="0 0 1024 1024" version="1.1" xmlns="http://www.w3.org/2000/svg" width="32" height="32"><path d="M421.647059 184.470588a26.352941 26.352941 0 1 1 0 52.705883c-125.982118 0-184.470588 58.488471-184.470588 184.470588a26.352941 26.352941 0 1 1-52.705883 0c0-155.105882 82.070588-237.176471 237.176471-237.176471z m386.499765 386.499765c14.576941 0 26.352941 11.806118 26.352941 26.352941 0 155.105882-82.070588 237.176471-237.176471 237.176471a26.352941 26.352941 0 0 1 0-52.705883c126.012235 0 184.470588-58.458353 184.470588-184.470588 0-14.546824 11.806118-26.352941 26.352942-26.352941zM843.294118 184.470588h-70.264471a202.029176 202.029176 0 0 0-202.059294 202.029177v70.294588c0 14.546824 11.806118 26.352941 26.352941 26.352941H843.294118a26.352941 26.352941 0 0 0 26.352941-26.352941V210.823529A26.352941 26.352941 0 0 0 843.294118 184.470588zM456.794353 535.853176H210.823529a26.352941 26.352941 0 0 0-26.352941 26.352942v245.940706c0 14.576941 11.806118 26.352941 26.352941 26.352941h70.264471A202.029176 202.029176 0 0 0 483.147294 632.470588v-70.26447a26.352941 26.352941 0 0 0-26.352941-26.352942z" fill="#568af2" /></svg>