<svg class="icon" style="width: 1em;height: 1em;vertical-align: middle;fill: currentColor;overflow: hidden;" viewBox="0 0 1024 1024" version="1.1" xmlns="http://www.w3.org/2000/svg" width="32" height="32"><path d="M326.264471 755.440941a26.352941 26.352941 0 0 1 3.312941 52.525177l-3.312941 0.180706H150.588235a26.352941 26.352941 0 0 1-3.312941-52.495059l3.312941-0.210824h175.676236z m175.706353-140.528941a26.352941 26.352941 0 0 1 3.312941 52.495059l-3.312941 0.210823H150.588235a26.352941 26.352941 0 0 1-3.312941-52.525176l3.312941-0.180706h351.382589z m52.705882 140.528941a26.352941 26.352941 0 0 1 3.312941 52.525177l-3.312941 0.180706H466.823529a26.352941 26.352941 0 0 1-3.312941-52.495059l3.312941-0.210824h87.853177z m298.646588 0a26.352941 26.352941 0 0 1 3.312941 52.525177l-3.312941 0.180706H730.352941a26.352941 26.352941 0 0 1-3.312941-52.495059l3.312941-0.210824h122.970353z m0-140.528941a26.352941 26.352941 0 0 1 3.312941 52.495059l-3.312941 0.210823h-158.117647a26.352941 26.352941 0 0 1-3.312941-52.525176l3.312941-0.180706h158.117647z m0-140.559059a26.352941 26.352941 0 0 1 3.312941 52.495059l-3.312941 0.210824h-210.823529a26.352941 26.352941 0 0 1-3.312941-52.495059l3.312941-0.210824h210.823529z m-386.499765 0a26.352941 26.352941 0 0 1 3.312942 52.495059l-3.312942 0.210824H361.411765a26.352941 26.352941 0 0 1-3.312941-52.495059l3.312941-0.210824h105.411764z m-281.088 0a26.352941 26.352941 0 0 1 3.312942 52.495059l-3.312942 0.210824H150.588235a26.352941 26.352941 0 0 1-3.312941-52.495059L150.588235 474.352941h35.147294z m35.117177-140.559059a26.352941 26.352941 0 0 1 3.312941 52.525177l-3.312941 0.180706H150.588235a26.352941 26.352941 0 0 1-3.312941-52.495059l3.312941-0.210824h70.264471z m52.705882-140.528941c5.842824 0 11.444706 1.927529 16.022588 5.421177l2.620236 2.288941 132.818823 132.818823h428.303059c13.432471 0 24.545882 10.059294 26.172235 23.070118l0.180706 3.312941a26.352941 26.352941 0 0 1-23.04 26.142118l-3.312941 0.180706H414.117647a26.352941 26.352941 0 0 1-16.022588-5.421177l-2.620235-2.288941L262.625882 245.940706H150.588235a26.352941 26.352941 0 0 1-26.142117-23.04l-0.210824-3.312941c0-13.402353 10.059294-24.515765 23.04-26.142118L150.588235 193.264941h122.970353z m579.764706 0a26.352941 26.352941 0 0 1 3.312941 52.495059l-3.312941 0.210824H466.823529a26.352941 26.352941 0 0 1-3.312941-52.525177l3.312941-0.180706h386.499765z" fill="#568af2" /></svg>