<svg class="icon" style="width: 1em;height: 1em;vertical-align: middle;fill: currentColor;overflow: hidden;" viewBox="0 0 1024 1024" version="1.1" xmlns="http://www.w3.org/2000/svg" width="32" height="32"><path d="M501.970824 124.235294c208.594824 0 377.705412 169.110588 377.705411 377.73553 0 208.594824-169.110588 377.705412-377.705411 377.705411-208.624941 0-377.735529-169.110588-377.73553-377.705411 0-208.624941 169.110588-377.735529 377.73553-377.73553z m19.184941 201.547294a26.352941 26.352941 0 0 0-40.658824 2.740706l-74.752 104.628706-85.232941-42.616471-3.132235-1.325176a26.352941 26.352941 0 0 0-35.026824 24.907294v175.676235l0.210824 3.312942a26.352941 26.352941 0 0 0 26.142117 23.04h386.499765l3.312941-0.180706a26.352941 26.352941 0 0 0 23.04-26.172236V414.117647l-0.210823-3.373176-0.602353-3.222589a26.383059 26.383059 0 0 0-37.315765-16.986353l-85.293176 42.646589-74.721883-104.658824z m-19.215059 63.397647l66.409412 92.973177 2.228706 2.710588 2.499764 2.319059a26.352941 26.352941 0 0 0 28.521412 3.222588l67.252706-33.671529v106.706823H335.058824v-106.676706l67.282823 33.641412 3.222588 1.355294c10.872471 3.734588 23.160471 0 29.997177-9.637647l66.379294-92.943059z" fill="#568af2" /></svg>