<svg class="icon" style="width: 1em;height: 1em;vertical-align: middle;fill: currentColor;overflow: hidden;" viewBox="0 0 1024 1024" version="1.1" xmlns="http://www.w3.org/2000/svg" width="32" height="32"><path d="M356.382118 124.235294c14.576941 0 26.352941 11.806118 26.352941 26.352941v61.470118h301.748706a114.236235 114.236235 0 0 1 225.310117 26.383059 114.236235 114.236235 0 0 1-87.823058 111.134117l-0.030118 301.718589h61.500235c13.432471 0 24.545882 10.059294 26.172235 23.04l0.180706 3.312941v175.676235a26.352941 26.352941 0 0 1-26.352941 26.352941H707.764706a26.352941 26.352941 0 0 1-26.352941-26.352941v-61.500235H379.693176a114.236235 114.236235 0 0 1-225.340235-26.322824 114.236235 114.236235 0 0 1 87.823059-111.134117V352.617412H180.705882a26.352941 26.352941 0 0 1-26.142117-23.04l-0.210824-3.312941V150.588235c0-14.546824 11.806118-26.352941 26.352941-26.352941z m328.101647 140.559059L382.735059 264.734118v61.500235a26.352941 26.352941 0 0 1-23.04 26.172235l-3.312941 0.180706H294.881882v301.748706a114.356706 114.356706 0 0 1 84.811294 84.751059h301.718589V677.647059c0-13.432471 10.059294-24.515765 23.04-26.142118l3.312941-0.210823h61.470118V349.575529a114.356706 114.356706 0 0 1-84.751059-84.781176z" fill="#568af2" /></svg>