<svg class="icon" style="width: 1em;height: 1em;vertical-align: middle;fill: currentColor;overflow: hidden;" viewBox="0 0 1024 1024" version="1.1" xmlns="http://www.w3.org/2000/svg" width="32" height="32"><path d="M517.903059 375.567059l2.710588 2.349176 105.411765 105.411765c15.781647 15.811765 5.872941 42.315294-15.36 44.784941l-3.312941 0.210824h-210.82353c-22.347294 0-34.063059-25.750588-20.781176-42.556236l2.16847-2.439529 105.411765-105.411765a26.352941 26.352941 0 0 1 34.575059-2.349176zM256 124.235294a131.312941 131.312941 0 0 1 88.666353 34.304c26.021647-12.047059 53.458824-20.992 81.769412-26.74447a26.352941 26.352941 0 1 1 10.511059 51.651764c-20.871529 4.216471-41.170824 10.480941-60.656942 18.672941a131.764706 131.764706 0 0 1-174.170353 174.170353c-8.192 19.486118-14.456471 39.755294-18.672941 60.626824a26.352941 26.352941 0 0 1-51.651764-10.480941c5.722353-28.310588 14.697412-55.717647 26.684235-81.79953A131.764706 131.764706 0 0 1 256 124.235294z m491.911529 0a131.764706 131.764706 0 0 1 97.490824 220.431059c12.016941 26.021647 20.992 53.458824 26.714353 81.769412a26.352941 26.352941 0 1 1-51.651765 10.480941 322.319059 322.319059 0 0 0-18.672941-60.626824 131.764706 131.764706 0 0 1-174.170353-174.140235c-19.456-8.192-39.755294-14.456471-60.626823-18.703059a26.352941 26.352941 0 1 1 10.480941-51.651764c28.310588 5.722353 55.717647 14.697412 81.799529 26.654117a131.433412 131.433412 0 0 1 88.636235-34.213647z m103.604706 422.159059c14.305882 2.921412 23.491765 16.805647 20.600471 31.081412-5.722353 28.310588-14.697412 55.747765-26.684235 81.829647a131.764706 131.764706 0 0 1-186.127059 186.127059c-26.081882 11.986824-53.488941 20.931765-81.829647 26.684235a26.352941 26.352941 0 1 1-10.480941-51.651765c20.871529-4.216471 41.170824-10.480941 60.656941-18.672941a131.764706 131.764706 0 0 1 174.110117-174.170353c8.222118-19.456 14.456471-39.755294 18.703059-60.626823a26.352941 26.352941 0 0 1 31.081412-20.600471z m-668.069647 20.600471c4.216471 20.871529 10.511059 41.170824 18.672941 60.656941a131.764706 131.764706 0 0 1 174.170353 174.110117c19.486118 8.222118 39.755294 14.456471 60.656942 18.703059a26.352941 26.352941 0 0 1-10.511059 51.651765c-28.310588-5.722353-55.717647-14.697412-81.79953-26.654118a131.764706 131.764706 0 0 1-186.127059-186.187294 371.049412 371.049412 0 0 1-26.714352-81.799529 26.352941 26.352941 0 1 1 51.651764-10.480941z" fill="#568af2" /></svg>