<svg class="icon" style="width: 1em;height: 1em;vertical-align: middle;fill: currentColor;overflow: hidden;" viewBox="0 0 1024 1024" version="1.1" xmlns="http://www.w3.org/2000/svg" width="32" height="32"><path d="M524.559059 124.235294a96.617412 96.617412 0 1 0 0 193.264941 96.617412 96.617412 0 0 0 0-193.264941z m0 281.088a96.617412 96.617412 0 1 0 0 193.264941 96.617412 96.617412 0 0 0 0-193.264941z m195.102117-127.578353a96.617412 96.617412 0 1 0 96.64753 167.363765 96.617412 96.617412 0 0 0-96.64753-167.363765z m-35.358117 316.446118a96.617412 96.617412 0 1 0 2.981647-4.818824l-2.981647 4.818824z m-159.744 92.250353a96.617412 96.617412 0 1 0 0 193.234823 96.617412 96.617412 0 0 0 0-193.234823zM232.809412 558.832941a96.617412 96.617412 0 1 0 4.999529-2.710588l-4.999529 2.710588z m-35.388236-245.729882a96.617412 96.617412 0 1 0 3.011765-4.818824l-3.011765 4.818824z" fill="#568af2" /></svg>