<svg class="icon" style="width: 1em;height: 1em;vertical-align: middle;fill: currentColor;overflow: hidden;" viewBox="0 0 1024 1024" version="1.1" xmlns="http://www.w3.org/2000/svg" width="32" height="32"><path d="M808.146824 154.352941c32.436706 0 58.970353 25.088 61.319529 56.922353l0.180706 4.577882V496.941176a61.500235 61.500235 0 0 1-56.922353 61.31953l-4.577882 0.180706-254.735059-0.030118v158.117647h161.039059c6.294588 0 12.318118 2.258824 17.01647 6.264471l2.710588 2.590117 93.665883 105.411765a26.352941 26.352941 0 0 1-36.833883 37.526588l-2.56-2.499764-85.835294-96.587294-149.202823-0.030118v79.119059a26.352941 26.352941 0 0 1-52.495059 3.312941l-0.210824-3.312941V769.204706l-156.340706 0.030118-77.974588 95.713882a26.352941 26.352941 0 0 1-34.153412 5.872941l-2.921411-2.078118a26.352941 26.352941 0 0 1-5.842824-34.153411l2.048-2.921412 85.89553-105.411765a26.352941 26.352941 0 0 1 17.076705-9.487059l3.373177-0.210823 168.839529-0.030118v-158.117647H245.970824a61.500235 61.500235 0 0 1-61.31953-56.892235l-0.180706-4.577883V215.853176c0-32.436706 25.088-58.970353 56.922353-61.319529l4.577883-0.180706h562.176z m-105.411765 228.382118H351.382588l-3.312941 0.210823a26.352941 26.352941 0 0 0 0 52.314353l3.312941 0.180706h351.352471l3.312941-0.180706a26.352941 26.352941 0 0 0-3.312941-52.525176z m-210.82353-105.411765h-140.528941l-3.312941 0.210824a26.352941 26.352941 0 0 0 0 52.314353l3.312941 0.180705h140.528941l3.312942-0.180705a26.352941 26.352941 0 0 0-3.312942-52.525177z" fill="#568af2" /></svg>