<svg class="icon" style="width: 1em;height: 1em;vertical-align: middle;fill: currentColor;overflow: hidden;" viewBox="0 0 1024 1024" version="1.1" xmlns="http://www.w3.org/2000/svg" width="32" height="32"><path d="M492.001882 872.719059l-3.011764-1.445647 0.150588 0.060235-0.240941-0.150588-123.000471-70.264471-110.742588-63.307294-92.762353 46.441412a26.352941 26.352941 0 0 1-26.443294-45.477647l2.861176-1.686588 90.834824-45.417412v-264.824471l0.240941-3.493647a26.352941 26.352941 0 0 1 10.119529-17.438117l2.56-1.716706a26.292706 26.292706 0 0 0-0.12047 0.060235l0.481882-0.271059 232.658824-132.969412V180.705882a26.352941 26.352941 0 0 1 52.525176-3.312941l0.210824 3.312941-0.030118 90.112 109.718588 62.704942 80.112941 45.748705 42.857412 24.515765 0.481883 0.301177-0.150589-0.090353 2.620236 1.716706c5.541647 4.246588 9.185882 10.541176 10.119529 17.468235l0.210824 2.861176V691.471059l90.864941 45.417412a26.352941 26.352941 0 0 1-20.540236 48.459294l-3.041882-1.295059-92.79247-46.441412-110.742589 63.307294-122.970353 70.264471 0.090353-0.060235-0.180706 0.12047a26.322824 26.322824 0 0 1-22.949647 1.475765z m202.812236-446.072471l-192.873412 110.200471-192.843294-110.200471-26.744471 15.299765v30.117647l193.234824 110.441412v220.340706l26.352941 15.088941 26.352941-15.088941v-220.340706l193.264941-110.441412v-30.117647l-26.74447-15.299765z" fill="#568af2" /></svg>