<svg class="icon" style="width: 1em;height: 1em;vertical-align: middle;fill: currentColor;overflow: hidden;" viewBox="0 0 1024 1024" version="1.1" xmlns="http://www.w3.org/2000/svg" width="32" height="32"><path d="M637.500235 154.352941c13.432471 0 24.515765 10.059294 26.142118 23.04l0.210823 3.312941-0.030117 202.029177h202.059294c13.432471 0 24.515765 10.059294 26.142118 23.070117l0.210823 3.312942V865.882353a26.352941 26.352941 0 0 1-23.04 26.142118l-3.312941 0.210823H409.088a26.352941 26.352941 0 0 1-26.142118-23.04l-0.210823-3.312941v-202.059294H180.705882a26.352941 26.352941 0 0 1-26.142117-23.04l-0.210824-3.312941V180.705882c0-13.432471 10.059294-24.515765 23.04-26.142117L180.705882 154.352941h456.794353zM594.823529 524.378353l-3.403294 1.264941-156.009411 70.927059v67.252706h254.765176l3.252706-0.180706a26.383059 26.383059 0 0 0 17.648941-42.194824l-2.288941-2.590117-87.823059-87.853177-2.710588-2.379294a26.352941 26.352941 0 0 0-23.43153-4.21647z m16.26353-317.319529H207.058824v404.058352h175.676235v-202.029176c0-14.546824 11.806118-26.352941 26.352941-26.352941h202.029176V207.058824z m-14.486588 374.121411l29.936941 29.936941h-95.804236l65.867295-29.936941z" fill="#568af2" /></svg>