<svg class="icon" style="width: 1em;height: 1em;vertical-align: middle;fill: currentColor;overflow: hidden;" viewBox="0 0 1024 1024" version="1.1" xmlns="http://www.w3.org/2000/svg" width="32" height="32"><path d="M469.775059 194.258824l1.897412 2.710588 30.298353 49.031529 30.268235-49.031529a26.352941 26.352941 0 0 1 46.411294 24.786823l-1.566118 2.921412-44.15247 71.469177 245.699764 397.793882h74.691765a26.352941 26.352941 0 0 1 3.312941 52.525176l-3.312941 0.210824-42.134588-0.030118 29.424941 47.676236a26.352941 26.352941 0 0 1-42.917647 30.388705l-1.927529-2.710588-46.531765-75.354353H254.674824l-46.531765 75.354353a26.352941 26.352941 0 0 1-46.381177-24.786823l1.536-2.891294 29.424942-47.676236H150.588235a26.352941 26.352941 0 0 1-3.312941-52.495059l3.312941-0.180705 74.691765-0.030118 245.699765-397.793882-44.152471-71.469177a26.352941 26.352941 0 0 1 42.947765-30.418823z" fill="#568af2" /></svg>