<svg class="icon" style="width: 1em;height: 1em;vertical-align: middle;fill: currentColor;overflow: hidden;" viewBox="0 0 1024 1024" version="1.1" xmlns="http://www.w3.org/2000/svg" width="32" height="32"><path d="M456.794353 184.470588H210.823529A26.352941 26.352941 0 0 0 184.470588 210.823529v245.970824c0 14.546824 11.806118 26.352941 26.352941 26.352941h245.970824a26.352941 26.352941 0 0 0 26.352941-26.352941V210.823529a26.352941 26.352941 0 0 0-26.352941-26.352941z m0 386.499765H210.823529a26.352941 26.352941 0 0 0-26.352941 26.352941V843.294118c0 14.546824 11.806118 26.352941 26.352941 26.352941h245.970824a26.352941 26.352941 0 0 0 26.352941-26.352941v-245.970824a26.352941 26.352941 0 0 0-26.352941-26.352941zM843.294118 184.470588h-245.970824a26.352941 26.352941 0 0 0-26.352941 26.352941v245.970824c0 14.546824 11.806118 26.352941 26.352941 26.352941H843.294118a26.352941 26.352941 0 0 0 26.352941-26.352941V210.823529A26.352941 26.352941 0 0 0 843.294118 184.470588z m0 386.499765h-245.970824c-23.491765 0-35.237647 28.400941-18.612706 44.995765l245.940706 245.970823c16.624941 16.564706 44.995765 4.818824 44.995765-18.642823v-245.970824a26.352941 26.352941 0 0 0-26.352941-26.352941z" fill="#568af2" /></svg>