<svg class="icon" style="width: 1em;height: 1em;vertical-align: middle;fill: currentColor;overflow: hidden;" viewBox="0 0 1024 1024" version="1.1" xmlns="http://www.w3.org/2000/svg" width="32" height="32"><path d="M426.676706 124.235294a272.353882 272.353882 0 0 1 271.058823 245.940706h168.146824c14.546824 0 26.352941 11.806118 26.352941 26.383059v456.764235a26.352941 26.352941 0 0 1-26.352941 26.352941H409.088a26.352941 26.352941 0 0 1-26.352941-26.352941v-187.994353a272.323765 272.323765 0 0 1 43.911529-541.093647z m0 52.705882a219.617882 219.617882 0 0 0-43.941647 434.808471v-215.190588c0-14.576941 11.806118-26.352941 26.352941-26.352941l235.610353-0.030118a219.648 219.648 0 0 0-218.051765-193.234824z" fill="#568af2" /></svg>