<svg class="icon" style="width: 1em;height: 1em;vertical-align: middle;fill: currentColor;overflow: hidden;" viewBox="0 0 1024 1024" version="1.1" xmlns="http://www.w3.org/2000/svg" width="32" height="32"><path d="M843.294118 540.852706c14.546824 0 26.352941 11.806118 26.352941 26.352941 0 165.406118-120.199529 307.471059-342.588235 307.471059S184.470588 732.611765 184.470588 567.205647a26.352941 26.352941 0 0 1 52.705883 0c0 138.059294 98.725647 254.765176 289.882353 254.765177 191.156706 0 289.882353-116.705882 289.882352-254.765177 0-14.546824 11.806118-26.352941 26.352942-26.352941z" fill="#568af2" /><path d="M527.209412 156.129882c13.432471 0 24.515765 10.029176 26.142117 23.04l0.210824 3.312942v490.134588a26.352941 26.352941 0 0 1-52.525177 3.312941l-0.180705-3.312941V182.512941c0-14.576941 11.776-26.352941 26.352941-26.352941z" fill="#568af2" /><path d="M508.416 162.063059a26.352941 26.352941 0 0 1 34.575059-2.349177l2.710588 2.349177 210.823529 210.823529a26.352941 26.352941 0 0 1-34.575058 39.634824l-2.710589-2.349177L527.058824 217.961412l-192.180706 192.210823a26.352941 26.352941 0 0 1-34.575059 2.349177l-2.710588-2.349177a26.352941 26.352941 0 0 1-2.349177-34.575059l2.349177-2.710588 210.823529-210.823529z" fill="#568af2" /></svg>