<svg class="icon" style="width: 1em;height: 1em;vertical-align: middle;fill: currentColor;overflow: hidden;" viewBox="0 0 1024 1024" version="1.1" xmlns="http://www.w3.org/2000/svg" width="32" height="32"><path d="M535.792941 548.020706l259.011765 152.335059 2.951529 1.505882c8.192 3.523765 17.468235 2.590118 24.696471-2.048l-0.933647 0.542118-298.676706 175.706353a26.322824 26.322824 0 0 0 12.980706-22.708706V547.990588z m-52.705882 0l0.060235 305.302588 0.180706 3.312941c1.054118 8.372706 6.023529 15.510588 13.010824 19.546353l-0.210824-0.12047-298.676706-175.706353 2.349177 1.234823c7.589647 3.463529 16.655059 3.312941 24.395294-1.204706l258.921411-152.395294z m351.412706-221.726118V677.647059a26.443294 26.443294 0 0 1-12.980706-22.708706l-260.065883-152.997647 260.065883-152.937412 2.740706-1.867294a26.352941 26.352941 0 0 0 10.24-20.841412z m-650.029177-0.301176a26.352941 26.352941 0 0 0 12.980706 23.009882l260.035765 152.937412-260.035765 152.997647-2.710588 1.837176a26.352941 26.352941 0 0 0-10.270118 20.841412V326.264471z m338.010353-198.354824l0.361412 0.240941 298.676706 175.676236a26.443294 26.443294 0 0 1-26.714353 0l-259.011765 152.335059L535.883294 150.588235l-0.210823-3.312941a26.352941 26.352941 0 0 0-13.161412-19.636706z m-25.961412 0a26.352941 26.352941 0 0 0-13.372235 22.949647l-0.030118 305.302589-258.921411-152.335059-2.95153-1.505883a26.383059 26.383059 0 0 0-24.455529 1.92753l0.662588-0.421647 298.676706-175.676236z" fill="#568af2" /></svg>