<svg class="icon" style="width: 1em;height: 1em;vertical-align: middle;fill: currentColor;overflow: hidden;" viewBox="0 0 1024 1024" version="1.1" xmlns="http://www.w3.org/2000/svg" width="32" height="32"><path d="M790.588235 184.470588a79.058824 79.058824 0 0 1 78.908236 74.059294l0.150588 4.99953v87.853176a26.352941 26.352941 0 0 1-52.495059 3.312941l-0.210824-3.312941V263.529412a26.352941 26.352941 0 0 0-23.04-26.142118l-3.312941-0.210823h-289.91247l0.030117 325.029647c0 92.039529-60.295529 190.343529-142.004706 254.795294l431.887059-0.060236a26.352941 26.352941 0 0 0 26.142118-23.04l0.210823-3.312941v-61.500235a26.352941 26.352941 0 0 1 52.495059-3.312941l0.210824 3.312941v61.500235a79.058824 79.058824 0 0 1-74.059294 78.908236l-4.99953 0.150588H263.529412a79.058824 79.058824 0 0 1-78.908236-74.059294l-0.150588-4.99953V263.529412a79.058824 79.058824 0 0 1 74.059294-78.908236l4.99953-0.150588h527.058823z m74.029177 344.666353a27.527529 27.527529 0 0 1 1.746823 2.740706 26.262588 26.262588 0 0 1-2.078117 28.672l-0.542118 0.692706a26.503529 26.503529 0 0 1-1.385412 1.566118l-105.833412 105.863529a26.352941 26.352941 0 0 1-39.634823-34.575059l2.349176-2.710588 60.416-60.416H632.470588a26.352941 26.352941 0 0 1-3.312941-52.495059l3.312941-0.210823h147.184941l-60.416-60.416a26.352941 26.352941 0 0 1-2.349176-34.575059l2.349176-2.710588a26.352941 26.352941 0 0 1 34.575059-2.349177l2.710588 2.379294 105.833412 105.833412 0.722824 0.783059 0.240941 0.301176-1.385412-1.505882 1.807059 1.987765 0.873412 1.14447z" fill="#568af2" /></svg>