<svg class="icon" style="width: 1em;height: 1em;vertical-align: middle;fill: currentColor;overflow: hidden;" viewBox="0 0 1024 1024" version="1.1" xmlns="http://www.w3.org/2000/svg" width="32" height="32"><path d="M783.058824 124.235294a96.617412 96.617412 0 1 0 0 193.264941 96.617412 96.617412 0 0 0 0-193.264941z m0 562.206118a96.617412 96.617412 0 1 0 0 193.234823 96.617412 96.617412 0 0 0 0-193.234823zM220.852706 124.235294a96.617412 96.617412 0 1 0 0 193.264941 96.617412 96.617412 0 0 0 0-193.264941z m0 562.206118a96.617412 96.617412 0 1 0 0 193.234823 96.617412 96.617412 0 0 0 0-193.234823zM572.235294 194.499765a26.352941 26.352941 0 0 1 3.312941 52.525176l-3.312941 0.180706h-140.559059a26.352941 26.352941 0 0 1-3.312941-52.495059l3.312941-0.210823H572.235294z m88.907294 148.269176c9.426824 9.456941 10.24 24.244706 2.349177 34.575059l-2.349177 2.710588-281.088 281.088a26.352941 26.352941 0 0 1-39.634823-34.575059l2.349176-2.710588 281.118118-281.088a26.352941 26.352941 0 0 1 37.255529 0zM783.058824 405.323294c13.432471 0 24.515765 10.059294 26.142117 23.070118l0.210824 3.312941V572.235294a26.352941 26.352941 0 0 1-52.495059 3.312941l-0.210824-3.312941v-140.559059c0-14.546824 11.806118-26.352941 26.352942-26.352941z" fill="#568af2" /></svg>