<svg class="icon" style="width: 1em;height: 1em;vertical-align: middle;fill: currentColor;overflow: hidden;" viewBox="0 0 1024 1024" version="1.1" xmlns="http://www.w3.org/2000/svg" width="32" height="32"><path d="M556.544 633.705412l77.161412-77.161412v-109.176471l-38.550588-38.550588 4.21647 4.397177 0.301177 0.331294 1.897411 2.16847 2.198589 2.590118a132.547765 132.547765 0 0 0-2.198589-2.590118l2.198589 2.590118a132.517647 132.517647 0 0 0-4.246589-4.909176l-4.397176-4.608-38.610824-38.610824h77.19153V256c0-17.377882-3.343059-33.972706-9.456941-49.152a131.794824 131.794824 0 0 1 172.875294 172.875294 131.764706 131.764706 0 0 1 0 244.525177 131.794824 131.794824 0 0 1-172.93553 172.875294 130.349176 130.349176 0 0 0 9.547294-49.212236l-0.030117-114.206117h114.206117c17.408 0 34.002824-3.343059 49.212236-9.456941a130.861176 130.861176 0 0 0-28.069647-41.562353l-80.745412-80.715294 80.745412-80.745412c12.288-12.318118 21.684706-26.443294 28.069647-41.502118a131.011765 131.011765 0 0 0-49.212236-9.517176l-114.206117-0.030118v77.191529l54.603294 54.603295-54.603294 54.573176v77.161412h-77.161412l-54.603294 54.573176 80.775529 80.77553c12.288 12.288 26.383059 21.654588 41.472 28.069647a131.794824 131.794824 0 0 1-244.495059 0c15.088941-6.415059 29.214118-15.781647 41.532236-28.069647l80.715294-80.77553-54.573177-54.573176h109.176471z m-54.573176-263.529412h-54.573177l-77.221647 77.221647v109.116235l77.191529 77.19153h-77.191529v114.206117c0 17.408 3.403294 34.002824 9.517176 49.212236a131.794824 131.794824 0 0 1-172.875294-172.875294 131.794824 131.794824 0 0 1 0.030118-244.555295 131.674353 131.674353 0 0 1 28.009412-144.835764l5.089882-4.818824a131.824941 131.824941 0 0 1 139.745882-23.250823 131.704471 131.704471 0 0 0-9.487058 49.212235l-0.030118 114.176H256c-17.377882 0-33.972706 3.373176-49.152 9.487059 6.324706 15.119059 15.721412 29.244235 28.009412 41.562353l80.745412 80.715294-80.715295 80.775529c-12.318118 12.288-21.684706 26.413176-28.099764 41.502118a131.072 131.072 0 0 0 49.212235 9.517176l114.176-0.030117v-77.19153l-54.573176-54.573176 54.573176-54.543059v-77.221647h77.221647l54.543059-54.573176-80.715294-80.715295a131.403294 131.403294 0 0 0-41.562353-28.099764 131.824941 131.824941 0 0 1 244.585412 0.060235c-15.119059 6.354824-29.214118 15.721412-41.562353 28.009412l-80.745412 80.745412 54.573176 54.573176h-55.747764l-1.475765 0.060235-2.048 0.060236 3.433412-0.090353h1.295059z" fill="#568af2" /></svg>