<svg class="icon" style="width: 1em;height: 1em;vertical-align: middle;fill: currentColor;overflow: hidden;" viewBox="0 0 1024 1024" version="1.1" xmlns="http://www.w3.org/2000/svg" width="32" height="32"><path d="M0 0h1024v1024H0z" fill="#568af2" fill-opacity="0" /><path d="M637.500235 254.735059h182.934589l13.552941 0.180706 11.444706 0.391529c24.545882 1.295059 34.243765 5.330824 46.381176 17.468235 11.444706 11.444706 15.691294 20.781176 17.197177 42.556236l0.481882 10.149647 0.240941 11.926588 0.060235 13.974588-0.060235 365.327059-0.240941 11.926588-0.481882 10.149647c-1.505882 21.775059-5.722353 31.111529-17.227295 42.586353-11.444706 11.444706-20.781176 15.691294-42.586353 17.197177l-10.119529 0.512-11.926588 0.240941-13.974588 0.060235h-175.676236a26.352941 26.352941 0 0 1-3.312941-52.525176l3.312941-0.180706 186.729412-0.060235 12.649412-0.210824 8.583529-0.421647 3.855059-0.361412 2.650353-0.451764a12.408471 12.408471 0 0 0 0.933647-0.240942l1.264941-0.542117a2.228706 2.228706 0 0 0 0.361412-0.301177l0.301176-0.361412 0.542118-1.264941 0.451765-2.108235 0.421647-3.222588 0.451765-7.408941 0.301176-11.203765 0.090353-15.781647-0.090353-367.134118-0.301176-11.203765-0.301177-5.330823-0.361412-3.855059-0.421647-2.620235a12.408471 12.408471 0 0 0-0.240941-0.933647l-0.542118-1.264941a2.228706 2.228706 0 0 0-0.301176-0.361412l-0.361412-0.301177-1.264941-0.542117-2.108235-0.481883-3.222588-0.391529-4.547765-0.331294-14.064941-0.421647-15.781647-0.120471h-175.676236a26.352941 26.352941 0 0 1-3.312941-52.495059l3.312941-0.210823zM426.676706 254.735059a26.352941 26.352941 0 0 1 3.312941 52.525176l-3.312941 0.180706-186.75953 0.060235-12.649411 0.210824-8.58353 0.421647-3.855059 0.361412-2.650352 0.451765a12.408471 12.408471 0 0 0-0.90353 0.240941l-1.264941 0.542117a2.228706 2.228706 0 0 0-0.391529 0.301177l-0.301177 0.361412-0.512 1.264941-0.481882 2.108235-0.421647 3.222588-0.451765 7.408941-0.361412 15.902118v373.519059l0.150588 8.914823 0.210824 6.987295 0.301176 5.330823 0.361412 3.855059 0.421647 2.620235a12.408471 12.408471 0 0 0 0.271059 0.933647l0.542118 1.264941a2.228706 2.228706 0 0 0 0.301176 0.361412l0.361412 0.301177 1.234823 0.542117 2.108236 0.481883 3.252706 0.391529 4.517647 0.331294 14.064941 0.421647 15.781647 0.120471h175.706353a26.352941 26.352941 0 0 1 3.312941 52.495059l-3.312941 0.210823H243.742118l-13.583059-0.180706-11.444706-0.391529c-24.515765-1.295059-34.243765-5.330824-46.351059-17.468235-13.131294-13.101176-16.775529-23.401412-17.709176-52.705883l-0.301177-18.642823V344.124235l0.301177-18.642823c0.933647-29.304471 4.577882-39.604706 17.709176-52.705883 11.474824-11.504941 20.781176-15.721412 42.586353-17.227294l10.149647-0.512 11.926588-0.240941 13.944471-0.060235h175.706353zM532.088471 184.470588c13.432471 0 24.515765 10.059294 26.142117 23.04l0.210824 3.312941v632.470589a26.352941 26.352941 0 0 1-52.525177 3.312941l-0.180706-3.312941V210.823529c0-14.546824 11.776-26.352941 26.352942-26.352941z" fill="#568af2" /></svg>