<svg class="icon" style="width: 1em;height: 1em;vertical-align: middle;fill: currentColor;overflow: hidden;" viewBox="0 0 1024 1024" version="1.1" xmlns="http://www.w3.org/2000/svg" width="32" height="32"><path d="M316.235294 184.470588a131.764706 131.764706 0 1 0 0 263.529412 131.764706 131.764706 0 0 0 0-263.529412z m87.853177 421.647059H228.382118a26.352941 26.352941 0 0 0-26.352942 26.352941v175.676236c0 14.576941 11.806118 26.352941 26.352942 26.352941h175.706353a26.352941 26.352941 0 0 0 26.352941-26.352941V632.470588a26.352941 26.352941 0 0 0-26.352941-26.352941zM843.294118 289.882353c13.432471 0 24.515765 10.059294 26.142117 23.04l0.210824 3.312941v404.088471a26.352941 26.352941 0 0 1-23.04 26.142117l-3.312941 0.210824h-298.676706a26.352941 26.352941 0 0 1-3.312941-52.525177l3.312941-0.180705 272.323764-0.030118V342.588235H556.574118a26.352941 26.352941 0 0 1-26.142118-23.04l-0.210824-3.312941c0-13.432471 10.059294-24.515765 23.04-26.142118l3.312942-0.210823H843.294118z" fill="#568af2" /></svg>