<svg class="icon" style="width: 1em;height: 1em;vertical-align: middle;fill: currentColor;overflow: hidden;" viewBox="0 0 1024 1024" version="1.1" xmlns="http://www.w3.org/2000/svg" width="32" height="32"><path d="M194.56 186.096941c71.559529-64.512 209.769412-27.045647 320.150588 77.010824-3.644235 3.493647-7.288471 7.017412-10.87247 10.601411-42.616471 42.616471-75.113412 89.991529-95.382589 136.432942-45.899294 20.299294-92.641882 52.555294-134.746353 94.629647-3.433412 3.463529-6.836706 6.927059-10.149647 10.450823 3.343059 3.523765 6.716235 6.987294 10.149647 10.420706 42.104471 42.104471 88.847059 74.330353 134.746353 94.659765 20.269176 46.411294 52.766118 93.816471 95.382589 136.432941 3.614118 3.584 7.228235 7.107765 10.87247 10.541176-112.670118 106.255059-254.313412 143.088941-324.487529 72.914824-70.264471-70.264471-33.219765-212.208941 73.33647-324.969412-106.556235-112.760471-143.600941-254.735059-73.33647-324.969412z m322.861176 74.511059c112.278588-104.297412 252.235294-139.986824 321.837177-70.384941 70.264471 70.264471 33.219765 212.239059-73.366588 325.029647 106.616471 112.730353 143.631059 254.674824 73.366588 324.969412-70.174118 70.174118-211.847529 33.310118-324.547765-72.944942 3.704471-3.433412 7.318588-6.927059 10.932706-10.541176 42.616471-42.616471 75.113412-90.021647 95.382588-136.432941 45.899294-20.329412 92.641882-52.555294 134.746353-94.659765 3.433412-3.433412 6.806588-6.927059 10.11953-10.390588a388.517647 388.517647 0 0 0-10.11953-10.480941c-42.074353-42.074353-88.847059-74.300235-134.716235-94.629647-20.269176-46.411294-52.796235-93.816471-95.412706-136.432942-3.614118-3.614118-7.228235-7.137882-10.902588-10.601411z m127.668706 254.765176l-0.060235 6.264471c-0.813176 30.840471-9.095529 64.481882-24.003765 98.635294-36.592941 16.233412-72.673882 24.847059-105.381647 24.816941 36.894118-0.391529 69.391059-11.866353 93.485177-35.96047 24.154353-24.154353 35.629176-56.771765 35.96047-93.756236z m-235.038117-105.953882c36.743529-16.052706 72.884706-24.395294 105.622588-24.094118-35.478588 0.030118-66.981647 10.209882-90.955294 31.834353l-4.367059 4.156236c-24.094118 24.094118-35.599059 56.651294-35.960471 93.605647 0.240941 37.165176 11.715765 69.963294 35.960471 94.208 24.094118 24.094118 56.621176 35.538824 93.455059 35.96047-32.677647 0-68.728471-8.583529-105.35153-24.786823-16.022588-36.683294-24.395294-72.734118-24.064-105.411765-0.210824-32.466824 8.131765-68.306824 24.064-104.749176z m106.194823-24.094118c32.557176 0.090353 68.427294 8.734118 104.809412 24.816942 15.902118 36.502588 24.274824 72.372706 24.033882 104.869647-0.361412-36.984471-11.836235-69.571765-35.96047-93.696-24.094118-24.094118-56.621176-35.568941-93.455059-35.960471z" fill="#568af2" /></svg>