<svg class="icon" style="width: 1em;height: 1em;vertical-align: middle;fill: currentColor;overflow: hidden;" viewBox="0 0 1024 1024" version="1.1" xmlns="http://www.w3.org/2000/svg" width="32" height="32"><path d="M441.072941 124.235294l-3.312941 0.210824A26.352941 26.352941 0 0 0 414.72 150.588235v153.569883l-132.999529-76.8a26.352941 26.352941 0 0 0-35.990589 9.637647l-87.853176 152.18447-1.475765 2.95153a26.352941 26.352941 0 0 0 11.14353 33.039059l132.969411 76.769882-132.969411 76.8a26.352941 26.352941 0 0 0-9.637647 36.020706l87.823058 152.124235 1.807059 2.770824a26.352941 26.352941 0 0 0 34.18353 6.896941l132.999529-76.830118v153.6c0 14.576941 11.806118 26.352941 26.352941 26.352941h175.706353l3.312941-0.180706a26.352941 26.352941 0 0 0 23.04-26.172235l-0.030117-153.6 133.029647 76.8a26.352941 26.352941 0 0 0 35.990588-9.637647l87.853176-152.124235 1.475765-2.981647a26.352941 26.352941 0 0 0-11.143529-33.039059l-132.99953-76.8 132.99953-76.769882a26.352941 26.352941 0 0 0 9.637647-35.990589L812.152471 237.025882l-1.807059-2.770823a26.352941 26.352941 0 0 0-34.18353-6.866824l-133.029647 76.769883V150.588235a26.352941 26.352941 0 0 0-26.322823-26.352941h-175.706353z" fill="#568af2" /></svg>