<svg class="icon" style="width: 1em;height: 1em;vertical-align: middle;fill: currentColor;overflow: hidden;" viewBox="0 0 1024 1024" version="1.1" xmlns="http://www.w3.org/2000/svg" width="32" height="32"><path d="M0 0h1024v1024H0z" fill="#568af2" fill-opacity="0" /><path d="M861.936941 192.180706c9.426824 9.456941 10.24 24.244706 2.349177 34.575059l-2.349177 2.710588-632.470588 632.470588a26.352941 26.352941 0 0 1-39.634824-34.575059l2.349177-2.710588 632.470588-632.470588a26.352941 26.352941 0 0 1 37.285647 0z m0 527.058823c9.426824 9.456941 10.24 24.244706 2.349177 34.575059l-2.349177 2.710588-105.411765 105.411765a26.352941 26.352941 0 0 1-39.634823-34.575059l2.349176-2.710588 105.411765-105.411765a26.352941 26.352941 0 0 1 37.285647 0z m0-351.35247c9.426824 9.426824 10.24 24.214588 2.349177 34.544941l-2.349177 2.710588L405.142588 861.967059a26.352941 26.352941 0 0 1-39.634823-34.575059l2.379294-2.710588L824.621176 367.887059a26.352941 26.352941 0 0 1 37.285648 0z m0 175.676235c9.426824 9.426824 10.24 24.244706 2.349177 34.575059l-2.349177 2.710588-281.118117 281.088a26.352941 26.352941 0 0 1-39.604706-34.575059l2.349176-2.710588 281.088-281.088a26.352941 26.352941 0 0 1 37.285647 0zM686.230588 192.150588c9.456941 9.456941 10.24 24.244706 2.379294 34.575059l-2.379294 2.710588L229.496471 686.230588a26.352941 26.352941 0 0 1-39.634824-34.544941l2.349177-2.710588L648.975059 192.150588a26.352941 26.352941 0 0 1 37.255529 0z m-175.676235 0c9.426824 9.456941 10.24 24.244706 2.349176 34.575059l-2.349176 2.710588-281.088 281.088a26.352941 26.352941 0 0 1-39.634824-34.575059l2.349177-2.710588 281.118118-281.088a26.352941 26.352941 0 0 1 37.255529 0z m-175.676235 0c9.426824 9.456941 10.24 24.244706 2.349176 34.575059l-2.349176 2.710588-105.411765 105.411765A26.352941 26.352941 0 0 1 189.831529 300.272941l2.349177-2.710588 105.411765-105.411765a26.352941 26.352941 0 0 1 37.285647 0z" fill="#568af2" /></svg>