<svg class="icon" style="width: 1em;height: 1em;vertical-align: middle;fill: currentColor;overflow: hidden;" viewBox="0 0 1024 1024" version="1.1" xmlns="http://www.w3.org/2000/svg" width="32" height="32"><path d="M295.785412 829.500235L295.152941 495.676235h166.671059c13.432471 0 24.545882 10.059294 26.172235 23.070118l0.180706 3.312941v281.088a26.352941 26.352941 0 0 1-26.352941 26.352941H295.785412zM883.440941 214.588235c13.432471 0 24.545882 10.059294 26.172235 23.04l0.180706 3.312941v562.206118a26.352941 26.352941 0 0 1-23.04 26.142118l-3.312941 0.210823h-210.823529l3.312941-0.210823a26.352941 26.352941 0 0 0 23.04-26.142118v-421.647059l-0.180706-3.312941a26.352941 26.352941 0 0 0-26.172235-23.04L294.881882 355.087059v26.383059l0.240942 114.176H225.28l1.957647 333.824H180.705882a26.352941 26.352941 0 0 1-26.352941-26.352942v-281.118117c0-14.546824 11.806118-26.352941 26.352941-26.352941h44.574118l-0.662588-114.176c0-13.432471 10.059294-24.545882 23.070117-26.172236l3.312942-0.180706 43.881411-0.030117V240.941176c0-13.432471 10.059294-24.515765 23.070118-26.142117l3.312941-0.210824h562.176z" fill="#568af2" /></svg>