<svg class="icon" style="width: 1em;height: 1em;vertical-align: middle;fill: currentColor;overflow: hidden;" viewBox="0 0 1024 1024" version="1.1" xmlns="http://www.w3.org/2000/svg" width="32" height="32"><path d="M838.053647 126.674824l11.806118 1.385411 9.637647 1.505883 3.493647 1.14447 3.011765 1.385412 2.349176 1.475765 1.024 0.722823a25.931294 25.931294 0 0 1 5.722353 6.02353l1.656471 2.831058 1.325176 3.011765 1.204706 4.577883 1.204706 7.951058 0.903529 7.469177 0.481883 4.367059c4.065882 39.815529 3.644235 82.582588-4.517648 123.392-11.444706 57.404235-36.984471 102.761412-80.414117 129.686588-6.625882 4.065882-13.402353 7.559529-20.35953 10.450823-44.483765 18.462118-90.744471 11.926588-134.415058-9.426823a239.435294 239.435294 0 0 1-13.763765-7.288471l-37.195294-37.195294a239.435294 239.435294 0 0 1-7.288471-13.763765c-21.353412-43.670588-27.888941-89.931294-9.426823-134.415058 2.891294-6.927059 6.384941-13.733647 10.480941-20.329412 26.895059-43.459765 72.282353-68.969412 129.686588-80.444235 40.779294-8.161882 83.546353-8.583529 123.392-4.517647z m-6.415059 49.453176l-37.225412 0.662588-23.250823 23.190588-14.516706 14.516706-6.927059 6.927059-19.727059 19.696941-6.144 6.144-11.745882 11.745883-5.601882 5.571764-15.570824 15.540706-4.788706 4.788706-13.191529 13.161412-18.070588 18.070588-13.131294 13.101177-8.222118 8.192-3.011765 3.011764a16.655059 16.655059 0 0 1-0.361412 0.331294c6.535529 17.468235 19.064471 29.967059 37.586824 37.436236l163.870118-163.84 0.030117-38.249412z m-55.055059 403.004235c6.927059 2.891294 13.733647 6.384941 20.35953 10.450824 43.429647 26.925176 68.969412 72.282353 80.414117 129.686588 8.161882 40.809412 8.583529 83.576471 4.517648 123.392l-1.385412 11.836235-1.204706 8.192-0.602353 2.529883a25.961412 25.961412 0 0 1-2.409412 5.812706l-2.68047 3.855058-2.078118 2.198589-1.927529 1.686588-0.662589 0.481882a25.148235 25.148235 0 0 1-5.12 2.921412l-3.222588 1.114353-2.499765 0.602353-10.24 1.505882-9.788235 1.084236c-39.845647 4.096-82.612706 3.674353-123.392-4.48753-57.434353-11.444706-102.791529-36.984471-129.686588-80.414118-24.636235-39.815529-26.473412-83.636706-12.227765-127.277176 7.529412-23.070118 17.92-42.134588 27.587765-55.777882l2.770823-3.734589 0.572236-0.903529a25.871059 25.871059 0 0 1 4.21647-4.517647l2.469647-1.807059c6.927059-5.210353 17.769412-12.167529 31.804236-19.004235 43.670588-21.353412 89.931294-27.888941 134.415058-9.426824z m-109.086117 55.808c-18.371765 7.408941-30.810353 19.847529-37.345883 37.315765l11.595295 11.565176 16.353882 16.323765 10.842353 10.842353 32.165647 32.13553 5.391059 5.391058 72.192 72.161883 15.661176 15.661176 39.966118 0.090353-2.680471-37.556706-164.141176-163.930353zM293.918118 131.192471c57.404235 11.444706 102.761412 36.984471 129.686588 80.414117 24.636235 39.815529 26.443294 83.636706 12.197647 127.277177a210.733176 210.733176 0 0 1-27.888941 56.139294l-2.800941 3.855059-1.596236 2.017882-2.349176 2.349176-1.505883 1.264942a207.299765 207.299765 0 0 1-60.747294 31.292235c-43.670588 14.245647-87.491765 12.438588-127.277176-12.197647-43.459765-26.925176-68.969412-72.282353-80.444235-129.686588-8.161882-40.809412-8.583529-83.576471-4.517647-123.392l1.385411-11.836236 1.234824-8.252235a26.503529 26.503529 0 0 1 4.638117-10.842353l2.168471-2.56 2.861177-2.620235 0.662588-0.481883a25.148235 25.148235 0 0 1 5.12-2.921411l3.463529-1.204706 2.198588-0.512 2.861177-0.451765 7.469176-1.054118 9.788236-1.114352c39.815529-4.065882 82.582588-3.644235 123.392 4.517647z m-119.416471 45.477647l2.288941 37.376 164.291765 164.261647c18.371765-7.529412 30.840471-19.998118 37.345882-37.436236l-0.783059-0.813176-2.56-2.56-18.311529-18.311529-13.251765-13.251765-41.291294-41.35153-17.317647-17.317647-6.174117-6.174117-26.593883-26.624-7.137882-7.168-22.588235-22.618353-7.951059-7.951059-39.966118-0.030118z m164.382118 400.715294c23.070118 7.529412 42.134588 17.92 55.777882 27.587764l4.367059 3.192471c2.048 1.505882 3.915294 3.312941 5.571765 5.421177a207.299765 207.299765 0 0 1 31.201882 60.687058c14.245647 43.670588 12.438588 87.491765-12.197647 127.277177-26.925176 43.459765-72.282353 68.969412-129.686588 80.444235-40.809412 8.161882-83.576471 8.583529-123.392 4.517647l-11.836236-1.385412-8.252235-1.234823-2.319059-0.542118a25.810824 25.810824 0 0 1-8.493176-4.096l-2.590118-2.16847-2.108235-2.198589-0.993883-1.325176a25.148235 25.148235 0 0 1-2.921411-5.12l-1.114353-3.222588-0.602353-2.499765-1.505883-10.270118-1.114352-9.788235c-4.065882-39.815529-3.644235-82.582588 4.517647-123.392 11.444706-57.404235 36.984471-102.761412 80.414117-129.686588 39.815529-24.636235 83.636706-26.443294 127.277177-12.197647z m2.198588 57.313882l-164.261647 164.352 1.204706 36.321882 36.382117 0.963765 15.661177-15.661176 14.878118-14.908236 7.137882-7.168 20.269176-20.269176 24.244706-24.304941 21.082353-21.112471 4.818824-4.818823 13.161411-13.19153 23.883295-23.883294 18.793411-18.793412c-6.445176-17.528471-18.883765-30.027294-37.255529-37.526588z" fill="#568af2" /></svg>