<svg class="icon" style="width: 1em;height: 1em;vertical-align: middle;fill: currentColor;overflow: hidden;" viewBox="0 0 1024 1024" version="1.1" xmlns="http://www.w3.org/2000/svg" width="32" height="32"><path d="M465.227294 142.245647a61.500235 61.500235 0 0 1 86.979765 0l322.981647 322.981647c24.033882 24.033882 24.033882 62.945882 0 86.979765L552.207059 875.188706a61.500235 61.500235 0 0 1-86.979765 0L142.245647 552.207059a61.500235 61.500235 0 0 1 0-86.979765z m40.508235 191.397647a26.352941 26.352941 0 0 0-26.352941 26.352941l-0.030117 122.458353H356.894118l-3.312942 0.210824a26.352941 26.352941 0 0 0 3.312942 52.525176l122.458353-0.030117v122.48847l0.240941 3.312941a26.352941 26.352941 0 0 0 52.495059-3.312941l-0.030118-122.48847h122.518588l3.312941-0.180706a26.352941 26.352941 0 0 0-3.312941-52.495059l-122.518588-0.030118v-122.458353l-0.180706-3.312941a26.352941 26.352941 0 0 0-26.142118-23.04z" fill="#568af2" /></svg>