<svg class="icon" style="width: 1em;height: 1em;vertical-align: middle;fill: currentColor;overflow: hidden;" viewBox="0 0 1024 1024" version="1.1" xmlns="http://www.w3.org/2000/svg" width="32" height="32"><path d="M519.168 229.195294c93.153882-73.697882 200.372706-97.972706 282.624-50.507294 124.416 71.830588 135.168 275.365647 31.774118 454.475294-91.678118 158.780235-244.766118 249.434353-365.025883 218.021647a25.720471 25.720471 0 0 1-11.143529-0.12047c-98.123294-22.588235-197.210353-104.146824-262.866824-217.871059-103.424-179.139765-92.672-382.674824 31.744-454.475294 82.160941-47.465412 191.698824-23.792941 287.774118 54.603294z m-266.541176-4.848941c-94.057412 54.302118-103.092706 225.490824-12.468706 382.494118 27.949176 48.368941 62.343529 89.991529 99.629176 122.428235-35.388235-95.352471-17.950118-228.743529 52.525177-350.840471l5.330823-9.035294a543.924706 543.924706 0 0 1 77.040941-100.080941c-78.908235-61.861647-163.147294-78.998588-222.057411-44.965647z" fill="#568af2" /></svg>