<svg class="icon" style="width: 1em;height: 1em;vertical-align: middle;fill: currentColor;overflow: hidden;" viewBox="0 0 1024 1024" version="1.1" xmlns="http://www.w3.org/2000/svg" width="32" height="32"><path d="M501.940706 662.558118l338.703059 186.247529 3.011764 1.415529a26.202353 26.202353 0 0 0 9.336471 1.867295H150.919529a26.232471 26.232471 0 0 0 12.348236-3.282824L501.940706 662.588235zM479.472941 197.089882a26.202353 26.202353 0 0 0-3.855059 13.733647l-0.030117 406.076236L137.878588 802.635294l-2.800941 1.776941a26.383059 26.383059 0 0 0-7.378823 8.252236L479.081412 197.752471z m45.025883 0.090353l0.331294 0.572236 351.382588 614.912a26.202353 26.202353 0 0 0-10.179765-10.029177l-337.739294-185.765647V210.823529l-0.180706-3.312941a26.202353 26.202353 0 0 0-3.614117-10.330353z" fill="#568af2" /></svg>