<svg class="icon" style="width: 1em;height: 1em;vertical-align: middle;fill: currentColor;overflow: hidden;" viewBox="0 0 1024 1024" version="1.1" xmlns="http://www.w3.org/2000/svg" width="32" height="32"><path d="M501.970824 124.235294c208.594824 0 377.705412 169.110588 377.705411 377.73553 0 208.594824-169.110588 377.705412-377.705411 377.705411 72.794353 0 128.963765-92.521412 153.449411-224.256 131.734588-24.485647 224.256-80.655059 224.256-153.449411 0-72.824471-92.551529-128.993882-224.286117-153.47953l-1.295059-6.927059c-24.545882-124.897882-77.914353-212.931765-146.944-217.148235z m0 0c-72.824471 0-128.963765 92.521412-153.47953 224.256-131.734588 24.515765-224.256 80.655059-224.256 153.47953 0 71.529412 89.298824 126.976 217.328941 152.124235l6.927059 1.295059c23.913412 128.662588 78.034824 219.949176 148.389647 224.135529l5.089883 0.150588c-208.624941 0-377.735529-169.110588-377.73553-377.705411 0-208.624941 169.110588-377.735529 377.73553-377.73553z m0 210.82353c54.512941 0 106.435765 4.698353 153.419294 13.43247l2.108235 11.625412a856.847059 856.847059 0 0 1 11.354353 141.854118c0 54.512941-4.698353 106.465882-13.432471 153.449411-46.983529 8.734118-98.936471 13.432471-153.449411 13.432471a856.847059 856.847059 0 0 1-141.854118-11.384471l-11.625412-2.108235a846.004706 846.004706 0 0 1-13.43247-153.389176c0-54.512941 4.698353-106.496 13.43247-153.47953 46.983529-8.734118 98.936471-13.432471 153.47953-13.43247z" fill="#568af2" /></svg>