<svg class="icon" style="width: 1em;height: 1em;vertical-align: middle;fill: currentColor;overflow: hidden;" viewBox="0 0 1024 1024" version="1.1" xmlns="http://www.w3.org/2000/svg" width="32" height="32"><path d="M582.053647 135.529412c14.486588 0 26.262588 11.745882 26.262588 26.262588l-0.030117 43.760941h183.868235c13.402353 0 24.455529 10.029176 26.081882 22.979765l0.180706 3.312941v183.838118h43.791059c13.402353 0 24.425412 10.029176 26.051765 22.979764l0.210823 3.312942v140.047058c0 14.516706-11.745882 26.292706-26.262588 26.292706l-43.791059-0.030117v183.868235a26.262588 26.262588 0 0 1-22.949647 26.081882l-3.312941 0.180706h-183.868235v43.791059a26.262588 26.262588 0 0 1-22.949647 26.051765l-3.312942 0.210823h-140.047058a26.262588 26.262588 0 0 1-26.292706-26.262588v-43.791059H231.845647a26.262588 26.262588 0 0 1-26.081882-22.949647l-0.180706-3.312941-0.030118-183.868235H161.792a26.262588 26.262588 0 0 1-26.051765-22.949647l-0.210823-3.312942v-140.047058c0-14.516706 11.745882-26.292706 26.262588-26.292706h43.760941V231.845647c0-13.402353 10.029176-24.455529 22.979765-26.081882l3.312941-0.180706 183.838118-0.030118V161.792c0-13.402353 10.029176-24.425412 22.979764-26.051765l3.312942-0.210823zM258.078118 645.421176v120.470589h120.470588l-120.470588-120.470589z m507.813647 4.126118l-106.676706 116.344471h106.676706v-116.344471zM512 380.687059a26.262588 26.262588 0 0 0-26.051765 22.949647l-0.210823 3.312941v78.757647h-78.787765l-3.312941 0.240941a26.262588 26.262588 0 0 0 0 52.10353l3.312941 0.210823h78.757647v78.787765l0.240941 3.312941a26.262588 26.262588 0 0 0 52.10353 0l0.210823-3.312941v-78.787765h78.787765l3.312941-0.210823a26.262588 26.262588 0 0 0 0-52.10353l-3.312941-0.210823-78.817882-0.030118 0.030117-78.757647-0.210823-3.312941A26.262588 26.262588 0 0 0 512 380.687059z m253.891765-122.578824l-120.470589-0.030117 120.470589 120.470588v-120.470588zM378.578824 258.048h-120.470589v120.470588l120.470589-120.470588z" fill="#568af2" /></svg>