<svg class="icon" style="width: 1em;height: 1em;vertical-align: middle;fill: currentColor;overflow: hidden;" viewBox="0 0 1024 1024" version="1.1" xmlns="http://www.w3.org/2000/svg" width="32" height="32"><path d="M250.970353 681.411765a96.617412 96.617412 0 1 1 0 193.264941 96.617412 96.617412 0 0 1 0-193.264941z m527.058823 0a96.617412 96.617412 0 1 1 0 193.264941 96.617412 96.617412 0 0 1 0-193.264941zM647.529412 325.511529a26.352941 26.352941 0 0 1 39.092706-9.155764 289.430588 289.430588 0 0 1 117.790117 233.291294c0 15.661176-1.204706 31.141647-3.674353 46.381176a26.352941 26.352941 0 0 1-28.129882 22.106353 149.323294 149.323294 0 0 0-158.358588 179.2 26.352941 26.352941 0 0 1-18.432 30.629647 289.972706 289.972706 0 0 1-81.28753 11.565177c-27.768471 0-55.085176-3.915294-81.257411-11.565177a26.352941 26.352941 0 0 1-18.432-30.629647 149.323294 149.323294 0 0 0-158.358589-179.2 26.352941 26.352941 0 0 1-28.129882-22.106353 291.749647 291.749647 0 0 1-3.704471-46.381176 289.430588 289.430588 0 0 1 117.820236-233.291294 26.352941 26.352941 0 0 1 39.092706 9.155764 149.293176 149.293176 0 0 0 132.969411 81.317647 149.293176 149.293176 0 0 0 132.99953-81.317647z m-132.99953-171.158588a96.617412 96.617412 0 1 1 0 193.264941 96.617412 96.617412 0 0 1 0-193.264941z" fill="#568af2" /></svg>