<svg class="icon" style="width: 1em;height: 1em;vertical-align: middle;fill: currentColor;overflow: hidden;" viewBox="0 0 1024 1024" version="1.1" xmlns="http://www.w3.org/2000/svg" width="32" height="32"><path d="M0 0h1024v1024H0z" fill="#568af2" fill-opacity="0" /><path d="M294.098824 188.897882a26.352941 26.352941 0 0 1 23.913411-2.710588l3.312941 1.505882 193.264942 105.411765c7.408941 4.035765 12.348235 11.324235 13.492706 19.576471l0.240941 3.553882-0.030118 354.002824 149.323294 89.6 149.353412-89.6v-146.642824l-130.861177-87.250823-55.356235 41.532235a26.352941 26.352941 0 0 1-34.544941-2.56l-2.349176-2.710588a26.352941 26.352941 0 0 1 2.56-34.575059l2.710588-2.319059 70.26447-52.705882a26.352941 26.352941 0 0 1 27.256471-2.680471l3.192471 1.807059 158.117647 105.411765a26.352941 26.352941 0 0 1 11.535058 18.672941l0.180706 3.282823v175.676236c0 8.101647-3.704471 15.661176-9.938823 20.630588l-2.831059 1.957647L691.2 813.176471a26.352941 26.352941 0 0 1-23.883294 1.65647L664.094118 813.176471l-175.706353-105.411765a26.352941 26.352941 0 0 1-12.559059-19.154824l-0.210824-3.433411-0.030117-353.310118-165.526589-90.292706-133.12 88.756706v165.044706l130.861177 87.250823 55.356235-41.502117a26.352941 26.352941 0 0 1 34.575059 2.529882l2.319059 2.710588a26.352941 26.352941 0 0 1-2.529882 34.575059l-2.710589 2.349177-70.294588 52.705882a26.352941 26.352941 0 0 1-27.226353 2.650353l-3.19247-1.807059-158.117648-105.411765a26.352941 26.352941 0 0 1-11.535058-18.672941l-0.210824-3.252706V316.235294c0-7.710118 3.373176-14.968471 9.125647-19.937882l2.620235-1.987765 158.117648-105.411765z" fill="#568af2" /></svg>