<svg class="icon" style="width: 1em;height: 1em;vertical-align: middle;fill: currentColor;overflow: hidden;" viewBox="0 0 1024 1024" version="1.1" xmlns="http://www.w3.org/2000/svg" width="32" height="32"><path d="M516.246588 124.235294l5.481412 0.060235 21.714824 0.361412 5.391058 0.150588 5.360942 0.180706 21.172705 0.90353 5.240471 0.301176 5.210353 0.301177 20.570353 1.445647 20.118588 1.807059 14.757647 1.566117 14.456471 1.776941 18.853647 2.650353 9.216 1.445647 9.065412 1.505883 17.679058 3.312941c103.905882 20.811294 173.718588 58.910118 177.754353 109.387294l0.180706 4.608v491.911529c0 57.042824-82.853647 98.936471-204.679529 118.814118l-18.552471 2.831059-19.124706 2.499765-9.728 1.114353-19.877647 1.957647-20.359529 1.626353-20.781177 1.264941a1181.214118 1181.214118 0 0 1-10.541176 0.512l-21.383529 0.752941-10.812236 0.210823-21.895529 0.180706-21.89553-0.180706a1253.496471 1253.496471 0 0 1-10.812235-0.210823l-21.383529-0.752941a1181.214118 1181.214118 0 0 1-10.541177-0.512l-20.781176-1.264941-20.329412-1.626353-19.877647-1.957647a971.143529 971.143529 0 0 1-9.758118-1.114353l-19.094588-2.499765-18.552471-2.831059c-121.825882-19.877647-204.679529-61.741176-204.679529-118.814118V256l0.150588-4.367059c4.096-54.723765 85.594353-94.960941 204.047059-114.356706l9.667765-1.536 18.853647-2.650353 14.45647-1.807058 14.787765-1.536 20.118588-1.807059 20.570353-1.445647 10.420706-0.602353 21.202824-0.90353 5.360941-0.180706 5.360941-0.150588 21.744941-0.361412 10.962824-0.060235h5.511529z m319.548236 202.842353c-35.478588 20.811294-87.009882 36.864-148.720942 47.194353l-12.498823 1.987765-18.82353 2.650353-14.486588 1.807058-14.757647 1.536-20.118588 1.807059-20.570353 1.445647-5.210353 0.301177-5.240471 0.301176-21.172705 0.90353-5.360942 0.180706-5.391058 0.150588-21.684706 0.361412-11.023059 0.060235h-5.481412l-5.481412-0.060235-21.744941-0.361412-5.360941-0.150588-5.360941-0.180706-21.202824-0.90353-10.420706-0.602353-20.570353-1.445647-20.118588-1.807059-14.757647-1.566117-14.486588-1.776941-18.853647-2.650353c-67.252706-10.24-123.331765-26.985412-161.189647-49.182118v349.786353c23.913412-14.064941 55.115294-25.901176 91.858823-35.328l16.353883-3.945412c8.372706-1.897412 16.956235-3.674353 25.810823-5.330823l17.980235-3.162353 18.552471-2.800941c6.264471-0.903529 12.649412-1.716706 19.094588-2.499765l19.636706-2.138353 9.999059-0.933647 20.329412-1.626353 10.36047-0.692706 20.992-1.084235 10.63153-0.421647 21.534117-0.572236c7.258353-0.120471 14.546824-0.180706 21.89553-0.180705l10.992941 0.060235c3.644235 0 7.288471 0.060235 10.902588 0.12047l21.564236 0.572236 10.631529 0.421647 20.992 1.084235 10.330353 0.692706 20.359529 1.626353c6.686118 0.602353 13.312 1.234824 19.877647 1.957647l19.365647 2.319059 9.487059 1.295059 18.552471 2.800941 17.980235 3.162353c8.824471 1.656471 17.438118 3.433412 25.780706 5.330823l16.384 3.945412c36.743529 9.426824 67.945412 21.293176 91.858824 35.328V327.077647z" fill="#568af2" /></svg>