<svg class="icon" style="width: 1em;height: 1em;vertical-align: middle;fill: currentColor;overflow: hidden;" viewBox="0 0 1024 1024" version="1.1" xmlns="http://www.w3.org/2000/svg" width="32" height="32"><path d="M848.323765 124.235294c32.406588 0 58.970353 25.088 61.319529 56.922353l0.150588 4.577882v632.470589a61.500235 61.500235 0 0 1-56.892235 61.319529l-4.577882 0.150588h-632.470589A61.500235 61.500235 0 0 1 154.503529 822.814118l-0.180705-4.577883v-632.470588c0-32.436706 25.088-58.970353 56.922352-61.319529l4.577883-0.180706h632.470588z m-316.235294 228.382118a149.383529 149.383529 0 0 0-147.034353 122.970353H180.705882l-3.312941 0.210823a26.352941 26.352941 0 0 0 0 52.314353l3.312941 0.210824h204.348236a149.383529 149.383529 0 0 0 294.038588 0h204.348235l3.312941-0.210824a26.352941 26.352941 0 0 0 22.859294-22.859294l0.180706-3.312941-0.180706-3.312941a26.352941 26.352941 0 0 0-22.859294-22.829177l-3.312941-0.180706-204.348235-0.030117a149.383529 149.383529 0 0 0-147.004235-122.970353z m0 52.705882a96.617412 96.617412 0 1 1 0 193.264941 96.617412 96.617412 0 0 1 0-193.264941z" fill="#568af2" /></svg>