<svg class="icon" style="width: 1em;height: 1em;vertical-align: middle;fill: currentColor;overflow: hidden;" viewBox="0 0 1024 1024" version="1.1" xmlns="http://www.w3.org/2000/svg" width="32" height="32"><path d="M0 0h1024v1024H0z" fill="#568af2" fill-opacity="0" /><path d="M709.571765 335.058824c89.509647 0 170.104471 67.553882 170.10447 166.912 0 99.328-80.594824 166.881882-170.074353 166.881882-70.113882 0-119.657412-27.286588-174.531764-86.859294l-19.576471-22.196706-21.594353-26.081882-40.237176-49.03153-9.637647-11.444706-7.68-8.673882c-48.609882-54.663529-86.497882-76.8-142.004706-76.8-62.253176 0-117.398588 46.230588-117.398589 114.206118 0 67.975529 55.145412 114.176 117.398589 114.176 44.634353 0 65.897412-12.468706 109.327059-54.934589a26.352941 26.352941 0 1 1 36.864 37.647059c-52.404706 51.260235-84.329412 69.993412-146.191059 69.993412-89.509647 0-170.104471-67.553882-170.104471-166.881882 0-99.358118 80.594824-166.912 170.104471-166.912 70.113882 0 119.627294 27.316706 174.501647 86.859294l18.010353 20.329411 70.354823 85.232942 10.360471 11.866353c48.609882 54.663529 86.497882 76.8 142.034823 76.8 62.223059 0 117.368471-46.200471 117.368471-114.176 0-67.975529-55.115294-114.206118-117.368471-114.206118-41.231059 0-74.029176 20.419765-109.357176 54.964706a26.352941 26.352941 0 1 1-36.864-37.677177c17.227294-16.865882 30.870588-28.461176 50.447059-40.658823 29.816471-18.552471 61.741176-29.334588 95.774117-29.334588z" fill="#568af2" /></svg>