<svg class="icon" style="width: 1em;height: 1em;vertical-align: middle;fill: currentColor;overflow: hidden;" viewBox="0 0 1024 1024" version="1.1" xmlns="http://www.w3.org/2000/svg" width="32" height="32"><path d="M509.199059 197.752471a26.352941 26.352941 0 0 1 45.778823 0l351.352471 614.912a26.352941 26.352941 0 0 1-22.889412 39.424H532.088471a26.112 26.112 0 0 0 22.889411-13.281883l175.676236-307.471059a26.352941 26.352941 0 0 0-22.889412-39.424H356.382118a26.352941 26.352941 0 0 0-22.889412 39.454118l175.706353 307.440941c5.059765 8.854588 13.974588 13.251765 22.889412 13.251765H180.705882a26.352941 26.352941 0 0 1-22.889411-39.393882z" fill="#568af2" /></svg>