<svg class="icon" style="width: 1em;height: 1em;vertical-align: middle;fill: currentColor;overflow: hidden;" viewBox="0 0 1024 1024" version="1.1" xmlns="http://www.w3.org/2000/svg" width="32" height="32"><path d="M124.235294 326.957176c0.240941 9.396706 5.541647 18.371765 14.576941 22.889412l336.77553 168.387765v335.088941l0.210823 3.312941c1.144471 9.125647 6.957176 16.805647 14.968471 20.570353l-0.602353-0.301176L138.842353 701.229176a26.352941 26.352941 0 0 1-14.576941-23.582117z m755.440941-1.65647V677.647059a26.352941 26.352941 0 0 1-14.546823 23.582117l-350.659765 175.284706a26.352941 26.352941 0 0 0 13.854118-23.190588l-0.030118-335.088941 336.835765-168.387765 2.861176-1.65647a26.383059 26.383059 0 0 0 11.685647-22.889412zM490.164706 127.006118a26.352941 26.352941 0 0 1 23.582118 0l351.382588 175.706353a26.503529 26.503529 0 0 1-23.582118 0l-339.606588 169.773176-116.766118-58.398118 304.248471-152.094117 2.861176-1.656471a26.352941 26.352941 0 0 0-26.413176-45.477647l-339.606588 169.773177-163.900236-81.92-3.011764-1.295059a26.352941 26.352941 0 0 0-21.172706 1.596235l0.602353-0.301176z" fill="#568af2" /></svg>