<svg class="icon" style="width: 1em;height: 1em;vertical-align: middle;fill: currentColor;overflow: hidden;" viewBox="0 0 1024 1024" version="1.1" xmlns="http://www.w3.org/2000/svg" width="32" height="32"><path d="M532.088471 124.235294c208.594824 0 377.705412 169.110588 377.705411 377.73553 0 208.594824-169.110588 377.705412-377.705411 377.705411-208.624941 0-377.735529-169.110588-377.73553-377.705411 0-208.624941 169.110588-377.735529 377.73553-377.73553z m-58.066824 224.858353a26.352941 26.352941 0 0 0-43.821176 29.093647l56.199529 97.400471h-112.429176l-3.312942 0.210823a26.352941 26.352941 0 0 0 3.312942 52.525177l112.429176-0.030118-56.199529 97.430588-1.505883 2.95153a26.352941 26.352941 0 0 0 47.134118 23.401411l56.229647-97.430588 56.259765 97.430588 1.807058 2.740706a26.352941 26.352941 0 0 0 43.821177-29.093647l-56.229647-97.430588h112.489412l3.312941-0.180706a26.352941 26.352941 0 0 0-3.312941-52.495059l-112.489412-0.030117 56.229647-97.400471 1.505882-2.951529a26.352941 26.352941 0 0 0-47.134117-23.401412l-56.259765 97.400471-56.229647-97.400471z" fill="#568af2" /></svg>