<svg class="icon" style="width: 1em;height: 1em;vertical-align: middle;fill: currentColor;overflow: hidden;" viewBox="0 0 1024 1024" version="1.1" xmlns="http://www.w3.org/2000/svg" width="32" height="32"><path d="M465.227294 142.245647a61.500235 61.500235 0 0 1 86.979765 0l322.981647 322.981647c24.033882 24.033882 24.033882 62.945882 0 86.979765L552.207059 875.188706a61.500235 61.500235 0 0 1-86.979765 0L142.245647 552.207059a61.500235 61.500235 0 0 1 0-86.979765z m-48.790588 240.338824a26.352941 26.352941 0 0 0-34.575059 39.634823l86.558118 86.558118-86.708706 86.437647-2.349177 2.710588a26.352941 26.352941 0 0 0 39.544471 34.635294l86.799059-86.497882 86.64847 86.64847 2.710589 2.349177a26.352941 26.352941 0 0 0 34.544941-39.634824l-86.588236-86.588235 86.738824-86.437647 2.349176-2.710588a26.352941 26.352941 0 0 0-39.574588-34.605177l-86.799059 86.467765-86.618353-86.618353z" fill="#568af2" /></svg>