<svg class="icon" style="width: 1em;height: 1em;vertical-align: middle;fill: currentColor;overflow: hidden;" viewBox="0 0 1024 1024" version="1.1" xmlns="http://www.w3.org/2000/svg" width="32" height="32"><path d="M532.088471 124.235294c100.201412 0 194.258824 39.213176 264.402823 107.971765a379.512471 379.512471 0 0 1 51.07953 61.982117 26.352941 26.352941 0 1 1-43.971765 29.033412A326.806588 326.806588 0 0 0 759.567059 269.854118a323.824941 323.824941 0 0 0-227.508706-92.912942c-179.501176 0-325.029647 145.528471-325.029647 325.029648s145.528471 324.999529 325.029647 324.999529c86.256941 0 167.152941-33.731765 227.508706-92.882824a326.836706 326.836706 0 0 0 43.971765-53.398588 26.352941 26.352941 0 0 1 44.001882 29.033412c-14.757647 22.407529-31.924706 43.188706-51.07953 61.982118a376.530824 376.530824 0 0 1-264.432941 107.971764c-208.594824 0-377.705412-169.110588-377.705411-377.705411 0-208.624941 169.110588-377.735529 377.735529-377.73553z m18.612705 253.680941c9.456941 9.426824 10.24 24.244706 2.379295 34.575059l-2.379295 2.710588-60.446117 60.385883h194.800941a96.677647 96.677647 0 0 1 87.491765-70.113883l5.481411-0.150588a96.617412 96.617412 0 1 1-92.973176 123.000471l-194.770824-0.030118 60.416 60.446118c9.456941 9.426824 10.24 24.244706 2.379295 34.575059l-2.379295 2.710588a26.352941 26.352941 0 0 1-34.544941 2.349176l-2.710588-2.379294-105.411765-105.411765-0.63247-0.662588a26.503529 26.503529 0 0 1-1.114353-1.234823l1.746823 1.897411a26.563765 26.563765 0 0 1-7.710117-18.612705 26.292706 26.292706 0 0 1 5.360941-15.962353l0.602353-0.752942a26.503529 26.503529 0 0 1 1.14447-1.295058l0.602353-0.632471 105.411765-105.411765a26.352941 26.352941 0 0 1 37.255529 0z" fill="#568af2" /></svg>