<svg class="icon" style="width: 1em;height: 1em;vertical-align: middle;fill: currentColor;overflow: hidden;" viewBox="0 0 1024 1024" version="1.1" xmlns="http://www.w3.org/2000/svg" width="32" height="32"><path d="M501.940706 127.759059a26.352941 26.352941 0 0 1 26.352941 0l304.308706 175.706353c8.131765 4.698353 13.161412 13.402353 13.161412 22.799059V677.647059a26.352941 26.352941 0 0 1-13.161412 22.829176L528.263529 876.122353a26.352941 26.352941 0 0 1-26.352941 0L197.632 700.476235a26.352941 26.352941 0 0 1-13.161412-22.829176V326.264471c0-9.396706 5.029647-18.100706 13.161412-22.799059z m85.443765 560.880941a26.352941 26.352941 0 0 0-35.990589-9.637647l-36.291764 20.901647-36.261647-20.931765-2.95153-1.475764a26.352941 26.352941 0 0 0-23.401412 47.134117l49.453177 28.55153 3.132235 1.536a26.352941 26.352941 0 0 0 23.220706-1.536l49.453177-28.55153 2.770823-1.807059a26.352941 26.352941 0 0 0 6.866824-34.183529zM492.001882 260.909176l-182.573176 333.824c-12.8 23.371294 13.221647 48.790588 36.291765 35.448471l182.573176-105.411765a26.352941 26.352941 0 0 0 13.191529-22.799058V273.558588c0-27.286588-36.382118-36.562824-49.483294-12.649412z m181.669647 73.999059a26.352941 26.352941 0 0 0-33.039058 11.14353l-1.475765 2.951529a26.352941 26.352941 0 0 0 11.143529 33.039059l36.23153 20.901647v41.923765l0.240941 3.312941a26.352941 26.352941 0 0 0 52.495059-3.312941v-57.103059l-0.240941-3.493647a26.352941 26.352941 0 0 0-12.950589-19.33553l-49.423059-28.551529z m-284.069647 11.14353a26.352941 26.352941 0 0 0-35.990588-9.637647l-49.453176 28.521411-2.921412 1.957647a26.352941 26.352941 0 0 0-10.24 20.87153v57.103059l0.180706 3.312941a26.352941 26.352941 0 0 0 26.142117 23.04l3.312942-0.210824a26.352941 26.352941 0 0 0 23.04-26.142117v-41.923765l36.291764-20.901647 2.740706-1.807059a26.352941 26.352941 0 0 0 6.896941-34.183529z" fill="#568af2" /></svg>