<svg class="icon" style="width: 1em;height: 1em;vertical-align: middle;fill: currentColor;overflow: hidden;" viewBox="0 0 1024 1024" version="1.1" xmlns="http://www.w3.org/2000/svg" width="32" height="32"><path d="M488.387765 128a26.352941 26.352941 0 0 1 27.105882 0l175.706353 105.411765a26.352941 26.352941 0 0 1 12.8 22.588235v195.885176l162.906353 97.761883c6.927059 4.156235 11.504941 11.233882 12.559059 19.154823l0.210823 3.433412v210.82353a26.352941 26.352941 0 0 1-12.769882 22.588235l-175.706353 105.411765a26.352941 26.352941 0 0 1-27.105882 0l-162.153412-97.28 13.552941-8.131765a26.352941 26.352941 0 0 0 12.830118-22.588235l-0.030118-195.915295 162.936471-97.731764a26.352941 26.352941 0 0 0 12.769882-22.588236v-14.938353l-12.8-7.649882a26.352941 26.352941 0 0 0-27.105882 0l-162.153412 97.249882 13.552941 8.131765c6.957176 4.216471 11.565176 11.264 12.589177 19.184941l0.240941 3.433412-0.030118 14.908235-12.769882 7.68a26.352941 26.352941 0 0 1-23.913412 1.656471l-3.222588-1.656471-12.8-7.68V572.235294c0-8.101647 3.734588-15.661176 9.999059-20.630588l2.800941-1.957647 13.552941-8.161883-162.093177-97.28a26.352941 26.352941 0 0 0-27.105882 0l-12.830118 7.68v14.938353c0 9.246118 4.879059 17.829647 12.8 22.588236l162.876236 97.731764V783.058824c0 9.246118 4.879059 17.829647 12.8 22.588235l13.552941 8.131765-162.093177 97.28a26.352941 26.352941 0 0 1-23.913411 1.65647l-3.222589-1.65647-175.676235-105.411765a26.352941 26.352941 0 0 1-12.8-22.588235v-210.82353c0-9.246118 4.848941-17.829647 12.8-22.588235l162.876235-97.761883V256c0-8.101647 3.734588-15.661176 9.968942-20.630588l2.831058-1.957647z" fill="#568af2" /></svg>