<svg class="icon" style="width: 1em;height: 1em;vertical-align: middle;fill: currentColor;overflow: hidden;" viewBox="0 0 1024 1024" version="1.1" xmlns="http://www.w3.org/2000/svg" width="32" height="32"><path d="M501.970824 124.235294a96.617412 96.617412 0 0 1 26.352941 189.620706l-0.030118 161.731765h161.761882a96.677647 96.677647 0 0 1 189.620706 26.383059 96.617412 96.617412 0 0 1-189.620706 26.352941l-161.761882-0.030118v161.761882a96.677647 96.677647 0 0 1 70.144 87.521883l0.150588 5.481412a96.617412 96.617412 0 1 1-122.970353-93.003295l-0.030117-161.761882h-161.731765a96.677647 96.677647 0 0 1-189.620706-26.322823 96.617412 96.617412 0 0 1 189.620706-26.352942l161.731765-0.030117v-161.731765a96.677647 96.677647 0 0 1 26.383059-189.620706zM246.302118 672.798118c-17.709176-26.473412 18.010353-55.808 40.538353-33.28l77.583058 77.552941c22.528 22.528-6.836706 58.277647-33.310117 40.538353a308.705882 308.705882 0 0 1-84.811294-84.811294z m470.768941-33.28c22.528-22.528 58.277647 6.806588 40.538353 33.28a308.826353 308.826353 0 0 1-84.811294 84.811294c-26.473412 17.739294-55.808-18.010353-33.28-40.538353zM331.113412 246.302118c26.503529-17.709176 55.838118 18.010353 33.310117 40.538353L286.840471 364.423529c-22.528 22.528-58.247529-6.836706-40.538353-33.310117a308.705882 308.705882 0 0 1 84.811294-84.811294z m308.404706 40.538353c-22.528-22.528 6.806588-58.247529 33.28-40.538353a308.826353 308.826353 0 0 1 84.811294 84.811294c17.739294 26.503529-18.010353 55.838118-40.538353 33.310117z" fill="#568af2" /></svg>