<svg class="icon" style="width: 1em;height: 1em;vertical-align: middle;fill: currentColor;overflow: hidden;" viewBox="0 0 1024 1024" version="1.1" xmlns="http://www.w3.org/2000/svg" width="32" height="32"><path d="M527.058824 686.441412a96.617412 96.617412 0 1 1 0 193.234823 96.617412 96.617412 0 0 1 0-193.234823z m0-562.206118a96.617412 96.617412 0 0 1 26.352941 189.620706v188.114824a26.352941 26.352941 0 0 1-10.270118 20.871529l-2.921412 1.927529-165.104941 95.322353a96.617412 96.617412 0 1 1-37.285647-55.808l148.600471-255.698823A96.647529 96.647529 0 0 1 527.058824 124.205176zM281.088 264.794353a96.617412 96.617412 0 1 1 0 193.234823 96.617412 96.617412 0 0 1 0-193.234823z m491.941647 281.088a96.617412 96.617412 0 1 0 0 193.264941 96.617412 96.617412 0 0 0 0-193.264941z m0-281.088a96.617412 96.617412 0 1 0 0 193.234823 96.617412 96.617412 0 0 0 0-193.234823z" fill="#568af2" /></svg>