<svg class="icon" style="width: 1em;height: 1em;vertical-align: middle;fill: currentColor;overflow: hidden;" viewBox="0 0 1024 1024" version="1.1" xmlns="http://www.w3.org/2000/svg" width="32" height="32"><path d="M501.970824 124.235294a114.236235 114.236235 0 0 1 111.134117 87.823059H783.058824c13.432471 0 24.515765 10.059294 26.142117 23.070118l0.210824 3.312941v149.323294h43.911529c13.432471 0 24.545882 10.059294 26.172235 23.04l0.180706 3.312941v175.676235a26.352941 26.352941 0 0 1-23.04 26.172236l-3.312941 0.180706h-61.500235v149.353411a26.352941 26.352941 0 0 1-23.04 26.142118l-3.312941 0.210823h-152.395294a114.236235 114.236235 0 0 1-222.268236 0h-152.395294a26.352941 26.352941 0 0 1-26.142118-23.070117l-0.180705-3.312941-0.030118-149.323294H150.588235a26.352941 26.352941 0 0 1-26.142117-23.04l-0.210824-3.312942V414.117647c0-13.432471 10.059294-24.515765 23.04-26.142118l3.312941-0.210823h61.470118V238.441412c0-13.432471 10.059294-24.545882 23.070118-26.172236l3.312941-0.180705 152.395294-0.030118a114.236235 114.236235 0 0 1 111.134118-87.823059z m254.735058 140.528941h-143.600941a114.236235 114.236235 0 0 1-222.268235 0H264.734118v123.000471h61.500235c13.432471 0 24.545882 10.059294 26.172235 23.04l0.180706 3.312941v175.676235a26.352941 26.352941 0 0 1-23.04 26.172236l-3.312941 0.180706H264.764235v122.970352h126.072471a114.236235 114.236235 0 0 1 222.268235 0h126.012235v-122.970352H677.647059a26.352941 26.352941 0 0 1-26.142118-23.04l-0.210823-3.312942V414.117647c0-13.432471 10.059294-24.515765 23.04-26.142118l3.312941-0.210823h79.058823V264.764235z" fill="#568af2" /></svg>