<svg class="icon" style="width: 1em;height: 1em;vertical-align: middle;fill: currentColor;overflow: hidden;" viewBox="0 0 1024 1024" version="1.1" xmlns="http://www.w3.org/2000/svg" width="32" height="32"><path d="M869.647059 766.283294v-0.783059c0 68.848941-111.947294 116.193882-262.475294 128.572236l-9.878589 0.752941-19.636705 1.204706-19.998118 0.783058c-10.059294 0.301176-20.269176 0.451765-30.599529 0.451765l-15.390118-0.12047-15.209412-0.331295-19.998118-0.813176-19.636705-1.204706c-152.184471-10.812235-267.354353-56.922353-272.203295-124.837647l-0.150588-4.457412c0-18.401882 7.981176-35.237647 22.588236-50.326588L503.597176 138.541176a26.352941 26.352941 0 0 1 44.965648-3.162352l1.897411 3.162352 296.598589 576.632471c14.576941 15.058824 22.558118 31.924706 22.558117 50.296471v0.813176z m-69.571765-27.166118H254.012235l-19.757176 38.430118a26.352941 26.352941 0 0 1-23.04 14.305882h631.687529a26.383059 26.383059 0 0 1-21.353412-11.444705l-1.686588-2.861177-19.787294-38.430118zM527.058824 208.233412L291.026824 667.166118c3.433412-1.204706 6.927059-2.409412 10.541176-3.523765l8.071529-2.499765 15.119059-4.246588c11.595294-3.072 23.762824-5.842824 36.382118-8.342588l12.8-2.379294 17.558588-2.861177c9.908706-1.505882 20.058353-2.831059 30.418824-3.975529l15.661176-1.596236 19.245177-1.566117a1008.037647 1008.037647 0 0 1 123.331764-1.054118l17.167059 1.054118 19.215059 1.566117c10.541176 0.963765 20.901647 2.108235 31.021176 3.46353l15.058824 2.108235 17.558588 2.861177c12.950588 2.288941 25.449412 4.879059 37.406118 7.740235l11.776 2.981647 15.119059 4.246588c6.415059 1.927529 12.649412 3.915294 18.672941 6.02353L527.058824 208.233412z" fill="#568af2" /></svg>