<svg class="icon" style="width: 1em;height: 1em;vertical-align: middle;fill: currentColor;overflow: hidden;" viewBox="0 0 1024 1024" version="1.1" xmlns="http://www.w3.org/2000/svg" width="32" height="32"><path d="M501.970824 124.235294C293.345882 124.235294 124.235294 293.345882 124.235294 501.970824c0 208.594824 169.110588 377.705412 377.73553 377.705411 208.594824 0 377.705412-169.110588 377.705411-377.705411 0-208.624941-169.110588-377.735529-377.705411-377.73553z m0 52.705882c179.501176 0 324.999529 145.528471 324.999529 325.029648s-145.498353 324.999529-324.999529 324.999529S176.941176 681.472 176.941176 501.970824 322.469647 176.941176 501.970824 176.941176z" fill="#568af2" /><path d="M501.970824 405.323294a96.617412 96.617412 0 1 0 0 193.264941 96.617412 96.617412 0 0 0 0-193.264941z m0 52.705882a43.911529 43.911529 0 1 1 0 87.853177 43.911529 43.911529 0 0 1 0-87.853177zM853.323294 475.617882h-140.528941a26.352941 26.352941 0 0 0-26.352941 26.352942 184.470588 184.470588 0 0 1-85.654588 155.738352 26.352941 26.352941 0 0 0-8.131765 36.382118l75.324235 118.66353c7.800471 12.288 24.094118 15.932235 36.382118 8.131764a377.705412 377.705412 0 0 0 175.314823-318.945882 26.352941 26.352941 0 0 0-26.352941-26.322824z m-27.467294 52.675765l-0.783059 8.704a324.999529 324.999529 0 0 1-38.309647 121.554824l-5.421176 9.487058a324.999529 324.999529 0 0 1-78.516706 89.449412l-5.059765 3.824941-47.284706-74.511058 2.710588-2.108236a237.176471 237.176471 0 0 0 56.621177-68.487529l4.608-8.824471c11.806118-23.792941 19.516235-49.392941 22.829176-75.625412l0.361412-3.463529h88.244706zM290.936471 477.364706l-140.559059 1.14447a26.352941 26.352941 0 0 0-26.142118 26.563765 377.735529 377.735529 0 0 0 177.995294 317.470118c12.348235 7.710118 28.581647 3.915294 36.261647-8.432941l74.330353-119.265883a26.352941 26.352941 0 0 0-8.432941-36.321882 184.470588 184.470588 0 0 1-86.889412-155.045647 26.352941 26.352941 0 0 0-26.563764-26.142118z m-24.425412 52.886588l0.391529 3.433412c4.005647 29.515294 13.522824 58.127059 28.16 84.239059l5.059765 8.613647a237.176471 237.176471 0 0 0 52.103529 59.392l2.740706 2.108235-46.682353 74.902588-5.089882-3.824941a324.999529 324.999529 0 0 1-84.751059-98.213647l-5.541647-10.330353a325.029647 325.029647 0 0 1-33.761882-110.923294l-0.873412-8.673882 88.244706-0.722824zM503.627294 124.235294a377.735529 377.735529 0 0 0-182.181647 45.929412 26.352941 26.352941 0 0 0-10.541176 35.749647l67.162353 123.452235a26.352941 26.352941 0 0 0 35.749647 10.541177 184.470588 184.470588 0 0 1 177.724235 0.783059 26.352941 26.352941 0 0 0 35.84-10.24l68.246588-122.88a26.352941 26.352941 0 0 0-10.24-35.809883 377.735529 377.735529 0 0 0-169.050353-47.254588l-12.709647-0.271059z m11.474824 52.976941c39.002353 1.566118 77.312 10.149647 113.152 25.298824l7.951058 3.493647-42.827294 77.131294-3.19247-1.325176a237.176471 237.176471 0 0 0-87.190588-17.016471l-9.938824 0.150588a237.176471 237.176471 0 0 0-77.402353 16.082824l-3.162353 1.325176-42.164706-77.522823 7.981177-3.433412a325.029647 325.029647 0 0 1 125.078588-24.45553l11.745882 0.271059z" fill="#568af2" /></svg>