<svg class="icon" style="width: 1em;height: 1em;vertical-align: middle;fill: currentColor;overflow: hidden;" viewBox="0 0 1024 1024" version="1.1" xmlns="http://www.w3.org/2000/svg" width="32" height="32"><path d="M819.410824 299.911529c20.299294 0 32.978824 21.985882 22.829176 39.544471l-93.816471 162.484706 93.816471 162.544941a26.352941 26.352941 0 0 1-19.516235 39.303529l-3.312941 0.210824h-187.663059l-93.816471 162.514824a26.352941 26.352941 0 0 1-43.550118 3.072l-2.108235-3.072-93.786353-162.514824h233.261177l116.675764-202.059294-116.675764-202.029177zM492.303059 137.396706a26.352941 26.352941 0 0 1 45.628235 0l93.816471 162.514823H398.456471l-116.675765 202.029177 116.675765 202.059294H210.823529a26.352941 26.352941 0 0 1-24.304941-36.562824l1.505883-2.981647 93.786353-162.514823-93.816471-162.484706a26.352941 26.352941 0 0 1 19.516235-39.333647L210.823529 299.911529h187.632942z" fill="#568af2" /></svg>