<svg class="icon" style="width: 1em;height: 1em;vertical-align: middle;fill: currentColor;overflow: hidden;" viewBox="0 0 1024 1024" version="1.1" xmlns="http://www.w3.org/2000/svg" width="32" height="32"><path d="M501.970824 124.235294c208.594824 0 377.705412 169.110588 377.705411 377.73553 0 208.594824-169.110588 377.705412-377.705411 377.705411-208.624941 0-377.735529-169.110588-377.73553-377.705411 0-208.624941 169.110588-377.735529 377.73553-377.73553z m0 210.82353a272.323765 272.323765 0 1 0 0 544.617411 272.323765 272.323765 0 0 0 0-544.617411z m0 210.823529a166.912 166.912 0 1 1 0 333.793882 166.912 166.912 0 0 1 0-333.793882z" fill="#568af2" /></svg>