<svg class="icon" style="width: 1em;height: 1em;vertical-align: middle;fill: currentColor;overflow: hidden;" viewBox="0 0 1024 1024" version="1.1" xmlns="http://www.w3.org/2000/svg" width="32" height="32"><path d="M645.511529 194.56l2.108236 3.072 228.201411 395.294118a26.352941 26.352941 0 0 1-19.516235 39.333647l-3.312941 0.210823H652.950588l99.870118 171.188706a26.352941 26.352941 0 0 1-19.456 39.454118l-3.312941 0.180706H273.558588a26.352941 26.352941 0 0 1-24.274823-36.623059l1.505882-2.95153 99.388235-171.248941H150.588235a26.383059 26.383059 0 0 1-25.389176-33.551059l1.084235-3.011764 1.505882-2.95153L355.990588 197.662118a26.352941 26.352941 0 0 1 43.580236-3.102118l2.048 3.102118 100.171294 173.477647 100.171294-173.477647a26.352941 26.352941 0 0 1 43.550117-3.102118z m-143.751529 281.961412l-59.602824 103.243294h119.235765l-59.632941-103.243294z" fill="#568af2" /></svg>