<svg class="icon" style="width: 1em;height: 1em;vertical-align: middle;fill: currentColor;overflow: hidden;" viewBox="0 0 1024 1024" version="1.1" xmlns="http://www.w3.org/2000/svg" width="32" height="32"><path d="M495.887059 583.710118a26.352941 26.352941 0 0 1 37.255529 0l122.970353 123.00047a26.352941 26.352941 0 0 1 0 37.25553l-122.970353 122.970353a26.352941 26.352941 0 0 1-37.255529 0l-123.000471-122.970353a26.352941 26.352941 0 0 1 0-37.25553z m245.36847-213.172706l2.710589 2.349176 122.970353 123.000471c9.456941 9.426824 10.24 24.214588 2.379294 34.544941l-2.379294 2.710588-122.970353 122.970353a26.352941 26.352941 0 0 1-34.575059 2.379294l-2.710588-2.379294-122.970353-122.970353a26.352941 26.352941 0 0 1-2.349177-34.575059l2.349177-2.710588 123.00047-122.970353a26.352941 26.352941 0 0 1 34.544941-2.349176z m-421.647058 0l2.710588 2.349176 122.970353 123.000471c9.456941 9.426824 10.24 24.214588 2.379294 34.544941l-2.379294 2.710588-122.970353 122.970353a26.352941 26.352941 0 0 1-34.575059 2.379294l-2.710588-2.379294-122.970353-122.970353a26.352941 26.352941 0 0 1-2.349177-34.575059l2.349177-2.710588 123.00047-122.970353a26.352941 26.352941 0 0 1 34.544942-2.349176z m210.823529-210.82353l2.710588 2.349177 122.970353 123.00047c9.456941 9.426824 10.24 24.214588 2.379294 34.544942l-2.379294 2.710588-122.970353 122.970353a26.352941 26.352941 0 0 1-34.575059 2.379294l-2.710588-2.379294-122.970353-122.970353a26.352941 26.352941 0 0 1-2.349176-34.575059l2.349176-2.710588 123.000471-122.970353a26.352941 26.352941 0 0 1 34.544941-2.349177z" fill="#568af2" /></svg>