<svg class="icon" style="width: 1em;height: 1em;vertical-align: middle;fill: currentColor;overflow: hidden;" viewBox="0 0 1024 1024" version="1.1" xmlns="http://www.w3.org/2000/svg" width="32" height="32"><path d="M291.147294 184.470588a131.764706 131.764706 0 1 0 0 263.529412 131.764706 131.764706 0 0 0 0-263.529412z m527.058824 421.647059h-175.706353a26.352941 26.352941 0 0 0-26.352941 26.352941v175.676236c0 14.576941 11.806118 26.352941 26.352941 26.352941h175.706353a26.352941 26.352941 0 0 0 26.352941-26.352941V632.470588a26.352941 26.352941 0 0 0-26.352941-26.352941z m35.117176-105.411765a26.352941 26.352941 0 0 1 3.312941 52.495059l-3.312941 0.210824H150.588235a26.352941 26.352941 0 0 1-3.312941-52.495059l3.312941-0.210824h702.735059z" fill="#568af2" /></svg>