<svg class="icon" style="width: 1em;height: 1em;vertical-align: middle;fill: currentColor;overflow: hidden;" viewBox="0 0 1024 1024" version="1.1" xmlns="http://www.w3.org/2000/svg" width="32" height="32"><path d="M501.970824 124.235294c208.594824 0 377.705412 169.110588 377.705411 377.73553 0 208.594824-169.110588 377.705412-377.705411 377.705411-208.624941 0-377.735529-169.110588-377.73553-377.705411 0-208.624941 169.110588-377.735529 377.73553-377.73553l-3.312942 0.210824a26.021647 26.021647 0 0 0-19.516235 12.950588l-304.308706 527.058823-1.475765 2.981647a26.352941 26.352941 0 0 0 24.304942 36.562824H806.249412l3.312941-0.210824a26.352941 26.352941 0 0 0 19.516235-39.303529l-304.278588-527.058823-2.108235-3.102118a25.991529 25.991529 0 0 0-17.408-9.878588z m-0.030118 79.028706l258.68047 448.030118H243.290353l258.650353-448.030118z" fill="#568af2" /></svg>