<svg class="icon" style="width: 1em;height: 1em;vertical-align: middle;fill: currentColor;overflow: hidden;" viewBox="0 0 1024 1024" version="1.1" xmlns="http://www.w3.org/2000/svg" width="32" height="32"><path d="M747.911529 593.558588H256a131.764706 131.764706 0 0 0 0 263.529412h491.911529a131.764706 131.764706 0 0 0 0-263.529412z m-35.117176-421.647059a166.912 166.912 0 1 0 0 333.824 166.912 166.912 0 0 0 0-333.824zM290.032941 162.063059l-158.117647 158.117647a26.352941 26.352941 0 0 0 0 37.285647l158.117647 158.117647a26.352941 26.352941 0 0 0 37.285647 0l158.117647-158.117647a26.352941 26.352941 0 0 0 0-37.285647l-158.117647-158.117647a26.352941 26.352941 0 0 0-37.285647 0z" fill="#568af2" /></svg>