<svg class="icon" style="width: 1em;height: 1em;vertical-align: middle;fill: currentColor;overflow: hidden;" viewBox="0 0 1024 1024" version="1.1" xmlns="http://www.w3.org/2000/svg" width="32" height="32"><path d="M0 0h1024v1024H0z" fill="#568af2" fill-opacity="0" /><path d="M451.764706 184.470588a26.352941 26.352941 0 1 1 0 52.705883 184.470588 184.470588 0 0 0 0 368.941176 26.352941 26.352941 0 1 1 0 52.705882 237.176471 237.176471 0 0 1 0-474.352941z" fill="#568af2" /><path d="M451.764706 325.029647a26.352941 26.352941 0 0 1 3.312941 52.495059l-3.312941 0.210823a43.911529 43.911529 0 0 0-4.216471 87.642353l4.216471 0.180706a26.352941 26.352941 0 0 1 0 52.705883 96.617412 96.617412 0 0 1 0-193.234824zM592.323765 535.853176a96.617412 96.617412 0 0 1 0 193.234824 26.352941 26.352941 0 0 1-3.312941-52.495059l3.312941-0.210823a43.911529 43.911529 0 0 0 4.21647-87.642353l-4.21647-0.180706a26.352941 26.352941 0 0 1 0-52.705883z" fill="#568af2" /><path d="M592.323765 395.294118a237.176471 237.176471 0 0 1 0 474.352941 26.352941 26.352941 0 1 1 0-52.705883 184.470588 184.470588 0 0 0 0-368.941176 26.352941 26.352941 0 1 1 0-52.705882z" fill="#568af2" /></svg>