<svg class="icon" style="width: 1em;height: 1em;vertical-align: middle;fill: currentColor;overflow: hidden;" viewBox="0 0 1024 1024" version="1.1" xmlns="http://www.w3.org/2000/svg" width="32" height="32"><path d="M426.676706 563.440941H180.705882a26.352941 26.352941 0 0 0-26.352941 26.352941v245.970824c0 14.546824 11.806118 26.352941 26.352941 26.352941h245.970824a26.352941 26.352941 0 0 0 26.352941-26.352941v-245.970824a26.352941 26.352941 0 0 0-26.352941-26.352941z m47.555765-426.224941l-175.706353 298.676706a26.352941 26.352941 0 0 0 22.738823 39.725176h351.352471a26.352941 26.352941 0 0 0 22.738823-39.725176l-175.706353-298.676706a26.352941 26.352941 0 0 0-45.417411 0zM707.764706 545.882353a166.912 166.912 0 1 0 0 333.793882 166.912 166.912 0 0 0 0-333.793882z" fill="#568af2" /></svg>