<svg class="icon" style="width: 1em;height: 1em;vertical-align: middle;fill: currentColor;overflow: hidden;" viewBox="0 0 1024 1024" version="1.1" xmlns="http://www.w3.org/2000/svg" width="32" height="32"><path d="M501.970824 124.235294c208.594824 0 377.705412 169.110588 377.705411 377.73553 0 208.594824-169.110588 377.705412-377.705411 377.705411-208.624941 0-377.735529-169.110588-377.73553-377.705411 0-208.624941 169.110588-377.735529 377.73553-377.73553z m-142.516706 422.550588c-9.035294-28.792471-51.501176-22.287059-51.501177 7.890824v105.411765l0.210824 3.312941a26.352941 26.352941 0 0 0 26.172235 23.04l3.312941-0.210824a26.352941 26.352941 0 0 0 23.009883-26.142117v-13.733647l4.276705 4.096a202.089412 202.089412 0 0 0 329.788236-87.883295 26.352941 26.352941 0 0 0-50.266353-15.811764 149.383529 149.383529 0 0 1-285.003294 0z m142.516706-246.874353a202.089412 202.089412 0 0 0-192.783059 141.432471 26.352941 26.352941 0 1 0 50.29647 15.811765 149.383529 149.383529 0 0 1 284.973177 0c9.035294 28.762353 51.501176 22.287059 51.501176-7.890824v-105.411765l-0.210823-3.312941a26.352941 26.352941 0 0 0-26.142118-23.04l-3.312941 0.180706a26.352941 26.352941 0 0 0-23.04 26.172235v13.70353l-4.246588-4.096a201.818353 201.818353 0 0 0-137.035294-53.549177z" fill="#568af2" /></svg>