<svg class="icon" style="width: 1em;height: 1em;vertical-align: middle;fill: currentColor;overflow: hidden;" viewBox="0 0 1024 1024" version="1.1" xmlns="http://www.w3.org/2000/svg" width="32" height="32"><path d="M838.957176 616.508235a26.352941 26.352941 0 0 1 30.689883 25.99153v123.00047c0 12.860235-9.336471 23.853176-22.016 25.99153l-632.470588 105.411764a26.352941 26.352941 0 0 1-30.689883-25.991529v-123.000471c0-12.860235 9.336471-23.853176 22.016-25.991529z m30.509177-223.171764l0.180706 3.222588v122.970353c0 11.806118-7.830588 22.046118-18.913883 25.298823l-3.102117 0.692706-632.470588 105.411765a26.352941 26.352941 0 0 1-30.509177-22.799059l-0.180706-3.192471v-122.970352c0-11.806118 7.830588-22.046118 18.913883-25.298824l3.102117-0.692706 632.470588-105.411765a26.352941 26.352941 0 0 1 30.509177 22.768942z m0-245.940706l0.180706 3.19247v122.970353c0 11.806118-7.830588 22.046118-18.913883 25.298824l-3.102117 0.692706-632.470588 105.411764a26.352941 26.352941 0 0 1-30.509177-22.768941l-0.180706-3.222588V256c0-11.806118 7.830588-22.046118 18.913883-25.298824l3.102117-0.692705 632.470588-105.411765a26.352941 26.352941 0 0 1 30.509177 22.799059z" fill="#568af2" /></svg>