<svg class="icon" style="width: 1em;height: 1em;vertical-align: middle;fill: currentColor;overflow: hidden;" viewBox="0 0 1024 1024" version="1.1" xmlns="http://www.w3.org/2000/svg" width="32" height="32"><path d="M501.970824 124.235294c47.043765 0 83.787294 56.410353 106.375529 144.564706l0.873412 3.493647a438.814118 438.814118 0 0 0-14.396236 57.434353l-2.740705 15.751529-2.409412 16.384a770.409412 770.409412 0 0 0-1.144471 8.432942l-1.987765 17.317647-1.65647 17.859764-1.385412 18.371765-1.084235 18.883765-0.421647 9.637647-0.602353 19.516235c-0.180706 6.595765-0.301176 13.251765-0.331294 19.968l-0.030118 10.11953c0 6.776471 0.030118 13.492706 0.150588 20.118588l0.451765 19.757176c0.210824 6.535529 0.481882 12.950588 0.783059 19.33553l1.084235 18.883764 1.385412 18.371765 1.65647 17.889882 1.987765 17.28753 2.288941 16.715294 1.264942 8.131765 2.710588 15.721411c3.975529 21.232941 8.794353 40.508235 14.426353 57.434353l-0.873412 3.523765c-22.588235 88.154353-59.331765 144.564706-106.375529 144.564706-47.706353 0-84.781176-57.916235-107.279059-148.088471 0.873412-2.590118 1.716706-5.210353 2.529882-7.920941l3.764706-13.191529 3.463529-13.974588c3.885176-16.745412 7.168-34.996706 9.818353-54.482824l2.138353-17.016471 1.837177-17.558588 1.536-18.130823 1.204706-18.672942c0.210824-3.132235 0.361412-6.294588 0.512-9.487058l0.783058-19.33553 0.301177-9.818353 0.301176-19.937882v-20.239059l-0.301176-19.968a1211.331765 1211.331765 0 0 0-0.301177-9.818353l-0.783058-19.335529-1.054118-18.883765a1018.066824 1018.066824 0 0 0-0.662588-9.246118l-1.505883-18.130823-1.867294-17.588706-2.108235-17.016471a608.015059 608.015059 0 0 0-9.848471-54.452705l-3.463529-13.974589-3.764706-13.221647c-0.813176-2.710588-1.656471-5.330824-2.529882-7.920941 22.497882-90.142118 59.572706-148.058353 107.279059-148.058353zM677.647059 194.499765c39.484235 0 67.463529 53.037176 82.823529 135.228235l2.740706 15.751529 1.264941 8.131765 1.746824 12.830118c-28.943059 25.840941-44.664471 85.112471-44.664471 153.088 0 64.240941 14.034824 120.681412 39.996236 148.510117l-1.084236 6.144c-15.36 82.221176-43.339294 135.228235-82.823529 135.228236-29.304471 0-52.254118-29.184-68.427294-77.793883l3.072-12.830117c1.897412-8.372706 3.674353-16.956235 5.330823-25.810824l3.162353-17.980235 2.800941-18.552471c0.451765-3.132235 0.903529-6.324706 1.295059-9.487059l2.319059-19.365647c0.722824-6.535529 1.385412-13.161412 1.957647-19.877647l1.626353-20.329411 0.692706-10.360471 1.084235-20.992 0.421647-10.631529 0.572236-21.534118 0.12047-10.932706 0.060235-10.962823c0-7.348706-0.060235-14.667294-0.180705-21.89553l-0.572236-21.564235-0.421647-10.63153-1.084235-20.992-0.692706-10.330353-1.626353-20.359529-0.903529-9.999059-2.168471-19.606588a920.696471 920.696471 0 0 0-2.499765-19.124706l-2.800941-18.55247-3.162353-17.980236c-1.656471-8.824471-3.433412-17.438118-5.330823-25.780706l-3.072-12.860235c16.173176-48.609882 39.152941-77.793882 68.427294-77.793882z m-351.382588 0c29.304471 0 52.254118 29.184 68.427294 77.793882a695.416471 695.416471 0 0 0-11.535059 56.621177l-2.831059 18.55247-2.499765 19.124706-1.114353 9.728-1.957647 19.877647-1.626353 20.359529-1.264941 20.781177a1181.214118 1181.214118 0 0 0-0.512 10.541176l-0.752941 21.38353-0.210823 10.812235-0.180706 21.89553 0.180706 21.895529 0.210823 10.812235 0.752941 21.38353c0.150588 3.523765 0.301176 7.017412 0.512 10.541176l1.264941 20.781177 1.626353 20.329411 1.957647 19.877647 1.114353 9.758118 2.499765 19.094588 2.831059 18.552471c3.252706 19.998118 7.107765 38.942118 11.535059 56.621176-16.173176 48.609882-39.122824 77.793882-68.427294 77.793883-40.448 0-68.848941-55.687529-83.937883-141.342118 25.991529-27.828706 40.026353-84.269176 40.026353-148.540235 0-67.975529-15.721412-127.247059-44.66447-153.088l1.776941-12.860236c14.185412-95.623529 43.610353-159.081412 86.799059-159.081411z m474.352941 158.117647c50.718118 0 79.058824 75.595294 79.058823 166.912s-28.310588 166.912-79.058823 166.912c-15.058824 0-28.099765-6.656-39.062588-18.371765l1.65647-9.637647 2.409412-16.384c0.421647-2.770824 0.783059-5.601882 1.14447-8.432941l1.987765-17.28753 1.656471-17.859764 1.385412-18.371765 1.084235-18.913882 0.421647-9.60753 0.602353-19.546353c0.180706-6.595765 0.301176-13.251765 0.331294-19.937882l0.030118-10.119529c0-6.776471-0.030118-13.492706-0.150589-20.178824l-0.451764-19.727059c-0.210824-6.505412-0.481882-12.950588-0.783059-19.335529l-1.084235-18.883765-1.385412-18.371765-1.656471-17.859764-1.987765-17.317647-0.542117-3.855059c9.938824-8.884706 21.443765-13.824 34.394353-13.824zM242.326588 668.069647l-0.240941 0.271059c-10.902588 11.565176-23.883294 18.070588-38.791529 18.070588-50.718118 0-79.058824-75.595294-79.058824-166.881882 0-91.316706 28.340706-166.912 79.058824-166.912 12.950588 0 24.455529 4.939294 34.394353 13.824l-0.512 3.855059-1.987765 17.317647-1.686588 17.859764-1.385412 18.371765-0.602353 9.396706-0.903529 19.094588c-0.240941 6.445176-0.451765 12.950588-0.602353 19.576471l-0.301177 19.937882v20.239059l0.301177 19.937882c0.060235 3.312941 0.150588 6.565647 0.271058 9.818353l0.752942 19.33553c0.301176 6.384941 0.662588 12.649412 1.084235 18.883764l1.385412 18.371765 1.686588 17.889882 1.987765 17.28753 2.288941 16.715294 1.355294 8.854588 1.505882 8.884706z" fill="#568af2" /></svg>