<svg class="icon" style="width: 1em;height: 1em;vertical-align: middle;fill: currentColor;overflow: hidden;" viewBox="0 0 1024 1024" version="1.1" xmlns="http://www.w3.org/2000/svg" width="32" height="32"><path d="M475.407059 455.710118c9.456941 9.456941 10.24 24.244706 2.379294 34.575058l-2.379294 2.710589-51.621647 51.621647 85.684706 85.684706 51.651764-51.59153a26.352941 26.352941 0 0 1 39.634824 34.544941l-2.349177 2.710589-51.651764 51.621647 16.50447 16.534588c9.426824 9.426824 10.24 24.214588 2.349177 34.544941l-2.349177 2.710588-52.705882 52.705883c-47.977412 47.977412-141.613176 65.957647-210.311529 17.106823l-70.776471 70.746353a26.352941 26.352941 0 0 1-39.634824-34.575059l2.349177-2.710588 70.746353-70.77647c-47.465412-66.770824-31.834353-157.063529 13.101176-206.125177l4.005647-4.216471 52.705883-52.705882a26.352941 26.352941 0 0 1 34.575059-2.319059l2.710588 2.349177 16.474353 16.474353 51.651764-51.621647a26.352941 26.352941 0 0 1 37.25553 0z m386.529882-263.529412c9.426824 9.456941 10.24 24.244706 2.349177 34.575059l-2.349177 2.710588-70.746353 70.776471c47.344941 66.620235 31.924706 156.672-12.830117 205.824l-4.276706 4.517647-52.705883 52.705882a26.352941 26.352941 0 0 1-34.575058 2.319059l-2.710589-2.349177-193.234823-193.264941a26.352941 26.352941 0 0 1-2.349177-34.544941l2.349177-2.710588 52.705882-52.705883c47.977412-47.977412 141.613176-65.957647 210.31153-17.106823l70.77647-70.746353a26.352941 26.352941 0 0 1 37.285647 0z" fill="#568af2" /></svg>