<svg class="icon" style="width: 1em;height: 1em;vertical-align: middle;fill: currentColor;overflow: hidden;" viewBox="0 0 1024 1024" version="1.1" xmlns="http://www.w3.org/2000/svg" width="32" height="32"><path d="M563.651765 643.945412a26.352941 26.352941 0 0 1 39.604706 34.575059l-2.349177 2.710588-140.559059 140.528941a26.352941 26.352941 0 0 1-34.544941 2.379294l-2.710588-2.379294L282.503529 681.261176a26.352941 26.352941 0 0 1 34.575059-39.634823l2.710588 2.349176 121.886118 121.886118 121.946353-121.886118z" fill="#568af2" /><path d="M722.823529 214.588235a26.352941 26.352941 0 0 1 3.312942 52.495059l-3.312942 0.210824h-228.382117a26.352941 26.352941 0 0 0-26.172236 23.04l-0.180705 3.312941v509.500235a26.352941 26.352941 0 0 1-52.525177 3.312941l-0.180706-3.312941V293.647059a79.058824 79.058824 0 0 1 74.059294-78.908235l4.99953-0.150589H722.823529z" fill="#568af2" /></svg>