<svg class="icon" style="width: 1em;height: 1em;vertical-align: middle;fill: currentColor;overflow: hidden;" viewBox="0 0 1024 1024" version="1.1" xmlns="http://www.w3.org/2000/svg" width="32" height="32"><path d="M210.823529 535.853176c13.432471 0 24.515765 10.029176 26.142118 23.04l0.210824 3.312942v254.735058h254.735058c13.432471 0 24.545882 10.059294 26.172236 23.04l0.180706 3.312942a26.352941 26.352941 0 0 1-23.04 26.142117l-3.312942 0.210824H210.823529a26.352941 26.352941 0 0 1-26.142117-23.04L184.470588 843.294118v-281.088c0-14.576941 11.806118-26.352941 26.352941-26.352942zM843.294118 184.470588c13.432471 0 24.515765 10.059294 26.142117 23.04l0.210824 3.312941v281.088a26.352941 26.352941 0 0 1-52.495059 3.312942l-0.210824-3.312942V237.176471h-254.735058a26.352941 26.352941 0 0 1-26.172236-23.04L535.853176 210.823529c0-13.432471 10.029176-24.515765 23.04-26.142117l3.312942-0.210824H843.294118z" fill="#568af2" /></svg>