<svg class="icon" style="width: 1em;height: 1em;vertical-align: middle;fill: currentColor;overflow: hidden;" viewBox="0 0 1024 1024" version="1.1" xmlns="http://www.w3.org/2000/svg" width="32" height="32"><path d="M439.205647 184.470588a26.352941 26.352941 0 0 1 3.312941 52.495059l-3.312941 0.210824H263.529412a26.352941 26.352941 0 0 0-26.142118 23.04l-0.210823 3.312941v527.058823c0 13.432471 10.059294 24.515765 23.04 26.142118l3.312941 0.210823h527.058823a26.352941 26.352941 0 0 0 26.142118-23.04l0.210823-3.312941v-175.676235a26.352941 26.352941 0 0 1 52.495059-3.312941l0.210824 3.312941v175.676235a79.058824 79.058824 0 0 1-74.059294 78.908236l-4.99953 0.150588H263.529412a79.058824 79.058824 0 0 1-78.908236-74.059294l-0.150588-4.99953V263.529412a79.058824 79.058824 0 0 1 74.059294-78.908236l4.99953-0.150588h175.676235z" fill="#568af2" /><path d="M413.304471 379.090824a26.352941 26.352941 0 0 1 32.105411 13.583058l1.234824 3.072 61.921882 185.795765 185.825883-61.921882a26.352941 26.352941 0 0 1 32.105411 13.613176l1.234824 3.072a26.352941 26.352941 0 0 1-13.583059 32.075294l-3.072 1.234824-210.823529 70.294588a26.352941 26.352941 0 0 1-32.105412-13.613176l-1.204706-3.072-70.294588-210.82353a26.352941 26.352941 0 0 1 16.655059-33.310117z" fill="#568af2" /><path d="M832.632471 218.593882a26.352941 26.352941 0 0 1-14.697412 34.273883l-16.986353 6.927059-16.173177 6.836705c-10.511059 4.547765-20.48 9.095529-29.997176 13.70353l-13.884235 6.927059c-79.058824 40.749176-123.392 87.672471-166.550589 183.145411l-7.378823 16.865883c-2.439529 5.782588-4.909176 11.715765-7.378824 17.829647l-7.469176 18.913882-7.529412 19.968-7.68 21.142588-7.830588 22.287059-8.041412 23.582118-4.126118 12.227765a26.352941 26.352941 0 0 1-49.995294-16.655059l8.493177-25.148236 4.186353-12.107294 8.252235-23.341176 8.101647-22.166588 8.011294-21.022118 7.981177-19.968c55.717647-136.131765 110.170353-196.427294 218.352941-249.133176l15.841882-7.499295 16.594824-7.408941 17.408-7.408941 18.221176-7.439059a26.352941 26.352941 0 0 1 34.273883 14.667294z" fill="#568af2" /></svg>