<svg class="icon" style="width: 1em;height: 1em;vertical-align: middle;fill: currentColor;overflow: hidden;" viewBox="0 0 1024 1024" version="1.1" xmlns="http://www.w3.org/2000/svg" width="32" height="32"><path d="M790.588235 184.470588a79.058824 79.058824 0 0 1 79.058824 79.058824v527.058823a79.058824 79.058824 0 0 1-79.058824 79.058824H263.529412a79.058824 79.058824 0 0 1-79.058824-79.058824V263.529412A79.058824 79.058824 0 0 1 263.529412 184.470588z m-157.063529 148.269177a26.352941 26.352941 0 0 0-37.25553 0l-175.676235 175.676235-2.379294 2.710588a26.352941 26.352941 0 0 0 2.379294 34.575059l175.676235 175.676235 2.710589 2.349177a26.352941 26.352941 0 0 0 34.544941-2.349177l2.379294-2.710588a26.352941 26.352941 0 0 0-2.379294-34.544941L476.491294 527.058824l157.033412-157.06353 2.379294-2.710588a26.352941 26.352941 0 0 0-2.379294-34.544941z" fill="#568af2" /></svg>