<svg class="icon" style="width: 1em;height: 1em;vertical-align: middle;fill: currentColor;overflow: hidden;" viewBox="0 0 1024 1024" version="1.1" xmlns="http://www.w3.org/2000/svg" width="32" height="32"><path d="M747.911529 154.352941c13.432471 0 24.545882 10.059294 26.172236 23.04l0.180706 3.312941v456.794353a26.352941 26.352941 0 0 1-23.04 26.142118l-3.312942 0.210823H396.559059a26.352941 26.352941 0 0 1-3.312941-52.525176l3.312941-0.180706 324.999529-0.030118V180.705882c0-13.432471 10.059294-24.515765 23.070118-26.142117l3.312941-0.210824z" fill="#568af2" /><path d="M607.382588 435.440941a26.352941 26.352941 0 0 1 3.312941 52.525177l-3.312941 0.180706H282.352941v360.176941a26.352941 26.352941 0 0 1-23.04 26.142117l-3.312941 0.210824a26.352941 26.352941 0 0 1-26.142118-23.070118l-0.210823-3.312941V461.824c0-13.432471 10.059294-24.515765 23.04-26.142118l3.312941-0.210823h351.382588zM729.298824 162.063059a26.352941 26.352941 0 0 1 34.544941-2.349177l2.710588 2.349177 105.411765 105.411765a26.352941 26.352941 0 0 1-34.575059 39.634823l-2.710588-2.349176-86.768942-86.799059-86.738823 86.799059a26.352941 26.352941 0 0 1-34.605177 2.349176l-2.710588-2.349176a26.352941 26.352941 0 0 1-2.349176-34.575059l2.379294-2.710588 105.411765-105.411765z" fill="#568af2" /><path d="M342.768941 724.269176a26.352941 26.352941 0 0 1 39.634824 34.575059l-2.349177 2.710589-105.411764 105.411764a26.352941 26.352941 0 0 1-34.575059 2.349177l-2.710589-2.379294-105.411764-105.411765A26.352941 26.352941 0 0 1 166.550588 721.92l2.710588 2.349176L256 811.038118l86.768941-86.768942z" fill="#568af2" /></svg>