<svg class="icon" style="width: 1em;height: 1em;vertical-align: middle;fill: currentColor;overflow: hidden;" viewBox="0 0 1024 1024" version="1.1" xmlns="http://www.w3.org/2000/svg" width="32" height="32"><path d="M501.970824 124.235294c208.594824 0 377.705412 169.110588 377.705411 377.73553 0 208.594824-169.110588 377.705412-377.705411 377.705411-208.624941 0-377.735529-169.110588-377.73553-377.705411 0-208.624941 169.110588-377.735529 377.73553-377.73553z m-36.773648 198.625882a26.352941 26.352941 0 0 0-34.575058 2.349177l-2.349177 2.710588a26.352941 26.352941 0 0 0 2.349177 34.544941l139.444706 139.474824-139.444706 139.504941-2.349177 2.710588a26.352941 26.352941 0 0 0 39.604706 34.544941l158.117647-158.117647 2.379294-2.710588a26.352941 26.352941 0 0 0-2.379294-34.544941l-158.117647-158.117647z" fill="#568af2" /></svg>