<svg class="icon" style="width: 1em;height: 1em;vertical-align: middle;fill: currentColor;overflow: hidden;" viewBox="0 0 1024 1024" version="1.1" xmlns="http://www.w3.org/2000/svg" width="32" height="32"><path d="M614.912 253.500235a26.352941 26.352941 0 0 1 3.312941 52.495059l-3.312941 0.210824H210.823529a26.352941 26.352941 0 0 1-3.312941-52.525177L210.823529 253.500235h404.088471zM614.912 481.882353a26.352941 26.352941 0 0 1 3.312941 52.495059l-3.312941 0.210823H210.823529a26.352941 26.352941 0 0 1-3.312941-52.495059L210.823529 481.882353h404.088471zM737.882353 253.500235c13.432471 0 24.515765 10.029176 26.142118 23.04l0.210823 3.312941V665.298824l59.030588-68.818824a26.352941 26.352941 0 0 1 34.334118-5.029647l2.831059 2.168471c10.149647 8.673882 12.047059 23.371294 5.029647 34.273882l-2.168471 2.861176-105.411764 123.000471c-15.179294 17.739294-43.610353 8.282353-46.170353-13.914353l-0.180706-3.252706V279.853176c0-14.576941 11.806118-26.352941 26.352941-26.352941zM614.912 710.264471a26.352941 26.352941 0 0 1 3.312941 52.525176l-3.312941 0.180706H210.823529a26.352941 26.352941 0 0 1-3.312941-52.495059l3.312941-0.210823h404.088471z" fill="#568af2" /></svg>