<svg class="icon" style="width: 1em;height: 1em;vertical-align: middle;fill: currentColor;overflow: hidden;" viewBox="0 0 1024 1024" version="1.1" xmlns="http://www.w3.org/2000/svg" width="32" height="32"><path d="M633.916235 483.328a26.352941 26.352941 0 0 1 34.575059-2.349176l2.710588 2.349176 70.264471 70.264471a26.352941 26.352941 0 0 1-34.575059 39.634823l-2.710588-2.349176-51.651765-51.651765-51.621647 51.651765a26.352941 26.352941 0 0 1-34.575059 2.349176l-2.710588-2.349176a26.352941 26.352941 0 0 1-2.349176-34.575059l2.379294-2.710588 70.26447-70.264471z" fill="#568af2" /><path d="M476.852706 124.235294c86.377412 0 156.762353 93.876706 186.819765 231.544471a26.352941 26.352941 0 1 1-51.501177 11.264c-25.389176-116.344471-80.685176-190.102588-135.318588-190.102589-77.492706 0-149.323294 143.661176-149.323294 325.029648s71.830588 324.999529 149.323294 324.999529c77.522824 0 149.353412-143.661176 149.353412-324.999529a26.352941 26.352941 0 1 1 52.705882 0c0 206.727529-85.504 377.705412-202.059294 377.705411-116.555294 0-202.029176-170.977882-202.029177-377.705411 0-206.757647 85.504-377.735529 202.029177-377.73553z" fill="#568af2" /></svg>