<svg class="icon" style="width: 1em;height: 1em;vertical-align: middle;fill: currentColor;overflow: hidden;" viewBox="0 0 1024 1024" version="1.1" xmlns="http://www.w3.org/2000/svg" width="32" height="32"><path d="M532.088471 124.235294c208.594824 0 377.705412 169.110588 377.705411 377.73553 0 208.594824-169.110588 377.705412-377.705411 377.705411-208.624941 0-377.735529-169.110588-377.73553-377.705411 0-208.624941 169.110588-377.735529 377.73553-377.73553z m15.932235 356.74353a26.352941 26.352941 0 0 0-34.575059 2.349176l-122.970353 122.970353-2.379294 2.710588a26.352941 26.352941 0 0 0 2.379294 34.575059l2.710588 2.349176a26.352941 26.352941 0 0 0 34.544942-2.349176l104.327529-104.357647 104.357647 104.357647 2.710588 2.349176a26.352941 26.352941 0 0 0 34.575059-39.634823l-123.000471-122.970353z m0-158.117648a26.352941 26.352941 0 0 0-34.575059 2.349177l-122.970353 122.970353-2.379294 2.710588a26.352941 26.352941 0 0 0 2.379294 34.575059l2.710588 2.349176a26.352941 26.352941 0 0 0 34.544942-2.349176l104.327529-104.357647 104.357647 104.357647 2.710588 2.349176a26.352941 26.352941 0 0 0 34.575059-39.634823l-123.000471-122.970353z" fill="#568af2" /></svg>