<svg class="icon" style="width: 1em;height: 1em;vertical-align: middle;fill: currentColor;overflow: hidden;" viewBox="0 0 1024 1024" version="1.1" xmlns="http://www.w3.org/2000/svg" width="32" height="32"><path d="M501.970824 124.235294c208.594824 0 377.705412 169.110588 377.705411 377.73553 0 208.594824-169.110588 377.705412-377.705411 377.705411-208.624941 0-377.735529-169.110588-377.73553-377.705411 0-208.624941 169.110588-377.735529 377.73553-377.73553z m-13.010824 205.462588a26.142118 26.142118 0 0 0-2.499765 1.596236l-0.421647 0.331294-0.783059 0.602353a26.503529 26.503529 0 0 0-1.264941 1.114353l-0.662588 0.662588-158.117647 158.117647-2.349177 2.710588a26.352941 26.352941 0 0 0 2.349177 34.544941l2.710588 2.349177a26.352941 26.352941 0 0 0 34.544941-2.349177l113.121883-113.152v252.626824l0.210823 3.312941a26.352941 26.352941 0 0 0 52.525177-3.312941l-0.030118-252.566588 113.152 113.091764 2.710588 2.349177a26.352941 26.352941 0 0 0 34.544941-39.604706l-158.117647-158.117647-0.662588-0.662588a26.503529 26.503529 0 0 0-1.234823-1.084236l-0.783059-0.602353a26.352941 26.352941 0 0 0-26.684235-3.102117l-1.656471 0.813176z" fill="#568af2" /></svg>