<svg class="icon" style="width: 1em;height: 1em;vertical-align: middle;fill: currentColor;overflow: hidden;" viewBox="0 0 1024 1024" version="1.1" xmlns="http://www.w3.org/2000/svg" width="32" height="32"><path d="M0 0h1024v1024H0z" fill="#568af2" fill-opacity="0" /><path d="M282.533647 282.533647a26.352941 26.352941 0 0 1 34.575059-2.349176l2.710588 2.349176 210.82353 210.823529c9.426824 9.456941 10.24 24.244706 2.349176 34.575059l-2.349176 2.710589-210.82353 210.823529a26.352941 26.352941 0 0 1-39.634823-34.575059l2.349176-2.710588L474.744471 512l-192.210824-192.180706a26.352941 26.352941 0 0 1-2.349176-34.575059l2.349176-2.710588z" fill="#568af2" /><path d="M493.357176 282.533647a26.352941 26.352941 0 0 1 34.575059-2.349176l2.710589 2.349176 210.823529 210.823529c9.426824 9.456941 10.24 24.244706 2.349176 34.575059l-2.349176 2.710589-210.823529 210.823529a26.352941 26.352941 0 0 1-39.634824-34.575059l2.349176-2.710588L685.568 512l-192.210824-192.180706a26.352941 26.352941 0 0 1-2.349176-34.575059l2.349176-2.710588z" fill="#568af2" /></svg>