<svg class="icon" style="width: 1em;height: 1em;vertical-align: middle;fill: currentColor;overflow: hidden;" viewBox="0 0 1024 1024" version="1.1" xmlns="http://www.w3.org/2000/svg" width="32" height="32"><path d="M501.970824 124.235294c208.594824 0 377.705412 169.110588 377.705411 377.73553 0 208.594824-169.110588 377.705412-377.705411 377.705411-208.624941 0-377.735529-169.110588-377.73553-377.705411 0-208.624941 169.110588-377.735529 377.73553-377.73553z m141.613176 394.24a26.352941 26.352941 0 0 0-37.285647 0l-104.357647 104.297412-104.32753-104.297412-2.710588-2.379294a26.352941 26.352941 0 0 0-34.544941 39.634824l122.970353 122.970352 2.710588 2.379295a26.352941 26.352941 0 0 0 34.544941-2.379295l123.000471-122.970352 2.349176-2.710589a26.352941 26.352941 0 0 0-2.349176-34.544941z m0-158.117647a26.352941 26.352941 0 0 0-37.285647 0l-104.357647 104.297412-104.32753-104.297412-2.710588-2.379294a26.352941 26.352941 0 0 0-34.544941 39.634823l122.970353 122.970353 2.710588 2.379295a26.352941 26.352941 0 0 0 34.544941-2.379295l123.000471-122.970353 2.349176-2.710588a26.352941 26.352941 0 0 0-2.349176-34.544941z" fill="#568af2" /></svg>