<svg class="icon" style="width: 1em;height: 1em;vertical-align: middle;fill: currentColor;overflow: hidden;" viewBox="0 0 1024 1024" version="1.1" xmlns="http://www.w3.org/2000/svg" width="32" height="32"><path d="M702.735059 485.797647a26.352941 26.352941 0 0 1 3.312941 52.495059l-3.312941 0.210823H210.823529a26.352941 26.352941 0 0 1-3.312941-52.495058L210.823529 485.797647h491.91153z" fill="#568af2" /><path d="M473.298824 282.533647a26.352941 26.352941 0 0 1 34.544941-2.349176l2.710588 2.349176 210.823529 210.823529c9.426824 9.456941 10.24 24.244706 2.349177 34.575059l-2.349177 2.710589-210.823529 210.823529a26.352941 26.352941 0 0 1-39.634824-34.575059l2.379295-2.710588L665.479529 512l-192.180705-192.180706a26.352941 26.352941 0 0 1-2.379295-34.575059l2.379295-2.710588zM843.294118 274.823529c13.432471 0 24.515765 10.059294 26.142117 23.04l0.210824 3.312942v421.647058a26.352941 26.352941 0 0 1-52.495059 3.312942l-0.210824-3.312942V301.176471c0-14.546824 11.806118-26.352941 26.352942-26.352942z" fill="#568af2" /></svg>