<svg class="icon" style="width: 1em;height: 1em;vertical-align: middle;fill: currentColor;overflow: hidden;" viewBox="0 0 1024 1024" version="1.1" xmlns="http://www.w3.org/2000/svg" width="32" height="32"><path d="M495.465412 386.951529a26.112 26.112 0 0 1-9.456941-4.547764l-0.662589-0.542118a26.503529 26.503529 0 0 1-1.566117-1.385412l-0.451765-0.421647-70.264471-70.294588a26.352941 26.352941 0 0 1 34.544942-39.604706l2.710588 2.349177 25.268706 25.238588V150.588235a26.352941 26.352941 0 0 1 52.525176-3.312941l0.210824 3.312941-0.030118 147.184941 25.298824-25.298823a26.352941 26.352941 0 0 1 39.634823 34.605176l-2.349176 2.710589-70.294589 70.26447-0.421647 0.421647a26.503529 26.503529 0 0 1-1.566117 1.385412l1.987764-1.807059a26.563765 26.563765 0 0 1-15.329882 7.529412l-3.312941 0.180706a26.413176 26.413176 0 0 1-6.475294-0.813177z m-5.903059 232.297412l1.656471-0.813176a26.202353 26.202353 0 0 1 23.642352 1.084235 19.064471 19.064471 0 0 1 3.011765 1.987765l0.813177 0.602353a26.503529 26.503529 0 0 1 1.295058 1.14447l0.602353 0.602353 70.294589 70.294588a26.352941 26.352941 0 0 1-34.575059 39.634824l-2.710588-2.379294-25.298824-25.298824v147.215059a26.352941 26.352941 0 0 1-52.495059 3.312941l-0.180706-3.312941-0.030117-147.184941-25.268706 25.298823a26.352941 26.352941 0 0 1-34.575059 2.349177l-2.710588-2.379294a26.352941 26.352941 0 0 1-2.349177-34.544941l2.379294-2.710589 70.264471-70.26447 0.662588-0.662588a26.503529 26.503529 0 0 1 1.264941-1.084236l-1.927529 1.746824a26.563765 26.563765 0 0 1 5.632-4.306824l0.602353-0.331294z m130.017882-130.288941l0.421647-0.722824a26.413176 26.413176 0 0 1 1.505883-2.198588l0.602353-0.783059a26.503529 26.503529 0 0 1 1.14447-1.295058l0.602353-0.632471 70.294588-70.264471a26.352941 26.352941 0 0 1 39.634824 34.544942l-2.379294 2.710588-25.268706 25.268706h147.184941a26.352941 26.352941 0 0 1 3.312941 52.525176l-3.312941 0.210824-147.184941-0.030118 25.298823 25.298824c9.426824 9.456941 10.209882 24.244706 2.349177 34.575058l-2.379294 2.710589a26.352941 26.352941 0 0 1-34.544941 2.349176l-2.710589-2.349176-70.26447-70.294589-0.662588-0.662588a26.503529 26.503529 0 0 1-1.084236-1.234823l1.746824 1.897411a26.563765 26.563765 0 0 1-6.354824-10.24 26.473412 26.473412 0 0 1 1.716706-20.781176l0.331294-0.602353z m-312.500706-78.275765l2.710589 2.379294 70.26447 70.264471 0.421647 0.451765a26.503529 26.503529 0 0 1 1.385412 1.566117l-1.807059-2.017882a26.563765 26.563765 0 0 1 7.710118 18.642824 26.232471 26.232471 0 0 1-5.360941 15.932235l-0.542118 0.692706a26.503529 26.503529 0 0 1-1.385412 1.566117l-0.421647 0.421647-70.294588 70.294589A26.352941 26.352941 0 0 1 270.155294 556.272941l2.349177-2.710588 25.238588-25.298824H150.588235a26.352941 26.352941 0 0 1-3.312941-52.495058l3.312941-0.180706 147.154824-0.030118-25.238588-25.268706a26.352941 26.352941 0 0 1-2.349177-34.575059l2.349177-2.710588a26.352941 26.352941 0 0 1 34.575058-2.349176z m194.861177 29.786353a61.500235 61.500235 0 1 0 0 122.970353 61.500235 61.500235 0 0 0 0-122.970353z m0 52.705883a8.794353 8.794353 0 1 1 0 17.558588 8.794353 8.794353 0 0 1 0-17.558588z" fill="#568af2" /></svg>