<svg class="icon" style="width: 1em;height: 1em;vertical-align: middle;fill: currentColor;overflow: hidden;" viewBox="0 0 1024 1024" version="1.1" xmlns="http://www.w3.org/2000/svg" width="32" height="32"><path d="M449.264941 335.058824c46.923294 0 92.521412 10.541176 134.354824 30.539294 115.260235 55.235765 190.644706 176.519529 190.644706 312.048941a26.352941 26.352941 0 1 1-52.705883 0c0-115.350588-63.849412-218.112-160.707764-264.493177a257.295059 257.295059 0 0 0-111.585883-25.389176c-150.046118 0-272.323765 129.445647-272.323765 289.882353a26.352941 26.352941 0 1 1-52.705882 0c0-188.867765 145.167059-342.588235 325.029647-342.588235z" fill="#568af2" /><path d="M832.240941 521.276235a26.352941 26.352941 0 0 1 44.122353 28.611765l-1.957647 3.011765-105.411765 140.559059a26.352941 26.352941 0 0 1-32.075294 8.131764l-2.951529-1.596235-140.559059-87.853177a26.352941 26.352941 0 0 1 24.997647-46.260705l2.921412 1.566117 120.018823 75.023059 90.895059-121.193412z" fill="#568af2" /></svg>