<svg class="icon" style="width: 1em;height: 1em;vertical-align: middle;fill: currentColor;overflow: hidden;" viewBox="0 0 1024 1024" version="1.1" xmlns="http://www.w3.org/2000/svg" width="32" height="32"><path d="M843.294118 500.705882c13.432471 0 24.515765 10.059294 26.142117 23.04l0.210824 3.312942V843.294118a26.352941 26.352941 0 0 1-23.04 26.142117l-3.312941 0.210824H210.823529a26.352941 26.352941 0 0 1-26.142117-23.04L184.470588 843.294118V527.209412a26.352941 26.352941 0 0 1 52.495059-3.312941l0.210824 3.312941v289.731764h579.764705V527.058824c0-13.432471 10.059294-24.515765 23.04-26.142118l3.312942-0.210824z" fill="#568af2" /><path d="M666.533647 490.857412a26.352941 26.352941 0 0 1 39.634824 34.575059l-2.349177 2.710588-158.117647 158.117647a26.352941 26.352941 0 0 1-34.575059 2.349176l-2.710588-2.379294-158.117647-158.117647a26.352941 26.352941 0 0 1 34.575059-39.604706l2.710588 2.349177 139.474824 139.474823 139.474823-139.474823z" fill="#568af2" /><path d="M526.908235 184.470588c13.432471 0 24.515765 10.059294 26.142118 23.04l0.210823 3.312941v456.794353a26.352941 26.352941 0 0 1-52.495058 3.312942l-0.210824-3.312942V210.823529c0-14.546824 11.806118-26.352941 26.352941-26.352941z" fill="#568af2" /></svg>