<svg class="icon" style="width: 1em;height: 1em;vertical-align: middle;fill: currentColor;overflow: hidden;" viewBox="0 0 1024 1024" version="1.1" xmlns="http://www.w3.org/2000/svg" width="32" height="32"><path d="M553.592471 325.210353a26.352941 26.352941 0 0 1 39.634823 34.575059l-2.349176 2.710588-70.294589 70.264471a26.352941 26.352941 0 0 1-34.544941 2.349176l-2.710588-2.349176-70.264471-70.294589a26.352941 26.352941 0 0 1 34.544942-39.604706l2.710588 2.349177 51.621647 51.621647 51.651765-51.621647z" fill="#568af2" /><path d="M783.058824 124.235294c51.501176 0 93.635765 40.357647 96.466823 91.136l0.150588 5.481412v193.264941a26.352941 26.352941 0 0 1-52.495059 3.312941l-0.210823-3.312941V220.852706c0-22.829176-17.408-41.562353-39.695059-43.700706L783.058824 176.941176h-210.82353c-22.829176 0-41.592471 17.408-43.730823 39.695059l-0.180706 4.216471v193.264941a26.352941 26.352941 0 0 1-52.525177 3.312941l-0.180706-3.312941V220.852706c0-51.501176 40.327529-93.635765 91.136-96.466824L572.235294 124.235294h210.82353zM483.328 571.181176a26.352941 26.352941 0 0 1 34.575059-2.379294l2.710588 2.379294 70.264471 70.264471a26.352941 26.352941 0 0 1-34.575059 39.634824l-2.710588-2.379295-51.651765-51.621647-51.621647 51.621647a26.352941 26.352941 0 0 1-34.575059 2.379295l-2.710588-2.379295a26.352941 26.352941 0 0 1-2.349177-34.544941l2.379294-2.710588 70.264471-70.264471z" fill="#568af2" /><path d="M501.970824 563.440941c13.432471 0 24.515765 10.059294 26.142117 23.070118l0.210824 3.312941V783.058824c0 51.501176-40.357647 93.635765-91.166118 96.466823l-5.481412 0.150588h-210.823529a96.617412 96.617412 0 0 1-96.466824-91.136L124.235294 783.058824v-193.264942a26.352941 26.352941 0 0 1 52.495059-3.312941l0.210823 3.312941V783.058824c0 22.829176 17.408 41.592471 39.695059 43.730823l4.216471 0.180706h210.823529c22.829176 0 41.592471-17.408 43.730824-39.695059l0.210823-4.21647v-193.264942c0-14.546824 11.776-26.352941 26.352942-26.352941zM641.445647 413.063529a26.352941 26.352941 0 0 1 39.634824 34.544942l-2.379295 2.710588-51.621647 51.621647 51.621647 51.651765c9.456941 9.456941 10.24 24.244706 2.379295 34.575058l-2.379295 2.710589a26.352941 26.352941 0 0 1-34.544941 2.349176l-2.710588-2.349176-70.264471-70.294589a26.352941 26.352941 0 0 1-2.379294-34.544941l2.379294-2.710588 70.264471-70.264471z" fill="#568af2" /><path d="M783.058824 475.617882c51.501176 0 93.635765 40.327529 96.466823 91.136l0.150588 5.481412v210.82353c0 51.501176-40.327529 93.635765-91.136 96.466823l-5.481411 0.150588h-193.264942a26.352941 26.352941 0 0 1-3.312941-52.495059l3.312941-0.210823H783.058824c22.829176 0 41.592471-17.408 43.730823-39.695059l0.180706-4.21647v-210.82353c0-22.829176-17.408-41.592471-39.695059-43.730823l-4.21647-0.180706h-193.264942a26.352941 26.352941 0 0 1-3.312941-52.525177l3.312941-0.180706H783.058824zM325.210353 413.063529a26.352941 26.352941 0 0 1 34.575059-2.379294l2.710588 2.379294 70.264471 70.264471c9.426824 9.426824 10.24 24.244706 2.349176 34.575059l-2.349176 2.710588-70.294589 70.264471a26.352941 26.352941 0 0 1-39.604706-34.575059l2.349177-2.710588 51.621647-51.651765-51.621647-51.621647a26.352941 26.352941 0 0 1-2.349177-34.575059l2.349177-2.710588z" fill="#568af2" /><path d="M414.117647 124.235294a26.352941 26.352941 0 0 1 3.312941 52.495059l-3.312941 0.210823H220.852706c-22.829176 0-41.562353 17.408-43.700706 39.695059l-0.210824 4.216471v210.823529c0 22.829176 17.408 41.592471 39.695059 43.730824l4.216471 0.210823h193.264941a26.352941 26.352941 0 0 1 3.312941 52.495059l-3.312941 0.210824H220.852706a96.617412 96.617412 0 0 1-96.466824-91.166118l-0.150588-5.481412v-210.823529c0-51.501176 40.357647-93.635765 91.136-96.466824l5.481412-0.150588h193.264941z" fill="#568af2" /></svg>