<svg class="icon" style="width: 1em;height: 1em;vertical-align: middle;fill: currentColor;overflow: hidden;" viewBox="0 0 1024 1024" version="1.1" xmlns="http://www.w3.org/2000/svg" width="32" height="32"><path d="M237.357176 222.298353A26.352941 26.352941 0 0 1 276.992 256.903529l-2.349176 2.710589L187.843765 346.352941l86.799059 86.768941c9.426824 9.456941 10.24 24.244706 2.349176 34.575059l-2.349176 2.710588a26.352941 26.352941 0 0 1-34.575059 2.349177l-2.710589-2.349177-105.411764-105.411764a26.352941 26.352941 0 0 1-2.349177-34.575059l2.349177-2.710588 105.411764-105.411765zM729.298824 573.680941a26.352941 26.352941 0 0 1 34.544941-2.349176l2.710588 2.349176 105.411765 105.411765c9.426824 9.426824 10.24 24.244706 2.349176 34.575059l-2.349176 2.710588-105.411765 105.411765a26.352941 26.352941 0 0 1-39.634824-34.575059l2.379295-2.710588 86.738823-86.799059-86.738823-86.738824a26.352941 26.352941 0 0 1-2.379295-34.575059l2.379295-2.710588z" fill="#568af2" /><path d="M853.323294 320a26.352941 26.352941 0 0 1 3.312941 52.495059l-3.312941 0.210823H150.588235a26.352941 26.352941 0 0 1-3.312941-52.495058l3.312941-0.210824h702.735059zM853.323294 671.382588a26.352941 26.352941 0 0 1 3.312941 52.495059l-3.312941 0.210824H150.588235a26.352941 26.352941 0 0 1-3.312941-52.525177l3.312941-0.180706h702.735059z" fill="#568af2" /></svg>