<svg class="icon" style="width: 1em;height: 1em;vertical-align: middle;fill: currentColor;overflow: hidden;" viewBox="0 0 1024 1024" version="1.1" xmlns="http://www.w3.org/2000/svg" width="32" height="32"><path d="M501.970824 124.235294c208.594824 0 377.705412 169.110588 377.705411 377.73553 0 208.594824-169.110588 377.705412-377.705411 377.705411-208.624941 0-377.735529-169.110588-377.73553-377.705411 0-208.624941 169.110588-377.735529 377.73553-377.73553z m-87.853177 228.382118l-3.312941 0.210823a26.352941 26.352941 0 0 0-23.04 26.142118l0.210823 3.312941a26.352941 26.352941 0 0 0 26.142118 23.04h147.184941l-200.944941 200.975059-2.379294 2.710588a26.352941 26.352941 0 0 0 39.634823 34.575059l200.975059-201.005176v147.215058l0.210824 3.312942a26.352941 26.352941 0 0 0 52.495059-3.312942v-210.823529l-0.210824-3.312941a26.202353 26.202353 0 0 0-4.818823-12.16753l-0.331295-0.451764-0.542117-0.692706a26.503529 26.503529 0 0 0-1.385412-1.566118l-0.421647-0.421647a26.864941 26.864941 0 0 0-10.300235-6.384941 26.473412 26.473412 0 0 0-8.342589-1.355294h-210.823529z" fill="#568af2" /></svg>