<svg class="icon" style="width: 1em;height: 1em;vertical-align: middle;fill: currentColor;overflow: hidden;" viewBox="0 0 1024 1024" version="1.1" xmlns="http://www.w3.org/2000/svg" width="32" height="32"><path d="M512.150588 154.352941c13.432471 0 24.515765 10.059294 26.142118 23.04l0.210823 3.312941-0.030117 428.182589 165.707294-165.707295a26.352941 26.352941 0 0 1 39.634823 34.544942l-2.349176 2.710588-210.823529 210.823529a26.352941 26.352941 0 0 1-34.575059 2.349177l-2.710589-2.349177-210.823529-210.823529a26.352941 26.352941 0 0 1 34.575059-39.634824l2.710588 2.379294 165.948235 165.948236V180.705882c0-14.546824 11.836235-26.352941 26.383059-26.352941z m210.672941 632.470588a26.352941 26.352941 0 0 1 3.312942 52.495059l-3.312942 0.210824H301.176471a26.352941 26.352941 0 0 1-3.312942-52.495059l3.312942-0.210824h421.647058z" fill="#568af2" /></svg>