<svg class="icon" style="width: 1em;height: 1em;vertical-align: middle;fill: currentColor;overflow: hidden;" viewBox="0 0 1024 1024" version="1.1" xmlns="http://www.w3.org/2000/svg" width="32" height="32"><path d="M883.440941 289.882353a26.352941 26.352941 0 0 1 3.312941 52.495059l-3.312941 0.210823H391.529412A184.470588 184.470588 0 0 0 207.058824 527.058824a26.352941 26.352941 0 1 1-52.705883 0 237.206588 237.206588 0 0 1 229.797647-237.056L391.529412 289.882353h491.911529z" fill="#568af2" /><path d="M759.416471 192.180706a26.352941 26.352941 0 0 1 34.544941-2.349177l2.710588 2.349177 105.411765 105.411765c9.426824 9.456941 10.24 24.244706 2.349176 34.575058l-2.349176 2.710589-105.411765 105.411764a26.352941 26.352941 0 0 1-39.634824-34.575058l2.379295-2.710589 86.768941-86.768941-86.768941-86.768941a26.352941 26.352941 0 0 1-2.379295-34.575059l2.379295-2.710588zM883.440941 465.558588c14.576941 0 26.352941 11.806118 26.352941 26.352941a237.206588 237.206588 0 0 1-229.797647 237.086118l-7.378823 0.090353H180.705882a26.352941 26.352941 0 0 1-3.312941-52.495059l3.312941-0.210823h491.91153a184.470588 184.470588 0 0 0 184.470588-184.470589c0-14.546824 11.806118-26.352941 26.352941-26.352941z" fill="#568af2" /><path d="M267.474824 578.710588a26.352941 26.352941 0 0 1 39.634823 34.544941l-2.349176 2.710589-86.799059 86.768941 86.799059 86.799059c9.426824 9.426824 10.24 24.214588 2.349176 34.544941l-2.349176 2.710588a26.352941 26.352941 0 0 1-34.575059 2.349177l-2.710588-2.349177-105.411765-105.411765a26.352941 26.352941 0 0 1-2.349177-34.575058l2.349177-2.710589 105.411765-105.411764z" fill="#568af2" /></svg>