<svg class="icon" style="width: 1em;height: 1em;vertical-align: middle;fill: currentColor;overflow: hidden;" viewBox="0 0 1024 1024" version="1.1" xmlns="http://www.w3.org/2000/svg" width="32" height="32"><path d="M803.147294 253.500235a26.352941 26.352941 0 0 1 3.312941 52.495059l-3.312941 0.210824H240.941176a26.352941 26.352941 0 0 1-3.312941-52.525177L240.941176 253.500235h562.206118z m0 158.117647a26.352941 26.352941 0 0 1 3.312941 52.495059l-3.312941 0.210824h-281.118118a26.352941 26.352941 0 0 1-3.312941-52.525177l3.312941-0.180706h281.118118z m0 158.117647a26.352941 26.352941 0 0 1 3.312941 52.495059l-3.312941 0.210824h-281.118118a26.352941 26.352941 0 0 1-3.312941-52.525177l3.312941-0.180706h281.118118z m0 158.117647a26.352941 26.352941 0 0 1 3.312941 52.495059l-3.312941 0.210824H240.941176a26.352941 26.352941 0 0 1-3.312941-52.525177l3.312941-0.180706h562.206118zM367.525647 406.829176l-140.559059 87.853177a26.352941 26.352941 0 0 0 0 44.694588l140.559059 87.823059a26.352941 26.352941 0 0 0 40.327529-22.347294V429.176471a26.352941 26.352941 0 0 0-40.357647-22.347295z" fill="#568af2" /></svg>