<svg class="icon" style="width: 1em;height: 1em;vertical-align: middle;fill: currentColor;overflow: hidden;" viewBox="0 0 1024 1024" version="1.1" xmlns="http://www.w3.org/2000/svg" width="32" height="32"><path d="M501.970824 124.235294c208.594824 0 377.705412 169.110588 377.705411 377.73553 0 208.594824-169.110588 377.705412-377.705411 377.705411-208.624941 0-377.735529-169.110588-377.73553-377.705411 0-208.624941 169.110588-377.735529 377.73553-377.73553z m88.907294 429.357177a26.352941 26.352941 0 0 0-37.285647 0l-51.651765 51.621647-51.621647-51.621647-2.710588-2.349177a26.352941 26.352941 0 0 0-34.544942 39.634824l70.264471 70.26447 2.710588 2.349177a26.352941 26.352941 0 0 0 34.544941-2.349177l70.294589-70.26447 2.349176-2.710589a26.352941 26.352941 0 0 0-2.349176-34.575058z m-72.975059-213.172706a26.352941 26.352941 0 0 0-34.575059 2.349176l-70.264471 70.294588-2.379294 2.710589a26.352941 26.352941 0 0 0 2.379294 34.544941l2.710589 2.349176a26.352941 26.352941 0 0 0 34.544941-2.349176l51.621647-51.651765 51.651765 51.651765 2.710588 2.349176a26.352941 26.352941 0 0 0 34.575059-39.604706l-70.294589-70.294588z" fill="#568af2" /></svg>