<svg class="icon" style="width: 1em;height: 1em;vertical-align: middle;fill: currentColor;overflow: hidden;" viewBox="0 0 1024 1024" version="1.1" xmlns="http://www.w3.org/2000/svg" width="32" height="32"><path d="M180.705882 448a26.352941 26.352941 0 0 1-3.312941-52.495059l3.312941-0.210823h568.862118l-165.857882-165.827765a26.352941 26.352941 0 0 1 34.575058-39.634824l2.710589 2.349177 210.823529 210.823529 0.240941 0.271059a26.503529 26.503529 0 0 1 1.505883 1.716706l-1.746824-1.987765a26.533647 26.533647 0 0 1 7.710118 18.642824 26.232471 26.232471 0 0 1-7.710118 18.642823l-0.271059 0.240942a26.503529 26.503529 0 0 1-1.716706 1.505882l1.987765-1.746824a26.533647 26.533647 0 0 1-15.36 7.529412l-3.282823 0.180706H180.705882z m646.505412 122.970353a26.352941 26.352941 0 0 1 3.312941 52.525176l-3.312941 0.180706H258.349176l165.857883 165.857883a26.352941 26.352941 0 0 1-34.575059 39.604706l-2.710588-2.349177-210.82353-210.823529-0.391529-0.421647a26.503529 26.503529 0 0 1-1.656471-1.897412l2.048 2.319059a26.563765 26.563765 0 0 1-7.710117-18.642824 26.232471 26.232471 0 0 1 7.710117-18.612706l0.481883-0.481882a26.503529 26.503529 0 0 1 1.445647-1.264941l-1.92753 1.746823a26.533647 26.533647 0 0 1 18.672942-7.740235h632.470588z" fill="#568af2" /></svg>