<svg class="icon" style="width: 1em;height: 1em;vertical-align: middle;fill: currentColor;overflow: hidden;" viewBox="0 0 1024 1024" version="1.1" xmlns="http://www.w3.org/2000/svg" width="32" height="32"><path d="M862.117647 133.029647c14.546824 0 26.352941 11.776 26.352941 26.352941v702.735059a26.352941 26.352941 0 0 1-26.352941 26.352941H159.382588a26.352941 26.352941 0 0 1-26.352941-26.352941V159.382588c0-14.576941 11.776-26.352941 26.352941-26.352941z m-140.559059 614.881882a26.413176 26.413176 0 0 0 15.510588-5.029647l0.421648-0.301176 0.783058-0.632471a26.503529 26.503529 0 0 0 1.264942-1.114353l0.662588-0.602353a26.834824 26.834824 0 0 0 6.354823-10.270117 26.473412 26.473412 0 0 0 1.355294-8.402824v-210.823529l-0.180705-3.312941a26.352941 26.352941 0 0 0-26.172236-23.04l-3.312941 0.210823a26.352941 26.352941 0 0 0-23.04 26.142118v147.184941l-165.827765-165.797647-2.710588-2.379294a26.352941 26.352941 0 0 0-34.544941 39.634823l165.797647 165.827765h-147.184941l-3.312941 0.210824a26.352941 26.352941 0 0 0 3.312941 52.495058zM370.206118 133.029647l-3.312942 0.180706a26.352941 26.352941 0 0 0-23.04 26.172235l-0.030117 184.440471H159.382588l-3.312941 0.210823a26.352941 26.352941 0 0 0 3.312941 52.525177h210.82353l3.312941-0.210824a26.352941 26.352941 0 0 0 23.04-26.142117v-210.82353l-0.210824-3.312941a26.352941 26.352941 0 0 0-26.142117-23.04z" fill="#568af2" /><path d="M159.382588 168.146824c13.432471 0 24.515765 10.059294 26.142118 23.070117l0.210823 3.312941v351.352471a26.352941 26.352941 0 0 1-52.525176 3.312941l-0.180706-3.312941V194.499765c0-14.546824 11.776-26.352941 26.352941-26.352941zM563.440941 133.029647a26.352941 26.352941 0 0 1 3.312941 52.495059l-3.312941 0.210823H212.088471a26.352941 26.352941 0 0 1-3.312942-52.525176l3.312942-0.180706h351.35247z" fill="#568af2" /></svg>