<svg class="icon" style="width: 1em;height: 1em;vertical-align: middle;fill: currentColor;overflow: hidden;" viewBox="0 0 1024 1024" version="1.1" xmlns="http://www.w3.org/2000/svg" width="32" height="32"><path d="M308.705882 668.852706a26.352941 26.352941 0 0 1 3.312942 52.525176l-3.312942 0.180706H229.647059v79.058824a26.352941 26.352941 0 0 1-23.04 26.172235l-3.312941 0.180706a26.352941 26.352941 0 0 1-26.142118-23.04l-0.210824-3.312941v-105.411765c0-13.432471 10.059294-24.515765 23.04-26.142118l3.312942-0.210823h105.411764zM695.205647 668.852706c13.432471 0 24.545882 10.059294 26.172235 23.070118l0.180706 3.312941v79.028706h79.058824c13.432471 0 24.545882 10.059294 26.172235 23.070117l0.180706 3.312941a26.352941 26.352941 0 0 1-23.04 26.142118l-3.312941 0.180706h-105.411765a26.352941 26.352941 0 0 1-26.142118-23.04l-0.210823-3.312941v-105.411765c0-14.546824 11.806118-26.352941 26.352941-26.352941zM800.617412 176.941176c13.432471 0 24.545882 10.059294 26.172235 23.04l0.180706 3.312942v105.411764a26.352941 26.352941 0 0 1-23.04 26.142118l-3.312941 0.210824h-105.411765a26.352941 26.352941 0 0 1-3.312941-52.495059l3.312941-0.210824h79.058824V203.294118c0-13.432471 10.059294-24.515765 23.070117-26.142118l3.312941-0.210824zM308.705882 176.941176c13.432471 0 24.515765 10.059294 26.142118 23.04l0.210824 3.312942v105.411764a26.352941 26.352941 0 0 1-52.495059 3.312942l-0.210824-3.312942V229.647059H203.294118a26.352941 26.352941 0 0 1-26.142118-23.04l-0.210824-3.312941c0-13.432471 10.059294-24.515765 23.04-26.142118l3.312942-0.210824h105.411764z" fill="#568af2" /><path d="M294.189176 186.458353a26.352941 26.352941 0 0 1 29.033412 43.971765 324.668235 324.668235 0 0 0-146.281412 271.540706c0 16.444235 1.204706 32.737882 3.614118 48.790588a26.352941 26.352941 0 0 1-52.103529 7.830588 380.536471 380.536471 0 0 1-4.216471-56.621176c0-128.512 64.692706-246.061176 169.953882-315.512471zM193.957647 673.219765a26.352941 26.352941 0 0 1 36.502588 7.469176 324.668235 324.668235 0 0 0 271.510589 146.281412c16.444235 0 32.737882-1.204706 48.790588-3.614118a26.352941 26.352941 0 0 1 7.830588 52.10353c-18.642824 2.800941-37.556706 4.216471-56.621176 4.21647-128.512 0-246.061176-64.692706-315.512471-169.953882a26.352941 26.352941 0 0 1 7.499294-36.502588zM845.492706 423.183059a26.352941 26.352941 0 0 1 29.967059 22.166588c2.800941 18.612706 4.216471 37.526588 4.21647 56.621177a377.374118 377.374118 0 0 1-169.953882 315.482352 26.352941 26.352941 0 0 1-29.033412-43.971764 324.668235 324.668235 0 0 0 146.281412-271.510588c0-16.474353-1.204706-32.768-3.614118-48.790589a26.352941 26.352941 0 0 1 22.136471-29.997176zM501.970824 124.235294a377.374118 377.374118 0 0 1 315.482352 169.953882 26.352941 26.352941 0 1 1-43.971764 29.033412 324.668235 324.668235 0 0 0-271.510588-146.281412c-16.474353 0-32.768 1.204706-48.790589 3.614118a26.352941 26.352941 0 0 1-7.830588-52.103529c18.612706-2.800941 37.526588-4.216471 56.621177-4.216471z" fill="#568af2" /></svg>