<svg class="icon" style="width: 1em;height: 1em;vertical-align: middle;fill: currentColor;overflow: hidden;" viewBox="0 0 1024 1024" version="1.1" xmlns="http://www.w3.org/2000/svg" width="32" height="32"><path d="M853.323294 335.058824c14.576941 0 26.352941 11.806118 26.352941 26.352941 0 188.867765-145.167059 342.588235-324.999529 342.588235-46.983529 0-92.551529-10.541176-134.384941-30.539294C305.031529 618.224941 229.647059 496.941176 229.647059 361.411765a26.352941 26.352941 0 1 1 52.705882 0c0 115.350588 63.849412 218.112 160.707765 264.493176a257.295059 257.295059 0 0 0 111.616 25.389177c150.046118 0 272.293647-129.445647 272.293647-289.882353 0-14.546824 11.806118-26.352941 26.352941-26.352941z" fill="#568af2" /><path d="M234.917647 345.6a26.352941 26.352941 0 0 1 32.075294-8.131765l2.981647 1.596236 140.528941 87.853176a26.352941 26.352941 0 0 1-24.997647 46.260706l-2.921411-1.566118-120.018824-75.053176L171.670588 517.782588a26.352941 26.352941 0 0 1-33.882353 7.228236l-3.011764-1.957648a26.352941 26.352941 0 0 1-7.228236-33.91247l1.957647-3.011765 105.411765-140.528941z" fill="#568af2" /></svg>