<svg class="icon" style="width: 1em;height: 1em;vertical-align: middle;fill: currentColor;overflow: hidden;" viewBox="0 0 1024 1024" version="1.1" xmlns="http://www.w3.org/2000/svg" width="32" height="32"><path d="M440.289882 162.063059a26.292706 26.292706 0 0 1 7.710118 19.486117v633.374118a26.352941 26.352941 0 0 1-52.495059 3.312941l-0.210823-3.312941V244.314353l-165.827765 165.888a26.352941 26.352941 0 0 1-39.634824-34.575059l2.349177-2.710588 210.823529-210.82353a26.352941 26.352941 0 0 1 37.285647 0z m153.690353 680.779294l-1.024-0.150588a26.172235 26.172235 0 0 1-14.245647-7.348706l-0.602353-0.602353a26.503529 26.503529 0 0 1-1.14447-1.325177l1.746823 1.92753a26.563765 26.563765 0 0 1-4.306823-5.632l-0.331294-0.602353a26.232471 26.232471 0 0 1-3.102118-12.408471v-632.470588a26.352941 26.352941 0 0 1 52.525176-3.312941l0.180706 3.312941v568.832l165.857883-165.797647a26.352941 26.352941 0 0 1 39.604706 34.544941l-2.349177 2.710588-210.823529 210.82353-0.662589 0.63247a26.503529 26.503529 0 0 1-1.264941 1.114353l1.92753-1.746823a26.563765 26.563765 0 0 1-15.269647 7.529412l-3.373177 0.180705-3.343059-0.210823z" fill="#568af2" /></svg>