<svg class="icon" style="width: 1em;height: 1em;vertical-align: middle;fill: currentColor;overflow: hidden;" viewBox="0 0 1024 1024" version="1.1" xmlns="http://www.w3.org/2000/svg" width="32" height="32"><path d="M356.382118 214.588235a96.617412 96.617412 0 1 0 0 193.264941 96.617412 96.617412 0 0 0 0-193.264941z m0 52.705883a43.911529 43.911529 0 1 1 0 87.853176 43.911529 43.911529 0 0 1 0-87.853176zM690.206118 214.588235a96.617412 96.617412 0 1 0 0 193.264941 96.617412 96.617412 0 0 0 0-193.264941z m0 52.705883a43.911529 43.911529 0 1 1 0 87.853176 43.911529 43.911529 0 0 1 0-87.853176z" fill="#568af2" /><path d="M286.117647 284.852706a26.352941 26.352941 0 0 1 3.312941 52.525176l-3.312941 0.180706H180.705882a26.352941 26.352941 0 0 1-3.312941-52.495059L180.705882 284.852706h105.411765zM619.911529 284.852706a26.352941 26.352941 0 0 1 3.312942 52.525176l-3.312942 0.180706h-193.234823a26.352941 26.352941 0 0 1-3.312941-52.495059l3.312941-0.210823h193.234823zM883.440941 284.852706a26.352941 26.352941 0 0 1 3.312941 52.525176l-3.312941 0.180706H760.470588a26.352941 26.352941 0 0 1-3.312941-52.495059l3.312941-0.210823h122.970353zM267.474824 573.680941a26.352941 26.352941 0 0 1 39.634823 34.575059l-2.349176 2.710588-86.799059 86.738824 86.799059 86.799059c9.426824 9.426824 10.24 24.244706 2.349176 34.575058l-2.349176 2.710589a26.352941 26.352941 0 0 1-34.575059 2.349176l-2.710588-2.379294-105.411765-105.411765a26.352941 26.352941 0 0 1-2.349177-34.544941l2.349177-2.710588 105.411765-105.411765z" fill="#568af2" /><path d="M883.440941 671.382588a26.352941 26.352941 0 0 1 3.312941 52.495059l-3.312941 0.210824H180.705882a26.352941 26.352941 0 0 1-3.312941-52.525177l3.312941-0.180706h702.735059z" fill="#568af2" /></svg>