<svg class="icon" style="width: 1em;height: 1em;vertical-align: middle;fill: currentColor;overflow: hidden;" viewBox="0 0 1024 1024" version="1.1" xmlns="http://www.w3.org/2000/svg" width="32" height="32"><path d="M571.392 177.182118l2.620235 4.156235 103.81553 179.832471 8.402823-31.262118a26.352941 26.352941 0 0 1 51.561412 10.390588l-0.662588 3.252706-23.883294 89.208471a26.503529 26.503529 0 0 1-2.349177 8.282353l0.512-1.505883a26.352941 26.352941 0 0 1-29.033412 19.275294l-3.252705-0.63247-95.984942-25.720471a26.352941 26.352941 0 0 1 10.390589-51.561412l3.252705 0.662589 37.797648 10.119529-106.224942-184.018824a8.794353 8.794353 0 0 0-14.064941-1.536l-1.264941 1.807059-93.123765 172.905412a26.352941 26.352941 0 0 1-47.796706-21.985882l1.385412-3.011765 93.123765-172.905412c22.046118-40.96 79.209412-43.188706 104.779294-5.75247zM513.987765 802.334118l-0.813177-1.626353a26.202353 26.202353 0 0 1 1.084236-23.642353 19.034353 19.034353 0 0 1 1.987764-3.041883l0.602353-0.783058a26.503529 26.503529 0 0 1 1.204706-1.325177l0.572235-0.602353 70.264471-70.26447a26.352941 26.352941 0 0 1 39.634823 34.575058l-2.379294 2.710589-25.298823 25.268706h224.88847c6.204235 0 10.24-6.113882 8.342589-11.595295l-0.843294-1.807058-107.610353-174.832942a26.352941 26.352941 0 0 1 42.977882-30.32847l1.927529 2.710588 107.580236 174.832941c24.395294 39.664941-2.409412 90.352941-47.766589 93.57553l-4.608 0.150588h-224.858353l25.298824 25.298823c9.426824 9.426824 10.209882 24.244706 2.349176 34.575059l-2.379294 2.710588a26.352941 26.352941 0 0 1-34.544941 2.349177l-2.710588-2.379294-70.264471-70.264471-0.481882-0.481882a26.503529 26.503529 0 0 1-1.355294-1.505882l1.807059 1.987764a26.563765 26.563765 0 0 1-4.276706-5.632l-0.331294-0.602353z m-187.632941-337.408l1.204705 0.030117a26.322824 26.322824 0 0 1 25.208471 24.907294l24.214588 90.593883a26.352941 26.352941 0 0 1-49.874823 16.805647l-1.054118-3.162353-9.246118-34.514824-112.218353 190.795294a8.794353 8.794353 0 0 0 5.421177 12.950589l2.168471 0.301176h184.530823a26.352941 26.352941 0 0 1 3.312941 52.464941l-3.312941 0.210824H212.178824c-46.019765 0-75.203765-48.399059-55.17553-88.666353l2.168471-4.005647 112.007529-190.433882-34.544941 9.276235a26.352941 26.352941 0 0 1-31.232-15.510588l-1.054118-3.132236a26.352941 26.352941 0 0 1 15.480471-31.232l3.162353-1.054117 95.984941-25.720471a26.503529 26.503529 0 0 1 5.180235-0.843294h0.512a12.830118 12.830118 0 0 1 1.656471-0.060235z" fill="#568af2" /></svg>