<svg class="icon" style="width: 1em;height: 1em;vertical-align: middle;fill: currentColor;overflow: hidden;" viewBox="0 0 1024 1024" version="1.1" xmlns="http://www.w3.org/2000/svg" width="32" height="32"><path d="M413.063529 563.651765a26.352941 26.352941 0 0 1 34.544942-2.379294l2.710588 2.379294 70.26447 70.26447c9.456941 9.426824 10.24 24.244706 2.379295 34.575059l-2.379295 2.710588-70.26447 70.264471a26.352941 26.352941 0 0 1-39.634824-34.575059l2.379294-2.710588 51.59153-51.651765-51.59153-51.621647a26.352941 26.352941 0 0 1-2.379294-34.575059l2.379294-2.710588z" fill="#568af2" /><path d="M501.970824 274.823529c206.727529 0 377.705412 85.504 377.705411 202.029177 0 86.377412-93.876706 156.762353-231.54447 186.819765a26.352941 26.352941 0 1 1-11.233883-51.501177c116.314353-25.389176 190.072471-80.685176 190.072471-135.318588 0-77.492706-143.661176-149.323294-324.999529-149.323294-181.368471 0-325.029647 71.830588-325.029648 149.323294 0 77.522824 143.661176 149.353412 325.029648 149.353412a26.352941 26.352941 0 0 1 0 52.705882c-206.757647 0-377.735529-85.504-377.73553-202.059294 0-116.555294 170.977882-202.029176 377.73553-202.029177z" fill="#568af2" /></svg>