<svg class="icon" style="width: 1em;height: 1em;vertical-align: middle;fill: currentColor;overflow: hidden;" viewBox="0 0 1024 1024" version="1.1" xmlns="http://www.w3.org/2000/svg" width="32" height="32"><path d="M853.323294 686.441412c13.432471 0 24.545882 10.029176 26.172235 23.04l0.180706 3.312941V783.058824c0 51.501176-40.327529 93.635765-91.136 96.466823l-5.481411 0.150588H220.852706a96.617412 96.617412 0 0 1-96.466824-91.136L124.235294 783.058824v-70.264471a26.352941 26.352941 0 0 1 52.495059-3.312941l0.210823 3.312941V783.058824c0 22.829176 17.408 41.592471 39.695059 43.730823l4.216471 0.180706H783.058824c22.829176 0 41.592471-17.408 43.730823-39.695059l0.180706-4.21647v-70.264471c0-14.576941 11.806118-26.352941 26.352941-26.352941z m0-357.76753a26.352941 26.352941 0 0 1 3.312941 52.495059l-3.312941 0.210824H783.058824c-22.829176 0-41.592471 17.438118-43.730824 39.695059l-0.180706 4.21647-0.030118 171.158588 25.298824-25.298823a26.352941 26.352941 0 0 1 39.634824 34.575059l-2.349177 2.710588-70.294588 70.26447a26.352941 26.352941 0 0 1-34.544941 2.379295l-2.710589-2.379295-70.26447-70.26447a26.352941 26.352941 0 0 1 34.544941-39.634824l2.710588 2.379294 25.268706 25.238589v-171.098353c0-51.531294 40.357647-93.665882 91.166118-96.496941l5.481412-0.150589h70.26447z m-632.470588 0a96.617412 96.617412 0 0 1 96.496941 91.166118l0.150588 5.481412-0.030117 171.12847 25.298823-25.298823a26.352941 26.352941 0 0 1 39.634824 34.575059l-2.349177 2.710588-70.294588 70.26447a26.352941 26.352941 0 0 1-34.544941 2.379295l-2.710588-2.379295-70.264471-70.26447a26.352941 26.352941 0 0 1 34.544941-39.634824l2.710588 2.379294 25.268706 25.238589v-171.098353c0-22.829176-17.408-41.592471-39.664941-43.730824l-4.21647-0.210823H150.588235a26.352941 26.352941 0 0 1-3.312941-52.495059l3.312941-0.210824h70.264471z m281.118118-204.438588c13.432471 0 24.515765 10.059294 26.142117 23.04l0.210824 3.312941-0.030118 217.47953 25.298824-25.298824a26.352941 26.352941 0 0 1 39.634823 34.575059l-2.349176 2.710588-70.294589 70.264471-0.602353 0.602353-0.662588 0.602353-0.271059 0.180706-0.210823 0.180705-1.385412 1.114353-1.626353 1.084236-1.14447 0.692706a27.497412 27.497412 0 0 1-1.746824 0.873411l-1.264941 0.542118a26.142118 26.142118 0 0 1-22.287059-1.355294 24.756706 24.756706 0 0 1-3.343059-2.168471l-0.783059-0.602353-1.264941-1.114353-0.662588-0.602353-70.264471-70.294588a26.352941 26.352941 0 0 1 34.544942-39.634823l2.710588 2.349176 25.268706 25.268706V150.588235c0-14.546824 11.806118-26.352941 26.383059-26.352941z" fill="#568af2" /></svg>