<svg class="icon" style="width: 1em;height: 1em;vertical-align: middle;fill: currentColor;overflow: hidden;" viewBox="0 0 1024 1024" version="1.1" xmlns="http://www.w3.org/2000/svg" width="32" height="32"><path d="M0 0h1024v1024H0z" fill="#568af2" fill-opacity="0" /><path d="M648.975059 372.886588a26.352941 26.352941 0 0 1 39.634823 34.575059l-2.379294 2.710588-140.528941 140.528941a26.352941 26.352941 0 0 1-34.575059 2.379295l-2.710588-2.379295-140.528941-140.528941a26.352941 26.352941 0 0 1 34.544941-39.634823l2.710588 2.349176L527.058824 494.832941l121.916235-121.916235zM737.882353 786.823529a26.352941 26.352941 0 0 1 3.312941 52.495059l-3.312941 0.210824h-421.647059a26.352941 26.352941 0 0 1-3.312941-52.495059l3.312941-0.210824h421.647059zM843.294118 646.264471a26.352941 26.352941 0 0 1 3.312941 52.525176l-3.312941 0.180706H210.823529a26.352941 26.352941 0 0 1-3.312941-52.495059l3.312941-0.210823h632.470589z" fill="#568af2" /><path d="M527.058824 154.352941c13.432471 0 24.515765 10.059294 26.142117 23.04l0.210824 3.312941v351.382589a26.352941 26.352941 0 0 1-52.495059 3.312941l-0.210824-3.312941V180.705882c0-14.546824 11.806118-26.352941 26.352942-26.352941z" fill="#568af2" /></svg>