<svg class="icon" style="width: 1em;height: 1em;vertical-align: middle;fill: currentColor;overflow: hidden;" viewBox="0 0 1024 1024" version="1.1" xmlns="http://www.w3.org/2000/svg" width="32" height="32"><path d="M0 0h1024v1024H0z" fill="#568af2" fill-opacity="0" /><path d="M641.445647 360.357647a26.352941 26.352941 0 0 1 39.634824 34.544941l-2.379295 2.710588-298.646588 298.676706a26.352941 26.352941 0 0 1-39.634823-34.575058l2.349176-2.710589 298.676706-298.646588z" fill="#568af2" /><path d="M361.411765 335.058824c13.432471 0 24.515765 10.059294 26.142117 23.04l0.210824 3.312941v289.882353H677.647059c13.432471 0 24.515765 10.059294 26.142117 23.04l0.210824 3.312941a26.352941 26.352941 0 0 1-23.04 26.142117l-3.312941 0.210824H361.411765a26.352941 26.352941 0 0 1-26.142118-23.04l-0.210823-3.312941V361.411765c0-14.546824 11.806118-26.352941 26.352941-26.352941z" fill="#568af2" /></svg>