<svg class="icon" style="width: 1em;height: 1em;vertical-align: middle;fill: currentColor;overflow: hidden;" viewBox="0 0 1024 1024" version="1.1" xmlns="http://www.w3.org/2000/svg" width="32" height="32"><path d="M409.088 184.470588a26.352941 26.352941 0 0 1 3.312941 52.495059l-3.312941 0.210824H233.411765a26.352941 26.352941 0 0 0-26.142118 23.04l-0.210823 3.312941v527.058823c0 13.432471 10.059294 24.515765 23.04 26.142118l3.312941 0.210823h527.058823a26.352941 26.352941 0 0 0 26.142118-23.04l0.210823-3.312941v-175.676235a26.352941 26.352941 0 0 1 52.495059-3.312941l0.210824 3.312941v175.676235a79.058824 79.058824 0 0 1-74.059294 78.908236l-4.99953 0.150588H233.411765a79.058824 79.058824 0 0 1-78.908236-74.059294l-0.150588-4.99953V263.529412a79.058824 79.058824 0 0 1 74.059294-78.908236l4.99953-0.150588h175.676235z" fill="#568af2" /><path d="M734.569412 203.384471a26.352941 26.352941 0 0 1 32.105412 13.613176l1.204705 3.072 70.294589 210.823529a26.352941 26.352941 0 0 1-48.760471 19.727059l-1.234823-3.072-61.952-185.825882-185.825883 61.952a26.352941 26.352941 0 0 1-32.075294-13.613177l-1.234823-3.072a26.352941 26.352941 0 0 1 13.583058-32.075294l3.072-1.234823 210.82353-70.294588z" fill="#568af2" /><path d="M717.914353 220.069647a26.352941 26.352941 0 0 1 49.995294 16.655059l-8.493176 25.148235-4.186353 12.107294-8.252236 23.341177-8.101647 22.166588-8.011294 21.022118-7.981176 19.968c-55.717647 136.131765-110.170353 196.427294-218.352941 249.133176l-15.841883 7.499294-16.594823 7.408941-17.408 7.408942-18.221177 7.439058a26.352941 26.352941 0 0 1-19.57647-48.941176l16.986353-6.927059 16.173176-6.836706c10.511059-4.547765 20.48-9.095529 29.997176-13.703529l13.884236-6.927059c79.058824-40.749176 123.392-87.672471 166.550588-183.145412l7.378824-16.865882c2.439529-5.782588 4.909176-11.715765 7.378823-17.829647l7.469177-18.913883 7.529411-19.968 7.68-21.142588 7.830589-22.287059 8.041411-23.582117 4.126118-12.227765z" fill="#568af2" /></svg>