<svg class="icon" style="width: 1em;height: 1em;vertical-align: middle;fill: currentColor;overflow: hidden;" viewBox="0 0 1024 1024" version="1.1" xmlns="http://www.w3.org/2000/svg" width="32" height="32"><path d="M362.857412 423.092706a26.352941 26.352941 0 0 1 39.634823 34.575059l-2.379294 2.710588-121.916235 121.886118 121.916235 121.916235c9.456941 9.456941 10.24 24.244706 2.379294 34.575059l-2.379294 2.710588a26.352941 26.352941 0 0 1-34.544941 2.349176l-2.710588-2.349176-140.559059-140.559059a26.352941 26.352941 0 0 1-2.349177-34.575059l2.349177-2.710588 140.559059-140.528941z" fill="#568af2" /><path d="M803.147294 274.823529c13.432471 0 24.515765 10.059294 26.142118 23.04l0.210823 3.312942v228.382117a79.058824 79.058824 0 0 1-74.089411 78.908236l-4.969412 0.150588H240.941176a26.352941 26.352941 0 0 1-3.312941-52.495059l3.312941-0.210824h509.500236a26.352941 26.352941 0 0 0 26.142117-23.04l0.210824-3.312941V301.176471c0-14.546824 11.776-26.352941 26.352941-26.352942z" fill="#568af2" /></svg>