<svg class="icon" style="width: 1em;height: 1em;vertical-align: middle;fill: currentColor;overflow: hidden;" viewBox="0 0 1024 1024" version="1.1" xmlns="http://www.w3.org/2000/svg" width="32" height="32"><path d="M360.357647 360.357647a26.352941 26.352941 0 0 1 34.544941-2.379294l2.710588 2.379294 298.676706 298.646588a26.352941 26.352941 0 0 1-34.575058 39.634824l-2.710589-2.349177-298.646588-298.676706a26.352941 26.352941 0 0 1 0-37.255529z" fill="#568af2" /><path d="M677.647059 335.058824c13.432471 0 24.515765 10.059294 26.142117 23.04l0.210824 3.312941v316.235294a26.352941 26.352941 0 0 1-23.04 26.142117l-3.312941 0.210824H361.411765a26.352941 26.352941 0 0 1-3.312941-52.495059l3.312941-0.210823h289.882353V361.411765c0-13.432471 10.059294-24.515765 23.04-26.142118l3.312941-0.210823z" fill="#568af2" /></svg>