<svg class="icon" style="width: 1em;height: 1em;vertical-align: middle;fill: currentColor;overflow: hidden;" viewBox="0 0 1024 1024" version="1.1" xmlns="http://www.w3.org/2000/svg" width="32" height="32"><path d="M532.088471 124.235294c208.594824 0 377.705412 169.110588 377.705411 377.73553 0 208.594824-169.110588 377.705412-377.705411 377.705411-208.624941 0-377.735529-169.110588-377.73553-377.705411 0-208.624941 169.110588-377.735529 377.73553-377.73553z m6.987294 207.390118a26.352941 26.352941 0 0 0-34.575059 2.379294l-2.349177 2.710588a26.352941 26.352941 0 0 0 2.349177 34.544941l113.091765 113.121883H365.025882l-3.312941 0.210823a26.352941 26.352941 0 0 0 3.312941 52.495059h252.566589l-113.091765 113.152-2.349177 2.710588a26.352941 26.352941 0 0 0 39.634824 34.544941l158.117647-158.117647 0.421647-0.451764a26.503529 26.503529 0 0 0 1.385412-1.566118l0.542117-0.692706a26.322824 26.322824 0 0 0 0.331295-31.412706l-0.301177-0.451764-0.572235-0.692706a26.503529 26.503529 0 0 0-1.385412-1.566118l-0.421647-0.421647-158.117647-158.117647z" fill="#568af2" /></svg>