<svg class="icon" style="width: 1em;height: 1em;vertical-align: middle;fill: currentColor;overflow: hidden;" viewBox="0 0 1024 1024" version="1.1" xmlns="http://www.w3.org/2000/svg" width="32" height="32"><path d="M704.180706 282.533647a26.352941 26.352941 0 0 1 39.634823 34.575059l-2.349176 2.710588-210.823529 210.82353a26.352941 26.352941 0 0 1-34.575059 2.349176l-2.710589-2.349176-210.823529-210.82353a26.352941 26.352941 0 0 1 34.575059-39.634823l2.710588 2.349176L512 474.744471l192.180706-192.210824z" fill="#568af2" /><path d="M704.180706 493.357176a26.352941 26.352941 0 0 1 39.634823 34.575059l-2.349176 2.710589-210.823529 210.823529a26.352941 26.352941 0 0 1-34.575059 2.349176l-2.710589-2.349176-210.823529-210.823529a26.352941 26.352941 0 0 1 34.575059-39.634824l2.710588 2.349176L512 685.568l192.180706-192.210824z" fill="#568af2" /></svg>