<svg class="icon" style="width: 1em;height: 1em;vertical-align: middle;fill: currentColor;overflow: hidden;" viewBox="0 0 1024 1024" version="1.1" xmlns="http://www.w3.org/2000/svg" width="32" height="32"><path d="M795.617882 480.617412c13.432471 0 24.515765 10.059294 26.142118 23.070117l0.210824 3.312942v210.823529a26.352941 26.352941 0 0 1-23.070118 26.112l-3.312941 0.210824h-210.82353a26.352941 26.352941 0 0 1-3.312941-52.495059l3.312941-0.210824h184.470589v-184.470588c0-13.432471 10.059294-24.515765 23.070117-26.142118l3.312941-0.210823z" fill="#568af2" /><path d="M163.900235 310.994824a26.352941 26.352941 0 0 1 34.635294 0.903529l2.469647 2.590118 167.092706 202.029176 153.509647-93.545412a26.352941 26.352941 0 0 1 30.057412 1.837177l2.710588 2.469647 260.276706 272.323765a26.352941 26.352941 0 0 1-35.44847 38.851764l-2.650353-2.439529-245.669647-256.993883-154.804706 94.388706a26.352941 26.352941 0 0 1-31.62353-3.162353l-2.409411-2.56-181.63953-219.587764a26.352941 26.352941 0 0 1 3.493647-37.104941z" fill="#568af2" /></svg>