<svg class="icon" style="width: 1em;height: 1em;vertical-align: middle;fill: currentColor;overflow: hidden;" viewBox="0 0 1024 1024" version="1.1" xmlns="http://www.w3.org/2000/svg" width="32" height="32"><path d="M0 0h1024v1024H0z" fill="#568af2" fill-opacity="0" /><path d="M527.962353 309.037176l2.680471 2.379295 210.823529 210.823529a26.352941 26.352941 0 0 1-34.575059 39.604706l-2.710588-2.349177-165.707294-165.707294v428.182589a26.352941 26.352941 0 0 1-52.464941 3.312941l-0.210824-3.312941-0.030118-428.42353-165.948235 165.948235a26.352941 26.352941 0 0 1-34.575059 2.349177l-2.710588-2.349177a26.352941 26.352941 0 0 1-2.349176-34.575058l2.349176-2.710589 210.823529-210.823529a26.352941 26.352941 0 0 1 34.575059-2.349177zM722.823529 163.147294a26.352941 26.352941 0 0 1 3.312942 52.495059l-3.312942 0.210823H301.176471a26.352941 26.352941 0 0 1-3.312942-52.525176l3.312942-0.180706h421.647058z" fill="#568af2" /></svg>