<svg class="icon" style="width: 1em;height: 1em;vertical-align: middle;fill: currentColor;overflow: hidden;" viewBox="0 0 1024 1024" version="1.1" xmlns="http://www.w3.org/2000/svg" width="32" height="32"><path d="M672.828235 282.533647a26.352941 26.352941 0 0 1 39.604706 34.575059l-2.349176 2.710588L517.903059 512l192.180706 192.180706c9.426824 9.456941 10.24 24.244706 2.349176 34.575059l-2.349176 2.710588a26.352941 26.352941 0 0 1-34.575059 2.349176l-2.710588-2.349176-210.82353-210.823529a26.352941 26.352941 0 0 1-2.349176-34.575059l2.379294-2.710589 210.823529-210.823529zM340.088471 274.823529c13.432471 0 24.515765 10.059294 26.142117 23.04l0.210824 3.312942v421.647058a26.352941 26.352941 0 0 1-52.525177 3.312942l-0.180706-3.312942V301.176471c0-14.546824 11.776-26.352941 26.352942-26.352942z" fill="#568af2" /></svg>