<svg class="icon" style="width: 1em;height: 1em;vertical-align: middle;fill: currentColor;overflow: hidden;" viewBox="0 0 1024 1024" version="1.1" xmlns="http://www.w3.org/2000/svg" width="32" height="32"><path d="M0 0h1024v1024H0z" fill="#568af2" fill-opacity="0" /><path d="M843.294118 606.117647c13.432471 0 24.515765 10.059294 26.142117 23.04l0.210824 3.312941v210.82353a26.352941 26.352941 0 0 1-23.04 26.142117l-3.312941 0.210824h-210.82353a26.352941 26.352941 0 0 1-3.312941-52.495059l3.312941-0.210824h184.470588V632.470588c0-13.432471 10.059294-24.515765 23.04-26.142117l3.312942-0.210824zM843.294118 184.470588c13.432471 0 24.515765 10.059294 26.142117 23.04l0.210824 3.312941v210.82353a26.352941 26.352941 0 0 1-52.495059 3.312941l-0.210824-3.312941V237.176471H632.470588a26.352941 26.352941 0 0 1-26.142117-23.04L606.117647 210.823529c0-13.432471 10.059294-24.515765 23.04-26.142117l3.312941-0.210824h210.82353z" fill="#568af2" /><path d="M824.651294 192.180706a26.352941 26.352941 0 0 1 39.634824 34.575059l-2.349177 2.710588-632.470588 632.470588a26.352941 26.352941 0 0 1-39.634824-34.575059l2.349177-2.710588 632.470588-632.470588z" fill="#568af2" /></svg>