<svg class="icon" style="width: 1em;height: 1em;vertical-align: middle;fill: currentColor;overflow: hidden;" viewBox="0 0 1024 1024" version="1.1" xmlns="http://www.w3.org/2000/svg" width="32" height="32"><path d="M790.588235 184.470588a79.058824 79.058824 0 0 1 79.058824 79.058824v527.058823a79.058824 79.058824 0 0 1-79.058824 79.058824H263.529412a79.058824 79.058824 0 0 1-79.058824-79.058824V263.529412A79.058824 79.058824 0 0 1 263.529412 184.470588z m-263.529411 245.970824a26.352941 26.352941 0 0 0-26.352942 26.352941l-0.030117 217.419294-95.533177-95.503059-2.710588-2.379294a26.352941 26.352941 0 0 0-34.544941 39.634824l140.528941 140.559058 2.710588 2.349177a26.352941 26.352941 0 0 0 34.575059-2.349177l140.528941-140.559058 2.379294-2.710589a26.352941 26.352941 0 0 0-39.634823-34.544941l-95.593412 95.563294 0.030118-217.479529-0.210824-3.312941a26.352941 26.352941 0 0 0-26.142117-23.04z m140.559058-105.411765h-281.118117l-3.312941 0.180706a26.352941 26.352941 0 0 0 3.312941 52.525176h281.118117l3.312942-0.210823a26.352941 26.352941 0 0 0-3.312942-52.495059z" fill="#568af2" /></svg>