<svg class="icon" style="width: 1em;height: 1em;vertical-align: middle;fill: currentColor;overflow: hidden;" viewBox="0 0 1024 1024" version="1.1" xmlns="http://www.w3.org/2000/svg" width="32" height="32"><path d="M0 0h1024v1024H0z" fill="#568af2" fill-opacity="0" /><path d="M279.371294 430.893176a26.352941 26.352941 0 0 1 12.197647 51.260236 149.383529 149.383529 0 1 0 75.535059 288.978823 26.352941 26.352941 0 0 1 14.366118 50.718118 202.029176 202.029176 0 0 1-102.098824-390.957177zM688.097882 450.439529a26.352941 26.352941 0 0 1 31.744-19.57647 202.089412 202.089412 0 1 1-102.098823 390.987294 26.352941 26.352941 0 1 1 14.396235-50.718118 149.323294 149.323294 0 0 0 75.535059-288.978823 26.352941 26.352941 0 0 1-19.576471-31.713883z" fill="#568af2" /><path d="M501.970824 214.588235A237.176471 237.176471 0 0 1 739.147294 451.764706a26.352941 26.352941 0 0 1-52.705882 0 184.470588 184.470588 0 0 0-368.941177 0 26.352941 26.352941 0 0 1-52.705882 0 237.176471 237.176471 0 0 1 237.176471-237.176471zM608.677647 608.737882a26.352941 26.352941 0 0 1 39.514353 34.725647l-2.379294 2.710589-125.289412 124.295529a26.352941 26.352941 0 0 1-34.544941 2.258824l-2.710588-2.349177-121.795765-122.247529a26.352941 26.352941 0 0 1 34.635294-39.544471l2.710588 2.349177 103.243294 103.604705 106.616471-105.803294z" fill="#568af2" /><path d="M501.970824 425.411765c13.432471 0 24.515765 10.059294 26.142117 23.04l0.210824 3.312941v237.839059a26.352941 26.352941 0 0 1-52.525177 3.312941l-0.180706-3.312941V451.764706c0-14.546824 11.776-26.352941 26.352942-26.352941z" fill="#568af2" /></svg>