<svg class="icon" style="width: 1em;height: 1em;vertical-align: middle;fill: currentColor;overflow: hidden;" viewBox="0 0 1024 1024" version="1.1" xmlns="http://www.w3.org/2000/svg" width="32" height="32"><path d="M501.970824 124.235294c208.594824 0 377.705412 169.110588 377.705411 377.73553 0 208.594824-169.110588 377.705412-377.705411 377.705411-208.624941 0-377.735529-169.110588-377.73553-377.705411 0-208.624941 169.110588-377.735529 377.73553-377.73553z m15.932235 251.331765a26.352941 26.352941 0 0 0-34.575059 2.349176l-158.117647 158.117647-2.349177 2.710589a26.352941 26.352941 0 0 0 2.349177 34.544941l2.710588 2.379294a26.352941 26.352941 0 0 0 34.544941-2.379294l139.474824-139.474824 139.504941 139.474824 2.710588 2.379294a26.352941 26.352941 0 0 0 34.544941-39.634824l-158.117647-158.117647z" fill="#568af2" /></svg>