<svg class="icon" style="width: 1em;height: 1em;vertical-align: middle;fill: currentColor;overflow: hidden;" viewBox="0 0 1024 1024" version="1.1" xmlns="http://www.w3.org/2000/svg" width="32" height="32"><path d="M843.294118 184.470588c13.432471 0 24.515765 10.059294 26.142117 23.04l0.210824 3.312941v210.82353a26.352941 26.352941 0 0 1-52.495059 3.312941l-0.210824-3.312941V237.176471H632.470588a26.352941 26.352941 0 0 1-26.142117-23.04L606.117647 210.823529c0-13.432471 10.059294-24.515765 23.04-26.142117l3.312941-0.210824h210.82353zM421.647059 184.470588a26.352941 26.352941 0 0 1 3.312941 52.495059l-3.312941 0.210824H237.176471V421.647059a26.352941 26.352941 0 0 1-23.04 26.142117l-3.312942 0.210824a26.352941 26.352941 0 0 1-26.142117-23.04L184.470588 421.647059V210.823529c0-13.432471 10.059294-24.515765 23.04-26.142117L210.823529 184.470588h210.82353zM843.294118 606.117647c13.432471 0 24.515765 10.059294 26.142117 23.04l0.210824 3.312941v210.82353a26.352941 26.352941 0 0 1-23.04 26.142117l-3.312941 0.210824h-210.82353a26.352941 26.352941 0 0 1-3.312941-52.495059l3.312941-0.210824h184.470588V632.470588c0-13.432471 10.059294-24.515765 23.04-26.142117l3.312942-0.210824zM210.823529 606.117647c13.432471 0 24.515765 10.059294 26.142118 23.04l0.210824 3.312941v184.470588H421.647059c13.432471 0 24.515765 10.059294 26.142117 23.04l0.210824 3.312942a26.352941 26.352941 0 0 1-23.04 26.142117l-3.312941 0.210824H210.823529a26.352941 26.352941 0 0 1-26.142117-23.04L184.470588 843.294118v-210.82353c0-14.546824 11.806118-26.352941 26.352941-26.352941z" fill="#568af2" /><path d="M824.651294 192.180706a26.352941 26.352941 0 0 1 39.634824 34.575059l-2.349177 2.710588-228.412235 228.382118a26.352941 26.352941 0 0 1-39.604706-34.575059l2.349176-2.710588 228.382118-228.382118zM420.592941 596.269176a26.352941 26.352941 0 0 1 39.604706 34.575059l-2.349176 2.710589-228.382118 228.382117a26.352941 26.352941 0 0 1-39.634824-34.575059l2.349177-2.710588 228.412235-228.382118z" fill="#568af2" /></svg>