<svg class="icon" style="width: 1em;height: 1em;vertical-align: middle;fill: currentColor;overflow: hidden;" viewBox="0 0 1024 1024" version="1.1" xmlns="http://www.w3.org/2000/svg" width="32" height="32"><path d="M643.945412 282.533647a26.352941 26.352941 0 0 1 34.575059-2.349176l2.710588 2.349176 140.528941 140.559059c9.456941 9.426824 10.24 24.244706 2.379294 34.575059l-2.379294 2.710588-140.528941 140.528941a26.352941 26.352941 0 0 1-39.634824-34.575059l2.349177-2.710588 121.886117-121.916235-121.886117-121.886118a26.352941 26.352941 0 0 1-2.349177-34.575059l2.349177-2.710588z" fill="#568af2" /><path d="M803.147294 415.382588a26.352941 26.352941 0 0 1 3.312941 52.495059l-3.312941 0.210824H293.647059a26.352941 26.352941 0 0 0-26.142118 23.04l-0.210823 3.312941V722.823529a26.352941 26.352941 0 0 1-52.495059 3.312942L214.588235 722.823529v-228.382117a79.058824 79.058824 0 0 1 74.059294-78.908236l4.99953-0.150588h509.500235z" fill="#568af2" /></svg>