<svg class="icon" style="width: 1em;height: 1em;vertical-align: middle;fill: currentColor;overflow: hidden;" viewBox="0 0 1024 1024" version="1.1" xmlns="http://www.w3.org/2000/svg" width="32" height="32"><path d="M0 0h1024v1024H0z" fill="#568af2" fill-opacity="0" /><path d="M790.588235 184.470588a79.058824 79.058824 0 0 1 78.908236 74.059294l0.150588 4.99953v175.676235a26.352941 26.352941 0 0 1-52.495059 3.312941l-0.210824-3.312941V263.529412a26.352941 26.352941 0 0 0-23.04-26.142118l-3.312941-0.210823H263.529412a26.352941 26.352941 0 0 0-26.142118 23.04l-0.210823 3.312941v527.058823c0 13.432471 10.059294 24.515765 23.04 26.142118l3.312941 0.210823h175.676235a26.352941 26.352941 0 0 1 3.312941 52.495059l-3.312941 0.210824H263.529412a79.058824 79.058824 0 0 1-78.908236-74.059294l-0.150588-4.99953V263.529412a79.058824 79.058824 0 0 1 74.059294-78.908236l4.99953-0.150588h527.058823z" fill="#568af2" /><path d="M648.975059 508.416a26.352941 26.352941 0 0 1 39.634823 34.575059l-2.379294 2.710588-121.916235 121.886118 121.916235 121.946353c9.456941 9.426824 10.24 24.214588 2.379294 34.544941l-2.379294 2.710588a26.352941 26.352941 0 0 1-34.544941 2.349177l-2.710588-2.349177-140.559059-140.559059a26.352941 26.352941 0 0 1-2.349176-34.544941l2.349176-2.710588 140.559059-140.559059z" fill="#568af2" /><path d="M843.294118 641.264941a26.352941 26.352941 0 0 1 3.312941 52.495059l-3.312941 0.210824H527.058824a26.352941 26.352941 0 0 1-3.312942-52.525177l3.312942-0.180706H843.294118z" fill="#568af2" /></svg>