<svg class="icon" style="width: 1em;height: 1em;vertical-align: middle;fill: currentColor;overflow: hidden;" viewBox="0 0 1024 1024" version="1.1" xmlns="http://www.w3.org/2000/svg" width="32" height="32"><path d="M554.676706 335.058824c179.832471 0 324.999529 153.720471 324.999529 342.588235a26.352941 26.352941 0 1 1-52.705882 0c0-160.436706-122.277647-289.882353-272.293647-289.882353-39.002353 0-76.8 8.734118-111.616 25.389176-96.858353 46.381176-160.707765 149.142588-160.707765 264.493177a26.352941 26.352941 0 1 1-52.705882 0c0-135.529412 75.384471-256.813176 190.644706-312.018824a310.000941 310.000941 0 0 1 134.384941-30.569411z" fill="#568af2" /><path d="M134.776471 516.005647a26.352941 26.352941 0 0 1 34.544941 2.56l2.349176 2.710588 90.895059 121.193412 120.018824-74.992941a26.352941 26.352941 0 0 1 34.394353 5.662118l1.927529 2.710588a26.352941 26.352941 0 0 1-5.722353 34.364235l-2.680471 1.927529-140.528941 87.853177a26.352941 26.352941 0 0 1-32.858353-3.975529l-2.198588-2.56-105.411765-140.559059a26.352941 26.352941 0 0 1 5.270589-36.894118z" fill="#568af2" /></svg>