<svg class="icon" style="width: 1em;height: 1em;vertical-align: middle;fill: currentColor;overflow: hidden;" viewBox="0 0 1024 1024" version="1.1" xmlns="http://www.w3.org/2000/svg" width="32" height="32"><path d="M713.607529 154.352941c7.017412 0 13.643294 2.770824 18.552471 7.619765l2.288941 2.620235 89.027765 115.07953 0.481882 0.692705c8.734118 9.788235 14.366118 22.407529 15.390118 36.291765l0.180706 4.608v474.352941a79.058824 79.058824 0 0 1-74.059294 78.908236l-4.99953 0.150588H233.411765a79.058824 79.058824 0 0 1-78.908236-74.089412l-0.150588-4.969412v-474.352941c0-14.968471 5.330824-28.641882 14.185412-39.303529l1.596235-2.319059 89.298824-115.079529a26.352941 26.352941 0 0 1 17.377882-9.968942l3.46353-0.240941h433.332705z m-216.816941 245.970824a26.352941 26.352941 0 0 0-26.142117 23.04l-0.210824 3.312941v217.298823l-95.412706-95.382588-2.710588-2.379294a26.352941 26.352941 0 0 0-36.924235 36.924235l2.379294 2.710589 138.87247 138.902588a26.322824 26.322824 0 0 0 16.745412 9.155765l3.403294 0.210823h0.150588a26.503529 26.503529 0 0 0 15.932236-5.360941l2.710588-2.349177 140.528941-140.559058 2.379294-2.710589a26.352941 26.352941 0 0 0-36.924235-36.924235l-2.710588 2.379294-95.713883 95.683765v-217.6l-0.210823-3.312941a26.352941 26.352941 0 0 0-26.142118-23.04z m203.896471-193.264941H293.135059l-40.899765 52.705882h489.200941l-40.749176-52.705882z" fill="#568af2" /></svg>