<svg class="icon" style="width: 1em;height: 1em;vertical-align: middle;fill: currentColor;overflow: hidden;" viewBox="0 0 1024 1024" version="1.1" xmlns="http://www.w3.org/2000/svg" width="32" height="32"><path d="M375.115294 649.065412a26.352941 26.352941 0 0 1 2.198588 34.575059l-2.409411 2.710588-131.945412 130.590117h95.86447c13.432471 0 24.515765 10.059294 26.142118 23.04l0.210824 3.312942a26.352941 26.352941 0 0 1-23.04 26.142117l-3.312942 0.210824H180.705882a26.352941 26.352941 0 0 1-26.142117-23.04L154.352941 843.294118v-158.117647a26.352941 26.352941 0 0 1 52.495059-3.312942l0.210824 3.312942v93.153882l130.800941-129.445647a26.352941 26.352941 0 0 1 37.255529 0.180706z m280.094118-2.43953l2.710588 2.349177 128.903529 128.933647V685.176471c0-13.432471 10.059294-24.515765 23.04-26.142118l3.312942-0.210824c13.432471 0 24.515765 10.059294 26.142117 23.04l0.210824 3.312942V843.294118a26.352941 26.352941 0 0 1-23.04 26.142117l-3.312941 0.210824h-158.117647a26.352941 26.352941 0 0 1-3.312942-52.495059l3.312942-0.210824h96.256l-130.710589-130.710588a26.352941 26.352941 0 0 1 34.575059-39.604706zM813.176471 184.470588c13.432471 0 24.515765 10.059294 26.142117 23.04l0.210824 3.312941v158.117647a26.352941 26.352941 0 0 1-52.495059 3.312942l-0.210824-3.312942V272.655059l-130.710588 130.710588a26.352941 26.352941 0 0 1-39.604706-34.544941l2.349177-2.710588 128.903529-128.933647H655.058824a26.352941 26.352941 0 0 1-26.142118-23.04L628.705882 210.823529c0-13.432471 10.059294-24.515765 23.04-26.142117l3.312942-0.210824H813.176471z m-645.601883 3.493647a28.009412 28.009412 0 0 1 8.734118-3.132235 32.647529 32.647529 0 0 1 1.084235-0.150588l2.168471-0.180706a26.503529 26.503529 0 0 1 1.024-0.030118h158.238117a26.352941 26.352941 0 0 1 3.312942 52.495059l-3.312942 0.210824H244.766118l130.16847 128.843294a26.352941 26.352941 0 0 1-34.364235 39.785411l-2.710588-2.319058-130.800941-129.505883v94.960941a26.352941 26.352941 0 0 1-23.04 26.142118l-3.312942 0.210824a26.352941 26.352941 0 0 1-26.142117-23.04l-0.210824-3.312942V210.823529a26.232471 26.232471 0 0 1 7.619765-18.55247l0.271059-0.240941a26.503529 26.503529 0 0 1 1.927529-1.716706l-2.198588 1.957647a26.563765 26.563765 0 0 1 3.674353-3.072l1.927529-1.204706z" fill="#568af2" /></svg>