<svg class="icon" style="width: 1em;height: 1em;vertical-align: middle;fill: currentColor;overflow: hidden;" viewBox="0 0 1024 1024" version="1.1" xmlns="http://www.w3.org/2000/svg" width="32" height="32"><path d="M0 0h1024v1024H0z" fill="#568af2" fill-opacity="0" /><path d="M271.058824 405.805176c13.432471 0 24.515765 10.059294 26.142117 23.070118l0.210824 3.312941v289.852236H587.294118c13.432471 0 24.515765 10.059294 26.142117 23.070117l0.210824 3.312941a26.352941 26.352941 0 0 1-23.04 26.142118l-3.312941 0.180706H271.058824a26.352941 26.352941 0 0 1-26.142118-23.04l-0.210824-3.312941v-316.235294c0-14.546824 11.806118-26.352941 26.352942-26.352942z" fill="#568af2" /><path d="M699.632941 282.533647a26.352941 26.352941 0 0 1 39.634824 34.575059l-2.349177 2.710588-447.247059 447.216941a26.352941 26.352941 0 0 1-39.604705-34.575059l2.349176-2.710588 447.247059-447.216941z" fill="#568af2" /></svg>