<svg class="icon" style="width: 1em;height: 1em;vertical-align: middle;fill: currentColor;overflow: hidden;" viewBox="0 0 1024 1024" version="1.1" xmlns="http://www.w3.org/2000/svg" width="32" height="32"><path d="M501.970824 124.235294c208.594824 0 377.705412 169.110588 377.705411 377.73553 0 208.594824-169.110588 377.705412-377.705411 377.705411-208.624941 0-377.735529-169.110588-377.73553-377.705411 0-208.624941 169.110588-377.735529 377.73553-377.73553z m87.823058 228.382118h-210.823529a26.413176 26.413176 0 0 0-15.480471 5.029647l-0.451764 0.331294-0.783059 0.602353a26.503529 26.503529 0 0 0-1.295059 1.14447l-0.602353 0.602353a26.834824 26.834824 0 0 0-6.354823 10.24l-0.512 1.716706a26.684235 26.684235 0 0 0-0.873412 6.686118v210.823529l0.210823 3.312942a26.352941 26.352941 0 0 0 26.142118 23.04l3.312941-0.180706a26.352941 26.352941 0 0 0 23.04-26.172236v-147.184941l200.975059 200.975059 2.710588 2.349176a26.352941 26.352941 0 0 0 34.575059-39.634823l-200.975059-200.975059h147.184941l3.312942-0.180706a26.352941 26.352941 0 0 0-3.312942-52.525176z" fill="#568af2" /></svg>