<svg class="icon" style="width: 1em;height: 1em;vertical-align: middle;fill: currentColor;overflow: hidden;" viewBox="0 0 1024 1024" version="1.1" xmlns="http://www.w3.org/2000/svg" width="32" height="32"><path d="M501.970824 124.235294c208.594824 0 377.705412 169.110588 377.705411 377.73553 0 208.594824-169.110588 377.705412-377.705411 377.705411-208.624941 0-377.735529-169.110588-377.73553-377.705411 0-208.624941 169.110588-377.735529 377.73553-377.73553z m86.196705 286.448941a26.352941 26.352941 0 0 0-34.575058 2.379294l-2.349177 2.710589a26.352941 26.352941 0 0 0 2.349177 34.544941l51.621647 51.621647-51.621647 51.651765-2.349177 2.710588a26.352941 26.352941 0 0 0 39.634824 34.575059l70.26447-70.294589 2.349177-2.710588a26.352941 26.352941 0 0 0-2.349177-34.544941l-70.26447-70.264471z m-137.84847 2.379294a26.352941 26.352941 0 0 0-37.25553 0l-70.294588 70.264471-2.349176 2.710588a26.352941 26.352941 0 0 0 2.349176 34.544941l70.294588 70.294589 2.710589 2.349176a26.352941 26.352941 0 0 0 34.544941-2.349176l2.349176-2.710589a26.352941 26.352941 0 0 0-2.349176-34.575058l-51.651765-51.651765 51.651765-51.621647 2.349176-2.710588a26.352941 26.352941 0 0 0-2.349176-34.544942z" fill="#568af2" /></svg>