<svg class="icon" style="width: 1em;height: 1em;vertical-align: middle;fill: currentColor;overflow: hidden;" viewBox="0 0 1024 1024" version="1.1" xmlns="http://www.w3.org/2000/svg" width="32" height="32"><path d="M362.857412 282.533647a26.352941 26.352941 0 0 1 39.634823 34.575059l-2.379294 2.710588-121.916235 121.886118 121.916235 121.946353c9.456941 9.426824 10.24 24.214588 2.379294 34.544941l-2.379294 2.710588a26.352941 26.352941 0 0 1-34.544941 2.349177l-2.710588-2.349177-140.559059-140.559059a26.352941 26.352941 0 0 1-2.349177-34.544941l2.349177-2.710588 140.559059-140.559059z" fill="#568af2" /><path d="M750.441412 415.382588a79.058824 79.058824 0 0 1 78.908235 74.059294l0.150588 4.99953V722.823529a26.352941 26.352941 0 0 1-52.525176 3.312942l-0.180706-3.312942v-228.382117a26.352941 26.352941 0 0 0-23.070118-26.172236l-3.312941-0.180705H240.941176a26.352941 26.352941 0 0 1-3.312941-52.525177l3.312941-0.180706h509.500236z" fill="#568af2" /></svg>