<svg class="icon" style="width: 1em;height: 1em;vertical-align: middle;fill: currentColor;overflow: hidden;" viewBox="0 0 1024 1024" version="1.1" xmlns="http://www.w3.org/2000/svg" width="32" height="32"><path d="M196.547765 189.741176l2.710588 2.349177 130.770823 129.475765V228.382118c0-13.432471 10.059294-24.515765 23.070118-26.142118l3.312941-0.210824c13.402353 0 24.515765 10.059294 26.142118 23.070118l0.180706 3.312941v158.117647a26.352941 26.352941 0 0 1-23.04 26.142118l-3.312941 0.180706h-158.117647a26.352941 26.352941 0 0 1-3.312942-52.495059l3.312942-0.210823h95.834353l-131.915295-130.590118A26.352941 26.352941 0 0 1 196.487529 189.741176z m160.978823 451.523765h-1.14447c1.204706 0 2.349176 0.060235 3.463529 0.210824 0.180706 0 0.331294 0.060235 0.512 0.090353a25.690353 25.690353 0 0 1 14.305882 7.077647l0.451765 0.421647 0.421647 0.451764a26.503529 26.503529 0 0 1 1.385412 1.566118l-1.807059-2.017882a26.563765 26.563765 0 0 1 7.439059 15.239529l0.180706 3.312941v158.117647a26.352941 26.352941 0 0 1-52.495059 3.312942l-0.210824-3.312942v-94.991058l-130.770823 129.505882a26.352941 26.352941 0 0 1-39.454118-34.755765l2.349177-2.710588 130.138353-128.843294H198.264471a26.352941 26.352941 0 0 1-26.142118-23.04l-0.210824-3.312941c0-13.402353 10.059294-24.515765 23.070118-26.142118l3.312941-0.180706h158.238118a26.503529 26.503529 0 0 1 0.993882 0z m436.314353 0a26.352941 26.352941 0 0 1 3.312941 52.495059l-3.312941 0.210824-90.955294-0.030118 128.903529 128.963765a26.352941 26.352941 0 0 1-34.544941 39.604705l-2.710588-2.349176-130.710588-130.710588v96.286117a26.352941 26.352941 0 0 1-23.04 26.142118l-3.312941 0.210824a26.352941 26.352941 0 0 1-26.142118-23.070118l-0.180706-3.312941v-158.117647c0-13.402353 10.029176-24.515765 23.04-26.142118l3.312941-0.180706h156.340706z m36.201412-449.054117c9.426824 9.426824 10.24 24.214588 2.349176 34.544941l-2.349176 2.710588-130.710588 130.680471h96.286117c13.432471 0 24.515765 10.059294 26.142118 23.070117l0.210824 3.312941a26.352941 26.352941 0 0 1-23.070118 26.142118l-3.312941 0.180706h-158.117647a26.352941 26.352941 0 0 1-26.142118-23.04l-0.180706-3.312941v-158.117647a26.352941 26.352941 0 0 1 52.495059-3.312942l0.210823 3.312942-0.030117 92.702117 128.963765-128.903529a26.352941 26.352941 0 0 1 37.255529 0z" fill="#568af2" /></svg>