<svg class="icon" style="width: 1em;height: 1em;vertical-align: middle;fill: currentColor;overflow: hidden;" viewBox="0 0 1024 1024" version="1.1" xmlns="http://www.w3.org/2000/svg" width="32" height="32"><path d="M718.305882 274.823529c13.402353 0 24.515765 10.059294 26.142118 23.04l0.180706 3.312942v316.235294a26.352941 26.352941 0 0 1-52.495059 3.312941l-0.210823-3.312941v-289.882353h-289.882353a26.352941 26.352941 0 0 1-26.142118-23.04l-0.210824-3.312941c0-13.432471 10.059294-24.515765 23.070118-26.142118l3.312941-0.210824h316.235294z" fill="#568af2" /><path d="M699.632941 282.533647a26.352941 26.352941 0 0 1 39.634824 34.575059l-2.349177 2.710588-447.247059 447.216941a26.352941 26.352941 0 0 1-39.604705-34.575059l2.349176-2.710588 447.247059-447.216941z" fill="#568af2" /></svg>