<svg class="icon" style="width: 1em;height: 1em;vertical-align: middle;fill: currentColor;overflow: hidden;" viewBox="0 0 1024 1024" version="1.1" xmlns="http://www.w3.org/2000/svg" width="32" height="32"><path d="M704.180706 643.945412a26.352941 26.352941 0 0 1 39.634823 34.575059l-2.349176 2.710588-140.559059 140.528941a26.352941 26.352941 0 0 1-34.575059 2.379294l-2.710588-2.379294-140.528941-140.528941a26.352941 26.352941 0 0 1 34.575059-39.634824l2.710588 2.349177 121.886118 121.886117 121.916235-121.886117z" fill="#568af2" /><path d="M529.558588 214.588235a79.058824 79.058824 0 0 1 78.908236 74.059294l0.150588 4.99953v509.500235a26.352941 26.352941 0 0 1-52.495059 3.312941l-0.210824-3.312941V293.647059a26.352941 26.352941 0 0 0-23.04-26.142118l-3.312941-0.210823H301.176471a26.352941 26.352941 0 0 1-3.312942-52.495059l3.312942-0.210824h228.382117z" fill="#568af2" /></svg>