<svg class="icon" style="width: 1em;height: 1em;vertical-align: middle;fill: currentColor;overflow: hidden;" viewBox="0 0 1024 1024" version="1.1" xmlns="http://www.w3.org/2000/svg" width="32" height="32"><path d="M493.357176 462.004706a26.352941 26.352941 0 0 1 34.575059-2.379294l2.710589 2.379294 210.823529 210.823529a26.352941 26.352941 0 0 1-34.575059 39.604706l-2.710588-2.349176L512 517.903059l-192.180706 192.180706a26.352941 26.352941 0 0 1-34.575059 2.349176l-2.710588-2.349176a26.352941 26.352941 0 0 1-2.349176-34.575059l2.349176-2.710588 210.823529-210.82353zM722.823529 313.735529a26.352941 26.352941 0 0 1 3.312942 52.495059l-3.312942 0.210824H301.176471a26.352941 26.352941 0 0 1-3.312942-52.525177l3.312942-0.180706h421.647058z" fill="#568af2" /></svg>