<svg class="icon" style="width: 1em;height: 1em;vertical-align: middle;fill: currentColor;overflow: hidden;" viewBox="0 0 1024 1024" version="1.1" xmlns="http://www.w3.org/2000/svg" width="32" height="32"><path d="M309.488941 430.893176a26.352941 26.352941 0 1 1 12.197647 51.260236 149.383529 149.383529 0 1 0 75.535059 288.978823 26.352941 26.352941 0 0 1 14.366118 50.718118 202.029176 202.029176 0 0 1-102.098824-390.957177zM718.215529 450.439529a26.352941 26.352941 0 0 1 31.744-19.57647 202.089412 202.089412 0 1 1-102.098823 390.987294 26.352941 26.352941 0 1 1 14.396235-50.718118 149.323294 149.323294 0 0 0 75.535059-288.978823 26.352941 26.352941 0 0 1-19.576471-31.713883z" fill="#568af2" /><path d="M532.088471 214.588235A237.176471 237.176471 0 0 1 769.264941 451.764706a26.352941 26.352941 0 0 1-52.705882 0 184.470588 184.470588 0 0 0-368.941177 0 26.352941 26.352941 0 0 1-52.705882 0 237.176471 237.176471 0 0 1 237.176471-237.176471z" fill="#568af2" /><path d="M513.415529 449.385412a26.352941 26.352941 0 0 1 34.514824-2.43953l2.710588 2.349177 125.289412 124.325647a26.352941 26.352941 0 0 1-34.424471 39.755294l-2.710588-2.349176-106.61647-105.803295-103.273412 103.604706a26.352941 26.352941 0 0 1-34.544941 2.409412l-2.710589-2.349176a26.352941 26.352941 0 0 1-2.409411-34.575059l2.349176-2.710588 121.825882-122.217412z" fill="#568af2" /><path d="M532.088471 503.808c13.432471 0 24.515765 10.059294 26.142117 23.04l0.210824 3.312941V768a26.352941 26.352941 0 0 1-52.525177 3.312941l-0.180706-3.312941v-237.839059c0-14.546824 11.776-26.352941 26.352942-26.352941z" fill="#568af2" /></svg>