<svg class="icon" style="width: 1em;height: 1em;vertical-align: middle;fill: currentColor;overflow: hidden;" viewBox="0 0 1024 1024" version="1.1" xmlns="http://www.w3.org/2000/svg" width="32" height="32"><path d="M690.206118 636.235294a96.677647 96.677647 0 0 1 92.973176 70.264471h100.291765a26.352941 26.352941 0 0 1 3.312941 52.525176l-3.312941 0.180706h-100.291765a96.677647 96.677647 0 0 1-185.97647 0h-147.817412a96.677647 96.677647 0 0 1-185.976471 0H180.705882a26.352941 26.352941 0 0 1-3.312941-52.495059l3.312941-0.210823h82.703059a96.677647 96.677647 0 0 1 185.976471 0h147.817412a96.677647 96.677647 0 0 1 93.003294-70.264471z m103.755294-416.286118l2.710588 2.349177 105.411765 105.411765 0.451764 0.481882a26.503529 26.503529 0 0 1 1.295059 1.445647l-1.746823-1.927529a26.533647 26.533647 0 0 1 7.710117 18.642823 26.292706 26.292706 0 0 1-5.360941 15.962353l-0.602353 0.752941a26.503529 26.503529 0 0 1-1.295059 1.445647l-0.451764 0.481883-105.411765 105.411764a26.352941 26.352941 0 0 1-39.634824-34.575058l2.379295-2.710589 60.416-60.416H180.705882a26.352941 26.352941 0 0 1-3.312941-52.495058l3.312941-0.210824h639.126589l-60.416-60.416a26.352941 26.352941 0 0 1-2.379295-34.575059l2.379295-2.710588a26.352941 26.352941 0 0 1 34.544941-2.349177z" fill="#568af2" /></svg>