<svg class="icon" style="width: 1em;height: 1em;vertical-align: middle;fill: currentColor;overflow: hidden;" viewBox="0 0 1024 1024" version="1.1" xmlns="http://www.w3.org/2000/svg" width="32" height="32"><path d="M800.436706 195.764706a26.352941 26.352941 0 0 1 3.312941 52.525176l-3.312941 0.210824H294.339765c-63.608471 0-117.398588 37.345882-117.398589 113.152 0 73.758118 51.260235 112.338824 111.525648 114.657882l5.872941 0.120471h418.334117c88.184471 0 167.002353 56.681412 167.002353 166.610823 0 107.339294-75.354353 164.472471-160.737882 167.152942l-6.264471 0.090352H186.88a26.352941 26.352941 0 0 1-3.312941-52.495058l3.312941-0.210824h525.793882c61.801412 0 114.296471-38.038588 114.296471-114.537412 0-73.999059-49.001412-111.525647-108.513882-113.814588l-5.782589-0.090353H294.339765c-88.756706 0-170.104471-57.554824-170.104471-167.484235 0-107.279059 76.8-163.177412 163.71953-165.76753l6.384941-0.090352h506.096941z" fill="#568af2" /><path d="M202.842353 695.024941a26.352941 26.352941 0 0 1 39.996235 34.153412l-2.349176 2.710588-51.561412 52.705883 51.290353 50.838588a26.352941 26.352941 0 0 1 2.499765 34.544941l-2.319059 2.710588a26.352941 26.352941 0 0 1-34.575059 2.529883l-2.710588-2.349177-69.872941-69.240471a26.352941 26.352941 0 0 1-2.620236-34.42447l2.319059-2.710588 69.872941-71.469177zM730.232471 131.764706a26.352941 26.352941 0 0 1 34.605176-1.987765l2.680471 2.409412 69.872941 71.408941c9.306353 9.487059 9.938824 24.244706 2.108235 34.484706l-2.409412 2.680471-69.872941 69.24047a26.352941 26.352941 0 0 1-39.454117-34.755765l2.349176-2.710588 51.290353-50.80847-51.561412-52.705883a26.352941 26.352941 0 0 1-1.987765-34.605176l2.409412-2.650353z" fill="#568af2" /></svg>