<svg class="icon" style="width: 1em;height: 1em;vertical-align: middle;fill: currentColor;overflow: hidden;" viewBox="0 0 1024 1024" version="1.1" xmlns="http://www.w3.org/2000/svg" width="32" height="32"><path d="M722.823529 485.496471a26.352941 26.352941 0 0 1 3.312942 52.495058l-3.312942 0.210824H301.176471a26.352941 26.352941 0 0 1-3.312942-52.495059l3.312942-0.210823h421.647058z" fill="#568af2" /><path d="M493.357176 282.533647a26.352941 26.352941 0 0 1 39.634824 34.575059l-2.349176 2.710588L338.432 512l192.210824 192.180706c9.426824 9.456941 10.24 24.244706 2.349176 34.575059l-2.349176 2.710588a26.352941 26.352941 0 0 1-34.575059 2.349176l-2.710589-2.349176-210.823529-210.823529a26.352941 26.352941 0 0 1-2.349176-34.575059l2.349176-2.710589 210.823529-210.823529z" fill="#568af2" /></svg>