<svg class="icon" style="width: 1em;height: 1em;vertical-align: middle;fill: currentColor;overflow: hidden;" viewBox="0 0 1024 1024" version="1.1" xmlns="http://www.w3.org/2000/svg" width="32" height="32"><path d="M572.235294 124.235294c13.432471 0 24.515765 10.059294 26.142118 23.04l0.210823 3.312941v254.735059h254.735059c13.432471 0 24.545882 10.059294 26.172235 23.070118l0.180706 3.312941a26.352941 26.352941 0 0 1-23.04 26.142118l-3.312941 0.180705H572.235294a26.352941 26.352941 0 0 1-26.142118-23.04l-0.210823-3.312941V150.588235c0-14.546824 11.806118-26.352941 26.352941-26.352941zM431.676235 545.882353c13.432471 0 24.545882 10.059294 26.172236 23.04l0.180705 3.312941v281.088a26.352941 26.352941 0 0 1-52.495058 3.312941l-0.210824-3.312941v-254.735059H150.588235a26.352941 26.352941 0 0 1-26.142117-23.04L124.235294 572.235294c0-13.432471 10.059294-24.515765 23.04-26.142118l3.312941-0.210823h281.088z" fill="#568af2" /></svg>