<svg class="icon" style="width: 1em;height: 1em;vertical-align: middle;fill: currentColor;overflow: hidden;" viewBox="0 0 1024 1024" version="1.1" xmlns="http://www.w3.org/2000/svg" width="32" height="32"><path d="M790.588235 184.470588a79.058824 79.058824 0 0 1 79.058824 79.058824v527.058823a79.058824 79.058824 0 0 1-79.058824 79.058824H263.529412a79.058824 79.058824 0 0 1-79.058824-79.058824V263.529412A79.058824 79.058824 0 0 1 263.529412 184.470588z m-247.567059 251.331765a26.352941 26.352941 0 0 0-34.605176 2.349176l-140.528941 140.559059-2.379294 2.710588a26.352941 26.352941 0 0 0 2.379294 34.544942l2.710588 2.349176a26.352941 26.352941 0 0 0 34.544941-2.349176l95.533177-95.593412 0.030117 217.509647 0.210824 3.312941a26.352941 26.352941 0 0 0 52.495059-3.312941l-0.030118-217.509647 95.593412 95.593412 2.710588 2.349176a26.352941 26.352941 0 0 0 34.544941-39.604706l-140.528941-140.559059z m124.596706-110.772706h-281.118117l-3.312941 0.180706a26.352941 26.352941 0 0 0 3.312941 52.525176h281.118117l3.312942-0.210823a26.352941 26.352941 0 0 0-3.312942-52.495059z" fill="#568af2" /></svg>