<svg class="icon" style="width: 1em;height: 1em;vertical-align: middle;fill: currentColor;overflow: hidden;" viewBox="0 0 1024 1024" version="1.1" xmlns="http://www.w3.org/2000/svg" width="32" height="32"><path d="M839.529412 485.496471a26.352941 26.352941 0 0 1 3.312941 52.495058l-3.312941 0.210824H347.617882a26.352941 26.352941 0 0 1-3.312941-52.495059l3.312941-0.210823h491.91153z" fill="#568af2" /><path d="M539.798588 282.533647a26.352941 26.352941 0 0 1 39.634824 34.575059l-2.379294 2.710588L384.903529 512l192.180706 192.180706c9.456941 9.456941 10.24 24.244706 2.379294 34.575059l-2.379294 2.710588a26.352941 26.352941 0 0 1-34.544941 2.349176l-2.710588-2.349176-210.82353-210.823529a26.352941 26.352941 0 0 1-2.349176-34.575059l2.349176-2.710589 210.82353-210.823529zM189.500235 274.823529c13.432471 0 24.515765 10.059294 26.142118 23.04l0.210823 3.312942v421.647058a26.352941 26.352941 0 0 1-52.525176 3.312942L163.147294 722.823529V301.176471c0-14.546824 11.776-26.352941 26.352941-26.352942z" fill="#568af2" /></svg>