<svg class="icon" style="width: 1em;height: 1em;vertical-align: middle;fill: currentColor;overflow: hidden;" viewBox="0 0 1024 1024" version="1.1" xmlns="http://www.w3.org/2000/svg" width="32" height="32"><path d="M667.467294 365.176471c13.432471 0 24.515765 10.059294 26.142118 23.04l0.210823 3.312941-0.030117 393.216 113.302588-113.182118a26.352941 26.352941 0 0 1 39.634823 34.575059l-2.379294 2.710588-158.117647 158.117647a26.262588 26.262588 0 0 1-18.612706 7.710118h-0.150588a26.292706 26.292706 0 0 1-19.968-9.155765l-156.641882-156.702117a26.352941 26.352941 0 0 1 34.575059-39.604706l2.710588 2.349176 112.941176 112.941177V391.529412c0-14.546824 11.836235-26.352941 26.383059-26.352941z m-298.676706-210.82353a26.593882 26.593882 0 0 1 16.082824 5.360941l2.710588 2.349177 158.117647 158.117647a26.352941 26.352941 0 0 1-34.575059 39.634823l-2.710588-2.349176-113.272471-113.302588v393.33647a26.352941 26.352941 0 0 1-52.495058 3.312941l-0.210824-3.312941V244.464941l-112.971294 113.001412a26.352941 26.352941 0 0 1-34.575059 2.349176l-2.710588-2.349176a26.352941 26.352941 0 0 1-2.349177-34.575059l2.349177-2.710588 156.461176-156.461177a26.322824 26.322824 0 0 1 16.745412-9.155764l3.403294-0.210824z" fill="#568af2" /></svg>