<svg class="icon" style="width: 1em;height: 1em;vertical-align: middle;fill: currentColor;overflow: hidden;" viewBox="0 0 1024 1024" version="1.1" xmlns="http://www.w3.org/2000/svg" width="32" height="32"><path d="M423.092706 222.298353a26.352941 26.352941 0 0 1 34.575059-2.349177l2.710588 2.349177 140.528941 140.559059a26.352941 26.352941 0 0 1-34.575059 39.634823l-2.710588-2.379294-121.916235-121.916235-121.886118 121.916235a26.352941 26.352941 0 0 1-34.575059 2.379294l-2.710588-2.379294a26.352941 26.352941 0 0 1-2.349176-34.544941l2.349176-2.710588 140.559059-140.559059z" fill="#568af2" /><path d="M441.735529 214.588235c13.432471 0 24.515765 10.059294 26.142118 23.04l0.210824 3.312941v509.500236c0 13.432471 10.029176 24.515765 23.04 26.142117l3.312941 0.210824H722.823529a26.352941 26.352941 0 0 1 3.312942 52.495059l-3.312942 0.210823h-228.382117a79.058824 79.058824 0 0 1-78.908236-74.089411l-0.150588-4.969412V240.941176c0-14.546824 11.776-26.352941 26.352941-26.352941z" fill="#568af2" /></svg>