<svg class="icon" style="width: 1em;height: 1em;vertical-align: middle;fill: currentColor;overflow: hidden;" viewBox="0 0 1024 1024" version="1.1" xmlns="http://www.w3.org/2000/svg" width="32" height="32"><path d="M0 0h1024v1024H0z" fill="#568af2" fill-opacity="0" /><path d="M563.651765 222.298353a26.352941 26.352941 0 0 1 34.544941-2.349177l2.710588 2.349177 140.559059 140.559059a26.352941 26.352941 0 0 1-34.575059 39.634823l-2.710588-2.379294-121.916235-121.916235-121.916236 121.916235a26.352941 26.352941 0 0 1-34.544941 2.379294l-2.710588-2.379294a26.352941 26.352941 0 0 1-2.349177-34.544941l2.349177-2.710588 140.559059-140.559059z" fill="#568af2" /><path d="M582.264471 214.588235c13.432471 0 24.545882 10.059294 26.172235 23.04l0.180706 3.312941v509.500236a79.058824 79.058824 0 0 1-74.059294 78.908235l-4.99953 0.150588H301.176471a26.352941 26.352941 0 0 1-3.312942-52.525176l3.312942-0.180706h228.382117a26.352941 26.352941 0 0 0 26.172236-23.070118l0.180705-3.312941V240.941176c0-14.546824 11.806118-26.352941 26.352942-26.352941z" fill="#568af2" /></svg>