<svg class="icon" style="width: 1em;height: 1em;vertical-align: middle;fill: currentColor;overflow: hidden;" viewBox="0 0 1024 1024" version="1.1" xmlns="http://www.w3.org/2000/svg" width="32" height="32"><path d="M0 0h1024v1024H0z" fill="#568af2" fill-opacity="0" /><path d="M748.423529 405.805176c13.402353 0 24.515765 10.059294 26.142118 23.070118l0.180706 3.312941v316.235294a26.352941 26.352941 0 0 1-23.04 26.142118l-3.312941 0.180706h-316.235294a26.352941 26.352941 0 0 1-3.312942-52.495059l3.312942-0.210823h289.882353v-289.882353c0-13.432471 10.059294-24.515765 23.070117-26.142118l3.312941-0.210824z" fill="#568af2" /><path d="M282.533647 282.533647a26.352941 26.352941 0 0 1 34.575059-2.349176l2.710588 2.349176 447.216941 447.247059a26.352941 26.352941 0 0 1-34.575059 39.604706l-2.710588-2.349177-447.216941-447.247059a26.352941 26.352941 0 0 1 0-37.255529z" fill="#568af2" /></svg>