<svg class="icon" style="width: 1em;height: 1em;vertical-align: middle;fill: currentColor;overflow: hidden;" viewBox="0 0 1024 1024" version="1.1" xmlns="http://www.w3.org/2000/svg" width="32" height="32"><path d="M501.970824 124.235294c208.594824 0 377.705412 169.110588 377.705411 377.73553 0 208.594824-169.110588 377.705412-377.705411 377.705411-208.624941 0-377.735529-169.110588-377.73553-377.705411 0-208.624941 169.110588-377.735529 377.73553-377.73553z m126.283294 526.848a26.202353 26.202353 0 0 0 12.047058-4.72847l0.602353-0.421648 0.692706-0.602352a26.503529 26.503529 0 0 0 1.716706-1.505883l0.271059-0.240941a26.864941 26.864941 0 0 0 4.517647-6.023529 26.262588 26.262588 0 0 0 3.192471-12.619295v-210.823529l-0.210824-3.312941a26.352941 26.352941 0 0 0-26.142118-23.04l-3.312941 0.210823a26.352941 26.352941 0 0 0-23.04 26.142118v147.215059l-200.975059-200.975059-2.710588-2.379294a26.352941 26.352941 0 0 0-34.544941 39.634823l200.975059 200.975059H414.117647l-3.312941 0.210824a26.352941 26.352941 0 0 0 3.312941 52.495059h210.823529z" fill="#568af2" /></svg>