<svg class="icon" style="width: 1em;height: 1em;vertical-align: middle;fill: currentColor;overflow: hidden;" viewBox="0 0 1024 1024" version="1.1" xmlns="http://www.w3.org/2000/svg" width="32" height="32"><path d="M0 0h1024v1024H0z" fill="#568af2" fill-opacity="0" /><path d="M843.294118 223.382588a26.352941 26.352941 0 0 1 3.312941 52.495059l-3.312941 0.210824H210.823529a26.352941 26.352941 0 0 1-3.312941-52.525177L210.823529 223.382588h632.470589zM843.294118 399.058824a26.352941 26.352941 0 0 1 3.312941 52.495058L843.294118 451.764706H210.823529a26.352941 26.352941 0 0 1-3.312941-52.495059L210.823529 399.058824h632.470589zM827.120941 527.600941a26.352941 26.352941 0 0 1 35.026824 39.213177l-2.680471 2.379294-316.235294 245.970823a26.352941 26.352941 0 0 1-29.063529 2.168471l-3.312942-2.168471-316.235294-245.970823a26.352941 26.352941 0 0 1 29.424941-43.610353l2.95153 2.017882 300.032 233.35153 300.092235-233.35153z" fill="#568af2" /></svg>