<svg class="icon" style="width: 1em;height: 1em;vertical-align: middle;fill: currentColor;overflow: hidden;" viewBox="0 0 1024 1024" version="1.1" xmlns="http://www.w3.org/2000/svg" width="32" height="32"><path d="M496.941176 184.470588a341.534118 341.534118 0 0 1 242.236236 100.352l7.981176 8.131765 14.546824 15.299765 20.028235 21.62447 23.371294 25.720471 27.768471 30.991059a26.352941 26.352941 0 0 1-39.393883 34.996706l-27.467294-30.629648-30.991059-34.002823-18.733176-20.028235-11.203765-11.65553a288.828235 288.828235 0 0 0-208.112941-88.094117 289.882353 289.882353 0 0 0-0.030118 579.764705 288.828235 288.828235 0 0 0 204.980706-84.931764 26.352941 26.352941 0 0 1 37.25553 37.285647 341.534118 341.534118 0 0 1-242.236236 100.352c-189.199059 0-342.588235-153.389176-342.588235-342.588235S307.742118 184.470588 496.941176 184.470588z" fill="#568af2" /><path d="M813.176471 219.617882c13.432471 0 24.515765 10.029176 26.142117 23.04l0.210824 3.312942v158.117647a26.352941 26.352941 0 0 1-23.04 26.142117l-3.312941 0.210824h-158.117647a26.352941 26.352941 0 0 1-3.312942-52.525177l3.312942-0.180706 131.764705-0.030117V245.970824c0-13.432471 10.059294-24.545882 23.04-26.172236l3.312942-0.180706z" fill="#568af2" /></svg>