<svg class="icon" style="width: 1em;height: 1em;vertical-align: middle;fill: currentColor;overflow: hidden;" viewBox="0 0 1024 1024" version="1.1" xmlns="http://www.w3.org/2000/svg" width="32" height="32"><path d="M0 0h1024v1024H0z" fill="#568af2" fill-opacity="0" /><path d="M342.768941 342.768941a26.352941 26.352941 0 0 1 34.575059-2.349176l2.710588 2.349176 298.646588 298.676706a26.352941 26.352941 0 0 1-34.544941 39.634824l-2.710588-2.379295-298.676706-298.646588a26.352941 26.352941 0 0 1 0-37.285647z" fill="#568af2" /><path d="M677.647059 335.058824a26.352941 26.352941 0 0 1 3.312941 52.495058l-3.312941 0.210824h-289.882353V677.647059a26.352941 26.352941 0 0 1-23.04 26.142117l-3.312941 0.210824a26.352941 26.352941 0 0 1-26.142118-23.04l-0.210823-3.312941V361.411765c0-13.432471 10.059294-24.515765 23.04-26.142118l3.312941-0.210823h316.235294z" fill="#568af2" /></svg>