<svg class="icon" style="width: 1em;height: 1em;vertical-align: middle;fill: currentColor;overflow: hidden;" viewBox="0 0 1024 1024" version="1.1" xmlns="http://www.w3.org/2000/svg" width="32" height="32"><path d="M532.088471 124.235294c208.594824 0 377.705412 169.110588 377.705411 377.73553 0 208.594824-169.110588 377.705412-377.705411 377.705411-208.624941 0-377.735529-169.110588-377.73553-377.705411 0-208.624941 169.110588-377.735529 377.73553-377.73553z m-12.408471 559.104a26.232471 26.232471 0 0 0 27.888941-1.927529l0.451765-0.331294 0.783059-0.602353a26.503529 26.503529 0 0 0 1.295059-1.144471l0.602352-0.602353 158.117648-158.117647 2.379294-2.710588a26.352941 26.352941 0 0 0-39.634824-34.575059L558.381176 596.329412v-252.506353l-0.180705-3.312941a26.352941 26.352941 0 0 0-52.495059 3.312941l-0.030118 252.566588-113.121882-113.091765-2.710588-2.349176a26.352941 26.352941 0 0 0-34.544942 39.604706l158.117647 158.117647 0.602353 0.602353a26.503529 26.503529 0 0 0 1.325177 1.14447l0.783059 0.602353a26.352941 26.352941 0 0 0 2.198588 1.505883l0.722823 0.451764z" fill="#568af2" /></svg>