<svg class="icon" style="width: 1em;height: 1em;vertical-align: middle;fill: currentColor;overflow: hidden;" viewBox="0 0 1024 1024" version="1.1" xmlns="http://www.w3.org/2000/svg" width="32" height="32"><path d="M501.970824 124.235294c208.594824 0 377.705412 169.110588 377.705411 377.73553 0 208.594824-169.110588 377.705412-377.705411 377.705411-208.624941 0-377.735529-169.110588-377.73553-377.705411 0-208.624941 169.110588-377.735529 377.73553-377.73553z m87.823058 527.058824l3.312942-0.210824a26.352941 26.352941 0 0 0 23.04-26.142118l-0.180706-3.312941a26.352941 26.352941 0 0 0-26.172236-23.04h-147.215058l201.005176-200.975059 2.349176-2.710588a26.352941 26.352941 0 0 0-39.634823-34.544941l-200.975059 200.944941V414.117647l-0.180706-3.312941a26.352941 26.352941 0 0 0-52.525176 3.312941v210.823529a26.443294 26.443294 0 0 0 4.939294 15.36l0.421647 0.602353 0.632471 0.752942a26.503529 26.503529 0 0 0 1.264941 1.445647l0.481882 0.481882a26.864941 26.864941 0 0 0 5.872941 4.427294c3.794824 2.108235 8.131765 3.282824 12.739765 3.282824h210.823529z" fill="#568af2" /></svg>