<svg class="icon" style="width: 1em;height: 1em;vertical-align: middle;fill: currentColor;overflow: hidden;" viewBox="0 0 1024 1024" version="1.1" xmlns="http://www.w3.org/2000/svg" width="32" height="32"><path d="M747.911529 335.058824c14.576941 0 26.352941 11.806118 26.352942 26.352941 0 135.529412-75.384471 256.813176-190.644706 312.018823a310.000941 310.000941 0 0 1-134.354824 30.569412C269.402353 704 124.235294 550.279529 124.235294 361.411765a26.352941 26.352941 0 1 1 52.705882 0c0 160.436706 122.277647 289.882353 272.323765 289.882353 39.002353 0 76.8-8.734118 111.585883-25.389177 96.858353-46.381176 160.707765-149.142588 160.707764-264.493176 0-14.546824 11.806118-26.352941 26.352941-26.352941z" fill="#568af2" /><path d="M733.967059 339.064471a26.352941 26.352941 0 0 1 32.828235 3.975529l2.198588 2.56 105.411765 140.559059a26.352941 26.352941 0 0 1-39.815529 34.334117l-2.349177-2.710588-90.895059-121.223529-120.018823 75.053176a26.352941 26.352941 0 0 1-34.364235-5.722353l-1.92753-2.68047a26.352941 26.352941 0 0 1 5.662118-34.364236l2.710588-1.927529 140.559059-87.853176z" fill="#568af2" /></svg>