<svg class="icon" style="width: 1em;height: 1em;vertical-align: middle;fill: currentColor;overflow: hidden;" viewBox="0 0 1024 1024" version="1.1" xmlns="http://www.w3.org/2000/svg" width="32" height="32"><path d="M764.416 648.975059a26.352941 26.352941 0 0 1 34.575059-2.349177l2.710588 2.349177 70.264471 70.26447c9.426824 9.456941 10.24 24.244706 2.349176 34.575059l-2.349176 2.710588-70.264471 70.264471a26.352941 26.352941 0 0 1-39.634823-34.575059l2.349176-2.710588 51.651765-51.621647-51.651765-51.651765a26.352941 26.352941 0 0 1-2.349176-34.544941l2.349176-2.710588zM764.416 192.180706a26.352941 26.352941 0 0 1 34.575059-2.349177l2.710588 2.349177 70.264471 70.294588c9.426824 9.426824 10.24 24.214588 2.349176 34.544941l-2.349176 2.710589-70.264471 70.26447a26.352941 26.352941 0 0 1-39.634823-34.544941l2.349176-2.710588 51.621647-51.651765-51.621647-51.621647a26.352941 26.352941 0 0 1-2.349176-34.575059l2.349176-2.710588z" fill="#568af2" /><path d="M853.323294 254.735059a26.352941 26.352941 0 0 1 3.312941 52.525176l-3.312941 0.180706H730.352941a202.029176 202.029176 0 0 0-7.107765 403.968l7.107765 0.120471h122.970353a26.352941 26.352941 0 0 1 3.312941 52.495059l-3.312941 0.210823H730.352941a254.735059 254.735059 0 0 1-7.649882-509.379765l7.649882-0.12047h122.970353z" fill="#568af2" /><path d="M273.558588 254.735059a254.735059 254.735059 0 0 1 7.649883 509.379765l-7.649883 0.12047H150.588235a26.352941 26.352941 0 0 1-3.312941-52.495059l3.312941-0.210823h122.970353a202.029176 202.029176 0 0 0 7.107765-403.968l-7.107765-0.120471H150.588235a26.352941 26.352941 0 0 1-3.312941-52.495059L150.588235 254.735059h122.970353z" fill="#568af2" /></svg>