<svg class="icon" style="width: 1em;height: 1em;vertical-align: middle;fill: currentColor;overflow: hidden;" viewBox="0 0 1024 1024" version="1.1" xmlns="http://www.w3.org/2000/svg" width="32" height="32"><path d="M512 184.470588c13.432471 0 24.515765 10.059294 26.142118 23.04l0.210823 3.312941v632.470589a26.352941 26.352941 0 0 1-52.495059 3.312941l-0.210823-3.312941V210.823529c0-14.546824 11.806118-26.352941 26.352941-26.352941z" fill="#568af2" /><path d="M704.180706 613.827765a26.352941 26.352941 0 0 1 39.634823 34.575059l-2.349176 2.710588-210.823529 210.823529a26.352941 26.352941 0 0 1-34.575059 2.349177l-2.710589-2.349177-210.823529-210.823529a26.352941 26.352941 0 0 1 34.575059-39.634824l2.710588 2.349177L512 806.038588l192.180706-192.210823z" fill="#568af2" /></svg>