<svg class="icon" style="width: 1em;height: 1em;vertical-align: middle;fill: currentColor;overflow: hidden;" viewBox="0 0 1024 1024" version="1.1" xmlns="http://www.w3.org/2000/svg" width="32" height="32"><path d="M0 0h1024v1024H0z" fill="#568af2" fill-opacity="0" /><path d="M584.794353 202.029176c13.432471 0 24.515765 10.059294 26.142118 23.070118l0.210823 3.312941-0.030118 184.440471h184.500706c13.432471 0 24.515765 10.059294 26.142118 23.070118l0.210824 3.312941a26.352941 26.352941 0 0 1-23.070118 26.142117l-3.312941 0.180706h-210.82353a26.352941 26.352941 0 0 1-26.142117-23.04l-0.180706-3.312941v-210.823529c0-14.546824 11.776-26.352941 26.352941-26.352942zM391.529412 184.470588a26.352941 26.352941 0 0 1 3.312941 52.495059l-3.312941 0.210824H207.058824V421.647059a26.352941 26.352941 0 0 1-23.04 26.142117l-3.312942 0.210824a26.352941 26.352941 0 0 1-26.142117-23.04L154.352941 421.647059V210.823529c0-13.432471 10.059294-24.515765 23.04-26.142117L180.705882 184.470588h210.82353zM813.176471 606.117647c13.432471 0 24.515765 10.059294 26.142117 23.04l0.210824 3.312941v210.82353a26.352941 26.352941 0 0 1-23.04 26.142117l-3.312941 0.210824h-210.82353a26.352941 26.352941 0 0 1-3.312941-52.495059l3.312941-0.210824h184.470588V632.470588c0-13.432471 10.059294-24.515765 23.04-26.142117l3.312942-0.210824zM409.088 588.559059c13.432471 0 24.545882 10.029176 26.172235 23.04l0.180706 3.312941v210.823529a26.352941 26.352941 0 0 1-52.495059 3.312942l-0.210823-3.312942V641.204706H198.264471a26.352941 26.352941 0 0 1-26.142118-23.04l-0.210824-3.312941c0-13.402353 10.059294-24.515765 23.070118-26.142118l3.312941-0.180706h210.82353z" fill="#568af2" /><path d="M794.533647 192.180706a26.352941 26.352941 0 0 1 39.634824 34.575059l-2.349177 2.710588-228.412235 228.382118a26.352941 26.352941 0 0 1-39.604706-34.575059l2.349176-2.710588 228.382118-228.382118zM390.475294 596.269176a26.352941 26.352941 0 0 1 39.604706 34.575059l-2.349176 2.710589-228.382118 228.382117a26.352941 26.352941 0 0 1-39.634824-34.575059l2.349177-2.710588 228.412235-228.382118z" fill="#568af2" /></svg>