<svg class="icon" style="width: 1em;height: 1em;vertical-align: middle;fill: currentColor;overflow: hidden;" viewBox="0 0 1024 1024" version="1.1" xmlns="http://www.w3.org/2000/svg" width="32" height="32"><path d="M312.651294 282.533647a26.352941 26.352941 0 0 1 34.575059-2.349176l2.710588 2.349176 210.82353 210.823529c9.426824 9.456941 10.24 24.244706 2.349176 34.575059l-2.349176 2.710589-210.82353 210.823529a26.352941 26.352941 0 0 1-39.634823-34.575059l2.349176-2.710588L504.862118 512l-192.210824-192.180706a26.352941 26.352941 0 0 1-2.349176-34.575059l2.349176-2.710588zM682.676706 274.823529c13.432471 0 24.515765 10.059294 26.142118 23.04l0.210823 3.312942v421.647058a26.352941 26.352941 0 0 1-52.525176 3.312942l-0.180706-3.312942V301.176471c0-14.546824 11.776-26.352941 26.352941-26.352942z" fill="#568af2" /></svg>