<svg class="icon" style="width: 1em;height: 1em;vertical-align: middle;fill: currentColor;overflow: hidden;" viewBox="0 0 1024 1024" version="1.1" xmlns="http://www.w3.org/2000/svg" width="32" height="32"><path d="M813.176471 500.705882H286.117647a26.352941 26.352941 0 0 0-26.352941 26.352942V843.294118c0 14.546824 11.806118 26.352941 26.352941 26.352941H813.176471a26.352941 26.352941 0 0 0 26.352941-26.352941V527.058824a26.352941 26.352941 0 0 0-26.352941-26.352942zM180.705882 430.441412l-1.054117-0.030118a26.503529 26.503529 0 0 1-1.92753-0.150588l2.981647 0.180706a26.503529 26.503529 0 0 1-12.378353-3.102118l-2.891294-1.807059a26.413176 26.413176 0 0 1-2.770823-2.258823l-0.843294-0.813177a26.503529 26.503529 0 0 1-1.174589-1.295059l2.017883 2.108236a26.503529 26.503529 0 0 1-8.131765-15.902118l-0.090353-1.204706a26.503529 26.503529 0 0 1-0.090353-1.746823V245.970824a26.352941 26.352941 0 0 1 52.495059-3.312942l0.210824 3.312942v91.678117l17.980235-19.004235A342.016 342.016 0 0 1 496.941176 184.470588c109.959529 0 211.275294 52.193882 275.486118 138.902588a26.352941 26.352941 0 1 1-42.375529 31.352471 289.370353 289.370353 0 0 0-233.110589-117.549176c-88.154353 0-169.712941 39.604706-225.882352 108.122353l-5.933177 7.439058-23.491765 24.96753h97.189647c13.432471 0 24.515765 10.059294 26.142118 23.070117l0.210824 3.312942a26.352941 26.352941 0 0 1-23.04 26.142117l-3.312942 0.210824H180.705882z" fill="#568af2" /></svg>