<svg class="icon" style="width: 1em;height: 1em;vertical-align: middle;fill: currentColor;overflow: hidden;" viewBox="0 0 1024 1024" version="1.1" xmlns="http://www.w3.org/2000/svg" width="32" height="32"><path d="M853.323294 320a26.352941 26.352941 0 0 1 3.312941 52.495059l-3.312941 0.210823H361.411765A184.470588 184.470588 0 0 0 176.941176 557.176471a184.169412 184.169412 0 0 0 177.694118 184.350117l6.776471 0.120471h245.970823a219.136 219.136 0 0 0 172.333177-83.486118 218.985412 218.985412 0 0 0 44.483764-101.104941 26.352941 26.352941 0 0 1 52.043295 8.342588 270.516706 270.516706 0 0 1-55.17553 125.470118 271.811765 271.811765 0 0 1-204.348235 103.303529l-9.336471 0.180706H361.411765A236.875294 236.875294 0 0 1 124.235294 557.176471a237.206588 237.206588 0 0 1 229.797647-237.056l7.378824-0.120471h491.911529z" fill="#568af2" /><path d="M729.298824 222.298353a26.352941 26.352941 0 0 1 34.544941-2.349177l2.710588 2.349177 105.411765 105.411765c9.426824 9.456941 10.24 24.244706 2.349176 34.575058l-2.349176 2.710589-105.411765 105.411764a26.352941 26.352941 0 0 1-39.634824-34.575058l2.379295-2.710589 86.768941-86.768941-86.768941-86.768941a26.352941 26.352941 0 0 1-2.379295-34.575059l2.379295-2.710588z" fill="#568af2" /></svg>