<svg class="icon" style="width: 1em;height: 1em;vertical-align: middle;fill: currentColor;overflow: hidden;" viewBox="0 0 1024 1024" version="1.1" xmlns="http://www.w3.org/2000/svg" width="32" height="32"><path d="M828.235294 485.647059c13.432471 0 24.515765 10.059294 26.142118 23.04l0.210823 3.312941v316.235294a26.352941 26.352941 0 0 1-23.04 26.142118l-3.312941 0.210823h-632.470588a26.352941 26.352941 0 0 1-26.142118-23.04l-0.210823-3.312941V512.150588a26.352941 26.352941 0 0 1 52.495059-3.312941l0.210823 3.312941v289.731765h579.764706V512c0-13.432471 10.059294-24.515765 23.04-26.142118l3.312941-0.210823z m-315.211294-316.235294h-1.174588a26.593882 26.593882 0 0 1 16.082823 5.360941l2.710589 2.349176 158.117647 158.117647a26.352941 26.352941 0 0 1-34.575059 39.634824l-2.710588-2.349177-113.272471-113.302588v393.336471a26.352941 26.352941 0 0 1-52.495059 3.312941l-0.210823-3.312941V259.523765l-112.971295 113.001411a26.352941 26.352941 0 0 1-34.575058 2.349177l-2.710589-2.349177a26.352941 26.352941 0 0 1-2.349176-34.575058l2.349176-2.710589 156.461177-156.461176a26.292706 26.292706 0 0 1 21.323294-9.336471z" fill="#568af2" /></svg>