<svg class="icon" style="width: 1em;height: 1em;vertical-align: middle;fill: currentColor;overflow: hidden;" viewBox="0 0 1024 1024" version="1.1" xmlns="http://www.w3.org/2000/svg" width="32" height="32"><path d="M643.945412 423.092706a26.352941 26.352941 0 0 1 34.575059-2.349177l2.710588 2.349177 140.528941 140.559059c9.456941 9.426824 10.24 24.214588 2.379294 34.544941l-2.379294 2.710588-140.528941 140.559059a26.352941 26.352941 0 0 1-39.634824-34.575059l2.349177-2.710588 121.886117-121.916235-121.886117-121.916236a26.352941 26.352941 0 0 1-2.349177-34.544941l2.349177-2.710588z" fill="#568af2" /><path d="M240.941176 274.823529c13.432471 0 24.515765 10.059294 26.142118 23.04l0.210824 3.312942v228.382117c0 13.432471 10.059294 24.545882 23.04 26.172236l3.312941 0.180705h509.500235a26.352941 26.352941 0 0 1 3.312941 52.525177l-3.312941 0.180706H293.647059a79.058824 79.058824 0 0 1-78.908235-74.059294l-0.150589-4.99953V301.176471c0-14.546824 11.806118-26.352941 26.352941-26.352942z" fill="#568af2" /></svg>