<svg class="icon" style="width: 1em;height: 1em;vertical-align: middle;fill: currentColor;overflow: hidden;" viewBox="0 0 1024 1024" version="1.1" xmlns="http://www.w3.org/2000/svg" width="32" height="32"><path d="M156.551529 337.889882a285.244235 285.244235 0 0 1 521.728 36.321883l1.626353 4.818823h21.142589c82.311529-0.060235 153.6 43.459765 179.922823 115.440941l2.409412 7.04753a188.175059 188.175059 0 0 1-71.137882 210.763294 26.352941 26.352941 0 1 1-30.328471-43.098353 135.469176 135.469176 0 0 0 51.2-151.732706c-16.082824-50.838588-64.963765-83.275294-125.078588-85.594353l-6.987294-0.12047h-40.779295c-12.047059 0-22.528-8.131765-25.509647-19.787295a232.568471 232.568471 0 1 0-399.420235 211.907765 26.352941 26.352941 0 0 1-39.454118 34.936471 285.274353 285.274353 0 0 1-39.333647-320.90353z" fill="#568af2" /><path d="M506.88 465.558588c13.432471 0 24.515765 10.059294 26.142118 23.04l0.210823 3.312941 0.150588 316.235295a26.352941 26.352941 0 0 1-52.495058 3.312941l-0.210824-3.312941-0.150588-316.235295c0-14.546824 11.776-26.322824 26.322823-26.352941z" fill="#568af2" /><path d="M600.033882 677.707294a26.352941 26.352941 0 0 1 39.634824 34.575059l-2.349177 2.710588-111.826823 111.796706a26.352941 26.352941 0 0 1-34.544941 2.349177l-2.710589-2.349177-111.796705-111.796706a26.352941 26.352941 0 0 1 34.575058-39.634823l2.710589 2.349176 93.153882 93.184 93.153882-93.184z" fill="#568af2" /></svg>