<svg class="icon" style="width: 1em;height: 1em;vertical-align: middle;fill: currentColor;overflow: hidden;" viewBox="0 0 1024 1024" version="1.1" xmlns="http://www.w3.org/2000/svg" width="32" height="32"><path d="M0 0h1024v1024H0z" fill="#568af2" fill-opacity="0" /><path d="M704.180706 312.651294a26.352941 26.352941 0 0 1 39.634823 34.575059l-2.349176 2.710588-210.823529 210.82353a26.352941 26.352941 0 0 1-34.575059 2.349176l-2.710589-2.349176-210.823529-210.82353a26.352941 26.352941 0 0 1 34.575059-39.634823l2.710588 2.349176L512 504.862118l192.180706-192.210824zM722.823529 656.323765a26.352941 26.352941 0 0 1 3.312942 52.495059l-3.312942 0.210823H301.176471a26.352941 26.352941 0 0 1-3.312942-52.525176l3.312942-0.180706h421.647058z" fill="#568af2" /></svg>