<svg class="icon" style="width: 1em;height: 1em;vertical-align: middle;fill: currentColor;overflow: hidden;" viewBox="0 0 1024 1024" version="1.1" xmlns="http://www.w3.org/2000/svg" width="32" height="32"><path d="M760.470588 184.470588a79.058824 79.058824 0 0 1 79.058824 79.058824v527.058823a79.058824 79.058824 0 0 1-79.058824 79.058824H233.411765a79.058824 79.058824 0 0 1-79.058824-79.058824V263.529412A79.058824 79.058824 0 0 1 233.411765 184.470588z m-247.567059 233.743059a26.352941 26.352941 0 0 0-34.605176 2.379294l-175.676235 175.676235-2.349177 2.710589a26.352941 26.352941 0 0 0 2.349177 34.544941l2.710588 2.379294a26.352941 26.352941 0 0 0 34.544941-2.379294l157.063529-157.033412 157.06353 157.033412 2.710588 2.379294a26.352941 26.352941 0 0 0 34.544941-39.634824l-175.676235-175.676235z" fill="#568af2" /></svg>