<svg class="icon" style="width: 1em;height: 1em;vertical-align: middle;fill: currentColor;overflow: hidden;" viewBox="0 0 1024 1024" version="1.1" xmlns="http://www.w3.org/2000/svg" width="32" height="32"><path d="M527.058824 184.470588c189.199059 0 342.588235 153.389176 342.588235 342.588236S716.257882 869.647059 527.058824 869.647059a341.534118 341.534118 0 0 1-242.236236-100.352 26.352941 26.352941 0 0 1 37.25553-37.25553 288.828235 288.828235 0 0 0 204.980706 84.901647 289.882353 289.882353 0 0 0 0-579.764705 288.828235 288.828235 0 0 0-204.980706 84.931764l-6.625883 6.686118-16.624941 17.558588-17.709176 19.154824-23.130353 25.449411-27.467294 30.629648a26.352941 26.352941 0 1 1-39.393883-34.996706l27.768471-30.991059 25.991529-28.55153 22.588236-24.304941 9.33647-9.818353 8.011294-8.131764A341.534118 341.534118 0 0 1 527.058824 184.500706z" fill="#568af2" /><path d="M210.823529 237.176471c13.432471 0 24.515765 10.059294 26.142118 23.04l0.210824 3.312941v114.176h114.206117c13.432471 0 24.515765 10.059294 26.142118 23.070117l0.210823 3.312942a26.352941 26.352941 0 0 1-23.070117 26.142117l-3.312941 0.210824H210.823529a26.352941 26.352941 0 0 1-26.142117-23.070118l-0.210824-3.312941V263.529412c0-14.546824 11.806118-26.352941 26.352941-26.352941z" fill="#568af2" /></svg>