<svg class="icon" style="width: 1em;height: 1em;vertical-align: middle;fill: currentColor;overflow: hidden;" viewBox="0 0 1024 1024" version="1.1" xmlns="http://www.w3.org/2000/svg" width="32" height="32"><path d="M825.735529 304.941176c13.432471 0 24.515765 10.059294 26.142118 23.070118l0.210824 3.312941v210.82353a26.352941 26.352941 0 0 1-52.525177 3.282823l-0.180706-3.312941-0.030117-184.470588h-184.440471a26.352941 26.352941 0 0 1-26.172235-23.04l-0.180706-3.312941c0-13.432471 10.029176-24.515765 23.04-26.142118l3.312941-0.210824h210.823529z" fill="#568af2" /><path d="M806.671059 313.072941a26.352941 26.352941 0 0 1 40.387765 33.67153l-2.288942 2.770823-260.276706 272.293647a26.352941 26.352941 0 0 1-29.515294 5.993412l-3.252706-1.686588-153.509647-93.57553-167.092705 202.059294a26.352941 26.352941 0 0 1-34.18353 5.601883l-2.921412-2.108236a26.352941 26.352941 0 0 1-5.601882-34.183529l2.108235-2.891294 181.609412-219.617882a26.352941 26.352941 0 0 1 30.900706-7.348706l3.132235 1.626353 154.864941 94.388706 245.63953-256.993883z" fill="#568af2" /></svg>