<svg class="icon" style="width: 1em;height: 1em;vertical-align: middle;fill: currentColor;overflow: hidden;" viewBox="0 0 1024 1024" version="1.1" xmlns="http://www.w3.org/2000/svg" width="32" height="32"><path d="M483.237647 131.945412a26.352941 26.352941 0 0 1 34.544941-2.349177l2.710588 2.349177 140.649412 140.559059a26.352941 26.352941 0 0 1-34.575059 39.634823l-2.710588-2.349176-122.036706-121.976471-121.795764 121.735529a26.352941 26.352941 0 0 1-34.544942 2.349177l-2.710588-2.349177a26.352941 26.352941 0 0 1-2.349176-34.575058l2.379294-2.710589 140.438588-140.318117zM342.768941 694.151529a26.352941 26.352941 0 0 1 34.575059-2.379294l2.710588 2.379294 122.006588 121.916236 121.825883-121.705412a26.352941 26.352941 0 0 1 34.575059-2.349177l2.710588 2.349177a26.352941 26.352941 0 0 1 2.319059 34.575059l-2.349177 2.710588-140.438588 140.348235a26.352941 26.352941 0 0 1-34.575059 2.349177l-2.710588-2.379294-140.649412-140.528942a26.352941 26.352941 0 0 1 0-37.285647z" fill="#568af2" /><path d="M501.970824 124.235294c13.432471 0 24.515765 10.059294 26.142117 23.04l0.210824 3.312941v702.735059a26.352941 26.352941 0 0 1-52.525177 3.312941l-0.180706-3.312941V150.588235c0-14.546824 11.776-26.352941 26.352942-26.352941z" fill="#568af2" /></svg>