<svg class="icon" style="width: 1em;height: 1em;vertical-align: middle;fill: currentColor;overflow: hidden;" viewBox="0 0 1024 1024" version="1.1" xmlns="http://www.w3.org/2000/svg" width="32" height="32"><path d="M0 0h1024v1024H0z" fill="#568af2" fill-opacity="0" /><path d="M512.150588 276.600471c13.432471 0 24.515765 10.029176 26.142118 23.04l0.210823 3.312941V722.823529a26.352941 26.352941 0 0 1-52.495058 3.312942L485.797647 722.823529V302.983529c0-14.576941 11.806118-26.352941 26.352941-26.352941z" fill="#568af2" /><path d="M493.357176 282.533647a26.352941 26.352941 0 0 1 34.575059-2.349176l2.710589 2.349176 210.823529 210.823529a26.352941 26.352941 0 0 1-34.575059 39.634824l-2.710588-2.349176L512 338.432l-192.180706 192.210824a26.352941 26.352941 0 0 1-34.575059 2.349176l-2.710588-2.349176a26.352941 26.352941 0 0 1-2.349176-34.575059l2.349176-2.710589 210.823529-210.823529z" fill="#568af2" /></svg>