<svg class="icon" style="width: 1em;height: 1em;vertical-align: middle;fill: currentColor;overflow: hidden;" viewBox="0 0 1024 1024" version="1.1" xmlns="http://www.w3.org/2000/svg" width="32" height="32"><path d="M501.970824 124.235294c208.594824 0 377.705412 169.110588 377.705411 377.73553 0 208.594824-169.110588 377.705412-377.705411 377.705411-208.624941 0-377.735529-169.110588-377.73553-377.705411 0-208.624941 169.110588-377.735529 377.73553-377.73553z m9.697882 209.769412a26.352941 26.352941 0 0 0-37.285647 0l-158.117647 158.117647-0.451765 0.481882a26.503529 26.503529 0 0 0-1.596235 1.807059l-0.301177 0.39153a26.413176 26.413176 0 0 0-1.686588 29.394823 27.105882 27.105882 0 0 0 1.536 2.288941l0.150588 0.180706 0.301177 0.39153a26.503529 26.503529 0 0 0 1.596235 1.837176l0.451765 0.481882 158.117647 158.117647 2.710588 2.349177a26.352941 26.352941 0 0 0 34.575059-2.349177l2.349176-2.710588a26.352941 26.352941 0 0 0-2.349176-34.544941l-113.182118-113.152h252.687059l3.282824-0.180706a26.352941 26.352941 0 0 0-3.312942-52.525176h-252.656941l113.182118-113.121883 2.349176-2.710588a26.352941 26.352941 0 0 0-2.349176-34.544941z" fill="#568af2" /></svg>