<svg class="icon" style="width: 1em;height: 1em;vertical-align: middle;fill: currentColor;overflow: hidden;" viewBox="0 0 1024 1024" version="1.1" xmlns="http://www.w3.org/2000/svg" width="32" height="32"><path d="M0 0h1024v1024H0z" fill="#568af2" fill-opacity="0" /><path d="M469.323294 154.352941a26.352941 26.352941 0 0 1 3.312941 52.495059l-3.312941 0.210824H276.088471a8.794353 8.794353 0 0 0-8.553412 6.77647l-0.240941 2.017882V813.176471c0 4.156235 2.891294 7.649882 6.77647 8.553411l2.017883 0.240942H768a8.794353 8.794353 0 0 0 8.553412-6.776471l0.240941-2.017882v-285.515295a26.352941 26.352941 0 0 1 52.495059-3.282823l0.210823 3.312941V813.176471a61.500235 61.500235 0 0 1-56.922353 61.319529l-4.577882 0.180706H276.088471a61.500235 61.500235 0 0 1-61.31953-56.922353L214.588235 813.176471V215.853176c0-32.436706 25.088-58.970353 56.922353-61.319529l4.577883-0.180706h193.234823z" fill="#568af2" /><path d="M469.323294 277.323294c13.432471 0 24.545882 10.059294 26.172235 23.070118l0.180706 3.312941v184.440471h184.470589c13.432471 0 24.545882 10.059294 26.172235 23.070117l0.180706 3.312941a26.352941 26.352941 0 0 1-23.04 26.142118l-3.312941 0.180706h-210.82353a26.352941 26.352941 0 0 1-26.142118-23.04l-0.210823-3.312941v-210.82353c0-14.546824 11.806118-26.352941 26.352941-26.352941z" fill="#568af2" /><path d="M766.945882 179.651765a26.352941 26.352941 0 0 1 39.604706 34.544941l-2.349176 2.710588-316.235294 316.235294a26.352941 26.352941 0 0 1-39.634824-34.575059l2.379294-2.710588 316.235294-316.235294z" fill="#568af2" /></svg>