<svg class="icon" style="width: 1em;height: 1em;vertical-align: middle;fill: currentColor;overflow: hidden;" viewBox="0 0 1024 1024" version="1.1" xmlns="http://www.w3.org/2000/svg" width="32" height="32"><path d="M659.004235 342.768941a26.352941 26.352941 0 0 1 39.634824 34.575059l-2.349177 2.710588-298.676706 298.646588a26.352941 26.352941 0 0 1-39.634823-34.544941l2.379294-2.710588 298.646588-298.676706z" fill="#568af2" /><path d="M677.647059 335.058824c13.432471 0 24.515765 10.059294 26.142117 23.04l0.210824 3.312941v316.235294a26.352941 26.352941 0 0 1-52.495059 3.312941l-0.210823-3.312941v-289.882353H361.411765a26.352941 26.352941 0 0 1-26.142118-23.04l-0.210823-3.312941c0-13.432471 10.059294-24.515765 23.04-26.142118l3.312941-0.210823h316.235294z" fill="#568af2" /></svg>