<svg class="icon" style="width: 1em;height: 1em;vertical-align: middle;fill: currentColor;overflow: hidden;" viewBox="0 0 1024 1024" version="1.1" xmlns="http://www.w3.org/2000/svg" width="32" height="32"><path d="M790.588235 154.352941a79.058824 79.058824 0 0 1 78.908236 74.059294l0.150588 4.99953v176.218353a26.352941 26.352941 0 0 1-52.495059 3.312941l-0.210824-3.312941V233.411765a26.352941 26.352941 0 0 0-23.04-26.142118l-3.312941-0.210823H263.529412a26.352941 26.352941 0 0 0-26.142118 23.04l-0.210823 3.312941v527.058823c0 13.432471 10.059294 24.515765 23.04 26.142118l3.312941 0.210823h175.887059a26.352941 26.352941 0 0 1 3.282823 52.495059l-3.312941 0.210824H263.529412a79.058824 79.058824 0 0 1-78.908236-74.059294l-0.150588-4.99953V233.411765a79.058824 79.058824 0 0 1 74.059294-78.908236l4.99953-0.150588h527.058823zM843.294118 559.043765c13.432471 0 24.515765 10.059294 26.142117 23.04l0.210824 3.312941v210.221176c0 22.829176-17.408 41.562353-39.695059 43.700706l-4.216471 0.210824h-210.191058a26.352941 26.352941 0 0 1-3.312942-52.495059l3.312942-0.210824h201.396705v-201.426823c0-13.432471 10.059294-24.515765 23.04-26.142118l3.312942-0.210823z" fill="#568af2" /><path d="M843.294118 559.043765a26.352941 26.352941 0 0 1 3.312941 52.495059l-3.312941 0.210823H421.647059a26.352941 26.352941 0 0 1-3.312941-52.495059l3.312941-0.210823h421.647059z" fill="#568af2" /><path d="M490.857412 460.739765a26.352941 26.352941 0 0 1 39.634823 34.575059l-2.379294 2.710588-86.768941 86.738823 86.768941 86.799059c9.456941 9.426824 10.24 24.244706 2.379294 34.575059l-2.379294 2.710588a26.352941 26.352941 0 0 1-34.544941 2.349177l-2.710588-2.379294-105.411765-105.411765a26.352941 26.352941 0 0 1-2.349176-34.544941l2.349176-2.710589 105.411765-105.411764z" fill="#568af2" /></svg>