<svg class="icon" style="width: 1em;height: 1em;vertical-align: middle;fill: currentColor;overflow: hidden;" viewBox="0 0 1024 1024" version="1.1" xmlns="http://www.w3.org/2000/svg" width="32" height="32"><path d="M0 0h1024v1024H0z" fill="#568af2" fill-opacity="0" /><path d="M308.705882 304.941176a26.352941 26.352941 0 0 1 3.312942 52.495059l-3.312942 0.210824H185.735529a8.794353 8.794353 0 0 0-8.553411 6.77647l-0.240942 2.017883V647.529412c0 4.156235 2.891294 7.649882 6.776471 8.553412l2.017882 0.240941h122.970353a26.352941 26.352941 0 0 1 3.312942 52.495059l-3.312942 0.210823H185.735529a61.500235 61.500235 0 0 1-61.319529-56.922353l-0.180706-4.577882v-281.088c0-32.436706 25.088-58.970353 56.922353-61.31953l4.577882-0.180706h122.970353zM747.911529 304.941176c32.436706 0 58.970353 25.088 61.31953 56.922353l0.180706 4.577883V647.529412a61.500235 61.500235 0 0 1-56.922353 61.319529l-4.577883 0.180706H624.941176a26.352941 26.352941 0 0 1-3.312941-52.525176l3.312941-0.180706h122.970353a8.794353 8.794353 0 0 0 8.553412-6.776471l0.240941-2.017882v-281.088a8.794353 8.794353 0 0 0-6.77647-8.553412l-2.017883-0.240941H624.941176a26.352941 26.352941 0 0 1-3.312941-52.495059l3.312941-0.210824h122.970353zM443.301647 319.518118a26.352941 26.352941 0 0 1 48.429177 20.510117l-1.295059 3.041883-68.848941 137.577411h133.150117a26.352941 26.352941 0 0 1 24.907294 35.026824l-1.355294 3.132235-87.913412 175.646118a26.352941 26.352941 0 0 1-48.429176-20.540235l1.325176-3.011765 68.788706-137.547294h-133.089882a26.352941 26.352941 0 0 1-24.877177-35.026824l1.325177-3.102117 87.883294-175.706353zM818.206118 436.705882h35.117176c19.425882 0 35.147294 15.721412 35.147294 35.147294V542.117647c0 19.395765-15.721412 35.147294-35.147294 35.147294h-35.117176V436.705882z" fill="#568af2" /></svg>