<svg class="icon" style="width: 1em;height: 1em;vertical-align: middle;fill: currentColor;overflow: hidden;" viewBox="0 0 1024 1024" version="1.1" xmlns="http://www.w3.org/2000/svg" width="32" height="32"><path d="M512 124.235294a131.764706 131.764706 0 1 0 0 263.529412 131.764706 131.764706 0 0 0 0-263.529412z m0 52.705882a79.058824 79.058824 0 1 1 0 158.117648 79.058824 79.058824 0 0 1 0-158.117648z" fill="#568af2" /><path d="M512 335.058824l9.697882 0.271058c32.436706 1.807059 65.716706 12.348235 98.725647 28.852706 4.728471 2.409412 9.246118 4.758588 13.492706 7.107765l11.986824 6.866823c9.336471 5.571765 16.926118 10.721882 22.467765 14.878118a26.352941 26.352941 0 0 1 8.192 10.24l1.174588 3.102118 70.26447 228.382117a26.352941 26.352941 0 0 1-8.673882 28.310589l-2.951529 2.048-75.053177 44.995764v143.209412a26.352941 26.352941 0 0 1-23.04 26.172235l-3.312941 0.180706a26.352941 26.352941 0 0 1-26.142118-23.04l-0.210823-3.312941v-158.117647c0-8.101647 3.734588-15.661176 9.968941-20.630588l2.831059-1.957647 70.144-42.104471-61.530353-199.981176-3.824941-2.469647a315.783529 315.783529 0 0 0-29.364706-16.715294c-26.654118-13.342118-53.007059-21.775059-76.950588-23.311059L512 387.764706l-7.890824 0.271059c-23.973647 1.536-50.296471 9.968941-76.950588 23.311059-7.981176 3.975529-15.540706 8.192-22.558117 12.438588l-10.932706 6.927059-61.680941 185.133176 73.487058 58.789647a26.352941 26.352941 0 0 1 9.667765 17.167059l0.240941 3.403294v158.117647a26.352941 26.352941 0 0 1-52.525176 3.312941l-0.180706-3.312941-0.030118-145.468235-77.94447-62.34353a26.352941 26.352941 0 0 1-9.426824-25.389176l0.90353-3.523765 70.26447-210.823529a26.352941 26.352941 0 0 1 9.185882-12.739765c5.541647-4.156235 13.131294-9.306353 22.467765-14.878118l11.986824-6.866823c4.246588-2.349176 8.734118-4.728471 13.492706-7.107765 33.008941-16.474353 66.258824-27.075765 98.725647-28.852706l9.697882-0.271058z" fill="#568af2" /></svg>