<svg class="icon" style="width: 1em;height: 1em;vertical-align: middle;fill: currentColor;overflow: hidden;" viewBox="0 0 1024 1024" version="1.1" xmlns="http://www.w3.org/2000/svg" width="32" height="32"><path d="M522.029176 124.235294a149.323294 149.323294 0 1 0 0 298.676706 149.323294 149.323294 0 0 0 0-298.676706z m0 52.705882a96.617412 96.617412 0 1 1 0 193.264942 96.617412 96.617412 0 0 1 0-193.264942zM803.147294 475.617882H240.941176a26.352941 26.352941 0 0 0-22.106352 40.719059L447.247059 867.689412a26.352941 26.352941 0 0 0 22.076235 11.986823h105.411765c8.914824 0 17.257412-4.517647 22.106353-11.986823L825.223529 516.336941a26.352941 26.352941 0 0 0-22.076235-40.719059z m-48.579765 52.675765l-194.138353 298.676706h-76.830117l-194.108235-298.676706h465.076705z" fill="#568af2" /></svg>