<svg class="icon" style="width: 1em;height: 1em;vertical-align: middle;fill: currentColor;overflow: hidden;" viewBox="0 0 1024 1024" version="1.1" xmlns="http://www.w3.org/2000/svg" width="32" height="32"><path d="M747.911529 304.941176H185.735529a61.500235 61.500235 0 0 0-61.500235 61.500236V647.529412c0 33.972706 27.527529 61.500235 61.500235 61.500235h562.176a61.500235 61.500235 0 0 0 61.500236-61.500235v-281.088a61.500235 61.500235 0 0 0-61.500236-61.500236z m-562.176 52.705883h562.176c4.848941 0 8.794353 3.915294 8.794353 8.794353V647.529412c0 4.848941-3.915294 8.794353-8.794353 8.794353H185.735529a8.794353 8.794353 0 0 1-8.794353-8.794353v-281.088c0-4.848941 3.915294-8.794353 8.794353-8.794353zM818.206118 436.705882h35.117176c19.425882 0 35.147294 15.721412 35.147294 35.147294V542.117647c0 19.395765-15.721412 35.147294-35.147294 35.147294h-35.117176V436.705882z" fill="#568af2" /></svg>