<svg class="icon" style="width: 1em;height: 1em;vertical-align: middle;fill: currentColor;overflow: hidden;" viewBox="0 0 1024 1024" version="1.1" xmlns="http://www.w3.org/2000/svg" width="32" height="32"><path d="M522.029176 124.235294a149.323294 149.323294 0 1 0 0 298.676706 149.323294 149.323294 0 0 0 0-298.676706z m0 52.705882a96.617412 96.617412 0 1 1 0 193.264942 96.617412 96.617412 0 0 1 0-193.264942zM574.735059 475.617882h-105.411765a26.352941 26.352941 0 0 0-22.076235 11.986824L218.834824 838.957176A26.352941 26.352941 0 0 0 240.941176 879.676235h562.206118a26.352941 26.352941 0 0 0 22.076235-40.719059L596.841412 487.604706a26.352941 26.352941 0 0 0-22.106353-11.986824z m-14.305883 52.675765l194.138353 298.676706H289.490824l194.108235-298.676706h76.830117z" fill="#568af2" /></svg>