<svg class="icon" style="width: 1em;height: 1em;vertical-align: middle;fill: currentColor;overflow: hidden;" viewBox="0 0 1024 1024" version="1.1" xmlns="http://www.w3.org/2000/svg" width="32" height="32"><path d="M517.029647 124.235294a131.764706 131.764706 0 1 0 0 263.529412 131.764706 131.764706 0 0 0 0-263.529412z m0 52.705882a79.058824 79.058824 0 1 1 0 158.117648 79.058824 79.058824 0 0 1 0-158.117648z" fill="#568af2" /><path d="M573.771294 335.058824c8.493176 0 16.384 4.065882 21.293177 10.812235l1.927529 3.041882 189.199059 351.382588a26.352941 26.352941 0 0 1-19.968 38.640942l-3.252706 0.210823-149.323294-0.030118v114.206118a26.352941 26.352941 0 0 1-23.04 26.172235l-3.312941 0.180706a26.352941 26.352941 0 0 1-26.142118-23.04l-0.210824-3.312941v-140.528941c0-13.432471 10.059294-24.545882 23.04-26.172235l3.312942-0.180706 131.523764-0.030118-160.798117-298.646588h-82.040471l-160.798118 298.646588h131.553883c13.432471 0 24.545882 10.059294 26.172235 23.070118l0.180706 3.312941v140.528941a26.352941 26.352941 0 0 1-52.495059 3.312941l-0.210823-3.312941v-114.206118H271.058824a26.352941 26.352941 0 0 1-24.576-35.870117l1.385411-2.95153 189.199059-351.382588a26.352941 26.352941 0 0 1 19.576471-13.613176l3.614117-0.240941h113.54353z" fill="#568af2" /></svg>