<svg class="icon" style="width: 1em;height: 1em;vertical-align: middle;fill: currentColor;overflow: hidden;" viewBox="0 0 1024 1024" version="1.1" xmlns="http://www.w3.org/2000/svg" width="32" height="32"><path d="M180.705882 475.617882c14.546824 0 26.352941 11.776 26.352942 26.352942 0 153.449412 106.315294 282.051765 249.344 316.144941l4.096 0.903529-34.906353-34.906353a26.352941 26.352941 0 0 1-2.349177-34.544941l2.349177-2.710588a26.352941 26.352941 0 0 1 34.575058-2.349177l2.710589 2.349177 87.823058 87.853176c16.624941 16.564706 4.848941 44.965647-18.612705 44.965647-208.624941 0-377.735529-169.110588-377.73553-377.705411 0-14.576941 11.806118-26.352941 26.352941-26.352942zM532.088471 124.235294c208.594824 0 377.705412 169.110588 377.705411 377.73553a26.352941 26.352941 0 0 1-52.705882 0c0-153.449412-106.315294-282.081882-249.313882-316.175059l-4.156236-0.933647 34.936471 34.93647c9.426824 9.426824 10.24 24.244706 2.349176 34.575059l-2.349176 2.710588a26.352941 26.352941 0 0 1-34.575059 2.349177l-2.710588-2.379294-87.823059-87.823059c-16.594824-16.624941-4.818824-44.995765 18.642824-44.995765zM408.033882 184.651294L214.738824 377.916235a26.352941 26.352941 0 0 0 0 37.25553l404.08847 404.08847a26.352941 26.352941 0 0 0 37.25553 0l193.264941-193.264941a26.352941 26.352941 0 0 0 0-37.255529L445.289412 184.621176a26.352941 26.352941 0 0 0-37.25553 0z m18.612706 55.898353l366.802824 366.802824-155.979294 155.979294L270.667294 396.528941l155.979294-155.979294z" fill="#568af2" /></svg>