<svg class="icon" style="width: 1em;height: 1em;vertical-align: middle;fill: currentColor;overflow: hidden;" viewBox="0 0 1024 1024" version="1.1" xmlns="http://www.w3.org/2000/svg" width="32" height="32"><path d="M532.088471 154.352941c-208.624941 0-377.735529 169.110588-377.73553 377.73553 0 208.594824 169.110588 377.705412 377.73553 377.705411 208.594824 0 377.705412-169.110588 377.705411-377.705411 0-208.624941-169.110588-377.735529-377.705411-377.73553z m0 52.705883c179.501176 0 324.999529 145.528471 324.999529 325.029647s-145.498353 324.999529-324.999529 324.999529S207.058824 711.589647 207.058824 532.088471 352.587294 207.058824 532.088471 207.058824z" fill="#568af2" /><path d="M532.088471 294.912a237.176471 237.176471 0 0 0 0 474.352941 26.352941 26.352941 0 0 0 26.352941-26.352941v-421.647059a26.352941 26.352941 0 0 0-26.352941-26.352941z m-26.383059 54.573176v365.176471h-0.301177a184.500706 184.500706 0 0 1-6.987294-364.001882l7.288471-1.174589z" fill="#568af2" /></svg>