<svg class="icon" style="width: 1em;height: 1em;vertical-align: middle;fill: currentColor;overflow: hidden;" viewBox="0 0 1024 1024" version="1.1" xmlns="http://www.w3.org/2000/svg" width="32" height="32"><path d="M0 0h1024v1024H0z" fill="#568af2" fill-opacity="0" /><path d="M853.323294 821.970824a26.352941 26.352941 0 0 1 3.312941 52.495058l-3.312941 0.210824H150.588235a26.352941 26.352941 0 0 1-3.312941-52.525177l3.312941-0.180705h702.735059zM606.298353 162.063059l-421.647059 421.647059a26.352941 26.352941 0 0 0 0 37.285647l105.411765 105.411764a26.352941 26.352941 0 0 0 18.642823 7.710118h140.559059a26.352941 26.352941 0 0 0 18.612706-7.710118l351.382588-351.382588a26.352941 26.352941 0 0 0 0-37.255529L643.614118 162.032941a26.352941 26.352941 0 0 0-37.285647 0z m18.612706 55.898353l138.420706 138.420706-325.029647 325.029647h-118.693647L240.549647 602.352941 624.911059 217.961412z" fill="#568af2" /></svg>