<svg class="icon" style="width: 1em;height: 1em;vertical-align: middle;fill: currentColor;overflow: hidden;" viewBox="0 0 1024 1024" version="1.1" xmlns="http://www.w3.org/2000/svg" width="32" height="32"><path d="M0 0h1024v1024H0z" fill="#568af2" fill-opacity="0" /><path d="M790.588235 184.470588H263.529412A79.058824 79.058824 0 0 0 184.470588 263.529412v527.058823a79.058824 79.058824 0 0 0 79.058824 79.058824h527.058823a79.058824 79.058824 0 0 0 79.058824-79.058824V263.529412a79.058824 79.058824 0 0 0-79.058824-79.058824z m-527.058823 52.705883h527.058823c14.546824 0 26.352941 11.806118 26.352941 26.352941v527.058823a26.352941 26.352941 0 0 1-26.352941 26.352941H263.529412a26.352941 26.352941 0 0 1-26.352941-26.352941V263.529412c0-14.546824 11.806118-26.352941 26.352941-26.352941z" fill="#568af2" /><path d="M702.735059 325.029647H351.382588a26.352941 26.352941 0 0 0-26.352941 26.352941v351.352471c0 14.576941 11.776 26.352941 26.352941 26.352941h351.352471a26.352941 26.352941 0 0 0 26.352941-26.352941V351.382588a26.352941 26.352941 0 0 0-26.352941-26.352941z m-26.352941 52.675765v298.676706h-298.676706v-298.676706h298.676706z" fill="#568af2" /><path d="M684.122353 490.857412a26.352941 26.352941 0 0 1 39.604706 34.575059l-2.349177 2.710588-193.264941 193.234823a26.352941 26.352941 0 0 1-39.604706-34.575058l2.349177-2.710589 193.264941-193.234823zM526.004706 332.739765a26.352941 26.352941 0 0 1 39.604706 34.575059l-2.349177 2.710588-193.264941 193.234823a26.352941 26.352941 0 0 1-39.604706-34.575059l2.349177-2.710588 193.264941-193.234823zM684.122353 332.739765a26.352941 26.352941 0 0 1 39.604706 34.575059l-2.349177 2.710588-351.382588 351.35247a26.352941 26.352941 0 0 1-39.604706-34.575058l2.349177-2.710589 351.382588-351.35247z" fill="#568af2" /><path d="M351.382588 465.558588c13.432471 0 24.515765 10.059294 26.142118 23.070118l0.210823 3.312941-0.030117 184.440471h184.500706c13.432471 0 24.515765 10.059294 26.142117 23.070117l0.210824 3.312941a26.352941 26.352941 0 0 1-23.070118 26.142118l-3.312941 0.180706h-210.823529a26.352941 26.352941 0 0 1-26.142118-23.04l-0.180706-3.312941v-210.82353c0-14.546824 11.776-26.352941 26.352941-26.352941zM702.735059 325.029647c13.432471 0 24.545882 10.029176 26.172235 23.04l0.180706 3.312941v210.82353a26.352941 26.352941 0 0 1-52.495059 3.312941l-0.210823-3.312941V377.675294h-184.470589a26.352941 26.352941 0 0 1-26.142117-23.04l-0.210824-3.312941c0-13.402353 10.059294-24.515765 23.070118-26.142118l3.312941-0.180706h210.823529z" fill="#568af2" /></svg>