<svg class="icon" style="width: 1em;height: 1em;vertical-align: middle;fill: currentColor;overflow: hidden;" viewBox="0 0 1024 1024" version="1.1" xmlns="http://www.w3.org/2000/svg" width="32" height="32"><path d="M0 0h1024v1024H0z" fill="#568af2" fill-opacity="0" /><path d="M813.176471 154.352941c32.406588 0 58.970353 25.088 61.319529 56.922353l0.180706 4.577882v140.528942a26.352941 26.352941 0 0 1-52.525177 3.312941l-0.180705-3.312941V215.853176a8.794353 8.794353 0 0 0-6.776471-8.553411L813.176471 207.058824h-140.559059a26.352941 26.352941 0 0 1-3.312941-52.495059l3.312941-0.210824H813.176471z m35.147294 491.91153c13.432471 0 24.515765 10.059294 26.142117 23.070117l0.210824 3.312941V813.176471a61.500235 61.500235 0 0 1-56.922353 61.319529l-4.577882 0.180706h-140.559059a26.352941 26.352941 0 0 1-3.312941-52.495059l3.312941-0.210823H813.176471a8.794353 8.794353 0 0 0 8.553411-6.776471l0.240942-2.017882v-140.559059c0-14.546824 11.776-26.352941 26.352941-26.352941zM180.705882 646.264471c13.432471 0 24.515765 10.059294 26.142118 23.070117l0.210824 3.312941V813.176471c0 4.156235 2.891294 7.649882 6.77647 8.553411l2.017882 0.240942h140.528942a26.352941 26.352941 0 0 1 3.312941 52.495058l-3.312941 0.210824H215.853176a61.500235 61.500235 0 0 1-61.319529-56.922353L154.352941 813.176471v-140.559059c0-14.546824 11.806118-26.352941 26.352941-26.352941z m175.676236-491.91153a26.352941 26.352941 0 0 1 3.312941 52.495059l-3.312941 0.210824H215.853176a8.794353 8.794353 0 0 0-8.553411 6.77647l-0.240941 2.017882v140.528942a26.352941 26.352941 0 0 1-52.495059 3.312941l-0.210824-3.312941V215.853176c0-32.436706 25.088-58.970353 56.922353-61.319529l4.577882-0.180706h140.528942zM514.499765 242.206118c-131.945412 0-237.176471 122.729412-237.176471 272.293647 0 149.594353 105.231059 272.323765 237.176471 272.323764 131.975529 0 237.176471-122.729412 237.17647-272.323764 0-149.564235-105.200941-272.293647-237.17647-272.293647z m0 52.705882c100.894118 0 184.470588 97.490824 184.470588 219.587765 0 122.127059-83.546353 219.617882-184.470588 219.617882-100.894118 0-184.470588-97.490824-184.470589-219.617882 0-122.096941 83.576471-219.587765 184.470589-219.587765z" fill="#568af2" /><path d="M830.735059 488.146824a26.352941 26.352941 0 0 1 3.312941 52.525176l-3.312941 0.180706h-632.470588a26.352941 26.352941 0 0 1-3.312942-52.495059l3.312942-0.210823h632.470588zM424.267294 606.117647a26.352941 26.352941 0 0 1 36.864-5.541647c17.889882 13.251765 35.508706 19.576471 53.368471 19.576471 18.070588 0 36.532706-6.445176 55.838117-19.968a26.352941 26.352941 0 0 1 30.208 43.188705c-27.768471 19.425882-56.591059 29.455059-86.046117 29.455059-29.635765 0-58.066824-10.149647-84.720941-29.846588a26.352941 26.352941 0 0 1-5.51153-36.864z" fill="#568af2" /></svg>