<svg class="icon" style="width: 1em;height: 1em;vertical-align: middle;fill: currentColor;overflow: hidden;" viewBox="0 0 1024 1024" version="1.1" xmlns="http://www.w3.org/2000/svg" width="32" height="32"><path d="M0 0h1024v1024H0z" fill="#568af2" fill-opacity="0" /><path d="M843.294118 259.764706c13.432471 0 24.515765 10.059294 26.142117 23.04l0.210824 3.312941v281.088c0 189.229176-153.389176 342.588235-342.588235 342.588235-186.247529 0-337.799529-148.630588-342.467765-333.733647l-0.120471-8.854588V286.117647a26.352941 26.352941 0 0 1 52.495059-3.312941l0.210824 3.312941v281.088a289.882353 289.882353 0 0 0 289.882353 289.882353c157.334588 0 285.394824-125.349647 289.761882-281.6l0.12047-8.282353V286.117647c0-14.546824 11.806118-26.352941 26.352942-26.352941z m-140.559059 0c13.432471 0 24.545882 10.059294 26.172235 23.04l0.180706 3.312941v281.088a202.029176 202.029176 0 0 1-403.937882 7.107765l-0.120471-7.107765V286.117647a26.352941 26.352941 0 0 1 52.495059-3.312941l0.210823 3.312941v281.088a149.323294 149.323294 0 0 0 298.526118 6.475294l0.120471-6.475294V286.117647c0-14.546824 11.806118-26.352941 26.352941-26.352941z" fill="#568af2" /><path d="M351.382588 154.352941H210.823529A26.352941 26.352941 0 0 0 184.470588 180.705882v105.411765c0 14.546824 11.806118 26.352941 26.352941 26.352941h140.559059a26.352941 26.352941 0 0 0 26.352941-26.352941V180.705882a26.352941 26.352941 0 0 0-26.352941-26.352941z m-26.383059 52.705883v52.705882H237.176471v-52.705882h87.823058zM843.294118 154.352941h-140.559059a26.352941 26.352941 0 0 0-26.352941 26.352941v105.411765c0 14.546824 11.806118 26.352941 26.352941 26.352941H843.294118a26.352941 26.352941 0 0 0 26.352941-26.352941V180.705882A26.352941 26.352941 0 0 0 843.294118 154.352941z m-26.352942 52.705883v52.705882h-87.853176v-52.705882h87.853176z" fill="#568af2" /></svg>