<svg class="icon" style="width: 1em;height: 1em;vertical-align: middle;fill: currentColor;overflow: hidden;" viewBox="0 0 1024 1024" version="1.1" xmlns="http://www.w3.org/2000/svg" width="32" height="32"><path d="M795.617882 154.352941H233.411765A79.058824 79.058824 0 0 0 154.352941 233.411765v562.206117a79.058824 79.058824 0 0 0 79.058824 79.058824h562.206117a79.058824 79.058824 0 0 0 79.058824-79.058824V233.411765a79.058824 79.058824 0 0 0-79.058824-79.058824zM233.411765 207.058824h562.206117c14.546824 0 26.352941 11.806118 26.352942 26.352941v562.206117a26.352941 26.352941 0 0 1-26.352942 26.352942H233.411765a26.352941 26.352941 0 0 1-26.352941-26.352942V233.411765c0-14.546824 11.806118-26.352941 26.352941-26.352941z" fill="#568af2" /><path d="M671.563294 443.181176a26.352941 26.352941 0 0 1 34.575059-2.379294l2.710588 2.379294 52.705883 52.705883c9.426824 9.426824 10.209882 24.214588 2.349176 34.544941l-2.379294 2.710588-52.705882 52.705883a26.352941 26.352941 0 0 1-39.604706-34.575059l2.349176-2.710588 34.032941-34.063059-34.032941-34.032941a26.352941 26.352941 0 0 1-2.349176-34.605177l2.349176-2.710588zM320.180706 443.181176a26.352941 26.352941 0 0 1 39.634823 34.544942l-2.349176 2.710588-34.093177 34.063059 34.093177 34.093176c9.426824 9.426824 10.24 24.214588 2.349176 34.544941l-2.349176 2.710589a26.352941 26.352941 0 0 1-34.575059 2.349176l-2.710588-2.349176-52.705882-52.705883a26.352941 26.352941 0 0 1-2.349177-34.575059l2.349177-2.710588 52.705882-52.705882zM495.887059 267.474824a26.352941 26.352941 0 0 1 34.544941-2.349177l2.710588 2.349177 52.705883 52.705882a26.352941 26.352941 0 0 1-34.575059 39.634823l-2.710588-2.349176-34.063059-34.093177-34.032941 34.093177a26.352941 26.352941 0 0 1-34.605177 2.349176l-2.710588-2.349176a26.352941 26.352941 0 0 1-2.349177-34.575059l2.379294-2.710588 52.705883-52.705882zM548.592941 671.563294a26.352941 26.352941 0 0 1 39.604706 34.575059l-2.349176 2.710588-52.705883 52.705883a26.352941 26.352941 0 0 1-34.575059 2.349176l-2.710588-2.379294-52.705882-52.705882a26.352941 26.352941 0 0 1 34.575059-39.604706l2.710588 2.349176 34.063059 34.032941 34.093176-34.032941z" fill="#568af2" /></svg>