<svg class="icon" style="width: 1em;height: 1em;vertical-align: middle;fill: currentColor;overflow: hidden;" viewBox="0 0 1024 1024" version="1.1" xmlns="http://www.w3.org/2000/svg" width="32" height="32"><path d="M806.339765 201.366588a26.352941 26.352941 0 0 1 3.312941 52.495059l-3.312941 0.210824-48.670118-0.060236a377.163294 377.163294 0 0 1 122.006588 278.076236 26.352941 26.352941 0 0 1-52.705882 0c0-101.014588-46.441412-193.897412-122.970353-254.644706v78.938353a26.352941 26.352941 0 0 1-52.495059 3.312941l-0.210823-3.312941 0.060235-130.590118 0.451765-3.222588 0.692706-2.710588 1.14447-3.011765 1.204706-2.319059a26.563765 26.563765 0 0 1 2.168471-3.222588l3.132235-3.312941 2.831059-2.168471 2.951529-1.716706 3.553882-1.445647 2.891295-0.752941 2.469647-0.39153 2.800941-0.150588h128.692706zM677.647059 681.411765h129.596235l3.46353 0.361411 2.469647 0.542118 3.102117 1.054118 3.252706 1.596235a26.563765 26.563765 0 0 1 3.252706 2.228706l2.590118 2.349176 2.409411 2.921412 1.807059 2.921412 1.505883 3.403294 0.752941 2.409412 0.752941 4.367059 0.090353 2.198588v128.692706a26.352941 26.352941 0 0 1-52.525177 3.312941l-0.180705-3.312941v-48.64a377.163294 377.163294 0 0 1-278.016 121.97647 26.352941 26.352941 0 1 1 0-52.705882c100.984471 0 193.897412-46.441412 254.614588-122.970353H677.647059a26.352941 26.352941 0 0 1-3.312941-52.495059l3.312941-0.210823zM197.571765 862.810353a26.352941 26.352941 0 0 1-3.282824-52.525177l3.312941-0.180705h48.609883a377.163294 377.163294 0 0 1-121.976471-278.016 26.352941 26.352941 0 1 1 52.705882 0c0 100.984471 46.441412 193.897412 122.970353 254.614588V707.764706a26.352941 26.352941 0 0 1 52.525177-3.312941l0.180706 3.312941v128.692706l-0.060236 1.776941-0.301176 2.770823-0.512 2.198589-0.722824 2.288941-0.873411 2.108235-1.505883 2.800941-2.529882 3.373177-3.312941 3.222588-2.590118 1.807059-3.312941 1.746823-2.499765 0.963765-2.228706 0.602353-3.70447 0.602353-2.198588 0.090353H197.601882zM502.000941 154.352941a26.352941 26.352941 0 0 1 0 52.705883 324.577882 324.577882 0 0 0-254.644706 122.970352h78.938353a26.352941 26.352941 0 0 1 3.312941 52.525177l-3.312941 0.180706-130.56-0.060235-2.710588-0.301177-3.252706-0.813176-3.011765-1.144471-3.011764-1.626353-1.897412-1.295059 2.590118 1.716706a26.563765 26.563765 0 0 1-3.222589-2.16847l-1.596235-1.41553-2.108235-2.228706-1.807059-2.349176-1.626353-2.831059-1.505882-3.674353-0.933647-3.824941-0.361412-3.764706V227.689412a26.352941 26.352941 0 0 1 52.495059-3.312941l0.210823 3.312941-0.030117 48.64a377.163294 377.163294 0 0 1 278.046117-122.006588z" fill="#568af2" /><path d="M677.647059 681.411765h129.596235l3.46353 0.361411 2.469647 0.542118 3.102117 1.054118 3.252706 1.596235a26.563765 26.563765 0 0 1 3.252706 2.228706l2.590118 2.349176 2.409411 2.921412 1.807059 2.921412 1.505883 3.403294 0.752941 2.409412 0.752941 4.367059 0.090353 2.198588v128.692706a26.352941 26.352941 0 0 1-52.525177 3.312941l-0.180705-3.312941v-48.64a377.163294 377.163294 0 0 1-278.016 121.97647 26.352941 26.352941 0 1 1 0-52.705882c100.984471 0 193.897412-46.441412 254.614588-122.970353H677.647059a26.352941 26.352941 0 0 1-3.312941-52.495059l3.312941-0.210823zM197.571765 862.810353a26.352941 26.352941 0 0 1-3.282824-52.525177l3.312941-0.180705h48.609883a377.163294 377.163294 0 0 1-121.976471-278.016 26.352941 26.352941 0 1 1 52.705882 0c0 100.984471 46.441412 193.897412 122.970353 254.614588V707.764706a26.352941 26.352941 0 0 1 52.525177-3.312941l0.180706 3.312941v128.692706l-0.060236 1.776941-0.301176 2.770823-0.512 2.198589-0.722824 2.288941-0.873411 2.108235-1.505883 2.800941-2.529882 3.373177-3.312941 3.222588-2.590118 1.807059-3.312941 1.746823-2.499765 0.963765-2.228706 0.602353-3.70447 0.602353-2.198588 0.090353H197.601882zM501.970824 154.352941a26.352941 26.352941 0 1 1 0 52.705883 324.577882 324.577882 0 0 0-254.644706 122.970352h78.938353a26.352941 26.352941 0 0 1 3.312941 52.525177l-3.312941 0.180706-130.56-0.060235-2.710589-0.301177-3.252706-0.813176-3.011764-1.144471-3.011765-1.626353-1.897412-1.295059 2.590118 1.716706a26.563765 26.563765 0 0 1-3.192471-2.16847l-2.68047-2.409412-2.499765-3.102118-1.114353-1.716706-1.505882-2.891294-1.295059-3.794823-0.632471-3.162353-0.240941-3.584V227.719529a26.352941 26.352941 0 0 1 52.495059-3.312941l0.210824 3.312941-0.030118 48.64a377.163294 377.163294 0 0 1 278.046118-122.006588zM806.339765 201.366588a26.352941 26.352941 0 0 1 3.312941 52.495059l-3.312941 0.210824-48.670118-0.060236a377.163294 377.163294 0 0 1 122.006588 278.076236 26.352941 26.352941 0 1 1-52.705882 0c0-101.014588-46.441412-193.897412-122.970353-254.644706v78.938353a26.352941 26.352941 0 0 1-52.495059 3.312941l-0.210823-3.312941 0.060235-130.590118 0.451765-3.222588 0.692706-2.710588 1.14447-3.011765 1.204706-2.319059a26.563765 26.563765 0 0 1 2.168471-3.192471l3.132235-3.312941 2.439529-1.927529 3.343059-1.987765 3.553882-1.445647 2.891295-0.752941 2.469647-0.39153 2.800941-0.150588h128.692706z" fill="#568af2" /></svg>