<svg class="icon" style="width: 1em;height: 1em;vertical-align: middle;fill: currentColor;overflow: hidden;" viewBox="0 0 1024 1024" version="1.1" xmlns="http://www.w3.org/2000/svg" width="32" height="32"><path d="M0 0h1024v1024H0z" fill="#568af2" fill-opacity="0" /><path d="M701.771294 412.822588a237.176471 237.176471 0 1 1-210.100706 412.762353l-7.28847-6.324706L519.529412 780.047059a184.470588 184.470588 0 1 0 176.399059-314.127059l-7.288471-2.048 13.131294-51.019294z" fill="#568af2" /><path d="M302.140235 412.822588l13.131294 51.019294a184.470588 184.470588 0 1 0 221.214118 120.380236l-3.312941-9.185883 49.031529-19.275294a237.176471 237.176471 0 1 1-287.623529-140.860235l7.529412-2.108235z" fill="#568af2" /><path d="M501.970824 124.235294a237.176471 237.176471 0 1 0 0 474.352941 237.176471 237.176471 0 0 0 0-474.352941z m0 52.705882a184.470588 184.470588 0 1 1 0 368.941177 184.470588 184.470588 0 0 1 0-368.941177z" fill="#568af2" /></svg>