<svg class="icon" style="width: 1em;height: 1em;vertical-align: middle;fill: currentColor;overflow: hidden;" viewBox="0 0 1024 1024" version="1.1" xmlns="http://www.w3.org/2000/svg" width="32" height="32"><path d="M532.088471 154.352941c13.432471 0 24.515765 10.059294 26.142117 23.04l0.210824 3.312941v140.559059a26.352941 26.352941 0 0 1-52.525177 3.312941l-0.180706-3.312941V180.705882c0-14.546824 11.776-26.352941 26.352942-26.352941zM541.364706 853.473882l0.903529 3.312942c6.686118 20.239059 34.514824 24.696471 46.863059 6.144l52.434824-78.667295 82.703058 82.672942a26.352941 26.352941 0 0 0 37.25553 0l105.411765-105.411765 2.379294-2.710588a26.352941 26.352941 0 0 0-2.379294-34.544942l-82.672942-82.703058 78.667295-52.404706c19.546353-13.040941 13.552941-43.188706-9.456942-47.796706l-351.35247-70.264471a26.352941 26.352941 0 0 0-31.021177 31.021177l70.264471 351.35247z m-10.842353-322.951529l250.217412 50.055529-52.464941 34.996706-2.770824 2.108236a26.352941 26.352941 0 0 0-1.234824 38.430117l86.738824 86.768941-68.126118 68.126118-86.738823-86.738824-2.650353-2.319058a26.352941 26.352941 0 0 0-37.948235 6.324706l-34.966589 52.464941-50.055529-250.217412zM761.916235 264.975059a26.352941 26.352941 0 0 1 39.604706 34.575059l-2.349176 2.710588-99.388236 99.388235a26.352941 26.352941 0 0 1-39.634823-34.575059l2.379294-2.710588 99.388235-99.388235zM364.363294 662.528a26.352941 26.352941 0 0 1 39.634824 34.575059l-2.349177 2.710588-99.388235 99.358118a26.352941 26.352941 0 0 1-39.634824-34.575059l2.349177-2.710588 99.388235-99.388236zM321.264941 505.735529a26.352941 26.352941 0 0 1 3.312941 52.495059l-3.312941 0.210824H180.705882a26.352941 26.352941 0 0 1-3.312941-52.525177l3.312941-0.180706h140.559059zM264.975059 264.975059a26.352941 26.352941 0 0 1 34.575059-2.349177l2.710588 2.349177 99.388235 99.388235a26.352941 26.352941 0 0 1-34.575059 39.634824l-2.710588-2.349177-99.388235-99.388235a26.352941 26.352941 0 0 1 0-37.285647z" fill="#568af2" /></svg>