<svg class="icon" style="width: 1em;height: 1em;vertical-align: middle;fill: currentColor;overflow: hidden;" viewBox="0 0 1024 1024" version="1.1" xmlns="http://www.w3.org/2000/svg" width="32" height="32"><path d="M0 0h1024v1024H0z" fill="#568af2" fill-opacity="0" /><path d="M414.117647 184.470588l-3.312941 0.210824a26.352941 26.352941 0 0 0-20.269177 14.366117l-27.858823 55.68753H291.147294a26.352941 26.352941 0 0 0-26.352941 26.352941v281.118118c0 14.546824 11.776 26.352941 26.352941 26.352941h421.647059a26.352941 26.352941 0 0 0 26.352941-26.352941V281.088l-0.210823-3.312941a26.352941 26.352941 0 0 0-26.142118-23.04H641.204706l-27.828706-55.717647a26.352941 26.352941 0 0 0-23.582118-14.546824H414.117647z m159.382588 52.705883l27.858824 55.717647 1.65647 2.831058c4.848941 7.258353 13.040941 11.745882 21.925647 11.745883l61.470118-0.030118v228.382118h-368.941176v-228.382118h61.500235l3.312941-0.180706a26.352941 26.352941 0 0 0 20.269177-14.366117l27.828705-55.717647h143.119059z" fill="#568af2" /><path d="M501.970824 307.440941a96.617412 96.617412 0 1 0 0 193.264941 96.617412 96.617412 0 0 0 0-193.264941z m0 52.705883a43.911529 43.911529 0 1 1 0 87.853176 43.911529 43.911529 0 0 1 0-87.853176zM197.180235 489.652706c10.932706 9.577412 12.047059 26.202353 2.499765 37.165176-15.239529 17.438118-22.738824 35.237647-22.738824 52.946824 0 67.674353 109.507765 131.011765 258.017883 146.010353l-21.89553-21.985883a26.352941 26.352941 0 0 1 34.544942-39.604705l2.710588 2.349176 70.26447 70.294588a26.563765 26.563765 0 0 1 2.710589 3.132236l1.65647 2.590117 1.505883 3.192471 0.481882 1.325176a26.473412 26.473412 0 0 1-0.060235 16.956236l-0.843294 2.16847-1.566118 3.011765-1.505882 2.16847-2.379295 2.710589-70.26447 70.26447a26.352941 26.352941 0 0 1-39.634824-34.544941l2.379294-2.710588 27.798589-27.828706c-178.296471-14.938353-316.626824-94.659765-316.626824-199.499294 0-31.322353 12.559059-61.078588 35.749647-87.642353a26.352941 26.352941 0 0 1 37.195294-2.469647zM806.761412 489.652706a26.352941 26.352941 0 0 1 37.165176 2.499765c23.190588 26.503529 35.749647 56.32 35.749647 87.612235 0 86.377412-93.876706 156.732235-231.54447 186.819765a26.352941 26.352941 0 0 1-11.233883-51.501177c116.314353-25.419294 190.072471-80.715294 190.072471-135.318588 0-17.709176-7.499294-35.538824-22.708706-52.946824a26.352941 26.352941 0 0 1 2.499765-37.165176z" fill="#568af2" /></svg>