<svg class="icon" style="width: 1em;height: 1em;vertical-align: middle;fill: currentColor;overflow: hidden;" viewBox="0 0 1024 1024" version="1.1" xmlns="http://www.w3.org/2000/svg" width="32" height="32"><path d="M501.970824 124.235294C293.345882 124.235294 124.235294 293.345882 124.235294 501.970824c0 208.594824 169.110588 377.705412 377.73553 377.705411 208.594824 0 377.705412-169.110588 377.705411-377.705411 0-208.624941-169.110588-377.735529-377.705411-377.73553z m0 52.705882c179.501176 0 324.999529 145.528471 324.999529 325.029648s-145.498353 324.999529-324.999529 324.999529S176.941176 681.472 176.941176 501.970824 322.469647 176.941176 501.970824 176.941176z" fill="#568af2" /><path d="M359.303529 554.736941a26.352941 26.352941 0 0 1 33.460706-4.969412l2.831059 2.017883 281.088 228.382117a26.352941 26.352941 0 0 1-30.298353 42.977883l-2.921412-2.078118-261.541647-212.48-123.783529 139.264a26.352941 26.352941 0 0 1-34.394353 4.397177l-2.831059-2.198589a26.352941 26.352941 0 0 1-4.367059-34.364235l2.198589-2.831059 140.528941-158.117647zM396.559059 282.352941a96.617412 96.617412 0 1 0 0 193.264941 96.617412 96.617412 0 0 0 0-193.264941z m0 52.705883a43.911529 43.911529 0 1 1 0 87.853176 43.911529 43.911529 0 0 1 0-87.853176z" fill="#568af2" /><path d="M621.929412 467.937882a26.352941 26.352941 0 0 1 34.093176-6.174117l2.95153 2.048 175.676235 140.559059a26.352941 26.352941 0 0 1-29.967059 43.188705l-2.951529-2.048-155.136-124.084705-124.084706 155.105882a26.352941 26.352941 0 0 1-34.063059 6.174118l-2.951529-2.048a26.352941 26.352941 0 0 1-6.174118-34.093177l2.048-2.951529 140.559059-175.676236z" fill="#568af2" /></svg>