<svg class="icon" style="width: 1em;height: 1em;vertical-align: middle;fill: currentColor;overflow: hidden;" viewBox="0 0 1024 1024" version="1.1" xmlns="http://www.w3.org/2000/svg" width="32" height="32"><path d="M0 0h1024v1024H0z" fill="#568af2" fill-opacity="0" /><path d="M197.571765 171.248941h128.692706l2.198588 0.090353 3.493647 0.512 3.011765 0.873412 3.011764 1.234823 2.710589 1.596236 3.794823 3.011764 1.746824 1.807059 1.837176 2.409412 1.024 1.626353 0.813177 1.536 1.084235 2.529882 0.993882 3.373177 0.451765 2.439529 0.180706 3.312941v128.662589a26.352941 26.352941 0 0 1-52.495059 3.312941l-0.210824-3.312941v-78.908236a324.577882 324.577882 0 0 0-122.970353 254.614589 26.352941 26.352941 0 1 1-52.705882 0c0-107.851294 45.598118-207.811765 121.976471-278.046118H197.632a26.352941 26.352941 0 0 1-3.312941-52.464941l3.312941-0.210824zM326.264471 651.294118a26.352941 26.352941 0 0 1 3.312941 52.495058l-3.312941 0.210824h-78.908236a324.577882 324.577882 0 0 0 254.614589 122.970353 26.352941 26.352941 0 0 1 0 52.705882c-107.881412 0-207.811765-45.598118-278.076236-121.97647l0.060236 48.64a26.352941 26.352941 0 0 1-52.495059 3.312941l-0.210824-3.312941V677.647059l0.090353-2.138353 0.39153-2.891294 0.391529-1.716706 0.602353-1.957647 1.596235-3.674353 1.385412-2.288941 1.325176-1.837177 2.017883-2.228706 2.590117-2.258823 2.198589-1.505883 2.108235-1.14447 2.108235-0.933647 3.041883-0.963765 3.19247-0.602353 2.409412-0.210823h129.566118zM806.339765 832.692706H677.647059l-4.336941-0.361412-2.228706-0.481882-2.409412-0.752941-3.403294-1.505883-2.800941-1.716706-2.319059-1.837176-1.776941-1.746824-2.529883-3.162353-0.993882-1.596235-0.873412-1.626353-1.385412-3.433412-0.63247-2.288941-0.451765-2.56-0.210823-2.379294V677.647059a26.352941 26.352941 0 0 1 52.495058-3.312941l0.210824 3.312941v78.938353a324.577882 324.577882 0 0 0 122.970353-254.614588 26.352941 26.352941 0 0 1 52.705882 0c0 107.821176-45.598118 207.751529-121.97647 278.016h48.64a26.352941 26.352941 0 0 1 3.312941 52.495058l-3.312941 0.210824zM677.647059 352.617412a26.352941 26.352941 0 0 1-3.312941-52.495059l3.312941-0.210824h78.938353a324.577882 324.577882 0 0 0-254.614588-122.970353 26.352941 26.352941 0 0 1 0-52.705882c107.821176 0 207.781647 45.598118 278.016 121.976471V197.632a26.352941 26.352941 0 0 1 52.495058-3.312941l0.180706 3.312941v128.662588l-0.090353 2.198588-0.572235 3.704471-1.174588 3.794824-1.536 3.252705-1.807059 2.770824-1.566118 1.927529-2.258823 2.198589-1.746824 1.415529-2.409412 1.566118-1.596235 0.843294-2.770823 1.204706-3.102118 0.873411-2.921412 0.481883-2.800941 0.12047H677.647059z" fill="#568af2" /></svg>