<svg class="icon" style="width: 1em;height: 1em;vertical-align: middle;fill: currentColor;overflow: hidden;" viewBox="0 0 1024 1024" version="1.1" xmlns="http://www.w3.org/2000/svg" width="32" height="32"><path d="M0 0h1024v1024H0z" fill="#568af2" fill-opacity="0" /><path d="M462.034824 266.089412L254.464 192.542118l-3.222588-0.933647a26.352941 26.352941 0 0 0-31.412706 31.081411l44.242823 214.738824-134.324705 173.748706-1.897412 2.770823a26.352941 26.352941 0 0 0 19.817412 39.544471l218.925176 24.455529 124.536471 180.976941 2.16847 2.770824a26.352941 26.352941 0 0 0 43.52-6.806588l90.985412-199.710118 211.365647-61.921882 3.343059-1.204706a26.352941 26.352941 0 0 0 6.987294-43.580235L686.832941 400.564706l6.144-219.136a26.352941 26.352941 0 0 0-39.303529-23.672471l-191.638588 108.333177z m176.941176-39.484236l-5.12 184.621177 0.090353 3.252706c0.632471 6.475294 3.614118 12.559059 8.523294 16.986353l136.824471 124.416-177.844706 52.133647-3.072 1.114353a26.352941 26.352941 0 0 0-13.492706 13.251764l-76.739765 168.297412-104.929882-152.515764-1.987765-2.56a26.352941 26.352941 0 0 0-16.775529-8.673883l-184.32-20.630588 113.061647-146.191059 2.108235-3.162353a26.352941 26.352941 0 0 0 2.861177-18.281412L280.877176 257.807059l174.893177 61.982117a26.352941 26.352941 0 0 0 21.775059-1.897411l161.430588-91.286589z" fill="#568af2" /><path d="M691.380706 714.571294a26.352941 26.352941 0 0 1 34.575059-2.409412l2.710588 2.349177 140.528941 139.89647a26.352941 26.352941 0 0 1-34.454588 39.725177l-2.710588-2.349177-140.559059-139.926588a26.352941 26.352941 0 0 1-0.090353-37.285647z" fill="#568af2" /></svg>