<svg class="icon" style="width: 1em;height: 1em;vertical-align: middle;fill: currentColor;overflow: hidden;" viewBox="0 0 1024 1024" version="1.1" xmlns="http://www.w3.org/2000/svg" width="32" height="32"><path d="M0 0h1024v1024H0z" fill="#568af2" fill-opacity="0" /><path d="M501.970824 154.352941c-208.624941 0-377.735529 169.110588-377.73553 377.73553 0 208.594824 169.110588 377.705412 377.73553 377.705411a26.352941 26.352941 0 0 0 26.352941-26.352941V180.705882a26.352941 26.352941 0 0 0-26.352941-26.352941zM475.557647 208.112941v647.890824l-7.920941-0.692706c-163.388235-17.136941-290.725647-155.316706-290.725647-323.222588 0-167.936 127.337412-306.115765 290.725647-323.252706l7.920941-0.722824z" fill="#568af2" /><path d="M501.970824 154.352941a26.352941 26.352941 0 0 0-26.352942 26.352941v702.735059c0 14.576941 11.776 26.352941 26.352942 26.352941 208.594824 0 377.705412-169.110588 377.705411-377.705411 0-208.624941-169.110588-377.735529-377.705411-377.73553z m26.322823 53.76l7.951059 0.722824c163.388235 17.167059 290.725647 155.316706 290.725647 323.252706l-0.090353 8.643764c-4.306824 163.990588-130.048 297.743059-290.635294 314.578824l-7.951059 0.692706V208.112941z" fill="#568af2" /><path d="M501.970824 716.559059a26.352941 26.352941 0 0 1 3.312941 52.495059l-3.312941 0.210823h-263.529412a26.352941 26.352941 0 0 1-3.312941-52.525176l3.312941-0.180706h263.529412zM501.970824 576a26.352941 26.352941 0 0 1 3.312941 52.495059l-3.312941 0.210823H168.146824a26.352941 26.352941 0 0 1-3.312942-52.495058l3.312942-0.210824h333.824zM501.970824 435.440941a26.352941 26.352941 0 0 1 3.312941 52.525177l-3.312941 0.180706H168.146824a26.352941 26.352941 0 0 1-3.312942-52.495059l3.312942-0.210824h333.824zM501.970824 294.912a26.352941 26.352941 0 0 1 3.312941 52.495059l-3.312941 0.210823h-263.529412a26.352941 26.352941 0 0 1-3.312941-52.525176l3.312941-0.180706h263.529412z" fill="#568af2" /></svg>