<svg class="icon" style="width: 1em;height: 1em;vertical-align: middle;fill: currentColor;overflow: hidden;" viewBox="0 0 1024 1024" version="1.1" xmlns="http://www.w3.org/2000/svg" width="32" height="32"><path d="M517.240471 138.842353l-2.469647 6.174118-2.198589 4.999529a225.28 225.28 0 0 1-1.596235 3.312941l-2.620235 5.270588c-15.781647 30.629647-42.767059 69.421176-83.727059 114.898824-27.888941 31.021176-72.372706 67.162353-127.427765 105.532235l-22.588235 15.450353-12.830118 8.553412a2009.750588 2009.750588 0 0 1-50.537412 32.316235l-31.774117 19.245177-11.836235 6.927059c-23.491765 13.402353-13.944471 49.212235 13.071058 49.212235h702.735059c26.413176 0 36.412235-34.514824 14.095059-48.609883l-19.425882-12.649411-16.052706-10.691765-8.553412-5.782588c-26.503529-18.070588-53.007059-36.954353-78.366118-56.139294l-22.768941-17.558589-16.896-13.492705c-32.165647-26.172235-58.849882-50.597647-78.396235-72.282353-33.430588-37.165176-57.916235-70.354824-74.872471-99.026824l-5.812706-10.149647a304.850824 304.850824 0 0 1-2.409411-4.457412l-3.855059-7.649882a157.515294 157.515294 0 0 1-1.505883-3.162353l-2.108235-4.999529a43.008 43.008 0 0 1-0.662588-1.807059c-7.589647-22.859294-38.640941-23.973647-48.609882-3.433412z m21.172705 73.185882l2.138353-3.553882 1.234824 2.017882c16.865882 26.864941 41.562353 59.904 76.107294 98.273883 21.654588 24.033882 50.206118 50.206118 84.449882 78.034823l21.594353 17.197177 19.365647 14.878117c13.040941 9.878588 26.383059 19.666824 39.845647 29.304471l13.974589 9.84847H273.950118l16.986353-11.083294 13.010823-8.673882c68.909176-46.381176 124.626824-90.352941 159.864471-129.505882 32.225882-35.809882 56.711529-68.186353 74.601411-96.737883zM813.176471 598.588235H250.970353a26.352941 26.352941 0 0 0-26.352941 26.352941v228.382118c0 14.576941 11.806118 26.352941 26.352941 26.352941H813.176471a26.352941 26.352941 0 0 0 26.352941-26.352941V624.941176a26.352941 26.352941 0 0 0-26.352941-26.352941z m-26.352942 52.705883v175.676235H277.323294v-175.676235h509.500235z" fill="#568af2" /><path d="M725.323294 458.029176H338.823529a26.352941 26.352941 0 0 0-26.352941 26.352942v140.559058c0 14.546824 11.806118 26.352941 26.352941 26.352942h386.499765a26.352941 26.352941 0 0 0 26.352941-26.352942v-140.559058a26.352941 26.352941 0 0 0-26.352941-26.352942z m-26.352941 52.705883v87.853176H365.176471v-87.853176h333.793882z" fill="#568af2" /></svg>