<svg class="icon" style="width: 1em;height: 1em;vertical-align: middle;fill: currentColor;overflow: hidden;" viewBox="0 0 1024 1024" version="1.1" xmlns="http://www.w3.org/2000/svg" width="32" height="32"><path d="M660.088471 264.794353h-316.235295a26.352941 26.352941 0 0 0-17.588705 6.716235l-9.577412 8.192-3.493647 2.891294c-10.360471 8.493176-21.383529 16.986353-32.557177 24.847059-10.360471 7.288471-20.299294 13.643294-29.575529 18.853647-8.011294 4.487529-15.36 8.011294-21.89553 10.450824-7.378824 2.770824-17.016471 5.421176-28.310588 7.830588-11.444706 2.439529-23.913412 4.517647-36.382117 6.204235l-16.414118 1.957647c-28.009412 2.710588-32.858353 41.562353-6.324706 51.049412l20.751059 7.228235 14.998588 5.029647 12.739765 4.065883 13.643294 4.005647 18.070588 4.818823 19.877647 4.909177 10.330353 2.409412 15.75153 3.614117 5.662117 0.602353H730.352941l5.692235-0.602353 14.607059-3.343059c10.932706-2.529882 21.865412-5.180235 32.105412-7.80047l17.468235-4.638118 7.890824-2.258823 11.685647-3.614118 10.691765-3.493647 10.962823-3.704471 20.751059-7.228235c26.443294-9.426824 21.714824-48.188235-6.234353-51.019294l-13.161412-1.505882-13.974588-2.017883-7.499294-1.204706c-18.913882-3.192471-35.237647-7.047529-46.592-11.294117a163.056941 163.056941 0 0 1-21.865412-10.450824 345.6 345.6 0 0 1-29.575529-18.853647 557.327059 557.327059 0 0 1-32.557177-24.847059l-6.625882-5.481411-6.475294-5.601883a26.352941 26.352941 0 0 0-17.558588-6.716235zM353.641412 317.44h296.598588l7.047529 5.872941c11.294118 9.246118 23.341176 18.522353 35.689412 27.226353 11.715765 8.222118 23.130353 15.540706 34.153412 21.684706l7.529412 4.096 7.378823 3.674353 6.354824 2.861176-21.022118 4.879059H276.570353l-21.112471-4.879059 6.415059-2.861176c4.848941-2.319059 9.818353-4.879059 14.908235-7.740235 11.023059-6.174118 22.437647-13.492706 34.18353-21.714824 12.348235-8.704 24.395294-17.980235 35.659294-27.226353l7.017412-5.872941z" fill="#568af2" /><path d="M480.888471 134.776471l-105.411765 140.559058a26.352941 26.352941 0 0 0 21.082353 42.164706h210.823529a26.352941 26.352941 0 0 0 21.082353-42.164706l-105.411765-140.559058a26.352941 26.352941 0 0 0-42.164705 0z m21.052235 59.723294l52.705882 70.26447h-105.411764l52.705882-70.26447zM273.558588 387.764706c13.432471 0 24.545882 10.059294 26.172236 23.04l0.180705 3.312941v333.793882a26.352941 26.352941 0 0 1-52.495058 3.312942l-0.210824-3.312942V414.117647c0-14.546824 11.806118-26.352941 26.352941-26.352941zM730.352941 387.764706c13.432471 0 24.515765 10.059294 26.142118 23.04l0.210823 3.312941v333.793882a26.352941 26.352941 0 0 1-52.495058 3.312942l-0.210824-3.312942V414.117647c0-14.546824 11.806118-26.352941 26.352941-26.352941z" fill="#568af2" /><path d="M818.206118 721.558588h-632.470589a26.352941 26.352941 0 0 0-26.352941 26.352941v105.411765c0 14.576941 11.776 26.352941 26.352941 26.352941h632.470589a26.352941 26.352941 0 0 0 26.352941-26.352941v-105.411765a26.352941 26.352941 0 0 0-26.352941-26.352941z m-26.383059 52.705883v52.705882H212.058353v-52.705882h579.764706z" fill="#568af2" /></svg>