<svg class="icon" style="width: 1em;height: 1em;vertical-align: middle;fill: currentColor;overflow: hidden;" viewBox="0 0 1024 1024" version="1.1" xmlns="http://www.w3.org/2000/svg" width="32" height="32"><path d="M0 0h1024v1024H0z" fill="#568af2" fill-opacity="0" /><path d="M501.970824 124.235294c13.432471 0 24.515765 10.059294 26.142117 23.04l0.210824 3.312941v210.82353a26.352941 26.352941 0 0 1-52.525177 3.312941l-0.180706-3.312941V150.588235c0-14.546824 11.776-26.352941 26.352942-26.352941z" fill="#568af2" /><path d="M572.235294 194.499765a26.352941 26.352941 0 0 1 3.312941 52.525176l-3.312941 0.180706h-140.559059a26.352941 26.352941 0 0 1-3.312941-52.495059l3.312941-0.210823H572.235294zM343.853176 545.882353v52.705882h-105.411764a8.794353 8.794353 0 0 0-8.553412 6.776471l-0.240941 2.017882v245.940706h-52.705883v-245.940706c0-32.436706 25.088-58.970353 56.922353-61.319529l4.577883-0.180706h105.411764zM765.500235 545.882353c32.406588 0 58.970353 25.088 61.31953 56.922353l0.150588 4.577882v245.940706h-52.705882v-245.940706a8.794353 8.794353 0 0 0-6.746353-8.553412l-2.017883-0.240941h-105.411764v-52.705882h105.411764z" fill="#568af2" /><path d="M853.323294 826.970353a26.352941 26.352941 0 0 1 3.312941 52.525176l-3.312941 0.180706H150.588235a26.352941 26.352941 0 0 1-3.312941-52.495059l3.312941-0.210823h702.735059z" fill="#568af2" /><path d="M484.442353 324.156235l-158.117647 140.528941a26.352941 26.352941 0 0 0-8.824471 19.696942v368.941176c0 14.576941 11.776 26.352941 26.352941 26.352941h316.235295a26.352941 26.352941 0 0 0 26.352941-26.352941v-368.941176a26.352941 26.352941 0 0 0-8.854588-19.696942l-158.117648-140.528941a26.352941 26.352941 0 0 0-35.026823 0z m17.498353 54.904471l131.764706 117.157647v330.752h-263.529412V496.218353l131.764706-117.157647z" fill="#568af2" /><path d="M501.970824 651.294118c13.432471 0 24.515765 10.059294 26.142117 23.04l0.210824 3.312941v175.676235a26.352941 26.352941 0 0 1-52.525177 3.312941l-0.180706-3.312941V677.647059c0-14.546824 11.776-26.352941 26.352942-26.352941z" fill="#568af2" /><path d="M572.235294 826.970353a26.352941 26.352941 0 0 1 3.312941 52.525176l-3.312941 0.180706h-140.559059a26.352941 26.352941 0 0 1-3.312941-52.495059l3.312941-0.210823H572.235294z" fill="#568af2" /></svg>