<svg class="icon" style="width: 1em;height: 1em;vertical-align: middle;fill: currentColor;overflow: hidden;" viewBox="0 0 1024 1024" version="1.1" xmlns="http://www.w3.org/2000/svg" width="32" height="32"><path d="M326.264471 124.235294c13.432471 0 24.545882 10.059294 26.172235 23.04l0.180706 3.312941v702.735059a26.352941 26.352941 0 0 1-52.495059 3.312941l-0.210824-3.312941V150.588235c0-14.546824 11.806118-26.352941 26.352942-26.352941z" fill="#568af2" /><path d="M322.921412 209.106824l24.274823-46.772706 14.817883 8.071529c11.474824 6.445176 24.244706 13.974588 37.978353 22.467765a1074.778353 1074.778353 0 0 1 115.2 81.799529c70.505412 57.825882 123.392 118.452706 151.401411 181.458824 16.685176 37.556706 27.617882 80.112941 33.520942 126.795294 9.065412 71.499294 6.023529 147.395765-4.457412 220.551529-1.596235 11.143529-3.312941 21.564235-4.99953 31.141647l-4.457411 22.648471-0.451765 1.987765-51.350588-11.836236 2.770823-13.462588c2.138353-11.203765 4.306824-23.943529 6.324706-37.948235 9.878588-68.879059 12.709647-140.348235 4.336941-206.486588-5.300706-41.863529-14.968471-79.510588-29.394823-112.00753-24.094118-54.121412-71.951059-109.025882-136.673883-162.063059a1022.915765 1022.915765 0 0 0-109.507764-77.763764 1026.439529 1026.439529 0 0 0-27.678118-16.564706l-15.179294-8.523294-6.475294-3.493647z" fill="#568af2" /><path d="M853.323294 826.970353a26.352941 26.352941 0 0 1 3.312941 52.525176l-3.312941 0.180706H150.588235a26.352941 26.352941 0 0 1-3.312941-52.495059l3.312941-0.210823h702.735059zM642.499765 317.500235a26.352941 26.352941 0 0 1 3.312941 52.495059l-3.312941 0.210824H256a26.352941 26.352941 0 0 1-3.312941-52.525177l3.312941-0.180706h386.499765zM466.823529 440.470588a26.352941 26.352941 0 0 1 3.312942 52.495059l-3.312942 0.210824h-140.559058a26.352941 26.352941 0 0 1-3.312942-52.495059l3.312942-0.210824H466.823529zM537.088 563.440941a26.352941 26.352941 0 0 1 3.312941 52.525177l-3.312941 0.180706h-210.823529a26.352941 26.352941 0 0 1-3.312942-52.495059l3.312942-0.210824h210.823529zM554.676706 686.441412a26.352941 26.352941 0 0 1 3.312941 52.495059l-3.312941 0.210823h-228.412235a26.352941 26.352941 0 0 1-3.312942-52.525176l3.312942-0.180706h228.412235z" fill="#568af2" /></svg>