<svg class="icon" style="width: 1em;height: 1em;vertical-align: middle;fill: currentColor;overflow: hidden;" viewBox="0 0 1024 1024" version="1.1" xmlns="http://www.w3.org/2000/svg" width="32" height="32"><path d="M0 0h1024v1024H0z" fill="#568af2" fill-opacity="0" /><path d="M853.323294 820.163765a26.352941 26.352941 0 0 1 3.312941 52.525176l-3.312941 0.180706H150.588235a26.352941 26.352941 0 0 1-3.312941-52.495059l3.312941-0.210823h702.735059z" fill="#568af2" /><path d="M428.272941 197.722353L248.169412 839.378824a26.352941 26.352941 0 0 0 25.389176 33.460705H572.235294a26.352941 26.352941 0 0 0 25.449412-19.516235l152.937412-568.922353a26.352941 26.352941 0 0 0-18.642824-32.316235L460.498824 179.380706a26.352941 26.352941 0 0 0-32.225883 18.341647z m43.670588 39.303529l220.912942 59.151059-140.830118 523.986824h-243.681882L471.943529 237.025882z" fill="#568af2" /><path d="M394.24 188.928c3.463529-12.980706 16.052706-21.082353 29.033412-19.275294l3.252706 0.602353 339.395764 90.955294a26.352941 26.352941 0 0 1-10.390588 51.591529l-3.252706-0.662588-339.425882-90.955294a26.352941 26.352941 0 0 1-18.612706-32.256zM339.666824 392.553412c3.463529-12.950588 16.052706-21.082353 29.033411-19.275294l3.222589 0.63247 339.425882 90.955294a26.352941 26.352941 0 0 1-10.390588 51.561412l-3.252706-0.662588-339.425883-90.955294a26.352941 26.352941 0 0 1-18.612705-32.256z" fill="#568af2" /><path d="M520.734118 366.531765a26.352941 26.352941 0 0 1 51.561411 10.420706l-0.662588 3.252705-18.160941 67.855059a26.352941 26.352941 0 0 1-51.591529-10.390588l0.662588-3.252706 18.191059-67.855059zM285.093647 596.208941c3.493647-12.980706 16.082824-21.082353 29.033412-19.305412l3.252706 0.662589 339.425882 90.955294a26.352941 26.352941 0 0 1-10.420706 51.561412l-3.252706-0.662589-339.395764-90.955294a26.352941 26.352941 0 0 1-18.642824-32.256z" fill="#568af2" /><path d="M468.028235 559.796706a26.352941 26.352941 0 0 1 51.561412 10.390588l-0.662588 3.252706-18.160941 67.885176a26.352941 26.352941 0 0 1-51.59153-10.390588l0.662588-3.252706 18.191059-67.885176zM682.285176 166.068706l-135.770352-36.382118a43.911529 43.911529 0 0 0-53.790118 31.051294l-9.09553 33.942589A43.911529 43.911529 0 0 0 514.710588 248.470588l135.740236 36.382118a43.911529 43.911529 0 0 0 53.790117-31.051294l9.09553-33.942588a43.911529 43.911529 0 0 0-31.021177-53.790118z m-22.13647 48.609882l-4.517647 16.956236-118.814118-31.804236 4.547765-16.986353 118.784 31.834353zM415.322353 753.061647a26.352941 26.352941 0 0 1 51.561412 10.390588l-0.662589 3.252706-18.160941 67.885177a26.352941 26.352941 0 0 1-51.591529-10.390589l0.662588-3.252705 18.191059-67.885177z" fill="#568af2" /></svg>