<svg class="icon" style="width: 1em;height: 1em;vertical-align: middle;fill: currentColor;overflow: hidden;" viewBox="0 0 1024 1024" version="1.1" xmlns="http://www.w3.org/2000/svg" width="32" height="32"><path d="M426.315294 227.960471l-298.646588 527.058823A26.352941 26.352941 0 0 0 150.588235 794.352941h597.323294a26.352941 26.352941 0 0 0 22.949647-39.333647l-298.676705-527.058823a26.352941 26.352941 0 0 0-45.869177 0z m22.91953 66.409411l253.470117 447.277177H195.794824l253.44-447.277177z" fill="#568af2" /><path d="M690.176 508.476235a26.352941 26.352941 0 0 1 43.459765-2.590117l2.017882 3.072 140.559059 245.970823a26.352941 26.352941 0 0 1-19.576471 39.213177l-3.312941 0.210823h-131.764706a26.352941 26.352941 0 0 1-3.312941-52.495059l3.312941-0.210823h86.347294l-95.713882-167.484235-29.515294 49.27247a26.352941 26.352941 0 0 1-33.219765 10.541177l-2.951529-1.505883a26.352941 26.352941 0 0 1-10.541177-33.219764l1.505883-2.921412 52.705882-87.853177zM423.785412 234.164706a26.352941 26.352941 0 0 1 51.591529 10.330353l-0.662588 3.222588-140.559059 527.058824a26.352941 26.352941 0 0 1-51.561412-10.330353l0.662589-3.222589 140.528941-527.058823z" fill="#568af2" /></svg>