<svg class="icon" style="width: 1em;height: 1em;vertical-align: middle;fill: currentColor;overflow: hidden;" viewBox="0 0 1024 1024" version="1.1" xmlns="http://www.w3.org/2000/svg" width="32" height="32"><path d="M0 0h1024v1024H0z" fill="#568af2" fill-opacity="0" /><path d="M624.941176 598.588235h-245.970823a26.352941 26.352941 0 0 0-26.352941 26.352941v228.382118c0 14.576941 11.806118 26.352941 26.352941 26.352941h245.970823a26.352941 26.352941 0 0 0 26.352942-26.352941V624.941176a26.352941 26.352941 0 0 0-26.352942-26.352941z m-26.352941 52.705883v175.676235h-193.264941v-175.676235h193.264941z" fill="#568af2" /><path d="M589.793882 352.617412H414.117647a26.352941 26.352941 0 0 0-26.352941 26.352941v245.970823c0 14.546824 11.806118 26.352941 26.352941 26.352942h175.676235a26.352941 26.352941 0 0 0 26.352942-26.352942v-245.970823a26.352941 26.352941 0 0 0-26.352942-26.352941z m-26.352941 52.705882v193.264941h-122.970353v-193.264941h122.970353z" fill="#568af2" /><path d="M554.676706 124.235294h-105.411765a26.352941 26.352941 0 0 0-26.352941 26.352941v228.382118c0 14.576941 11.776 26.352941 26.352941 26.352941h105.411765a26.352941 26.352941 0 0 0 26.352941-26.352941V150.588235a26.352941 26.352941 0 0 0-26.352941-26.352941z m-26.383059 52.705882v175.676236h-52.705882V176.941176h52.705882zM853.323294 826.970353a26.352941 26.352941 0 0 1 3.312941 52.525176l-3.312941 0.180706H150.588235a26.352941 26.352941 0 0 1-3.312941-52.495059l3.312941-0.210823h702.735059z" fill="#568af2" /></svg>