<svg class="icon" style="width: 1em;height: 1em;vertical-align: middle;fill: currentColor;overflow: hidden;" viewBox="0 0 1024 1024" version="1.1" xmlns="http://www.w3.org/2000/svg" width="32" height="32"><path d="M0 0h1024v1024H0z" fill="#568af2" fill-opacity="0" /><path d="M883.440941 264.794353H180.705882a26.352941 26.352941 0 0 0-26.352941 26.352941v140.528941c0 9.276235 4.848941 17.859765 12.8 22.588236l24.576 14.757647 6.505412 3.70447a149.323294 149.323294 0 0 0 147.154823-3.70447l10.992942-6.625883 11.023058 6.625883 6.505412 3.70447a149.323294 149.323294 0 0 0 147.154824-3.70447l10.992941-6.625883 11.023059 6.625883 6.535529 3.70447a149.323294 149.323294 0 0 0 147.124706-3.70447l10.992941-6.595765 11.053177 6.625882a149.323294 149.323294 0 0 0 153.660235 0l24.576-14.757647a26.352941 26.352941 0 0 0 12.769882-22.588235V291.117176a26.352941 26.352941 0 0 0-26.352941-26.352941z m-26.352941 52.675765v99.297882l-11.745882 7.077647a96.617412 96.617412 0 0 1-99.448471 0l-24.576-14.757647a26.352941 26.352941 0 0 0-27.105882 0l-24.576 14.757647a96.617412 96.617412 0 0 1-99.418353 0l-24.576-14.757647a26.352941 26.352941 0 0 0-27.105883 0l-24.576 14.757647a96.617412 96.617412 0 0 1-99.44847 0l-24.545883-14.757647a26.352941 26.352941 0 0 0-27.105882 0l-24.606118 14.757647-5.812705 3.222588c-29.515294 15.058824-64.903529 13.974588-93.605647-3.222588l-11.776-7.077647v-99.297882h650.029176z" fill="#568af2" /><path d="M813.176471 440.470588c13.432471 0 24.515765 10.059294 26.142117 23.04l0.210824 3.312941v386.499765a26.352941 26.352941 0 0 1-23.04 26.172235l-3.312941 0.180706H250.970353a26.352941 26.352941 0 0 1-26.142118-23.04l-0.210823-3.312941V475.407059a26.352941 26.352941 0 0 1 52.525176-3.312941l0.180706 3.312941v351.563294h509.500235V466.823529c0-13.432471 10.059294-24.515765 23.04-26.142117l3.312942-0.210824zM813.176471 124.235294c13.432471 0 24.515765 10.059294 26.142117 23.04l0.210824 3.312941v140.559059a26.352941 26.352941 0 0 1-52.495059 3.312941l-0.210824-3.312941V176.941176H277.323294v111.073883a26.352941 26.352941 0 0 1-23.04 26.142117l-3.312941 0.210824a26.352941 26.352941 0 0 1-26.142118-23.04l-0.210823-3.312941V150.588235c0-13.432471 10.059294-24.515765 23.070117-26.142117l3.312942-0.210824H813.176471z" fill="#568af2" /><path d="M619.911529 616.146824H444.235294a26.352941 26.352941 0 0 0-26.352941 26.352941v210.823529c0 14.576941 11.806118 26.352941 26.352941 26.352941h175.676235a26.352941 26.352941 0 0 0 26.352942-26.352941v-210.823529a26.352941 26.352941 0 0 0-26.352942-26.352941z m-26.352941 52.705882v158.117647h-122.970353v-158.117647h122.970353z" fill="#568af2" /></svg>