<svg class="icon" style="width: 1em;height: 1em;vertical-align: middle;fill: currentColor;overflow: hidden;" viewBox="0 0 1024 1024" version="1.1" xmlns="http://www.w3.org/2000/svg" width="32" height="32"><path d="M434.145882 287.111529a26.352941 26.352941 0 0 1 33.008942 40.96l-2.800942 2.228706-164.442353 115.109647v407.913412a26.352941 26.352941 0 0 1-23.04 26.172235l-3.312941 0.180706a26.352941 26.352941 0 0 1-26.142117-23.04l-0.210824-3.312941v-421.647059c0-7.348706 3.102118-14.336 8.432941-19.275294l2.831059-2.288941 175.676235-123.000471z" fill="#568af2" /><path d="M422.912 150.588235v702.735059c0 14.576941 11.776 26.352941 26.352941 26.352941h298.646588a26.352941 26.352941 0 0 0 26.352942-26.352941v-263.529412l-0.240942-3.614117a26.352941 26.352941 0 0 0-10.782117-17.829647l-111.947294-79.962353V273.558588a26.352941 26.352941 0 0 0-11.233883-21.564235l-175.706353-123.000471A26.352941 26.352941 0 0 0 422.912 150.588235z m52.675765 50.597647l123.00047 86.106353v214.678589l0.240941 3.614117a26.352941 26.352941 0 0 0 10.782118 17.829647l111.947294 79.962353v223.593412h-245.970823V201.185882z" fill="#568af2" /><path d="M853.323294 826.970353a26.352941 26.352941 0 0 1 3.312941 52.525176l-3.312941 0.180706H150.588235a26.352941 26.352941 0 0 1-3.312941-52.495059l3.312941-0.210823h702.735059z" fill="#568af2" /></svg>