<svg class="icon" style="width: 1em;height: 1em;vertical-align: middle;fill: currentColor;overflow: hidden;" viewBox="0 0 1024 1024" version="1.1" xmlns="http://www.w3.org/2000/svg" width="32" height="32"><path d="M793.088 516.728471a26.352941 26.352941 0 0 1 28.220235 20.419764l1.716706 10.691765 5.12 26.503529 5.51153 26.50353 5.270588 24.304941 3.343059 14.396235 4.156235 16.173177 2.379294 8.734117 5.270588 18.672942 5.963294 20.208941 3.222589 10.631529a3622.490353 3622.490353 0 0 0 24.545882 76.498824l17.287529 50.778353 3.192471 9.155764a26.352941 26.352941 0 0 1-21.504 34.936471l-3.312941 0.210823H180.705882a26.352941 26.352941 0 0 1-25.750588-31.924705l1.445647-4.698353 8.161883-23.612236 3.011764-8.794353c8.794353-25.840941 17.588706-52.464941 25.810824-78.426353l7.529412-24.094117 6.26447-20.961883 5.632-19.425882 4.909177-17.889882 4.156235-16.173177 1.807059-7.439059 9.788235-45.327058 5.632-28.03953 2.439529-13.342117 0.783059-4.969412a26.352941 26.352941 0 0 1 52.464941 5.059765l-0.933647 6.746352-2.620235 14.757648-6.896941 34.063058-7.619765 35.388236-3.584 15.36-4.367059 17.046588-5.12 18.672941-5.842823 20.178824-6.53553 21.684705-7.649882 24.606118c-5.541647 17.558588-11.354353 35.418353-17.257412 53.12753l-8.673882 25.690352h628.736l-8.613647-25.690352c-2.951529-8.854588-5.903059-17.769412-8.764235-26.624l-8.523295-26.50353-7.649882-24.576-6.535529-21.684706-5.842824-20.208941-5.12-18.672941a1010.266353 1010.266353 0 0 1-2.258823-8.734118l-4.005647-16.203294-6.53553-29.876706-8.101647-39.03247-4.186353-22.768942-0.903529-6.746352a26.352941 26.352941 0 0 1 23.702588-28.762353z" fill="#568af2" /><path d="M458.902588 551.905882a26.352941 26.352941 0 0 1 29.093647 23.280942c8.824471 79.450353-5.963294 156.069647-35.930353 226.364235-12.016941 28.190118-24.124235 50.236235-33.671529 64.993882l-5.421177 7.951059a26.352941 26.352941 0 1 1-42.887529-30.629647l2.349177-3.493647 5.421176-8.673882 2.258824-3.794824c7.981176-13.703529 15.962353-29.455059 23.491764-47.013647 26.654118-62.554353 39.755294-130.379294 32.015059-199.890824a26.352941 26.352941 0 0 1 23.280941-29.093647zM601.961412 551.755294l3.312941 0.150588c14.456471 1.596235 24.877176 14.637176 23.280941 29.093647-7.740235 69.511529 5.360941 137.336471 32.015059 199.890824 7.499294 17.558588 15.510588 33.310118 23.491765 46.983529l6.083764 10.059294 2.891294 4.427295 1.024 1.505882a26.352941 26.352941 0 1 1-42.887529 30.629647 212.570353 212.570353 0 0 1-5.421176-7.951059l-6.02353-9.728a471.341176 471.341176 0 0 1-27.648-55.265882c-29.967059-70.294588-44.754824-146.913882-35.930353-226.364235a26.352941 26.352941 0 0 1 25.810824-23.43153z" fill="#568af2" /><path d="M539.858824 559.766588l6.927058 6.02353 24.033883 22.13647 1.927529 1.746824c12.8 11.233882 17.92 14.757647 29.605647 14.757647 10.390588 0 15.570824-2.770824 25.6-11.294118l5.12-4.487529 22.046118-20.329412 2.800941-2.529882c5.029647-4.517647 9.246118-8.011294 12.739765-10.63153l3.403294-2.409412 11.264 7.04753 17.950117 11.745882 4.397177 2.800941 7.740235 4.608c10.661647 5.993412 17.709176 7.920941 27.497412 7.920942 9.728 0 22.196706-3.674353 39.815529-10.752l12.498824-5.210353 8.884706-3.885177 13.43247-6.083765 19.064471-9.065411 5.933176-2.921412a26.352941 26.352941 0 0 0 14.305883-19.847529l17.558588-122.970353a26.352941 26.352941 0 0 0-26.081882-30.08753h-13.492706l-22.859294-0.301176a1617.829647 1617.829647 0 0 1-11.324236-0.240941l-22.287058-0.752942-21.564236-1.054117c-42.405647-2.499765-79.420235-7.017412-102.942117-14.095059a314.669176 314.669176 0 0 1-31.924706-11.926588c-7.318588-3.132235-15.058824-6.625882-22.979765-10.420706a890.277647 890.277647 0 0 1-38.008471-19.275294l-15.751529-8.704a26.352941 26.352941 0 0 0-25.509647-0.39153l-6.716235 3.493647-10.24 5.180236c-13.191529 6.595765-27.045647 13.191529-40.83953 19.305411-8.523294 3.764706-16.745412 7.228235-24.606117 10.390589-13.251765 5.240471-25.118118 9.396706-35.237647 12.197647-9.848471 2.710588-22.738824 5.150118-38.128942 7.28847l-16.173176 1.987765-17.739294 1.807059-14.155294 1.204706c-16.715294 1.264941-34.243765 2.258824-51.802353 3.011764l-25.539765 0.873412-22.859294 0.421647a26.352941 26.352941 0 0 0-25.901177 30.08753l17.588706 122.970353c1.325176 9.336471 7.529412 17.257412 16.293647 20.751058l27.768471 11.113412 7.318588 2.710588c36.803765 12.378353 76.890353 8.794353 120.018824-6.927058l9.517176-3.644236 2.56 2.469647 5.240471 5.51153 23.280941 26.774588c18.642824 20.871529 26.081882 25.359059 42.465882 25.359059 15.299765 0 22.829176-3.915294 38.881883-21.38353l7.469176-8.372706 17.28753-19.968 5.75247-6.294588 2.379294-2.409412 3.252706 2.499765 3.011765 2.469647z m-27.648-188.144941l19.395764-9.607529 4.367059 2.379294c12.950588 6.957176 26.593882 13.914353 40.297412 20.449882 8.583529 4.096 16.926118 7.890824 24.997647 11.324235 13.613176 5.812706 26.142118 10.541176 37.406118 13.914353l7.589647 2.108236c36.683294 9.577412 90.563765 14.305882 149.744941 15.962353l21.925647 0.421647-11.294118 79.179294 1.445647-0.632471c-8.372706 4.005647-16.986353 8.011294-25.389176 11.745883l-12.649412 5.481411-8.222118 3.312941-10.24 3.855059-4.909176 1.656471-3.072 0.903529a3.794824 3.794824 0 0 1-0.692706 0.090353l-0.060235-0.090353-13.673412-8.583529-16.926118-11.14353c-18.401882-11.866353-26.593882-15.299765-39.634823-15.299764-14.817882 0-26.563765 7.168-44.724706 22.919529l-22.196706 20.299294-3.343059 3.072-17.317647-16.022588-3.132235-2.831059c-21.142588-18.913882-33.671529-27.437176-49.814588-27.437176-14.215529 0-21.684706 3.373176-35.568942 17.859764l-6.927058 7.499295-8.07153 9.246117-15.209412 17.498353-4.517647 4.788706-2.349176-2.409412-9.968941-11.294117-15.480471-17.829647c-18.612706-20.871529-26.081882-25.359059-42.465882-25.359059-5.933176 0-11.896471 1.234824-18.522353 3.523764l-12.619294 4.788706c-34.725647 12.589176-64.542118 14.607059-89.419294 4.668236l-13.643295-5.451294-11.203764-78.486589 2.017882-0.030117a1583.706353 1583.706353 0 0 0 71.981177-3.794824l14.45647-1.204706c33.852235-3.102118 61.409882-7.228235 81.558588-12.830117 12.137412-3.373176 25.750588-8.131765 40.598589-14.004706a740.894118 740.894118 0 0 0 26.503529-11.173647c9.758118-4.336941 19.456-8.854588 28.973177-13.432471z" fill="#568af2" /><path d="M532.088471 147.666824c13.432471 0 24.515765 10.059294 26.142117 23.04l0.210824 3.312941v175.676235a26.352941 26.352941 0 0 1-52.525177 3.312941l-0.180706-3.312941V174.019765c0-14.546824 11.776-26.352941 26.352942-26.352941z" fill="#568af2" /><path d="M524.679529 142.305882c-8.071529 6.927059-13.251765 14.095059-16.173176 19.907765a26.352941 26.352941 0 0 0-2.770824 11.806118v105.411764c0 26.654118 34.424471 35.870118 48.218353 14.72753l1.92753-3.252706 1.686588-1.867294a25.961412 25.961412 0 0 1 1.415529-1.325177c10.390588-8.884706 27.286588-9.396706 58.277647 9.999059l5.601883 3.614118c53.248 35.538824 97.430588 35.538824 127.427765 9.818353 8.071529-6.927059 13.251765-14.095059 16.173176-19.937883a26.352941 26.352941 0 0 0 2.800941-11.776v-105.411764c0-27.828706-37.496471-36.653176-49.935059-11.806118l-0.873411 1.084235a25.238588 25.238588 0 0 1-2.469647 2.409412c-10.390588 8.914824-27.286588 9.396706-58.277648-9.999059l-5.601882-3.614117c-53.248-35.508706-97.430588-35.508706-127.397647-9.788236z m104.538353 57.73553c31.503059 19.576471 59.693176 26.563765 83.425883 23.009882l3.885176-0.722823v48.278588l-0.542117 0.512c-10.390588 8.914824-27.286588 9.396706-58.277648-9.999059l-11.956705-7.710118c-31.503059-19.606588-59.663059-26.563765-83.395765-23.009882l-3.945412 0.662588V182.814118l0.602353-0.512c10.360471-8.884706 27.256471-9.396706 58.247529 9.999058l11.956706 7.740236z" fill="#568af2" /></svg>