<svg class="icon" style="width: 1em;height: 1em;vertical-align: middle;fill: currentColor;overflow: hidden;" viewBox="0 0 1024 1024" version="1.1" xmlns="http://www.w3.org/2000/svg" width="32" height="32"><path d="M0 0h1024v1024H0z" fill="#568af2" fill-opacity="0" /><path d="M505.223529 124.235294c-208.624941 0-377.735529 169.110588-377.735529 377.73553 0 208.594824 169.110588 377.705412 377.735529 377.705411 208.594824 0 377.705412-169.110588 377.705412-377.705411 0-208.624941-169.110588-377.735529-377.705412-377.73553z m0 52.705882c179.501176 0 324.999529 145.528471 324.99953 325.029648s-145.498353 324.999529-324.99953 324.999529S180.193882 681.472 180.193882 501.970824 325.692235 176.941176 505.223529 176.941176z" fill="#568af2" /><path d="M856.576 493.176471a26.352941 26.352941 0 0 1 3.312941 52.495058l-3.312941 0.210824H171.399529a26.352941 26.352941 0 0 1-3.312941-52.495059l3.312941-0.210823h685.176471zM417.370353 247.205647a96.617412 96.617412 0 1 0 0 193.264941 96.617412 96.617412 0 0 0 0-193.264941z m0 52.705882a43.911529 43.911529 0 1 1 0 87.853177 43.911529 43.911529 0 0 1 0-87.853177zM839.017412 598.588235a26.352941 26.352941 0 0 1 3.312941 52.495059l-3.312941 0.210824h-210.82353a26.352941 26.352941 0 0 1-3.312941-52.495059l3.312941-0.210824h210.82353zM821.458824 352.617412a26.352941 26.352941 0 0 1 3.312941 52.525176l-3.312941 0.180706h-140.559059a26.352941 26.352941 0 0 1-3.312941-52.495059l3.312941-0.210823h140.559059zM768.752941 704a26.352941 26.352941 0 0 1 3.312941 52.495059l-3.312941 0.210823h-245.970823a26.352941 26.352941 0 0 1-3.312942-52.495058l3.312942-0.210824h245.970823z" fill="#568af2" /><path d="M807.363765 275.275294a376.109176 376.109176 0 0 1 75.595294 226.69553c0 140.8-77.763765 267.745882-199.198118 332.950588l-8.553412 4.427294-23.762823-47.043765a324.969412 324.969412 0 0 0 178.778353-290.334117c0-67.614118-20.660706-132.035765-58.518588-186.127059l-6.475295-8.914824 42.164706-31.653647zM135.047529 426.465882l51.651765 10.450824a326.625882 326.625882 0 0 0-6.505412 65.054118c0 23.732706 2.529882 47.164235 7.529412 69.933176l2.710588 11.324235-51.049411 13.131294a380.235294 380.235294 0 0 1-7.04753-155.045647l2.710588-14.878117z" fill="#568af2" /></svg>