<svg class="icon" style="width: 1em;height: 1em;vertical-align: middle;fill: currentColor;overflow: hidden;" viewBox="0 0 1024 1024" version="1.1" xmlns="http://www.w3.org/2000/svg" width="32" height="32"><path d="M321.264941 229.647059c13.432471 0 24.515765 10.059294 26.142118 23.04l0.210823 3.312941v439.205647a26.352941 26.352941 0 0 1-52.525176 3.312941l-0.180706-3.312941V256c0-14.546824 11.776-26.352941 26.352941-26.352941zM707.764706 229.647059c13.432471 0 24.515765 10.059294 26.142118 23.04l0.210823 3.312941v439.205647a26.352941 26.352941 0 0 1-52.495059 3.312941l-0.210823-3.312941V256c0-14.546824 11.806118-26.352941 26.352941-26.352941z" fill="#568af2" /><path d="M795.617882 370.206118a26.352941 26.352941 0 0 1 3.312942 52.495058l-3.312942 0.210824H233.411765a26.352941 26.352941 0 0 1-3.312941-52.525176l3.312941-0.180706h562.206117z" fill="#568af2" /><path d="M514.499765 229.647059c13.432471 0 24.545882 10.059294 26.172235 23.04l0.180706 3.312941v140.559059a26.352941 26.352941 0 0 1-52.495059 3.312941l-0.210823-3.312941V256c0-14.546824 11.806118-26.352941 26.352941-26.352941z" fill="#568af2" /><path d="M845.944471 124.355765l-32.316236 2.710588-31.442823 2.439529-50.296471 3.584c-36.954353 2.439529-73.155765 4.517647-107.610353 5.993412l-34.725647 1.355294-31.593412 0.873412-29.515294 0.421647c-4.728471 0.060235-9.396706 0.060235-13.94447 0.060235l-25.298824-0.180706-27.045647-0.512-40.05647-1.295058-26.021648-1.114353-17.257411-0.813177c-26.624-1.325176-54.000941-2.951529-81.709177-4.818823L263.228235 130.710588l-32.346353-2.409412-47.796706-3.945411a26.352941 26.352941 0 0 0-24.304941 40.839529l70.264471 105.411765c4.909176 7.348706 13.131294 11.745882 21.925647 11.745882h527.058823a26.352941 26.352941 0 0 0 21.925648-11.745882l70.294588-105.411765a26.352941 26.352941 0 0 0-24.304941-40.839529z m-49.784471 56.922353l-32.256 48.368941H265.095529L232.839529 181.278118l43.52 3.222588a5874.206118 5874.206118 0 0 0 99.900236 6.023529l26.202353 1.204706 26.383058 1.054118 31.984942 0.993882 27.708235 0.542118 25.961412 0.180706 14.305882-0.060236 30.268235-0.451764 15.902118-0.39153 33.942588-1.14447 17.588706-0.722824c34.936471-1.505882 71.559529-3.584 108.905412-6.053647l50.718118-3.614118 10.029176-0.783058zM373.970824 668.852706h-105.411765a26.352941 26.352941 0 0 0-26.352941 26.352941v158.117647c0 14.576941 11.776 26.352941 26.352941 26.352941h105.411765a26.352941 26.352941 0 0 0 26.352941-26.352941v-158.117647a26.352941 26.352941 0 0 0-26.352941-26.352941z m-26.383059 52.705882v105.411765h-52.705883v-105.411765h52.705883zM760.470588 668.852706h-105.411764a26.352941 26.352941 0 0 0-26.352942 26.352941v158.117647c0 14.576941 11.806118 26.352941 26.352942 26.352941h105.411764a26.352941 26.352941 0 0 0 26.352941-26.352941v-158.117647a26.352941 26.352941 0 0 0-26.352941-26.352941z m-26.352941 52.705882v105.411765h-52.705882v-105.411765h52.705882z" fill="#568af2" /></svg>