<svg class="icon" style="width: 1em;height: 1em;vertical-align: middle;fill: currentColor;overflow: hidden;" viewBox="0 0 1024 1024" version="1.1" xmlns="http://www.w3.org/2000/svg" width="32" height="32"><path d="M276.510118 468.329412l-2.590118 1.987764a26.352941 26.352941 0 0 0-9.125647 19.937883l-0.030118 96.617412H185.735529a61.500235 61.500235 0 0 0-61.500235 61.500235v193.264941c0 14.546824 11.806118 26.352941 26.352941 26.352941h667.617883a61.500235 61.500235 0 0 0 61.470117-61.500235v-158.117647l-0.150588-4.608a61.500235 61.500235 0 0 0-61.319529-56.892235H739.087059v-96.617412a26.352941 26.352941 0 0 0-11.715765-21.925647l-210.823529-140.559059a26.352941 26.352941 0 0 0-29.214118 0l-210.823529 140.559059z m225.460706-86.949647l184.44047 122.940235v108.905412c0 14.546824 11.806118 26.352941 26.383059 26.352941h105.411765c4.818824 0 8.764235 3.915294 8.764235 8.794353v158.117647l-0.210824 2.017882a8.794353 8.794353 0 0 1-8.553411 6.776471l-641.264942-0.030118v-166.881882c0-4.848941 3.915294-8.794353 8.794353-8.794353h105.411765l3.312941-0.210824a26.352941 26.352941 0 0 0 23.04-26.142117l-0.030117-108.875294 184.500706-122.970353z" fill="#568af2" /><path d="M501.970824 147.666824c13.432471 0 24.515765 10.059294 26.142117 23.04l0.210824 3.312941v175.676235a26.352941 26.352941 0 0 1-52.525177 3.312941l-0.180706-3.312941V174.019765c0-14.546824 11.776-26.352941 26.352942-26.352941z" fill="#568af2" /><path d="M494.561882 142.305882c-8.071529 6.927059-13.251765 14.095059-16.173176 19.907765a26.352941 26.352941 0 0 0-2.770824 11.806118v105.411764c0 26.654118 34.424471 35.870118 48.218353 14.72753l1.92753-3.252706 1.686588-1.867294a25.961412 25.961412 0 0 1 1.415529-1.325177c10.390588-8.884706 27.286588-9.396706 58.277647 9.999059l5.601883 3.614118c53.248 35.538824 97.430588 35.538824 127.427764 9.818353 8.071529-6.927059 13.251765-14.095059 16.173177-19.937883a26.352941 26.352941 0 0 0 2.800941-11.776v-105.411764c0-27.828706-37.496471-36.653176-49.935059-11.806118l-0.873411 1.084235a25.238588 25.238588 0 0 1-2.469648 2.409412c-10.390588 8.914824-27.286588 9.396706-58.277647-9.999059l-5.601882-3.614117c-53.248-35.508706-97.430588-35.508706-127.397647-9.788236z m104.538353 57.73553c31.503059 19.576471 59.693176 26.563765 83.425883 23.009882l3.885176-0.722823v48.278588l-0.542118 0.512c-10.390588 8.914824-27.286588 9.396706-58.277647-9.999059l-11.956705-7.710118c-31.503059-19.606588-59.663059-26.563765-83.395765-23.009882l-3.945412 0.662588V182.814118l0.602353-0.512c10.360471-8.884706 27.256471-9.396706 58.247529 9.999058l11.956706 7.740236zM572.235294 586.872471c13.432471 0 24.515765 10.059294 26.142118 23.04l0.210823 3.312941v228.412235a26.352941 26.352941 0 0 1-52.495059 3.312941l-0.210823-3.312941v-202.059294h-87.853177v202.059294a26.352941 26.352941 0 0 1-23.04 26.142118l-3.312941 0.210823a26.352941 26.352941 0 0 1-26.142117-23.070117l-0.210824-3.312942v-228.382117c0-13.432471 10.059294-24.515765 23.070118-26.142118l3.312941-0.210823H572.235294z" fill="#568af2" /><path d="M607.382588 815.284706a26.352941 26.352941 0 0 1 3.312941 52.495059l-3.312941 0.210823h-210.823529a26.352941 26.352941 0 0 1-3.312941-52.525176l3.312941-0.180706h210.823529z" fill="#568af2" /></svg>