<svg class="icon" style="width: 1em;height: 1em;vertical-align: middle;fill: currentColor;overflow: hidden;" viewBox="0 0 1024 1024" version="1.1" xmlns="http://www.w3.org/2000/svg" width="32" height="32"><path d="M853.323294 826.970353a26.352941 26.352941 0 0 1 3.312941 52.525176l-3.312941 0.180706H150.588235a26.352941 26.352941 0 0 1-3.312941-52.495059l3.312941-0.210823h702.735059zM501.970824 124.235294c-71.830588 0-141.733647 11.143529-207.058824 29.756235-22.889412 6.505412-43.610353 13.492706-61.831529 20.510118l-15.841883 6.384941-7.529412 3.312941a26.352941 26.352941 0 0 0-15.209411 23.883295v100.623058c0 14.546824 11.806118 26.352941 26.352941 26.352942H783.058824a26.352941 26.352941 0 0 0 26.352941-26.352942V208.112941a26.352941 26.352941 0 0 0-15.179294-23.913412l-7.55953-3.312941-11.264-4.608a725.323294 725.323294 0 0 0-66.379294-22.287059c-65.355294-18.582588-135.228235-29.756235-207.058823-29.756235z m0 52.705882c66.529882 0 131.674353 10.390588 192.63247 27.738353 17.046588 4.848941 32.737882 9.968941 46.953412 15.149177l15.149176 5.722353v56.801882H247.205647V225.551059l4.818824-1.867294c16.775529-6.445176 35.990588-12.950588 57.313882-18.974118 60.928-17.377882 126.072471-27.768471 192.632471-27.768471z" fill="#568af2" /><path d="M256 282.352941c13.432471 0 24.515765 10.059294 26.142118 23.04l0.210823 3.312941v439.205647a26.352941 26.352941 0 0 1-52.495059 3.312942l-0.210823-3.312942V308.705882c0-14.546824 11.806118-26.352941 26.352941-26.352941zM378.970353 282.352941c13.432471 0 24.545882 10.059294 26.172235 23.04l0.180706 3.312941v439.205647a26.352941 26.352941 0 0 1-52.495059 3.312942l-0.210823-3.312942V308.705882c0-14.546824 11.806118-26.352941 26.352941-26.352941zM501.970824 282.352941c13.432471 0 24.515765 10.059294 26.142117 23.04l0.210824 3.312941v439.205647a26.352941 26.352941 0 0 1-52.525177 3.312942l-0.180706-3.312942V308.705882c0-14.546824 11.776-26.352941 26.352942-26.352941zM624.941176 282.352941c13.432471 0 24.515765 10.059294 26.142118 23.04l0.210824 3.312941v439.205647a26.352941 26.352941 0 0 1-52.495059 3.312942l-0.210824-3.312942V308.705882c0-14.546824 11.806118-26.352941 26.352941-26.352941zM747.911529 282.352941c13.432471 0 24.545882 10.059294 26.172236 23.04l0.180706 3.312941v439.205647a26.352941 26.352941 0 0 1-52.495059 3.312942l-0.210824-3.312942V308.705882c0-14.546824 11.806118-26.352941 26.352941-26.352941z" fill="#568af2" /><path d="M800.617412 721.558588H203.294118a26.352941 26.352941 0 0 0-26.352942 26.352941v105.411765c0 14.576941 11.806118 26.352941 26.352942 26.352941h597.323294a26.352941 26.352941 0 0 0 26.352941-26.352941v-105.411765a26.352941 26.352941 0 0 0-26.352941-26.352941z m-26.352941 52.705883v52.705882H229.647059v-52.705882h544.617412z" fill="#568af2" /></svg>