<svg class="icon" style="width: 1em;height: 1em;vertical-align: middle;fill: currentColor;overflow: hidden;" viewBox="0 0 1024 1024" version="1.1" xmlns="http://www.w3.org/2000/svg" width="32" height="32"><path d="M491.760941 306.778353l-193.264941 175.676235a26.352941 26.352941 0 0 0-8.613647 19.516236v351.35247c0 14.576941 11.806118 26.352941 26.352941 26.352941h386.499765a26.352941 26.352941 0 0 0 26.352941-26.352941V501.970824a26.352941 26.352941 0 0 0-8.613647-19.516236l-193.264941-175.676235a26.352941 26.352941 0 0 0-35.448471 0z m17.709177 55.085176l166.912 151.762824v313.344H342.588235V513.596235l166.881883-151.732706z" fill="#568af2" /><path d="M242.447059 134.776471L189.741176 205.040941a26.352941 26.352941 0 0 0-5.270588 15.811765v632.470588c0 14.576941 11.806118 26.352941 26.352941 26.352941h105.411765a26.352941 26.352941 0 0 0 26.352941-26.352941v-632.470588a26.352941 26.352941 0 0 0-5.270588-15.811765L284.611765 134.776471a26.352941 26.352941 0 0 0-42.164706 0z m21.082353 59.753411l26.352941 35.117177v597.323294h-52.705882V229.647059l26.352941-35.117177zM734.358588 134.776471l-52.705882 70.26447a26.352941 26.352941 0 0 0-5.270588 15.811765v632.470588c0 14.576941 11.806118 26.352941 26.352941 26.352941h105.411765a26.352941 26.352941 0 0 0 26.352941-26.352941v-632.470588a26.352941 26.352941 0 0 0-5.270589-15.811765l-52.705882-70.26447a26.352941 26.352941 0 0 0-42.164706 0z m21.082353 59.723294l26.352941 35.147294v597.323294h-52.705882V229.647059l26.352941-35.147294zM509.500235 493.176471c13.432471 0 24.515765 10.059294 26.142118 23.04l0.210823 3.312941v175.676235a26.352941 26.352941 0 0 1-52.525176 3.312941l-0.180706-3.312941V519.529412c0-14.546824 11.776-26.352941 26.352941-26.352941z" fill="#568af2" /><path d="M579.764706 563.440941a26.352941 26.352941 0 0 1 3.312941 52.525177l-3.312941 0.180706h-140.559059a26.352941 26.352941 0 0 1-3.312941-52.495059l3.312941-0.210824h140.559059z" fill="#568af2" /></svg>