<svg class="icon" style="width: 1em;height: 1em;vertical-align: middle;fill: currentColor;overflow: hidden;" viewBox="0 0 1024 1024" version="1.1" xmlns="http://www.w3.org/2000/svg" width="32" height="32"><path d="M0 0h1024v1024H0z" fill="#568af2" fill-opacity="0" /><path d="M853.323294 826.970353a26.352941 26.352941 0 0 1 3.312941 52.525176l-3.312941 0.180706H150.588235a26.352941 26.352941 0 0 1-3.312941-52.495059l3.312941-0.210823h702.735059zM510.735059 124.235294l-19.365647 0.150588c-3.192471 0.030118-6.354824 0.090353-9.517177 0.180706l-18.672941 0.572236-9.155765 0.391529-17.889882 0.993882c-5.872941 0.391529-11.655529 0.843294-17.347765 1.325177l-16.715294 1.596235-8.131764 0.903529-15.721412 2.048-15.058824 2.319059c-70.896941 12.047059-115.952941 34.635294-115.952941 68.577883 0 33.972706 45.056 56.530824 115.952941 68.577882l15.058824 2.319059 15.721412 2.048 8.131764 0.903529 16.715294 1.596236 8.58353 0.692705 17.618823 1.174589c5.963294 0.301176 12.047059 0.602353 18.191059 0.843294l18.672941 0.602353 9.517177 0.150588 19.365647 0.150588 19.395765-0.150588c3.192471-0.030118 6.354824-0.090353 9.517176-0.180706l18.672941-0.572235 9.155765-0.39153 17.889882-0.993882c5.872941-0.391529 11.655529-0.843294 17.317647-1.325176l16.745412-1.596236 8.131765-0.903529 15.721412-2.048c79.510588-11.324235 131.011765-34.575059 131.011764-70.896941 0-36.321882-51.501176-59.572706-131.011764-70.896942l-15.75153-2.048-8.131765-0.903529-16.715294-1.596235-8.583529-0.692706-17.618824-1.174588c-5.963294-0.301176-12.016941-0.602353-18.160941-0.843294l-18.672941-0.602353-9.517176-0.150589-19.395765-0.150588z m0 52.705882c61.952 0 119.838118 5.421176 162.002823 14.817883l7.107765 1.65647c11.535059 2.800941 21.293176 5.842824 28.973177 8.944942l2.138352 0.903529-2.108235 0.963765a235.911529 235.911529 0 0 1-36.111059 10.601411c-42.164706 9.366588-100.050824 14.817882-162.002823 14.817883-61.952 0-119.808-5.421176-161.972706-14.817883l-7.137882-1.65647a215.341176 215.341176 0 0 1-28.973177-8.944941l-2.138353-0.933647 2.138353-0.933647a235.911529 235.911529 0 0 1 36.111059-10.601412c42.164706-9.366588 100.020706-14.817882 161.972706-14.817883z" fill="#568af2" /><path d="M337.558588 249.615059l47.706353-22.347294 9.035294 20.028235 5.451294 12.528941c10.782118 25.088 21.534118 51.802353 31.62353 79.119059 9.336471 25.389176 17.618824 50.055529 24.545882 73.547294 9.306353 31.623529 15.962353 60.416 19.456 85.89553 4.879059 35.599059 6.445176 77.583059 5.210353 124.717176a1702.912 1702.912 0 0 1-11.233882 149.925647l-1.566118 12.950588-3.19247 24.847059-5.150118 35.84-1.776941 11.053177-51.952941-8.794353 3.493647-22.558118 3.162353-22.588235 3.102117-24.184471 1.505883-12.649412c5.812706-49.904941 9.728-99.267765 10.932705-145.227294 1.174588-44.483765-0.301176-83.727059-4.758588-116.163764-3.102118-22.558118-9.185882-48.880941-17.799529-78.185412-6.565647-22.287059-14.456471-45.839059-23.461647-70.174118a1548.920471 1548.920471 0 0 0-22.768941-58.066823l-10.480942-24.696471-11.083294-24.816941zM622.622118 227.267765l47.73647 22.347294-8.523294 18.913882-5.270588 12.107294a1577.532235 1577.532235 0 0 0-30.569412 76.528941c-8.975059 24.365176-16.865882 47.917176-23.461647 70.204236-8.613647 29.304471-14.667294 55.627294-17.769412 78.185412-4.487529 32.527059-6.174118 71.860706-5.451294 116.434823 0.752941 47.164235 4.216471 97.852235 9.426824 148.931765l2.590117 23.913412 2.650353 22.437647 4.336941 32.135529-52.103529 7.830588-2.469647-17.468235-2.048-15.962353-2.740706-23.009882-2.650353-24.515765a1815.190588 1815.190588 0 0 1-9.697882-153.419294c-0.783059-47.073882 1.054118-88.967529 5.933176-124.476235 3.493647-25.479529 10.149647-54.272 19.456-85.89553 6.927059-23.491765 15.209412-48.158118 24.545883-73.547294 7.529412-20.48 15.510588-40.658824 23.552-59.994353l10.842353-25.539765 11.685647-26.142117z" fill="#568af2" /></svg>