<svg class="icon" style="width: 1em;height: 1em;vertical-align: middle;fill: currentColor;overflow: hidden;" viewBox="0 0 1024 1024" version="1.1" xmlns="http://www.w3.org/2000/svg" width="32" height="32"><path d="M220.852706 244.705882c13.432471 0 24.545882 10.059294 26.172235 23.04l0.180706 3.312942v456.794352a26.352941 26.352941 0 0 1-52.495059 3.312942l-0.210823-3.312942V271.058824c0-14.546824 11.806118-26.352941 26.352941-26.352942zM783.058824 244.705882c13.432471 0 24.515765 10.059294 26.142117 23.04l0.210824 3.312942v456.794352a26.352941 26.352941 0 0 1-52.495059 3.312942l-0.210824-3.312942V271.058824c0-14.546824 11.806118-26.352941 26.352942-26.352942z" fill="#568af2" /><path d="M501.970824 508.235294c69.632 0 140.769882 39.122824 211.06447 103.544471 23.913412 21.955765 46.08 45.387294 65.957647 68.818823l9.878588 11.866353 12.107295 15.36 3.403294 4.517647-42.646589 31.021177-5.782588-7.619765-7.981176-10.029176a713.788235 713.788235 0 0 0-70.565647-75.053177c-61.44-56.350118-122.096941-89.720471-175.435294-89.720471s-113.995294 33.370353-175.465412 89.690353a713.788235 713.788235 0 0 0-61.379765 64.060236l-4.728471 5.632-8.583529 10.541176-7.469176 9.60753-2.168471 2.861176-42.616471-30.991059 3.373177-4.517647 7.649882-9.788235 9.246118-11.384471a780.589176 780.589176 0 0 1 71.077647-74.87247c70.294588-64.451765 141.402353-103.544471 211.064471-103.544471z" fill="#568af2" /><path d="M853.323294 508.235294a26.352941 26.352941 0 0 1 3.312941 52.495059l-3.312941 0.210823H150.588235a26.352941 26.352941 0 0 1-3.312941-52.495058l3.312941-0.210824h702.735059zM853.323294 367.676235a26.352941 26.352941 0 0 1 3.312941 52.525177l-3.312941 0.180706H150.588235a26.352941 26.352941 0 0 1-3.312941-52.495059l3.312941-0.210824h702.735059z" fill="#568af2" /><path d="M501.970824 297.411765c13.432471 0 24.515765 10.059294 26.142117 23.04l0.210824 3.312941v210.823529a26.352941 26.352941 0 0 1-52.525177 3.312941l-0.180706-3.312941v-210.823529c0-14.546824 11.776-26.352941 26.352942-26.352941zM361.411765 367.676235c13.432471 0 24.515765 10.059294 26.142117 23.070118l0.210824 3.312941v140.528941a26.352941 26.352941 0 0 1-52.495059 3.312941l-0.210823-3.312941v-140.559059c0-14.546824 11.806118-26.352941 26.352941-26.352941zM642.499765 367.676235c13.432471 0 24.545882 10.059294 26.172235 23.070118l0.180706 3.312941v140.528941a26.352941 26.352941 0 0 1-52.495059 3.312941l-0.210823-3.312941v-140.559059c0-14.546824 11.806118-26.352941 26.352941-26.352941z" fill="#568af2" /></svg>