<svg class="icon" style="width: 1em;height: 1em;vertical-align: middle;fill: currentColor;overflow: hidden;" viewBox="0 0 1024 1024" version="1.1" xmlns="http://www.w3.org/2000/svg" width="32" height="32"><path d="M760.470588 310.211765l45.176471 27.105882-3.433412 5.481412-4.638118 6.927059-5.812705 8.161882-7.017412 9.336471a486.761412 486.761412 0 0 1-58.639059 63.879529c-64.843294 58.940235-139.896471 94.689882-224.135529 94.689882-84.269176 0-159.322353-35.749647-224.165648-94.689882a486.761412 486.761412 0 0 1-58.639058-63.849412l-6.987294-9.33647-3.072-4.276706-5.240471-7.529412-4.035765-6.234353-1.566117-2.56 45.17647-27.105882 2.710588 4.246588 3.824942 5.662118 4.939294 6.957176 6.083764 8.131765c14.878118 19.365647 32.346353 38.821647 52.254118 56.922353 55.928471 50.838588 119.235765 80.956235 188.717177 80.956235s132.758588-30.117647 188.687058-80.986353c19.877647-18.070588 37.406118-37.526588 52.284236-56.922353l6.053647-8.101647 4.969411-6.927059 3.824942-5.692235 2.68047-4.246588z" fill="#568af2" /><path d="M220.852706 244.705882c13.432471 0 24.545882 10.059294 26.172235 23.04l0.180706 3.312942v491.911529a26.352941 26.352941 0 0 1-52.495059 3.312941l-0.210823-3.312941V271.058824c0-14.546824 11.806118-26.352941 26.352941-26.352942zM783.058824 244.705882c13.432471 0 24.515765 10.059294 26.142117 23.04l0.210824 3.312942v491.911529a26.352941 26.352941 0 0 1-52.495059 3.312941l-0.210824-3.312941V271.058824c0-14.546824 11.806118-26.352941 26.352942-26.352942z" fill="#568af2" /><path d="M333.733647 598.016l48.188235-1.144471 29.665883-0.512 28.069647-0.331294 38.912-0.12047 23.732706 0.180706 23.67247 0.391529 25.47953 0.662588 27.196235 0.90353 28.822588 1.14447 14.968471 0.662588c15.269647 0.692706 30.960941 1.445647 46.983529 2.288942l49.001412 2.710588 39.875765 2.379294 38.640941 2.469647 58.337882 4.005647a26.352941 26.352941 0 1 1-3.915294 52.585412l-57.886118-4.005647-58.127058-3.674353-19.968-1.174588c-16.504471-0.933647-32.737882-1.807059-48.670118-2.650353l-61.44-2.921412-42.074353-1.596235-25.961412-0.783059-35.599059-0.692706-23.311058-0.180706h-25.118118l-40.929882 0.421647-29.304471 0.512-23.642353 0.542118-48.850823 1.325176-50.416942 1.656471-108.182588 4.457412a26.352941 26.352941 0 0 1-5.872941-52.254118l3.312941-0.391529 60.837647-2.650353 48.037647-1.837177 50.718118-1.686588 24.816941-0.692706z" fill="#568af2" /><path d="M361.411765 437.970824c13.432471 0 24.515765 10.029176 26.142117 23.04l0.210824 3.312941v158.117647a26.352941 26.352941 0 0 1-52.495059 3.312941l-0.210823-3.312941v-158.117647c0-14.576941 11.806118-26.352941 26.352941-26.352941zM501.970824 473.088c13.432471 0 24.515765 10.059294 26.142117 23.070118l0.210824 3.312941v122.970353a26.352941 26.352941 0 0 1-52.525177 3.312941l-0.180706-3.312941v-123.000471c0-14.546824 11.776-26.352941 26.352942-26.352941zM642.499765 437.970824c13.432471 0 24.545882 10.029176 26.172235 23.04l0.180706 3.312941v158.117647a26.352941 26.352941 0 0 1-52.495059 3.312941l-0.210823-3.312941v-158.117647c0-14.576941 11.806118-26.352941 26.352941-26.352941zM200.282353 307.290353a26.352941 26.352941 0 0 1 43.218823 29.997176l-2.048 2.95153-70.294588 87.823059a26.352941 26.352941 0 0 1-43.188706-29.967059l2.048-2.95153 70.264471-87.853176zM766.584471 303.194353a26.352941 26.352941 0 0 1 34.635294 1.475765l2.409411 2.620235 70.294589 87.853176a26.352941 26.352941 0 0 1-38.761412 35.568942l-2.409412-2.650353-70.26447-87.823059a26.352941 26.352941 0 0 1 4.096-37.044706z" fill="#568af2" /></svg>