<svg class="icon" style="width: 1em;height: 1em;vertical-align: middle;fill: currentColor;overflow: hidden;" viewBox="0 0 1024 1024" version="1.1" xmlns="http://www.w3.org/2000/svg" width="32" height="32"><path d="M504.199529 129.144471l-245.940705 175.676235a26.352941 26.352941 0 0 0-11.053177 21.443765v527.058823c0 14.576941 11.806118 26.352941 26.352941 26.352941h245.970824a26.352941 26.352941 0 0 0 26.352941-26.352941V150.588235a26.352941 26.352941 0 0 0-41.682824-21.443764zM493.176471 201.788235v625.182118H299.911529V339.817412L493.176471 201.788235z" fill="#568af2" /><path d="M498.085647 293.376a26.352941 26.352941 0 0 1 33.731765-8.011294l3.011764 1.897412 245.970824 175.676235c5.933176 4.246588 9.818353 10.721882 10.782118 17.859765l0.271058 3.614117v368.941177a26.352941 26.352941 0 0 1-52.525176 3.312941l-0.180706-3.312941-0.030118-355.418353-234.917647-167.785412a26.352941 26.352941 0 0 1-8.011294-33.731765l1.897412-3.011764z" fill="#568af2" /><path d="M853.323294 826.970353a26.352941 26.352941 0 0 1 3.312941 52.525176l-3.312941 0.180706H150.588235a26.352941 26.352941 0 0 1-3.312941-52.495059l3.312941-0.210823h702.735059z" fill="#568af2" /></svg>