<svg class="icon" style="width: 1em;height: 1em;vertical-align: middle;fill: currentColor;overflow: hidden;" viewBox="0 0 1024 1024" version="1.1" xmlns="http://www.w3.org/2000/svg" width="32" height="32"><path d="M180.705882 843.294118a26.352941 26.352941 0 0 1-3.312941-52.495059L180.705882 790.588235h8.764236V245.940706H180.705882l-3.764706-0.180706c-30.117647-3.493647-30.117647-48.790588 0-52.284235L180.705882 193.264941h702.735059a26.352941 26.352941 0 0 1 3.312941 52.495059l-3.312941 0.210824-8.794353-0.030118V790.588235h8.794353a26.352941 26.352941 0 0 1 3.312941 52.495059l-3.312941 0.210824H180.705882zM821.940706 245.940706H242.176V790.588235h579.764706V245.940706z" fill="#568af2" /><path d="M532.088471 193.264941c13.432471 0 24.515765 10.029176 26.142117 23.04l0.210824 3.312941v597.323294a26.352941 26.352941 0 0 1-52.525177 3.312942l-0.180706-3.312942V219.617882c0-14.576941 11.776-26.352941 26.352942-26.352941zM690.206118 421.647059c13.432471 0 24.515765 10.059294 26.142117 23.04l0.210824 3.312941v140.559059a26.352941 26.352941 0 0 1-52.525177 3.312941l-0.180706-3.312941v-140.559059c0-14.546824 11.776-26.352941 26.352942-26.352941z" fill="#568af2" /><path d="M671.563294 429.357176a26.352941 26.352941 0 0 1 34.575059-2.349176l2.710588 2.349176 52.705883 52.705883a26.352941 26.352941 0 0 1-34.575059 39.634823l-2.710589-2.349176-34.093176-34.093177-34.032941 34.093177a26.352941 26.352941 0 0 1-34.575059 2.349176l-2.710588-2.349176a26.352941 26.352941 0 0 1-2.349177-34.575059l2.349177-2.710588 52.705882-52.705883zM373.970824 421.647059c13.432471 0 24.515765 10.059294 26.142117 23.04l0.210824 3.312941v140.559059a26.352941 26.352941 0 0 1-52.525177 3.312941l-0.180706-3.312941v-140.559059c0-14.546824 11.776-26.352941 26.352942-26.352941z" fill="#568af2" /><path d="M408.033882 517.210353a26.352941 26.352941 0 0 1 39.634824 34.575059l-2.379294 2.710588-52.705883 52.705882a26.352941 26.352941 0 0 1-34.544941 2.349177l-2.710588-2.379294-52.705882-52.705883a26.352941 26.352941 0 0 1 34.575058-39.604706l2.710589 2.349177 34.032941 34.032941 34.093176-34.032941z" fill="#568af2" /></svg>