<svg class="icon" style="width: 1em;height: 1em;vertical-align: middle;fill: currentColor;overflow: hidden;" viewBox="0 0 1024 1024" version="1.1" xmlns="http://www.w3.org/2000/svg" width="32" height="32"><path d="M361.411765 259.764706a26.352941 26.352941 0 0 1 3.312941 52.495059l-3.312941 0.210823H238.682353l-49.182118 122.970353H814.381176l-49.182117-122.970353h-122.699294a26.352941 26.352941 0 0 1-26.142118-23.04l-0.210823-3.312941c0-13.432471 10.059294-24.515765 23.070117-26.142118l3.312941-0.210823H783.058824c9.577412 0 18.311529 5.180235 22.919529 13.372235l1.536 3.192471 70.294588 175.676235a26.352941 26.352941 0 0 1-21.263059 35.960471l-3.222588 0.180706H150.588235a26.352941 26.352941 0 0 1-25.479529-33.069177l1.024-3.072L196.367059 276.329412a26.352941 26.352941 0 0 1 20.931765-16.323765l3.523764-0.240941H361.411765z" fill="#568af2" /><path d="M783.058824 435.440941H220.852706a26.352941 26.352941 0 0 0-26.352941 26.352941v386.529883c0 14.546824 11.806118 26.352941 26.352941 26.352941H783.058824a26.352941 26.352941 0 0 0 26.352941-26.352941V461.793882a26.352941 26.352941 0 0 0-26.352941-26.352941z m-26.352942 52.705883v333.793882H247.205647V488.146824h509.500235z" fill="#568af2" /><path d="M642.499765 154.352941H361.411765a26.352941 26.352941 0 0 0-26.352941 26.352941v281.088c0 14.576941 11.806118 26.352941 26.352941 26.352942h281.088a26.352941 26.352941 0 0 0 26.352941-26.352942V180.705882a26.352941 26.352941 0 0 0-26.352941-26.352941z m-26.352941 52.705883v228.382117h-228.382118V207.058824h228.382118zM501.970824 576H361.411765a26.352941 26.352941 0 0 0-26.352941 26.352941v245.970824c0 14.546824 11.806118 26.352941 26.352941 26.352941h140.559059a26.352941 26.352941 0 0 0 26.352941-26.352941V602.352941a26.352941 26.352941 0 0 0-26.352941-26.352941z m-26.383059 52.705882v193.234824h-87.823059v-193.234824h87.823059z" fill="#568af2" /><path d="M642.499765 576h-140.528941a26.352941 26.352941 0 0 0-26.352942 26.352941v245.970824c0 14.546824 11.776 26.352941 26.352942 26.352941h140.528941a26.352941 26.352941 0 0 0 26.352941-26.352941V602.352941a26.352941 26.352941 0 0 0-26.352941-26.352941z m-26.352941 52.705882v193.234824h-87.853177v-193.234824h87.853177zM554.676706 294.912a26.352941 26.352941 0 0 1 3.312941 52.495059l-3.312941 0.210823h-105.411765a26.352941 26.352941 0 0 1-3.312941-52.525176l3.312941-0.180706h105.411765z" fill="#568af2" /><path d="M712.794353 821.970824a26.352941 26.352941 0 0 1 3.312941 52.495058l-3.312941 0.210824h-421.647059a26.352941 26.352941 0 0 1-3.312941-52.525177l3.312941-0.180705h421.647059zM501.970824 242.206118c13.432471 0 24.515765 10.029176 26.142117 23.04l0.210824 3.312941v105.411765a26.352941 26.352941 0 0 1-52.525177 3.312941l-0.180706-3.312941v-105.411765c0-14.576941 11.776-26.352941 26.352942-26.352941z" fill="#568af2" /></svg>