<svg class="icon" style="width: 1em;height: 1em;vertical-align: middle;fill: currentColor;overflow: hidden;" viewBox="0 0 1024 1024" version="1.1" xmlns="http://www.w3.org/2000/svg" width="32" height="32"><path d="M0 0h1024v1024H0z" fill="#568af2" fill-opacity="0" /><path d="M677.647059 721.558588H326.264471a26.352941 26.352941 0 0 0-26.352942 26.352941v105.411765c0 14.576941 11.806118 26.352941 26.352942 26.352941H677.647059a26.352941 26.352941 0 0 0 26.352941-26.352941v-105.411765a26.352941 26.352941 0 0 0-26.352941-26.352941z m-26.352941 52.705883v52.705882h-298.676706v-52.705882h298.676706z" fill="#568af2" /><path d="M481.370353 134.113882L411.105882 221.967059a26.352941 26.352941 0 0 0-5.722353 14.637176l-35.117176 509.500236a26.352941 26.352941 0 0 0 26.292706 28.16h210.823529c15.269647 0 27.316706-12.950588 26.292706-28.16L598.528 236.604235a26.352941 26.352941 0 0 0-5.722353-14.637176L522.541176 134.113882a26.352941 26.352941 0 0 0-41.170823 0z m20.570353 58.639059l44.574118 55.717647 32.617411 473.088h-154.383059l32.64753-473.118117L501.940706 192.752941zM853.323294 826.970353a26.352941 26.352941 0 0 1 3.312941 52.525176l-3.312941 0.180706H150.588235a26.352941 26.352941 0 0 1-3.312941-52.495059l3.312941-0.210823h702.735059z" fill="#568af2" /></svg>