<svg class="icon" style="width: 1em;height: 1em;vertical-align: middle;fill: currentColor;overflow: hidden;" viewBox="0 0 1024 1024" version="1.1" xmlns="http://www.w3.org/2000/svg" width="32" height="32"><path d="M0 0h1024v1024H0z" fill="#568af2" fill-opacity="0" /><path d="M783.058824 124.235294c32.406588 0 58.970353 25.088 61.319529 56.922353l0.180706 4.577882V835.764706h-52.705883V185.735529a8.794353 8.794353 0 0 0-6.77647-8.553411L783.058824 176.941176h-122.970353a8.794353 8.794353 0 0 0-8.553412 6.776471l-0.240941 2.017882v316.235295h-52.705883v-316.235295c0-32.436706 25.088-58.970353 56.922353-61.319529l4.577883-0.180706H783.058824z" fill="#568af2" /><path d="M501.970824 440.470588c-189.229176 0-342.588235 153.389176-342.588236 342.588236v96.617411h685.176471V783.058824c0-189.199059-153.389176-342.588235-342.588235-342.588236z m8.252235 52.826353c156.280471 4.367059 281.6 132.427294 281.6 289.761883v43.911529H212.058353V783.058824a289.882353 289.882353 0 0 1 289.912471-289.882353l8.252235 0.12047z" fill="#568af2" /><path d="M220.852706 194.499765c13.432471 0 24.545882 10.059294 26.172235 23.070117l0.180706 3.312942V624.941176a26.352941 26.352941 0 0 1-52.495059 3.312942l-0.210823-3.312942V220.852706c0-14.546824 11.806118-26.352941 26.352941-26.352941zM361.411765 299.911529c13.432471 0 24.515765 10.059294 26.142117 23.070118l0.210824 3.312941v175.676236a26.352941 26.352941 0 0 1-52.495059 3.312941l-0.210823-3.312941v-175.706353c0-14.546824 11.806118-26.352941 26.352941-26.352942zM818.206118 299.911529a26.352941 26.352941 0 0 1 3.312941 52.525177l-3.312941 0.180706H624.941176a26.352941 26.352941 0 0 1-3.312941-52.495059l3.312941-0.210824h193.264942zM501.970824 440.470588c87.250824 0 147.124706 141.552941 149.263058 315.331765l0.060236 9.697882v52.705883h-52.705883v-52.705883c0-151.732706-49.664-272.323765-96.617411-272.323764-45.989647 0-94.539294 115.501176-96.557177 262.686117l-0.090353 9.637647v52.705883h-52.705882v-52.705883c0-29.153882 1.626353-57.494588 4.72847-84.449882l2.288942-17.769412c0.813176-5.872941 1.716706-11.655529 2.710588-17.347765l3.132235-16.865882c22.256941-110.923294 71.860706-188.596706 136.493177-188.596706zM853.323294 826.970353a26.352941 26.352941 0 0 1 3.312941 52.525176l-3.312941 0.180706H150.588235a26.352941 26.352941 0 0 1-3.312941-52.495059l3.312941-0.210823h702.735059z" fill="#568af2" /><path d="M513.174588 651.354353l23.883294 0.391529 12.649412 0.331294 26.593882 0.963765 13.944471 0.602353 14.366118 0.692706c29.364706 1.505882 60.446118 3.463529 92.431059 5.812706l19.606588 1.475765 37.948235 3.041882 26.112 2.258823 22.437647 2.048-5.059765 52.464942-29.997176-2.710589-36.442353-3.072-19.034353-1.505882-19.425882-1.445647a4157.741176 4157.741176 0 0 0-91.256471-5.722353l-27.708235-1.295059-25.931294-0.903529-24.154353-0.602353a1447.393882 1447.393882 0 0 0-11.324236-0.120471h-21.684705l-23.190589 0.361412-25.057882 0.752941-26.834824 1.114353-14.064941 0.692706c-21.684706 1.114353-44.393412 2.469647-67.734588 4.065882l-42.947765 3.132236-37.556706 3.011764-47.887058 4.246589-5.12-52.464942 30.509176-2.740705 36.803765-3.102118a5380.698353 5380.698353 0 0 1 108.935529-7.589647l36.683294-1.897412 27.467294-1.14447 13.101177-0.421648 24.816941-0.602352 11.685647-0.120471h22.437647z" fill="#568af2" /></svg>