<svg class="icon" style="width: 1em;height: 1em;vertical-align: middle;fill: currentColor;overflow: hidden;" viewBox="0 0 1024 1024" version="1.1" xmlns="http://www.w3.org/2000/svg" width="32" height="32"><path d="M220.852706 124.235294c13.432471 0 24.545882 10.059294 26.172235 23.04l0.180706 3.312941v702.735059a26.352941 26.352941 0 0 1-52.495059 3.312941l-0.210823-3.312941V150.588235c0-14.546824 11.806118-26.352941 26.352941-26.352941z" fill="#568af2" /><path d="M853.323294 264.794353a26.352941 26.352941 0 0 1 3.312941 52.495059l-3.312941 0.210823H150.588235a26.352941 26.352941 0 0 1-3.312941-52.525176L150.588235 264.794353h702.735059z" fill="#568af2" /><path d="M202.24 272.504471a26.352941 26.352941 0 0 1 34.544941-2.349177l2.710588 2.349177L801.731765 834.710588a26.352941 26.352941 0 0 1-34.575059 39.604706l-2.710588-2.349176L202.24 309.76a26.352941 26.352941 0 0 1 0-37.255529z" fill="#568af2" /><path d="M764.416 272.504471a26.352941 26.352941 0 0 1 39.634824 34.575058l-2.349177 2.710589L239.495529 871.936a26.352941 26.352941 0 0 1-39.634823-34.575059l2.379294-2.710588L764.385882 272.534588z" fill="#568af2" /><path d="M202.24 500.886588a26.352941 26.352941 0 0 1 34.544941-2.349176l2.710588 2.349176 333.793883 333.824a26.352941 26.352941 0 0 1-34.544941 39.604706l-2.710589-2.349176L202.24 538.202353a26.352941 26.352941 0 0 1 0-37.285647zM430.622118 272.504471a26.352941 26.352941 0 0 1 34.575058-2.349177l2.710589 2.349177L801.671529 606.268235a26.352941 26.352941 0 0 1-34.575058 39.634824l-2.710589-2.349177-333.793882-333.824a26.352941 26.352941 0 0 1 0-37.255529z" fill="#568af2" /><path d="M517.963294 273.016471a26.352941 26.352941 0 0 1 40.538353 33.490823l-2.258823 2.740706-316.235295 333.824a26.352941 26.352941 0 0 1-40.56847-33.490824l2.288941-2.770823 316.235294-333.793882zM764.416 500.886588a26.352941 26.352941 0 0 1 39.634824 34.575059l-2.349177 2.710588-333.824 333.793883a26.352941 26.352941 0 0 1-39.604706-34.575059l2.349177-2.710588L764.385882 500.916706z" fill="#568af2" /><path d="M853.323294 826.970353a26.352941 26.352941 0 0 1 3.312941 52.525176l-3.312941 0.180706H150.588235a26.352941 26.352941 0 0 1-3.312941-52.495059l3.312941-0.210823h702.735059z" fill="#568af2" /><path d="M783.058824 124.235294c13.432471 0 24.515765 10.059294 26.142117 23.04l0.210824 3.312941v702.735059a26.352941 26.352941 0 0 1-52.495059 3.312941l-0.210824-3.312941V150.588235c0-14.546824 11.806118-26.352941 26.352942-26.352941z" fill="#568af2" /></svg>