<svg class="icon" style="width: 1em;height: 1em;vertical-align: middle;fill: currentColor;overflow: hidden;" viewBox="0 0 1024 1024" version="1.1" xmlns="http://www.w3.org/2000/svg" width="32" height="32"><path d="M483.328 131.945412l-70.264471 70.294588a26.352941 26.352941 0 0 0-7.740235 18.612706v632.470588c0 14.576941 11.806118 26.352941 26.352941 26.352941H572.235294a26.352941 26.352941 0 0 0 26.352941-26.352941v-632.470588a26.352941 26.352941 0 0 0-7.710117-18.612706L520.583529 131.915294a26.352941 26.352941 0 0 0-37.255529 0z m18.612706 55.898353l43.941647 43.941647v595.184941h-87.853177V231.785412l43.91153-43.941647z" fill="#568af2" /><path d="M413.063529 272.504471l-140.559058 140.559058a26.352941 26.352941 0 0 0-7.710118 18.612706v421.647059c0 14.576941 11.776 26.352941 26.352941 26.352941h140.528941a26.352941 26.352941 0 0 0 26.352941-26.352941V291.147294c0-23.491765-28.370824-35.237647-44.965647-18.672941z m-7.740235 82.251294v472.214588h-87.853176V442.608941l87.853176-87.853176z" fill="#568af2" /><path d="M273.769412 552.387765l-140.528941 123.00047a26.352941 26.352941 0 0 0-9.005177 19.817412v158.117647c0 14.576941 11.806118 26.352941 26.352941 26.352941h140.559059a26.352941 26.352941 0 0 0 26.352941-26.352941V572.235294a26.352941 26.352941 0 0 0-43.730823-19.847529z m-9.005177 77.914353v196.668235H176.941176v-119.838118l87.823059-76.830117zM545.882353 291.147294v562.176c0 14.576941 11.806118 26.352941 26.352941 26.352941h140.559059a26.352941 26.352941 0 0 0 26.352941-26.352941v-421.647059a26.352941 26.352941 0 0 0-7.740235-18.612706L590.908235 272.504471c-16.624941-16.594824-44.995765-4.818824-44.995764 18.642823z m52.675765 63.578353l87.853176 87.883294v384.361412h-87.853176v-472.244706z" fill="#568af2" /><path d="M686.441412 572.235294v281.088c0 14.576941 11.776 26.352941 26.352941 26.352941h140.528941a26.352941 26.352941 0 0 0 26.352941-26.352941v-166.881882a26.352941 26.352941 0 0 0-9.728-20.48l-140.559059-114.176a26.352941 26.352941 0 0 0-42.947764 20.449882z m52.675764 55.356235l87.853177 71.378824v128h-87.853177v-199.378824z" fill="#568af2" /></svg>