<svg class="icon" style="width: 1em;height: 1em;vertical-align: middle;fill: currentColor;overflow: hidden;" viewBox="0 0 1024 1024" version="1.1" xmlns="http://www.w3.org/2000/svg" width="32" height="32"><path d="M853.323294 826.970353a26.352941 26.352941 0 0 1 3.312941 52.525176l-3.312941 0.180706H150.588235a26.352941 26.352941 0 0 1-3.312941-52.495059l3.312941-0.210823h702.735059z" fill="#568af2" /><path d="M765.500235 616.146824h-210.823529a26.352941 26.352941 0 0 0-26.352941 26.352941v210.823529c0 14.576941 11.776 26.352941 26.352941 26.352941h210.823529a26.352941 26.352941 0 0 0 26.352941-26.352941v-210.823529a26.352941 26.352941 0 0 0-26.352941-26.352941z m-26.383059 52.705882v158.117647h-158.117647v-158.117647h158.117647zM747.911529 229.647059c13.432471 0 24.545882 10.059294 26.172236 23.04l0.180706 3.312941V361.411765a26.352941 26.352941 0 0 1-52.495059 3.312941l-0.210824-3.312941V256c0-14.546824 11.806118-26.352941 26.352941-26.352941zM572.235294 229.647059c13.432471 0 24.515765 10.059294 26.142118 23.04l0.210823 3.312941V361.411765a26.352941 26.352941 0 0 1-52.495059 3.312941l-0.210823-3.312941V256c0-14.546824 11.806118-26.352941 26.352941-26.352941z" fill="#568af2" /><path d="M639.819294 133.722353l-87.823059 105.411765A26.352941 26.352941 0 0 0 572.235294 282.352941h175.676235a26.352941 26.352941 0 0 0 20.269177-43.218823l-87.853177-105.411765a26.352941 26.352941 0 0 0-40.508235 0z m20.239059 58.006588l31.593412 37.918118h-63.156706l31.563294-37.918118zM519.529412 405.323294v52.705882H273.558588a8.794353 8.794353 0 0 0-8.553412 6.776471l-0.210823 2.017882v386.499765h-52.705882V466.823529c0-32.406588 25.088-58.970353 56.892235-61.319529l4.577882-0.180706h245.970824z" fill="#568af2" /><path d="M414.117647 563.440941a26.352941 26.352941 0 0 1 3.312941 52.525177l-3.312941 0.180706h-70.264471a26.352941 26.352941 0 0 1-3.312941-52.495059l3.312941-0.210824h70.264471zM414.117647 686.441412a26.352941 26.352941 0 0 1 3.312941 52.495059l-3.312941 0.210823h-70.264471a26.352941 26.352941 0 0 1-3.312941-52.525176l3.312941-0.180706h70.264471zM783.058824 335.058824h-245.970824c-24.244706 0-43.911529 19.666824-43.911529 43.911529v245.970823c0 24.244706 19.666824 43.911529 43.911529 43.91153H783.058824c24.244706 0 43.911529-19.666824 43.911529-43.91153v-245.970823c0-24.244706-19.666824-43.911529-43.911529-43.911529z m-8.794353 52.705882v228.382118h-228.382118v-228.382118h228.382118z" fill="#568af2" /><path d="M660.088471 501.970824m-52.705883 0a52.705882 52.705882 0 1 0 105.411765 0 52.705882 52.705882 0 1 0-105.411765 0Z" fill="#568af2" /><path d="M660.088471 616.146824c13.432471 0 24.515765 10.059294 26.142117 23.070117l0.210824 3.312941v175.676236a26.352941 26.352941 0 0 1-52.525177 3.312941l-0.180706-3.312941v-175.706353c0-14.546824 11.776-26.352941 26.352942-26.352941z" fill="#568af2" /></svg>