<svg class="icon" style="width: 1em;height: 1em;vertical-align: middle;fill: currentColor;overflow: hidden;" viewBox="0 0 1024 1024" version="1.1" xmlns="http://www.w3.org/2000/svg" width="32" height="32"><path d="M254.945882 131.945412L131.915294 254.945882c-16.564706 16.564706-4.818824 44.965647 18.642824 44.965647h245.970823c23.491765 0 35.237647-28.370824 18.612706-44.965647L292.201412 131.915294a26.352941 26.352941 0 0 0-37.25553 0z m18.612706 55.898353l59.331765 59.361882H214.196706l59.361882-59.361882zM711.710118 131.945412l-122.970353 123.00047c-16.594824 16.564706-4.818824 44.965647 18.642823 44.965647h245.940706c23.491765 0 35.237647-28.370824 18.672941-44.965647L748.965647 131.915294a26.352941 26.352941 0 0 0-37.285647 0z m18.642823 55.898353l59.331765 59.361882h-118.693647l59.361882-59.361882zM220.852706 352.617412l-3.312941 0.210823a26.352941 26.352941 0 0 0-23.04 26.142118v131.764706H150.588235a26.352941 26.352941 0 0 0-26.352941 26.352941v316.235294c0 14.576941 11.806118 26.352941 26.352941 26.352941h245.970824a26.352941 26.352941 0 0 0 26.352941-26.352941V783.058824a79.058824 79.058824 0 0 1 158.117647 0v70.26447c0 14.576941 11.776 26.352941 26.352941 26.352941h245.940706a26.352941 26.352941 0 0 0 26.352941-26.352941v-316.235294l-0.180706-3.312941a26.352941 26.352941 0 0 0-26.172235-23.04h-43.911529v-131.764706a26.352941 26.352941 0 0 0-26.352941-26.352941h-105.411765l-3.312941 0.210823a26.352941 26.352941 0 0 0-23.04 26.142118v131.764706h-52.705883v-61.470118a26.352941 26.352941 0 0 0-7.710117-18.672941l-70.294589-70.234353a26.352941 26.352941 0 0 0-37.255529 0l-70.264471 70.264471-2.288941 2.620235a26.352941 26.352941 0 0 0-5.421176 16.022588l-0.030118 61.470118h-52.705882v-131.764706a26.352941 26.352941 0 0 0-26.352941-26.352941h-105.411765z m535.853176 52.705882v131.764706l0.210824 3.312941a26.352941 26.352941 0 0 0 26.142118 23.04h43.911529v263.529412h-193.264941V783.058824a131.764706 131.764706 0 0 0-131.734588-131.764706l-6.384942 0.150588A131.764706 131.764706 0 0 0 370.206118 783.058824l-0.030118 43.911529H176.941176v-263.529412h43.91153l3.312941-0.180706a26.352941 26.352941 0 0 0 23.04-26.172235v-131.764706h52.705882v131.764706c0 14.576941 11.806118 26.352941 26.352942 26.352941h105.411764l3.312941-0.180706a26.352941 26.352941 0 0 0 23.04-26.172235V460.197647l43.91153-43.911529 43.941647 43.911529v76.920471c0 14.576941 11.806118 26.352941 26.352941 26.352941h105.411765l3.312941-0.180706a26.352941 26.352941 0 0 0 23.04-26.172235v-131.764706h52.705882z" fill="#568af2" /><path d="M343.853176 247.205647H203.294118a26.352941 26.352941 0 0 0-26.352942 26.352941v105.411765c0 14.576941 11.806118 26.352941 26.352942 26.352941h140.559058a26.352941 26.352941 0 0 0 26.352942-26.352941v-105.411765a26.352941 26.352941 0 0 0-26.352942-26.352941z m-26.383058 52.705882v52.705883H229.647059v-52.705883h87.823059zM800.617412 247.205647h-140.528941a26.352941 26.352941 0 0 0-26.352942 26.352941v105.411765c0 14.576941 11.776 26.352941 26.352942 26.352941h140.528941a26.352941 26.352941 0 0 0 26.352941-26.352941v-105.411765a26.352941 26.352941 0 0 0-26.352941-26.352941z m-26.352941 52.705882v52.705883h-87.853177v-52.705883h87.853177z" fill="#568af2" /></svg>