<svg class="icon" style="width: 1em;height: 1em;vertical-align: middle;fill: currentColor;overflow: hidden;" viewBox="0 0 1024 1024" version="1.1" xmlns="http://www.w3.org/2000/svg" width="32" height="32"><path d="M695.205647 282.352941l-3.463529 0.240941a26.352941 26.352941 0 0 0-15.149177 7.469177L297.773176 668.852706H150.588235a26.352941 26.352941 0 0 0-26.352941 26.352941v158.117647c0 14.576941 11.806118 26.352941 26.352941 26.352941h158.117647l3.46353-0.210823a26.352941 26.352941 0 0 0 15.179294-7.499294l378.759529-378.789647h147.215059a26.352941 26.352941 0 0 0 26.352941-26.352942v-158.117647a26.352941 26.352941 0 0 0-26.352941-26.352941h-158.117647z m131.764706 52.705883v105.411764h-131.764706l-3.463529 0.240941a26.352941 26.352941 0 0 0-15.149177 7.469177L297.773176 826.970353H176.941176v-105.411765h131.764706l3.46353-0.210823a26.352941 26.352941 0 0 0 15.179294-7.499294l378.759529-378.789647h120.862118zM553.592471 131.945412a26.352941 26.352941 0 0 1 39.634823 34.575059l-2.349176 2.710588-158.117647 158.117647a26.352941 26.352941 0 0 1-39.634824-34.575059l2.349177-2.710588 158.117647-158.117647z" fill="#568af2" /><path d="M572.235294 124.235294c13.432471 0 24.515765 10.059294 26.142118 23.04l0.210823 3.312941v105.411765a26.352941 26.352941 0 0 1-52.495059 3.312941l-0.210823-3.312941V176.941176H466.823529a26.352941 26.352941 0 0 1-26.142117-23.04L440.470588 150.588235c0-13.432471 10.059294-24.515765 23.04-26.142117l3.312941-0.210824H572.235294zM307.651765 377.916235a26.352941 26.352941 0 0 1 39.604706 34.575059l-2.349177 2.710588-158.117647 158.117647a26.352941 26.352941 0 0 1-39.634823-34.575058l2.379294-2.710589 158.117647-158.117647z" fill="#568af2" /><path d="M168.146824 422.912c13.432471 0 24.545882 10.029176 26.172235 23.04l0.180706 3.312941v79.028706h79.058823c13.432471 0 24.545882 10.059294 26.172236 23.070118l0.180705 3.312941a26.352941 26.352941 0 0 1-23.04 26.142118l-3.312941 0.210823h-105.411764a26.352941 26.352941 0 0 1-26.142118-23.070118l-0.210824-3.312941v-105.411764c0-14.546824 11.806118-26.322824 26.352942-26.322824z" fill="#568af2" /></svg>