<svg class="icon" style="width: 1em;height: 1em;vertical-align: middle;fill: currentColor;overflow: hidden;" viewBox="0 0 1024 1024" version="1.1" xmlns="http://www.w3.org/2000/svg" width="32" height="32"><path d="M321.264941 214.588235H180.705882A26.352941 26.352941 0 0 0 154.352941 240.941176v544.617412c0 14.576941 11.806118 26.352941 26.352941 26.352941h702.735059a26.352941 26.352941 0 0 0 26.352941-26.352941V240.941176a26.352941 26.352941 0 0 0-26.352941-26.352941h-140.528941l-3.312941 0.210824a26.352941 26.352941 0 0 0-23.04 26.142117l-0.030118 96.617412h-87.823059V240.941176A26.352941 26.352941 0 0 0 602.352941 214.588235h-140.559059l-3.312941 0.210824a26.352941 26.352941 0 0 0-23.04 26.142117v96.617412h-87.853176V240.941176a26.352941 26.352941 0 0 0-26.322824-26.352941z m166.881883 52.705883h87.853176v96.617411c0 14.576941 11.806118 26.352941 26.352941 26.352942h140.559059l3.312941-0.180706a26.352941 26.352941 0 0 0 23.04-26.172236l-0.030117-96.617411h87.853176v491.911529H207.058824V267.294118h87.823058v96.617411c0 14.576941 11.806118 26.352941 26.383059 26.352942h140.528941l3.312942-0.180706a26.352941 26.352941 0 0 0 23.04-26.172236V267.294118z" fill="#568af2" /><path d="M883.440941 478.117647a26.352941 26.352941 0 0 1 3.312941 52.495059l-3.312941 0.210823H180.705882a26.352941 26.352941 0 0 1-3.312941-52.495058l3.312941-0.210824h702.735059zM883.440941 618.676706a26.352941 26.352941 0 0 1 3.312941 52.495059l-3.312941 0.210823H180.705882a26.352941 26.352941 0 0 1-3.312941-52.525176l3.312941-0.180706h702.735059z" fill="#568af2" /><path d="M532.088471 478.117647c13.432471 0 24.515765 10.059294 26.142117 23.04l0.210824 3.312941v140.559059a26.352941 26.352941 0 0 1-52.525177 3.312941l-0.180706-3.312941V504.470588c0-14.546824 11.776-26.352941 26.352942-26.352941zM391.529412 618.676706c13.432471 0 24.515765 10.029176 26.142117 23.04l0.210824 3.312941v140.528941a26.352941 26.352941 0 0 1-52.495059 3.312941l-0.210823-3.312941v-140.528941c0-14.576941 11.806118-26.352941 26.352941-26.352941zM391.529412 337.558588c13.432471 0 24.515765 10.059294 26.142117 23.070118l0.210824 3.312941v140.528941a26.352941 26.352941 0 0 1-52.495059 3.312941l-0.210823-3.312941v-140.559059c0-14.546824 11.806118-26.352941 26.352941-26.352941zM672.617412 618.676706c13.432471 0 24.545882 10.029176 26.172235 23.04l0.180706 3.312941v140.528941a26.352941 26.352941 0 0 1-52.495059 3.312941l-0.210823-3.312941v-140.528941c0-14.576941 11.806118-26.352941 26.352941-26.352941zM672.617412 337.558588c13.432471 0 24.545882 10.059294 26.172235 23.070118l0.180706 3.312941v140.528941a26.352941 26.352941 0 0 1-52.495059 3.312941l-0.210823-3.312941v-140.559059c0-14.546824 11.806118-26.352941 26.352941-26.352941z" fill="#568af2" /></svg>