<svg class="icon" style="width: 1em;height: 1em;vertical-align: middle;fill: currentColor;overflow: hidden;" viewBox="0 0 1024 1024" version="1.1" xmlns="http://www.w3.org/2000/svg" width="32" height="32"><path d="M0 0h1024v1024H0z" fill="#568af2" fill-opacity="0" /><path d="M627.440941 335.058824h-210.823529a26.352941 26.352941 0 0 0-19.516236 8.643764l-6.324705 6.595765-2.349177 2.349176c-6.987294 6.927059-14.546824 13.884235-22.287059 20.299295a182.512941 182.512941 0 0 1-27.316706 19.154823 74.902588 74.902588 0 0 1-10.270117 4.788706 114.447059 114.447059 0 0 1-18.160941 4.517647c-5.12 0.903529-10.541176 1.686588-16.082824 2.319059l-11.294118 1.084235-8.131764 0.542118c-25.840941 1.144471-34.725647 34.996706-12.739765 48.700235l7.228235 4.397177 9.155765 5.270588 10.842353 5.903059 9.035294 4.517647 4.186353 1.837176c6.053647 2.620235 13.161412 5.12 21.172706 7.55953 5.059765 1.566118 10.360471 3.041882 15.661176 4.457411l11.474824 2.861177 7.469176 1.716706 5.541647 0.602353h316.235295l5.571764-0.602353 10.872471-2.529883c8.041412-1.987765 16.112941-4.156235 23.732706-6.505411 8.011294-2.439529 15.119059-4.939294 21.172706-7.529412 2.710588-1.204706 5.541647-2.499765 8.553411-4.005647l7.529412-3.915294 7.981177-4.367059 9.125647-5.270588 7.258353-4.397177c21.022118-13.101176 13.793882-44.634353-9.487059-48.368941l-14.305883-1.114353a285.515294 285.515294 0 0 1-24.485647-3.162353 114.447059 114.447059 0 0 1-18.130823-4.517647 74.902588 74.902588 0 0 1-10.24-4.788706 182.512941 182.512941 0 0 1-27.346824-19.154823c-5.180235-4.276706-10.24-8.794353-15.149176-13.372236l-9.517177-9.276235-6.324706-6.595765a26.352941 26.352941 0 0 0-19.516235-8.643764z m-199.619765 52.705882h188.385883l2.319059 2.319059c8.041412 7.981176 16.745412 15.962353 25.840941 23.491764l7.228235 5.782589c9.577412 7.439059 19.004235 13.854118 28.310588 18.944l2.017883 1.054117-4.788706 1.114353H366.893176l-4.758588-1.114353 2.078118-1.054117a232.809412 232.809412 0 0 0 35.478588-24.726589l8.975059-7.649882 8.613647-7.890823 10.541176-10.270118zM645.029647 545.882353H399.058824a26.352941 26.352941 0 0 0-18.793412 7.890823l-4.608 4.457412-4.818824 4.457412c-7.619765 6.927059-15.932235 13.854118-24.515764 20.299294-12.288 9.155765-24.094118 16.444235-34.635295 21.112471-2.981647 1.325176-5.812706 2.409412-8.463058 3.252706a152.997647 152.997647 0 0 1-21.835295 4.788705c-5.993412 0.903529-12.348235 1.716706-18.823529 2.349177l-16.143059 1.325176-6.505412 0.361412c-26.744471 1.024-35.087059 36.653176-11.595294 49.453177l7.318589 3.915294 8.432941 4.276706 11.806117 5.722353 3.222589 1.505882a191.939765 191.939765 0 0 0 30.418823 11.233882l12.528941 3.222589c5.872941 1.415529 11.956706 2.770824 18.130824 4.035764l21.865412 4.096 4.306823 0.361412h351.382588l4.306824-0.361412 12.528941-2.258823c9.336471-1.807059 18.672941-3.734588 27.467294-5.872941l12.498824-3.222589a191.939765 191.939765 0 0 0 25.20847-8.914823l8.463059-3.794824 11.836235-5.722353 15.721412-8.222117c23.491765-12.8 15.119059-48.429176-11.595294-49.453177l-12.890353-0.813176c-9.818353-0.752941-19.606588-1.807059-28.611765-3.222589a152.997647 152.997647 0 0 1-21.805176-4.788705 84.570353 84.570353 0 0 1-8.463059-3.252706 185.584941 185.584941 0 0 1-34.635294-21.112471c-5.722353-4.306824-11.324235-8.794353-16.685176-13.402353l-10.420706-9.246117-6.836706-6.565648a26.352941 26.352941 0 0 0-18.793412-7.890823z m-235.369412 52.705882h224.737883l3.403294 3.102118c8.794353 8.011294 18.371765 15.992471 28.400941 23.491765l9.095529 6.565647c9.095529 6.324706 18.070588 11.806118 26.955294 16.353882l2.921412 1.385412-9.758117 1.807059H348.611765l-9.728-1.807059-5.872941 2.831059a235.640471 235.640471 0 0 0 44.875294-27.105883c10.029176-7.529412 19.576471-15.510588 28.400941-23.491764l3.373176-3.132236zM507.723294 128.481882l-9.938823 6.324706-7.228236 4.48753c-13.161412 8.161882-26.774588 16.323765-40.05647 23.913411l-13.854118 7.800471-6.836706 3.704471-12.769882 6.625882c-2.017882 1.024-4.005647 2.017882-5.903059 2.921412l-8.402824 3.915294-13.793882 6.023529-17.408 7.288471a26.352941 26.352941 0 0 0-6.053647 45.327059l5.872941 4.427294 9.035294 6.505412 5.541647 3.824941 2.499765 1.596235c1.957647 1.234824 4.065882 2.469647 6.354824 3.734588l4.336941 2.258824 9.33647 4.517647 8.734118 3.855059 7.378824 3.011764c3.072 1.204706 6.324706 1.807059 9.637647 1.807059h175.676235c3.312941 0 6.565647-0.602353 9.637647-1.807059l7.348706-3.011764 8.764235-3.885177 4.668235-2.16847c3.222588-1.566118 6.234353-3.072 9.005177-4.577883 2.288941-1.264941 4.397176-2.499765 6.324706-3.734588l3.915294-2.56 8.854588-6.234353 10.209883-7.559529a26.352941 26.352941 0 0 0-6.053648-45.327059l-17.408-7.288471-16.655058-7.318588a374.422588 374.422588 0 0 1-11.444706-5.511529l-12.769883-6.656-6.836705-3.704471a1249.701647 1249.701647 0 0 1-40.658824-23.582118l-20.48-12.649411-9.938824-6.324706a26.352941 26.352941 0 0 0-28.641882 0z m-3.162353 64.060236l17.468235-10.782118 3.704471 2.319059c13.673412 8.463059 27.798588 16.956235 41.652706 24.877176l7.439059 4.216471 14.697412 8.071529 7.137882 3.764706 8.613647 4.397177-0.602353 0.240941h-165.315765l-0.602353-0.240941 8.643765-4.397177 14.607059-7.830588 14.667294-8.222118c9.246118-5.270588 18.612706-10.812235 27.888941-16.414117z" fill="#568af2" /><path d="M469.323294 229.647059c13.432471 0 24.545882 10.059294 26.172235 23.04l0.180706 3.312941V361.411765a26.352941 26.352941 0 0 1-52.495059 3.312941l-0.210823-3.312941V256c0-14.546824 11.806118-26.352941 26.352941-26.352941zM574.735059 229.647059c13.432471 0 24.545882 10.059294 26.172235 23.04l0.180706 3.312941V361.411765a26.352941 26.352941 0 0 1-52.495059 3.312941l-0.210823-3.312941V256c0-14.546824 11.806118-26.352941 26.352941-26.352941zM434.206118 440.470588c13.432471 0 24.515765 10.059294 26.142117 23.04l0.210824 3.312941V572.235294a26.352941 26.352941 0 0 1-52.525177 3.312941l-0.180706-3.312941v-105.411765c0-14.546824 11.776-26.352941 26.352942-26.352941zM609.882353 440.470588c13.432471 0 24.515765 10.059294 26.142118 23.04l0.210823 3.312941V572.235294a26.352941 26.352941 0 0 1-52.495059 3.312941l-0.210823-3.312941v-105.411765c0-14.546824 11.806118-26.352941 26.352941-26.352941zM662.588235 651.294118c13.432471 0 24.515765 10.059294 26.142118 23.04l0.210823 3.312941v175.676235a26.352941 26.352941 0 0 1-23.04 26.172235l-3.312941 0.180706h-281.088a26.352941 26.352941 0 0 1-26.172235-23.04l-0.180706-3.312941V677.647059a26.352941 26.352941 0 0 1 52.495059-3.312941l0.210823 3.312941-0.030117 149.323294h228.412235V677.647059c0-13.432471 10.059294-24.515765 23.04-26.142118l3.312941-0.210823z" fill="#568af2" /></svg>