<svg class="icon" style="width: 1em;height: 1em;vertical-align: middle;fill: currentColor;overflow: hidden;" viewBox="0 0 1024 1024" version="1.1" xmlns="http://www.w3.org/2000/svg" width="32" height="32"><path d="M501.970824 528.323765a131.764706 131.764706 0 1 0 0 263.529411 131.764706 131.764706 0 0 0 0-263.529411z m0 52.705882a79.058824 79.058824 0 1 1 0 158.117647 79.058824 79.058824 0 0 1 0-158.117647zM501.970824 229.647059a79.058824 79.058824 0 1 0 0 158.117647 79.058824 79.058824 0 0 0 0-158.117647z m0 52.705882a26.352941 26.352941 0 1 1 0 52.705883 26.352941 26.352941 0 0 1 0-52.705883z" fill="#568af2" /><path d="M501.970824 756.705882c13.432471 0 24.515765 10.059294 26.142117 23.04l0.210824 3.312942v70.26447a26.352941 26.352941 0 0 1-52.525177 3.312941l-0.180706-3.312941V783.058824c0-14.546824 11.776-26.352941 26.352942-26.352942zM467.847529 335.088941l3.312942 0.301177c13.251765 2.228706 22.528 13.974588 21.985882 27.045647l-0.301177 3.312941-35.177411 210.823529a26.352941 26.352941 0 0 1-52.314353-5.360941l0.331294-3.312941 35.147294-210.823529a26.352941 26.352941 0 0 1 27.015529-21.985883zM532.781176 335.420235a26.352941 26.352941 0 0 1 29.57553 18.432l0.722823 3.222589 35.147295 210.823529a26.352941 26.352941 0 0 1-51.230118 11.896471l-0.752941-3.222589-35.147294-210.823529a26.352941 26.352941 0 0 1 21.684705-30.328471zM389.903059 719.962353a26.352941 26.352941 0 0 1 49.543529 17.648941l-1.114353 3.132235-52.705882 122.970353a26.352941 26.352941 0 0 1-49.543529-17.648941l1.114352-3.102117 52.705883-123.000471zM579.433412 706.138353a26.352941 26.352941 0 0 1 33.129412 10.872471l1.475764 2.951529 52.705883 123.000471a26.352941 26.352941 0 0 1-46.98353 23.702588l-1.475765-2.95153-52.705882-122.970353a26.352941 26.352941 0 0 1 13.854118-34.635294zM501.970824 124.235294c13.432471 0 24.515765 10.059294 26.142117 23.04l0.210824 3.312941v105.411765a26.352941 26.352941 0 0 1-52.525177 3.312941l-0.180706-3.312941V150.588235c0-14.546824 11.776-26.352941 26.352942-26.352941z" fill="#568af2" /></svg>