<svg class="icon" style="width: 1em;height: 1em;vertical-align: middle;fill: currentColor;overflow: hidden;" viewBox="0 0 1024 1024" version="1.1" xmlns="http://www.w3.org/2000/svg" width="32" height="32"><path d="M843.294118 826.970353a26.352941 26.352941 0 0 1 3.312941 52.525176l-3.312941 0.180706H210.823529a26.352941 26.352941 0 0 1-3.312941-52.495059l3.312941-0.210823h632.470589zM650.029176 405.323294a26.352941 26.352941 0 0 1 3.312942 52.525177l-3.312942 0.180705h-245.940705a26.352941 26.352941 0 0 1-3.312942-52.495058l3.312942-0.210824h245.940705z" fill="#568af2" /><path d="M614.912 405.323294h-175.706353a26.352941 26.352941 0 0 0-26.142118 23.100235l-52.705882 421.647059a26.352941 26.352941 0 0 0 26.142118 29.605647h281.118117a26.352941 26.352941 0 0 0 26.142118-29.605647l-52.705882-421.647059a26.352941 26.352941 0 0 0-26.142118-23.100235z m-23.280941 52.705882l46.110117 368.941177h-221.394823l46.110118-368.941177h129.174588z" fill="#568af2" /><path d="M616.327529 212.118588l3.312942 0.39153c13.191529 2.409412 22.287059 14.275765 21.564235 27.346823l-0.361412 3.312941-35.147294 193.234824a26.352941 26.352941 0 0 1-22.497882 21.413647l-3.433412 0.210823h-105.411765a26.352941 26.352941 0 0 1-25.088-18.311529l-0.843294-3.312941-35.147294-193.264941a26.352941 26.352941 0 0 1 51.079529-12.649412l0.783059 3.222588 31.201883 171.610353h61.409882l31.232-171.610353a26.352941 26.352941 0 0 1 24.094118-21.564235l3.252705-0.030118z" fill="#568af2" /><path d="M508.416 131.945412a26.352941 26.352941 0 0 1 34.575059-2.349177l2.710588 2.349177 140.528941 140.559059a26.352941 26.352941 0 0 1-34.544941 39.634823l-2.710588-2.379294L527.058824 187.843765l-121.916236 121.916235a26.352941 26.352941 0 0 1-39.634823-34.544941l2.379294-2.710588L508.385882 131.915294zM789.534118 131.945412A26.352941 26.352941 0 0 1 829.138824 166.550588l-2.349177 2.710588-52.705882 52.705883a26.352941 26.352941 0 0 1-39.634824-34.575059l2.379294-2.710588 52.705883-52.705883zM227.328 131.945412a26.352941 26.352941 0 0 1 34.575059-2.349177l2.710588 2.349177 52.705882 52.705882a26.352941 26.352941 0 0 1-34.575058 39.634824l-2.710589-2.349177-52.705882-52.705882a26.352941 26.352941 0 0 1 0-37.285647zM736.828235 395.474824a26.352941 26.352941 0 0 1 34.544941-2.349177l2.710589 2.349177 52.705882 52.705882a26.352941 26.352941 0 0 1-34.575059 39.634823l-2.710588-2.349176-52.705882-52.705882a26.352941 26.352941 0 0 1 0-37.285647zM280.033882 395.474824a26.352941 26.352941 0 0 1 39.634824 34.575058l-2.379294 2.710589-52.705883 52.705882A26.352941 26.352941 0 0 1 224.978824 450.861176l2.349176-2.710588 52.705882-52.705882zM843.294118 282.352941a26.352941 26.352941 0 0 1 3.312941 52.495059l-3.312941 0.210824h-70.264471a26.352941 26.352941 0 0 1-3.312941-52.495059l3.312941-0.210824H843.294118zM281.088 282.352941a26.352941 26.352941 0 0 1 3.312941 52.495059l-3.312941 0.210824H210.823529a26.352941 26.352941 0 0 1-3.312941-52.495059L210.823529 282.352941h70.264471zM632.470588 545.882353a26.352941 26.352941 0 0 1 3.312941 52.495059l-3.312941 0.210823h-210.823529a26.352941 26.352941 0 0 1-3.312941-52.495059l3.312941-0.210823h210.823529zM650.029176 686.441412a26.352941 26.352941 0 0 1 3.312942 52.495059l-3.312942 0.210823h-245.940705a26.352941 26.352941 0 0 1-3.312942-52.525176l3.312942-0.180706h245.940705z" fill="#568af2" /><path d="M641.054118 428.423529l52.705882 421.647059-52.314353 6.53553-52.705882-421.647059zM413.063529 428.423529l52.314353 6.53553-52.705882 421.647059-52.314353-6.53553z" fill="#568af2" /></svg>