<svg class="icon" style="width: 1em;height: 1em;vertical-align: middle;fill: currentColor;overflow: hidden;" viewBox="0 0 1024 1024" version="1.1" xmlns="http://www.w3.org/2000/svg" width="32" height="32"><path d="M582.264471 124.235294c11.444706 0 21.383529 7.318588 24.997647 17.92l0.843294 3.252706 140.559059 702.765176a26.352941 26.352941 0 0 1-50.838589 13.552942l-0.843294-3.222589-136.31247-681.562353h-97.370353l-136.282353 681.562353a26.352941 26.352941 0 0 1-27.708236 21.112471l-3.312941-0.451765a26.352941 26.352941 0 0 1-21.082353-27.708235l0.421647-3.312941 140.559059-702.735059a26.352941 26.352941 0 0 1 22.467765-20.961882l3.373176-0.210824h140.528942z" fill="#568af2" /><path d="M670.117647 229.647059a26.352941 26.352941 0 0 1 3.312941 52.495059l-3.312941 0.210823h-316.235294a26.352941 26.352941 0 0 1-3.312941-52.495059l3.312941-0.210823h316.235294zM722.823529 510.735059a26.352941 26.352941 0 0 1 3.312942 52.525176l-3.312942 0.180706H301.176471a26.352941 26.352941 0 0 1-3.312942-52.495059l3.312942-0.210823h421.647058z" fill="#568af2" /><path d="M331.294118 541.093647a26.352941 26.352941 0 0 1 33.219764-10.541176l2.921412 1.505882 351.382588 210.823529a26.352941 26.352941 0 0 1-24.18447 46.742589l-2.95153-1.536-351.35247-210.82353a26.352941 26.352941 0 0 1-9.035294-36.141176z" fill="#568af2" /><path d="M656.052706 532.389647a26.352941 26.352941 0 0 1 30.810353 42.616471l-2.680471 1.927529-333.793882 210.823529a26.352941 26.352941 0 0 1-30.840471-42.61647l2.710589-1.92753 333.793882-210.823529zM598.768941 254.945882a26.352941 26.352941 0 0 1 39.634824 34.544942l-2.349177 2.710588-263.529412 263.529412a26.352941 26.352941 0 0 1-39.634823-34.575059l2.349176-2.710589 263.529412-263.529411z" fill="#568af2" /><path d="M387.945412 254.945882a26.352941 26.352941 0 0 1 34.575059-2.379294l2.710588 2.379294 263.529412 263.529412a26.352941 26.352941 0 0 1-34.575059 39.604706l-2.710588-2.349176-263.529412-263.529412a26.352941 26.352941 0 0 1 0-37.25553z" fill="#568af2" /></svg>