<svg class="icon" style="width: 1em;height: 1em;vertical-align: middle;fill: currentColor;overflow: hidden;" viewBox="0 0 1024 1024" version="1.1" xmlns="http://www.w3.org/2000/svg" width="32" height="32"><path d="M0 0h1024v1024H0z" fill="#568af2" fill-opacity="0" /><path d="M853.323294 658.823529H150.588235a26.352941 26.352941 0 0 0-26.352941 26.352942v140.559058c0 14.546824 11.806118 26.352941 26.352941 26.352942h702.735059a26.352941 26.352941 0 0 0 26.352941-26.352942V685.176471a26.352941 26.352941 0 0 0-26.352941-26.352942z m-26.352941 52.705883v87.823059H176.941176v-87.823059h650.029177z" fill="#568af2" /><path d="M800.617412 535.853176H203.294118a26.352941 26.352941 0 0 0-26.352942 26.352942v122.970353c0 14.546824 11.806118 26.352941 26.352942 26.352941h597.323294a26.352941 26.352941 0 0 0 26.352941-26.352941v-122.970353a26.352941 26.352941 0 0 0-26.352941-26.352942z m-26.352941 52.675765v70.294588H229.647059v-70.294588h544.617412z" fill="#568af2" /><path d="M747.911529 430.441412H256a26.352941 26.352941 0 0 0-26.352941 26.352941v105.411765c0 14.546824 11.806118 26.352941 26.352941 26.352941h491.911529a26.352941 26.352941 0 0 0 26.352942-26.352941v-105.411765a26.352941 26.352941 0 0 0-26.352942-26.352941z m-26.352941 52.675764v52.705883H282.352941v-52.705883h439.205647z" fill="#568af2" /><path d="M695.205647 325.029647H308.705882a26.352941 26.352941 0 0 0-26.352941 26.352941v105.411765c0 14.546824 11.806118 26.352941 26.352941 26.352941h386.499765a26.352941 26.352941 0 0 0 26.352941-26.352941v-105.411765a26.352941 26.352941 0 0 0-26.352941-26.352941z m-26.352941 52.675765v52.705882H335.058824v-52.705882h333.793882z" fill="#568af2" /><path d="M572.235294 184.470588h-140.559059a26.352941 26.352941 0 0 0-26.352941 26.352941v140.559059c0 14.546824 11.806118 26.352941 26.352941 26.352941H572.235294a26.352941 26.352941 0 0 0 26.352941-26.352941V210.823529A26.352941 26.352941 0 0 0 572.235294 184.470588z m-26.352941 52.705883v87.823058h-87.853177V237.176471h87.853177z" fill="#568af2" /><path d="M405.985882 345.660235a26.352941 26.352941 0 0 1 51.952942 8.131765l-0.542118 3.312941-105.411765 474.352941a26.352941 26.352941 0 0 1-51.952941-8.192l0.512-3.252706 105.411765-474.352941zM566.512941 325.662118a26.352941 26.352941 0 0 1 30.539294 16.805647l0.90353 3.19247 105.411764 474.352941a26.352941 26.352941 0 0 1-50.537411 14.607059l-0.90353-3.19247-105.411764-474.352941a26.352941 26.352941 0 0 1 19.998117-31.412706z" fill="#568af2" /></svg>