<svg class="icon" style="width: 1em;height: 1em;vertical-align: middle;fill: currentColor;overflow: hidden;" viewBox="0 0 1024 1024" version="1.1" xmlns="http://www.w3.org/2000/svg" width="32" height="32"><path d="M494.802824 124.837647L175.043765 195.162353a26.352941 26.352941 0 0 0-20.690824 25.720471V783.058824c0 12.348235 8.613647 23.070118 20.690824 25.750588l319.759059 70.26447a26.352941 26.352941 0 0 0 32.015058-25.750588V150.588235a26.352941 26.352941 0 0 0-32.015058-25.750588z m-20.720942 58.518588v637.168941l-267.023058-58.669176V242.025412l267.023058-58.669177z" fill="#568af2" /><path d="M813.176471 194.499765c13.432471 0 24.515765 10.059294 26.142117 23.070117l0.210824 3.312942V783.058824a26.352941 26.352941 0 0 1-23.04 26.142117l-3.312941 0.210824H500.464941a26.352941 26.352941 0 0 1-3.312941-52.495059l3.312941-0.210824h286.358588V247.205647h-286.358588a26.352941 26.352941 0 0 1-26.142117-23.04l-0.210824-3.312941c0-13.432471 10.059294-24.515765 23.04-26.142118l3.312941-0.210823H813.176471zM391.529412 440.470588c13.432471 0 24.515765 10.059294 26.142117 23.04l0.210824 3.312941v70.264471a26.352941 26.352941 0 0 1-52.495059 3.312941l-0.210823-3.312941V466.823529c0-14.546824 11.806118-26.352941 26.352941-26.352941z" fill="#568af2" /></svg>