<svg class="icon" style="width: 1em;height: 1em;vertical-align: middle;fill: currentColor;overflow: hidden;" viewBox="0 0 1024 1024" version="1.1" xmlns="http://www.w3.org/2000/svg" width="32" height="32"><path d="M843.294118 184.470588c13.432471 0 24.515765 10.059294 26.142117 23.04l0.210824 3.312941v632.470589a26.352941 26.352941 0 0 1-23.04 26.142117l-3.312941 0.210824H210.823529a26.352941 26.352941 0 0 1-3.312941-52.495059l3.312941-0.210824h606.117647V237.176471H210.823529a26.352941 26.352941 0 0 1-26.142117-23.04L184.470588 210.823529c0-13.432471 10.059294-24.515765 23.04-26.142117L210.823529 184.470588h632.470589z" fill="#568af2" /><path d="M184.470588 210.823529v632.470589a26.352941 26.352941 0 0 0 34.69553 24.997647l316.235294-105.411765a26.352941 26.352941 0 0 0 18.010353-24.997647v-421.647059a26.352941 26.352941 0 0 0-18.010353-24.997647l-316.235294-105.411765A26.352941 26.352941 0 0 0 184.470588 210.823529z m52.705883 36.562824l263.529411 87.853176v383.608471l-263.529411 87.853176V247.386353z" fill="#568af2" /><path d="M421.647059 465.558588c13.432471 0 24.515765 10.059294 26.142117 23.070118l0.210824 3.312941v70.264471a26.352941 26.352941 0 0 1-52.495059 3.312941l-0.210823-3.312941v-70.294589c0-14.546824 11.806118-26.352941 26.352941-26.352941z" fill="#568af2" /></svg>