<svg class="icon" style="width: 1em;height: 1em;vertical-align: middle;fill: currentColor;overflow: hidden;" viewBox="0 0 1024 1024" version="1.1" xmlns="http://www.w3.org/2000/svg" width="32" height="32"><path d="M788.690824 465.558588c13.432471 0 24.515765 10.059294 26.142117 23.070118l0.210824 3.312941V843.294118a26.352941 26.352941 0 0 1-23.04 26.142117l-3.312941 0.210824H226.484706a26.352941 26.352941 0 0 1-26.142118-23.04L200.131765 843.294118V491.911529a26.352941 26.352941 0 0 1 52.495059-3.312941l0.210823 3.312941v325.029647h509.470118V491.911529c0-13.432471 10.089412-24.515765 23.070117-26.142117l3.312942-0.210824z" fill="#568af2" /><path d="M774.535529 184.470588H240.64a26.352941 26.352941 0 0 0-24.576 16.865883L163.297882 337.92c-33.520941 86.829176 31.021176 180.314353 124.144942 180.314353l6.384941-0.150588a132.005647 132.005647 0 0 0 94.298353-46.381177l4.999529-6.26447 0.572235 0.783058a131.553882 131.553882 0 0 0 104.899765 52.013177h17.889882l6.384942-0.150588a131.493647 131.493647 0 0 0 94.087529-46.381177l4.999529-6.26447 0.542118 0.752941a132.096 132.096 0 0 0 105.170824 52.043294c93.184 0 157.756235-93.545412 124.205176-180.404706l-52.766118-136.523294a26.352941 26.352941 0 0 0-24.576-16.865882zM258.710588 237.176471h497.724236l46.260705 119.687529c20.178824 52.254118-18.793412 108.724706-75.023058 108.724706a79.36 79.36 0 0 1-79.420236-79.088941c0-33.822118-48.880941-35.087059-52.495059-3.734589l-0.210823 3.734589a79.058824 79.058824 0 0 1-79.058824 79.058823h-17.889882a79.058824 79.058824 0 0 1-79.058823-79.058823c0-33.822118-48.880941-35.087059-52.495059-3.734589l-0.210824 3.734589a79.329882 79.329882 0 0 1-79.390117 79.058823l-5.059765-0.150588c-53.428706-3.252706-89.449412-57.825882-69.903059-108.453647L258.710588 237.176471z" fill="#568af2" /></svg>