<svg class="icon" style="width: 1em;height: 1em;vertical-align: middle;fill: currentColor;overflow: hidden;" viewBox="0 0 1024 1024" version="1.1" xmlns="http://www.w3.org/2000/svg" width="32" height="32"><path d="M487.604706 158.599529L136.222118 387.011765a26.352941 26.352941 0 0 0-11.986824 22.076235V813.176471c0 14.546824 11.806118 26.352941 26.352941 26.352941h702.735059a26.352941 26.352941 0 0 0 26.352941-26.352941V409.088a26.352941 26.352941 0 0 0-11.986823-22.076235L516.336941 158.599529a26.352941 26.352941 0 0 0-28.732235 0z m14.336 53.519059l325.029647 211.245177v363.459764H176.941176V423.363765l324.99953-211.245177z" fill="#568af2" /><path d="M417.731765 421.888a26.352941 26.352941 0 0 1 40.086588 18.974118l0.210823 3.373176V813.176471a26.352941 26.352941 0 0 1-52.495058 3.312941l-0.210824-3.312941V491.760941l-87.853176 54.904471V813.176471a26.352941 26.352941 0 0 1-23.04 26.142117l-3.312942 0.210824a26.352941 26.352941 0 0 1-26.142117-23.04L264.794353 813.176471v-281.088c0-7.951059 3.584-15.420235 9.637647-20.389647l2.710588-1.957648 140.589177-87.853176zM545.882353 444.235294a26.352941 26.352941 0 0 1 37.345882-23.973647l2.981647 1.626353 140.528942 87.853176c6.746353 4.216471 11.173647 11.203765 12.167529 18.974118l0.240941 3.373177V813.176471a26.352941 26.352941 0 0 1-52.525176 3.312941l-0.180706-3.312941-0.030118-266.511059-87.853176-54.934588L598.588235 813.176471a26.352941 26.352941 0 0 1-23.04 26.142117l-3.312941 0.210824a26.352941 26.352941 0 0 1-26.142118-23.04l-0.210823-3.312941V444.235294z" fill="#568af2" /><path d="M800.617412 786.823529a26.352941 26.352941 0 0 1 3.312941 52.495059l-3.312941 0.210824H220.852706a26.352941 26.352941 0 0 1-3.312941-52.495059l3.312941-0.210824h579.764706z" fill="#568af2" /></svg>