<svg class="icon" style="width: 1em;height: 1em;vertical-align: middle;fill: currentColor;overflow: hidden;" viewBox="0 0 1024 1024" version="1.1" xmlns="http://www.w3.org/2000/svg" width="32" height="32"><path d="M853.323294 826.970353a26.352941 26.352941 0 0 1 3.312941 52.525176l-3.312941 0.180706H150.588235a26.352941 26.352941 0 0 1-3.312941-52.495059l3.312941-0.210823h702.735059zM695.205647 299.911529a26.352941 26.352941 0 0 1 3.312941 52.525177l-3.312941 0.180706H308.705882a26.352941 26.352941 0 0 1-3.312941-52.495059l3.312941-0.210824h386.499765z" fill="#568af2" /><path d="M642.499765 299.911529H361.411765a26.352941 26.352941 0 0 0-26.112 22.889412l-70.294589 527.058824c-2.108235 15.781647 10.179765 29.816471 26.142118 29.81647h421.647059c15.932235 0 28.220235-14.034824 26.112-29.81647l-70.264471-527.058824a26.352941 26.352941 0 0 0-26.142117-22.889412z m-23.070118 52.705883l63.247059 474.352941H321.204706l63.277176-474.352941h234.947765z" fill="#568af2" /><path d="M660.088471 475.617882a26.352941 26.352941 0 0 1 3.312941 52.495059l-3.312941 0.210824h-316.235295a26.352941 26.352941 0 0 1-3.312941-52.525177l3.312941-0.180706h316.235295zM695.205647 651.294118a26.352941 26.352941 0 0 1 3.312941 52.495058l-3.312941 0.210824H308.705882a26.352941 26.352941 0 0 1-3.312941-52.495059l3.312941-0.210823h386.499765z" fill="#568af2" /><path d="M668.611765 322.800941l70.294588 527.058824-52.254118 6.957176-70.26447-527.058823zM335.299765 322.800941l52.224 6.957177-70.264471 527.058823-52.254118-6.957176zM623.887059 131.945412A26.352941 26.352941 0 0 1 663.491765 166.550588l-2.349177 2.710588-14.546823 14.546824a96.647529 96.647529 0 0 1-61.952 28.099765l-6.384941 0.210823h-12.047059c-10.209882 0-20.028235 3.523765-27.828706 9.938824l-3.222588 2.921412-14.576942 14.546823a26.352941 26.352941 0 0 1-39.604705-34.575059l2.349176-2.710588 14.546824-14.546824a96.647529 96.647529 0 0 1 61.952-28.069647l6.384941-0.210823h12.047059c10.209882 0 20.028235-3.553882 27.828705-9.938824l3.222589-2.921411 14.576941-14.576942z" fill="#568af2" /></svg>