<svg class="icon" style="width: 1em;height: 1em;vertical-align: middle;fill: currentColor;overflow: hidden;" viewBox="0 0 1024 1024" version="1.1" xmlns="http://www.w3.org/2000/svg" width="32" height="32"><path d="M505.283765 451.975529a26.352941 26.352941 0 0 1 45.357176 26.593883l-1.807059 3.102117-263.529411 386.499765a26.352941 26.352941 0 0 1-45.357177-26.593882l1.807059-3.102118 263.529412-386.499765z" fill="#568af2" /><path d="M512.210824 445.048471a26.352941 26.352941 0 0 1 34.394352 4.096l2.228706 2.831058 263.529412 386.499765a26.352941 26.352941 0 0 1-41.321412 32.527059l-2.228706-2.831059-263.529411-386.499765a26.352941 26.352941 0 0 1 6.927059-36.623058zM266.179765 340.299294l47.405176 23.04a235.821176 235.821176 0 0 0-22.768941 124.687059l1.144471 10.450823-52.224 6.957177a292.321882 292.321882 0 0 1-2.56-38.610824c0-40.417882 8.282353-79.691294 24.124235-115.952941l2.409412-5.330823 2.469647-5.240471zM323.945412 589.402353a237.598118 237.598118 0 0 0 147.215059 107.971765l8.432941 1.867294-10.480941 51.651764a290.123294 290.123294 0 0 1-185.103059-126.042352l-5.12-8.192 45.056-27.256471z" fill="#568af2" /><path d="M731.226353 587.595294l45.327059 26.895059a290.334118 290.334118 0 0 1-182.302118 134.384941l-9.246118 2.048-10.480941-51.651765a237.447529 237.447529 0 0 0 152.124236-104.267294l4.577882-7.378823zM787.937882 340.299294a288.828235 288.828235 0 0 1 27.858824 152.365177l-1.41553 12.769882-52.224-6.957177c1.385412-10.420706 2.078118-20.992 2.078118-31.653647 0-32.737882-6.625882-64.481882-19.275294-93.81647l-4.427294-9.667765 47.405176-23.04zM585.005176 182.753882a288.888471 288.888471 0 0 1 127.006118 60.837647l8.312471 7.168L685.176471 290.032941a236.513882 236.513882 0 0 0-101.195295-53.519059l-9.456941-2.108235 10.480941-51.651765zM469.112471 182.753882l10.480941 51.651765A236.363294 236.363294 0 0 0 368.941176 290.032941l-4.909176 4.517647-4.818824 4.698353-37.285647-37.255529a289.189647 289.189647 0 0 1 136.432942-76.860236l10.752-2.409411zM281.088 475.617882a79.058824 79.058824 0 1 0 0 158.117647 79.058824 79.058824 0 0 0 0-158.117647z m0 52.705883a26.352941 26.352941 0 1 1 0 52.705882 26.352941 26.352941 0 0 1 0-52.705882z" fill="#568af2" /><path d="M527.058824 651.294118a79.058824 79.058824 0 1 0 0 158.117647 79.058824 79.058824 0 0 0 0-158.117647z m0 52.705882a26.352941 26.352941 0 1 1 0 52.705882 26.352941 26.352941 0 0 1 0-52.705882zM527.058824 124.235294a79.058824 79.058824 0 1 0 0 158.117647 79.058824 79.058824 0 0 0 0-158.117647z m0 52.705882a26.352941 26.352941 0 1 1 0 52.705883 26.352941 26.352941 0 0 1 0-52.705883zM316.235294 229.647059a79.058824 79.058824 0 1 0 0 158.117647 79.058824 79.058824 0 0 0 0-158.117647z m0 52.705882a26.352941 26.352941 0 1 1 0 52.705883 26.352941 26.352941 0 0 1 0-52.705883zM737.882353 229.647059a79.058824 79.058824 0 1 0 0 158.117647 79.058824 79.058824 0 0 0 0-158.117647z m0 52.705882a26.352941 26.352941 0 1 1 0 52.705883 26.352941 26.352941 0 0 1 0-52.705883zM773.029647 475.617882a79.058824 79.058824 0 1 0 0 158.117647 79.058824 79.058824 0 0 0 0-158.117647z m0 52.705883a26.352941 26.352941 0 1 1 0 52.705882 26.352941 26.352941 0 0 1 0-52.705882z" fill="#568af2" /><path d="M527.058824 466.823529m-70.264471 0a70.264471 70.264471 0 1 0 140.528941 0 70.264471 70.264471 0 1 0-140.528941 0Z" fill="#568af2" /><path d="M351.382588 826.970353a26.352941 26.352941 0 0 1 3.312941 52.525176l-3.312941 0.180706H210.823529a26.352941 26.352941 0 0 1-3.312941-52.495059l3.312941-0.210823h140.559059zM843.294118 826.970353a26.352941 26.352941 0 0 1 3.312941 52.525176l-3.312941 0.180706h-140.559059a26.352941 26.352941 0 0 1-3.312941-52.495059l3.312941-0.210823H843.294118z" fill="#568af2" /></svg>