<svg class="icon" style="width: 1em;height: 1em;vertical-align: middle;fill: currentColor;overflow: hidden;" viewBox="0 0 1024 1024" version="1.1" xmlns="http://www.w3.org/2000/svg" width="32" height="32"><path d="M486.851765 189.229176L135.469176 435.2a26.352941 26.352941 0 0 0-11.233882 21.594353V843.294118c0 14.546824 11.806118 26.352941 26.352941 26.352941h702.735059a26.352941 26.352941 0 0 0 26.352941-26.352941V456.794353a26.352941 26.352941 0 0 0-11.233882-21.594353L517.059765 189.229176a26.352941 26.352941 0 0 0-30.208 0z m15.088941 53.729883l325.029647 227.538823v346.443294H176.941176V470.467765l324.99953-227.508706z" fill="#568af2" /><path d="M501.970824 465.558588a307.501176 307.501176 0 0 1 217.389176 90.051765 26.352941 26.352941 0 1 1-37.255529 37.285647 254.795294 254.795294 0 0 0-360.267295 0 26.352941 26.352941 0 0 1-37.285647-37.285647 307.501176 307.501176 0 0 1 217.419295-90.051765zM501.940706 606.117647a166.851765 166.851765 0 0 1 118.031059 48.880941 26.352941 26.352941 0 0 1-37.25553 37.285647 114.206118 114.206118 0 0 0-161.520941 0 26.352941 26.352941 0 0 1-37.255529-37.285647 166.881882 166.881882 0 0 1 118.000941-48.880941z" fill="#568af2" /></svg>