<svg class="icon" style="width: 1em;height: 1em;vertical-align: middle;fill: currentColor;overflow: hidden;" viewBox="0 0 1024 1024" version="1.1" xmlns="http://www.w3.org/2000/svg" width="32" height="32"><path d="M589.793882 124.235294c22.829176 0 41.592471 17.408 43.730824 39.695059l0.210823 4.216471V835.764706a26.352941 26.352941 0 0 1-52.525176 3.312941l-0.180706-3.312941-0.030118-658.82353H247.205647V835.764706a26.352941 26.352941 0 0 1-23.04 26.142118l-3.312941 0.210823a26.352941 26.352941 0 0 1-26.142118-23.04l-0.210823-3.312941V168.146824c0-22.829176 17.438118-41.562353 39.695059-43.700706l4.21647-0.210824h351.382588z" fill="#568af2" /><path d="M584.764235 312.711529a26.352941 26.352941 0 0 1 33.219765-10.541176l2.951529 1.505882 175.676236 105.411765c6.927059 4.156235 11.535059 11.233882 12.589176 19.154824l0.210824 3.433411V835.764706a26.352941 26.352941 0 0 1-52.495059 3.312941l-0.210824-3.312941V446.614588l-162.876235-97.731764a26.352941 26.352941 0 0 1-10.571294-33.219765l1.505882-2.95153z" fill="#568af2" /><path d="M853.323294 809.411765a26.352941 26.352941 0 0 1 3.312941 52.495059l-3.312941 0.210823H150.588235a26.352941 26.352941 0 0 1-3.312941-52.495059l3.312941-0.210823h702.735059z" fill="#568af2" /></svg>