<svg class="icon" style="width: 1em;height: 1em;vertical-align: middle;fill: currentColor;overflow: hidden;" viewBox="0 0 1024 1024" version="1.1" xmlns="http://www.w3.org/2000/svg" width="32" height="32"><path d="M291.147294 124.235294H150.588235A26.352941 26.352941 0 0 0 124.235294 150.588235v702.735059c0 14.576941 11.806118 26.352941 26.352941 26.352941h702.735059a26.352941 26.352941 0 0 0 26.352941-26.352941V291.147294l-0.210823-3.403294a26.352941 26.352941 0 0 0-37.918118-20.178824l-242.959059 121.464471v-97.882353l-0.210823-3.403294a26.352941 26.352941 0 0 0-37.948236-20.178824l-242.959058 121.464471V150.588235a26.352941 26.352941 0 0 0-26.322824-26.352941z m-26.383059 52.705882v254.735059l0.240941 3.403294a26.352941 26.352941 0 0 0 37.918118 20.178824l242.959059-121.494588v97.91247l0.210823 3.403294a26.352941 26.352941 0 0 0 37.948236 20.178824l242.928941-121.494588v493.206588H176.941176V176.941176h87.823059z" fill="#568af2" /><path d="M431.676235 545.882353H291.147294a26.352941 26.352941 0 0 0-26.352941 26.352941v140.559059c0 14.546824 11.776 26.352941 26.352941 26.352941h140.528941a26.352941 26.352941 0 0 0 26.352941-26.352941V572.235294a26.352941 26.352941 0 0 0-26.352941-26.352941z m-26.352941 52.675765v87.853176h-87.853176v-87.853176h87.853176zM712.794353 545.882353H572.235294a26.352941 26.352941 0 0 0-26.352941 26.352941v140.559059c0 14.546824 11.806118 26.352941 26.352941 26.352941h140.559059a26.352941 26.352941 0 0 0 26.352941-26.352941V572.235294a26.352941 26.352941 0 0 0-26.352941-26.352941z m-26.383059 52.675765v87.853176h-87.853176v-87.853176h87.853176z" fill="#568af2" /></svg>