<svg class="icon" style="width: 1em;height: 1em;vertical-align: middle;fill: currentColor;overflow: hidden;" viewBox="0 0 1024 1024" version="1.1" xmlns="http://www.w3.org/2000/svg" width="32" height="32"><path d="M853.323294 821.970824a26.352941 26.352941 0 0 1 3.312941 52.495058l-3.312941 0.210824H150.588235a26.352941 26.352941 0 0 1-3.312941-52.525177l3.312941-0.180705h702.735059z" fill="#568af2" /><path d="M326.264471 540.852706H256A61.500235 61.500235 0 0 0 194.499765 602.352941v210.82353c0 33.972706 27.527529 61.500235 61.500235 61.500235h70.264471A61.500235 61.500235 0 0 0 387.764706 813.176471v-210.82353a61.500235 61.500235 0 0 0-61.500235-61.500235zM256 593.558588h70.264471c4.848941 0 8.794353 3.915294 8.794353 8.794353v210.82353c0 4.848941-3.915294 8.794353-8.794353 8.794353H256A8.794353 8.794353 0 0 1 247.205647 813.176471v-210.82353c0-4.848941 3.915294-8.794353 8.794353-8.794353z" fill="#568af2" /><path d="M308.705882 681.411765a26.352941 26.352941 0 0 1 3.312942 52.495059l-3.312942 0.210823h-17.558588a26.352941 26.352941 0 0 1-3.312941-52.495059l3.312941-0.210823h17.558588z" fill="#568af2" /><path d="M747.911529 154.352941H396.559059a61.500235 61.500235 0 0 0-61.500235 61.500235V813.176471c0 33.972706 27.527529 61.500235 61.500235 61.500235h351.35247A61.500235 61.500235 0 0 0 809.411765 813.176471V215.853176a61.500235 61.500235 0 0 0-61.500236-61.500235z m-351.35247 52.705883h351.35247c4.848941 0 8.794353 3.915294 8.794353 8.794352V813.176471c0 4.848941-3.915294 8.794353-8.794353 8.794353H396.559059a8.794353 8.794353 0 0 1-8.794353-8.794353V215.853176c0-4.848941 3.915294-8.794353 8.794353-8.794352z" fill="#568af2" /><path d="M466.823529 286.117647h70.264471v70.264471H466.823529zM607.382588 286.117647H677.647059v70.264471h-70.264471zM466.823529 409.088h70.264471v70.264471H466.823529zM607.382588 409.088H677.647059v70.264471h-70.264471zM607.382588 532.088471H677.647059V602.352941h-70.264471zM607.382588 655.058824H677.647059v70.26447h-70.264471z" fill="#568af2" /></svg>