<svg class="icon" style="width: 1em;height: 1em;vertical-align: middle;fill: currentColor;overflow: hidden;" viewBox="0 0 1024 1024" version="1.1" xmlns="http://www.w3.org/2000/svg" width="32" height="32"><path d="M0 0h1024v1024H0z" fill="#568af2" fill-opacity="0" /><path d="M853.323294 133.029647a26.352941 26.352941 0 0 1 3.312941 52.495059l-3.312941 0.210823H150.588235a26.352941 26.352941 0 0 1-3.312941-52.525176L150.588235 133.029647h702.735059z" fill="#568af2" /><path d="M747.911529 133.029647H256a61.500235 61.500235 0 0 0-61.500235 61.470118v632.470588c0 33.972706 27.527529 61.500235 61.500235 61.500235h491.911529a61.500235 61.500235 0 0 0 61.500236-61.500235v-632.470588a61.500235 61.500235 0 0 0-61.500236-61.470118zM256 185.735529h491.911529c4.848941 0 8.794353 3.915294 8.794353 8.764236v632.470588c0 4.848941-3.915294 8.794353-8.794353 8.794353H256a8.794353 8.794353 0 0 1-8.794353-8.794353v-632.470588c0-4.818824 3.915294-8.764235 8.794353-8.764236z" fill="#568af2" /><path d="M572.235294 624.941176h-140.559059a26.352941 26.352941 0 0 0-26.352941 26.352942v210.823529c0 14.546824 11.806118 26.352941 26.352941 26.352941H572.235294a26.352941 26.352941 0 0 0 26.352941-26.352941v-210.823529A26.352941 26.352941 0 0 0 572.235294 624.941176z m-26.352941 52.705883v158.117647h-87.853177V677.647059h87.853177zM378.970353 273.558588a26.352941 26.352941 0 0 1 3.312941 52.525177l-3.312941 0.180706h-35.117177a26.352941 26.352941 0 0 1-3.312941-52.495059l3.312941-0.210824h35.117177zM378.970353 378.970353a26.352941 26.352941 0 0 1 3.312941 52.525176l-3.312941 0.180706h-35.117177a26.352941 26.352941 0 0 1-3.312941-52.495059l3.312941-0.210823h35.117177zM519.529412 273.558588a26.352941 26.352941 0 0 1 3.312941 52.525177l-3.312941 0.180706h-35.147294a26.352941 26.352941 0 0 1-3.312942-52.495059l3.312942-0.210824h35.147294zM519.529412 378.970353a26.352941 26.352941 0 0 1 3.312941 52.525176l-3.312941 0.180706h-35.147294a26.352941 26.352941 0 0 1-3.312942-52.495059l3.312942-0.210823h35.147294zM660.088471 273.558588a26.352941 26.352941 0 0 1 3.312941 52.525177l-3.312941 0.180706H624.941176a26.352941 26.352941 0 0 1-3.312941-52.495059l3.312941-0.210824h35.147295zM660.088471 378.970353a26.352941 26.352941 0 0 1 3.312941 52.525176l-3.312941 0.180706H624.941176a26.352941 26.352941 0 0 1-3.312941-52.495059l3.312941-0.210823h35.147295z" fill="#568af2" /><path d="M853.323294 835.764706a26.352941 26.352941 0 0 1 3.312941 52.495059l-3.312941 0.210823H150.588235a26.352941 26.352941 0 0 1-3.312941-52.495059L150.588235 835.764706h702.735059zM501.970824 519.529412c72.342588 0 134.806588 45.778824 147.154823 109.266823 4.879059 25.088-13.944471 46.592-37.948235 48.670118l-3.794824 0.180706H572.235294a26.352941 26.352941 0 0 1-3.312941-52.495059l3.312941-0.210824h20.781177l-1.867295-4.005647c-13.854118-26.985412-45.537882-46.652235-83.184941-48.549647l-6.023529-0.150588c-40.237176 0-74.601412 20.269176-89.148235 48.700235l-1.92753 4.005647h20.811294c13.432471 0 24.545882 10.059294 26.172236 23.04l0.180705 3.312942a26.352941 26.352941 0 0 1-23.04 26.142117l-3.312941 0.210824h-35.117176c-25.780706 0-46.893176-22.437647-41.773177-48.850824 12.348235-63.488 74.812235-109.266824 147.184942-109.266823z" fill="#568af2" /></svg>