<svg class="icon" style="width: 1em;height: 1em;vertical-align: middle;fill: currentColor;overflow: hidden;" viewBox="0 0 1024 1024" version="1.1" xmlns="http://www.w3.org/2000/svg" width="32" height="32"><path d="M0 0h1024v1024H0z" fill="#568af2" fill-opacity="0" /><path d="M677.647059 651.294118H326.264471a26.352941 26.352941 0 0 0-26.352942 26.352941v158.117647c0 14.546824 11.806118 26.352941 26.352942 26.352941H677.647059a26.352941 26.352941 0 0 0 26.352941-26.352941V677.647059a26.352941 26.352941 0 0 0-26.352941-26.352941z m-26.352941 52.705882v105.411765h-298.676706v-105.411765h298.676706zM677.647059 124.235294H326.264471A26.352941 26.352941 0 0 0 299.911529 150.588235v105.411765c0 14.546824 11.806118 26.352941 26.352942 26.352941H677.647059a26.352941 26.352941 0 0 0 26.352941-26.352941V150.588235a26.352941 26.352941 0 0 0-26.352941-26.352941z m-26.352941 52.705882v52.705883h-298.676706v-52.705883h298.676706z" fill="#568af2" /><path d="M326.264471 229.647059c13.432471 0 24.545882 10.059294 26.172235 23.04l0.180706 3.312941v421.647059a26.352941 26.352941 0 0 1-52.495059 3.312941l-0.210824-3.312941v-421.647059c0-14.546824 11.806118-26.352941 26.352942-26.352941zM431.676235 229.647059c13.432471 0 24.545882 10.059294 26.172236 23.04l0.180705 3.312941v421.647059a26.352941 26.352941 0 0 1-52.495058 3.312941l-0.210824-3.312941v-421.647059c0-14.546824 11.806118-26.352941 26.352941-26.352941z" fill="#568af2" /><path d="M466.823529 335.058824c13.432471 0 24.515765 10.059294 26.142118 23.04l0.210824 3.312941v70.26447a26.352941 26.352941 0 0 1-52.495059 3.312941l-0.210824-3.312941V361.411765c0-14.546824 11.806118-26.352941 26.352941-26.352941zM642.499765 510.735059a26.352941 26.352941 0 0 1 3.312941 52.525176l-3.312941 0.180706h-316.235294a26.352941 26.352941 0 0 1-3.312942-52.495059l3.312942-0.210823h316.235294z" fill="#568af2" /><path d="M677.647059 229.647059c13.432471 0 24.515765 10.059294 26.142117 23.04l0.210824 3.312941v421.647059a26.352941 26.352941 0 0 1-52.495059 3.312941l-0.210823-3.312941v-421.647059c0-14.546824 11.806118-26.352941 26.352941-26.352941zM853.323294 826.970353a26.352941 26.352941 0 0 1 3.312941 52.525176l-3.312941 0.180706H150.588235a26.352941 26.352941 0 0 1-3.312941-52.495059l3.312941-0.210823h702.735059z" fill="#568af2" /></svg>