<svg class="icon" style="width: 1em;height: 1em;vertical-align: middle;fill: currentColor;overflow: hidden;" viewBox="0 0 1024 1024" version="1.1" xmlns="http://www.w3.org/2000/svg" width="32" height="32"><path d="M0 0h1024v1024H0z" fill="#568af2" fill-opacity="0" /><path d="M509.560471 130.891294l-316.235295 281.088a26.352941 26.352941 0 0 0-8.854588 19.696941v421.647059c0 14.576941 11.806118 26.352941 26.352941 26.352941h632.470589a26.352941 26.352941 0 0 0 26.352941-26.352941v-421.647059a26.352941 26.352941 0 0 0-8.854588-19.696941l-316.235295-281.088a26.352941 26.352941 0 0 0-34.996705 0zM527.058824 185.825882l289.882352 257.716706v383.427765H237.176471V443.512471L527.058824 185.825882z" fill="#568af2" /><path d="M843.294118 475.617882a26.352941 26.352941 0 0 1 3.312941 52.495059l-3.312941 0.210824H210.823529a26.352941 26.352941 0 0 1-3.312941-52.525177l3.312941-0.180706h632.470589z" fill="#568af2" /><path d="M333.793882 299.911529c13.432471 0 24.545882 10.059294 26.172236 23.070118l0.180706 3.312941v527.058824a26.352941 26.352941 0 0 1-52.495059 3.312941l-0.210824-3.312941v-527.058824c0-14.576941 11.806118-26.383059 26.352941-26.383059zM720.323765 299.911529c13.432471 0 24.515765 10.059294 26.142117 23.070118l0.210824 3.312941v527.058824a26.352941 26.352941 0 0 1-52.525177 3.312941l-0.180705-3.312941v-527.058824c0-14.576941 11.776-26.383059 26.352941-26.383059zM597.323294 616.146824h-140.528941a26.352941 26.352941 0 0 0-26.352941 26.352941v210.823529c0 14.576941 11.776 26.352941 26.352941 26.352941h140.528941a26.352941 26.352941 0 0 0 26.352941-26.352941v-210.823529a26.352941 26.352941 0 0 0-26.352941-26.352941z m-26.352941 52.705882v158.117647h-87.853177v-158.117647h87.853177z" fill="#568af2" /></svg>