<svg class="icon" style="width: 1em;height: 1em;vertical-align: middle;fill: currentColor;overflow: hidden;" viewBox="0 0 1024 1024" version="1.1" xmlns="http://www.w3.org/2000/svg" width="32" height="32"><path d="M488.387765 158.117647l-351.352471 210.823529c-22.919529 13.733647-13.161412 48.941176 13.552941 48.941177h702.735059c26.744471 0 36.472471-35.207529 13.552941-48.941177l-351.35247-210.823529a26.352941 26.352941 0 0 0-27.105883 0z m13.552941 53.308235l256.271059 153.750589H245.699765l256.240941-153.750589zM853.323294 786.823529a26.352941 26.352941 0 0 1 3.312941 52.495059l-3.312941 0.210824H150.588235a26.352941 26.352941 0 0 1-3.312941-52.495059l3.312941-0.210824h702.735059z" fill="#568af2" /><path d="M238.441412 365.176471c13.432471 0 24.515765 10.059294 26.142117 23.04l0.210824 3.312941v421.647059a26.352941 26.352941 0 0 1-52.525177 3.312941L212.088471 813.176471V391.529412c0-14.546824 11.776-26.352941 26.352941-26.352941zM414.117647 365.176471c13.432471 0 24.515765 10.059294 26.142118 23.04l0.210823 3.312941v421.647059a26.352941 26.352941 0 0 1-52.495059 3.312941l-0.210823-3.312941V391.529412c0-14.546824 11.806118-26.352941 26.352941-26.352941zM589.793882 365.176471c13.432471 0 24.545882 10.059294 26.172236 23.04l0.180706 3.312941v421.647059a26.352941 26.352941 0 0 1-52.495059 3.312941l-0.210824-3.312941V391.529412c0-14.546824 11.806118-26.352941 26.352941-26.352941zM765.500235 365.176471c13.432471 0 24.515765 10.059294 26.142118 23.04l0.210823 3.312941v421.647059a26.352941 26.352941 0 0 1-52.525176 3.312941l-0.180706-3.312941V391.529412c0-14.546824 11.776-26.352941 26.352941-26.352941z" fill="#568af2" /></svg>