<svg class="icon" style="width: 1em;height: 1em;vertical-align: middle;fill: currentColor;overflow: hidden;" viewBox="0 0 1024 1024" version="1.1" xmlns="http://www.w3.org/2000/svg" width="32" height="32"><path d="M485.496471 130.017882L134.113882 411.105882a26.352941 26.352941 0 0 0-9.878588 20.570353v421.647059c0 14.576941 11.806118 26.352941 26.352941 26.352941h210.82353l3.312941-0.180706a26.352941 26.352941 0 0 0 23.04-26.172235v-289.882353h228.382118v289.882353c0 14.576941 11.806118 26.352941 26.352941 26.352941h210.823529a26.352941 26.352941 0 0 0 26.352941-26.352941v-421.647059a26.352941 26.352941 0 0 0-9.878588-20.570353L518.415059 130.017882a26.352941 26.352941 0 0 0-32.918588 0z m16.444235 54.302118l325.029647 260.035765v382.614588h-158.117647v-289.882353a26.352941 26.352941 0 0 0-26.352941-26.352941H361.411765l-3.312941 0.210823a26.352941 26.352941 0 0 0-23.04 26.142118v289.882353h-158.117648V444.325647L501.940706 184.32z" fill="#568af2" /><path d="M501.970824 651.294118c13.432471 0 24.515765 10.059294 26.142117 23.04l0.210824 3.312941v175.676235a26.352941 26.352941 0 0 1-52.525177 3.312941l-0.180706-3.312941V677.647059c0-14.546824 11.776-26.352941 26.352942-26.352941z" fill="#568af2" /></svg>