<svg class="icon" style="width: 1em;height: 1em;vertical-align: middle;fill: currentColor;overflow: hidden;" viewBox="0 0 1024 1024" version="1.1" xmlns="http://www.w3.org/2000/svg" width="32" height="32"><path d="M0 0h1024v1024H0z" fill="#568af2" fill-opacity="0" /><path d="M430.441412 150.588235v702.735059c0 17.377882 16.504471 29.997176 33.28 25.449412l386.499764-105.411765a26.352941 26.352941 0 0 0 19.425883-25.449412V256a26.352941 26.352941 0 0 0-19.425883-25.419294l-386.499764-105.411765A26.352941 26.352941 0 0 0 430.441412 150.588235z m52.675764 34.484706l333.824 91.045647v451.674353l-333.824 91.045647V185.072941z" fill="#568af2" /><path d="M456.794353 229.647059H210.823529a26.352941 26.352941 0 0 0-26.352941 26.352941v491.911529c0 14.576941 11.806118 26.352941 26.352941 26.352942h245.970824a26.352941 26.352941 0 0 0 26.352941-26.352942V256a26.352941 26.352941 0 0 0-26.352941-26.352941z m-26.383059 52.705882v439.205647H237.176471V282.352941h193.234823zM597.323294 440.470588c13.432471 0 24.545882 10.059294 26.172235 23.04l0.180706 3.312941v70.264471a26.352941 26.352941 0 0 1-52.495059 3.312941l-0.210823-3.312941V466.823529c0-14.546824 11.806118-26.352941 26.352941-26.352941z" fill="#568af2" /></svg>