<svg class="icon" style="width: 1em;height: 1em;vertical-align: middle;fill: currentColor;overflow: hidden;" viewBox="0 0 1024 1024" version="1.1" xmlns="http://www.w3.org/2000/svg" width="32" height="32"><path d="M712.794353 264.794353l-3.312941 0.180706a26.352941 26.352941 0 0 0-23.04 26.172235l-0.030118 114.176H572.235294l-3.312941 0.210824a26.352941 26.352941 0 0 0-23.04 26.142117v114.206118h-114.206118l-3.312941 0.210823a26.352941 26.352941 0 0 0-23.04 26.142118v114.176H291.147294a26.352941 26.352941 0 0 0-26.352941 26.383059v140.528941c0 14.576941 11.776 26.352941 26.352941 26.352941h562.176a26.352941 26.352941 0 0 0 26.352941-26.352941V291.147294a26.352941 26.352941 0 0 0-26.352941-26.352941h-140.528941z m114.176 52.675765v509.500235H317.470118v-87.853177h114.206117l3.312941-0.180705a26.352941 26.352941 0 0 0 23.04-26.142118v-114.206118H572.235294l3.312941-0.210823a26.352941 26.352941 0 0 0 23.04-26.142118v-114.206118h114.206118l3.312941-0.180705a26.352941 26.352941 0 0 0 23.04-26.172236l-0.030118-114.206117h87.853177zM536.033882 131.945412a26.352941 26.352941 0 0 1 39.634824 34.575059l-2.379294 2.710588-158.117647 158.117647A26.352941 26.352941 0 0 1 375.567059 292.743529l2.349176-2.710588 158.117647-158.117647z" fill="#568af2" /><path d="M554.676706 124.235294c13.432471 0 24.515765 10.059294 26.142118 23.04l0.210823 3.312941v105.411765a26.352941 26.352941 0 0 1-52.525176 3.312941l-0.180706-3.312941-0.030118-79.058824h-79.028706a26.352941 26.352941 0 0 1-26.172235-23.04L422.912 150.588235c0-13.432471 10.029176-24.515765 23.04-26.142117l3.312941-0.210824h105.411765zM150.588235 422.912c13.432471 0 24.515765 10.029176 26.142118 23.04l0.210823 3.312941v79.028706H256c13.432471 0 24.515765 10.059294 26.142118 23.070118l0.210823 3.312941a26.352941 26.352941 0 0 1-23.04 26.142118l-3.312941 0.210823H150.588235a26.352941 26.352941 0 0 1-26.142117-23.070118l-0.210824-3.312941v-105.411764c0-14.546824 11.806118-26.322824 26.352941-26.322824z" fill="#568af2" /><path d="M290.063059 377.916235a26.352941 26.352941 0 0 1 39.634823 34.575059l-2.349176 2.710588-158.117647 158.117647a26.352941 26.352941 0 0 1-39.634824-34.575058l2.349177-2.710589 158.117647-158.117647z" fill="#568af2" /></svg>