<svg class="icon" style="width: 1em;height: 1em;vertical-align: middle;fill: currentColor;overflow: hidden;" viewBox="0 0 1024 1024" version="1.1" xmlns="http://www.w3.org/2000/svg" width="32" height="32"><path d="M883.440941 804.382118a26.352941 26.352941 0 0 1 3.312941 52.525176l-3.312941 0.180706H180.705882a26.352941 26.352941 0 0 1-3.312941-52.495059l3.312941-0.210823h702.735059zM532.088471 453.029647c77.552941 0 157.214118 3.312941 234.646588 8.854588l31.442823 2.379294 29.093647 2.43953 41.532236 4.035765-5.842824 52.404705-21.654588-2.198588-32.737882-2.951529-29.816471-2.409412-15.781647-1.144471c-76.257882-5.421176-154.714353-8.734118-230.881882-8.734117-76.197647 0-154.624 3.312941-230.912 8.734117l-30.960942 2.349177-28.641882 2.409412-40.387765 3.915294-5.812706-52.374588 27.888942-2.770824 27.858823-2.499765 30.298353-2.409411 15.992471-1.204706c77.462588-5.511529 157.123765-8.824471 234.676706-8.824471zM526.396235 294.942118h11.354353c70.083765 0.692706 144.504471 14.185412 218.864941 36.171294 26.654118 7.890824 51.440941 16.323765 73.728 24.786823l7.55953 2.921412 13.312 5.330824 7.740235 3.282823-21.293176 48.188235-8.192-3.433411-17.79953-6.987294a988.882824 988.882824 0 0 0-69.993412-23.552c-64.692706-19.124706-129.144471-31.352471-189.44-33.641412l-22.949647-0.39153h-2.349176c-64.572235 0.662588-134.384941 13.312-204.438588 34.032942-25.328941 7.529412-48.880941 15.540706-69.993412 23.552l-17.829647 6.987294-8.192 3.433411-21.293177-48.188235 7.740236-3.312941 13.312-5.300706a1041.317647 1041.317647 0 0 1 81.317647-27.708235c74.360471-21.985882 148.781176-35.478588 218.834823-36.171294zM860.16 576.632471l11.444706 51.440941-17.739294 3.644235-10.571294 2.017882a1751.642353 1751.642353 0 0 1-74.691765 12.288c-78.004706 11.143529-158.298353 17.829647-236.513882 17.829647-78.245647 0-158.509176-6.686118-236.513883-17.829647a1794.409412 1794.409412 0 0 1-60.988235-9.758117l-24.304941-4.517647-17.709177-3.674353 11.444706-51.440941 12.16753 2.529882 14.396235 2.770823 27.196235 4.848942c14.215529 2.409412 29.334588 4.788706 45.236706 7.047529 75.715765 10.842353 153.6 17.317647 229.074824 17.317647 75.474824 0 153.328941-6.505412 229.044705-17.317647 15.902118-2.258824 31.021176-4.638118 45.236706-7.047529l27.196236-4.818824 24.335058-4.818823 2.258824-0.512z" fill="#568af2" /><path d="M532.088471 154.352941c-208.624941 0-377.735529 169.110588-377.73553 377.73553 0 146.853647 66.409412 259.704471 190.162824 322.16847l5.601882 2.831059h363.911529l5.601883-2.831059c123.783529-62.464 190.162824-175.284706 190.162823-322.16847 0-208.624941-169.110588-377.735529-377.705411-377.73553z m0 52.705883c179.501176 0 324.999529 145.528471 324.999529 325.029647l-0.120471 10.541176c-2.921412 118.543059-55.265882 207.540706-152.395294 260.065882l-3.282823 1.686589H362.857412l5.421176 2.831058c-105.622588-53.308235-161.219765-147.757176-161.219764-275.124705 0-179.501176 145.528471-325.029647 325.029647-325.029647z" fill="#568af2" /><path d="M532.088471 154.352941c-89.991529 0-149.353412 169.562353-149.353412 377.73553 0 133.872941 19.395765 246.422588 56.109176 311.597176l7.529412 13.402353h171.369412l7.559529-13.402353c36.743529-65.174588 56.109176-177.724235 56.109177-311.597176 0-35.900235-1.776941-70.656-5.12-103.574589l-2.258824-19.546353-2.590117-19.034353c-20.48-137.999059-71.077647-235.580235-139.354353-235.580235z m0 52.705883c26.804706 0 55.296 49.633882 74.36047 126.855529l3.553883 15.269647c1.716706 7.830588 3.343059 15.872 4.879058 24.154353l2.891294 16.865882 1.325177 8.613647 2.439529 17.679059 2.108236 18.191059c0.993882 9.216 1.807059 18.612706 2.529882 28.16l1.204706 19.335529 0.843294 19.696942 0.421647 20.058353 0.060235 10.149647-0.060235 13.372235c-1.114353 106.345412-15.299765 196.487529-39.664941 252.837647l-2.770824 6.083765h-108.303058l-2.740706-6.083765c-25.359059-58.729412-39.725176-154.051765-39.725177-266.24 0-27.136 1.174588-53.519059 3.312941-78.697412l1.746824-18.672941c0.301176-3.072 0.662588-6.113882 1.024-9.155765l2.258823-17.950117c0.813176-5.872941 1.686588-11.685647 2.620236-17.408l2.891294-16.865883a627.350588 627.350588 0 0 1 14.215529-61.018353l4.096-13.492706c2.831059-8.734118 5.782588-16.956235 8.824471-24.636235l4.638117-11.053176c15.691294-35.388235 33.731765-56.048941 51.019295-56.048941z" fill="#568af2" /></svg>