<svg class="icon" style="width: 1em;height: 1em;vertical-align: middle;fill: currentColor;overflow: hidden;" viewBox="0 0 1024 1024" version="1.1" xmlns="http://www.w3.org/2000/svg" width="32" height="32"><path d="M261.933176 727.341176l3.282824 0.421648c13.221647 2.409412 22.317176 14.275765 21.594353 27.346823l-0.391529 3.312941-11.14353 61.259294h460.348235c13.432471 0 24.515765 10.089412 26.142118 23.070118l0.210824 3.312941a26.352941 26.352941 0 0 1-23.04 26.142118l-3.312942 0.210823H243.712a26.352941 26.352941 0 0 1-26.322824-27.858823l0.39153-3.222588 16.775529-92.370824a26.352941 26.352941 0 0 1 24.124236-21.594353h3.252705zM755.350588 421.857882l0.783059 3.222589 59.723294 328.463058a26.352941 26.352941 0 0 1-51.049412 12.649412l-0.813176-3.222588-59.723294-328.463059a26.352941 26.352941 0 0 1 51.079529-12.649412zM343.04 281.359059l3.252706 0.391529c13.251765 2.409412 22.347294 14.275765 21.62447 27.346824l-0.391529 3.312941-51.591529 283.617882a26.352941 26.352941 0 0 1-52.224-6.144l0.391529-3.312941 51.561412-283.617882a26.352941 26.352941 0 0 1 24.094117-21.564236l3.252706-0.030117z m241.061647-102.460235l7.469177 3.463529L712.282353 242.748235c6.324706 3.192471 11.113412 8.764235 13.251765 15.450353l0.903529 3.403294 9.065412 49.995294a26.352941 26.352941 0 0 1-51.049412 12.649412l-0.813176-3.19247-6.746353-37.074824-108.875294-54.422588a96.617412 96.617412 0 0 0-80.534589-2.710588l-5.903059 2.710588-61.289411 30.629647a26.352941 26.352941 0 0 1-26.413177-45.477647l2.861177-1.656471 61.289411-30.659764a149.353412 149.353412 0 0 1 118.422589-6.53553l7.649882 3.072z" fill="#568af2" /><path d="M774.836706 207.36l-150.829177 150.859294c-17.167059 17.167059-17.167059 44.965647 0 62.102588l45.417412 45.44753c17.167059 17.167059 44.965647 17.167059 62.132706 0l150.829177-150.859294c17.167059-17.167059 17.167059-44.965647 0-62.102589L836.969412 207.36a43.911529 43.911529 0 0 0-62.132706 0z m31.051294 43.459765l33.008941 33.008941-138.420706 138.450823-33.008941-33.008941 138.420706-138.450823z" fill="#568af2" /><path d="M629.157647 353.069176a26.352941 26.352941 0 0 1 39.604706 34.575059l-2.349177 2.710589-70.26447 70.26447a26.352941 26.352941 0 0 1-39.634824-34.575059l2.349177-2.710588 70.294588-70.264471zM599.160471 593.889882l-45.44753 45.417412c-17.136941 17.167059-17.136941 44.965647 0 62.132706l150.859294 150.829176c17.167059 17.167059 44.965647 17.167059 62.102589 0l45.447529-45.417411c17.167059-17.167059 17.167059-44.965647 0-62.132706l-150.859294-150.829177a43.911529 43.911529 0 0 0-62.102588 0z m31.021176 43.459765l138.450824 138.420706-33.008942 33.008941-138.450823-138.420706 33.008941-33.008941z" fill="#568af2" /><path d="M558.863059 528.745412a26.352941 26.352941 0 0 1 34.575059-2.349177l2.710588 2.349177 70.26447 70.294588a26.352941 26.352941 0 0 1-34.575058 39.604706l-2.710589-2.349177-70.26447-70.26447a26.352941 26.352941 0 0 1 0-37.285647zM318.042353 523.595294l-150.829177 150.859294c-17.167059 17.167059-17.167059 44.965647 0 62.102588l45.44753 45.44753c17.136941 17.167059 44.935529 17.167059 62.102588 0l150.829177-150.859294c17.167059-17.167059 17.167059-44.965647 0-62.102588l-45.417412-45.44753a43.911529 43.911529 0 0 0-62.102588 0z m31.051294 43.459765l33.008941 33.008941-138.420706 138.450824-33.008941-33.008942 138.420706-138.450823z" fill="#568af2" /><path d="M453.451294 528.745412a26.352941 26.352941 0 0 1 39.634824 34.575059l-2.349177 2.710588-70.294588 70.26447a26.352941 26.352941 0 0 1-39.604706-34.575058l2.349177-2.710589 70.26447-70.26447zM282.925176 137.095529L237.477647 182.543059c-17.136941 17.136941-17.136941 44.935529 0 62.102588l150.859294 150.829177c17.167059 17.167059 44.965647 17.167059 62.102588 0l45.44753-45.417412c17.167059-17.167059 17.167059-44.965647 0-62.102588l-150.859294-150.859295a43.911529 43.911529 0 0 0-62.102589 0z m31.021177 43.459765l138.450823 138.420706-33.008941 33.008941-138.450823-138.420706 33.008941-33.008941z" fill="#568af2" /><path d="M383.186824 353.069176a26.352941 26.352941 0 0 1 34.575058-2.349176l2.710589 2.349176 70.26447 70.264471a26.352941 26.352941 0 0 1-34.575059 39.634824l-2.710588-2.349177-70.26447-70.294588a26.352941 26.352941 0 0 1 0-37.25553z" fill="#568af2" /><path d="M524.8 398.064941a96.617412 96.617412 0 1 0 0 193.234824 96.617412 96.617412 0 0 0 0-193.234824z m0 52.705883a43.911529 43.911529 0 1 1 0 87.823058 43.911529 43.911529 0 0 1 0-87.823058z" fill="#568af2" /></svg>