<svg class="icon" style="width: 1em;height: 1em;vertical-align: middle;fill: currentColor;overflow: hidden;" viewBox="0 0 1024 1024" version="1.1" xmlns="http://www.w3.org/2000/svg" width="32" height="32"><path d="M883.440941 826.970353a26.352941 26.352941 0 0 1 3.312941 52.525176l-3.312941 0.180706H180.705882a26.352941 26.352941 0 0 1-3.312941-52.495059l3.312941-0.210823h702.735059z" fill="#568af2" /><path d="M592.685176 126.072471l-140.559058 55.476705a26.352941 26.352941 0 0 0-16.624942 23.100236l-35.147294 647.228235a26.352941 26.352941 0 0 0 26.322824 27.798588h210.823529c15.058824 0 27.075765-12.619294 26.322824-27.648L628.675765 149.263059a26.352941 26.352941 0 0 0-35.990589-23.190588z m-14.817882 62.494117l31.894588 638.403765H454.475294l32.737882-602.624 90.654118-35.779765z" fill="#568af2" /></svg>