<svg class="icon" style="width: 1em;height: 1em;vertical-align: middle;fill: currentColor;overflow: hidden;" viewBox="0 0 1024 1024" version="1.1" xmlns="http://www.w3.org/2000/svg" width="32" height="32"><path d="M672.617412 563.440941H391.529412a26.352941 26.352941 0 0 0-26.352941 26.352941v263.529412c0 14.576941 11.806118 26.352941 26.352941 26.352941h281.088a26.352941 26.352941 0 0 0 26.352941-26.352941v-263.529412a26.352941 26.352941 0 0 0-26.352941-26.352941z m-26.352941 52.705883v210.823529h-228.382118v-210.823529h228.382118zM742.912 124.235294h-421.647059A26.352941 26.352941 0 0 0 294.912 150.588235v105.411765c0 14.546824 11.776 26.352941 26.352941 26.352941h421.647059a26.352941 26.352941 0 0 0 26.352941-26.352941V150.588235a26.352941 26.352941 0 0 0-26.352941-26.352941z m-26.383059 52.705882v52.705883h-368.941176v-52.705883h368.941176z" fill="#568af2" /><path d="M391.529412 229.647059c13.432471 0 24.515765 10.059294 26.142117 23.04l0.210824 3.312941v333.793882a26.352941 26.352941 0 0 1-52.495059 3.312942l-0.210823-3.312942V256c0-14.546824 11.806118-26.352941 26.352941-26.352941zM672.617412 229.647059c13.432471 0 24.545882 10.059294 26.172235 23.04l0.180706 3.312941v333.793882a26.352941 26.352941 0 0 1-52.495059 3.312942l-0.210823-3.312942V256c0-14.546824 11.806118-26.352941 26.352941-26.352941zM883.440941 826.970353a26.352941 26.352941 0 0 1 3.312941 52.525176l-3.312941 0.180706H180.705882a26.352941 26.352941 0 0 1-3.312941-52.495059l3.312941-0.210823h702.735059z" fill="#568af2" /></svg>