<svg class="icon" style="width: 1em;height: 1em;vertical-align: middle;fill: currentColor;overflow: hidden;" viewBox="0 0 1024 1024" version="1.1" xmlns="http://www.w3.org/2000/svg" width="32" height="32"><path d="M426.676706 124.235294c13.432471 0 24.515765 10.059294 26.142118 23.04l0.210823 3.312941v140.559059c0 22.829176-17.438118 41.562353-39.695059 43.700706l-4.21647 0.210824h-210.82353a43.941647 43.941647 0 0 1-43.730823-39.695059l-0.210824-4.216471V150.588235a26.352941 26.352941 0 0 1 52.495059-3.312941l0.210824 3.312941v131.764706h193.234823V150.588235c0-13.432471 10.059294-24.515765 23.070118-26.142117l3.312941-0.210824z" fill="#568af2" /><path d="M426.676706 176.941176a26.352941 26.352941 0 0 1 3.312941 52.495059l-3.312941 0.210824H180.705882a26.352941 26.352941 0 0 1-3.312941-52.495059L180.705882 176.941176h245.970824zM567.205647 440.470588a26.352941 26.352941 0 0 1 3.312941 52.495059l-3.312941 0.210824H207.058824v333.793882h360.146823c13.432471 0 24.545882 10.059294 26.172235 23.070118l0.180706 3.312941a26.352941 26.352941 0 0 1-23.04 26.142117l-3.312941 0.180706H180.705882a26.352941 26.352941 0 0 1-26.142117-23.04l-0.210824-3.312941V466.823529c0-13.432471 10.059294-24.515765 23.04-26.142117l3.312941-0.210824h386.499765z" fill="#568af2" /><path d="M356.382118 282.352941c13.432471 0 24.545882 10.059294 26.172235 23.04l0.180706 3.312941v544.617412a26.352941 26.352941 0 0 1-52.495059 3.312941l-0.210824-3.312941V308.705882c0-14.546824 11.806118-26.352941 26.352942-26.352941zM250.970353 282.352941c13.432471 0 24.545882 10.059294 26.172235 23.04l0.180706 3.312941v158.117647a26.352941 26.352941 0 0 1-52.495059 3.312942l-0.210823-3.312942v-158.117647c0-14.546824 11.806118-26.352941 26.352941-26.352941zM303.676235 124.235294c13.432471 0 24.545882 10.059294 26.172236 23.04l0.180705 3.312941v52.705883a26.352941 26.352941 0 0 1-52.495058 3.312941l-0.210824-3.312941V150.588235c0-14.546824 11.806118-26.352941 26.352941-26.352941zM549.647059 282.352941c13.432471 0 24.515765 10.059294 26.142117 23.04l0.210824 3.312941V361.411765a26.352941 26.352941 0 0 1-52.495059 3.312941l-0.210823-3.312941v-52.705883c0-14.546824 11.806118-26.352941 26.352941-26.352941zM690.206118 282.352941c13.432471 0 24.515765 10.059294 26.142117 23.04l0.210824 3.312941V361.411765a26.352941 26.352941 0 0 1-52.525177 3.312941l-0.180706-3.312941v-52.705883c0-14.546824 11.776-26.352941 26.352942-26.352941zM830.735059 282.352941c13.432471 0 24.545882 10.059294 26.172235 23.04l0.180706 3.312941V361.411765a26.352941 26.352941 0 0 1-52.495059 3.312941l-0.210823-3.312941v-52.705883c0-14.546824 11.806118-26.352941 26.352941-26.352941z" fill="#568af2" /><path d="M830.735059 335.058824H549.647059a26.352941 26.352941 0 0 0-26.352941 26.352941v491.911529c0 14.576941 11.806118 26.352941 26.352941 26.352941h281.088a26.352941 26.352941 0 0 0 26.352941-26.352941V361.411765a26.352941 26.352941 0 0 0-26.352941-26.352941z m-26.352941 52.705882v439.205647h-228.382118V387.764706h228.382118z" fill="#568af2" /><path d="M690.206118 651.294118c13.432471 0 24.515765 10.059294 26.142117 23.04l0.210824 3.312941v175.676235a26.352941 26.352941 0 0 1-52.525177 3.312941l-0.180706-3.312941V677.647059c0-14.546824 11.776-26.352941 26.352942-26.352941z" fill="#568af2" /><path d="M760.470588 826.970353a26.352941 26.352941 0 0 1 3.312941 52.525176l-3.312941 0.180706h-140.559059a26.352941 26.352941 0 0 1-3.312941-52.495059l3.312941-0.210823h140.559059z" fill="#568af2" /></svg>