<svg class="icon" style="width: 1em;height: 1em;vertical-align: middle;fill: currentColor;overflow: hidden;" viewBox="0 0 1024 1024" version="1.1" xmlns="http://www.w3.org/2000/svg" width="32" height="32"><path d="M0 0h1024v1024H0z" fill="#568af2" fill-opacity="0" /><path d="M361.411765 545.882353v52.705882H220.852706a8.794353 8.794353 0 0 0-8.553412 6.776471l-0.210823 2.017882v245.940706h-52.705883v-245.940706c0-32.436706 25.088-58.970353 56.892236-61.319529l4.577882-0.180706H361.411765zM783.058824 545.882353c32.406588 0 58.970353 25.088 61.319529 56.922353l0.180706 4.577882v245.940706h-52.705883v-245.940706a8.794353 8.794353 0 0 0-6.77647-8.553412L783.058824 598.588235h-140.559059v-52.705882H783.058824zM483.689412 166.701176l-14.637177 14.21553-21.714823 21.383529-14.185412 14.275765-15.992471 16.444235-10.450823 10.902589-20.600471 20.239058c-26.202353 25.810824-40.267294 44.393412-49.573647 70.957177-8.011294 22.859294-5.029647 48.609882 5.903059 76.739765 7.168 18.492235 17.709176 37.647059 30.659765 57.103058 8.523294 12.769882 17.588706 24.907294 26.654117 36.111059l6.02353 7.228235 6.415059 7.378824c4.999529 5.511529 12.047059 8.643765 19.486117 8.643765H572.235294a26.352941 26.352941 0 0 0 19.486118-8.643765l6.415059-7.378824 6.023529-7.228235c9.035294-11.203765 18.130824-23.341176 26.624-36.111059 12.980706-19.456 23.491765-38.610824 30.689882-57.103058 10.932706-28.129882 13.914353-53.910588 5.903059-76.739765-8.553412-24.335059-21.082353-41.984-43.279059-64.632471l-26.895058-26.563764-16.323765-16.986353-11.896471-12.16753-25.298823-25.20847-23.491765-22.829177a26.352941 26.352941 0 0 0-36.502588 0z m18.251294 55.777883l23.220706 22.979765 12.167529 12.288 10.842353 11.203764 11.444706 11.926588 21.202824 20.841412c20.931765 20.660706 30.780235 33.641412 36.803764 50.838588 3.132235 8.884706 1.505882 22.708706-5.270588 40.207059-5.632 14.486588-14.396235 30.418824-25.419294 46.98353-7.529412 11.264-15.631059 22.106353-23.732706 32.105411l-3.102118 3.734589h-116.34447l-3.072-3.734589a430.863059 430.863059 0 0 1-23.732706-32.135529c-11.023059-16.504471-19.757176-32.466824-25.389177-46.953412-6.806588-17.498353-8.432941-31.322353-5.300705-40.207059 5.481412-15.631059 14.125176-27.798588 31.382588-45.387294l9.758117-9.637647 13.312-13.071059 6.927059-7.017411 12.468706-13.040941 14.185412-14.486589 10.24-10.270117 17.408-17.167059z" fill="#568af2" /><path d="M853.323294 826.970353a26.352941 26.352941 0 0 1 3.312941 52.525176l-3.312941 0.180706H150.588235a26.352941 26.352941 0 0 1-3.312941-52.495059l3.312941-0.210823h702.735059z" fill="#568af2" /><path d="M642.499765 475.617882H361.411765a26.352941 26.352941 0 0 0-26.352941 26.352942v351.35247c0 14.576941 11.806118 26.352941 26.352941 26.352941h281.088a26.352941 26.352941 0 0 0 26.352941-26.352941V501.970824a26.352941 26.352941 0 0 0-26.352941-26.352942z m-26.352941 52.675765v298.676706h-228.382118v-298.676706h228.382118z" fill="#568af2" /><path d="M501.970824 651.294118c13.432471 0 24.515765 10.059294 26.142117 23.04l0.210824 3.312941v175.676235a26.352941 26.352941 0 0 1-52.525177 3.312941l-0.180706-3.312941V677.647059c0-14.546824 11.776-26.352941 26.352942-26.352941zM501.970824 124.235294c13.432471 0 24.515765 10.059294 26.142117 23.04l0.210824 3.312941v52.705883a26.352941 26.352941 0 0 1-52.525177 3.312941l-0.180706-3.312941V150.588235c0-14.546824 11.776-26.352941 26.352942-26.352941zM256 475.617882c13.432471 0 24.515765 10.029176 26.142118 23.04l0.210823 3.312942V572.235294a26.352941 26.352941 0 0 1-52.495059 3.312941L229.647059 572.235294v-70.26447c0-14.576941 11.806118-26.352941 26.352941-26.352942zM747.911529 475.617882c13.432471 0 24.545882 10.029176 26.172236 23.04l0.180706 3.312942V572.235294a26.352941 26.352941 0 0 1-52.495059 3.312941l-0.210824-3.312941v-70.26447c0-14.576941 11.806118-26.352941 26.352941-26.352942z" fill="#568af2" /><path d="M572.235294 826.970353a26.352941 26.352941 0 0 1 3.312941 52.525176l-3.312941 0.180706h-140.559059a26.352941 26.352941 0 0 1-3.312941-52.495059l3.312941-0.210823H572.235294z" fill="#568af2" /></svg>