<svg class="icon" style="width: 1em;height: 1em;vertical-align: middle;fill: currentColor;overflow: hidden;" viewBox="0 0 1024 1024" version="1.1" xmlns="http://www.w3.org/2000/svg" width="32" height="32"><path d="M263.529412 124.235294c13.432471 0 24.515765 10.059294 26.142117 23.04l0.210824 3.312941v702.735059a26.352941 26.352941 0 0 1-52.495059 3.312941l-0.210823-3.312941V150.588235c0-14.546824 11.806118-26.352941 26.352941-26.352941zM386.499765 212.088471c13.432471 0 24.545882 10.029176 26.172235 23.04l0.180706 3.312941V730.352941a26.352941 26.352941 0 0 1-52.495059 3.312941l-0.210823-3.312941V238.441412c0-14.576941 11.806118-26.352941 26.352941-26.352941zM527.058824 212.088471c13.432471 0 24.515765 10.029176 26.142117 23.04l0.210824 3.312941V730.352941a26.352941 26.352941 0 0 1-52.495059 3.312941l-0.210824-3.312941V238.441412c0-14.576941 11.806118-26.352941 26.352942-26.352941zM667.617882 212.088471c13.432471 0 24.515765 10.029176 26.142118 23.04l0.210824 3.312941V730.352941a26.352941 26.352941 0 0 1-52.525177 3.312941l-0.180706-3.312941V238.441412c0-14.576941 11.776-26.352941 26.352941-26.352941z" fill="#568af2" /><path d="M843.294118 826.970353a26.352941 26.352941 0 0 1 3.312941 52.525176l-3.312941 0.180706H210.823529a26.352941 26.352941 0 0 1-3.312941-52.495059l3.312941-0.210823h632.470589zM843.294118 704a26.352941 26.352941 0 0 1 3.312941 52.495059l-3.312941 0.210823H210.823529a26.352941 26.352941 0 0 1-3.312941-52.495058l3.312941-0.210824h632.470589z" fill="#568af2" /><path d="M790.588235 124.235294c13.432471 0 24.515765 10.059294 26.142118 23.04l0.210823 3.312941v702.735059a26.352941 26.352941 0 0 1-52.495058 3.312941l-0.210824-3.312941V150.588235c0-14.546824 11.806118-26.352941 26.352941-26.352941z" fill="#568af2" /><path d="M843.294118 212.088471a26.352941 26.352941 0 0 1 3.312941 52.495058l-3.312941 0.210824H210.823529a26.352941 26.352941 0 0 1-3.312941-52.525177L210.823529 212.088471h632.470589z" fill="#568af2" /></svg>