<svg class="icon" style="width: 1em;height: 1em;vertical-align: middle;fill: currentColor;overflow: hidden;" viewBox="0 0 1024 1024" version="1.1" xmlns="http://www.w3.org/2000/svg" width="32" height="32"><path d="M382.735059 240.941176v527.058824c0 14.546824 11.806118 26.352941 26.352941 26.352941h474.352941a26.352941 26.352941 0 0 0 26.352941-26.352941V416.617412a26.352941 26.352941 0 0 0-17.167058-24.696471l-474.352942-175.706353a26.352941 26.352941 0 0 0-35.538823 24.726588z m52.705882 37.857883l421.647059 156.16v306.688h-421.647059V278.799059z" fill="#568af2" /><path d="M393.035294 220.039529a26.352941 26.352941 0 0 1 34.816 39.424l-2.710588 2.379295-218.081882 167.725176v312.079059h202.029176c13.432471 0 24.545882 10.059294 26.172235 23.04l0.180706 3.312941a26.352941 26.352941 0 0 1-23.04 26.142118l-3.312941 0.210823H180.705882a26.352941 26.352941 0 0 1-26.142117-23.04l-0.210824-3.312941V416.617412c0-7.017412 2.800941-13.673412 7.68-18.582588l2.620235-2.288942 228.382118-175.706353zM540.852706 504.470588c0-16.865882 15.510588-29.093647 31.503059-25.840941l3.19247 0.843294 158.117647 52.705883a26.352941 26.352941 0 0 1 17.79953 21.62447l0.210823 3.373177v210.823529a26.352941 26.352941 0 0 1-52.495059 3.312941l-0.210823-3.312941v-191.819294l-105.411765-35.147294V768a26.352941 26.352941 0 0 1-23.04 26.142118l-3.312941 0.210823a26.352941 26.352941 0 0 1-26.142118-23.04l-0.210823-3.312941v-263.529412z" fill="#568af2" /><path d="M883.440941 741.647059a26.352941 26.352941 0 0 1 3.312941 52.495059l-3.312941 0.210823h-474.352941a26.352941 26.352941 0 0 1-3.312941-52.495059l3.312941-0.210823h474.352941z" fill="#568af2" /></svg>