<svg class="icon" style="width: 1em;height: 1em;vertical-align: middle;fill: currentColor;overflow: hidden;" viewBox="0 0 1024 1024" version="1.1" xmlns="http://www.w3.org/2000/svg" width="32" height="32"><path d="M853.323294 826.970353a26.352941 26.352941 0 0 1 3.312941 52.525176l-3.312941 0.180706H150.588235a26.352941 26.352941 0 0 1-3.312941-52.495059l3.312941-0.210823h702.735059zM712.794353 299.911529a26.352941 26.352941 0 0 1 3.312941 52.525177l-3.312941 0.180706h-421.647059a26.352941 26.352941 0 0 1-3.312941-52.495059l3.312941-0.210824h421.647059z" fill="#568af2" /><path d="M677.647059 299.911529H326.264471a26.352941 26.352941 0 0 0-26.142118 23.100236l-15.420235 123.271529a149.383529 149.383529 0 0 1-6.505412 28.702118l-58.578824 175.73647c-4.728471 14.215529-7.860706 28.912941-9.33647 43.791059l-15.661177 156.190118a26.352941 26.352941 0 0 0 26.232471 28.973176H783.058824a26.352941 26.352941 0 0 0 26.202352-28.973176l-15.600941-156.190118a202.029176 202.029176 0 0 0-9.33647-43.791059l-58.608941-175.73647a149.383529 149.383529 0 0 1-6.505412-28.702118l-15.420236-123.271529a26.352941 26.352941 0 0 0-26.142117-23.100236z m-328.131765 52.705883h304.850824l12.528941 100.201412c1.656471 13.221647 4.608 26.202353 8.82447 38.851764l58.578824 175.736471 2.409412 7.920941c2.168471 8.011294 3.674353 16.173176 4.517647 24.425412l12.709647 127.216941H249.946353l12.769882-127.216941c1.084235-10.992941 3.403294-21.865412 6.927059-32.346353l58.548706-175.736471 2.921412-9.547294c2.710588-9.607529 4.668235-19.395765 5.903059-29.30447l12.498823-100.201412zM623.887059 131.945412A26.352941 26.352941 0 0 1 663.491765 166.550588l-2.349177 2.710588-14.546823 14.546824a96.647529 96.647529 0 0 1-61.952 28.099765l-6.384941 0.210823h-12.047059c-10.209882 0-20.028235 3.523765-27.828706 9.938824l-3.222588 2.921412-14.576942 14.546823a26.352941 26.352941 0 0 1-39.604705-34.575059l2.349176-2.710588 14.546824-14.546824a96.647529 96.647529 0 0 1 61.952-28.069647l6.384941-0.210823h12.047059c10.209882 0 20.028235-3.553882 27.828705-9.938824l3.222589-2.921411 14.576941-14.576942z" fill="#568af2" /><path d="M378.970353 598.588235c14.576941 0 26.352941 11.806118 26.352941 26.352941a96.858353 96.858353 0 0 0 58.970353 89.027765 26.352941 26.352941 0 1 1-20.540235 48.51953 149.534118 149.534118 0 0 1-91.136-137.547295c0-14.546824 11.806118-26.352941 26.352941-26.352941zM624.941176 598.588235c14.546824 0 26.352941 11.806118 26.352942 26.352941a149.564235 149.564235 0 0 1-91.136 137.547295 26.352941 26.352941 0 1 1-20.540236-48.51953 96.858353 96.858353 0 0 0 58.970353-89.027765c0-14.546824 11.806118-26.352941 26.352941-26.352941zM501.970824 475.617882c41.351529 0 80.112941 16.926118 108.092235 46.290824a26.352941 26.352941 0 0 1-38.159059 36.352 96.256 96.256 0 0 0-69.933176-29.936941c-26.804706 0-51.802353 10.932706-69.963295 29.936941a26.352941 26.352941 0 1 1-38.128941-36.352 148.961882 148.961882 0 0 1 108.092236-46.290824z" fill="#568af2" /><path d="M501.970824 624.941176m-35.147295 0a35.147294 35.147294 0 1 0 70.294589 0 35.147294 35.147294 0 1 0-70.294589 0Z" fill="#568af2" /></svg>