<svg class="icon" style="width: 1em;height: 1em;vertical-align: middle;fill: currentColor;overflow: hidden;" viewBox="0 0 1024 1024" version="1.1" xmlns="http://www.w3.org/2000/svg" width="32" height="32"><path d="M795.617882 343.853176H233.411765a26.352941 26.352941 0 0 0-26.352941 26.352942v491.911529c0 14.546824 11.806118 26.352941 26.352941 26.352941h175.676235a26.352941 26.352941 0 0 0 26.352941-26.352941v-263.529412a79.058824 79.058824 0 0 1 158.117647 0v263.529412c0 14.546824 11.806118 26.352941 26.352941 26.352941h175.706353a26.352941 26.352941 0 0 0 26.352942-26.352941V370.206118a26.352941 26.352941 0 0 0-26.352942-26.352942z m-26.383058 52.675765V835.764706h-122.970353v-237.176471a131.764706 131.764706 0 0 0-131.764706-131.764706l-6.384941 0.150589a131.764706 131.764706 0 0 0-125.379765 131.614117v237.176471H259.764706V396.528941h509.470118z" fill="#568af2" /><path d="M848.323765 238.441412H180.705882a26.352941 26.352941 0 0 0-26.352941 26.352941v52.705882a79.058824 79.058824 0 0 0 79.058824 79.058824h562.206117a79.058824 79.058824 0 0 0 79.058824-79.058824v-52.705882a26.352941 26.352941 0 0 0-26.352941-26.352941zM207.058824 291.117176h614.881882v26.383059a26.352941 26.352941 0 0 1-26.322824 26.352941H233.411765l-3.312941-0.210823a26.352941 26.352941 0 0 1-23.04-26.142118v-26.383059zM848.323765 133.029647a26.352941 26.352941 0 0 1 3.312941 52.495059l-3.312941 0.210823H180.705882a26.352941 26.352941 0 0 1-3.312941-52.525176L180.705882 133.029647h667.617883z" fill="#568af2" /><path d="M233.411765 133.029647c13.432471 0 24.515765 10.029176 26.142117 23.04l0.210824 3.312941v87.823059a26.352941 26.352941 0 0 1-52.495059 3.312941l-0.210823-3.312941V159.382588c0-14.576941 11.806118-26.352941 26.352941-26.352941zM795.617882 133.029647c13.432471 0 24.515765 10.029176 26.142118 23.04l0.210824 3.312941v87.823059a26.352941 26.352941 0 0 1-52.525177 3.312941l-0.180706-3.312941V159.382588c0-14.576941 11.776-26.352941 26.352941-26.352941zM409.088 554.676706a26.352941 26.352941 0 0 1 3.312941 52.495059l-3.312941 0.210823H233.411765a26.352941 26.352941 0 0 1-3.312941-52.525176l3.312941-0.180706h175.676235zM795.617882 554.676706a26.352941 26.352941 0 0 1 3.312942 52.495059l-3.312942 0.210823h-175.706353a26.352941 26.352941 0 0 1-3.312941-52.525176l3.312941-0.180706h175.706353z" fill="#568af2" /></svg>