<svg class="icon" style="width: 1em;height: 1em;vertical-align: middle;fill: currentColor;overflow: hidden;" viewBox="0 0 1024 1024" version="1.1" xmlns="http://www.w3.org/2000/svg" width="32" height="32"><path d="M883.440941 154.352941H180.705882A26.352941 26.352941 0 0 0 154.352941 180.705882v140.559059c0 9.246118 4.848941 17.829647 12.8 22.588235l24.576 14.757648 6.505412 3.674352a149.323294 149.323294 0 0 0 147.154823-3.70447l10.992942-6.625882 11.023058 6.625882 6.505412 3.70447a149.323294 149.323294 0 0 0 147.154824-3.70447l10.992941-6.625882 11.023059 6.625882 6.535529 3.70447a149.323294 149.323294 0 0 0 147.124706-3.70447l11.023059-6.595765 11.023059 6.625883a149.323294 149.323294 0 0 0 153.660235 0l24.576-14.757648a26.352941 26.352941 0 0 0 12.769882-22.588235V180.705882a26.352941 26.352941 0 0 0-26.352941-26.352941z m-26.352941 52.705883v99.267764l-11.745882 7.077647a96.617412 96.617412 0 0 1-99.448471 0l-24.576-14.757647a26.352941 26.352941 0 0 0-27.105882 0l-24.576 14.757647a96.617412 96.617412 0 0 1-99.418353 0l-24.576-14.757647a26.352941 26.352941 0 0 0-27.105883 0l-24.576 14.757647a96.617412 96.617412 0 0 1-99.44847 0l-24.545883-14.757647a26.352941 26.352941 0 0 0-27.105882 0l-24.606118 14.757647-5.812705 3.222589c-29.515294 15.058824-64.903529 13.974588-93.605647-3.222589l-11.776-7.077647V207.058824h650.029176zM848.323765 505.735529h-632.470589a26.352941 26.352941 0 0 0-26.352941 26.352942v316.235294c0 14.546824 11.776 26.352941 26.352941 26.352941h632.470589a26.352941 26.352941 0 0 0 26.352941-26.352941v-316.235294a26.352941 26.352941 0 0 0-26.352941-26.352942z m-26.383059 52.675765v263.529412H242.176v-263.529412h579.764706z" fill="#568af2" /><path d="M268.559059 347.617882c13.432471 0 24.515765 10.029176 26.142117 23.04l0.210824 3.312942v158.117647a26.352941 26.352941 0 0 1-52.525176 3.312941l-0.180706-3.312941v-158.117647c0-14.576941 11.776-26.352941 26.352941-26.352942zM795.617882 347.617882c13.432471 0 24.515765 10.029176 26.142118 23.04l0.210824 3.312942v158.117647a26.352941 26.352941 0 0 1-52.525177 3.312941l-0.180706-3.312941v-158.117647c0-14.576941 11.776-26.352941 26.352941-26.352942z" fill="#568af2" /></svg>