<svg class="icon" style="width: 1em;height: 1em;vertical-align: middle;fill: currentColor;overflow: hidden;" viewBox="0 0 1024 1024" version="1.1" xmlns="http://www.w3.org/2000/svg" width="32" height="32"><path d="M511.698824 151.431529l-8.041412 10.11953-9.848471 12.8-10.782117 14.426353a1307.858824 1307.858824 0 0 0-62.524236 92.762353c-26.864941 43.941647-49.091765 86.859294-65.174588 127.60847-12.438588 31.533176-20.961882 61.259294-24.997647 88.997647-5.571765 37.857882-4.427294 83.666824 2.228706 135.951059 4.999529 39.152941 12.890353 80.655059 22.889412 123.060706 4.999529 21.082353 10.24 41.411765 15.570823 60.536471l6.294588 21.895529 6.716236 21.895529c3.523765 10.842353 13.643294 18.191059 25.057882 18.191059h245.970824a26.352941 26.352941 0 0 0 25.057882-18.191059l4.517647-14.667294 4.487529-15.058823c6.656-23.100235 13.312-48.218353 19.576471-74.601412 9.999059-42.405647 17.889882-83.907765 22.889412-123.060706 6.625882-52.284235 7.800471-98.093176 2.228706-135.951059-4.065882-27.708235-12.559059-57.464471-24.997647-88.997647-16.052706-40.749176-38.309647-83.666824-65.204706-127.638588a1307.888941 1307.888941 0 0 0-62.494118-92.762353l-10.782118-14.396235-15.510588-19.937883-2.409412-2.981647a26.352941 26.352941 0 0 0-40.719058 0z m13.763764 68.608l6.595765-8.914823 6.625882 8.914823c20.48 27.768471 40.899765 57.825882 59.964236 88.96753 25.419294 41.562353 46.320941 81.859765 61.138823 119.476706 11.053176 28.009412 18.462118 53.940706 21.89553 77.312 4.758588 32.376471 3.704471 73.728-2.409412 121.675294a1148.958118 1148.958118 0 0 1-21.89553 117.579294c-4.818824 20.389647-9.908706 40.026353-15.058823 58.458353l-6.746353 23.461647h-207.028706l-2.891294-9.848471a1513.833412 1513.833412 0 0 1-18.883765-72.071529 1148.897882 1148.897882 0 0 1-21.925647-117.609412c-6.083765-47.917176-7.137882-89.268706-2.409412-121.675294 3.463529-23.341176 10.842353-49.272471 21.925647-77.281882 14.817882-37.647059 35.719529-77.914353 61.138824-119.476706a1255.755294 1255.755294 0 0 1 59.934118-88.96753z" fill="#568af2" /><path d="M637.500235 299.911529a26.352941 26.352941 0 0 1 3.312941 52.525177l-3.312941 0.180706h-210.823529a26.352941 26.352941 0 0 1-3.312941-52.495059l3.312941-0.210824h210.823529zM690.206118 405.323294a26.352941 26.352941 0 0 1 3.312941 52.525177l-3.312941 0.180705h-316.235294a26.352941 26.352941 0 0 1-3.312942-52.495058l3.312942-0.210824h316.235294zM707.764706 510.735059a26.352941 26.352941 0 0 1 3.312941 52.525176l-3.312941 0.180706H356.382118a26.352941 26.352941 0 0 1-3.312942-52.495059l3.312942-0.210823H707.764706zM690.206118 616.146824a26.352941 26.352941 0 0 1 3.312941 52.525176l-3.312941 0.180706h-316.235294a26.352941 26.352941 0 0 1-3.312942-52.495059l3.312942-0.210823h316.235294zM672.617412 721.558588a26.352941 26.352941 0 0 1 3.312941 52.525177l-3.312941 0.180706H391.529412a26.352941 26.352941 0 0 1-3.312941-52.495059l3.312941-0.210824h281.088zM883.440941 826.970353a26.352941 26.352941 0 0 1 3.312941 52.525176l-3.312941 0.180706H180.705882a26.352941 26.352941 0 0 1-3.312941-52.495059l3.312941-0.210823h702.735059zM532.088471 124.235294c13.432471 0 24.515765 10.059294 26.142117 23.04l0.210824 3.312941v35.147294a26.352941 26.352941 0 0 1-52.525177 3.312942l-0.180706-3.312942V150.588235c0-14.546824 11.776-26.352941 26.352942-26.352941z" fill="#568af2" /></svg>