<svg class="icon" style="width: 1em;height: 1em;vertical-align: middle;fill: currentColor;overflow: hidden;" viewBox="0 0 1024 1024" version="1.1" xmlns="http://www.w3.org/2000/svg" width="32" height="32"><path d="M0 0h1024v1024H0z" fill="#568af2" fill-opacity="0" /><path d="M843.294118 154.352941H210.823529A26.352941 26.352941 0 0 0 184.470588 180.705882v667.617883c0 14.546824 11.806118 26.352941 26.352941 26.352941h632.470589a26.352941 26.352941 0 0 0 26.352941-26.352941V180.705882A26.352941 26.352941 0 0 0 843.294118 154.352941z m-26.352942 52.705883v614.881882H237.176471V207.058824h579.764705z" fill="#568af2" /><path d="M737.882353 277.323294h-421.647059a26.352941 26.352941 0 0 0-26.352941 26.352941v105.411765c0 14.576941 11.806118 26.352941 26.352941 26.352941h421.647059a26.352941 26.352941 0 0 0 26.352941-26.352941v-105.411765a26.352941 26.352941 0 0 0-26.352941-26.352941z m-26.352941 52.705882v52.705883h-368.941177v-52.705883h368.941177z" fill="#568af2" /><path d="M386.499765 382.735059c13.432471 0 24.545882 10.059294 26.172235 23.070117l0.180706 3.312942v439.205647a26.352941 26.352941 0 0 1-52.495059 3.312941l-0.210823-3.312941V409.088c0-14.546824 11.806118-26.352941 26.352941-26.352941zM667.617882 382.735059c13.432471 0 24.515765 10.059294 26.142118 23.070117l0.210824 3.312942v439.205647a26.352941 26.352941 0 0 1-52.525177 3.312941l-0.180706-3.312941V409.088c0-14.546824 11.776-26.352941 26.352941-26.352941z" fill="#568af2" /><path d="M667.617882 488.146824a26.352941 26.352941 0 0 1 3.312942 52.525176l-3.312942 0.180706h-281.118117a26.352941 26.352941 0 0 1-3.312941-52.495059l3.312941-0.210823h281.118117zM667.617882 593.558588a26.352941 26.352941 0 0 1 3.312942 52.525177l-3.312942 0.180706h-281.118117a26.352941 26.352941 0 0 1-3.312941-52.495059l3.312941-0.210824h281.118117zM667.617882 698.970353a26.352941 26.352941 0 0 1 3.312942 52.525176l-3.312942 0.180706h-281.118117a26.352941 26.352941 0 0 1-3.312941-52.495059l3.312941-0.210823h281.118117z" fill="#568af2" /></svg>