<svg class="icon" style="width: 1em;height: 1em;vertical-align: middle;fill: currentColor;overflow: hidden;" viewBox="0 0 1024 1024" version="1.1" xmlns="http://www.w3.org/2000/svg" width="32" height="32"><path d="M479.382588 194.499765c14.546824 0 26.352941 11.806118 26.352941 26.352941 0 207.058824-67.282824 456.222118-179.350588 645.872941a26.352941 26.352941 0 1 1-45.387294-26.804706c107.248941-181.488941 172.032-421.376 172.032-619.068235 0-14.546824 11.776-26.352941 26.352941-26.352941zM584.794353 194.499765c14.546824 0 26.352941 11.806118 26.352941 26.352941 0 197.692235 64.752941 437.579294 172.001882 619.068235a26.352941 26.352941 0 1 1-45.357176 26.804706c-112.097882-189.650824-179.350588-438.814118-179.350588-645.872941 0-14.546824 11.776-26.352941 26.352941-26.352941z" fill="#568af2" /><path d="M883.440941 826.970353a26.352941 26.352941 0 0 1 3.312941 52.525176l-3.312941 0.180706H180.705882a26.352941 26.352941 0 0 1-3.312941-52.495059l3.312941-0.210823h702.735059zM707.764706 581.029647a26.352941 26.352941 0 0 1 3.312941 52.495059l-3.312941 0.210823H356.382118a26.352941 26.352941 0 0 1-3.312942-52.525176l3.312942-0.180706H707.764706zM655.058824 422.912a26.352941 26.352941 0 0 1 3.312941 52.495059l-3.312941 0.210823h-245.970824a26.352941 26.352941 0 0 1-3.312941-52.525176l3.312941-0.180706h245.970824zM602.352941 194.499765a26.352941 26.352941 0 0 1 3.312941 52.525176l-3.312941 0.180706h-140.559059a26.352941 26.352941 0 0 1-3.312941-52.495059l3.312941-0.210823H602.352941z" fill="#568af2" /><path d="M532.088471 124.235294c13.432471 0 24.515765 10.059294 26.142117 23.04l0.210824 3.312941v70.264471a26.352941 26.352941 0 0 1-52.525177 3.312941l-0.180706-3.312941V150.588235c0-14.546824 11.776-26.352941 26.352942-26.352941zM532.088471 721.558588c38.038588 0 58.036706 12.016941 88.907294 42.857412 9.396706 9.426824 17.408 21.383529 24.395294 35.297882 8.914824 17.769412 14.667294 35.117176 17.679059 47.284706a26.352941 26.352941 0 0 1-50.176 15.811765l-3.343059-11.294118-0.963765-2.951529a190.945882 190.945882 0 0 0-10.300235-25.208471c-4.668235-9.306353-9.637647-16.745412-14.576941-21.684706l-8.643765-8.372705c-16.082824-14.938353-25.419294-19.034353-42.977882-19.034353-20.510118 0-29.816471 5.571765-51.651765 27.407058-4.427294 4.457412-9.637647 12.679529-14.757647 23.341177a250.036706 250.036706 0 0 0-10.089412 24.69647l-3.192471 9.517177-0.421647 1.415529a26.352941 26.352941 0 0 1-50.627764-14.637176l2.258823-7.168 2.258824-6.656c3.584-10.149647 7.68-20.299294 12.288-29.936941 7.469176-15.570824 15.570824-28.370824 24.997647-37.827765 30.870588-30.840471 50.898824-42.857412 88.937412-42.857412z" fill="#568af2" /></svg>