<svg class="icon" style="width: 1em;height: 1em;vertical-align: middle;fill: currentColor;overflow: hidden;" viewBox="0 0 1024 1024" version="1.1" xmlns="http://www.w3.org/2000/svg" width="32" height="32"><path d="M592.323765 124.235294c13.432471 0 24.515765 10.059294 26.142117 23.04l0.210824 3.312941v166.912h-52.705882l-0.030118-140.559059h-87.823059v158.117648h-52.705882V150.588235c0-13.432471 10.059294-24.515765 23.04-26.142117l3.312941-0.210824h140.559059z" fill="#568af2" /><path d="M694.512941 282.563765c14.667294-1.807059 27.708235 8.734118 29.394824 23.04l0.180706 3.102117v175.676236h-52.705883l-0.030117-145.889883-298.646589 36.74353v144.293647h-52.705882v-167.574588c0-12.197647 8.342588-22.648471 19.877647-25.539765l3.252706-0.602353L694.512941 282.563765z" fill="#568af2" /><path d="M747.399529 458.209882a26.352941 26.352941 0 0 1 29.214118 23.070118l0.180706 3.102118v158.117647h-52.705882l-0.030118-128.542118-404.058353 46.622118v134.625882h-52.705882v-158.117647c0-12.257882 8.432941-22.738824 20.08847-25.6l3.252706-0.572235 456.764235-52.705883z" fill="#568af2" /><path d="M799.864471 616.357647L237.658353 686.622118a26.352941 26.352941 0 0 0-23.070118 26.172235v140.528941c0 14.576941 11.806118 26.352941 26.352941 26.352941h562.206118a26.352941 26.352941 0 0 0 26.352941-26.352941v-210.823529a26.352941 26.352941 0 0 0-29.635764-26.142118z m-23.100236 55.988706v154.624H267.294118v-90.955294l509.470117-63.668706z" fill="#568af2" /></svg>