<svg class="icon" style="width: 1em;height: 1em;vertical-align: middle;fill: currentColor;overflow: hidden;" viewBox="0 0 1024 1024" version="1.1" xmlns="http://www.w3.org/2000/svg" width="32" height="32"><path d="M0 0h1024v1024H0z" fill="#568af2" fill-opacity="0" /><path d="M501.970824 335.058824c-61.891765 0-139.806118 12.679529-226.69553 33.972705-23.190588 5.692235-45.929412 11.745882-67.824941 17.92l-29.184 8.493177-13.763765 4.186353-22.166588 7.017412a26.352941 26.352941 0 0 0-18.100706 25.027764V677.647059c0 14.546824 11.806118 26.352941 26.352941 26.352941h140.559059a26.352941 26.352941 0 0 0 26.352941-26.352941 184.470588 184.470588 0 0 1 368.941177 0c0 14.546824 11.776 26.352941 26.352941 26.352941h140.528941a26.352941 26.352941 0 0 0 26.352941-26.352941v-245.970824a26.413176 26.413176 0 0 0-18.281411-25.088l-18.432-5.872941-21.052236-6.384941-7.890823-2.319059a1996.890353 1996.890353 0 0 0-89.328941-23.943529c-85.383529-20.720941-161.852235-33.008941-222.72-33.008941z m0 52.705882c55.777882 0 128.602353 11.715765 210.281411 31.533176 22.377412 5.421176 44.483765 11.233882 65.837177 17.257412l28.79247 8.312471 20.088471 6.053647v200.372706h-89.328941l-0.301177-2.831059a237.206588 237.206588 0 0 0-235.369411-207.992471l-7.408942 0.120471a237.236706 237.236706 0 0 0-227.990588 207.872l-0.331294 2.831059H176.941176v-200.372706l23.823059-7.168c27.648-8.131765 56.982588-16.143059 87.04-23.521883 83.124706-20.389647 157.424941-32.466824 214.136471-32.466823z" fill="#568af2" /></svg>