<svg class="icon" style="width: 1em;height: 1em;vertical-align: middle;fill: currentColor;overflow: hidden;" viewBox="0 0 1024 1024" version="1.1" xmlns="http://www.w3.org/2000/svg" width="32" height="32"><path d="M640 124.235294c13.432471 0 24.515765 10.059294 26.142118 23.04l0.210823 3.312941v43.91153h96.617412c32.436706 0 58.970353 25.088 61.319529 56.922353l0.180706 4.577882v562.206118a61.500235 61.500235 0 0 1-56.922353 61.319529l-4.577882 0.150588H306.206118A61.500235 61.500235 0 0 1 244.856471 822.814118l-0.180706-4.577883V256c0-32.406588 25.088-58.970353 56.922353-61.319529l4.577882-0.180706h96.617412V150.588235a26.352941 26.352941 0 0 1 52.495059-3.312941l0.210823 3.312941v43.91153h158.117647V150.588235c0-14.546824 11.806118-26.352941 26.352941-26.352941z m-105.411765 544.617412h-140.559059l-3.312941 0.210823a26.352941 26.352941 0 0 0 0 52.314353l3.312941 0.180706h140.559059l3.312941-0.180706a26.352941 26.352941 0 0 0-3.312941-52.525176z m70.264471-140.528941h-210.82353l-3.312941 0.180706a26.352941 26.352941 0 0 0 0 52.314353l3.312941 0.210823h210.82353l3.312941-0.210823a26.352941 26.352941 0 0 0-3.312941-52.495059z m70.294588-140.559059h-281.118118l-3.312941 0.210823a26.352941 26.352941 0 0 0 0 52.284236l3.312941 0.210823h281.118118l3.312941-0.210823a26.352941 26.352941 0 0 0-3.312941-52.495059z" fill="#568af2" /></svg>