<svg class="icon" style="width: 1em;height: 1em;vertical-align: middle;fill: currentColor;overflow: hidden;" viewBox="0 0 1024 1024" version="1.1" xmlns="http://www.w3.org/2000/svg" width="32" height="32"><path d="M124.235294 268.559059l0.150588-4.939294c4.367059-65.355294 94.870588-109.266824 201.878589-109.266824 107.038118 0 197.541647 43.941647 201.878588 109.266824l0.180706 4.939294-0.030118 167.454117c37.255529-22.588235 90.834824-35.689412 149.353412-35.689411 107.038118 0 197.511529 43.941647 201.878588 109.236706l0.150588 4.939294v245.970823c0 68.035765-92.310588 114.206118-202.029176 114.206118-74.300235 0-140.619294-21.172706-175.706353-55.958588-35.026824 34.785882-101.376 55.958588-175.676235 55.958588-107.038118 0-197.511529-43.971765-201.878589-109.266824l-0.150588-4.939294V268.559059z m351.382588 447.427765c-37.255529 22.588235-90.834824 35.689412-149.353411 35.689411-58.518588 0-112.067765-13.131294-149.323295-35.689411v44.483764c0 29.003294 64.993882 61.500235 149.323295 61.500236 81.709176 0 145.257412-30.509176 149.142588-58.75953l0.210823-2.740706v-44.483764z m351.382589 0c-37.255529 22.588235-90.834824 35.689412-149.353412 35.689411-58.518588 0-112.097882-13.131294-149.38353-35.719529l0.060236 44.513882c0 29.003294 64.993882 61.500235 149.323294 61.500236 81.709176 0 145.257412-30.509176 149.142588-58.75953l0.180706-2.740706 0.030118-44.513882zM176.941176 592.956235v44.513883c0 28.973176 64.993882 61.470118 149.323295 61.470117 81.709176 0 145.257412-30.479059 149.142588-58.729411l0.210823-2.740706v-44.513883c-37.255529 22.588235-90.834824 35.719529-149.353411 35.71953-58.518588 0-112.067765-13.131294-149.323295-35.71953z m650.059295 0c-37.255529 22.588235-90.834824 35.719529-149.353412 35.71953-58.518588 0-112.097882-13.131294-149.353412-35.71953v44.513883c0 28.973176 65.024 61.470118 149.353412 61.470117 81.709176 0 145.257412-30.479059 149.142588-58.729411l0.180706-2.740706v-44.513883z m-351.382589-122.970353c-37.255529 22.588235-90.834824 35.719529-149.353411 35.71953-58.518588 0-112.067765-13.131294-149.323295-35.71953v44.483765c0 29.003294 64.993882 61.500235 149.323295 61.500235 81.709176 0 145.257412-30.509176 149.142588-58.759529l0.210823-2.710588v-44.513883z m0-122.970353c-37.255529 22.588235-90.834824 35.689412-149.353411 35.689412-58.518588 0-112.067765-13.131294-149.323295-35.689412V391.529412c0 29.003294 64.993882 61.500235 149.323295 61.500235 81.709176 0 145.257412-30.509176 149.142588-58.759529l0.210823-2.740706v-44.483765z" fill="#568af2" /></svg>