<svg class="icon" style="width: 1em;height: 1em;vertical-align: middle;fill: currentColor;overflow: hidden;" viewBox="0 0 1024 1024" version="1.1" xmlns="http://www.w3.org/2000/svg" width="32" height="32"><path d="M512 60.235294c249.494588 0 451.764706 202.270118 451.764706 451.764706 0 249.494588-202.270118 451.764706-451.764706 451.764706-249.494588 0-451.764706-202.270118-451.764706-451.764706C60.235294 262.505412 262.505412 60.235294 512 60.235294z m13.793882 30.117647a26.352941 26.352941 0 0 0-26.352941 26.352941v43.91153h-43.911529l-6.776471 0.12047a184.470588 184.470588 0 0 0 6.776471 368.820706h43.911529v263.529412h-166.881882l-3.312941 0.210824a26.352941 26.352941 0 0 0 3.312941 52.495058h166.881882v43.941647l0.210824 3.312942a26.352941 26.352941 0 0 0 52.495059-3.312942v-43.941647h43.941647l6.746353-0.12047a184.470588 184.470588 0 0 0-6.746353-368.820706h-43.941647v-263.529412h166.912l3.312941-0.180706a26.352941 26.352941 0 0 0-3.312941-52.525176h-166.912V116.705882l-0.180706-3.312941A26.352941 26.352941 0 0 0 525.793882 90.352941z m26.352942 439.205647h43.941647l6.384941 0.150588a131.764706 131.764706 0 0 1-6.384941 263.378824h-43.941647v-263.529412z m-52.705883-316.235294v263.529412h-43.911529a131.764706 131.764706 0 0 1-131.614118-125.379765l-0.150588-6.384941a131.764706 131.764706 0 0 1 131.764706-131.764706h43.911529z" fill="#568af2" /></svg>