<svg class="icon" style="width: 1em;height: 1em;vertical-align: middle;fill: currentColor;overflow: hidden;" viewBox="0 0 1024 1024" version="1.1" xmlns="http://www.w3.org/2000/svg" width="32" height="32"><path d="M0 0h1024v1024H0z" fill="#568af2" fill-opacity="0" /><path d="M219.617882 471.341176c13.432471 0 24.515765 10.089412 26.142118 23.070118l0.210824 3.312941v1.024l0.361411 7.408941 0.240941 3.312942c0.783059 10.089412 2.228706 21.443765 4.48753 33.701647a339.275294 339.275294 0 0 0 35.870118 102.460235c36.050824 65.415529 93.003294 112.399059 176.489411 134.023529 106.767059 27.708235 191.457882 3.403294 257.686589-54.211764a291.538824 291.538824 0 0 0 42.164705-45.327059l5.210353-7.198118c0.752941-1.084235 1.505882-2.138353 2.138353-3.132235l3.403294-5.240471 2.228706-3.764706a26.352941 26.352941 0 0 1 46.260706 25.238589c-11.203765 20.540235-33.129412 49.935059-66.800941 79.209411-78.697412 68.427294-180.946824 97.761882-305.543529 65.445648-94.177882-24.395294-161.129412-77.552941-204.197647-150.528v98.665411a26.352941 26.352941 0 0 1-52.525177 3.312941l-0.180706-3.312941v-281.088c0-14.546824 11.776-26.352941 26.352941-26.352941z m420.924236-134.415058c10.24 8.553412 12.378353 23.190588 5.481411 34.213647l-2.108235 2.891294-51.802353 62.192941h49.152a26.352941 26.352941 0 0 1 3.312941 52.495059l-3.312941 0.210823h-79.058823v52.705883h79.058823a26.352941 26.352941 0 0 1 3.312941 52.495059l-3.312941 0.210823h-79.058823v79.058824a26.352941 26.352941 0 0 1-52.525177 3.312941l-0.180706-3.312941v-79.058824h-79.058823a26.352941 26.352941 0 0 1-3.312941-52.495059l3.312941-0.210823h79.058823v-52.705883h-79.058823a26.352941 26.352941 0 0 1-3.312941-52.495058l3.312941-0.210824h49.091764l-51.802352-62.192941a26.352941 26.352941 0 0 1 38.038588-36.321883l2.469647 2.590118 67.584 81.136941 67.614117-81.136941a26.352941 26.352941 0 0 1 37.104942-3.373176z m0.542117-162.785883c84.329412 29.214118 144.956235 79.480471 184.651294 144.715294V216.636235a26.352941 26.352941 0 0 1 52.495059-3.312941l0.210824 3.312941v281.389177l0.030117 2.861176-0.060235 6.625883a26.352941 26.352941 0 0 1-52.585412 1.295058l-0.060235-3.674353a272.022588 272.022588 0 0 0-4.999529-51.742117 315.331765 315.331765 0 0 0-36.291765-100.773647c-33.370353-58.127059-85.413647-102.640941-160.617412-128.662588-104.116706-36.050824-193.355294-13.040941-268.348235 47.887058-17.709176 14.336-33.129412 29.756235-46.08 45.116236l-5.963294 7.228235-4.608 5.933176-4.457412 6.324706a26.352941 26.352941 0 0 1-44.152471-28.79247c12.890353-19.787294 36.984471-48.308706 72.011295-76.739765 88.184471-71.589647 195.824941-99.328 318.825411-56.771765z" fill="#568af2" /></svg>