<svg class="icon" style="width: 1em;height: 1em;vertical-align: middle;fill: currentColor;overflow: hidden;" viewBox="0 0 1024 1024" version="1.1" xmlns="http://www.w3.org/2000/svg" width="32" height="32"><path d="M843.294118 641.264941c13.432471 0 24.515765 10.029176 26.142117 23.04l0.210824 3.312941V843.294118a26.352941 26.352941 0 0 1-23.04 26.142117l-3.312941 0.210824h-175.676236a26.352941 26.352941 0 0 1-26.172235-23.04l-0.180706-3.312941v-175.676236c0-13.432471 10.029176-24.545882 23.04-26.172235l3.312941-0.180706H843.294118z m-456.794353 0c13.432471 0 24.545882 10.029176 26.172235 23.04l0.180706 3.312941V843.294118a26.352941 26.352941 0 0 1-23.04 26.142117l-3.312941 0.210824H210.823529a26.352941 26.352941 0 0 1-26.142117-23.04L184.470588 843.294118v-175.676236c0-13.432471 10.059294-24.545882 23.04-26.172235l3.312941-0.180706h175.676236z m140.559059 87.823059c13.432471 0 24.515765 10.059294 26.142117 23.070118l0.210824 3.312941v35.117176a26.352941 26.352941 0 0 1-52.495059 3.312941l-0.210824-3.312941v-35.147294c0-14.546824 11.806118-26.352941 26.352942-26.352941z m0-351.352471c13.432471 0 24.515765 10.029176 26.142117 23.04l0.210824 3.312942v96.617411H632.470588a26.352941 26.352941 0 0 1 3.312941 52.495059l-3.312941 0.210824h-79.058823v96.617411a26.352941 26.352941 0 0 1-52.495059 3.312942l-0.210824-3.312942v-96.617411H245.970824a26.352941 26.352941 0 0 1-3.312942-52.495059l3.312942-0.210824h254.735058v-96.617411c0-14.576941 11.806118-26.352941 26.352942-26.352942z m281.088 122.970353a26.352941 26.352941 0 0 1 3.312941 52.495059l-3.312941 0.210824h-35.117177a26.352941 26.352941 0 0 1-3.312941-52.495059l3.312941-0.210824h35.117177zM843.294118 184.470588c13.432471 0 24.515765 10.059294 26.142117 23.04l0.210824 3.312941v175.676236a26.352941 26.352941 0 0 1-23.04 26.172235l-3.312941 0.180706h-175.676236a26.352941 26.352941 0 0 1-26.172235-23.04l-0.180706-3.312941V210.823529c0-13.432471 10.029176-24.515765 23.04-26.142117l3.312941-0.210824H843.294118z m-456.794353 0c13.432471 0 24.545882 10.059294 26.172235 23.04l0.180706 3.312941v175.676236a26.352941 26.352941 0 0 1-23.04 26.172235l-3.312941 0.180706H210.823529a26.352941 26.352941 0 0 1-26.142117-23.04l-0.210824-3.312941V210.823529c0-13.432471 10.059294-24.515765 23.04-26.142117L210.823529 184.470588h175.676236zM527.058824 219.617882c13.432471 0 24.515765 10.029176 26.142117 23.04l0.210824 3.312942v35.117176a26.352941 26.352941 0 0 1-52.495059 3.312941l-0.210824-3.312941V245.970824c0-14.576941 11.806118-26.352941 26.352942-26.352942z" fill="#568af2" /></svg>