<svg class="icon" style="width: 1em;height: 1em;vertical-align: middle;fill: currentColor;overflow: hidden;" viewBox="0 0 1024 1024" version="1.1" xmlns="http://www.w3.org/2000/svg" width="32" height="32"><path d="M514.499765 154.352941a79.058824 79.058824 0 0 1 79.058823 79.058824l-0.090353-3.403294 215.04 120.982588a26.352941 26.352941 0 0 1 13.221647 19.425882l0.240942 3.553883v241.664a79.088941 79.088941 0 1 1-78.426353 134.053647l-216.124236 121.584941a26.352941 26.352941 0 0 1-22.738823 1.505882l-3.102118-1.505882-216.094118-121.584941a79.058824 79.058824 0 1 1-78.426352-134.053647v-241.664c0-8.342588 3.915294-16.112941 10.480941-21.052236l2.951529-1.927529 215.04-120.982588 0.060235-1.596236a79.058824 79.058824 0 0 1 78.908236-74.059294z m113.152 465.197177l-99.870118 58.277647a26.352941 26.352941 0 0 1-23.401412 1.566117l-3.162353-1.566117-99.870117-58.277647-91.075765 52.073411a79.269647 79.269647 0 0 1 1.024 32.165647l203.203765 114.296471 203.203764-114.326588a79.570824 79.570824 0 0 1 1.054118-32.165647l-91.105882-52.043294zM577.355294 281.419294c-9.246118 12.047059-21.895529 21.383529-36.47247 26.563765l-0.030118 85.955765 92.340706 53.910588a26.352941 26.352941 0 0 1 12.860235 19.275294l0.210824 3.463529v98.876236l101.315764 57.916235a78.908235 78.908235 0 0 1 21.654589-11.745882v-226.273883l-191.909648-107.941647z m-125.650823 0l-191.939765 107.941647 0.030118 226.273883c7.830588 2.800941 15.149176 6.776471 21.62447 11.745882l101.315765-57.916235v-98.876236c0-8.192 3.824941-15.872 10.209882-20.811294l2.861177-1.957647 92.340706-53.88047v-85.955765a79.239529 79.239529 0 0 1-36.442353-26.563765z" fill="#568af2" /></svg>