<svg class="icon" style="width: 1em;height: 1em;vertical-align: middle;fill: currentColor;overflow: hidden;" viewBox="0 0 1024 1024" version="1.1" xmlns="http://www.w3.org/2000/svg" width="32" height="32"><path d="M853.323294 184.470588c13.432471 0 24.545882 10.059294 26.172235 23.04l0.180706 3.312941v456.794353a26.352941 26.352941 0 0 1-23.04 26.142118l-3.312941 0.210824-325.029647-0.030118v79.088941a26.322824 26.322824 0 0 1-1.505882 8.794353h186.006588a26.352941 26.352941 0 0 1 3.312941 52.495059l-3.312941 0.180706h-421.647059a26.352941 26.352941 0 0 1-3.312941-52.495059l3.312941-0.210824 185.976471 0.030118a26.202353 26.202353 0 0 1-1.325177-5.511529l-0.180706-3.312942-0.030117-79.058823H150.588235a26.352941 26.352941 0 0 1-26.142117-23.04l-0.210824-3.312941V210.823529c0-13.432471 10.059294-24.515765 23.04-26.142117L150.588235 184.470588h702.735059zM361.411765 448a26.352941 26.352941 0 0 0-26.142118 23.04l-0.210823 3.312941v70.264471l0.210823 3.312941a26.352941 26.352941 0 0 0 52.284235 0l0.210824-3.312941V474.352941l-0.210824-3.312941a26.352941 26.352941 0 0 0-26.142117-23.04z m140.559059-70.264471a26.352941 26.352941 0 0 0-26.172236 23.04l-0.180706 3.312942v140.528941l0.180706 3.312941a26.352941 26.352941 0 0 0 52.314353 0l0.210824-3.312941v-140.528941l-0.210824-3.312942a26.352941 26.352941 0 0 0-26.142117-23.04z m140.528941-70.294588a26.352941 26.352941 0 0 0-26.142118 23.070118l-0.210823 3.312941v210.823529l0.210823 3.312942a26.352941 26.352941 0 0 0 52.314353 0l0.180706-3.312942v-210.823529l-0.180706-3.312941a26.352941 26.352941 0 0 0-26.172235-23.070118z" fill="#568af2" /></svg>