<svg class="icon" style="width: 1em;height: 1em;vertical-align: middle;fill: currentColor;overflow: hidden;" viewBox="0 0 1024 1024" version="1.1" xmlns="http://www.w3.org/2000/svg" width="32" height="32"><path d="M374.784 141.763765c8.222118-23.130353 40.146824-23.070118 49.091765-1.566118l1.14447 3.403294 172.242824 626.416941 113.573647-289.039058a26.352941 26.352941 0 0 1 20.961882-16.474353l3.584-0.240942h158.117647a26.352941 26.352941 0 0 1 3.312941 52.495059l-3.312941 0.210824h-140.167529L617.411765 862.960941c-8.824471 22.467765-40.056471 21.895529-48.790589 0.692706l-1.14447-3.312941L396.348235 238.230588l-92.973176 261.240471a26.352941 26.352941 0 0 1-21.142588 17.257412l-3.674353 0.240941H120.470588a26.352941 26.352941 0 0 1-3.312941-52.495059l3.312941-0.210824h139.504941l114.808471-322.499764z" fill="#568af2" /></svg>