<svg class="icon" style="width: 1em;height: 1em;vertical-align: middle;fill: currentColor;overflow: hidden;" viewBox="0 0 1024 1024" version="1.1" xmlns="http://www.w3.org/2000/svg" width="32" height="32"><path d="M839.529412 210.823529c17.167059 0 29.726118 16.112941 25.6 32.737883l-87.853177 351.382588a26.352941 26.352941 0 0 1-25.6 19.968H294.942118a26.352941 26.352941 0 0 1-25.569883-19.968L181.519059 243.561412A26.352941 26.352941 0 0 1 207.058824 210.823529z m-245.940706 175.676236h-140.559059l-3.312941 0.210823a26.352941 26.352941 0 0 0 3.312941 52.495059h140.559059l3.312941-0.180706a26.352941 26.352941 0 0 0-3.312941-52.525176zM294.912 632.470588a79.058824 79.058824 0 1 0 0 158.117647 79.058824 79.058824 0 0 0 0-158.117647z m456.794353 0a79.058824 79.058824 0 1 0 0 158.117647 79.058824 79.058824 0 0 0 0-158.117647z" fill="#568af2" /></svg>