<svg class="icon" style="width: 1em;height: 1em;vertical-align: middle;fill: currentColor;overflow: hidden;" viewBox="0 0 1024 1024" version="1.1" xmlns="http://www.w3.org/2000/svg" width="32" height="32"><path d="M760.470588 184.470588a79.058824 79.058824 0 0 1 79.058824 79.058824v527.058823a79.058824 79.058824 0 0 1-79.058824 79.058824H233.411765a79.058824 79.058824 0 0 1-79.058824-79.058824V263.529412A79.058824 79.058824 0 0 1 233.411765 184.470588zM689.091765 524.047059a26.352941 26.352941 0 0 0-37.044706 4.126117l-124.084706 155.105883-67.252706-53.820235-2.951529-2.048a26.352941 26.352941 0 0 0-29.997177 43.218823L515.614118 740.894118l2.951529 2.048a26.352941 26.352941 0 0 0 34.093177-6.174118l140.559058-175.676235 2.048-2.95153a26.352941 26.352941 0 0 0-6.174117-34.093176z m-227.297883-40.899765h-140.528941l-3.312941 0.180706a26.352941 26.352941 0 0 0 3.312941 52.525176h140.528941l3.312942-0.210823a26.352941 26.352941 0 0 0-3.312942-52.495059z m210.82353-140.559059H321.264941l-3.312941 0.210824a26.352941 26.352941 0 0 0 3.312941 52.495059h351.352471l3.312941-0.210824a26.352941 26.352941 0 0 0-3.312941-52.495059z" fill="#568af2" /></svg>