<svg class="icon" style="width: 1em;height: 1em;vertical-align: middle;fill: currentColor;overflow: hidden;" viewBox="0 0 1024 1024" version="1.1" xmlns="http://www.w3.org/2000/svg" width="32" height="32"><path d="M733.575529 210.823529c31.021176 0 57.163294 23.100235 61.018353 53.850353l61.500236 491.941647a61.500235 61.500235 0 0 1-61.018353 69.12H242.206118a61.500235 61.500235 0 0 1-61.018353-69.12L242.688 264.673882A61.500235 61.500235 0 0 1 303.706353 210.823529z m-47.887058 183.506824a26.352941 26.352941 0 0 0-35.358118 11.745882l-1.084235 1.92753c-3.373176 5.541647-10.962824 14.366118-23.792942 23.702588-25.660235 18.672941-61.409882 30.117647-109.68847 30.117647-48.278588 0-84.028235-11.444706-109.658353-30.117647-14.456471-10.480941-22.287059-20.359529-24.877177-25.6l-1.65647-2.861177a26.352941 26.352941 0 0 0-45.477647 26.443295c6.144 12.348235 19.184941 28.792471 40.990117 44.66447 34.755765 25.238588 81.347765 40.176941 140.67953 40.176941 59.331765 0 105.953882-14.938353 140.679529-40.176941 21.805176-15.872 34.846118-32.346353 41.020236-44.66447a26.352941 26.352941 0 0 0-11.776-35.358118z" fill="#568af2" /></svg>