<svg class="icon" style="width: 1em;height: 1em;vertical-align: middle;fill: currentColor;overflow: hidden;" viewBox="0 0 1024 1024" version="1.1" xmlns="http://www.w3.org/2000/svg" width="32" height="32"><path d="M883.440941 826.970353a26.352941 26.352941 0 0 1 3.312941 52.525176l-3.312941 0.180706H180.705882a26.352941 26.352941 0 0 1-3.312941-52.495059l3.312941-0.210823h702.735059zM184.018824 510.945882l3.102117 0.602353 140.559059 35.117177c10.541176 2.650353 18.281412 11.444706 19.727059 21.985882l0.240941 3.584v175.676235a26.352941 26.352941 0 0 1-23.070118 26.172236l-3.312941 0.180706H180.705882a26.352941 26.352941 0 0 1-26.142117-23.04l-0.210824-3.312942v-210.823529c0-16.052706 14.155294-28.129882 29.635765-26.142118z m444.53647-82.642823l0.180706 3.373176v316.235294a26.352941 26.352941 0 0 1-23.04 26.172236l-3.312941 0.180706h-140.559059a26.352941 26.352941 0 0 1-26.142118-23.04l-0.210823-3.312942v-245.940705c0-8.884706 4.457412-17.076706 11.745882-21.925648l2.831059-1.65647 140.559059-70.264471a26.352941 26.352941 0 0 1 37.948235 20.178824z m243.139765-160.737883a26.352941 26.352941 0 0 1 38.128941 23.582118v456.764235a26.352941 26.352941 0 0 1-26.352941 26.352942h-140.528941a26.352941 26.352941 0 0 1-26.352942-26.352942V361.411765c0-9.968941 5.632-19.094588 14.546824-23.582118z m11.776-143.329882c26.654118 0 35.900235 34.424471 14.757647 48.248471l-2.95153 1.686588-562.206117 281.088a26.352941 26.352941 0 0 1-14.456471 2.650353l-3.734588-0.662588-140.528941-35.117177a26.352941 26.352941 0 0 1 9.517176-51.742117l3.252706 0.602352 131.072 32.737883 453.662118-226.785883H707.764706a26.352941 26.352941 0 0 1-26.142118-23.04L681.411765 150.588235c0-13.432471 10.059294-24.515765 23.04-26.142117l3.312941-0.210824h175.676235z" fill="#568af2" /></svg>