<svg class="icon" style="width: 1em;height: 1em;vertical-align: middle;fill: currentColor;overflow: hidden;" viewBox="0 0 1024 1024" version="1.1" xmlns="http://www.w3.org/2000/svg" width="32" height="32"><path d="M527.058824 184.470588c13.432471 0 24.515765 10.059294 26.142117 23.04l0.210824 3.312941v316.235295a26.352941 26.352941 0 0 1-23.04 26.142117l-3.312941 0.210824H210.823529a26.352941 26.352941 0 0 1-3.312941-52.495059l3.312941-0.210824h289.882353V210.823529c0-14.546824 11.806118-26.352941 26.352942-26.352941z m-105.411765 0c14.546824 0 26.352941 11.806118 26.352941 26.352941v210.82353a26.352941 26.352941 0 0 1-26.352941 26.352941H210.823529A26.352941 26.352941 0 0 1 184.470588 421.647059V210.823529c0-14.546824 11.806118-26.352941 26.352941-26.352941z m0 421.647059H210.823529a26.352941 26.352941 0 0 0-26.352941 26.352941v210.82353c0 14.546824 11.806118 26.352941 26.352941 26.352941h210.82353a26.352941 26.352941 0 0 0 26.352941-26.352941v-210.82353a26.352941 26.352941 0 0 0-26.352941-26.352941z m421.647059 0h-210.82353a26.352941 26.352941 0 0 0-26.352941 26.352941v210.82353c0 14.546824 11.806118 26.352941 26.352941 26.352941h210.82353a26.352941 26.352941 0 0 0 26.352941-26.352941v-210.82353a26.352941 26.352941 0 0 0-26.352941-26.352941z m0-421.647059h-210.82353a26.352941 26.352941 0 0 0-26.352941 26.352941v210.82353c0 14.546824 11.806118 26.352941 26.352941 26.352941h210.82353a26.352941 26.352941 0 0 0 26.352941-26.352941V210.823529A26.352941 26.352941 0 0 0 843.294118 184.470588z m-316.235294 421.647059c13.432471 0 24.515765 10.059294 26.142117 23.04l0.210824 3.312941v210.82353a26.352941 26.352941 0 0 1-52.495059 3.312941l-0.210824-3.312941v-210.82353c0-14.546824 11.806118-26.352941 26.352942-26.352941z m316.235294-105.411765a26.352941 26.352941 0 0 1 3.312941 52.495059l-3.312941 0.210824h-210.82353a26.352941 26.352941 0 0 1-3.312941-52.495059l3.312941-0.210824h210.82353z" fill="#568af2" /></svg>