<svg class="icon" style="width: 1em;height: 1em;vertical-align: middle;fill: currentColor;overflow: hidden;" viewBox="0 0 1024 1024" version="1.1" xmlns="http://www.w3.org/2000/svg" width="32" height="32"><path d="M0 0h1024v1024H0z" fill="#568af2" fill-opacity="0" /><path d="M741.827765 262.475294a26.352941 26.352941 0 0 1 39.634823 34.544941l-2.349176 2.710589L287.171765 791.642353a26.352941 26.352941 0 0 1-39.604706-34.544941l2.349176-2.710588L741.797647 262.475294zM388.005647 195.011765a26.352941 26.352941 0 0 1 44.122353 28.611764l-1.957647 3.011765-105.411765 140.559059a26.352941 26.352941 0 0 1-39.905882 2.620235l-2.258824-2.620235-105.411764-140.559059a26.352941 26.352941 0 0 1 39.845647-34.334118l2.319059 2.710589 84.329411 112.429176 84.329412-112.429176z" fill="#568af2" /><path d="M426.676706 325.029647a26.352941 26.352941 0 0 1 3.312941 52.495059l-3.312941 0.210823H180.705882a26.352941 26.352941 0 0 1-3.312941-52.525176l3.312941-0.180706h245.970824zM426.676706 430.441412a26.352941 26.352941 0 0 1 3.312941 52.495059l-3.312941 0.210823H180.705882a26.352941 26.352941 0 0 1-3.312941-52.525176l3.312941-0.180706h245.970824z" fill="#568af2" /><path d="M303.676235 325.029647c13.432471 0 24.545882 10.029176 26.172236 23.04l0.180705 3.312941v210.82353a26.352941 26.352941 0 0 1-52.495058 3.312941l-0.210824-3.312941v-210.82353c0-14.576941 11.806118-26.352941 26.352941-26.352941zM830.735059 535.853176c13.432471 0 24.545882 10.029176 26.172235 23.04l0.180706 3.312942V843.294118a26.352941 26.352941 0 0 1-23.04 26.142117l-3.312941 0.210824H479.382588a26.352941 26.352941 0 0 1-26.172235-23.04l-0.180706-3.312941v-102.79153a26.352941 26.352941 0 0 1 52.495059-3.312941l0.210823 3.312941-0.030117 76.438588h298.676706v-228.412235h-134.445177a26.352941 26.352941 0 0 1-26.172235-23.04l-0.180706-3.312941c0-13.402353 10.029176-24.515765 23.04-26.142118l3.312941-0.180706h160.828235z" fill="#568af2" /></svg>