<svg class="icon" style="width: 1em;height: 1em;vertical-align: middle;fill: currentColor;overflow: hidden;" viewBox="0 0 1024 1024" version="1.1" xmlns="http://www.w3.org/2000/svg" width="32" height="32"><path d="M522.029176 124.235294a149.323294 149.323294 0 0 1 149.202824 142.848l0.150588 6.475294-0.030117 26.352941H768c32.406588 0 58.970353 25.088 61.319529 56.922353l0.180706 4.577883v456.794353a61.500235 61.500235 0 0 1-61.500235 61.470117H276.088471a61.500235 61.500235 0 0 1-61.500236-61.470117V361.411765c0-33.972706 27.527529-61.500235 61.500236-61.500236h96.617411v-26.352941a149.323294 149.323294 0 0 1 149.323294-149.323294z m0 52.705882a96.617412 96.617412 0 0 0-96.466823 91.136l-0.150588 5.481412v26.352941h193.234823v-26.352941a96.617412 96.617412 0 0 0-96.617412-96.617412z" fill="#568af2" /></svg>