<svg class="icon" style="width: 1em;height: 1em;vertical-align: middle;fill: currentColor;overflow: hidden;" viewBox="0 0 1024 1024" version="1.1" xmlns="http://www.w3.org/2000/svg" width="32" height="32"><path d="M760.470588 184.470588a79.058824 79.058824 0 0 1 79.058824 79.058824v527.058823a79.058824 79.058824 0 0 1-79.058824 79.058824H233.411765a79.058824 79.058824 0 0 1-79.058824-79.058824V263.529412A79.058824 79.058824 0 0 1 233.411765 184.470588z m-421.225412 368.941177a26.503529 26.503529 0 0 0-2.228705 0.060235l-1.505883 0.150588a26.202353 26.202353 0 0 0-12.047059 4.728471l-0.602353 0.421647-0.692705 0.602353a26.503529 26.503529 0 0 0-1.716706 1.505882l-0.271059 0.240941a26.864941 26.864941 0 0 0-4.517647 6.02353 26.262588 26.262588 0 0 0-3.192471 12.619294l0.060236-1.807059a26.503529 26.503529 0 0 0 4.879058 17.167059l0.421647 0.602353 0.602353 0.692706a26.503529 26.503529 0 0 0 1.505883 1.716706l0.240941 0.271058 123.00047 122.970353 2.710589 2.349177a26.352941 26.352941 0 0 0 34.544941-39.604706l-78.004706-78.004706h252.626824l3.312941-0.210823a26.352941 26.352941 0 0 0-3.312941-52.495059z m208.77553-223.021177a26.352941 26.352941 0 0 0-34.575059 39.604706l78.004706 78.004706H338.823529l-3.312941 0.210824a26.352941 26.352941 0 0 0 3.312941 52.495058h316.235295l3.312941-0.210823a26.202353 26.202353 0 0 0 12.047059-4.728471l0.602352-0.421647 0.692706-0.602353a26.503529 26.503529 0 0 0 1.716706-1.505882l0.271059-0.240941a26.864941 26.864941 0 0 0 4.517647-6.02353 26.262588 26.262588 0 0 0-1.746823-28.009411l-0.421647-0.542118-0.602353-0.722824a26.503529 26.503529 0 0 0-1.505883-1.716706l-0.240941-0.271058-123.000471-122.970353z" fill="#568af2" /></svg>