<svg class="icon" style="width: 1em;height: 1em;vertical-align: middle;fill: currentColor;overflow: hidden;" viewBox="0 0 1024 1024" version="1.1" xmlns="http://www.w3.org/2000/svg" width="32" height="32"><path d="M487.996235 190.253176a26.352941 26.352941 0 0 1 32.948706 0l263.529412 210.82353a26.352941 26.352941 0 0 1 9.878588 20.570353v421.647059a26.352941 26.352941 0 0 1-26.352941 26.352941H240.941176A26.352941 26.352941 0 0 1 214.588235 843.294118V421.647059c0-8.011294 3.614118-15.570824 9.878589-20.570353z m16.474353 415.864471a26.352941 26.352941 0 0 0-26.352941 26.352941v105.411765l0.210824 3.312941a26.352941 26.352941 0 0 0 52.495058-3.312941V632.470588l-0.210823-3.312941a26.352941 26.352941 0 0 0-26.142118-23.04z m122.970353-70.264471a26.352941 26.352941 0 0 0-26.352941 26.352942V737.882353l0.210824 3.312941a26.352941 26.352941 0 0 0 52.495058-3.312941v-175.676235l-0.180706-3.312942a26.352941 26.352941 0 0 0-26.172235-23.04z m-245.940706 105.411765a26.352941 26.352941 0 0 0-26.352941 26.352941V737.882353l0.180706 3.312941a26.352941 26.352941 0 0 0 52.525176-3.312941v-70.264471l-0.210823-3.312941a26.352941 26.352941 0 0 0-26.142118-23.04z m266.209883-218.925176a26.352941 26.352941 0 0 0-37.135059-3.373177l-86.91953 72.432941-35.689411-35.689411-2.710589-2.379294a26.352941 26.352941 0 0 0-32.37647 0.451764L365.025882 524.047059l-2.650353 2.409412a26.352941 26.352941 0 0 0-1.475764 34.635294l2.409411 2.650353a26.352941 26.352941 0 0 0 34.635295 1.475764l69.421176-55.567058 36.050824 36.050823 2.740705 2.409412a26.352941 26.352941 0 0 0 32.737883-0.813177l105.411765-87.823058 2.620235-2.499765a26.352941 26.352941 0 0 0 0.783059-34.635294z" fill="#568af2" /></svg>