<svg class="icon" style="width: 1em;height: 1em;vertical-align: middle;fill: currentColor;overflow: hidden;" viewBox="0 0 1024 1024" version="1.1" xmlns="http://www.w3.org/2000/svg" width="32" height="32"><path d="M829.530353 259.553882l-0.030118 593.769412a26.352941 26.352941 0 0 1-23.070117 26.172235l-3.312942 0.180706H240.941176a26.352941 26.352941 0 0 1-26.142117-23.04l-0.210824-3.312941V259.523765c0.542118 3.794824 2.078118 7.710118 4.698353 11.504941 66.710588 96.105412 130.258824 157.575529 198.354824 190.192941a105.411765 105.411765 0 1 0 209.106823 2.228706c67.132235-32.225882 129.807059-94.177882 198.02353-192.421647a27.407059 27.407059 0 0 0 4.758588-11.474824z m-307.501177 163.358118a52.705882 52.705882 0 1 1 0 105.411765 52.705882 52.705882 0 0 1 0-105.411765z m281.118118-298.676706c13.432471 0 24.515765 10.059294 26.142118 23.04l0.210823 3.312941v101.436236c-2.981647-18.522353-26.925176-31.533176-44.333176-15.299765l-182.874353 170.526118a105.170824 105.170824 0 0 0-80.26353-37.044706 105.170824 105.170824 0 0 0-78.998588 35.599058L258.770824 236.604235c-17.468235-16.052706-41.231059-3.011765-44.182589 15.420236V150.588235c0-13.432471 10.059294-24.515765 23.04-26.142117L240.941176 124.235294h562.206118z" fill="#568af2" /></svg>