<svg class="icon" style="width: 1em;height: 1em;vertical-align: middle;fill: currentColor;overflow: hidden;" viewBox="0 0 1024 1024" version="1.1" xmlns="http://www.w3.org/2000/svg" width="32" height="32"><path d="M790.588235 184.470588a79.058824 79.058824 0 0 1 79.058824 79.058824v527.058823a79.058824 79.058824 0 0 1-79.058824 79.058824H263.529412a79.058824 79.058824 0 0 1-79.058824-79.058824V263.529412A79.058824 79.058824 0 0 1 263.529412 184.470588z m-69.210353 236.122353a26.352941 26.352941 0 0 0-37.255529 0l-116.163765 116.10353-53.157647-92.973177-1.867294-2.861176a26.352941 26.352941 0 0 0-39.634823-2.710589l-140.559059 140.559059-2.349177 2.710588a26.352941 26.352941 0 0 0 2.349177 34.544942l2.710588 2.349176a26.352941 26.352941 0 0 0 34.544941-2.349176l116.163765-116.163765 53.157647 93.063529 1.867294 2.831059a26.352941 26.352941 0 0 0 39.634824 2.710588l140.559058-140.559058 2.349177-2.710589a26.352941 26.352941 0 0 0-2.349177-34.544941z" fill="#568af2" /></svg>