<svg class="icon" style="width: 1em;height: 1em;vertical-align: middle;fill: currentColor;overflow: hidden;" viewBox="0 0 1024 1024" version="1.1" xmlns="http://www.w3.org/2000/svg" width="32" height="32"><path d="M488.899765 129.325176a26.352941 26.352941 0 0 1 32.768 1.204706l10.601411 8.252236 14.757648 12.167529a901.421176 901.421176 0 0 1 109.447529 110.140235c85.955765 103.122824 137.878588 213.925647 137.878588 328.704a289.882353 289.882353 0 0 1-289.882353 289.882353 289.882353 289.882353 0 0 1-289.882353-289.882353c0-114.778353 51.922824-225.581176 137.878589-328.704a901.421176 901.421176 0 0 1 109.447529-110.140235l14.757647-12.167529 6.083765-4.818824z m15.570823 54.784l-8.583529 7.137883a849.227294 849.227294 0 0 0-102.942118 103.604706c-69.601882 83.516235-114.326588 171.369412-123.783529 259.975529 3.614118-0.843294 7.348706-1.686588 11.143529-2.499765 47.164235-10.119529 95.232-14.817882 140.709647-11.023058 35.237647 2.951529 67.282824 10.962824 95.232 24.937411l8.252236 3.824942c19.666824 8.432941 42.465882 13.613176 67.794823 15.721411 39.634824 3.312941 82.763294-0.903529 125.289412-10.029176 8.372706-1.807059 16.203294-3.674353 23.491765-5.601883-5.692235-93.786353-51.440941-186.970353-125.078589-275.335529a849.227294 849.227294 0 0 0-102.942117-103.574588l-8.58353-7.137883z" fill="#568af2" /></svg>