<svg class="icon" style="width: 1em;height: 1em;vertical-align: middle;fill: currentColor;overflow: hidden;" viewBox="0 0 1024 1024" version="1.1" xmlns="http://www.w3.org/2000/svg" width="32" height="32"><path d="M501.970824 124.235294c208.594824 0 377.705412 169.110588 377.705411 377.73553 0 208.594824-169.110588 377.705412-377.705411 377.705411-208.624941 0-377.735529-169.110588-377.73553-377.705411 0-208.624941 169.110588-377.735529 377.73553-377.73553z m124.02447 200.975059a26.352941 26.352941 0 0 0-37.255529 0l-86.799059 86.738823-86.738824-86.738823-2.710588-2.349177a26.352941 26.352941 0 0 0-34.575059 39.604706l77.974589 78.004706h-59.331765l-3.312941 0.210824a26.352941 26.352941 0 0 0 3.312941 52.495059h79.179294v52.705882h-79.209412l-3.312941 0.210823a26.352941 26.352941 0 0 0 3.312941 52.495059h79.209412V677.647059l0.210823 3.312941a26.352941 26.352941 0 0 0 52.525177-3.312941l-0.030118-79.058824h78.908236l3.312941-0.210823a26.352941 26.352941 0 0 0-3.312941-52.495059h-78.908236v-52.705882h78.908236l3.312941-0.210824a26.352941 26.352941 0 0 0-3.312941-52.495059h-59.361883l78.004706-78.004706 2.379294-2.710588a26.352941 26.352941 0 0 0-2.379294-34.544941z" fill="#568af2" /></svg>