<svg class="icon" style="width: 1em;height: 1em;vertical-align: middle;fill: currentColor;overflow: hidden;" viewBox="0 0 1024 1024" version="1.1" xmlns="http://www.w3.org/2000/svg" width="32" height="32"><path d="M519.830588 125.289412a26.352941 26.352941 0 0 1 14.757647 0l316.084706 92.340706c11.264 3.282824 18.974118 13.583059 18.974118 25.298823v189.349647c0 210.371765-134.625882 397.131294-334.21553 463.631059a26.352941 26.352941 0 0 1-16.655058 0 488.779294 488.779294 0 0 1-334.305883-463.721412V242.928941c0-11.715765 7.740235-22.016 18.974118-25.298823z m-128.752941 388.879059a26.142118 26.142118 0 0 0-2.499765 1.596235l-0.421647 0.331294-0.783059 0.602353a26.503529 26.503529 0 0 0-1.264941 1.114353l-0.662588 0.662588a26.804706 26.804706 0 0 0-5.872941 8.914824 26.262588 26.262588 0 0 0 3.19247 25.20847l0.301177 0.421647 0.632471 0.783059a26.503529 26.503529 0 0 0 1.14447 1.295059l0.602353 0.632471 87.853177 87.853176 2.710588 2.349176a26.352941 26.352941 0 0 0 34.544941-39.634823l-42.857412-42.857412h182.332235l3.312942-0.180706a26.352941 26.352941 0 0 0-3.312942-52.525176h-245.940705a26.413176 26.413176 0 0 0-10.752 2.288941l-1.656471 0.813176z m187.030588-191.307295a26.352941 26.352941 0 0 0-34.544941 39.604706l42.827294 42.857412h-182.302117l-3.312942 0.210824a26.352941 26.352941 0 0 0 3.312942 52.495058h245.940705a26.503529 26.503529 0 0 0 15.510589-5.029647l0.421647-0.301176 0.783059-0.632471a26.503529 26.503529 0 0 0 1.295058-1.14447l0.632471-0.602353a26.804706 26.804706 0 0 0 5.872941-8.944941 26.262588 26.262588 0 0 0-3.19247-25.178353l-0.301177-0.451765-0.63247-0.783059a26.503529 26.503529 0 0 0-1.144471-1.295059l-0.602353-0.602353-87.853176-87.853176z" fill="#568af2" /></svg>