<svg class="icon" style="width: 1em;height: 1em;vertical-align: middle;fill: currentColor;overflow: hidden;" viewBox="0 0 1024 1024" version="1.1" xmlns="http://www.w3.org/2000/svg" width="32" height="32"><path d="M541.123765 193.746824l2.108235 2.831058 150.287059 233.833412h115.169882a79.058824 79.058824 0 0 1 78.426353 88.907294l-0.783059 5.029647-53.820235 281.088a79.058824 79.058824 0 0 1-72.493176 64.060236l-5.12 0.150588H287.201882a79.058824 79.058824 0 0 1-76.498823-59.181177l-1.144471-5.029647-53.820235-281.088a79.058824 79.058824 0 0 1 72.583529-93.756235l5.089883-0.150588 115.049411-0.030118 150.377412-233.833412a26.352941 26.352941 0 0 1 42.255059-2.831058z m-20.058353 377.223529a79.058824 79.058824 0 1 0 0 158.117647 79.058824 79.058824 0 0 0 0-158.117647z m0 52.705882a26.352941 26.352941 0 1 1 0 52.705883 26.352941 26.352941 0 0 1 0-52.705883zM521.035294 259.553882l-109.839059 170.857412h219.678118L521.035294 259.553882z" fill="#568af2" /></svg>