<svg class="icon" style="width: 1em;height: 1em;vertical-align: middle;fill: currentColor;overflow: hidden;" viewBox="0 0 1024 1024" version="1.1" xmlns="http://www.w3.org/2000/svg" width="32" height="32"><path d="M584.794353 214.588235c5.240471 0 10.330353 1.566118 14.637176 4.457412l3.072 2.409412 185.705412 168.809412h95.232c13.432471 0 24.545882 10.059294 26.172235 23.070117l0.180706 3.312941v386.499765a26.352941 26.352941 0 0 1-23.04 26.142118l-3.312941 0.210823H268.559059a26.352941 26.352941 0 0 1-26.172235-23.070117l-0.180706-3.312942-0.030118-384.903529-42.646588-33.581176a26.352941 26.352941 0 0 1 29.665882-43.429647l2.95153 2.017882 235.700705 185.765647c24.395294 20.781176 45.327059 25.961412 63.939765 8.794353 16.564706-15.239529 13.372235-33.731765 1.686588-47.194353l-1.505882-1.566118-138.691765-104.026353a26.352941 26.352941 0 0 1-7.228235-33.882353l1.957647-3.011764a26.352941 26.352941 0 0 1 33.912471-7.228236l3.011764 1.957647 64.662589 48.489412a26.202353 26.202353 0 0 1 4.035764-0.843294l3.312941-0.210823h212.931765l-135.258353-122.970353H180.705882a26.352941 26.352941 0 0 1-26.142117-23.04L154.352941 240.941176c0-13.432471 10.059294-24.515765 23.04-26.142117L180.705882 214.588235h404.088471zM294.851765 706.499765l0.030117 70.26447h562.206118l-0.030118-69.933176-562.206117-0.331294z" fill="#568af2" /></svg>