<svg class="icon" style="width: 1em;height: 1em;vertical-align: middle;fill: currentColor;overflow: hidden;" viewBox="0 0 1024 1024" version="1.1" xmlns="http://www.w3.org/2000/svg" width="32" height="32"><path d="M853.323294 214.588235c14.576941 0 26.352941 11.806118 26.352941 26.352941v181.187765c0 11.143529-6.987294 21.082353-17.468235 24.816941a70.264471 70.264471 0 0 0-46.381176 66.319059c0 30.057412 18.823529 56.470588 46.381176 66.288941a26.352941 26.352941 0 0 1 17.468235 24.816942v181.187764a26.352941 26.352941 0 0 1-26.352941 26.352941H150.588235a26.352941 26.352941 0 0 1-26.352941-26.352941v-181.187764c0-11.143529 7.017412-21.082353 17.498353-24.816942a70.264471 70.264471 0 0 0 46.381177-66.288941c0-30.087529-18.853647-56.500706-46.381177-66.319059a26.352941 26.352941 0 0 1-17.498353-24.816941V240.941176c0-14.546824 11.806118-26.352941 26.352941-26.352941z m-244.85647 130.710589a26.352941 26.352941 0 0 0-37.285648 0l-69.24047 69.180235-69.180235-69.180235-2.710589-2.379295a26.352941 26.352941 0 0 0-34.575058 39.634824l60.416 60.416h-59.331765l-3.312941 0.210823a26.352941 26.352941 0 0 0 3.312941 52.495059h79.028706v55.627294h-79.028706l-3.312941 0.210824a26.352941 26.352941 0 0 0 3.312941 52.525176l79.028706-0.030117v76.137412l0.210823 3.312941a26.352941 26.352941 0 0 0 52.525177-3.312941l-0.030118-76.137412h79.088941l3.312941-0.180706a26.352941 26.352941 0 0 0-3.312941-52.495059l-79.088941-0.030118v-55.627294h79.088941l3.312941-0.180706a26.352941 26.352941 0 0 0-3.312941-52.525176h-59.392l60.446118-60.416 2.349176-2.710588a26.352941 26.352941 0 0 0-2.349176-34.544941z" fill="#568af2" /></svg>