<svg class="icon" style="width: 1em;height: 1em;vertical-align: middle;fill: currentColor;overflow: hidden;" viewBox="0 0 1024 1024" version="1.1" xmlns="http://www.w3.org/2000/svg" width="32" height="32"><path d="M790.588235 184.470588a79.058824 79.058824 0 0 1 78.908236 74.059294l0.150588 4.99953v263.529412a26.352941 26.352941 0 0 1-52.495059 3.312941l-0.210824-3.312941V263.529412a26.352941 26.352941 0 0 0-23.04-26.142118l-3.312941-0.210823H263.529412a26.352941 26.352941 0 0 0-26.142118 23.04l-0.210823 3.312941v527.058823c0 13.432471 10.059294 24.515765 23.04 26.142118l3.312941 0.210823h263.529412a26.352941 26.352941 0 0 1 3.312941 52.495059l-3.312941 0.210824H263.529412a79.058824 79.058824 0 0 1-78.908236-74.059294l-0.150588-4.99953V263.529412a79.058824 79.058824 0 0 1 74.059294-78.908236l4.99953-0.150588h527.058823z m-122.970353 351.382588a131.764706 131.764706 0 0 1 117.278118 191.849412l74.872471 59.873883a26.352941 26.352941 0 0 1-29.997177 43.218823l-2.951529-2.048-74.872471-59.904a131.764706 131.764706 0 1 1-84.329412-233.020235z m-175.706353-35.147294a26.352941 26.352941 0 0 1 3.312942 52.495059l-3.312942 0.210824h-140.528941a26.352941 26.352941 0 0 1-3.312941-52.495059l3.312941-0.210824h140.528941z m210.82353-140.559058a26.352941 26.352941 0 0 1 3.312941 52.525176l-3.312941 0.180706H351.382588a26.352941 26.352941 0 0 1-3.312941-52.495059l3.312941-0.210823h351.352471z" fill="#568af2" /></svg>