<svg class="icon" style="width: 1em;height: 1em;vertical-align: middle;fill: currentColor;overflow: hidden;" viewBox="0 0 1024 1024" version="1.1" xmlns="http://www.w3.org/2000/svg" width="32" height="32"><path d="M517.029647 154.352941a131.764706 131.764706 0 0 1 131.614118 125.379765l0.150588 6.384941-0.030118 8.764235h61.500236a79.058824 79.058824 0 0 1 78.908235 74.089412l0.150588 4.99953v421.647058a79.058824 79.058824 0 0 1-79.058823 79.058824H323.764706a79.058824 79.058824 0 0 1-79.058824-79.058824v-421.647058a79.058824 79.058824 0 0 1 79.058824-79.058824l61.470118-0.030118V286.117647a131.764706 131.764706 0 0 1 131.794823-131.764706z m0 52.705883a79.058824 79.058824 0 0 0-78.908235 74.059294l-0.150588 4.999529-0.030118 8.764235h158.117647V286.117647a79.058824 79.058824 0 0 0-79.028706-79.058823z" fill="#568af2" /></svg>