<svg class="icon" style="width: 1em;height: 1em;vertical-align: middle;fill: currentColor;overflow: hidden;" viewBox="0 0 1024 1024" version="1.1" xmlns="http://www.w3.org/2000/svg" width="32" height="32"><path d="M667.617882 184.470588c13.432471 0 24.515765 10.059294 26.142118 23.04l0.210824 3.312941-0.030118 131.764706H843.294118c14.215529 0 25.660235 11.233882 26.322823 25.057883l-0.030117 3.252706-35.147295 474.352941a26.352941 26.352941 0 0 1-22.889411 24.18447l-3.403294 0.210824H245.970824a26.352941 26.352941 0 0 1-25.810824-21.022118l-0.481882-3.373176-35.147294-474.352941a26.352941 26.352941 0 0 1 23.070117-28.129883L210.823529 342.588235h149.323295V210.823529c0-13.432471 10.059294-24.515765 23.070117-26.142117l3.312941-0.210824h281.088z m0 491.91153h-281.118117l-3.312941 0.210823a26.352941 26.352941 0 0 0 0 52.314353l3.312941 0.180706h281.118117l3.312942-0.180706a26.352941 26.352941 0 0 0-3.312942-52.525176zM641.204706 237.176471h-228.382118v105.411764h228.382118v-105.411764z" fill="#568af2" /></svg>