<svg class="icon" style="width: 1em;height: 1em;vertical-align: middle;fill: currentColor;overflow: hidden;" viewBox="0 0 1024 1024" version="1.1" xmlns="http://www.w3.org/2000/svg" width="32" height="32"><path d="M501.970824 124.235294c208.594824 0 377.705412 169.110588 377.705411 377.73553 0 208.594824-169.110588 377.705412-377.705411 377.705411-208.624941 0-377.735529-169.110588-377.73553-377.705411 0-208.624941 169.110588-377.735529 377.73553-377.73553z m-43.489883 259.704471l-74.541176 74.541176a61.500235 61.500235 0 0 0 0 86.949647l74.541176 74.541177c24.003765 24.003765 62.945882 24.003765 86.949647 0l74.541177-74.541177a61.500235 61.500235 0 0 0 0-86.949647l-74.541177-74.541176a61.500235 61.500235 0 0 0-86.949647 0z m49.694118 37.255529l74.541176 74.541177a8.794353 8.794353 0 0 1 0 12.438588l-74.541176 74.541176a8.794353 8.794353 0 0 1-12.438588 0l-74.511059-74.541176a8.794353 8.794353 0 0 1 0-12.438588l74.511059-74.541177a8.794353 8.794353 0 0 1 12.438588 0z" fill="#568af2" /></svg>