<svg class="icon" style="width: 1em;height: 1em;vertical-align: middle;fill: currentColor;overflow: hidden;" viewBox="0 0 1024 1024" version="1.1" xmlns="http://www.w3.org/2000/svg" width="32" height="32"><path d="M0 0h1024v1024H0z" fill="#568af2" fill-opacity="0" /><path d="M453.029647 804.382118m-61.500235 0a61.500235 61.500235 0 1 0 123.00047 0 61.500235 61.500235 0 1 0-123.00047 0Z" fill="#568af2" /><path d="M751.676235 804.382118m-61.500235 0a61.500235 61.500235 0 1 0 123.000471 0 61.500235 61.500235 0 1 0-123.000471 0Z" fill="#568af2" /><path d="M158.780235 166.098824a26.352941 26.352941 0 0 1 33.67153-8.975059l2.861176 1.65647 158.117647 105.411765a26.352941 26.352941 0 0 1 10.149647 12.860235l0.933647 3.222589 83.154824 365.989647h310.633412l72.342588-245.970824h-298.556235a26.352941 26.352941 0 0 1-26.172236-23.04l-0.180706-3.312941c0-13.402353 10.029176-24.515765 23.04-26.142118l3.312942-0.180706H865.882353c16.504471 0 28.641882 14.848 26.021647 30.629647l-0.752941 3.162353-87.823059 298.646589a26.352941 26.352941 0 0 1-21.835294 18.672941l-3.46353 0.240941H426.676706a26.352941 26.352941 0 0 1-24.786824-17.317647l-0.903529-3.192471-85.534118-376.259764-149.383529-99.568942a26.352941 26.352941 0 0 1-8.944941-33.671529l1.65647-2.861176z" fill="#568af2" /><path d="M813.176471 505.735529a26.352941 26.352941 0 0 1 3.312941 52.495059l-3.312941 0.210824h-281.088a26.352941 26.352941 0 0 1-3.312942-52.525177l3.312942-0.180706H813.176471z" fill="#568af2" /></svg>