<svg class="icon" style="width: 1em;height: 1em;vertical-align: middle;fill: currentColor;overflow: hidden;" viewBox="0 0 1024 1024" version="1.1" xmlns="http://www.w3.org/2000/svg" width="32" height="32"><path d="M818.206118 268.559059c33.942588 0 61.470118 27.527529 61.470117 61.470117v456.794353a61.500235 61.500235 0 0 1-61.470117 61.500236h-632.470589a61.500235 61.500235 0 0 1-61.500235-61.500236V330.029176c0-33.942588 27.527529-61.470118 61.500235-61.470117z m-209.769412 130.710588a26.352941 26.352941 0 0 0-37.25553 0l-69.24047 69.150118-69.180235-69.180236-2.710589-2.349176a26.352941 26.352941 0 0 0-34.575058 39.634823l60.416 60.416h-59.331765l-3.312941 0.210824a26.352941 26.352941 0 0 0 3.312941 52.495059h79.028706V602.352941h-79.028706l-3.312941 0.210824a26.352941 26.352941 0 0 0 3.312941 52.495059h79.028706v43.911529l0.210823 3.312941a26.352941 26.352941 0 0 0 52.525177-3.312941l-0.030118-43.911529h79.088941l3.312941-0.210824a26.352941 26.352941 0 0 0-3.312941-52.495059H528.263529v-52.705882h79.088942l3.312941-0.210824a26.352941 26.352941 0 0 0-3.312941-52.495059h-59.392l60.446117-60.416 2.349177-2.710588a26.352941 26.352941 0 0 0-2.349177-34.575059zM783.058824 163.117176a26.352941 26.352941 0 0 1 3.312941 52.495059l-3.312941 0.210824H220.852706a26.352941 26.352941 0 0 1-3.312941-52.525177l3.312941-0.180706H783.058824z" fill="#568af2" /></svg>