<svg class="icon" style="width: 1em;height: 1em;vertical-align: middle;fill: currentColor;overflow: hidden;" viewBox="0 0 1024 1024" version="1.1" xmlns="http://www.w3.org/2000/svg" width="32" height="32"><path d="M529.558588 128.963765l2.891294 2.319059 245.398589 227.900235a26.503529 26.503529 0 0 1 0.421647 0.361412l0.843294 0.813176 87.823059 87.823059a26.352941 26.352941 0 0 1-34.544942 39.634823l-2.710588-2.349176-42.887529-42.887529 0.030117 410.74447a26.352941 26.352941 0 0 1-23.04 26.172235l-3.312941 0.180706H268.559059a26.352941 26.352941 0 0 1-26.172235-23.04l-0.180706-3.312941-0.030118-410.74447-42.827294 42.887529a26.352941 26.352941 0 0 1-39.634824-34.575059l2.349177-2.710588 88.545882-88.515765 245.970824-228.382117a26.352941 26.352941 0 0 1 32.978823-2.319059z m55.024941 265.697882l-2.469647 2.590118-67.614117 81.106823-67.584-81.106823-2.469647-2.590118a26.352941 26.352941 0 0 0-40.116706 33.430588l2.108235 2.891294 51.802353 62.192942h-49.152l-3.312941 0.210823a26.352941 26.352941 0 0 0 0 52.284235l3.312941 0.210824h79.028706v52.705882h-79.028706l-3.312941 0.210824a26.352941 26.352941 0 0 0 0 52.284235l3.312941 0.210824h79.028706l0.030118 79.058823 0.210823 3.312941a26.352941 26.352941 0 0 0 52.314353 0l0.180706-3.312941v-79.058823h79.058823l3.312942-0.210824a26.352941 26.352941 0 0 0 0-52.284235l-3.312942-0.210824h-79.088941v-52.705882h79.088941l3.312942-0.210824a26.352941 26.352941 0 0 0 0-52.284235l-3.312942-0.210823h-49.152l51.832471-62.192942 2.108235-2.891294a26.352941 26.352941 0 0 0-40.116706-33.430588z" fill="#568af2" /></svg>