<svg class="icon" style="width: 1em;height: 1em;vertical-align: middle;fill: currentColor;overflow: hidden;" viewBox="0 0 1024 1024" version="1.1" xmlns="http://www.w3.org/2000/svg" width="32" height="32"><path d="M0 0h1024v1024H0z" fill="#568af2" fill-opacity="0" /><path d="M368.941176 184.470588a26.352941 26.352941 0 0 1 3.312942 52.495059l-3.312942 0.210824H237.176471v131.764705a26.352941 26.352941 0 0 1-23.04 26.142118l-3.312942 0.210824a26.352941 26.352941 0 0 1-26.142117-23.04l-0.210824-3.312942V210.823529c0-13.432471 10.059294-24.515765 23.04-26.142117L210.823529 184.470588h158.117647zM210.823529 658.823529c13.432471 0 24.515765 10.059294 26.142118 23.04l0.210824 3.312942v131.764705h131.764705c13.432471 0 24.515765 10.059294 26.142118 23.04l0.210824 3.312942a26.352941 26.352941 0 0 1-23.04 26.142117l-3.312942 0.210824H210.823529a26.352941 26.352941 0 0 1-26.142117-23.04L184.470588 843.294118v-158.117647c0-14.546824 11.806118-26.352941 26.352941-26.352942zM843.294118 658.823529c13.432471 0 24.515765 10.059294 26.142117 23.04l0.210824 3.312942V843.294118a26.352941 26.352941 0 0 1-23.04 26.142117l-3.312941 0.210824h-158.117647a26.352941 26.352941 0 0 1-3.312942-52.495059l3.312942-0.210824h131.764705V685.176471c0-13.432471 10.059294-24.515765 23.04-26.142118l3.312942-0.210824zM843.294118 184.470588c13.432471 0 24.515765 10.059294 26.142117 23.04l0.210824 3.312941v158.117647a26.352941 26.352941 0 0 1-52.495059 3.312942l-0.210824-3.312942V237.176471H685.176471a26.352941 26.352941 0 0 1-26.142118-23.04L658.823529 210.823529c0-13.432471 10.059294-24.515765 23.04-26.142117l3.312942-0.210824H843.294118zM773.029647 500.705882a26.352941 26.352941 0 0 1 3.312941 52.495059l-3.312941 0.210824H281.088a26.352941 26.352941 0 0 1-3.312941-52.495059l3.312941-0.210824h491.941647z" fill="#568af2" /></svg>