<svg class="icon" style="width: 1em;height: 1em;vertical-align: middle;fill: currentColor;overflow: hidden;" viewBox="0 0 1024 1024" version="1.1" xmlns="http://www.w3.org/2000/svg" width="32" height="32"><path d="M386.499765 184.470588a26.352941 26.352941 0 0 1 3.312941 52.495059l-3.312941 0.210824H245.970824a8.794353 8.794353 0 0 0-8.553412 6.77647l-0.240941 2.017883v140.528941a26.352941 26.352941 0 0 1-52.495059 3.312941l-0.210824-3.312941V245.970824c0-32.436706 25.088-58.970353 56.922353-61.31953l4.577883-0.180706h140.528941zM210.823529 641.264941c13.432471 0 24.515765 10.029176 26.142118 23.04l0.210824 3.312941v140.528942c0 4.156235 2.891294 7.649882 6.77647 8.553411l2.017883 0.240941h140.528941a26.352941 26.352941 0 0 1 3.312941 52.495059l-3.312941 0.210824H245.970824a61.500235 61.500235 0 0 1-61.31953-56.922353l-0.180706-4.577882v-140.528942c0-14.576941 11.806118-26.352941 26.352941-26.352941zM843.294118 641.264941c13.432471 0 24.515765 10.029176 26.142117 23.04l0.210824 3.312941v140.528942a61.500235 61.500235 0 0 1-56.922353 61.319529l-4.577882 0.180706h-140.528942a26.352941 26.352941 0 0 1-3.312941-52.495059l3.312941-0.210824h140.528942a8.794353 8.794353 0 0 0 8.553411-6.77647l0.240941-2.017882v-140.528942c0-14.576941 11.806118-26.352941 26.352942-26.352941zM808.146824 184.470588c32.436706 0 58.970353 25.088 61.319529 56.922353l0.180706 4.577883v140.528941a26.352941 26.352941 0 0 1-52.495059 3.312941l-0.210824-3.312941V245.970824a8.794353 8.794353 0 0 0-6.77647-8.553412l-2.017882-0.240941h-140.528942a26.352941 26.352941 0 0 1-3.312941-52.495059l3.312941-0.210824h140.528942zM527.058824 360.146824c13.432471 0 24.515765 10.059294 26.142117 23.070117l0.210824 3.312941v281.088a26.352941 26.352941 0 0 1-52.495059 3.312942l-0.210824-3.312942v-281.118117c0-14.546824 11.806118-26.352941 26.352942-26.352941z m140.559058 0c13.432471 0 24.515765 10.059294 26.142118 23.070117l0.210824 3.312941v281.088a26.352941 26.352941 0 0 1-52.525177 3.312942l-0.180706-3.312942v-281.118117c0-14.546824 11.776-26.352941 26.352941-26.352941z m-281.118117 0c13.432471 0 24.545882 10.059294 26.172235 23.070117l0.180706 3.312941v281.088a26.352941 26.352941 0 0 1-52.495059 3.312942l-0.210823-3.312942v-281.118117c0-14.546824 11.806118-26.352941 26.352941-26.352941z" fill="#568af2" /></svg>