<svg class="icon" style="width: 1em;height: 1em;vertical-align: middle;fill: currentColor;overflow: hidden;" viewBox="0 0 1024 1024" version="1.1" xmlns="http://www.w3.org/2000/svg" width="32" height="32"><path d="M760.470588 184.470588c13.432471 0 24.515765 10.059294 26.142118 23.04l0.210823 3.312941-0.030117 114.176h61.530353c13.432471 0 24.515765 10.059294 26.142117 23.070118l0.210824 3.312941v210.82353a26.352941 26.352941 0 0 1-52.525177 3.312941l-0.180705-3.312941-0.030118-184.500706H760.470588l-0.512-0.030118H269.010824l-0.451765 0.060235-0.512-0.060235-60.988235 0.030118v404.08847h641.264941c13.432471 0 24.515765 10.059294 26.142117 23.070118l0.210824 3.312941a26.352941 26.352941 0 0 1-23.070118 26.142118l-3.312941 0.180706H180.705882a26.352941 26.352941 0 0 1-26.142117-23.04l-0.210824-3.312941V351.382588c0-13.432471 10.059294-24.545882 23.04-26.172235l3.312941-0.180706 61.470118-0.030118V210.823529c0-13.432471 10.059294-24.515765 23.070118-26.142117l3.312941-0.210824H760.470588z m-142.787764 356.291765c10.842353 7.740235 14.064941 22.226824 8.011294 33.701647l-1.897412 3.041882-58.096941 81.317647h282.624c13.432471 0 24.515765 10.059294 26.142117 23.04l0.210824 3.312942a26.352941 26.352941 0 0 1-23.070118 26.142117l-3.312941 0.210824H514.529882a26.352941 26.352941 0 0 1-23.190588-38.851765l1.746824-2.831059 87.853176-122.970353a26.352941 26.352941 0 0 1 36.74353-6.113882z m-68.035765-110.320941a26.352941 26.352941 0 0 1 3.312941 52.495059l-3.312941 0.210823h-70.264471a26.352941 26.352941 0 0 1-3.312941-52.525176l3.312941-0.180706h70.264471z m-175.676235 0a26.352941 26.352941 0 0 1 3.312941 52.495059l-3.312941 0.210823h-70.294589a26.352941 26.352941 0 0 1-3.312941-52.525176l3.312941-0.180706h70.294589z" fill="#568af2" /></svg>