<svg class="icon" style="width: 1em;height: 1em;vertical-align: middle;fill: currentColor;overflow: hidden;" viewBox="0 0 1024 1024" version="1.1" xmlns="http://www.w3.org/2000/svg" width="32" height="32"><path d="M734.117647 180.705882a79.058824 79.058824 0 0 1 78.908235 74.059294l0.150589 4.99953 0.030117 101.135059a79.119059 79.119059 0 0 1 52.525177 69.571764l0.150588 4.969412v175.706353c0 34.394353-21.985882 63.668706-52.675765 74.541177L813.176471 786.823529a79.058824 79.058824 0 0 1-74.059295 78.908236l-4.999529 0.150588H259.764706a79.058824 79.058824 0 0 1-78.908235-74.059294L180.705882 786.823529v-527.058823a79.058824 79.058824 0 0 1 74.059294-78.908235L259.764706 180.705882h474.352941z m52.705882 228.382118h-245.970823a26.352941 26.352941 0 0 0-26.142118 23.070118l-0.210823 3.312941v175.676235c0 13.432471 10.059294 24.515765 23.070117 26.142118l3.312942 0.210823h245.940705a26.352941 26.352941 0 0 0 26.142118-23.070117l0.210824-3.312942v-175.676235a26.352941 26.352941 0 0 0-26.352942-26.352941z m-158.117647 79.058824a35.147294 35.147294 0 1 1 0 70.294588 35.147294 35.147294 0 0 1 0-70.294588z" fill="#568af2" /></svg>