<svg class="icon" style="width: 1em;height: 1em;vertical-align: middle;fill: currentColor;overflow: hidden;" viewBox="0 0 1024 1024" version="1.1" xmlns="http://www.w3.org/2000/svg" width="32" height="32"><path d="M743.725176 154.352941c7.137882 0 13.914353 2.891294 18.853648 7.920941l2.288941 2.680471L864.376471 298.465882c0.602353 0.843294 1.024 1.445647 1.415529 2.108236l-1.415529-2.108236a26.563765 26.563765 0 0 1 5.029647 12.468706l0.210823 3.312941V813.176471a61.500235 61.500235 0 0 1-56.922353 61.319529l-4.577882 0.180706H245.970824a61.500235 61.500235 0 0 1-61.31953-56.922353L184.470588 813.176471V314.217412c0-4.517647 1.144471-8.734118 3.132236-12.468706l0.150588-0.271059 0.542117-0.903529a26.413176 26.413176 0 0 1 1.204706-1.867294L189.741176 298.465882l99.538824-133.511529a26.352941 26.352941 0 0 1 17.588706-10.360471l3.553882-0.240941h433.332706z m-83.937882 249.464471a26.352941 26.352941 0 0 0-26.352941 26.352941c0 59.241412-47.646118 107.188706-106.375529 107.188706s-106.375529-47.947294-106.37553-107.188706a26.352941 26.352941 0 1 0-52.705882 0c0 88.274824 71.168 159.894588 159.081412 159.894588 87.883294 0 159.081412-71.619765 159.081411-159.894588a26.352941 26.352941 0 0 0-26.352941-26.352941z m70.716235-196.758588H323.584L263.318588 287.864471h527.420236l-60.235295-80.805647z" fill="#568af2" /></svg>