<svg class="icon" style="width: 1em;height: 1em;vertical-align: middle;fill: currentColor;overflow: hidden;" viewBox="0 0 1024 1024" version="1.1" xmlns="http://www.w3.org/2000/svg" width="32" height="32"><path d="M813.176471 124.235294c13.432471 0 24.515765 10.059294 26.142117 23.04l0.210824 3.312941v245.970824a26.352941 26.352941 0 0 1-23.04 26.142117l-3.312941 0.210824-79.058824-0.030118v430.441412a26.352941 26.352941 0 0 1-23.04 26.172235l-3.312941 0.180706h-421.647059a26.352941 26.352941 0 0 1-26.142118-23.04l-0.210823-3.312941V422.881882H180.705882a26.352941 26.352941 0 0 1-26.142117-23.04l-0.210824-3.312941V150.588235c0-13.432471 10.059294-24.515765 23.04-26.142117L180.705882 124.235294h632.470589z m-246.15153 287.984941l-2.499765 2.590118-67.584 81.106823-67.584-81.106823-2.499764-2.590118a26.352941 26.352941 0 0 0-40.116706 33.430589l2.108235 2.891294 51.802353 62.192941H391.529412l-3.312941 0.210823a26.352941 26.352941 0 0 0 0 52.314353l3.312941 0.180706h79.058823v52.705883H391.529412l-3.312941 0.210823a26.352941 26.352941 0 0 0 0 52.314353l3.312941 0.180706h79.058823v79.058823l0.210824 3.312942a26.352941 26.352941 0 0 0 52.284235 0l0.210824-3.312942v-79.058823H602.352941l3.312941-0.180706a26.352941 26.352941 0 0 0 0-52.314353l-3.312941-0.210823h-79.058823v-52.705883H602.352941l3.312941-0.180706a26.352941 26.352941 0 0 0 0-52.314353l-3.312941-0.210823h-49.152l51.802353-62.192941 2.108235-2.891294a26.352941 26.352941 0 0 0-40.086588-33.430589z m105.592471-182.573176H321.264941l-3.312941 0.210823a26.352941 26.352941 0 0 0 0 52.284236l3.312941 0.210823h351.352471l3.312941-0.210823a26.352941 26.352941 0 0 0-3.312941-52.495059z" fill="#568af2" /></svg>