<svg class="icon" style="width: 1em;height: 1em;vertical-align: middle;fill: currentColor;overflow: hidden;" viewBox="0 0 1024 1024" version="1.1" xmlns="http://www.w3.org/2000/svg" width="32" height="32"><path d="M879.676235 818.206118a61.500235 61.500235 0 0 1-56.892235 61.319529l-4.577882 0.150588h-632.470589A61.500235 61.500235 0 0 1 124.385882 822.814118l-0.180706-4.577883V326.264471c0-32.406588 25.088-58.970353 56.922353-61.31953l4.577883-0.150588 202.480941-0.030118 237.327059-137.005176a26.352941 26.352941 0 0 1 34.183529 6.896941l1.807059 2.740706 73.547294 127.367529h83.124706c32.406588 0 58.970353 25.118118 61.319529 56.922353l0.150589 4.577883v491.941647z m-52.705882-360.207059l-127.367529 0.030117c-65.204706 0-118.573176 50.838588-118.573177 114.206118s53.368471 114.206118 118.573177 114.206118l127.367529-0.030118v-228.382118z m0 52.736v122.970353h-127.367529c-36.653176 0-65.867294-27.798588-65.867295-61.470118l0.150589-4.367059c2.409412-31.653647 30.659765-57.133176 65.716706-57.133176h127.367529zM629.067294 186.578824l-134.686118 77.763764 179.681883 0.180706-44.995765-77.94447z" fill="#568af2" /></svg>