<svg class="icon" style="width: 1em;height: 1em;vertical-align: middle;fill: currentColor;overflow: hidden;" viewBox="0 0 1024 1024" version="1.1" xmlns="http://www.w3.org/2000/svg" width="32" height="32"><path d="M874.676706 768a61.500235 61.500235 0 0 1-56.922353 61.319529l-4.577882 0.180706H215.853176a61.500235 61.500235 0 0 1-61.319529-56.922353l-0.180706-4.577882V381.500235c0-31.021176 22.919529-56.621176 52.705883-60.867764v-4.186353c0-51.260235 34.394353-98.605176 98.665411-101.707294l6.746353-0.150589h254.735059c53.609412 0 102.610824 35.659294 112.429177 105.411765H813.176471c32.406588 0 58.970353 25.088 61.319529 56.922353l0.180706 4.577882V768zM821.910588 442.970353h-289.852235a26.352941 26.352941 0 0 0-26.352941 26.352941V662.588235c0 14.546824 11.776 26.352941 26.352941 26.352941h289.852235v-245.970823z m0 52.705882v140.559059h-263.529412v-140.559059h263.529412z m-140.528941 43.941647a26.352941 26.352941 0 1 0 0 52.705883 26.352941 26.352941 0 0 0 0-52.705883z m-114.206118-272.323764h-254.735058c-33.852235 0-50.868706 20.178824-52.555295 44.995764l-0.150588 4.156236v3.553882h366.411294c-7.288471-34.936471-29.545412-51.109647-55.024941-52.585412l-3.915294-0.12047z" fill="#568af2" /></svg>