<svg class="icon" style="width: 1em;height: 1em;vertical-align: middle;fill: currentColor;overflow: hidden;" viewBox="0 0 1024 1024" version="1.1" xmlns="http://www.w3.org/2000/svg" width="32" height="32"><path d="M839.529412 210.823529h-632.470588a26.352941 26.352941 0 0 0-25.539765 32.737883l87.823059 351.382588c2.951529 11.745882 13.492706 19.968 25.6 19.968h456.764235a26.352941 26.352941 0 0 0 25.569882-19.968l87.823059-351.382588A26.352941 26.352941 0 0 0 839.529412 210.823529zM294.912 632.470588a79.058824 79.058824 0 1 0 0 158.117647 79.058824 79.058824 0 0 0 0-158.117647z m456.794353 0a79.058824 79.058824 0 1 0 0 158.117647 79.058824 79.058824 0 0 0 0-158.117647z" fill="#568af2" /></svg>