<svg class="icon" style="width: 1em;height: 1em;vertical-align: middle;fill: currentColor;overflow: hidden;" viewBox="0 0 1024 1024" version="1.1" xmlns="http://www.w3.org/2000/svg" width="32" height="32"><path d="M849.558588 426.676706a26.352941 26.352941 0 0 1 3.312941 52.495059l-3.312941 0.210823H146.823529a26.352941 26.352941 0 0 1-3.312941-52.525176l3.312941-0.180706h702.735059zM181.970824 180.705882c13.432471 0 24.515765 10.059294 26.142117 23.04l0.210824 3.312942v140.559058a26.352941 26.352941 0 0 1-52.525177 3.312942l-0.180706-3.312942V207.058824c0-14.546824 11.776-26.352941 26.352942-26.352942z m0 351.292236c13.432471 0 24.515765 10.059294 26.142117 23.04l0.210824 3.312941v210.883765a26.352941 26.352941 0 0 1-52.525177 3.312941l-0.180706-3.312941V558.381176c0-14.546824 11.776-26.352941 26.352942-26.352941zM434.959059 180.705882c13.432471 0 24.515765 10.059294 26.142117 23.04l0.210824 3.312942v140.559058a26.352941 26.352941 0 0 1-52.525176 3.312942l-0.180706-3.312942V207.058824c0-14.546824 11.776-26.352941 26.352941-26.352942z m0 351.382589c13.432471 0 24.515765 10.029176 26.142117 23.04l0.210824 3.312941v281.088a26.352941 26.352941 0 0 1-52.525176 3.312941l-0.180706-3.312941v-281.088c0-14.576941 11.776-26.352941 26.352941-26.352941zM687.947294 180.705882c13.432471 0 24.515765 10.059294 26.142118 23.04l0.210823 3.312942v140.559058a26.352941 26.352941 0 0 1-52.525176 3.312942l-0.180706-3.312942V207.058824c0-14.546824 11.776-26.352941 26.352941-26.352942z m126.494118 0c13.432471 0 24.515765 10.059294 26.142117 23.04l0.210824 3.312942v140.559058a26.352941 26.352941 0 0 1-52.525177 3.312942l-0.180705-3.312942V207.058824c0-14.546824 11.776-26.352941 26.352941-26.352942z m-126.494118 351.382589c13.432471 0 24.515765 10.029176 26.142118 23.04l0.210823 3.312941v140.528941a26.352941 26.352941 0 0 1-52.525176 3.312941l-0.180706-3.312941v-140.528941c0-14.576941 11.776-26.352941 26.352941-26.352941zM308.464941 180.705882c13.432471 0 24.515765 10.059294 26.142118 23.04l0.210823 3.312942v140.559058a26.352941 26.352941 0 0 1-52.525176 3.312942l-0.180706-3.312942V207.058824c0-14.546824 11.776-26.352941 26.352941-26.352942z m0 351.382589c13.432471 0 24.515765 10.029176 26.142118 23.04l0.210823 3.312941v140.528941a26.352941 26.352941 0 0 1-52.525176 3.312941l-0.180706-3.312941v-140.528941c0-14.576941 11.776-26.352941 26.352941-26.352941zM561.453176 180.705882c13.432471 0 24.515765 10.059294 26.142118 23.04l0.210824 3.312942v140.559058a26.352941 26.352941 0 0 1-52.525177 3.312942l-0.180706-3.312942V207.058824c0-14.546824 11.776-26.352941 26.352941-26.352942z m0 351.382589c13.432471 0 24.515765 10.029176 26.142118 23.04l0.210824 3.312941v140.528941a26.352941 26.352941 0 0 1-52.525177 3.312941l-0.180706-3.312941v-140.528941c0-14.576941 11.776-26.352941 26.352941-26.352941z m252.988236 0c13.432471 0 24.515765 10.029176 26.142117 23.04l0.210824 3.312941v210.823529a26.352941 26.352941 0 0 1-52.525177 3.312941l-0.180705-3.312941v-210.823529c0-14.576941 11.776-26.352941 26.352941-26.352941z" fill="#568af2" /></svg>