<svg class="icon" style="width: 1em;height: 1em;vertical-align: middle;fill: currentColor;overflow: hidden;" viewBox="0 0 1024 1024" version="1.1" xmlns="http://www.w3.org/2000/svg" width="32" height="32"><path d="M853.323294 184.470588c14.576941 0 26.352941 11.806118 26.352941 26.352941v198.776471c0 11.143529-6.987294 21.082353-17.468235 24.786824a70.264471 70.264471 0 0 0-46.381176 66.319058c0 30.087529 18.823529 56.500706 46.381176 66.319059a26.352941 26.352941 0 0 1 17.468235 24.816941v198.746353a26.352941 26.352941 0 0 1-26.352941 26.352941H150.588235a26.352941 26.352941 0 0 1-26.352941-26.352941v-198.77647c0-11.143529 7.017412-21.082353 17.498353-24.786824a70.264471 70.264471 0 0 0 46.381177-66.319059c0-30.087529-18.853647-56.500706-46.381177-66.319058a26.352941 26.352941 0 0 1-17.498353-24.816942V210.823529c0-14.546824 11.806118-26.352941 26.352941-26.352941zM308.705882 377.735529a26.352941 26.352941 0 0 0-26.352941 26.352942v193.234823l0.210824 3.312941a26.352941 26.352941 0 0 0 52.495059-3.312941v-193.234823l-0.210824-3.312942a26.352941 26.352941 0 0 0-26.142118-23.04z m140.559059 0h-52.705882a26.352941 26.352941 0 0 0-26.352941 26.352942v193.234823l0.180706 3.312941a26.352941 26.352941 0 0 0 52.525176-3.312941v-61.470118h26.352941l4.99953-0.150588a79.058824 79.058824 0 0 0-4.99953-157.967059z m193.234824 17.558589c-47.224471 0-79.058824 53.007059-79.058824 114.206117 0 61.138824 31.834353 114.176 79.058824 114.176 47.284706 0 79.058824-53.007059 79.058823-114.176 0-61.199059-31.804235-114.206118-79.058823-114.206117z m0 52.705882c10.992941 0 26.352941 25.630118 26.352941 61.500235 0 35.84-15.36 61.470118-26.352941 61.470118-10.962824 0-26.352941-25.6-26.352941-61.470118 0-35.84 15.390118-61.500235 26.352941-61.500235z m-219.587765-17.588706h26.352941l3.312941 0.210824a26.352941 26.352941 0 0 1-3.312941 52.525176l-26.352941-0.030118v-52.705882z" fill="#568af2" /></svg>