<svg class="icon" style="width: 1em;height: 1em;vertical-align: middle;fill: currentColor;overflow: hidden;" viewBox="0 0 1024 1024" version="1.1" xmlns="http://www.w3.org/2000/svg" width="32" height="32"><path d="M584.794353 133.029647c51.501176 0 93.635765 40.327529 96.466823 91.136l0.150589 5.481412v35.147294c0 15.811765-3.794824 30.750118-10.541177 43.941647l1.746824-0.030118c19.215059 0 36.352 8.794353 47.616 22.588236H722.823529v3.403294c6.294588 8.854588 10.270118 19.456 11.14353 30.900706l0.150588 4.608 0.030118 137.035294a184.470588 184.470588 0 1 1-188.837647 293.376H215.823059a61.500235 61.500235 0 0 1-61.289412-56.892236l-0.180706-4.577882v-368.941176c0-32.436706 25.088-58.970353 56.922353-61.31953l4.577882-0.180706 1.746824 0.030118a96.075294 96.075294 0 0 1-10.390588-38.460235l-0.150588-5.481412V229.647059c0-51.501176 40.357647-93.635765 91.136-96.466824l5.481411-0.150588h281.118118z m105.411765 421.647059a131.764706 131.764706 0 1 0 0 263.529412 131.764706 131.764706 0 0 0 0-263.529412z m-17.588706 52.705882c13.432471 0 24.545882 10.029176 26.172235 23.04l0.180706 3.312941V677.647059h43.941647c13.432471 0 24.515765 10.059294 26.142118 23.04l0.210823 3.312941a26.352941 26.352941 0 0 1-23.070117 26.142118l-3.312942 0.210823h-70.26447a26.352941 26.352941 0 0 1-26.142118-23.04l-0.210823-3.312941v-70.264471c0-14.576941 11.806118-26.352941 26.352941-26.352941z m-360.146824-421.647059h-8.794353c-22.829176 0-41.562353 17.408-43.700706 39.695059l-0.210823 4.216471v35.147294c0 22.829176 17.408 41.562353 39.695059 43.700706l4.21647 0.210823h10.300236a26.202353 26.202353 0 0 1-1.295059-5.481411l-0.210824-3.312942V185.735529z m210.82353 0h-52.705883v114.176a26.322824 26.322824 0 0 1-1.505882 8.824471h55.717647a26.202353 26.202353 0 0 1-1.295059-5.511529l-0.210823-3.312942V185.735529z m-105.411765 0h-52.705882v114.176a26.322824 26.322824 0 0 1-1.505883 8.824471h55.717647a26.202353 26.202353 0 0 1-1.295059-5.511529l-0.210823-3.312942V185.735529z m166.912 0h-8.794353v114.176a26.322824 26.322824 0 0 1-1.505882 8.824471l10.300235-0.030118c22.829176 0 41.562353-17.408 43.700706-39.695058l0.210823-4.216471V229.647059c0-24.244706-19.666824-43.911529-43.911529-43.91153z" fill="#568af2" /></svg>