<svg class="icon" style="width: 1em;height: 1em;vertical-align: middle;fill: currentColor;overflow: hidden;" viewBox="0 0 1024 1024" version="1.1" xmlns="http://www.w3.org/2000/svg" width="32" height="32"><path d="M826.970353 244.705882c32.436706 0 58.970353 25.088 61.319529 56.922353l0.180706 4.577883v421.647058a61.500235 61.500235 0 0 1-56.922353 61.31953l-4.577882 0.150588h-632.470588a61.500235 61.500235 0 0 1-61.31953-56.892235l-0.150588-4.577883v-421.647058c0-32.436706 25.088-58.970353 56.892235-61.31953l4.577883-0.180706h632.470588z m-87.823059 333.793883h-140.559059l-3.312941 0.210823a26.352941 26.352941 0 0 0 0 52.314353l3.312941 0.180706h140.559059l3.312941-0.180706a26.352941 26.352941 0 0 0-3.312941-52.525176z m96.617412-158.117647H185.735529v52.705882H835.764706v-52.705882z" fill="#568af2" /></svg>