<svg class="icon" style="width: 1em;height: 1em;vertical-align: middle;fill: currentColor;overflow: hidden;" viewBox="0 0 1024 1024" version="1.1" xmlns="http://www.w3.org/2000/svg" width="32" height="32"><path d="M0 0h1024v1024H0z" fill="#568af2" fill-opacity="0" /><path d="M795.617882 184.470588a79.058824 79.058824 0 0 1 78.908236 74.059294l0.150588 4.99953v281.088a26.352941 26.352941 0 0 1-52.525177 3.312941l-0.180705-3.312941V263.529412a26.352941 26.352941 0 0 0-23.070118-26.142118l-3.312941-0.210823H233.411765a26.352941 26.352941 0 0 0-26.142118 23.04l-0.210823 3.312941v491.911529c0 13.432471 10.059294 24.545882 23.04 26.172235l3.312941 0.180706h359.634823a26.352941 26.352941 0 0 1 3.312941 52.525177l-3.312941 0.180706H233.411765a79.058824 79.058824 0 0 1-78.908236-74.059294l-0.150588-4.99953V263.529412a79.058824 79.058824 0 0 1 74.059294-78.908236l4.99953-0.150588h562.206117z m-19.215058 391.860706l2.710588 2.379294 88.304941 88.304941 0.632471 0.692706 0.361411 0.421647-1.054117-1.14447 1.325176 1.475764 1.054118 1.355295a28.009412 28.009412 0 0 1 3.072 5.662117l0.512 1.355294a26.473412 26.473412 0 0 1-4.005647 24.274824l-0.632471 0.783059a26.503529 26.503529 0 0 1-1.264941 1.445647l-88.304941 88.304941a26.352941 26.352941 0 0 1-39.634824-34.544941l2.349177-2.710588 42.857411-42.857412h-147.184941a26.352941 26.352941 0 0 1-3.312941-52.495059l3.312941-0.210824h147.184941l-42.857411-42.857411a26.352941 26.352941 0 0 1-2.349177-34.575059l2.379294-2.710588a26.352941 26.352941 0 0 1 34.544942-2.349177z m-227.448471-245.217882c10.24 8.553412 12.348235 23.220706 5.481412 34.243764l-2.108236 2.891295-51.83247 62.162823h49.152a26.352941 26.352941 0 0 1 3.312941 52.525177l-3.312941 0.210823-79.058824-0.030118v52.705883h79.058824a26.352941 26.352941 0 0 1 3.312941 52.525176l-3.312941 0.210824-79.058824-0.030118v79.088941a26.352941 26.352941 0 0 1-52.495059 3.312942l-0.210823-3.312942V588.498824H338.823529a26.352941 26.352941 0 0 1-3.312941-52.495059l3.312941-0.180706 79.058824-0.030118v-52.705882H338.823529a26.352941 26.352941 0 0 1-3.312941-52.495059l3.312941-0.180706 49.121883-0.030118-51.802353-62.162823a26.352941 26.352941 0 0 1 38.00847-36.352l2.499765 2.620235 67.584 81.076706 67.584-81.076706a26.352941 26.352941 0 0 1 37.135059-3.403294z" fill="#568af2" /></svg>