<svg class="icon" style="width: 1em;height: 1em;vertical-align: middle;fill: currentColor;overflow: hidden;" viewBox="0 0 1024 1024" version="1.1" xmlns="http://www.w3.org/2000/svg" width="32" height="32"><path d="M853.323294 184.470588c13.432471 0 24.545882 10.059294 26.172235 23.04l0.180706 3.312941v210.82353a26.352941 26.352941 0 0 1-23.04 26.142117l-3.312941 0.210824H776.432941l102.309647 370.718118a26.352941 26.352941 0 0 1-22.196706 33.159529l-3.222588 0.210824H150.588235a26.352941 26.352941 0 0 1-25.389176-33.370353L227.388235 448H150.588235a26.352941 26.352941 0 0 1-26.142117-23.04L124.235294 421.647059V210.823529c0-13.432471 10.059294-24.515765 23.04-26.142117L150.588235 184.470588h702.735059z m-26.352941 52.705883H176.941176v158.117647h65.054118l23.732706-86.076236a26.352941 26.352941 0 0 1 21.895529-19.094588l3.523765-0.240941h421.647059c11.836235 0 22.226824 7.920941 25.389176 19.335529l23.732706 86.076236h65.054118v-158.117647z" fill="#568af2" /></svg>