<svg class="icon" style="width: 1em;height: 1em;vertical-align: middle;fill: currentColor;overflow: hidden;" viewBox="0 0 1024 1024" version="1.1" xmlns="http://www.w3.org/2000/svg" width="32" height="32"><path d="M761.374118 628.705882c13.432471 0 24.515765 10.059294 26.142117 23.04l0.210824 3.312942-0.030118 60.596705h60.626824a26.352941 26.352941 0 0 1 3.312941 52.525177l-3.312941 0.180706h-60.626824v62.373647a26.352941 26.352941 0 0 1-52.495059 3.312941l-0.180706-3.312941-0.030117-62.373647h-62.34353a26.352941 26.352941 0 0 1-3.312941-52.495059l3.312941-0.210824h62.34353V655.058824c0-14.546824 11.806118-26.352941 26.383059-26.352942z m-0.90353-474.352941a79.058824 79.058824 0 0 1 78.908236 74.059294l0.150588 4.99953v263.529411a26.352941 26.352941 0 0 1-52.495059 3.312942l-0.210824-3.312942V233.411765a26.352941 26.352941 0 0 0-23.04-26.142118l-3.312941-0.210823H233.411765a26.352941 26.352941 0 0 0-26.142118 23.04l-0.210823 3.312941v527.058823c0 13.432471 10.059294 24.515765 23.04 26.142118l3.312941 0.210823h263.529411a26.352941 26.352941 0 0 1 3.312942 52.495059l-3.312942 0.210824H233.411765a79.058824 79.058824 0 0 1-78.908236-74.059294l-0.150588-4.99953V233.411765a79.058824 79.058824 0 0 1 74.059294-78.908236l4.99953-0.150588h527.058823zM496.941176 277.323294a114.206118 114.206118 0 0 1 82.401883 193.264941c60.325647 27.226353 102.068706 83.546353 102.068706 149.323294a26.352941 26.352941 0 1 1-52.705883 0c0-62.343529-58.337882-114.176-131.764706-114.176-73.426824 0-131.764706 51.862588-131.764705 114.176a26.352941 26.352941 0 1 1-52.705883 0c0-65.776941 41.743059-122.096941 102.068706-149.383529A114.206118 114.206118 0 0 1 496.941176 277.323294z" fill="#568af2" /></svg>