<svg class="icon" style="width: 1em;height: 1em;vertical-align: middle;fill: currentColor;overflow: hidden;" viewBox="0 0 1024 1024" version="1.1" xmlns="http://www.w3.org/2000/svg" width="32" height="32"><path d="M768 124.235294H240.941176A26.352941 26.352941 0 0 0 214.588235 150.588235v105.411765c0 11.926588 8.041412 22.377412 19.576471 25.449412l263.529412 70.294588c4.427294 1.204706 9.125647 1.204706 13.552941 0l263.529412-70.294588a26.352941 26.352941 0 0 0 19.57647-25.449412V150.588235a26.352941 26.352941 0 0 0-26.352941-26.352941z m0 228.382118c13.432471 0 24.515765 10.059294 26.142118 23.070117l0.210823 3.312942v474.352941a26.352941 26.352941 0 0 1-23.04 26.142117l-3.312941 0.180706H240.941176a26.352941 26.352941 0 0 1-26.142117-23.04l-0.210824-3.312941v-474.352941a26.352941 26.352941 0 0 1 52.495059-3.312941l0.210824 3.312941v448h474.352941V378.970353c0-13.432471 10.059294-24.515765 23.04-26.142118l3.312941-0.210823z m-158.810353 41.261176c10.24 8.523294 12.348235 23.190588 5.481412 34.213647l-2.108235 2.891294-51.832471 62.192942h49.152a26.352941 26.352941 0 0 1 3.312941 52.495058l-3.312941 0.210824h-79.058824v52.705882h79.058824a26.352941 26.352941 0 0 1 3.312941 52.495059l-3.312941 0.210824h-79.058824v79.058823a26.352941 26.352941 0 0 1-52.495058 3.312941l-0.210824-3.312941v-79.058823H399.058824a26.352941 26.352941 0 0 1-3.312942-52.495059l3.312942-0.210824h79.058823v-52.705882H399.058824a26.352941 26.352941 0 0 1-3.312942-52.495059l3.312942-0.210823h49.121882l-51.802353-62.192942a26.352941 26.352941 0 0 1 38.008471-36.321882l2.499764 2.590118 67.584 81.076706 67.584-81.076706a26.352941 26.352941 0 0 1 37.135059-3.373177z" fill="#568af2" /></svg>