<svg class="icon" style="width: 1em;height: 1em;vertical-align: middle;fill: currentColor;overflow: hidden;" viewBox="0 0 1024 1024" version="1.1" xmlns="http://www.w3.org/2000/svg" width="32" height="32"><path d="M853.323294 214.588235c14.576941 0 26.352941 11.806118 26.352941 26.352941v140.559059a26.352941 26.352941 0 0 1-21.172706 25.840941l-5.029647 1.084236-10.842353 2.800941-9.185882 2.650353c-19.215059 5.752471-38.430118 13.071059-56.169412 21.925647-46.923294 23.491765-73.276235 52.434824-73.276235 86.226823 0 33.792 26.352941 62.765176 73.276235 86.256942a354.093176 354.093176 0 0 0 60.928 23.311058l8.432941 2.349177 6.836706 1.686588 5.029647 1.114353c12.318118 2.469647 21.172706 13.251765 21.172706 25.840941v140.559059a26.352941 26.352941 0 0 1-26.352941 26.352941H150.588235a26.352941 26.352941 0 0 1-26.352941-26.352941V240.941176c0-14.546824 11.806118-26.352941 26.352941-26.352941z m0 281.088a26.352941 26.352941 0 0 1 3.312941 52.525177l-3.312941 0.180706h-35.117176a26.352941 26.352941 0 0 1-3.312942-52.495059l3.312942-0.210824h35.117176z" fill="#568af2" /></svg>