<svg class="icon" style="width: 1em;height: 1em;vertical-align: middle;fill: currentColor;overflow: hidden;" viewBox="0 0 1024 1024" version="1.1" xmlns="http://www.w3.org/2000/svg" width="32" height="32"><path d="M519.318588 124.235294c138.992941 0 254.765176 53.428706 254.765177 131.764706 0 33.551059-21.232941 62.524235-56.410353 84.690824 62.855529 80.896 114.266353 183.838118 155.527529 299.971764 41.863529 117.790118-46.622118 234.857412-172.574117 238.923294l-6.776471 0.090353H343.943529c-129.264941 0-221.575529-118.663529-179.2-238.290823 41.140706-116.043294 92.732235-219.196235 156.190118-300.724706-35.177412-22.166588-56.380235-51.139765-56.380235-84.660706 0-78.305882 115.772235-131.764706 254.735059-131.764706z m89.47953 321.596235l-2.710589 2.349177-86.768941 86.799059-86.768941-86.799059-2.710588-2.349177a26.352941 26.352941 0 0 0-36.924235 36.924236l2.349176 2.710588 60.446118 60.416h-41.803294l-3.312942 0.210823a26.352941 26.352941 0 0 0 0 52.284236l3.312942 0.210823h79.209411v52.705883h-79.209411l-3.312942 0.210823a26.352941 26.352941 0 0 0 0 52.284235l3.312942 0.210824h79.209411v43.911529l0.210824 3.312942a26.352941 26.352941 0 0 0 52.314353 0l0.180706-3.312942v-43.911529h78.908235l3.312941-0.210824a26.352941 26.352941 0 0 0 0-52.284235l-3.312941-0.210823h-78.908235v-52.705883h78.908235l3.312941-0.210823a26.352941 26.352941 0 0 0 0-52.284236l-3.312941-0.210823h-41.803294l60.446117-60.416 2.349177-2.710588a26.352941 26.352941 0 0 0-36.924235-36.924236z" fill="#568af2" /></svg>