<svg class="icon" style="width: 1em;height: 1em;vertical-align: middle;fill: currentColor;overflow: hidden;" viewBox="0 0 1024 1024" version="1.1" xmlns="http://www.w3.org/2000/svg" width="32" height="32"><path d="M800.617412 124.235294a79.058824 79.058824 0 0 1 78.908235 74.059294l0.150588 4.99953v456.794353a79.058824 79.058824 0 0 1-74.059294 78.908235l-4.999529 0.150588-26.352941-0.030118v61.500236a79.058824 79.058824 0 0 1-74.059295 78.908235l-4.999529 0.150588H203.294118a79.058824 79.058824 0 0 1-78.908236-74.059294l-0.150588-4.999529V308.705882a79.058824 79.058824 0 0 1 74.059294-78.908235l4.99953-0.150588h61.470117V203.294118a79.058824 79.058824 0 0 1 74.089412-78.908236l4.999529-0.150588h456.764236z m-261.872941 233.743059l-2.710589 2.379294-86.799058 86.738824-86.738824-86.738824-2.710588-2.379294a26.352941 26.352941 0 0 0-36.924236 36.924235l2.349177 2.710588 95.533176 95.563295h-94.479058l-3.312942 0.210823a26.352941 26.352941 0 0 0 0 52.284235l3.312942 0.210824h96.617411v52.705882h-96.617411l-3.312942 0.210824a26.352941 26.352941 0 0 0 0 52.284235l3.312942 0.210824h96.617411v61.500235l0.210824 3.312941a26.352941 26.352941 0 0 0 52.314353 0l0.210823-3.312941-0.030117-61.500235H572.235294l3.312941-0.210824a26.352941 26.352941 0 0 0 0-52.284235l-3.312941-0.210824h-96.647529v-52.705882H572.235294l3.312941-0.210824a26.352941 26.352941 0 0 0 0-52.284235l-3.312941-0.210823h-94.509176l95.563294-95.563295 2.379294-2.710588a26.352941 26.352941 0 0 0-36.924235-36.924235z m261.872941-181.037177H343.853176a26.352941 26.352941 0 0 0-26.172235 23.04l-0.180706 3.312942-0.030117 26.352941h377.735529a79.058824 79.058824 0 0 1 78.908235 74.059294l0.150589 4.999529v377.705412h26.352941a26.352941 26.352941 0 0 0 26.172235-23.04l0.180706-3.312941V203.294118a26.352941 26.352941 0 0 0-23.04-26.142118l-3.312941-0.210824z" fill="#568af2" /></svg>