<svg class="icon" style="width: 1em;height: 1em;vertical-align: middle;fill: currentColor;overflow: hidden;" viewBox="0 0 1024 1024" version="1.1" xmlns="http://www.w3.org/2000/svg" width="32" height="32"><path d="M150.588235 651.294118c13.432471 0 24.515765 10.059294 26.142118 23.04l0.210823 3.312941v149.323294h149.323295c13.432471 0 24.545882 10.059294 26.172235 23.070118l0.180706 3.312941a26.352941 26.352941 0 0 1-23.04 26.142117l-3.312941 0.180706H150.588235a26.352941 26.352941 0 0 1-26.142117-23.04l-0.210824-3.312941V677.647059c0-14.546824 11.806118-26.352941 26.352941-26.352941z m702.735059 0c13.432471 0 24.545882 10.059294 26.172235 23.04l0.180706 3.312941v175.676235a26.352941 26.352941 0 0 1-23.04 26.172235l-3.312941 0.180706H677.647059a26.352941 26.352941 0 0 1-3.312941-52.495059l3.312941-0.210823h149.323294V677.647059c0-13.432471 10.059294-24.515765 23.070118-26.142118l3.312941-0.210823z m-192.150588 7.710117a26.352941 26.352941 0 0 1 0 37.285647c-8.282353 8.252235-22.859294 19.666824-43.369412 30.840471a239.585882 239.585882 0 0 1-115.83247 29.575529 239.585882 239.585882 0 0 1-115.832471-29.575529c-20.540235-11.173647-35.117176-22.588235-43.369412-30.840471a26.352941 26.352941 0 0 1 34.575059-39.634823l6.836706 6.113882c5.782588 4.879059 14.968471 11.444706 27.196235 18.070588 26.503529 14.486588 56.862118 23.160471 90.593883 23.160471s64.060235-8.673882 90.593882-23.130353c15.721412-8.583529 26.383059-16.926118 31.322353-21.865412a26.352941 26.352941 0 0 1 37.255529 0zM677.647059 299.911529c13.432471 0 24.515765 10.059294 26.142117 23.070118l0.210824 3.312941V361.411765a26.352941 26.352941 0 0 1-52.495059 3.312941l-0.210823-3.312941v-35.147294c0-14.546824 11.806118-26.352941 26.352941-26.352942z m175.676235-175.676235c13.432471 0 24.545882 10.059294 26.172235 23.04l0.180706 3.312941v175.676236a26.352941 26.352941 0 0 1-52.495059 3.312941l-0.210823-3.312941V176.941176H677.647059a26.352941 26.352941 0 0 1-26.142118-23.04L651.294118 150.588235c0-13.432471 10.059294-24.515765 23.04-26.142117l3.312941-0.210824h175.676235z m-527.058823 175.676235c13.432471 0 24.545882 10.059294 26.172235 23.070118l0.180706 3.312941V361.411765a26.352941 26.352941 0 0 1-52.495059 3.312941L299.911529 361.411765v-35.147294c0-14.546824 11.806118-26.352941 26.352942-26.352942z m0-175.676235a26.352941 26.352941 0 0 1 3.312941 52.495059l-3.312941 0.210823H176.941176v149.323295a26.352941 26.352941 0 0 1-23.04 26.172235l-3.312941 0.180706a26.352941 26.352941 0 0 1-26.142117-23.04l-0.210824-3.312941V150.588235c0-13.432471 10.059294-24.515765 23.04-26.142117L150.588235 124.235294h175.676236z m175.706353 175.676235c13.432471 0 24.515765 10.059294 26.142117 23.070118l0.210824 3.312941v158.117647c0 47.947294-43.760941 93.364706-91.497412 96.436706l-5.12 0.180706h-17.588706a26.352941 26.352941 0 0 1-3.312941-52.525176l3.312941-0.180706h17.558588c19.395765 0 41.200941-20.690824 43.670589-40.267294l0.271058-3.674353v-158.117647c0-14.546824 11.776-26.352941 26.352942-26.352942z" fill="#568af2" /></svg>