<svg class="icon" style="width: 1em;height: 1em;vertical-align: middle;fill: currentColor;overflow: hidden;" viewBox="0 0 1024 1024" version="1.1" xmlns="http://www.w3.org/2000/svg" width="32" height="32"><path d="M507.120941 128.873412a26.352941 26.352941 0 0 1 29.846588 0l9.487059 6.806588 11.083294 8.312471a971.294118 971.294118 0 0 1 124.506353 113.995294c91.858824 100.472471 147.456 206.426353 147.456 314.247529 0 169.803294-137.637647 307.440941-307.471059 307.440941-169.803294 0-307.440941-137.637647-307.440941-307.440941 0-107.821176 55.597176-213.775059 147.456-314.247529a971.294118 971.294118 0 0 1 132.156236-119.777883l3.433411-2.529882z m26.714353 279.250823a26.352941 26.352941 0 0 0-35.358118 11.776l-70.294588 140.559059-1.325176 3.102118A26.352941 26.352941 0 0 0 451.764706 598.588235h97.882353l-51.2 102.4-1.264941 3.072a26.352941 26.352941 0 0 0 48.429176 20.510118l70.264471-140.559059 1.325176-3.102118a26.352941 26.352941 0 0 0-24.877176-35.026823h-97.942589l51.230118-102.4 1.295059-3.072a26.352941 26.352941 0 0 0-13.071059-32.286118z" fill="#568af2" /></svg>