<svg class="icon" style="width: 1em;height: 1em;vertical-align: middle;fill: currentColor;overflow: hidden;" viewBox="0 0 1024 1024" version="1.1" xmlns="http://www.w3.org/2000/svg" width="32" height="32"><path d="M487.996235 190.253176a26.352941 26.352941 0 0 1 32.948706 0l263.529412 210.82353a26.352941 26.352941 0 0 1 9.878588 20.570353v421.647059a26.352941 26.352941 0 0 1-26.352941 26.352941H240.941176A26.352941 26.352941 0 0 1 214.588235 843.294118V421.647059c0-8.011294 3.614118-15.570824 9.878589-20.570353z m-106.074353 415.864471a26.503529 26.503529 0 0 0-2.198588 0.060235l-1.536 0.150589a26.232471 26.232471 0 0 0-3.312941 0.63247l-0.391529 0.090353a26.112 26.112 0 0 0-8.493177 4.096l-0.421647 0.331294-0.692706 0.542118a26.503529 26.503529 0 0 0-1.566118 1.385412l-0.451764 0.421647a26.864941 26.864941 0 0 0-5.872941 8.944941 26.262588 26.262588 0 0 0 3.102117 25.057882l0.421647 0.602353 0.602353 0.752941a26.503529 26.503529 0 0 0 1.295059 1.445647l0.451765 0.481883 87.853176 87.823059 2.710588 2.379294a26.352941 26.352941 0 0 0 34.544942-39.634824l-42.827294-42.857412h182.302117l3.312941-0.210823a26.352941 26.352941 0 0 0-3.312941-52.495059z m173.628236-187.904a26.352941 26.352941 0 0 0-34.575059 39.634824l42.827294 42.857411h-182.302118l-3.312941 0.210824a26.352941 26.352941 0 0 0 3.312941 52.495059h245.940706l3.312941-0.210824a26.232471 26.232471 0 0 0 3.312942-0.63247l0.391529-0.090353a26.112 26.112 0 0 0 8.493176-4.096l0.421647-0.331294 0.692706-0.542118a26.503529 26.503529 0 0 0 1.566118-1.385412l0.451765-0.421647a26.864941 26.864941 0 0 0 5.872941-8.944941 26.262588 26.262588 0 0 0-3.102118-25.057882l-0.421647-0.602353-0.602353-0.752942a26.503529 26.503529 0 0 0-1.295059-1.445647l-0.451764-0.481882-87.853177-87.823059z" fill="#568af2" /></svg>