<svg class="icon" style="width: 1em;height: 1em;vertical-align: middle;fill: currentColor;overflow: hidden;" viewBox="0 0 1024 1024" version="1.1" xmlns="http://www.w3.org/2000/svg" width="32" height="32"><path d="M826.970353 214.588235c32.436706 0 58.970353 25.088 61.319529 56.922353l0.180706 4.577883V768a61.500235 61.500235 0 0 1-56.922353 61.319529l-4.577882 0.180706h-632.470588a61.500235 61.500235 0 0 1-61.31953-56.922353l-0.150588-4.577882V276.088471c0-32.436706 25.088-58.970353 56.892235-61.31953l4.577883-0.180706h632.470588z m-105.411765 421.647059h-158.117647l-3.312941 0.210824a26.352941 26.352941 0 0 0 0 52.284235l3.312941 0.210823h158.117647l3.312941-0.210823a26.352941 26.352941 0 0 0-3.312941-52.495059z m114.206118-281.118118H185.735529v52.705883H835.764706v-52.705883z" fill="#568af2" /></svg>