<svg class="icon" style="width: 1em;height: 1em;vertical-align: middle;fill: currentColor;overflow: hidden;" viewBox="0 0 1024 1024" version="1.1" xmlns="http://www.w3.org/2000/svg" width="32" height="32"><path d="M879.676235 722.823529a26.352941 26.352941 0 0 1-23.04 26.142118l-3.312941 0.210824H150.588235a26.352941 26.352941 0 0 1-26.142117-23.04L124.235294 722.823529V301.176471c0-13.432471 10.059294-24.515765 23.04-26.142118L150.588235 274.823529h702.735059c13.432471 0 24.545882 10.059294 26.172235 23.04l0.180706 3.312942v421.647058zM184.500706 559.375059l-0.030118 54.362353 0.90353 0.301176a114.447059 114.447059 0 0 1 74.300235 74.902588h54.362353a167.092706 167.092706 0 0 0-129.536-129.566117z m505.374118 129.566117h54.362352l0.301177-0.903529a114.447059 114.447059 0 0 1 74.902588-74.300235v-54.362353a167.092706 167.092706 0 0 0-129.566117 129.566117z m-187.934118-308.705882c-64.210824 0-114.176 59.934118-114.176 131.764706s49.965176 131.764706 114.206118 131.764706 114.176-59.934118 114.176-131.764706-49.935059-131.764706-114.176-131.764706z m0 52.705882c32.828235 0 61.500235 34.454588 61.500235 79.058824s-28.702118 79.058824-61.470117 79.058824c-32.798118 0-61.500235-34.454588-61.500236-79.058824s28.702118-79.058824 61.500236-79.058824z m-187.904-97.882352H259.644235l-0.271059 0.903529a114.447059 114.447059 0 0 1-74.87247 74.300235v54.362353a167.092706 167.092706 0 0 0 129.536-129.536z m430.230588 0h-54.39247a167.092706 167.092706 0 0 0 129.566117 129.566117v-54.39247l-0.903529-0.271059a114.447059 114.447059 0 0 1-74.270118-74.872471z" fill="#568af2" /></svg>