<svg class="icon" style="width: 1em;height: 1em;vertical-align: middle;fill: currentColor;overflow: hidden;" viewBox="0 0 1024 1024" version="1.1" xmlns="http://www.w3.org/2000/svg" width="32" height="32"><path d="M409.088 154.352941a114.145882 114.145882 0 0 1 98.273882 55.958588 96.617412 96.617412 0 0 1 145.950118 119.747765h107.158588a79.058824 79.058824 0 0 1 78.908236 74.029177l0.150588 4.999529v386.529882a79.058824 79.058824 0 0 1-74.059294 78.908236l-4.99953 0.150588H233.411765a79.058824 79.058824 0 0 1-78.908236-74.089412l-0.150588-4.969412V409.088a79.058824 79.058824 0 0 1 74.059294-78.908235l4.99953-0.150589 79.450353 0.030118a114.206118 114.206118 0 0 1 96.225882-175.706353z m377.735529 544.617412H207.058824v96.647529l0.240941 3.614118a26.383059 26.383059 0 0 0 16.293647 20.841412l3.312941 1.084235 3.192471 0.602353 3.312941 0.210824h527.058823l3.312941-0.210824a26.383059 26.383059 0 0 0 22.166589-19.365647l0.662588-3.493647 0.210823-3.312941v-96.617412zM409.088 207.058824a61.500235 61.500235 0 1 0 0 122.970352 61.500235 61.500235 0 0 0 0-122.970352z m158.117647 35.147294a43.911529 43.911529 0 1 0 0 87.823058 43.911529 43.911529 0 0 0 0-87.823058z" fill="#568af2" /></svg>