<svg class="icon" style="width: 1em;height: 1em;vertical-align: middle;fill: currentColor;overflow: hidden;" viewBox="0 0 1024 1024" version="1.1" xmlns="http://www.w3.org/2000/svg" width="32" height="32"><path d="M317.289412 450.379294a26.352941 26.352941 0 0 1-16.504471 30.689882l-3.162353 0.933648-48.519529 11.324235 134.083765 126.403765 0.542117-0.090353 127.698824-18.552471 3.102117-0.752941a26.352941 26.352941 0 0 1 28.732236 14.697412l1.204706 3.102117 40.176941 124.385883a26.352941 26.352941 0 0 1-16.805647 33.129411l-3.222589 0.843294-205.161411 39.966118a26.352941 26.352941 0 0 1-20.690824-4.668235l-2.800941-2.379294-203.806118-199.68a26.352941 26.352941 0 0 1-7.107764-25.298824l1.084235-3.312941 45.17647-112.278588a26.352941 26.352941 0 0 1 14.968471-14.757647l3.493647-1.054118 95.894588-22.347294a26.352941 26.352941 0 0 1 31.62353 19.696941z m482.575059 100.291765a26.352941 26.352941 0 0 1 31.021176 18.462117l34.334118 119.657412a26.352941 26.352941 0 0 1-20.269177 33.129412l-162.243764 31.653647a26.352941 26.352941 0 0 1-31.201883-29.093647l15.570824-126.343529a26.352941 26.352941 0 0 1 20.449882-22.497883zM484.231529 188.235294l2.800942 1.92753 204.980705 162.394352c3.312941 2.650353 5.963294 6.023529 7.68 9.878589l1.144471 2.951529 40.237177 129.626353a26.352941 26.352941 0 0 1-17.016471 32.888471l-3.192471 0.813176-191.789176 36.653177-3.493647 0.421647a26.352941 26.352941 0 0 1-16.444235-4.638118l-2.740706-2.198588-222.659765-202.992941a26.413176 26.413176 0 0 1-2.56-2.680471l-0.722824-0.903529a26.292706 26.292706 0 0 1-5.330823-15.480471v-1.385412a26.202353 26.202353 0 0 1 1.505882-7.740235l1.144471-2.831059 47.284706-97.129412 0.602353-1.14447a24.545882 24.545882 0 0 1 1.686588-2.650353l1.566118-1.987765 2.288941-2.349176-1.837177 1.837176 0.963765-0.993882a26.352941 26.352941 0 0 1 1.656471-1.505883l0.843294-0.662588 0.843294-0.602353a23.762824 23.762824 0 0 1 3.011764-1.807059l0.301177-0.180705 1.505882-0.692706a26.322824 26.322824 0 0 1 2.831059-1.024l1.445647-0.361412 121.886118-28.521412a26.352941 26.352941 0 0 1 19.57647 3.072z" fill="#568af2" /></svg>