<svg class="icon" style="width: 1em;height: 1em;vertical-align: middle;fill: currentColor;overflow: hidden;" viewBox="0 0 1024 1024" version="1.1" xmlns="http://www.w3.org/2000/svg" width="32" height="32"><path d="M795.617882 184.470588a114.206118 114.206118 0 0 1 114.176 114.206118v421.647059a114.206118 114.206118 0 0 1-114.176 114.176h-527.058823a114.206118 114.206118 0 0 1-114.206118-114.176v-421.647059a114.206118 114.206118 0 0 1 114.206118-114.206118z m-139.504941 148.269177a26.352941 26.352941 0 0 0-37.255529 0l-86.799059 86.738823-86.738824-86.738823-2.710588-2.349177a26.352941 26.352941 0 0 0-34.575059 39.604706l95.533177 95.563294h-94.479059l-3.312941 0.210824a26.352941 26.352941 0 0 0 3.312941 52.495059h96.617412v52.705882h-96.617412l-3.312941 0.210823a26.352941 26.352941 0 0 0 3.312941 52.495059h96.617412v61.500236l0.210823 3.312941a26.352941 26.352941 0 0 0 52.525177-3.312941l-0.030118-61.500236h96.64753l3.312941-0.180706a26.352941 26.352941 0 0 0-3.312941-52.525176h-96.64753v-52.705882h96.64753l3.312941-0.180706a26.352941 26.352941 0 0 0-3.312941-52.525177h-94.509177l95.563294-95.563294 2.379294-2.710588a26.352941 26.352941 0 0 0-2.379294-34.544941z" fill="#568af2" /></svg>