<svg class="icon" style="width: 1em;height: 1em;vertical-align: middle;fill: currentColor;overflow: hidden;" viewBox="0 0 1024 1024" version="1.1" xmlns="http://www.w3.org/2000/svg" width="32" height="32"><path d="M281.088 229.647059c13.432471 0 24.545882 10.059294 26.172235 23.04l0.180706 3.312941v149.323294h43.941647c13.432471 0 24.515765 10.059294 26.142118 23.070118l0.210823 3.312941V677.647059a26.352941 26.352941 0 0 1-26.352941 26.352941H210.823529a26.352941 26.352941 0 0 1-26.352941-26.352941v-245.970824c0-14.546824 11.806118-26.352941 26.352941-26.352941h43.91153V256c0-14.546824 11.806118-26.352941 26.352941-26.352941z m316.235294 70.26447c14.576941 0 26.352941 11.806118 26.352941 26.352942V783.058824a26.352941 26.352941 0 0 1-26.352941 26.352941h-43.911529v43.911529a26.352941 26.352941 0 0 1-52.495059 3.312941l-0.210824-3.312941v-43.911529h-43.911529a26.352941 26.352941 0 0 1-26.172235-23.04l-0.180706-3.312941V326.264471c0-14.546824 11.776-26.352941 26.352941-26.352942z m175.706353-175.676235c13.432471 0 24.515765 10.059294 26.142118 23.04l0.210823 3.312941-0.030117 114.176H843.294118c13.432471 0 24.515765 10.059294 26.142117 23.070118l0.210824 3.312941v158.117647a26.352941 26.352941 0 0 1-26.352941 26.352941l-43.941647-0.030117V677.647059a26.352941 26.352941 0 0 1-52.495059 3.312941l-0.180706-3.312941-0.030118-202.059294h-43.911529a26.352941 26.352941 0 0 1-26.142118-23.04l-0.210823-3.312941v-158.117648c0-14.546824 11.806118-26.322824 26.352941-26.322823l43.911529-0.030118V150.588235c0-14.546824 11.806118-26.352941 26.383059-26.352941z" fill="#568af2" /></svg>