<svg class="icon" style="width: 1em;height: 1em;vertical-align: middle;fill: currentColor;overflow: hidden;" viewBox="0 0 1024 1024" version="1.1" xmlns="http://www.w3.org/2000/svg" width="32" height="32"><path d="M909.793882 803.147294a26.352941 26.352941 0 0 1-23.04 26.142118l-3.312941 0.210823H180.705882a26.352941 26.352941 0 0 1-26.142117-23.070117l-0.210824-3.312942V240.941176c0-13.432471 10.059294-24.515765 23.04-26.142117L180.705882 214.588235h702.735059c13.432471 0 24.545882 10.059294 26.172235 23.04l0.180706 3.312941v562.206118z m-553.411764-219.617882h-35.117177l-3.312941 0.210823a26.352941 26.352941 0 0 0 0 52.284236l3.312941 0.210823h35.117177l3.312941-0.210823a26.352941 26.352941 0 0 0-3.312941-52.495059z m140.559058 0h-35.147294l-3.312941 0.210823a26.352941 26.352941 0 0 0 0 52.284236l3.312941 0.210823H496.941176l3.312942-0.210823a26.352941 26.352941 0 0 0-3.312942-52.495059z m140.559059 0H602.352941l-3.312941 0.210823a26.352941 26.352941 0 0 0 0 52.284236l3.312941 0.210823h35.147294l3.312941-0.210823a26.352941 26.352941 0 0 0-3.312941-52.495059z m219.587765-316.235294H207.058824v122.970353h650.029176V267.294118z" fill="#568af2" /></svg>