<svg class="icon" style="width: 1em;height: 1em;vertical-align: middle;fill: currentColor;overflow: hidden;" viewBox="0 0 1024 1024" version="1.1" xmlns="http://www.w3.org/2000/svg" width="32" height="32"><path d="M681.411765 395.294118c32.406588 0 58.970353 25.088 61.319529 56.922353l0.180706 4.577882v316.235294a61.500235 61.500235 0 0 1-56.922353 61.319529l-4.577882 0.150589H224.617412a61.500235 61.500235 0 0 1-61.31953-56.892236l-0.150588-4.577882v-316.235294c0-32.436706 25.088-58.970353 56.892235-61.319529l4.577883-0.180706h456.794353z m-228.382118 263.529411h-140.559059l-3.312941 0.210824a26.352941 26.352941 0 0 0 0 52.284235l3.312941 0.210824h140.559059l3.312941-0.210824a26.352941 26.352941 0 0 0-3.312941-52.495059z m140.528941 0h-35.117176l-3.312941 0.210824a26.352941 26.352941 0 0 0 0 52.284235l3.312941 0.210824h35.117176l3.312941-0.210824a26.352941 26.352941 0 0 0-3.312941-52.495059z m263.529412-474.352941c32.436706 0 58.970353 25.088 61.319529 56.922353l0.180706 4.577883v316.235294a61.500235 61.500235 0 0 1-56.922353 61.319529l-4.577882 0.150588h-35.117176a26.352941 26.352941 0 0 1-3.312942-52.495059l3.312942-0.210823h35.117176a8.794353 8.794353 0 0 0 8.553412-6.746353l0.240941-2.017882v-316.235294a8.794353 8.794353 0 0 0-6.776471-8.553412l-2.017882-0.240941H400.323765a8.794353 8.794353 0 0 0-8.553412 6.77647L391.529412 245.970824V316.235294a26.352941 26.352941 0 0 1-52.495059 3.312941l-0.210824-3.312941V245.970824c0-32.436706 25.088-58.970353 56.922353-61.31953l4.577883-0.180706h456.764235z m-166.881882 368.941177H215.853176v52.705882h474.352942v-52.705882z" fill="#568af2" /></svg>