<svg class="icon" style="width: 1em;height: 1em;vertical-align: middle;fill: currentColor;overflow: hidden;" viewBox="0 0 1024 1024" version="1.1" xmlns="http://www.w3.org/2000/svg" width="32" height="32"><path d="M504.952471 130.529882a26.352941 26.352941 0 0 1 34.183529 0c192.692706 164.231529 290.334118 319.608471 290.334118 467.245177 0 156.310588-138.149647 281.901176-307.440942 281.901176-169.261176 0-307.440941-125.590588-307.440941-281.901176 0-147.636706 97.671529-303.013647 290.334118-467.245177z m125.680941 264.553412a26.352941 26.352941 0 0 0-37.25553 0.813177l-71.348706 74.420705-71.318588-74.420705-2.650353-2.409412a26.352941 26.352941 0 0 0-35.388235 38.851765l77.733647 81.167058h-73.788235l-3.312941 0.210824a26.352941 26.352941 0 0 0 3.312941 52.525176l79.058823-0.030117v41.622588h-79.058823l-3.312941 0.210823a26.352941 26.352941 0 0 0 3.312941 52.495059h79.058823v52.254118l0.210824 3.312941a26.352941 26.352941 0 0 0 52.495059-3.312941v-52.254118h79.058823l3.312941-0.210823a26.352941 26.352941 0 0 0-3.312941-52.495059h-79.058823V566.211765h79.058823l3.312941-0.180706a26.352941 26.352941 0 0 0-3.312941-52.525177h-73.788235l77.763765-81.167058 2.319058-2.740706a26.352941 26.352941 0 0 0-3.102117-34.514824z" fill="#568af2" /></svg>