<svg class="icon" style="width: 1em;height: 1em;vertical-align: middle;fill: currentColor;overflow: hidden;" viewBox="0 0 1024 1024" version="1.1" xmlns="http://www.w3.org/2000/svg" width="32" height="32"><path d="M426.676706 184.470588H180.705882A26.352941 26.352941 0 0 0 154.352941 210.823529v245.970824c0 14.546824 11.806118 26.352941 26.352941 26.352941h245.970824a26.352941 26.352941 0 0 0 26.352941-26.352941V210.823529a26.352941 26.352941 0 0 0-26.352941-26.352941z m0 386.499765H180.705882a26.352941 26.352941 0 0 0-26.352941 26.352941V843.294118c0 14.546824 11.806118 26.352941 26.352941 26.352941h245.970824a26.352941 26.352941 0 0 0 26.352941-26.352941v-245.970824a26.352941 26.352941 0 0 0-26.352941-26.352941zM813.176471 184.470588h-245.970824a26.352941 26.352941 0 0 0-26.352941 26.352941v245.970824c0 14.546824 11.806118 26.352941 26.352941 26.352941H813.176471a26.352941 26.352941 0 0 0 26.352941-26.352941V210.823529A26.352941 26.352941 0 0 0 813.176471 184.470588z m-228.382118 386.499765c13.432471 0 24.515765 10.059294 26.142118 23.070118l0.210823 3.312941V843.294118a26.352941 26.352941 0 0 1-52.525176 3.312941l-0.180706-3.312941v-245.970824c0-14.546824 11.776-26.352941 26.352941-26.352941z m210.823529 0c13.432471 0 24.515765 10.059294 26.142118 23.070118l0.210824 3.312941V843.294118a26.352941 26.352941 0 0 1-52.525177 3.312941l-0.180706-3.312941v-245.970824c0-14.546824 11.776-26.352941 26.352941-26.352941z" fill="#568af2" /></svg>