<svg class="icon" style="width: 1em;height: 1em;vertical-align: middle;fill: currentColor;overflow: hidden;" viewBox="0 0 1024 1024" version="1.1" xmlns="http://www.w3.org/2000/svg" width="32" height="32"><path d="M286.117647 202.029176c9.487059 0 18.160941 5.12 22.799059 13.161412l1.566118 3.162353 116.254117 282.352941h274.010353l124.325647-232.05647a26.352941 26.352941 0 0 1 32.677647-12.16753l3.011765 1.385412c11.836235 6.324706 16.865882 20.449882 12.167529 32.677647l-1.385411 3.011765-131.764706 245.940706a26.352941 26.352941 0 0 1-19.636706 13.673412l-3.614118 0.240941-293.345882-0.030118-35.117177 52.736h407.552c13.432471 0 24.515765 10.059294 26.142118 23.04l0.210824 3.312941a26.352941 26.352941 0 0 1-23.070118 26.142118l-3.312941 0.210823H338.823529a26.352941 26.352941 0 0 1-23.582117-38.159058l1.65647-2.800942 62.464-93.756235-110.923294-269.372235H180.705882a26.352941 26.352941 0 0 1-26.142117-23.04l-0.210824-3.312941c0-13.432471 10.059294-24.515765 23.04-26.142118L180.705882 202.029176h105.411765z m281.088-17.558588c13.432471 0 24.545882 10.059294 26.172235 23.04l0.180706 3.312941v79.058824h79.058824a26.352941 26.352941 0 0 1 3.312941 52.495059l-3.312941 0.210823h-79.058824V421.647059a26.352941 26.352941 0 0 1-52.495059 3.312941l-0.210823-3.312941v-79.058824h-79.058824a26.352941 26.352941 0 0 1-3.312941-52.495059l3.312941-0.210823h79.058824V210.823529c0-14.546824 11.806118-26.352941 26.352941-26.352941z m-140.528941 527.058824a79.058824 79.058824 0 1 0 0 158.117647 79.058824 79.058824 0 0 0 0-158.117647z m281.088 0a79.058824 79.058824 0 1 0 0 158.117647 79.058824 79.058824 0 0 0 0-158.117647z" fill="#568af2" /></svg>