<svg class="icon" style="width: 1em;height: 1em;vertical-align: middle;fill: currentColor;overflow: hidden;" viewBox="0 0 1024 1024" version="1.1" xmlns="http://www.w3.org/2000/svg" width="32" height="32"><path d="M514.499765 154.352941c113.543529 0 206.155294 92.611765 218.262588 210.82353h115.561412c15.149176 0 26.925176 12.649412 26.322823 27.376941l-0.301176 3.19247-73.788236 456.764236a26.352941 26.352941 0 0 1-22.829176 21.985882l-3.192471 0.180706H254.494118a26.352941 26.352941 0 0 1-25.298824-19.034353l-0.722823-3.132235-73.788236-456.764236a26.352941 26.352941 0 0 1 22.829177-30.388706L180.705882 365.176471h115.531294c12.107294-118.211765 104.749176-210.823529 218.262589-210.82353z m85.504 501.007059l-2.017883 2.650353-1.234823 1.746823a99.147294 99.147294 0 0 1-18.974118 18.130824 103.002353 103.002353 0 0 1-63.247059 21.082353 103.002353 103.002353 0 0 1-63.247058-21.082353c-10.541176-7.890824-17.408-15.600941-20.269177-19.877647a26.352941 26.352941 0 1 0-43.851294 29.214118c5.933176 8.914824 16.655059 20.961882 32.466823 32.828235a155.316706 155.316706 0 0 0 94.870589 31.623529 155.316706 155.316706 0 0 0 94.870588-31.623529c15.841882-11.866353 26.533647-23.913412 32.466823-32.828235a26.352941 26.352941 0 0 0-41.863529-31.864471zM391.529412 514.499765a35.147294 35.147294 0 1 0 0 70.294588 35.147294 35.147294 0 0 0 0-70.294588z m245.970823 0a35.147294 35.147294 0 1 0 0 70.294588 35.147294 35.147294 0 0 0 0-70.294588zM514.499765 207.058824c-83.606588 0-153.6 68.367059-165.195294 158.117647h330.420705c-11.595294-89.750588-81.588706-158.117647-165.225411-158.117647z" fill="#568af2" /></svg>