<svg class="icon" style="width: 1em;height: 1em;vertical-align: middle;fill: currentColor;overflow: hidden;" viewBox="0 0 1024 1024" version="1.1" xmlns="http://www.w3.org/2000/svg" width="32" height="32"><path d="M475.587765 493.146353v333.824h52.705882V493.146353h298.676706v360.207059a26.352941 26.352941 0 0 1-23.04 26.142117l-3.312941 0.180706H203.294118a26.352941 26.352941 0 0 1-26.142118-23.04l-0.210824-3.312941V493.176471h298.646589z m185.554823-361.200941c9.426824 9.456941 10.24 24.244706 2.349177 34.575059l-2.349177 2.710588L565.609412 264.734118h287.744c13.432471 0 24.545882 10.059294 26.172235 23.070117l0.180706 3.312941v140.528942a26.352941 26.352941 0 0 1-23.04 26.172235l-3.312941 0.180706H150.588235a26.352941 26.352941 0 0 1-26.142117-23.04l-0.210824-3.312941V291.147294c0-13.432471 10.059294-24.545882 23.04-26.172235L150.588235 264.794353l287.713883-0.030118-95.533177-95.533176a26.352941 26.352941 0 0 1 34.575059-39.634824l2.710588 2.349177 121.886118 121.886117 121.946353-121.886117a26.352941 26.352941 0 0 1 37.255529 0z" fill="#568af2" /></svg>