<svg class="icon" style="width: 1em;height: 1em;vertical-align: middle;fill: currentColor;overflow: hidden;" viewBox="0 0 1024 1024" version="1.1" xmlns="http://www.w3.org/2000/svg" width="32" height="32"><path d="M790.588235 184.470588a79.058824 79.058824 0 0 1 79.058824 79.058824v527.058823a79.058824 79.058824 0 0 1-79.058824 79.058824H263.529412a79.058824 79.058824 0 0 1-79.058824-79.058824V263.529412A79.058824 79.058824 0 0 1 263.529412 184.470588z m-69.210353 148.269177a26.352941 26.352941 0 0 0-37.255529 0L332.739765 684.122353l-2.349177 2.710588a26.352941 26.352941 0 0 0 39.604706 34.544941l351.382588-351.382588 2.349177-2.710588a26.352941 26.352941 0 0 0-2.349177-34.544941z m-1.054117 290.93647H579.764706l-3.312941 0.210824a26.352941 26.352941 0 0 0 3.312941 52.495059h140.559059l3.312941-0.180706a26.352941 26.352941 0 0 0-3.312941-52.525177z m-316.235294-316.235294a26.352941 26.352941 0 0 0-26.352942 26.352941l-0.030117 43.91153h-43.91153l-3.312941 0.210823a26.352941 26.352941 0 0 0 3.312941 52.525177l43.91153-0.030118v43.941647l0.210823 3.312941a26.352941 26.352941 0 0 0 52.525177-3.312941l-0.030118-43.941647h43.941647l3.312941-0.180706a26.352941 26.352941 0 0 0-3.312941-52.495059l-43.941647-0.030117v-43.91153l-0.180706-3.312941a26.352941 26.352941 0 0 0-26.142117-23.04z" fill="#568af2" /></svg>