<svg class="icon" style="width: 1em;height: 1em;vertical-align: middle;fill: currentColor;overflow: hidden;" viewBox="0 0 1024 1024" version="1.1" xmlns="http://www.w3.org/2000/svg" width="32" height="32"><path d="M391.529412 184.470588H180.705882A26.352941 26.352941 0 0 0 154.352941 210.823529v210.82353c0 14.546824 11.806118 26.352941 26.352941 26.352941h210.82353a26.352941 26.352941 0 0 0 26.352941-26.352941V210.823529A26.352941 26.352941 0 0 0 391.529412 184.470588z m0 421.647059H180.705882a26.352941 26.352941 0 0 0-26.352941 26.352941v210.82353c0 14.546824 11.806118 26.352941 26.352941 26.352941h210.82353a26.352941 26.352941 0 0 0 26.352941-26.352941v-210.82353a26.352941 26.352941 0 0 0-26.352941-26.352941z m421.647059-421.647059h-210.82353a26.352941 26.352941 0 0 0-26.352941 26.352941v210.82353c0 14.546824 11.806118 26.352941 26.352941 26.352941h210.82353a26.352941 26.352941 0 0 0 26.352941-26.352941V210.823529A26.352941 26.352941 0 0 0 813.176471 184.470588z m-316.235295 0c13.432471 0 24.515765 10.059294 26.142118 23.04l0.210824 3.312941v210.82353a26.352941 26.352941 0 0 1-52.495059 3.312941l-0.210824-3.312941V210.823529c0-14.546824 11.806118-26.352941 26.352941-26.352941z m316.235295 316.235294a26.352941 26.352941 0 0 1 3.312941 52.495059l-3.312941 0.210824H180.705882a26.352941 26.352941 0 0 1-3.312941-52.495059l3.312941-0.210824h632.470589z m-140.559059 105.411765c13.432471 0 24.545882 10.059294 26.172235 23.04l0.180706 3.312941v210.82353a26.352941 26.352941 0 0 1-52.495059 3.312941l-0.210823-3.312941v-210.82353c0-14.546824 11.806118-26.352941 26.352941-26.352941z m140.559059 0c13.432471 0 24.515765 10.059294 26.142117 23.04l0.210824 3.312941v210.82353a26.352941 26.352941 0 0 1-52.495059 3.312941l-0.210824-3.312941v-210.82353c0-14.546824 11.806118-26.352941 26.352942-26.352941z m-281.088 0c13.432471 0 24.515765 10.059294 26.142117 23.04l0.210824 3.312941v210.82353a26.352941 26.352941 0 0 1-52.525177 3.312941l-0.180706-3.312941v-210.82353c0-14.546824 11.776-26.352941 26.352942-26.352941z" fill="#568af2" /></svg>