<svg class="icon" style="width: 1em;height: 1em;vertical-align: middle;fill: currentColor;overflow: hidden;" viewBox="0 0 1024 1024" version="1.1" xmlns="http://www.w3.org/2000/svg" width="32" height="32"><path d="M0 0h1024v1024H0z" fill="#568af2" fill-opacity="0" /><path d="M795.617882 184.470588a79.058824 79.058824 0 0 1 78.908236 74.059294l0.150588 4.99953v281.088a26.352941 26.352941 0 0 1-52.525177 3.312941l-0.180705-3.312941V263.529412a26.352941 26.352941 0 0 0-23.070118-26.142118l-3.312941-0.210823H233.411765a26.352941 26.352941 0 0 0-26.142118 23.04l-0.210823 3.312941v491.911529c0 13.432471 10.059294 24.545882 23.04 26.172235l3.312941 0.180706h359.634823a26.352941 26.352941 0 0 1 3.312941 52.525177l-3.312941 0.180706H233.411765a79.058824 79.058824 0 0 1-78.908236-74.059294l-0.150588-4.99953V263.529412a79.058824 79.058824 0 0 1 74.059294-78.908236l4.99953-0.150588h562.206117z m-51.651764 394.24c9.426824 9.426824 10.24 24.214588 2.349176 34.544941l-2.349176 2.710589-42.88753 42.857411h147.245177a26.352941 26.352941 0 0 1 3.312941 52.495059l-3.312941 0.210824H701.138824l42.827294 42.857412c9.426824 9.426824 10.24 24.244706 2.349176 34.575058l-2.349176 2.710589a26.352941 26.352941 0 0 1-34.575059 2.349176l-2.710588-2.379294-88.274824-88.304941-0.602353-0.662588 0.602353 0.662588-1.024-1.144471-1.325176-1.65647a29.063529 29.063529 0 0 1-3.072-5.662118 26.262588 26.262588 0 0 1 3.523764-25.630118l0.602353-0.783059 1.295059-1.445647 88.274824-88.304941a26.352941 26.352941 0 0 1 37.285647 0z m-195.011765-247.567059c10.24 8.523294 12.348235 23.190588 5.481412 34.213647l-2.108236 2.891295-51.83247 62.162823h49.152a26.352941 26.352941 0 0 1 3.312941 52.525177l-3.312941 0.210823-79.058824-0.030118v52.705883h79.058824a26.352941 26.352941 0 0 1 3.312941 52.525176l-3.312941 0.210824-79.058824-0.030118v79.088941a26.352941 26.352941 0 0 1-52.495059 3.312942l-0.210823-3.312942V588.498824H338.823529a26.352941 26.352941 0 0 1-3.312941-52.495059l3.312941-0.180706 79.058824-0.030118v-52.705882H338.823529a26.352941 26.352941 0 0 1-3.312941-52.495059l3.312941-0.180706 49.121883-0.030118-51.802353-62.162823a26.352941 26.352941 0 0 1 38.00847-36.352l2.499765 2.620235 67.584 81.076706 67.584-81.076706a26.352941 26.352941 0 0 1 37.135059-3.403294z" fill="#568af2" /></svg>