<svg class="icon" style="width: 1em;height: 1em;vertical-align: middle;fill: currentColor;overflow: hidden;" viewBox="0 0 1024 1024" version="1.1" xmlns="http://www.w3.org/2000/svg" width="32" height="32"><path d="M416.105412 528.293647l-7.529412 3.885177-13.191529 7.017411-11.535059 6.505412c-14.366118 8.282353-24.395294 15.179294-30.268236 21.022118a80.414118 80.414118 0 1 0 113.724236 113.724235c4.065882-4.065882 8.613647-10.119529 13.793882-18.221176l3.162353-5.12 5.812706-9.908706 6.264471-11.354353 9.366588-17.859765v226.544941H268.559059a79.058824 79.058824 0 0 1-78.908235-74.029176l-0.150589-4.99953-0.030117-237.206588h226.635294z m458.541176 0v237.206588a79.058824 79.058824 0 0 1-74.029176 78.908236l-4.99953 0.150588-237.206588-0.030118v-226.605176l2.620235 5.12 6.776471 12.8 6.294588 11.354353 1.505883 2.620235 1.445647 2.529882 5.571764 9.155765c4.276706 6.776471 8.131765 12.167529 11.65553 16.173176l2.56 2.770824 2.349176 2.108235c20.600471 16.745412 50.778353-5.391059 40.96-30.087529l-1.295059-2.861177-44.634353-85.504 85.534118 44.634353 2.831059 1.295059c25.630118 10.179765 48.549647-22.738824 27.979294-43.309176a95.683765 95.683765 0 0 0-14.125176-11.083294l-4.818824-3.132236-9.185882-5.571764-5.12-2.95153-5.481412-3.102117-12.077177-6.505412-11.655529-6.083765h226.544941z m-79.028706-368.941176a79.058824 79.058824 0 0 1 78.908236 74.089411l0.150588 4.99953-0.030118 237.146353h-226.484706l0.301177-0.150589 3.644235-1.867294 3.523765-1.837176 13.161412-7.017412 11.535058-6.475294 9.938824-5.963294c9.155765-5.722353 15.932235-10.721882 20.299294-15.058824a80.414118 80.414118 0 0 0-109.688471-117.519058l-4.035764 3.764705-2.228706 2.409412a153.6 153.6 0 0 0-15.269647 21.835294l-3.523765 6.02353-6.475294 11.504941-7.017412 13.161412-3.915294 7.529411V159.352471h237.206588z m-289.91247 0v226.575058l-3.162353-6.204235-7.168-13.462588-6.625883-11.866353-6.083764-10.179765a144.504471 144.504471 0 0 0-12.649412-17.769412l-2.710588-2.981647-2.319059-2.108235c-20.630588-16.745412-50.808471 5.421176-40.990118 30.117647l1.325177 2.831059 44.634353 85.504-85.534118-44.604235-2.861176-1.325177c-25.630118-10.179765-48.549647 22.738824-27.979295 43.309177 5.481412 5.481412 14.637176 11.866353 27.497412 19.425882l5.752471 3.312941 11.354353 6.324706 12.8 6.746353 5.089882 2.590118H189.470118V238.441412a79.058824 79.058824 0 0 1 74.089411-78.908236l4.99953-0.150588 237.146353-0.030117z" fill="#568af2" /><path d="M215.853176 370.206118c13.432471 0 24.515765 10.029176 26.142118 23.04l0.210824 3.312941v210.823529a26.352941 26.352941 0 0 1-52.525177 3.312941l-0.180706-3.312941v-210.823529c0-14.576941 11.776-26.352941 26.352941-26.352941zM848.323765 370.206118c13.432471 0 24.515765 10.029176 26.142117 23.04l0.210824 3.312941v210.823529a26.352941 26.352941 0 0 1-52.525177 3.312941l-0.180705-3.312941v-210.823529c0-14.576941 11.776-26.352941 26.352941-26.352941zM637.500235 791.853176a26.352941 26.352941 0 0 1 3.312941 52.495059l-3.312941 0.210824h-210.823529a26.352941 26.352941 0 0 1-3.312941-52.525177l3.312941-0.180706h210.823529zM637.500235 159.382588a26.352941 26.352941 0 0 1 3.312941 52.495059l-3.312941 0.210824h-210.823529a26.352941 26.352941 0 0 1-3.312941-52.525177l3.312941-0.180706h210.823529zM477.394824 556.604235l-9.035295 4.427294-19.847529 9.878589-11.866353 6.083764-15.781647 8.432942-8.975059 4.969411-7.589647 4.427294-6.113882 3.794824a49.995294 49.995294 0 0 0-7.318588 5.391059 27.708235 27.708235 0 1 0 39.152941 39.152941c0.963765-0.903529 2.228706-2.56 3.764706-4.818824l3.493647-5.421176 4.156235-6.927059 7.348706-13.101176 8.463059-15.932236 6.174117-11.986823 6.716236-13.432471 7.258353-14.938353zM673.310118 360.749176a27.708235 27.708235 0 0 0-39.183059 0 36.502588 36.502588 0 0 0-3.764706 4.818824l-3.463529 5.360941-4.096 6.866824-7.258353 12.950588-8.402824 15.721412-9.246118 18.130823-6.716235 13.552941-4.457412 9.185883 28.611765-14.095059 23.672471-12.257882 10.029176-5.421177 8.58353-4.939294c5.210353-3.072 9.396706-5.722353 12.348235-7.890824l1.927529-1.536 1.41553-1.264941a27.708235 27.708235 0 0 0 0-39.183059z" fill="#568af2" /></svg>