<svg class="icon" style="width: 1em;height: 1em;vertical-align: middle;fill: currentColor;overflow: hidden;" viewBox="0 0 1024 1024" version="1.1" xmlns="http://www.w3.org/2000/svg" width="32" height="32"><path d="M790.588235 184.470588a79.058824 79.058824 0 0 1 79.058824 79.058824v527.058823a79.058824 79.058824 0 0 1-79.058824 79.058824H263.529412a79.058824 79.058824 0 0 1-79.058824-79.058824V263.529412A79.058824 79.058824 0 0 1 263.529412 184.470588z m-87.853176 210.82353h-140.528941l-3.312942 0.210823a26.352941 26.352941 0 0 0-23.04 26.142118l0.180706 3.312941a26.352941 26.352941 0 0 0 26.172236 23.04h77.040941l-121.313883 121.795765-58.428235-58.277647-2.68047-2.349177a26.352941 26.352941 0 0 0-34.544942 2.379294l-99.388235 99.388236-2.349176 2.710588a26.352941 26.352941 0 0 0 2.349176 34.544941l2.710588 2.379294a26.352941 26.352941 0 0 0 34.575059-2.379294l80.745412-80.775529 58.458353 58.337882 2.710588 2.349176a26.352941 26.352941 0 0 0 34.575059-2.409411l139.715765-140.257883v76.769883l0.210823 3.312941a26.352941 26.352941 0 0 0 52.495059-3.312941V421.647059l-0.180706-3.312941a26.925176 26.925176 0 0 0-4.818823-12.137412l-0.39153-0.512-0.481882-0.632471a26.503529 26.503529 0 0 0-1.596235-1.807059l-0.301177-0.271058a26.925176 26.925176 0 0 0-8.824471-5.812706 26.202353 26.202353 0 0 0-9.758117-1.867294z" fill="#568af2" /></svg>