<svg class="icon" style="width: 1em;height: 1em;vertical-align: middle;fill: currentColor;overflow: hidden;" viewBox="0 0 1024 1024" version="1.1" xmlns="http://www.w3.org/2000/svg" width="32" height="32"><path d="M0 0h1024v1024H0z" fill="#568af2" fill-opacity="0" /><path d="M813.176471 184.470588c32.406588 0 58.970353 25.088 61.319529 56.922353l0.180706 4.577883v228.382117a26.352941 26.352941 0 0 1-52.525177 3.312941l-0.180705-3.312941V245.970824a8.794353 8.794353 0 0 0-6.776471-8.553412L813.176471 237.176471H215.853176a8.794353 8.794353 0 0 0-8.553411 6.77647l-0.240941 2.017883v527.058823c0 4.156235 2.891294 7.619765 6.77647 8.553412l2.017882 0.210823H593.016471a26.352941 26.352941 0 0 1 3.312941 52.525177l-3.312941 0.180706H215.853176A61.500235 61.500235 0 0 1 154.503529 777.637647l-0.180705-4.577882v-527.058824c0-32.436706 25.088-58.970353 56.922352-61.319529l4.577883-0.180706H813.176471z m-177.302589 339.154824l2.710589 2.379294 87.823058 87.823059c9.426824 9.456941 10.209882 24.244706 2.349177 34.575059l-2.349177 2.710588-87.853176 87.823059a26.352941 26.352941 0 0 1-39.634824-34.544942l2.379295-2.710588L670.479059 632.470588l-69.180235-69.210353a26.352941 26.352941 0 0 1-2.349177-34.575059l2.349177-2.710588a26.352941 26.352941 0 0 1 34.575058-2.349176z m140.528942 0l2.710588 2.379294 87.823059 87.823059c9.456941 9.456941 10.24 24.244706 2.379294 34.575059l-2.379294 2.710588-87.823059 87.823059a26.352941 26.352941 0 0 1-39.634824-34.544942l2.349177-2.710588L811.068235 632.470588l-69.210353-69.210353a26.352941 26.352941 0 0 1-2.349176-34.575059l2.379294-2.710588a26.352941 26.352941 0 0 1 34.544941-2.349176z m-262.595765-192.512c10.24 8.553412 12.378353 23.220706 5.481412 34.243764l-2.108236 2.891295-51.83247 62.162823h49.152a26.352941 26.352941 0 0 1 3.312941 52.525177l-3.312941 0.210823-79.058824-0.030118v52.705883h79.058824a26.352941 26.352941 0 0 1 3.312941 52.525176l-3.312941 0.210824-79.058824-0.030118v79.088941a26.352941 26.352941 0 0 1-52.495059 3.312942l-0.210823-3.312942V588.498824h-79.058824a26.352941 26.352941 0 0 1-3.312941-52.495059l3.312941-0.180706 79.058824-0.030118v-52.705882h-79.058824a26.352941 26.352941 0 0 1-3.312941-52.495059l3.312941-0.180706 49.152-0.030118-51.802353-62.162823a26.352941 26.352941 0 0 1 38.008471-36.352l2.469647 2.620235 67.584 81.106824 67.614118-81.106824a26.352941 26.352941 0 0 1 37.104941-3.403294z" fill="#568af2" /></svg>