<svg class="icon" style="width: 1em;height: 1em;vertical-align: middle;fill: currentColor;overflow: hidden;" viewBox="0 0 1024 1024" version="1.1" xmlns="http://www.w3.org/2000/svg" width="32" height="32"><path d="M0 0h1024v1024H0z" fill="#568af2" fill-opacity="0" /><path d="M843.294118 154.352941c13.432471 0 24.515765 10.059294 26.142117 23.04l0.210824 3.312941v439.205647a26.352941 26.352941 0 0 1-23.04 26.172236l-3.312941 0.180706H210.823529a26.352941 26.352941 0 0 1-26.142117-23.04l-0.210824-3.312942V180.705882a26.352941 26.352941 0 0 1 52.495059-3.312941l0.210824 3.312941v412.852706h579.764705V180.705882c0-13.432471 10.059294-24.515765 23.04-26.142117l3.312942-0.210824z" fill="#568af2" /><path d="M614.520471 249.886118a26.352941 26.352941 0 0 1 39.54447 34.635294l-2.349176 2.710588-69.903059 69.541647 70.053647 70.896941a26.352941 26.352941 0 0 1 2.138353 34.575059l-2.379294 2.710588a26.352941 26.352941 0 0 1-34.575059 2.138353l-2.680471-2.379294-88.485647-89.539765a26.352941 26.352941 0 0 1-2.198588-34.514823l2.349177-2.710588 88.485647-88.064zM613.827765 724.269176a26.352941 26.352941 0 0 1 39.634823 34.575059l-2.349176 2.710589-105.411765 105.411764a26.352941 26.352941 0 0 1-34.575059 2.349177l-2.710588-2.379294-105.411765-105.411765a26.352941 26.352941 0 0 1 34.575059-39.604706l2.710588 2.349176 86.768942 86.768942 86.768941-86.768942z" fill="#568af2" /><path d="M527.058824 593.558588c13.432471 0 24.515765 10.059294 26.142117 23.070118l0.210824 3.312941v228.382118a26.352941 26.352941 0 0 1-52.495059 3.312941l-0.210824-3.312941v-228.412236c0-14.546824 11.806118-26.352941 26.352942-26.352941zM456.794353 224.677647c13.432471 0 24.515765 10.029176 26.142118 23.04l0.210823 3.312941v210.763294a26.352941 26.352941 0 0 1-52.525176 3.312942l-0.180706-3.312942V251.000471c0-14.546824 11.776-26.352941 26.352941-26.352942z" fill="#568af2" /></svg>