<svg class="icon" style="width: 1em;height: 1em;vertical-align: middle;fill: currentColor;overflow: hidden;" viewBox="0 0 1024 1024" version="1.1" xmlns="http://www.w3.org/2000/svg" width="32" height="32"><path d="M0 0h1024v1024H0z" fill="#568af2" fill-opacity="0" /><path d="M150.588235 124.235294c13.432471 0 24.515765 10.059294 26.142118 23.04l0.210823 3.312941v676.382118h676.382118c13.432471 0 24.545882 10.059294 26.172235 23.070118l0.180706 3.312941a26.352941 26.352941 0 0 1-23.04 26.142117l-3.312941 0.180706H150.588235a26.352941 26.352941 0 0 1-26.142117-23.04l-0.210824-3.312941V150.588235c0-14.546824 11.806118-26.352941 26.352941-26.352941z" fill="#568af2" /><path d="M554.676706 124.235294c73.005176 0 133.692235 56.169412 185.524706 155.286588l8.764235 17.408c10.179765 20.781176 19.998118 43.248941 29.515294 67.312942l8.041412 20.992 3.975529 10.782117 7.830589 22.136471 7.710117 22.889412c21.775059 66.319059 40.146824 137.185882 55.265883 208.052705l5.993411 28.852706 5.210353 26.925177 4.818824 26.74447 2.048 12.227765a26.352941 26.352941 0 0 1-52.10353 8.131765l-3.403294-20.088471-3.162353-17.317647-2.439529-12.890353-5.481412-27.25647a2343.936 2343.936 0 0 0-3.011765-14.336c-14.757647-69.150118-32.707765-138.270118-53.820235-202.63153a1337.584941 1337.584941 0 0 0-18.823529-53.639529l-7.770353-20.058353a1039.149176 1039.149176 0 0 0-3.915294-9.728l-7.920941-18.793412c-49.332706-113.392941-105.200941-178.296471-162.846118-178.296471-53.007059 0-104.478118 54.814118-150.738824 151.672471l-8.101647 17.528471c-2.710588 5.993412-5.360941 12.107294-8.011294 18.371764l-7.860706 19.245177c-2.620235 6.535529-5.210353 13.251765-7.770353 20.058353l-7.619764 20.871529c-3.794824 10.631529-7.529412 21.564235-11.203765 32.768-21.112471 64.361412-39.032471 133.481412-53.820235 202.63153l-3.011765 14.336-5.451294 27.25647-6.415059 34.725647-2.620235 15.570824a26.352941 26.352941 0 1 1-52.10353-8.131765l2.048-12.227765 4.818824-26.74447 5.24047-26.925177c1.867294-9.336471 3.855059-18.974118 5.963295-28.852706 15.119059-70.866824 33.520941-141.733647 55.265882-208.052705l7.710118-22.889412a1349.270588 1349.270588 0 0 1 15.841882-43.52l8.131765-20.600471 8.31247-19.847529c57.253647-132.848941 125.831529-209.950118 211.395765-209.950118z" fill="#568af2" /><path d="M853.323294 475.617882a26.352941 26.352941 0 0 1 3.312941 52.495059l-3.312941 0.210824H256a26.352941 26.352941 0 0 1-3.312941-52.525177l3.312941-0.180706h597.323294z" fill="#568af2" /></svg>