<svg class="icon" style="width: 1em;height: 1em;vertical-align: middle;fill: currentColor;overflow: hidden;" viewBox="0 0 1024 1024" version="1.1" xmlns="http://www.w3.org/2000/svg" width="32" height="32"><path d="M510.735059 214.588235c60.777412 0 104.478118 32.436706 161.189647 107.580236l12.378353 16.745411 12.830117 18.070589 35.568942 51.712 9.306353 13.131294 8.432941 11.535059c30.569412 40.719059 53.639529 60.235294 73.306353 62.162823l3.222588 0.150588h35.147294a26.352941 26.352941 0 0 1 3.312941 52.525177l-3.312941 0.180706h-35.147294c-42.496 0-77.040941-27.919059-118.663529-83.425883l-9.005177-12.197647a1037.402353 1037.402353 0 0 1-4.728471-6.656l-34.243764-49.694117c-6.144-8.914824-12.047059-17.317647-17.769412-25.208471l-11.143529-15.149176c-47.344941-62.765176-81.287529-88.756706-120.681412-88.756706-37.857882 0-70.716235 24.003765-115.260235 81.679058l-10.902589 14.456471-11.444706 15.841882-41.200941 59.693177-9.758117 13.793882-8.975059 12.227765c-39.755294 52.976941-73.005176 80.805647-112.941177 83.245176l-5.722353 0.150589H159.352471a26.352941 26.352941 0 0 1-3.312942-52.495059l3.312942-0.210824h35.117176c20.359529 0 44.272941-19.305412 76.528941-62.343529l8.432941-11.504941 18.070589-25.750589 20.178823-29.515294 13.131294-18.763294c66.258824-93.455059 112.64-133.210353 179.892706-133.210353zM159.382588 636.235294c13.432471 0 24.515765 10.059294 26.142118 23.04l0.210823 3.312941v105.411765a26.352941 26.352941 0 0 1-52.525176 3.312941l-0.180706-3.312941V662.588235c0-14.546824 11.776-26.352941 26.352941-26.352941zM510.735059 636.235294c13.432471 0 24.545882 10.059294 26.172235 23.04l0.180706 3.312941v105.411765a26.352941 26.352941 0 0 1-52.495059 3.312941l-0.210823-3.312941V662.588235c0-14.546824 11.806118-26.352941 26.352941-26.352941zM862.117647 636.235294c13.432471 0 24.515765 10.059294 26.142118 23.04l0.210823 3.312941v105.411765a26.352941 26.352941 0 0 1-52.495059 3.312941l-0.210823-3.312941V662.588235c0-14.546824 11.806118-26.352941 26.352941-26.352941z" fill="#568af2" /><path d="M862.117647 688.941176a26.352941 26.352941 0 0 1 3.312941 52.495059l-3.312941 0.210824H159.382588a26.352941 26.352941 0 0 1-3.312941-52.495059l3.312941-0.210824h702.735059z" fill="#568af2" /></svg>