<svg class="icon" style="width: 1em;height: 1em;vertical-align: middle;fill: currentColor;overflow: hidden;" viewBox="0 0 1024 1024" version="1.1" xmlns="http://www.w3.org/2000/svg" width="32" height="32"><path d="M0 0h1024v1024H0z" fill="#568af2" fill-opacity="0" /><path d="M862.117647 826.970353a26.352941 26.352941 0 0 1 3.312941 52.525176l-3.312941 0.180706H159.382588a26.352941 26.352941 0 0 1-3.312941-52.495059l3.312941-0.210823h702.735059z" fill="#568af2" /><path d="M510.735059 229.647059c85.534118 0 154.142118 77.101176 211.425882 209.950117l8.282353 19.84753 8.131765 20.60047c5.391059 14.004706 10.661647 28.521412 15.841882 43.52l7.710118 22.889412c21.744941 66.319059 40.146824 137.185882 55.265882 208.052706 2.108235 9.908706 4.096 19.546353 5.963294 28.852706l5.240471 26.925176 4.818823 26.744471 2.048 12.227765a26.352941 26.352941 0 1 1-52.103529 8.131764l-4.306824-25.027764-4.72847-25.268706-5.451294-27.256471a2343.936 2343.936 0 0 0-3.011765-14.336c-14.757647-69.150118-32.707765-138.270118-53.820235-202.631529a1402.488471 1402.488471 0 0 0-11.203765-32.768l-7.619765-20.87153a1124.713412 1124.713412 0 0 0-7.770353-20.058352l-7.860705-19.245177a904.372706 904.372706 0 0 0-8.011295-18.371765l-8.131764-17.52847c-46.230588-96.888471-97.701647-151.672471-150.708706-151.672471-57.645176 0-113.543529 64.903529-162.846118 178.296471l-7.920941 18.793412-3.915294 9.728-7.770353 20.058352c-6.415059 17.046588-12.679529 34.936471-18.823529 53.63953-21.112471 64.361412-39.062588 133.481412-53.820236 202.631529l-3.011764 14.336-5.481412 27.256471-2.43953 12.890353-5.300706 29.485176-1.295058 7.920941a26.352941 26.352941 0 1 1-52.073412-8.131764l2.048-12.227765 4.818823-26.744471 5.210353-26.925176 5.993412-28.852706c15.119059-70.866824 33.490824-141.733647 55.265882-208.052706l7.710118-22.889412 7.830588-22.13647 3.97553-10.782118 8.071529-20.992a938.767059 938.767059 0 0 1 29.485177-67.312941l8.794353-17.408c51.802353-99.087059 112.489412-155.286588 185.524705-155.286588z" fill="#568af2" /><path d="M159.382588 124.235294c13.432471 0 24.515765 10.059294 26.142118 23.04l0.210823 3.312941v702.735059a26.352941 26.352941 0 0 1-52.525176 3.312941l-0.180706-3.312941V150.588235c0-14.546824 11.776-26.352941 26.352941-26.352941z" fill="#568af2" /></svg>