<svg class="icon" style="width: 1em;height: 1em;vertical-align: middle;fill: currentColor;overflow: hidden;" viewBox="0 0 1024 1024" version="1.1" xmlns="http://www.w3.org/2000/svg" width="32" height="32"><path d="M281.088 189.500235c13.432471 0 24.545882 10.029176 26.172235 23.04l0.180706 3.312941v149.323295h43.941647c13.432471 0 24.515765 10.059294 26.142118 23.04l0.210823 3.312941v281.088a26.352941 26.352941 0 0 1-26.352941 26.352941h-43.941647v149.353412a26.352941 26.352941 0 0 1-52.495059 3.312941l-0.210823-3.312941v-149.353412H210.823529a26.352941 26.352941 0 0 1-26.142117-23.04l-0.210824-3.312941V391.529412c0-14.546824 11.806118-26.352941 26.352941-26.352941h43.91153V215.853176c0-14.576941 11.806118-26.352941 26.352941-26.352941z m491.941647 0c13.432471 0 24.515765 10.029176 26.142118 23.04l0.210823 3.312941-0.030117 149.323295H843.294118c13.432471 0 24.515765 10.059294 26.142117 23.04l0.210824 3.312941v281.088a26.352941 26.352941 0 0 1-26.352941 26.352941h-43.941647v149.353412a26.352941 26.352941 0 0 1-52.495059 3.312941l-0.180706-3.312941-0.030118-149.353412h-43.911529a26.352941 26.352941 0 0 1-26.142118-23.04l-0.210823-3.312941V391.529412c0-14.546824 11.806118-26.352941 26.352941-26.352941h43.911529V215.853176c0-14.576941 11.806118-26.352941 26.383059-26.352941zM527.058824 154.352941c13.432471 0 24.515765 10.059294 26.142117 23.04l0.210824 3.312941v149.323294h43.911529c13.432471 0 24.545882 10.059294 26.172235 23.070118l0.180706 3.312941v281.088a26.352941 26.352941 0 0 1-26.352941 26.352941l-43.911529-0.030117V813.176471a26.352941 26.352941 0 0 1-52.495059 3.312941l-0.210824-3.312941v-149.353412h-43.911529a26.352941 26.352941 0 0 1-26.172235-23.04l-0.180706-3.312941v-281.088c0-14.546824 11.776-26.352941 26.352941-26.352942h43.911529V180.705882c0-14.546824 11.806118-26.352941 26.352942-26.352941z" fill="#568af2" /></svg>