<svg class="icon" style="width: 1em;height: 1em;vertical-align: middle;fill: currentColor;overflow: hidden;" viewBox="0 0 1024 1024" version="1.1" xmlns="http://www.w3.org/2000/svg" width="32" height="32"><path d="M853.323294 163.147294a26.352941 26.352941 0 0 1 3.312941 52.495059l-3.312941 0.210823h-26.352941v465.558589a26.352941 26.352941 0 0 1-23.04 26.142117l-3.312941 0.210824H565.609412l95.563294 95.563294a26.352941 26.352941 0 0 1-34.575059 39.634824l-2.710588-2.379295-121.916235-121.916235-121.886118 121.916235a26.352941 26.352941 0 0 1-34.575059 2.379295l-2.710588-2.379295a26.352941 26.352941 0 0 1-2.349177-34.544941l2.349177-2.710588 95.533176-95.563294H203.294118a26.352941 26.352941 0 0 1-26.142118-23.04l-0.210824-3.312941V215.853176H150.588235a26.352941 26.352941 0 0 1-3.312941-52.525176L150.588235 163.147294h702.735059z m-192.210823 146.281412l-2.710589 2.349176-156.521411 156.852706-59.392-58.066823-2.680471-2.319059a26.383059 26.383059 0 0 0-31.171765-0.210824l-2.981647 2.499765-99.117176 96.768-2.409412 2.650353a26.383059 26.383059 0 0 0-0.361412 31.894588l2.319059 2.710588 2.650353 2.409412a26.383059 26.383059 0 0 0 31.894588 0.361412l2.710588-2.319059 80.685177-78.787765 59.632941 58.337883 2.710588 2.319059a26.352941 26.352941 0 0 0 31.713883-0.180706l2.68047-2.349177 174.953412-175.314823 2.349177-2.710588a26.352941 26.352941 0 0 0-36.954353-36.894118z" fill="#568af2" /></svg>