<svg class="icon" style="width: 1em;height: 1em;vertical-align: middle;fill: currentColor;overflow: hidden;" viewBox="0 0 1024 1024" version="1.1" xmlns="http://www.w3.org/2000/svg" width="32" height="32"><path d="M150.588235 839.529412a26.352941 26.352941 0 0 1-3.312941-52.495059l3.312941-0.210824h43.91153v-219.617882c0-13.432471 10.059294-24.515765 23.070117-26.142118l3.312942-0.210823h105.411764c14.546824 0 26.322824 11.806118 26.322824 26.352941v219.617882h70.26447V391.529412c0-13.432471 10.059294-24.515765 23.070118-26.142118l3.312941-0.210823h105.411765c14.546824 0 26.352941 11.806118 26.352941 26.352941l-0.030118 395.294117h70.294589V180.705882c0-13.432471 10.059294-24.515765 23.04-26.142117l3.312941-0.210824H783.058824c14.546824 0 26.352941 11.806118 26.352941 26.352941v606.117647h43.911529a26.352941 26.352941 0 0 1 3.312941 52.495059l-3.312941 0.210824H150.588235z" fill="#568af2" /></svg>