<svg class="icon" style="width: 1em;height: 1em;vertical-align: middle;fill: currentColor;overflow: hidden;" viewBox="0 0 1024 1024" version="1.1" xmlns="http://www.w3.org/2000/svg" width="32" height="32"><path d="M0 0h1024v1024H0z" fill="#568af2" fill-opacity="0" /><path d="M571.873882 184.470588c13.432471 0 24.515765 10.059294 26.142118 23.04l0.210824 3.312941-0.030118 449.144471h53.428706v-271.269647c0-13.432471 10.089412-24.515765 23.070117-26.142118l3.312942-0.210823h106.255058c13.432471 0 24.515765 10.059294 26.142118 23.04l0.210824 3.312941v428.242823h42.706823c13.432471 0 24.545882 10.059294 26.172235 23.04l0.180706 3.312942a26.352941 26.352941 0 0 1-23.04 26.142117l-3.312941 0.210824H784.263529a26.352941 26.352941 0 0 1-26.142117-23.04l-0.210824-3.312941V415.051294h-53.579294v271.269647a26.352941 26.352941 0 0 1-23.009882 26.172235l-3.312941 0.180706h-106.134589a26.352941 26.352941 0 0 1-26.142117-23.04l-0.210824-3.312941-0.030117-449.14447h-88.515765V843.294118a26.352941 26.352941 0 0 1-23.04 26.142117l-3.312941 0.210824h-86.768942a26.352941 26.352941 0 0 1-26.172235-23.04l-0.180706-3.312941-0.030117-289.882353H247.205647V843.294118a26.352941 26.352941 0 0 1-23.04 26.142117l-3.312941 0.210824H150.588235a26.352941 26.352941 0 0 1-3.312941-52.495059l3.312941-0.210824h43.91153V527.058824c0-13.432471 10.059294-24.515765 23.070117-26.142118l3.312942-0.210824h122.970352c13.432471 0 24.515765 10.059294 26.142118 23.04l0.210824 3.312942-0.030118 289.882352h34.093176V210.823529c0-13.432471 10.059294-24.515765 23.070118-26.142117l3.312941-0.210824h141.221647z" fill="#568af2" /></svg>