<svg class="icon" style="width: 1em;height: 1em;vertical-align: middle;fill: currentColor;overflow: hidden;" viewBox="0 0 1024 1024" version="1.1" xmlns="http://www.w3.org/2000/svg" width="32" height="32"><path d="M210.823529 184.470588c13.432471 0 24.515765 10.059294 26.142118 23.04l0.210824 3.312941v606.117647H843.294118c13.432471 0 24.515765 10.059294 26.142117 23.04l0.210824 3.312942a26.352941 26.352941 0 0 1-23.04 26.142117l-3.312941 0.210824H210.823529a26.352941 26.352941 0 0 1-26.142117-23.04L184.470588 843.294118V210.823529c0-14.546824 11.806118-26.352941 26.352941-26.352941z" fill="#568af2" /><path d="M819.501176 199.499294a26.352941 26.352941 0 0 1 48.820706 19.576471l-1.234823 3.072-175.676235 368.941176a26.352941 26.352941 0 0 1-38.731295 10.420706l-2.710588-2.168471-149.985882-134.957176-125.048471 250.157176a26.352941 26.352941 0 0 1-32.286117 13.071059l-3.072-1.295059a26.352941 26.352941 0 0 1-13.071059-32.316235l1.295059-3.041882 140.559058-281.088a26.352941 26.352941 0 0 1 38.520471-9.938824l2.680471 2.108236 149.413647 134.475294 160.527058-337.016471z" fill="#568af2" /></svg>