<svg class="icon" style="width: 1em;height: 1em;vertical-align: middle;fill: currentColor;overflow: hidden;" viewBox="0 0 1024 1024" version="1.1" xmlns="http://www.w3.org/2000/svg" width="32" height="32"><path d="M520.372706 873.803294l-1.656471-0.481882a26.172235 26.172235 0 0 1-7.589647-4.005647l-0.783059-0.632471a26.503529 26.503529 0 0 1-1.445647-1.264941l-0.481882-0.481882-105.411765-105.411765a26.352941 26.352941 0 0 1 34.575059-39.604706l2.710588 2.349176 60.416 60.385883v-138.390588H210.823529a26.352941 26.352941 0 0 1-26.142117-23.04l-0.210824-3.312942V180.705882a26.352941 26.352941 0 0 1 52.495059-3.312941l0.210824 3.312941v412.852706h579.764705V180.705882c0-13.432471 10.059294-24.515765 23.04-26.142117l3.312942-0.210824c13.432471 0 24.515765 10.059294 26.142117 23.04l0.210824 3.312941v439.205647a26.352941 26.352941 0 0 1-23.04 26.172236l-3.312941 0.180706h-289.882353v138.390588l60.416-60.385883a26.352941 26.352941 0 0 1 39.634823 34.575059l-2.349176 2.710589-105.411765 105.411764-0.481882 0.451765a26.503529 26.503529 0 0 1-1.445647 1.264941l1.927529-1.746823a26.533647 26.533647 0 0 1-15.269647 7.529411l-3.373176 0.210824-3.373177-0.210824a26.413176 26.413176 0 0 1-3.312941-0.662588zM527.058824 224.617412c79.661176 0 151.250824 39.062588 213.62447 115.049412a26.352941 26.352941 0 0 1 0 33.430588c-62.373647 76.016941-133.963294 115.049412-213.62447 115.049412-79.661176 0-151.250824-39.032471-213.624471-115.049412a26.352941 26.352941 0 0 1 0-33.430588c62.373647-75.986824 133.963294-115.049412 213.624471-115.049412z m0 79.058823a52.705882 52.705882 0 1 0 0 105.411765 52.705882 52.705882 0 0 0 0-105.411765z" fill="#568af2" /></svg>