<svg class="icon" style="width: 1em;height: 1em;vertical-align: middle;fill: currentColor;overflow: hidden;" viewBox="0 0 1024 1024" version="1.1" xmlns="http://www.w3.org/2000/svg" width="32" height="32"><path d="M391.830588 167.152941a26.352941 26.352941 0 0 1-14.275764 34.454588 325.511529 325.511529 0 0 0-105.411765 70.53553 323.855059 323.855059 0 0 0-95.201883 229.797647c0 179.501176 145.528471 325.029647 325.029648 325.029647 87.401412 0 169.261176-34.635294 229.797647-95.171765a325.481412 325.481412 0 0 0 70.565647-105.411764 26.352941 26.352941 0 1 1 48.670117 20.178823 378.187294 378.187294 0 0 1-81.950117 122.488471 376.560941 376.560941 0 0 1-267.083294 110.622117c-208.624941 0-377.735529-169.110588-377.73553-377.705411 0-101.526588 40.267294-196.728471 110.622118-267.113412a378.217412 378.217412 0 0 1 122.518588-81.950118 26.352941 26.352941 0 0 1 34.424471 14.245647z m110.140236-42.917647c208.594824 0 377.705412 169.110588 377.705411 377.73553a26.352941 26.352941 0 0 1-26.352941 26.352941H501.970824a26.352941 26.352941 0 0 1-26.352942-26.352941V150.588235c0-14.546824 11.776-26.352941 26.352942-26.352941z" fill="#568af2" /></svg>