<svg class="icon" style="width: 1em;height: 1em;vertical-align: middle;fill: currentColor;overflow: hidden;" viewBox="0 0 1024 1024" version="1.1" xmlns="http://www.w3.org/2000/svg" width="32" height="32"><path d="M862.117647 154.352941c13.432471 0 24.515765 10.059294 26.142118 23.04L888.470588 180.705882v653.071059a26.352941 26.352941 0 0 1-1.024 7.288471 26.352941 26.352941 0 0 1-22.016 33.430588l-3.312941 0.180706H317.771294a26.352941 26.352941 0 0 1-3.312941-52.525177l3.312941-0.180705 517.993412-0.030118V417.882353H185.735529v205.071059a26.352941 26.352941 0 0 1-52.525176 3.312941l-0.180706-3.312941V180.705882c0-13.432471 10.029176-24.515765 23.04-26.142117l3.312941-0.210824h702.735059z m-216.244706 391.68l2.710588 2.319059 78.697412 76.739765a26.352941 26.352941 0 0 1-34.032941 40.05647l-2.740706-2.319059-60.114823-58.608941-122.88 122.729412a26.352941 26.352941 0 0 1-34.153412 2.650353l-2.710588-2.258824-96.918589-92.79247-195.614117 197.692235a26.352941 26.352941 0 0 1-34.575059 2.529883l-2.710588-2.349177a26.352941 26.352941 0 0 1-2.529883-34.544941l2.349177-2.710588 213.895529-216.094118a26.352941 26.352941 0 0 1 34.243765-2.770824l2.710588 2.258824 96.978824 92.852706 123.090823-122.849882a26.352941 26.352941 0 0 1 34.334118-2.529883z m110.832941-286.268235h-368.941176l-3.312941 0.210823a26.352941 26.352941 0 0 0 0 52.284236l3.312941 0.210823h368.941176l3.312942-0.210823a26.352941 26.352941 0 0 0-3.312942-52.495059z m-474.352941-0.060235h-17.558588l-3.312941 0.210823a26.352941 26.352941 0 0 0 0 52.284235l3.312941 0.210824h17.558588l3.312941-0.210824a26.352941 26.352941 0 0 0-3.312941-52.495058z" fill="#568af2" /></svg>