<svg class="icon" style="width: 1em;height: 1em;vertical-align: middle;fill: currentColor;overflow: hidden;" viewBox="0 0 1024 1024" version="1.1" xmlns="http://www.w3.org/2000/svg" width="32" height="32"><path d="M210.823529 184.470588c13.432471 0 24.515765 10.059294 26.142118 23.04l0.210824 3.312941v606.117647H843.294118c13.432471 0 24.515765 10.059294 26.142117 23.04l0.210824 3.312942a26.352941 26.352941 0 0 1-23.04 26.142117l-3.312941 0.210824H210.823529a26.352941 26.352941 0 0 1-26.142117-23.04L184.470588 843.294118V210.823529c0-14.546824 11.806118-26.352941 26.352941-26.352941z" fill="#568af2" /><path d="M351.382588 606.117647c13.432471 0 24.515765 10.059294 26.142118 23.04l0.210823 3.312941v70.264471a26.352941 26.352941 0 0 1-52.525176 3.312941l-0.180706-3.312941V632.470588c0-14.546824 11.776-26.352941 26.352941-26.352941zM491.911529 465.558588c13.432471 0 24.545882 10.059294 26.172236 23.070118l0.180706 3.312941v210.823529a26.352941 26.352941 0 0 1-52.495059 3.312942l-0.210824-3.312942v-210.823529c0-14.576941 11.806118-26.383059 26.352941-26.383059zM632.470588 184.470588c13.432471 0 24.515765 10.059294 26.142118 23.04l0.210823 3.312941v491.91153a26.352941 26.352941 0 0 1-52.495058 3.312941l-0.210824-3.312941V210.823529c0-14.546824 11.806118-26.352941 26.352941-26.352941zM773.029647 325.029647c13.432471 0 24.515765 10.029176 26.142118 23.04l0.210823 3.312941v351.352471a26.352941 26.352941 0 0 1-52.525176 3.312941l-0.180706-3.312941V351.382588c0-14.576941 11.776-26.352941 26.352941-26.352941z" fill="#568af2" /></svg>