<svg class="icon" style="width: 1em;height: 1em;vertical-align: middle;fill: currentColor;overflow: hidden;" viewBox="0 0 1024 1024" version="1.1" xmlns="http://www.w3.org/2000/svg" width="32" height="32"><path d="M853.323294 163.147294a26.352941 26.352941 0 0 1 3.312941 52.495059l-3.312941 0.210823H150.588235a26.352941 26.352941 0 0 1-3.312941-52.525176L150.588235 163.147294h702.735059z m0 122.970353c13.432471 0 24.545882 10.059294 26.172235 23.04l0.180706 3.312941v140.559059a26.352941 26.352941 0 0 1-23.04 26.142118l-3.312941 0.210823h-43.911529v351.352471h43.911529a26.352941 26.352941 0 0 1 3.312941 52.525176l-3.312941 0.180706H150.588235a26.352941 26.352941 0 0 1-3.312941-52.495059l3.312941-0.210823h43.91153V760.470588H150.588235a26.352941 26.352941 0 0 1-26.142117-23.04l-0.210824-3.312941v-140.559059c0-13.432471 10.059294-24.515765 23.04-26.142117l3.312941-0.210824h140.559059c13.432471 0 24.515765 10.059294 26.142118 23.070118l0.210823 3.312941v140.528941a26.352941 26.352941 0 0 1-23.070117 26.142118l-3.312942 0.210823H247.235765v70.264471h228.382117v-210.82353h-43.911529a26.352941 26.352941 0 0 1-26.142118-23.04l-0.210823-3.312941v-140.528941c0-13.432471 10.059294-24.545882 23.070117-26.172235l3.312942-0.180706H572.235294c13.432471 0 24.515765 10.029176 26.142118 23.04l0.210823 3.312941v140.528941a26.352941 26.352941 0 0 1-23.04 26.172236l-3.312941 0.180705h-43.941647v210.82353h228.412235V479.382588h-43.911529a26.352941 26.352941 0 0 1-26.172235-23.070117l-0.180706-3.312942v-140.528941c0-13.432471 10.029176-24.515765 23.04-26.142117l3.312941-0.210824h140.528941z m-632.470588 140.559059c13.432471 0 24.545882 10.029176 26.172235 23.04l0.180706 3.312941v17.558588a26.352941 26.352941 0 0 1-52.495059 3.312941l-0.210823-3.312941v-17.558588c0-14.576941 11.806118-26.352941 26.352941-26.352941z m0-140.559059c13.432471 0 24.545882 10.059294 26.172235 23.04l0.180706 3.312941v17.558588a26.352941 26.352941 0 0 1-52.495059 3.312942l-0.210823-3.312942v-17.558588c0-14.546824 11.806118-26.352941 26.352941-26.352941z m263.529412 0c13.432471 0 24.545882 10.059294 26.172235 23.04l0.180706 3.312941v17.558588a26.352941 26.352941 0 0 1-52.495059 3.312942l-0.210824-3.312942v-17.558588c0-14.546824 11.806118-26.352941 26.352942-26.352941z" fill="#568af2" /></svg>