<svg class="icon" style="width: 1em;height: 1em;vertical-align: middle;fill: currentColor;overflow: hidden;" viewBox="0 0 1024 1024" version="1.1" xmlns="http://www.w3.org/2000/svg" width="32" height="32"><path d="M519.288471 127.277176l3.19247 1.987765 96.075294 69.812706 288.225883 209.408 1.505882 1.174588-1.505882-1.204706c8.041412 5.872941 12.047059 15.691294 10.541176 25.359059l-0.813176 3.614118-3.674353 12.167529 0.030117-0.060235-134.686117 446.554353-0.120471 0.361412 0.120471-0.361412a26.352941 26.352941 0 0 1-21.805177 18.522353l-2.831059 0.210823a26.503529 26.503529 0 0 0 0.271059 0H260.126118l0.602353-0.060235-3.162353-0.150588a26.352941 26.352941 0 0 1-20.570353-15.299765l-1.204706-3.222588-34.575059-114.688-83.184941-275.757177-20.600471-68.246588a26.352941 26.352941 0 0 1 4.517647-23.853176l2.379294-2.680471h-0.060235 0.090353l1.415529-1.234823 1.41553-1.144471 288.225882-209.408 96.075294-69.812706 0.150589-0.12047 3.011764-1.867295a26.352941 26.352941 0 0 1 24.636236 0z m-12.318118 55.868236l-26.352941 19.124706v110.923294L385.505882 385.596235 291.056941 455.378824l-112.338823-33.731765-25.419294 18.492235 9.577411 31.804235 112.549647 33.761883 78.787765 236.272941-81.739294 93.364706 8.101647 26.804706 38.550588-0.030118 76.8-87.823059h222.057412l76.890353 87.853177h38.490353l8.071529-26.834824-81.739294-93.334588 78.787765-236.272941 112.519529-33.761883 9.637647-31.804235-25.449411-18.462118-112.338824 33.701648-94.659765-69.963295-94.870588-72.161882V202.300235l-26.352941-19.154823z" fill="#568af2" /></svg>