<svg class="icon" style="width: 1em;height: 1em;vertical-align: middle;fill: currentColor;overflow: hidden;" viewBox="0 0 1024 1024" version="1.1" xmlns="http://www.w3.org/2000/svg" width="32" height="32"><path d="M520.372706 873.803294l-1.656471-0.481882a26.172235 26.172235 0 0 1-7.589647-4.005647l-0.783059-0.632471a26.503529 26.503529 0 0 1-1.445647-1.264941l-0.481882-0.481882-105.411765-105.411765a26.352941 26.352941 0 0 1 34.575059-39.604706l2.710588 2.349176 60.416 60.416V646.324706H210.823529a26.352941 26.352941 0 0 1-26.142117-23.04l-0.210824-3.312941V180.705882a26.352941 26.352941 0 0 1 52.495059-3.312941l0.210824 3.312941v412.912942l288.948705-0.030118h0.933648l0.933647 0.030118h288.948705V180.705882c0-13.432471 10.059294-24.515765 23.04-26.142117l3.312942-0.210824c13.432471 0 24.515765 10.059294 26.142117 23.04l0.210824 3.312941v439.265883a26.352941 26.352941 0 0 1-23.04 26.172235l-3.312941 0.180706h-289.882353v138.36047l60.416-60.416a26.352941 26.352941 0 0 1 39.634823 34.575059l-2.349176 2.710589-105.411765 105.411764-0.481882 0.451765a26.503529 26.503529 0 0 1-1.445647 1.264941l1.927529-1.746823a26.533647 26.533647 0 0 1-15.269647 7.529411l-3.373176 0.210824-3.373177-0.210824a26.413176 26.413176 0 0 1-3.312941-0.662588z m110.351059-714.089412l2.710588 2.349177 67.764706 67.764706c9.366588 9.366588 10.24 24.033882 2.499765 34.364235l-2.319059 2.710588-243.320471 248.470588a26.352941 26.352941 0 0 1-15.299765 7.68l-3.523764 0.240942H368.941176a26.352941 26.352941 0 0 1-26.142117-23.04l-0.210824-3.312942v-67.764705c0-5.782588 1.897412-11.384471 5.360941-15.932236l2.258824-2.590117 245.850353-248.470589a26.352941 26.352941 0 0 1 34.665412-2.469647z" fill="#568af2" /></svg>