<svg class="icon" style="width: 1em;height: 1em;vertical-align: middle;fill: currentColor;overflow: hidden;" viewBox="0 0 1024 1024" version="1.1" xmlns="http://www.w3.org/2000/svg" width="32" height="32"><path d="M185.735529 853.323294a26.352941 26.352941 0 0 1-52.525176 3.312941l-0.180706-3.312941V150.588235a26.352941 26.352941 0 0 1 52.495059-3.312941l0.210823 3.312941v114.176h109.025883a96.677647 96.677647 0 0 1 186.006588 0h381.349647a26.352941 26.352941 0 0 1 3.312941 52.525177l-3.312941 0.210823H480.768a96.677647 96.677647 0 0 1-186.006588 0l-109.025883-0.030117v158.117647h425.261177a96.677647 96.677647 0 0 1 186.006588 0h65.114353a26.352941 26.352941 0 0 1 3.312941 52.525176l-3.312941 0.210824h-65.114353a96.677647 96.677647 0 0 1-186.006588 0l-425.261177-0.030118v158.117647h109.025883a96.677647 96.677647 0 0 1 186.006588 0h381.349647a26.352941 26.352941 0 0 1 3.312941 52.525177l-3.312941 0.210823H480.768a96.677647 96.677647 0 0 1-186.006588 0l-109.025883-0.030118v114.206118z" fill="#568af2" /></svg>