<svg class="icon" style="width: 1em;height: 1em;vertical-align: middle;fill: currentColor;overflow: hidden;" viewBox="0 0 1024 1024" version="1.1" xmlns="http://www.w3.org/2000/svg" width="32" height="32"><path d="M0 0h1024v1024H0z" fill="#568af2" fill-opacity="0" /><path d="M210.823529 184.470588c13.432471 0 24.515765 10.059294 26.142118 23.04l0.210824 3.312941v606.117647H843.294118c13.432471 0 24.515765 10.059294 26.142117 23.04l0.210824 3.312942a26.352941 26.352941 0 0 1-23.04 26.142117l-3.312941 0.210824H210.823529a26.352941 26.352941 0 0 1-26.142117-23.04L184.470588 843.294118V210.823529c0-14.546824 11.806118-26.352941 26.352941-26.352941z" fill="#568af2" /><path d="M696.530824 202.029176c34.936471 0 64.993882 24.244706 67.523764 56.982589l0.180706 4.517647v544.617412a26.352941 26.352941 0 0 1-52.495059 3.312941l-0.210823-3.312941V263.529412c0-3.312941-4.487529-7.559529-11.715765-8.553412l-3.282823-0.240941h-268.67953c-8.011294 0-13.462588 3.824941-14.727529 7.318588l-0.271059 1.475765v544.617412a26.352941 26.352941 0 0 1-52.495059 3.312941l-0.210823-3.312941V263.529412c0-33.460706 28.521412-59.181176 62.945882-61.349647l4.758588-0.150589h268.67953z" fill="#568af2" /><path d="M702.735059 643.162353a26.352941 26.352941 0 0 1 3.312941 52.495059l-3.312941 0.210823h-298.646588a26.352941 26.352941 0 0 1-3.312942-52.495059l3.312942-0.210823h298.646588zM632.470588 412.852706a26.352941 26.352941 0 0 1 3.312941 52.525176l-3.312941 0.180706h-140.559059a26.352941 26.352941 0 0 1-3.312941-52.495059l3.312941-0.210823H632.470588z" fill="#568af2" /><path d="M562.206118 325.029647c13.432471 0 24.515765 10.029176 26.142117 23.04l0.210824 3.312941V669.515294a26.352941 26.352941 0 0 1-52.525177 3.312941l-0.180706-3.312941V351.382588c0-14.576941 11.776-26.352941 26.352942-26.352941z" fill="#568af2" /></svg>