<svg class="icon" style="width: 1em;height: 1em;vertical-align: middle;fill: currentColor;overflow: hidden;" viewBox="0 0 1024 1024" version="1.1" xmlns="http://www.w3.org/2000/svg" width="32" height="32"><path d="M501.970824 124.235294c14.546824 0 26.352941 11.806118 26.352941 26.352941l-0.030118 324.99953h325.029647c13.432471 0 24.545882 10.059294 26.172235 23.070117l0.180706 3.312942c0 208.594824-169.110588 377.705412-377.705411 377.705411-208.624941 0-377.735529-169.110588-377.73553-377.705411 0-208.624941 169.110588-377.735529 377.73553-377.73553z m79.058823 42.465882a26.352941 26.352941 0 0 1 34.243765-25.178352 378.578824 378.578824 0 0 1 247.115294 247.115294 26.352941 26.352941 0 0 1-25.148235 34.273882h-229.857883a26.352941 26.352941 0 0 1-26.352941-26.352941z" fill="#568af2" /></svg>