<svg class="icon" style="width: 1em;height: 1em;vertical-align: middle;fill: currentColor;overflow: hidden;" viewBox="0 0 1024 1024" version="1.1" xmlns="http://www.w3.org/2000/svg" width="32" height="32"><path d="M326.264471 124.235294c79.149176 0 128.210824 60.024471 160.075294 164.141177l5.150117 17.769411 4.848942 18.552471 3.312941 13.793882 4.246588 20.48 7.107765 37.948236 10.089411 58.368 6.716236 41.502117 5.481411 26.895059 5.270589 24.666353 5.210353 22.889412 5.330823 21.654588c1.807059 7.077647 3.644235 14.004706 5.571765 20.901647l5.993412 20.690824c2.078118 6.927059 4.246588 13.854118 6.565647 20.961882 35.297882 108.875294 79.691294 171.52 128 171.52 36.532706 0 72.643765-57.795765 99.749647-156.310588 10.270118-37.376 18.522353-77.643294 24.907294-117.910589l1.596235-10.390588 2.770824-19.516235 2.861176-23.491765a26.352941 26.352941 0 1 1 52.434824 5.240471l-1.807059 15.721412-2.620235 19.425882-3.192471 21.232941a1148.024471 1148.024471 0 0 1-26.142118 123.663059l-5.511529 19.215059-5.722353 18.371764c-32.346353 98.635294-75.956706 157.455059-139.354353 157.455059-80.564706 0-136.071529-78.336-178.115765-207.962353-8.432941-26.051765-15.299765-50.296471-21.744941-76.438588l-5.421176-23.009882a1864.583529 1864.583529 0 0 1-5.421177-24.485647l-5.511529-26.50353-3.011765-14.998588-8.734118-53.458823-11.444705-64.933648-4.517647-23.190588-3.011765-14.336-0.90353-3.975529c-25.991529-110.351059-64.783059-169.441882-121.072941-169.441883-45.236706 0-85.534118 57.554824-115.350588 156.912942a966.505412 966.505412 0 0 0-26.684235 117.549176 1115.256471 1115.256471 0 0 0-3.192471 20.299294l-3.463529 25.871059-0.783059 7.017412a26.352941 26.352941 0 1 1-52.464941-5.240471l1.867294-15.841882 2.710588-19.486118c0.993882-6.806588 2.108235-13.914353 3.343059-21.293176 7.047529-42.194824 16.323765-84.419765 28.220235-124.024471 36.050824-120.259765 88.003765-194.469647 165.76753-194.469647z" fill="#568af2" /><path d="M378.970353 475.617882a26.352941 26.352941 0 0 1 3.312941 52.495059l-3.312941 0.210824h-105.411765a26.352941 26.352941 0 0 1-3.312941-52.525177l3.312941-0.180706h105.411765zM730.352941 475.617882a26.352941 26.352941 0 0 1 3.312941 52.495059l-3.312941 0.210824h-105.411765a26.352941 26.352941 0 0 1-3.312941-52.525177l3.312941-0.180706h105.411765z" fill="#568af2" /></svg>