<svg class="icon" style="width: 1em;height: 1em;vertical-align: middle;fill: currentColor;overflow: hidden;" viewBox="0 0 1024 1024" version="1.1" xmlns="http://www.w3.org/2000/svg" width="32" height="32"><path d="M0 0h1024v1024H0z" fill="#568af2" fill-opacity="0" /><path d="M395.294118 645.421176c13.432471 0 24.515765 10.029176 26.142117 23.04l0.210824 3.312942v143.36a26.352941 26.352941 0 0 1-52.495059 3.282823l-0.210824-3.312941v-143.36c0-14.546824 11.806118-26.352941 26.352942-26.352941zM254.735059 751.676235c13.432471 0 24.545882 10.059294 26.172235 23.070118l0.180706 3.312941v36.080941a26.352941 26.352941 0 0 1-52.495059 3.312941l-0.210823-3.312941v-36.111059c0-14.546824 11.806118-26.352941 26.352941-26.352941zM535.853176 523.294118c13.432471 0 24.515765 10.059294 26.142118 23.04l0.210824 3.312941v264.794353a26.352941 26.352941 0 0 1-52.525177 3.312941l-0.180706-3.312941V549.647059c0-14.546824 11.776-26.352941 26.352941-26.352941zM676.382118 382.072471c13.432471 0 24.545882 10.059294 26.172235 23.04l0.180706 3.312941v406.287059a26.352941 26.352941 0 0 1-52.495059 3.312941l-0.210824-3.312941v-406.287059c0-14.546824 11.806118-26.352941 26.352942-26.352941zM816.941176 241.694118c13.432471 0 24.515765 10.029176 26.142118 23.04L843.294118 268.047059v546.605176a26.352941 26.352941 0 0 1-52.495059 3.312941l-0.210824-3.312941V268.016941c0-14.546824 11.806118-26.322824 26.352941-26.322823zM675.328 162.063059a26.352941 26.352941 0 0 1 39.634824 34.575059l-2.379295 2.710588-474.352941 474.352941a26.352941 26.352941 0 0 1-39.604706-34.575059l2.349177-2.710588 474.352941-474.352941z" fill="#568af2" /><path d="M219.617882 435.440941c13.432471 0 24.515765 10.059294 26.142118 23.070118l0.210824 3.312941v193.234824a26.352941 26.352941 0 0 1-52.525177 3.312941l-0.180706-3.312941v-193.264942c0-14.546824 11.776-26.352941 26.352941-26.352941z" fill="#568af2" /></svg>