<svg class="icon" style="width: 1em;height: 1em;vertical-align: middle;fill: currentColor;overflow: hidden;" viewBox="0 0 1024 1024" version="1.1" xmlns="http://www.w3.org/2000/svg" width="32" height="32"><path d="M0 0h1024v1024H0z" fill="#568af2" fill-opacity="0" /><path d="M843.294118 637.500235a26.352941 26.352941 0 0 1 3.312941 52.495059l-3.312941 0.210824h-245.970824a26.352941 26.352941 0 0 1-3.312941-52.525177l3.312941-0.180706H843.294118zM843.294118 795.617882a26.352941 26.352941 0 0 1 3.312941 52.495059l-3.312941 0.210824h-245.970824a26.352941 26.352941 0 0 1-3.312941-52.525177l3.312941-0.180706H843.294118zM491.911529 294.912a26.352941 26.352941 0 0 1 3.312942 52.495059l-3.312942 0.210823H210.823529a26.352941 26.352941 0 0 1-3.312941-52.525176L210.823529 294.912h281.088z" fill="#568af2" /><path d="M351.382588 154.352941c13.432471 0 24.515765 10.059294 26.142118 23.04l0.210823 3.312941v281.088a26.352941 26.352941 0 0 1-52.525176 3.312942l-0.180706-3.312942V180.705882c0-14.546824 11.776-26.352941 26.352941-26.352941zM824.651294 162.063059a26.352941 26.352941 0 0 1 39.634824 34.575059l-2.349177 2.710588-632.470588 632.470588a26.352941 26.352941 0 0 1-39.634824-34.575059l2.349177-2.710588 632.470588-632.470588z" fill="#568af2" /></svg>