<svg class="icon" style="width: 1em;height: 1em;vertical-align: middle;fill: currentColor;overflow: hidden;" viewBox="0 0 1024 1024" version="1.1" xmlns="http://www.w3.org/2000/svg" width="32" height="32"><path d="M0 0h1024v1024H0z" fill="#568af2" fill-opacity="0" /><path d="M843.294118 641.264941a26.352941 26.352941 0 0 1 3.312941 52.495059l-3.312941 0.210824h-245.970824a26.352941 26.352941 0 0 1-3.312941-52.525177l3.312941-0.180706H843.294118zM843.294118 781.793882a26.352941 26.352941 0 0 1 3.312941 52.525177l-3.312941 0.180706h-245.970824a26.352941 26.352941 0 0 1-3.312941-52.495059l3.312941-0.210824H843.294118zM414.539294 611.087059a26.352941 26.352941 0 0 1 39.634824 34.575059l-2.349177 2.710588-198.77647 198.746353a26.352941 26.352941 0 0 1-39.634824-34.575059l2.379294-2.710588 198.776471-198.776471z" fill="#568af2" /><path d="M215.792941 611.087059a26.352941 26.352941 0 0 1 34.544941-2.349177l2.710589 2.349177 198.77647 198.77647a26.352941 26.352941 0 0 1-34.575059 39.604706l-2.710588-2.349176-198.77647-198.776471a26.352941 26.352941 0 0 1 0-37.255529zM843.294118 307.440941a26.352941 26.352941 0 0 1 3.312941 52.525177l-3.312941 0.180706h-245.970824a26.352941 26.352941 0 0 1-3.312941-52.495059l3.312941-0.210824H843.294118zM456.794353 307.440941a26.352941 26.352941 0 0 1 3.312941 52.525177l-3.312941 0.180706H210.823529a26.352941 26.352941 0 0 1-3.312941-52.495059l3.312941-0.210824h245.970824z" fill="#568af2" /><path d="M333.793882 184.470588c13.432471 0 24.545882 10.059294 26.172236 23.04l0.180706 3.312941v245.970824a26.352941 26.352941 0 0 1-52.495059 3.312941l-0.210824-3.312941V210.823529c0-14.546824 11.806118-26.352941 26.352941-26.352941z" fill="#568af2" /></svg>