<svg class="icon" style="width: 1em;height: 1em;vertical-align: middle;fill: currentColor;overflow: hidden;" viewBox="0 0 1024 1024" version="1.1" xmlns="http://www.w3.org/2000/svg" width="32" height="32"><path d="M501.970824 124.235294c208.594824 0 377.705412 169.110588 377.705411 377.73553 0 208.594824-169.110588 377.705412-377.705411 377.705411-208.624941 0-377.735529-169.110588-377.73553-377.705411 0-208.624941 169.110588-377.735529 377.73553-377.73553z m-23.582118 176.670118c-7.107765-24.214588-42.767059-25.328941-50.447059 0.240941l-74.119529 247.055059H273.558588l-3.312941 0.210823a26.352941 26.352941 0 0 0 3.312941 52.495059H373.458824l3.463529-0.210823a26.352941 26.352941 0 0 0 21.775059-18.582589l47.164235-157.214117 45.869177 274.672941 0.783058 3.373176c6.686118 22.799059 39.303529 25.750588 49.332706 2.861177l64.361412-146.82353 33.611294 34.063059 2.620235 2.349177a26.352941 26.352941 0 0 0 16.143059 5.511529h71.800471l3.312941-0.210823a26.352941 26.352941 0 0 0 23.04-26.142118l-0.210824-3.312941a26.352941 26.352941 0 0 0-26.142117-23.04h-60.777412l-53.127529-53.910588-2.56-2.258824a26.352941 26.352941 0 0 0-40.357647 10.179765l-44.453647 101.345882-49.904942-299.188706z" fill="#568af2" /></svg>