<svg class="icon" style="width: 1em;height: 1em;vertical-align: middle;fill: currentColor;overflow: hidden;" viewBox="0 0 1024 1024" version="1.1" xmlns="http://www.w3.org/2000/svg" width="32" height="32"><path d="M150.588235 133.029647c13.432471 0 24.515765 10.029176 26.142118 23.04l0.210823 3.312941V835.764706h676.382118c13.432471 0 24.545882 10.059294 26.172235 23.04l0.180706 3.312941a26.352941 26.352941 0 0 1-23.04 26.142118l-3.312941 0.210823H150.588235a26.352941 26.352941 0 0 1-26.142117-23.04l-0.210824-3.312941V159.382588c0-14.576941 11.806118-26.352941 26.352941-26.352941z" fill="#568af2" /><path d="M554.676706 133.029647c91.798588 0 164.050824 88.786824 223.774118 239.977412l8.071529 21.022117 3.975529 10.782118 7.830589 22.136471 7.710117 22.889411c21.775059 66.319059 40.146824 137.185882 55.265883 208.022589l3.102117 14.667294 5.601883 27.919059 2.499764 13.221647 6.02353 33.822117 0.843294 5.12a26.352941 26.352941 0 0 1-52.10353 8.161883l-1.897411-11.535059-4.668236-25.901177-5.12-26.262588-5.812706-28.190117c-14.757647-69.150118-32.707765-138.270118-53.820235-202.63153a1337.584941 1337.584941 0 0 0-18.823529-53.669647l-7.770353-20.028235a1039.119059 1039.119059 0 0 0-3.915294-9.728l-7.920941-18.82353c-49.332706-113.392941-105.200941-178.296471-162.846118-178.29647-65.475765 0-128.602353 83.636706-182.482824 226.876235l-7.619764 20.871529c-3.794824 10.631529-7.529412 21.594353-11.203765 32.828236-21.112471 64.331294-39.032471 133.421176-53.820235 202.601412l-5.812706 28.190117-2.650353 13.402353-6.415059 34.69553-2.620235 15.600941a26.352941 26.352941 0 1 1-52.10353-8.131765l3.614118-21.172706 3.252706-17.799529 5.24047-26.955294c1.867294-9.306353 3.855059-18.944 5.963295-28.852706 15.119059-70.836706 33.520941-141.703529 55.265882-208.022589 3.824941-11.625412 7.68-22.979765 11.595294-34.032941l7.920941-21.775059 4.035765-10.601411 8.131765-20.630589 8.31247-19.817411c57.253647-132.848941 125.831529-209.950118 211.395765-209.950118z" fill="#568af2" /><path d="M853.323294 133.029647a26.352941 26.352941 0 0 1 3.312941 52.495059l-3.312941 0.210823H256a26.352941 26.352941 0 0 1-3.312941-52.525176l3.312941-0.180706h597.323294z" fill="#568af2" /></svg>