<svg class="icon" style="width: 1em;height: 1em;vertical-align: middle;fill: currentColor;overflow: hidden;" viewBox="0 0 1024 1024" version="1.1" xmlns="http://www.w3.org/2000/svg" width="32" height="32"><path d="M256 857.088a26.352941 26.352941 0 0 1-3.312941-52.495059l3.312941-0.210823h219.587765v-70.264471H203.294118a79.058824 79.058824 0 0 1-78.908236-74.059294l-0.150588-4.999529v-421.647059a79.058824 79.058824 0 0 1 74.059294-78.908236l4.99953-0.150588h597.323294a79.058824 79.058824 0 0 1 78.908235 74.059294l0.150588 4.99953v421.647059a79.058824 79.058824 0 0 1-74.059294 78.908235l-4.999529 0.150588h-272.323765v70.264471h219.617882a26.352941 26.352941 0 0 1 3.312942 52.525176l-3.312942 0.180706H256z m404.088471-421.647059a79.058824 79.058824 0 1 0 0 158.117647 79.058824 79.058824 0 0 0 0-158.117647z m-32.075295-136.192l-2.861176 2.168471-281.088 245.970823-2.529882 2.529883a26.352941 26.352941 0 0 0 34.394353 39.303529l2.831058-2.168471 281.118118-245.970823 2.529882-2.529882a26.352941 26.352941 0 0 0-34.394353-39.30353z m-284.16-4.336941a79.058824 79.058824 0 1 0 0 158.117647 79.058824 79.058824 0 0 0 0-158.117647z" fill="#568af2" /></svg>