<svg class="icon" style="width: 1em;height: 1em;vertical-align: middle;fill: currentColor;overflow: hidden;" viewBox="0 0 1024 1024" version="1.1" xmlns="http://www.w3.org/2000/svg" width="32" height="32"><path d="M421.647059 184.470588c10.631529 0 20.178824 6.384941 24.304941 16.173177 19.425882 46.381176 45.658353 67.072 81.106824 67.072s61.680941-20.720941 81.106823-67.072A26.352941 26.352941 0 0 1 632.470588 184.470588h210.82353c14.546824 0 26.352941 11.806118 26.352941 26.352941v632.470589a26.352941 26.352941 0 0 1-26.352941 26.352941H210.823529A26.352941 26.352941 0 0 1 184.470588 843.294118V210.823529c0-14.546824 11.806118-26.352941 26.352941-26.352941z m282.172235 218.533647a26.352941 26.352941 0 0 0-37.285647 0l-192.180706 192.210824-86.768941-86.799059-2.710588-2.349176a26.352941 26.352941 0 0 0-34.575059 39.634823l105.411765 105.411765 2.710588 2.349176a26.352941 26.352941 0 0 0 34.575059-2.349176l210.823529-210.82353 2.349177-2.710588a26.352941 26.352941 0 0 0-2.349177-34.575059z" fill="#568af2" /></svg>