<svg class="icon" style="width: 1em;height: 1em;vertical-align: middle;fill: currentColor;overflow: hidden;" viewBox="0 0 1024 1024" version="1.1" xmlns="http://www.w3.org/2000/svg" width="32" height="32"><path d="M637.500235 184.470588c13.432471 0 24.515765 10.059294 26.142118 23.04l0.210823 3.312941-0.030117 324.99953h202.059294c13.432471 0 24.515765 10.059294 26.142118 23.070117l0.210823 3.312942V843.294118a26.352941 26.352941 0 0 1-23.04 26.142117l-3.312941 0.210824-227.930353-0.030118-0.451765 0.030118H180.705882a26.352941 26.352941 0 0 1-26.142117-23.04L154.352941 843.294118V421.647059c0-13.432471 10.059294-24.515765 23.04-26.142118l3.312941-0.210823h202.029177V210.823529c0-13.432471 10.059294-24.515765 23.070117-26.142117l3.312942-0.210824h228.382117z m-254.765176 263.529412H207.058824v368.941176h175.676235v-368.941176z m456.794353 140.528941h-175.706353v228.412235h175.706353v-228.412235z" fill="#568af2" /></svg>