<svg class="icon" style="width: 1em;height: 1em;vertical-align: middle;fill: currentColor;overflow: hidden;" viewBox="0 0 1024 1024" version="1.1" xmlns="http://www.w3.org/2000/svg" width="32" height="32"><path d="M818.206118 214.588235c33.942588 0 61.470118 27.527529 61.470117 61.500236V768a61.500235 61.500235 0 0 1-61.470117 61.500235h-632.470589A61.500235 61.500235 0 0 1 124.235294 768V276.088471c0-33.972706 27.527529-61.500235 61.500235-61.500236z m-456.794353 210.82353a26.352941 26.352941 0 0 0-26.352941 26.352941v210.823529l0.210823 3.312941a26.352941 26.352941 0 0 0 52.495059-3.312941v-210.823529l-0.210824-3.312941a26.352941 26.352941 0 0 0-26.142117-23.04z m281.088 87.853176a26.352941 26.352941 0 0 0-26.352941 26.352941V662.588235l0.210823 3.312941a26.352941 26.352941 0 0 0 52.495059-3.312941v-122.970353l-0.180706-3.312941a26.352941 26.352941 0 0 0-26.172235-23.04z m-140.528941-158.117647a26.352941 26.352941 0 0 0-26.352942 26.352941V662.588235l0.180706 3.312941a26.352941 26.352941 0 0 0 52.525177-3.312941v-281.088l-0.210824-3.312941a26.352941 26.352941 0 0 0-26.142117-23.04z" fill="#568af2" /></svg>