<svg class="icon" style="width: 1em;height: 1em;vertical-align: middle;fill: currentColor;overflow: hidden;" viewBox="0 0 1024 1024" version="1.1" xmlns="http://www.w3.org/2000/svg" width="32" height="32"><path d="M194.499765 829.500235a61.500235 61.500235 0 0 1-61.31953-56.922353l-0.150588-4.577882V276.088471c0-32.436706 25.088-58.970353 56.892235-61.31953l4.577883-0.180706h632.470588c32.436706 0 58.970353 25.088 61.319529 56.922353l0.180706 4.577883V768a61.500235 61.500235 0 0 1-56.922353 61.319529l-4.577882 0.180706h-632.470588zM361.411765 636.235294H185.735529V768l-0.030117 0.481882v2.078118c0 2.951529 2.921412 5.421176 6.77647 6.053647l2.017883 0.180706L361.411765 776.734118v-140.528942z m245.970823 0H414.117647v140.528941h193.264941v-140.528941z m228.382118 0h-175.676235v140.528941h166.881882c4.156235 0 7.649882-2.017882 8.553412-4.788706l0.240941-1.415529v-134.324706z m-228.382118-175.706353H414.117647v123.000471h193.264941v-123.000471z m-245.970823 0H185.735529v123.000471H361.411765v-123.000471z m474.352941 0h-175.676235v123.000471h175.676235v-123.000471z" fill="#568af2" /></svg>