<svg class="icon" style="width: 1em;height: 1em;vertical-align: middle;fill: currentColor;overflow: hidden;" viewBox="0 0 1024 1024" version="1.1" xmlns="http://www.w3.org/2000/svg" width="32" height="32"><path d="M843.294118 154.352941H210.823529A26.352941 26.352941 0 0 0 184.470588 180.705882v140.559059c0 14.546824 11.806118 26.352941 26.352941 26.352941h632.470589a26.352941 26.352941 0 0 0 26.352941-26.352941V180.705882A26.352941 26.352941 0 0 0 843.294118 154.352941z m0 263.529412H210.823529a26.352941 26.352941 0 0 0-26.352941 26.352941v140.559059c0 14.546824 11.806118 26.352941 26.352941 26.352941h632.470589a26.352941 26.352941 0 0 0 26.352941-26.352941V444.235294a26.352941 26.352941 0 0 0-26.352941-26.352941z m0 263.529412H210.823529a26.352941 26.352941 0 0 0-26.352941 26.352941v140.559059c0 14.546824 11.806118 26.352941 26.352941 26.352941h632.470589a26.352941 26.352941 0 0 0 26.352941-26.352941V707.764706a26.352941 26.352941 0 0 0-26.352941-26.352941z" fill="#568af2" /></svg>