<svg class="icon" style="width: 1em;height: 1em;vertical-align: middle;fill: currentColor;overflow: hidden;" viewBox="0 0 1024 1024" version="1.1" xmlns="http://www.w3.org/2000/svg" width="32" height="32"><path d="M735.804235 184.470588c17.588706 0 27.828706 2.108235 38.430118 8.131765 9.938824 5.692235 17.769412 14.064941 22.949647 24.395294 4.698353 9.336471 6.686118 18.281412 7.107765 32.466824l0.090353 6.415058v69.12h43.941647c13.432471 0 24.515765 10.059294 26.142117 23.070118l0.210824 3.312941v456.764236a26.352941 26.352941 0 0 1-23.070118 26.172235l-3.312941 0.180706H180.705882a26.352941 26.352941 0 0 1-26.142117-23.04l-0.210824-3.312941V351.382588c0-13.432471 10.059294-24.545882 23.04-26.172235l3.312941-0.180706 43.91153-0.030118V255.879529c0-18.070588 1.837176-28.220235 7.228235-38.881882 5.150118-10.330353 13.010824-18.703059 22.919529-24.395294 9.276235-5.270588 18.281412-7.529412 32.165648-8.041412l6.26447-0.090353h442.608941z m-203.685647 358.068706l-2.469647 2.499765-88.847059 103.634823-67.945411-54.362353-2.800942-1.957647a26.352941 26.352941 0 0 0-30.418823 2.228706l-2.740706 2.620236-165.707294 182.512941-2.228706 2.831059a26.383059 26.383059 0 0 0 1.536 31.834352l2.499765 2.56 2.800941 2.228706a26.383059 26.383059 0 0 0 31.834353-1.505882l2.590117-2.499765 149.022118-164.231529 68.547765 54.814118 2.861176 2.017882a26.352941 26.352941 0 0 0 31.141647-2.921412l2.469647-2.529882 88.636236-103.424 268.107294 218.955294 2.921412 2.108235a26.352941 26.352941 0 0 0 33.039058-40.478117l-2.620235-2.43953-288.015059-235.248941-2.891294-2.048a26.352941 26.352941 0 0 0-31.322353 2.800941z m-210.853647-103.303529a52.705882 52.705882 0 1 0 0 105.411764 52.705882 52.705882 0 0 0 0-105.411764z m417.641412-202.029177H290.123294l-2.831059 0.030118-3.70447 0.301176a6.927059 6.927059 0 0 0-2.710589 0.873412 4.728471 4.728471 0 0 0-1.927529 2.198588l-0.752941 1.897412a13.131294 13.131294 0 0 0-0.301177 1.204706l-0.361411 3.312941-0.180706 5.270588-0.030118 72.704h474.352941V252.295529l-0.180706-5.270588a38.460235 38.460235 0 0 0-0.180705-1.867294l-0.481883-2.650353a10.541176 10.541176 0 0 0-0.752941-1.897412 4.728471 4.728471 0 0 0-1.957647-2.198588l-1.295059-0.602353a8.131765 8.131765 0 0 0-0.903529-0.180706l-2.590118-0.301176-4.427294-0.120471z" fill="#568af2" /></svg>