<svg class="icon" style="width: 1em;height: 1em;vertical-align: middle;fill: currentColor;overflow: hidden;" viewBox="0 0 1024 1024" version="1.1" xmlns="http://www.w3.org/2000/svg" width="32" height="32"><path d="M650.029176 184.470588c13.432471 0 24.545882 10.059294 26.172236 23.04l0.180706 3.312941v158.117647a26.352941 26.352941 0 0 1-23.04 26.142118l-3.312942 0.210824h-96.617411v105.411764h166.912c13.432471 0 24.515765 10.059294 26.142117 23.04l0.210824 3.312942-0.030118 131.764705H843.294118c13.432471 0 24.515765 10.059294 26.142117 23.04l0.210824 3.312942V843.294118a26.352941 26.352941 0 0 1-26.352941 26.352941h-245.970824a26.352941 26.352941 0 0 1-26.352941-26.352941v-158.117647c0-14.546824 11.806118-26.352941 26.352941-26.352942h96.617412v-105.411764H360.146824v105.411764h96.647529c13.432471 0 24.515765 10.059294 26.142118 23.04l0.210823 3.312942V843.294118a26.352941 26.352941 0 0 1-23.070118 26.142117l-3.312941 0.210824H210.823529a26.352941 26.352941 0 0 1-26.142117-23.04L184.470588 843.294118v-158.117647c0-13.432471 10.059294-24.515765 23.04-26.142118l3.312941-0.210824h96.617412V527.058824c0-13.432471 10.059294-24.515765 23.070118-26.142118l3.312941-0.210824h166.881882v-105.411764h-96.617411a26.352941 26.352941 0 0 1-26.172236-23.04l-0.180706-3.312942V210.823529c0-13.432471 10.029176-24.515765 23.04-26.142117l3.312942-0.210824h245.940705z" fill="#568af2" /></svg>