<svg class="icon" style="width: 1em;height: 1em;vertical-align: middle;fill: currentColor;overflow: hidden;" viewBox="0 0 1024 1024" version="1.1" xmlns="http://www.w3.org/2000/svg" width="32" height="32"><path d="M507.482353 124.235294l5.451294 0.060235 21.744941 0.361412 10.721883 0.301177 21.202823 0.933647 10.420706 0.602353 20.570353 1.445647 20.118588 1.807059c9.938824 0.963765 19.696941 2.108235 29.244235 3.312941l18.853648 2.68047c126.795294 19.275294 213.865412 61.801412 213.865411 120.259765 0 3.553882-0.301176 7.047529-0.933647 10.511059 0.301176 1.204706 0.602353 2.469647 0.752941 3.764706l0.180706 3.312941v474.352941c0 57.012706-82.823529 98.906353-204.679529 118.784l-18.552471 2.831059-19.094588 2.499765-9.758118 1.114353-19.877647 1.957647-20.329411 1.626353-20.781177 1.264941-10.541176 0.512-21.38353 0.752941-10.842353 0.210823-21.865411 0.180706-21.89553-0.180706a1253.496471 1253.496471 0 0 1-10.842353-0.210823l-21.383529-0.752941a1181.214118 1181.214118 0 0 1-10.541177-0.512l-20.781176-1.264941-20.329412-1.626353-19.877647-1.957647a971.143529 971.143529 0 0 1-9.728-1.114353l-19.124706-2.499765-18.55247-2.831059c-118.784-19.395765-200.523294-59.693176-204.498824-114.567529l-0.180706-4.216471V273.558588c0-2.469647 0.331294-4.879059 0.963765-7.137882a55.988706 55.988706 0 0 1-0.963765-10.450824c0-52.766118 70.896941-92.551529 177.935059-113.965176l17.679059-3.312941c5.993412-1.054118 12.077176-2.048 18.281412-3.011765l18.823529-2.620235c9.547294-1.264941 19.305412-2.379294 29.244235-3.343059l20.118588-1.807059 20.570353-1.445647 10.450824-0.602353 21.172706-0.903529c3.553882-0.150588 7.137882-0.240941 10.752-0.331294l21.684706-0.361412 11.023059-0.060236c3.674353 0 7.318588 0 10.962823 0.060236z m167.514353 584.372706l-18.552471 2.831059-19.094588 2.499765-9.758118 1.114352-19.877647 1.957648-20.329411 1.626352-20.781177 1.264942a1181.214118 1181.214118 0 0 1-10.541176 0.512l-21.38353 0.752941-10.842353 0.210823-21.865411 0.180706-21.89553-0.180706a1253.496471 1253.496471 0 0 1-10.842353-0.210823l-21.383529-0.752941a1181.214118 1181.214118 0 0 1-10.541177-0.512l-20.781176-1.264942-20.329412-1.626352-19.877647-1.957648a971.143529 971.143529 0 0 1-9.728-1.114352l-19.124706-2.499765-18.55247-2.831059c-63.186824-10.300235-115.892706-26.533647-152.003765-47.736471l0.030117 87.04c0 12.167529 29.033412 32.768 84.148706 49.302589 62.825412 18.853647 148.841412 29.756235 240.880942 29.756235s178.055529-10.902588 240.880941-29.756235c52.585412-15.781647 81.438118-35.237647 83.937882-47.585883l0.180706-1.716706 0.030118-87.04c-36.080941 21.202824-88.786824 37.436235-152.003765 47.736471z m0-158.117647l-18.552471 2.831059-19.094588 2.499764-9.758118 1.114353-19.877647 1.957647-20.329411 1.626353-20.781177 1.264942a1181.214118 1181.214118 0 0 1-10.541176 0.512l-21.38353 0.752941-10.842353 0.210823-21.865411 0.180706-21.89553-0.180706a1253.496471 1253.496471 0 0 1-10.842353-0.210823l-21.383529-0.752941a1181.214118 1181.214118 0 0 1-10.541177-0.512l-20.781176-1.264942-20.329412-1.626353-19.877647-1.957647a971.143529 971.143529 0 0 1-9.728-1.114353l-19.124706-2.499764-18.55247-2.831059c-63.186824-10.300235-115.892706-26.533647-152.003765-47.736471l0.030117 87.04c0 12.167529 29.033412 32.768 84.148706 49.302589 62.825412 18.853647 148.841412 29.756235 240.880942 29.756235s178.055529-10.902588 240.880941-29.756235c55.085176-16.534588 84.118588-37.135059 84.118588-49.302589l0.030118-87.04c-36.080941 21.202824-88.786824 37.436235-152.003765 47.736471z m152.003765-223.412706c-37.827765 22.196706-93.936941 38.972235-161.189647 49.182118l-18.853648 2.650353c-9.547294 1.264941-19.305412 2.379294-29.244235 3.343058l-20.118588 1.807059-20.570353 1.445647-10.420706 0.602353-21.202823 0.90353c-3.553882 0.150588-7.137882 0.240941-10.721883 0.331294l-21.744941 0.361412-10.962823 0.060235c-3.674353 0-7.348706 0-10.992942-0.060235l-21.714823-0.361412-10.752-0.301177-21.172706-0.933647-10.450824-0.602353-20.570353-1.445647-20.118588-1.807059c-9.938824-0.963765-19.696941-2.108235-29.214117-3.312941l-18.853647-2.68047a817.091765 817.091765 0 0 1-18.281412-2.981647l-17.679059-3.312942c-51.350588-10.270118-94.388706-24.786824-125.259294-42.917647l0.030117 104.628706c0 12.167529 29.033412 32.768 84.148706 49.302589 62.825412 18.853647 148.841412 29.756235 240.880942 29.756235s178.055529-10.902588 240.880941-29.756235c55.085176-16.534588 84.118588-37.135059 84.118588-49.302589z" fill="#568af2" /></svg>