<svg class="icon" style="width: 1em;height: 1em;vertical-align: middle;fill: currentColor;overflow: hidden;" viewBox="0 0 1024 1024" version="1.1" xmlns="http://www.w3.org/2000/svg" width="32" height="32"><path d="M0 0h1024v1024H0z" fill="#568af2" fill-opacity="0" /><path d="M843.294118 154.352941c13.432471 0 24.515765 10.059294 26.142117 23.04l0.210824 3.312941v439.265883a26.352941 26.352941 0 0 1-23.04 26.172235l-3.312941 0.180706H210.823529a26.352941 26.352941 0 0 1-26.142117-23.04l-0.210824-3.312941V180.705882a26.352941 26.352941 0 0 1 52.495059-3.312941l0.210824 3.312941v412.912942h579.764705V180.705882c0-13.432471 10.059294-24.515765 23.04-26.142117l3.312942-0.210824zM613.827765 724.269176a26.352941 26.352941 0 0 1 39.634823 34.575059l-2.349176 2.710589-105.411765 105.411764a26.352941 26.352941 0 0 1-34.575059 2.349177l-2.710588-2.379294-105.411765-105.411765a26.352941 26.352941 0 0 1 34.575059-39.604706l2.710588 2.349176 86.768942 86.768942 86.768941-86.768942z" fill="#568af2" /><path d="M527.058824 593.558588c13.432471 0 24.515765 10.059294 26.142117 23.070118l0.210824 3.312941v228.382118a26.352941 26.352941 0 0 1-52.495059 3.312941l-0.210824-3.312941v-228.412236c0-14.546824 11.806118-26.352941 26.352942-26.352941zM607.834353 238.381176a26.352941 26.352941 0 0 1 39.604706 34.575059l-2.349177 2.710589-198.77647 198.77647a26.352941 26.352941 0 0 1-39.604706-34.575059l2.349176-2.710588 198.776471-198.776471z" fill="#568af2" /><path d="M409.057882 238.381176a26.352941 26.352941 0 0 1 34.575059-2.349176l2.710588 2.349176 198.746353 198.776471a26.352941 26.352941 0 0 1-34.575058 39.604706l-2.710589-2.349177-198.77647-198.77647a26.352941 26.352941 0 0 1 0-37.25553z" fill="#568af2" /></svg>