<svg class="icon" style="width: 1em;height: 1em;vertical-align: middle;fill: currentColor;overflow: hidden;" viewBox="0 0 1024 1024" version="1.1" xmlns="http://www.w3.org/2000/svg" width="32" height="32"><path d="M210.823529 184.470588c13.432471 0 24.515765 10.059294 26.142118 23.04l0.210824 3.312941v606.117647H843.294118c13.432471 0 24.515765 10.059294 26.142117 23.04l0.210824 3.312942a26.352941 26.352941 0 0 1-23.04 26.142117l-3.312941 0.210824H210.823529a26.352941 26.352941 0 0 1-26.142117-23.04L184.470588 843.294118V210.823529c0-14.546824 11.806118-26.352941 26.352941-26.352941z m608.677647 15.028706c12.047059-25.359059 50.145882-16.745412 50.145883 11.324235v491.91153a26.352941 26.352941 0 0 1-26.352941 26.352941H351.382588a26.352941 26.352941 0 0 1-23.582117-38.128941l140.559058-281.088a26.352941 26.352941 0 0 1 41.200942-7.830588l149.413647 134.475294z" fill="#568af2" /></svg>