<svg class="icon" style="width: 1em;height: 1em;vertical-align: middle;fill: currentColor;overflow: hidden;" viewBox="0 0 1024 1024" version="1.1" xmlns="http://www.w3.org/2000/svg" width="32" height="32"><path d="M827.000471 133.029647c32.406588 0 58.970353 25.088 61.319529 56.892235l0.150588 4.577883v632.470588a61.500235 61.500235 0 0 1-56.922353 61.319529l-4.547764 0.180706h-632.470589a61.500235 61.500235 0 0 1-61.319529-56.922353l-0.180706-4.577882v-632.470588c0-32.406588 25.088-58.970353 56.892235-61.31953l4.577883-0.150588h632.470588z m-518.324706 228.894118l-122.970353 0.12047 0.030117 464.926118c0 4.156235 2.891294 7.649882 6.776471 8.553412l2.017882 0.240941 114.145883-1.024v-472.847059z m353.039059 57.554823l-2.710589 2.349177-79.058823 79.058823-2.349177 2.710588a26.383059 26.383059 0 0 0 0 31.864471l2.349177 2.710588 2.710588 2.349177a26.383059 26.383059 0 0 0 31.864471 0l2.710588-2.349177 34.032941-34.093176 0.030118 156.129882h-147.365647l34.243764-34.213647 2.349177-2.710588a26.352941 26.352941 0 0 0-36.924236-36.894118l-2.710588 2.349177-79.058823 79.058823-2.349177 2.710588a26.352941 26.352941 0 0 0 2.349177 34.544942l79.058823 79.058823 2.710588 2.379294a26.383059 26.383059 0 0 0 31.864471 0l2.710588-2.379294 2.349177-2.710588a26.383059 26.383059 0 0 0 0-31.834353l-2.349177-2.710588-33.942588-33.942588H677.647059l3.312941-0.180706a26.352941 26.352941 0 0 0 22.829176-22.859294l0.210824-3.312942v-182.512941l34.063059 34.123294 2.710588 2.349177a26.352941 26.352941 0 0 0 36.924235-36.924236l-2.349176-2.710588-79.058824-79.058823-2.710588-2.349177a26.383059 26.383059 0 0 0-31.86447 0zM308.705882 185.735529H194.499765a8.794353 8.794353 0 0 0-8.553412 6.746353l-0.210824 2.017883-0.030117 114.838588 123.00047-0.120471v-123.482353z m518.294589 0h-465.618824v123.452236l474.352941-0.451765 0.030118-114.236235a8.794353 8.794353 0 0 0-8.764235-8.764236z" fill="#568af2" /></svg>