<svg class="icon" style="width: 1em;height: 1em;vertical-align: middle;fill: currentColor;overflow: hidden;" viewBox="0 0 1024 1024" version="1.1" xmlns="http://www.w3.org/2000/svg" width="32" height="32"><path d="M818.206118 214.588235c33.942588 0 61.470118 27.527529 61.470117 61.500236V768a61.500235 61.500235 0 0 1-61.470117 61.500235h-632.470589A61.500235 61.500235 0 0 1 124.235294 768V276.088471c0-33.972706 27.527529-61.500235 61.500235-61.500236z m-316.235294 158.117647a26.352941 26.352941 0 0 0-26.352942 26.352942v245.970823l0.180706 3.312941a26.352941 26.352941 0 0 0 52.525177-3.312941V399.058824l-0.210824-3.312942a26.352941 26.352941 0 0 0-26.142117-23.04z m140.528941 122.970353a26.352941 26.352941 0 0 0-26.352941 26.352941v123.000471l0.210823 3.312941a26.352941 26.352941 0 0 0 52.495059-3.312941v-123.000471l-0.180706-3.312941a26.352941 26.352941 0 0 0-26.172235-23.04zM361.411765 460.559059a26.352941 26.352941 0 0 0-26.352941 26.352941v158.117647l0.210823 3.312941a26.352941 26.352941 0 0 0 52.495059-3.312941v-158.117647l-0.210824-3.312941a26.352941 26.352941 0 0 0-26.142117-23.04z" fill="#568af2" /></svg>