<svg class="icon" style="width: 1em;height: 1em;vertical-align: middle;fill: currentColor;overflow: hidden;" viewBox="0 0 1024 1024" version="1.1" xmlns="http://www.w3.org/2000/svg" width="32" height="32"><path d="M210.823529 184.470588c13.432471 0 24.515765 10.059294 26.142118 23.04l0.210824 3.312941v606.117647H843.294118c13.432471 0 24.515765 10.059294 26.142117 23.04l0.210824 3.312942a26.352941 26.352941 0 0 1-23.04 26.142117l-3.312941 0.210824H210.823529a26.352941 26.352941 0 0 1-26.142117-23.04L184.470588 843.294118V210.823529c0-14.546824 11.806118-26.352941 26.352941-26.352941zM368.941176 632.470588a52.705882 52.705882 0 1 1 0 105.411765 52.705882 52.705882 0 0 1 0-105.411765z m316.235295-70.26447a52.705882 52.705882 0 1 1 0 105.411764 52.705882 52.705882 0 0 1 0-105.411764z m-228.382118-175.706353a70.264471 70.264471 0 1 1 0 140.559059 70.264471 70.264471 0 0 1 0-140.559059zM755.440941 210.823529a87.853176 87.853176 0 1 1 0 175.676236 87.853176 87.853176 0 0 1 0-175.676236z" fill="#568af2" /></svg>