<svg class="icon" style="width: 1em;height: 1em;vertical-align: middle;fill: currentColor;overflow: hidden;" viewBox="0 0 1024 1024" version="1.1" xmlns="http://www.w3.org/2000/svg" width="32" height="32"><path d="M507.482353 154.352941l5.451294 0.060235 21.744941 0.361412 5.360941 0.150588 5.360942 0.180706 21.202823 0.90353 5.210353 0.301176 5.210353 0.301177 20.570353 1.445647 20.118588 1.807059 14.757647 1.566117 14.486588 1.776941 18.853648 2.650353c126.795294 19.275294 213.865412 61.801412 213.865411 120.259765 0 31.201882-24.786824 57.886118-67.222588 78.908235 42.827294 20.570353 67.222588 46.772706 67.222588 79.209412 0 31.201882-24.786824 57.856-67.162353 78.878118 42.767059 20.600471 67.162353 46.802824 67.162353 79.239529 0 31.201882-24.786824 57.886118-67.222588 78.908235 42.827294 20.570353 67.222588 46.772706 67.222588 79.209412 0 57.012706-82.763294 98.876235-204.438588 118.784l-9.426823 1.505883-18.853648 2.620235-14.45647 1.807059-14.787765 1.536-20.118588 1.807059-20.570353 1.445647-5.210353 0.301176-5.210353 0.301177-21.202823 0.903529-5.360942 0.180706-5.360941 0.150588-21.744941 0.361412-10.962823 0.060235h-5.51153l-5.481412-0.060235-21.714823-0.361412-5.391059-0.150588-5.360941-0.180706-21.172706-0.903529-10.450824-0.602353-20.570353-1.445647-20.118588-1.807059-14.757647-1.566118-14.45647-1.776941-18.853647-2.650353c-126.825412-19.275294-213.895529-61.801412-213.89553-120.259765 0-32.436706 24.395294-58.639059 67.192471-79.269647C149.082353 660.239059 124.235294 633.554824 124.235294 602.352941c0-32.436706 24.395294-58.639059 67.192471-79.269647-42.375529-20.961882-67.192471-47.646118-67.192471-78.848 0-32.436706 24.395294-58.639059 67.192471-79.269647-42.375529-20.961882-67.192471-47.646118-67.192471-78.848 0-51.2 66.800941-90.202353 168.598588-112.037647l9.336471-1.927529 17.679059-3.312942 9.035294-1.536 9.246118-1.445647 18.823529-2.650353 14.486588-1.807058 14.757647-1.536 20.118588-1.807059 20.570353-1.445647 10.450824-0.602353 21.172706-0.90353 5.360941-0.180706 5.391059-0.150588 21.684706-0.361412 11.023059-0.060235h5.481411z m227.297882 554.465883c-18.522353 4.758588-38.460235 8.854588-59.542588 12.318117l-9.426823 1.505883-18.853648 2.620235-14.45647 1.807059-14.787765 1.536-20.118588 1.807058-20.570353 1.445648-5.210353 0.301176-5.210353 0.301176-21.202823 0.90353-5.360942 0.180706-5.360941 0.150588-11.083294 0.240941-6.144 0.090353-4.517647 0.030118-10.962823 0.060235h-5.51153l-5.481412-0.060235-4.577882-0.090353h-2.168471l-3.824941-0.030118-11.143529-0.240941-5.391059-0.150588-5.360941-0.180706-21.172706-0.90353-10.450824-0.602352-20.570353-1.445648-20.118588-1.807058-14.757647-1.566118-14.45647-1.776941-18.853647-2.650353a711.017412 711.017412 0 0 1-68.969412-13.763765l-8.312471 2.409412c-49.272471 14.848-78.185412 32.888471-83.124706 45.507765l-0.602353 1.957647-0.180706 1.746823c0 12.167529 29.033412 32.768 84.148706 49.302588 62.825412 18.853647 148.841412 29.756235 240.880942 29.756236s178.055529-10.902588 240.880941-29.756236c55.085176-16.534588 84.118588-37.135059 84.118588-49.302588 0-11.986824-26.925176-31.021176-76.649412-46.983529l-7.228235-2.228706-8.312471-2.409412z m0-316.235295c-17.016471 4.367059-35.207529 8.192-54.39247 11.444706l-14.576941 2.349177-18.853648 2.650353-14.45647 1.807059-14.787765 1.536-20.118588 1.807058-20.570353 1.445647-5.210353 0.301177-5.210353 0.301176-21.202823 0.90353-5.360942 0.180706-5.360941 0.150588-11.083294 0.240941-6.144 0.090353-4.517647 0.030118-10.962823 0.060235h-5.51153l-5.481412-0.060235-4.577882-0.090353h-2.168471l-3.824941-0.030118-11.143529-0.240941-5.391059-0.150588-5.360941-0.180706-21.172706-0.90353-10.450824-0.602353-20.570353-1.445647-20.118588-1.807058-14.757647-1.566118-14.45647-1.776941-18.853647-2.650353-9.216-1.445647-9.065412-1.505883-17.679059-3.312941c-11.444706-2.319059-22.437647-4.818824-33.008941-7.529412l-8.312471 2.409412c-49.272471 14.878118-78.185412 32.918588-83.124706 45.537883l-0.602353 1.957647-0.180706 1.746823c0 12.167529 29.033412 32.768 84.148706 49.302588a521.366588 521.366588 0 0 0 37.857883 9.788236l-7.55953-1.746824c4.517647 1.084235 9.185882 2.108235 13.884236 3.102118l-6.324706-1.355294c4.577882 0.993882 9.216 1.987765 13.94447 2.921411l-7.619764-1.566117c3.915294 0.843294 7.920941 1.656471 11.956705 2.409412l-4.336941-0.843295c4.788706 0.963765 9.637647 1.867294 14.576941 2.740706l-10.24-1.867294c4.487529 0.843294 9.035294 1.686588 13.643295 2.469647l-3.403295-0.602353c3.915294 0.722824 7.830588 1.385412 11.836236 2.017883l-8.432941-1.41553c5.571765 0.993882 11.233882 1.897412 16.986353 2.770824l-8.553412-1.355294 11.474823 1.807058-2.921411-0.451764c4.758588 0.722824 9.577412 1.415529 14.45647 2.048l-11.535059-1.626353c5.360941 0.813176 10.782118 1.536 16.293647 2.258823l-4.758588-0.602353c4.096 0.512 8.222118 1.054118 12.408471 1.536l-7.649883-0.933647c5.270588 0.662588 10.571294 1.295059 15.962353 1.897412l-8.31247-0.963765c5.270588 0.632471 10.601412 1.234824 16.022588 1.807059l-7.740235-0.843294c4.818824 0.542118 9.637647 1.024 14.45647 1.505882l-6.716235-0.662588c5.029647 0.512 10.119529 0.993882 15.239529 1.445647l-8.493176-0.783059c5.270588 0.512 10.601412 0.963765 15.962353 1.385412l-7.469177-0.602353c4.939294 0.421647 9.878588 0.813176 14.878118 1.174589l-7.408941-0.572236c5.300706 0.421647 10.631529 0.813176 16.022588 1.174588l-8.613647-0.602352c5.300706 0.391529 10.661647 0.722824 16.052706 1.054117l-7.439059-0.451765c6.415059 0.391529 12.860235 0.752941 19.395765 1.054118l-11.956706-0.602353c5.12 0.301176 10.24 0.542118 15.420235 0.752941l-3.463529-0.150588a1137.784471 1137.784471 0 0 0 53.097412 1.234824l8.975058-0.090353 7.860706-0.030118a1135.676235 1135.676235 0 0 0 36.623059-1.114353l-3.975529 0.180706c5.270588-0.240941 10.480941-0.512 15.661176-0.813176l-11.685647 0.602352c6.324706-0.301176 12.559059-0.602353 18.733177-1.024l-7.04753 0.421648c5.360941-0.301176 10.661647-0.632471 15.962353-1.024l-8.914823 0.602352c5.481412-0.331294 10.902588-0.722824 16.263529-1.174588l-7.378824 0.572236c4.999529-0.361412 9.938824-0.752941 14.878118-1.204706l-7.469176 0.63247c5.210353-0.421647 10.420706-0.873412 15.540705-1.355294l-8.071529 0.752941c5.210353-0.451765 10.360471-0.963765 15.480471-1.505882l-7.408942 0.752941 14.908236-1.505882-7.499294 0.783059c5.210353-0.542118 10.390588-1.114353 15.510588-1.716706l-8.011294 0.903529c5.571765-0.602353 11.083294-1.264941 16.564706-1.987765l-8.553412 1.084236c4.246588-0.512 8.463059-1.054118 12.649412-1.626353l-4.096 0.542117c5.180235-0.662588 10.330353-1.385412 15.420235-2.108235l-11.324235 1.566118c4.909176-0.632471 9.788235-1.355294 14.637176-2.078118l-3.312941 0.512c4.005647-0.602353 8.011294-1.204706 11.926588-1.867294l-8.613647 1.355294c5.722353-0.873412 11.324235-1.776941 16.865882-2.710588l-8.252235 1.355294c3.945412-0.632471 7.860706-1.295059 11.745883-1.987765l-3.493648 0.602353c4.457412-0.752941 8.854588-1.566118 13.161412-2.409412l-9.697882 1.807059c5.059765-0.903529 10.059294-1.837176 14.96847-2.831059l-5.270588 1.024c4.126118-0.783059 8.222118-1.596235 12.227765-2.439529l-6.927059 1.415529c4.517647-0.903529 9.035294-1.867294 13.432471-2.831058l-6.505412 1.415529c4.788706-1.024 9.456941-2.078118 14.064941-3.162353l-7.559529 1.746824c3.885176-0.873412 7.710118-1.746824 11.474823-2.680471l-3.915294 0.933647c3.885176-0.903529 7.68-1.837176 11.444706-2.800941l-7.529412 1.867294c9.185882-2.228706 18.010353-4.608 26.413177-7.107765 55.085176-16.534588 84.118588-37.135059 84.118588-49.302588 0-11.986824-26.925176-31.021176-76.649412-46.983529l-7.228235-2.228706-8.312471-2.409412z m-431.284706 269.824l1.92753 0.421647 0.150588 0.030118 0.301177 0.060235 5.330823 1.114353 1.234824 0.240942 0.451764 0.090352 5.872941 1.114353 1.204706 0.240942 4.065883 0.752941-0.512-0.090353 0.481882 0.12047h0.180706l4.969412 0.90353 1.716706 0.301176 1.204705 0.210824 1.114353 0.180706-0.963764-0.150589 1.114353 0.180706 1.234823 0.210824 5.059765 0.843294 2.590118 0.391529 2.800941 0.451765 5.75247 0.90353-2.921411-0.451765 5.872941 0.843294 1.325176 0.210823-0.692706-0.12047 1.897412 0.271059 2.620235 0.391529h0.150589l0.512 0.060235 2.770823 0.39153-2.078118-0.301177-0.692705-0.090353-0.150589-0.030117 0.843294 0.12047 6.836706 0.90353 7.920942 1.024 0.391529 0.030117 2.499765 0.271059 4.818823 0.572236 6.354824 0.662588 1.14447 0.150588 7.288471 0.722824-6.746353-0.662589 7.589647 0.722824 6.987294 0.63247-6.866823-0.63247 6.987294 0.662588 8.011294 0.662588-7.469177-0.602353 7.408942 0.602353 1.566117 0.120471 6.475294 0.481882 4.758589 0.331294 2.68047 0.180706 8.041412 0.512-7.439059-0.451764 9.216 0.512 8.131765 0.421647 3.70447 0.180705 12.890353 0.542118a1146.458353 1146.458353 0 0 0 38.550589 0.632471l8.975058-0.090353 7.860706-0.030118 16.414118-0.361412 16.263529-0.602353 4.457412-0.210823 9.456941-0.481882 4.939294-0.271059 2.891294-0.180706 1.355295-0.090353 7.770353-0.512 8.101647-0.602353 7.80047-0.692706 0.331294-0.030118 7.107765-0.602353 0.903529-0.12047 6.896942-0.692706 7.408941-0.783059h0.301176l2.770824-0.361412 5.24047-0.602353 7.740236-0.963764-1.475765 0.180706 3.975529-0.512 4.638118-0.632471 9.276235-1.325176 4.457412-0.662589-0.512 0.090353 1.084235-0.180706 6.324706-0.963764 5.782588-0.993883-5.692235 0.963765 8.252235-1.385412-2.349176 0.421647 3.463529-0.63247 5.51153-0.963765 4.096-0.783059-7.228235 1.355294 7.529411-1.385411 2.138353-0.421647 0.451765-0.090353 5.692235-1.114353 5.903059-1.204706 6.686118-1.445647-6.354824 1.355294 6.927059-1.505883 3.162353-0.722823-3.102118 0.692706 6.204236-1.41553 4.638117-1.084235c9.185882-2.228706 18.010353-4.608 26.413177-7.107765 55.085176-16.534588 84.118588-37.135059 84.118588-49.302588 0-11.986824-26.925176-31.021176-76.649412-46.983529l-7.228235-2.228706-8.342588-2.409412c-18.522353 4.728471-38.430118 8.824471-59.512471 12.288l-9.426823 1.505882-18.853648 2.620236-14.45647 1.807059-14.787765 1.536-20.118588 1.807058-20.570353 1.445647-5.210353 0.301177-5.210353 0.301176-21.202823 0.90353-5.360942 0.180706-5.360941 0.150588-11.083294 0.240941-6.144 0.090353-4.517647 0.030118-10.962823 0.060235h-5.51153l-5.481412-0.060235-4.577882-0.090353h-2.168471l-3.824941-0.030118-11.143529-0.240941-5.391059-0.150588-5.360941-0.180706-21.172706-0.90353-10.450824-0.602353-20.570353-1.445647-20.118588-1.807058-14.757647-1.566118-14.45647-1.776941-18.853647-2.650353a711.017412 711.017412 0 0 1-68.969412-13.763765l-8.312471 2.409412c-49.272471 14.848-78.185412 32.888471-83.124706 45.507765l-0.602353 1.957647-0.180706 1.746823c0 12.167529 29.033412 32.768 84.148706 49.302588 9.577412 2.861176 19.696941 5.571765 30.298353 8.041412l3.764706 0.90353 2.529883 0.542117-6.294589-1.445647 7.017412 1.596235 5.089882 1.114353z" fill="#568af2" /></svg>