<svg class="icon" style="width: 1em;height: 1em;vertical-align: middle;fill: currentColor;overflow: hidden;" viewBox="0 0 1024 1024" version="1.1" xmlns="http://www.w3.org/2000/svg" width="32" height="32"><path d="M518.264471 154.352941a114.206118 114.206118 0 0 1 26.383058 225.340235l-0.030117 90.985412 76.498823 0.030118a26.684235 26.684235 0 0 1 2.56-0.120471l2.620236 0.150589 190.644705 0.060235c13.432471 0 24.515765 10.059294 26.142118 23.070117l0.210824 3.312942v175.435294a26.352941 26.352941 0 0 1-52.495059 3.312941l-0.210824-3.312941v-149.112471l-140.559059-0.060235v149.172706a26.352941 26.352941 0 0 1-52.495058 3.312941l-0.210824-3.312941V523.444706l-158.117647-0.060235v149.263058a26.352941 26.352941 0 0 1-52.495059 3.312942l-0.210823-3.312942v-149.293176l-140.559059-0.060235v149.383529a26.352941 26.352941 0 0 1-23.04 26.142118l-3.312941 0.180706a26.352941 26.352941 0 0 1-26.142118-23.04l-0.180706-3.312942V496.941176c0-13.432471 10.059294-24.515765 23.04-26.142117l3.312941-0.210824h192.060236a26.804706 26.804706 0 0 1 1.204706 0l1.14447 0.060236 77.884235 0.030117v-90.985412a114.236235 114.236235 0 0 1 26.352942-225.340235z m298.676705 632.470588c13.432471 0 24.515765 10.059294 26.142118 23.04L843.294118 813.176471v17.558588a26.352941 26.352941 0 0 1-52.495059 3.312941l-0.210824-3.312941V813.176471c0-14.546824 11.806118-26.352941 26.352941-26.352942z m-597.323294 0c13.432471 0 24.515765 10.059294 26.142118 23.04l0.210824 3.312942v17.558588a26.352941 26.352941 0 0 1-52.525177 3.312941l-0.180706-3.312941V813.176471c0-14.546824 11.776-26.352941 26.352941-26.352942z m193.234824 0c13.432471 0 24.545882 10.059294 26.172235 23.04l0.180706 3.312942v17.558588a26.352941 26.352941 0 0 1-52.495059 3.312941l-0.210823-3.312941V813.176471c0-14.546824 11.806118-26.352941 26.352941-26.352942z m210.823529 0c13.432471 0 24.545882 10.059294 26.172236 23.04l0.180705 3.312942v17.558588a26.352941 26.352941 0 0 1-52.495058 3.312941l-0.210824-3.312941V813.176471c0-14.546824 11.806118-26.352941 26.352941-26.352942z" fill="#568af2" /></svg>