<svg class="icon" style="width: 1em;height: 1em;vertical-align: middle;fill: currentColor;overflow: hidden;" viewBox="0 0 1024 1024" version="1.1" xmlns="http://www.w3.org/2000/svg" width="32" height="32"><path d="M386.499765 654.155294c13.432471 0 24.545882 10.089412 26.172235 23.070118l0.180706 3.312941v143.36a26.352941 26.352941 0 0 1-52.495059 3.312941l-0.210823-3.312941v-143.36c0-14.546824 11.806118-26.352941 26.352941-26.352941zM245.970824 760.470588c13.432471 0 24.515765 10.059294 26.142117 23.04l0.210824 3.312941v36.141177a26.352941 26.352941 0 0 1-52.525177 3.282823l-0.180706-3.312941v-36.111059c0-14.546824 11.776-26.352941 26.352942-26.352941zM527.058824 532.088471c13.432471 0 24.515765 10.029176 26.142117 23.04l0.210824 3.312941v264.764235a26.352941 26.352941 0 0 1-52.495059 3.312941l-0.210824-3.312941v-264.764235c0-14.576941 11.806118-26.352941 26.352942-26.352941zM667.617882 390.836706c13.432471 0 24.515765 10.059294 26.142118 23.070118l0.210824 3.312941v406.287059a26.352941 26.352941 0 0 1-52.525177 3.312941l-0.180706-3.312941v-406.287059c0-14.576941 11.776-26.383059 26.352941-26.383059zM808.146824 250.458353c13.432471 0 24.545882 10.059294 26.172235 23.04l0.180706 3.312941v546.635294a26.352941 26.352941 0 0 1-52.495059 3.282824l-0.210824-3.312941V276.811294c0-14.546824 11.806118-26.352941 26.352942-26.352941zM666.533647 170.857412a26.352941 26.352941 0 0 1 39.634824 34.575059l-2.349177 2.710588-474.352941 474.352941a26.352941 26.352941 0 0 1-39.634824-34.575059l2.349177-2.710588 474.352941-474.352941z" fill="#568af2" /><path d="M685.176471 163.147294a26.352941 26.352941 0 0 1 3.312941 52.495059l-3.312941 0.210823h-184.470589a26.352941 26.352941 0 0 1-3.312941-52.525176l3.312941-0.180706h184.470589z" fill="#568af2" /></svg>