<svg class="icon" style="width: 1em;height: 1em;vertical-align: middle;fill: currentColor;overflow: hidden;" viewBox="0 0 1024 1024" version="1.1" xmlns="http://www.w3.org/2000/svg" width="32" height="32"><path d="M474.895059 146.672941a26.352941 26.352941 0 0 1-22.106353 30.027294c-157.726118 23.913412-275.847529 160.105412-275.84753 321.325177 0 161.249882 118.211765 297.502118 275.998118 321.355294a327.920941 327.920941 0 0 0 97.882353 0 325.270588 325.270588 0 0 0 272.534588-272.564706 26.352941 26.352941 0 1 1 52.10353 7.830588 377.976471 377.976471 0 0 1-373.488941 321.084236c-19.184941 0-38.189176-1.415529-56.922353-4.246589-183.476706-27.738353-320.813176-186.036706-320.813177-373.458823 0-187.361882 137.246118-345.630118 320.632471-373.458824a26.352941 26.352941 0 0 1 30.027294 22.106353z m27.075765 184.440471a166.912 166.912 0 1 1 0 333.793882 166.912 166.912 0 0 1 0-333.793882z m53.488941-206.878118l3.312941 0.301177a377.976471 377.976471 0 0 1 316.687059 316.747294 26.352941 26.352941 0 1 1-52.10353 7.830588 325.270588 325.270588 0 0 0-272.474353-272.474353 26.352941 26.352941 0 0 1 1.325177-52.284235l3.252706-0.120471z" fill="#568af2" /></svg>