<svg class="icon" style="width: 1em;height: 1em;vertical-align: middle;fill: currentColor;overflow: hidden;" viewBox="0 0 1024 1024" version="1.1" xmlns="http://www.w3.org/2000/svg" width="32" height="32"><path d="M507.482353 154.352941l5.451294 0.060235 21.744941 0.361412 5.360941 0.150588 5.360942 0.180706 21.202823 0.90353 5.210353 0.301176 5.210353 0.301177 20.570353 1.445647 20.118588 1.807059 14.757647 1.566117 14.486588 1.776941 18.853648 2.650353c126.795294 19.275294 213.865412 61.801412 213.865411 120.259765 0 31.201882-24.786824 57.886118-67.222588 78.908235 42.827294 20.570353 67.222588 46.772706 67.222588 79.209412 0 31.201882-24.786824 57.886118-67.222588 78.908235 42.827294 20.570353 67.222588 46.772706 67.222588 79.209412 0 31.201882-24.786824 57.886118-67.222588 78.908235 42.827294 20.570353 67.222588 46.772706 67.222588 79.209412 0 57.012706-82.763294 98.876235-204.438588 118.784l-9.426823 1.505883-18.853648 2.620235-14.45647 1.807059-14.787765 1.536-20.118588 1.807059-20.570353 1.445647-5.210353 0.301176-5.210353 0.301177-21.202823 0.903529-5.360942 0.180706-5.360941 0.150588-21.744941 0.361412-10.962823 0.060235h-5.51153l-5.481412-0.060235-21.714823-0.361412-5.391059-0.150588-5.360941-0.180706-21.172706-0.903529-10.450824-0.602353-20.570353-1.445647-20.118588-1.807059-14.757647-1.566118-14.45647-1.776941-18.853647-2.650353c-126.825412-19.275294-213.895529-61.801412-213.89553-120.259765 0-32.436706 24.395294-58.639059 67.192471-79.269647C149.082353 660.239059 124.235294 633.554824 124.235294 602.352941c0-32.436706 24.395294-58.639059 67.192471-79.269647-42.375529-20.961882-67.192471-47.646118-67.192471-78.848 0-32.436706 24.395294-58.639059 67.192471-79.269647-42.375529-20.961882-67.192471-47.646118-67.192471-78.848 0-51.2 66.800941-90.202353 168.598588-112.037647l9.336471-1.927529 17.679059-3.312942 9.035294-1.536 9.246118-1.445647 18.823529-2.650353 14.486588-1.807058 14.757647-1.536 20.118588-1.807059 20.570353-1.445647 10.450824-0.602353 21.172706-0.90353 5.360941-0.180706 5.391059-0.150588 21.684706-0.361412 11.023059-0.060235h5.481411zM324.005647 666.503529l-0.512-0.090353 0.481882 0.120471h0.180706l4.969412 0.903529 1.716706 0.301177 1.204706 0.210823 1.114353 0.180706-0.963765-0.150588 1.114353 0.180706 1.234824 0.210824 5.059764 0.843294 2.590118 0.391529 2.800941 0.451765 5.752471 0.903529-2.921412-0.451765 5.872941 0.843295 1.325177 0.210823-0.692706-0.12047 1.897411 0.271058 2.620236 0.39153h0.150588l0.512 0.060235 2.770823 0.391529-2.078117-0.301176-0.692706-0.090353-0.150588-0.030118 0.843294 0.120471 6.836706 0.903529 7.920941 1.024 0.391529 0.030118 2.499765 0.271059 4.818824 0.572235 6.354823 0.662588 1.144471 0.150589 7.28847 0.722823-6.746353-0.662588 7.589647 0.722823 6.987294 0.632471-6.866823-0.632471 6.987294 0.662589 8.011294 0.662588-7.469176-0.602353 7.408941 0.602353 1.566118 0.120471 6.475294 0.481882 4.758588 0.331294 2.68047 0.180706 8.041412 0.512-7.439059-0.451765 9.216 0.512 8.131765 0.421647 3.433412 0.180706 16.112941 0.602353a1152.090353 1152.090353 0 0 0 68.758588 0.090353l16.323765-0.602353 4.487529-0.210823 9.456942-0.481883 4.939294-0.271059 2.891294-0.180706 1.355294-0.090352 7.770353-0.512 8.101647-0.602353 7.800471-0.692706 0.331294-0.030118 7.107764-0.602353 0.90353-0.12047 6.896941-0.692706 7.408941-0.783059h0.301177l2.770823-0.361412 5.240471-0.602353 7.740235-0.963765-1.475765 0.180706 3.97553-0.512 4.638117-0.63247 9.276236-1.325177 4.457411-0.662588-0.512 0.090353 1.084236-0.180706 6.324706-0.963765 5.782588-0.993882-5.692235 0.963765 8.252235-1.385412-2.349177 0.421647 3.46353-0.632471 5.511529-0.963764 4.096-0.783059-7.228235 1.355294 7.529412-1.385412 2.138353-0.421647 0.451764-0.090353 5.692236-1.114353 5.903058-1.204706 6.686118-1.445647-6.354823 1.355294 6.927058-1.505882c2.379294-0.512 4.698353-1.054118 6.987294-1.596235l-6.927058 1.566117 12.498823-2.891294c8.583529-2.108235 16.865882-4.367059 24.756706-6.716235 55.085176-16.534588 84.118588-37.135059 84.118588-49.302588 0-13.191529-32.587294-34.876235-92.250353-51.651765-21.263059 5.451294-44.333176 10.059294-68.909176 13.793882l-18.853647 2.650353c-9.547294 1.264941-19.305412 2.379294-29.244235 3.343059l-20.118589 1.807059-20.570353 1.445647-10.420706 0.602353-21.202823 0.903529c-3.553882 0.150588-7.137882 0.240941-10.721882 0.331295l-21.744942 0.361411-10.962823 0.060236-10.992941-0.060236-21.714824-0.361411-10.752-0.301177-21.172706-0.933647-10.450823-0.602353-20.570353-1.445647-20.118588-1.807059c-9.938824-0.963765-19.696941-2.108235-29.214118-3.312941l-18.853647-2.680471a711.077647 711.077647 0 0 1-68.969412-13.763764l7.137882-1.957647c-64.180706 16.986353-99.358118 39.875765-99.358117 53.579294 0 12.167529 29.033412 32.768 84.148706 49.302588l9.276235 2.680471 9.607529 2.56 5.662118 1.415529 1.325177 0.331294 0.542117 0.120471-0.481882-0.120471 4.367059 1.054118 1.807058 0.421647 3.945412 0.903529 1.114353 0.271059h0.150588l5.089883 1.114353 1.927529 0.421647 0.150588 0.030118 0.301177 0.060235 5.330823 1.114353 1.234824 0.240941 0.451765 0.090353 5.872941 1.114353 1.204706 0.240941 4.065882 0.752941z m410.684235-273.889882l-6.234353 1.596235c-14.637176 3.553882-30.117647 6.746353-46.260705 9.547294l-16.414118 2.650353-18.853647 2.650353-14.456471 1.807059-14.787764 1.536-20.118589 1.807059-20.570353 1.445647-5.210353 0.301177-5.210353 0.301176-21.202823 0.903529-5.360941 0.180706-5.360941 0.150589-21.744942 0.361411-10.962823 0.060236h-5.51153l-5.481411-0.060236-21.714824-0.361411-5.391059-0.150589-5.360941-0.180706-21.172706-0.903529-10.450823-0.602353-20.570353-1.445647-20.118588-1.807059-14.757647-1.566117-14.456471-1.776942-18.853647-2.650353-9.216-1.445647-9.065412-1.505882-17.679059-3.312941c-7.619765-1.536-15.058824-3.162353-22.287059-4.879059l-10.721882-2.650353-0.752941 0.210824c-59.151059 16.745412-91.467294 38.309647-91.467294 51.440941 0 12.167529 29.033412 32.768 84.148706 49.302588 62.825412 18.853647 148.841412 29.756235 240.880941 29.756235s178.055529-10.902588 240.880941-29.756235c55.085176-16.534588 84.118588-37.135059 84.118588-49.302588 0-13.191529-32.587294-34.876235-92.250353-51.651765z" fill="#568af2" /></svg>