<svg class="icon" style="width: 1em;height: 1em;vertical-align: middle;fill: currentColor;overflow: hidden;" viewBox="0 0 1024 1024" version="1.1" xmlns="http://www.w3.org/2000/svg" width="32" height="32"><path d="M210.823529 184.470588c13.432471 0 24.515765 10.059294 26.142118 23.04l0.210824 3.312941v606.117647H843.294118c13.432471 0 24.515765 10.059294 26.142117 23.04l0.210824 3.312942a26.352941 26.352941 0 0 1-23.04 26.142117l-3.312941 0.210824H210.823529a26.352941 26.352941 0 0 1-26.142117-23.04L184.470588 843.294118V210.823529c0-14.546824 11.806118-26.352941 26.352941-26.352941z" fill="#568af2" /><path d="M421.647059 676.382118a26.352941 26.352941 0 0 1 3.312941 52.525176l-3.312941 0.180706h-70.264471a26.352941 26.352941 0 0 1-3.312941-52.495059l3.312941-0.210823H421.647059zM562.206118 535.853176a26.352941 26.352941 0 0 1 3.312941 52.495059l-3.312941 0.210824h-210.82353a26.352941 26.352941 0 0 1-3.312941-52.525177l3.312941-0.180706h210.82353zM843.294118 395.294118a26.352941 26.352941 0 0 1 3.312941 52.495058l-3.312941 0.210824H351.382588a26.352941 26.352941 0 0 1-3.312941-52.495059l3.312941-0.210823H843.294118zM702.735059 254.735059a26.352941 26.352941 0 0 1 3.312941 52.525176l-3.312941 0.180706H351.382588a26.352941 26.352941 0 0 1-3.312941-52.495059l3.312941-0.210823h351.352471z" fill="#568af2" /></svg>