<svg class="icon" style="width: 1em;height: 1em;vertical-align: middle;fill: currentColor;overflow: hidden;" viewBox="0 0 1024 1024" version="1.1" xmlns="http://www.w3.org/2000/svg" width="32" height="32"><path d="M879.676235 843.294118a26.352941 26.352941 0 0 1-26.352941 26.352941H150.588235A26.352941 26.352941 0 0 1 124.235294 843.294118V404.088471c0-21.383529 23.823059-33.430588 40.869647-22.016l2.620235 1.987764 100.713412 86.347294 80.052706-116.404705a26.352941 26.352941 0 0 1 30.238118-9.999059l3.252706 1.355294 87.883294 43.971765 135.920941-143.902118a26.352941 26.352941 0 0 1 33.069176-4.276706l2.770824 1.987765 78.155294 63.939764 114.928941-114.898823c15.811765-15.811765 42.285176-5.903059 44.784941 15.36l0.180706 3.282823z m-52.705882-568.862118l-86.738824 86.799059a26.352941 26.352941 0 0 1-32.37647 3.855059l-2.981647-2.108236-77.643294-63.518117-132.457412 140.288a26.352941 26.352941 0 0 1-27.407059 6.927059l-3.553882-1.445648-84.901647-42.496-83.636706 121.675295a26.352941 26.352941 0 0 1-36.020706 7.228235l-2.831059-2.138353-79.480471-68.126118v129.325177l105.803295 59.51247 91.858823-137.758117a26.352941 26.352941 0 0 1 26.864941-11.294118l3.403294 0.903529 88.786824 29.57553 111.435294-127.337412a26.352941 26.352941 0 0 1 33.852235-4.969412l2.861177 2.078118 85.654588 71.348706 99.508706-113.754353V274.432z" fill="#568af2" /></svg>