<svg class="icon" style="width: 1em;height: 1em;vertical-align: middle;fill: currentColor;overflow: hidden;" viewBox="0 0 1024 1024" version="1.1" xmlns="http://www.w3.org/2000/svg" width="32" height="32"><path d="M501.970824 154.352941a237.176471 237.176471 0 0 1 235.459764 265.758118 237.176471 237.176471 0 1 1-235.52 408.455529 236.784941 236.784941 0 0 0 94.960941-219.648 237.327059 237.327059 0 0 0 140.559059-188.837647 236.122353 236.122353 0 0 0-94.930823-19.757176 236.122353 236.122353 0 0 0-140.559059 46.140235 236.845176 236.845176 0 0 1 94.930823 162.454588 236.001882 236.001882 0 0 1-94.900705 19.787294 236.363294 236.363294 0 0 1-94.930824-19.757176 236.965647 236.965647 0 0 1 94.870588-162.484706A235.821176 235.821176 0 0 0 361.411765 400.323765c-33.731765 0-65.867294 7.047529-94.930824 19.757176a237.417412 237.417412 0 0 0 140.559059 188.867765 236.845176 236.845176 0 0 0 94.870588 219.587765 237.176471 237.176471 0 1 1-235.459764-408.485647 237.176471 237.176471 0 0 1 235.489882-265.728z" fill="#568af2" /></svg>