<svg class="icon" style="width: 1em;height: 1em;vertical-align: middle;fill: currentColor;overflow: hidden;" viewBox="0 0 1024 1024" version="1.1" xmlns="http://www.w3.org/2000/svg" width="32" height="32"><path d="M527.872 134.505412l2.078118 3.162353 158.117647 280.726588a26.352941 26.352941 0 0 1-19.666824 39.092706l-3.312941 0.210823-131.764706-0.030117 0.150588 395.655529a26.352941 26.352941 0 0 1-52.495058 3.312941l-0.210824-3.312941-0.150588-395.655529h-131.764706a26.352941 26.352941 0 0 1-24.395294-36.291765l1.445647-2.981647 158.117647-280.726588a26.352941 26.352941 0 0 1 43.851294-3.162353zM297.953882 513.897412a26.352941 26.352941 0 0 1 10.962824 33.069176l-1.475765 2.95153-28.340706 48.579764h104.990118a26.352941 26.352941 0 0 1 3.312941 52.495059l-3.312941 0.210824H248.350118l-82.010353 140.619294h217.750588c13.432471 0 24.515765 10.089412 26.142118 23.070117l0.210823 3.312942a26.352941 26.352941 0 0 1-23.070118 26.142117l-3.312941 0.210824H120.470588a26.352941 26.352941 0 0 1-24.274823-36.683294l1.505882-2.95153 164.201412-281.539764a26.352941 26.352941 0 0 1 36.050823-9.487059z m453.903059 6.716235l1.837177 2.770824 164.231529 281.539764a26.352941 26.352941 0 0 1-19.456 39.454118l-3.312941 0.180706h-265.185882a26.352941 26.352941 0 0 1-3.312942-52.495059l3.312942-0.210824 219.25647-0.030117-82.010353-140.619294h-135.499294a26.352941 26.352941 0 0 1-3.312941-52.495059l3.312941-0.210824h104.779294l-28.310588-48.579764a26.352941 26.352941 0 0 1 6.716235-34.18353l2.770824-1.837176a26.352941 26.352941 0 0 1 34.183529 6.716235z" fill="#568af2" /></svg>