<svg class="icon" style="width: 1em;height: 1em;vertical-align: middle;fill: currentColor;overflow: hidden;" viewBox="0 0 1024 1024" version="1.1" xmlns="http://www.w3.org/2000/svg" width="32" height="32"><path d="M150.588235 124.235294c13.432471 0 24.515765 10.059294 26.142118 23.04l0.210823 3.312941v676.382118h676.382118c13.432471 0 24.545882 10.059294 26.172235 23.070118l0.180706 3.312941a26.352941 26.352941 0 0 1-23.04 26.142117l-3.312941 0.180706H150.588235a26.352941 26.352941 0 0 1-26.142117-23.04l-0.210824-3.312941V150.588235c0-14.546824 11.806118-26.352941 26.352941-26.352941z" fill="#568af2" /><path d="M857.389176 124.536471a26.352941 26.352941 0 0 1 21.985883 30.117647l-3.614118 21.172706-3.252706 17.799529-5.210353 26.955294c-1.867294 9.306353-3.855059 18.944-5.993411 28.852706-15.119059 70.836706-33.490824 141.703529-55.265883 208.022588l-7.710117 22.889412-7.830589 22.136471-3.975529 10.782117-8.071529 21.022118c-59.723294 151.190588-131.975529 239.977412-223.774118 239.977412-85.534118 0-154.142118-77.101176-211.425882-209.92l-8.282353-19.877647-8.131765-20.600471a1244.762353 1244.762353 0 0 1-4.035765-10.601412l-7.920941-21.744941a1539.614118 1539.614118 0 0 1-11.595294-34.032941c-21.744941-66.349176-40.146824-137.216-55.265882-208.052706l-3.072-14.667294-5.601883-27.919059a2127.811765 2127.811765 0 0 1-2.529882-13.221647l-5.451294-30.509177-1.41553-8.432941a26.352941 26.352941 0 0 1 52.10353-8.161882l4.306823 25.057882 4.728471 25.238589c0.843294 4.397176 1.716706 8.854588 2.650353 13.402352l5.812706 28.190118c14.757647 69.150118 32.707765 138.270118 53.820235 202.63153 3.674353 11.203765 7.408941 22.166588 11.203765 32.798117l7.619764 20.87153c53.880471 143.239529 117.007059 226.846118 182.482824 226.846117 57.645176 0 113.543529-64.873412 162.846118-178.29647l7.920941-18.793412c1.325176-3.192471 2.620235-6.445176 3.915294-9.728l7.770353-20.028235c6.415059-17.076706 12.679529-34.966588 18.823529-53.669647 21.112471-64.361412 39.062588-133.481412 53.820235-202.63153l5.842824-28.190118 5.12-26.292705 4.638118-25.871059 1.927529-11.535059a26.352941 26.352941 0 0 1 26.804706-22.287059l3.312941 0.301177z" fill="#568af2" /><path d="M853.323294 721.558588a26.352941 26.352941 0 0 1 3.312941 52.525177l-3.312941 0.180706H256a26.352941 26.352941 0 0 1-3.312941-52.495059l3.312941-0.210824h597.323294z" fill="#568af2" /></svg>