<svg class="icon" style="width: 1em;height: 1em;vertical-align: middle;fill: currentColor;overflow: hidden;" viewBox="0 0 1024 1024" version="1.1" xmlns="http://www.w3.org/2000/svg" width="32" height="32"><path d="M386.168471 126.373647a26.834824 26.834824 0 0 0-10.541177 8.192l-0.993882 1.385412-0.210824 0.301176a26.443294 26.443294 0 0 0-1.204706 2.078118l-0.240941 0.481882-70.26447 140.528941-1.41553 3.373177a26.352941 26.352941 0 0 0 3.674353 23.913412l62.012235 85.263059-30.32847 83.486117-1.054118 3.704471a26.352941 26.352941 0 0 0 2.921412 18.371764l137.065412 239.887059v142.336H273.588706a26.352941 26.352941 0 0 1-26.142118-23.04l-0.210823-3.312941v-96.617412H150.588235a26.352941 26.352941 0 0 1-26.142117-23.04l-0.210824-3.312941V256c0-9.366588 4.969412-17.950118 12.860235-22.648471l3.102118-1.566117z m231.604705 0l245.940706 105.411765a26.352941 26.352941 0 0 1 15.75153 20.751059l0.210823 3.463529v474.352941a26.352941 26.352941 0 0 1-23.04 26.142118l-3.312941 0.210823h-96.617412v96.617412a26.352941 26.352941 0 0 1-23.04 26.172235l-3.312941 0.180706h-202.029176l-0.030118-142.336 137.095529-239.887059 1.656471-3.463529a26.352941 26.352941 0 0 0 0.240941-18.612706l-29.726117-81.648941 77.161411-84.871529 2.409412-3.041883c5.692235-8.523294 5.993412-19.757176 0.421647-28.641882l-87.612235-140.197647a26.292706 26.292706 0 0 0-8.041412-8.372706l-1.204706-0.752941-0.572235-0.301177a26.322824 26.322824 0 0 0-1.054118-0.602353l-1.325176-0.602353z m-6.053647 80.896l50.56753 80.896-74.390588 81.859765-2.288942 2.861176a26.352941 26.352941 0 0 0-3.011764 23.883294L613.556706 481.882353l-85.293177 149.232941v-229.104941l83.456-194.740706z m-217.027764 5.903059l80.896 188.747294-0.030118 229.165176L390.324706 481.882353l30.991059-85.142588 1.024-3.584a26.352941 26.352941 0 0 0-4.48753-20.931765l-60.867764-83.666824 37.707294-75.414588z m193.445647-80.594824a26.142118 26.142118 0 0 0-2.740706 3.46353l-0.752941 1.204706-0.240941 0.421647a26.322824 26.322824 0 0 0-0.692706 1.325176l-0.572236 1.204706-81.227294 189.409882-81.136941-189.409882-1.084235-2.228706a26.383059 26.383059 0 0 0-0.150588-0.301176l-0.271059-0.421647a26.322824 26.322824 0 0 0-7.04753-7.830589l-1.024-0.722823-0.421647-0.301177a26.443294 26.443294 0 0 0-1.716706-0.993882l-0.722823-0.391529a26.925176 26.925176 0 0 0-11.896471-2.770824H607.533176h-0.843294l-0.813176 0.030118-0.722824 0.060235a26.292706 26.292706 0 0 0-5.993411 1.204706l-0.421647 0.150588-2.138353 0.873412-0.301177 0.120471a26.352941 26.352941 0 0 0-7.770353 5.481411z" fill="#568af2" /></svg>