<svg class="icon" style="width: 1em;height: 1em;vertical-align: middle;fill: currentColor;overflow: hidden;" viewBox="0 0 1024 1024" version="1.1" xmlns="http://www.w3.org/2000/svg" width="32" height="32"><path d="M774.264471 124.235294c9.456941 0 18.070588 5.059765 22.768941 13.071059l1.566117 3.132235 43.91153 105.411765c4.216471 10.149647 1.686588 21.684706-6.02353 29.153882l-2.800941 2.319059-44.845176 32.587294 81.167059 66.228706a26.352941 26.352941 0 0 1 9.456941 17.046588l0.210823 3.373177V730.352941a26.352941 26.352941 0 0 1-23.04 26.142118l-3.312941 0.210823h-96.617412v96.617412a26.352941 26.352941 0 0 1-23.04 26.172235l-3.312941 0.180706H273.558588a26.352941 26.352941 0 0 1-26.142117-23.04l-0.210824-3.312941v-96.617412H150.588235a26.352941 26.352941 0 0 1-26.142117-23.04l-0.210824-3.312941V396.559059c0-6.806588 2.620235-13.251765 7.228235-18.130824l2.469647-2.288941 81.106824-66.258823-44.815059-32.557177a26.352941 26.352941 0 0 1-9.426823-29.906823l1.355294-3.192471 52.705882-105.411765a26.352941 26.352941 0 0 1 20.269177-14.366117l3.312941-0.210824h535.823059z m-257.837177 109.718588l2.800941 2.108236 2.56 2.590117 107.128471 122.428236 101.315765-73.697883 0.271058-0.180706 55.356236-40.267294-29.153883-69.993412H254.704941L219.256471 247.808l54.272 39.484235 0.180705 0.090353 101.25553 73.697883 107.158588-122.428236a26.262588 26.262588 0 0 1 21.534118-8.944941l3.312941 0.421647a26.202353 26.202353 0 0 1 9.456941 3.824941z" fill="#568af2" /></svg>