<svg class="icon" style="width: 1em;height: 1em;vertical-align: middle;fill: currentColor;overflow: hidden;" viewBox="0 0 1024 1024" version="1.1" xmlns="http://www.w3.org/2000/svg" width="32" height="32"><path d="M417.129412 136.222118a26.322824 26.322824 0 0 0-2.710588 23.220706l86.256941 241.664 0.030117 478.569411h-149.323294a26.352941 26.352941 0 0 1-26.352941-26.352941l-0.030118-202.029176H210.823529a26.352941 26.352941 0 0 1-26.051764-30.418824l0.722823-3.162353 105.411765-368.941176a26.352941 26.352941 0 0 1 18.944-18.341647c22.648471-5.662118 46.200471-21.744941 68.879059-45.176471 15.540706-16.112941 28.190118-32.888471 36.743529-46.381176l1.385412-2.198589z m220.009412 0.240941l0.602352 0.963765 2.108236 3.523764 5.270588 7.981177 8.553412 11.956706a292.141176 292.141176 0 0 0 21.172706 25.20847c22.588235 23.883294 45.989647 39.604706 68.21647 44.062118 9.637647 1.927529 17.468235 9.125647 20.178824 18.612706l105.411764 368.941176A26.352941 26.352941 0 0 1 843.294118 651.294118h-114.206118v202.029176a26.352941 26.352941 0 0 1-23.04 26.172235l-3.312941 0.180706h-149.323294v-478.569411l86.317176-241.664 0.90353-3.162353a26.322824 26.322824 0 0 0-3.493647-19.817412z m-22.226824-12.227765h0.632471a26.352941 26.352941 0 0 0-25.449412 17.468235L527.058824 318.192941l-63.036236-176.429176-1.295059-3.041883a26.383059 26.383059 0 0 0-24.124235-14.45647H614.912z" fill="#568af2" /></svg>