<svg class="icon" style="width: 1em;height: 1em;vertical-align: middle;fill: currentColor;overflow: hidden;" viewBox="0 0 1024 1024" version="1.1" xmlns="http://www.w3.org/2000/svg" width="32" height="32"><path d="M501.970824 184.470588a79.058824 79.058824 0 0 1 37.827764 148.48l96.918588 193.897412 104.990118-52.464941a79.058824 79.058824 0 1 1 79.600941 23.612235L720.564706 850.522353a26.352941 26.352941 0 0 1-25.359059 19.124706H308.705882a26.352941 26.352941 0 0 1-25.328941-19.124706L182.603294 497.965176a79.088941 79.088941 0 1 1 79.631059-23.612235l104.929882 52.495059 96.978824-193.867294a79.028706 79.028706 0 0 1 37.827765-148.510118z m298.646588 210.82353a26.352941 26.352941 0 1 0 0.813176 52.645647l-0.813176 0.060235a26.352941 26.352941 0 1 0 0-52.705882z m-597.323294 0a26.352941 26.352941 0 1 0 0.903529 52.645647l-0.903529 0.060235a26.352941 26.352941 0 1 0 0-52.705882z m298.676706-158.117647a26.352941 26.352941 0 1 0 0 52.705882 26.352941 26.352941 0 0 0 0-52.705882z" fill="#568af2" /></svg>