<svg class="icon" style="width: 1em;height: 1em;vertical-align: middle;fill: currentColor;overflow: hidden;" viewBox="0 0 1024 1024" version="1.1" xmlns="http://www.w3.org/2000/svg" width="32" height="32"><path d="M623.766588 157.033412l0.331294 8.583529 0.602353 10.450824c1.234824 18.853647 3.523765 37.737412 7.077647 55.597176 6.836706 34.183529 17.528471 60.837647 34.755765 78.095059 13.251765 13.251765 30.659765 24.696471 51.260235 34.725647a363.580235 363.580235 0 0 0 51.320471 20.118588l11.474823 3.403294 5.51153 1.445647a26.352941 26.352941 0 0 0 12.498823-51.2 114.296471 114.296471 0 0 1-1.927529-0.481882l-8.342588-2.409412-7.529412-2.349176a311.988706 311.988706 0 0 1-39.905882-15.902118c-15.781647-7.710118-28.551529-16.082824-37.074824-24.606117-8.071529-8.071529-15.36-26.352941-20.359529-51.2a381.530353 381.530353 0 0 1-6.475294-53.579295l-0.39153-8.342588-0.210823-35.147294h96.647529c13.552941 0 24.877176 10.24 26.202353 23.732706l70.294588 702.735059a26.352941 26.352941 0 0 1-26.23247 28.973176h-158.117647a26.352941 26.352941 0 0 1-24.786824-17.408L527.058824 491.911529 393.728 862.268235a26.352941 26.352941 0 0 1-21.142588 17.167059l-3.644236 0.240941H210.823529a26.352941 26.352941 0 0 1-26.202353-28.973176L254.855529 147.968a26.352941 26.352941 0 0 1 26.202353-23.732706h113.573647c-6.083765 0-11.806118 0.060235-17.136941 0.090353v35.056941l-0.692706 13.161412c-1.114353 16.745412-3.102118 33.430588-6.174117 48.790588-4.969412 24.816941-12.288 43.098353-20.329412 51.169883-8.553412 8.523294-21.323294 16.896-37.104941 24.606117a311.988706 311.988706 0 0 1-43.821177 17.167059l-9.607529 2.831059-4.246588 1.14447a26.352941 26.352941 0 1 0 12.468706 51.2l5.511529-1.445647 7.258353-2.108235 8.82447-2.770823a363.580235 363.580235 0 0 0 46.712471-18.672942c20.600471-10.029176 38.008471-21.443765 51.260235-34.695529 17.227294-17.227294 27.919059-43.911529 34.755765-78.095059a432.760471 432.760471 0 0 0 7.439059-61.04847l0.451765-9.547295 0.030117-36.833882h70.445177v122.970353l0.210823 3.312941a26.352941 26.352941 0 0 0 52.495059-3.312941V124.235294h70.264471l0.090353 32.798118z" fill="#568af2" /></svg>