<svg class="icon" style="width: 1em;height: 1em;vertical-align: middle;fill: currentColor;overflow: hidden;" viewBox="0 0 1024 1024" version="1.1" xmlns="http://www.w3.org/2000/svg" width="32" height="32"><path d="M501.970824 244.705882a114.206118 114.206118 0 0 1 28.521411 224.798118l-2.198588 0.481882v21.323294c208.926118 10.24 351.382588 141.462588 351.382588 271.661177a26.352941 26.352941 0 0 1-26.352941 26.352941H150.588235a26.352941 26.352941 0 0 1-26.352941-26.352941c0-130.198588 142.456471-261.421176 351.352471-271.661177v-44.574117c0-14.546824 11.806118-26.352941 26.383059-26.352941a61.500235 61.500235 0 1 0-61.500236-61.470118 26.352941 26.352941 0 0 1-52.705882 0 114.206118 114.206118 0 0 1 114.206118-114.206118z" fill="#568af2" /></svg>