<svg class="icon" style="width: 1em;height: 1em;vertical-align: middle;fill: currentColor;overflow: hidden;" viewBox="0 0 1024 1024" version="1.1" xmlns="http://www.w3.org/2000/svg" width="32" height="32"><path d="M808.146824 283.617882c12.559059 0 23.190588 8.824471 25.780705 20.781177l0.481883 3.373176 35.147294 421.647059a26.352941 26.352941 0 0 1-23.009882 28.340706l-3.252706 0.210824h-266.300236a26.352941 26.352941 0 0 1-24.395294-16.384l-1.114353-3.373177-24.425411-94.509176-24.395295 94.509176a26.352941 26.352941 0 0 1-18.55247 18.823529l-3.433412 0.692706-3.553882 0.240942H210.823529a26.352941 26.352941 0 0 1-26.322823-25.298824l0.060235-3.252706 35.147294-421.647059a26.352941 26.352941 0 0 1 22.889412-23.943529l3.373177-0.210824h562.176z m-241.121883 52.705883h-83.877647l-49.603765 93.003294-1.385411 3.011765a26.352941 26.352941 0 0 0 46.140235 24.606117l1.746823-2.831059 44.393412-83.335529 31.11153 72.553412 1.505882 2.951529a26.352941 26.352941 0 0 0 48.037647-20.60047l-1.114353-3.132236-36.954353-86.226823z" fill="#568af2" /></svg>