<svg class="icon" style="width: 1em;height: 1em;vertical-align: middle;fill: currentColor;overflow: hidden;" viewBox="0 0 1024 1024" version="1.1" xmlns="http://www.w3.org/2000/svg" width="32" height="32"><path d="M572.235294 184.470588a96.617412 96.617412 0 0 1 79.841882 151.070118c128.481882 34.424471 223.774118 150.016 227.508706 288.466823l0.090353 8.463059v105.411765a26.352941 26.352941 0 0 1-23.04 26.142118l-3.312941 0.210823-153.840941-0.030118a79.058824 79.058824 0 0 1-74.541177 105.441883h-421.647058a79.058824 79.058824 0 1 1 0-158.117647h61.470117V632.470588c0-141.854118 96.225882-261.662118 227.659294-296.96A96.617412 96.617412 0 0 1 572.235294 184.470588z m-97.972706 212.751059l-2.800941 1.204706a254.915765 254.915765 0 0 0-153.871059 226.394353l-0.090353 7.649882-0.030117 79.058824 118.061176 0.030117c-5.601882-50.115765-4.457412-128.481882 5.210353-193.867294 7.107765-48.007529 18.070588-88.877176 33.520941-120.470588zM572.235294 377.735529c-32.828235 0-58.428235 52.224-73.788235 118.723765l-3.373177 15.570824c-2.108235 10.541176-4.005647 21.323294-5.601882 32.225882l-2.228706 16.504471-0.963765 8.282353-1.626353 16.564705c-3.975529 46.08-3.192471 91.437176 3.102118 125.952l165.948235 0.060236c3.885176-51.832471 2.951529-128.542118-5.451294-189.741177-12.769882-92.822588-40.056471-144.143059-76.016941-144.143059z m97.069177 19.124706l0.813176 1.716706c14.155294 30.629647 23.973647 69.903059 30.328471 116.10353 8.734118 63.427765 9.938824 141.402353 6.113882 196.848941h120.410353V632.470588a254.795294 254.795294 0 0 0-157.665882-235.610353z" fill="#568af2" /></svg>