<svg class="icon" style="width: 1em;height: 1em;vertical-align: middle;fill: currentColor;overflow: hidden;" viewBox="0 0 1024 1024" version="1.1" xmlns="http://www.w3.org/2000/svg" width="32" height="32"><path d="M614.912 133.029647c2.499765 0 4.909176 0.331294 7.228235 0.993882l5.662118 0.301177 10.842353 0.903529c30.750118 3.102118 46.290824 10.24 62.162823 26.081883 16.655059 16.685176 23.642353 31.683765 26.473412 65.957647l0.512 7.107764 0.602353 11.896471 0.361412 13.342118 0.301176 22.889411 0.030118 81.167059 6.806588 1.174588c8.493176 1.626353 17.257412 3.915294 26.112 6.987295l8.854588 3.312941 8.884706 3.885176c42.676706 20.058353 69.872941 55.657412 72.161883 107.038118l0.180706 7.107765v140.559058c0 55.205647-27.708235 93.153882-72.342589 114.145883a183.627294 183.627294 0 0 1-35.297882 12.348235l-8.583529 1.807059-6.776471 1.174588v98.906353c0 12.318118-8.432941 22.648471-19.877647 25.539765l-3.162353 0.602353-3.312941 0.210823H210.823529a26.352941 26.352941 0 0 1-26.142117-23.04l-0.210824-3.312941V283.316706l0.150588-16.594824 0.301177-14.908235 0.150588-3.463529 0.120471-3.403294 0.752941-12.649412c2.650353-35.84 9.637647-53.790118 26.804706-70.987294 16.685176-16.655059 31.713882-23.642353 65.957647-26.473412l7.107765-0.512 5.632-0.301177a26.202353 26.202353 0 0 1 3.915294-0.813176l3.312941-0.180706h316.235294z m-131.794824 52.705882h-52.705882v289.882353l0.210824 3.312942a26.352941 26.352941 0 0 0 52.314353 0l0.210823-3.312942-0.030118-289.882353z m122.970353 0h-52.705882l0.030118 289.882353 0.210823 3.312942a26.352941 26.352941 0 0 0 52.284236 0l0.210823-3.312942-0.030118-289.882353z m-245.940705 0h-52.705883v289.882353l0.210824 3.312942a26.352941 26.352941 0 0 0 52.314353 0l0.180706-3.312942V185.735529z" fill="#568af2" /></svg>