<svg class="icon" style="width: 1em;height: 1em;vertical-align: middle;fill: currentColor;overflow: hidden;" viewBox="0 0 1024 1024" version="1.1" xmlns="http://www.w3.org/2000/svg" width="32" height="32"><path d="M677.647059 214.588235c32.406588 0 58.970353 25.088 61.319529 56.922353l0.180706 4.577883-0.060235 171.218823c15.661176 45.206588 45.477647 103.996235 83.335529 168.297412l7.68 12.950588 7.107765 11.806118 3.553882 5.872941 3.553883 5.752471 13.673411 21.925647 11.113412 17.377882 6.144 9.396706a25.539765 25.539765 0 0 1-1.174588 30.870588l-5.240471 7.499294-14.095058 20.570353-6.896942 9.487059a113.844706 113.844706 0 0 1-1.897411 2.439529c-29.816471 37.044706-69.180235 57.946353-126.132706 57.946353-18.974118 0-39.634824-3.614118-66.379294-10.932706l-12.438589-3.553882-39.574588-12.318118-44.935529-14.215529a1258.315294 1258.315294 0 0 0-37.918118-11.023059l-51.350588 14.878118-52.585412 14.817882-29.394823 7.830588-14.968471 3.734589-17.408 3.915294-11.474824 2.288941-10.450823 1.716706-12.769882 1.596235-6.083765 0.542118-8.944941 0.481882-11.986824 0.240941c-56.079059 0-95.744-18.552471-126.283294-51.772235l-4.999529-5.662118-4.246589-5.300706L150.588235 760.169412l-14.817882-20.570353-7.408941-10.059294a26.352941 26.352941 0 0 1-1.656471-25.419294l1.92753-3.403295 18.763294-29.153882 17.679059-28.521412c13.131294-21.534118 26.081882-43.670588 38.339764-65.746823 9.908706-17.829647 19.064471-35.087059 27.346824-51.651765 13.583059-27.196235 24.485647-51.832471 32.225882-73.216l1.746824-5.059765V276.088471c0-32.436706 25.118118-58.970353 56.922353-61.31953l4.577882-0.180706H677.647059z m4.21647 520.402824l-10.029176 2.078117-20.118588 4.457412-21.232941 5.089883-11.023059 2.770823-6.475294 1.626353 28.852705 9.125647 17.076706 5.240471c26.925176 7.770353 45.839059 11.414588 60.897883 11.414588 40.116706 0 64.813176-13.131294 85.11247-38.309647l4.276706-5.782588 4.035765-5.812706c-29.364706-6.686118-72.553412-3.764706-131.373177 8.101647zM677.647059 267.294118H326.264471a8.794353 8.794353 0 0 0-8.553412 6.77647l-0.210824 2.017883-0.030117 149.323294h368.941176V276.088471a8.794353 8.794353 0 0 0-4.909176-7.890824l-1.837177-0.662588-2.017882-0.240941z" fill="#568af2" /></svg>