<svg class="icon" style="width: 1em;height: 1em;vertical-align: middle;fill: currentColor;overflow: hidden;" viewBox="0 0 1024 1024" version="1.1" xmlns="http://www.w3.org/2000/svg" width="32" height="32"><path d="M748.032 184.982588l3.192471 0.843294 71.860705 24.033883 8.914824 3.312941 1.987765 0.843294c13.010824 5.421176 22.076235 11.625412 29.063529 21.323294 7.228235 10.029176 10.029176 17.618824 11.053177 33.490824l0.391529 9.547294 0.150588 11.565176v412.792471a26.503529 26.503529 0 0 1-0.451764 4.969412 149.323294 149.323294 0 1 1-297.682824 0.090353 15.811765 15.811765 0 0 1-0.301176-1.746824l-0.210824-3.312941a61.500235 61.500235 0 0 0-122.970353 0 26.503529 26.503529 0 0 1-0.481882 4.969412 149.323294 149.323294 0 1 1-297.682824 0.090353 15.811765 15.811765 0 0 1-0.301176-1.746824l-0.210824-3.312941V289.942588l0.180706-11.565176 0.391529-9.547294c1.024-15.872 3.794824-23.461647 11.023059-33.490824 6.987294-9.697882 16.082824-15.902118 29.06353-21.323294l6.113882-2.409412 19.275294-6.656 57.374118-19.124706a26.352941 26.352941 0 0 1 19.757176 48.760471l-3.072 1.234823-71.439059 23.883295-6.023529 2.258823-5.421176 2.349177-2.048 1.14447a5.12 5.12 0 0 0-0.512 0.39153l-0.512 0.692705-0.421647 1.204706-0.301177 2.078118-0.421647 5.240471-0.210824 8.643764-0.090352 12.890353v309.850353a148.751059 148.751059 0 0 1 96.617411-35.478588c49.694118 0 93.665882 24.244706 120.832 61.560471a113.844706 113.844706 0 0 1 89.99153-43.971765c36.592941 0 69.180235 17.197176 90.051764 43.971765a148.931765 148.931765 0 0 1 120.771765-61.560471c36.864 0 70.595765 13.372235 96.64753 35.478588L821.910588 287.141647l-0.210823-10.480941-0.240941-4.577882-0.301177-3.072-0.391529-1.867295a3.463529 3.463529 0 0 0-0.451765-0.993882l-0.301177-0.301176-1.355294-0.90353a26.563765 26.563765 0 0 0-1.204706-0.602353l-5.421176-2.409412-8.734118-3.132235-11.38447-3.855059-57.344-19.124706a26.352941 26.352941 0 0 1 13.462588-50.838588z" fill="#568af2" /></svg>