<svg class="icon" style="width: 1em;height: 1em;vertical-align: middle;fill: currentColor;overflow: hidden;" viewBox="0 0 1024 1024" version="1.1" xmlns="http://www.w3.org/2000/svg" width="32" height="32"><path d="M523.414588 186.006588l3.373177 1.505883 333.793882 175.676235a26.352941 26.352941 0 0 1 3.132235 44.724706l-3.132235 1.927529-91.346823 48.037647v263.107765c0 19.666824-9.336471 38.038588-25.871059 48.670118-58.488471 37.677176-136.071529 64.843294-228.864 64.843294-92.762353 0-170.345412-27.166118-228.864-64.843294a56.952471 56.952471 0 0 1-25.690353-43.791059l-0.180706-4.879059v-263.107765l-91.346824-48.037647a26.352941 26.352941 0 0 1-3.102117-44.724706l3.102117-1.927529 333.824-175.676235a26.352941 26.352941 0 0 1 21.172706-1.505883z m193.114353 299.610353l-189.741176 99.900235a26.352941 26.352941 0 0 1-21.172706 1.505883l-3.373177-1.505883-189.771294-99.900235v235.369412c0 2.288941 0.752941 3.734588 1.716706 4.367059 50.597647 32.587294 118.723765 56.440471 200.312471 56.44047 81.618824 0 149.714824-23.853176 200.342588-56.44047 0.722824-0.481882 1.325176-1.415529 1.566118-2.800941l0.150588-1.566118-0.030118-235.369412z m131.794824-2.469647c13.432471 0 24.515765 10.029176 26.142117 23.04l0.210824 3.312941v140.528941a26.352941 26.352941 0 0 1-52.525177 3.312942l-0.180705-3.312942v-140.528941c0-14.576941 11.776-26.352941 26.352941-26.352941z" fill="#568af2" /></svg>