<svg class="icon" style="width: 1em;height: 1em;vertical-align: middle;fill: currentColor;overflow: hidden;" viewBox="0 0 1024 1024" version="1.1" xmlns="http://www.w3.org/2000/svg" width="32" height="32"><path d="M401.408 125.379765a26.443294 26.443294 0 0 0-15.179294 38.279529l96.737882 169.35153-182.693647 240.850823-1.987765 3.011765a26.352941 26.352941 0 0 0 43.971765 28.852706l193.234824-254.735059 0.692706-0.90353a26.262588 26.262588 0 0 0 0.843294-1.325176l0.361411-0.602353 105.411765-184.500706 1.475765-2.981647a26.352941 26.352941 0 0 0-13.161412-33.942588l1.596235 0.813176 158.117647 87.853177a26.352941 26.352941 0 0 1 12.769883 16.624941l70.294588 281.118118c2.981647 11.986824-2.740706 24.425412-13.793882 29.967058l-125.982118 62.945883v247.265882a26.352941 26.352941 0 0 1-23.04 26.172235l-3.312941 0.180706H321.264941a26.352941 26.352941 0 0 1-26.352941-26.352941l-0.030118-247.265882-125.952-62.945883a26.352941 26.352941 0 0 1-14.396235-26.714353l0.602353-3.252705 70.264471-281.118118a26.352941 26.352941 0 0 1 12.769882-16.624941l158.117647-87.853177a26.352941 26.352941 0 0 1 3.011765-1.445647z m218.503529-1.144471a26.352941 26.352941 0 0 1-22.889411 13.251765l-82.522353 144.444235-82.522353-144.414118-1.807059-2.770823a26.383059 26.383059 0 0 0-21.895529-10.511059h0.813176z" fill="#568af2" /></svg>