<svg class="icon" style="width: 1em;height: 1em;vertical-align: middle;fill: currentColor;overflow: hidden;" viewBox="0 0 1024 1024" version="1.1" xmlns="http://www.w3.org/2000/svg" width="32" height="32"><path d="M822.151529 282.352941v224.677647a218.955294 218.955294 0 0 1-86.588235 174.561883l-103.725176 78.215529-55.777883 41.562353-28.461176 20.690823c-96.376471 68.848941-212.329412 82.341647-297.472-2.800941-91.557647-91.557647-83.877647-223.804235 0.813176-301.568 6.836706-6.294588 13.944471-12.709647 21.263059-19.275294 26.413176-23.582118 54.633412-47.766588 82.883765-71.258353l27.858823-22.979764V282.352941h439.205647z m-26.352941 87.853177h-8.734117l-15.600942 0.240941-13.763764 0.512c-15.149176 0.843294-27.678118 2.439529-41.803294 5.421176-56.018824 11.806118-97.942588 42.465882-120.229647 98.213647-34.816 87.009882-5.360941 175.375059 58.518588 239.254589a26.352941 26.352941 0 0 0 37.285647-37.25553c-50.326588-50.326588-72.794353-117.669647-46.893177-182.422588 15.239529-38.008471 42.285176-57.825882 82.160942-66.198588 9.788235-2.078118 18.883765-3.312941 29.635764-4.096l11.354353-0.602353 12.950588-0.301177 15.119059-0.060235a26.352941 26.352941 0 0 0 0-52.705882z m-35.117176-245.970824c33.942588 0 61.470118 27.527529 61.470117 61.500235v43.91153H382.945882V185.735529c0-30.870588 22.768941-56.440471 52.404706-60.837647l4.517647-0.481882 4.577883-0.180706z" fill="#568af2" /></svg>