<svg class="icon" style="width: 1em;height: 1em;vertical-align: middle;fill: currentColor;overflow: hidden;" viewBox="0 0 1024 1024" version="1.1" xmlns="http://www.w3.org/2000/svg" width="32" height="32"><path d="M651.745882 125.891765l10.24 4.126117 9.09553 3.915294 10.691764 4.848942c22.106353 10.330353 44.272941 22.287059 65.054118 35.809882 12.769882 8.312471 24.696471 16.986353 35.538824 26.021647 56.470588 47.073882 94.087529 112.007529 97.129411 170.767059l0.180706 7.589647V730.352941a26.352941 26.352941 0 0 1-23.04 26.142118l-3.312941 0.210823h-96.617412v96.617412a26.352941 26.352941 0 0 1-23.04 26.172235l-3.312941 0.180706h-202.029176l-0.030118-493.236706 136.673882-222.027294 1.536-2.921411a26.352941 26.352941 0 0 0-15.390117-35.84l0.662588 0.271058z m-298.375529-0.421647a26.413176 26.413176 0 0 0-14.396235 38.942117l136.613647 222.027294v493.236706H273.588706a26.352941 26.352941 0 0 1-26.142118-23.04l-0.210823-3.312941v-96.617412H150.588235a26.352941 26.352941 0 0 1-26.142117-23.04l-0.210824-3.312941V378.970353c0-60.687059 38.4-129.234824 97.340235-178.356706 10.842353-9.035294 22.738824-17.709176 35.538824-26.021647 20.781176-13.522824 42.917647-25.479529 65.054118-35.809882l10.661647-4.848942 9.095529-3.915294 7.318588-2.981647 2.921412-1.114353z m289.129412-1.234824h0.512a26.352941 26.352941 0 0 0-22.949647 12.528941l-118.121412 191.909647-118.061177-191.909647-1.927529-2.710588a26.352941 26.352941 0 0 0-20.751059-9.818353h281.298824z" fill="#568af2" /></svg>