<svg class="icon" style="width: 1em;height: 1em;vertical-align: middle;fill: currentColor;overflow: hidden;" viewBox="0 0 1024 1024" version="1.1" xmlns="http://www.w3.org/2000/svg" width="32" height="32"><path d="M502.241882 187.512471a26.352941 26.352941 0 0 1 24.545883 0l333.522823 175.525647c1.054118 0.542118 2.108235 1.144471 3.072 1.837176l0.301177 0.240941c3.312941 2.349176 5.903059 5.300706 7.710117 8.58353l0.39153 0.813176c0.903529 1.656471 1.536 3.403294 2.017882 5.210353l0.150588 0.602353a23.823059 23.823059 0 0 1 0.451765 2.499765l0.060235 0.391529 0.060236 0.39153a26.955294 26.955294 0 0 1 0.150588 2.409411v281.6a26.352941 26.352941 0 0 1-52.525177 3.312942l-0.180705-3.312942-0.030118-237.477647-52.705882 27.738353v253.018353c0 37.586824-26.443294 70.234353-63.036236 79.872-50.928941 13.372235-102.851765 32.647529-150.13647 58.578824-25.840941 14.155294-57.253647 14.155294-83.124706 0-47.254588-25.931294-99.177412-45.176471-150.106353-58.578824-34.876235-9.155765-60.536471-39.243294-62.885647-74.541176l-0.180706-5.330824v-253.018353l-91.346824-48.037647a26.352941 26.352941 0 0 1-3.102117-44.724706l3.102117-1.927529z m214.287059 298.10447l-189.741176 99.900235a26.352941 26.352941 0 0 1-24.545883 0l-189.771294-99.900235v225.28c0 13.101176 9.818353 25.238588 23.762824 28.912941 54.784 14.396235 110.592 35.087059 162.063059 63.307294 10.059294 5.511529 22.377412 5.511529 32.406588 0 51.501176-28.220235 107.309176-48.911059 162.093176-63.337411 12.769882-3.343059 22.076235-13.824 23.552-25.630118l0.210824-3.252706-0.030118-225.28z" fill="#568af2" /></svg>