<svg class="icon" style="width: 1em;height: 1em;vertical-align: middle;fill: currentColor;overflow: hidden;" viewBox="0 0 1024 1024" version="1.1" xmlns="http://www.w3.org/2000/svg" width="32" height="32"><path d="M459.384471 754.206118l3.102117-0.180706a26.352941 26.352941 0 0 0 23.43153-25.810824l-0.120471-10.119529-0.512-11.745883c-0.120471-2.108235-0.240941-4.336941-0.421647-6.625882l-1.234824-14.516706c-2.891294-28.672-8.131765-57.223529-16.50447-84.208941-10.089412-32.496941-24.033882-60.687059-42.767059-83.245176-20.720941-24.997647-52.645647-49.573647-93.033412-73.999059a905.396706 905.396706 0 0 0-84.48-44.845177L230.731294 391.529412l-9.728-4.216471a26.352941 26.352941 0 1 0-20.359529 48.609883l15.962353 7.077647 16.203294 7.589647a853.835294 853.835294 0 0 1 71.228235 38.249411c35.779765 21.654588 63.548235 43.068235 79.751529 62.584471 13.854118 16.655059 24.816941 38.821647 32.978824 65.204706a382.795294 382.795294 0 0 1 16.444235 110.832941l0.150589 3.312941a26.383059 26.383059 0 0 0 18.642823 22.317177l-0.602353-0.180706-5.632-1.957647-12.167529-4.517647-14.095059-5.662118-7.499294-3.192471c-29.063529-12.589176-58.127059-27.708235-85.443765-45.447529-24.094118-15.631059-45.658353-32.617412-64.090353-51.079529-33.099294-33.069176-54.302118-80.052706-66.68047-135.55953a489.411765 489.411765 0 0 1-9.276236-58.849882l-1.204706-14.72753a375.657412 375.657412 0 0 1-0.813176-18.401882L184.470588 271.058824c0-14.546824 11.806118-26.352941 26.352941-26.352942h632.470589c14.546824 0 26.352941 11.806118 26.352941 26.352942v139.535058a26.352941 26.352941 0 0 0-36.532706-23.311058l-6.535529 2.831058-19.305412 8.794353-8.794353 4.186353c-25.750588 12.348235-51.501176 26.021647-75.685647 40.658824-40.357647 24.395294-72.282353 49.031529-93.033412 73.999059-18.733176 22.588235-32.677647 50.748235-42.767059 83.275294a430.441412 430.441412 0 0 0-16.50447 84.178823l-1.234824 14.546824c-0.180706 2.258824-0.301176 4.457412-0.421647 6.595764l-0.512 11.745883-0.090353 5.12v4.999529l0.240941 3.312941c1.807059 12.950588 13.010824 22.859294 26.473412 22.678589l-0.240941-0.030118h-135.318588z m410.262588-342.528v2.288941c-0.120471 5.12-0.361412 11.143529-0.843294 17.980235l-1.204706 14.697412a489.411765 489.411765 0 0 1-9.276235 58.849882c-12.378353 55.506824-33.581176 102.490353-66.680471 135.55953a393.396706 393.396706 0 0 1-64.090353 51.079529 582.023529 582.023529 0 0 1-92.943059 48.64l-14.095059 5.662118-6.595764 2.499764-9.396706 3.312942a26.383059 26.383059 0 0 0 16.233412-21.473883l0.150588-3.312941 0.030117-7.589647c0.512-28.370824 4.969412-66.319059 16.414118-103.243294 8.161882-26.383059 19.154824-48.549647 32.978824-65.204706 16.203294-19.546353 43.971765-40.96 79.751529-62.584471a853.835294 853.835294 0 0 1 71.228235-38.249411l16.173177-7.589647 7.348706-3.312942 8.643764-3.764705a26.352941 26.352941 0 0 0 16.173177-24.244706z" fill="#568af2" /></svg>