<svg class="icon" style="width: 1em;height: 1em;vertical-align: middle;fill: currentColor;overflow: hidden;" viewBox="0 0 1024 1024" version="1.1" xmlns="http://www.w3.org/2000/svg" width="32" height="32"><path d="M830.223059 161.551059c19.154824-18.070588 50.055529 0 43.670588 25.539765l-52.705882 210.823529a26.352941 26.352941 0 0 1-20.419765 19.456l-59.934118 11.986823a306.356706 306.356706 0 0 1 81.136942 208.112942c0 82.040471-32.286118 162.816-83.305412 227.207529a26.352941 26.352941 0 0 1-41.321412-32.737882c44.092235-55.627294 71.920941-125.259294 71.920941-194.43953a254.735059 254.735059 0 1 0-509.500235 0c0 69.180235 27.828706 138.812235 71.890823 194.43953A26.352941 26.352941 0 0 1 290.334118 864.677647c-50.989176-64.391529-83.275294-145.167059-83.275294-227.177412 0-80.293647 30.780235-153.389176 81.167058-208.112941l-59.994353-12.016941a26.352941 26.352941 0 0 1-20.389647-19.456l-52.705882-210.823529c-6.384941-25.539765 24.515765-43.610353 43.670588-25.539765l158.117647 149.323294c6.746353 6.384941 9.637647 15.811765 7.619765 24.877176l-8.493176 38.249412a305.995294 305.995294 0 0 1 158.448941-43.971765c57.976471 0 112.218353 16.052706 158.479059 43.971765l-8.493177-38.249412a26.352941 26.352941 0 0 1 7.619765-24.877176z" fill="#568af2" /></svg>