<svg class="icon" style="width: 1em;height: 1em;vertical-align: middle;fill: currentColor;overflow: hidden;" viewBox="0 0 1024 1024" version="1.1" xmlns="http://www.w3.org/2000/svg" width="32" height="32"><path d="M642.710588 126.313412l1.536 0.692706 210.82353 105.411764c9.637647 4.818824 15.36 14.968471 14.486588 25.690353l-35.117177 439.205647a26.352941 26.352941 0 0 1-26.292705 24.244706h-79.058824v131.764706a26.352941 26.352941 0 0 1-23.04 26.172235l-3.312941 0.180706H351.382588a26.352941 26.352941 0 0 1-26.352941-26.352941l-0.030118-131.764706H245.970824a26.352941 26.352941 0 0 1-25.780706-20.901647l-0.512-3.312941L184.560941 258.108235a26.352941 26.352941 0 0 1 14.456471-25.690353l210.823529-105.411764a26.352941 26.352941 0 0 1-14.546823 23.582117 131.764706 131.764706 0 0 0 263.529411 0 26.352941 26.352941 0 0 0-16.082823-24.274823z m-291.328 279.009882a26.352941 26.352941 0 0 0-26.352941 26.352941v263.529412l0.180706 3.312941a26.352941 26.352941 0 0 0 52.525176-3.312941v-263.529412l-0.210823-3.312941a26.352941 26.352941 0 0 0-26.142118-23.04z m351.352471 0a26.352941 26.352941 0 0 0-26.352941 26.352941v263.529412l0.210823 3.312941a26.352941 26.352941 0 0 0 52.495059-3.312941v-263.529412l-0.180706-3.312941a26.352941 26.352941 0 0 0-26.172235-23.04z m-101.165177-228.382118l-0.783058 2.228706-2.048 4.818824a79.058824 79.058824 0 0 1-71.68 45.658353l-4.99953-0.150588-5.481412-0.542118a79.149176 79.149176 0 0 1-63.247058-49.784471l-0.813177-2.228706h149.052235z" fill="#568af2" /></svg>