<svg class="icon" style="width: 1em;height: 1em;vertical-align: middle;fill: currentColor;overflow: hidden;" viewBox="0 0 1024 1024" version="1.1" xmlns="http://www.w3.org/2000/svg" width="32" height="32"><path d="M526.155294 124.235294a25.298824 25.298824 0 0 0-5.210353 0.722824l-0.512 0.12047-2.469647 0.783059-1.054118 0.421647a26.443294 26.443294 0 0 0-6.204235 3.614118l-0.843294 0.722823-0.542118 0.481883a26.142118 26.142118 0 0 0-0.903529 0.843294l-0.843294 0.903529-0.481882 0.542118a26.202353 26.202353 0 0 0-0.722824 0.873412l-0.813176 1.114353a26.563765 26.563765 0 0 0-1.295059 1.987764l-0.451765 0.813177-70.264471 131.764706-1.385411 3.011764a26.352941 26.352941 0 0 0 46.140235 24.606118l1.746823-2.800941 46.98353-88.244706 47.043765 88.244706 1.746823 2.800941a26.352941 26.352941 0 0 0 46.140235-24.606118l-1.385411-3.011764-70.264471-131.764706-0.602353-1.024a26.322824 26.322824 0 0 0-5.360941-6.475294l-1.264941-1.024-0.813177-0.602353-0.63247-0.421647a26.322824 26.322824 0 0 0-1.536-0.933647l-0.632471-0.361412-0.512-0.271059a25.359059 25.359059 0 0 0-6.836706-2.349177l-0.512-0.090352-0.512-0.090353a23.280941 23.280941 0 0 0-1.807059-0.210824l-0.933647-0.060235 244.675765-0.030118c12.227765 0 22.708706 8.432941 25.6 20.028235l0.572235 3.252706 70.264471 597.323294a26.383059 26.383059 0 0 1-17.377882 27.949177v80.534588a26.352941 26.352941 0 0 1-23.070118 26.172235l-3.312941 0.180706h-105.411765a26.352941 26.352941 0 0 1-25.268706-18.913882l-0.692706-3.102118-14.004706-83.847529a26.352941 26.352941 0 0 1-17.347764-11.65553l-1.626353-2.951529-134.294588-283.557647-134.324706 283.557647a26.352941 26.352941 0 0 1-17.167059 14.215529l-1.807059 0.331295-13.974588 83.907764a26.352941 26.352941 0 0 1-22.799059 21.835294l-3.192471 0.180706h-105.411764a26.352941 26.352941 0 0 1-26.142118-23.04l-0.210824-3.312941V772.818824a26.383059 26.383059 0 0 1-17.558588-24.847059l0.180706-3.102118L254.915765 147.516235a26.352941 26.352941 0 0 1 22.889411-23.070117l3.312942-0.210824h245.037176z m273.167059 650.029177h-65.475765l8.764236 52.705882h56.741647v-52.705882z m-479.081412 0H254.735059v52.705882h56.741647l8.734118-52.705882z" fill="#568af2" /></svg>