<svg class="icon" style="width: 1em;height: 1em;vertical-align: middle;fill: currentColor;overflow: hidden;" viewBox="0 0 1024 1024" version="1.1" xmlns="http://www.w3.org/2000/svg" width="32" height="32"><path d="M409.118118 124.265412H208.293647c-35.870118 0.210824-51.139765 3.072-66.048 17.980235-14.908235 14.908235-17.769412 30.177882-17.980235 66.048v587.143529c0.210824 36.050824 3.072 51.350588 17.980235 66.258824 12.920471 12.890353 24.847059 16.715294 52.254118 17.679059l12.739764 0.271059 83.907765 0.030117 3.46353-0.210823a26.352941 26.352941 0 0 0 15.149176-7.499294L361.411765 820.314353l51.651764 51.651765a26.352941 26.352941 0 0 0 18.612706 7.710117l365.327059-0.060235 11.956706-0.240941 10.119529-0.481883c21.805176-1.505882 31.111529-5.722353 42.586353-17.227294 12.920471-12.890353 16.745412-24.847059 17.709177-52.254117l0.271059-12.739765 0.030117-155.949176-0.180706-27.768471-0.451764-24.124235-0.512-14.245647-0.692706-12.890353-0.90353-11.65553-1.204705-10.571294c-4.126118-31.834353-12.348235-48.760471-28.55153-67.282823-23.491765-26.955294-53.428706-38.249412-116.555294-48.308706l-29.455059-4.367059-88.69647-12.257882-14.245647-2.168471-14.546824-2.439529-12.890353-2.499765c-32.165647-6.686118-47.676235-14.064941-58.127059-26.051765-8.282353-9.517176-13.251765-21.082353-16.082823-42.375529l-1.024-9.035294-0.813177-10.209883-0.602353-11.444706-0.63247-19.757176-0.301177-23.190588-0.030117-44.483765-0.301177-18.612706c-0.933647-29.304471-4.577882-39.604706-17.709176-52.736-14.908235-14.908235-30.177882-17.769412-66.048-17.980235z m-200.493177 52.705882h200.312471l12.589176 0.240941 8.432941 0.512 3.704471 0.421647 2.439529 0.512a4.216471 4.216471 0 0 1 1.807059 0.843294l0.301177 0.39153 0.512 1.234823 0.481882 2.108236 0.421647 3.252706 0.451765 7.378823 0.361412 15.932235 0.090353 49.453177 0.180705 18.070588 0.39153 16.414118 0.602353 14.908235 0.391529 6.927059 0.993883 12.890353c3.614118 38.851765 11.956706 59.753412 29.876705 80.293647 23.521882 26.955294 53.458824 38.249412 116.555295 48.308706l29.455058 4.367059 88.726589 12.257882 14.215529 2.168471 14.576941 2.439529 12.860235 2.499765c32.165647 6.686118 47.676235 14.064941 58.127059 26.051764l1.566118 1.837177 2.861176 3.855059 2.56 4.126117c1.626353 2.891294 3.011765 6.023529 4.246589 9.637647l1.716706 5.722353 1.505882 6.475294 1.204706 7.378824 1.054117 8.372706 0.843295 9.517176 0.662588 10.752 0.692706 18.703059 0.301176 14.396235 0.240941 24.756706v162.153412l-0.210823 12.318118-0.271059 6.023529-0.542118 6.294588-0.451764 2.650353-0.512 1.686589a3.855059 3.855059 0 0 1-0.271059 0.542117l-0.632471 0.662588-0.512 0.240942-1.505882 0.481882-2.349177 0.421647-3.373176 0.361412-10.661647 0.512-17.106824 0.240941H442.608941l-62.554353-62.554353-2.710588-2.349176a26.352941 26.352941 0 0 0-34.575059 2.349176l-62.58447 62.554353h-70.776471l-12.348235-0.240941-6.02353-0.271059-6.26447-0.542118-2.680471-0.451764a13.312 13.312 0 0 1-0.963765-0.240942l-1.234823-0.542117-0.662588-0.662588-0.572236-1.385412-0.512-2.469647-0.421647-3.704471-0.361411-5.24047-0.361412-11.203765-0.030118-4.728471V208.474353l0.240941-12.589177 0.512-8.432941 0.421647-3.70447 0.512-2.43953a4.216471 4.216471 0 0 1 0.843294-1.807059 2.891294 2.891294 0 0 1 0.993883-0.572235l1.867294-0.512 3.072-0.481882 7.258353-0.602353 11.203765-0.301177 4.72847-0.060235z" fill="#568af2" /><path d="M853.323294 651.294118a26.352941 26.352941 0 0 1 3.312941 52.495058l-3.312941 0.210824H150.588235a26.352941 26.352941 0 0 1-3.312941-52.495059l3.312941-0.210823h702.735059zM466.823529 256a26.352941 26.352941 0 0 1 3.312942 52.495059l-3.312942 0.210823H150.588235a26.352941 26.352941 0 0 1-3.312941-52.495058L150.588235 256h316.235294zM343.853176 405.323294a79.058824 79.058824 0 1 0 0 158.117647 79.058824 79.058824 0 0 0 0-158.117647z m0 52.705882a26.352941 26.352941 0 1 1 0 52.705883 26.352941 26.352941 0 0 1 0-52.705883z" fill="#568af2" /></svg>