<svg class="icon" style="width: 1em;height: 1em;vertical-align: middle;fill: currentColor;overflow: hidden;" viewBox="0 0 1024 1024" version="1.1" xmlns="http://www.w3.org/2000/svg" width="32" height="32"><path d="M124.235294 578.650353l0.271059-5.270588c0.813176-10.691765 3.463529-24.786824 8.914823-41.622589 9.396706-29.123765 25.208471-59.934118 48.790589-91.346823l6.26447-8.011294c79.179294-97.219765 231.122824-140.047059 334.787765-125.259294 69.029647 9.878588 110.471529 67.252706 110.471529 131.523764v114.145883l219.587765 0.030117c13.432471 0 24.545882 10.059294 26.172235 23.070118l0.180706 3.312941v105.411765a26.352941 26.352941 0 0 1-23.04 26.112l-3.312941 0.210823H150.588235a26.352941 26.352941 0 0 1-26.142117-23.04l-0.210824-3.312941v-105.953882z m702.735059 26.895059H176.941176v52.705882h650.029177v-52.705882z" fill="#568af2" /></svg>