<svg class="icon" style="width: 1em;height: 1em;vertical-align: middle;fill: currentColor;overflow: hidden;" viewBox="0 0 1024 1024" version="1.1" xmlns="http://www.w3.org/2000/svg" width="32" height="32"><path d="M843.294118 154.352941c14.546824 0 26.352941 11.806118 26.352941 26.352941v114.206118h-202.029177l-3.312941 0.180706a26.352941 26.352941 0 0 0 3.312941 52.525176h202.029177V496.941176c0 58.277647-19.787294 138.119529-59.964235 202.782118-58.096941 93.485176-151.642353 148.600471-282.624 148.600471-131.222588 0-224.768-53.609412-282.50353-145.167059C203.896471 638.795294 184.440471 559.344941 184.440471 496.941176v-149.323294h202.029176l3.312941-0.210823a26.352941 26.352941 0 0 0-3.312941-52.495059H184.470588V180.705882c0-14.546824 11.806118-26.352941 26.352941-26.352941z m0 316.235294c-174.230588 0-285.364706 79.329882-316.235294 241.844706-30.870588-162.514824-142.004706-241.844706-316.235295-241.844706a26.352941 26.352941 0 1 0 0 52.705883c178.537412 0 272.323765 89.088 272.323765 289.882353a26.352941 26.352941 0 0 0 43.91153 19.636705 26.352941 26.352941 0 0 0 43.911529-19.636705c0-200.794353 93.786353-289.882353 272.323765-289.882353a26.352941 26.352941 0 1 0 0-52.705883z" fill="#568af2" /></svg>