<svg class="icon" style="width: 1em;height: 1em;vertical-align: middle;fill: currentColor;overflow: hidden;" viewBox="0 0 1024 1024" version="1.1" xmlns="http://www.w3.org/2000/svg" width="32" height="32"><path d="M774.264471 668.852706v184.470588a26.352941 26.352941 0 0 1-23.04 26.172235l-3.312942 0.180706H256a26.352941 26.352941 0 0 1-26.352941-26.352941v-184.470588h544.617412z m0-140.528941v87.823059H229.647059v-87.823059h544.617412z m79.058823-404.088471c14.576941 0 26.352941 11.806118 26.352941 26.352941v140.559059a26.352941 26.352941 0 0 1-26.352941 26.352941l-79.058823-0.030117v158.117647H229.647059v-158.117647H150.588235a26.352941 26.352941 0 0 1-26.142117-23.04l-0.210824-3.312942V150.588235c0-14.546824 11.806118-26.352941 26.352941-26.352941z m-245.940706 0a26.352941 26.352941 0 0 0-26.352941 26.352941 79.058824 79.058824 0 0 1-158.117647 0 26.352941 26.352941 0 0 0-52.705882 0 131.764706 131.764706 0 0 0 263.529411 0 26.352941 26.352941 0 0 0-26.352941-26.352941z" fill="#568af2" /></svg>