<svg class="icon" style="width: 1em;height: 1em;vertical-align: middle;fill: currentColor;overflow: hidden;" viewBox="0 0 1024 1024" version="1.1" xmlns="http://www.w3.org/2000/svg" width="32" height="32"><path d="M524.559059 124.235294c101.948235 0 164.894118 119.687529 166.851765 316.867765a61.44 61.44 0 0 1 52.736 60.837647v316.235294a61.500235 61.500235 0 0 1-61.470118 61.500235h-316.235294a61.500235 61.500235 0 0 1-61.500236-61.470117v-316.235294c0-31.021176 22.949647-56.651294 52.796236-60.897883l-0.090353 9.456941c0-202.812235 63.337412-326.294588 166.912-326.294588z m0 52.705882c-63.698824 0-112.338824 92.461176-114.145883 263.529412h228.261648v-0.903529c-1.987765-170.465882-50.567529-262.625882-114.145883-262.625883z" fill="#568af2" /></svg>