<svg class="icon" style="width: 1em;height: 1em;vertical-align: middle;fill: currentColor;overflow: hidden;" viewBox="0 0 1024 1024" version="1.1" xmlns="http://www.w3.org/2000/svg" width="32" height="32"><path d="M783.088941 183.687529l1.024 0.963765 87.853177 87.853177a26.352941 26.352941 0 0 1 7.499294 15.179294l0.210823 3.463529V730.352941a26.352941 26.352941 0 0 1-23.04 26.142118l-3.312941 0.210823h-96.617412v96.617412a26.352941 26.352941 0 0 1-23.04 26.172235l-3.312941 0.180706h-202.029176l-0.030118-418.966588 255.186824-238.140235 2.439529-2.620236a26.352941 26.352941 0 0 0-2.831059-36.261647z m-562.416941 0.180706l-1.505882 1.445647A26.352941 26.352941 0 0 0 220.461176 222.569412l255.126589 238.140235v418.966588H273.588706a26.352941 26.352941 0 0 1-26.142118-23.04l-0.210823-3.312941v-96.617412H150.588235a26.352941 26.352941 0 0 1-26.142117-23.04l-0.210824-3.312941V291.147294c0-5.842824 1.927529-11.444706 5.421177-16.022588l2.288941-2.620235L219.798588 184.621176l0.873412-0.783058z m421.827765-59.632941h0.722823a26.352941 26.352941 0 0 0-24.545882 15.119059l-116.736 247.988706-116.675765-247.988706-1.596235-2.891294a26.383059 26.383059 0 0 0-22.949647-12.227765h281.780706z m-290.454589 1.746824l-1.867294 0.752941a26.352941 26.352941 0 0 0-12.619294 35.087059l82.191059 174.682353L256.421647 184.018824l-2.800941-2.258824a26.383059 26.383059 0 0 0-28.702118-1.114353l0.150588-0.060235 2.981648-1.505883 122.970352-52.705882 1.024-0.391529z m299.670589-0.090353l1.174588 0.481882 122.970353 52.705882a26.352941 26.352941 0 0 1-28.340706 4.939295l-163.358118 152.455529 82.191059-174.682353 1.204706-3.072a26.352941 26.352941 0 0 0-15.841882-32.828235z" fill="#568af2" /></svg>