<svg class="icon" style="width: 1em;height: 1em;vertical-align: middle;fill: currentColor;overflow: hidden;" viewBox="0 0 1024 1024" version="1.1" xmlns="http://www.w3.org/2000/svg" width="32" height="32"><path d="M426.676706 124.235294c13.432471 0 24.515765 10.059294 26.142118 23.04l0.210823 3.312941v79.23953l1.686588-0.060236 7.077647-0.12047h105.411765c2.951529 0 5.903059 0.060235 8.824471 0.180706L576 150.588235c0-13.432471 10.059294-24.515765 23.04-26.142117l3.312941-0.210824h105.411765c13.432471 0 24.515765 10.059294 26.142118 23.04l0.210823 3.312941 0.030118 167.243294a200.975059 200.975059 0 0 1 34.996706 106.767059l0.12047 7.077647-0.030117 131.764706h79.088941c13.432471 0 24.515765 10.059294 26.142117 23.070118l0.210824 3.312941v175.676235a26.352941 26.352941 0 0 1-23.070118 26.142118l-3.312941 0.210823H768.903529a96.647529 96.647529 0 0 1-90.774588 87.672471l-5.481412 0.150588h-316.235294a96.647529 96.647529 0 0 1-96.225882-87.823059H180.705882a26.352941 26.352941 0 0 1-26.142117-23.070117l-0.210824-3.312941v-175.676236c0-13.432471 10.059294-24.515765 23.04-26.142117l3.312941-0.210824h79.058824v-131.764706c0-42.224941 12.950588-81.408 35.117176-113.844706V150.588235c0-13.432471 10.059294-24.515765 23.070118-26.142117l3.312941-0.210824h105.411765z m210.823529 333.793882H391.529412l-3.312941 0.210824a26.352941 26.352941 0 0 0 0 52.314353l3.312941 0.180706h166.881882v43.941647l0.210824 3.312941a26.352941 26.352941 0 0 0 52.314353 0l0.210823-3.312941-0.030118-43.941647h26.383059l3.312941-0.180706a26.352941 26.352941 0 0 0-3.312941-52.525177z" fill="#568af2" /></svg>