<svg class="icon" style="width: 1em;height: 1em;vertical-align: middle;fill: currentColor;overflow: hidden;" viewBox="0 0 1024 1024" version="1.1" xmlns="http://www.w3.org/2000/svg" width="32" height="32"><path d="M505.163294 214.799059l3.192471 0.602353 351.382588 87.823059c25.389176 6.324706 26.533647 41.110588 3.463529 50.025411l-3.463529 1.114353-138.179765 34.514824v167.755294c0 9.246118-4.818824 17.769412-12.679529 22.588235-12.288 7.408941-33.430588 18.070588-61.44 28.702118-46.682353 17.679059-95.834353 28.310588-145.468235 28.310588-49.633882 0-98.785882-10.631529-145.498353-28.310588a466.462118 466.462118 0 0 1-42.556236-18.462118l-10.450823-5.421176a218.172235 218.172235 0 0 1-8.432941-4.818824 26.352941 26.352941 0 0 1-12.468706-19.154823l-0.210824-3.403294v-167.785412l-52.705882-13.161412v295.634824H256c13.432471 0 24.515765 10.059294 26.142118 23.070117l0.210823 3.312941v105.411765a26.352941 26.352941 0 0 1-23.04 26.142118l-3.312941 0.210823H150.588235a26.352941 26.352941 0 0 1-26.142117-23.070117l-0.210824-3.312942v-105.411764c0-13.402353 10.059294-24.515765 23.04-26.142118l3.312941-0.180706 26.352941-0.030117V362.526118l-32.737882-8.161883c-25.419294-6.354824-26.563765-41.110588-3.463529-50.055529l3.463529-1.084235L495.555765 215.341176a26.352941 26.352941 0 0 1 9.637647-0.602352zM229.647059 724.028235h-52.705883v52.705883h52.705883v-52.705883z m439.205647-322.017882l-160.527059 40.146823a26.352941 26.352941 0 0 1-9.577412 0.602353l-3.19247-0.602353-160.496941-40.116705v138.902588l0.903529 0.481882c8.673882 4.367059 18.221176 8.764235 28.581647 13.010824l10.601412 4.156235c41.140706 15.600941 84.208941 24.907294 126.795294 24.907294 42.616471 0 85.684706-9.336471 126.855529-24.907294 10.842353-4.096 20.961882-8.432941 30.208-12.8l9.848471-4.848941v-138.932706z" fill="#568af2" /></svg>