<svg class="icon" style="width: 1em;height: 1em;vertical-align: middle;fill: currentColor;overflow: hidden;" viewBox="0 0 1024 1024" version="1.1" xmlns="http://www.w3.org/2000/svg" width="32" height="32"><path d="M637.500235 124.235294c5.812706 0 11.444706 1.927529 16.022589 5.421177l2.590117 2.288941 87.853177 87.853176a26.352941 26.352941 0 0 1 5.722353 8.523294l1.084235 3.252706 123.00047 456.794353a26.352941 26.352941 0 0 1-0.451764 15.179294c-8.071529 24.184471-29.394824 58.036706-69.812706 91.136-65.264941 53.368471-160.135529 84.992-289.008941 84.992s-223.713882-31.623529-288.978824-84.992c-37.918118-31.021176-59.030588-62.704941-68.156235-86.497882l-1.656471-4.638118a26.593882 26.593882 0 0 1-1.325176-7.107764l-0.030118-1.114353c0-0.813176 0-1.626353 0.090353-2.409412l0.240941-1.957647 0.602353-2.590118L278.196706 231.574588a26.352941 26.352941 0 0 1 4.547765-9.185882l2.288941-2.590118L372.856471 131.915294a26.352941 26.352941 0 0 1 15.179294-7.469176L391.529412 124.235294h245.970823z m-239.585882 387.312941a26.352941 26.352941 0 0 0-31.924706 19.154824l-70.294588 281.088-0.602353 3.282823a26.352941 26.352941 0 0 0 51.742118 9.517177l70.26447-281.088 0.602353-3.282824a26.352941 26.352941 0 0 0-19.787294-28.702117z" fill="#568af2" /></svg>