<svg class="icon" style="width: 1em;height: 1em;vertical-align: middle;fill: currentColor;overflow: hidden;" viewBox="0 0 1024 1024" version="1.1" xmlns="http://www.w3.org/2000/svg" width="32" height="32"><path d="M572.235294 124.235294c5.210353 0 10.300235 1.536 14.607059 4.427294l52.705882 35.147294a26.352941 26.352941 0 0 1 9.637647 32.286118l-49.182117 114.688 103.152941 395.354353a26.352941 26.352941 0 0 1-5.421177 23.702588l-2.590117 2.650353-158.117647 140.528941a26.352941 26.352941 0 0 1-34.996706 0l-158.117647-140.528941a26.352941 26.352941 0 0 1-8.011294-26.352941l103.122823-395.354353-49.121882-114.688a26.352941 26.352941 0 0 1 6.866823-30.208l2.710589-2.108235 52.705882-35.117177a26.352941 26.352941 0 0 1 14.637176-4.427294z" fill="#568af2" /></svg>