<svg class="icon" style="width: 1em;height: 1em;vertical-align: middle;fill: currentColor;overflow: hidden;" viewBox="0 0 1024 1024" version="1.1" xmlns="http://www.w3.org/2000/svg" width="32" height="32"><path d="M514.499765 154.352941c149.835294 0 272.323765 43.730824 272.323764 114.206118 0 6.083765-0.903529 11.986824-2.710588 17.679059l-0.783059 4.577882-2.288941 11.836235-10.089412 48.51953-3.222588 16.233411a940.272941 940.272941 0 0 0-1.385412 7.469177l-2.56 14.516706-2.379294 15.179294-1.204706 8.252235c-0.692706 4.848941-1.325176 10.059294-1.957647 15.570824l-1.686588 17.468235c-0.542118 6.113882-1.024 12.498824-1.475765 19.184941a1506.846118 1506.846118 0 0 0-2.499764 52.314353l-0.783059 33.28 4.969412 2.56c15.420235 8.071529 30.840471 17.317647 45.387294 27.708235 44.694588 31.924706 72.523294 67.704471 72.523294 109.296942 0 106.917647-132.939294 184.470588-360.176941 184.470588-227.207529 0-360.146824-77.552941-360.146824-184.470588 0-50.898824 31.442824-88.786824 83.486118-119.506824 9.487059-5.571765 19.395765-10.782118 30.418823-16.082823l8.944942-4.246589-0.090353-7.107764c-0.662588-41.261176-3.072-88.003765-7.04753-120.982589l-1.264941-9.456941c-3.072-21.504-6.023529-38.339765-10.179765-58.970353l-9.366588-44.815059-3.553882-18.221176-0.873412-4.728471a59.090824 59.090824 0 0 1-2.620235-17.52847c0-70.475294 122.458353-114.206118 272.293647-114.206118z m203.535059 192.933647c-49.995294 22.768941-122.789647 35.448471-203.535059 35.448471-80.715294 0-153.509647-12.679529-203.474824-35.418353a800.888471 800.888471 0 0 1 15.570824 115.621647l1.505882 26.202353c1.295059 26.654118 1.927529 54.000941 1.927529 78.064941a26.352941 26.352941 0 0 1-15.299764 23.943529l-19.727059 9.09553-3.885177 1.837176c-9.788235 4.728471-18.401882 9.246118-26.503529 14.034824-37.647059 22.196706-57.554824 46.200471-57.554823 74.089412 0 70.204235 105.502118 131.764706 307.440941 131.764706 201.968941 0 307.471059-61.560471 307.471059-131.764706 0-19.907765-18.311529-43.459765-50.477177-66.409412a315.723294 315.723294 0 0 0-23.100235-14.968471c-14.938353 84.630588-81.92 125.289412-242.657883 125.289412a26.352941 26.352941 0 1 1 0-52.705882l18.31153-0.150589c5.903059-0.120471 11.625412-0.271059 17.167059-0.481882l16.082823-0.783059c5.150118-0.301176 10.149647-0.692706 14.998588-1.114353l13.974589-1.445647c80.775529-9.728 107.459765-37.888 111.977411-91.437176l0.542118-9.155765 0.180706-9.637647 0.301176-24.636235c0-2.710588 0.090353-5.541647 0.150589-8.432941 0.542118-24.696471 1.536-49.423059 3.072-72.58353 0.481882-7.077647 0.993882-13.914353 1.566117-20.449882l1.807059-18.763294c0.692706-5.963294 1.385412-11.625412 2.168471-16.956236l3.764706-24.606117 1.295058-7.619765 2.831059-15.420235z" fill="#568af2" /></svg>