<svg class="icon" style="width: 1em;height: 1em;vertical-align: middle;fill: currentColor;overflow: hidden;" viewBox="0 0 1024 1024" version="1.1" xmlns="http://www.w3.org/2000/svg" width="32" height="32"><path d="M537.871059 124.265412l8.884706 0.090353 16.534588 0.240941 14.968471 0.451765 13.552941 0.662588 12.288 0.903529c34.966588 3.132235 54.211765 10.119529 73.456941 24.847059 9.125647 7.017412 17.287529 15.179294 24.304941 24.335059l4.487529 6.113882c10.511059 15.239529 16.263529 30.539294 19.33553 56.289883l1.084235 10.842353 0.451765 5.933176 0.722823 12.830118 0.542118 14.305882 0.301177 15.932235 0.240941 21.654589 8.673882 1.566117a190.343529 190.343529 0 0 1 31.412706 9.276235l8.041412 3.373177c46.08 20.660706 74.932706 58.940235 74.932706 115.350588v87.823059c0 57.554824-29.997176 96.105412-77.462589 116.464941-13.492706 5.782588-26.804706 9.607529-39.062588 11.986824l-6.475294 1.114353 0.030118 55.41647a79.058824 79.058824 0 0 1-3.794824 157.455059l-4.999529 0.150588H263.529412a79.058824 79.058824 0 0 1-8.764236-157.635764V331.354353l0.361412-27.919059 0.451765-16.655059 0.301176-7.80047 0.813177-14.516706 1.054118-13.251765C262.023529 206.908235 271.841882 184.32 293.345882 162.816c21.473882-21.473882 44.122353-31.322353 88.365177-35.538824l13.251765-1.114352 14.546823-0.783059 15.932235-0.572236 17.408-0.361411 19.034353-0.180706z m182.452706 649.999059H263.529412a26.352941 26.352941 0 0 0-3.312941 52.525176l3.312941 0.180706h456.794353a26.352941 26.352941 0 1 0 0-52.705882z" fill="#568af2" /></svg>