<svg class="icon" style="width: 1em;height: 1em;vertical-align: middle;fill: currentColor;overflow: hidden;" viewBox="0 0 1024 1024" version="1.1" xmlns="http://www.w3.org/2000/svg" width="32" height="32"><path d="M314.608941 446.162824l-2.499765 2.56 236.032 236.062117-80.745411 80.715294a61.500235 61.500235 0 0 1-80.323765 5.812706l-93.635765 93.605647a26.352941 26.352941 0 0 1-34.544941 2.349177l-2.710588-2.349177-124.235294-124.235294a26.352941 26.352941 0 0 1-2.349177-34.575059l2.349177-2.710588 93.605647-93.635765a61.500235 61.500235 0 0 1 2.198588-76.378353l3.614118-3.915294 83.245176-83.305411z m-52.193882 201.33647l-74.571294 74.541177 86.949647 86.949647 74.571294-74.541177-86.949647-86.949647z m475.557647-517.903059l2.710588 2.349177 124.235294 124.235294c9.426824 9.426824 10.209882 24.244706 2.349177 34.575059l-2.349177 2.710588-242.688 242.688c17.016471 22.678588 16.263529 54.452706-2.16847 76.378353l-3.614118 3.915294-31.021176 31.051294-101.195295-101.195294 74.511059-74.511059 26.654118 26.624 49.694118-49.664-86.979765-86.979765-49.694118 49.664 23.070118 23.100236-74.541177 74.541176-97.581176-97.611294 31.051294-31.051294a61.500235 61.500235 0 0 1 80.293647-5.782588l242.688-242.688a26.352941 26.352941 0 0 1 34.575059-2.349177z m-102.912 145.197177l-49.694118 49.694117 86.979765 86.979765 49.694118-49.694118-86.979765-86.979764z m86.979765-86.949647l-49.694118 49.694117 86.979765 86.979765 49.694117-49.694118-86.979764-86.979764z" fill="#568af2" /></svg>