<svg class="icon" style="width: 1em;height: 1em;vertical-align: middle;fill: currentColor;overflow: hidden;" viewBox="0 0 1024 1024" version="1.1" xmlns="http://www.w3.org/2000/svg" width="32" height="32"><path d="M614.912 124.235294c4.457412 0 8.884706 1.144471 12.8 3.312941l158.117647 87.853177c6.234353 3.463529 10.812235 9.336471 12.649412 16.263529l70.26447 263.529412c0.602353 2.198588 0.903529 4.487529 0.90353 6.776471v228.382117a26.352941 26.352941 0 0 1-26.352941 26.352941h-114.206118v96.617412a26.352941 26.352941 0 0 1-23.04 26.172235l-3.312941 0.180706H351.382588a26.352941 26.352941 0 0 1-26.352941-26.352941l-0.030118-96.617412H210.823529a26.352941 26.352941 0 0 1-26.142117-23.04l-0.210824-3.312941v-228.382117c0-2.831059 0.451765-5.662118 1.355294-8.342589l87.853177-263.529411a26.352941 26.352941 0 0 1 11.023059-14.004706l140.559058-87.853177c4.186353-2.620235 9.035294-4.005647 13.944471-4.005647z m87.823059 421.647059a26.352941 26.352941 0 0 0-26.352941 26.352941v158.117647l0.210823 3.312941a26.352941 26.352941 0 0 0 52.495059-3.312941V572.235294l-0.180706-3.312941a26.352941 26.352941 0 0 0-26.172235-23.04z m-351.352471 0a26.352941 26.352941 0 0 0-26.352941 26.352941v158.117647l0.180706 3.312941a26.352941 26.352941 0 0 0 52.525176-3.312941V572.235294l-0.210823-3.312941a26.352941 26.352941 0 0 0-26.142118-23.04z" fill="#568af2" /></svg>