<svg class="icon" style="width: 1em;height: 1em;vertical-align: middle;fill: currentColor;overflow: hidden;" viewBox="0 0 1024 1024" version="1.1" xmlns="http://www.w3.org/2000/svg" width="32" height="32"><path d="M652.559059 133.029647a26.352941 26.352941 0 0 1 3.312941 52.495059l-3.312941 0.210823h-45.44753a26.202353 26.202353 0 0 1 1.325177 5.481412l0.180706 3.312941v79.028706h43.941647c51.501176 0 93.635765 40.357647 96.466823 91.166118l0.150589 5.481412v351.35247c0 51.531294-40.357647 93.665882-91.136 96.496941l-5.481412 0.150589-8.794353-0.030118v43.941647a26.352941 26.352941 0 0 1-52.495059 3.312941l-0.210823-3.312941v-43.971765h-158.117648v43.971765a26.352941 26.352941 0 0 1-52.495058 3.312941l-0.210824-3.312941v-43.971765l-8.794353 0.060236A96.617412 96.617412 0 0 1 274.974118 727.04l-0.150589-5.481412V370.206118c0-51.531294 40.357647-93.665882 91.136-96.496942l5.481412-0.150588h43.91153V194.499765c0-3.072 0.542118-6.023529 1.505882-8.764236h-45.417412a26.352941 26.352941 0 0 1-3.312941-52.525176l3.312941-0.180706h281.118118z m-70.294588 368.941177h-140.528942l-3.312941 0.180705a26.352941 26.352941 0 0 0 0 52.314353l3.312941 0.210824h140.528942l3.312941-0.210824a26.352941 26.352941 0 0 0-3.312941-52.495058z m-24.847059-316.235295h-90.834824a26.202353 26.202353 0 0 1 1.295059 5.481412l0.210824 3.312941-0.030118 79.028706h87.853176V194.499765c0-3.072 0.542118-6.023529 1.505883-8.764236z" fill="#568af2" /></svg>