<svg class="icon" style="width: 1em;height: 1em;vertical-align: middle;fill: currentColor;overflow: hidden;" viewBox="0 0 1024 1024" version="1.1" xmlns="http://www.w3.org/2000/svg" width="32" height="32"><path d="M501.970824 274.823529a202.029176 202.029176 0 0 1 201.908705 194.95153l0.060236 3.403294c107.339294 25.027765 175.736471 68.969412 175.73647 127.247059 0 64.963765-88.847059 113.844706-216.967529 135.860706l-18.582588 2.981647c-6.264471 0.903529-12.649412 1.776941-19.064471 2.590117l-19.516235 2.198589-19.968 1.807058-20.389647 1.445647-20.751059 1.024a1074.356706 1074.356706 0 0 1-84.961882 0l-20.751059-1.024-20.35953-1.415529-19.968-1.837176-19.546353-2.198589a845.552941 845.552941 0 0 1-19.06447-2.590117l-18.552471-2.981647a751.616 751.616 0 0 1-9.095529-1.596236l-17.769412-3.523764c-113.483294-23.973647-190.132706-70.415059-190.132706-130.710589 0-58.307765 68.397176-102.249412 175.736471-127.277176l-0.060236 3.674353a202.029176 202.029176 0 0 1 202.059295-202.029177z m-42.917648 142.456471a26.352941 26.352941 0 0 0-34.273882 14.667294l-35.117176 87.823059-1.054118 3.162353a26.352941 26.352941 0 0 0 49.995294 16.414118l35.117177-87.823059 1.054117-3.162353a26.352941 26.352941 0 0 0-15.721412-31.11153z" fill="#568af2" /></svg>