<svg class="icon" style="width: 1em;height: 1em;vertical-align: middle;fill: currentColor;overflow: hidden;" viewBox="0 0 1024 1024" version="1.1" xmlns="http://www.w3.org/2000/svg" width="32" height="32"><path d="M773.330824 421.647059l104.357647 253.500235a26.352941 26.352941 0 0 1-7.920942 30.629647l-2.861176 1.987765-263.529412 158.117647a26.352941 26.352941 0 0 1-33.822117-5.722353l-67.614118-81.136941-67.584 81.136941a26.352941 26.352941 0 0 1-30.689882 7.318588l-3.102118-1.596235-263.529412-158.117647a26.352941 26.352941 0 0 1-10.842353-32.617412L230.610824 421.647059h542.72zM730.352941 184.470588c14.546824 0 26.352941 11.806118 26.352941 26.352941v140.528942H247.205647V210.823529c0-12.318118 8.432941-22.648471 19.877647-25.539764l3.192471-0.602353 3.312941-0.210824z" fill="#568af2" /></svg>