<svg class="icon" style="width: 1em;height: 1em;vertical-align: middle;fill: currentColor;overflow: hidden;" viewBox="0 0 1024 1024" version="1.1" xmlns="http://www.w3.org/2000/svg" width="32" height="32"><path d="M501.970824 365.176471c32.557176 0 60.446118 19.787294 78.486588 48.850823a140.619294 140.619294 0 0 1 224.496941 74.089412l48.368941 0.030118a26.352941 26.352941 0 0 1 3.312941 52.525176l-3.312941 0.180706H808.357647a140.589176 140.589176 0 1 1-264.493176-81.829647c-8.643765-24.244706-25.871059-41.140706-41.86353-41.140706-16.022588 0-33.219765 16.865882-41.923765 41.110588a140.559059 140.559059 0 1 1-264.432941 81.889883H150.588235a26.352941 26.352941 0 0 1-3.312941-52.525177l3.312941-0.210823h48.338824a140.619294 140.619294 0 0 1 224.557176-74.089412c18.010353-29.093647 45.899294-48.880941 78.486589-48.880941z" fill="#568af2" /></svg>