<svg class="icon" style="width: 1em;height: 1em;vertical-align: middle;fill: currentColor;overflow: hidden;" viewBox="0 0 1024 1024" version="1.1" xmlns="http://www.w3.org/2000/svg" width="32" height="32"><path d="M617.411765 124.235294c10.872471 0 20.510118 6.656 24.455529 16.564706l1.114353 3.403294 35.147294 140.528941 0.783059 6.415059-0.030118 207.721412 69.451294 295.152941 0.060236 0.210824a26.593882 26.593882 0 0 1-0.39153 14.155294l-0.602353 1.746823a26.443294 26.443294 0 0 1-13.43247 14.366118l-1.626353 0.692706-3.041882 0.963764-0.090353 0.030118-190.85553 47.706353V361.411765l-0.210823-3.312941a26.352941 26.352941 0 0 0-52.495059 3.312941v512.512l-190.85553-47.736471a26.503529 26.503529 0 0 1-16.143058-11.89647 26.262588 26.262588 0 0 1-3.704471-16.203295l0.180706-1.174588-0.150588 0.813177a26.443294 26.443294 0 0 1 0.240941-1.596236l0.301176-1.536 69.571765-295.725176V291.147294l0.783059-6.415059 35.147294-140.528941a26.352941 26.352941 0 0 1 21.985882-19.727059l3.584-0.240941h210.82353z" fill="#568af2" /></svg>