<svg class="icon" style="width: 1em;height: 1em;vertical-align: middle;fill: currentColor;overflow: hidden;" viewBox="0 0 1024 1024" version="1.1" xmlns="http://www.w3.org/2000/svg" width="32" height="32"><path d="M389.782588 125.108706c-11.264 3.011765-19.576471 13.251765-19.57647 25.479529a131.764706 131.764706 0 0 0 263.529411 0c0-12.107294-8.161882-22.287059-19.275294-25.389176l8.011294 2.138353c6.686118 1.867294 14.125176 4.065882 22.106353 6.565647a639.698824 639.698824 0 0 1 67.192471 25.148235c28.400941 12.619294 52.314353 26.352941 70.595765 41.562353 56.470588 47.073882 94.087529 112.007529 97.129411 170.767059l0.180706 7.589647V730.352941a26.352941 26.352941 0 0 1-23.04 26.142118l-3.312941 0.210823h-96.617412v96.617412a26.352941 26.352941 0 0 1-23.04 26.172235l-3.312941 0.180706H273.558588a26.352941 26.352941 0 0 1-26.142117-23.04l-0.210824-3.312941v-96.617412H150.588235a26.352941 26.352941 0 0 1-26.142117-23.04l-0.210824-3.312941V378.970353c0-60.687059 38.4-129.234824 97.340235-178.356706 18.251294-15.209412 42.164706-28.943059 70.565647-41.562353a639.698824 639.698824 0 0 1 67.222589-25.148235l15.149176-4.577883 14.155294-3.915294z m217.6-0.873412a26.352941 26.352941 0 0 0-26.352941 26.352941 79.058824 79.058824 0 0 1-158.117647 0 26.352941 26.352941 0 0 0-26.352941-26.352941z" fill="#568af2" /></svg>