<svg class="icon" style="width: 1em;height: 1em;vertical-align: middle;fill: currentColor;overflow: hidden;" viewBox="0 0 1024 1024" version="1.1" xmlns="http://www.w3.org/2000/svg" width="32" height="32"><path d="M685.176471 124.235294c13.432471 0 24.515765 10.059294 26.142117 23.04l0.210824 3.312941v98.936471a149.383529 149.383529 0 0 1-26.352941 296.357647 149.383529 149.383529 0 0 1-147.004236-123.000471h-57.344a149.383529 149.383529 0 0 1-296.357647-26.322823 149.383529 149.383529 0 0 1 123.000471-147.034353V150.588235a26.352941 26.352941 0 0 1 52.495059-3.312941l0.180706 3.312941 0.030117 98.936471a149.473882 149.473882 0 0 1 120.651294 120.651294h57.344a149.473882 149.473882 0 0 1 120.651294-120.651294V150.588235c0-14.546824 11.806118-26.352941 26.352942-26.352941z m35.147294 474.352941h-421.647059a26.352941 26.352941 0 0 0-26.352941 26.352941v87.853177c0 14.546824 11.776 26.352941 26.352941 26.352941 56.380235 0 131.764706 55.265882 131.764706 114.176 0 14.576941 11.776 26.352941 26.352941 26.352941h87.823059a26.352941 26.352941 0 0 0 26.352941-26.352941c0-56.832 88.636235-114.176 149.353412-114.176a26.352941 26.352941 0 0 0 26.352941-26.352941V624.941176a26.352941 26.352941 0 0 0-26.352941-26.352941z" fill="#568af2" /></svg>