<svg class="icon" style="width: 1em;height: 1em;vertical-align: middle;fill: currentColor;overflow: hidden;" viewBox="0 0 1024 1024" version="1.1" xmlns="http://www.w3.org/2000/svg" width="32" height="32"><path d="M677.647059 214.588235c47.435294 0 92.912941 60.837647 124.385882 156.009412l5.240471 16.624941c8.523294 28.280471 15.841882 59.241412 21.684706 92.250353l3.312941 20.028235 1.536 10.209883 2.770823 20.720941c5.150118 41.893647 7.981176 86.317176 7.981177 132.156235a26.352941 26.352941 0 0 1-52.705883 0c0-118.392471-18.221176-222.629647-48.700235-299.971764-23.732706-60.295529-52.675765-95.322353-65.505882-95.322353-12.047059 0-31.322353 15.420235-51.380706 42.164706-7.981176 10.631529-15.480471 22.166588-22.196706 33.701647l-4.246588 7.439058-4.005647 7.529412a26.352941 26.352941 0 0 1-20.299294 14.366118l-3.282824 0.210823h-140.559059a26.352941 26.352941 0 0 1-23.552-14.576941l-4.035764-7.529412-4.216471-7.439058a353.430588 353.430588 0 0 0-22.196706-33.701647c-20.058353-26.744471-39.363765-42.164706-51.410823-42.164706-12.830118 0-41.773176 35.026824-65.505883 95.292235C230.279529 440.018824 212.088471 544.225882 212.088471 662.588235a26.352941 26.352941 0 1 1-52.705883 0c0-49.694118 3.312941-97.641412 9.306353-142.576941l2.95153-20.48c2.620235-16.926118 5.632-33.340235 8.975058-49.212235l4.186353-18.733177c30.448941-129.355294 84.540235-216.997647 141.462589-216.997647 34.063059 0 64.210824 24.094118 93.575529 63.247059 6.957176 9.336471 13.552941 19.064471 19.636706 28.912941l5.903059 9.848471 1.957647 3.403294h109.206588l1.987765-3.403294c5.752471-9.878588 12.047059-19.757176 18.733176-29.304471l6.836706-9.456941c29.364706-39.152941 59.482353-63.247059 93.545412-63.247059z" fill="#568af2" /><path d="M818.206118 636.235294c33.942588 0 61.470118 27.527529 61.470117 61.500235V768a61.500235 61.500235 0 0 1-61.470117 61.500235h-632.470589A61.500235 61.500235 0 0 1 124.235294 768v-70.264471c0-33.972706 27.527529-61.500235 61.500235-61.500235z m0 52.705882h-632.470589a8.794353 8.794353 0 0 0-8.794353 8.794353V768c0 4.848941 3.915294 8.794353 8.794353 8.794353h632.470589c4.818824 0 8.764235-3.915294 8.764235-8.794353v-70.264471a8.794353 8.794353 0 0 0-8.764235-8.794353zM185.735529 636.235294L234.616471 354.484706l69.571764-110.441412 99.478589 45.748706 36.442352 51.049412 49.754353 13.643294h64.993883l12.589176-23.792941c35.237647-38.490353 55.717647-57.705412 61.470118-57.705412 8.643765 0 43.008-20.389647 43.008-20.389647l70.083765 20.389647 20.570353 67.855059 35.809882 99.297882 16.564706 122.307765v73.788235H185.735529z" fill="#568af2" /></svg>