<svg class="icon" style="width: 1em;height: 1em;vertical-align: middle;fill: currentColor;overflow: hidden;" viewBox="0 0 1024 1024" version="1.1" xmlns="http://www.w3.org/2000/svg" width="32" height="32"><path d="M619.911529 124.235294h-210.823529a26.352941 26.352941 0 0 0-12.8 3.312941l-158.117647 87.853177a26.352941 26.352941 0 0 0-12.649412 16.263529l-70.26447 263.529412-0.692706 3.463529c-1.204706 9.306353 2.710588 18.672941 10.330353 24.395294l129.987764 97.460706v232.809412c0 14.576941 11.806118 26.352941 26.383059 26.352941H707.764706l3.312941-0.180706a26.352941 26.352941 0 0 0 23.04-26.172235v-232.809412l130.017882-97.460706a26.352941 26.352941 0 0 0 9.637647-27.888941l-70.26447-263.529411a26.352941 26.352941 0 0 0-12.649412-16.26353l-158.117647-87.823059a26.352941 26.352941 0 0 0-12.830118-3.312941z" fill="#568af2" /><path d="M321.264941 475.617882c13.432471 0 24.515765 10.029176 26.142118 23.04l0.210823 3.312942v122.970352a26.352941 26.352941 0 0 1-52.525176 3.312942l-0.180706-3.312942v-122.970352c0-14.576941 11.776-26.352941 26.352941-26.352942zM707.764706 475.617882c13.432471 0 24.515765 10.029176 26.142118 23.04l0.210823 3.312942v122.970352a26.352941 26.352941 0 0 1-52.495059 3.312942l-0.210823-3.312942v-122.970352c0-14.576941 11.806118-26.352941 26.352941-26.352942z" fill="#568af2" /></svg>