<svg class="icon" style="width: 1em;height: 1em;vertical-align: middle;fill: currentColor;overflow: hidden;" viewBox="0 0 1024 1024" version="1.1" xmlns="http://www.w3.org/2000/svg" width="32" height="32"><path d="M874.044235 402.793412l-0.451764 0.602353-351.262118 421.49647a26.112 26.112 0 0 0 2.891294-4.367059l0.512-0.963764 0.180706-0.451765a26.503529 26.503529 0 0 0 0.813176-1.987765l0.240942-0.63247 134.535529-403.636706h191.849412l3.312941-0.180706c7.017412-0.903529 13.191529-4.547765 17.377882-9.878588zM129.746824 402.672941c4.818824 6.234353 12.348235 10.24 20.841411 10.24l191.789177-0.030117 134.595764 403.636705 0.481883 1.355295a26.503529 26.503529 0 0 0 0.421647 0.993882l0.301176 0.722823a26.322824 26.322824 0 0 0 3.011765 4.848942l0.391529 0.481882L130.349176 403.365647z m476.190117 10.209883l-103.996235 311.958588-103.966118-311.958588h207.962353z m106.857412-228.382118c6.866824 0 13.402353 2.680471 18.281412 7.378823l2.288941 2.499765 70.234353 87.823059 0.030117 0.030118 70.294589 87.853176 0.481882 0.602353a26.322824 26.322824 0 0 0-21.082353-10.511059H150.588235l-3.312941 0.210824a26.322824 26.322824 0 0 0-17.799529 10.390588l0.542117-0.692706 140.528942-175.706353a26.352941 26.352941 0 0 1 17.167058-9.637647l3.433412-0.240941h421.647059z" fill="#568af2" /></svg>