<svg class="icon" style="width: 1em;height: 1em;vertical-align: middle;fill: currentColor;overflow: hidden;" viewBox="0 0 1024 1024" version="1.1" xmlns="http://www.w3.org/2000/svg" width="32" height="32"><path d="M421.647059 124.235294c14.546824 0 26.352941 11.806118 26.352941 26.352941a79.058824 79.058824 0 0 0 158.117647 0l0.210824-3.312941A26.352941 26.352941 0 0 1 632.470588 124.235294h52.705883c33.701647 0 61.138824 27.105882 62.042353 60.747294l0.662588 20.720941 0.903529 19.937883 1.114353 19.034353 1.355294 17.980235 1.566118 16.745412c2.56 24.124235 5.903059 43.610353 10.059294 56.109176 8.764235 26.292706 43.459765 64.722824 84.781176 100.562824 13.854118 12.016941 21.985882 29.334588 21.985883 47.646117v334.486589a61.500235 61.500235 0 0 1-61.500235 61.470117H245.970824a61.500235 61.500235 0 0 1-61.500236-61.470117V483.689412c0-18.311529 8.131765-35.629176 21.985883-47.646118 41.321412-35.84 76.016941-74.270118 84.781176-100.562823 4.156235-12.498824 7.499294-31.984941 10.059294-56.109177l1.566118-16.745412 1.355294-17.980235 1.114353-19.034353 0.903529-19.937882 0.662589-20.720941a62.283294 62.283294 0 0 1 62.042352-60.747295z m263.529412 351.382588h-105.411765l-3.312941 0.180706a26.352941 26.352941 0 0 0-23.04 26.172236v210.823529l0.210823 3.312941a26.352941 26.352941 0 0 0 26.142118 23.04h105.411765l3.312941-0.210823a26.352941 26.352941 0 0 0 23.04-26.142118v-210.823529l-0.210824-3.312942a26.352941 26.352941 0 0 0-26.142117-23.04z m-210.82353 0h-105.411765l-3.312941 0.180706a26.352941 26.352941 0 0 0-23.04 26.172236l0.210824 3.312941a26.352941 26.352941 0 0 0 26.142117 23.04l79.058824-0.030118v52.705882H368.941176l-3.312941 0.210824a26.352941 26.352941 0 0 0 3.312941 52.525176h79.058824v52.675765H368.941176l-3.312941 0.210824a26.352941 26.352941 0 0 0 3.312941 52.525176h105.411765l3.312941-0.210823a26.352941 26.352941 0 0 0 23.04-26.142118v-210.823529l-0.210823-3.312942a26.352941 26.352941 0 0 0-26.142118-23.04z m184.470588 52.675765v158.117647h-52.705882v-158.117647h52.705882z" fill="#568af2" /></svg>