<svg class="icon" style="width: 1em;height: 1em;vertical-align: middle;fill: currentColor;overflow: hidden;" viewBox="0 0 1024 1024" version="1.1" xmlns="http://www.w3.org/2000/svg" width="32" height="32"><path d="M473.871059 313.946353a26.352941 26.352941 0 0 1 30.569412-6.716235l53.88047 24.274823 235.459765 107.218824 3.734588 1.987764a26.352941 26.352941 0 0 1 12.408471 22.347295v122.970352h43.399529c13.432471 0 24.545882 10.059294 26.172235 23.070118l0.180706 3.312941v105.411765a26.352941 26.352941 0 0 1-23.04 26.142118l-3.312941 0.180706H150.588235a26.352941 26.352941 0 0 1-26.142117-23.04l-0.210824-3.312942v-105.411764c0-13.432471 10.059294-24.515765 23.04-26.142118l3.312941-0.210824h255.36753l0.301176-18.974117 0.512-19.757177 0.39153-9.33647 1.054117-17.950118c0.602353-8.794353 1.355294-17.347765 2.288941-25.901176l2.078118-17.257412 1.204706-8.824471c9.577412-65.505882 28.310588-117.76 60.084706-154.081882z m353.099294 324.788706H176.941176v52.705882h650.029177v-52.705882z" fill="#568af2" /></svg>