<svg class="icon" style="width: 1em;height: 1em;vertical-align: middle;fill: currentColor;overflow: hidden;" viewBox="0 0 1024 1024" version="1.1" xmlns="http://www.w3.org/2000/svg" width="32" height="32"><path d="M421.647059 154.352941h-95.834353a26.352941 26.352941 0 0 0-21.925647 11.745883l-114.989177 172.483764-1.807058 3.102118a26.352941 26.352941 0 0 0 6.595764 31.533176l91.376941 78.336V813.176471c0 14.546824 11.836235 26.352941 26.383059 26.352941h431.224471l3.312941-0.210824a26.352941 26.352941 0 0 0 23.04-26.142117V451.553882l91.407059-78.336a26.352941 26.352941 0 0 0 4.788706-34.635294L750.230588 166.098824a26.352941 26.352941 0 0 0-21.925647-11.745883H632.470588a26.352941 26.352941 0 0 0-26.142117 23.04l-0.210824 3.312941a79.058824 79.058824 0 0 1-158.117647 0A26.352941 26.352941 0 0 0 421.647059 154.352941z" fill="#568af2" /></svg>