<svg class="icon" style="width: 1em;height: 1em;vertical-align: middle;fill: currentColor;overflow: hidden;" viewBox="0 0 1024 1024" version="1.1" xmlns="http://www.w3.org/2000/svg" width="32" height="32"><path d="M501.970824 124.235294c13.432471 0 24.515765 10.059294 26.142117 23.04l0.210824 3.312941v702.735059a26.352941 26.352941 0 0 1-52.525177 3.312941l-0.180706-3.312941V150.588235c0-14.546824 11.776-26.352941 26.352942-26.352941z" fill="#568af2" /><path d="M626.688 129.505882a26.352941 26.352941 0 0 1 34.334118 39.81553l-2.710589 2.349176-140.528941 105.411765a26.352941 26.352941 0 0 1-34.334117-39.815529l2.710588-2.349177 140.528941-105.411765zM340.329412 222.629647a26.352941 26.352941 0 0 1 33.882353-7.228235l3.011764 1.957647 140.559059 105.411765a26.352941 26.352941 0 0 1-28.611764 44.122352l-3.011765-1.957647-140.559059-105.411764a26.352941 26.352941 0 0 1-5.270588-36.894118zM340.329412 415.864471a26.352941 26.352941 0 0 1 33.882353-7.228236l3.011764 1.957647 140.559059 105.411765a26.352941 26.352941 0 0 1-28.611764 44.122353l-3.011765-1.957647-140.559059-105.411765a26.352941 26.352941 0 0 1-5.270588-36.894117zM626.688 322.770824a26.352941 26.352941 0 0 1 34.334118 39.815529l-2.710589 2.349176-140.528941 105.411765a26.352941 26.352941 0 0 1-34.334117-39.845647l2.710588-2.319059 140.528941-105.411764zM607.382588 826.970353a26.352941 26.352941 0 0 1 3.312941 52.525176l-3.312941 0.180706h-210.823529a26.352941 26.352941 0 0 1-3.312941-52.495059l3.312941-0.210823h210.823529z" fill="#568af2" /></svg>