<svg class="icon" style="width: 1em;height: 1em;vertical-align: middle;fill: currentColor;overflow: hidden;" viewBox="0 0 1024 1024" version="1.1" xmlns="http://www.w3.org/2000/svg" width="32" height="32"><path d="M641.234824 495.405176l181.458823 345.690353a26.383059 26.383059 0 0 1-16.655059 37.76753l-3.252706 0.602353-3.403294 0.210823H210.823529a26.352941 26.352941 0 0 1-24.485647-36.080941l1.385412-2.951529 189.982118-345.509647v-92.431059l-67.46353-134.927059a26.383059 26.383059 0 0 1 16.956236-37.315765l3.222588-0.602353 3.373176-0.210823h79.058824V150.588235a26.352941 26.352941 0 0 1 52.525176-3.312941l0.180706 3.312941v79.058824h87.853177V150.588235a26.352941 26.352941 0 0 1 52.495059-3.312941l0.210823 3.312941v79.058824h79.058824a26.352941 26.352941 0 0 1 24.907294 35.026823l-1.325177 3.102118-67.523764 134.987294v92.641882z m-52.705883-19.817411v-52.705883h-158.117647v52.705883h158.117647z" fill="#568af2" /></svg>