<svg class="icon" style="width: 1em;height: 1em;vertical-align: middle;fill: currentColor;overflow: hidden;" viewBox="0 0 1024 1024" version="1.1" xmlns="http://www.w3.org/2000/svg" width="32" height="32"><path d="M614.912 124.235294a79.058824 79.058824 0 0 1 79.058824 79.058824v70.26447a79.058824 79.058824 0 0 1-79.058824 79.058824h-175.706353a79.058824 79.058824 0 0 1-79.058823-79.058824V203.294118a79.058824 79.058824 0 0 1 79.058823-79.058824zM527.058824 220.852706a17.558588 17.558588 0 1 0 0 35.147294 17.558588 17.558588 0 0 0 0-35.147294z m105.411764 184.470588a237.176471 237.176471 0 0 1 0 474.352941h-210.823529a237.206588 237.206588 0 0 1-235.760941-211.124706 26.352941 26.352941 0 0 0 45.658353 7.800471l3.072-3.584c41.351529-44.423529 167.815529-44.032 284.099764-5.270588l22.829177 7.649882 33.490823 11.053177 18.160941 5.662117 16.805648 4.969412 8.071529 2.228706 15.811765 4.156235c104.448 26.112 180.464941 17.648941 229.978353-44.272941a26.352941 26.352941 0 1 0-41.140706-32.888471c-33.129412 41.411765-89.509647 47.676235-176.067765 26.021647l-7.348706-1.897411-15.088941-4.126118-15.992471-4.698353-17.347764-5.421176a1994.089412 1994.089412 0 0 1-19.245177-6.294589l-45.718588-15.209411c-136.101647-43.128471-280.606118-40.809412-335.811765 29.364706a26.232471 26.232471 0 0 0-5.300706 12.047058A237.176471 237.176471 0 0 1 421.647059 405.323294z" fill="#568af2" /></svg>