<svg class="icon" style="width: 1em;height: 1em;vertical-align: middle;fill: currentColor;overflow: hidden;" viewBox="0 0 1024 1024" version="1.1" xmlns="http://www.w3.org/2000/svg" width="32" height="32"><path d="M753.332706 157.304471a26.352941 26.352941 0 0 1 37.165176 15.058823l0.873412 2.56 3.885177 10.63153 5.722353 14.486588c8.553412 21.052235 18.371765 42.074353 29.214117 61.56047 13.552941 24.395294 27.648 44.453647 41.773177 58.578824a26.383059 26.383059 0 0 1-21.534118-7.529412l-7.168 0.933647-8.854588 1.505883-10.450824 2.16847-11.836235 2.800941-6.445177 1.656471c-32.737882 8.734118-65.475765 21.594353-96.256 39.454118-45.116235 26.112-82.010353 60.777412-107.369411 105.110588-20.540235 35.990588-36.412235 80.173176-48.308706 130.770823-11.143529 47.405176-18.311529 97.912471-22.287059 148.419765-1.355294 17.618824-2.258824 34.032941-2.740706 48.790588l-0.391529 18.913883c0 14.546824 11.776 26.352941 26.352941 26.352941h-105.411765l3.312941-0.210824a26.352941 26.352941 0 0 0 23.04-26.142117l-0.180706-10.842353-0.662588-19.456a1127.785412 1127.785412 0 0 0-2.349176-37.406118c-3.945412-50.507294-11.083294-101.014588-22.226824-148.419765-11.926588-50.597647-27.768471-94.780235-48.338823-130.740706-25.328941-44.363294-62.223059-79.028706-107.369412-105.170823a395.896471 395.896471 0 0 0-102.701177-41.080471l-11.836235-2.800941-10.420706-2.138353-8.854588-1.505882-7.168-0.993883-3.312941-0.150588a26.322824 26.322824 0 0 0-18.672941 8.131765l0.421647-0.421647c10.24-10.24 19.666824-21.293176 28.310588-33.069177A326.475294 326.475294 0 0 0 206.004706 198.475294l3.072-9.487059 2.138353-7.710117 1.355294-5.722353a26.352941 26.352941 0 0 1 40.96-16.444236l1.144471 0.783059 6.113882 3.644236 6.324706 3.433411c12.619294 6.625882 27.888941 13.312 45.869176 19.606589 52.163765 18.251294 115.109647 29.274353 188.958118 29.274352s136.794353-11.023059 188.928-29.274352a342.768941 342.768941 0 0 0 49.27247-21.38353l5.421177-3.072z m126.283294 180.705882l0.060235 0.813176c0 37.104941-8.252235 76.438588-23.792941 117.63953-26.051765 68.939294-71.710118 141.432471-131.403294 215.190588a1496.545882 1496.545882 0 0 1-104.508235 115.681882l-14.516706 14.336-6.927059 6.686118-13.040941 12.348235-13.372235 12.227765a26.383059 26.383059 0 0 1 8.914823-19.757176l0.150588-9.697883 0.632471-18.251294c0.512-11.083294 1.204706-23.009882 2.228706-35.659294 3.764706-47.977412 10.541176-95.954824 20.992-140.438588 10.842353-46.08 25.057882-85.654588 42.767059-116.675765 20.389647-35.659294 50.507294-63.939765 88.064-85.714823 26.413176-15.299765 54.904471-26.473412 83.425882-34.093177 9.968941-2.650353 19.215059-4.698353 27.407059-6.144l12.8-2.048a26.352941 26.352941 0 0 0 20.028235-28.551529l0.090353 2.108235z m-755.350588-0.391529a26.352941 26.352941 0 0 0 23.401412 27.407058l4.547764 0.602353 11.324236 2.078118c6.535529 1.295059 13.613176 2.951529 21.082352 4.939294 28.521412 7.619765 57.042824 18.793412 83.425883 34.093177 37.556706 21.775059 67.674353 50.055529 88.064 85.714823 17.709176 31.021176 31.924706 70.595765 42.767059 116.675765 10.480941 44.483765 17.257412 92.461176 21.022117 140.438588 1.325176 16.865882 2.168471 32.466824 2.620236 46.441412l0.391529 17.167059c0 8.071529 3.614118 15.299765 9.336471 20.118588l-0.421647-0.361412-19.787295-18.221176-13.552941-13.040942-14.546823-14.336a1496.545882 1496.545882 0 0 1-104.508236-115.681882c-59.693176-73.758118-105.321412-146.251294-131.373176-215.190588-15.570824-41.200941-23.823059-80.534588-23.823059-117.63953z" fill="#568af2" /></svg>