<svg class="icon" style="width: 1em;height: 1em;vertical-align: middle;fill: currentColor;overflow: hidden;" viewBox="0 0 1024 1024" version="1.1" xmlns="http://www.w3.org/2000/svg" width="32" height="32"><path d="M740.382118 124.235294c15.872 0 28.129882 13.884235 26.172235 29.635765L698.578824 697.524706l5.029647 2.529882a114.206118 114.206118 0 0 1 62.945882 95.683765l0.180706 6.445176v51.109647a26.352941 26.352941 0 0 1-26.352941 26.352942H301.176471a26.352941 26.352941 0 0 1-26.352942-26.352942v-35.117176c0-10.300235 5.963294-19.636706 15.299765-23.943529l210.913882-97.340236-67.885176-543.051294a26.352941 26.352941 0 0 1 23.009882-29.455059l3.132236-0.180706zM722.823529 264.794353h-245.970823l-3.312941 0.180706a26.352941 26.352941 0 0 0 3.312941 52.525176H722.823529l3.312942-0.210823A26.352941 26.352941 0 0 0 722.823529 264.794353z" fill="#568af2" /></svg>