<svg class="icon" style="width: 1em;height: 1em;vertical-align: middle;fill: currentColor;overflow: hidden;" viewBox="0 0 1024 1024" version="1.1" xmlns="http://www.w3.org/2000/svg" width="32" height="32"><path d="M509.500235 124.235294c111.134118 0 203.715765 76.107294 217.750589 175.706353h45.778823c32.406588 0 58.970353 25.057882 61.319529 56.892235l0.150589 4.577883v210.823529c0 30.991059-22.889412 56.621176-52.705883 60.867765v220.220235a26.352941 26.352941 0 0 1-23.04 26.172235l-3.312941 0.180706H263.529412a26.352941 26.352941 0 0 1-26.142118-23.04l-0.210823-3.312941v-220.220235a61.500235 61.500235 0 0 1-52.525177-56.289883L184.470588 572.235294v-210.823529c0-32.406588 25.088-58.970353 56.922353-61.31953l4.577883-0.180706h45.778823c14.004706-99.568941 106.616471-175.676235 217.750588-175.676235z m70.264471 386.499765h-140.559059a26.352941 26.352941 0 0 0-26.352941 26.352941v105.411765c0 14.576941 11.806118 26.352941 26.352941 26.352941h140.559059a26.352941 26.352941 0 0 0 26.352941-26.352941v-105.411765a26.352941 26.352941 0 0 0-26.352941-26.352941zM509.500235 176.941176c-82.552471 0-150.407529 53.458824-164.321882 122.970353h328.583529c-13.854118-69.511529-81.739294-122.970353-164.261647-122.970353z" fill="#568af2" /></svg>