<svg class="icon" style="width: 1em;height: 1em;vertical-align: middle;fill: currentColor;overflow: hidden;" viewBox="0 0 1024 1024" version="1.1" xmlns="http://www.w3.org/2000/svg" width="32" height="32"><path d="M825.916235 275.245176c41.050353-5.12 71.529412 35.358118 55.657412 74.450824l-2.198588 5.330824-4.668235 10.902588-5.360942 11.89647-19.034353 41.110589-5.089882 11.294117-4.276706 9.938824-5.150117 12.679529-2.620236 7.228235-2.048 6.475295c-0.301176 1.024-0.602353 2.017882-0.843294 3.011764l-1.264941 5.571765-0.481882 2.650353-0.662589 5.12-0.301176 4.999529-0.030118 2.499765c0 32.165647 16.323765 86.076235 43.881412 148.781177 18.522353 42.164706-13.010824 90.443294-59.572706 85.323294-104.297412-11.474824-183.717647-54.121412-222.208-137.456942h-139.113412c-38.460235 83.335529-117.910588 125.982118-222.208 137.456942-46.561882 5.12-78.095059-43.128471-59.572706-85.323294 27.557647-62.704941 43.881412-116.615529 43.881412-148.781177v-1.234823l-0.030117-1.264942-0.301177-4.999529-0.662588-5.12-0.481882-2.650353-1.264942-5.601882-0.843294-2.981647-0.963764-3.132236-2.319059-6.836706-2.921412-7.710117-5.662118-13.522824-4.668235-10.601412-21.684706-46.923294-5.360941-11.89647-6.866824-16.233412c-16.414118-40.448 16.745412-82.341647 59.934118-73.788235 74.390588 14.817882 153.871059 61.199059 215.853177 122.88a25.961412 25.961412 0 0 1 12.016941-4.788706l3.403294-0.210824h140.559059c5.782588 0 11.143529 1.867294 15.450353 4.99953 61.952-61.680941 141.432471-108.062118 215.823058-122.88z" fill="#568af2" /></svg>