<svg class="icon" style="width: 1em;height: 1em;vertical-align: middle;fill: currentColor;overflow: hidden;" viewBox="0 0 1024 1024" version="1.1" xmlns="http://www.w3.org/2000/svg" width="32" height="32"><path d="M746.676706 848.323765a26.352941 26.352941 0 0 1-23.070118 26.142117l-3.312941 0.210824h-421.647059a26.352941 26.352941 0 0 1-26.142117-23.070118l-0.180706-3.312941-0.030118-284.641882-1.807059-1.325177a244.254118 244.254118 0 0 1-23.009882-19.696941l-6.083765-6.053647-6.144-6.535529c-31.503059-34.635294-50.778353-75.113412-50.778353-120.952471 0-83.365647 65.656471-135.619765 149.263059-146.974118l7.228235-0.903529 5.782589-0.542118 1.385411-4.005647c17.950118-49.091765 77.492706-95.864471 146.853647-101.707294l7.469177-0.451765 7.047529-0.150588c72.884706 0 137.697882 46.592 159.292236 97.069177l2.078117 5.24047 1.264941 3.794824 9.09553 0.752941c87.913412 8.463059 146.552471 53.880471 152.726588 133.601882l0.421647 7.348706 0.120471 6.927059c0 45.839059-19.275294 86.317176-50.778353 120.952471-10.24 11.264-20.48 20.630588-29.756236 28.069647l-5.481411 4.21647-1.837177 1.325177v284.672z m-52.736-114.206118h-368.941177v87.823059h368.941177v-87.823059z m-219.587765-193.264941a26.352941 26.352941 0 0 0-26.142117 23.070118l-0.210824 3.312941v114.176h52.705882v-114.206118l-0.210823-3.312941a26.352941 26.352941 0 0 0-26.142118-23.04z m122.970353-105.411765a26.352941 26.352941 0 0 0-26.142118 23.070118l-0.210823 3.312941v219.587765h52.705882v-219.617883l-0.180706-3.312941a26.352941 26.352941 0 0 0-26.172235-23.04z" fill="#568af2" /></svg>