<svg class="icon" style="width: 1em;height: 1em;vertical-align: middle;fill: currentColor;overflow: hidden;" viewBox="0 0 1024 1024" version="1.1" xmlns="http://www.w3.org/2000/svg" width="32" height="32"><path d="M575.698824 124.235294c8.372706 0 16.263529 3.975529 21.202823 10.721882l51.772235 70.264471a26.352941 26.352941 0 0 1-4.065882 35.659294l-76.950588 65.957647c129.716706 28.822588 226.695529 144.564706 226.695529 282.955294a289.882353 289.882353 0 1 1-579.764706 0c0-138.390588 96.978824-254.132706 226.69553-282.955294l-76.950589-65.957647a26.352941 26.352941 0 0 1-3.915294-35.84l52.705883-70.26447a26.352941 26.352941 0 0 1 21.082353-10.541177z m-71.228236 228.382118a237.176471 237.176471 0 1 0 0 474.352941 237.176471 237.176471 0 0 0 0-474.352941z" fill="#568af2" /></svg>