<svg class="icon" style="width: 1em;height: 1em;vertical-align: middle;fill: currentColor;overflow: hidden;" viewBox="0 0 1024 1024" version="1.1" xmlns="http://www.w3.org/2000/svg" width="32" height="32"><path d="M624.941176 214.588235a166.912 166.912 0 0 1 166.761412 160.346353l0.150588 6.565647v79.058824H624.941176l-3.312941 0.180706a26.352941 26.352941 0 0 0 0 52.314353l3.312941 0.210823h166.912l-0.030117 122.970353h26.383059c32.406588 0 58.970353 25.088 61.319529 56.922353l0.150588 4.577882V768a61.500235 61.500235 0 0 1-61.470117 61.500235h-632.470589A61.500235 61.500235 0 0 1 124.235294 768v-70.264471c0-33.972706 27.527529-61.500235 61.500235-61.500235h26.322824v-122.970353h166.912l3.312941-0.210823a26.352941 26.352941 0 0 0 0-52.314353l-3.312941-0.180706H212.088471v-79.058824a166.912 166.912 0 0 1 160.346353-166.791529l6.535529-0.120471h245.970823z" fill="#568af2" /></svg>