<svg class="icon" style="width: 1em;height: 1em;vertical-align: middle;fill: currentColor;overflow: hidden;" viewBox="0 0 1024 1024" version="1.1" xmlns="http://www.w3.org/2000/svg" width="32" height="32"><path d="M368.489412 349.153882l-80.685177 300.062118-1.626353 0.210824c-103.363765 14.637176-161.942588 39.393882-161.942588 83.425882 0 31.503059 39.243294 55.356235 104.658824 71.499294l14.426353 3.343059 15.179294 3.102117 15.962353 2.861177 16.624941 2.620235 8.583529 1.234824 17.679059 2.288941 18.311529 2.017882 18.944 1.807059 19.516236 1.536 20.058353 1.325177 10.24 0.572235 20.871529 0.963765 21.353412 0.722823 21.805176 0.481882 22.226824 0.240942h22.558118l22.226823-0.240942 21.805177-0.481882 21.383529-0.722823 20.841412-0.963765 20.359529-1.204706 19.787294-1.415529 19.245177-1.686589 9.366588-0.903529 18.311529-2.048 17.679059-2.288941 8.58353-1.204706 16.655058-2.650353 15.932236-2.861177 15.179294-3.102117 14.426353-3.312941 13.613176-3.614118c57.223529-15.992471 91.045647-38.671059 91.045647-67.915294l-0.150588-3.915294c-3.312941-40.267294-57.825882-63.759059-152.214588-78.095059l-13.221647-1.897412-134.866824-347.25647a26.352941 26.352941 0 0 0-16.233412-15.480471l-210.823529-70.264471c-22.287059-7.439059-42.405647 15.781647-31.894588 36.773647l48.218353 96.436706z" fill="#568af2" /></svg>