<svg class="icon" style="width: 1em;height: 1em;vertical-align: middle;fill: currentColor;overflow: hidden;" viewBox="0 0 1024 1024" version="1.1" xmlns="http://www.w3.org/2000/svg" width="32" height="32"><path d="M607.382588 124.235294c13.432471 0 24.515765 10.059294 26.142118 23.04l0.210823 3.312941-0.090353 85.38353 10.932706 3.343059a639.698824 639.698824 0 0 1 67.192471 25.148235c28.400941 12.619294 52.314353 26.352941 70.595765 41.562353 56.470588 47.073882 94.087529 112.007529 97.129411 170.767059l0.180706 7.589647v245.970823a26.352941 26.352941 0 0 1-23.04 26.142118l-3.312941 0.210823h-96.617412v96.617412a26.352941 26.352941 0 0 1-23.04 26.172235l-3.312941 0.180706H273.558588a26.352941 26.352941 0 0 1-26.142117-23.04l-0.210824-3.312941v-96.617412H150.588235a26.352941 26.352941 0 0 1-26.142117-23.04l-0.210824-3.312941v-245.970823c0-60.687059 38.4-129.234824 97.340235-178.356706 18.251294-15.209412 42.164706-28.943059 70.565647-41.562353a639.698824 639.698824 0 0 1 67.222589-25.148235l10.812235-3.282824V150.588235c0-13.432471 10.059294-24.515765 23.070118-26.142117l3.312941-0.210824h210.823529z m-26.383059 52.705882h-158.117647v52.705883h158.117647v-52.705883z" fill="#568af2" /></svg>