<svg class="icon" style="width: 1em;height: 1em;vertical-align: middle;fill: currentColor;overflow: hidden;" viewBox="0 0 1024 1024" version="1.1" xmlns="http://www.w3.org/2000/svg" width="32" height="32"><path d="M879.676235 768a61.500235 61.500235 0 0 1-56.892235 61.319529l-4.577882 0.180706h-632.470589a61.500235 61.500235 0 0 1-61.319529-56.922353l-0.180706-4.577882V416.617412c0-32.406588 25.088-58.970353 56.922353-61.31953l4.577882-0.150588 114.176-0.030118V346.352941a131.764706 131.764706 0 0 1 125.379765-131.614117l6.384941-0.150589h158.117647a131.764706 131.764706 0 0 1 131.614118 125.379765l0.150588 6.384941v8.764235h96.64753c32.406588 0 58.970353 25.118118 61.319529 56.922353l0.150588 4.577883V768z m-61.470117-360.146824h-632.470589a8.794353 8.794353 0 0 0-8.553411 6.746353l-0.240942 2.017883v102.4l322.891295 80.715294a8.734118 8.734118 0 0 0 2.831058 0.240941l1.41553-0.210823 322.891294-80.745412v-102.4a8.794353 8.794353 0 0 0-6.746353-8.553412l-2.017882-0.210824z m-316.235294 52.705883a43.911529 43.911529 0 1 1 0 87.823059 43.911529 43.911529 0 0 1 0-87.823059z m87.823058-193.264941h-158.117647a79.058824 79.058824 0 0 0-78.908235 74.059294l-0.150588 4.999529v8.764235h316.235294V346.352941a79.058824 79.058824 0 0 0-69.12-78.45647l-4.939294-0.451765-4.99953-0.150588z" fill="#568af2" /></svg>