<svg class="icon" style="width: 1em;height: 1em;vertical-align: middle;fill: currentColor;overflow: hidden;" viewBox="0 0 1024 1024" version="1.1" xmlns="http://www.w3.org/2000/svg" width="32" height="32"><path d="M803.147294 124.235294c14.546824 0 26.352941 11.806118 26.352941 26.352941 0 177.543529-96.677647 386.499765-229.647059 447.849412l56.71153 27.557647c9.035294 4.427294 14.817882 13.613176 14.817882 23.702588v131.764706a26.352941 26.352941 0 0 1-13.071059 22.738824l-122.970353 71.890823a26.352941 26.352941 0 0 1-26.593882 0l-122.970353-71.890823a26.352941 26.352941 0 0 1-13.071059-22.738824v-131.764706c0-10.089412 5.752471-19.275294 14.817883-23.702588l57.072941-27.798588c-128.421647-60.596706-220.039529-263.920941-229.978353-446.162824a26.352941 26.352941 0 1 1 52.645647-2.891294c10.480941 192.391529 125.229176 414.298353 254.795294 414.298353 133.300706 0 254.735059-227.448471 254.735059-412.852706 0-14.546824 11.776-26.352941 26.352941-26.352941z" fill="#568af2" /></svg>