<svg class="icon" style="width: 1em;height: 1em;vertical-align: middle;fill: currentColor;overflow: hidden;" viewBox="0 0 1024 1024" version="1.1" xmlns="http://www.w3.org/2000/svg" width="32" height="32"><path d="M501.970824 124.235294a96.617412 96.617412 0 0 1 81.317647 148.841412c85.684706 18.823529 145.528471 69.270588 181.850353 145.648941 30.72 64.602353 42.315294 137.607529 44.032 232.568471h9.035294c32.406588 0 58.970353 25.088 61.319529 56.922353l0.150588 4.577882v105.411765a61.500235 61.500235 0 0 1-56.892235 61.319529l-4.577882 0.150588h-632.470589A61.500235 61.500235 0 0 1 124.385882 822.814118l-0.180706-4.577883v-105.411764c0-32.436706 25.088-58.970353 56.922353-61.31953l4.577883-0.180706h9.005176c1.716706-94.960941 13.342118-167.966118 44.062118-232.56847 36.291765-76.378353 96.165647-126.795294 181.88047-145.648941a96.617412 96.617412 0 0 1 81.28753-148.841412z m316.235294 579.764706h-632.470589a8.794353 8.794353 0 0 0-8.553411 6.776471l-0.240942 2.017882v105.411765c0 4.156235 2.891294 7.619765 6.776471 8.553411l2.017882 0.210824h632.470589a8.794353 8.794353 0 0 0 8.553411-6.746353l0.210824-2.017882v-105.411765a8.794353 8.794353 0 0 0-8.764235-8.794353z m-474.352942-193.264941a26.352941 26.352941 0 0 0-26.172235 23.070117l-0.180706 3.312942-0.030117 114.176h52.705882v-114.206118l-0.180706-3.312941a26.352941 26.352941 0 0 0-26.142118-23.04z m158.117648 0a26.352941 26.352941 0 0 0-26.172236 23.070117l-0.180706 3.312942-0.030117 114.176h52.705882v-114.206118l-0.180706-3.312941a26.352941 26.352941 0 0 0-26.142117-23.04z m158.117647 0a26.352941 26.352941 0 0 0-26.172236 23.070117l-0.180706 3.312942-0.030117 114.176h52.705882v-114.206118l-0.180706-3.312941a26.352941 26.352941 0 0 0-26.142117-23.04z m-158.117647-333.793883a43.911529 43.911529 0 1 0 0 87.853177 43.911529 43.911529 0 0 0 0-87.853177z" fill="#568af2" /></svg>