<svg class="icon" style="width: 1em;height: 1em;vertical-align: middle;fill: currentColor;overflow: hidden;" viewBox="0 0 1024 1024" version="1.1" xmlns="http://www.w3.org/2000/svg" width="32" height="32"><path d="M749.507765 219.979294a26.352941 26.352941 0 0 1 29.605647-1.596235l17.92 10.721882c9.637647 6.053647 18.462118 12.408471 26.955294 19.636706 34.695529 29.605647 55.717647 67.403294 55.717647 115.169882 0 37.074824-6.686118 72.282353-18.010353 100.833883a13.914353 13.914353 0 0 1 0.210824 1.295059l0.210823 3.312941v333.793882a26.352941 26.352941 0 0 1-52.495059 3.312941l-0.210823-3.312941v-272.685176l-98.846118 69.24047a377.705412 377.705412 0 0 0-100.833882 104.719059l-6.475294 10.390588L542.117647 816.700235a26.352941 26.352941 0 0 1-22.588235 12.8H150.588235a26.352941 26.352941 0 0 1-26.352941-26.352941v-70.294588c0-9.607529 5.240471-18.462118 13.673412-23.100235l5.150118-2.861177 12.227764-6.987294 22.437647-13.161412 35.478589-21.293176 48.820705-29.906824 38.79153-24.214588 35.147294-22.347294 15.209412-9.878588 13.131294-8.673883a26.352941 26.352941 0 0 1 27.738353-0.993882c44.724706 25.539765 78.426353 19.275294 110.170353-13.131294 21.925647-22.377412 38.369882-50.597647 57.916235-94.810353l8.613647-19.937882c19.335529-45.989647 51.983059-90.654118 97.882353-139.384471l9.456941-9.848471 30.629647-30.659764 39.634824-38.881883z" fill="#568af2" /></svg>