<svg class="icon" style="width: 1em;height: 1em;vertical-align: middle;fill: currentColor;overflow: hidden;" viewBox="0 0 1024 1024" version="1.1" xmlns="http://www.w3.org/2000/svg" width="32" height="32"><path d="M843.294118 274.823529H210.823529a26.352941 26.352941 0 0 0-26.352941 26.352942v87.853176c0 11.986824 8.131765 22.467765 19.727059 25.479529l6.053647 1.686589 3.102118 0.873411c7.529412 2.168471 15.962353 4.728471 24.997647 7.68 25.901176 8.432941 51.802353 18.160941 75.776 29.033412 40.568471 18.432 71.228235 38.159059 87.250823 57.464471 15.420235 18.582588 28.973176 45.598118 40.297412 78.727529 8.824471 25.780706 15.781647 53.609412 21.022118 81.468236 1.204706 6.505412 2.288941 12.709647 3.222588 18.522352l2.439529 17.016471 0.150589 1.204706c1.505882 13.342118 12.769882 23.431529 26.202353 23.431529h64.722823c13.402353 0 24.696471-10.089412 26.202353-23.431529l1.264941-9.788235c1.204706-8.131765 2.680471-17.167059 4.517647-26.955294 5.240471-27.858824 12.197647-55.717647 21.022118-81.468236 11.324235-33.129412 24.877176-60.144941 40.297412-78.727529 16.022588-19.275294 46.682353-39.032471 87.250823-57.464471a733.575529 733.575529 0 0 1 75.776-29.033412c6.023529-1.957647 11.806118-3.764706 17.167059-5.391058l16.986353-4.818824a26.352941 26.352941 0 0 0 19.727059-25.509647V301.176471A26.352941 26.352941 0 0 0 843.294118 274.823529z" fill="#568af2" /></svg>