<svg class="icon" style="width: 1em;height: 1em;vertical-align: middle;fill: currentColor;overflow: hidden;" viewBox="0 0 1024 1024" version="1.1" xmlns="http://www.w3.org/2000/svg" width="32" height="32"><path d="M527.058824 154.352941c86.347294 0 156.16 98.484706 165.767529 210.82353h97.761882c12.559059 0 23.190588 8.824471 25.780706 20.811294l0.481883 3.343059 17.468235 210.04047 35.056941 245.217882a26.352941 26.352941 0 0 1-22.919529 29.906824l-3.162353 0.180706H210.823529a26.352941 26.352941 0 0 1-26.352941-26.955294l0.271059-3.132236L219.738353 599.341176l17.528471-210.04047a26.352941 26.352941 0 0 1 22.889411-23.94353l3.373177-0.210823h97.761882c9.607529-112.338824 79.420235-210.823529 165.76753-210.823529z m52.705882 368.941177h-105.411765a26.352941 26.352941 0 0 0-26.352941 26.352941v105.411765c0 14.546824 11.806118 26.352941 26.352941 26.352941h105.411765a26.352941 26.352941 0 0 0 26.352941-26.352941v-105.411765a26.352941 26.352941 0 0 0-26.352941-26.352941z m-52.705882-316.235294c-52.585412 0-103.905882 71.981176-112.820706 158.117647h225.641411c-8.914824-86.136471-60.235294-158.117647-112.820705-158.117647z" fill="#568af2" /></svg>