<svg class="icon" style="width: 1em;height: 1em;vertical-align: middle;fill: currentColor;overflow: hidden;" viewBox="0 0 1024 1024" version="1.1" xmlns="http://www.w3.org/2000/svg" width="32" height="32"><path d="M637.500235 154.352941c13.432471 0 24.515765 10.059294 26.142118 23.04l0.210823 3.312941v140.559059a26.352941 26.352941 0 0 1-23.070117 26.142118l-3.312941 0.210823-43.91153-0.030117v123.542588l4.035765 0.180706c175.284706 8.493176 236.303059 92.461176 241.543529 227.659294h9.185883c14.546824 0 26.352941 11.806118 26.352941 26.352941v105.411765a26.352941 26.352941 0 0 1-26.352941 26.352941h-632.470589a26.352941 26.352941 0 0 1-26.352941-26.352941v-105.411765c0-14.546824 11.776-26.352941 26.352941-26.352941h8.764236V347.587765H180.705882a26.352941 26.352941 0 0 1-26.142117-23.04l-0.210824-3.312941V180.705882c0-13.432471 10.059294-24.515765 23.04-26.142117L180.705882 154.352941h456.794353z m-26.383059 52.705883H207.058824v87.823058h404.058352V207.058824z" fill="#568af2" /></svg>