<svg class="icon" style="width: 1em;height: 1em;vertical-align: middle;fill: currentColor;overflow: hidden;" viewBox="0 0 1024 1024" version="1.1" xmlns="http://www.w3.org/2000/svg" width="32" height="32"><path d="M240.941176 879.676235a26.352941 26.352941 0 0 1-26.352941-26.352941V414.117647c0-5.210353 1.536-10.300235 4.427294-14.607059l65.837177-98.785882V150.588235c0-13.432471 10.059294-24.515765 23.070118-26.142117l3.312941-0.210824h87.823059c11.203765 0 21.172706 7.077647 24.877176 17.648941l98.093176 280.274824 98.123295-280.274824a26.352941 26.352941 0 0 1 21.172705-17.377882l3.704471-0.271059h87.823059c14.576941 0 26.352941 11.806118 26.352941 26.352941v150.136471l65.867294 98.785882c2.168471 3.222588 3.553882 6.927059 4.126118 10.721883l0.301176 3.885176v439.205647a26.352941 26.352941 0 0 1-26.352941 26.352941z" fill="#568af2" /></svg>