<svg class="icon" style="width: 1em;height: 1em;vertical-align: middle;fill: currentColor;overflow: hidden;" viewBox="0 0 1024 1024" version="1.1" xmlns="http://www.w3.org/2000/svg" width="32" height="32"><path d="M704 853.323294a26.352941 26.352941 0 0 1-23.04 26.172235l-3.312941 0.180706H361.411765a26.352941 26.352941 0 0 1-26.142118-23.04l-0.210823-3.312941v-297.863529a26.021647 26.021647 0 0 1 0.692705-6.927059l0.301177-1.024a22.829176 22.829176 0 0 1 1.716706-4.517647 23.521882 23.521882 0 0 1 3.614117-5.481412l0.451765-0.481882a24.154353 24.154353 0 0 1 1.807059-1.807059l0.421647-0.39153c3.614118-3.192471 8.131765-5.421176 13.281882-6.204235l0.752942-0.12047 3.312941-0.180706 61.56047-0.030118 0.090353-12.950588 0.451765-37.647059 0.481882-24.124235 0.632471-23.371294 1.295059-33.581177 1.084235-21.383529 1.264941-20.630589 1.445647-19.757176 0.813177-9.577412 1.746823-18.55247 0.963765-8.944942 2.108235-17.287529 2.319059-16.414118 1.204706-7.890823 2.710588-15.149177c0.903529-4.879059 1.897412-9.637647 2.891294-14.245647l3.192471-13.372235c14.848-58.157176 37.707294-89.178353 71.860706-89.178353 30.479059 0 52.916706 38.761412 68.427294 102.159059l3.343059 14.456471 3.132235 15.269647c0.993882 5.210353 1.957647 10.541176 2.891294 16.022588l2.650353 16.685176 2.469647 17.408 2.258824 18.010353 2.017882 18.612706 1.837176 19.184941 1.626353 19.727059 1.41553 20.239059 1.204706 20.690823 1.054117 21.082353 1.204706 32.436706 0.722824 33.189647 0.240941 18.883765H677.647059c8.011294 0 14.848 3.433412 19.546353 8.673882 0.301176 0.301176 0.542118 0.662588 0.843294 0.993883a22.919529 22.919529 0 0 1 2.620235 3.885176 23.672471 23.672471 0 0 1 2.469647 6.053647l0.180706 0.752941a21.985882 21.985882 0 0 1 0.451765 2.258824l0.030117 0.451765 0.060236 0.301176c0.120471 0.903529 0.180706 1.807059 0.180706 2.740706l-0.030118 298.917647z m-52.705882-201.878588l-43.941647 74.691765a26.352941 26.352941 0 0 1-22.708706 13.010823h-139.535059a26.352941 26.352941 0 0 1-23.280941-14.034823l-34.063059-64.331295v166.189177h263.529412V651.444706z m-135.228236-473.178353c-3.794824 3.041882-7.529412 10.691765-11.053176 22.287059l-2.319059 8.342588-2.288941 9.426824-1.114353 5.12-2.198588 11.083294-2.108236 12.077176-2.048 13.071059-2.891294 21.323294-2.710588 23.280941-1.656471 16.564706-1.566117 17.28753-2.138353 27.286588-1.867294 28.762353-1.566118 30.117647-0.903529 20.720941-0.692706 21.232941-0.602353 21.654588-0.542118 33.219765-0.030117 7.168 87.491764 0.060235c-1.114353-77.010824-6.927059-162.936471-16.384-230.159058-1.927529-13.854118-4.005647-26.774588-6.204235-38.701177l-3.373176-17.167059a359.604706 359.604706 0 0 0-11.083295-41.803294 109.327059 109.327059 0 0 0-9.155764-20.751059l-0.993883-1.505882z" fill="#568af2" /></svg>