<svg class="icon" style="width: 1em;height: 1em;vertical-align: middle;fill: currentColor;overflow: hidden;" viewBox="0 0 1024 1024" version="1.1" xmlns="http://www.w3.org/2000/svg" width="32" height="32"><path d="M765.500235 124.235294c9.246118 0 17.739294 4.818824 22.467765 12.619294l1.596235 3.011765 35.147294 79.088941c2.529882 5.662118 2.951529 12.016941 1.264942 17.92l-1.264942 3.46353-27.316705 61.470117c48.037647 45.568 79.329882 104.026353 82.100705 157.394824l0.180706 7.619764v263.529412a26.352941 26.352941 0 0 1-23.04 26.142118l-3.312941 0.210823h-96.617412v96.617412a26.352941 26.352941 0 0 1-23.04 26.172235l-3.312941 0.180706H273.558588a26.352941 26.352941 0 0 1-26.142117-23.04l-0.210824-3.312941v-96.617412H150.588235a26.352941 26.352941 0 0 1-26.142117-23.04l-0.210824-3.312941V466.823529c0-55.356235 31.924706-117.278118 82.281412-165.014588l-27.316706-61.44a26.352941 26.352941 0 0 1-1.234824-17.950117l1.234824-3.46353 35.147294-79.058823a26.352941 26.352941 0 0 1 20.660706-15.450353l3.433412-0.210824h527.058823z m-388.065882 110.832941l2.620235 2.288941 121.886118 121.886118 121.946353-121.886118a26.352941 26.352941 0 0 1 15.028706-7.469176l3.403294-0.240941 3.463529 0.210823 6.776471 1.024 4.126117 0.752942 9.547295 2.017882 11.173647 2.800941c23.009882 6.113882 46.049882 14.878118 67.764706 26.804706l9.276235 5.391059 17.317647-39.032471-23.401412-52.675765H255.548235l-23.431529 52.705883 17.347765 38.972235 9.306353-5.360941c21.684706-11.926588 44.724706-20.690824 67.764705-26.804706 9.908706-2.650353 18.371765-4.457412 24.816942-5.571765l6.77647-1.024c6.927059-0.873412 13.854118 1.054118 19.305412 5.240471z" fill="#568af2" /></svg>