<svg class="icon" style="width: 1em;height: 1em;vertical-align: middle;fill: currentColor;overflow: hidden;" viewBox="0 0 1024 1024" version="1.1" xmlns="http://www.w3.org/2000/svg" width="32" height="32"><path d="M677.647059 219.617882a26.352941 26.352941 0 0 1 3.312941 52.495059l-3.312941 0.210824L176.941176 272.263529v474.352942h237.176471c5.812706 0 11.444706 1.957647 16.022588 5.451294l2.620236 2.288941 69.180235 69.180235 69.24047-69.180235a26.352941 26.352941 0 0 1 15.149177-7.499294l3.463529-0.210824 237.176471-0.030117V421.647059c0-13.432471 10.059294-24.515765 23.070118-26.142118l3.312941-0.210823c13.402353 0 24.515765 10.059294 26.142117 23.04l0.180706 3.312941v351.382588a26.352941 26.352941 0 0 1-23.04 26.142118l-3.312941 0.210823-252.596706-0.030117-80.112941 80.143058a26.352941 26.352941 0 0 1-34.575059 2.349177l-2.710588-2.349177-80.143059-80.143058H150.588235a26.352941 26.352941 0 0 1-26.142117-23.04l-0.210824-3.312942v-527.058823c0-13.402353 10.059294-24.515765 23.04-26.142118L150.588235 219.617882h527.058824z" fill="#568af2" /><path d="M519.559529 465.558588a26.352941 26.352941 0 0 1 3.312942 52.525177l-3.312942 0.180706h-35.177411a26.352941 26.352941 0 0 1-3.312942-52.495059l3.312942-0.210824h35.177411zM695.205647 465.558588a26.352941 26.352941 0 0 1 3.312941 52.525177l-3.312941 0.180706h-35.117176a26.352941 26.352941 0 0 1-3.312942-52.495059l3.312942-0.210824h35.117176zM343.853176 465.558588a26.352941 26.352941 0 0 1 3.312942 52.525177l-3.312942 0.180706H308.705882a26.352941 26.352941 0 0 1-3.312941-52.495059l3.312941-0.210824h35.117177z" fill="#568af2" /><path d="M835.764706 263.529412m-52.705882 0a52.705882 52.705882 0 1 0 105.411764 0 52.705882 52.705882 0 1 0-105.411764 0Z" fill="#568af2" /></svg>