<svg class="icon" style="width: 1em;height: 1em;vertical-align: middle;fill: currentColor;overflow: hidden;" viewBox="0 0 1024 1024" version="1.1" xmlns="http://www.w3.org/2000/svg" width="32" height="32"><path d="M0 0h1024v1024H0z" fill="#568af2" fill-opacity="0" /><path d="M501.970824 124.235294C293.345882 124.235294 124.235294 293.345882 124.235294 501.970824c0 50.236235 9.818353 99.147294 28.672 144.564705l5.963294 13.613177c6.204235 13.462588 13.251765 26.563765 20.992 39.213176l4.48753 7.04753a117.850353 117.850353 0 0 1-1.41553 10.721882l-1.807059 9.938824-2.409411 11.474823-3.041883 13.19153-3.614117 14.878117-6.625883 25.509647-5.12 19.124706a26.352941 26.352941 0 0 0 32.346353 32.376471l28.069647-7.529412 16.564706-4.216471 21.684706-5.210353 12.348235-2.710588c1.897412-0.421647 3.734588-0.813176 5.51153-1.14447l9.938823-1.837177 7.830589-1.14447 2.891294-0.301177-5.421177-3.493647a376.651294 376.651294 0 0 0 209.889883 63.638588c208.594824 0 377.705412-169.110588 377.705411-377.705411 0-208.624941-169.110588-377.735529-377.705411-377.73553z m0 52.705882c179.501176 0 324.999529 145.528471 324.999529 325.029648s-145.498353 324.999529-324.999529 324.999529a323.945412 323.945412 0 0 1-169.833412-47.826824l-12.498824-7.951058c-9.005176-5.089882-22.287059-5.722353-45.327059-1.776942l-11.354353 2.138353-12.860235 2.800942-22.407529 5.421176-4.788706 1.234824 4.818823-19.395765 3.011765-13.071059 1.295059-6.023529 2.108235-10.962824 1.566118-9.728c2.710588-19.757176 1.355294-31.292235-4.035765-39.303529a323.945412 323.945412 0 0 1-54.723765-180.555294c0-179.501176 145.528471-325.029647 325.029648-325.029648z" fill="#568af2" /><path d="M666.804706 402.160941a26.352941 26.352941 0 0 1 3.312941 52.525177l-3.312941 0.180706h-294.761412a26.352941 26.352941 0 0 1-3.312941-52.495059l3.312941-0.210824h294.79153z" fill="#568af2" /><path d="M468.720941 330.842353c13.221647 2.349176 22.377412 14.155294 21.744941 27.256471l-0.391529 3.282823-51.2 290.334118a26.352941 26.352941 0 0 1-52.254118-5.872941l0.361412-3.312942 51.2-290.304a26.352941 26.352941 0 0 1 27.226353-21.744941l3.312941 0.361412zM591.691294 330.842353c13.251765 2.349176 22.407529 14.155294 21.744941 27.256471l-0.361411 3.282823-51.2 290.334118a26.352941 26.352941 0 0 1-52.284236-5.872941l0.39153-3.312942 51.2-290.304a26.352941 26.352941 0 0 1 27.226353-21.744941l3.282823 0.361412z" fill="#568af2" /><path d="M631.687529 545.882353a26.352941 26.352941 0 0 1 3.312942 52.495059l-3.312942 0.210823h-294.791529a26.352941 26.352941 0 0 1-3.312941-52.495059l3.312941-0.210823h294.791529z" fill="#568af2" /></svg>