<svg class="icon" style="width: 1em;height: 1em;vertical-align: middle;fill: currentColor;overflow: hidden;" viewBox="0 0 1024 1024" version="1.1" xmlns="http://www.w3.org/2000/svg" width="32" height="32"><path d="M0 0h1024v1024H0z" fill="#568af2" fill-opacity="0" /><path d="M712.794353 465.558588l-3.312941 0.210824a26.352941 26.352941 0 0 0-23.04 26.142117l-0.030118 114.206118H466.823529a26.352941 26.352941 0 0 0-26.352941 26.352941v140.559059l0.210824 3.312941a26.352941 26.352941 0 0 0 26.142117 23.04l182.302118-0.030117 45.025882 44.995764 2.710589 2.379294a26.352941 26.352941 0 0 0 34.544941-2.379294l44.995765-44.995764h76.92047a26.352941 26.352941 0 0 0 26.352941-26.322824v-281.118118a26.352941 26.352941 0 0 0-26.352941-26.352941h-140.528941z m114.176 52.705883v228.382117h-61.470118l-3.463529 0.240941a26.352941 26.352941 0 0 0-15.179294 7.499295l-34.093177 34.032941-34.032941-34.032941-2.620235-2.288942a26.352941 26.352941 0 0 0-16.022588-5.421176l-166.912-0.030118v-87.823059h219.617882l3.312941-0.210823a26.352941 26.352941 0 0 0 23.04-26.142118l-0.030118-114.206117h87.853177z" fill="#568af2" /><path d="M712.794353 184.470588H150.588235A26.352941 26.352941 0 0 0 124.235294 210.823529v421.647059l0.210824 3.312941a26.352941 26.352941 0 0 0 26.142117 23.04h76.920471l62.554353 62.554353 2.710588 2.349177a26.352941 26.352941 0 0 0 34.575059-2.349177l62.524235-62.554353h322.921412a26.352941 26.352941 0 0 0 26.352941-26.352941V210.823529a26.352941 26.352941 0 0 0-26.352941-26.352941z m-26.383059 52.705883v368.941176H378.970353l-3.463529 0.240941a26.352941 26.352941 0 0 0-15.149177 7.469177l-51.651765 51.651764-51.651764-51.651764-2.590118-2.288941a26.352941 26.352941 0 0 0-16.022588-5.421177H176.941176V237.176471h509.470118z" fill="#568af2" /><path d="M431.676235 395.294118a26.352941 26.352941 0 0 1 3.312941 52.495058l-3.312941 0.210824h-17.558588a26.352941 26.352941 0 0 1-3.312941-52.495059l3.312941-0.210823h17.558588zM554.676706 395.294118a26.352941 26.352941 0 0 1 3.312941 52.495058l-3.312941 0.210824h-17.588706a26.352941 26.352941 0 0 1-3.312941-52.495059l3.312941-0.210823h17.588706zM308.705882 395.294118a26.352941 26.352941 0 0 1 3.312942 52.495058l-3.312942 0.210824h-17.558588a26.352941 26.352941 0 0 1-3.312941-52.495059l3.312941-0.210823h17.558588z" fill="#568af2" /></svg>