<svg class="icon" style="width: 1em;height: 1em;vertical-align: middle;fill: currentColor;overflow: hidden;" viewBox="0 0 1024 1024" version="1.1" xmlns="http://www.w3.org/2000/svg" width="32" height="32"><path d="M336.956235 238.592H247.868235c-63.488 0-108.875294 59.904-88.636235 119.928471 44.032 130.409412 103.183059 245.940706 179.802353 322.56 76.649412 76.649412 192.150588 135.830588 322.56 179.802353 60.054588 20.269176 119.958588-25.118118 119.958588-88.606118v-89.148235c0-22.317176-12.077176-42.887529-31.623529-53.729883l-77.613177-43.188706-4.939294-2.439529a61.500235 61.500235 0 0 0-52.434823 1.204706l-74.059294 37.014588 0.722823 0.210824a209.679059 209.679059 0 0 1-90.744471-52.916706l-6.565647-6.836706a210.160941 210.160941 0 0 1-45.68847-81.016471l-0.662588-2.439529 37.044705-73.999059a61.500235 61.500235 0 0 0-1.264941-57.344l-42.977882-77.402353a61.470118 61.470118 0 0 0-53.76-31.653647zM247.868235 291.297882h89.148236c3.162353 0 6.113882 1.716706 7.649882 4.517647l42.977882 77.402353a8.794353 8.794353 0 0 1 0.180706 8.192l-41.411765 82.82353a26.352941 26.352941 0 0 0-2.710588 13.372235l0.752941 4.969412 1.054118 4.457412a260.517647 260.517647 0 0 0 68.065882 119.536941 261.180235 261.180235 0 0 0 114.085647 66.469647l11.294118 2.770823c5.692235 1.084235 11.565176 0.301176 16.745412-2.288941l82.823529-41.411765a8.794353 8.794353 0 0 1 8.161883 0.180706l77.643294 43.158589c2.800941 1.566118 4.517647 4.517647 4.517647 7.68v89.148235c0 28.099765-25.178353 47.194353-50.386824 38.671059-123.361882-41.622588-232.568471-97.581176-302.140235-167.122824-69.571765-69.571765-125.500235-178.778353-167.152941-302.140235-8.493176-25.208471 10.601412-50.386824 38.701176-50.386824zM769.596235 154.352941h-210.823529a26.352941 26.352941 0 0 0-26.352941 26.352941v175.676236c0 14.576941 11.776 26.352941 26.352941 26.352941h210.823529l3.312941-0.180706a26.352941 26.352941 0 0 0 23.04-26.172235l-0.030117-13.793883 51.712 20.690824a26.352941 26.352941 0 0 0 36.141176-24.45553V198.264471l-0.180706-3.222589a26.352941 26.352941 0 0 0-35.96047-21.232941l-51.712 20.660706V180.705882a26.352941 26.352941 0 0 0-26.322824-26.352941z m-26.383059 52.705883v26.352941l0.210824 3.222588a26.352941 26.352941 0 0 0 35.960471 21.232941l51.681882-20.690823v62.704941l-51.681882-20.660706-3.072-1.024a26.352941 26.352941 0 0 0-33.069177 25.479529l-0.030118 26.352941h-158.117647V207.058824h158.117647z" fill="#568af2" /></svg>