<svg class="icon" style="width: 1em;height: 1em;vertical-align: middle;fill: currentColor;overflow: hidden;" viewBox="0 0 1024 1024" version="1.1" xmlns="http://www.w3.org/2000/svg" width="32" height="32"><path d="M699.271529 529.648941l4.909177 2.469647L781.854118 575.247059c18.010353 10.029176 29.726118 28.310588 31.412706 48.64l0.210823 5.12v89.148235c0 63.488-59.994353 108.845176-120.018823 88.576-89.298824-30.117647-173.989647-68.547765-244.10353-115.983059a26.352941 26.352941 0 1 1 29.515294-43.670588c65.626353 44.393412 146.251294 80.986353 231.454118 109.718588 24.003765 8.131765 48.037647-8.824471 50.29647-34.725647l0.150589-3.915294v-89.148235a8.794353 8.794353 0 0 0-2.981647-6.625883l-1.536-1.054117-77.643294-43.188706a8.794353 8.794353 0 0 0-6.174118-0.903529l-2.017882 0.722823-82.82353 41.411765a26.352941 26.352941 0 0 1-16.745412 2.319059 220.220235 220.220235 0 0 1-42.164706-13.733647 26.352941 26.352941 0 1 1 20.600471-48.489412c7.168 3.011765 13.552941 5.360941 18.913882 7.077647l4.457412 1.325176 74.179765-37.044706a61.500235 61.500235 0 0 1 47.375059-3.19247l5.089882 1.987765zM368.880941 184.470588c20.600471 0 39.755294 10.330353 51.07953 27.256471l2.68047 4.397176 42.977883 77.402353c8.944941 16.143059 10.149647 35.328 3.463529 52.314353l-2.228706 5.029647-37.074823 74.11953 1.927529 6.083764 2.891294 8.131765 1.746824 4.517647a26.352941 26.352941 0 1 1-48.941177 19.576471 255.307294 255.307294 0 0 1-8.764235-25.509647l-1.957647-7.649883a107.52 107.52 0 0 1-0.662588-3.19247 26.352941 26.352941 0 0 1 0.933647-13.613177l1.355294-3.222588 41.411764-82.823529a8.794353 8.794353 0 0 0 0.602353-6.174118l-0.783058-1.987765-42.977883-77.402353a8.794353 8.794353 0 0 0-5.812706-4.336941l-1.867294-0.210823h-89.148235c-28.099765 0-47.164235 25.208471-38.671059 50.447058 27.286588 80.805647 61.741176 157.816471 103.363765 221.816471a26.352941 26.352941 0 0 1-44.182588 28.732235c-44.393412-68.246588-80.534588-149.082353-109.116236-233.712941-19.666824-58.307765 22.588235-116.555294 83.245177-119.868235l5.391059-0.120471h89.118117zM754.386824 197.722353a26.352941 26.352941 0 0 1 39.634823 34.544941l-2.379294 2.710588L229.496471 797.184a26.352941 26.352941 0 0 1-39.634824-34.575059l2.349177-2.710588L754.386824 197.722353z" fill="#568af2" /></svg>