<svg class="icon" style="width: 1em;height: 1em;vertical-align: middle;fill: currentColor;overflow: hidden;" viewBox="0 0 1024 1024" version="1.1" xmlns="http://www.w3.org/2000/svg" width="32" height="32"><path d="M853.323294 184.470588H150.588235A26.352941 26.352941 0 0 0 124.235294 210.823529v527.058824l0.210824 3.312941a26.352941 26.352941 0 0 0 26.142117 23.04h252.626824l80.112941 80.112941 2.710588 2.379294a26.352941 26.352941 0 0 0 34.544941-2.379294l80.112942-80.112941h252.626823a26.352941 26.352941 0 0 0 26.352941-26.352941V210.823529a26.352941 26.352941 0 0 0-26.352941-26.352941z m-26.352941 52.705883v474.352941h-237.176471l-3.463529 0.240941a26.352941 26.352941 0 0 0-15.149177 7.469176l-69.24047 69.180236-69.180235-69.180236-2.620236-2.288941a26.352941 26.352941 0 0 0-16.022588-5.421176H176.941176V237.176471h650.029177z" fill="#568af2" /><path d="M450.800941 307.501176a26.352941 26.352941 0 0 1 24.756706 24.545883v3.312941l-17.558588 298.646588a26.352941 26.352941 0 0 1-52.61553 0.240941v-3.312941l17.558589-298.676706a26.352941 26.352941 0 0 1 27.858823-24.756706zM573.771294 307.501176a26.352941 26.352941 0 0 1 24.756706 24.545883v3.312941l-17.558588 298.646588a26.352941 26.352941 0 0 1-52.585412 0.240941v-3.312941l17.558588-298.676706a26.352941 26.352941 0 0 1 27.828706-24.756706z" fill="#568af2" /><path d="M660.088471 395.294118a26.352941 26.352941 0 0 1 3.312941 52.495058l-3.312941 0.210824H361.411765a26.352941 26.352941 0 0 1-3.312941-52.495059l3.312941-0.210823h298.676706zM642.499765 518.264471a26.352941 26.352941 0 0 1 3.312941 52.525176l-3.312941 0.180706h-298.646589a26.352941 26.352941 0 0 1-3.312941-52.495059l3.312941-0.210823h298.646589z" fill="#568af2" /></svg>