<svg class="icon" style="width: 1em;height: 1em;vertical-align: middle;fill: currentColor;overflow: hidden;" viewBox="0 0 1024 1024" version="1.1" xmlns="http://www.w3.org/2000/svg" width="32" height="32"><path d="M367.073882 214.076235H277.985882c-63.488 0-108.875294 59.934118-88.636235 119.958589 44.032 130.409412 103.183059 245.940706 179.802353 322.56 76.619294 76.649412 192.150588 135.830588 322.56 179.802352 60.054588 20.269176 119.958588-25.118118 119.958588-88.636235v-89.148235c0-22.287059-12.077176-42.857412-31.623529-53.699765l-77.613177-43.188706-4.939294-2.439529a61.500235 61.500235 0 0 0-52.434823 1.204706l-74.059294 37.014588 0.722823 0.210824a209.648941 209.648941 0 0 1-90.74447-52.916706l-6.565648-6.866824a210.160941 210.160941 0 0 1-45.68847-81.01647l-0.662588-2.409412 37.044706-73.999059a61.500235 61.500235 0 0 0-1.264942-57.344l-42.977882-77.402353a61.500235 61.500235 0 0 0-53.76-31.683765zM277.985882 266.782118h89.148236c3.162353 0 6.113882 1.746824 7.649882 4.517647l42.977882 77.43247a8.794353 8.794353 0 0 1 0.180706 8.192l-41.411764 82.82353a26.352941 26.352941 0 0 0-2.710589 13.372235l0.752941 4.969412 1.054118 4.457412a260.517647 260.517647 0 0 0 68.065882 119.536941 261.180235 261.180235 0 0 0 114.085648 66.469647l6.836705 1.807059 4.457412 0.963764c5.692235 1.084235 11.565176 0.301176 16.745412-2.319059l82.823529-41.381647a8.794353 8.794353 0 0 1 8.161883 0.180706l77.643294 43.158589c2.800941 1.536 4.517647 4.517647 4.517647 7.68v89.148235c0 28.099765-25.178353 47.194353-50.386824 38.671059-123.361882-41.622588-232.598588-97.581176-302.140235-167.122824-69.571765-69.571765-125.500235-178.778353-167.152941-302.140235-8.493176-25.208471 10.601412-50.416941 38.701176-50.416941z" fill="#568af2" /><path d="M577.987765 210.823529h228.382117v228.382118h-228.382117z" fill="#568af2" opacity=".01" /><path d="M752.609882 227.328a26.352941 26.352941 0 0 1 39.604706 34.575059l-2.349176 2.710588-158.117647 158.117647a26.352941 26.352941 0 0 1-39.634824-34.575059l2.379294-2.710588 158.117647-158.117647z" fill="#568af2" /><path d="M594.492235 227.328a26.352941 26.352941 0 0 1 34.544941-2.349176l2.710589 2.349176 158.117647 158.117647a26.352941 26.352941 0 0 1-34.575059 39.634824l-2.710588-2.379295-158.117647-158.117647a26.352941 26.352941 0 0 1 0-37.255529z" fill="#568af2" /></svg>