<svg class="icon" style="width: 1em;height: 1em;vertical-align: middle;fill: currentColor;overflow: hidden;" viewBox="0 0 1024 1024" version="1.1" xmlns="http://www.w3.org/2000/svg" width="32" height="32"><path d="M883.440941 184.470588H180.705882A26.352941 26.352941 0 0 0 154.352941 210.823529v527.058824l0.210824 3.312941a26.352941 26.352941 0 0 0 26.142117 23.04h131.764706v61.500235l0.210824 3.373177a26.352941 26.352941 0 0 0 37.948235 20.178823l170.044235-85.052235h362.767059a26.352941 26.352941 0 0 0 26.352941-26.352941V210.823529a26.352941 26.352941 0 0 0-26.352941-26.352941z m-26.352941 52.705883v474.352941H514.499765l-3.041883 0.180706a26.352941 26.352941 0 0 0-8.734117 2.590117l-137.547294 68.788706V737.882353l-0.210824-3.312941a26.352941 26.352941 0 0 0-26.142118-23.04H207.058824V237.176471h650.029176z" fill="#568af2" /><path d="M707.764706 448a26.352941 26.352941 0 0 1 3.312941 52.495059l-3.312941 0.210823H356.382118a26.352941 26.352941 0 0 1-3.312942-52.495058l3.312942-0.210824H707.764706z" fill="#568af2" /></svg>