<svg class="icon" style="width: 1em;height: 1em;vertical-align: middle;fill: currentColor;overflow: hidden;" viewBox="0 0 1024 1024" version="1.1" xmlns="http://www.w3.org/2000/svg" width="32" height="32"><path d="M532.088471 124.235294c-208.624941 0-377.735529 169.110588-377.73553 377.73553v351.35247c0 14.576941 11.806118 26.352941 26.352941 26.352941h351.382589c208.594824 0 377.705412-169.110588 377.705411-377.705411 0-208.624941-169.110588-377.735529-377.705411-377.73553z m0 52.705882c179.501176 0 324.999529 145.528471 324.999529 325.029648l-0.090353 8.643764c-4.608 175.495529-148.299294 316.355765-324.909176 316.355765H207.058824V501.970824c0-179.501176 145.528471-325.029647 325.029647-325.029648z" fill="#568af2" /><path d="M672.617412 370.206118a26.352941 26.352941 0 0 1 3.312941 52.495058l-3.312941 0.210824h-316.235294a26.352941 26.352941 0 0 1-3.312942-52.525176l3.312942-0.180706h316.235294zM672.617412 510.735059a26.352941 26.352941 0 0 1 3.312941 52.525176l-3.312941 0.180706h-316.235294a26.352941 26.352941 0 0 1-3.312942-52.495059l3.312942-0.210823h316.235294zM532.088471 651.294118a26.352941 26.352941 0 0 1 3.312941 52.495058l-3.312941 0.210824h-175.706353a26.352941 26.352941 0 0 1-3.312942-52.495059l3.312942-0.210823h175.706353z" fill="#568af2" /></svg>