<svg class="icon" style="width: 1em;height: 1em;vertical-align: middle;fill: currentColor;overflow: hidden;" viewBox="0 0 1024 1024" version="1.1" xmlns="http://www.w3.org/2000/svg" width="32" height="32"><path d="M853.323294 184.470588H150.588235A26.352941 26.352941 0 0 0 124.235294 210.823529v527.058824l0.210824 3.312941a26.352941 26.352941 0 0 0 26.142117 23.04h252.626824l80.112941 80.112941 2.710588 2.379294a26.352941 26.352941 0 0 0 34.544941-2.379294l80.112942-80.112941h252.626823a26.352941 26.352941 0 0 0 26.352941-26.352941V210.823529a26.352941 26.352941 0 0 0-26.352941-26.352941z m-26.352941 52.705883v474.352941h-237.176471l-3.463529 0.240941a26.352941 26.352941 0 0 0-15.149177 7.469176l-69.24047 69.180236-69.180235-69.180236-2.620236-2.288941a26.352941 26.352941 0 0 0-16.022588-5.421176H176.941176V237.176471h650.029177z" fill="#568af2" /><path d="M519.559529 448a26.352941 26.352941 0 0 1 3.312942 52.495059l-3.312942 0.210823h-35.177411a26.352941 26.352941 0 0 1-3.312942-52.495058l3.312942-0.210824h35.177411zM695.205647 448a26.352941 26.352941 0 0 1 3.312941 52.495059l-3.312941 0.210823h-35.117176a26.352941 26.352941 0 0 1-3.312942-52.495058l3.312942-0.210824h35.117176zM343.853176 448a26.352941 26.352941 0 0 1 3.312942 52.495059l-3.312942 0.210823H308.705882a26.352941 26.352941 0 0 1-3.312941-52.495058l3.312941-0.210824h35.117177z" fill="#568af2" /></svg>