<svg class="icon" style="width: 1em;height: 1em;vertical-align: middle;fill: currentColor;overflow: hidden;" viewBox="0 0 1024 1024" version="1.1" xmlns="http://www.w3.org/2000/svg" width="32" height="32"><path d="M853.323294 184.470588H150.588235A26.352941 26.352941 0 0 0 124.235294 210.823529v527.058824l0.210824 3.312941a26.352941 26.352941 0 0 0 26.142117 23.04h131.764706v61.500235l0.210824 3.373177a26.352941 26.352941 0 0 0 37.948235 20.178823l170.044235-85.052235h362.767059a26.352941 26.352941 0 0 0 26.352941-26.352941V210.823529a26.352941 26.352941 0 0 0-26.352941-26.352941z m-26.352941 52.705883v474.352941H484.382118l-3.041883 0.180706a26.352941 26.352941 0 0 0-8.734117 2.590117l-137.547294 68.788706V737.882353l-0.210824-3.312941a26.352941 26.352941 0 0 0-26.142118-23.04H176.941176V237.176471h650.029177z" fill="#568af2" /><path d="M326.264471 421.647059c13.432471 0 24.545882 10.059294 26.172235 23.04l0.180706 3.312941v52.705882a26.352941 26.352941 0 0 1-52.495059 3.312942l-0.210824-3.312942v-52.705882c0-14.546824 11.806118-26.352941 26.352942-26.352941zM501.970824 421.647059c13.432471 0 24.515765 10.059294 26.142117 23.04l0.210824 3.312941v52.705882a26.352941 26.352941 0 0 1-52.525177 3.312942l-0.180706-3.312942v-52.705882c0-14.546824 11.776-26.352941 26.352942-26.352941zM677.647059 421.647059c13.432471 0 24.515765 10.059294 26.142117 23.04l0.210824 3.312941v52.705882a26.352941 26.352941 0 0 1-52.495059 3.312942l-0.210823-3.312942v-52.705882c0-14.546824 11.806118-26.352941 26.352941-26.352941z" fill="#568af2" /></svg>