<svg class="icon" style="width: 1em;height: 1em;vertical-align: middle;fill: currentColor;overflow: hidden;" viewBox="0 0 1024 1024" version="1.1" xmlns="http://www.w3.org/2000/svg" width="32" height="32"><path d="M0 0h1024v1024H0z" fill="#568af2" fill-opacity="0" /><path d="M853.323294 184.470588c13.432471 0 24.545882 10.059294 26.172235 23.04l0.180706 3.312941v193.264942a26.352941 26.352941 0 0 1-52.495059 3.312941l-0.210823-3.312941V237.176471H176.941176v474.352941h96.617412c13.432471 0 24.545882 10.059294 26.172236 23.04l0.180705 3.312941v45.206588l137.547295-68.788706a26.352941 26.352941 0 0 1 8.734117-2.590117l3.072-0.180706h79.058824a26.352941 26.352941 0 0 1 3.312941 52.495059l-3.312941 0.210823H455.378824l-170.044236 85.052235a26.352941 26.352941 0 0 1-37.948235-20.178823l-0.210824-3.373177v-61.500235H150.588235a26.352941 26.352941 0 0 1-26.142117-23.04l-0.210824-3.312941V210.823529c0-13.432471 10.059294-24.515765 23.04-26.142117L150.588235 184.470588h702.735059z" fill="#568af2" /><path d="M396.559059 325.029647a26.352941 26.352941 0 0 1 3.312941 52.495059l-3.312941 0.210823h-105.411765a26.352941 26.352941 0 0 1-3.312941-52.525176l3.312941-0.180706h105.411765zM501.970824 430.441412a26.352941 26.352941 0 0 1 3.312941 52.495059l-3.312941 0.210823h-210.82353a26.352941 26.352941 0 0 1-3.312941-52.525176l3.312941-0.180706h210.82353zM623.887059 508.416a26.352941 26.352941 0 0 1 34.544941-2.349176l2.710588 2.349176 210.82353 210.823529a26.352941 26.352941 0 0 1-34.575059 39.634824l-2.710588-2.349177-210.82353-210.823529a26.352941 26.352941 0 0 1 0-37.285647z" fill="#568af2" /><path d="M834.710588 508.416a26.352941 26.352941 0 0 1 39.604706 34.575059l-2.349176 2.710588-210.82353 210.823529a26.352941 26.352941 0 0 1-39.634823-34.575058l2.379294-2.710589 210.823529-210.823529z" fill="#568af2" /></svg>