<svg class="icon" style="width: 1em;height: 1em;vertical-align: middle;fill: currentColor;overflow: hidden;" viewBox="0 0 1024 1024" version="1.1" xmlns="http://www.w3.org/2000/svg" width="32" height="32"><path d="M336.956235 221.003294H247.868235c-63.488 0-108.875294 59.934118-88.636235 119.958588 44.032 130.409412 103.183059 245.940706 179.802353 322.56 76.619294 76.619294 192.150588 135.830588 322.56 179.802353 60.054588 20.269176 119.958588-25.118118 119.958588-88.636235v-89.148235c0-22.287059-12.077176-42.857412-31.623529-53.729883l-77.613177-43.158588-4.939294-2.439529a61.500235 61.500235 0 0 0-52.434823 1.204706l-74.089412 37.014588 4.457412 1.204706a207.661176 207.661176 0 0 1-94.448942-53.910589l-6.565647-6.866823a210.160941 210.160941 0 0 1-45.68847-81.016471l-0.662588-2.409411 37.044705-73.999059a61.500235 61.500235 0 0 0-1.264941-57.344l-42.977882-77.432471a61.500235 61.500235 0 0 0-53.76-31.623529zM247.868235 273.709176h89.148236c3.162353 0 6.113882 1.746824 7.649882 4.517648l42.977882 77.43247a8.794353 8.794353 0 0 1 0.180706 8.192l-41.411765 82.82353a26.352941 26.352941 0 0 0-2.710588 13.372235l0.752941 4.969412 1.054118 4.457411a260.517647 260.517647 0 0 0 68.065882 119.506824 258.831059 258.831059 0 0 0 119.085177 67.824941l6.294588 1.445647c5.692235 1.084235 11.565176 0.301176 16.745412-2.319059l82.823529-41.381647a8.794353 8.794353 0 0 1 8.161883 0.180706l77.643294 43.158588c2.800941 1.536 4.517647 4.487529 4.517647 7.68v89.148236c0 28.099765-25.178353 47.194353-50.386824 38.671058-123.361882-41.622588-232.598588-97.581176-302.140235-167.152941-69.571765-69.541647-125.500235-178.748235-167.152941-302.110117-8.493176-25.208471 10.601412-50.416941 38.701176-50.416942zM684.875294 162.063059a26.352941 26.352941 0 0 1 39.634824 34.575059l-2.349177 2.710588-121.916235 121.886118 121.916235 121.946352c9.426824 9.426824 10.24 24.214588 2.349177 34.544942l-2.349177 2.710588a26.352941 26.352941 0 0 1-34.575059 2.349176l-2.710588-2.349176-140.528941-140.559059a26.352941 26.352941 0 0 1-2.349177-34.544941l2.349177-2.710588 140.559059-140.559059z" fill="#568af2" /><path d="M844.077176 295.062588a26.352941 26.352941 0 0 1 3.312942 52.495059l-3.312942 0.210824h-281.088a26.352941 26.352941 0 0 1-3.312941-52.525177l3.312941-0.180706h281.088z" fill="#568af2" /></svg>