<svg class="icon" style="width: 1em;height: 1em;vertical-align: middle;fill: currentColor;overflow: hidden;" viewBox="0 0 1024 1024" version="1.1" xmlns="http://www.w3.org/2000/svg" width="32" height="32"><path d="M853.323294 184.470588c13.432471 0 24.545882 10.059294 26.172235 23.04l0.180706 3.312941v193.264942a26.352941 26.352941 0 0 1-52.495059 3.312941l-0.210823-3.312941V237.176471H176.941176v474.352941h96.617412c13.432471 0 24.545882 10.059294 26.172236 23.04l0.180705 3.312941v45.206588l137.547295-68.788706a26.352941 26.352941 0 0 1 8.734117-2.590117l3.072-0.180706h79.058824a26.352941 26.352941 0 0 1 3.312941 52.495059l-3.312941 0.210823H455.378824l-170.044236 85.052235a26.352941 26.352941 0 0 1-37.948235-20.178823l-0.210824-3.373177v-61.500235H150.588235a26.352941 26.352941 0 0 1-26.142117-23.04l-0.210824-3.312941V210.823529c0-13.432471 10.059294-24.515765 23.04-26.142117L150.588235 184.470588h702.735059z" fill="#568af2" /><path d="M705.114353 449.144471l-15.540706 4.939294-4.276706 1.385411c-14.757647 4.879059-29.515294 10.059294-43.369412 15.36-11.625412 4.397176-22.076235 8.734118-31.201882 12.860236-33.039059 15.119059-47.284706 24.877176-47.284706 46.893176 0 69.300706 23.491765 129.355294 62.915765 179.681883 14.125176 18.010353 29.485176 33.731765 45.206588 47.104 8.673882 7.378824 16.384 13.191529 22.678588 17.468235l4.517647 2.921412c8.463059 5.330824 19.215059 5.421176 27.738353 0.180706 17.709176-10.782118 43.008-31.322353 68.156236-61.982118 42.074353-51.290353 67.463529-113.242353 67.463529-185.374118 0-21.985882-14.245647-31.774118-47.284706-46.893176-9.095529-4.156235-19.576471-8.463059-31.171765-12.890353a954.006588 954.006588 0 0 0-28.672-10.360471l-22.889411-7.619764-9.396706-2.981648a473.931294 473.931294 0 0 0-2.228706-0.692705 26.352941 26.352941 0 0 0-15.36 0z m7.649882 52.826353l10.962824 3.553882c14.064941 4.638118 28.129882 9.577412 41.170823 14.546823l14.998589 5.933177c4.698353 1.927529 9.035294 3.824941 13.040941 5.632l4.818823 2.258823c4.547765 2.198588 8.372706 4.216471 11.444706 6.083765l-0.63247 11.083294c-4.216471 50.296471-23.973647 94.027294-54.66353 131.46353l-7.469176 8.734117a270.034824 270.034824 0 0 1-31.051294 29.696l-2.740706 2.138353-0.783059-0.602353a267.896471 267.896471 0 0 1-44.001882-44.724706l-5.963295-7.890823c-25.178353-34.695529-41.200941-74.300235-44.905411-119.085177l-0.662589-10.782117 3.403295-1.957647c3.523765-1.927529 7.860706-4.096 12.92047-6.415059 7.951059-3.614118 17.408-7.529412 28.009412-11.565177 8.734118-3.312941 17.859765-6.625882 27.136-9.818353l21.805176-7.258352 3.162353-1.024zM396.559059 325.029647a26.352941 26.352941 0 0 1 3.312941 52.495059l-3.312941 0.210823h-105.411765a26.352941 26.352941 0 0 1-3.312941-52.525176l3.312941-0.180706h105.411765zM501.970824 430.441412a26.352941 26.352941 0 0 1 3.312941 52.495059l-3.312941 0.210823h-210.82353a26.352941 26.352941 0 0 1-3.312941-52.525176l3.312941-0.180706h210.82353z" fill="#568af2" /></svg>