<svg class="icon" style="width: 1em;height: 1em;vertical-align: middle;fill: currentColor;overflow: hidden;" viewBox="0 0 1024 1024" version="1.1" xmlns="http://www.w3.org/2000/svg" width="32" height="32"><path d="M0 0h1024v1024H0z" fill="#568af2" fill-opacity="0" /><path d="M853.323294 184.470588H150.588235A26.352941 26.352941 0 0 0 124.235294 210.823529v527.058824l0.210824 3.312941a26.352941 26.352941 0 0 0 26.142117 23.04h252.626824l80.112941 80.112941 2.710588 2.379294a26.352941 26.352941 0 0 0 34.544941-2.379294l80.112942-80.112941h252.626823a26.352941 26.352941 0 0 0 26.352941-26.352941V210.823529a26.352941 26.352941 0 0 0-26.352941-26.352941z m-26.352941 52.705883v474.352941h-237.176471l-3.463529 0.240941a26.352941 26.352941 0 0 0-15.149177 7.469176l-69.24047 69.180236-69.180235-69.180236-2.620236-2.288941a26.352941 26.352941 0 0 0-16.022588-5.421176H176.941176V237.176471h650.029177z" fill="#568af2" /><path d="M501.970824 448c13.432471 0 24.515765 10.059294 26.142117 23.04l0.210824 3.312941V632.470588a26.352941 26.352941 0 0 1-52.525177 3.312941l-0.180706-3.312941v-158.117647c0-14.546824 11.776-26.352941 26.352942-26.352941zM501.970824 325.029647c13.432471 0 24.515765 10.029176 26.142117 23.04l0.210824 3.312941v17.558588a26.352941 26.352941 0 0 1-52.525177 3.312942l-0.180706-3.312942v-17.558588c0-14.576941 11.776-26.352941 26.352942-26.352941z" fill="#568af2" /></svg>