<svg class="icon" style="width: 1em;height: 1em;vertical-align: middle;fill: currentColor;overflow: hidden;" viewBox="0 0 1024 1024" version="1.1" xmlns="http://www.w3.org/2000/svg" width="32" height="32"><path d="M554.767059 187.271529a255.939765 255.939765 0 0 1 99.930353 4.879059 253.650824 253.650824 0 0 1 117.970823 66.921412 253.650824 253.650824 0 0 1 66.95153 117.970824 255.909647 255.909647 0 0 1 4.848941 99.900235 26.352941 26.352941 0 1 1-52.10353-7.770353 203.203765 203.203765 0 0 0-3.885176-79.329882 200.944941 200.944941 0 0 0-53.097412-93.485177 200.944941 200.944941 0 0 0-93.485176-53.097412 203.233882 203.233882 0 0 0-79.329883-3.855059 26.352941 26.352941 0 1 1-7.770353-52.133647z" fill="#568af2" /><path d="M561.302588 313.012706a131.614118 131.614118 0 0 1 112.700236 37.165176 131.614118 131.614118 0 0 1 37.135058 112.64 26.352941 26.352941 0 0 1-52.404706-4.457411l0.301177-3.312942a78.908235 78.908235 0 0 0-22.287059-67.614117c-16.594824-16.564706-39.183059-24.696471-61.982118-22.91953l-5.692235 0.632471a26.352941 26.352941 0 0 1-7.770353-52.103529zM336.956235 239.194353H247.868235c-63.488 0-108.875294 59.934118-88.636235 119.958588 44.032 130.409412 103.183059 245.940706 179.802353 322.56 76.619294 76.619294 192.150588 135.800471 322.56 179.802353 60.054588 20.239059 119.958588-25.118118 119.958588-88.636235v-89.148235c0-22.287059-12.077176-42.887529-31.623529-53.729883l-77.613177-43.158588-4.939294-2.469647a61.500235 61.500235 0 0 0-52.434823 1.204706l-74.149647 37.044706-6.415059-1.987765-8.58353-3.072a218.895059 218.895059 0 0 1-53.910588-29.455059 195.885176 195.885176 0 0 1-21.022118-18.191059l-6.565647-6.866823a210.160941 210.160941 0 0 1-45.68847-81.016471l-0.662588-2.439529 37.044705-73.999059a61.500235 61.500235 0 0 0-1.264941-57.344l-42.977882-77.402353a61.500235 61.500235 0 0 0-53.76-31.653647zM247.868235 291.900235h89.148236c3.162353 0 6.113882 1.716706 7.649882 4.517647l42.977882 77.402353a8.794353 8.794353 0 0 1 0.180706 8.222118l-41.411765 82.823529a26.352941 26.352941 0 0 0-2.710588 13.342118l0.752941 4.969412 1.054118 4.487529a260.517647 260.517647 0 0 0 68.065882 119.506824c8.372706 8.372706 17.317647 16.082824 26.714353 23.130353 36.592941 27.407059 73.125647 41.231059 98.665412 46.140235 5.692235 1.084235 11.565176 0.271059 16.745412-2.319059l82.823529-41.411765a8.794353 8.794353 0 0 1 8.161883 0.180706l77.643294 43.158589c2.800941 1.566118 4.517647 4.517647 4.517647 7.68v89.148235c0 28.129882-25.178353 47.194353-50.386824 38.701176-123.361882-41.652706-232.598588-97.581176-302.140235-167.152941-69.571765-69.571765-125.500235-178.748235-167.152941-302.140235-8.493176-25.208471 10.601412-50.386824 38.701176-50.386824z" fill="#568af2" /></svg>