<svg class="icon" style="width: 1em;height: 1em;vertical-align: middle;fill: currentColor;overflow: hidden;" viewBox="0 0 1024 1024" version="1.1" xmlns="http://www.w3.org/2000/svg" width="32" height="32"><path d="M853.323294 184.470588H150.588235A26.352941 26.352941 0 0 0 124.235294 210.823529v527.058824l0.210824 3.312941a26.352941 26.352941 0 0 0 26.142117 23.04h96.617412v61.500235l0.210824 3.373177a26.352941 26.352941 0 0 0 37.948235 20.178823l170.044235-85.052235h397.914353a26.352941 26.352941 0 0 0 26.352941-26.352941V210.823529a26.352941 26.352941 0 0 0-26.352941-26.352941z m-26.352941 52.705883v474.352941H449.264941l-3.072 0.180706a26.352941 26.352941 0 0 0-8.734117 2.590117l-137.547295 68.788706V737.882353l-0.180705-3.312941a26.352941 26.352941 0 0 0-26.172236-23.04H176.941176V237.176471h650.029177z" fill="#568af2" /><path d="M624.941176 342.588235c13.432471 0 24.515765 10.059294 26.142118 23.04l0.210824 3.312941v17.558589a26.352941 26.352941 0 0 1-52.495059 3.312941l-0.210824-3.312941v-17.558589c0-14.546824 11.806118-26.352941 26.352941-26.352941zM378.970353 342.588235c13.432471 0 24.545882 10.059294 26.172235 23.04l0.180706 3.312941v17.558589a26.352941 26.352941 0 0 1-52.495059 3.312941l-0.210823-3.312941v-17.558589c0-14.546824 11.806118-26.352941 26.352941-26.352941zM601.359059 515.282824a26.352941 26.352941 0 1 1 47.164235 23.552c-5.782588 11.565176-16.986353 27.407059-34.635294 43.068235-29.304471 26.051765-66.680471 41.773176-111.917176 41.773176-45.266824 0-82.642824-15.721412-111.947295-41.773176-17.618824-15.661176-28.822588-31.503059-34.635294-43.068235a26.352941 26.352941 0 0 1 45.477647-26.413177l1.686589 2.861177c3.011765 6.023529 10.450824 16.534588 22.497882 27.226352 20.088471 17.859765 45.296941 28.461176 76.920471 28.461177 31.623529 0 56.801882-10.601412 76.92047-28.461177 12.016941-10.691765 19.486118-21.232941 22.467765-27.226352z" fill="#568af2" /></svg>