<svg class="icon" style="width: 1em;height: 1em;vertical-align: middle;fill: currentColor;overflow: hidden;" viewBox="0 0 1024 1024" version="1.1" xmlns="http://www.w3.org/2000/svg" width="32" height="32"><path d="M527.058824 581.029647c13.432471 0 24.515765 10.029176 26.142117 23.04l0.210824 3.312941v105.411765a26.352941 26.352941 0 0 1-52.495059 3.312941l-0.210824-3.312941v-105.411765c0-14.576941 11.806118-26.352941 26.352942-26.352941zM456.794353 756.705882a26.352941 26.352941 0 0 1 3.312941 52.495059l-3.312941 0.210824H210.823529a26.352941 26.352941 0 0 1-3.312941-52.495059l3.312941-0.210824h245.970824zM843.294118 756.705882a26.352941 26.352941 0 0 1 3.312941 52.495059l-3.312941 0.210824h-245.970824a26.352941 26.352941 0 0 1-3.312941-52.495059l3.312941-0.210824H843.294118z" fill="#568af2" /><path d="M527.058824 686.441412a96.617412 96.617412 0 1 0 0 193.234823 96.617412 96.617412 0 0 0 0-193.234823z m0 52.705882a43.911529 43.911529 0 1 1 0 87.823059 43.911529 43.911529 0 0 1 0-87.823059zM527.058824 124.235294c138.119529 0 250.578824 109.929412 254.644705 247.085177l0.090353 7.649882A254.735059 254.735059 0 1 1 527.058824 124.235294z m200.342588 281.118118H326.716235a202.089412 202.089412 0 0 0 400.685177 0zM527.058824 176.941176a202.089412 202.089412 0 0 0-200.342589 175.676236h400.685177A202.089412 202.089412 0 0 0 527.058824 176.941176z" fill="#568af2" /><path d="M527.058824 124.235294c-69.933176 0-114.206118 115.049412-114.206118 254.735059s44.272941 254.765176 114.206118 254.765176 114.206118-115.049412 114.206117-254.765176c0-139.685647-44.272941-254.735059-114.206117-254.735059z m0 52.705882c9.637647 0 24.636235 16.534588 37.526588 49.995295 15.119059 39.333647 23.973647 93.696 23.973647 152.033882 0 58.337882-8.854588 112.730353-23.973647 152.033882-12.890353 33.490824-27.919059 49.995294-37.526588 49.995294-9.637647 0-24.636235-16.504471-37.526589-49.995294-15.119059-39.303529-23.973647-93.665882-23.973647-152.033882 0-58.337882 8.854588-112.700235 23.973647-152.033882 12.890353-33.460706 27.919059-49.995294 37.526589-49.995295z" fill="#568af2" /><path d="M755.440941 352.617412a26.352941 26.352941 0 0 1 3.312941 52.525176l-3.312941 0.180706H298.676706a26.352941 26.352941 0 0 1-3.312941-52.495059l3.312941-0.210823h456.764235z" fill="#568af2" /></svg>