<svg class="icon" style="width: 1em;height: 1em;vertical-align: middle;fill: currentColor;overflow: hidden;" viewBox="0 0 1024 1024" version="1.1" xmlns="http://www.w3.org/2000/svg" width="32" height="32"><path d="M466.823529 194.499765c13.432471 0 24.515765 10.059294 26.142118 23.070117l0.210824 3.312942v210.823529c0 59.181176-84.208941 96.617412-184.470589 96.617412-97.581176 0-179.892706-35.448471-184.289882-91.858824l-0.180706-4.788706v-210.823529a26.352941 26.352941 0 0 1 52.495059-3.312941l0.210823 3.312941v210.823529c0 18.432 57.374118 43.941647 131.764706 43.941647 71.800471 0 127.789176-23.792941 131.553883-42.014117l0.210823-1.92753v-210.823529c0-14.546824 11.806118-26.352941 26.352941-26.352941z" fill="#568af2" /><path d="M466.823529 299.911529c14.546824 0 26.352941 11.806118 26.352942 26.352942 0 59.211294-84.208941 96.647529-184.470589 96.647529-100.291765 0-184.470588-37.436235-184.470588-96.647529a26.352941 26.352941 0 0 1 52.495059-3.312942l0.210823 3.312942c0 18.432 57.374118 43.941647 131.764706 43.941647 74.390588 0 131.764706-25.509647 131.764706-43.941647 0-14.546824 11.806118-26.352941 26.352941-26.352942z" fill="#568af2" /><path d="M308.705882 124.235294c-100.291765 0-184.470588 37.436235-184.470588 96.617412 0 59.211294 84.208941 96.647529 184.470588 96.647529 100.291765 0 184.470588-37.436235 184.470589-96.647529s-84.208941-96.617412-184.470589-96.617412z m0 52.705882c74.390588 0 131.764706 25.509647 131.764706 43.91153 0 18.432-57.374118 43.941647-131.764706 43.941647-74.390588 0-131.764706-25.509647-131.764706-43.941647 0-18.401882 57.374118-43.911529 131.764706-43.91153zM747.911529 159.382588c51.531294 0 93.665882 40.327529 96.496942 91.136l0.150588 5.481412V361.411765a26.352941 26.352941 0 0 1-52.525177 3.312941l-0.180706-3.312941V256c0-22.829176-17.438118-41.592471-39.695058-43.730824l-4.216471-0.180705h-105.411765a26.352941 26.352941 0 0 1-3.312941-52.525177l3.312941-0.180706h105.411765zM185.735529 616.146824c13.432471 0 24.515765 10.059294 26.142118 23.070117l0.210824 3.312941v105.411765c0 22.799059 17.408 41.562353 39.695058 43.700706l4.216471 0.210823H361.411765a26.352941 26.352941 0 0 1 3.312941 52.495059l-3.312941 0.210824H256a96.617412 96.617412 0 0 1-96.466824-91.166118l-0.150588-5.481412v-105.411764c0-14.546824 11.776-26.352941 26.352941-26.352941zM695.205647 721.558588c13.432471 0 24.545882 10.059294 26.172235 23.070118l0.180706 3.312941v105.411765a26.352941 26.352941 0 0 1-52.495059 3.312941l-0.210823-3.312941v-105.411765c0-14.576941 11.806118-26.383059 26.352941-26.383059z" fill="#568af2" /><path d="M800.617412 826.970353a26.352941 26.352941 0 0 1 3.312941 52.525176l-3.312941 0.180706h-210.82353a26.352941 26.352941 0 0 1-3.312941-52.495059l3.312941-0.210823h210.82353zM853.323294 510.735059h-316.235294a26.352941 26.352941 0 0 0-26.352941 26.352941v210.823529c0 14.576941 11.806118 26.352941 26.352941 26.352942h316.235294a26.352941 26.352941 0 0 0 26.352941-26.352942v-210.823529a26.352941 26.352941 0 0 0-26.352941-26.352941z m-26.352941 52.705882v158.117647h-263.529412v-158.117647h263.529412z" fill="#568af2" /></svg>