<svg class="icon" style="width: 1em;height: 1em;vertical-align: middle;fill: currentColor;overflow: hidden;" viewBox="0 0 1024 1024" version="1.1" xmlns="http://www.w3.org/2000/svg" width="32" height="32"><path d="M677.647059 430.441412c-58.096941 0-112.278588 24.696471-150.347294 67.041882A201.366588 201.366588 0 0 0 475.617882 632.470588a202.209882 202.209882 0 0 0 102.490353 175.856941A202.029176 202.029176 0 1 0 677.647059 430.441412z m0 52.705882a149.323294 149.323294 0 1 1 0 298.646588 149.323294 149.323294 0 0 1 0-298.646588z" fill="#568af2" /><path d="M677.647059 272.323765c13.432471 0 24.515765 10.029176 26.142117 23.04l0.210824 3.312941v158.117647a26.352941 26.352941 0 0 1-26.352941 26.352941 148.871529 148.871529 0 0 0-111.134118 49.573647A148.660706 148.660706 0 0 0 528.323765 632.470588c0 8.583529 0.722824 17.076706 2.108235 25.389177a149.504 149.504 0 0 0 73.667765 104.628706 26.352941 26.352941 0 0 1-5.360941 48.128c-50.778353 15.36-115.832471 23.883294-184.621177 23.883294-6.415059 0-12.739765-0.060235-19.064471-0.210824l-18.703058-0.602353-18.371765-1.024c-6.023529-0.391529-12.047059-0.873412-17.950118-1.415529l-17.498353-1.807059a652.348235 652.348235 0 0 1-25.359058-3.433412l-16.26353-2.770823-15.661176-3.132236c-81.889882-17.679059-137.547294-50.898824-140.860236-95.563294l-0.150588-4.21647v-421.647059a26.352941 26.352941 0 0 1 52.495059-3.312941l0.210823 3.312941v421.647059c0 12.137412 22.949647 26.292706 60.717177 37.948235l11.745882 3.433412c4.065882 1.084235 8.252235 2.168471 12.589177 3.222588l13.402353 3.041882 14.125176 2.800942 14.817883 2.56 7.649882 1.204705 15.751529 2.108236 8.131765 0.903529 16.564706 1.626353 17.106823 1.264941c14.456471 0.903529 29.334588 1.355294 44.574118 1.355294 35.930353 0 70.625882-2.469647 102.219294-7.107764l15.390118-2.499765-4.156235-4.427294a201.697882 201.697882 0 0 1-47.49553-92.882824l-1.566118-8.131764A203.264 203.264 0 0 1 475.617882 632.470588c0-50.507294 18.612706-98.183529 51.681883-134.987294a201.577412 201.577412 0 0 1 116.043294-64.150588l7.951059-1.174588V298.676706c0-13.432471 10.059294-24.545882 23.04-26.172235l3.312941-0.180706z" fill="#568af2" /><path d="M414.117647 184.470588c-160.015059 0-289.882353 43.279059-289.882353 114.206118 0 46.802824 56.560941 81.558588 141.040941 99.779765l15.661177 3.132235 16.233412 2.770823c8.252235 1.295059 16.715294 2.409412 25.359058 3.433412l17.498353 1.807059c5.903059 0.542118 11.896471 1.024 17.950118 1.415529l18.371765 1.024 18.703058 0.602353a872.990118 872.990118 0 0 0 38.128942 0l18.703058-0.602353 18.371765-1.024c6.023529-0.391529 12.047059-0.873412 17.950118-1.415529l17.498353-1.807059c8.643765-0.993882 17.106824-2.138353 25.359059-3.433412l16.263529-2.770823 15.661176-3.132235c84.449882-18.221176 141.010824-53.007059 141.010824-99.779765 0-70.927059-129.867294-114.206118-289.882353-114.206118z m0 52.705883c21.323294 0 42.014118 0.933647 61.680941 2.620235l16.564706 1.626353c10.902588 1.204706 21.443765 2.620235 31.533177 4.21647l14.817882 2.56 7.168 1.355295 13.763765 2.951529 12.980706 3.132235c4.216471 1.084235 8.282353 2.198588 12.197647 3.312941l11.324235 3.523765c7.228235 2.379294 13.884235 4.848941 19.877647 7.378824l8.432941 3.824941c17.136941 8.342588 26.834824 17.076706 26.834824 24.997647 0 12.137412-22.949647 26.292706-60.717177 37.948235l-11.745882 3.433412a437.609412 437.609412 0 0 1-12.589177 3.222588l-13.402353 3.041883-14.125176 2.800941-14.817882 2.56a626.447059 626.447059 0 0 1-7.649883 1.204706l-15.751529 2.108235-8.131765 0.903529-16.564706 1.626353-17.106823 1.264941a728.244706 728.244706 0 0 1-89.148236 0l-17.106823-1.264941-16.564706-1.596235c-2.740706-0.301176-5.421176-0.602353-8.131765-0.963765l-15.751529-2.108235a626.447059 626.447059 0 0 1-7.649882-1.174588l-14.817883-2.56-14.155294-2.800941-13.372235-3.011765a437.609412 437.609412 0 0 1-12.589177-3.252706l-11.745882-3.433412c-37.767529-11.655529-60.717176-25.810824-60.717177-37.948235 0-7.920941 9.697882-16.655059 26.864942-24.997647l8.432941-3.824941c5.963294-2.529882 12.619294-4.999529 19.877647-7.378824l11.294118-3.493647c1.957647-0.602353 3.975529-1.144471 5.993411-1.686588l12.589177-3.252706 6.625882-1.536 13.733647-2.951529 7.168-1.355295 14.817883-2.56c10.089412-1.596235 20.630588-3.011765 31.503058-4.21647l16.594824-1.626353a723.727059 723.727059 0 0 1 52.585412-2.56l9.095529-0.060235zM150.588235 553.411765c13.432471 0 24.515765 10.059294 26.142118 23.04l0.210823 3.312941c0 10.330353 16.564706 22.106353 44.754824 32.557176l10.390588 3.614118 5.571765 1.807059 11.745882 3.403294c4.065882 1.114353 8.252235 2.198588 12.589177 3.252706l13.402353 3.011765c2.288941 0.512 4.608 0.993882 6.957176 1.445647l14.486588 2.710588c4.939294 0.843294 9.999059 1.626353 15.149177 2.409412l15.751529 2.108235 16.353883 1.807059 16.865882 1.415529c17.076706 1.264941 34.876235 1.957647 53.157647 1.957647 30.147765 0 59.542588-1.746824 87.190588-5.12a26.352941 26.352941 0 1 1 6.354824 52.314353c-29.756235 3.614118-61.289412 5.511529-93.545412 5.51153-160.015059 0-289.882353-43.309176-289.882353-114.206118 0-14.546824 11.806118-26.352941 26.352941-26.352941zM150.588235 412.852706c13.432471 0 24.515765 10.059294 26.142118 23.070118l0.210823 3.312941c0 7.860706 9.697882 16.624941 26.864942 24.997647l8.432941 3.794823c5.963294 2.529882 12.619294 4.999529 19.877647 7.378824l11.294118 3.493647c1.957647 0.602353 3.975529 1.144471 5.993411 1.686588l12.589177 3.252706 6.625882 1.536 13.733647 2.921412 7.168 1.385412 14.817883 2.56c10.089412 1.596235 20.630588 3.011765 31.503058 4.21647l16.594824 1.626353c19.666824 1.686588 40.357647 2.620235 61.680941 2.620235 45.688471 0 89.479529-4.005647 127.759059-11.444706a26.352941 26.352941 0 1 1 10.059294 51.712c-41.652706 8.131765-88.847059 12.438588-137.818353 12.438589-160.015059 0-289.882353-43.279059-289.882353-114.206118 0-14.546824 11.806118-26.352941 26.352941-26.352941zM748.995765 561.121882c9.426824 9.456941 10.24 24.244706 2.349176 34.575059l-2.349176 2.710588L714.902588 632.470588l34.093177 34.063059a26.352941 26.352941 0 0 1-34.575059 39.634824l-2.710588-2.349177-34.063059-34.093176-34.063059 34.093176a26.352941 26.352941 0 0 1-39.634824-34.575059l2.349177-2.710588L640.391529 632.470588l-34.093176-34.063059a26.352941 26.352941 0 0 1 34.575059-39.634823l2.710588 2.349176 34.063059 34.093177 34.063059-34.093177a26.352941 26.352941 0 0 1 37.285647 0z" fill="#568af2" /></svg>