<svg class="icon" style="width: 1em;height: 1em;vertical-align: middle;fill: currentColor;overflow: hidden;" viewBox="0 0 1024 1024" version="1.1" xmlns="http://www.w3.org/2000/svg" width="32" height="32"><path d="M0 0h1024v1024H0z" fill="#568af2" fill-opacity="0" /><path d="M527.058824 581.029647c13.432471 0 24.515765 10.029176 26.142117 23.04l0.210824 3.312941v105.411765a26.352941 26.352941 0 0 1-52.495059 3.312941l-0.210824-3.312941v-105.411765c0-14.576941 11.806118-26.352941 26.352942-26.352941zM456.794353 756.705882a26.352941 26.352941 0 0 1 3.312941 52.495059l-3.312941 0.210824H210.823529a26.352941 26.352941 0 0 1-3.312941-52.495059l3.312941-0.210824h245.970824zM843.294118 756.705882a26.352941 26.352941 0 0 1 3.312941 52.495059l-3.312941 0.210824h-245.970824a26.352941 26.352941 0 0 1-3.312941-52.495059l3.312941-0.210824H843.294118z" fill="#568af2" /><path d="M527.058824 686.441412a96.617412 96.617412 0 1 0 0 193.234823 96.617412 96.617412 0 0 0 0-193.234823z m0 52.705882a43.911529 43.911529 0 1 1 0 87.823059 43.911529 43.911529 0 0 1 0-87.823059zM790.588235 212.088471c13.432471 0 24.515765 10.029176 26.142118 23.04l0.210823 3.312941v281.088c0 70.896941-129.867294 114.206118-289.882352 114.206117-156.822588 0-284.672-41.562353-289.731765-109.989647l-0.150588-4.21647V238.441412a26.352941 26.352941 0 0 1 52.495058-3.312941l0.210824 3.312941v281.088c0 10.330353 16.564706 22.106353 44.754823 32.557176l10.390589 3.614118 5.571764 1.807059 11.745883 3.403294c4.065882 1.114353 8.252235 2.198588 12.589176 3.252706l13.402353 3.011764c2.288941 0.512 4.608 0.993882 6.957177 1.445647l14.486588 2.710589c4.939294 0.843294 9.999059 1.626353 15.149176 2.409411l15.75153 2.108236 16.353882 1.807059 16.865882 1.415529a726.889412 726.889412 0 0 0 106.315295 0l16.865882-1.445647 16.353882-1.807059 15.75153-2.108235c5.150118-0.752941 10.209882-1.536 15.149176-2.409412l14.456471-2.680471 6.987294-1.415529 13.402353-3.041882c4.336941-1.054118 8.523294-2.138353 12.589176-3.252706l11.745883-3.433412 5.571764-1.746823 10.390589-3.644236c26.503529-9.848471 42.767059-20.841412 44.574117-30.72l0.180706-1.837176V238.441412c0-14.576941 11.806118-26.352941 26.352941-26.352941z" fill="#568af2" /><path d="M790.588235 352.617412c14.546824 0 26.352941 11.806118 26.352941 26.352941 0 70.927059-129.867294 114.206118-289.882352 114.206118s-289.882353-43.279059-289.882353-114.206118a26.352941 26.352941 0 0 1 52.495058-3.312941l0.210824 3.312941c0 7.890824 9.697882 16.655059 26.864941 24.997647l8.432941 3.824941c5.963294 2.529882 12.619294 4.999529 19.877647 7.378824l11.294118 3.493647c1.957647 0.602353 3.975529 1.144471 5.993412 1.686588l12.589176 3.252706 6.625883 1.536 13.733647 2.921412 7.168 1.385411 14.817882 2.56c10.089412 1.596235 20.630588 3.011765 31.503059 4.216471l16.594823 1.626353a725.082353 725.082353 0 0 0 123.361883 0l16.564706-1.626353c10.902588-1.204706 21.443765-2.620235 31.533176-4.216471l14.817882-2.56 7.168-1.385411 13.763765-2.921412 12.980706-3.132235c4.216471-1.084235 8.282353-2.198588 12.197647-3.312942l11.324235-3.523764c7.228235-2.379294 13.884235-4.848941 19.877647-7.378824l8.432942-3.824941c17.136941-8.342588 26.834824-17.106824 26.834823-24.997647 0-14.546824 11.806118-26.352941 26.352941-26.352941z" fill="#568af2" /><path d="M527.058824 124.235294c-160.015059 0-289.882353 43.279059-289.882353 114.206118 0 46.802824 56.560941 81.558588 141.040941 99.779764l15.661176 3.132236 16.233412 2.770823c8.252235 1.295059 16.715294 2.409412 25.359059 3.433412l17.498353 1.807059c5.903059 0.542118 11.896471 1.024 17.950117 1.415529l18.371765 1.024 18.703059 0.602353a872.990118 872.990118 0 0 0 38.128941 0l18.703059-0.602353 18.371765-1.024c6.023529-0.391529 12.047059-0.873412 17.950117-1.415529l17.498353-1.807059c8.643765-0.993882 17.106824-2.138353 25.359059-3.433412l16.263529-2.770823 15.661177-3.132236c84.449882-18.221176 141.010824-53.007059 141.010823-99.779764 0-70.927059-129.867294-114.206118-289.882352-114.206118z m0 52.705882c21.323294 0 42.014118 0.933647 61.680941 2.620236l16.564706 1.626353c10.902588 1.204706 21.443765 2.620235 31.533176 4.21647l14.817882 2.56 7.168 1.355294 13.763765 2.95153 12.980706 3.132235c4.216471 1.084235 8.282353 2.198588 12.197647 3.312941l11.324235 3.523765c7.228235 2.379294 13.884235 4.848941 19.877647 7.378824l8.432942 3.824941c17.136941 8.342588 26.834824 17.076706 26.834823 24.997647 0 12.137412-22.949647 26.292706-60.717176 37.948235l-11.745883 3.433412a437.609412 437.609412 0 0 1-12.589176 3.222588l-13.402353 3.041882-14.125177 2.800942-14.817882 2.56a626.447059 626.447059 0 0 1-7.649882 1.204705l-15.75153 2.108236-8.131764 0.903529-16.564706 1.626353-17.106824 1.264941a728.244706 728.244706 0 0 1-89.148235 0l-17.106824-1.264941-16.564706-1.596235c-2.740706-0.301176-5.421176-0.602353-8.131764-0.963765l-15.75153-2.108235a626.447059 626.447059 0 0 1-7.649882-1.174588l-14.817882-2.56-14.155294-2.800942-13.372236-3.011764a437.609412 437.609412 0 0 1-12.589176-3.252706l-11.745883-3.433412c-37.767529-11.655529-60.717176-25.810824-60.717176-37.948235 0-7.920941 9.697882-16.655059 26.864941-24.997647l8.432941-3.824941c5.963294-2.529882 12.619294-4.999529 19.877647-7.378824l11.294118-3.493647c1.957647-0.602353 3.975529-1.144471 5.993412-1.686588l12.589176-3.252706 6.625883-1.536 13.733647-2.95153 7.168-1.355294 14.817882-2.56c10.089412-1.596235 20.630588-3.011765 31.503059-4.21647l16.594823-1.626353a723.727059 723.727059 0 0 1 52.585412-2.56l9.09553-0.060236z" fill="#568af2" /><path d="M527.058824 124.235294c-160.015059 0-289.882353 43.279059-289.882353 114.206118 0 46.802824 56.560941 81.558588 141.040941 99.779764l15.661176 3.132236 16.233412 2.770823c8.252235 1.295059 16.715294 2.409412 25.359059 3.433412l17.498353 1.807059c5.903059 0.542118 11.896471 1.024 17.950117 1.415529l18.371765 1.024 18.703059 0.602353a872.990118 872.990118 0 0 0 38.128941 0l18.703059-0.602353 18.371765-1.024c6.023529-0.391529 12.047059-0.873412 17.950117-1.415529l17.498353-1.807059c8.643765-0.993882 17.106824-2.138353 25.359059-3.433412l16.263529-2.770823 15.661177-3.132236c84.449882-18.221176 141.010824-53.007059 141.010823-99.779764 0-70.927059-129.867294-114.206118-289.882352-114.206118z m0 52.705882c21.323294 0 42.014118 0.933647 61.680941 2.620236l16.564706 1.626353c10.902588 1.204706 21.443765 2.620235 31.533176 4.21647l14.817882 2.56 7.168 1.355294 13.763765 2.95153 12.980706 3.132235c4.216471 1.084235 8.282353 2.198588 12.197647 3.312941l11.324235 3.523765c7.228235 2.379294 13.884235 4.848941 19.877647 7.378824l8.432942 3.824941c17.136941 8.342588 26.834824 17.076706 26.834823 24.997647 0 12.137412-22.949647 26.292706-60.717176 37.948235l-11.745883 3.433412a437.609412 437.609412 0 0 1-12.589176 3.222588l-13.402353 3.041882-14.125177 2.800942-14.817882 2.56a626.447059 626.447059 0 0 1-7.649882 1.204705l-15.75153 2.108236-8.131764 0.903529-16.564706 1.626353-17.106824 1.264941a728.244706 728.244706 0 0 1-89.148235 0l-17.106824-1.264941-16.564706-1.596235c-2.740706-0.301176-5.421176-0.602353-8.131764-0.963765l-15.75153-2.108235a626.447059 626.447059 0 0 1-7.649882-1.174588l-14.817882-2.56-14.155294-2.800942-13.372236-3.011764a437.609412 437.609412 0 0 1-12.589176-3.252706l-11.745883-3.433412c-37.767529-11.655529-60.717176-25.810824-60.717176-37.948235 0-7.920941 9.697882-16.655059 26.864941-24.997647l8.432941-3.824941c5.963294-2.529882 12.619294-4.999529 19.877647-7.378824l11.294118-3.493647c1.957647-0.602353 3.975529-1.144471 5.993412-1.686588l12.589176-3.252706 6.625883-1.536 13.733647-2.95153 7.168-1.355294 14.817882-2.56c10.089412-1.596235 20.630588-3.011765 31.503059-4.21647l16.594823-1.626353a723.727059 723.727059 0 0 1 52.585412-2.56l9.09553-0.060236z" fill="#568af2" /></svg>