<svg class="icon" style="width: 1em;height: 1em;vertical-align: middle;fill: currentColor;overflow: hidden;" viewBox="0 0 1024 1024" version="1.1" xmlns="http://www.w3.org/2000/svg" width="32" height="32"><path d="M266.029176 336.323765a70.264471 70.264471 0 1 0 0-140.559059 70.264471 70.264471 0 0 0 0 140.559059zM512 336.323765A70.264471 70.264471 0 1 0 512 195.764706a70.264471 70.264471 0 0 0 0 140.559059zM757.970824 336.323765a70.264471 70.264471 0 1 0 0-140.559059 70.264471 70.264471 0 0 0 0 140.559059zM266.029176 582.264471a70.264471 70.264471 0 1 0 0-140.528942 70.264471 70.264471 0 0 0 0 140.528942zM512 582.264471a70.264471 70.264471 0 1 0 0-140.528942 70.264471 70.264471 0 0 0 0 140.528942zM757.970824 582.264471a70.264471 70.264471 0 1 0 0-140.528942 70.264471 70.264471 0 0 0 0 140.528942zM266.029176 828.235294a70.264471 70.264471 0 1 0 0-140.559059 70.264471 70.264471 0 0 0 0 140.559059zM512 828.235294a70.264471 70.264471 0 1 0 0-140.559059 70.264471 70.264471 0 0 0 0 140.559059zM757.970824 828.235294a70.264471 70.264471 0 1 0 0-140.559059 70.264471 70.264471 0 0 0 0 140.559059z" fill="#568af2" /></svg>