<svg class="icon" style="width: 1em;height: 1em;vertical-align: middle;fill: currentColor;overflow: hidden;" viewBox="0 0 1024 1024" version="1.1" xmlns="http://www.w3.org/2000/svg" width="32" height="32"><path d="M814.441412 180.705882h-632.470588A61.500235 61.500235 0 0 0 120.470588 242.206118v456.764235c0 33.972706 27.527529 61.500235 61.500236 61.500235h632.470588a61.500235 61.500235 0 0 0 61.470117-61.500235V242.206118A61.500235 61.500235 0 0 0 814.441412 180.705882z m-245.970824 632.470589a26.352941 26.352941 0 0 1 3.312941 52.495058l-3.312941 0.210824h-140.559059a26.352941 26.352941 0 0 1-3.312941-52.495059l3.312941-0.210823h140.559059z m140.559059 0a26.352941 26.352941 0 0 1 3.312941 52.495058l-3.312941 0.210824h-35.147294a26.352941 26.352941 0 0 1-3.312941-52.495059l3.312941-0.210823h35.147294z m-527.058823 0a26.352941 26.352941 0 0 1 3.312941 52.495058l-3.312941 0.210824H146.823529a26.352941 26.352941 0 0 1-3.312941-52.495059l3.312941-0.210823h35.147295z m667.587764 0a26.352941 26.352941 0 0 1 3.312941 52.495058l-3.312941 0.210824h-35.117176a26.352941 26.352941 0 0 1-3.312941-52.495059l3.312941-0.210823h35.117176z m-527.058823 0a26.352941 26.352941 0 0 1 3.312941 52.495058l-3.312941 0.210824H287.382588a26.352941 26.352941 0 0 1-3.312941-52.495059l3.312941-0.210823h35.117177z" fill="#568af2" /></svg>