<svg class="icon" style="width: 1em;height: 1em;vertical-align: middle;fill: currentColor;overflow: hidden;" viewBox="0 0 1024 1024" version="1.1" xmlns="http://www.w3.org/2000/svg" width="32" height="32"><path d="M839.529412 373.970824H347.617882a26.352941 26.352941 0 0 0-26.352941 26.352941v245.940706c0 14.576941 11.776 26.352941 26.352941 26.352941h491.91153a26.352941 26.352941 0 0 0 26.352941-26.352941v-245.940706a26.352941 26.352941 0 0 0-26.352941-26.352941zM207.058824 180.705882c13.432471 0 24.515765 10.059294 26.142117 23.04l0.210824 3.312942v632.470588a26.352941 26.352941 0 0 1-52.495059 3.312941L180.705882 839.529412v-632.470588C180.705882 192.512 192.512 180.705882 207.058824 180.705882z" fill="#568af2" /></svg>