<svg class="icon" style="width: 1em;height: 1em;vertical-align: middle;fill: currentColor;overflow: hidden;" viewBox="0 0 1024 1024" version="1.1" xmlns="http://www.w3.org/2000/svg" width="32" height="32"><path d="M518.264471 256c82.642824 0 160.135529 32.768 217.419294 90.051765a306.507294 306.507294 0 0 1 90.051764 217.389176c0 82.642824-32.798118 160.135529-90.051764 217.419294a306.537412 306.537412 0 0 1-217.419294 90.051765 306.507294 306.507294 0 0 1-217.389177-90.051765A306.507294 306.507294 0 0 1 210.823529 563.440941c0-82.612706 32.768-160.135529 90.051765-217.389176a306.507294 306.507294 0 0 1 217.389177-90.051765z m0-105.411765c110.983529 0 215.04 44.001882 291.96047 120.922353a26.352941 26.352941 0 0 1-37.285647 37.285647 358.881882 358.881882 0 0 0-254.674823-105.502117 358.881882 358.881882 0 0 0-254.644706 105.502117 26.352941 26.352941 0 0 1-37.285647-37.285647A411.587765 411.587765 0 0 1 518.264471 150.588235z" fill="#568af2" /></svg>