<svg class="icon" style="width: 1em;height: 1em;vertical-align: middle;fill: currentColor;overflow: hidden;" viewBox="0 0 1024 1024" version="1.1" xmlns="http://www.w3.org/2000/svg" width="32" height="32"><path d="M616.146824 150.588235c32.436706 0 58.970353 25.088 61.319529 56.922353l0.180706 4.577883v131.734588h131.764706c32.406588 0 58.970353 25.118118 61.319529 56.922353l0.180706 4.577882v404.088471a61.500235 61.500235 0 0 1-56.922353 61.319529l-4.577882 0.180706H405.323294a61.500235 61.500235 0 0 1-61.319529-56.922353l-0.150589-4.577882-0.030117-131.764706H212.088471a61.500235 61.500235 0 0 1-61.31953-56.922353L150.588235 616.176941V212.088471c0-32.436706 25.088-58.970353 56.922353-61.31953L212.058353 150.588235h404.058353z m0 52.705883h-41.110589L203.294118 608.828235v7.318589c0 4.156235 2.891294 7.649882 6.77647 8.553411l2.017883 0.240941H288.225882L624.941176 254.584471V212.088471a8.794353 8.794353 0 0 0-8.794352-8.794353z m8.794352 129.626353l-265.487058 292.020705h104.478117l161.008941-177.121882v-77.131294-37.767529z m0 193.234823l-89.780705 98.785882h81.01647a8.794353 8.794353 0 0 0 8.523294-6.77647l0.240941-2.017882V526.155294zM503.506824 203.294118h-86.708706L203.294118 433.242353v97.551059L503.506824 203.294118z m-158.629648 0h-132.818823a8.794353 8.794353 0 0 0-8.523294 6.77647l-0.240941 2.017883v143.661176l141.583058-152.455529z" fill="#568af2" /></svg>