<svg class="icon" style="width: 1em;height: 1em;vertical-align: middle;fill: currentColor;overflow: hidden;" viewBox="0 0 1024 1024" version="1.1" xmlns="http://www.w3.org/2000/svg" width="32" height="32"><path d="M458.029176 210.823529c82.642824 0 160.135529 32.768 217.419295 90.051765a306.507294 306.507294 0 0 1 90.051764 217.389177c0 82.642824-32.798118 160.135529-90.051764 217.419294a306.537412 306.537412 0 0 1-217.419295 90.051764 306.507294 306.507294 0 0 1-217.389176-90.051764A306.507294 306.507294 0 0 1 150.588235 518.264471c0-82.612706 32.768-160.135529 90.051765-217.389177A306.507294 306.507294 0 0 1 458.029176 210.823529z m291.960471 15.510589a411.587765 411.587765 0 0 1 120.922353 291.930353c0 110.983529-44.032 215.04-120.922353 291.96047a26.352941 26.352941 0 0 1-37.285647-37.285647 358.881882 358.881882 0 0 0 105.502118-254.674823c0-96.828235-38.369882-187.542588-105.502118-254.674824a26.352941 26.352941 0 1 1 37.285647-37.255529z" fill="#568af2" /></svg>