<svg class="icon" style="width: 1em;height: 1em;vertical-align: middle;fill: currentColor;overflow: hidden;" viewBox="0 0 1024 1024" version="1.1" xmlns="http://www.w3.org/2000/svg" width="32" height="32"><path d="M603.617882 180.705882c8.854588 0 17.046588 4.457412 21.89553 11.715765l1.65647 2.861177L672.587294 286.117647h124.265412c41.622588 0 76.318118 30.870588 78.908235 70.716235l0.150588 4.818824v428.694588c0 40.508235-33.069176 72.944941-74.089411 75.384471l-4.969412 0.150588H199.529412c-41.622588 0-76.288-30.870588-78.908236-70.716235L120.470588 790.347294V361.652706c0-40.508235 33.099294-72.944941 74.089412-75.384471l4.969412-0.150588h124.265412l45.417411-90.834823a26.352941 26.352941 0 0 1 20.269177-14.366118l3.312941-0.210824h210.823529z m-245.970823 368.941177a26.352941 26.352941 0 0 0-26.142118 23.04l-0.210823 3.312941v140.559059l0.210823 3.312941a26.352941 26.352941 0 0 0 52.284235 0l0.210824-3.312941v-18.853647c29.816471 28.009412 70.023529 45.176471 114.206118 45.17647 21.684706 0 42.857412-4.126118 62.58447-12.107294a26.352941 26.352941 0 1 0-19.787294-48.880941 114.206118 114.206118 0 0 1-157.003294-105.893647 26.352941 26.352941 0 0 0-26.352941-26.352941z m281.088-140.559059a26.352941 26.352941 0 0 0-26.142118 23.070118l-0.210823 3.312941v18.823529a166.309647 166.309647 0 0 0-114.176-45.17647c-21.684706 0-42.887529 4.126118-62.614589 12.107294a26.352941 26.352941 0 0 0 19.787295 48.880941 114.206118 114.206118 0 0 1 156.852705 100.020706l0.150589 5.872941 0.210823 3.312941c1.505882 11.896471 10.932706 21.353412 22.859294 22.829177l3.312941 0.210823 3.312942-0.210823a26.352941 26.352941 0 0 0 22.829176-22.829177l0.180706-3.312941v-140.559059l-0.180706-3.312941a26.352941 26.352941 0 0 0-26.172235-23.04zM587.324235 233.411765h-178.266353l-26.352941 52.705882h230.972235l-26.352941-52.705882z" fill="#568af2" /></svg>