<svg class="icon" style="width: 1em;height: 1em;vertical-align: middle;fill: currentColor;overflow: hidden;" viewBox="0 0 1024 1024" version="1.1" xmlns="http://www.w3.org/2000/svg" width="32" height="32"><path d="M357.647059 120.470588c112.820706 0 164.472471 76.288 166.821647 160.828236l0.090353 6.083764v421.647059c0 86.919529-51.410824 166.881882-166.912 166.881882a26.352941 26.352941 0 1 1 0-52.705882c77.824 0 112.097882-49.603765 114.115765-108.634353l0.090352-5.541647v-421.647059c0-61.44-33.942588-114.206118-114.206117-114.206117a26.352941 26.352941 0 1 1 0-52.705883z" fill="#568af2" /><path d="M638.735059 120.470588a26.352941 26.352941 0 1 1 0 52.705883c-66.349176 0-111.314824 60.024471-114.05553 109.447529l-0.12047 4.758588v421.647059c0 61.409882 33.912471 114.176 114.176 114.176a26.352941 26.352941 0 0 1 0 52.705882c-112.790588 0-164.442353-76.288-166.821647-160.828235l-0.060236-6.053647v-421.647059c0-76.288 64.752941-166.912 166.881883-166.912z" fill="#568af2" /><path d="M621.176471 471.853176a26.352941 26.352941 0 0 1 3.312941 52.495059l-3.312941 0.210824h-245.970824a26.352941 26.352941 0 0 1-3.312941-52.525177l3.312941-0.180706h245.970824z" fill="#568af2" /></svg>