<svg class="icon" style="width: 1em;height: 1em;vertical-align: middle;fill: currentColor;overflow: hidden;" viewBox="0 0 1024 1024" version="1.1" xmlns="http://www.w3.org/2000/svg" width="32" height="32"><path d="M0 0h1024v1024H0z" fill="#568af2" fill-opacity="0" /><path d="M432.670118 184.470588c22.799059 0 40.719059 18.040471 42.767058 40.207059l0.180706 4.216471v105.020235a26.352941 26.352941 0 0 1-52.525176 3.312941l-0.180706-3.312941-0.030118-96.737882H176.941176v579.764705h245.940706v-96.737882c0-13.462588 10.059294-24.545882 23.070118-26.172235l3.312941-0.180706c13.432471 0 24.515765 10.029176 26.142118 23.04l0.210823 3.312941V825.223529c0 22.648471-16.564706 42.014118-38.731294 44.212706l-4.21647 0.210824H167.152941c-22.829176 0-40.719059-18.040471-42.767059-40.207059l-0.180706-4.216471V228.894118c0-22.648471 16.564706-42.014118 38.731295-44.212706l4.21647-0.210824h265.487059zM836.728471 184.470588c22.829176 0 40.749176 18.040471 42.767058 40.207059l0.180706 4.216471v596.329411c0 22.648471-16.564706 42.014118-38.731294 44.212706l-4.21647 0.210824h-265.456942c-22.829176 0-40.749176-18.040471-42.767058-40.207059l-0.180706-4.216471v-105.020235a26.352941 26.352941 0 0 1 52.495059-3.312941l0.210823 3.312941-0.030118 96.737882h245.970824V237.176471h-245.970824v96.737882a26.352941 26.352941 0 0 1-23.04 26.172235l-3.312941 0.180706a26.352941 26.352941 0 0 1-26.142117-23.04l-0.180706-3.312941V228.894118c0-22.648471 16.564706-42.014118 38.731294-44.212706l4.21647-0.210824h265.456942z" fill="#568af2" /><path d="M299.911529 773.029647a35.147294 35.147294 0 1 0 0-70.294588 35.147294 35.147294 0 0 0 0 70.294588zM704 773.029647a35.147294 35.147294 0 1 0 0-70.294588 35.147294 35.147294 0 0 0 0 70.294588zM642.499765 491.911529a26.352941 26.352941 0 0 1 3.312941 52.525177l-3.312941 0.180706H361.411765a26.352941 26.352941 0 0 1-3.312941-52.495059l3.312941-0.210824h281.088z" fill="#568af2" /><path d="M539.949176 415.774118a26.352941 26.352941 0 0 1 34.575059-2.349177l2.710589 2.349177 83.847529 83.877647c9.426824 9.426824 10.24 24.214588 2.349176 34.544941l-2.349176 2.710588-83.847529 83.84753a26.352941 26.352941 0 0 1-39.634824-34.575059l2.349176-2.710589 65.204706-65.204705-65.204706-65.204706a26.352941 26.352941 0 0 1 0-37.285647z" fill="#568af2" /></svg>