<svg class="icon" style="width: 1em;height: 1em;vertical-align: middle;fill: currentColor;overflow: hidden;" viewBox="0 0 1024 1024" version="1.1" xmlns="http://www.w3.org/2000/svg" width="32" height="32"><path d="M435.440941 120.470588a114.206118 114.206118 0 0 0-114.176 114.206118v175.676235a114.206118 114.206118 0 0 0 228.382118 0V234.676706A114.206118 114.206118 0 0 0 435.440941 120.470588z m0 52.705883c33.972706 0 61.500235 27.527529 61.500235 61.500235v175.676235a61.500235 61.500235 0 0 1-122.970352 0V234.676706c0-33.972706 27.527529-61.500235 61.470117-61.500235zM751.676235 120.470588a114.206118 114.206118 0 0 0-114.176 114.206118v175.676235a114.206118 114.206118 0 0 0 228.382118 0V234.676706A114.206118 114.206118 0 0 0 751.676235 120.470588z m0 52.705883c33.972706 0 61.500235 27.527529 61.500236 61.500235v175.676235a61.500235 61.500235 0 0 1-122.970353 0V234.676706c0-33.972706 27.527529-61.500235 61.470117-61.500235zM715.474824 620.122353a26.352941 26.352941 0 0 1 34.575058-2.379294l2.710589 2.379294 105.411764 105.411765c9.426824 9.426824 10.24 24.214588 2.349177 34.544941l-2.349177 2.710588-105.411764 105.411765a26.352941 26.352941 0 0 1-39.634824-34.575059l2.349177-2.710588 86.768941-86.768941-86.738824-86.738824a26.352941 26.352941 0 0 1-2.379294-34.605176l2.349177-2.710589zM224.617412 471.853176a26.352941 26.352941 0 0 1 3.312941 52.495059l-3.312941 0.210824h-17.558588a26.352941 26.352941 0 0 1-3.312942-52.525177l3.312942-0.180706h17.558588z" fill="#568af2" /><path d="M839.529412 717.793882a26.352941 26.352941 0 0 1 3.312941 52.525177l-3.312941 0.180706H435.440941a26.352941 26.352941 0 0 1-3.312941-52.495059l3.312941-0.210824h404.088471z" fill="#568af2" /></svg>