<svg class="icon" style="width: 1em;height: 1em;vertical-align: middle;fill: currentColor;overflow: hidden;" viewBox="0 0 1024 1024" version="1.1" xmlns="http://www.w3.org/2000/svg" width="32" height="32"><path d="M498.206118 120.470588c101.496471 0 196.728471 40.267294 267.083294 110.622118a376.560941 376.560941 0 0 1 110.622117 267.113412c0 101.496471-40.267294 196.728471-110.622117 267.083294a376.560941 376.560941 0 0 1-267.083294 110.622117c-101.526588 0-196.728471-40.267294-267.113412-110.622117A376.560941 376.560941 0 0 1 120.470588 498.206118c0-101.526588 40.267294-196.728471 110.622118-267.113412A376.560941 376.560941 0 0 1 498.206118 120.470588zM252.235294 471.853176a26.352941 26.352941 0 0 0-26.352941 26.352942c0 73.185882 29.033412 141.824 79.751529 192.542117a271.510588 271.510588 0 0 0 192.572236 79.75153 26.352941 26.352941 0 0 0 0-52.705883 218.804706 218.804706 0 0 1-155.286589-64.301176 218.804706 218.804706 0 0 1-64.331294-155.286588 26.352941 26.352941 0 0 0-26.352941-26.352942z" fill="#568af2" /></svg>