<svg class="icon" style="width: 1em;height: 1em;vertical-align: middle;fill: currentColor;overflow: hidden;" viewBox="0 0 1024 1024" version="1.1" xmlns="http://www.w3.org/2000/svg" width="32" height="32"><path d="M839.529412 301.176471a26.352941 26.352941 0 0 1 3.312941 52.495058l-3.312941 0.210824h-632.470588a26.352941 26.352941 0 0 1-3.312942-52.495059l3.312942-0.210823h632.470588zM628.705882 476.852706a26.352941 26.352941 0 0 1 3.312942 52.525176l-3.312942 0.180706h-421.647058a26.352941 26.352941 0 0 1-3.312942-52.495059l3.312942-0.210823h421.647058zM347.617882 652.559059a26.352941 26.352941 0 0 1 3.312942 52.495059l-3.312942 0.210823H207.058824a26.352941 26.352941 0 0 1-3.312942-52.525176l3.312942-0.180706h140.559058z" fill="#568af2" /></svg>