<svg class="icon" style="width: 1em;height: 1em;vertical-align: middle;fill: currentColor;overflow: hidden;" viewBox="0 0 1024 1024" version="1.1" xmlns="http://www.w3.org/2000/svg" width="32" height="32"><path d="M564.826353 254.584471a26.352941 26.352941 0 0 1 3.312941 52.495058l-3.312941 0.210824H242.206118a8.794353 8.794353 0 0 0-8.553412 6.746353l-0.240941 2.017882v491.941647c0 4.156235 2.891294 7.619765 6.77647 8.553412l2.017883 0.210824h491.911529a8.794353 8.794353 0 0 0 8.553412-6.746353l0.240941-2.017883V474.172235a26.352941 26.352941 0 0 1 52.495059-3.312941l0.210823 3.312941v333.824a61.500235 61.500235 0 0 1-56.922353 61.31953l-4.577882 0.150588H242.206118a61.500235 61.500235 0 0 1-61.31953-56.892235L180.705882 807.996235V316.054588c0-32.406588 25.088-58.970353 56.922353-61.319529l4.577883-0.150588h322.620235z m-54.964706 196.668235a26.352941 26.352941 0 0 1 43.670588-1.144471l131.794824 185.012706a26.352941 26.352941 0 0 1-21.473883 41.652706H312.470588a26.352941 26.352941 0 0 1-21.082353-42.164706l105.411765-141.071059a26.352941 26.352941 0 0 1 39.725176-2.861176l29.455059 29.455059zM769.174588 180.705882c13.432471 0 24.515765 10.059294 26.142118 23.04l0.210823 3.312942-0.030117 47.495529h44.032a26.352941 26.352941 0 0 1 3.312941 52.525176l-3.312941 0.210824-44.032-0.030118v40.357647a26.352941 26.352941 0 0 1-52.495059 3.312942l-0.180706-3.312942-0.030118-40.357647h-43.791058a26.352941 26.352941 0 0 1-3.312942-52.495059l3.312942-0.180705 43.791058-0.030118V207.058824c0-14.546824 11.806118-26.352941 26.383059-26.352942z" fill="#568af2" /></svg>