<svg class="icon" style="width: 1em;height: 1em;vertical-align: middle;fill: currentColor;overflow: hidden;" viewBox="0 0 1024 1024" version="1.1" xmlns="http://www.w3.org/2000/svg" width="32" height="32"><path d="M849.558588 486.912a26.352941 26.352941 0 0 1 3.312941 52.495059l-3.312941 0.210823H146.823529a26.352941 26.352941 0 0 1-3.312941-52.525176l3.312941-0.180706h702.735059zM287.382588 240.941176a26.352941 26.352941 0 0 1 3.312941 52.495059l-3.312941 0.210824H217.088a26.352941 26.352941 0 0 1-3.312941-52.495059L217.118118 240.941176h70.294588zM568.470588 240.941176a26.352941 26.352941 0 0 1 3.312941 52.495059l-3.312941 0.210824h-140.559059a26.352941 26.352941 0 0 1-3.312941-52.495059l3.312941-0.210824h140.559059zM779.294118 240.941176a26.352941 26.352941 0 0 1 3.312941 52.495059l-3.312941 0.210824h-70.264471a26.352941 26.352941 0 0 1-3.312941-52.495059l3.312941-0.210824h70.264471zM287.382588 732.852706a26.352941 26.352941 0 0 1 3.312941 52.525176l-3.312941 0.180706H217.088a26.352941 26.352941 0 0 1-3.312941-52.495059l3.312941-0.210823h70.294588zM568.470588 732.852706a26.352941 26.352941 0 0 1 3.312941 52.525176l-3.312941 0.180706h-140.559059a26.352941 26.352941 0 0 1-3.312941-52.495059l3.312941-0.210823h140.559059zM779.294118 732.852706a26.352941 26.352941 0 0 1 3.312941 52.525176l-3.312941 0.180706h-70.264471a26.352941 26.352941 0 0 1-3.312941-52.495059l3.312941-0.210823h70.264471z" fill="#568af2" /></svg>