<svg class="icon" style="width: 1em;height: 1em;vertical-align: middle;fill: currentColor;overflow: hidden;" viewBox="0 0 1024 1024" version="1.1" xmlns="http://www.w3.org/2000/svg" width="32" height="32"><path d="M800.436706 190.102588c11.444706 9.005176 13.402353 25.569882 4.427294 37.014588l-251.422118 318.584471-17.709176 22.166588 20.48 25.871059 63.397647 78.908235a131.824941 131.824941 0 0 1 260.065882 30.117647 131.493647 131.493647 0 0 1-78.516706 120.560942 132.336941 132.336941 0 0 1-16.805647 6.083764l-2.590117 0.692706a105.231059 105.231059 0 0 1-4.276706 1.084236l-1.445647 0.301176a103.966118 103.966118 0 0 1-10.360471 1.837176 198.746353 198.746353 0 0 1-9.577412 0.90353c-2.710588 0.210824-5.421176 0.301176-8.192 0.301176l4.969412-0.12047c-1.204706 0.060235-2.439529 0.090353-3.674353 0.090353h-1.295059a134.535529 134.535529 0 0 1-28.129882-3.011765l-1.445647-0.301176a108.272941 108.272941 0 0 1-4.367059-1.084236l-2.439529-0.692706a91.798588 91.798588 0 0 1-6.02353-1.867294 131.162353 131.162353 0 0 1-36.623058-19.335529l-1.385412-1.084235a135.047529 135.047529 0 0 1-13.251765-11.745883l-3.523765-3.674353-11.444706-12.8-22.196705-26.292706-26.051765-31.653647-70.806588-87.823059-18.221177-22.979764-33.008941 41.411764-68.969412 85.082353-31.171764 37.345883-11.65553 13.342117-2.590118 2.831059a132.547765 132.547765 0 0 1-3.373176 3.644236l-0.963765 0.993882-1.084235 1.114353a132.547765 132.547765 0 0 1-43.068235 28.702117l-1.807059 0.752942a149.142588 149.142588 0 0 1-5.933177 2.16847l-3.252705 1.054118-2.710589 0.813176-2.590117 0.692706a106.857412 106.857412 0 0 1-4.246589 1.084236l-1.445647 0.301176a104.96 104.96 0 0 1-10.270117 1.807059l-3.373177 0.421647a108.152471 108.152471 0 0 1-3.433412 0.331294l-2.831058 0.210824-3.644236 0.150588-4.577882 0.090353h-1.264941a132.517647 132.517647 0 0 1-3.734588-0.090353l-3.222589-0.150588a153.780706 153.780706 0 0 1-6.26447-0.542118l-3.373177-0.421647a89.961412 89.961412 0 0 1-6.023529-0.963765 106.435765 106.435765 0 0 1-4.216471-0.843294l-1.475764-0.301176a106.134588 106.134588 0 0 1-4.276706-1.054118l-2.56-0.722824-2.710589-0.813176-3.252705-1.054118a111.013647 111.013647 0 0 1-3.553883-1.264941l-1.204706-0.451765-3.011764-1.204706a131.041882 131.041882 0 0 1-15.299765-7.499294l-2.108235-1.204706a171.580235 171.580235 0 0 1-10.782118-7.228235 199.318588 199.318588 0 0 1-5.692235-4.427294l-1.807059-1.505882a131.433412 131.433412 0 0 1-45.929412-99.990589 131.764706 131.764706 0 0 1 260.065882-30.238117l53.820236-66.740706 30.238117-38.008471-68.005647-85.744941-200.222117-254.976a26.352941 26.352941 0 0 1 41.502117-32.466823l166.851765 212.630588 93.575529 118.151529 60.897883-76.559059 200.463059-254.283294a26.352941 26.352941 0 0 1 37.014588-4.427294z" fill="#568af2" /></svg>