<svg class="icon" style="width: 1em;height: 1em;vertical-align: middle;fill: currentColor;overflow: hidden;" viewBox="0 0 1024 1024" version="1.1" xmlns="http://www.w3.org/2000/svg" width="32" height="32"><path d="M338.672941 279.100235a26.352941 26.352941 0 0 1 40.237177 33.882353l-2.288942 2.710588-192.542117 199.439059 191.849412 184.952471a26.352941 26.352941 0 0 1 3.011764 34.514823l-2.319059 2.740706a26.352941 26.352941 0 0 1-34.514823 3.011765l-2.740706-2.319059-210.823529-203.233882a26.352941 26.352941 0 0 1-3.011765-34.544941l2.319059-2.710589 210.823529-218.443294zM620.423529 278.437647a26.352941 26.352941 0 0 1 34.635295-1.746823l2.650352 2.409411 210.82353 218.413177a26.352941 26.352941 0 0 1 1.746823 34.635294l-2.409411 2.650353-210.82353 203.233882a26.352941 26.352941 0 0 1-39.002353-35.297882l2.409412-2.650353 191.849412-184.922353-192.512-199.439059a26.352941 26.352941 0 0 1-1.746824-34.635294l2.409412-2.650353zM498.206118 358.912c13.432471 0 24.515765 10.029176 26.142117 23.04l0.210824 3.312941v245.940706a26.352941 26.352941 0 0 1-52.525177 3.312941l-0.180706-3.312941v-245.940706c0-14.576941 11.776-26.352941 26.352942-26.352941z" fill="#568af2" /><path d="M584.975059 507.181176a26.352941 26.352941 0 0 1 39.634823 34.544942l-2.379294 2.710588-105.411764 105.411765a26.352941 26.352941 0 0 1-34.544942 2.349176l-2.710588-2.349176-105.411765-105.411765a26.352941 26.352941 0 0 1 34.575059-39.634824l2.710588 2.379294 86.738824 86.738824 86.799059-86.738824z" fill="#568af2" /></svg>