<svg class="icon" style="width: 1em;height: 1em;vertical-align: middle;fill: currentColor;overflow: hidden;" viewBox="0 0 1024 1024" version="1.1" xmlns="http://www.w3.org/2000/svg" width="32" height="32"><path d="M853.323294 237.176471a26.352941 26.352941 0 0 1 3.312941 52.495058l-3.312941 0.210824h-421.647059a26.352941 26.352941 0 0 1-3.312941-52.495059l3.312941-0.210823h421.647059z m0 245.970823a26.352941 26.352941 0 0 1 3.312941 52.495059l-3.312941 0.210823h-421.647059a26.352941 26.352941 0 0 1-3.312941-52.525176l3.312941-0.180706h421.647059z m0 245.940706a26.352941 26.352941 0 0 1 3.312941 52.525176l-3.312941 0.180706h-421.647059a26.352941 26.352941 0 0 1-3.312941-52.495058l3.312941-0.210824h421.647059z m-632.470588-316.235294a96.617412 96.617412 0 1 0 0 193.264941 96.617412 96.617412 0 0 0 0-193.264941z m0 245.970823a96.617412 96.617412 0 1 0 0 193.264942 96.617412 96.617412 0 0 0 0-193.264942zM290.063059 192.180706a26.352941 26.352941 0 0 1 39.634823 34.575059l-2.349176 2.710588-105.411765 105.411765a26.352941 26.352941 0 0 1-34.575059 2.349176l-2.710588-2.349176-52.705882-52.705883A26.352941 26.352941 0 0 1 166.550588 242.537412l2.710588 2.349176L203.294118 278.979765l86.768941-86.799059z" fill="#568af2" /></svg>