<svg class="icon" style="width: 1em;height: 1em;vertical-align: middle;fill: currentColor;overflow: hidden;" viewBox="0 0 1024 1024" version="1.1" xmlns="http://www.w3.org/2000/svg" width="32" height="32"><path d="M827.632941 660.540235l0.150588 1.325177a26.322824 26.322824 0 0 1 0.060236 1.234823v141.281883a26.352941 26.352941 0 0 1-52.495059 3.312941l-0.210824-3.312941v-54.121412c-63.216941 72.282353-154.503529 115.621647-254.58447 115.621647-131.433412 0-249.524706-74.691765-306.959059-190.313412a26.352941 26.352941 0 1 1 47.194353-23.461647A289.852235 289.852235 0 0 0 520.553412 813.176471c95.623529 0 181.609412-46.742588 234.767059-122.970353h-72.944942a26.352941 26.352941 0 0 1-3.312941-52.525177l3.312941-0.180706h120.229647a26.202353 26.202353 0 0 1 1.656471 0.120471l-2.770823-0.120471a26.503529 26.503529 0 0 1 11.173647 2.469647l0.542117 0.301177c0.903529 0.421647 1.566118 0.783059 2.198588 1.204706l-2.198588-1.204706a26.593882 26.593882 0 0 1 11.384471 10.902588l0.150588 0.301177a26.202353 26.202353 0 0 1 2.891294 9.035294z m-268.528941-257.596235l3.915294 3.584 74.541177 74.541176c22.738824 22.738824 23.943529 58.88 3.584 83.034353l-3.614118 3.915295-74.511059 74.541176a61.500235 61.500235 0 0 1-83.06447 3.614118l-3.915295-3.614118-74.541176-74.541176a61.500235 61.500235 0 0 1-3.584-83.034353l3.614118-3.915295 74.511058-74.541176a61.500235 61.500235 0 0 1 83.064471-3.614118zM518.144 180.705882c131.403294 0 249.494588 74.691765 306.928941 190.313412a26.352941 26.352941 0 1 1-47.194353 23.461647 289.852235 289.852235 0 0 0-259.764706-161.069176c-95.593412 0-181.609412 46.742588-234.767058 122.970353h72.944941a26.352941 26.352941 0 0 1 3.312941 52.525176l-3.312941 0.180706H236.122353a26.202353 26.202353 0 0 1-1.686588-0.120471l2.770823 0.120471a26.503529 26.503529 0 0 1-11.143529-2.469647l-0.602353-0.301177a25.871059 25.871059 0 0 1-2.168471-1.204705l2.198589 1.204705a26.593882 26.593882 0 0 1-10.752-9.788235 26.503529 26.503529 0 0 1-3.674353-10.480941l-0.060236-0.542118A26.322824 26.322824 0 0 1 210.823529 383.488V242.206118a26.352941 26.352941 0 0 1 52.495059-3.312942l0.210824 3.312942v54.121411C326.746353 224.045176 418.032941 180.705882 518.113882 180.705882z" fill="#568af2" /></svg>