<svg class="icon" style="width: 1em;height: 1em;vertical-align: middle;fill: currentColor;overflow: hidden;" viewBox="0 0 1024 1024" version="1.1" xmlns="http://www.w3.org/2000/svg" width="32" height="32"><path d="M814.441412 180.705882c33.942588 0 61.470118 27.527529 61.470117 61.500236v527.058823a61.500235 61.500235 0 0 1-61.470117 61.470118h-632.470588A61.500235 61.500235 0 0 1 120.470588 769.264941v-527.058823C120.470588 208.233412 147.998118 180.705882 181.970824 180.705882z m-190.885647 202.330353c-15.36-18.100706-46.290824-7.649882-46.290824 17.28753v210.823529l0.180706 3.312941a26.352941 26.352941 0 0 0 26.172235 23.04l3.312942-0.210823a26.352941 26.352941 0 0 0 23.04-26.142118l-0.030118-123.813647 92.28047 138.420706 1.987765 2.650353c15.36 18.130824 46.290824 7.68 46.290824-17.257412v-210.823529l-0.180706-3.312941a26.352941 26.352941 0 0 0-26.172235-23.04l-3.312942 0.180705a26.352941 26.352941 0 0 0-23.04 26.172236v123.783529l-92.250353-138.420706z m-351.382589 0c-15.36-18.100706-46.290824-7.649882-46.290823 17.28753v210.823529l0.210823 3.312941a26.352941 26.352941 0 0 0 26.142118 23.04l3.312941-0.210823a26.352941 26.352941 0 0 0 23.04-26.142118v-123.753412l92.280471 138.360471 1.987765 2.650353c15.36 18.130824 46.290824 7.68 46.290823-17.257412v-210.823529l-0.210823-3.312941a26.352941 26.352941 0 0 0-26.142118-23.04l-3.312941 0.180705a26.352941 26.352941 0 0 0-23.04 26.172236l-0.030118 123.753411-92.250353-138.390588z m226.032942 149.052236a26.352941 26.352941 0 0 0-26.352942 26.352941v17.558588l0.180706 3.312941a26.352941 26.352941 0 0 0 52.525177-3.312941v-17.558588l-0.210824-3.312941a26.352941 26.352941 0 0 0-26.142117-23.04z m0-123.000471a26.352941 26.352941 0 0 0-26.352942 26.352941v17.588706l0.180706 3.312941a26.352941 26.352941 0 0 0 52.525177-3.312941v-17.588706l-0.210824-3.312941a26.352941 26.352941 0 0 0-26.142117-23.04z" fill="#568af2" /></svg>