<svg class="icon" style="width: 1em;height: 1em;vertical-align: middle;fill: currentColor;overflow: hidden;" viewBox="0 0 1024 1024" version="1.1" xmlns="http://www.w3.org/2000/svg" width="32" height="32"><path d="M0 0h1024v1024H0z" fill="#568af2" fill-opacity="0" /><path d="M809.411765 343.853176H405.323294a61.500235 61.500235 0 0 0-61.470118 61.470118v404.088471c0 33.972706 27.527529 61.500235 61.470118 61.500235h404.088471a61.500235 61.500235 0 0 0 61.500235-61.500235V405.323294a61.500235 61.500235 0 0 0-61.500235-61.470118z m-404.088471 52.705883h404.088471c4.848941 0 8.794353 3.915294 8.794353 8.764235v404.088471c0 4.848941-3.915294 8.794353-8.794353 8.794353H405.323294a8.794353 8.794353 0 0 1-8.764235-8.794353V405.323294c0-4.818824 3.915294-8.764235 8.764235-8.764235z" fill="#568af2" /><path d="M616.146824 150.588235H212.088471A61.500235 61.500235 0 0 0 150.588235 212.088471v404.058353c0 33.972706 27.527529 61.500235 61.500236 61.500235h404.058353a61.500235 61.500235 0 0 0 61.500235-61.500235V212.088471A61.500235 61.500235 0 0 0 616.146824 150.588235zM212.088471 203.294118h404.058353c4.848941 0 8.794353 3.915294 8.794352 8.794353v404.058353c0 4.848941-3.915294 8.794353-8.794352 8.794352H212.088471a8.794353 8.794353 0 0 1-8.794353-8.794352V212.088471c0-4.848941 3.915294-8.794353 8.794353-8.794353z" fill="#568af2" /><path d="M509.680941 632.651294a26.352941 26.352941 0 0 1 39.634824 34.575059l-2.349177 2.710588-158.117647 158.117647a26.352941 26.352941 0 0 1-39.634823-34.575059l2.349176-2.710588 158.117647-158.117647zM790.799059 351.563294a26.352941 26.352941 0 0 1 39.604706 34.575059l-2.349177 2.710588-158.117647 158.117647a26.352941 26.352941 0 0 1-39.634823-34.575059l2.379294-2.710588 158.117647-158.117647zM351.563294 474.533647a26.352941 26.352941 0 0 1 39.634824 34.575059l-2.349177 2.710588-158.117647 158.117647a26.352941 26.352941 0 0 1-39.634823-34.575059l2.349176-2.710588 158.117647-158.117647zM632.681412 193.445647a26.352941 26.352941 0 0 1 39.604706 34.575059l-2.349177 2.710588-158.117647 158.117647a26.352941 26.352941 0 0 1-39.634823-34.575059l2.379294-2.710588 158.117647-158.117647zM825.916235 492.122353a26.352941 26.352941 0 0 1 39.634824 34.544941l-2.349177 2.710588L529.377882 863.171765a26.352941 26.352941 0 0 1-39.604706-34.544941l2.349177-2.710589L825.916235 492.122353zM492.122353 158.298353a26.352941 26.352941 0 0 1 39.634823 34.575059l-2.379294 2.710588L195.584 529.377882a26.352941 26.352941 0 0 1-39.634824-34.575058l2.379295-2.710589L492.122353 158.328471zM825.916235 667.798588a26.352941 26.352941 0 0 1 39.634824 34.575059l-2.349177 2.710588-158.117647 158.117647a26.352941 26.352941 0 0 1-39.634823-34.575058l2.349176-2.710589 158.117647-158.117647zM316.416 158.298353a26.352941 26.352941 0 0 1 39.634824 34.575059l-2.349177 2.710588-158.117647 158.117647a26.352941 26.352941 0 0 1-39.634824-34.575059l2.349177-2.710588 158.117647-158.117647z" fill="#568af2" /></svg>