<svg class="icon" style="width: 1em;height: 1em;vertical-align: middle;fill: currentColor;overflow: hidden;" viewBox="0 0 1024 1024" version="1.1" xmlns="http://www.w3.org/2000/svg" width="32" height="32"><path d="M804.382118 180.705882H242.206118A61.500235 61.500235 0 0 0 180.705882 242.206118v562.176c0 33.972706 27.527529 61.500235 61.500236 61.500235h562.176a61.500235 61.500235 0 0 0 61.500235-61.500235V242.206118A61.500235 61.500235 0 0 0 804.382118 180.705882zM242.206118 233.411765h562.176c4.848941 0 8.794353 3.915294 8.794353 8.794353v562.176c0 4.848941-3.915294 8.794353-8.794353 8.794353H242.206118a8.794353 8.794353 0 0 1-8.794353-8.794353V242.206118c0-4.848941 3.915294-8.794353 8.794353-8.794353z" fill="#568af2" /><path d="M367.405176 187.361882a26.352941 26.352941 0 0 1 37.526589 36.833883l-2.499765 2.56-177.874824 158.117647a26.352941 26.352941 0 0 1-37.526588-36.833883l2.529883-2.56 177.844705-158.117647zM417.581176 293.104941a26.352941 26.352941 0 0 1 38.219295 36.141177l-2.469647 2.590117-228.382118 210.82353a26.352941 26.352941 0 0 1-38.249412-36.141177l2.499765-2.590117 228.382117-210.82353zM417.581176 451.222588a26.352941 26.352941 0 0 1 38.219295 36.141177l-2.469647 2.590117-228.382118 210.82353a26.352941 26.352941 0 0 1-38.249412-36.141177l2.499765-2.590117 228.382117-210.82353zM417.581176 609.340235a26.352941 26.352941 0 0 1 38.219295 36.141177l-2.469647 2.590117-228.382118 210.82353a26.352941 26.352941 0 0 1-38.249412-36.141177l2.499765-2.590117 228.382117-210.82353z" fill="#568af2" /><path d="M435.440941 180.705882c13.432471 0 24.545882 10.059294 26.172235 23.04l0.180706 3.312942v632.470588a26.352941 26.352941 0 0 1-52.495058 3.312941l-0.210824-3.312941v-632.470588c0-14.546824 11.806118-26.352941 26.352941-26.352942z" fill="#568af2" /></svg>