<svg class="icon" style="width: 1em;height: 1em;vertical-align: middle;fill: currentColor;overflow: hidden;" viewBox="0 0 1024 1024" version="1.1" xmlns="http://www.w3.org/2000/svg" width="32" height="32"><path d="M291.147294 124.235294c13.432471 0 24.515765 10.059294 26.142118 23.04l0.210823 3.312941-0.030117 535.823059h535.853176c13.432471 0 24.545882 10.059294 26.172235 23.070118l0.180706 3.312941a26.352941 26.352941 0 0 1-23.04 26.142118l-3.312941 0.210823H291.147294a26.352941 26.352941 0 0 1-26.172235-23.070118l-0.180706-3.312941V150.588235c0-14.546824 11.776-26.352941 26.352941-26.352941z" fill="#568af2" /><path d="M712.794353 264.794353c13.432471 0 24.515765 10.029176 26.142118 23.04l0.210823 3.312941V572.235294a26.352941 26.352941 0 0 1-52.525176 3.312941l-0.180706-3.312941-0.030118-254.765176h-254.735059a26.352941 26.352941 0 0 1-26.142117-23.04l-0.210824-3.312942c0-13.402353 10.059294-24.515765 23.070118-26.142117l3.312941-0.180706h281.088zM291.147294 264.794353a26.352941 26.352941 0 0 1 3.312941 52.495059l-3.312941 0.210823H150.588235a26.352941 26.352941 0 0 1-3.312941-52.525176L150.588235 264.794353h140.559059zM712.794353 686.441412c13.432471 0 24.515765 10.029176 26.142118 23.04l0.210823 3.312941v140.528941a26.352941 26.352941 0 0 1-52.525176 3.312941l-0.180706-3.312941v-140.528941c0-14.576941 11.776-26.352941 26.352941-26.352941z" fill="#568af2" /></svg>