<svg class="icon" style="width: 1em;height: 1em;vertical-align: middle;fill: currentColor;overflow: hidden;" viewBox="0 0 1024 1024" version="1.1" xmlns="http://www.w3.org/2000/svg" width="32" height="32"><path d="M839.529412 180.705882a26.352941 26.352941 0 0 1 3.312941 52.495059l-3.312941 0.210824h-632.470588a26.352941 26.352941 0 0 1-3.312942-52.495059L207.058824 180.705882h632.470588zM839.529412 778.029176a26.352941 26.352941 0 0 1 3.312941 52.525177l-3.312941 0.180706h-632.470588a26.352941 26.352941 0 0 1-3.312942-52.495059l3.312942-0.210824h632.470588zM499.290353 301.568a26.352941 26.352941 0 0 1 49.182118 18.703059l-1.204706 3.102117-175.676236 386.499765a26.352941 26.352941 0 0 1-49.152-18.703059l1.204706-3.102117 175.646118-386.499765z" fill="#568af2" /><path d="M628.705882 549.647059a26.352941 26.352941 0 0 1 3.312942 52.495059l-3.312942 0.210823h-210.823529a26.352941 26.352941 0 0 1-3.312941-52.495059l3.312941-0.210823h210.823529z" fill="#568af2" /><path d="M512.391529 288.466824a26.352941 26.352941 0 0 1 33.340236 10.179764l1.566117 2.921412 175.676236 386.499765a26.352941 26.352941 0 0 1-46.441412 24.756706l-1.536-2.95153-175.706353-386.499765a26.352941 26.352941 0 0 1 13.101176-34.906352z" fill="#568af2" /></svg>