<svg class="icon" style="width: 1em;height: 1em;vertical-align: middle;fill: currentColor;overflow: hidden;" viewBox="0 0 1024 1024" version="1.1" xmlns="http://www.w3.org/2000/svg" width="32" height="32"><path d="M786.823529 180.705882a79.058824 79.058824 0 0 1 79.058824 79.058824v527.058823a79.058824 79.058824 0 0 1-79.058824 79.058824h-527.058823A79.058824 79.058824 0 0 1 180.705882 786.823529v-527.058823A79.058824 79.058824 0 0 1 259.764706 180.705882z m-474.352941 455.288471v80.564706c0 9.697882 7.860706 17.558588 17.558588 17.558588h80.564706c15.661176 0 23.491765-18.913882 12.438589-29.997176l-80.564706-80.564706a17.558588 17.558588 0 0 0-29.997177 12.438588z m391.649883-12.438588l-80.564706 80.564706a17.558588 17.558588 0 0 0 12.438588 29.997176h80.564706a17.558588 17.558588 0 0 0 17.558588-17.558588v-80.564706c0-15.661176-18.913882-23.491765-29.997176-12.438588z m12.438588-311.085177h-80.564706c-15.661176 0-23.491765 18.913882-12.438588 29.997177l80.564706 80.564706a17.558588 17.558588 0 0 0 29.997176-12.438589v-80.564706a17.558588 17.558588 0 0 0-17.558588-17.558588z m-305.965177 0h-80.564706a17.558588 17.558588 0 0 0-17.558588 17.558588v80.564706c0 15.661176 18.913882 23.491765 29.997177 12.438589l80.564706-80.564706a17.558588 17.558588 0 0 0-12.438589-29.997177z" fill="#568af2" /></svg>