<svg class="icon" style="width: 1em;height: 1em;vertical-align: middle;fill: currentColor;overflow: hidden;" viewBox="0 0 1024 1024" version="1.1" xmlns="http://www.w3.org/2000/svg" width="32" height="32"><path d="M198.776471 198.776471c56.440471-56.440471 146.070588-59.331765 203.595294-7.348706l5.300706 5.059764 160.557176 160.557177a26.352941 26.352941 0 0 1-34.544941 39.634823l-2.710588-2.349176-160.587294-160.587294c-36.352-36.352-96.496941-35.538824-134.324706 2.288941-36.412235 36.412235-38.550588 93.424941-6.324706 130.078118l4.005647 4.276706 139.414588 139.444705a26.352941 26.352941 0 0 1-34.575059 39.604706l-2.710588-2.349176-139.384471-139.444706C139.324235 350.539294 140.559059 257.024 198.776471 198.776471zM648.011294 473.539765a26.352941 26.352941 0 0 1 34.575059-2.349177l2.710588 2.349177 139.414588 139.414588c57.163294 57.163294 55.898353 150.678588-2.319058 208.896-56.440471 56.440471-146.070588 59.331765-203.595295 7.318588l-5.270588-5.029647-160.587294-160.587294a26.352941 26.352941 0 0 1 34.575059-39.634824l2.710588 2.379295 160.557177 160.557176c36.352 36.352 96.496941 35.538824 134.354823-2.288941 36.382118-36.382118 38.550588-93.394824 6.324706-130.048l-4.035765-4.306824-139.414588-139.414588a26.352941 26.352941 0 0 1 0-37.255529z" fill="#568af2" /><path d="M530.974118 357.044706a26.352941 26.352941 0 0 1 37.285647 0c57.133176 57.163294 55.898353 150.678588-2.319059 208.896a26.352941 26.352941 0 1 1-37.25553-37.25553c37.827765-37.857882 38.640941-98.002824 2.288942-134.354823a26.352941 26.352941 0 0 1 0-37.285647zM452.969412 452.367059a26.352941 26.352941 0 0 1 37.255529 37.285647c-37.857882 37.827765-38.671059 97.972706-2.319059 134.324706a26.352941 26.352941 0 1 1-37.255529 37.285647c-57.163294-57.163294-55.898353-150.678588 2.288941-208.896z" fill="#568af2" /></svg>