<svg class="icon" style="width: 1em;height: 1em;vertical-align: middle;fill: currentColor;overflow: hidden;" viewBox="0 0 1024 1024" version="1.1" xmlns="http://www.w3.org/2000/svg" width="32" height="32"><path d="M501.970824 124.235294c208.594824 0 377.705412 169.110588 377.705411 377.73553 0 208.594824-169.110588 377.705412-377.705411 377.705411-78.215529 0-152.907294-23.823059-215.732706-67.614117a379.723294 379.723294 0 0 1-93.665883-93.334589l0.843294 0.993883-1.415529-1.807059a376.259765 376.259765 0 0 1-67.764706-215.943529c0-208.624941 169.110588-377.735529 377.73553-377.73553z m-140.589177 467.696941l-113.152 113.182118c14.968471 18.672941 31.924706 35.629176 50.597647 50.597647l113.121882-113.212235-50.567529-50.56753zM677.647059 528.323765a26.352941 26.352941 0 0 0-26.352941 26.352941v8.764235h-8.794353l-3.312941 0.210824a26.352941 26.352941 0 0 0 3.312941 52.495059h8.794353v8.794352l0.210823 3.312942a26.352941 26.352941 0 0 0 52.495059-3.312942v-8.794352h8.794353l3.312941-0.180706a26.352941 26.352941 0 0 0-3.312941-52.525177h-8.794353v-8.764235l-0.210824-3.312941a26.352941 26.352941 0 0 0-26.142117-23.04z m-245.970824-6.656l-33.008941 32.978823 50.56753 50.56753 33.008941-33.008942-50.56753-50.537411z m193.264941-221.756236a26.352941 26.352941 0 0 0-26.352941 26.352942v26.352941H572.235294l-3.312941 0.210823a26.352941 26.352941 0 0 0 3.312941 52.495059h26.352941v26.352941l0.210824 3.312941a26.352941 26.352941 0 0 0 52.495059-3.312941v-26.352941h26.352941l3.312941-0.180706a26.352941 26.352941 0 0 0-3.312941-52.525176h-26.352941v-26.352941l-0.210824-3.312942a26.352941 26.352941 0 0 0-26.142118-23.04z m-210.823529-35.117176a26.352941 26.352941 0 0 0-26.352941 26.352941v8.764235h-8.794353l-3.312941 0.210824a26.352941 26.352941 0 0 0 3.312941 52.495059h8.794353V361.411765l0.210823 3.312941a26.352941 26.352941 0 0 0 52.495059-3.312941v-8.794353h8.794353l3.312941-0.180706a26.352941 26.352941 0 0 0-3.312941-52.525177h-8.794353v-8.764235l-0.210823-3.312941a26.352941 26.352941 0 0 0-26.142118-23.04z" fill="#568af2" /></svg>