<svg class="icon" style="width: 1em;height: 1em;vertical-align: middle;fill: currentColor;overflow: hidden;" viewBox="0 0 1024 1024" version="1.1" xmlns="http://www.w3.org/2000/svg" width="32" height="32"><path d="M312.470588 210.823529c13.432471 0 24.515765 10.059294 26.142118 23.04l0.210823 3.312942v562.206117a26.352941 26.352941 0 0 1-23.04 26.142118l-3.312941 0.210823h-105.411764a26.352941 26.352941 0 0 1-3.312942-52.525176l3.312942-0.180706 79.058823-0.030118V263.529412H207.058824a26.352941 26.352941 0 0 1-26.142118-23.04L180.705882 237.176471c0-13.432471 10.059294-24.515765 23.04-26.142118L207.058824 210.823529h105.411764zM523.294118 316.235294c13.432471 0 24.515765 10.059294 26.142117 23.04l0.210824 3.312941v351.382589a26.352941 26.352941 0 0 1-52.495059 3.312941l-0.210824-3.312941V342.588235c0-14.546824 11.806118-26.352941 26.352942-26.352941zM839.529412 210.823529a26.352941 26.352941 0 0 1 3.312941 52.495059l-3.312941 0.210824H760.470588v509.470117h79.058824c13.432471 0 24.515765 10.059294 26.142117 23.070118l0.210824 3.312941a26.352941 26.352941 0 0 1-23.04 26.142118l-3.312941 0.210823h-105.411765a26.352941 26.352941 0 0 1-26.142118-23.070117l-0.210823-3.312941V237.206588c0-13.432471 10.059294-24.515765 23.04-26.142117l3.312941-0.210824h105.411765z" fill="#568af2" /></svg>