<svg class="icon" style="width: 1em;height: 1em;vertical-align: middle;fill: currentColor;overflow: hidden;" viewBox="0 0 1024 1024" version="1.1" xmlns="http://www.w3.org/2000/svg" width="32" height="32"><path d="M642.499765 124.235294c13.432471 0 24.545882 10.059294 26.172235 23.04l0.180706 3.312941v140.559059a26.352941 26.352941 0 0 1-52.495059 3.312941l-0.210823-3.312941V176.941176h-228.382118v114.206118a26.352941 26.352941 0 0 1-23.04 26.142118l-3.312941 0.210823a26.352941 26.352941 0 0 1-26.142118-23.070117l-0.210823-3.312942V150.588235c0-13.432471 10.059294-24.515765 23.04-26.142117l3.312941-0.210824h281.088zM642.499765 686.441412c13.432471 0 24.545882 10.029176 26.172235 23.04l0.180706 3.312941v140.528941a26.352941 26.352941 0 0 1-23.04 26.172235l-3.312941 0.180706H361.411765a26.352941 26.352941 0 0 1-26.142118-23.04l-0.210823-3.312941v-140.528941a26.352941 26.352941 0 0 1 52.495058-3.312941l0.210824 3.312941v114.176h228.382118v-114.176c0-13.432471 10.059294-24.545882 23.070117-26.172235l3.312941-0.180706zM396.559059 475.617882a26.352941 26.352941 0 0 1 3.312941 52.495059l-3.312941 0.210824H150.588235a26.352941 26.352941 0 0 1-3.312941-52.525177l3.312941-0.180706h245.970824zM853.323294 475.617882a26.352941 26.352941 0 0 1 3.312941 52.495059l-3.312941 0.210824h-245.940706a26.352941 26.352941 0 0 1-3.312941-52.525177l3.312941-0.180706h245.940706z" fill="#568af2" /><path d="M501.970824 299.911529c13.432471 0 24.515765 10.059294 26.142117 23.070118l0.210824 3.312941V677.647059a26.352941 26.352941 0 0 1-52.525177 3.312941l-0.180706-3.312941V326.264471c0-14.546824 11.776-26.352941 26.352942-26.352942zM290.063059 395.474824a26.352941 26.352941 0 0 1 34.575059-2.349177l2.710588 2.349177 87.823059 87.853176c9.456941 9.426824 10.24 24.244706 2.379294 34.575059l-2.379294 2.710588-87.823059 87.823059a26.352941 26.352941 0 0 1-39.634824-34.575059l2.349177-2.710588 69.180235-69.210353-69.180235-69.180235a26.352941 26.352941 0 0 1-2.349177-34.575059l2.349177-2.710588zM676.592941 395.474824a26.352941 26.352941 0 0 1 39.604706 34.575058l-2.349176 2.710589-69.210353 69.180235 69.210353 69.24047c9.426824 9.426824 10.24 24.214588 2.349176 34.544942l-2.349176 2.710588a26.352941 26.352941 0 0 1-34.575059 2.349176l-2.710588-2.349176-87.823059-87.853177a26.352941 26.352941 0 0 1-2.349177-34.544941l2.349177-2.710588 87.853176-87.853176z" fill="#568af2" /></svg>