<svg class="icon" style="width: 1em;height: 1em;vertical-align: middle;fill: currentColor;overflow: hidden;" viewBox="0 0 1024 1024" version="1.1" xmlns="http://www.w3.org/2000/svg" width="32" height="32"><path d="M839.529412 486.912a26.352941 26.352941 0 0 1 3.312941 52.495059l-3.312941 0.210823h-281.088a26.352941 26.352941 0 0 1-3.312941-52.495058l3.312941-0.210824h281.088zM839.529412 732.882824a26.352941 26.352941 0 0 1 3.312941 52.495058l-3.312941 0.210824h-281.088a26.352941 26.352941 0 0 1-3.312941-52.525177l3.312941-0.180705h281.088zM839.529412 240.941176a26.352941 26.352941 0 0 1 3.312941 52.495059l-3.312941 0.210824h-281.088a26.352941 26.352941 0 0 1-3.312941-52.495059l3.312941-0.210824h281.088zM442.88 258.981647a26.352941 26.352941 0 0 1-13.583059 32.075294l-3.072 1.234824c-24.274824 8.101647-36.743529 29.575529-46.230588 77.492706l-2.650353 14.396235-3.704471 23.280941c-5.12 33.340235-10.631529 59.542588-18.371764 79.510588l62.614588-0.060235c13.432471 0 24.515765 10.059294 26.142118 23.04l0.210823 3.312941a26.352941 26.352941 0 0 1-23.04 26.142118l-3.312941 0.210823-62.644706-0.030117c6.927059 17.739294 12.047059 40.387765 16.685177 68.638117l5.421176 34.123294 2.650353 14.396236c9.517176 47.887059 21.985882 69.391059 46.230588 77.462588a26.352941 26.352941 0 0 1-16.685176 49.995294c-51.501176-17.167059-71.077647-56.259765-84.118589-132.698353l-6.144-38.550588a716.619294 716.619294 0 0 0-1.114352-6.505412l-2.258824-11.89647-2.288941-10.511059a240.64 240.64 0 0 0-1.174588-4.728471l-2.409412-8.553412c-7.439059-23.762824-16.745412-31.141647-32.707765-31.141647H207.058824l-3.764706-0.210823c-30.117647-3.493647-30.117647-48.790588 0-52.284235l3.764706-0.210824h70.26447c15.962353 0 25.268706-7.378824 32.707765-31.141647l2.409412-8.553412a240.64 240.64 0 0 0 1.204705-4.758588l2.258824-10.480941 2.258824-11.896471 5.842823-36.412235c13.071059-82.160941 32.105412-123.542588 85.534118-141.372235a26.352941 26.352941 0 0 1 33.340235 16.685176z" fill="#568af2" /></svg>