<svg class="icon" style="width: 1em;height: 1em;vertical-align: middle;fill: currentColor;overflow: hidden;" viewBox="0 0 1024 1024" version="1.1" xmlns="http://www.w3.org/2000/svg" width="32" height="32"><path d="M786.823529 180.705882a79.058824 79.058824 0 0 1 78.908236 74.059294l0.150588 4.99953v527.058823a79.058824 79.058824 0 0 1-74.059294 78.908236l-4.99953 0.150588h-527.058823a79.058824 79.058824 0 0 1-78.908235-74.059294L180.705882 786.823529v-527.058823a79.058824 79.058824 0 0 1 74.059294-78.908235L259.764706 180.705882h527.058823z m-70.26447 509.500236H330.029176l-3.312941 0.180706a26.352941 26.352941 0 0 0 0 52.314352l3.312941 0.210824h386.529883l3.312941-0.210824a26.352941 26.352941 0 0 0-3.312941-52.495058z m0-123.000471H330.029176l-3.312941 0.210824a26.352941 26.352941 0 0 0 0 52.314353l3.312941 0.180705h386.529883l3.312941-0.180705a26.352941 26.352941 0 0 0-3.312941-52.525177z m-245.970824-263.529412h-140.559059a26.352941 26.352941 0 0 0-26.352941 26.352941v140.559059c0 14.546824 11.806118 26.352941 26.352941 26.352941h140.559059a26.352941 26.352941 0 0 0 26.352941-26.352941v-140.559059a26.352941 26.352941 0 0 0-26.352941-26.352941z m245.970824 123.000471h-140.559059l-3.312941 0.180706a26.352941 26.352941 0 0 0 0 52.314353l3.312941 0.210823h140.559059l3.312941-0.210823a26.352941 26.352941 0 0 0-3.312941-52.495059z m-272.323765-70.294588v87.853176h-87.853176v-87.853176h87.853176z m272.323765-52.705883h-140.559059l-3.312941 0.210824a26.352941 26.352941 0 0 0 0 52.314353l3.312941 0.180706h140.559059l3.312941-0.180706a26.352941 26.352941 0 0 0-3.312941-52.525177z" fill="#568af2" /></svg>