<svg class="icon" style="width: 1em;height: 1em;vertical-align: middle;fill: currentColor;overflow: hidden;" viewBox="0 0 1024 1024" version="1.1" xmlns="http://www.w3.org/2000/svg" width="32" height="32"><path d="M237.176471 150.588235c13.432471 0 24.515765 10.059294 26.142117 23.04l0.210824 3.312941v667.617883a26.352941 26.352941 0 0 1-52.495059 3.312941L210.823529 844.528941V176.941176C210.823529 162.394353 222.629647 150.588235 237.176471 150.588235z m562.206117 0c13.432471 0 24.515765 10.059294 26.142118 23.04l0.210823 3.312941v667.617883a26.352941 26.352941 0 0 1-52.525176 3.312941l-0.180706-3.312941V176.941176c0-14.546824 11.776-26.352941 26.352941-26.352941z m-210.823529 158.117647h-140.559059a26.352941 26.352941 0 0 0-26.352941 26.352942v351.382588c0 14.546824 11.806118 26.352941 26.352941 26.352941h140.559059a26.352941 26.352941 0 0 0 26.352941-26.352941V335.058824a26.352941 26.352941 0 0 0-26.352941-26.352942z" fill="#568af2" /></svg>