<svg class="icon" style="width: 1em;height: 1em;vertical-align: middle;fill: currentColor;overflow: hidden;" viewBox="0 0 1024 1024" version="1.1" xmlns="http://www.w3.org/2000/svg" width="32" height="32"><path d="M498.206118 120.470588c4.608 0 8.944941 1.204706 12.709647 3.282824l1.987764 1.204706 2.710589 2.108235 71.499294 71.378823a26.352941 26.352941 0 0 1-34.575059 39.634824l-2.710588-2.349176-25.298824-25.298824v147.215059a26.352941 26.352941 0 0 1-52.495059 3.312941l-0.180706-3.312941-0.030117-147.184941-25.268706 25.298823a26.352941 26.352941 0 0 1-39.634824-34.605176l2.379295-2.710589 70.26447-70.26447 1.505882-1.41553 3.102118-2.258823 1.385412-0.813177 2.710588-1.295058 3.312941-1.084236a26.262588 26.262588 0 0 1 6.625883-0.843294zM498.206118 612.382118c13.432471 0 24.515765 10.059294 26.142117 23.070117l0.210824 3.312941-0.030118 147.184942 25.298824-25.298824a26.352941 26.352941 0 0 1 39.634823 34.575059l-2.349176 2.710588-70.294588 70.264471a26.563765 26.563765 0 0 1-3.132236 2.710588l-2.770823 1.746824-3.011765 1.415529-2.620235 0.903529-3.734589 0.722824-3.343058 0.210823a26.503529 26.503529 0 0 1-4.577883-0.391529l-2.770823-0.632471-3.162353-1.14447-3.523765-1.867294-1.897412-1.325177-2.048-1.716706-70.927058-70.896941a26.352941 26.352941 0 0 1 34.544941-39.634823l2.710588 2.349176 25.268706 25.268706v-147.184941c0-14.546824 11.806118-26.352941 26.383059-26.352941zM795.226353 406.919529l2.710588 2.379295 71.68 71.80047 1.776941 2.319059 1.656471 2.800941 1.024 2.288941a26.262588 26.262588 0 0 1 0 19.395765l-0.963765 2.138353-1.14447 2.017882-1.41553 2.078118-2.349176 2.710588-70.264471 70.264471a26.352941 26.352941 0 0 1-39.634823-34.575059l2.349176-2.710588 25.298824-25.298824h-147.215059a26.352941 26.352941 0 0 1-3.312941-52.495059l3.312941-0.180706 147.184941-0.030117-25.268706-25.268706a26.352941 26.352941 0 0 1 31.653647-41.562353l2.921412 1.927529zM235.730824 409.298824c9.426824 9.426824 10.24 24.214588 2.349176 34.544941l-2.349176 2.710588-25.268706 25.268706h147.184941a26.352941 26.352941 0 0 1 3.312941 52.525176l-3.312941 0.210824-147.215059-0.030118 25.298824 25.298824a26.352941 26.352941 0 0 1-34.575059 39.634823l-2.710589-2.349176-71.68-71.800471-1.807058-2.409412-1.204706-1.957647a26.262588 26.262588 0 0 1-0.060236-25.389176l2.680471-3.97553 1.807059-2.017882L198.475294 409.298824a26.352941 26.352941 0 0 1 37.25553 0zM498.206118 436.705882a61.500235 61.500235 0 1 0 0 122.970353 61.500235 61.500235 0 0 0 0-122.970353z m0 52.705883a8.794353 8.794353 0 1 1 0 17.558588 8.794353 8.794353 0 0 1 0-17.558588z" fill="#568af2" /></svg>