<svg class="icon" style="width: 1em;height: 1em;vertical-align: middle;fill: currentColor;overflow: hidden;" viewBox="0 0 1024 1024" version="1.1" xmlns="http://www.w3.org/2000/svg" width="32" height="32"><path d="M523.294118 120.470588a202.029176 202.029176 0 0 1 201.908706 194.95153l0.12047 7.077647V436.705882h79.058824c32.436706 0 58.970353 25.088 61.319529 56.922353l0.180706 4.577883v316.235294a61.500235 61.500235 0 0 1-56.922353 61.319529l-4.577882 0.150588H242.206118a61.500235 61.500235 0 0 1-61.31953-56.892235L180.705882 814.441412v-316.235294c0-32.436706 25.088-58.970353 56.922353-61.31953l4.577883-0.180706h79.028706v-114.206117A202.029176 202.029176 0 0 1 523.324235 120.470588z m0 456.794353a26.352941 26.352941 0 0 0-26.142118 23.04l-0.210824 3.312941v105.411765l0.210824 3.312941a26.352941 26.352941 0 0 0 52.284235 0l0.210824-3.312941v-105.411765l-0.210824-3.312941a26.352941 26.352941 0 0 0-26.142117-23.04z m0-404.08847a149.323294 149.323294 0 0 0-149.202824 142.848l-0.12047 6.475294-0.030118 114.206117h298.676706v-114.206117a149.323294 149.323294 0 0 0-149.323294-149.323294z" fill="#568af2" /></svg>