<svg class="icon" style="width: 1em;height: 1em;vertical-align: middle;fill: currentColor;overflow: hidden;" viewBox="0 0 1024 1024" version="1.1" xmlns="http://www.w3.org/2000/svg" width="32" height="32"><path d="M242.808471 477.304471a26.352941 26.352941 0 0 1-7.348706 36.532705c-38.671059 25.750588-58.518588 54.964706-58.518589 83.486118 0 66.138353 121.374118 131.072 275.696942 146.100706l-22.016-22.046118a26.352941 26.352941 0 0 1-2.349177-34.575058l2.349177-2.710589a26.352941 26.352941 0 0 1 34.575058-2.349176l2.710589 2.379294 70.26447 70.264471 0.421647 0.451764a26.503529 26.503529 0 0 1 1.385412 1.566118l-1.807059-2.017882a26.563765 26.563765 0 0 1 7.710118 18.642823 26.232471 26.232471 0 0 1-5.360941 15.932235l-0.542118 0.692706a26.503529 26.503529 0 0 1-1.385412 1.566118l-0.421647 0.421647-70.294588 70.294588a26.352941 26.352941 0 0 1-39.604706-34.575059l2.349177-2.710588 27.708235-27.738353c-183.657412-14.848-334.095059-95.472941-334.095059-199.589647 0-48.579765 29.967059-92.732235 82.040471-127.367529a26.352941 26.352941 0 0 1 36.532706 7.348706z m590.004705-7.348706c52.043294 34.635294 82.010353 78.787765 82.010353 127.397647 0 84.811294-105.291294 155.376941-249.133176 186.789647a26.352941 26.352941 0 0 1-11.233882-51.501177c122.036706-26.654118 207.661176-84.028235 207.661176-135.318588 0-28.521412-19.877647-57.735529-58.518588-83.486118a26.352941 26.352941 0 0 1 29.214117-43.881411zM572.235294 184.470588c7.710118 0 14.968471 3.373176 19.937882 9.125647l1.987765 2.620236 27.316706 40.96h91.316706c12.318118 0 22.648471 8.432941 25.539765 19.877647l0.602353 3.162353 0.210823 3.312941v263.529412a26.352941 26.352941 0 0 1-23.070118 26.142117l-3.312941 0.210824H326.294588a26.352941 26.352941 0 0 1-26.142117-23.04l-0.210824-3.312941V263.529412c0-13.432471 10.059294-24.515765 23.070118-26.142118l3.312941-0.210823h91.25647l27.346824-40.96a26.352941 26.352941 0 0 1 15.480471-10.932706l3.162353-0.602353 3.282823-0.210824H572.235294z m-52.705882 122.970353a79.058824 79.058824 0 1 0 0 158.117647 79.058824 79.058824 0 0 0 0-158.117647z m0 52.705883a26.352941 26.352941 0 1 1 0 52.705882 26.352941 26.352941 0 0 1 0-52.705882z" fill="#568af2" /></svg>