<svg class="icon" style="width: 1em;height: 1em;vertical-align: middle;fill: currentColor;overflow: hidden;" viewBox="0 0 1024 1024" version="1.1" xmlns="http://www.w3.org/2000/svg" width="32" height="32"><path d="M799.382588 180.705882h-421.647059a26.352941 26.352941 0 0 0-26.352941 26.352942v105.411764c0 14.546824 11.776 26.352941 26.352941 26.352941h421.647059a26.352941 26.352941 0 0 0 26.352941-26.352941v-105.411764A26.352941 26.352941 0 0 0 799.382588 180.705882z m0 245.970824H237.176471a26.352941 26.352941 0 0 0-26.352942 26.352941v105.411765c0 14.546824 11.806118 26.352941 26.352942 26.352941h562.206117a26.352941 26.352941 0 0 0 26.352941-26.352941v-105.411765a26.352941 26.352941 0 0 0-26.352941-26.352941z m0 245.940706h-316.235294a26.352941 26.352941 0 0 0-26.352941 26.352941v105.411765c0 14.576941 11.776 26.352941 26.352941 26.352941h316.235294a26.352941 26.352941 0 0 0 26.352941-26.352941v-105.411765a26.352941 26.352941 0 0 0-26.352941-26.352941z" fill="#568af2" /></svg>