<svg class="icon" style="width: 1em;height: 1em;vertical-align: middle;fill: currentColor;overflow: hidden;" viewBox="0 0 1024 1024" version="1.1" xmlns="http://www.w3.org/2000/svg" width="32" height="32"><path d="M849.558588 120.470588c14.576941 0 26.352941 11.806118 26.352941 26.352941v702.735059a26.352941 26.352941 0 0 1-26.352941 26.352941H146.823529A26.352941 26.352941 0 0 1 120.470588 849.558588V146.823529C120.470588 132.276706 132.276706 120.470588 146.823529 120.470588z m-105.411764 105.411765c-125.319529 0-218.142118 87.943529-271.179295 264.734118l-3.252705 10.541176c-47.104 149.112471-120.591059 216.636235-217.47953 216.636235a26.352941 26.352941 0 0 0 0 52.705883c125.349647 0 218.172235-87.943529 271.209412-264.734118l3.222588-10.541176c47.104-149.112471 120.591059-216.636235 217.47953-216.636236a26.352941 26.352941 0 1 0 0-52.705882z" fill="#568af2" /></svg>