<svg class="icon" style="width: 1em;height: 1em;vertical-align: middle;fill: currentColor;overflow: hidden;" viewBox="0 0 1024 1024" version="1.1" xmlns="http://www.w3.org/2000/svg" width="32" height="32"><path d="M312.470588 210.823529h-105.411764A26.352941 26.352941 0 0 0 180.705882 237.176471v562.206117c0 14.546824 11.806118 26.352941 26.352942 26.352941h105.411764a26.352941 26.352941 0 0 0 26.352941-26.352941V237.176471A26.352941 26.352941 0 0 0 312.470588 210.823529z m246.061177 0h-105.411765a26.352941 26.352941 0 0 0-26.352941 26.352942v562.206117c0 14.546824 11.806118 26.352941 26.352941 26.352941h105.411765a26.352941 26.352941 0 0 0 26.352941-26.352941V237.176471A26.352941 26.352941 0 0 0 558.531765 210.823529z m246.061176 0h-105.411765a26.352941 26.352941 0 0 0-26.352941 26.352942v562.206117c0 14.546824 11.806118 26.352941 26.352941 26.352941h105.411765a26.352941 26.352941 0 0 0 26.352941-26.352941V237.176471A26.352941 26.352941 0 0 0 804.592941 210.823529z" fill="#568af2" /></svg>