<svg class="icon" style="width: 1em;height: 1em;vertical-align: middle;fill: currentColor;overflow: hidden;" viewBox="0 0 1024 1024" version="1.1" xmlns="http://www.w3.org/2000/svg" width="32" height="32"><path d="M646.264471 180.705882c14.576941 0 26.352941 11.806118 26.352941 26.352942v272.293647h166.912a26.352941 26.352941 0 0 1 3.312941 52.525176l-3.312941 0.210824-166.912-0.030118v272.323765a26.352941 26.352941 0 0 1-23.04 26.172235l-3.312941 0.180706h-245.940706a26.352941 26.352941 0 0 1-26.352941-26.352941l-0.030118-272.323765H207.058824a26.352941 26.352941 0 0 1-3.312942-52.495059l3.312942-0.180706 166.881882-0.030117V207.058824c0-13.432471 10.059294-24.515765 23.070118-26.142118l3.312941-0.210824z" fill="#568af2" /></svg>