<svg class="icon" style="width: 1em;height: 1em;vertical-align: middle;fill: currentColor;overflow: hidden;" viewBox="0 0 1024 1024" version="1.1" xmlns="http://www.w3.org/2000/svg" width="32" height="32"><path d="M786.823529 180.705882a79.058824 79.058824 0 0 1 78.908236 74.059294l0.150588 4.99953v527.058823a79.058824 79.058824 0 0 1-74.059294 78.908236l-4.99953 0.150588h-527.058823a79.058824 79.058824 0 0 1-78.908235-74.059294L180.705882 786.823529v-527.058823a79.058824 79.058824 0 0 1 74.059294-78.908235L259.764706 180.705882h527.058823z m-122.970353 175.676236h-281.118117a26.352941 26.352941 0 0 0-26.352941 26.352941v281.118117c0 14.546824 11.806118 26.352941 26.352941 26.352942h281.118117a26.352941 26.352941 0 0 0 26.352942-26.352942v-281.118117a26.352941 26.352941 0 0 0-26.352942-26.352941z m-26.383058 52.705882v228.382118h-228.382118v-228.382118h228.382118z" fill="#568af2" /></svg>