<svg class="icon" style="width: 1em;height: 1em;vertical-align: middle;fill: currentColor;overflow: hidden;" viewBox="0 0 1024 1024" version="1.1" xmlns="http://www.w3.org/2000/svg" width="32" height="32"><path d="M790.588235 184.470588a79.058824 79.058824 0 0 1 79.058824 79.058824v527.058823a79.058824 79.058824 0 0 1-79.058824 79.058824H263.529412a79.058824 79.058824 0 0 1-79.058824-79.058824V263.529412A79.058824 79.058824 0 0 1 263.529412 184.470588zM632.470588 360.146824h-210.823529a26.352941 26.352941 0 0 0-26.352941 26.352941v281.118117l0.210823 3.312942a26.352941 26.352941 0 0 0 26.142118 23.04h210.823529l3.312941-0.210824a26.352941 26.352941 0 0 0-3.312941-52.495059l-184.470588-0.030117v-87.823059h149.323294l3.312941-0.210824a26.352941 26.352941 0 0 0-3.312941-52.495059h-149.323294v-87.853176H632.470588l3.312941-0.180706a26.352941 26.352941 0 0 0-3.312941-52.525176z" fill="#568af2" /></svg>