<svg class="icon" style="width: 1em;height: 1em;vertical-align: middle;fill: currentColor;overflow: hidden;" viewBox="0 0 1024 1024" version="1.1" xmlns="http://www.w3.org/2000/svg" width="32" height="32"><path d="M473.750588 496.941176c19.395765 0 35.147294 15.721412 35.147294 35.147295v263.168c0 36.773647-53.549176 41.020235-59.361882 4.698353l-33.581176-210.100706-210.100706-33.551059c-34.996706-5.601882-32.316235-55.597176 0.903529-59.151059l3.824941-0.210824z m158.117647-158.117647c19.395765 0 35.147294 15.721412 35.147294 35.147295v263.168c0 36.773647-53.549176 41.020235-59.361882 4.698352l-32.557176-203.806117a8.794353 8.794353 0 0 0-7.288471-7.288471l-203.836235-32.557176c-36.321882-5.812706-32.045176-59.361882 4.72847-59.361883zM789.985882 180.705882c19.395765 0 35.147294 15.721412 35.147294 35.147294v263.168c0 36.773647-53.549176 41.020235-59.361882 4.698353L732.16 273.618824l-210.070588-33.551059c-35.056941-5.601882-32.346353-55.597176 0.903529-59.151059L526.787765 180.705882z" fill="#568af2" /></svg>