<svg class="icon" style="width: 1em;height: 1em;vertical-align: middle;fill: currentColor;overflow: hidden;" viewBox="0 0 1024 1024" version="1.1" xmlns="http://www.w3.org/2000/svg" width="32" height="32"><path d="M219.617882 214.588235c13.432471 0 24.515765 10.059294 26.142118 23.04l0.210824 3.312941v562.206118a26.352941 26.352941 0 0 1-52.525177 3.312941l-0.180706-3.312941V240.941176c0-14.546824 11.776-26.352941 26.352941-26.352941zM553.411765 214.588235c13.432471 0 24.515765 10.059294 26.142117 23.04l0.210824 3.312941v562.206118a26.352941 26.352941 0 0 1-52.495059 3.312941l-0.210823-3.312941V240.941176c0-14.546824 11.806118-26.352941 26.352941-26.352941z" fill="#568af2" /><path d="M553.411765 495.676235a26.352941 26.352941 0 0 1 3.312941 52.525177l-3.312941 0.180706H219.617882a26.352941 26.352941 0 0 1-3.312941-52.495059l3.312941-0.210824h333.793883zM780.348235 416.256c15.661176-16.384 42.767059-6.505412 45.176471 15.058824l0.210823 3.162352v368.64a26.352941 26.352941 0 0 1-52.495058 3.312942l-0.210824-3.312942-0.030118-303.043764-38.460235 40.207059a26.352941 26.352941 0 0 1-34.514823 3.102117l-2.740706-2.319059a26.352941 26.352941 0 0 1-3.102118-34.514823l2.288941-2.740706 83.877647-87.552z" fill="#568af2" /></svg>