<svg class="icon" style="width: 1em;height: 1em;vertical-align: middle;fill: currentColor;overflow: hidden;" viewBox="0 0 1024 1024" version="1.1" xmlns="http://www.w3.org/2000/svg" width="32" height="32"><path d="M510.735059 150.588235c198.927059 0 360.176941 161.249882 360.176941 360.146824a26.352941 26.352941 0 0 1-26.352941 26.352941h-298.676706a8.794353 8.794353 0 0 0-8.794353 8.794353v298.676706a26.352941 26.352941 0 0 1-26.352941 26.352941C311.838118 870.912 150.588235 709.662118 150.588235 510.735059 150.588235 311.838118 311.838118 150.588235 510.735059 150.588235z m316.235294 439.205647c14.576941 0 26.352941 11.806118 26.352941 26.352942v210.823529a26.352941 26.352941 0 0 1-26.352941 26.352941h-210.823529a26.352941 26.352941 0 0 1-26.352942-26.352941v-210.823529c0-14.546824 11.806118-26.352941 26.352942-26.352942z" fill="#568af2" /></svg>