<svg class="icon" style="width: 1em;height: 1em;vertical-align: middle;fill: currentColor;overflow: hidden;" viewBox="0 0 1024 1024" version="1.1" xmlns="http://www.w3.org/2000/svg" width="32" height="32"><path d="M813.176471 193.264941a26.352941 26.352941 0 0 1 3.312941 52.495059l-3.312941 0.210824H180.705882a26.352941 26.352941 0 0 1-3.312941-52.525177L180.705882 193.264941h632.470589z m-175.676236 158.117647h-281.118117a26.352941 26.352941 0 0 0-26.352942 26.352941v281.088c0 14.546824 11.806118 26.352941 26.352942 26.352942h281.118117a26.352941 26.352941 0 0 0 26.352941-26.352942v-281.088a26.352941 26.352941 0 0 0-26.352941-26.352941zM813.176471 790.588235a26.352941 26.352941 0 0 1 3.312941 52.495059L813.176471 843.294118H180.705882a26.352941 26.352941 0 0 1-3.312941-52.495059L180.705882 790.588235h632.470589z" fill="#568af2" /></svg>