<svg class="icon" style="width: 1em;height: 1em;vertical-align: middle;fill: currentColor;overflow: hidden;" viewBox="0 0 1024 1024" version="1.1" xmlns="http://www.w3.org/2000/svg" width="32" height="32"><path d="M790.588235 184.470588a79.058824 79.058824 0 0 1 79.058824 79.058824v527.058823a79.058824 79.058824 0 0 1-79.058824 79.058824H263.529412a79.058824 79.058824 0 0 1-79.058824-79.058824V263.529412A79.058824 79.058824 0 0 1 263.529412 184.470588z m-316.235294 368.941177h-140.559059l-3.312941 0.210823a26.352941 26.352941 0 0 0-23.04 26.142118v140.559059l0.210824 3.312941a26.352941 26.352941 0 0 0 26.142117 23.04h140.559059l3.312941-0.210824a26.352941 26.352941 0 0 0 23.04-26.142117V579.764706l-0.210823-3.312941a26.352941 26.352941 0 0 0-26.142118-23.04z m245.970824 0H579.764706l-3.312941 0.210823a26.352941 26.352941 0 0 0-23.04 26.142118v140.559059l0.210823 3.312941a26.352941 26.352941 0 0 0 26.142118 23.04h140.559059l3.312941-0.210824a26.352941 26.352941 0 0 0 23.04-26.142117V579.764706l-0.210824-3.312941a26.352941 26.352941 0 0 0-26.142117-23.04z m-272.323765 52.705882v87.823059h-87.853176v-87.823059h87.853176z m245.940706 0v87.823059h-87.823059v-87.823059h87.823059z m-219.587765-298.676706h-140.559059l-3.312941 0.210824a26.352941 26.352941 0 0 0-23.04 26.142117v140.559059l0.210824 3.312941a26.352941 26.352941 0 0 0 26.142117 23.04h140.559059l3.312941-0.210823a26.352941 26.352941 0 0 0 23.04-26.142118v-140.559059l-0.210823-3.312941a26.352941 26.352941 0 0 0-26.142118-23.04z m245.970824 0H579.764706l-3.312941 0.210824a26.352941 26.352941 0 0 0-23.04 26.142117v140.559059l0.210823 3.312941a26.352941 26.352941 0 0 0 26.142118 23.04h140.559059l3.312941-0.210823a26.352941 26.352941 0 0 0 23.04-26.142118v-140.559059l-0.210824-3.312941a26.352941 26.352941 0 0 0-26.142117-23.04z m-272.323765 52.705883v87.853176h-87.853176v-87.853176h87.853176z m245.940706 0v87.853176h-87.823059v-87.853176h87.823059z" fill="#568af2" /></svg>