<svg class="icon" style="width: 1em;height: 1em;vertical-align: middle;fill: currentColor;overflow: hidden;" viewBox="0 0 1024 1024" version="1.1" xmlns="http://www.w3.org/2000/svg" width="32" height="32"><path d="M614.4 129.837176l2.048 2.800942L743.514353 331.294118h55.868235c14.516706 0 26.051765 11.655529 26.352941 25.780706l-0.150588 3.312941-52.705882 509.470117a26.352941 26.352941 0 0 1-22.889412 23.43153l-3.312941 0.210823H289.882353a26.352941 26.352941 0 0 1-25.660235-20.359529l-0.542118-3.312941-52.705882-509.470118c-1.505882-14.456471 8.914824-27.105882 22.889411-28.852706l3.312942-0.210823h61.620705l279.853177-205.70353a26.352941 26.352941 0 0 1 35.749647 4.246588z m-166.369882 377.193412a26.352941 26.352941 0 0 0-26.142118 23.04l-0.210824 3.312941v175.676236l0.210824 3.312941a26.352941 26.352941 0 0 0 52.284235 0l0.210824-3.312941V533.383529l-0.210824-3.312941a26.352941 26.352941 0 0 0-26.142117-23.04z m140.559058-0.060235a26.352941 26.352941 0 0 0-26.142117 23.04l-0.210824 3.312941v175.646118l0.210824 3.312941a26.352941 26.352941 0 0 0 52.284235 0l0.210824-3.312941v-175.646118l-0.210824-3.312941a26.352941 26.352941 0 0 0-26.142118-23.04z m-1.385411-322.258824L387.794824 331.294118h293.165176l-93.756235-146.582589z" fill="#568af2" /></svg>