<svg class="icon" style="width: 1em;height: 1em;vertical-align: middle;fill: currentColor;overflow: hidden;" viewBox="0 0 1024 1024" version="1.1" xmlns="http://www.w3.org/2000/svg" width="32" height="32"><path d="M229.647059 544.617412c13.432471 0 24.515765 10.059294 26.142117 23.070117l0.210824 3.312942v201.999058h606.117647c13.432471 0 24.515765 10.059294 26.142118 23.070118l0.210823 3.312941a26.352941 26.352941 0 0 1-23.04 26.142118l-3.312941 0.210823h-632.470588a26.352941 26.352941 0 0 1-26.142118-23.070117l-0.210823-3.312941v-228.382118c0-14.546824 11.806118-26.352941 26.352941-26.352941z m632.470588-52.705883a26.352941 26.352941 0 0 1 3.312941 52.525177l-3.312941 0.180706H282.352941a26.352941 26.352941 0 0 1-3.312941-52.495059l3.312941-0.210824h579.764706z m0-281.088a26.352941 26.352941 0 0 1 3.312941 52.495059l-3.312941 0.210824H256v202.029176a26.352941 26.352941 0 0 1-23.04 26.172236l-3.312941 0.180705a26.352941 26.352941 0 0 1-26.142118-23.04l-0.210823-3.312941V237.176471c0-13.432471 10.059294-24.515765 23.04-26.142118L229.647059 210.823529h632.470588z" fill="#568af2" /><path d="M229.647059 439.205647a79.058824 79.058824 0 1 0 0 158.117647 79.058824 79.058824 0 0 0 0-158.117647z m0 52.705882a26.352941 26.352941 0 1 1 0 52.705883 26.352941 26.352941 0 0 1 0-52.705883z" fill="#568af2" /></svg>