<svg class="icon" style="width: 1em;height: 1em;vertical-align: middle;fill: currentColor;overflow: hidden;" viewBox="0 0 1024 1024" version="1.1" xmlns="http://www.w3.org/2000/svg" width="32" height="32"><path d="M302.441412 135.529412c13.432471 0 24.515765 10.059294 26.142117 23.04l0.210824 3.312941-0.030118 43.911529h368.941177V161.882353c0-13.432471 10.059294-24.515765 23.070117-26.142118l3.312942-0.210823h140.528941c13.432471 0 24.545882 10.059294 26.172235 23.04l0.180706 3.312941v140.559059a26.352941 26.352941 0 0 1-23.04 26.142117l-3.312941 0.210824-43.91153-0.030118v368.941177h43.91153c13.432471 0 24.545882 10.059294 26.172235 23.070117l0.180706 3.312942v140.528941a26.352941 26.352941 0 0 1-23.04 26.172235l-3.312941 0.180706h-140.528941a26.352941 26.352941 0 0 1-26.172236-23.04l-0.180706-3.312941-0.030117-43.91153h-368.941177v43.91153a26.352941 26.352941 0 0 1-23.04 26.172235l-3.312941 0.180706H161.912471a26.352941 26.352941 0 0 1-26.142118-23.04l-0.210824-3.312941v-140.528941c0-13.432471 10.059294-24.545882 23.04-26.172236l3.312942-0.180706 43.911529-0.030117v-368.941177H161.882353a26.352941 26.352941 0 0 1-26.142118-23.04l-0.210823-3.312941V161.912471c0-13.432471 10.059294-24.515765 23.04-26.142118l3.312941-0.210824h140.559059z m395.294117 166.912l-0.030117-43.941647h-368.941177v43.941647a26.352941 26.352941 0 0 1-23.04 26.142117l-3.312941 0.210824-43.911529-0.030118v368.941177h43.941647c13.432471 0 24.515765 10.059294 26.142117 23.070117l0.210824 3.312942-0.030118 43.911529h368.941177v-43.911529c0-13.432471 10.059294-24.545882 23.070117-26.172236l3.312942-0.180706 43.911529-0.030117v-368.941177h-43.911529a26.352941 26.352941 0 0 1-26.172236-23.04l-0.180706-3.312941z" fill="#568af2" /></svg>