<svg class="icon" style="width: 1em;height: 1em;vertical-align: middle;fill: currentColor;overflow: hidden;" viewBox="0 0 1024 1024" version="1.1" xmlns="http://www.w3.org/2000/svg" width="32" height="32"><path d="M839.529412 713.125647a26.352941 26.352941 0 0 1 3.312941 52.495059l-3.312941 0.210823h-632.470588a26.352941 26.352941 0 0 1-3.312942-52.495058l3.312942-0.210824h632.470588zM839.529412 813.176471a26.352941 26.352941 0 0 1 3.312941 52.495058l-3.312941 0.210824h-632.470588a26.352941 26.352941 0 0 1-3.312942-52.495059l3.312942-0.210823h632.470588zM610.063059 487.092706a26.352941 26.352941 0 0 1 39.634823 34.575059l-2.349176 2.710588-105.411765 105.411765a26.352941 26.352941 0 0 1-34.575059 2.349176l-2.710588-2.379294-105.411765-105.411765a26.352941 26.352941 0 0 1 34.575059-39.604706l2.710588 2.349177 86.768942 86.768941 86.768941-86.768941z" fill="#568af2" /><path d="M523.294118 180.705882c13.432471 0 24.515765 10.059294 26.142117 23.04l0.210824 3.312942v404.08847a26.352941 26.352941 0 0 1-52.495059 3.312941l-0.210824-3.312941V207.058824c0-14.546824 11.806118-26.352941 26.352942-26.352942z" fill="#568af2" /></svg>