<svg class="icon" style="width: 1em;height: 1em;vertical-align: middle;fill: currentColor;overflow: hidden;" viewBox="0 0 1024 1024" version="1.1" xmlns="http://www.w3.org/2000/svg" width="32" height="32"><path d="M839.529412 567.205647c14.546824 0 26.352941 11.806118 26.352941 26.352941v245.970824a26.352941 26.352941 0 0 1-26.352941 26.352941h-421.647059a26.352941 26.352941 0 0 1-26.352941-26.352941v-96.64753H277.323294a26.352941 26.352941 0 0 1-26.142118-23.04l-0.210823-3.312941v-122.970353a26.352941 26.352941 0 0 1 52.525176-3.312941l0.180706 3.312941v96.617412H391.529412v-96.617412c0-13.432471 10.059294-24.515765 23.04-26.142117l3.312941-0.210824z m-632.470588-272.293647c13.432471 0 24.515765 10.029176 26.142117 23.04l0.210824 3.312941v17.558588a26.352941 26.352941 0 0 1-52.495059 3.312942L180.705882 338.823529v-17.558588c0-14.576941 11.806118-26.352941 26.352942-26.352941z m0 184.470588A26.352941 26.352941 0 0 1 180.705882 453.029647v-17.588706a26.352941 26.352941 0 0 1 51.59153-7.619765 26.322824 26.322824 0 0 1-4.367059 51.350589l-3.312941 0.210823h-17.558588zM224.617412 180.705882a26.352941 26.352941 0 0 1 7.649882 51.59153 26.352941 26.352941 0 0 1-51.350588-4.367059L180.705882 224.617412v-17.558588c0-13.432471 10.059294-24.515765 23.04-26.142118L207.058824 180.705882h17.558588z m439.235764 114.206118c13.432471 0 24.515765 10.029176 26.142118 23.04l0.210824 3.312941v17.558588a26.352941 26.352941 0 0 1-52.525177 3.312942l-0.180706-3.312942v-17.558588c0-14.576941 11.776-26.352941 26.352941-26.352941z m-17.588705 184.470588a26.352941 26.352941 0 0 1-7.619765-51.591529 26.292706 26.292706 0 0 1 51.350588 4.367059l0.210824 3.312941v17.558588a26.352941 26.352941 0 0 1-23.070118 26.142118l-3.312941 0.210823h-17.558588zM663.853176 180.705882c13.432471 0 24.515765 10.059294 26.142118 23.04l0.210824 3.312942v17.558588a26.352941 26.352941 0 0 1-51.59153 7.649882 26.352941 26.352941 0 0 1 4.367059-51.350588l3.312941-0.210824h17.558588zM330.029176 180.705882a26.352941 26.352941 0 0 1 3.312942 52.495059l-3.312942 0.210824h-17.558588a26.352941 26.352941 0 0 1-3.312941-52.495059l3.312941-0.210824h17.558588z m114.206118 0a26.352941 26.352941 0 0 1 3.312941 52.495059l-3.312941 0.210824h-17.558588a26.352941 26.352941 0 0 1-3.312941-52.495059l3.312941-0.210824h17.558588z m0 245.970824a26.352941 26.352941 0 0 1 3.312941 52.495059l-3.312941 0.210823h-17.558588a26.352941 26.352941 0 0 1-3.312941-52.525176l3.312941-0.180706h17.558588zM558.441412 180.705882a26.352941 26.352941 0 0 1 3.312941 52.495059l-3.312941 0.210824h-17.588706a26.352941 26.352941 0 0 1-3.312941-52.495059l3.312941-0.210824h17.588706z m-228.412236 245.970824a26.352941 26.352941 0 0 1 3.312942 52.495059l-3.312942 0.210823h-17.558588a26.352941 26.352941 0 0 1-3.312941-52.525176l3.312941-0.180706h17.558588z m228.412236 0a26.352941 26.352941 0 0 1 3.312941 52.495059l-3.312941 0.210823h-17.588706a26.352941 26.352941 0 0 1-3.312941-52.525176l3.312941-0.180706h17.588706z" fill="#568af2" /></svg>