<svg class="icon" style="width: 1em;height: 1em;vertical-align: middle;fill: currentColor;overflow: hidden;" viewBox="0 0 1024 1024" version="1.1" xmlns="http://www.w3.org/2000/svg" width="32" height="32"><path d="M814.441412 180.705882c33.942588 0 61.470118 27.527529 61.470117 61.500236v527.058823a61.500235 61.500235 0 0 1-61.470117 61.470118h-632.470588A61.500235 61.500235 0 0 1 120.470588 769.264941v-527.058823C120.470588 208.233412 147.998118 180.705882 181.970824 180.705882z m-430.622118 216.395294a26.352941 26.352941 0 0 0-40.448-18.944l-70.294588 45.327059-2.650353 1.987765a26.352941 26.352941 0 0 0-5.210353 34.454588l1.987765 2.650353c8.402824 10.059294 23.190588 12.498824 34.454588 5.210353l29.635765-19.154823v162.514823l0.210823 3.312941a26.352941 26.352941 0 0 0 52.495059-3.312941v-210.823529z m333.793882 0a26.352941 26.352941 0 0 0-40.448-18.944l-70.26447 45.327059-2.680471 1.987765a26.352941 26.352941 0 0 0-5.180235 34.454588l1.957647 2.650353c8.432941 10.059294 23.190588 12.498824 34.454588 5.210353l29.635765-19.154823v162.514823l0.210824 3.312941a26.352941 26.352941 0 0 0 52.495058-3.312941v-210.823529z m-219.407058 134.987295a26.352941 26.352941 0 0 0-26.352942 26.352941v17.558588l0.180706 3.312941a26.352941 26.352941 0 0 0 52.525177-3.312941v-17.558588l-0.210824-3.312941a26.352941 26.352941 0 0 0-26.142117-23.04z m0-123.000471a26.352941 26.352941 0 0 0-26.352942 26.352941v17.588706l0.180706 3.312941a26.352941 26.352941 0 0 0 52.525177-3.312941v-17.588706l-0.210824-3.312941a26.352941 26.352941 0 0 0-26.142117-23.04z" fill="#568af2" /></svg>