<svg class="icon" style="width: 1em;height: 1em;vertical-align: middle;fill: currentColor;overflow: hidden;" viewBox="0 0 1024 1024" version="1.1" xmlns="http://www.w3.org/2000/svg" width="32" height="32"><path d="M510.735059 707.764706c13.432471 0 24.545882 10.059294 26.172235 23.04l0.180706 3.312941v70.264471a26.352941 26.352941 0 0 1-52.495059 3.312941l-0.210823-3.312941v-70.264471c0-14.546824 11.806118-26.352941 26.352941-26.352941zM844.559059 215.853176c13.432471 0 24.515765 10.029176 26.142117 23.04l0.210824 3.312942v527.058823a26.352941 26.352941 0 0 1-23.070118 26.142118l-3.312941 0.210823h-228.382117a26.352941 26.352941 0 0 1-3.312942-52.525176l3.312942-0.180706 43.911529-0.030118V655.058824h-43.911529a26.352941 26.352941 0 0 1-3.312942-52.495059l3.312942-0.210824h202.029176v-193.264941h-202.029176a26.352941 26.352941 0 0 1-3.312942-52.495059l3.312942-0.210823h43.911529V268.528941h-43.911529a26.352941 26.352941 0 0 1-3.312942-52.495059l3.312942-0.180706h228.412235z m-439.235765 0a26.352941 26.352941 0 0 1 3.312941 52.495059l-3.312941 0.210824L361.411765 268.528941v87.853177h43.971764a26.352941 26.352941 0 0 1 3.312942 52.525176l-3.312942 0.180706h-202.089411V602.352941h202.089411a26.352941 26.352941 0 0 1 3.312942 52.495059l-3.312942 0.210824h-43.971764v87.823058h43.971764a26.352941 26.352941 0 0 1 3.312942 52.525177l-3.312942 0.210823H176.911059a26.352941 26.352941 0 0 1-26.142118-23.070117L150.588235 769.234824v-527.058824c0-13.402353 10.059294-24.515765 23.04-26.142118l3.312941-0.180706h228.382118z m105.411765 316.235295c13.432471 0 24.545882 10.029176 26.172235 23.04l0.180706 3.312941v70.26447a26.352941 26.352941 0 0 1-52.495059 3.312942l-0.210823-3.312942v-70.26447c0-14.576941 11.806118-26.352941 26.352941-26.352941z m0-175.706353c13.432471 0 24.545882 10.059294 26.172235 23.070117l0.180706 3.312941v70.264471a26.352941 26.352941 0 0 1-52.495059 3.312941l-0.210823-3.312941v-70.294588c0-14.546824 11.806118-26.352941 26.352941-26.352941z m0-175.676236c13.432471 0 24.545882 10.059294 26.172235 23.04l0.180706 3.312942v70.26447a26.352941 26.352941 0 0 1-52.495059 3.312941l-0.210823-3.312941V207.058824c0-14.546824 11.806118-26.352941 26.352941-26.352942z" fill="#568af2" /></svg>