<svg class="icon" style="width: 1em;height: 1em;vertical-align: middle;fill: currentColor;overflow: hidden;" viewBox="0 0 1024 1024" version="1.1" xmlns="http://www.w3.org/2000/svg" width="32" height="32"><path d="M804.382118 373.970824H207.058824a26.352941 26.352941 0 0 0-26.352942 26.352941v245.940706c0 14.576941 11.806118 26.352941 26.352942 26.352941h597.323294a26.352941 26.352941 0 0 0 26.352941-26.352941v-245.940706a26.352941 26.352941 0 0 0-26.352941-26.352941z m-26.352942 52.675764v193.264941H233.411765v-193.264941h544.617411z" fill="#568af2" /><path d="M505.735529 180.705882c13.432471 0 24.515765 10.059294 26.142118 23.04l0.210824 3.312942v632.470588a26.352941 26.352941 0 0 1-52.525177 3.312941l-0.180706-3.312941v-632.470588c0-14.546824 11.776-26.352941 26.352941-26.352942z" fill="#568af2" /></svg>