<svg class="icon" style="width: 1em;height: 1em;vertical-align: middle;fill: currentColor;overflow: hidden;" viewBox="0 0 1024 1024" version="1.1" xmlns="http://www.w3.org/2000/svg" width="32" height="32"><path d="M650.029176 769.264941V277.323294a26.352941 26.352941 0 0 0-26.352941-26.352941h-210.823529a26.352941 26.352941 0 0 0-26.352941 26.352941v491.941647c0 14.546824 11.806118 26.352941 26.352941 26.352941h210.823529a26.352941 26.352941 0 0 0 26.352941-26.352941zM799.382588 180.705882c13.432471 0 24.515765 10.059294 26.142118 23.04l0.210823 3.312942v632.470588a26.352941 26.352941 0 0 1-52.525176 3.312941l-0.180706-3.312941v-632.470588c0-14.546824 11.776-26.352941 26.352941-26.352942zM237.176471 180.705882c13.432471 0 24.515765 10.059294 26.142117 23.04l0.210824 3.312942v632.470588a26.352941 26.352941 0 0 1-52.495059 3.312941L210.823529 839.529412v-632.470588C210.823529 192.512 222.629647 180.705882 237.176471 180.705882z" fill="#568af2" /></svg>