<svg class="icon" style="width: 1em;height: 1em;vertical-align: middle;fill: currentColor;overflow: hidden;" viewBox="0 0 1024 1024" version="1.1" xmlns="http://www.w3.org/2000/svg" width="32" height="32"><path d="M501.970824 124.235294c101.496471 0 196.728471 40.267294 267.083294 110.622118a376.560941 376.560941 0 0 1 110.622117 267.113412c0 101.496471-40.267294 196.728471-110.622117 267.083294a376.560941 376.560941 0 0 1-267.083294 110.622117c-101.526588 0-196.728471-40.267294-267.113412-110.622117a376.560941 376.560941 0 0 1-110.622118-267.083294c0-101.526588 40.267294-196.728471 110.622118-267.113412a376.560941 376.560941 0 0 1 267.113412-110.622118z m245.940705 351.382588a26.352941 26.352941 0 0 0-26.352941 26.352942c0 59.030588-23.371294 114.326588-64.301176 155.286588a218.804706 218.804706 0 0 1-155.286588 64.301176 26.352941 26.352941 0 0 0 0 52.705883c73.185882 0 141.824-29.033412 192.542117-79.75153a271.510588 271.510588 0 0 0 79.75153-192.542117 26.352941 26.352941 0 0 0-26.352942-26.352942z" fill="#568af2" /></svg>