<svg class="icon" style="width: 1em;height: 1em;vertical-align: middle;fill: currentColor;overflow: hidden;" viewBox="0 0 1024 1024" version="1.1" xmlns="http://www.w3.org/2000/svg" width="32" height="32"><path d="M278.347294 124.235294c13.432471 0 24.545882 10.059294 26.172235 23.04l0.180706 3.312941v37.526589h170.88753V150.588235c0-13.432471 10.059294-24.515765 23.070117-26.142117l3.312942-0.210824h127.759058c14.546824 0 26.352941 11.806118 26.352942 26.352941v127.759059a26.352941 26.352941 0 0 1-26.352942 26.352941h-37.526588v107.008h106.977882v-37.526588c0-13.432471 10.089412-24.515765 23.070118-26.142118l3.312941-0.210823h127.759059c13.432471 0 24.515765 10.059294 26.142118 23.04l0.210823 3.312941v127.789177a26.352941 26.352941 0 0 1-23.04 26.142117l-3.312941 0.210824-37.556706-0.030118v170.887529h37.556706c13.432471 0 24.515765 10.089412 26.142118 23.070118l0.210823 3.312941v127.759059a26.352941 26.352941 0 0 1-23.04 26.142118l-3.312941 0.210823h-127.759059a26.352941 26.352941 0 0 1-26.142117-23.04l-0.210824-3.312941-0.030118-37.526588h-170.887529v37.526588a26.352941 26.352941 0 0 1-23.04 26.142118l-3.312941 0.210823h-127.759059a26.352941 26.352941 0 0 1-26.142118-23.04l-0.210823-3.312941v-127.759059c0-13.432471 10.059294-24.515765 23.04-26.142117l3.312941-0.210824 44.784941-0.030118v-106.977882h-114.266353v37.526588a26.352941 26.352941 0 0 1-23.04 26.142118l-3.312941 0.210824H150.588235a26.352941 26.352941 0 0 1-26.352941-26.352942v-127.759058c0-14.576941 11.806118-26.352941 26.352941-26.352942l37.526589-0.030117v-170.88753H150.588235a26.352941 26.352941 0 0 1-26.142117-23.04l-0.210824-3.312941V150.588235c0-13.432471 10.059294-24.515765 23.04-26.142117L150.588235 124.235294h127.759059z m313.856 441.615059a26.352941 26.352941 0 0 1-23.04 26.142118l-3.312941 0.210823h-94.177882v106.977882h30.298353c13.432471 0 24.515765 10.089412 26.142117 23.070118l0.210824 3.312941-0.030118 37.526589h170.887529v-37.526589c0-13.432471 10.089412-24.515765 23.070118-26.142117l3.312941-0.210824 37.496471-0.030118v-170.887529h-37.496471a26.352941 26.352941 0 0 1-26.142117-23.04l-0.210824-3.312941-0.030118-37.526588h-106.977882v101.436235zM475.587765 240.820706h-170.88753v37.526588a26.352941 26.352941 0 0 1-23.04 26.172235l-3.312941 0.180706H240.820706v170.88753h37.526588c13.432471 0 24.545882 10.059294 26.172235 23.070117l0.180706 3.312942v37.526588h234.797177v-234.797177h-37.526588a26.352941 26.352941 0 0 1-26.172236-23.04l-0.180706-3.312941-0.030117-37.526588z" fill="#568af2" /></svg>