<svg class="icon" style="width: 1em;height: 1em;vertical-align: middle;fill: currentColor;overflow: hidden;" viewBox="0 0 1024 1024" version="1.1" xmlns="http://www.w3.org/2000/svg" width="32" height="32"><path d="M651.294118 150.588235c13.432471 0 24.515765 10.059294 26.142117 23.04l0.210824 3.312941v26.352942h131.764706c32.406588 0 58.970353 25.088 61.319529 56.922353l0.180706 4.577882v544.617412a61.500235 61.500235 0 0 1-56.922353 61.319529l-4.577882 0.180706H212.088471a61.500235 61.500235 0 0 1-61.31953-56.922353L150.588235 809.411765V264.794353c0-32.436706 25.088-58.970353 56.922353-61.319529l4.577883-0.180706h131.734588v-26.352942a26.352941 26.352941 0 0 1 52.525176-3.312941l0.210824 3.312941-0.030118 26.352942h228.412235v-26.352942c0-14.546824 11.806118-26.352941 26.352942-26.352941z m19.215058 356.74353l-2.710588 2.349176-192.210823 192.150588-86.738824-86.738823-2.710588-2.349177a26.352941 26.352941 0 0 0-36.924235 36.924236l2.349176 2.710588 105.411765 105.411765 2.710588 2.349176a26.383059 26.383059 0 0 0 31.864471 0l2.710588-2.379294 210.823529-210.823529 2.349177-2.710589a26.352941 26.352941 0 0 0-36.924236-36.894117zM343.823059 256H212.088471a8.794353 8.794353 0 0 0-8.553412 6.776471l-0.240941 2.017882v131.734588h614.881882V264.794353a8.794353 8.794353 0 0 0-4.909176-7.890824l-1.837177-0.662588-2.017882-0.240941H677.647059v61.500235a26.352941 26.352941 0 0 1-52.495059 3.312941l-0.210824-3.312941V256h-228.412235v61.500235a26.352941 26.352941 0 0 1-52.495059 3.312941l-0.180706-3.312941-0.030117-61.500235z" fill="#568af2" /></svg>