<svg class="icon" style="width: 1em;height: 1em;vertical-align: middle;fill: currentColor;overflow: hidden;" viewBox="0 0 1024 1024" version="1.1" xmlns="http://www.w3.org/2000/svg" width="32" height="32"><path d="M523.294118 496.941176c13.432471 0 24.515765 10.059294 26.142117 23.04l0.210824 3.312942V602.352941h289.882353c13.432471 0 24.515765 10.059294 26.142117 23.04l0.210824 3.312941v210.82353a26.352941 26.352941 0 0 1-26.352941 26.352941h-632.470588A26.352941 26.352941 0 0 1 180.705882 839.529412v-210.82353c0-14.546824 11.806118-26.352941 26.352942-26.352941H496.941176v-79.058823c0-14.546824 11.806118-26.352941 26.352942-26.352942z m-316.235294-219.617882c13.432471 0 24.515765 10.059294 26.142117 23.070118l0.210824 3.312941v17.558588a26.352941 26.352941 0 0 1-52.495059 3.312941L180.705882 321.234824v-17.588706c0-14.546824 11.806118-26.352941 26.352942-26.352942zM180.705882 400.323765a26.352941 26.352941 0 0 1 51.59153-7.649883 26.352941 26.352941 0 0 1-4.367059 51.350589l-3.312941 0.210823h-17.558588A26.352941 26.352941 0 0 1 180.705882 417.882353v-17.558588zM224.617412 180.705882a26.352941 26.352941 0 0 1 7.649882 51.59153 26.352941 26.352941 0 0 1-51.350588-4.367059L180.705882 224.617412v-17.558588c0-13.432471 10.059294-24.515765 23.04-26.142118L207.058824 180.705882h17.558588z m614.912 96.617412c13.432471 0 24.515765 10.059294 26.142117 23.070118l0.210824 3.312941v17.558588a26.352941 26.352941 0 0 1-52.495059 3.312941l-0.210823-3.312941v-17.588706c0-14.546824 11.806118-26.352941 26.352941-26.352941z m26.352941 140.559059a26.352941 26.352941 0 0 1-23.04 26.142118l-3.312941 0.210823h-17.558588a26.352941 26.352941 0 0 1-7.649883-51.591529 26.352941 26.352941 0 0 1 51.350588 4.367059l0.210824 3.312941v17.558588zM839.529412 180.705882c13.432471 0 24.515765 10.059294 26.142117 23.04l0.210824 3.312942v17.558588a26.352941 26.352941 0 0 1-51.591529 7.649882 26.352941 26.352941 0 0 1 4.367058-51.350588l3.312942-0.210824h17.558588zM347.617882 180.705882a26.352941 26.352941 0 0 1 3.312942 52.495059l-3.312942 0.210824h-17.588706a26.352941 26.352941 0 0 1-3.312941-52.495059l3.312941-0.210824h17.588706z m122.970353 0a26.352941 26.352941 0 0 1 3.312941 52.495059l-3.312941 0.210824h-17.558588a26.352941 26.352941 0 0 1-3.312941-52.495059l3.312941-0.210824h17.558588z m0 210.82353a26.352941 26.352941 0 0 1 3.312941 52.495059l-3.312941 0.210823h-17.558588a26.352941 26.352941 0 0 1-3.312941-52.495059l3.312941-0.210823h17.558588z m122.970353-210.82353a26.352941 26.352941 0 0 1 3.312941 52.495059l-3.312941 0.210824h-17.558588a26.352941 26.352941 0 0 1-3.312941-52.495059l3.312941-0.210824h17.558588z m-245.940706 210.82353a26.352941 26.352941 0 0 1 3.312942 52.495059l-3.312942 0.210823h-17.588706a26.352941 26.352941 0 0 1-3.312941-52.495059l3.312941-0.210823h17.588706z m245.940706 0a26.352941 26.352941 0 0 1 3.312941 52.495059l-3.312941 0.210823h-17.558588a26.352941 26.352941 0 0 1-3.312941-52.495059l3.312941-0.210823h17.558588z m123.000471-210.82353a26.352941 26.352941 0 0 1 3.312941 52.495059l-3.312941 0.210824h-17.588706a26.352941 26.352941 0 0 1-3.312941-52.495059l3.312941-0.210824h17.588706z m0 210.82353a26.352941 26.352941 0 0 1 3.312941 52.495059l-3.312941 0.210823h-17.588706a26.352941 26.352941 0 0 1-3.312941-52.495059l3.312941-0.210823h17.588706z" fill="#568af2" /></svg>