<svg class="icon" style="width: 1em;height: 1em;vertical-align: middle;fill: currentColor;overflow: hidden;" viewBox="0 0 1024 1024" version="1.1" xmlns="http://www.w3.org/2000/svg" width="32" height="32"><path d="M853.323294 712.794353h-140.528941v140.528941h140.528941v-140.528941z m-281.088 0h-140.559059v140.528941H572.235294v-140.528941z m-281.088 0H150.588235v140.528941h140.559059v-140.528941z m421.647059 0H572.235294V572.235294h140.559059v-140.559059h140.528941V572.235294h-140.528941v140.559059z m-421.647059-281.118118V572.235294h140.528941v-140.559059H572.235294V572.235294h-140.559059v140.559059H291.147294V572.235294H150.588235v-140.559059h140.559059zM853.323294 150.588235h-140.528941v140.559059h140.528941V150.588235zM572.235294 150.588235h-140.559059v140.559059H572.235294V150.588235zM291.147294 150.588235H150.588235v140.559059h140.559059V150.588235z m140.528941 140.559059H291.147294v140.528941h140.528941V291.147294z m281.118118 0H572.235294v140.528941h140.559059V291.147294z" fill="#568af2" /></svg>