<svg class="icon" style="width: 1em;height: 1em;vertical-align: middle;fill: currentColor;overflow: hidden;" viewBox="0 0 1024 1024" version="1.1" xmlns="http://www.w3.org/2000/svg" width="32" height="32"><path d="M320.180706 192.180706a26.352941 26.352941 0 0 1 39.634823 34.575059l-2.349176 2.710588-105.411765 105.411765a26.352941 26.352941 0 0 1-34.575059 2.349176l-2.710588-2.349176-52.705882-52.705883A26.352941 26.352941 0 0 1 196.668235 242.537412l2.710589 2.349176L233.411765 278.979765l86.768941-86.799059zM320.180706 438.151529a26.352941 26.352941 0 0 1 39.634823 34.575059l-2.349176 2.710588-105.411765 105.411765a26.352941 26.352941 0 0 1-34.575059 2.349177l-2.710588-2.379294-52.705882-52.705883A26.352941 26.352941 0 0 1 196.668235 488.508235l2.710589 2.349177 34.063058 34.063059 86.768942-86.768942zM320.180706 684.122353a26.352941 26.352941 0 0 1 39.634823 34.544941l-2.349176 2.710588-105.411765 105.411765a26.352941 26.352941 0 0 1-34.575059 2.349177l-2.710588-2.349177-52.705882-52.705882a26.352941 26.352941 0 0 1 34.575059-39.634824l2.710588 2.379294 34.063059 34.063059 86.768941-86.768941zM848.323765 483.147294a26.352941 26.352941 0 0 1 3.312941 52.495059l-3.312941 0.210823H461.793882a26.352941 26.352941 0 0 1-3.312941-52.525176l3.312941-0.180706h386.529883zM848.323765 729.088a26.352941 26.352941 0 0 1 3.312941 52.525176l-3.312941 0.180706H461.793882a26.352941 26.352941 0 0 1-3.312941-52.495058l3.312941-0.210824h386.529883zM848.323765 237.176471a26.352941 26.352941 0 0 1 3.312941 52.495058l-3.312941 0.210824H461.793882a26.352941 26.352941 0 0 1-3.312941-52.495059l3.312941-0.210823h386.529883z" fill="#568af2" /></svg>