<svg class="icon" style="width: 1em;height: 1em;vertical-align: middle;fill: currentColor;overflow: hidden;" viewBox="0 0 1024 1024" version="1.1" xmlns="http://www.w3.org/2000/svg" width="32" height="32"><path d="M281.088 632.470588h491.941647a26.352941 26.352941 0 0 0 26.352941-26.352941v-210.823529a26.352941 26.352941 0 0 0-26.352941-26.352942H281.088a26.352941 26.352941 0 0 0-26.352941 26.352942v210.823529c0 14.546824 11.806118 26.352941 26.352941 26.352941zM843.294118 755.440941a26.352941 26.352941 0 0 1 3.312941 52.525177l-3.312941 0.180706H210.823529a26.352941 26.352941 0 0 1-3.312941-52.495059l3.312941-0.210824h632.470589z m0-562.176a26.352941 26.352941 0 0 1 3.312941 52.495059l-3.312941 0.210824H210.823529a26.352941 26.352941 0 0 1-3.312941-52.525177L210.823529 193.264941h632.470589z" fill="#568af2" /></svg>