<svg class="icon" style="width: 1em;height: 1em;vertical-align: middle;fill: currentColor;overflow: hidden;" viewBox="0 0 1024 1024" version="1.1" xmlns="http://www.w3.org/2000/svg" width="32" height="32"><path d="M848.323765 193.264941a26.352941 26.352941 0 0 1 3.312941 52.495059l-3.312941 0.210824H180.705882a26.352941 26.352941 0 0 1-3.312941-52.525177L180.705882 193.264941h667.617883z m0 562.176a26.352941 26.352941 0 0 1 3.312941 52.525177l-3.312941 0.180706H180.705882a26.352941 26.352941 0 0 1-3.312941-52.495059l3.312941-0.210824h667.617883z m-158.117647-351.35247H338.823529a26.352941 26.352941 0 0 0-26.352941 26.352941v140.528941c0 14.576941 11.806118 26.352941 26.352941 26.352941h351.382589a26.352941 26.352941 0 0 0 26.352941-26.352941v-140.528941a26.352941 26.352941 0 0 0-26.352941-26.352941z" fill="#568af2" /></svg>