<svg class="icon" style="width: 1em;height: 1em;vertical-align: middle;fill: currentColor;overflow: hidden;" viewBox="0 0 1024 1024" version="1.1" xmlns="http://www.w3.org/2000/svg" width="32" height="32"><path d="M607.382588 184.470588c8.854588 0 17.046588 4.457412 21.89553 11.715765l1.65647 2.861176 45.417412 90.834824h124.265412c41.622588 0 76.318118 30.870588 78.908235 70.716235l0.150588 4.818824v428.694588c0 40.508235-33.069176 72.944941-74.089411 75.384471l-4.969412 0.150588H203.294118c-41.622588 0-76.288-30.870588-78.908236-70.716235l-0.150588-4.818824V365.417412c0-40.508235 33.099294-72.944941 74.089412-75.384471l4.969412-0.150588h124.265411l45.417412-90.834824a26.352941 26.352941 0 0 1 20.269177-14.366117l3.312941-0.210824h210.823529z m-36.291764 245.970824c-99.026824 4.306824-183.326118 31.533176-183.326118 94.659764 0 34.153412 15.691294 50.115765 59.120941 65.536l6.083765 2.108236 12.679529 4.035764 14.004706 4.126118 22.166588 6.144 12.348236 3.553882 10.752 3.312942 9.246117 3.102117 2.108236 0.722824 1.987764 0.722823 7.137883 2.770824 1.596235 0.662588 1.505882 0.662588 5.180236 2.499765 4.005647 2.319059c4.035765 2.620235 5.752471 4.939294 5.75247 7.047529 0 7.830588-15.179294 16.564706-38.851765 24.033883l-5.180235 1.596235-11.113412 3.011765-8.884705 2.138353-9.336471 2.017882-13.040941 2.439529-6.746353 1.114353-6.836706 1.024-14.064941 1.807059c-11.866353 1.355294-24.064 2.319059-36.291765 2.800941a26.352941 26.352941 0 0 0 2.048 52.675765l4.096-0.180706 4.096-0.180706 16.112941-0.993882 4.005647-0.301177 3.915294-0.301176 15.600942-1.505882c87.130353-9.637647 153.178353-36.984471 153.178353-91.196236 0-34.153412-15.661176-50.115765-59.120942-65.536l-6.083764-2.108235-12.649412-4.035765-14.034824-4.126117-28.521411-7.951059-11.535059-3.433412-9.999059-3.192471-8.553412-3.011764-7.137882-2.740706-5.842824-2.590118c-8.673882-4.156235-12.197647-7.589647-12.197647-10.601412 0-18.040471 65.054118-39.062588 132.909177-41.984a26.352941 26.352941 0 0 0-2.288941-52.675764z m19.998117-193.264941h-178.266353l-26.352941 52.705882h230.972235l-26.352941-52.705882z" fill="#568af2" /></svg>