<svg class="icon" style="width: 1em;height: 1em;vertical-align: middle;fill: currentColor;overflow: hidden;" viewBox="0 0 1024 1024" version="1.1" xmlns="http://www.w3.org/2000/svg" width="32" height="32"><path d="M809.411765 343.853176c32.406588 0 58.970353 25.088 61.319529 56.892236l0.180706 4.577882v404.088471a61.500235 61.500235 0 0 1-56.922353 61.319529l-4.577882 0.180706H405.323294a61.500235 61.500235 0 0 1-61.319529-56.922353l-0.150589-4.577882v-158.117647a26.352941 26.352941 0 0 1 52.495059-3.312942l0.210824 3.312942v158.117647c0 4.156235 2.891294 7.649882 6.746353 8.553411l2.017882 0.240942h404.088471a8.794353 8.794353 0 0 0 8.553411-6.776471l0.240942-2.017882V405.323294a8.794353 8.794353 0 0 0-6.776471-8.553412l-2.017882-0.210823h-158.117647a26.352941 26.352941 0 0 1-3.312942-52.525177l3.312942-0.180706h158.117647z" fill="#568af2" /><path d="M616.146824 150.588235c32.436706 0 58.970353 25.088 61.319529 56.922353l0.180706 4.577883v158.117647a26.352941 26.352941 0 0 1-52.495059 3.312941l-0.210824-3.312941v-158.117647a8.794353 8.794353 0 0 0-6.77647-8.553412l-2.017882-0.240941H212.088471a8.794353 8.794353 0 0 0-8.553412 6.77647l-0.240941 2.017883v404.058353c0 4.156235 2.891294 7.649882 6.77647 8.553411l2.017883 0.240941h158.117647a26.352941 26.352941 0 0 1 3.312941 52.495059l-3.312941 0.210824h-158.117647a61.500235 61.500235 0 0 1-61.31953-56.922353L150.588235 616.176941V212.088471c0-32.436706 25.088-58.970353 56.922353-61.31953L212.058353 150.588235h404.058353zM790.799059 351.563294a26.352941 26.352941 0 0 1 39.604706 34.575059l-2.349177 2.710588-421.647059 421.647059a26.352941 26.352941 0 0 1-39.634823-34.575059l2.379294-2.710588 421.647059-421.647059z" fill="#568af2" /><path d="M632.681412 193.445647a26.352941 26.352941 0 0 1 39.604706 34.575059l-2.349177 2.710588L230.731294 669.906824a26.352941 26.352941 0 0 1-39.634823-34.575059l2.349176-2.710589L632.681412 193.445647zM632.681412 351.563294a26.352941 26.352941 0 0 1 39.604706 34.575059l-2.349177 2.710588-281.088 281.088a26.352941 26.352941 0 0 1-39.634823-34.575059l2.349176-2.710588 281.118118-281.088zM825.916235 492.122353a26.352941 26.352941 0 0 1 39.634824 34.544941l-2.349177 2.710588L529.377882 863.171765a26.352941 26.352941 0 0 1-39.604706-34.544941l2.349177-2.710589L825.916235 492.122353zM492.122353 158.298353a26.352941 26.352941 0 0 1 39.634823 34.575059l-2.379294 2.710588L195.584 529.377882a26.352941 26.352941 0 0 1-39.634824-34.575058l2.379295-2.710589L492.122353 158.328471zM825.916235 667.798588a26.352941 26.352941 0 0 1 39.634824 34.575059l-2.349177 2.710588-158.117647 158.117647a26.352941 26.352941 0 0 1-39.634823-34.575058l2.349176-2.710589 158.117647-158.117647zM316.446118 158.298353a26.352941 26.352941 0 0 1 39.604706 34.575059l-2.349177 2.710588-158.117647 158.117647a26.352941 26.352941 0 0 1-39.634824-34.575059l2.379295-2.710588 158.117647-158.117647z" fill="#568af2" /></svg>