<svg class="icon" style="width: 1em;height: 1em;vertical-align: middle;fill: currentColor;overflow: hidden;" viewBox="0 0 1024 1024" version="1.1" xmlns="http://www.w3.org/2000/svg" width="32" height="32"><path d="M513.264941 120.470588a149.323294 149.323294 0 0 1 149.172706 142.848l0.150588 6.475294v106.074353a272.323765 272.323765 0 1 1-298.676706 0V269.793882A149.323294 149.323294 0 0 1 513.264941 120.470588z m0 386.499765a26.352941 26.352941 0 0 0-26.172235 23.070118l-0.180706 3.312941v140.528941l0.180706 3.312941a26.352941 26.352941 0 0 0 52.314353 0l0.210823-3.312941v-140.559059l-0.210823-3.312941a26.352941 26.352941 0 0 0-26.142118-23.04z m0-333.793882a96.617412 96.617412 0 0 0-96.496941 91.136l-0.150588 5.481411v79.149177A271.691294 271.691294 0 0 1 513.264941 331.294118c34.032941 0 66.56 6.234353 96.617412 17.648941V269.793882a96.617412 96.617412 0 0 0-96.617412-96.617411z" fill="#568af2" /></svg>