<svg class="icon" style="width: 1em;height: 1em;vertical-align: middle;fill: currentColor;overflow: hidden;" viewBox="0 0 1024 1024" version="1.1" xmlns="http://www.w3.org/2000/svg" width="32" height="32"><path d="M498.206118 120.470588c208.594824 0 377.705412 169.110588 377.705411 377.73553 0 208.594824-169.110588 377.705412-377.705411 377.705411C289.581176 875.911529 120.470588 706.800941 120.470588 498.206118 120.470588 289.581176 289.581176 120.470588 498.206118 120.470588z m-5.782589 178.477177a26.352941 26.352941 0 0 0-35.358117 11.776l-87.853177 175.676235-1.325176 3.132235a26.352941 26.352941 0 0 0 24.907294 35.026824l168.176941-0.030118-68.788706 137.577412-1.295059 3.011765a26.352941 26.352941 0 0 0 48.459295 20.540235l87.823058-175.676235 1.325177-3.132236a26.352941 26.352941 0 0 0-24.877177-34.996706l-168.207058-0.030117 68.788705-137.517177 1.295059-3.072a26.352941 26.352941 0 0 0-13.071059-32.286117z" fill="#568af2" /></svg>