<svg class="icon" style="width: 1em;height: 1em;vertical-align: middle;fill: currentColor;overflow: hidden;" viewBox="0 0 1024 1024" version="1.1" xmlns="http://www.w3.org/2000/svg" width="32" height="32"><path d="M488.146824 120.470588c13.432471 0 24.545882 10.059294 26.172235 23.04l0.180706 3.312941v140.559059a26.352941 26.352941 0 0 1-52.495059 3.312941l-0.210824-3.312941V173.176471H233.411765v114.206117a26.352941 26.352941 0 0 1-23.04 26.142118l-3.312941 0.210823a26.352941 26.352941 0 0 1-26.142118-23.070117L180.705882 287.352471V146.853647c0-13.432471 10.059294-24.515765 23.04-26.142118L207.058824 120.470588h281.088zM488.146824 682.676706c13.432471 0 24.545882 10.029176 26.172235 23.04l0.180706 3.312941v140.528941a26.352941 26.352941 0 0 1-23.04 26.172236l-3.312941 0.180705H207.058824a26.352941 26.352941 0 0 1-26.142118-23.04L180.705882 849.558588v-140.528941a26.352941 26.352941 0 0 1 52.495059-3.312941l0.210824 3.312941v114.176h228.382117v-114.176c0-13.432471 10.059294-24.545882 23.070118-26.172235l3.312941-0.180706zM839.529412 471.853176a26.352941 26.352941 0 0 1 3.312941 52.495059l-3.312941 0.210824H488.146824a26.352941 26.352941 0 0 1-3.312942-52.525177l3.312942-0.180706h351.382588z" fill="#568af2" /><path d="M347.617882 296.146824c13.432471 0 24.515765 10.059294 26.142118 23.070117l0.210824 3.312941v351.352471a26.352941 26.352941 0 0 1-52.525177 3.312941l-0.180706-3.312941V322.499765c0-14.546824 11.776-26.352941 26.352941-26.352941zM680.357647 339.004235a26.352941 26.352941 0 0 1 34.544941-2.349176l2.710588 2.349176 140.559059 140.559059c9.426824 9.426824 10.24 24.244706 2.349177 34.575059l-2.349177 2.710588-140.559059 140.528941a26.352941 26.352941 0 0 1-39.634823-34.575058l2.379294-2.710589 121.886118-121.916235-121.886118-121.886118a26.352941 26.352941 0 0 1-2.379294-34.575058l2.379294-2.710589z" fill="#568af2" /></svg>