<svg class="icon" style="width: 1em;height: 1em;vertical-align: middle;fill: currentColor;overflow: hidden;" viewBox="0 0 1024 1024" version="1.1" xmlns="http://www.w3.org/2000/svg" width="32" height="32"><path d="M523.294118 549.647059c13.432471 0 24.515765 10.059294 26.142117 23.04l0.210824 3.312941v263.529412a26.352941 26.352941 0 0 1-52.495059 3.312941l-0.210824-3.312941v-263.529412c0-14.546824 11.806118-26.352941 26.352942-26.352941z m316.235294-52.705883a26.352941 26.352941 0 0 1 3.312941 52.495059l-3.312941 0.210824h-263.529412a26.352941 26.352941 0 0 1-3.312941-52.495059l3.312941-0.210824h263.529412z" fill="#568af2" /><path d="M523.294118 444.235294a79.058824 79.058824 0 1 0 0 158.117647 79.058824 79.058824 0 0 0 0-158.117647z m0 52.705882a26.352941 26.352941 0 1 1 0 52.705883 26.352941 26.352941 0 0 1 0-52.705883z" fill="#568af2" /><path d="M839.529412 180.705882a26.352941 26.352941 0 0 1 3.312941 52.495059l-3.312941 0.210824h-316.235294c-157.334588 0-285.394824 125.349647-289.761883 281.630117l-0.12047 8.252236v316.235294a26.352941 26.352941 0 0 1-52.495059 3.312941L180.705882 839.529412v-316.235294c0-186.247529 148.630588-337.799529 333.733647-342.467765L523.294118 180.705882h316.235294z" fill="#568af2" /></svg>