<svg class="icon" style="width: 1em;height: 1em;vertical-align: middle;fill: currentColor;overflow: hidden;" viewBox="0 0 1024 1024" version="1.1" xmlns="http://www.w3.org/2000/svg" width="32" height="32"><path d="M663.853176 180.705882h-421.647058A61.500235 61.500235 0 0 0 180.705882 242.206118v562.176c0 33.972706 27.527529 61.500235 61.500236 61.500235h421.647058a61.500235 61.500235 0 0 0 61.470118-61.500235V242.206118A61.500235 61.500235 0 0 0 663.853176 180.705882z m175.676236 0c13.432471 0 24.515765 10.059294 26.142117 23.04l0.210824 3.312942v632.470588a26.352941 26.352941 0 0 1-52.495059 3.312941l-0.210823-3.312941v-632.470588c0-14.546824 11.806118-26.352941 26.352941-26.352942z" fill="#568af2" /></svg>