<svg class="icon" style="width: 1em;height: 1em;vertical-align: middle;fill: currentColor;overflow: hidden;" viewBox="0 0 1024 1024" version="1.1" xmlns="http://www.w3.org/2000/svg" width="32" height="32"><path d="M799.382588 256a26.352941 26.352941 0 0 1 3.312941 52.495059l-3.312941 0.210823H237.176471a26.352941 26.352941 0 0 1-3.312942-52.495058l3.312942-0.210824h562.206117zM623.676235 150.588235a26.352941 26.352941 0 0 1 3.312941 52.495059l-3.312941 0.210824h-210.823529a26.352941 26.352941 0 0 1-3.312941-52.495059l3.312941-0.210824h210.823529z m105.411765 210.82353h-421.647059a26.352941 26.352941 0 0 0-26.352941 26.352941v404.08847a79.058824 79.058824 0 0 0 79.058824 79.058824h316.235294a79.058824 79.058824 0 0 0 79.058823-79.058824V387.764706a26.352941 26.352941 0 0 0-26.352941-26.352941z" fill="#568af2" /></svg>