<svg class="icon" style="width: 1em;height: 1em;vertical-align: middle;fill: currentColor;overflow: hidden;" viewBox="0 0 1024 1024" version="1.1" xmlns="http://www.w3.org/2000/svg" width="32" height="32"><path d="M760.470588 184.470588a79.058824 79.058824 0 0 1 79.058824 79.058824v527.058823a79.058824 79.058824 0 0 1-79.058824 79.058824H233.411765a79.058824 79.058824 0 0 1-79.058824-79.058824V263.529412A79.058824 79.058824 0 0 1 233.411765 184.470588z m-263.529412 368.941177a43.911529 43.911529 0 1 0 0 87.853176 43.911529 43.911529 0 0 0 0-87.853176z m0-140.559059a43.911529 43.911529 0 1 0 0 87.853176 43.911529 43.911529 0 0 0 0-87.853176z" fill="#568af2" /><path d="M347.617882 377.735529c13.432471 0 24.515765 10.029176 26.142118 23.04l0.210824 3.312942v245.940705a26.352941 26.352941 0 0 1-52.525177 3.312942l-0.180706-3.312942v-245.940705c0-14.576941 11.776-26.352941 26.352941-26.352942zM646.264471 377.735529c13.432471 0 24.545882 10.029176 26.172235 23.04l0.180706 3.312942v245.940705a26.352941 26.352941 0 0 1-52.495059 3.312942l-0.210824-3.312942v-245.940705c0-14.576941 11.806118-26.352941 26.352942-26.352942z" fill="#568af2" /></svg>