<svg class="icon" style="width: 1em;height: 1em;vertical-align: middle;fill: currentColor;overflow: hidden;" viewBox="0 0 1024 1024" version="1.1" xmlns="http://www.w3.org/2000/svg" width="32" height="32"><path d="M722.823529 362.676706a26.352941 26.352941 0 0 1 3.312942 52.495059l-3.312942 0.210823H301.176471a26.352941 26.352941 0 0 1-3.312942-52.525176l3.312942-0.180706h421.647058zM722.823529 608.617412a26.352941 26.352941 0 0 1 3.312942 52.525176l-3.312942 0.180706H301.176471a26.352941 26.352941 0 0 1-3.312942-52.495059l3.312942-0.210823h421.647058z" fill="#568af2" /><path d="M389.029647 274.823529c13.432471 0 24.515765 10.059294 26.142118 23.04l0.210823 3.312942v421.647058a26.352941 26.352941 0 0 1-52.525176 3.312942l-0.180706-3.312942V301.176471c0-14.546824 11.776-26.352941 26.352941-26.352942zM634.970353 274.823529c13.432471 0 24.545882 10.059294 26.172235 23.04l0.180706 3.312942v421.647058a26.352941 26.352941 0 0 1-52.495059 3.312942l-0.210823-3.312942V301.176471c0-14.546824 11.806118-26.352941 26.352941-26.352942z" fill="#568af2" /></svg>