<svg class="icon" style="width: 1em;height: 1em;vertical-align: middle;fill: currentColor;overflow: hidden;" viewBox="0 0 1024 1024" version="1.1" xmlns="http://www.w3.org/2000/svg" width="32" height="32"><path d="M622.531765 319.066353a26.352941 26.352941 0 0 1-10.029177 33.370353l-2.921412 1.566118-125.199058 57.344v223.86447l125.199058 57.374118a26.352941 26.352941 0 0 1-18.883764 49.091764l-3.102118-1.174588-421.647059-193.264941a26.352941 26.352941 0 0 1-3.222588-46.170353l3.222588-1.716706 421.647059-193.264941a26.352941 26.352941 0 0 1 34.936471 12.950588z m-190.85553 291.990588V435.501176l-191.488 87.792942 191.488 87.762823zM739.147294 180.705882c13.432471 0 24.515765 10.059294 26.142118 23.04l0.210823 3.312942-0.030117 568.832 60.446117-60.416a26.352941 26.352941 0 0 1 34.575059-2.349177l2.710588 2.349177c9.426824 9.456941 10.209882 24.244706 2.349177 34.575058l-2.379294 2.710589-105.411765 105.411764c-15.811765 15.811765-42.285176 5.903059-44.784941-15.36l-0.180706-3.282823v-632.470588c0-14.546824 11.776-26.352941 26.352941-26.352942z" fill="#568af2" /></svg>