<svg class="icon" style="width: 1em;height: 1em;vertical-align: middle;fill: currentColor;overflow: hidden;" viewBox="0 0 1024 1024" version="1.1" xmlns="http://www.w3.org/2000/svg" width="32" height="32"><path d="M513.264941 120.470588C304.64 120.470588 135.529412 289.581176 135.529412 498.206118c0 208.594824 169.110588 377.705412 377.735529 377.705411 208.594824 0 377.705412-169.110588 377.705412-377.705411C890.970353 289.581176 721.859765 120.470588 513.264941 120.470588z m0 52.705883c179.501176 0 324.999529 145.528471 324.99953 325.029647s-145.498353 324.999529-324.99953 324.999529S188.235294 677.707294 188.235294 498.206118 333.763765 173.176471 513.264941 173.176471z" fill="#568af2" /><path d="M627.019294 144.263529a26.352941 26.352941 0 0 1 18.432 49.392942 325.12 325.12 0 0 0 0 609.099294 26.352941 26.352941 0 0 1-18.432 49.392941 377.825882 377.825882 0 0 1 0-707.885177z" fill="#568af2" /><path d="M726.738824 212.931765a26.352941 26.352941 0 0 1 32.617411 41.261176l-2.831059 2.228706-333.793882 228.382118a26.352941 26.352941 0 0 1-32.587294-41.261177l2.831059-2.228706L726.738824 212.931765zM797.063529 300.724706a26.352941 26.352941 0 0 1 32.527059 41.351529l-2.831059 2.198589-386.499764 263.529411a26.352941 26.352941 0 0 1-32.527059-41.321411l2.831059-2.228706 386.499764-263.529412zM831.728941 406.467765a26.352941 26.352941 0 0 1 33.430588 40.628706l-2.770823 2.258823-368.941177 263.529412a26.352941 26.352941 0 0 1-33.430588-40.598588l2.770824-2.288942 368.941176-263.529411zM831.849412 546.936471a26.352941 26.352941 0 0 1 33.189647 40.809411l-2.770824 2.258824-298.676706 210.823529a26.352941 26.352941 0 0 1-33.189647-40.809411l2.800942-2.258824 298.646588-210.823529z" fill="#568af2" /></svg>