<svg class="icon" style="width: 1em;height: 1em;vertical-align: middle;fill: currentColor;overflow: hidden;" viewBox="0 0 1024 1024" version="1.1" xmlns="http://www.w3.org/2000/svg" width="32" height="32"><path d="M0 0h1024v1024H0z" fill="#568af2" fill-opacity="0" /><path d="M808.146824 184.470588c32.436706 0 58.970353 25.088 61.319529 56.922353l0.180706 4.577883v368.941176a61.500235 61.500235 0 0 1-56.922353 61.319529l-4.577882 0.150589h-158.117648a26.352941 26.352941 0 0 1-3.312941-52.495059l3.312941-0.210824h158.117648a8.794353 8.794353 0 0 0 8.553411-6.746353l0.240941-2.017882V245.970824a8.794353 8.794353 0 0 0-6.77647-8.553412l-2.017882-0.240941h-368.941177a8.794353 8.794353 0 0 0-8.553412 6.77647l-0.210823 2.017883v158.117647a26.352941 26.352941 0 0 1-52.525177 3.312941l-0.180706-3.312941v-158.117647c0-32.436706 25.088-58.970353 56.892236-61.31953l4.577882-0.180706h368.941177z" fill="#568af2" /><path d="M404.088471 377.735529a26.352941 26.352941 0 0 1 3.312941 52.495059l-3.312941 0.210824h-158.117647a8.794353 8.794353 0 0 0-8.553412 6.746353l-0.240941 2.017882v368.941177c0 4.156235 2.891294 7.649882 6.77647 8.553411l2.017883 0.240941h368.941176a8.794353 8.794353 0 0 0 8.553412-6.77647l0.210823-2.017882v-158.117648a26.352941 26.352941 0 0 1 52.525177-3.312941l0.180706 3.312941v158.117648a61.500235 61.500235 0 0 1-56.892236 61.319529l-4.577882 0.180706H245.970824a61.500235 61.500235 0 0 1-61.31953-56.922353l-0.180706-4.577882v-368.941177c0-32.406588 25.088-58.970353 56.922353-61.319529l4.577883-0.150589h158.117647z" fill="#568af2" /><path d="M614.912 377.735529h-175.706353a61.500235 61.500235 0 0 0-61.470118 61.470118v175.706353c0 33.942588 27.527529 61.470118 61.470118 61.470118h175.706353a61.500235 61.500235 0 0 0 61.470118-61.470118v-175.706353a61.500235 61.500235 0 0 0-61.470118-61.470118z m-175.706353 52.705883h175.706353c4.818824 0 8.764235 3.915294 8.764235 8.764235v175.706353c0 4.818824-3.915294 8.764235-8.764235 8.764235h-175.706353a8.794353 8.794353 0 0 1-8.764235-8.764235v-175.706353c0-4.818824 3.915294-8.764235 8.764235-8.764235z" fill="#568af2" /></svg>