<svg class="icon" style="width: 1em;height: 1em;vertical-align: middle;fill: currentColor;overflow: hidden;" viewBox="0 0 1024 1024" version="1.1" xmlns="http://www.w3.org/2000/svg" width="32" height="32"><path d="M501.970824 791.823059c13.432471 0 24.515765 10.059294 26.142117 23.070117l0.210824 3.312942v52.705882a26.352941 26.352941 0 0 1-52.525177 3.312941l-0.180706-3.312941v-52.705882c0-14.576941 11.776-26.383059 26.352942-26.383059z m-208.655059-73.276235a26.352941 26.352941 0 0 1 2.469647 34.544941l-2.349177 2.710588-35.96047 36.171294a26.352941 26.352941 0 0 1-39.725177-34.454588l2.349177-2.710588 35.96047-36.141177a26.352941 26.352941 0 0 1 37.25553-0.12047z m462.305882-9.487059l2.710588 2.349176 43.369412 43.369412a26.352941 26.352941 0 0 1-34.575059 39.604706l-2.710588-2.349177-43.369412-43.369411a26.352941 26.352941 0 0 1 34.605177-39.604706zM502.362353 299.911529a219.617882 219.617882 0 1 1 0 439.235765 219.617882 219.617882 0 0 1 0-439.235765z m0 96.64753a122.970353 122.970353 0 1 0 0 245.940706v-245.940706z m-281.479529 96.617412a26.352941 26.352941 0 0 1 3.312941 52.495058l-3.312941 0.210824H150.588235a26.352941 26.352941 0 0 1-3.312941-52.495059l3.312941-0.210823h70.264471z m632.470588-17.558589a26.352941 26.352941 0 0 1 3.312941 52.495059l-3.312941 0.210824H783.058824a26.352941 26.352941 0 0 1-3.312942-52.525177l3.312942-0.180706h70.26447zM783.36 231.273412a26.352941 26.352941 0 0 1 2.469647 34.544941l-2.349176 2.710588-43.218824 43.489883a26.352941 26.352941 0 0 1-39.755294-34.454589l2.379294-2.710588 43.218824-43.489882a26.352941 26.352941 0 0 1 37.255529-0.090353zM272.715294 228.954353l2.710588 2.379294 36.050824 36.050824a26.352941 26.352941 0 0 1-34.575059 39.634823l-2.710588-2.349176-36.050824-36.080942a26.352941 26.352941 0 0 1 34.575059-39.634823z m229.25553-104.719059c13.432471 0 24.515765 10.059294 26.142117 23.04l0.210824 3.312941v70.264471a26.352941 26.352941 0 0 1-52.525177 3.312941l-0.180706-3.312941V150.588235c0-14.546824 11.776-26.352941 26.352942-26.352941z" fill="#568af2" /></svg>