<svg class="icon" style="width: 1em;height: 1em;vertical-align: middle;fill: currentColor;overflow: hidden;" viewBox="0 0 1024 1024" version="1.1" xmlns="http://www.w3.org/2000/svg" width="32" height="32"><path d="M799.382588 180.705882c13.432471 0 24.515765 10.059294 26.142118 23.04l0.210823 3.312942v86.678588a26.352941 26.352941 0 0 1-52.525176 3.312941l-0.180706-3.312941-0.030118-60.325647H263.529412v60.325647a26.352941 26.352941 0 0 1-23.04 26.142117l-3.312941 0.210824a26.352941 26.352941 0 0 1-26.142118-23.04L210.823529 293.737412V207.058824c0-13.432471 10.059294-24.515765 23.04-26.142118L237.176471 180.705882h562.206117z" fill="#568af2" /><path d="M518.264471 180.705882c13.432471 0 24.545882 10.059294 26.172235 23.04l0.180706 3.312942v632.470588a26.352941 26.352941 0 0 1-52.495059 3.312941l-0.210824-3.312941v-632.470588c0-14.546824 11.806118-26.352941 26.352942-26.352942z" fill="#568af2" /><path d="M658.823529 813.176471a26.352941 26.352941 0 0 1 3.312942 52.495058l-3.312942 0.210824h-281.088a26.352941 26.352941 0 0 1-3.312941-52.495059l3.312941-0.210823h281.088z" fill="#568af2" /></svg>