<svg class="icon" style="width: 1em;height: 1em;vertical-align: middle;fill: currentColor;overflow: hidden;" viewBox="0 0 1024 1024" version="1.1" xmlns="http://www.w3.org/2000/svg" width="32" height="32"><path d="M328.975059 487.092706a26.352941 26.352941 0 0 1 39.634823 34.575059l-2.379294 2.710588-139.474823 139.444706 139.474823 139.504941c9.456941 9.426824 10.24 24.244706 2.379294 34.575059l-2.379294 2.710588a26.352941 26.352941 0 0 1-34.544941 2.349177l-2.710588-2.379295-158.117647-158.117647a26.352941 26.352941 0 0 1-2.349177-34.575058l2.349177-2.710589 158.117647-158.117647z" fill="#568af2" /><path d="M496.941176 637.650824a26.352941 26.352941 0 0 1 3.312942 52.495058l-3.312942 0.210824H189.500235a26.352941 26.352941 0 0 1-3.312941-52.525177l3.312941-0.180705H496.941176zM680.357647 346.533647a26.352941 26.352941 0 0 1 34.575059-2.349176l2.710588 2.349176 158.117647 158.117647c9.426824 9.456941 10.209882 24.244706 2.349177 34.575059l-2.379294 2.710588-158.117648 158.117647a26.352941 26.352941 0 0 1-39.604705-34.575059l2.349176-2.710588 139.474824-139.474823-139.474824-139.474824a26.352941 26.352941 0 0 1-2.349176-34.575059l2.349176-2.710588z" fill="#568af2" /><path d="M857.088 497.091765a26.352941 26.352941 0 0 1 3.312941 52.495059l-3.312941 0.210823H549.647059a26.352941 26.352941 0 0 1-3.312941-52.495059l3.312941-0.210823h307.440941zM865.882353 154.352941c13.432471 0 24.515765 10.059294 26.142118 23.04l0.210823 3.312941v131.764706a26.352941 26.352941 0 0 1-52.495059 3.312941l-0.210823-3.312941v-105.411764h-632.470588v263.529411a26.352941 26.352941 0 0 1-23.04 26.142118L180.705882 496.941176a26.352941 26.352941 0 0 1-26.142117-23.04l-0.210824-3.312941V180.705882c0-13.432471 10.059294-24.515765 23.04-26.142117L180.705882 154.352941h685.176471z" fill="#568af2" /></svg>