<svg class="icon" style="width: 1em;height: 1em;vertical-align: middle;fill: currentColor;overflow: hidden;" viewBox="0 0 1024 1024" version="1.1" xmlns="http://www.w3.org/2000/svg" width="32" height="32"><path d="M839.529412 180.705882c13.432471 0 24.515765 10.059294 26.142117 23.04l0.210824 3.312942v632.470588a26.352941 26.352941 0 0 1-52.495059 3.312941l-0.210823-3.312941v-632.470588c0-14.546824 11.806118-26.352941 26.352941-26.352942z m-175.676236 0h-281.118117a26.352941 26.352941 0 0 0-26.352941 26.352942v105.411764c0 14.546824 11.806118 26.352941 26.352941 26.352941h281.118117a26.352941 26.352941 0 0 0 26.352942-26.352941v-105.411764A26.352941 26.352941 0 0 0 663.853176 180.705882z m0 263.529412H312.470588a26.352941 26.352941 0 0 0-26.352941 26.352941v105.411765c0 14.546824 11.806118 26.352941 26.352941 26.352941h351.382588a26.352941 26.352941 0 0 0 26.352942-26.352941v-105.411765a26.352941 26.352941 0 0 0-26.352942-26.352941z m0 263.529412H207.058824a26.352941 26.352941 0 0 0-26.352942 26.352941v105.411765c0 14.546824 11.806118 26.352941 26.352942 26.352941h456.794352a26.352941 26.352941 0 0 0 26.352942-26.352941v-105.411765a26.352941 26.352941 0 0 0-26.352942-26.352941z" fill="#568af2" /></svg>