<svg class="icon" style="width: 1em;height: 1em;vertical-align: middle;fill: currentColor;overflow: hidden;" viewBox="0 0 1024 1024" version="1.1" xmlns="http://www.w3.org/2000/svg" width="32" height="32"><path d="M791.853176 150.588235a79.058824 79.058824 0 0 1 79.058824 79.058824v562.206117a79.058824 79.058824 0 0 1-79.058824 79.058824H229.647059A79.058824 79.058824 0 0 1 150.588235 791.853176V229.647059A79.058824 79.058824 0 0 1 229.647059 150.588235z m-51.651764 130.710589a26.352941 26.352941 0 0 0-37.25553 0l-421.647058 421.647058-2.379295 2.710589a26.352941 26.352941 0 0 0 39.634824 34.544941l421.647059-421.647059 2.349176-2.710588a26.352941 26.352941 0 0 0-2.349176-34.544941z m-36.201412 361.200941h-140.559059l-3.312941 0.210823a26.352941 26.352941 0 0 0 3.312941 52.495059h140.559059l3.312941-0.180706a26.352941 26.352941 0 0 0-3.312941-52.525176zM370.206118 273.558588a26.352941 26.352941 0 0 0-26.352942 26.352941l-0.030117 43.91153H299.911529l-3.312941 0.210823a26.352941 26.352941 0 0 0 3.312941 52.525177l43.91153-0.030118v43.941647l0.210823 3.312941a26.352941 26.352941 0 0 0 52.525177-3.312941l-0.030118-43.941647h43.941647l3.312941-0.180706a26.352941 26.352941 0 0 0-3.312941-52.495059l-43.941647-0.030117V299.911529l-0.180706-3.312941a26.352941 26.352941 0 0 0-26.142117-23.04z" fill="#568af2" /></svg>