<svg class="icon" style="width: 1em;height: 1em;vertical-align: middle;fill: currentColor;overflow: hidden;" viewBox="0 0 1024 1024" version="1.1" xmlns="http://www.w3.org/2000/svg" width="32" height="32"><path d="M764.235294 120.470588c32.406588 0 58.970353 25.088 61.31953 56.922353l0.180705 4.577883v316.235294a26.352941 26.352941 0 0 1-52.525176 3.312941l-0.180706-3.312941v-316.235294a8.794353 8.794353 0 0 0-6.776471-8.553412l-2.017882-0.240941H272.323765a8.794353 8.794353 0 0 0-8.553412 6.77647l-0.240941 2.017883v632.470588c0 4.156235 2.891294 7.619765 6.77647 8.553412l2.017883 0.210823h245.940706a26.352941 26.352941 0 0 1 3.312941 52.525177l-3.312941 0.180705H272.323765a61.500235 61.500235 0 0 1-61.31953-56.892235L210.823529 814.441412v-632.470588c0-32.436706 25.088-58.970353 56.922353-61.31953L272.293647 120.470588h491.911529z" fill="#568af2" /><path d="M720.323765 594.823529c13.432471 0 24.515765 10.059294 26.142117 23.04l0.210824 3.312942v228.382117a26.352941 26.352941 0 0 1-52.525177 3.312941l-0.180705-3.312941v-228.382117c0-14.546824 11.776-26.352941 26.352941-26.352942z" fill="#568af2" /><path d="M701.680941 584.975059a26.352941 26.352941 0 0 1 34.575059-2.349177l2.710588 2.349177 79.028706 79.058823a26.352941 26.352941 0 0 1-34.544941 39.634824l-2.710588-2.379294-60.446118-60.416-60.416 60.416a26.352941 26.352941 0 0 1-34.544941 2.379294l-2.710588-2.379294a26.352941 26.352941 0 0 1-2.349177-34.544941l2.349177-2.710589 79.058823-79.058823zM658.823529 331.294118a26.352941 26.352941 0 0 1 3.312942 52.495058l-3.312942 0.210824h-281.088a26.352941 26.352941 0 0 1-3.312941-52.495059l3.312941-0.210823h281.088zM518.264471 471.853176a26.352941 26.352941 0 0 1 3.312941 52.495059l-3.312941 0.210824h-140.528942a26.352941 26.352941 0 0 1-3.312941-52.495059l3.312941-0.210824h140.528942z" fill="#568af2" /></svg>