<svg class="icon" style="width: 1em;height: 1em;vertical-align: middle;fill: currentColor;overflow: hidden;" viewBox="0 0 1024 1024" version="1.1" xmlns="http://www.w3.org/2000/svg" width="32" height="32"><path d="M749.176471 190.464l3.915294 3.614118 99.388235 99.388235c22.738824 22.738824 23.943529 58.88 3.614118 83.034353l-3.614118 3.915294-472.064 472.064a61.500235 61.500235 0 0 1-83.064471 3.614118l-3.915294-3.614118-99.388235-99.388235a61.500235 61.500235 0 0 1-3.584-83.034353l3.614118-3.915294L666.142118 194.078118a61.500235 61.500235 0 0 1 83.034353-3.614118z m25.690353 398.426353l2.710588 2.349176 74.541176 74.541177c22.738824 22.738824 23.943529 58.88 3.614118 83.034353l-3.614118 3.915294-99.388235 99.388235a61.500235 61.500235 0 0 1-83.034353 3.614118l-3.915294-3.614118-74.541177-74.541176a26.352941 26.352941 0 0 1 34.575059-39.634824l2.710588 2.379294 74.511059 74.511059a8.794353 8.794353 0 0 0 10.842353 1.264941l1.596236-1.264941 99.388235-99.388235a8.794353 8.794353 0 0 0 1.234823-10.842353l-1.264941-1.566118-74.511059-74.541176a26.352941 26.352941 0 0 1 34.544942-39.604706zM452.999529 558.381176a35.147294 35.147294 0 1 0 0 70.264471 35.147294 35.147294 0 0 0 0-70.264471z m70.264471-70.26447a35.147294 35.147294 0 1 0 0 70.26447 35.147294 35.147294 0 0 0 0-70.26447z m70.294588-70.294588a35.147294 35.147294 0 1 0 0 70.294588 35.147294 35.147294 0 0 0 0-70.294588z m-199.137882-244.555294l3.915294 3.553882 74.541176 74.541176a26.352941 26.352941 0 0 1-34.575058 39.634824l-2.710589-2.349177L361.110588 214.136471a8.794353 8.794353 0 0 0-10.842353-1.264942l-1.596235 1.264942-99.388235 99.388235a8.794353 8.794353 0 0 0-1.234824 10.842353l1.264941 1.566117 74.511059 74.541177a26.352941 26.352941 0 0 1-34.544941 39.634823l-2.710588-2.349176-74.541177-74.541176a61.500235 61.500235 0 0 1-3.614117-83.064471l3.614117-3.915294 99.388236-99.388235a61.500235 61.500235 0 0 1 83.034353-3.584z" fill="#568af2" /></svg>