<svg class="icon" style="width: 1em;height: 1em;vertical-align: middle;fill: currentColor;overflow: hidden;" viewBox="0 0 1024 1024" version="1.1" xmlns="http://www.w3.org/2000/svg" width="32" height="32"><path d="M849.558588 496.941176a26.352941 26.352941 0 0 1 3.312941 52.495059l-3.312941 0.210824h-421.647059a26.352941 26.352941 0 0 1-3.312941-52.495059l3.312941-0.210824h421.647059z m0 245.970824a26.352941 26.352941 0 0 1 3.312941 52.495059l-3.312941 0.210823h-421.647059a26.352941 26.352941 0 0 1-3.312941-52.525176l3.312941-0.180706h421.647059z m0-491.941647a26.352941 26.352941 0 0 1 3.312941 52.525176l-3.312941 0.180706h-421.647059a26.352941 26.352941 0 0 1-3.312941-52.495059l3.312941-0.210823h421.647059z m-562.176 421.647059H146.823529a26.352941 26.352941 0 0 0-26.352941 26.352941v140.559059c0 14.546824 11.806118 26.352941 26.352941 26.352941h140.559059a26.352941 26.352941 0 0 0 26.352941-26.352941v-140.559059a26.352941 26.352941 0 0 0-26.352941-26.352941z m0-245.940706H146.823529a26.352941 26.352941 0 0 0-26.352941 26.352941v140.528941c0 14.576941 11.806118 26.352941 26.352941 26.352941h140.559059a26.352941 26.352941 0 0 0 26.352941-26.352941v-140.528941a26.352941 26.352941 0 0 0-26.352941-26.352941z m0-245.970824H146.823529A26.352941 26.352941 0 0 0 120.470588 207.058824v140.559058c0 14.546824 11.806118 26.352941 26.352941 26.352942h140.559059a26.352941 26.352941 0 0 0 26.352941-26.352942V207.058824A26.352941 26.352941 0 0 0 287.382588 180.705882z" fill="#568af2" /></svg>