<svg class="icon" style="width: 1em;height: 1em;vertical-align: middle;fill: currentColor;overflow: hidden;" viewBox="0 0 1024 1024" version="1.1" xmlns="http://www.w3.org/2000/svg" width="32" height="32"><path d="M869.647059 658.823529v137.035295a73.788235 73.788235 0 0 1-73.788235 73.788235h-137.035295v-210.82353h210.82353z m-474.352941 0v210.82353h-137.035294a73.788235 73.788235 0 0 1-73.788236-73.788235v-137.035295h210.82353z m210.823529 0v210.82353h-158.117647v-210.82353h158.117647z m0-210.823529v158.117647h-158.117647v-158.117647h158.117647z m263.529412 0v158.117647h-210.82353v-158.117647h210.82353z m-263.529412-263.529412v210.82353h-158.117647v-210.82353h158.117647z m189.741177 0a73.788235 73.788235 0 0 1 73.788235 73.788236v137.035294h-210.82353v-210.82353z m-400.564706 0v210.82353h-210.82353v-137.035294a73.788235 73.788235 0 0 1 73.788236-73.788236h137.035294z m-210.82353 263.529412h210.82353v158.117647h-210.82353v-158.117647z" fill="#568af2" /></svg>