<svg class="icon" style="width: 1em;height: 1em;vertical-align: middle;fill: currentColor;overflow: hidden;" viewBox="0 0 1024 1024" version="1.1" xmlns="http://www.w3.org/2000/svg" width="32" height="32"><path d="M567.717647 598.738824a26.352941 26.352941 0 0 1 31.021177-31.021177l245.970823 49.212235c23.009882 4.608 28.973176 34.725647 9.426824 47.766589l-47.043765 31.35247 51.079529 51.049412c9.426824 9.456941 10.24 24.244706 2.349177 34.575059l-2.349177 2.710588-73.788235 73.788235a26.352941 26.352941 0 0 1-37.285647 0l-51.049412-51.079529-31.35247 47.043765c-12.378353 18.582588-40.207059 14.125176-46.893177-6.113883l-0.903529-3.312941zM804.382118 180.705882c32.436706 0 58.970353 25.088 61.319529 56.922353l0.180706 4.577883v245.940706a26.352941 26.352941 0 0 1-52.495059 3.312941l-0.210823-3.312941V242.206118a8.794353 8.794353 0 0 0-6.776471-8.553412l-2.017882-0.240941H242.206118a8.794353 8.794353 0 0 0-8.553412 6.77647l-0.240941 2.017883v562.176c0 4.156235 2.891294 7.649882 6.77647 8.553411l2.017883 0.240942h228.382117a26.352941 26.352941 0 0 1 3.312941 52.495058l-3.312941 0.210824H242.206118a61.500235 61.500235 0 0 1-61.31953-56.922353L180.705882 804.412235V242.206118c0-32.436706 25.088-58.970353 56.922353-61.31953L242.176 180.705882h562.176z" fill="#568af2" /></svg>