<svg class="icon" style="width: 1em;height: 1em;vertical-align: middle;fill: currentColor;overflow: hidden;" viewBox="0 0 1024 1024" version="1.1" xmlns="http://www.w3.org/2000/svg" width="32" height="32"><path d="M207.058824 120.470588c13.432471 0 24.515765 10.059294 26.142117 23.04l0.210824 3.312941v702.735059a26.352941 26.352941 0 0 1-52.495059 3.312941L180.705882 849.558588V146.823529C180.705882 132.276706 192.512 120.470588 207.058824 120.470588zM839.529412 120.470588c13.432471 0 24.515765 10.059294 26.142117 23.04l0.210824 3.312941v702.735059a26.352941 26.352941 0 0 1-52.495059 3.312941l-0.210823-3.312941V146.823529c0-14.546824 11.806118-26.352941 26.352941-26.352941zM399.239529 514.710588a26.352941 26.352941 0 0 1 39.634824 34.544941l-2.349177 2.710589-51.651764 51.621647 51.651764 51.651764c9.426824 9.456941 10.24 24.244706 2.349177 34.575059l-2.349177 2.710588a26.352941 26.352941 0 0 1-34.575058 2.349177l-2.710589-2.349177-70.26447-70.294588a26.352941 26.352941 0 0 1-2.349177-34.544941l2.349177-2.710588 70.26447-70.264471z" fill="#568af2" /><path d="M593.558588 366.441412a131.764706 131.764706 0 0 1 6.384941 263.378823l-6.384941 0.150589h-228.382117a26.352941 26.352941 0 0 1-3.312942-52.525177l3.312942-0.180706h228.382117a79.058824 79.058824 0 0 0 4.99953-157.967059l-4.99953-0.150588h-245.940706a26.352941 26.352941 0 0 1-3.312941-52.525176l3.312941-0.180706h245.940706z" fill="#568af2" /></svg>