<svg class="icon" style="width: 1em;height: 1em;vertical-align: middle;fill: currentColor;overflow: hidden;" viewBox="0 0 1024 1024" version="1.1" xmlns="http://www.w3.org/2000/svg" width="32" height="32"><path d="M504.651294 584.975059a26.352941 26.352941 0 0 1 34.575059-2.349177l2.710588 2.349177 105.411765 105.411765a26.352941 26.352941 0 0 1-34.575059 39.634823l-2.710588-2.379294-86.768941-86.768941-86.768942 86.768941a26.352941 26.352941 0 0 1-34.575058 2.379294l-2.710589-2.379294a26.352941 26.352941 0 0 1-2.349176-34.575059l2.349176-2.710588 105.411765-105.411765z" fill="#568af2" /><path d="M523.294118 594.823529c13.432471 0 24.515765 10.059294 26.142117 23.04l0.210824 3.312942v228.382117a26.352941 26.352941 0 0 1-52.495059 3.312941l-0.210824-3.312941v-228.382117c0-14.546824 11.806118-26.352941 26.352942-26.352942zM610.063059 268.739765a26.352941 26.352941 0 0 1 39.634823 34.575059l-2.349176 2.710588-105.411765 105.411764a26.352941 26.352941 0 0 1-34.575059 2.349177l-2.710588-2.379294-105.411765-105.411765a26.352941 26.352941 0 0 1 34.575059-39.604706l2.710588 2.349177 86.768942 86.768941 86.768941-86.768941z" fill="#568af2" /><path d="M523.294118 120.470588c13.432471 0 24.515765 10.059294 26.142117 23.04l0.210824 3.312941v228.382118a26.352941 26.352941 0 0 1-52.495059 3.312941l-0.210824-3.312941V146.823529c0-14.546824 11.806118-26.352941 26.352942-26.352941zM839.529412 471.853176a26.352941 26.352941 0 0 1 3.312941 52.495059l-3.312941 0.210824h-632.470588a26.352941 26.352941 0 0 1-3.312942-52.495059l3.312942-0.210824h632.470588z" fill="#568af2" /></svg>