<svg class="icon" style="width: 1em;height: 1em;vertical-align: middle;fill: currentColor;overflow: hidden;" viewBox="0 0 1024 1024" version="1.1" xmlns="http://www.w3.org/2000/svg" width="32" height="32"><path d="M796.852706 120.470588a79.058824 79.058824 0 0 1 78.908235 74.059294l0.150588 4.99953v456.794353a79.058824 79.058824 0 0 1-74.059294 78.908235l-4.999529 0.150588-26.352941-0.030117v61.500235a79.058824 79.058824 0 0 1-74.059294 78.908235l-4.99953 0.150588H199.529412a79.058824 79.058824 0 0 1-78.908236-74.059294L120.470588 796.852706V304.941176a79.058824 79.058824 0 0 1 74.059294-78.908235l4.99953-0.150588h61.470117v-26.352941a79.058824 79.058824 0 0 1 74.089412-78.908236L340.088471 120.470588h456.764235zM450.078118 512.271059a26.352941 26.352941 0 0 0 0 37.255529c15.992471 16.022588 16.353882 41.261176 1.234823 56.32l0.120471-0.150588-93.244236 84.630588a40.056471 40.056471 0 0 1-50.838588-0.542117l-3.102117-2.800942c-14.576941-14.576941-15.420235-40.628706-2.891295-56.621176l2.891295-3.252706 27.527529-26.864941a26.352941 26.352941 0 0 0-34.575059-39.634824l-2.710588 2.349177-27.166118 26.563765c-36.321882 36.291765-36.623059 98.424471-0.331294 134.746352 34.966588 34.966588 90.503529 37.044706 126.644706 5.210353l4.216471-3.975529 89.810823-81.498353 0.512-0.542118 0.421647-0.301176c34.514824-34.544941 35.117176-90.051765 2.770824-126.614588l-4.035765-4.276706a26.352941 26.352941 0 0 0-37.255529 0zM796.852706 173.176471H340.088471a26.352941 26.352941 0 0 0-26.172236 23.04l-0.180706 3.312941-0.030117 26.352941h377.735529a79.058824 79.058824 0 0 1 78.908235 74.059294l0.150589 4.999529v377.705412h26.352941a26.352941 26.352941 0 0 0 26.172235-23.04l0.180706-3.312941V199.559529a26.352941 26.352941 0 0 0-23.04-26.142117l-3.312941-0.210824z m-317.741177 189.982117l-4.246588 3.97553-93.364706 97.159529-2.319059 2.770824a26.202353 26.202353 0 0 0-2.048 3.312941 90.955294 90.955294 0 0 0-18.883764 62.192941c1.536 22.497882 11.143529 43.911529 27.527529 60.295529a26.352941 26.352941 0 0 0 39.634824-34.575058l-2.349177-2.710589-2.951529-3.222588a41.291294 41.291294 0 0 1-9.246118-23.341176 38.038588 38.038588 0 0 1 10.932706-29.756236 26.443294 26.443294 0 0 0 3.644235-4.517647l87.04-90.714353 3.102118-2.740706c14.968471-11.866353 37.948235-10.571294 52.886588 4.367059s16.233412 37.948235 4.065883 53.187765l-2.831059 3.162353-34.063059 36.080941-2.288941 2.770824a26.352941 26.352941 0 0 0 37.948235 35.84l2.650353-2.409412 37.496471-39.755294c31.322353-35.659294 29.274353-91.166118-5.722353-126.132706-34.966588-34.996706-90.503529-37.044706-126.644706-5.240471z" fill="#568af2" /></svg>