<svg class="icon" style="width: 1em;height: 1em;vertical-align: middle;fill: currentColor;overflow: hidden;" viewBox="0 0 1024 1024" version="1.1" xmlns="http://www.w3.org/2000/svg" width="32" height="32"><path d="M607.382588 184.470588c8.854588 0 17.046588 4.457412 21.89553 11.715765l1.65647 2.861176 45.417412 90.834824h124.265412c41.622588 0 76.318118 30.870588 78.908235 70.716235l0.150588 4.818824v428.694588c0 40.508235-33.069176 72.944941-74.089411 75.384471l-4.969412 0.150588H203.294118c-41.622588 0-76.288-30.870588-78.908236-70.716235l-0.150588-4.818824V365.417412c0-40.508235 33.099294-72.944941 74.089412-75.384471l4.969412-0.150588h124.265411l45.417412-90.834824a26.352941 26.352941 0 0 1 20.269177-14.366117l3.312941-0.210824h210.823529z m-105.411764 228.382118a166.912 166.912 0 1 0 0 333.824 166.912 166.912 0 0 0 0-333.824z m78.004705 83.516235a114.206118 114.206118 0 0 1-110.260705 192.963765l110.230588-192.963765z m-78.004705-30.810353c11.203765 0 22.046118 1.626353 32.286117 4.638118l-110.320941 192.933647a114.206118 114.206118 0 0 1 78.034824-197.571765z m89.118117-228.382117h-178.266353l-26.352941 52.705882h230.972235l-26.352941-52.705882z" fill="#568af2" /></svg>