<svg class="icon" style="width: 1em;height: 1em;vertical-align: middle;fill: currentColor;overflow: hidden;" viewBox="0 0 1024 1024" version="1.1" xmlns="http://www.w3.org/2000/svg" width="32" height="32"><path d="M844.559059 486.912a26.352941 26.352941 0 0 1 3.312941 52.495059l-3.312941 0.210823H176.941176a26.352941 26.352941 0 0 1-3.312941-52.525176l3.312941-0.180706h667.617883zM563.440941 732.852706a26.352941 26.352941 0 0 1 3.312941 52.525176l-3.312941 0.180706h-105.411765a26.352941 26.352941 0 0 1-3.312941-52.495059l3.312941-0.210823h105.411765zM844.559059 732.852706a26.352941 26.352941 0 0 1 3.312941 52.525176l-3.312941 0.180706h-105.411765a26.352941 26.352941 0 0 1-3.312941-52.495059l3.312941-0.210823h105.411765zM563.440941 240.941176a26.352941 26.352941 0 0 1 3.312941 52.495059l-3.312941 0.210824h-105.411765a26.352941 26.352941 0 0 1-3.312941-52.495059l3.312941-0.210824h105.411765zM282.352941 732.852706a26.352941 26.352941 0 0 1 3.312941 52.525176l-3.312941 0.180706h-105.411765a26.352941 26.352941 0 0 1-3.312941-52.495059l3.312941-0.210823h105.411765zM282.352941 240.941176a26.352941 26.352941 0 0 1 3.312941 52.495059l-3.312941 0.210824h-105.411765a26.352941 26.352941 0 0 1-3.312941-52.495059L176.941176 240.941176h105.411765zM844.559059 240.941176a26.352941 26.352941 0 0 1 3.312941 52.495059l-3.312941 0.210824h-105.411765a26.352941 26.352941 0 0 1-3.312941-52.495059l3.312941-0.210824h105.411765z" fill="#568af2" /></svg>