<svg class="icon" style="width: 1em;height: 1em;vertical-align: middle;fill: currentColor;overflow: hidden;" viewBox="0 0 1024 1024" version="1.1" xmlns="http://www.w3.org/2000/svg" width="32" height="32"><path d="M803.147294 184.470588c13.432471 0 24.515765 10.059294 26.142118 23.04l0.210823 3.312941v105.411765a26.352941 26.352941 0 0 1-23.070117 26.142118l-3.312942 0.210823H240.941176a26.352941 26.352941 0 0 1-26.142117-23.04l-0.210824-3.312941V210.823529a26.352941 26.352941 0 0 1 52.495059-3.312941l0.210824 3.312941v79.058824h509.470117V210.823529c0-13.432471 10.059294-24.515765 23.070118-26.142117l3.312941-0.210824zM697.735529 500.705882a26.352941 26.352941 0 0 1 3.312942 52.495059l-3.312942 0.210824H346.352941a26.352941 26.352941 0 0 1-3.312941-52.495059l3.312941-0.210824h351.382588zM803.147294 711.529412c13.432471 0 24.515765 10.059294 26.142118 23.04l0.210823 3.312941V843.294118a26.352941 26.352941 0 0 1-52.525176 3.312941l-0.180706-3.312941-0.030118-79.058824H267.294118V843.294118a26.352941 26.352941 0 0 1-23.04 26.142117l-3.312942 0.210824a26.352941 26.352941 0 0 1-26.142117-23.04L214.588235 843.294118v-105.411765c0-13.432471 10.059294-24.515765 23.04-26.142118l3.312941-0.210823h562.206118z" fill="#568af2" /></svg>