<svg class="icon" style="width: 1em;height: 1em;vertical-align: middle;fill: currentColor;overflow: hidden;" viewBox="0 0 1024 1024" version="1.1" xmlns="http://www.w3.org/2000/svg" width="32" height="32"><path d="M839.529412 180.705882a26.352941 26.352941 0 0 1 3.312941 52.495059l-3.312941 0.210824h-632.470588a26.352941 26.352941 0 0 1-3.312942-52.495059L207.058824 180.705882h632.470588zM804.382118 479.382588a26.352941 26.352941 0 0 1 3.312941 52.495059l-3.312941 0.210824H242.206118a26.352941 26.352941 0 0 1-3.312942-52.525177l3.312942-0.180706h562.176z" fill="#568af2" /><path d="M328.975059 381.680941a26.352941 26.352941 0 0 1 39.634823 34.575059l-2.349176 2.710588-86.829177 86.799059 86.648471 86.738824a26.352941 26.352941 0 0 1 2.349176 34.575058l-2.349176 2.710589a26.352941 26.352941 0 0 1-34.575059 2.319058l-2.710588-2.349176-105.231059-105.321412a26.352941 26.352941 0 0 1-2.379294-34.575059l2.379294-2.710588 105.411765-105.472zM680.508235 381.680941a26.352941 26.352941 0 0 1 34.575059-2.349176l2.710588 2.349176 105.231059 105.35153a26.352941 26.352941 0 0 1 2.379294 34.544941l-2.379294 2.710588-105.411765 105.472a26.352941 26.352941 0 0 1-39.634823-34.544941l2.349176-2.710588 86.799059-86.889412-86.618353-86.678588a26.352941 26.352941 0 0 1-2.349176-34.575059l2.349176-2.710588zM839.529412 778.029176a26.352941 26.352941 0 0 1 3.312941 52.525177l-3.312941 0.180706h-632.470588a26.352941 26.352941 0 0 1-3.312942-52.495059l3.312942-0.210824h632.470588z" fill="#568af2" /></svg>