<svg class="icon" style="width: 1em;height: 1em;vertical-align: middle;fill: currentColor;overflow: hidden;" viewBox="0 0 1024 1024" version="1.1" xmlns="http://www.w3.org/2000/svg" width="32" height="32"><path d="M746.706824 180.705882c5.842824 0 11.444706 1.927529 16.022588 5.421177l2.620235 2.288941 52.705882 52.705882a26.352941 26.352941 0 0 1-34.575058 39.634824l-2.710589-2.349177-44.965647-44.995764H300.815059l271.269647 271.239529c9.456941 9.456941 10.24 24.244706 2.379294 34.575059l-2.379294 2.710588L300.815059 813.176471H735.774118l45.025882-44.995765a26.352941 26.352941 0 0 1 34.575059-2.349177l2.710588 2.349177c9.396706 9.456941 10.179765 24.244706 2.319059 34.575059l-2.349177 2.710588-52.705882 52.705882a26.352941 26.352941 0 0 1-15.179294 7.469177l-3.463529 0.240941H237.236706c-22.377412 0-34.093176-25.750588-20.811294-42.526118l2.16847-2.469647 297.622589-297.59247-297.622589-297.592471c-15.811765-15.811765-5.903059-42.315294 15.36-44.815059L237.236706 180.705882h509.470118z" fill="#568af2" /></svg>