<svg class="icon" style="width: 1em;height: 1em;vertical-align: middle;fill: currentColor;overflow: hidden;" viewBox="0 0 1024 1024" version="1.1" xmlns="http://www.w3.org/2000/svg" width="32" height="32"><path d="M795.136 150.588235a75.776 75.776 0 0 1 75.595294 70.776471l0.180706 4.999529v428.212706a75.776 75.776 0 0 1-70.776471 75.595294l-4.999529 0.180706H730.352941v64.783059a75.776 75.776 0 0 1-70.77647 75.595294l-4.99953 0.180706H226.364235A75.776 75.776 0 0 1 150.588235 795.105882V366.893176a75.776 75.776 0 0 1 75.776-75.745882l64.752941-0.030118v-64.752941a75.776 75.776 0 0 1 70.776471-75.595294L366.923294 150.588235h428.242824z m0 52.705883H366.893176a23.070118 23.070118 0 0 0-22.829176 19.937882l-0.210824 3.132235-0.030117 64.752941h310.753882a75.776 75.776 0 0 1 75.595294 70.776471l0.180706 4.999529V677.647059h64.783059a23.070118 23.070118 0 0 0 22.859294-19.937883l0.210824-3.132235V226.364235a23.070118 23.070118 0 0 0-19.937883-22.859294L795.105882 203.294118z" fill="#568af2" /></svg>