<svg class="icon" style="width: 1em;height: 1em;vertical-align: middle;fill: currentColor;overflow: hidden;" viewBox="0 0 1024 1024" version="1.1" xmlns="http://www.w3.org/2000/svg" width="32" height="32"><path d="M799.382588 256a26.352941 26.352941 0 0 1 3.312941 52.495059l-3.312941 0.210823H237.176471a26.352941 26.352941 0 0 1-3.312942-52.495058l3.312942-0.210824h562.206117zM623.676235 150.588235a26.352941 26.352941 0 0 1 3.312941 52.495059l-3.312941 0.210824h-210.823529a26.352941 26.352941 0 0 1-3.312941-52.495059l3.312941-0.210824h210.823529z m105.411765 210.82353c14.576941 0 26.352941 11.806118 26.352941 26.352941v404.08847a79.058824 79.058824 0 0 1-79.058823 79.058824h-316.235294a79.058824 79.058824 0 0 1-79.058824-79.058824V387.764706c0-14.546824 11.806118-26.352941 26.352941-26.352941z m-121.916235 148.269176a26.352941 26.352941 0 0 0-37.25553 0l-51.651764 51.621647-51.621647-51.621647-2.710589-2.349176a26.352941 26.352941 0 0 0-34.575059 39.604706l51.621648 51.651764-51.621648 51.651765-2.349176 2.710588a26.352941 26.352941 0 0 0 39.634824 34.544941l51.621647-51.621647 51.651764 51.621647 2.710589 2.349177a26.352941 26.352941 0 0 0 34.544941-39.604706l-51.621647-51.651765 51.621647-51.651764 2.379294-2.710589a26.352941 26.352941 0 0 0-2.379294-34.544941z" fill="#568af2" /></svg>