<svg class="icon" style="width: 1em;height: 1em;vertical-align: middle;fill: currentColor;overflow: hidden;" viewBox="0 0 1024 1024" version="1.1" xmlns="http://www.w3.org/2000/svg" width="32" height="32"><path d="M651.294118 351.382588h-281.088a26.352941 26.352941 0 0 0-26.352942 26.352941v281.088c0 14.546824 11.776 26.352941 26.352942 26.352942h281.088a26.352941 26.352941 0 0 0 26.352941-26.352942v-281.088a26.352941 26.352941 0 0 0-26.352941-26.352941zM176.941176 210.823529c13.432471 0 24.515765 10.059294 26.142118 23.04l0.210824 3.312942v562.206117a26.352941 26.352941 0 0 1-52.495059 3.312941L150.588235 799.352471V237.176471C150.588235 222.629647 162.394353 210.823529 176.941176 210.823529z m667.617883 0c13.432471 0 24.515765 10.059294 26.142117 23.04l0.210824 3.312942v562.206117a26.352941 26.352941 0 0 1-52.525176 3.312941l-0.180706-3.312941V237.176471c0-14.546824 11.776-26.352941 26.352941-26.352942z" fill="#568af2" /></svg>