<svg class="icon" style="width: 1em;height: 1em;vertical-align: middle;fill: currentColor;overflow: hidden;" viewBox="0 0 1024 1024" version="1.1" xmlns="http://www.w3.org/2000/svg" width="32" height="32"><path d="M839.529412 180.705882c13.432471 0 24.515765 10.059294 26.142117 23.04l0.210824 3.312942v158.117647a26.352941 26.352941 0 0 1-52.495059 3.312941l-0.210823-3.312941V233.411765h-131.764706a26.352941 26.352941 0 0 1-26.142118-23.04l-0.210823-3.312941c0-13.432471 10.059294-24.515765 23.04-26.142118l3.312941-0.210824h158.117647zM839.529412 655.058824c13.432471 0 24.515765 10.059294 26.142117 23.04l0.210824 3.312941v158.117647a26.352941 26.352941 0 0 1-23.04 26.142117l-3.312941 0.210824h-158.117647a26.352941 26.352941 0 0 1-3.312941-52.495059l3.312941-0.210823H813.176471v-131.764706c0-13.432471 10.059294-24.515765 23.04-26.142118l3.312941-0.210823zM207.058824 655.058824c13.432471 0 24.515765 10.059294 26.142117 23.04l0.210824 3.312941V813.176471h131.764706c13.432471 0 24.515765 10.059294 26.142117 23.04l0.210824 3.312941a26.352941 26.352941 0 0 1-23.04 26.142117l-3.312941 0.210824h-158.117647a26.352941 26.352941 0 0 1-26.142118-23.04L180.705882 839.529412v-158.117647c0-14.546824 11.806118-26.352941 26.352942-26.352941zM365.176471 180.705882a26.352941 26.352941 0 0 1 3.312941 52.495059l-3.312941 0.210824H233.411765v131.764706a26.352941 26.352941 0 0 1-23.04 26.142117l-3.312941 0.210824a26.352941 26.352941 0 0 1-26.142118-23.04L180.705882 365.176471v-158.117647c0-13.432471 10.059294-24.515765 23.04-26.142118L207.058824 180.705882h158.117647z" fill="#568af2" /></svg>