<svg class="icon" style="width: 1em;height: 1em;vertical-align: middle;fill: currentColor;overflow: hidden;" viewBox="0 0 1024 1024" version="1.1" xmlns="http://www.w3.org/2000/svg" width="32" height="32"><path d="M0 0h1024v1024H0z" fill="#568af2" fill-opacity="0" /><path d="M690.206118 184.470588c5.812706 0 11.444706 1.927529 16.022588 5.421177l2.590118 2.288941 52.705882 52.705882a26.352941 26.352941 0 0 1-34.544941 39.634824l-2.710589-2.349177-44.995764-44.995764H294.520471l256.722823 271.781647c8.794353 9.336471 9.517176 23.431529 2.198588 33.551058l-2.198588 2.650353-256.722823 271.781647h384.722823l45.025882-44.995764a26.352941 26.352941 0 0 1 34.575059-2.349177l2.710589 2.349177c9.426824 9.456941 10.209882 24.244706 2.349176 34.575059l-2.379294 2.710588-52.705882 52.705882a26.352941 26.352941 0 0 1-15.149177 7.469177l-3.463529 0.240941H233.411765c-22.016 0-33.882353-25.057882-21.232941-41.984l2.078117-2.469647 281.569883-298.134588-281.6-298.164706c-15.088941-15.962353-4.999529-41.803294 15.962352-44.242824l3.222589-0.180706h456.794353z" fill="#568af2" /><path d="M356.382118 500.705882a26.352941 26.352941 0 0 1 3.312941 52.495059l-3.312941 0.210824H180.705882a26.352941 26.352941 0 0 1-3.312941-52.495059l3.312941-0.210824h175.676236zM848.323765 500.705882a26.352941 26.352941 0 0 1 3.312941 52.495059l-3.312941 0.210824h-175.706353a26.352941 26.352941 0 0 1-3.312941-52.495059l3.312941-0.210824h175.706353z" fill="#568af2" /></svg>