<svg class="icon" style="width: 1em;height: 1em;vertical-align: middle;fill: currentColor;overflow: hidden;" viewBox="0 0 1024 1024" version="1.1" xmlns="http://www.w3.org/2000/svg" width="32" height="32"><path d="M879.676235 704v114.206118a61.500235 61.500235 0 0 1-61.470117 61.470117h-114.206118v-175.676235h175.676235z m-579.764706 0v175.676235H185.735529a61.500235 61.500235 0 0 1-61.500235-61.470117v-114.206118h175.676235z m175.676236 0v175.676235h-122.970353v-175.676235h122.970353z m175.706353 0v175.676235h-122.970353l-0.030118-175.676235h123.000471z m-175.706353-175.706353v123.000471h-122.970353v-123.000471h122.970353z m175.706353 0v123.000471h-123.000471v-123.000471h123.000471z m228.382117 0v123.000471h-175.676235v-123.000471h175.676235z m-579.764706 0v123.000471H124.235294v-122.970353l175.676235-0.030118z m175.676236-175.676235v122.970353h-122.970353v-122.970353h122.970353z m175.706353 0v122.970353h-123.000471v-122.970353h123.000471z m228.382117 0v123.00047l-175.676235-0.030117v-122.970353h175.676235zM475.617882 124.235294l-0.030117 175.676235h-122.970353V124.235294h123.00047z m175.676236 0v175.676235h-123.000471V124.235294h123.000471z m166.912 0c33.942588 0 61.470118 27.527529 61.470117 61.500235v114.176h-175.676235V124.235294z m-518.294589 0v175.676235H124.235294V185.735529c0-33.972706 27.527529-61.500235 61.500235-61.500235h114.176z m-175.676235 228.382118h175.676235v122.970353H124.235294v-122.970353z" fill="#568af2" /></svg>