<svg class="icon" style="width: 1em;height: 1em;vertical-align: middle;fill: currentColor;overflow: hidden;" viewBox="0 0 1024 1024" version="1.1" xmlns="http://www.w3.org/2000/svg" width="32" height="32"><path d="M491.730824 595.877647a26.352941 26.352941 0 0 1 37.255529 0l124.235294 124.235294a26.352941 26.352941 0 0 1 0 37.285647l-124.235294 124.205177a26.352941 26.352941 0 0 1-37.255529 0l-124.235295-124.205177a26.352941 26.352941 0 0 1 0-37.285647z m262.957176-230.731294l2.710588 2.349176 124.205177 124.235295c9.456941 9.426824 10.24 24.244706 2.379294 34.575058l-2.379294 2.710589-124.205177 124.205176a26.352941 26.352941 0 0 1-34.575059 2.349177l-2.710588-2.349177-124.235294-124.235294a26.352941 26.352941 0 0 1-2.349176-34.575059l2.349176-2.710588 124.235294-124.205177a26.352941 26.352941 0 0 1 34.575059-2.349176z m-456.794353 0l2.710588 2.349176 124.235294 124.235295c9.426824 9.426824 10.209882 24.244706 2.349177 34.575058l-2.349177 2.710589-124.235294 124.205176a26.352941 26.352941 0 0 1-34.575059 2.349177l-2.710588-2.349177-124.205176-124.235294a26.352941 26.352941 0 0 1-2.379294-34.575059l2.379294-2.710588 124.235294-124.205177a26.352941 26.352941 0 0 1 34.544941-2.349176z m228.412235-228.412235l2.710589 2.379294 124.205176 124.205176c9.426824 9.456941 10.24 24.244706 2.349177 34.575059l-2.349177 2.710588-124.235294 124.235294a26.352941 26.352941 0 0 1-34.575059 2.349177l-2.710588-2.349177-124.205177-124.235294a26.352941 26.352941 0 0 1-2.349176-34.575059l2.349176-2.710588 124.235295-124.205176a26.352941 26.352941 0 0 1 34.575058-2.379294z" fill="#568af2" /></svg>