<svg class="icon" style="width: 1em;height: 1em;vertical-align: middle;fill: currentColor;overflow: hidden;" viewBox="0 0 1024 1024" version="1.1" xmlns="http://www.w3.org/2000/svg" width="32" height="32"><path d="M808.146824 154.352941c32.436706 0 58.970353 25.088 61.319529 56.922353l0.180706 4.577882v170.706824a26.352941 26.352941 0 0 1-52.495059 3.312941l-0.210824-3.312941V215.853176a8.794353 8.794353 0 0 0-6.77647-8.553411l-2.017882-0.240941H245.970824a8.794353 8.794353 0 0 0-8.553412 6.77647l-0.240941 2.017882v579.764706c0 4.156235 2.891294 7.619765 6.77647 8.553412l2.017883 0.210824h213.323294a26.352941 26.352941 0 0 1 3.312941 52.525176l-3.312941 0.180706H245.970824A61.500235 61.500235 0 0 1 184.621176 800.225882l-0.180705-4.577882V215.853176c0-32.436706 25.088-58.970353 56.922353-61.319529l4.577882-0.180706h562.176z m-65.264942 335.902118a26.352941 26.352941 0 0 1 37.526589-5.330824l79.058823 61.500236c11.264 8.734118 13.522824 24.877176 5.089882 36.382117l-193.264941 263.529412a26.352941 26.352941 0 0 1-21.263059 10.752H579.764706a26.352941 26.352941 0 0 1-26.352941-26.352941V760.470588c0-5.541647 1.746824-10.962824 4.999529-15.450353z m-128-177.784471a26.352941 26.352941 0 0 1 3.312942 52.495059l-3.312942 0.210824h-79.058823v219.617882a26.352941 26.352941 0 0 1-52.495059 3.312941l-0.180706-3.312941-0.030118-219.617882h-79.028705a26.352941 26.352941 0 0 1-3.312942-52.495059l3.312942-0.210824h210.823529z" fill="#568af2" /></svg>