<svg class="icon" style="width: 1em;height: 1em;vertical-align: middle;fill: currentColor;overflow: hidden;" viewBox="0 0 1024 1024" version="1.1" xmlns="http://www.w3.org/2000/svg" width="32" height="32"><path d="M827.572706 193.024c9.035294 9.818353 9.155765 24.666353 0.873412 34.635294l-2.469647 2.590118-259.945412 238.230588 116.946823 107.218824a149.323294 149.323294 0 1 1-51.32047 24.455529L527.058824 504.199529l-104.598589 95.894589a149.142588 149.142588 0 0 1 60.536471 113.724235l0.150588 6.475294a149.323294 149.323294 0 1 1-112.007529-144.624941l116.916706-107.218824-259.915295-238.230588a26.352941 26.352941 0 0 1 32.828236-41.08047l2.800941 2.228705 263.258353 241.332706 263.318588-241.332706a26.352941 26.352941 0 0 1 37.225412 1.626353z" fill="#568af2" /></svg>