<svg class="icon" style="width: 1em;height: 1em;vertical-align: middle;fill: currentColor;overflow: hidden;" viewBox="0 0 1024 1024" version="1.1" xmlns="http://www.w3.org/2000/svg" width="32" height="32"><path d="M180.705882 641.264941c13.432471 0 24.515765 10.029176 26.142118 23.04l0.210824 3.312941v140.528942c0 4.156235 2.891294 7.649882 6.77647 8.553411l2.017882 0.240941h140.528942a26.352941 26.352941 0 0 1 3.312941 52.495059l-3.312941 0.210824H215.853176a61.500235 61.500235 0 0 1-61.319529-56.922353l-0.180706-4.577882v-140.528942c0-14.576941 11.806118-26.352941 26.352941-26.352941z m632.470589 0c13.432471 0 24.515765 10.029176 26.142117 23.04l0.210824 3.312941v140.528942a61.500235 61.500235 0 0 1-56.922353 61.319529l-4.577883 0.180706h-140.528941a26.352941 26.352941 0 0 1-3.312941-52.495059l3.312941-0.210824h140.528941a8.794353 8.794353 0 0 0 8.553412-6.77647l0.240941-2.017882v-140.528942c0-14.576941 11.806118-26.352941 26.352942-26.352941z m-175.676236-316.235294c32.406588 0 58.970353 25.088 61.31953 56.892235l0.150588 4.577883v281.118117a61.500235 61.500235 0 0 1-56.892235 61.31953l-4.577883 0.150588h-281.118117a61.500235 61.500235 0 0 1-61.31953-56.892235l-0.150588-4.577883v-281.118117c0-32.406588 25.088-58.970353 56.892235-61.31953l4.577883-0.150588h281.118117z m-281.118117-140.559059a26.352941 26.352941 0 0 1 3.312941 52.495059l-3.312941 0.210824H215.853176a8.794353 8.794353 0 0 0-8.553411 6.77647l-0.240941 2.017883v140.528941a26.352941 26.352941 0 0 1-52.495059 3.312941l-0.210824-3.312941V245.970824c0-32.436706 25.088-58.970353 56.922353-61.31953l4.577882-0.180706h140.528942z m421.647058 0c32.436706 0 58.970353 25.088 61.31953 56.922353l0.180706 4.577883v140.528941a26.352941 26.352941 0 0 1-52.495059 3.312941l-0.210824-3.312941V245.970824a8.794353 8.794353 0 0 0-6.77647-8.553412l-2.017883-0.240941h-140.528941a26.352941 26.352941 0 0 1-3.312941-52.495059l3.312941-0.210824h140.528941z" fill="#568af2" /></svg>