<svg class="icon" style="width: 1em;height: 1em;vertical-align: middle;fill: currentColor;overflow: hidden;" viewBox="0 0 1024 1024" version="1.1" xmlns="http://www.w3.org/2000/svg" width="32" height="32"><path d="M804.382118 180.705882h-421.647059a61.500235 61.500235 0 0 0-61.470118 61.500236v562.176c0 33.972706 27.527529 61.500235 61.470118 61.500235h421.647059a61.500235 61.500235 0 0 0 61.500235-61.500235V242.206118A61.500235 61.500235 0 0 0 804.382118 180.705882zM207.058824 180.705882c13.432471 0 24.515765 10.059294 26.142117 23.04l0.210824 3.312942v632.470588a26.352941 26.352941 0 0 1-52.495059 3.312941L180.705882 839.529412v-632.470588C180.705882 192.512 192.512 180.705882 207.058824 180.705882z" fill="#568af2" /></svg>