<svg class="icon" style="width: 1em;height: 1em;vertical-align: middle;fill: currentColor;overflow: hidden;" viewBox="0 0 1024 1024" version="1.1" xmlns="http://www.w3.org/2000/svg" width="32" height="32"><path d="M582.113882 120.470588c8.493176 0 16.384 4.096 21.293177 10.842353l1.927529 3.011765 49.182118 91.557647h195.041882a26.352941 26.352941 0 0 1 3.312941 52.495059l-3.312941 0.210823h-61.500235v570.970353a26.352941 26.352941 0 0 1-23.04 26.172236l-3.312941 0.180705h-527.058824a26.352941 26.352941 0 0 1-26.142117-23.04l-0.180706-3.312941L208.293647 278.588235H146.823529a26.352941 26.352941 0 0 1-3.312941-52.495059l3.312941-0.210823h195.192471l50.296471-91.738353a26.352941 26.352941 0 0 1 19.57647-13.432471L415.412706 120.470588h166.671059z m-154.202353 281.088a26.352941 26.352941 0 0 0-26.142117 23.070118l-0.210824 3.312941v228.382118l0.210824 3.312941a26.352941 26.352941 0 0 0 52.314353 0l0.180706-3.312941v-228.412236l-0.180706-3.312941a26.352941 26.352941 0 0 0-26.172236-23.04z m140.559059 0a26.352941 26.352941 0 0 0-26.142117 23.070118l-0.210824 3.312941v228.382118l0.210824 3.312941a26.352941 26.352941 0 0 0 52.284235 0l0.210823-3.312941v-228.412236l-0.210823-3.312941a26.352941 26.352941 0 0 0-26.142118-23.04z m-2.108235-228.382117h-135.348706l-28.882823 52.705882h192.542117l-28.310588-52.705882z" fill="#568af2" /></svg>