<svg class="icon" style="width: 1em;height: 1em;vertical-align: middle;fill: currentColor;overflow: hidden;" viewBox="0 0 1024 1024" version="1.1" xmlns="http://www.w3.org/2000/svg" width="32" height="32"><path d="M220.852706 641.264941a96.617412 96.617412 0 1 0 0 193.234824 96.617412 96.617412 0 0 0 0-193.234824z m0-456.794353a61.500235 61.500235 0 1 0 0 122.970353 61.500235 61.500235 0 0 0 0-122.970353z m0 245.970824a61.500235 61.500235 0 1 0 0 122.970353 61.500235 61.500235 0 0 0 0-122.970353z m632.470588 35.117176a26.352941 26.352941 0 0 1 3.312941 52.525177l-3.312941 0.180706h-421.647059a26.352941 26.352941 0 0 1-3.312941-52.495059l3.312941-0.210824h421.647059z m0 245.970824a26.352941 26.352941 0 0 1 3.312941 52.495059l-3.312941 0.210823h-421.647059a26.352941 26.352941 0 0 1-3.312941-52.495059l3.312941-0.210823h421.647059z m0-491.91153a26.352941 26.352941 0 0 1 3.312941 52.495059l-3.312941 0.210824h-421.647059a26.352941 26.352941 0 0 1-3.312941-52.525177l3.312941-0.180706h421.647059z" fill="#568af2" /></svg>