<svg class="icon" style="width: 1em;height: 1em;vertical-align: middle;fill: currentColor;overflow: hidden;" viewBox="0 0 1024 1024" version="1.1" xmlns="http://www.w3.org/2000/svg" width="32" height="32"><path d="M658.823529 180.705882h-421.647058A26.352941 26.352941 0 0 0 210.823529 207.058824v105.411764c0 14.546824 11.806118 26.352941 26.352942 26.352941h421.647058a26.352941 26.352941 0 0 0 26.352942-26.352941v-105.411764A26.352941 26.352941 0 0 0 658.823529 180.705882z m140.559059 245.970824H237.176471a26.352941 26.352941 0 0 0-26.352942 26.352941v105.411765c0 14.546824 11.806118 26.352941 26.352942 26.352941h562.206117a26.352941 26.352941 0 0 0 26.352941-26.352941v-105.411765a26.352941 26.352941 0 0 0-26.352941-26.352941z m-245.970823 245.940706h-316.235294a26.352941 26.352941 0 0 0-26.352942 26.352941v105.411765c0 14.576941 11.806118 26.352941 26.352942 26.352941h316.235294a26.352941 26.352941 0 0 0 26.352941-26.352941v-105.411765a26.352941 26.352941 0 0 0-26.352941-26.352941z" fill="#568af2" /></svg>