<svg class="icon" style="width: 1em;height: 1em;vertical-align: middle;fill: currentColor;overflow: hidden;" viewBox="0 0 1024 1024" version="1.1" xmlns="http://www.w3.org/2000/svg" width="32" height="32"><path d="M786.823529 180.705882a79.058824 79.058824 0 0 1 79.058824 79.058824v527.058823a79.058824 79.058824 0 0 1-79.058824 79.058824h-527.058823A79.058824 79.058824 0 0 1 180.705882 786.823529v-527.058823A79.058824 79.058824 0 0 1 259.764706 180.705882zM400.323765 628.705882h-80.564706c-15.661176 0-23.491765 18.913882-12.438588 29.997177l80.564705 80.564706a17.558588 17.558588 0 0 0 29.997177-12.438589v-80.564705a17.558588 17.558588 0 0 0-17.558588-17.558589z m326.505411 0h-80.564705a17.558588 17.558588 0 0 0-17.558589 17.558589v80.564705c0 15.661176 18.913882 23.491765 29.997177 12.438589l80.564706-80.564706a17.558588 17.558588 0 0 0-12.438589-29.997177z m-98.123294-308.946823v80.564706c0 9.697882 7.860706 17.558588 17.558589 17.558588h80.564705c15.661176 0 23.491765-18.913882 12.438589-29.997177l-80.564706-80.564705a17.558588 17.558588 0 0 0-29.997177 12.438588z m-240.820706-12.438588l-80.564705 80.564705a17.558588 17.558588 0 0 0 12.438588 29.997177h80.564706a17.558588 17.558588 0 0 0 17.558588-17.558588v-80.564706c0-15.661176-18.913882-23.491765-29.997177-12.438588z" fill="#568af2" /></svg>