<svg class="icon" style="width: 1em;height: 1em;vertical-align: middle;fill: currentColor;overflow: hidden;" viewBox="0 0 1024 1024" version="1.1" xmlns="http://www.w3.org/2000/svg" width="32" height="32"><path d="M730.352941 558.381176c46.863059 44.363294 70.264471 79.510588 70.264471 105.411765a70.264471 70.264471 0 0 1-140.528941 0c0-25.901176 23.401412-61.048471 70.26447-105.411765zM462.607059 159.683765l2.710588 2.349176 62.102588 62.132706 0.180706 0.180706 186.157177 186.127059c9.456941 9.456941 10.24 24.274824 2.379294 34.605176l-2.379294 2.710588-273.28753 273.28753a26.352941 26.352941 0 0 1-34.575059 2.349176l-2.710588-2.349176-198.77647-198.776471a26.352941 26.352941 0 0 1-2.319059-34.575059l2.349176-2.710588 254.644706-254.644706-31.021176-31.051294a26.352941 26.352941 0 0 1 34.544941-39.634823z m-196.517647 268.709647a26.352941 26.352941 0 0 0 13.733647 32.045176l3.072 1.204706 297.984 98.002824 3.222588 0.813176a26.352941 26.352941 0 0 0 16.323765-49.694118l-3.072-1.204705-297.984-97.972706-3.192471-0.843294a26.352941 26.352941 0 0 0-30.087529 17.648941z m587.233882 384.662588a26.352941 26.352941 0 0 1 3.312941 52.525176l-3.312941 0.180706H150.588235a26.352941 26.352941 0 0 1-3.312941-52.495058l3.312941-0.210824h702.735059z" fill="#568af2" /></svg>