<svg class="icon" style="width: 1em;height: 1em;vertical-align: middle;fill: currentColor;overflow: hidden;" viewBox="0 0 1024 1024" version="1.1" xmlns="http://www.w3.org/2000/svg" width="32" height="32"><path d="M498.206118 120.470588c208.594824 0 377.705412 169.110588 377.705411 377.73553 0 208.594824-169.110588 377.705412-377.705411 377.705411C289.581176 875.911529 120.470588 706.800941 120.470588 498.206118 120.470588 289.581176 289.581176 120.470588 498.206118 120.470588z m140.528941 210.82353h-281.088l-3.312941 0.210823a26.352941 26.352941 0 0 0 3.312941 52.495059h114.176v289.882353l0.210823 3.312941a26.352941 26.352941 0 0 0 52.525177-3.312941l-0.030118-289.882353h114.206118l3.312941-0.210824a26.352941 26.352941 0 0 0-3.312941-52.495058z" fill="#568af2" /></svg>