<svg class="icon" style="width: 1em;height: 1em;vertical-align: middle;fill: currentColor;overflow: hidden;" viewBox="0 0 1024 1024" version="1.1" xmlns="http://www.w3.org/2000/svg" width="32" height="32"><path d="M282.352941 150.588235a114.206118 114.206118 0 1 0 0 228.382118 114.206118 114.206118 0 0 0 0-228.382118z m456.794353 491.91153a114.206118 114.206118 0 1 0 0 228.412235 114.206118 114.206118 0 0 0 0-228.412235z m17.558588-474.352941a114.206118 114.206118 0 1 0 0 228.412235 114.206118 114.206118 0 0 0 0-228.412235zM264.794353 624.941176a114.206118 114.206118 0 1 0 0 228.382118 114.206118 114.206118 0 0 0 0-228.382118z" fill="#568af2" /></svg>