<svg class="icon" style="width: 1em;height: 1em;vertical-align: middle;fill: currentColor;overflow: hidden;" viewBox="0 0 1024 1024" version="1.1" xmlns="http://www.w3.org/2000/svg" width="32" height="32"><path d="M339.004235 680.357647a26.352941 26.352941 0 0 1 39.634824 34.544941l-2.349177 2.710588-105.411764 105.411765a26.352941 26.352941 0 0 1-34.575059 2.349177l-2.710588-2.349177-105.411765-105.411765a26.352941 26.352941 0 0 1 34.575059-39.634823l2.710588 2.379294 86.768941 86.768941 86.768941-86.768941zM233.592471 188.416a26.352941 26.352941 0 0 1 34.575058-2.349176l2.710589 2.349176 105.411764 105.411765a26.352941 26.352941 0 0 1-34.575058 39.634823l-2.710589-2.349176-86.768941-86.799059-86.768941 86.799059a26.352941 26.352941 0 0 1-34.575059 2.349176l-2.710588-2.349176a26.352941 26.352941 0 0 1-2.349177-34.575059l2.349177-2.710588 105.411765-105.411765z" fill="#568af2" /><path d="M252.235294 180.705882c13.432471 0 24.515765 10.059294 26.142118 23.04l0.210823 3.312942v597.323294a26.352941 26.352941 0 0 1-52.495059 3.312941l-0.210823-3.312941V207.058824c0-14.546824 11.806118-26.352941 26.352941-26.352942zM849.558588 215.853176a26.352941 26.352941 0 0 1 3.312941 52.495059l-3.312941 0.210824H463.058824a26.352941 26.352941 0 0 1-3.312942-52.525177l3.312942-0.180706h386.499764zM709.029647 391.529412a26.352941 26.352941 0 0 1 3.312941 52.495059l-3.312941 0.210823h-245.970823a26.352941 26.352941 0 0 1-3.312942-52.495059l3.312942-0.210823h245.970823zM849.558588 567.205647a26.352941 26.352941 0 0 1 3.312941 52.525177l-3.312941 0.180705H463.058824a26.352941 26.352941 0 0 1-3.312942-52.495058l3.312942-0.210824h386.499764zM709.029647 742.912a26.352941 26.352941 0 0 1 3.312941 52.495059l-3.312941 0.210823h-245.970823a26.352941 26.352941 0 0 1-3.312942-52.525176l3.312942-0.180706h245.970823z" fill="#568af2" /></svg>