<svg class="icon" style="width: 1em;height: 1em;vertical-align: middle;fill: currentColor;overflow: hidden;" viewBox="0 0 1024 1024" version="1.1" xmlns="http://www.w3.org/2000/svg" width="32" height="32"><path d="M250.970353 570.970353c13.432471 0 24.545882 10.059294 26.172235 23.070118l0.180706 3.312941v82.672941a96.828235 96.828235 0 0 1 66.650353 66.650353h82.703059a26.352941 26.352941 0 0 1 3.312941 52.495059l-3.312941 0.210823H343.943529a96.677647 96.677647 0 1 1-119.356235-119.356235v-82.703059c0-14.546824 11.806118-26.352941 26.352941-26.352941z m491.941647 0c13.432471 0 24.515765 10.059294 26.142118 23.070118l0.210823 3.312941v82.672941a96.677647 96.677647 0 1 1-119.356235 119.356235h-82.703059a26.352941 26.352941 0 0 1-3.312941-52.525176l3.312941-0.180706h82.703059a96.828235 96.828235 0 0 1 66.650353-66.650353v-82.703059c0-14.546824 11.776-26.352941 26.352941-26.352941zM496.941176 377.735529c13.432471 0 24.515765 10.029176 26.142118 23.04l0.210824 3.312942v96.617411h96.617411a26.352941 26.352941 0 0 1 3.312942 52.495059l-3.312942 0.210824h-96.617411v96.617411a26.352941 26.352941 0 0 1-52.495059 3.312942l-0.210824-3.312942v-96.617411h-96.617411a26.352941 26.352941 0 0 1-3.312942-52.495059l3.312942-0.210824h96.617411v-96.617411c0-14.576941 11.806118-26.352941 26.352941-26.352942zM250.970353 184.470588a96.677647 96.677647 0 0 1 93.003294 70.264471h82.703059a26.352941 26.352941 0 0 1 3.312941 52.525176l-3.312941 0.180706H343.943529a96.828235 96.828235 0 0 1-66.650353 66.650353v82.703059a26.352941 26.352941 0 0 1-52.495058 3.312941l-0.210824-3.312941V374.061176a96.677647 96.677647 0 0 1 26.352941-189.620705z m491.941647 0a96.617412 96.617412 0 0 1 26.352941 189.620706v82.703059a26.352941 26.352941 0 0 1-52.525176 3.312941l-0.180706-3.312941V374.061176a96.828235 96.828235 0 0 1-66.650353-66.650352h-82.703059a26.352941 26.352941 0 0 1-3.312941-52.495059l3.312941-0.210824h82.703059a96.677647 96.677647 0 0 1 93.003294-70.26447z" fill="#568af2" /></svg>