<svg class="icon" style="width: 1em;height: 1em;vertical-align: middle;fill: currentColor;overflow: hidden;" viewBox="0 0 1024 1024" version="1.1" xmlns="http://www.w3.org/2000/svg" width="32" height="32"><path d="M268.739765 339.034353a26.352941 26.352941 0 0 1 39.634823 34.544941l-2.349176 2.710588-121.976471 122.006589 121.73553 121.825882a26.352941 26.352941 0 0 1 2.349176 34.575059l-2.349176 2.710588a26.352941 26.352941 0 0 1-34.575059 2.319059l-2.710588-2.349177-140.318118-140.438588a26.352941 26.352941 0 0 1-2.349177-34.575059l2.349177-2.710588 140.559059-140.649412zM690.597647 339.004235a26.352941 26.352941 0 0 1 34.575059-2.349176l2.710588 2.379294 140.348235 140.438588a26.352941 26.352941 0 0 1 2.349177 34.544941l-2.379294 2.710589-140.528941 140.649411a26.352941 26.352941 0 0 1-39.664942-34.575058l2.379295-2.710589 121.916235-122.036706-121.705412-121.795764a26.352941 26.352941 0 0 1-2.349176-34.544941l2.349176-2.710589z" fill="#568af2" /><path d="M849.558588 471.853176a26.352941 26.352941 0 0 1 3.312941 52.495059l-3.312941 0.210824H146.823529a26.352941 26.352941 0 0 1-3.312941-52.525177l3.312941-0.180706h702.735059z" fill="#568af2" /></svg>