<svg class="icon" style="width: 1em;height: 1em;vertical-align: middle;fill: currentColor;overflow: hidden;" viewBox="0 0 1024 1024" version="1.1" xmlns="http://www.w3.org/2000/svg" width="32" height="32"><path d="M563.440941 378.970353c33.972706 0 61.500235 27.527529 61.500235 61.500235v351.382588a61.500235 61.500235 0 0 1-61.500235 61.470118H212.088471A61.500235 61.500235 0 0 1 150.588235 791.853176V440.470588c0-33.972706 27.527529-61.500235 61.500236-61.500235zM809.411765 150.588235c32.406588 0 58.970353 25.088 61.319529 56.922353l0.180706 4.577883v386.499764a61.500235 61.500235 0 0 1-56.922353 61.31953l-4.577882 0.180706h-70.264471a26.352941 26.352941 0 0 1-3.312941-52.525177l3.312941-0.180706h70.264471a8.794353 8.794353 0 0 0 8.553411-6.77647l0.240942-2.017883V212.088471a8.794353 8.794353 0 0 0-6.776471-8.553412l-2.017882-0.240941H458.029176a8.794353 8.794353 0 0 0-8.553411 6.77647l-0.210824 2.017883v52.705882a26.352941 26.352941 0 0 1-52.525176 3.312941l-0.180706-3.312941v-52.705882c0-32.436706 25.088-58.970353 56.892235-61.31953L458.029176 150.588235h351.382589z" fill="#568af2" /></svg>