<svg class="icon" style="width: 1em;height: 1em;vertical-align: middle;fill: currentColor;overflow: hidden;" viewBox="0 0 1024 1024" version="1.1" xmlns="http://www.w3.org/2000/svg" width="32" height="32"><path d="M839.529412 180.705882c13.432471 0 24.515765 10.059294 26.142117 23.04l0.210824 3.312942v175.676235a26.352941 26.352941 0 0 1-52.495059 3.312941l-0.210823-3.312941V233.411765h-149.323295a26.352941 26.352941 0 0 1-26.172235-23.04l-0.180706-3.312941c0-13.432471 10.029176-24.515765 23.04-26.142118l3.312941-0.210824h175.676236zM545.731765 368.880941l1.716706 3.312941 122.970353 281.088a26.352941 26.352941 0 0 1-46.772706 24.094118l-1.505883-2.981647L590.607059 602.352941h-134.656l-31.503059 72.041412a26.352941 26.352941 0 0 1-49.392941-18.010353l1.114353-3.102118 122.970353-281.088a26.383059 26.383059 0 0 1 46.592-3.312941z m-22.437647 79.600941l-44.272942 101.165177h88.515765l-44.242823-101.165177zM382.735059 180.705882a26.352941 26.352941 0 0 1 3.312941 52.495059l-3.312941 0.210824H233.411765v149.323294a26.352941 26.352941 0 0 1-23.04 26.172235l-3.312941 0.180706a26.352941 26.352941 0 0 1-26.142118-23.04L180.705882 382.735059V207.058824c0-13.432471 10.059294-24.515765 23.04-26.142118L207.058824 180.705882h175.676235zM839.529412 637.500235c13.432471 0 24.515765 10.029176 26.142117 23.04l0.210824 3.312941v175.676236a26.352941 26.352941 0 0 1-23.04 26.142117l-3.312941 0.210824h-175.676236a26.352941 26.352941 0 0 1-3.312941-52.495059l3.312941-0.210823H813.176471v-149.323295c0-13.432471 10.059294-24.545882 23.04-26.172235l3.312941-0.180706zM207.058824 637.500235c13.432471 0 24.515765 10.029176 26.142117 23.04l0.210824 3.312941V813.176471h149.323294c13.432471 0 24.545882 10.059294 26.172235 23.04l0.180706 3.312941a26.352941 26.352941 0 0 1-23.04 26.142117l-3.312941 0.210824H207.058824a26.352941 26.352941 0 0 1-26.142118-23.04L180.705882 839.529412v-175.676236c0-14.576941 11.806118-26.352941 26.352942-26.352941z" fill="#568af2" /></svg>