<svg class="icon" style="width: 1em;height: 1em;vertical-align: middle;fill: currentColor;overflow: hidden;" viewBox="0 0 1024 1024" version="1.1" xmlns="http://www.w3.org/2000/svg" width="32" height="32"><path d="M361.411765 475.617882a26.352941 26.352941 0 0 1 3.312941 52.495059l-3.312941 0.210824H238.441412a61.500235 61.500235 0 0 0-4.608 122.789647l4.608 0.180706h527.058823a114.206118 114.206118 0 0 1 5.872941 228.231529l-5.872941 0.150588h-368.941176a26.352941 26.352941 0 0 1-3.312941-52.495059l3.312941-0.210823h368.941176a61.500235 61.500235 0 0 0 4.577883-122.789647l-4.577883-0.180706h-527.058823a114.206118 114.206118 0 0 1-5.872941-228.231529l5.872941-0.150589H361.411765z m385.445647-343.642353a26.352941 26.352941 0 0 1 37.255529 0l87.853177 87.823059a26.352941 26.352941 0 0 1 0 37.25553l-263.529412 263.529411a26.352941 26.352941 0 0 1-18.642824 7.740236h-87.823058a26.352941 26.352941 0 0 1-26.352942-26.352941V414.117647c0-6.987294 2.770824-13.703529 7.710118-18.642823z" fill="#568af2" /></svg>