<svg class="icon" style="width: 1em;height: 1em;vertical-align: middle;fill: currentColor;overflow: hidden;" viewBox="0 0 1024 1024" version="1.1" xmlns="http://www.w3.org/2000/svg" width="32" height="32"><path d="M814.441412 210.823529c33.942588 0 61.470118 27.527529 61.470117 61.500236v456.764235a61.500235 61.500235 0 0 1-61.470117 61.500235H384V210.823529z m-69.210353 148.269177a26.352941 26.352941 0 0 0-37.285647 0L462.004706 605.063529l-2.379294 2.710589a26.352941 26.352941 0 0 0 39.634823 34.544941l245.970824-245.970824 2.349176-2.710588a26.352941 26.352941 0 0 0-2.349176-34.544941z m-37.857883 208.474353a26.352941 26.352941 0 0 0-34.544941 39.604706l35.117177 35.147294 2.710588 2.349176a26.352941 26.352941 0 0 0 34.575059-39.604706l-35.147294-35.147294z m-210.823529-210.82353a26.352941 26.352941 0 0 0-34.544941 39.604706l35.117176 35.147294 2.710589 2.349177a26.352941 26.352941 0 0 0 34.575058-39.604706l-35.147294-35.147294zM331.294118 790.588235H181.970824A61.500235 61.500235 0 0 1 120.470588 729.088V272.323765C120.470588 238.351059 147.998118 210.823529 181.970824 210.823529H331.294118v579.764706z" fill="#568af2" /></svg>