<svg class="icon" style="width: 1em;height: 1em;vertical-align: middle;fill: currentColor;overflow: hidden;" viewBox="0 0 1024 1024" version="1.1" xmlns="http://www.w3.org/2000/svg" width="32" height="32"><path d="M291.147294 124.235294c13.432471 0 24.515765 10.059294 26.142118 23.04l0.210823 3.312941-0.030117 43.91153h368.941176V150.588235c0-13.432471 10.059294-24.515765 23.070118-26.142117l3.312941-0.210824h140.528941c13.432471 0 24.545882 10.059294 26.172235 23.04l0.180706 3.312941v140.559059a26.352941 26.352941 0 0 1-23.04 26.142118l-3.312941 0.210823-43.911529-0.030117v368.941176h43.911529c13.432471 0 24.545882 10.059294 26.172235 23.070118l0.180706 3.312941v140.528941a26.352941 26.352941 0 0 1-23.04 26.172235l-3.312941 0.180706h-140.528941a26.352941 26.352941 0 0 1-26.172235-23.04l-0.180706-3.312941-0.030118-43.911529h-368.941176v43.911529a26.352941 26.352941 0 0 1-23.04 26.172235l-3.312942 0.180706H150.588235a26.352941 26.352941 0 0 1-26.142117-23.04l-0.210824-3.312941v-140.528941c0-13.432471 10.059294-24.545882 23.04-26.172235l3.312941-0.180706 43.91153-0.030118v-368.941176H150.588235a26.352941 26.352941 0 0 1-26.142117-23.04l-0.210824-3.312942V150.588235c0-13.432471 10.059294-24.515765 23.04-26.142117L150.588235 124.235294h140.559059z m535.823059 614.881882h-87.853177v87.853177h87.853177v-87.853177z m-562.206118 0H176.941176v87.853177h87.823059v-87.853177z m421.647059-491.911529h-368.941176v43.941647a26.352941 26.352941 0 0 1-23.04 26.142118l-3.312942 0.210823-43.911529-0.030117v368.941176h43.941647c13.432471 0 24.515765 10.059294 26.142118 23.070118l0.210823 3.312941-0.030117 43.911529h368.941176v-43.911529c0-13.432471 10.059294-24.545882 23.070118-26.172235l3.312941-0.180706 43.911529-0.030118v-368.941176h-43.911529a26.352941 26.352941 0 0 1-26.172235-23.04l-0.180706-3.312942-0.030118-43.911529zM530.070588 335.058824c14.546824 0 26.352941 11.806118 26.352941 26.352941v86.076235h86.076236c13.432471 0 24.545882 10.059294 26.172235 23.070118l0.180706 3.312941v168.658823a26.352941 26.352941 0 0 1-26.352941 26.322824h-168.658824a26.352941 26.352941 0 0 1-26.352941-26.352941v-86.076236H361.411765a26.352941 26.352941 0 0 1-26.142118-23.04l-0.210823-3.312941V361.411765c0-14.546824 11.806118-26.352941 26.352941-26.352941z m-265.306353-158.117648H176.941176v87.823059h87.823059V176.941176z m562.206118 0h-87.853177v87.823059h87.853177V176.941176z" fill="#568af2" /></svg>