<svg class="icon" style="width: 1em;height: 1em;vertical-align: middle;fill: currentColor;overflow: hidden;" viewBox="0 0 1024 1024" version="1.1" xmlns="http://www.w3.org/2000/svg" width="32" height="32"><path d="M581.029647 180.705882c14.546824 0 26.352941 11.806118 26.352941 26.352942l-0.030117 114.176h237.206588c13.432471 0 24.515765 10.059294 26.142117 23.070117l0.210824 3.312941v140.528942a26.352941 26.352941 0 0 1-26.352941 26.352941h-26.383059v291.388235a26.352941 26.352941 0 0 1-23.04 26.172235l-3.312941 0.180706H677.647059v-133.270588l-0.210824-3.312941a26.352941 26.352941 0 0 0-52.284235 0l-0.210824 3.312941v133.270588h-87.853176V698.729412l-0.180706-3.312941a26.352941 26.352941 0 0 0-52.314353 0l-0.210823 3.312941v133.541647h-87.823059v-133.270588l-0.210824-3.312942a26.352941 26.352941 0 0 0-52.314353 0l-0.180706 3.312942v133.270588H229.647059a26.352941 26.352941 0 0 1-26.142118-23.04l-0.210823-3.312941v-291.388236h-26.352942a26.352941 26.352941 0 0 1-26.142117-23.04L150.588235 488.146824v-140.528942c0-14.576941 11.806118-26.352941 26.352941-26.352941l237.176471-0.030117V207.058824c0-13.432471 10.059294-24.515765 23.04-26.142118l3.312941-0.210824z" fill="#568af2" /></svg>