<svg class="icon" style="width: 1em;height: 1em;vertical-align: middle;fill: currentColor;overflow: hidden;" viewBox="0 0 1024 1024" version="1.1" xmlns="http://www.w3.org/2000/svg" width="32" height="32"><path d="M518.264471 150.588235c13.462588 0 24.545882 10.059294 26.172235 23.04l0.180706 3.312941v346.352942L253.801412 759.567059a26.352941 26.352941 0 0 1-35.84-38.460235l2.590117-2.43953 271.36-220.521412V176.941176c0-13.432471 10.059294-24.515765 23.070118-26.142117l3.312941-0.210824z" fill="#568af2" /><path d="M497.844706 494.140235a26.352941 26.352941 0 0 1 34.123294-5.903059l2.921412 2.048 281.118117 228.412236a26.352941 26.352941 0 0 1-30.32847 42.947764l-2.921412-2.048-281.088-228.412235a26.352941 26.352941 0 0 1-3.855059-37.044706zM784.745412 330.691765a26.352941 26.352941 0 0 1 31.894588 41.863529l-2.650353 1.987765-158.117647 105.411765a26.352941 26.352941 0 0 1-31.864471-41.86353l2.620236-1.987765 158.117647-105.411764zM215.250824 338.010353a26.352941 26.352941 0 0 1 33.671529-8.975059l2.861176 1.656471 158.117647 105.411764a26.352941 26.352941 0 0 1-26.352941 45.537883l-2.861176-1.686588-158.117647-105.411765a26.352941 26.352941 0 0 1-7.318588-36.532706zM518.264471 624.941176c13.462588 0 24.545882 10.059294 26.172235 23.04l0.180706 3.312942v210.823529a26.352941 26.352941 0 0 1-52.495059 3.312941l-0.210824-3.312941v-210.823529c0-14.546824 11.806118-26.352941 26.352942-26.352942z" fill="#568af2" /></svg>