<svg class="icon" style="width: 1em;height: 1em;vertical-align: middle;fill: currentColor;overflow: hidden;" viewBox="0 0 1024 1024" version="1.1" xmlns="http://www.w3.org/2000/svg" width="32" height="32"><path d="M270.878118 584.975059a26.352941 26.352941 0 0 1-34.575059 39.634823l-2.710588-2.379294-106.827295-106.917647-1.807058-2.409412-1.204706-1.987764a26.292706 26.292706 0 0 1-0.060236-25.359059l2.258824-3.46353 2.228706-2.529882 105.411765-105.411765a26.352941 26.352941 0 0 1 39.634823 34.575059l-2.349176 2.710588-60.446118 60.385883h261.391059V210.432L411.407059 270.878118a26.352941 26.352941 0 0 1-39.604706-34.575059l2.349176-2.710588 105.411765-105.411765 1.837177-1.656471 2.770823-2.017882 1.385412-0.813177 2.710588-1.295058 3.312941-1.084236a26.262588 26.262588 0 0 1 19.33553 2.409412l1.987764 1.204706 2.710589 2.108235 106.61647 106.556236a26.352941 26.352941 0 0 1-34.544941 39.634823l-2.710588-2.349176-60.446118-60.446118v261.391059h261.391059L725.534118 411.407059a26.352941 26.352941 0 0 1 34.544941-39.604706l2.710588 2.349176 106.827294 106.917647 1.776941 2.349177 1.656471 2.800941 1.024 2.288941a26.262588 26.262588 0 0 1 0 19.395765l-0.963765 2.138353-1.14447 2.017882-1.41553 2.078118-2.349176 2.710588-105.411765 105.411765a26.352941 26.352941 0 0 1-39.634823-34.575059l2.379294-2.710588 60.385882-60.446118h-261.391059v261.391059l60.446118-60.385882a26.352941 26.352941 0 0 1 39.634823 34.544941l-2.379294 2.710588-106.074353 106.044235-2.469647 2.048-1.626353 1.084236-2.017882 1.14447-2.198588 0.993883a26.081882 26.081882 0 0 1-3.162353 1.024l-1.385412 0.301176a26.443294 26.443294 0 0 1-1.746824 0.301177l-3.343058 0.180705-3.373177-0.210823-3.975529-0.813177-2.590118-0.903529-2.048-0.903529-2.048-1.204706-1.897412-1.325177-2.048-1.716706-106.074353-106.014117a26.352941 26.352941 0 0 1 34.575059-39.664941l2.710588 2.379294 60.385883 60.385882v-261.391059H210.432l60.446118 60.446118z" fill="#568af2" /></svg>