<svg class="icon" style="width: 1em;height: 1em;vertical-align: middle;fill: currentColor;overflow: hidden;" viewBox="0 0 1024 1024" version="1.1" xmlns="http://www.w3.org/2000/svg" width="32" height="32"><path d="M783.570824 532.329412a26.352941 26.352941 0 0 1 34.334117 39.815529l-2.710588 2.349177-281.118118 210.823529a26.352941 26.352941 0 0 1-28.370823 2.108235l-3.252706-2.108235-281.088-210.823529a26.352941 26.352941 0 0 1 28.611765-44.122353l3.011764 1.957647 265.276236 198.927059 265.306353-198.927059zM799.382588 210.823529a26.352941 26.352941 0 0 1 3.312941 52.495059l-3.312941 0.210824H237.176471a26.352941 26.352941 0 0 1-3.312942-52.495059L237.176471 210.823529h562.206117zM799.382588 351.382588a26.352941 26.352941 0 0 1 3.312941 52.495059l-3.312941 0.210824H237.176471a26.352941 26.352941 0 0 1-3.312942-52.525177l3.312942-0.180706h562.206117z" fill="#568af2" /></svg>