<svg class="icon" style="width: 1em;height: 1em;vertical-align: middle;fill: currentColor;overflow: hidden;" viewBox="0 0 1024 1024" version="1.1" xmlns="http://www.w3.org/2000/svg" width="32" height="32"><path d="M839.559529 210.823529a26.352941 26.352941 0 0 1 3.312942 52.495059l-3.312942 0.210824H453.059765a26.352941 26.352941 0 0 1-3.312941-52.495059l3.312941-0.210824h386.499764zM839.559529 386.499765a26.352941 26.352941 0 0 1 3.312942 52.525176l-3.312942 0.180706H453.059765a26.352941 26.352941 0 0 1-3.312941-52.495059l3.312941-0.210823h386.499764zM839.559529 562.206118a26.352941 26.352941 0 0 1 3.312942 52.495058l-3.312942 0.210824H453.059765a26.352941 26.352941 0 0 1-3.312941-52.495059l3.312941-0.210823h386.499764zM839.559529 737.882353a26.352941 26.352941 0 0 1 3.312942 52.495059l-3.312942 0.210823H453.059765a26.352941 26.352941 0 0 1-3.312941-52.495059l3.312941-0.210823h386.499764zM312.500706 562.206118a26.352941 26.352941 0 0 1 24.154353 36.924235l-1.536 2.981647-81.498353 135.740235 58.88 0.030118c13.432471 0 24.545882 10.059294 26.172235 23.04l0.180706 3.312941a26.352941 26.352941 0 0 1-23.04 26.142118l-3.312941 0.210823h-105.411765a26.352941 26.352941 0 0 1-24.124235-36.954353l1.536-2.951529 81.438118-135.800471H207.088941a26.352941 26.352941 0 0 1-26.142117-23.04l-0.210824-3.312941c0-13.402353 10.059294-24.485647 23.070118-26.112l3.312941-0.210823h105.411765z" fill="#568af2" /><path d="M294.942118 210.823529c12.408471 0 22.979765 8.613647 25.690353 20.419765l0.542117 3.312941 17.558588 175.676236a26.352941 26.352941 0 0 1-51.922823 8.523294l-0.512-3.282824-2.921412-29.003294H236.182588l-2.861176 29.003294a26.352941 26.352941 0 0 1-52.555294-1.927529l0.12047-3.312941 17.558588-175.676236c1.234824-12.348235 10.842353-21.985882 22.889412-23.521882L224.647529 210.823529h70.294589z m-23.853177 52.705883h-22.588235l-7.04753 70.234353h36.653177L271.088941 263.529412z" fill="#568af2" /></svg>