<svg class="icon" style="width: 1em;height: 1em;vertical-align: middle;fill: currentColor;overflow: hidden;" viewBox="0 0 1024 1024" version="1.1" xmlns="http://www.w3.org/2000/svg" width="32" height="32"><path d="M616.146824 210.823529a26.352941 26.352941 0 0 1 24.154352 36.954353l-1.536 2.95153-44.15247 73.517176 25.901176 38.851765c7.529412 11.324235 5.12 26.081882-4.638117 34.544941l-2.620236 1.987765-2.891294 1.65647-123.572706 61.771295 14.908236 104.207058a26.352941 26.352941 0 0 1-12.649412 26.383059l-3.132235 1.596235-3.072 1.084236-97.942589 27.949176 45.869177 168.146824a26.383059 26.383059 0 0 1-19.184941 32.557176l-3.041883 0.542118-3.222588 0.210823H212.088471a61.500235 61.500235 0 0 1-61.31953-56.922353L150.588235 764.235294V272.323765c0-32.436706 25.088-58.970353 56.922353-61.31953L212.058353 210.823529h404.058353z m193.264941 0c33.972706 0 61.500235 27.527529 61.500235 61.500236v491.911529a61.500235 61.500235 0 0 1-61.500235 61.500235h-298.676706a26.352941 26.352941 0 0 1-25.328941-19.124705l-35.147294-122.970353a26.352941 26.352941 0 0 1 18.100705-32.587295l101.25553-28.943058-14.757647-118.121412a26.352941 26.352941 0 0 1 12.40847-25.750588l3.041883-1.626353 130.891294-58.157177-37.345883-62.313412a26.352941 26.352941 0 0 1-1.204705-24.877176l1.867294-3.312941 70.26447-105.411765A26.352941 26.352941 0 0 1 756.705882 210.823529z m-465.558589 122.970353a52.705882 52.705882 0 1 0 0 105.411765 52.705882 52.705882 0 0 0 0-105.411765z" fill="#568af2" /></svg>