<svg class="icon" style="width: 1em;height: 1em;vertical-align: middle;fill: currentColor;overflow: hidden;" viewBox="0 0 1024 1024" version="1.1" xmlns="http://www.w3.org/2000/svg" width="32" height="32"><path d="M488.417882 152.485647a26.352941 26.352941 0 0 1 19.576471 0l340.329412 136.131765c16.655059 6.656 27.587765 22.799059 27.587764 40.779294v497.573647c0 24.274824-19.666824 43.941647-43.911529 43.941647H164.382118A43.911529 43.911529 0 0 1 120.470588 826.970353V329.396706c0-17.980235 10.932706-34.123294 27.617883-40.779294z m9.788236 296.779294a26.352941 26.352941 0 0 0-26.352942 26.352941v175.676236l0.180706 3.312941a26.352941 26.352941 0 0 0 52.525177-3.312941v-175.676236l-0.210824-3.312941a26.352941 26.352941 0 0 0-26.142117-23.04z m158.117647 0h-47.435294l-2.921412 0.120471-2.349177-0.120471a26.352941 26.352941 0 0 0-26.172235 23.04l-0.180706 3.312941v175.676236l0.180706 3.312941a26.352941 26.352941 0 0 0 52.525177-3.312941l-0.030118-65.475765c8.282353 2.590118 17.167059 3.975529 26.383059 3.975529 42.706824 0 79.058824-30.268235 79.058823-70.26447 0-39.996235-36.352-70.264471-79.058823-70.264471z m-263.469177 0H287.382588l-3.312941 0.180706a26.352941 26.352941 0 0 0-23.04 26.172235l0.180706 3.312942a26.352941 26.352941 0 0 0 26.172235 23.04l58.910118-0.030118-81.498353 135.770353-1.566118 2.981647a26.352941 26.352941 0 0 0 24.154353 36.954353h105.472l3.312941-0.210824a26.352941 26.352941 0 0 0 23.04-26.142117l-0.180705-3.312942a26.352941 26.352941 0 0 0-26.172236-23.04l-58.940235-0.030117 81.528471-135.740235 1.566117-2.95153a26.352941 26.352941 0 0 0-24.154353-36.954353z m237.086118 52.675765h26.383059c15.510588 0 26.352941 9.035294 26.352941 17.588706 0 8.523294-10.842353 17.558588-26.352941 17.558588s-26.352941-9.035294-26.352941-17.558588l-0.030118-17.588706z" fill="#568af2" /></svg>