<svg class="icon" style="width: 1em;height: 1em;vertical-align: middle;fill: currentColor;overflow: hidden;" viewBox="0 0 1024 1024" version="1.1" xmlns="http://www.w3.org/2000/svg" width="32" height="32"><path d="M719.781647 189.199059a26.352941 26.352941 0 0 1 34.454588-3.764706l2.770824 2.258823 123.00047 113.54353a26.352941 26.352941 0 0 1 3.674353 34.484706l-2.258823 2.800941-122.970353 132.427294a26.352941 26.352941 0 0 1-40.869647-33.069176l2.228706-2.800942 104.990117-113.091764-103.54447-95.563294a26.352941 26.352941 0 0 1-3.734588-34.454589l2.258823-2.770823z" fill="#568af2" /><path d="M809.411765 303.676235a26.352941 26.352941 0 0 1 3.312941 52.525177l-3.312941 0.180706H405.443765c-106.767059 0-197.842824 87.582118-201.999059 194.288941-4.306824 110.411294 85.323294 205.824 195.102118 209.679059l6.896941 0.12047h298.586353a26.352941 26.352941 0 0 1 3.312941 52.495059l-3.312941 0.210824h-298.586353c-142.757647 0-260.216471-121.946353-254.674824-264.553412 5.180235-132.457412 115.320471-240.790588 247.055059-244.826353l7.619765-0.120471h403.968z" fill="#568af2" /></svg>