<svg class="icon" style="width: 1em;height: 1em;vertical-align: middle;fill: currentColor;overflow: hidden;" viewBox="0 0 1024 1024" version="1.1" xmlns="http://www.w3.org/2000/svg" width="32" height="32"><path d="M567.205647 382.735059c32.436706 0 58.970353 25.088 61.319529 56.922353l0.180706 4.577882v351.382588a61.500235 61.500235 0 0 1-56.922353 61.31953l-4.577882 0.150588H215.853176A61.500235 61.500235 0 0 1 154.503529 800.225882l-0.180705-4.577882V444.235294c0-32.406588 25.088-58.970353 56.922352-61.319529l4.577883-0.180706h351.35247zM391.529412 505.735529a26.352941 26.352941 0 0 0-26.142118 23.04l-0.210823 3.312942v61.470117h-61.500236l-3.312941 0.210824a26.352941 26.352941 0 0 0 0 52.314353l3.312941 0.180706h61.500236V707.764706l0.210823 3.312941a26.352941 26.352941 0 0 0 52.284235 0l0.210824-3.312941v-61.500235h61.500235l3.312941-0.180706a26.352941 26.352941 0 0 0 0-52.314353l-3.312941-0.210824h-61.500235v-61.470117l-0.210824-3.312942a26.352941 26.352941 0 0 0-26.142117-23.04zM813.176471 154.352941c32.406588 0 58.970353 25.088 61.319529 56.922353l0.180706 4.577882V602.352941a61.500235 61.500235 0 0 1-56.922353 61.31953l-4.577882 0.180705h-70.264471a26.352941 26.352941 0 0 1-3.312941-52.525176l3.312941-0.180706H813.176471a8.794353 8.794353 0 0 0 8.553411-6.77647l0.240942-2.017883V215.853176a8.794353 8.794353 0 0 0-6.776471-8.553411L813.176471 207.058824H461.793882a8.794353 8.794353 0 0 0-8.553411 6.77647l-0.210824 2.017882v52.705883a26.352941 26.352941 0 0 1-52.525176 3.312941l-0.180706-3.312941v-52.705883c0-32.436706 25.088-58.970353 56.892235-61.319529l4.577882-0.180706H813.176471z" fill="#568af2" /></svg>