<svg class="icon" style="width: 1em;height: 1em;vertical-align: middle;fill: currentColor;overflow: hidden;" viewBox="0 0 1024 1024" version="1.1" xmlns="http://www.w3.org/2000/svg" width="32" height="32"><path d="M540.069647 360.297412l-10.089412 0.722823c-103.092706 8.613647-192.361412 50.838588-266.782117 126.253177-82.401882 83.516235-130.017882 187.723294-142.576942 311.627294-2.620235 25.991529 30.057412 39.574588 46.592 19.365647 82.522353-100.713412 154.563765-156.912941 214.136471-169.562353l14.607059-2.891294c48.489412-9.035294 95.051294-11.294118 139.655529-6.806588l4.457412 0.512v164.924235c0 24.003765 29.424941 35.508706 45.688471 17.889882l283.196235-306.657882a26.352941 26.352941 0 0 0-0.481882-36.261647l-283.196236-290.69553c-16.474353-16.926118-45.206588-5.240471-45.206588 18.371765v153.208471z" fill="#568af2" /></svg>