<svg class="icon" style="width: 1em;height: 1em;vertical-align: middle;fill: currentColor;overflow: hidden;" viewBox="0 0 1024 1024" version="1.1" xmlns="http://www.w3.org/2000/svg" width="32" height="32"><path d="M453.029647 150.588235l-3.312941 0.210824a26.352941 26.352941 0 0 0-23.04 26.142117l-0.030118 166.881883h-114.176c-23.491765 0-35.237647 28.400941-18.642823 44.995765l210.823529 210.823529a26.352941 26.352941 0 0 0 37.285647 0l210.82353-210.823529 2.16847-2.409412c13.251765-16.805647 1.536-42.556235-20.811294-42.556236l-114.206118-0.030117V176.941176A26.352941 26.352941 0 0 0 593.558588 150.588235h-140.528941z m386.499765 544.617412a26.352941 26.352941 0 0 1 3.312941 52.495059l-3.312941 0.210823h-632.470588a26.352941 26.352941 0 0 1-3.312942-52.495058l3.312942-0.210824h632.470588z m-140.559059 123.000471a26.352941 26.352941 0 0 1 3.312941 52.495058l-3.312941 0.210824H347.617882a26.352941 26.352941 0 0 1-3.312941-52.525176l3.312941-0.180706h351.352471z" fill="#568af2" /></svg>