<svg class="icon" style="width: 1em;height: 1em;vertical-align: middle;fill: currentColor;overflow: hidden;" viewBox="0 0 1024 1024" version="1.1" xmlns="http://www.w3.org/2000/svg" width="32" height="32"><path d="M0 0h1024v1024H0z" fill="#568af2" fill-opacity="0" /><path d="M839.529412 180.705882c13.432471 0 24.515765 10.059294 26.142117 23.04l0.210824 3.312942v632.470588a26.352941 26.352941 0 0 1-52.495059 3.312941l-0.210823-3.312941v-632.470588c0-14.546824 11.806118-26.352941 26.352941-26.352942z m-177.332706 233.743059l2.710588 2.379294 87.853177 87.823059 1.475764 1.596235 1.656471 2.228706 1.264941 2.048 1.144471 2.258824 0.813176 2.16847c1.807059 5.421176 1.807059 11.294118 0 16.685177l-0.903529 2.409412-1.746824 3.252706-1.355294 1.927529-2.349176 2.710588-87.853177 87.823059a26.352941 26.352941 0 0 1-39.634823-34.544941l2.379294-2.710588 42.827294-42.857412h-294.4l42.857412 42.857412a26.352941 26.352941 0 0 1-34.544942 39.634823l-2.710588-2.379294-88.304941-88.304941-1.024-1.144471-2.017882-2.710588-1.656471-2.981647-0.722823-1.626353a26.262588 26.262588 0 0 1 0-19.395765l1.355294-2.891294 1.746823-2.770823 1.054118-1.355294 1.716706-1.92753 87.853176-87.823059a26.352941 26.352941 0 0 1 39.634824 34.544941l-2.379294 2.710589-42.857412 42.857411h294.4l-42.827294-42.857411a26.352941 26.352941 0 0 1 34.544941-39.634824zM207.058824 180.705882c13.432471 0 24.515765 10.059294 26.142117 23.04l0.210824 3.312942v632.470588a26.352941 26.352941 0 0 1-52.495059 3.312941L180.705882 839.529412v-632.470588C180.705882 192.512 192.512 180.705882 207.058824 180.705882z" fill="#568af2" /></svg>