<svg class="icon" style="width: 1em;height: 1em;vertical-align: middle;fill: currentColor;overflow: hidden;" viewBox="0 0 1024 1024" version="1.1" xmlns="http://www.w3.org/2000/svg" width="32" height="32"><path d="M498.236235 180.705882c13.432471 0 24.515765 10.059294 26.142118 23.04l0.210823 3.312942v632.470588a26.352941 26.352941 0 0 1-52.495058 3.312941l-0.210824-3.312941v-632.470588c0-14.546824 11.806118-26.352941 26.352941-26.352942z m-163.689411 119.145412l-210.82353 386.499765a26.352941 26.352941 0 0 0 23.130353 38.972235h210.823529a26.352941 26.352941 0 0 0 26.352942-26.352941V312.470588c0-27.316706-36.412235-36.592941-49.483294-12.619294z m277.895529 12.619294v386.499765c0 14.576941 11.776 26.352941 26.352941 26.352941h210.82353a26.352941 26.352941 0 0 0 23.130352-38.972235l-210.823529-386.499765c-13.071059-23.973647-49.483294-14.697412-49.483294 12.619294z" fill="#568af2" /></svg>