<svg class="icon" style="width: 1em;height: 1em;vertical-align: middle;fill: currentColor;overflow: hidden;" viewBox="0 0 1024 1024" version="1.1" xmlns="http://www.w3.org/2000/svg" width="32" height="32"><path d="M207.058824 498.055529c13.432471 0 24.515765 10.059294 26.142117 23.070118l0.210824 3.312941v0.993883l0.361411 7.408941 0.240942 3.312941c0.813176 10.119529 2.258824 21.443765 4.517647 33.701647a339.275294 339.275294 0 0 0 35.84 102.460235c36.050824 65.415529 93.033412 112.399059 176.489411 134.02353 106.767059 27.708235 191.488 3.403294 257.716706-54.211765a291.538824 291.538824 0 0 0 42.164706-45.327059l5.180236-7.168 2.16847-3.162353 3.403294-5.24047 2.198588-3.734589a26.352941 26.352941 0 1 1 46.260706 25.238589c-11.173647 20.48-33.129412 49.904941-66.800941 79.179294-78.697412 68.427294-180.916706 97.761882-305.543529 65.475764-94.177882-24.425412-161.129412-77.552941-204.197647-150.528v98.665412a26.352941 26.352941 0 0 1-52.495059 3.312941L180.705882 805.496471v-281.118118c0-14.546824 11.806118-26.352941 26.352942-26.352941z m477.30447-65.837176a26.352941 26.352941 0 0 1 40.96 21.925647v140.559059a26.352941 26.352941 0 0 1-40.96 21.925647l-35.147294-23.43153a26.352941 26.352941 0 0 1-11.745882-21.925647v-93.696c0-8.824471 4.427294-17.046588 11.745882-21.925647z m-125.921882-4.427294c14.546824 0 26.352941 11.806118 26.352941 26.352941v140.559059a26.352941 26.352941 0 0 1-26.352941 26.352941h-210.82353a26.352941 26.352941 0 0 1-26.352941-26.352941v-140.559059c0-14.546824 11.776-26.352941 26.352941-26.352941z m70.113882-226.936471c84.329412 29.184 144.926118 79.450353 184.621177 144.715294V243.320471a26.352941 26.352941 0 0 1 52.495058-3.312942l0.210824 3.312942v281.389176l0.060235 2.891294-0.090353 6.625883a26.352941 26.352941 0 0 1-52.585411 1.264941l-0.060236-3.674353a272.022588 272.022588 0 0 0-4.969412-51.742118 315.331765 315.331765 0 0 0-36.291764-100.743529c-33.400471-58.127059-85.443765-102.640941-160.64753-128.692706-104.116706-36.020706-193.355294-13.040941-268.348235 47.887059-17.709176 14.366118-33.129412 29.756235-46.08 45.146353l-5.933176 7.198117-4.638118 5.963294-4.457412 6.294589a26.352941 26.352941 0 1 1-44.15247-28.792471c12.890353-19.787294 37.014588-48.308706 72.011294-76.739765 88.184471-71.589647 195.855059-99.328 318.855529-56.741647z" fill="#568af2" /></svg>