<svg class="icon" style="width: 1em;height: 1em;vertical-align: middle;fill: currentColor;overflow: hidden;" viewBox="0 0 1024 1024" version="1.1" xmlns="http://www.w3.org/2000/svg" width="32" height="32"><path d="M466.944 215.220706c23.672471-40.990118 82.823529-40.990118 106.496 0l304.308706 527.058823c23.672471 40.96-5.933176 92.220235-53.248 92.220236H660.48a26.352941 26.352941 0 0 0 23.401412-13.733647l105.411764-193.234824 1.385412-3.011765a26.352941 26.352941 0 0 0-47.646117-22.226823l-105.411765 193.234823-1.41553 3.011765a26.352941 26.352941 0 0 0 24.274824 35.960471H215.883294c-47.314824 0-76.920471-51.230118-53.248-92.220236z m207.209412 183.717647a26.352941 26.352941 0 0 0-36.111059 9.306353l-228.382118 386.499765-1.505882 2.951529a26.352941 26.352941 0 0 0 46.893176 23.853176l228.382118-386.499764 1.505882-2.95153a26.352941 26.352941 0 0 0-10.782117-33.129411z" fill="#568af2" /></svg>