<svg class="icon" style="width: 1em;height: 1em;vertical-align: middle;fill: currentColor;overflow: hidden;" viewBox="0 0 1024 1024" version="1.1" xmlns="http://www.w3.org/2000/svg" width="32" height="32"><path d="M843.294118 786.823529a26.352941 26.352941 0 0 1 3.312941 52.495059l-3.312941 0.210824H210.823529a26.352941 26.352941 0 0 1-3.312941-52.495059l3.312941-0.210824h632.470589zM626.025412 162.093176L262.445176 526.095059a26.352941 26.352941 0 0 0-7.710117 18.642823v127.87953c0 14.576941 11.806118 26.352941 26.352941 26.352941h128.572235a26.352941 26.352941 0 0 0 18.642824-7.710118l363.369412-363.52a26.352941 26.352941 0 0 0 0-37.285647l-128.361412-128.391529a26.352941 26.352941 0 0 0-37.285647 0z" fill="#568af2" /></svg>