<svg class="icon" style="width: 1em;height: 1em;vertical-align: middle;fill: currentColor;overflow: hidden;" viewBox="0 0 1024 1024" version="1.1" xmlns="http://www.w3.org/2000/svg" width="32" height="32"><path d="M732.852706 184.470588h-421.647059A26.352941 26.352941 0 0 0 284.852706 210.823529v105.411765c0 14.546824 11.806118 26.352941 26.352941 26.352941h421.647059a26.352941 26.352941 0 0 0 26.352941-26.352941V210.823529a26.352941 26.352941 0 0 0-26.352941-26.352941z m70.294588 245.970824H240.941176a26.352941 26.352941 0 0 0-26.352941 26.352941v105.411765c0 14.546824 11.806118 26.352941 26.352941 26.352941h562.206118a26.352941 26.352941 0 0 0 26.352941-26.352941v-105.411765a26.352941 26.352941 0 0 0-26.352941-26.352941z m-123.00047 245.940706h-316.235295a26.352941 26.352941 0 0 0-26.352941 26.352941v105.411765c0 14.576941 11.806118 26.352941 26.352941 26.352941h316.235295a26.352941 26.352941 0 0 0 26.352941-26.352941v-105.411765a26.352941 26.352941 0 0 0-26.352941-26.352941z" fill="#568af2" /></svg>