<svg class="icon" style="width: 1em;height: 1em;vertical-align: middle;fill: currentColor;overflow: hidden;" viewBox="0 0 1024 1024" version="1.1" xmlns="http://www.w3.org/2000/svg" width="32" height="32"><path d="M751.676235 187.422118c9.938824 8.884706 11.565176 23.642353 4.276706 34.394353l-2.198588 2.800941-33.039059 36.924235 119.17553 110.682353a26.352941 26.352941 0 0 1-33.069177 40.869647l-2.800941-2.258823-118.482824-109.989648-55.567058 62.102589 95.653647 88.274823A26.352941 26.352941 0 0 1 692.705882 492.182588l-2.770823-2.228706-95.051294-87.732706-128.843294 143.992471a166.912 166.912 0 1 1-42.767059-31.201882l291.237647-325.51153a26.352941 26.352941 0 0 1 37.195294-2.108235z" fill="#568af2" /></svg>