<svg class="icon" style="width: 1em;height: 1em;vertical-align: middle;fill: currentColor;overflow: hidden;" viewBox="0 0 1024 1024" version="1.1" xmlns="http://www.w3.org/2000/svg" width="32" height="32"><path d="M809.411765 150.588235c32.406588 0 58.970353 25.088 61.319529 56.922353l0.180706 4.577883v351.35247a61.500235 61.500235 0 0 1-56.922353 61.31953l-4.577882 0.180705h-175.676236a62.042353 62.042353 0 0 1-8.764235-0.602352l-0.030118 185.072941a61.500235 61.500235 0 0 1-61.500235 61.500235H212.088471A61.500235 61.500235 0 0 1 150.588235 809.411765V458.029176c0-33.942588 27.527529-61.470118 61.500236-61.470117h185.072941a61.680941 61.680941 0 0 1-0.451765-4.216471l-0.150588-4.577882V212.088471c0-32.436706 25.088-58.970353 56.892235-61.31953L458.029176 150.588235h351.382589z m-184.621177 302.863059l0.150588 4.577882v105.411765c0 4.156235 2.891294 7.649882 6.776471 8.553412l2.017882 0.240941h175.676236a8.794353 8.794353 0 0 0 8.553411-6.77647l0.240942-2.017883V212.088471a8.794353 8.794353 0 0 0-8.794353-8.794353H458.029176a8.794353 8.794353 0 0 0-8.553411 6.77647l-0.210824 2.017883v175.676235c0 4.156235 2.891294 7.649882 6.746353 8.553412l2.017882 0.240941h105.411765c32.436706 0 58.970353 25.088 61.31953 56.892235z" fill="#568af2" /></svg>