<svg class="icon" style="width: 1em;height: 1em;vertical-align: middle;fill: currentColor;overflow: hidden;" viewBox="0 0 1024 1024" version="1.1" xmlns="http://www.w3.org/2000/svg" width="32" height="32"><path d="M373.248 372.043294l-230.189176 33.430588-3.312942 0.662589a26.352941 26.352941 0 0 0-11.324235 44.242823l166.761412 163.026824-39.81553 226.575058-0.361411 3.222589a26.352941 26.352941 0 0 0 38.731294 24.606117l204.438588-109.025882 204.559059 109.025882 2.921412 1.355294a26.352941 26.352941 0 0 0 35.418353-29.153882l-39.574589-226.575059 166.550589-163.087059 2.258823-2.499764a26.352941 26.352941 0 0 0-16.896-42.405647l-228.954353-33.400471-102.640941-206.817882a26.352941 26.352941 0 0 0-47.284706 0.12047l-101.285647 206.697412z" fill="#568af2" /></svg>