<svg class="icon" style="width: 1em;height: 1em;vertical-align: middle;fill: currentColor;overflow: hidden;" viewBox="0 0 1024 1024" version="1.1" xmlns="http://www.w3.org/2000/svg" width="32" height="32"><path d="M638.735059 180.705882a26.352941 26.352941 0 0 1 3.312941 52.495059l-3.312941 0.210824H146.823529a26.352941 26.352941 0 0 1-3.312941-52.495059L146.823529 180.705882h491.91153zM849.558588 409.088a26.352941 26.352941 0 0 1 3.312941 52.525176l-3.312941 0.180706h-281.088a26.352941 26.352941 0 0 1-3.312941-52.495058l3.312941-0.210824h281.088z" fill="#568af2" /><path d="M392.794353 180.705882c13.432471 0 24.515765 10.059294 26.142118 23.04l0.210823 3.312942v597.323294a26.352941 26.352941 0 0 1-52.525176 3.312941l-0.180706-3.312941V207.058824c0-14.546824 11.776-26.352941 26.352941-26.352942zM709.029647 409.088c13.432471 0 24.515765 10.059294 26.142118 23.070118l0.210823 3.312941v368.941176a26.352941 26.352941 0 0 1-52.525176 3.312941l-0.180706-3.312941v-368.941176c0-14.576941 11.776-26.383059 26.352941-26.383059z" fill="#568af2" /></svg>