<svg class="icon" style="width: 1em;height: 1em;vertical-align: middle;fill: currentColor;overflow: hidden;" viewBox="0 0 1024 1024" version="1.1" xmlns="http://www.w3.org/2000/svg" width="32" height="32"><path d="M786.823529 180.705882a79.058824 79.058824 0 0 1 79.058824 79.058824v527.058823a79.058824 79.058824 0 0 1-79.058824 79.058824h-527.058823A79.058824 79.058824 0 0 1 180.705882 786.823529v-527.058823A79.058824 79.058824 0 0 1 259.764706 180.705882z m-206.576941 491.670589h-113.935059c-15.661176 0-23.491765 18.913882-12.40847 29.997176l56.95247 56.952471a17.558588 17.558588 0 0 0 24.847059 0l56.982588-56.952471a17.558588 17.558588 0 0 0-12.438588-29.997176zM344.244706 453.872941l-56.952471 56.952471a17.558588 17.558588 0 0 0 0 24.847059l56.952471 56.982588a17.558588 17.558588 0 0 0 29.997176-12.438588v-113.935059c0-15.661176-18.913882-23.491765-29.997176-12.408471z m328.161882 12.438588v113.935059c0 15.661176 18.913882 23.491765 29.967059 12.408471l56.982588-56.952471a17.558588 17.558588 0 0 0 0-24.847059L702.343529 453.872941a17.558588 17.558588 0 0 0-29.967058 12.438588z m-161.520941-179.079529l-56.952471 56.952471a17.558588 17.558588 0 0 0 12.408471 29.997176h113.935059c15.661176 0 23.491765-18.913882 12.438588-29.997176l-56.982588-56.952471a17.558588 17.558588 0 0 0-24.847059 0z" fill="#568af2" /></svg>