<svg class="icon" style="width: 1em;height: 1em;vertical-align: middle;fill: currentColor;overflow: hidden;" viewBox="0 0 1024 1024" version="1.1" xmlns="http://www.w3.org/2000/svg" width="32" height="32"><path d="M810.224941 712.704a26.352941 26.352941 0 0 1 0 37.285647 411.587765 411.587765 0 0 1-291.96047 120.922353c-110.953412 0-215.04-44.032-291.930353-120.922353a26.352941 26.352941 0 0 1 37.255529-37.285647 358.881882 358.881882 0 0 0 254.674824 105.502118c96.858353 0 187.542588-38.369882 254.674823-105.502118a26.352941 26.352941 0 0 1 37.285647 0zM518.264471 150.588235c82.642824 0 160.135529 32.768 217.419294 90.051765a306.507294 306.507294 0 0 1 90.051764 217.389176c0 82.642824-32.798118 160.135529-90.051764 217.419295a306.537412 306.537412 0 0 1-217.419294 90.051764 306.507294 306.507294 0 0 1-217.389177-90.051764A306.507294 306.507294 0 0 1 210.823529 458.029176c0-82.612706 32.768-160.135529 90.051765-217.389176A306.507294 306.507294 0 0 1 518.264471 150.588235z" fill="#568af2" /></svg>