<svg class="icon" style="width: 1em;height: 1em;vertical-align: middle;fill: currentColor;overflow: hidden;" viewBox="0 0 1024 1024" version="1.1" xmlns="http://www.w3.org/2000/svg" width="32" height="32"><path d="M523.294118 180.705882a26.232471 26.232471 0 0 1 15.962353 5.360942l0.692705 0.602352a26.503529 26.503529 0 0 1 1.716706 1.505883l0.271059 0.240941 105.411765 105.411765a26.352941 26.352941 0 0 1-34.575059 39.634823l-2.710588-2.349176-60.416-60.446118v155.979294h289.882353c13.432471 0 24.515765 10.059294 26.142117 23.070118l0.210824 3.312941v140.528941a26.352941 26.352941 0 0 1-23.04 26.172236l-3.312941 0.180705H549.647059v52.705883h289.882353c13.432471 0 24.515765 10.059294 26.142117 23.070117l0.210824 3.312942v140.528941a26.352941 26.352941 0 0 1-23.04 26.142117l-3.312941 0.210824h-632.470588a26.352941 26.352941 0 0 1-26.142118-23.04L180.705882 839.529412v-140.559059c0-13.432471 10.059294-24.515765 23.04-26.142118l3.312942-0.210823H496.941176v-52.705883H207.058824a26.352941 26.352941 0 0 1-26.142118-23.04L180.705882 593.558588v-140.528941c0-13.432471 10.059294-24.545882 23.04-26.172235l3.312942-0.180706 289.882352-0.030118V270.667294l-60.416 60.446118a26.352941 26.352941 0 0 1-34.575058 2.349176l-2.710589-2.349176a26.352941 26.352941 0 0 1-2.349176-34.575059l2.349176-2.710588 105.411765-105.411765 0.271059-0.240941a26.503529 26.503529 0 0 1 1.716706-1.505883l-1.987765 1.746824A26.533647 26.533647 0 0 1 523.294118 180.705882z" fill="#568af2" /></svg>