<svg class="icon" style="width: 1em;height: 1em;vertical-align: middle;fill: currentColor;overflow: hidden;" viewBox="0 0 1024 1024" version="1.1" xmlns="http://www.w3.org/2000/svg" width="32" height="32"><path d="M207.058824 210.823529c13.432471 0 24.515765 10.059294 26.142117 23.04l0.210824 3.312942v562.206117a26.352941 26.352941 0 0 1-52.495059 3.312941L180.705882 799.352471V237.176471C180.705882 222.629647 192.512 210.823529 207.058824 210.823529zM523.294118 210.823529c13.432471 0 24.515765 10.059294 26.142117 23.04l0.210824 3.312942v562.206117a26.352941 26.352941 0 0 1-52.495059 3.312941l-0.210824-3.312941V237.176471c0-14.546824 11.806118-26.352941 26.352942-26.352942z" fill="#568af2" /><path d="M505.735529 491.911529a26.352941 26.352941 0 0 1 3.312942 52.525177l-3.312942 0.180706H224.617412a26.352941 26.352941 0 0 1-3.312941-52.495059l3.312941-0.210824h281.118117zM677.827765 611.809882l-1.295059 0.752942c-14.697412 7.348706-36.321882 0.873412-38.79153-19.456l-0.271058-3.97553v-123.392c0-13.432471 10.059294-24.515765 23.070117-26.142118l3.312941-0.210823h140.528942a26.352941 26.352941 0 0 1 3.312941 52.495059l-3.312941 0.210823-114.206118-0.030117v59.602823l3.523765-0.843294a265.336471 265.336471 0 0 1 52.013176-6.144l5.963294-0.060235c67.945412 0 96.647529 51.862588 96.64753 140.559059 0 91.557647-32.557176 140.559059-114.206118 140.559058-62.554353 0-96.617412-40.839529-96.617412-96.496941a26.352941 26.352941 0 0 1 52.705883 0c0 28.431059 12.8 43.791059 43.911529 43.791059 46.893176 0 61.500235-21.985882 61.500235-87.853176 0-63.457882-13.522824-87.853176-43.941647-87.853177-20.540235 0-39.574588 2.951529-56.32 7.830588l-4.21647 1.295059-7.529412 2.620235-3.885177 1.536-0.542117 0.39153-0.813177 1.174588c-0.120471 0.060235-0.180706 0.090353-0.240941 0.060235l-0.301176-0.421647z" fill="#568af2" /></svg>