<svg class="icon" style="width: 1em;height: 1em;vertical-align: middle;fill: currentColor;overflow: hidden;" viewBox="0 0 1024 1024" version="1.1" xmlns="http://www.w3.org/2000/svg" width="32" height="32"><path d="M312.892235 217.148235a26.352941 26.352941 0 0 1 36.864 37.526589l-2.56 2.499764-101.406117 86.889412 102.881882 102.881882c9.426824 9.426824 10.24 24.244706 2.349176 34.544942l-2.349176 2.710588a26.352941 26.352941 0 0 1-34.575059 2.349176l-2.710588-2.349176-122.970353-122.970353a26.352941 26.352941 0 0 1-0.993882-36.201412l2.499764-2.439529 122.970353-105.411765z" fill="#568af2" /><path d="M611.026824 316.235294c135.077647 0 249.374118 109.929412 254.674823 244.946824 5.451294 140.047059-107.730824 260.186353-247.055059 264.432941l-7.619764 0.12047h-298.586353a26.352941 26.352941 0 0 1-3.312942-52.525176l3.312942-0.180706h298.586353c112.880941 0 206.396235-97.099294 201.999058-209.799529-4.065882-104.387765-91.286588-190.464-195.041882-194.168471l-6.927059-0.120471H207.028706a26.352941 26.352941 0 0 1-3.312941-52.495058l3.312941-0.210824h403.968z" fill="#568af2" /></svg>