<svg class="icon" style="width: 1em;height: 1em;vertical-align: middle;fill: currentColor;overflow: hidden;" viewBox="0 0 1024 1024" version="1.1" xmlns="http://www.w3.org/2000/svg" width="32" height="32"><path d="M303.887059 484.592941a26.352941 26.352941 0 0 1 34.544941-2.379294l2.710588 2.379294 21.985883 21.955765a26.352941 26.352941 0 0 1-34.605177 39.634823l-2.710588-2.379294-21.925647-21.955764a26.352941 26.352941 0 0 1 0-37.25553z m527.058823-175.706353a26.352941 26.352941 0 0 1 39.604706 34.575059l-2.349176 2.710588L516.818824 697.524706a26.352941 26.352941 0 0 1-34.544942 2.379294l-2.710588-2.379294-21.985882-21.955765a26.352941 26.352941 0 0 1 34.605176-39.634823l2.710588 2.379294 3.282824 3.282823L830.945882 308.886588z" fill="#568af2" /><path d="M655.239529 308.886588a26.352941 26.352941 0 0 1 39.634824 34.575059l-2.349177 2.710588L341.142588 697.524706a26.352941 26.352941 0 0 1-34.575059 2.379294l-2.710588-2.379294-175.676235-175.676235a26.352941 26.352941 0 0 1 34.575059-39.634824l2.710588 2.379294 157.033412 157.003294 332.739764-332.709647z" fill="#568af2" /></svg>