<svg class="icon" style="width: 1em;height: 1em;vertical-align: middle;fill: currentColor;overflow: hidden;" viewBox="0 0 1024 1024" version="1.1" xmlns="http://www.w3.org/2000/svg" width="32" height="32"><path d="M760.470588 184.470588a79.058824 79.058824 0 0 1 79.058824 79.058824v527.058823a79.058824 79.058824 0 0 1-79.058824 79.058824H233.411765a79.058824 79.058824 0 0 1-79.058824-79.058824V263.529412A79.058824 79.058824 0 0 1 233.411765 184.470588z m-316.235294 368.941177h-140.559059l-3.312941 0.210823a26.352941 26.352941 0 0 0-23.04 26.142118v140.559059l0.210824 3.312941a26.352941 26.352941 0 0 0 26.142117 23.04h140.559059l3.312941-0.210824a26.352941 26.352941 0 0 0 23.04-26.142117V579.764706l-0.210823-3.312941a26.352941 26.352941 0 0 0-26.142118-23.04z m245.970824 140.559059H549.647059l-3.312941 0.180705a26.352941 26.352941 0 0 0 3.312941 52.525177h140.559059l3.312941-0.210824a26.352941 26.352941 0 0 0-3.312941-52.495058z m-272.323765-87.853177v87.823059h-87.853177v-87.823059h87.853177z m272.323765-35.147294H549.647059l-3.312941 0.210823a26.352941 26.352941 0 0 0 3.312941 52.495059h140.559059l3.312941-0.180706a26.352941 26.352941 0 0 0-3.312941-52.525176z m-245.970824-263.529412h-140.559059l-3.312941 0.210824a26.352941 26.352941 0 0 0-23.04 26.142117v140.559059l0.210824 3.312941a26.352941 26.352941 0 0 0 26.142117 23.04h140.559059l3.312941-0.210823a26.352941 26.352941 0 0 0 23.04-26.142118v-140.559059l-0.210823-3.312941a26.352941 26.352941 0 0 0-26.142118-23.04z m245.970824 123.000471H549.647059l-3.312941 0.180706a26.352941 26.352941 0 0 0 3.312941 52.525176h140.559059l3.312941-0.210823a26.352941 26.352941 0 0 0-3.312941-52.495059z m-272.323765-70.294588v87.853176h-87.853177v-87.853176h87.853177z m272.323765-52.705883H549.647059l-3.312941 0.210824a26.352941 26.352941 0 0 0 3.312941 52.495059h140.559059l3.312941-0.180706a26.352941 26.352941 0 0 0-3.312941-52.525177z" fill="#568af2" /></svg>