<svg class="icon" style="width: 1em;height: 1em;vertical-align: middle;fill: currentColor;overflow: hidden;" viewBox="0 0 1024 1024" version="1.1" xmlns="http://www.w3.org/2000/svg" width="32" height="32"><path d="M839.529412 180.705882c13.432471 0 24.515765 10.059294 26.142117 23.04l0.210824 3.312942v632.470588a26.352941 26.352941 0 0 1-52.495059 3.312941l-0.210823-3.312941v-632.470588c0-14.546824 11.806118-26.352941 26.352941-26.352942zM364.122353 434.386824a26.352941 26.352941 0 0 1 39.604706 34.575058l-2.349177 2.710589-51.651764 51.621647 51.651764 51.651764c9.426824 9.426824 10.24 24.214588 2.349177 34.544942l-2.349177 2.710588a26.352941 26.352941 0 0 1-34.575058 2.349176l-2.710589-2.349176-70.26447-70.264471a26.352941 26.352941 0 0 1-2.349177-34.575059l2.349177-2.710588 70.294588-70.26447z m281.088 0a26.352941 26.352941 0 0 1 34.575059-2.349177l2.710588 2.349177 70.264471 70.26447c9.426824 9.456941 10.24 24.244706 2.349176 34.575059l-2.349176 2.710588-70.294589 70.264471a26.352941 26.352941 0 0 1-39.604706-34.575059l2.349177-2.710588 51.621647-51.621647-51.621647-51.651765a26.352941 26.352941 0 0 1-2.349177-34.544941l2.349177-2.710588zM523.294118 180.705882c13.432471 0 24.515765 10.059294 26.142117 23.04l0.210824 3.312942v632.470588a26.352941 26.352941 0 0 1-52.495059 3.312941l-0.210824-3.312941v-632.470588c0-14.546824 11.806118-26.352941 26.352942-26.352942z m-316.235294 0c13.432471 0 24.515765 10.059294 26.142117 23.04l0.210824 3.312942v632.470588a26.352941 26.352941 0 0 1-52.495059 3.312941L180.705882 839.529412v-632.470588C180.705882 192.512 192.512 180.705882 207.058824 180.705882z" fill="#568af2" /></svg>