<svg class="icon" style="width: 1em;height: 1em;vertical-align: middle;fill: currentColor;overflow: hidden;" viewBox="0 0 1024 1024" version="1.1" xmlns="http://www.w3.org/2000/svg" width="32" height="32"><path d="M813.176471 488.146824a26.352941 26.352941 0 0 1 3.312941 52.525176l-3.312941 0.180706H215.853176a26.352941 26.352941 0 0 1-3.312941-52.495059l3.312941-0.210823H813.176471z" fill="#568af2" /><path d="M514.499765 189.500235c13.432471 0 24.545882 10.029176 26.172235 23.04l0.180706 3.312941V813.176471a26.352941 26.352941 0 0 1-52.495059 3.312941l-0.210823-3.312941V215.853176c0-14.576941 11.806118-26.352941 26.352941-26.352941zM180.705882 180.705882h70.264471v70.264471H180.705882zM338.823529 180.705882h70.264471v70.264471H338.823529zM619.911529 180.705882h70.264471v70.264471h-70.264471zM778.029176 180.705882h70.264471v70.264471h-70.264471zM778.029176 338.823529h70.264471v70.264471h-70.264471zM180.705882 338.823529h70.264471v70.264471H180.705882zM180.705882 778.029176h70.264471v70.264471H180.705882zM338.823529 778.029176h70.264471v70.264471H338.823529zM619.911529 778.029176h70.264471v70.264471h-70.264471zM778.029176 778.029176h70.264471v70.264471h-70.264471zM778.029176 619.911529h70.264471v70.264471h-70.264471zM180.705882 619.911529h70.264471v70.264471H180.705882z" fill="#568af2" /></svg>