<svg class="icon" style="width: 1em;height: 1em;vertical-align: middle;fill: currentColor;overflow: hidden;" viewBox="0 0 1024 1024" version="1.1" xmlns="http://www.w3.org/2000/svg" width="32" height="32"><path d="M603.617882 180.705882c8.854588 0 17.046588 4.457412 21.89553 11.715765l1.65647 2.861177L672.587294 286.117647h124.265412c41.622588 0 76.318118 30.870588 78.908235 70.716235l0.150588 4.818824v428.694588c0 40.508235-33.069176 72.944941-74.089411 75.384471l-4.969412 0.150588H199.529412c-41.622588 0-76.288-30.870588-78.908236-70.716235L120.470588 790.347294V361.652706c0-40.508235 33.099294-72.944941 74.089412-75.384471l4.969412-0.150588h124.265412l45.417411-90.834823a26.352941 26.352941 0 0 1 20.269177-14.366118l3.312941-0.210824h210.823529z m-127.09647 257.295059l-1.897412 3.222588-122.970353 245.970824-1.295059 3.041882a26.352941 26.352941 0 0 0 10.209883 30.659765l2.861176 1.656471 3.041882 1.295058a26.352941 26.352941 0 0 0 30.659765-10.24l1.656471-2.831058 27.467294-55.055059h143.811765l27.527529 55.055059 1.686588 2.861176a26.352941 26.352941 0 0 0 46.772706-23.401412l-1.295059-3.041882-123.00047-245.970824-1.897412-3.222588a26.383059 26.383059 0 0 0-43.369412 0z m21.654588 73.908706l45.537882 91.105882h-91.105882l45.568-91.105882z m89.148235-278.497882h-178.266353l-26.352941 52.705882h230.972235l-26.352941-52.705882z" fill="#568af2" /></svg>