<svg class="icon" style="width: 1em;height: 1em;vertical-align: middle;fill: currentColor;overflow: hidden;" viewBox="0 0 1024 1024" version="1.1" xmlns="http://www.w3.org/2000/svg" width="32" height="32"><path d="M366.140235 588.318118l-1.445647 3.915294c-18.010353 51.440941-11.745882 103.905882 11.14353 154.684235 4.336941 9.697882 9.005176 18.462118 13.613176 26.142118h186.368l-2.108235-4.517647c-16.263529-36.141176-25.660235-73.487059-26.142118-111.344942a428.815059 428.815059 0 0 1-49.543529-21.383529l-12.438588-6.565647c-40.598588-22.136471-80.594824-35.297882-119.446589-40.929882z m-55.175529-3.072l-8.884706 0.451764a329.728 329.728 0 0 0-128.933647 35.659294l0.030118 151.642353 156.641882 0.060236-2.048-4.517647c-26.834824-59.632941-35.087059-122.669176-16.805647-183.296z m512.240941 187.753411l0.060235-123.843764-12.40847 4.999529c-65.024 24.907294-135.951059 33.340235-209.679059 18.191059 2.379294 25.027765 9.547294 49.995294 20.600471 74.571294 4.367059 9.697882 9.035294 18.492235 13.673411 26.172235l187.753412-0.090353z m0.060235-299.52c-3.915294 1.656471-8.071529 3.312941-12.40847 4.99953-47.073882 18.010353-97.219765 27.407059-149.263059 25.509647a307.802353 307.802353 0 0 1-15.841882 24.756706l-5.933177 8.161882 2.43953-2.831059c-20.811294 27.768471-33.310118 56.169412-38.761412 84.720941 66.499765 15.510588 130.108235 8.493176 188.506353-13.854117a289.129412 289.129412 0 0 0 31.262117-14.064941v-117.398589zM443.934118 433.874824l-1.837177 7.830588a244.163765 244.163765 0 0 1-37.647059 80.564706l-5.692235 7.80047-2.499765 4.005647-3.794823 5.240471c34.514824 6.836706 69.601882 18.823529 105.020235 36.683294l13.312 6.987294c14.215529 7.740235 28.340706 14.396235 42.405647 20.028235 7.047529-31.864471 21.112471-63.759059 43.369412-95.232l5.933176-8.131764-2.439529 2.800941 3.824941-5.240471a408.847059 408.847059 0 0 1-105.050353-36.653176l-13.281882-6.987294a393.938824 393.938824 0 0 0-41.622588-19.696941z m-239.555765-2.258824a289.129412 289.129412 0 0 0-31.262118 14.064941v117.398588c3.915294-1.656471 8.071529-3.312941 12.408471-4.999529 46.863059-17.950118 96.798118-27.346824 148.630588-25.539765 3.614118-6.113882 7.529412-12.227765 11.745882-18.251294l5.722353-7.80047 2.469647-4.035765c20.841412-27.768471 33.310118-56.169412 38.79153-84.751059-66.56-15.450353-130.138353-8.432941-188.536471 13.914353z m480.075294 19.696941a327.499294 327.499294 0 0 0 138.782118-36.141176l-0.060236-151.642353-156.672-0.060236 2.108236 4.517648c26.503529 58.910118 34.846118 121.163294 15.841882 183.326117z m-77.552941-187.843765h-186.337882l2.078117 4.517648c16.353882 36.352 25.780706 73.938824 26.533647 111.495529 16.323765 5.842824 32.737882 12.950588 49.242353 21.293176l12.348235 6.53553c40.628706 22.136471 80.594824 35.267765 119.476706 40.899765 19.757176-52.705882 13.733647-106.526118-9.697882-158.569412a247.687529 247.687529 0 0 0-13.643294-26.172236z m-245.940706 0.030118L173.176471 263.529412l-0.030118 123.843764c3.915294-1.656471 8.071529-3.312941 12.408471-4.969411 65.024-24.907294 135.951059-33.370353 209.679058-18.221177-2.409412-24.997647-9.577412-49.995294-20.630588-74.541176a247.717647 247.717647 0 0 0-13.613176-26.142118z" fill="#568af2" /></svg>