<svg class="icon" style="width: 1em;height: 1em;vertical-align: middle;fill: currentColor;overflow: hidden;" viewBox="0 0 1024 1024" version="1.1" xmlns="http://www.w3.org/2000/svg" width="32" height="32"><path d="M839.529412 210.823529a26.352941 26.352941 0 0 1 3.312941 52.495059l-3.312941 0.210824h-632.470588a26.352941 26.352941 0 0 1-3.312942-52.495059L207.058824 210.823529h632.470588zM611.147294 386.499765a26.352941 26.352941 0 0 1 3.312941 52.525176l-3.312941 0.180706H207.058824a26.352941 26.352941 0 0 1-3.312942-52.495059l3.312942-0.210823h404.08847zM611.147294 562.206118a26.352941 26.352941 0 0 1 3.312941 52.495058l-3.312941 0.210824H207.058824a26.352941 26.352941 0 0 1-3.312942-52.525176l3.312942-0.180706h404.08847zM733.063529 394.24a26.352941 26.352941 0 0 1 34.544942-2.379294l2.710588 2.379294 87.853176 87.823059c9.426824 9.456941 10.24 24.244706 2.349177 34.575059l-2.349177 2.710588-87.853176 87.823059a26.352941 26.352941 0 0 1-39.634824-34.544941l2.379294-2.710589 69.180236-69.24047-69.180236-69.180236a26.352941 26.352941 0 0 1-2.379294-34.575058l2.379294-2.710589zM839.529412 737.882353a26.352941 26.352941 0 0 1 3.312941 52.495059l-3.312941 0.210823h-632.470588a26.352941 26.352941 0 0 1-3.312942-52.495059l3.312942-0.210823h632.470588z" fill="#568af2" /></svg>