<svg class="icon" style="width: 1em;height: 1em;vertical-align: middle;fill: currentColor;overflow: hidden;" viewBox="0 0 1024 1024" version="1.1" xmlns="http://www.w3.org/2000/svg" width="32" height="32"><path d="M686.471529 120.470588c13.432471 0 24.545882 10.059294 26.172236 23.04l0.180706 3.312941v693.970824a26.352941 26.352941 0 0 1-52.495059 3.312941l-0.210824-3.312941V146.823529c0-14.546824 11.806118-26.352941 26.352941-26.352941zM458.089412 120.470588c22.377412 0 34.093176 25.750588 20.811294 42.526118l-2.168471 2.469647-236.122353 236.092235h217.47953c13.432471 0 24.515765 10.059294 26.142117 23.070118l0.210824 3.312941a26.352941 26.352941 0 0 1-23.04 26.142118l-3.312941 0.180706H177.001412c-22.377412 0-34.093176-25.750588-20.811294-42.526118l2.16847-2.439529 236.122353-236.122353H177.001412a26.352941 26.352941 0 0 1-26.142118-23.04l-0.210823-3.312942c0-13.432471 10.059294-24.515765 23.04-26.142117L177.001412 120.470588h281.088zM298.977882 556.363294a26.352941 26.352941 0 0 1 45.296942-2.590118l1.837176 3.252706 135.710118 281.088a26.352941 26.352941 0 0 1-45.839059 25.810824l-1.626353-2.891294-112.790588-233.652706-121.163294 234.315294a26.352941 26.352941 0 0 1-32.496942 12.619294l-3.011764-1.325176a26.352941 26.352941 0 0 1-12.649412-32.496942l1.355294-3.011764 145.377882-281.118118z" fill="#568af2" /><path d="M808.387765 690.386824a26.352941 26.352941 0 0 1 39.634823 34.575058l-2.349176 2.710589-140.559059 140.528941a26.352941 26.352941 0 0 1-34.575059 2.349176l-2.710588-2.349176-140.528941-140.559059a26.352941 26.352941 0 0 1 34.575059-39.604706l2.710588 2.349177 121.886117 121.886117 121.916236-121.886117z" fill="#568af2" /></svg>