<svg class="icon" style="width: 1em;height: 1em;vertical-align: middle;fill: currentColor;overflow: hidden;" viewBox="0 0 1024 1024" version="1.1" xmlns="http://www.w3.org/2000/svg" width="32" height="32"><path d="M799.382588 816.489412a26.352941 26.352941 0 0 1 3.312941 52.495059l-3.312941 0.210823H237.176471a26.352941 26.352941 0 0 1-3.312942-52.495059l3.312942-0.210823h562.206117zM746.676706 150.588235c13.432471 0 24.515765 10.059294 26.142118 23.04l0.210823 3.312941v279.401412a254.735059 254.735059 0 0 1-509.379765 7.649883l-0.12047-7.649883V176.941176a26.352941 26.352941 0 0 1 52.495059-3.312941l0.210823 3.312941v279.401412a202.029176 202.029176 0 0 0 403.968 7.077647l0.120471-7.077647V176.941176c0-14.546824 11.776-26.352941 26.352941-26.352941z" fill="#568af2" /></svg>