<svg class="icon" style="width: 1em;height: 1em;vertical-align: middle;fill: currentColor;overflow: hidden;" viewBox="0 0 1024 1024" version="1.1" xmlns="http://www.w3.org/2000/svg" width="32" height="32"><path d="M690.206118 180.705882a140.559059 140.559059 0 1 0 0 281.088 140.559059 140.559059 0 0 0 0-281.088z m0 368.941177a140.559059 140.559059 0 1 0 0 281.088 140.559059 140.559059 0 0 0 0-281.088zM321.264941 180.705882a140.559059 140.559059 0 1 0 0 281.088 140.559059 140.559059 0 0 0 0-281.088z m0 368.941177a140.559059 140.559059 0 1 0 0 281.088 140.559059 140.559059 0 0 0 0-281.088z" fill="#568af2" /></svg>