<svg class="icon" style="width: 1em;height: 1em;vertical-align: middle;fill: currentColor;overflow: hidden;" viewBox="0 0 1024 1024" version="1.1" xmlns="http://www.w3.org/2000/svg" width="32" height="32"><path d="M290.816 489.622588l0.752941 0.090353a26.202353 26.202353 0 0 1 2.529883 0.542118l0.662588 0.180706a25.238588 25.238588 0 0 1 8.613647 4.306823l0.692706 0.572236a26.503529 26.503529 0 0 1 1.566117 1.355294l0.451765 0.451764 140.709647 140.528942a26.352941 26.352941 0 0 1-34.544941 39.664941l-2.710588-2.349177-95.744-95.653647v129.716706c0 37.165176 7.920941 64.271059 21.835294 82.763294 14.727529 19.576471 36.924235 29.786353 62.313412 31.232l6.384941 0.180706h216.937412a26.352941 26.352941 0 0 1 3.312941 52.495059l-3.312941 0.210823h-216.937412c-43.429647 0-83.968-16.745412-110.832941-52.434823-19.847529-26.383059-30.870588-61.44-32.225883-104.990118l-0.150588-9.456941-0.030118-129.686588-95.623529 95.593412a26.352941 26.352941 0 0 1-34.575059 2.349176l-2.710588-2.349176a26.352941 26.352941 0 0 1-2.349177-34.575059l2.349177-2.710588 140.649412-140.528942 0.602353-0.602353a26.503529 26.503529 0 0 1 1.325176-1.14447l-1.927529 1.746823a26.563765 26.563765 0 0 1 14.034823-7.318588 26.563765 26.563765 0 0 1 7.951059-0.180706zM849.558588 120.470588c13.462588 0 24.545882 10.059294 26.172236 23.04l0.180705 3.312941-0.12047 404.088471a26.352941 26.352941 0 0 1-23.04 26.142118l-3.312941 0.210823H480.617412a26.352941 26.352941 0 0 1-26.142118-23.070117l-0.210823-3.312942V146.853647c0-13.432471 10.059294-24.515765 23.070117-26.142118l3.312941-0.210823h368.941177z m-122.970353 263.529412h-122.970353l-3.312941 0.210824a26.352941 26.352941 0 0 0 0 52.284235l3.312941 0.210823h122.970353l3.312941-0.210823a26.352941 26.352941 0 0 0-3.312941-52.495059z m0-122.970353h-122.970353l-3.312941 0.180706a26.352941 26.352941 0 0 0 0 52.314353l3.312941 0.210823h122.970353l3.312941-0.210823a26.352941 26.352941 0 0 0-3.312941-52.495059z" fill="#568af2" /></svg>