<svg class="icon" style="width: 1em;height: 1em;vertical-align: middle;fill: currentColor;overflow: hidden;" viewBox="0 0 1024 1024" version="1.1" xmlns="http://www.w3.org/2000/svg" width="32" height="32"><path d="M839.529412 210.883765a26.352941 26.352941 0 0 1 3.312941 52.495059l-3.312941 0.210823H453.029647a26.352941 26.352941 0 0 1-3.312941-52.495059l3.312941-0.210823h386.499765zM839.529412 386.56a26.352941 26.352941 0 0 1 3.312941 52.495059l-3.312941 0.210823H453.029647a26.352941 26.352941 0 0 1-3.312941-52.495058l3.312941-0.210824h386.499765zM839.529412 562.236235a26.352941 26.352941 0 0 1 3.312941 52.525177l-3.312941 0.180706H453.029647a26.352941 26.352941 0 0 1-3.312941-52.495059l3.312941-0.210824h386.499765zM839.529412 737.942588a26.352941 26.352941 0 0 1 3.312941 52.495059l-3.312941 0.210824H453.029647a26.352941 26.352941 0 0 1-3.312941-52.495059l3.312941-0.210824h386.499765zM312.470588 562.236235c13.432471 0 24.515765 10.059294 26.142118 23.070118l0.210823 3.312941v52.705882c0 5.812706-1.927529 11.444706-5.421176 15.992471l-2.288941 2.620235-78.004706 78.004706h59.361882c13.432471 0 24.515765 10.059294 26.142118 23.04l0.210823 3.312941a26.352941 26.352941 0 0 1-23.04 26.142118l-3.312941 0.210824h-105.411764a26.352941 26.352941 0 0 1-26.142118-23.04L180.705882 764.295529v-17.588705c0-5.812706 1.927529-11.444706 5.421177-16.022589l2.288941-2.590117L286.117647 630.362353v-15.420235H207.058824a26.352941 26.352941 0 0 1-26.142118-23.04L180.705882 588.589176c0-13.432471 10.059294-24.515765 23.04-26.142117l3.312942-0.210824h105.411764zM224.617412 439.265882a26.352941 26.352941 0 0 1-3.312941-52.495058l3.312941-0.210824h8.764235V297.140706l-2.078118 0.722823a26.352941 26.352941 0 0 1-22.588235-4.517647l-2.710588-2.349176a26.352941 26.352941 0 0 1-2.379294-34.575059l2.379294-2.710588 35.117176-35.117177c15.811765-15.811765 42.315294-5.903059 44.815059 15.36l0.180706 3.282824v149.323294h8.794353a26.352941 26.352941 0 0 1 3.312941 52.495059l-3.312941 0.210823H224.617412z" fill="#568af2" /></svg>