<svg class="icon" style="width: 1em;height: 1em;vertical-align: middle;fill: currentColor;overflow: hidden;" viewBox="0 0 1024 1024" version="1.1" xmlns="http://www.w3.org/2000/svg" width="32" height="32"><path d="M786.823529 180.705882a79.058824 79.058824 0 0 1 79.058824 79.058824v527.058823a79.058824 79.058824 0 0 1-79.058824 79.058824h-96.617411V180.705882z m-149.323294 0v685.176471H259.764706A79.058824 79.058824 0 0 1 180.705882 786.823529v-527.058823A79.058824 79.058824 0 0 1 259.764706 180.705882h377.735529z m-238.832941 251.331765a26.352941 26.352941 0 0 0-34.544941 2.349177l-2.379294 2.710588a26.352941 26.352941 0 0 0 2.379294 34.544941l51.591529 51.621647-51.591529 51.681882-2.379294 2.710589a26.352941 26.352941 0 0 0 39.634823 34.544941l70.264471-70.264471 2.379294-2.710588a26.352941 26.352941 0 0 0-2.379294-34.575059l-70.264471-70.26447z" fill="#568af2" /></svg>