<svg class="icon" style="width: 1em;height: 1em;vertical-align: middle;fill: currentColor;overflow: hidden;" viewBox="0 0 1024 1024" version="1.1" xmlns="http://www.w3.org/2000/svg" width="32" height="32"><path d="M808.146824 184.470588c33.972706 0 61.500235 27.527529 61.500235 61.500236v562.176a61.500235 61.500235 0 0 1-61.500235 61.500235H245.970824a61.500235 61.500235 0 0 1-61.500236-61.500235V245.970824c0-33.972706 27.527529-61.500235 61.500236-61.500236z m-280.033883 341.534118a26.352941 26.352941 0 0 0-37.255529 0l-130.710588 130.650353v-59.331765l-0.180706-3.312941a26.352941 26.352941 0 0 0-52.525177 3.312941v123.000471c0 2.831059 0.451765 5.662118 1.385412 8.372706l0.481882 1.325176 1.626353 3.403294 1.536 2.409412a26.563765 26.563765 0 0 0 2.710588 3.102118l3.132236 2.710588 3.102117 1.927529 1.987765 0.963765 3.704471 1.264941a26.443294 26.443294 0 0 0 6.686117 0.873412h123.000471l3.312941-0.210824a26.352941 26.352941 0 0 0-3.312941-52.495058l-59.361882-0.030118 130.710588-130.680471 2.349176-2.710588a26.352941 26.352941 0 0 0-2.379294-34.544941z m280.033883-288.828235h-184.470589v193.234823h193.264941V245.970824a8.794353 8.794353 0 0 0-6.77647-8.553412l-2.017882-0.240941z" fill="#568af2" /></svg>