<svg class="icon" style="width: 1em;height: 1em;vertical-align: middle;fill: currentColor;overflow: hidden;" viewBox="0 0 1024 1024" version="1.1" xmlns="http://www.w3.org/2000/svg" width="32" height="32"><path d="M813.176471 198.264471h-80.564706c-15.661176 0-23.491765 18.944-12.438589 29.997176l80.594824 80.564706a17.558588 17.558588 0 0 0 29.967059-12.408471V215.853176A17.558588 17.558588 0 0 0 813.176471 198.264471zM215.853176 865.882353h80.564706c15.661176 0 23.491765-18.913882 12.408471-29.997177L228.291765 755.350588a17.558588 17.558588 0 0 0-29.997177 12.438588v80.564706c0 9.697882 7.890824 17.558588 17.588706 17.558589zM321.264941 154.352941c13.432471 0 24.515765 10.059294 26.142118 23.04l0.210823 3.312941v491.91153c0 4.156235 2.891294 7.649882 6.746353 8.553412l2.017883 0.240941h491.941647a26.352941 26.352941 0 0 1 3.312941 52.495059l-3.312941 0.210823H356.382118a61.500235 61.500235 0 0 1-61.31953-56.922353l-0.150588-4.577882V180.705882c0-14.546824 11.776-26.352941 26.352941-26.352941z" fill="#568af2" /><path d="M690.206118 312.470588c13.432471 0 24.515765 10.059294 26.142117 23.04l0.210824 3.312941v245.970824a26.352941 26.352941 0 0 1-52.525177 3.312941l-0.180706-3.312941-0.030117-219.617882H444.235294a26.352941 26.352941 0 0 1-26.142118-23.04l-0.210823-3.312942c0-13.432471 10.059294-24.515765 23.04-26.142117l3.312941-0.210824h245.970824zM321.264941 312.470588a26.352941 26.352941 0 0 1 3.312941 52.495059l-3.312941 0.210824H180.705882a26.352941 26.352941 0 0 1-3.312941-52.495059l3.312941-0.210824h140.559059zM707.764706 681.411765c13.432471 0 24.515765 10.059294 26.142118 23.04l0.210823 3.312941v140.559059a26.352941 26.352941 0 0 1-52.495059 3.312941l-0.210823-3.312941V707.764706c0-14.546824 11.806118-26.352941 26.352941-26.352941z" fill="#568af2" /></svg>