<svg class="icon" style="width: 1em;height: 1em;vertical-align: middle;fill: currentColor;overflow: hidden;" viewBox="0 0 1024 1024" version="1.1" xmlns="http://www.w3.org/2000/svg" width="32" height="32"><path d="M786.823529 180.705882a79.058824 79.058824 0 0 1 79.058824 79.058824v527.058823a79.058824 79.058824 0 0 1-79.058824 79.058824h-527.058823A79.058824 79.058824 0 0 1 180.705882 786.823529v-527.058823A79.058824 79.058824 0 0 1 259.764706 180.705882z m-87.853176 474.352942H347.617882l-3.312941 0.210823a26.352941 26.352941 0 0 0 3.312941 52.495059h351.352471l3.312941-0.210824a26.352941 26.352941 0 0 0-3.312941-52.495058z m-70.264471-158.117648h-210.823529l-3.312941 0.210824a26.352941 26.352941 0 0 0 3.312941 52.495059h210.823529l3.312942-0.210824a26.352941 26.352941 0 0 0-3.312942-52.495059z m70.264471-158.117647H347.617882l-3.312941 0.210824a26.352941 26.352941 0 0 0 3.312941 52.495059h351.352471l3.312941-0.210824a26.352941 26.352941 0 0 0-3.312941-52.495059z" fill="#568af2" /></svg>