<svg class="icon" style="width: 1em;height: 1em;vertical-align: middle;fill: currentColor;overflow: hidden;" viewBox="0 0 1024 1024" version="1.1" xmlns="http://www.w3.org/2000/svg" width="32" height="32"><path d="M517.029647 124.235294a149.323294 149.323294 0 0 1 149.172706 142.848l0.150588 6.475294v17.588706a26.352941 26.352941 0 0 1-52.495059 3.312941l-0.210823-3.312941v-17.588706a96.617412 96.617412 0 0 0-193.114353-5.481412l-0.150588 5.481412v79.149177a272.323765 272.323765 0 1 1-52.705883 26.895059v-106.014118a149.323294 149.323294 0 0 1 149.353412-149.353412z m0 386.499765a26.352941 26.352941 0 0 0-26.172235 23.070117l-0.180706 3.312942V677.647059l0.180706 3.312941a26.352941 26.352941 0 0 0 52.314353 0l0.210823-3.312941v-140.559059l-0.210823-3.312941a26.352941 26.352941 0 0 0-26.142118-23.04z" fill="#568af2" /></svg>