<svg class="icon" style="width: 1em;height: 1em;vertical-align: middle;fill: currentColor;overflow: hidden;" viewBox="0 0 1024 1024" version="1.1" xmlns="http://www.w3.org/2000/svg" width="32" height="32"><path d="M786.823529 180.705882a79.058824 79.058824 0 0 1 79.058824 79.058824v527.058823a79.058824 79.058824 0 0 1-79.058824 79.058824h-527.058823A79.058824 79.058824 0 0 1 180.705882 786.823529v-527.058823A79.058824 79.058824 0 0 1 259.764706 180.705882z m-175.676235 158.117647h-175.706353a26.352941 26.352941 0 0 0-26.352941 26.352942v316.235294l0.210824 3.312941a26.352941 26.352941 0 0 0 52.495058-3.312941v-114.206118h149.353412l3.312941-0.180706a26.352941 26.352941 0 0 0 23.04-26.172235v-175.676235l-0.210823-3.312942a26.352941 26.352941 0 0 0-26.142118-23.04zM584.764235 391.529412v122.970353h-122.970353V391.529412h122.970353z" fill="#568af2" /></svg>