<svg class="icon" style="width: 1em;height: 1em;vertical-align: middle;fill: currentColor;overflow: hidden;" viewBox="0 0 1024 1024" version="1.1" xmlns="http://www.w3.org/2000/svg" width="32" height="32"><path d="M769.264941 257.746824c13.432471 0 24.515765 10.059294 26.142118 23.04l0.210823 3.312941v562.176a26.352941 26.352941 0 0 1-52.525176 3.312941l-0.180706-3.312941-0.030118-535.853177H207.058824a26.352941 26.352941 0 0 1-26.142118-23.009882L180.705882 284.099765c0-13.432471 10.059294-24.515765 23.04-26.142118l3.312942-0.210823h562.206117z" fill="#568af2" /><path d="M827.632941 188.416a26.352941 26.352941 0 0 1 39.664941 34.575059l-2.379294 2.710588-559.314823 559.314824a26.352941 26.352941 0 0 1-39.634824-34.575059l2.349177-2.710588 559.344941-559.284706z" fill="#568af2" /><path d="M277.323294 187.452235c13.432471 0 24.545882 10.059294 26.172235 23.070118l0.180706 3.312941V749.628235h535.853177c13.432471 0 24.515765 10.059294 26.142117 23.04l0.210824 3.312941a26.352941 26.352941 0 0 1-23.04 26.142118l-3.312941 0.210824H277.323294a26.352941 26.352941 0 0 1-26.142118-23.04l-0.210823-3.312942V213.835294c0-14.546824 11.806118-26.352941 26.352941-26.352941z" fill="#568af2" /></svg>