<svg class="icon" style="width: 1em;height: 1em;vertical-align: middle;fill: currentColor;overflow: hidden;" viewBox="0 0 1024 1024" version="1.1" xmlns="http://www.w3.org/2000/svg" width="32" height="32"><path d="M176.941176 210.823529c13.432471 0 24.515765 10.059294 26.142118 23.04l0.210824 3.312942v562.206117a26.352941 26.352941 0 0 1-52.495059 3.312941L150.588235 799.352471V237.176471C150.588235 222.629647 162.394353 210.823529 176.941176 210.823529zM486.761412 314.127059a26.352941 26.352941 0 0 1 49.152 18.703059l-1.204706 3.102117-175.646118 386.499765a26.352941 26.352941 0 0 1-49.182117-18.703059l1.204705-3.102117 175.676236-386.499765z" fill="#568af2" /><path d="M616.146824 562.206118a26.352941 26.352941 0 0 1 3.312941 52.495058l-3.312941 0.210824h-210.82353a26.352941 26.352941 0 0 1-3.312941-52.525176l3.312941-0.180706h210.82353z" fill="#568af2" /><path d="M499.832471 301.025882a26.352941 26.352941 0 0 1 33.340235 10.149647l1.566118 2.95153 175.676235 386.499765a26.352941 26.352941 0 0 1-46.411294 24.726588l-1.566118-2.921412-175.676235-386.499765a26.352941 26.352941 0 0 1 13.071059-34.906353zM844.559059 210.823529c13.432471 0 24.515765 10.059294 26.142117 23.04l0.210824 3.312942v562.206117a26.352941 26.352941 0 0 1-52.525176 3.312941l-0.180706-3.312941V237.176471c0-14.546824 11.776-26.352941 26.352941-26.352942z" fill="#568af2" /></svg>