<svg class="icon" style="width: 1em;height: 1em;vertical-align: middle;fill: currentColor;overflow: hidden;" viewBox="0 0 1024 1024" version="1.1" xmlns="http://www.w3.org/2000/svg" width="32" height="32"><path d="M479.623529 128.180706a26.352941 26.352941 0 0 1 37.25553 0l84.871529 84.871529h155.226353c13.432471 0 24.515765 10.059294 26.142118 23.070118l0.210823 3.312941-0.030117 155.166118 84.931764 84.901647c9.396706 9.426824 10.179765 24.214588 2.349177 34.544941l-2.379294 2.710588-84.901647 85.022118v155.196235a26.352941 26.352941 0 0 1-23.009883 26.142118l-3.312941 0.210823-155.226353-0.030117-84.871529 84.931764a26.352941 26.352941 0 0 1-34.544941 2.349177l-2.710589-2.379294-85.022117-84.901647H239.405176a26.352941 26.352941 0 0 1-26.142117-23.009883l-0.210824-3.312941V601.750588l-84.871529-84.992a26.352941 26.352941 0 0 1-2.349177-34.544941l2.349177-2.710588 84.871529-84.901647V239.405176c0-13.432471 10.059294-24.515765 23.070118-26.142117l3.312941-0.210824h155.196235z m141.552942 343.642353h-245.970824l-3.312941 0.210823a26.352941 26.352941 0 0 0 3.312941 52.525177h245.970824l3.312941-0.210824a26.352941 26.352941 0 0 0-3.312941-52.495059z" fill="#568af2" /></svg>