<svg class="icon" style="width: 1em;height: 1em;vertical-align: middle;fill: currentColor;overflow: hidden;" viewBox="0 0 1024 1024" version="1.1" xmlns="http://www.w3.org/2000/svg" width="32" height="32"><path d="M839.529412 180.705882a26.352941 26.352941 0 0 1 3.312941 52.495059l-3.312941 0.210824h-632.470588a26.352941 26.352941 0 0 1-3.312942-52.495059L207.058824 180.705882h632.470588zM839.529412 356.382118a26.352941 26.352941 0 0 1 3.312941 52.525176l-3.312941 0.180706h-632.470588a26.352941 26.352941 0 0 1-3.312942-52.495059l3.312942-0.210823h632.470588zM523.294118 532.088471a26.352941 26.352941 0 0 1 3.312941 52.495058l-3.312941 0.210824h-316.235294a26.352941 26.352941 0 0 1-3.312942-52.525177l3.312942-0.180705h316.235294zM382.735059 707.764706a26.352941 26.352941 0 0 1 3.312941 52.495059l-3.312941 0.210823H207.058824a26.352941 26.352941 0 0 1-3.312942-52.495059l3.312942-0.210823h175.676235zM751.676235 532.088471a114.206118 114.206118 0 0 1 5.872941 228.231529l-5.872941 0.150588h-164.773647l25.298824 25.298824a26.352941 26.352941 0 0 1-34.575059 39.604706l-2.710588-2.349177-71.68-71.80047-1.807059-2.409412-1.295059-2.108235a26.292706 26.292706 0 0 1 0.030118-25.238589l2.138353-3.312941 2.349176-2.68047 70.294588-70.264471a26.352941 26.352941 0 0 1 39.604706 34.575059l-2.349176 2.710588-25.268706 25.238588 164.743529 0.030118a61.500235 61.500235 0 0 0 4.608-122.819765l-4.608-0.150588h-87.823059a26.352941 26.352941 0 0 1-3.312941-52.525177l3.312941-0.180705h87.823059z" fill="#568af2" /></svg>