<svg class="icon" style="width: 1em;height: 1em;vertical-align: middle;fill: currentColor;overflow: hidden;" viewBox="0 0 1024 1024" version="1.1" xmlns="http://www.w3.org/2000/svg" width="32" height="32"><path d="M809.411765 343.853176H405.323294a61.500235 61.500235 0 0 0-61.470118 61.470118v404.088471c0 33.972706 27.527529 61.500235 61.470118 61.500235h404.088471a61.500235 61.500235 0 0 0 61.500235-61.500235V405.323294a61.500235 61.500235 0 0 0-61.500235-61.470118z m-404.088471 52.705883h404.088471c4.848941 0 8.794353 3.915294 8.794353 8.764235v404.088471c0 4.848941-3.915294 8.794353-8.794353 8.794353H405.323294a8.794353 8.794353 0 0 1-8.764235-8.794353V405.323294c0-4.818824 3.915294-8.764235 8.764235-8.764235z" fill="#568af2" /><path d="M616.146824 150.588235H212.088471A61.500235 61.500235 0 0 0 150.588235 212.088471v404.058353c0 33.972706 27.527529 61.500235 61.500236 61.500235h404.058353a61.500235 61.500235 0 0 0 61.500235-61.500235V212.088471A61.500235 61.500235 0 0 0 616.146824 150.588235zM212.088471 203.294118h404.058353c4.848941 0 8.794353 3.915294 8.794352 8.794353v404.058353c0 4.848941-3.915294 8.794353-8.794352 8.794352H212.088471a8.794353 8.794353 0 0 1-8.794353-8.794352V212.088471c0-4.848941 3.915294-8.794353 8.794353-8.794353z" fill="#568af2" /><path d="M544.828235 351.563294a26.352941 26.352941 0 0 1 39.604706 34.575059l-2.349176 2.710588-193.264941 193.234824a26.352941 26.352941 0 0 1-39.604706-34.575059l2.349176-2.710588 193.264941-193.234824zM632.651294 439.416471a26.352941 26.352941 0 0 1 39.634824 34.544941l-2.349177 2.710588-193.264941 193.264941a26.352941 26.352941 0 0 1-39.634824-34.575059l2.379295-2.710588 193.234823-193.234823z" fill="#568af2" /></svg>