<svg class="icon" style="width: 1em;height: 1em;vertical-align: middle;fill: currentColor;overflow: hidden;" viewBox="0 0 1024 1024" version="1.1" xmlns="http://www.w3.org/2000/svg" width="32" height="32"><path d="M189.500235 214.588235c13.432471 0 24.515765 10.059294 26.142118 23.04l0.210823 3.312941v562.206118a26.352941 26.352941 0 0 1-52.525176 3.312941l-0.180706-3.312941V240.941176c0-14.546824 11.776-26.352941 26.352941-26.352941zM505.735529 214.588235c13.432471 0 24.515765 10.059294 26.142118 23.04l0.210824 3.312941v562.206118a26.352941 26.352941 0 0 1-52.525177 3.312941l-0.180706-3.312941V240.941176c0-14.546824 11.776-26.352941 26.352941-26.352941z" fill="#568af2" /><path d="M488.146824 495.676235a26.352941 26.352941 0 0 1 3.312941 52.525177l-3.312941 0.180706H207.058824a26.352941 26.352941 0 0 1-3.312942-52.495059l3.312942-0.210824h281.088zM725.323294 442.970353a122.970353 122.970353 0 1 0 0 245.970823 122.970353 122.970353 0 0 0 0-245.970823z m0 52.705882a70.264471 70.264471 0 1 1 0 140.559059 70.264471 70.264471 0 0 1 0-140.559059z" fill="#568af2" /><path d="M821.970824 548.382118c13.432471 0 24.515765 10.059294 26.142117 23.070117l0.210824 3.312941v122.970353c0 72.282353-54.512941 131.764706-123.000471 131.764706-59.090824 0-101.345882-33.942588-121.313882-87.431529a26.352941 26.352941 0 0 1 49.392941-18.432c12.709647 34.093176 36.442353 53.157647 71.920941 53.157647 36.743529 0 67.704471-32.195765 70.144-73.788235l0.150588-5.270589v-123.00047c0-14.546824 11.776-26.352941 26.352942-26.352941z" fill="#568af2" /></svg>