<svg class="icon" style="width: 1em;height: 1em;vertical-align: middle;fill: currentColor;overflow: hidden;" viewBox="0 0 1024 1024" version="1.1" xmlns="http://www.w3.org/2000/svg" width="32" height="32"><path d="M0 0h1024v1024H0z" fill="#568af2" fill-opacity="0" /><path d="M220.852706 405.323294a96.617412 96.617412 0 1 0 0 193.264941 96.617412 96.617412 0 0 0 0-193.264941z m0 52.705882a43.911529 43.911529 0 1 1 0 87.853177 43.911529 43.911529 0 0 1 0-87.853177zM818.206118 124.235294a61.500235 61.500235 0 1 0 0 122.970353 61.500235 61.500235 0 0 0 0-122.970353z m0 52.705882a8.794353 8.794353 0 1 1 0 17.558589 8.794353 8.794353 0 0 1 0-17.558589zM818.206118 440.470588a61.500235 61.500235 0 1 0 0 122.970353 61.500235 61.500235 0 0 0 0-122.970353z m0 52.705883a8.794353 8.794353 0 1 1 0 17.558588 8.794353 8.794353 0 0 1 0-17.558588zM818.206118 756.705882a61.500235 61.500235 0 1 0 0 122.970353 61.500235 61.500235 0 0 0 0-122.970353z m0 52.705883a8.794353 8.794353 0 1 1 0 17.558588 8.794353 8.794353 0 0 1 0-17.558588zM642.499765 159.382588a26.352941 26.352941 0 0 1 3.312941 52.495059l-3.312941 0.210824-184.470589-0.030118v579.764706h184.470589c13.432471 0 24.545882 10.059294 26.172235 23.070117l0.180706 3.312942a26.352941 26.352941 0 0 1-23.04 26.142117l-3.312941 0.210824h-210.82353a26.352941 26.352941 0 0 1-26.142117-23.070118l-0.210824-3.312941v-632.470588c0-13.402353 10.059294-24.515765 23.070118-26.142118l3.312941-0.180706h210.823529z" fill="#568af2" /><path d="M642.499765 475.617882a26.352941 26.352941 0 0 1 3.312941 52.495059l-3.312941 0.210824H291.147294a26.352941 26.352941 0 0 1-3.312941-52.525177l3.312941-0.180706h351.352471z" fill="#568af2" /></svg>