<svg class="icon" style="width: 1em;height: 1em;vertical-align: middle;fill: currentColor;overflow: hidden;" viewBox="0 0 1024 1024" version="1.1" xmlns="http://www.w3.org/2000/svg" width="32" height="32"><path d="M672.436706 143.631059l0.180706 3.222588v201.999059h61.500235c13.432471 0 24.515765 10.089412 26.142118 23.070118l0.210823 3.312941v114.206117h79.058824c13.432471 0 24.515765 10.029176 26.142117 23.04l0.210824 3.312942v333.793882a26.352941 26.352941 0 0 1-26.352941 26.352941h-632.470588A26.352941 26.352941 0 0 1 180.705882 849.588706V515.794824c0-14.576941 11.806118-26.352941 26.352942-26.352942H286.117647v-114.206117c0-13.432471 10.059294-24.515765 23.04-26.142118l3.312941-0.210823 61.470118-0.030118V217.118118c0-10.601412 6.324706-20.028235 15.841882-24.154353l3.312941-1.204706 245.940706-70.264471a26.352941 26.352941 0 0 1 33.400471 22.136471z m-52.525177 38.159059l-193.264941 55.205647v111.856941h193.264941V181.790118z" fill="#568af2" /></svg>