<svg class="icon" style="width: 1em;height: 1em;vertical-align: middle;fill: currentColor;overflow: hidden;" viewBox="0 0 1024 1024" version="1.1" xmlns="http://www.w3.org/2000/svg" width="32" height="32"><path d="M483.388235 131.915294a26.352941 26.352941 0 0 1 37.25553 0.030118L605.515294 216.847059h155.226353c13.432471 0 24.515765 10.059294 26.142118 23.070117l0.210823 3.312942-0.030117 155.166117 84.931764 84.901647c9.396706 9.426824 10.179765 24.214588 2.349177 34.544942l-2.379294 2.710588-84.901647 85.022117v155.196236a26.352941 26.352941 0 0 1-23.009883 26.142117l-3.312941 0.210824-155.226353-0.030118-84.871529 84.931765a26.352941 26.352941 0 0 1-34.544941 2.349176l-2.710589-2.379294-85.022117-84.901647H243.169882a26.352941 26.352941 0 0 1-26.142117-23.009882l-0.210824-3.312941v-155.226353l-84.871529-84.992a26.352941 26.352941 0 0 1-2.349177-34.544941l2.349177-2.710589L216.847059 398.366118V243.169882c0-13.432471 10.059294-24.515765 23.070117-26.142117l3.312942-0.210824h155.196235z m18.552471 203.14353a26.352941 26.352941 0 0 0-3.252706 52.495058c56.500706 7.077647 99.900235 56.922353 99.900235 114.416942 0 57.524706-43.309176 107.158588-99.599059 113.543529a26.352941 26.352941 0 1 0 5.963295 52.404706c83.154824-9.487059 146.341647-81.859765 146.341647-165.948235 0-83.877647-63.036235-156.310588-146.070589-166.701177z" fill="#568af2" /></svg>