<svg class="icon" style="width: 1em;height: 1em;vertical-align: middle;fill: currentColor;overflow: hidden;" viewBox="0 0 1024 1024" version="1.1" xmlns="http://www.w3.org/2000/svg" width="32" height="32"><path d="M372.705882 120.470588l-3.222588 0.180706c-22.979765 2.590118-31.954824 32.707765-12.589176 47.254588l55.446588 41.592471-62.192941 202.059294-10.089412 7.649882c-13.161412 10.24-26.322824 21.624471-38.701177 34.002824-35.237647 35.237647-57.675294 71.228235-60.175058 108.303059L240.941176 568.470588l0.210824 3.312941a26.352941 26.352941 0 0 0 26.142118 23.04h155.105882l65.295059 261.12 1.084235 3.493647c8.944941 23.070118 43.670588 21.925647 50.05553-3.463529l65.234823-261.150118h155.136a26.352941 26.352941 0 0 0 26.352941-26.352941l-0.180706-7.378823c-3.132235-60.958118-44.905412-109.477647-103.845647-147.124706l-5.511529-3.433412-61.861647-201.035294 55.446588-41.592471C689.874824 152.696471 679.152941 120.470588 653.793882 120.470588h-281.088z" fill="#568af2" /></svg>