<svg class="icon" style="width: 1em;height: 1em;vertical-align: middle;fill: currentColor;overflow: hidden;" viewBox="0 0 1024 1024" version="1.1" xmlns="http://www.w3.org/2000/svg" width="32" height="32"><path d="M580.848941 645.541647c76.649412-74.059294 163.84-109.929412 205.161412-68.608 42.405647 42.405647 3.523765 133.12-74.541177 211.184941-71.860706 71.860706-154.473412 110.531765-200.192 83.124706-43.459765 38.219294-132.065882-0.662588-208.50447-77.101176-78.034824-78.034824-116.916706-168.779294-74.511059-211.184942l3.343059-3.102117c43.670588-37.255529 131.764706 1.596235 207.811765 77.643294 27.497412 27.497412 50.145882 56.560941 66.078117 84.510118 15.962353-29.786353 39.875765-61.048471 69.330824-90.533647z m-96.707765-485.496471a26.352941 26.352941 0 0 1 40.478118 0l71.288471 85.564236 67.70447-54.121412a26.352941 26.352941 0 0 1 42.616471 17.347765l0.180706 3.252706v175.676235c0 113.935059-88.094118 202.029176-202.029177 202.029176-113.784471 0-200.884706-87.913412-200.884706-201.84847l-1.174588-175.706353a26.352941 26.352941 0 0 1 42.827294-20.751059l67.644236 54.121412z" fill="#568af2" /></svg>