<svg class="icon" style="width: 1em;height: 1em;vertical-align: middle;fill: currentColor;overflow: hidden;" viewBox="0 0 1024 1024" version="1.1" xmlns="http://www.w3.org/2000/svg" width="32" height="32"><path d="M545.551059 162.725647l1.746823 3.222588 193.264942 421.647059a26.352941 26.352941 0 0 1-46.381177 24.907294l-1.536-2.921412-57.374118-125.199058H411.407059l-57.344 125.199058a26.352941 26.352941 0 0 1-49.091765-18.883764l1.174588-3.102118 193.234824-421.647059a26.352941 26.352941 0 0 1 46.170353-3.222588z m65.566117 268.950588l-87.762823-191.488-87.792941 191.488h175.555764zM839.589647 712.794353a26.352941 26.352941 0 0 1 3.312941 52.495059l-3.312941 0.210823-568.862118-0.030117 60.416 60.446117c9.456941 9.426824 10.24 24.244706 2.379295 34.575059l-2.379295 2.710588a26.352941 26.352941 0 0 1-34.544941 2.349177l-2.710588-2.379294-105.411765-105.411765c-15.811765-15.811765-5.903059-42.285176 15.36-44.784941l3.282824-0.180706h632.470588z" fill="#568af2" /></svg>