<svg class="icon" style="width: 1em;height: 1em;vertical-align: middle;fill: currentColor;overflow: hidden;" viewBox="0 0 1024 1024" version="1.1" xmlns="http://www.w3.org/2000/svg" width="32" height="32"><path d="M668.852706 150.588235c14.576941 0 26.352941 11.806118 26.352941 26.352941v96.617412h131.764706c13.432471 0 24.545882 10.059294 26.172235 23.070118l0.180706 3.312941v282.864941c0 12.137412-8.252235 22.558118-19.757176 25.509647l-3.222589 0.602353-398.667294 51.471059v184.169412a26.352941 26.352941 0 0 1-23.04 26.142117l-3.312941 0.210824a26.352941 26.352941 0 0 1-26.142118-23.070118l-0.210823-3.312941V637.289412c0-12.167529 8.282353-22.588235 19.787294-25.539765l3.192471-0.602353 398.667294-51.501176v-233.35153h-105.411765v114.206118a26.352941 26.352941 0 0 1-23.04 26.142118l-3.312941 0.210823H176.941176A26.352941 26.352941 0 0 1 150.588235 440.470588v-263.529412C150.588235 162.394353 162.394353 150.588235 176.941176 150.588235z" fill="#568af2" /></svg>