<svg class="icon" style="width: 1em;height: 1em;vertical-align: middle;fill: currentColor;overflow: hidden;" viewBox="0 0 1024 1024" version="1.1" xmlns="http://www.w3.org/2000/svg" width="32" height="32"><path d="M786.823529 180.705882h-527.058823A79.058824 79.058824 0 0 0 180.705882 259.764706v527.058823a79.058824 79.058824 0 0 0 79.058824 79.058824h527.058823a79.058824 79.058824 0 0 0 79.058824-79.058824v-527.058823A79.058824 79.058824 0 0 0 786.823529 180.705882z m-52.705882 421.647059a26.352941 26.352941 0 0 1 3.312941 52.495059l-3.312941 0.210824h-70.264471a26.352941 26.352941 0 0 1-3.312941-52.495059l3.312941-0.210824h70.264471z m0-105.411765a26.352941 26.352941 0 0 1 3.312941 52.495059l-3.312941 0.210824h-210.823529a26.352941 26.352941 0 0 1-3.312942-52.495059l3.312942-0.210824h210.823529z m0-105.411764a26.352941 26.352941 0 0 1 3.312941 52.495059l-3.312941 0.210823h-140.559059a26.352941 26.352941 0 0 1-3.312941-52.495059l3.312941-0.210823h140.559059z" fill="#568af2" /></svg>