<svg class="icon" style="width: 1em;height: 1em;vertical-align: middle;fill: currentColor;overflow: hidden;" viewBox="0 0 1024 1024" version="1.1" xmlns="http://www.w3.org/2000/svg" width="32" height="32"><path d="M411.617882 281.088a70.264471 70.264471 0 1 1-140.559058 0 70.264471 70.264471 0 0 1 140.559058 0z m-70.294588 316.235294a70.264471 70.264471 0 1 0 0-140.528941 70.264471 70.264471 0 0 0 0 140.528941z m0 245.970824a70.264471 70.264471 0 1 0 0-140.559059 70.264471 70.264471 0 0 0 0 140.559059zM727.853176 281.088a70.264471 70.264471 0 1 1-140.559058 0 70.264471 70.264471 0 0 1 140.559058 0z m-70.294588 316.235294a70.264471 70.264471 0 1 0 0-140.528941 70.264471 70.264471 0 0 0 0 140.528941z m0 245.970824a70.264471 70.264471 0 1 0 0-140.559059 70.264471 70.264471 0 0 0 0 140.559059z" fill="#568af2" /></svg>