<svg class="icon" style="width: 1em;height: 1em;vertical-align: middle;fill: currentColor;overflow: hidden;" viewBox="0 0 1024 1024" version="1.1" xmlns="http://www.w3.org/2000/svg" width="32" height="32"><path d="M839.529412 180.705882c14.546824 0 26.352941 11.806118 26.352941 26.352942v140.559058a26.352941 26.352941 0 0 1-26.352941 26.352942l-289.882353-0.030118v52.705882h289.882353c14.546824 0 26.352941 11.806118 26.352941 26.383059v140.528941a26.352941 26.352941 0 0 1-26.352941 26.352941H549.647059v156.009412l60.416-60.446117a26.352941 26.352941 0 0 1 39.634823 34.575058l-2.349176 2.710589-105.411765 105.411764-0.271059 0.240941a26.503529 26.503529 0 0 1-1.716706 1.505883l1.987765-1.746824a26.533647 26.533647 0 0 1-20.419765 7.649883l1.776942 0.060235a26.232471 26.232471 0 0 1-15.962353-5.360941l-0.692706-0.602353a26.503529 26.503529 0 0 1-1.716706-1.505883l-0.271059-0.240941-105.411765-105.411764a26.352941 26.352941 0 0 1 34.575059-39.634824l2.710588 2.349177 60.416 60.446117v-156.009412H207.058824A26.352941 26.352941 0 0 1 180.705882 593.558588v-140.528941c0-14.576941 11.806118-26.352941 26.352942-26.352941l289.882352-0.030118v-52.705882H207.058824A26.352941 26.352941 0 0 1 180.705882 347.648V207.058824C180.705882 192.512 192.512 180.705882 207.058824 180.705882h632.470588z" fill="#568af2" /></svg>