<svg class="icon" style="width: 1em;height: 1em;vertical-align: middle;fill: currentColor;overflow: hidden;" viewBox="0 0 1024 1024" version="1.1" xmlns="http://www.w3.org/2000/svg" width="32" height="32"><path d="M786.823529 180.705882h-527.058823A79.058824 79.058824 0 0 0 180.705882 259.764706v527.058823a79.058824 79.058824 0 0 0 79.058824 79.058824h527.058823a79.058824 79.058824 0 0 0 79.058824-79.058824v-527.058823A79.058824 79.058824 0 0 0 786.823529 180.705882z m-527.058823 52.705883h527.058823c14.546824 0 26.352941 11.806118 26.352942 26.352941v527.058823a26.352941 26.352941 0 0 1-26.352942 26.352942h-527.058823a26.352941 26.352941 0 0 1-26.352941-26.352942v-527.058823c0-14.546824 11.806118-26.352941 26.352941-26.352941z" fill="#568af2" /><path d="M839.529412 672.617412a26.352941 26.352941 0 0 1 3.312941 52.525176l-3.312941 0.180706h-632.470588a26.352941 26.352941 0 0 1-3.312942-52.495059l3.312942-0.210823h632.470588zM839.529412 321.264941a26.352941 26.352941 0 0 1 3.312941 52.495059l-3.312941 0.210824h-632.470588a26.352941 26.352941 0 0 1-3.312942-52.525177l3.312942-0.180706h632.470588z" fill="#568af2" /><path d="M207.058824 268.559059c13.432471 0 24.515765 10.029176 26.142117 23.04l0.210824 3.312941v105.411765a26.352941 26.352941 0 0 1-52.495059 3.312941L180.705882 400.293647v-105.411765c0-14.576941 11.806118-26.352941 26.352942-26.352941zM207.058824 619.911529c13.432471 0 24.515765 10.059294 26.142117 23.070118l0.210824 3.312941v105.411765a26.352941 26.352941 0 0 1-52.495059 3.312941L180.705882 751.676235v-105.411764c0-14.576941 11.806118-26.383059 26.352942-26.383059zM839.529412 619.911529c13.432471 0 24.515765 10.059294 26.142117 23.070118l0.210824 3.312941v105.411765a26.352941 26.352941 0 0 1-52.495059 3.312941l-0.210823-3.312941v-105.411765c0-14.576941 11.806118-26.383059 26.352941-26.383059zM839.529412 268.559059c13.432471 0 24.515765 10.029176 26.142117 23.04l0.210824 3.312941v105.411765a26.352941 26.352941 0 0 1-52.495059 3.312941l-0.210823-3.312941v-105.411765c0-14.576941 11.806118-26.352941 26.352941-26.352941z" fill="#568af2" /></svg>