<svg class="icon" style="width: 1em;height: 1em;vertical-align: middle;fill: currentColor;overflow: hidden;" viewBox="0 0 1024 1024" version="1.1" xmlns="http://www.w3.org/2000/svg" width="32" height="32"><path d="M760.470588 184.470588a79.058824 79.058824 0 0 1 78.908236 74.059294l0.150588 4.99953v303.073882a26.352941 26.352941 0 0 1-52.495059 3.312941l-0.210824-3.312941V263.529412a26.352941 26.352941 0 0 0-23.04-26.142118l-3.312941-0.210823H233.411765a26.352941 26.352941 0 0 0-26.142118 23.04l-0.210823 3.312941v527.058823c0 13.432471 10.059294 24.515765 23.04 26.142118l3.312941 0.210823h224.015059a26.352941 26.352941 0 0 1 3.312941 52.495059l-3.312941 0.210824H233.411765a79.058824 79.058824 0 0 1-78.908236-74.059294l-0.150588-4.99953V263.529412a79.058824 79.058824 0 0 1 74.059294-78.908236l4.99953-0.150588h527.058823z" fill="#568af2" /><path d="M813.176471 676.382118a26.352941 26.352941 0 0 1 3.312941 52.525176l-3.312941 0.180706H496.941176a26.352941 26.352941 0 0 1-3.312941-52.495059l3.312941-0.210823H813.176471z" fill="#568af2" /><path d="M583.710118 578.710588a26.352941 26.352941 0 0 1 39.634823 34.544941l-2.349176 2.710589-86.799059 86.768941 86.799059 86.799059c9.426824 9.426824 10.24 24.214588 2.349176 34.544941l-2.349176 2.710588a26.352941 26.352941 0 0 1-34.575059 2.349177l-2.710588-2.349177-105.411765-105.411765a26.352941 26.352941 0 0 1-2.349177-34.575058l2.349177-2.710589 105.411765-105.411764z" fill="#568af2" /></svg>