<svg class="icon" style="width: 1em;height: 1em;vertical-align: middle;fill: currentColor;overflow: hidden;" viewBox="0 0 1024 1024" version="1.1" xmlns="http://www.w3.org/2000/svg" width="32" height="32"><path d="M176.941176 210.823529c13.432471 0 24.515765 10.059294 26.142118 23.04l0.210824 3.312942v562.206117a26.352941 26.352941 0 0 1-52.495059 3.312941L150.588235 799.352471V237.176471C150.588235 222.629647 162.394353 210.823529 176.941176 210.823529zM493.176471 210.823529c13.432471 0 24.515765 10.059294 26.142117 23.04l0.210824 3.312942v562.206117a26.352941 26.352941 0 0 1-52.495059 3.312941l-0.210824-3.312941V237.176471c0-14.546824 11.806118-26.352941 26.352942-26.352942z" fill="#568af2" /><path d="M475.617882 491.911529a26.352941 26.352941 0 0 1 3.312942 52.525177l-3.312942 0.180706H194.499765a26.352941 26.352941 0 0 1-3.312941-52.495059l3.312941-0.210824h281.118117zM752.188235 433.031529c14.034824-20.359529 45.176471-11.745882 47.856941 11.685647l0.180706 3.282824v237.507765h26.744471c13.432471 0 24.545882 10.059294 26.172235 23.070117l0.180706 3.312942a26.352941 26.352941 0 0 1-23.04 26.142117l-3.312941 0.210824-26.774588-0.030118v61.138824a26.352941 26.352941 0 0 1-23.04 26.172235l-3.312941 0.210823a26.352941 26.352941 0 0 1-26.112-23.070117l-0.210824-3.312941v-61.138824h-131.373176a26.352941 26.352941 0 0 1-26.142118-23.04l-0.210824-3.312941v-35.538824c0-4.276706 1.054118-8.463059 3.011765-12.227764l1.656471-2.710589 157.726117-228.352z m-4.698353 99.478589l-104.990117 151.973647v1.024h104.990117v-152.997647z" fill="#568af2" /></svg>