<svg class="icon" style="width: 1em;height: 1em;vertical-align: middle;fill: currentColor;overflow: hidden;" viewBox="0 0 1024 1024" version="1.1" xmlns="http://www.w3.org/2000/svg" width="32" height="32"><path d="M207.058824 210.823529c13.432471 0 24.515765 10.059294 26.142117 23.04l0.210824 3.312942v562.206117a26.352941 26.352941 0 0 1-52.495059 3.312941L180.705882 799.352471V237.176471C180.705882 222.629647 192.512 210.823529 207.058824 210.823529zM523.294118 210.823529c13.432471 0 24.515765 10.059294 26.142117 23.04l0.210824 3.312942v562.206117a26.352941 26.352941 0 0 1-52.495059 3.312941l-0.210824-3.312941V237.176471c0-14.546824 11.806118-26.352941 26.352942-26.352942z" fill="#568af2" /><path d="M505.735529 491.911529a26.352941 26.352941 0 0 1 3.312942 52.525177l-3.312942 0.180706H224.617412a26.352941 26.352941 0 0 1-3.312941-52.495059l3.312941-0.210824h281.118117zM839.529412 456.794353a26.352941 26.352941 0 0 1 25.238588 33.972706l-1.174588 3.072-140.649412 316.235294a26.352941 26.352941 0 0 1-49.302588-18.311529l1.14447-3.102118 124.175059-279.190588h-135.137882a26.352941 26.352941 0 0 1-26.172235-23.04l-0.180706-3.312942c0-13.402353 10.029176-24.515765 23.04-26.142117l3.312941-0.180706h175.706353z" fill="#568af2" /></svg>