<svg class="icon" style="width: 1em;height: 1em;vertical-align: middle;fill: currentColor;overflow: hidden;" viewBox="0 0 1024 1024" version="1.1" xmlns="http://www.w3.org/2000/svg" width="32" height="32"><path d="M189.500235 214.588235c13.432471 0 24.515765 10.059294 26.142118 23.04l0.210823 3.312941v562.206118a26.352941 26.352941 0 0 1-52.525176 3.312941l-0.180706-3.312941V240.941176c0-14.546824 11.776-26.352941 26.352941-26.352941zM505.735529 214.588235c13.432471 0 24.515765 10.059294 26.142118 23.04l0.210824 3.312941v562.206118a26.352941 26.352941 0 0 1-52.525177 3.312941l-0.180706-3.312941V240.941176c0-14.546824 11.776-26.352941 26.352941-26.352941z" fill="#568af2" /><path d="M488.146824 495.676235a26.352941 26.352941 0 0 1 3.312941 52.525177l-3.312941 0.180706H207.058824a26.352941 26.352941 0 0 1-3.312942-52.495059l3.312942-0.210824h281.088zM821.970824 425.411765a26.352941 26.352941 0 0 1 22.618352 39.875764l-1.807058 2.650353-94.418824 121.344 4.99953 1.325177c55.838118 15.781647 92.280471 57.223529 94.810352 117.88047l0.150589 6.806589c0 75.776-51.260235 114.206118-114.206118 114.206117-44.935529 0-81.558588-17.167059-107.339294-45.537882a26.352941 26.352941 0 1 1 39.002353-35.448471c16.052706 17.679059 38.671059 28.280471 68.336941 28.280471 36.592941 0 61.500235-18.672941 61.500235-61.500235 0-50.748235-35.388235-79.058824-96.647529-79.058824a26.352941 26.352941 0 0 1-22.618353-39.875765l1.807059-2.650353 89.871059-115.591529h-121.765647a26.352941 26.352941 0 0 1-26.142118-23.04l-0.210824-3.312941c0-13.432471 10.059294-24.515765 23.070118-26.142118l3.312941-0.210823h175.676236z" fill="#568af2" /></svg>