<svg class="icon" style="width: 1em;height: 1em;vertical-align: middle;fill: currentColor;overflow: hidden;" viewBox="0 0 1024 1024" version="1.1" xmlns="http://www.w3.org/2000/svg" width="32" height="32"><path d="M668.852706 326.264471h-316.235294a26.352941 26.352941 0 0 0-26.352941 26.352941v316.235294c0 14.576941 11.806118 26.352941 26.352941 26.352941h316.235294a26.352941 26.352941 0 0 0 26.352941-26.352941v-316.235294a26.352941 26.352941 0 0 0-26.352941-26.352941zM282.352941 712.794353c13.432471 0 24.515765 10.029176 26.142118 23.04l0.210823 3.312941v105.411765a26.352941 26.352941 0 0 1-52.495058 3.312941l-0.210824-3.312941v-79.088941H176.941176a26.352941 26.352941 0 0 1-26.142117-23.04L150.588235 739.117176c0-13.402353 10.059294-24.515765 23.04-26.142117l3.312941-0.180706h105.411765z m562.206118 0a26.352941 26.352941 0 0 1 3.312941 52.495059l-3.312941 0.210823-79.088941-0.030117v79.088941a26.352941 26.352941 0 0 1-23.04 26.142117l-3.312942 0.210824a26.352941 26.352941 0 0 1-26.142117-23.070118l-0.180706-3.312941v-105.411765c0-13.402353 10.029176-24.515765 23.04-26.142117l3.312941-0.180706h105.411765zM282.352941 150.588235c13.432471 0 24.515765 10.059294 26.142118 23.04l0.210823 3.312941v105.411765a26.352941 26.352941 0 0 1-23.04 26.142118l-3.312941 0.210823h-105.411765a26.352941 26.352941 0 0 1-3.312941-52.495058l3.312941-0.210824H256V176.941176c0-13.432471 10.059294-24.515765 23.04-26.142117L282.352941 150.588235z m456.794353 0c13.432471 0 24.515765 10.059294 26.142118 23.04l0.210823 3.312941-0.030117 79.058824h79.088941c13.432471 0 24.515765 10.059294 26.142117 23.04l0.210824 3.312941a26.352941 26.352941 0 0 1-23.070118 26.142118l-3.312941 0.210823h-105.411765a26.352941 26.352941 0 0 1-26.142117-23.04l-0.180706-3.312941v-105.411765c0-14.546824 11.776-26.352941 26.352941-26.352941z" fill="#568af2" /></svg>