<svg class="icon" style="width: 1em;height: 1em;vertical-align: middle;fill: currentColor;overflow: hidden;" viewBox="0 0 1024 1024" version="1.1" xmlns="http://www.w3.org/2000/svg" width="32" height="32"><path d="M760.470588 184.470588a79.058824 79.058824 0 0 1 79.058824 79.058824v527.058823a79.058824 79.058824 0 0 1-79.058824 79.058824H233.411765a79.058824 79.058824 0 0 1-79.058824-79.058824V263.529412A79.058824 79.058824 0 0 1 233.411765 184.470588z m-325.933176 159.924706c-6.264471-24.154353-41.200941-26.774588-50.206118-2.017882l-63.969882 175.887059H286.117647l-3.312941 0.210823a26.352941 26.352941 0 0 0 3.312941 52.495059h52.705882l3.644236-0.240941a26.352941 26.352941 0 0 0 21.11247-17.106824l33.822118-93.003294 38.279529 280.816941 0.662589 3.403294c6.204235 23.943529 40.688941 26.834824 50.055529 2.499765l69.541647-180.85647 42.044235 63.036235 2.168471 2.831059a26.352941 26.352941 0 0 0 40.839529-1.626353l44.784942-59.753412h39.54447l3.312941-0.180706a26.352941 26.352941 0 0 0-3.312941-52.525176h-52.705882l-3.493647 0.240941a26.352941 26.352941 0 0 0-17.588706 10.300235l-30.358588 40.478118-49.603765-74.390589-2.228706-2.951529a26.352941 26.352941 0 0 0-44.272941 8.101647l-51.019294 132.547765-38.851765-284.792471z" fill="#568af2" /></svg>