<svg class="icon" style="width: 1em;height: 1em;vertical-align: middle;fill: currentColor;overflow: hidden;" viewBox="0 0 1024 1024" version="1.1" xmlns="http://www.w3.org/2000/svg" width="32" height="32"><path d="M229.647059 402.492235c13.432471 0 24.515765 10.059294 26.142117 23.04l0.210824 3.312941v158.117648a26.352941 26.352941 0 0 1-52.495059 3.312941l-0.210823-3.312941v-158.117648c0-14.546824 11.806118-26.352941 26.352941-26.352941z" fill="#568af2" /><path d="M282.352941 560.609882a26.352941 26.352941 0 0 1 3.312941 52.495059l-3.312941 0.210824h-105.411765a26.352941 26.352941 0 0 1-3.312941-52.495059l3.312941-0.210824h105.411765zM282.352941 297.080471a26.352941 26.352941 0 0 1 3.312941 52.495058l-3.312941 0.210824h-105.411765a26.352941 26.352941 0 0 1-3.312941-52.495059l3.312941-0.210823h105.411765z" fill="#568af2" /><path d="M177.664 166.550588c20.48-13.131294 42.345412-19.576471 64.963765-13.914353 17.347765 4.367059 32.346353 15.600941 44.092235 33.189647 11.233882 16.865882 13.432471 36.050824 7.68 55.235765-7.288471 24.274824-26.322824 47.043765-53.549176 69.662118-11.113412 9.216-22.889412 17.799529-34.725648 25.569882l-7.740235 4.969412-6.053647 3.70447a167.664941 167.664941 0 0 1-2.319059 1.355295 26.352941 26.352941 0 0 1-26.142117-45.778824l6.686117-4.035765 6.625883-4.246588c10.24-6.776471 20.540235-14.215529 29.997176-22.106353 19.877647-16.504471 33.159529-32.406588 36.74353-44.272941 1.385412-4.698353 1.054118-7.619765-1.054118-10.812235-4.758588-7.107765-8.975059-10.270118-13.010824-11.294118-5.722353-1.415529-14.275765 1.084235-23.702588 7.137882a83.696941 83.696941 0 0 0-5.421176 3.794824l-3.885177 3.19247-1.264941 1.204706a26.352941 26.352941 0 0 1-37.285647-37.285647c4.156235-4.156235 10.752-9.697882 19.365647-15.239529zM174.08 683.610353c29.394824-24.365176 66.861176-30.027294 105.351529-4.367059 11.504941 7.649882 20.299294 16.474353 26.262589 26.413177 14.998588 24.997647 10.390588 50.537412-4.909177 73.185882l-0.963765 1.355294 0.963765 1.385412c14.305882 21.142588 19.275294 44.815059 7.649883 68.186353l-2.710589 4.999529c-6.023529 9.938824-14.787765 18.763294-26.292706 26.443294-38.460235 25.630118-75.956706 19.968-105.381647-4.367059a98.876235 98.876235 0 0 1-19.034353-20.510117 26.352941 26.352941 0 0 1 41.86353-31.894588l2.017882 2.650353c1.144471 1.746824 4.276706 5.421176 8.734118 9.125647 12.890353 10.661647 25.419294 12.559059 42.556235 1.14447 5.330824-3.553882 8.613647-6.836706 10.330353-9.697882 2.650353-4.457412 1.264941-10.480941-5.089882-18.974118l-3.523765-4.246588a57.163294 57.163294 0 0 0-1.566118-1.686588l-2.409411-2.288941a26.352941 26.352941 0 0 1-2.499765-38.098824l4.909176-4.668235a62.644706 62.644706 0 0 0 5.12-5.993412c6.324706-8.432941 7.710118-14.456471 5.059765-18.944-1.716706-2.861176-4.999529-6.113882-10.330353-9.667765-17.136941-11.444706-29.665882-9.547294-42.526118 1.114353-3.614118 2.981647-6.324706 5.933176-7.830588 7.890824l-0.933647 1.234823a26.352941 26.352941 0 0 1-43.881412-29.214117c3.794824-5.692235 10.089412-13.131294 19.034353-20.510118z" fill="#568af2" /><path d="M264.794353 753.844706a26.352941 26.352941 0 0 1 3.312941 52.525176l-3.312941 0.210824H229.647059a26.352941 26.352941 0 0 1-3.312941-52.525177l3.312941-0.180705h35.147294zM215.04 406.889412a26.352941 26.352941 0 0 1 31.864471 41.863529l-2.620236 2.017883-52.705882 35.147294a26.352941 26.352941 0 0 1-31.894588-41.86353l2.650353-1.987764 52.705882-35.147295zM826.970353 507.904a26.352941 26.352941 0 0 1 3.312941 52.495059l-3.312941 0.210823H440.470588a26.352941 26.352941 0 0 1-3.312941-52.495058l3.312941-0.210824h386.499765zM826.970353 753.844706a26.352941 26.352941 0 0 1 3.312941 52.525176l-3.312941 0.210824H440.470588a26.352941 26.352941 0 0 1-3.312941-52.525177l3.312941-0.180705h386.499765zM826.970353 261.933176a26.352941 26.352941 0 0 1 3.312941 52.495059l-3.312941 0.210824H440.470588a26.352941 26.352941 0 0 1-3.312941-52.495059l3.312941-0.210824h386.499765z" fill="#568af2" /></svg>