<svg class="icon" style="width: 1em;height: 1em;vertical-align: middle;fill: currentColor;overflow: hidden;" viewBox="0 0 1024 1024" version="1.1" xmlns="http://www.w3.org/2000/svg" width="32" height="32"><path d="M312.470588 281.088h-105.411764a26.352941 26.352941 0 0 0-26.352942 26.352941v421.647059c0 14.576941 11.806118 26.352941 26.352942 26.352941h105.411764a26.352941 26.352941 0 0 0 26.352941-26.352941v-421.647059a26.352941 26.352941 0 0 0-26.352941-26.352941zM558.441412 210.823529h-105.411765a26.352941 26.352941 0 0 0-26.352941 26.352942v562.206117c0 14.546824 11.776 26.352941 26.352941 26.352941h105.411765a26.352941 26.352941 0 0 0 26.352941-26.352941V237.176471A26.352941 26.352941 0 0 0 558.441412 210.823529z m245.940706 122.970353h-105.411765a26.352941 26.352941 0 0 0-26.352941 26.352942v316.235294c0 14.576941 11.806118 26.352941 26.352941 26.352941h105.411765a26.352941 26.352941 0 0 0 26.352941-26.352941v-316.235294a26.352941 26.352941 0 0 0-26.352941-26.352942z" fill="#568af2" /></svg>