<svg class="icon" style="width: 1em;height: 1em;vertical-align: middle;fill: currentColor;overflow: hidden;" viewBox="0 0 1024 1024" version="1.1" xmlns="http://www.w3.org/2000/svg" width="32" height="32"><path d="M545.520941 162.725647l1.716706 3.222588 193.264941 421.647059a26.352941 26.352941 0 0 1-46.351059 24.907294l-1.566117-2.921412-57.374118-125.199058h-223.86447l-57.344 125.199058a26.352941 26.352941 0 0 1-49.091765-18.883764l1.174588-3.102118 193.264941-421.647059a26.352941 26.352941 0 0 1 46.170353-3.222588z m65.536 268.950588l-87.762823-191.488-87.792942 191.488h175.555765zM839.529412 712.794353c22.347294 0 34.093176 25.750588 20.811294 42.526118l-2.168471 2.439529-105.411764 105.411765a26.352941 26.352941 0 0 1-39.634824-34.544941l2.349177-2.710589 60.416-60.446117H207.058824a26.352941 26.352941 0 0 1-26.142118-23.04L180.705882 739.117176c0-13.402353 10.059294-24.515765 23.04-26.142117l3.312942-0.180706h632.470588z" fill="#568af2" /></svg>