<svg class="icon" style="width: 1em;height: 1em;vertical-align: middle;fill: currentColor;overflow: hidden;" viewBox="0 0 1024 1024" version="1.1" xmlns="http://www.w3.org/2000/svg" width="32" height="32"><path d="M0 0h1024v1024H0z" fill="#568af2" fill-opacity="0" /><path d="M830.735059 202.029176a26.352941 26.352941 0 0 1 3.312941 52.525177l-3.312941 0.180706H479.382588a26.352941 26.352941 0 0 1-3.312941-52.495059l3.312941-0.210824h351.352471zM162.063059 648.975059a26.352941 26.352941 0 0 1 34.575059-2.349177l2.710588 2.349177 140.528941 140.559059a26.352941 26.352941 0 0 1-34.544941 39.604706l-2.710588-2.349177-140.559059-140.559059a26.352941 26.352941 0 0 1 0-37.255529z" fill="#568af2" /><path d="M321.264941 184.470588c13.432471 0 24.515765 10.059294 26.142118 23.04l0.210823 3.312941v597.323295a26.352941 26.352941 0 0 1-52.525176 3.312941l-0.180706-3.312941V210.823529c0-14.546824 11.776-26.352941 26.352941-26.352941zM760.470588 377.735529a26.352941 26.352941 0 0 1 3.312941 52.495059l-3.312941 0.210824h-281.088a26.352941 26.352941 0 0 1-3.312941-52.525177l3.312941-0.180706h281.088zM690.206118 553.411765a26.352941 26.352941 0 0 1 3.312941 52.495059l-3.312941 0.210823h-210.82353a26.352941 26.352941 0 0 1-3.312941-52.495059l3.312941-0.210823h210.82353zM619.911529 729.088a26.352941 26.352941 0 0 1 3.312942 52.525176l-3.312942 0.180706h-140.528941a26.352941 26.352941 0 0 1-3.312941-52.495058l3.312941-0.210824h140.528941z" fill="#568af2" /></svg>