<svg class="icon" style="width: 1em;height: 1em;vertical-align: middle;fill: currentColor;overflow: hidden;" viewBox="0 0 1024 1024" version="1.1" xmlns="http://www.w3.org/2000/svg" width="32" height="32"><path d="M411.105882 188.717176l-283.166117 290.69553a26.352941 26.352941 0 0 0-0.481883 36.261647l283.166118 306.657882 2.319059 2.228706c16.564706 14.305882 43.399529 2.770824 43.399529-20.118588v-164.924235l4.457412-0.512c49.091765-4.909176 100.472471-1.716706 154.292706 9.697882 59.512471 12.649412 131.584 68.848941 214.076235 169.562353 16.564706 20.178824 49.242353 6.625882 46.622118-19.365647-12.559059-123.904-60.175059-228.141176-142.576941-311.627294l-8.643765-8.553412c-72.673882-70.053647-159.021176-109.417412-258.108235-117.699765l-10.11953-0.722823V207.119059c0-23.642353-28.732235-35.328-45.206588-18.371765z" fill="#568af2" /></svg>