<svg class="icon" style="width: 1em;height: 1em;vertical-align: middle;fill: currentColor;overflow: hidden;" viewBox="0 0 1024 1024" version="1.1" xmlns="http://www.w3.org/2000/svg" width="32" height="32"><path d="M523.294118 356.382118c13.432471 0 24.515765 10.059294 26.142117 23.070117l0.210824 3.312941v281.088a26.352941 26.352941 0 0 1-52.495059 3.312942l-0.210824-3.312942v-281.118117c0-14.546824 11.806118-26.352941 26.352942-26.352941zM839.529412 444.235294c13.432471 0 24.515765 10.059294 26.142117 23.04l0.210824 3.312941v105.411765a26.352941 26.352941 0 0 1-52.495059 3.312941l-0.210823-3.312941v-105.411765c0-14.546824 11.806118-26.352941 26.352941-26.352941zM207.058824 444.235294c13.432471 0 24.515765 10.059294 26.142117 23.04l0.210824 3.312941v105.411765a26.352941 26.352941 0 0 1-52.495059 3.312941L180.705882 576v-105.411765c0-14.546824 11.806118-26.352941 26.352942-26.352941zM347.617882 180.705882a26.352941 26.352941 0 0 1 3.312942 52.495059l-3.312942 0.210824h-105.411764a8.794353 8.794353 0 0 0-8.553412 6.77647l-0.240941 2.017883v105.411764a26.352941 26.352941 0 0 1-52.495059 3.312942L180.705882 347.587765v-105.411765c0-32.436706 25.088-58.970353 56.922353-61.319529L242.176 180.705882h105.411765zM804.382118 180.705882c32.436706 0 58.970353 25.088 61.319529 56.922353l0.180706 4.577883v105.411764a26.352941 26.352941 0 0 1-52.495059 3.312942l-0.210823-3.312942v-105.411764a8.794353 8.794353 0 0 0-6.776471-8.553412l-2.017882-0.240941h-105.411765a26.352941 26.352941 0 0 1-3.312941-52.495059l3.312941-0.210824h105.411765zM839.529412 672.617412c13.432471 0 24.515765 10.059294 26.142117 23.070117l0.210824 3.312942v105.411764a61.500235 61.500235 0 0 1-56.922353 61.289412l-4.577882 0.180706h-105.411765a26.352941 26.352941 0 0 1-3.312941-52.495059l3.312941-0.210823h105.411765a8.794353 8.794353 0 0 0 8.553411-6.776471l0.240942-2.017882v-105.411765c0-14.546824 11.806118-26.352941 26.352941-26.352941zM207.058824 672.617412c13.432471 0 24.515765 10.059294 26.142117 23.070117l0.210824 3.312942v105.411764c0 4.126118 2.891294 7.619765 6.77647 8.523294l2.017883 0.240942h105.411764a26.352941 26.352941 0 0 1 3.312942 52.495058l-3.312942 0.210824h-105.411764a61.500235 61.500235 0 0 1-61.31953-56.922353L180.705882 804.412235v-105.411764c0-14.546824 11.806118-26.352941 26.352942-26.352942zM576 180.705882a26.352941 26.352941 0 0 1 3.312941 52.495059l-3.312941 0.210824h-105.411765a26.352941 26.352941 0 0 1-3.312941-52.495059l3.312941-0.210824h105.411765z" fill="#568af2" /><path d="M663.853176 496.941176a26.352941 26.352941 0 0 1 3.312942 52.495059l-3.312942 0.210824h-281.118117a26.352941 26.352941 0 0 1-3.312941-52.495059l3.312941-0.210824h281.118117zM576 813.176471a26.352941 26.352941 0 0 1 3.312941 52.495058l-3.312941 0.210824h-105.411765a26.352941 26.352941 0 0 1-3.312941-52.495059l3.312941-0.210823h105.411765z" fill="#568af2" /></svg>