<svg class="icon" style="width: 1em;height: 1em;vertical-align: middle;fill: currentColor;overflow: hidden;" viewBox="0 0 1024 1024" version="1.1" xmlns="http://www.w3.org/2000/svg" width="32" height="32"><path d="M348.852706 644.999529L173.176471 662.588235v154.864941l175.706353-35.147294v-137.276235z m245.940706-24.606117l-193.234824 19.335529v132.005647l193.234824-38.640941V620.423529z m228.412235-22.829177l-175.706353 17.558589v107.429647l175.706353-35.147295v-89.840941z m-650.059294-210.823529v222.870588l175.706353-17.588706v-187.693176l-175.706353-17.588706z m228.412235 22.889412v177.152l193.234824-19.33553v-138.541176l-193.234824-19.275294z m245.940706 24.545882v128l175.706353-17.588706V451.764706l-175.706353-17.588706z m0-160.346353v107.399529l175.706353 17.558589v-89.840941L647.529412 273.829647z m-245.940706-49.212235v132.005647l193.234824 19.335529v-112.64l-193.234824-38.701176zM173.176471 178.959059v154.834823l175.706353 17.558589V214.076235L173.176471 178.959059z" fill="#568af2" /></svg>