<svg class="icon" style="width: 1em;height: 1em;vertical-align: middle;fill: currentColor;overflow: hidden;" viewBox="0 0 1024 1024" version="1.1" xmlns="http://www.w3.org/2000/svg" width="32" height="32"><path d="M790.588235 184.470588a79.058824 79.058824 0 0 1 79.058824 79.058824v527.058823a79.058824 79.058824 0 0 1-79.058824 79.058824H263.529412a79.058824 79.058824 0 0 1-79.058824-79.058824V263.529412A79.058824 79.058824 0 0 1 263.529412 184.470588zM527.058824 678.580706a43.911529 43.911529 0 1 0 0 87.853176 43.911529 43.911529 0 0 0 0-87.853176z m0-377.705412a131.764706 131.764706 0 0 0-131.764706 131.764706 26.352941 26.352941 0 1 0 52.705882 0A79.058824 79.058824 0 1 1 527.058824 511.698824a26.352941 26.352941 0 0 0-26.352942 26.352941v70.26447l0.210824 3.312941a26.352941 26.352941 0 0 0 26.142118 23.04l3.312941-0.210823a26.352941 26.352941 0 0 0 23.04-26.142118V561.694118l4.72847-1.024A131.824941 131.824941 0 0 0 527.058824 300.875294z" fill="#568af2" /></svg>