<svg class="icon" style="width: 1em;height: 1em;vertical-align: middle;fill: currentColor;overflow: hidden;" viewBox="0 0 1024 1024" version="1.1" xmlns="http://www.w3.org/2000/svg" width="32" height="32"><path d="M458.029176 150.588235c14.576941 0 26.352941 11.806118 26.352942 26.352941v131.764706h202.059294c13.432471 0 24.515765 10.059294 26.142117 23.04l0.210824 3.312942-0.030118 202.029176h131.794824c13.432471 0 24.515765 10.059294 26.142117 23.070118l0.210824 3.312941v281.088a26.352941 26.352941 0 0 1-26.352941 26.352941h-281.118118a26.352941 26.352941 0 0 1-26.352941-26.352941v-131.794824h-202.029176a26.352941 26.352941 0 0 1-26.142118-23.04l-0.210824-3.312941v-202.029176H176.941176a26.352941 26.352941 0 0 1-26.142117-23.04L150.588235 458.029176V176.941176C150.588235 162.394353 162.394353 150.588235 176.941176 150.588235z m202.029177 210.82353h-175.676235v96.617411a26.352941 26.352941 0 0 1-23.04 26.172236l-3.312942 0.180706H361.411765v175.676235h175.676235v-96.617412c0-13.432471 10.059294-24.515765 23.070118-26.142117l3.312941-0.210824h96.587294V361.411765z" fill="#568af2" /></svg>