<svg class="icon" style="width: 1em;height: 1em;vertical-align: middle;fill: currentColor;overflow: hidden;" viewBox="0 0 1024 1024" version="1.1" xmlns="http://www.w3.org/2000/svg" width="32" height="32"><path d="M681.411765 203.294118c5.812706 0 11.444706 1.927529 16.022588 5.421176l2.620235 2.288941 52.705883 52.705883a26.352941 26.352941 0 0 1-34.575059 39.634823l-2.710588-2.349176L670.479059 256h-294.4l236.122353 236.122353c9.426824 9.426824 10.24 24.214588 2.349176 34.544941l-2.349176 2.710588-236.122353 236.092236h294.369882l45.025883-44.965647a26.352941 26.352941 0 0 1 34.575058-2.349177l2.710589 2.349177c9.426824 9.426824 10.24 24.244706 2.349176 34.575058l-2.349176 2.710589-52.705883 52.705882a26.352941 26.352941 0 0 1-15.179294 7.469176l-3.463529 0.240942h-368.941177c-22.347294 0-34.093176-25.750588-20.811294-42.556236l2.168471-2.439529 262.445176-262.475294-262.445176-262.445177c-15.811765-15.811765-5.903059-42.315294 15.36-44.815058l3.282823-0.180706h368.941177zM207.058824 150.588235c13.432471 0 24.515765 10.059294 26.142117 23.04l0.210824 3.312941v667.617883a26.352941 26.352941 0 0 1-52.495059 3.312941L180.705882 844.528941V176.941176C180.705882 162.394353 192.512 150.588235 207.058824 150.588235zM839.529412 150.588235c13.432471 0 24.515765 10.059294 26.142117 23.04l0.210824 3.312941v667.617883a26.352941 26.352941 0 0 1-52.495059 3.312941l-0.210823-3.312941V176.941176c0-14.546824 11.806118-26.352941 26.352941-26.352941z" fill="#568af2" /></svg>