<svg class="icon" style="width: 1em;height: 1em;vertical-align: middle;fill: currentColor;overflow: hidden;" viewBox="0 0 1024 1024" version="1.1" xmlns="http://www.w3.org/2000/svg" width="32" height="32"><path d="M237.176471 210.823529c13.432471 0 24.515765 10.059294 26.142117 23.04l0.210824 3.312942v562.206117a26.352941 26.352941 0 0 1-52.495059 3.312941L210.823529 799.352471V237.176471C210.823529 222.629647 222.629647 210.823529 237.176471 210.823529zM799.382588 210.823529c13.432471 0 24.515765 10.059294 26.142118 23.04l0.210823 3.312942v562.206117a26.352941 26.352941 0 0 1-52.525176 3.312941l-0.180706-3.312941V237.176471c0-14.546824 11.776-26.352941 26.352941-26.352942z" fill="#568af2" /><path d="M799.382588 492.062118a26.352941 26.352941 0 0 1 3.312941 52.495058l-3.312941 0.210824H448.903529a26.352941 26.352941 0 0 1-3.312941-52.495059l3.312941-0.210823h350.479059z" fill="#568af2" /></svg>