<svg class="icon" style="width: 1em;height: 1em;vertical-align: middle;fill: currentColor;overflow: hidden;" viewBox="0 0 1024 1024" version="1.1" xmlns="http://www.w3.org/2000/svg" width="32" height="32"><path d="M207.058824 180.705882c13.432471 0 24.515765 10.059294 26.142117 23.04l0.210824 3.312942v632.470588a26.352941 26.352941 0 0 1-52.495059 3.312941L180.705882 839.529412v-632.470588C180.705882 192.512 192.512 180.705882 207.058824 180.705882zM487.002353 223.563294a26.352941 26.352941 0 0 1 34.575059-2.379294l2.710588 2.379294 105.472 105.411765a26.352941 26.352941 0 0 1-34.544941 39.634823l-2.710588-2.349176-86.889412-86.829177-86.678588 86.648471a26.352941 26.352941 0 0 1-34.575059 2.349176l-2.710588-2.349176a26.352941 26.352941 0 0 1-2.319059-34.575059l2.349176-2.710588 105.35153-105.231059zM381.680941 680.357647a26.352941 26.352941 0 0 1 34.575059-2.379294l2.710588 2.349176 86.799059 86.799059 86.738824-86.618353a26.352941 26.352941 0 0 1 34.575058-2.349176l2.710589 2.349176a26.352941 26.352941 0 0 1 2.319058 34.575059l-2.349176 2.710588-105.321412 105.231059a26.352941 26.352941 0 0 1-34.575059 2.379294l-2.710588-2.379294-105.472-105.411765a26.352941 26.352941 0 0 1 0-37.255529z" fill="#568af2" /><path d="M505.735529 215.853176c13.432471 0 24.515765 10.029176 26.142118 23.04l0.210824 3.312942v562.176a26.352941 26.352941 0 0 1-52.525177 3.312941l-0.180706-3.312941V242.206118c0-14.576941 11.776-26.352941 26.352941-26.352942zM804.382118 180.705882c13.432471 0 24.545882 10.059294 26.172235 23.04l0.180706 3.312942v632.470588a26.352941 26.352941 0 0 1-52.495059 3.312941l-0.210824-3.312941v-632.470588c0-14.546824 11.806118-26.352941 26.352942-26.352942z" fill="#568af2" /></svg>