<svg class="icon" style="width: 1em;height: 1em;vertical-align: middle;fill: currentColor;overflow: hidden;" viewBox="0 0 1024 1024" version="1.1" xmlns="http://www.w3.org/2000/svg" width="32" height="32"><path d="M415.472941 193.596235l1.686588 3.433412 245.970824 597.323294a26.352941 26.352941 0 0 1-47.284706 23.04l-1.475765-2.981647-80.112941-194.499765H251.271529l-80.082823 194.499765a26.352941 26.352941 0 0 1-49.784471-16.926118l1.054118-3.132235 245.970823-597.323294c8.432941-20.540235 36.442353-21.684706 47.043765-3.433412z m97.099294 373.609412l-119.808-290.936471-119.808 290.936471h239.616zM849.588706 215.853176a26.352941 26.352941 0 0 1 3.312941 52.495059l-3.312941 0.210824h-281.118118a26.352941 26.352941 0 0 1-3.312941-52.525177l3.312941-0.180706h281.118118zM849.588706 391.529412a26.352941 26.352941 0 0 1 3.312941 52.495059l-3.312941 0.210823h-210.82353a26.352941 26.352941 0 0 1-3.312941-52.495059l3.312941-0.210823h210.82353zM849.588706 567.205647a26.352941 26.352941 0 0 1 3.312941 52.525177l-3.312941 0.180705h-140.559059a26.352941 26.352941 0 0 1-3.312941-52.495058l3.312941-0.210824h140.559059zM849.588706 742.912a26.352941 26.352941 0 0 1 3.312941 52.495059l-3.312941 0.210823h-70.294588a26.352941 26.352941 0 0 1-3.312942-52.525176l3.312942-0.180706h70.294588z" fill="#568af2" /></svg>