<svg class="icon" style="width: 1em;height: 1em;vertical-align: middle;fill: currentColor;overflow: hidden;" viewBox="0 0 1024 1024" version="1.1" xmlns="http://www.w3.org/2000/svg" width="32" height="32"><path d="M804.382118 180.705882H242.206118A61.500235 61.500235 0 0 0 180.705882 242.206118v562.176c0 33.972706 27.527529 61.500235 61.500236 61.500235h562.176a61.500235 61.500235 0 0 0 61.500235-61.500235V242.206118A61.500235 61.500235 0 0 0 804.382118 180.705882zM242.206118 233.411765h562.176c4.848941 0 8.794353 3.915294 8.794353 8.794353v562.176c0 4.848941-3.915294 8.794353-8.794353 8.794353H242.206118a8.794353 8.794353 0 0 1-8.794353-8.794353V242.206118c0-4.848941 3.915294-8.794353 8.794353-8.794353z" fill="#568af2" /><path d="M839.529412 410.142118a26.352941 26.352941 0 0 1 3.312941 52.495058l-3.312941 0.210824h-632.470588a26.352941 26.352941 0 0 1-3.312942-52.525176l3.312942-0.180706h632.470588zM367.405176 187.361882a26.352941 26.352941 0 0 1 37.526589 36.833883l-2.499765 2.56-177.874824 158.117647a26.352941 26.352941 0 0 1-37.526588-36.833883l2.529883-2.56 177.844705-158.117647z" fill="#568af2" /><path d="M821.910588 257.867294a26.352941 26.352941 0 0 1 37.737412 36.623059l-2.499765 2.56-175.676235 157.997176a26.352941 26.352941 0 0 1-37.737412-36.623058l2.499765-2.56 175.676235-157.997177zM543.081412 187.361882a26.352941 26.352941 0 0 1 37.526588 36.833883l-2.499765 2.56-249.46447 221.786353a26.352941 26.352941 0 0 1-37.556706-36.833883l2.529882-2.56 249.464471-221.786353zM718.757647 187.361882a26.352941 26.352941 0 0 1 37.556706 36.833883l-2.529882 2.56-249.464471 221.786353a26.352941 26.352941 0 0 1-37.526588-36.833883l2.499764-2.56 249.464471-221.786353z" fill="#568af2" /></svg>