<svg class="icon" style="width: 1em;height: 1em;vertical-align: middle;fill: currentColor;overflow: hidden;" viewBox="0 0 1024 1024" version="1.1" xmlns="http://www.w3.org/2000/svg" width="32" height="32"><path d="M491.911529 184.470588a26.352941 26.352941 0 0 1 3.312942 52.495059l-3.312942 0.210824H245.970824a8.794353 8.794353 0 0 0-8.553412 6.77647l-0.240941 2.017883v562.176c0 4.156235 2.891294 7.649882 6.77647 8.553411l2.017883 0.240941h562.176a8.794353 8.794353 0 0 0 8.553411-6.77647l0.240941-2.017882v-245.940706a26.352941 26.352941 0 0 1 52.495059-3.312942l0.210824 3.312942v245.940706a61.500235 61.500235 0 0 1-56.922353 61.319529l-4.577882 0.180706H245.970824a61.500235 61.500235 0 0 1-61.31953-56.922353l-0.180706-4.577882V245.970824c0-32.436706 25.088-58.970353 56.922353-61.31953l4.577883-0.180706h245.940705z m204.408471 7.740236a26.352941 26.352941 0 0 1 37.285647 0l128.301177 128.361411a26.352941 26.352941 0 0 1 0 37.285647l-363.339295 363.52a26.352941 26.352941 0 0 1-18.642823 7.710118h-128.542118a26.352941 26.352941 0 0 1-26.352941-26.352941v-127.87953c0-6.987294 2.770824-13.703529 7.710118-18.642823z" fill="#568af2" /></svg>