<svg class="icon" style="width: 1em;height: 1em;vertical-align: middle;fill: currentColor;overflow: hidden;" viewBox="0 0 1024 1024" version="1.1" xmlns="http://www.w3.org/2000/svg" width="32" height="32"><path d="M505.735529 180.705882a26.352941 26.352941 0 0 1 3.312942 52.495059l-3.312942 0.210824h-263.529411a8.794353 8.794353 0 0 0-8.553412 6.77647l-0.240941 2.017883v562.206117c0 4.156235 2.891294 7.619765 6.77647 8.523294l2.017883 0.240942h562.176a8.794353 8.794353 0 0 0 8.553411-6.776471L813.176471 804.442353v-263.529412a26.352941 26.352941 0 0 1 52.495058-3.312941l0.210824 3.312941v263.529412a61.500235 61.500235 0 0 1-56.922353 61.319529l-4.577882 0.150589H242.206118a61.500235 61.500235 0 0 1-61.31953-56.922353L180.705882 804.442353V242.206118c0-32.436706 25.088-58.970353 56.922353-61.31953L242.176 180.705882h263.529412z" fill="#568af2" /><path d="M523.294118 356.412235c13.432471 0 24.515765 10.029176 26.142117 23.04l0.210824 3.312941v140.528942a26.352941 26.352941 0 0 1-52.495059 3.312941l-0.210824-3.312941V382.795294c0-14.576941 11.806118-26.352941 26.352942-26.352941zM839.529412 180.705882c13.432471 0 24.515765 10.059294 26.142117 23.04l0.210824 3.312942v140.559058a26.352941 26.352941 0 0 1-52.495059 3.312942l-0.210823-3.312942V207.058824c0-14.546824 11.776-26.352941 26.352941-26.352942z" fill="#568af2" /><path d="M663.853176 496.941176a26.352941 26.352941 0 0 1 3.312942 52.495059l-3.312942 0.210824h-140.559058a26.352941 26.352941 0 0 1-3.312942-52.495059l3.312942-0.210824h140.559058z" fill="#568af2" /><path d="M820.886588 188.416l37.25553 37.285647-316.235294 316.235294-37.25553-37.285647z" fill="#568af2" /><path d="M839.529412 180.705882a26.352941 26.352941 0 0 1 3.312941 52.495059l-3.312941 0.210824h-140.559059a26.352941 26.352941 0 0 1-3.312941-52.495059l3.312941-0.210824h140.559059z" fill="#568af2" /></svg>