<svg class="icon" style="width: 1em;height: 1em;vertical-align: middle;fill: currentColor;overflow: hidden;" viewBox="0 0 1024 1024" version="1.1" xmlns="http://www.w3.org/2000/svg" width="32" height="32"><path d="M813.176471 223.382588a26.352941 26.352941 0 0 1 3.312941 52.495059l-3.312941 0.210824H496.941176a26.352941 26.352941 0 0 1-3.312941-52.525177l3.312941-0.180706H813.176471z m0 175.676236a26.352941 26.352941 0 0 1 3.312941 52.495058L813.176471 451.764706H496.941176a26.352941 26.352941 0 0 1-3.312941-52.495059l3.312941-0.210823H813.176471z m0 175.676235a26.352941 26.352941 0 0 1 3.312941 52.525176l-3.312941 0.180706H180.705882a26.352941 26.352941 0 0 1-3.312941-52.495059l3.312941-0.210823h632.470589z m0 175.706353a26.352941 26.352941 0 0 1 3.312941 52.495059l-3.312941 0.210823H180.705882a26.352941 26.352941 0 0 1-3.312941-52.525176l3.312941-0.180706h632.470589z m-456.794353-527.058824H180.705882a26.352941 26.352941 0 0 0-26.352941 26.352941v175.676236c0 14.546824 11.806118 26.352941 26.352941 26.352941h175.676236a26.352941 26.352941 0 0 0 26.352941-26.352941V249.735529a26.352941 26.352941 0 0 0-26.352941-26.352941z" fill="#568af2" /></svg>