<svg class="icon" style="width: 1em;height: 1em;vertical-align: middle;fill: currentColor;overflow: hidden;" viewBox="0 0 1024 1024" version="1.1" xmlns="http://www.w3.org/2000/svg" width="32" height="32"><path d="M498.206118 120.470588c205.522824 0 372.736 164.171294 377.615058 368.549647l0.090353 9.185883a26.352941 26.352941 0 0 1-23.04 26.142117l-3.312941 0.210824H627.350588a131.824941 131.824941 0 0 1-260.879059-26.352941 131.764706 131.764706 0 0 1 260.879059-26.383059h194.861177c-13.432471-167.152941-153.359059-298.646588-323.97553-298.646588-179.501176 0-325.029647 145.528471-325.029647 325.029647s145.528471 324.999529 325.029647 324.999529c110.200471 0 210.974118-55.205647 270.848-145.317647a26.352941 26.352941 0 1 1 43.91153 29.214118 377.344 377.344 0 0 1-314.75953 168.809411C289.581176 875.911529 120.470588 706.800941 120.470588 498.206118 120.470588 289.581176 289.581176 120.470588 498.206118 120.470588z" fill="#568af2" /></svg>