<svg class="icon" style="width: 1em;height: 1em;vertical-align: middle;fill: currentColor;overflow: hidden;" viewBox="0 0 1024 1024" version="1.1" xmlns="http://www.w3.org/2000/svg" width="32" height="32"><path d="M410.352941 120.470588c22.829176 0 41.592471 17.408 43.730824 39.695059l0.180706 4.216471v158.117647a26.352941 26.352941 0 0 1-52.495059 3.312941l-0.210824-3.312941V173.176471H173.176471v650.029176h228.382117v-149.323294c0-13.432471 10.059294-24.515765 23.070118-26.142118l3.312941-0.210823c13.402353 0 24.515765 10.059294 26.142118 23.04l0.180706 3.312941v158.117647c0 22.829176-17.408 41.592471-39.695059 43.730824l-4.216471 0.180705H164.382118a43.941647 43.941647 0 0 1-43.700706-39.695058L120.470588 832V164.382118c0-22.829176 17.408-41.562353 39.695059-43.700706L164.382118 120.470588h245.970823zM832 120.470588c22.829176 0 41.592471 17.408 43.730824 39.695059l0.180705 4.216471v667.617882c0 22.829176-17.408 41.592471-39.695058 43.730824l-4.216471 0.180705h-245.970824a43.911529 43.911529 0 0 1-43.700705-39.695058l-0.210824-4.216471v-158.117647a26.352941 26.352941 0 0 1 52.495059-3.312941l0.210823 3.312941v149.323294h228.382118V173.176471H594.823529v149.323294a26.352941 26.352941 0 0 1-23.04 26.172235l-3.312941 0.180706a26.352941 26.352941 0 0 1-26.142117-23.04l-0.210824-3.312941v-158.117647c0-22.829176 17.408-41.562353 39.695059-43.700706l4.21647-0.210824h245.970824z" fill="#568af2" /><path d="M849.558588 471.853176a26.352941 26.352941 0 0 1 3.312941 52.495059l-3.312941 0.210824h-281.088a26.352941 26.352941 0 0 1-3.312941-52.525177l3.312941-0.180706h281.088zM427.911529 471.853176a26.352941 26.352941 0 0 1 3.312942 52.495059l-3.312942 0.210824h-263.529411a26.352941 26.352941 0 0 1-3.312942-52.525177l3.312942-0.180706h263.529411z" fill="#568af2" /><path d="M633.253647 396.498824a26.352941 26.352941 0 0 1 39.634824 34.575058l-2.349177 2.710589-65.234823 65.204705 65.234823 65.234824c9.426824 9.426824 10.209882 24.244706 2.349177 34.575059l-2.349177 2.710588a26.352941 26.352941 0 0 1-34.575059 2.319059l-2.710588-2.349177-83.847529-83.847529a26.352941 26.352941 0 0 1-2.349177-34.575059l2.349177-2.710588 83.847529-83.847529zM328.041412 396.498824a26.352941 26.352941 0 0 1 34.575059-2.349177l2.710588 2.349177 83.817412 83.847529c9.456941 9.456941 10.24 24.244706 2.379294 34.575059l-2.379294 2.710588-83.84753 83.847529a26.352941 26.352941 0 0 1-39.634823-34.575058l2.379294-2.710589 65.204706-65.204706-65.204706-65.204705a26.352941 26.352941 0 0 1-2.379294-34.575059l2.379294-2.710588z" fill="#568af2" /></svg>