<svg class="icon" style="width: 1em;height: 1em;vertical-align: middle;fill: currentColor;overflow: hidden;" viewBox="0 0 1024 1024" version="1.1" xmlns="http://www.w3.org/2000/svg" width="32" height="32"><path d="M844.559059 198.264471a26.352941 26.352941 0 0 1 3.312941 52.525176l-3.312941 0.180706H493.176471a26.352941 26.352941 0 0 1-3.312942-52.495059l3.312942-0.210823h351.382588zM298.857412 188.416a26.352941 26.352941 0 0 1 39.634823 34.575059l-2.379294 2.710588-140.528941 140.528941a26.352941 26.352941 0 0 1-39.634824-34.544941l2.349177-2.710588 140.559059-140.559059z" fill="#568af2" /><path d="M317.500235 180.705882c13.432471 0 24.515765 10.059294 26.142118 23.04l0.210823 3.312942v597.323294a26.352941 26.352941 0 0 1-52.525176 3.312941l-0.180706-3.312941V207.058824c0-14.546824 11.776-26.352941 26.352941-26.352942zM774.264471 373.970824a26.352941 26.352941 0 0 1 3.312941 52.495058l-3.312941 0.210824h-281.088a26.352941 26.352941 0 0 1-3.312942-52.525177l3.312942-0.180705h281.088zM704 549.647059a26.352941 26.352941 0 0 1 3.312941 52.495059l-3.312941 0.210823h-210.823529a26.352941 26.352941 0 0 1-3.312942-52.495059l3.312942-0.210823h210.823529zM633.735529 725.323294a26.352941 26.352941 0 0 1 3.312942 52.525177l-3.312942 0.180705h-140.559058a26.352941 26.352941 0 0 1-3.312942-52.495058l3.312942-0.210824h140.559058z" fill="#568af2" /></svg>