<svg class="icon" style="width: 1em;height: 1em;vertical-align: middle;fill: currentColor;overflow: hidden;" viewBox="0 0 1024 1024" version="1.1" xmlns="http://www.w3.org/2000/svg" width="32" height="32"><path d="M0 0h1024v1024H0z" fill="#568af2" fill-opacity="0" /><path d="M382.735059 180.705882a26.352941 26.352941 0 0 1 3.312941 52.495059l-3.312941 0.210824H242.206118a8.794353 8.794353 0 0 0-8.553412 6.77647l-0.240941 2.017883v140.528941a26.352941 26.352941 0 0 1-52.495059 3.312941L180.705882 382.735059V242.206118c0-32.436706 25.088-58.970353 56.922353-61.31953L242.176 180.705882h140.528941zM207.058824 637.500235c13.432471 0 24.515765 10.029176 26.142117 23.04l0.210824 3.312941v140.528942c0 4.156235 2.891294 7.649882 6.77647 8.553411l2.017883 0.240942h140.528941a26.352941 26.352941 0 0 1 3.312941 52.495058l-3.312941 0.210824H242.206118a61.500235 61.500235 0 0 1-61.31953-56.922353L180.705882 804.412235v-140.528941c0-14.576941 11.806118-26.352941 26.352942-26.352941zM839.529412 637.500235c13.432471 0 24.515765 10.029176 26.142117 23.04l0.210824 3.312941v140.528942a61.500235 61.500235 0 0 1-56.922353 61.319529l-4.577882 0.180706h-140.528942a26.352941 26.352941 0 0 1-3.312941-52.495059l3.312941-0.210823h140.528942a8.794353 8.794353 0 0 0 8.553411-6.776471l0.240942-2.017882v-140.528942c0-14.576941 11.806118-26.352941 26.352941-26.352941zM804.382118 180.705882c32.436706 0 58.970353 25.088 61.319529 56.922353l0.180706 4.577883v140.528941a26.352941 26.352941 0 0 1-52.495059 3.312941l-0.210823-3.312941V242.206118a8.794353 8.794353 0 0 0-6.776471-8.553412l-2.017882-0.240941h-140.528942a26.352941 26.352941 0 0 1-3.312941-52.495059l3.312941-0.210824h140.528942zM698.970353 496.941176a26.352941 26.352941 0 0 1 3.312941 52.495059l-3.312941 0.210824H347.617882a26.352941 26.352941 0 0 1-3.312941-52.495059l3.312941-0.210824h351.352471zM576 356.382118a26.352941 26.352941 0 0 1 3.312941 52.525176l-3.312941 0.180706h-105.411765a26.352941 26.352941 0 0 1-3.312941-52.495059l3.312941-0.210823h105.411765zM576 637.500235a26.352941 26.352941 0 0 1 3.312941 52.495059l-3.312941 0.210824h-105.411765a26.352941 26.352941 0 0 1-3.312941-52.525177l3.312941-0.180706h105.411765z" fill="#568af2" /></svg>