<svg class="icon" style="width: 1em;height: 1em;vertical-align: middle;fill: currentColor;overflow: hidden;" viewBox="0 0 1024 1024" version="1.1" xmlns="http://www.w3.org/2000/svg" width="32" height="32"><path d="M362.706824 254.313412a61.500235 61.500235 0 0 1 86.979764 0l61.921883 61.891764 61.921882-61.891764a61.500235 61.500235 0 0 1 83.064471-3.614118l3.915294 3.614118 198.77647 198.77647c24.003765 24.003765 24.003765 62.945882 0 86.949647l-198.77647 198.776471a61.500235 61.500235 0 0 1-86.979765 0l-37.104941-37.104941-61.891765 61.921882a61.500235 61.500235 0 0 1-83.064471 3.614118l-3.915294-3.614118-223.593411-223.593412a61.500235 61.500235 0 0 1 0-86.979764z" fill="#568af2" /></svg>