<svg class="icon" style="width: 1em;height: 1em;vertical-align: middle;fill: currentColor;overflow: hidden;" viewBox="0 0 1024 1024" version="1.1" xmlns="http://www.w3.org/2000/svg" width="32" height="32"><path d="M786.823529 180.705882a79.058824 79.058824 0 0 1 78.908236 74.059294l0.150588 4.99953v527.058823a79.058824 79.058824 0 0 1-74.059294 78.908236l-4.99953 0.150588h-527.058823a79.058824 79.058824 0 0 1-78.908235-74.059294L180.705882 786.823529v-527.058823a79.058824 79.058824 0 0 1 74.059294-78.908235L259.764706 180.705882h527.058823z m0 52.705883h-527.058823a26.352941 26.352941 0 0 0-26.142118 23.04l-0.210823 3.312941v404.058353l98.394353-73.788235a26.352941 26.352941 0 0 1 30.027294-1.084236l2.921412 2.168471 105.411764 90.352941 158.479059-142.637176a26.352941 26.352941 0 0 1 32.527059-2.168471l2.831059 2.258823L813.176471 674.544941V259.764706a26.352941 26.352941 0 0 0-26.352942-26.352941z m-368.941176 70.26447a114.206118 114.206118 0 1 1 0 228.412236 114.206118 114.206118 0 0 1 0-228.412236z m0 52.705883a61.500235 61.500235 0 1 0 0 123.00047 61.500235 61.500235 0 0 0 0-123.00047z" fill="#568af2" /></svg>