<svg class="icon" style="width: 1em;height: 1em;vertical-align: middle;fill: currentColor;overflow: hidden;" viewBox="0 0 1024 1024" version="1.1" xmlns="http://www.w3.org/2000/svg" width="32" height="32"><path d="M719.058824 181.549176a26.352941 26.352941 0 0 1 3.312941 52.495059l-3.312941 0.210824h-281.088a26.352941 26.352941 0 0 1-3.312942-52.495059l3.312942-0.210824h281.088zM578.499765 814.019765a26.352941 26.352941 0 0 1 3.312941 52.495059l-3.312941 0.210823H297.411765a26.352941 26.352941 0 0 1-3.312941-52.495059l3.312941-0.210823h281.088z" fill="#568af2" /><path d="M570.699294 200.011294a26.352941 26.352941 0 0 1 51.471059 10.842353l-0.692706 3.252706L445.741176 847.420235a26.352941 26.352941 0 0 1-51.471058-10.842353l0.692706-3.252706L570.729412 200.011294z" fill="#568af2" /></svg>