<svg class="icon" style="width: 1em;height: 1em;vertical-align: middle;fill: currentColor;overflow: hidden;" viewBox="0 0 1024 1024" version="1.1" xmlns="http://www.w3.org/2000/svg" width="32" height="32"><path d="M839.529412 120.470588c13.432471 0 24.515765 10.059294 26.142117 23.04l0.210824 3.312941v140.559059a26.352941 26.352941 0 0 1-52.495059 3.312941L813.176471 287.352471V173.176471h-228.412236v114.206117a26.352941 26.352941 0 0 1-23.04 26.142118l-3.312941 0.210823a26.352941 26.352941 0 0 1-26.142118-23.070117l-0.180705-3.312941V146.853647c0-13.432471 10.029176-24.515765 23.04-26.142118l3.312941-0.210823h281.088zM839.529412 682.676706c13.432471 0 24.515765 10.029176 26.142117 23.04l0.210824 3.312941v140.528941a26.352941 26.352941 0 0 1-23.04 26.172236l-3.312941 0.180705h-281.088a26.352941 26.352941 0 0 1-26.172236-23.04l-0.180705-3.312941v-140.528941a26.352941 26.352941 0 0 1 52.495058-3.312941l0.210824 3.312941-0.030118 114.176H813.176471v-114.176c0-13.432471 10.059294-24.545882 23.04-26.172235l3.312941-0.180706zM558.441412 471.853176a26.352941 26.352941 0 0 1 3.312941 52.495059l-3.312941 0.210824H207.058824a26.352941 26.352941 0 0 1-3.312942-52.525177l3.312942-0.180706h351.382588z" fill="#568af2" /><path d="M698.970353 296.146824c13.432471 0 24.545882 10.059294 26.172235 23.070117l0.180706 3.312941v351.352471a26.352941 26.352941 0 0 1-52.495059 3.312941l-0.210823-3.312941V322.499765c0-14.546824 11.806118-26.352941 26.352941-26.352941zM328.975059 339.004235a26.352941 26.352941 0 0 1 39.634823 34.575059l-2.379294 2.710588-121.916235 121.886118 121.916235 121.946353c9.456941 9.426824 10.24 24.214588 2.379294 34.544941l-2.379294 2.710588a26.352941 26.352941 0 0 1-34.544941 2.349177l-2.710588-2.349177-140.559059-140.559058a26.352941 26.352941 0 0 1-2.349176-34.544942l2.349176-2.710588 140.559059-140.559059z" fill="#568af2" /></svg>