<svg class="icon" style="width: 1em;height: 1em;vertical-align: middle;fill: currentColor;overflow: hidden;" viewBox="0 0 1024 1024" version="1.1" xmlns="http://www.w3.org/2000/svg" width="32" height="32"><path d="M297.411765 150.588235c13.432471 0 24.515765 10.059294 26.142117 23.04l0.210824 3.312941v667.617883a26.352941 26.352941 0 0 1-52.495059 3.312941L271.058824 844.528941V176.941176C271.058824 162.394353 282.864941 150.588235 297.411765 150.588235zM719.058824 150.588235c13.432471 0 24.515765 10.059294 26.142117 23.04l0.210824 3.312941v667.617883a26.352941 26.352941 0 0 1-52.495059 3.312941l-0.210824-3.312941V176.941176c0-14.546824 11.806118-26.352941 26.352942-26.352941z" fill="#568af2" /><path d="M719.058824 484.382118a26.352941 26.352941 0 0 1 3.312941 52.525176l-3.312941 0.180706h-421.647059a26.352941 26.352941 0 0 1-3.312941-52.495059l3.312941-0.210823h421.647059z" fill="#568af2" /></svg>