<svg class="icon" style="width: 1em;height: 1em;vertical-align: middle;fill: currentColor;overflow: hidden;" viewBox="0 0 1024 1024" version="1.1" xmlns="http://www.w3.org/2000/svg" width="32" height="32"><path d="M814.441412 210.823529c33.942588 0 61.470118 27.527529 61.470117 61.500236v491.911529a61.500235 61.500235 0 0 1-61.470117 61.500235h-632.470588A61.500235 61.500235 0 0 1 120.470588 764.235294V272.323765C120.470588 238.351059 147.998118 210.823529 181.970824 210.823529z m-105.411765 368.941177h-421.647059l-3.312941 0.210823A26.352941 26.352941 0 0 0 287.382588 632.470588h421.647059l3.312941-0.210823a26.352941 26.352941 0 0 0-3.312941-52.495059zM322.499765 421.647059H287.382588l-3.312941 0.210823a26.352941 26.352941 0 0 0 3.312941 52.495059h35.117177l3.312941-0.210823a26.352941 26.352941 0 0 0-3.312941-52.495059z m158.117647 0h-35.117177l-3.312941 0.210823a26.352941 26.352941 0 0 0 3.312941 52.495059h35.117177l3.312941-0.210823a26.352941 26.352941 0 0 0-3.312941-52.495059z m228.412235 0h-123.000471l-3.312941 0.210823a26.352941 26.352941 0 0 0 3.312941 52.495059h123.000471l3.312941-0.210823a26.352941 26.352941 0 0 0-3.312941-52.495059z" fill="#568af2" /></svg>