<svg class="icon" style="width: 1em;height: 1em;vertical-align: middle;fill: currentColor;overflow: hidden;" viewBox="0 0 1024 1024" version="1.1" xmlns="http://www.w3.org/2000/svg" width="32" height="32"><path d="M498.206118 120.470588c208.594824 0 377.705412 169.110588 377.705411 377.73553 0 208.594824-169.110588 377.705412-377.705411 377.705411C289.581176 875.911529 120.470588 706.800941 120.470588 498.206118 120.470588 289.581176 289.581176 120.470588 498.206118 120.470588z m141.613176 236.122353a26.352941 26.352941 0 0 0-37.285647 0l-245.940706 245.940706-2.379294 2.710588a26.352941 26.352941 0 0 0 39.634824 34.575059l245.970823-245.970823 2.349177-2.710589a26.352941 26.352941 0 0 0-2.349177-34.544941z m-37.857882 208.444235a26.352941 26.352941 0 0 0-34.544941 39.634824l35.117176 35.147294 2.710588 2.349177a26.352941 26.352941 0 0 0 34.575059-39.634824l-35.147294-35.117176z m-210.82353-210.823529a26.352941 26.352941 0 0 0-34.544941 39.634824l35.117177 35.147294 2.710588 2.349176a26.352941 26.352941 0 0 0 34.575059-39.634823l-35.147294-35.117177z" fill="#568af2" /></svg>