<svg class="icon" style="width: 1em;height: 1em;vertical-align: middle;fill: currentColor;overflow: hidden;" viewBox="0 0 1024 1024" version="1.1" xmlns="http://www.w3.org/2000/svg" width="32" height="32"><path d="M207.058824 120.470588c13.432471 0 24.515765 10.059294 26.142117 23.04l0.210824 3.312941v702.735059a26.352941 26.352941 0 0 1-52.495059 3.312941L180.705882 849.558588V146.823529C180.705882 132.276706 192.512 120.470588 207.058824 120.470588zM769.264941 120.470588c13.432471 0 24.515765 10.059294 26.142118 23.04l0.210823 3.312941v70.264471a26.352941 26.352941 0 0 1-52.525176 3.312941l-0.180706-3.312941V146.823529c0-14.546824 11.776-26.352941 26.352941-26.352941zM769.264941 436.705882c13.432471 0 24.515765 10.059294 26.142118 23.04l0.210823 3.312942v70.26447a26.352941 26.352941 0 0 1-52.525176 3.312941l-0.180706-3.312941v-70.26447c0-14.546824 11.776-26.352941 26.352941-26.352942zM769.264941 752.941176c13.432471 0 24.515765 10.059294 26.142118 23.04l0.210823 3.312942v70.26447a26.352941 26.352941 0 0 1-52.525176 3.312941l-0.180706-3.312941v-70.26447c0-14.546824 11.776-26.352941 26.352941-26.352942zM839.529412 313.735529a26.352941 26.352941 0 0 1 3.312941 52.495059l-3.312941 0.210824H347.617882a26.352941 26.352941 0 0 1-3.312941-52.525177l3.312941-0.180706h491.91153zM839.529412 629.970824a26.352941 26.352941 0 0 1 3.312941 52.495058l-3.312941 0.210824H347.617882a26.352941 26.352941 0 0 1-3.312941-52.525177l3.312941-0.180705h491.91153z" fill="#568af2" /></svg>