<svg class="icon" style="width: 1em;height: 1em;vertical-align: middle;fill: currentColor;overflow: hidden;" viewBox="0 0 1024 1024" version="1.1" xmlns="http://www.w3.org/2000/svg" width="32" height="32"><path d="M786.823529 180.705882a79.058824 79.058824 0 0 1 79.058824 79.058824v527.058823a79.058824 79.058824 0 0 1-79.058824 79.058824h-527.058823A79.058824 79.058824 0 0 1 180.705882 786.823529v-527.058823A79.058824 79.058824 0 0 1 259.764706 180.705882z m-228.382117 368.941177h-210.82353l-3.312941 0.210823a26.352941 26.352941 0 0 0 3.312941 52.495059h210.82353l3.312941-0.210823a26.352941 26.352941 0 0 0-3.312941-52.495059z m140.528941-122.970353H347.617882l-3.312941 0.180706a26.352941 26.352941 0 0 0 3.312941 52.525176h351.352471l3.312941-0.210823a26.352941 26.352941 0 0 0-3.312941-52.495059z" fill="#568af2" /></svg>