<svg class="icon" style="width: 1em;height: 1em;vertical-align: middle;fill: currentColor;overflow: hidden;" viewBox="0 0 1024 1024" version="1.1" xmlns="http://www.w3.org/2000/svg" width="32" height="32"><path d="M786.823529 180.705882a79.058824 79.058824 0 0 1 79.058824 79.058824v527.058823a79.058824 79.058824 0 0 1-79.058824 79.058824h-527.058823A79.058824 79.058824 0 0 1 180.705882 786.823529v-527.058823A79.058824 79.058824 0 0 1 259.764706 180.705882z m-228.382117 544.617412l3.312941-0.180706a26.352941 26.352941 0 0 0-3.312941-52.525176h-8.794353v-254.735059l-0.210824-3.312941a26.202353 26.202353 0 0 0-1.295059-5.51153l89.328942 0.030118v26.352941l0.210823 3.312941a26.352941 26.352941 0 0 0 52.525177-3.312941v-52.705882l-0.210824-3.312941a26.352941 26.352941 0 0 0-26.142118-23.04h-281.118117l-3.312941 0.210823a26.352941 26.352941 0 0 0-23.04 26.142118v52.705882l0.210823 3.312941a26.352941 26.352941 0 0 0 26.142118 23.04l3.312941-0.180706a26.352941 26.352941 0 0 0 23.04-26.172235v-26.352941h89.359059a26.322824 26.322824 0 0 0-1.505883 8.794353v254.735059h-8.794352l-3.312942 0.210823a26.352941 26.352941 0 0 0 3.312942 52.495059h70.294588z" fill="#568af2" /></svg>