<svg class="icon" style="width: 1em;height: 1em;vertical-align: middle;fill: currentColor;overflow: hidden;" viewBox="0 0 1024 1024" version="1.1" xmlns="http://www.w3.org/2000/svg" width="32" height="32"><path d="M458.029176 150.588235c13.432471 0 24.545882 10.059294 26.172236 23.04l0.180706 3.312941v131.764706h166.912c13.432471 0 24.515765 10.059294 26.142117 23.04l0.210824 3.312942v202.029176h166.912c13.432471 0 24.515765 10.059294 26.142117 23.070118l0.210824 3.312941v281.088a26.352941 26.352941 0 0 1-23.070118 26.142117l-3.312941 0.210824h-281.088a26.352941 26.352941 0 0 1-26.142117-23.070118l-0.210824-3.312941V677.647059h-202.029176a26.352941 26.352941 0 0 1-26.142118-23.04l-0.210824-3.312941v-166.912H176.941176a26.352941 26.352941 0 0 1-26.142117-23.04L150.588235 458.029176V176.941176c0-13.432471 10.059294-24.515765 23.04-26.142117L176.941176 150.588235h281.088z m360.146824 439.205647H677.647059v61.500236a26.352941 26.352941 0 0 1-23.04 26.142117l-3.312941 0.210824h-61.500236v140.528941h228.382118v-228.382118zM431.676235 203.294118H203.294118v228.382117h105.411764v-96.617411c0-13.432471 10.059294-24.515765 23.04-26.142118l3.312942-0.210824h96.617411v-105.411764z" fill="#568af2" /></svg>