<svg class="icon" style="width: 1em;height: 1em;vertical-align: middle;fill: currentColor;overflow: hidden;" viewBox="0 0 1024 1024" version="1.1" xmlns="http://www.w3.org/2000/svg" width="32" height="32"><path d="M839.529412 273.558588a26.352941 26.352941 0 0 1 3.312941 52.525177l-3.312941 0.180706h-63.156706l-33.520941 519.981176a26.352941 26.352941 0 0 1-23.130353 24.455529l-3.162353 0.210824H330.029176a26.352941 26.352941 0 0 1-25.901176-21.534118l-0.391529-3.132235-33.551059-519.981176H207.058824a26.352941 26.352941 0 0 1-3.312942-52.495059l3.312942-0.210824h135.890823l17.347765-101.074823a26.352941 26.352941 0 0 1 22.497882-21.684706L386.258824 150.588235h274.070588c11.655529 0 21.805176 7.649882 25.178353 18.552471l0.783059 3.343059 17.317647 101.074823h135.920941zM611.147294 677.647059h-175.706353l-3.312941 0.210823a26.352941 26.352941 0 0 0 0 52.284236l3.312941 0.210823h175.706353l3.312941-0.210823a26.352941 26.352941 0 0 0-3.312941-52.495059z m26.955294-474.352941h-229.647059l-12.047058 70.26447h253.711058l-12.016941-70.26447z" fill="#568af2" /></svg>