<svg class="icon" style="width: 1em;height: 1em;vertical-align: middle;fill: currentColor;overflow: hidden;" viewBox="0 0 1024 1024" version="1.1" xmlns="http://www.w3.org/2000/svg" width="32" height="32"><path d="M681.411765 180.705882c13.432471 0 24.515765 10.059294 26.142117 23.04l0.210824 3.312942v131.764705h131.764706c13.432471 0 24.515765 10.059294 26.142117 23.04l0.210824 3.312942a26.352941 26.352941 0 0 1-23.04 26.142117l-3.312941 0.210824h-158.117647a26.352941 26.352941 0 0 1-26.142118-23.04l-0.210823-3.312941v-158.117647c0-14.546824 11.806118-26.352941 26.352941-26.352942zM365.176471 180.705882c13.432471 0 24.515765 10.059294 26.142117 23.04l0.210824 3.312942v158.117647a26.352941 26.352941 0 0 1-23.04 26.142117l-3.312941 0.210824h-158.117647a26.352941 26.352941 0 0 1-3.312942-52.495059l3.312942-0.210824h131.764705V207.058824c0-13.432471 10.059294-24.515765 23.04-26.142118l3.312942-0.210824zM365.176471 655.058824c13.432471 0 24.515765 10.059294 26.142117 23.04l0.210824 3.312941v158.117647a26.352941 26.352941 0 0 1-52.495059 3.312941l-0.210824-3.312941V707.764706H207.058824a26.352941 26.352941 0 0 1-26.142118-23.04L180.705882 681.411765c0-13.432471 10.059294-24.515765 23.04-26.142118l3.312942-0.210823h158.117647zM837.752471 655.058824a26.352941 26.352941 0 0 1 3.312941 52.495058l-3.312941 0.210824H707.764706v131.764706a26.352941 26.352941 0 0 1-23.04 26.142117l-3.312941 0.210824a26.352941 26.352941 0 0 1-26.142118-23.04l-0.210823-3.312941v-158.117647c0-13.432471 10.059294-24.515765 23.04-26.142118l3.312941-0.210823h156.340706z" fill="#568af2" /></svg>