<svg class="icon" style="width: 1em;height: 1em;vertical-align: middle;fill: currentColor;overflow: hidden;" viewBox="0 0 1024 1024" version="1.1" xmlns="http://www.w3.org/2000/svg" width="32" height="32"><path d="M386.499765 124.235294a26.352941 26.352941 0 1 1 0 52.705882c-34.996706 0-59.301647 17.076706-61.349647 56.018824l-0.120471 5.481412v158.117647c0 31.834353-18.944 58.307765-49.332706 81.046588l-5.842823 4.216471-3.794824 2.56 3.794824 2.590117c31.804235 22.256941 52.615529 48.188235 54.934588 79.36l0.240941 5.903059v193.264941l0.120471 5.421177c2.048 38.972235 26.352941 56.048941 61.349647 56.048941a26.352941 26.352941 0 0 1 0 52.705882c-60.988235 0-110.983529-36.050824-114.025412-107.218823l-0.150588-6.957177V572.235294c0-12.257882-11.595294-27.316706-32.677647-42.10447a214.497882 214.497882 0 0 0-26.895059-15.841883l-8.252235-3.945412-3.46353-1.505882c-22.076235-8.824471-22.076235-40.056471 0-48.911059l5.842824-2.56 5.872941-2.861176c9.216-4.608 18.432-9.938824 26.895059-15.872 19.335529-13.552941 30.659765-27.316706 32.436706-38.972236l0.240941-3.102117v-158.117647c0-75.776 51.230118-114.206118 114.176-114.206118zM667.617882 124.235294c60.988235 0 110.983529 36.080941 114.025412 107.218824l0.150588 6.987294v158.117647c0 12.257882 11.595294 27.316706 32.677647 42.074353 8.463059 5.933176 17.679059 11.264 26.895059 15.872l10.24 4.818823 1.475765 0.602353c20.931765 8.372706 22.016 36.864 3.312941 47.344941l-11.926588 5.481412a214.497882 214.497882 0 0 0-29.997177 17.408c-19.335529 13.522824-30.659765 27.286588-32.436705 38.942118l-0.240942 3.132235v193.264941l-0.150588 6.987294c-3.041882 71.137882-53.037176 107.218824-114.025412 107.218824a26.352941 26.352941 0 1 1 0-52.705882c34.996706 0 59.301647-17.106824 61.349647-56.048942l0.120471-5.451294V572.235294c0-31.864471 18.944-58.337882 49.332706-81.046588l5.842823-4.216471 3.764706-2.590117-3.764706-2.56c-31.804235-22.287059-52.615529-48.188235-54.934588-79.36l-0.240941-5.903059v-158.117647c0-42.827294-24.877176-61.500235-61.470118-61.500236a26.352941 26.352941 0 1 1 0-52.705882z" fill="#568af2" /></svg>