<svg class="icon" style="width: 1em;height: 1em;vertical-align: middle;fill: currentColor;overflow: hidden;" viewBox="0 0 1024 1024" version="1.1" xmlns="http://www.w3.org/2000/svg" width="32" height="32"><path d="M786.823529 180.705882a79.058824 79.058824 0 0 1 79.058824 79.058824v527.058823a79.058824 79.058824 0 0 1-79.058824 79.058824h-527.058823A79.058824 79.058824 0 0 1 180.705882 786.823529v-527.058823A79.058824 79.058824 0 0 1 259.764706 180.705882z m-81.438117 176.489412a26.352941 26.352941 0 0 0-31.984941 19.154824l-52.133647 208.50447-74.059295-160.436706-1.716705-3.222588a26.352941 26.352941 0 0 0-46.110118 3.222588l-74.089412 160.436706-52.103529-208.50447-1.024-3.162353a26.352941 26.352941 0 0 0-50.115765 15.962353l70.264471 281.088 1.054117 3.312941c8.071529 21.082353 38.520471 22.859294 48.429177 1.325176l81.498353-176.549647 81.498353 176.549647 1.626353 3.072c11.866353 19.184941 42.104471 15.269647 47.856941-7.710117l70.26447-281.088 0.602353-3.282824a26.352941 26.352941 0 0 0-19.757176-28.702118z" fill="#568af2" /></svg>