<svg class="icon" style="width: 1em;height: 1em;vertical-align: middle;fill: currentColor;overflow: hidden;" viewBox="0 0 1024 1024" version="1.1" xmlns="http://www.w3.org/2000/svg" width="32" height="32"><path d="M814.441412 180.705882h-632.470588A61.500235 61.500235 0 0 0 120.470588 242.206118v527.058823c0 33.942588 27.527529 61.470118 61.500236 61.470118h632.470588a61.500235 61.500235 0 0 0 61.470117-61.470118v-527.058823A61.500235 61.500235 0 0 0 814.441412 180.705882z m-488.658824 197.451294a26.352941 26.352941 0 0 1 40.448 18.944l0.210824 3.222589v210.823529a26.352941 26.352941 0 0 1-52.525177 3.312941l-0.180706-3.312941-0.030117-162.514823-29.605647 19.154823a26.352941 26.352941 0 0 1-34.484706-5.210353l-1.957647-2.650353a26.352941 26.352941 0 0 1 5.210353-34.454588l2.650353-1.987765 70.26447-45.327059z m233.893647 22.166589c0-24.937412 30.960941-35.388235 46.290824-17.28753l1.987765 2.650353 92.28047 138.420706v-123.783529c0-13.432471 10.059294-24.545882 23.04-26.172236l3.312941-0.180705c13.432471 0 24.515765 10.029176 26.142118 23.04l0.210823 3.312941v210.823529c0 24.937412-30.930824 35.388235-46.290823 17.257412l-1.987765-2.650353-92.28047-138.390588v123.783529a26.352941 26.352941 0 0 1-23.04 26.142118l-3.312942 0.210823a26.352941 26.352941 0 0 1-26.142117-23.070117l-0.210824-3.312942v-210.823529z m-96.617411 8.764235c13.432471 0 24.515765 10.059294 26.142117 23.070118l0.210824 3.312941v17.558588a26.352941 26.352941 0 0 1-52.495059 3.312941l-0.210824-3.312941v-17.588706c0-14.546824 11.806118-26.352941 26.352942-26.352941z m0 123.000471c13.432471 0 24.515765 10.029176 26.142117 23.04l0.210824 3.312941v17.558588a26.352941 26.352941 0 0 1-52.495059 3.312941l-0.210824-3.312941v-17.558588c0-14.576941 11.806118-26.352941 26.352942-26.352941z" fill="#568af2" /></svg>