<svg class="icon" style="width: 1em;height: 1em;vertical-align: middle;fill: currentColor;overflow: hidden;" viewBox="0 0 1024 1024" version="1.1" xmlns="http://www.w3.org/2000/svg" width="32" height="32"><path d="M865.882353 391.529412v395.294117a79.058824 79.058824 0 0 1-79.058824 79.058824h-527.058823A79.058824 79.058824 0 0 1 180.705882 786.823529V391.529412h685.176471z m-430.441412 95.533176v213.022118a26.352941 26.352941 0 0 0 39.544471 22.799059l184.470588-106.496a26.352941 26.352941 0 0 0 0-45.628236l-184.470588-106.526117a26.352941 26.352941 0 0 0-39.544471 22.829176zM786.823529 180.705882a79.058824 79.058824 0 0 1 79.058824 79.058824v79.058823h-240.670118l105.411765-158.117647zM456.643765 180.705882l-105.592471 158.117647H180.705882V259.764706A79.058824 79.058824 0 0 1 259.764706 180.705882h196.879059z m105.231059 158.117647h-147.486118l105.411765-158.117647h147.666823l-105.59247 158.117647z" fill="#568af2" /></svg>