<svg class="icon" style="width: 1em;height: 1em;vertical-align: middle;fill: currentColor;overflow: hidden;" viewBox="0 0 1024 1024" version="1.1" xmlns="http://www.w3.org/2000/svg" width="32" height="32"><path d="M539.226353 572.566588a26.352941 26.352941 0 0 0-34.575059 2.379294l-70.26447 70.264471-2.349177 2.710588a26.352941 26.352941 0 0 0 2.349177 34.544941l2.710588 2.379294a26.352941 26.352941 0 0 0 34.544941-2.379294l51.621647-51.621647 51.681882 51.621647 2.710589 2.379294a26.352941 26.352941 0 0 0 34.544941-39.634823l-70.264471-70.264471zM180.705882 259.764706A79.058824 79.058824 0 0 1 259.764706 180.705882h527.058823a79.058824 79.058824 0 0 1 79.058824 79.058824v527.058823a79.058824 79.058824 0 0 1-79.058824 79.058824h-527.058823A79.058824 79.058824 0 0 1 180.705882 786.823529V409.088h685.116236v-52.705882H180.736z" fill="#568af2" /></svg>