<svg class="icon" style="width: 1em;height: 1em;vertical-align: middle;fill: currentColor;overflow: hidden;" viewBox="0 0 1024 1024" version="1.1" xmlns="http://www.w3.org/2000/svg" width="32" height="32"><path d="M839.529412 210.823529a26.352941 26.352941 0 0 1 3.312941 52.495059l-3.312941 0.210824h-316.235294a26.352941 26.352941 0 0 1-3.312942-52.495059l3.312942-0.210824h316.235294zM839.529412 386.499765a26.352941 26.352941 0 0 1 3.312941 52.525176l-3.312941 0.180706h-316.235294a26.352941 26.352941 0 0 1-3.312942-52.495059l3.312942-0.210823h316.235294zM839.529412 562.206118a26.352941 26.352941 0 0 1 3.312941 52.495058l-3.312941 0.210824h-632.470588a26.352941 26.352941 0 0 1-3.312942-52.525176l3.312942-0.180706h632.470588zM839.529412 737.882353a26.352941 26.352941 0 0 1 3.312941 52.495059l-3.312941 0.210823h-632.470588a26.352941 26.352941 0 0 1-3.312942-52.495059l3.312942-0.210823h632.470588z" fill="#568af2" /><path d="M316.596706 222.177882l1.867294 3.222589 87.853176 175.676235a26.352941 26.352941 0 0 1-45.477647 26.443294l-1.65647-2.861176-10.300235-20.600471H240.880941l-10.24 20.600471a26.352941 26.352941 0 0 1-48.429176-20.540236l1.295059-3.041882 87.823058-175.676235a26.352941 26.352941 0 0 1 45.266824-3.222589z m-21.684706 73.878589l-27.678118 55.296h55.296L294.881882 296.056471z" fill="#568af2" /></svg>