<svg class="icon" style="width: 1em;height: 1em;vertical-align: middle;fill: currentColor;overflow: hidden;" viewBox="0 0 1024 1024" version="1.1" xmlns="http://www.w3.org/2000/svg" width="32" height="32"><path d="M312.470588 140.016941c3.463529-12.980706 16.052706-21.082353 29.033412-19.275294l3.222588 0.632471 475.166118 127.307294c12.980706 3.493647 21.082353 16.082824 19.275294 29.033412l-0.632471 3.252705-32.015058 119.416471a26.352941 26.352941 0 0 1-51.561412-10.390588l0.662588-3.252706 25.178353-93.967059-424.267294-113.694118-59.27153 221.304471a26.352941 26.352941 0 0 1-29.033411 19.275294l-3.252706-0.63247a26.352941 26.352941 0 0 1-19.275294-29.033412l0.662588-3.252706 66.108235-246.723765zM699.120941 597.534118a26.352941 26.352941 0 0 1 51.59153 10.390588l-0.662589 3.252706-66.108235 246.753882a26.352941 26.352941 0 0 1-29.033412 19.275294l-3.252706-0.662588L176.489412 749.266824a26.352941 26.352941 0 0 1-19.275294-29.033412l0.63247-3.252706 32.015059-119.416471a26.352941 26.352941 0 0 1 51.561412 10.390589l-0.662588 3.252705-25.178353 93.967059 424.237176 113.664 59.331765-221.274353zM849.558588 472.636235a26.352941 26.352941 0 0 1 3.312941 52.495059l-3.312941 0.210824H146.823529a26.352941 26.352941 0 0 1-3.312941-52.525177l3.312941-0.180706h702.735059z" fill="#568af2" /></svg>