<svg class="icon" style="width: 1em;height: 1em;vertical-align: middle;fill: currentColor;overflow: hidden;" viewBox="0 0 1024 1024" version="1.1" xmlns="http://www.w3.org/2000/svg" width="32" height="32"><path d="M761.976471 155.858824a26.352941 26.352941 0 0 1 34.454588 2.439529l66.740706 66.770823a26.352941 26.352941 0 0 1 2.469647 34.454589l-38.219294 50.928941L865.641412 361.411765c6.234353 8.342588 6.927059 19.425882 2.078117 28.370823l-2.108235 3.252706-38.189176 50.928941 38.219294 50.959059c6.234353 8.342588 6.927059 19.456 2.078117 28.400941l-2.108235 3.222589-38.189176 50.959058 38.219294 50.959059c6.234353 8.312471 6.927059 19.425882 2.078117 28.370824l-2.108235 3.252706-38.189176 50.928941 38.219294 50.959059a26.352941 26.352941 0 0 1-0.120471 31.804235l-2.349176 2.650353-66.740706 66.740706a26.352941 26.352941 0 0 1-34.454588 2.469647l-50.959059-38.219294-50.928941 38.219294a26.352941 26.352941 0 0 1-28.400942 2.078117l-3.222588-2.108235-50.959059-38.189176-50.959058 38.219294a26.352941 26.352941 0 0 1-28.370824 2.078117l-3.252706-2.108235-50.959059-38.189176-50.928941 38.219294a26.352941 26.352941 0 0 1-28.370823 2.078117L361.411765 865.581176l-50.959059-38.189176-50.928941 38.219294a26.352941 26.352941 0 0 1-31.804236-0.12047l-2.650353-2.349177-66.770823-66.740706a26.352941 26.352941 0 0 1-2.439529-34.454588l38.219294-50.959059-38.219294-50.928941a26.352941 26.352941 0 0 1-2.108236-28.400941l2.108236-3.222588 38.189176-50.959059-38.189176-50.959059a26.352941 26.352941 0 0 1-2.108236-28.370824l2.108236-3.252706 38.189176-50.959058-38.189176-50.928942a26.352941 26.352941 0 0 1-2.108236-28.370823l2.108236-3.252706 38.189176-50.959059-38.189176-50.928941a26.352941 26.352941 0 0 1 0.12047-31.804235l2.319059-2.650353 66.770823-66.770824a26.352941 26.352941 0 0 1 34.454589-2.439529l50.928941 38.189176L361.411765 155.858824a26.352941 26.352941 0 0 1 28.370823-2.108236l3.252706 2.108236 50.928941 38.189176 50.959059-38.189176a26.352941 26.352941 0 0 1 28.400941-2.108236l3.222589 2.108236 50.959058 38.189176 50.959059-38.189176a26.352941 26.352941 0 0 1 28.370824-2.108236l3.252706 2.108236 50.928941 38.219294z m-251.241412 170.405647a184.470588 184.470588 0 1 0 0 368.941176 184.470588 184.470588 0 0 0 0-368.941176z" fill="#568af2" /></svg>