<svg class="icon" style="width: 1em;height: 1em;vertical-align: middle;fill: currentColor;overflow: hidden;" viewBox="0 0 1024 1024" version="1.1" xmlns="http://www.w3.org/2000/svg" width="32" height="32"><path d="M250.970353 676.382118a96.617412 96.617412 0 1 0 0 193.264941 96.617412 96.617412 0 0 0 0-193.264941z m0-491.91153a96.617412 96.617412 0 1 0 0 193.264941 96.617412 96.617412 0 0 0 0-193.264941z m0 245.970824a96.617412 96.617412 0 1 0 0 193.234823 96.617412 96.617412 0 0 0 0-193.234823z m597.353412 70.26447a26.352941 26.352941 0 0 1 3.312941 52.495059l-3.312941 0.210824H461.793882a26.352941 26.352941 0 0 1-3.312941-52.495059l3.312941-0.210824h386.529883z m0 245.970824a26.352941 26.352941 0 0 1 3.312941 52.495059l-3.312941 0.210823H461.793882a26.352941 26.352941 0 0 1-3.312941-52.525176l3.312941-0.180706h386.529883z m0-491.941647a26.352941 26.352941 0 0 1 3.312941 52.525176l-3.312941 0.180706H461.793882a26.352941 26.352941 0 0 1-3.312941-52.495059l3.312941-0.210823h386.529883z" fill="#568af2" /></svg>