<svg class="icon" style="width: 1em;height: 1em;vertical-align: middle;fill: currentColor;overflow: hidden;" viewBox="0 0 1024 1024" version="1.1" xmlns="http://www.w3.org/2000/svg" width="32" height="32"><path d="M365.176471 646.264471v228.412235H215.853176A61.500235 61.500235 0 0 1 154.352941 813.176471v-166.912h210.82353z m228.382117 0v228.412235h-175.676235v-228.412235h175.676235z m281.118118 0V813.176471A61.500235 61.500235 0 0 1 813.176471 874.676706h-166.912v-228.412235h228.412235z m-509.500235-210.82353v158.117647h-210.82353v-158.117647h210.82353z m228.382117 0v158.117647h-175.676235v-158.117647h175.676235z m281.118118 0v158.117647h-228.412235v-158.117647h228.412235zM813.176471 154.352941c33.972706 0 61.500235 27.527529 61.500235 61.500235v166.881883h-228.412235V154.352941z m-448 0v228.382118h-210.82353V215.853176c0-33.972706 27.527529-61.500235 61.500235-61.500235h149.323295z m228.382117 228.382118h-175.676235V154.352941h175.676235v228.382118z" fill="#568af2" /></svg>