<svg class="icon" style="width: 1em;height: 1em;vertical-align: middle;fill: currentColor;overflow: hidden;" viewBox="0 0 1024 1024" version="1.1" xmlns="http://www.w3.org/2000/svg" width="32" height="32"><path d="M839.529412 215.009882a26.352941 26.352941 0 0 1 3.312941 52.495059l-3.312941 0.210824h-316.235294a26.352941 26.352941 0 0 1-3.312942-52.525177l3.312942-0.180706h316.235294z m0 175.676236a26.352941 26.352941 0 0 1 3.312941 52.495058l-3.312941 0.210824h-316.235294a26.352941 26.352941 0 0 1-3.312942-52.495059l3.312942-0.210823h316.235294z m0 175.676235a26.352941 26.352941 0 0 1 3.312941 52.495059l-3.312941 0.210823h-632.470588a26.352941 26.352941 0 0 1-3.312942-52.495059l3.312942-0.210823h632.470588z m0 175.706353a26.352941 26.352941 0 0 1 3.312941 52.495059l-3.312941 0.210823h-632.470588a26.352941 26.352941 0 0 1-3.312942-52.525176l3.312942-0.180706h632.470588zM180.705882 254.795294V403.576471a43.911529 43.911529 0 0 0 66.529883 37.647058l123.964235-74.390588a43.911529 43.911529 0 0 0 0-75.294117L247.235765 217.148235A43.911529 43.911529 0 0 0 180.705882 254.795294z" fill="#568af2" /></svg>