<svg class="icon" style="width: 1em;height: 1em;vertical-align: middle;fill: currentColor;overflow: hidden;" viewBox="0 0 1024 1024" version="1.1" xmlns="http://www.w3.org/2000/svg" width="32" height="32"><path d="M0 0h1024v1024H0z" fill="#568af2" fill-opacity="0" /><path d="M839.529412 210.823529a26.352941 26.352941 0 0 1 3.312941 52.495059l-3.312941 0.210824H233.411765v509.470117h606.117647c13.432471 0 24.515765 10.059294 26.142117 23.070118l0.210824 3.312941a26.352941 26.352941 0 0 1-23.04 26.142118l-3.312941 0.210823h-632.470588a26.352941 26.352941 0 0 1-26.142118-23.070117L180.705882 799.352471V237.206588c0-13.432471 10.059294-24.515765 23.04-26.142117L207.058824 210.823529h632.470588z" fill="#568af2" /><path d="M523.294118 439.205647a79.058824 79.058824 0 1 0 0 158.117647 79.058824 79.058824 0 0 0 0-158.117647z m0 52.705882a26.352941 26.352941 0 1 1 0 52.705883 26.352941 26.352941 0 0 1 0-52.705883z" fill="#568af2" /><path d="M839.529412 491.911529a26.352941 26.352941 0 0 1 3.312941 52.525177l-3.312941 0.180706h-263.529412a26.352941 26.352941 0 0 1-3.312941-52.495059l3.312941-0.210824h263.529412z" fill="#568af2" /></svg>