<svg class="icon" style="width: 1em;height: 1em;vertical-align: middle;fill: currentColor;overflow: hidden;" viewBox="0 0 1024 1024" version="1.1" xmlns="http://www.w3.org/2000/svg" width="32" height="32"><path d="M483.147294 120.470588a114.206118 114.206118 0 0 0-114.206118 114.206118v175.676235a114.206118 114.206118 0 0 0 228.382118 0V234.676706A114.206118 114.206118 0 0 0 483.147294 120.470588z m71.318588 499.651765c9.456941 9.426824 10.24 24.214588 2.379294 34.544941l-2.379294 2.710588-60.416 60.416h305.332706a26.352941 26.352941 0 0 1 3.312941 52.525177l-3.312941 0.180706H494.049882l60.416 60.446117c9.456941 9.426824 10.24 24.214588 2.379294 34.544942l-2.379294 2.710588a26.352941 26.352941 0 0 1-34.544941 2.349176l-2.710588-2.349176-105.411765-105.411765-0.63247-0.662588a26.503529 26.503529 0 0 1-1.114353-1.264941l1.746823 1.927529a26.563765 26.563765 0 0 1-7.710117-18.642823 26.292706 26.292706 0 0 1 5.360941-15.932236l0.602353-0.783059a26.503529 26.503529 0 0 1 1.114353-1.234823l0.602353-0.662588 105.411764-105.411765a26.352941 26.352941 0 0 1 37.285647 0z m-299.730823-148.269177a26.352941 26.352941 0 0 1 3.312941 52.495059l-3.312941 0.210824h-17.558588a26.352941 26.352941 0 0 1-3.312942-52.525177l3.312942-0.180706h17.558588z" fill="#568af2" /></svg>