<svg class="icon" style="width: 1em;height: 1em;vertical-align: middle;fill: currentColor;overflow: hidden;" viewBox="0 0 1024 1024" version="1.1" xmlns="http://www.w3.org/2000/svg" width="32" height="32"><path d="M189.500235 214.588235c13.432471 0 24.515765 10.059294 26.142118 23.04l0.210823 3.312941v562.206118a26.352941 26.352941 0 0 1-52.525176 3.312941l-0.180706-3.312941V240.941176c0-14.546824 11.776-26.352941 26.352941-26.352941zM505.735529 214.588235c13.432471 0 24.515765 10.059294 26.142118 23.04l0.210824 3.312941v562.206118a26.352941 26.352941 0 0 1-52.525177 3.312941l-0.180706-3.312941V240.941176c0-14.546824 11.776-26.352941 26.352941-26.352941z" fill="#568af2" /><path d="M488.146824 495.676235a26.352941 26.352941 0 0 1 3.312941 52.525177l-3.312941 0.180706H207.058824a26.352941 26.352941 0 0 1-3.312942-52.495059l3.312942-0.210824h281.088zM734.117647 425.411765c60.265412 0 114.206118 48.067765 114.206118 114.206117 0 40.96-16.263529 71.860706-56.982589 115.681883l-11.715764 12.318117-12.950588 13.040942-42.646589 41.441882-6.354823 6.475294c-17.468235 18.010353-29.515294 33.129412-36.74353 46.381176l-0.963764 1.807059h142.004706c13.432471 0 24.515765 10.059294 26.142117 23.070118l0.210824 3.312941a26.352941 26.352941 0 0 1-23.070118 26.142118l-3.312941 0.210823h-175.676235a26.352941 26.352941 0 0 1-26.352942-26.352941c0-35.297882 17.709176-66.258824 53.097412-104.086588l13.552941-14.064941 42.164706-40.96 11.595294-11.65553 10.330353-10.842353 9.155765-10.089411c25.690353-29.274353 35.809882-49.844706 35.809882-71.830589a61.44 61.44 0 0 0-61.500235-61.500235 61.44 61.44 0 0 0-61.500235 61.500235 26.352941 26.352941 0 0 1-52.705883 0c0-66.138353 53.910588-114.206118 114.206118-114.206117z" fill="#568af2" /></svg>