<svg class="icon" style="width: 1em;height: 1em;vertical-align: middle;fill: currentColor;overflow: hidden;" viewBox="0 0 1024 1024" version="1.1" xmlns="http://www.w3.org/2000/svg" width="32" height="32"><path d="M207.058824 225.882353c13.432471 0 24.515765 10.059294 26.142117 23.04l0.210824 3.312941v491.91153a26.352941 26.352941 0 0 1-52.495059 3.312941L180.705882 744.146824V252.235294c0-14.546824 11.806118-26.352941 26.352942-26.352941zM488.146824 120.470588c13.432471 0 24.545882 10.059294 26.172235 23.04l0.180706 3.312941v210.82353a26.352941 26.352941 0 0 1-52.495059 3.312941l-0.210824-3.312941v-210.82353c0-14.546824 11.806118-26.352941 26.352942-26.352941zM804.382118 471.853176a26.352941 26.352941 0 0 1 3.312941 52.495059l-3.312941 0.210824H347.617882a26.352941 26.352941 0 0 1-3.312941-52.525177l3.312941-0.180706h456.764236z" fill="#568af2" /><path d="M698.849882 391.951059a26.352941 26.352941 0 0 1 34.575059-2.409412l2.710588 2.319059 88.485647 88.094118a26.352941 26.352941 0 0 1 2.499765 34.514823l-2.349176 2.710588-88.485647 89.539765a26.352941 26.352941 0 0 1-39.845647-34.334118l2.349176-2.710588 69.993412-70.896941-69.842824-69.571765a26.352941 26.352941 0 0 1-2.409411-34.544941l2.319058-2.710588zM488.146824 612.382118c13.432471 0 24.545882 10.059294 26.172235 23.070117l0.180706 3.312941v210.82353a26.352941 26.352941 0 0 1-52.495059 3.312941l-0.210824-3.312941v-210.82353c0-14.576941 11.806118-26.383059 26.352942-26.383058z" fill="#568af2" /></svg>