<svg class="icon" style="width: 1em;height: 1em;vertical-align: middle;fill: currentColor;overflow: hidden;" viewBox="0 0 1024 1024" version="1.1" xmlns="http://www.w3.org/2000/svg" width="32" height="32"><path d="M848.323765 499.440941a26.352941 26.352941 0 0 1 3.312941 52.525177l-3.312941 0.180706h-316.235294a26.352941 26.352941 0 0 1-3.312942-52.495059l3.312942-0.210824h316.235294zM391.529412 499.440941a26.352941 26.352941 0 0 1 3.312941 52.525177l-3.312941 0.180706h-70.264471a26.352941 26.352941 0 0 1-3.312941-52.495059l3.312941-0.210824H391.529412zM848.323765 745.411765a26.352941 26.352941 0 0 1 3.312941 52.495059l-3.312941 0.210823H391.529412a26.352941 26.352941 0 0 1-3.312941-52.495059l3.312941-0.210823h456.794353zM250.970353 745.411765a26.352941 26.352941 0 0 1 3.312941 52.495059l-3.312941 0.210823H180.705882a26.352941 26.352941 0 0 1-3.312941-52.495059L180.705882 745.411765h70.264471zM848.323765 253.500235a26.352941 26.352941 0 0 1 3.312941 52.495059l-3.312941 0.210824H391.529412a26.352941 26.352941 0 0 1-3.312941-52.525177l3.312941-0.180706h456.794353zM250.970353 253.500235a26.352941 26.352941 0 0 1 3.312941 52.495059l-3.312941 0.210824H180.705882a26.352941 26.352941 0 0 1-3.312941-52.525177L180.705882 253.500235h70.264471z" fill="#568af2" /></svg>