<svg class="icon" style="width: 1em;height: 1em;vertical-align: middle;fill: currentColor;overflow: hidden;" viewBox="0 0 1024 1024" version="1.1" xmlns="http://www.w3.org/2000/svg" width="32" height="32"><path d="M672.617412 184.470588H391.529412a26.352941 26.352941 0 0 0-26.352941 26.352941v105.411765c0 14.546824 11.806118 26.352941 26.352941 26.352941h281.088a26.352941 26.352941 0 0 0 26.352941-26.352941V210.823529a26.352941 26.352941 0 0 0-26.352941-26.352941z m70.294588 263.529412H391.529412a26.352941 26.352941 0 0 0-26.352941 26.352941v105.411765c0 14.546824 11.806118 26.352941 26.352941 26.352941h351.382588a26.352941 26.352941 0 0 0 26.352941-26.352941v-105.411765a26.352941 26.352941 0 0 0-26.352941-26.352941z m105.411765 263.529412H391.529412a26.352941 26.352941 0 0 0-26.352941 26.352941V843.294118c0 14.546824 11.806118 26.352941 26.352941 26.352941h456.794353a26.352941 26.352941 0 0 0 26.352941-26.352941v-105.411765a26.352941 26.352941 0 0 0-26.352941-26.352941z m-632.470589-509.500236a61.500235 61.500235 0 1 0 0 123.000471 61.500235 61.500235 0 0 0 0-123.000471z m0 263.529412a61.500235 61.500235 0 1 0 0 123.000471 61.500235 61.500235 0 0 0 0-123.000471z m0 263.529412a61.500235 61.500235 0 1 0 0 123.000471 61.500235 61.500235 0 0 0 0-123.000471z" fill="#568af2" /></svg>