<svg class="icon" style="width: 1em;height: 1em;vertical-align: middle;fill: currentColor;overflow: hidden;" viewBox="0 0 1024 1024" version="1.1" xmlns="http://www.w3.org/2000/svg" width="32" height="32"><path d="M498.206118 120.470588c4.608 0 8.944941 1.204706 12.709647 3.282824l1.987764 1.204706 2.710589 2.108235 106.61647 106.526118a26.352941 26.352941 0 0 1-34.544941 39.634823l-2.710588-2.349176-60.446118-60.446118v112.067765a26.352941 26.352941 0 0 1-52.495059 3.312941l-0.180706-3.312941-0.030117-112.067765-60.416 60.446118a26.352941 26.352941 0 0 1-39.604706-34.575059l2.349176-2.710588 105.411765-105.411765 1.505882-1.41553 3.102118-2.258823 1.385412-0.813177 2.710588-1.295058 3.312941-1.084236a26.262588 26.262588 0 0 1 6.625883-0.843294z m0 527.058824c13.432471 0 24.515765 10.059294 26.142117 23.04l0.210824 3.312941-0.030118 112.037647 60.446118-60.385882a26.352941 26.352941 0 0 1 39.634823 34.544941l-2.379294 2.710588-105.411764 105.411765a26.563765 26.563765 0 0 1-3.132236 2.710588l-2.770823 1.746824-3.011765 1.415529-2.620235 0.903529-3.734589 0.722824-3.343058 0.210823a26.503529 26.503529 0 0 1-4.577883-0.391529l-2.770823-0.632471-3.162353-1.14447-3.523765-1.867294-1.897412-1.325177-2.048-1.716706-106.074353-106.014117a26.352941 26.352941 0 0 1 34.575059-39.664941l2.710588 2.379294 60.385883 60.385882v-112.037647c0-14.546824 11.806118-26.352941 26.383059-26.352941z m261.872941-275.727059l2.710588 2.349176 106.827294 106.917647 1.776941 2.349177 1.656471 2.800941 1.024 2.288941a26.262588 26.262588 0 0 1 0 19.395765l-0.963765 2.138353-1.14447 2.017882-1.41553 2.078118-2.349176 2.710588-105.411765 105.411765a26.352941 26.352941 0 0 1-39.634823-34.575059l2.379294-2.710588 60.385882-60.446118h-112.037647a26.352941 26.352941 0 0 1-3.312941-52.495059l3.312941-0.180706 112.037647-0.030117-60.385882-60.416a26.352941 26.352941 0 0 1 31.623529-41.562353l2.921412 1.957647z m-489.200941 2.349176c9.426824 9.426824 10.24 24.244706 2.349176 34.575059l-2.349176 2.710588-60.446118 60.385883h112.067765a26.352941 26.352941 0 0 1 3.312941 52.525176l-3.312941 0.210824-112.067765-0.030118 60.446118 60.446118a26.352941 26.352941 0 0 1-34.575059 39.634823l-2.710588-2.379294-106.827295-106.917647-1.807058-2.409412-1.204706-1.957647a26.262588 26.262588 0 0 1-0.060236-25.389176l2.680471-3.97553 1.807059-2.017882 105.411765-105.411765a26.352941 26.352941 0 0 1 37.285647 0z m227.328 27.407059a96.617412 96.617412 0 1 0 0 193.264941 96.617412 96.617412 0 0 0 0-193.264941z" fill="#568af2" /></svg>