<svg class="icon" style="width: 1em;height: 1em;vertical-align: middle;fill: currentColor;overflow: hidden;" viewBox="0 0 1024 1024" version="1.1" xmlns="http://www.w3.org/2000/svg" width="32" height="32"><path d="M207.058824 180.705882c13.432471 0 24.515765 10.059294 26.142117 23.04l0.210824 3.312942v632.470588a26.352941 26.352941 0 0 1-52.495059 3.312941L180.705882 839.529412v-632.470588C180.705882 192.512 192.512 180.705882 207.058824 180.705882z m456.794352 0h-281.118117a26.352941 26.352941 0 0 0-26.352941 26.352942v105.411764c0 14.546824 11.806118 26.352941 26.352941 26.352941h281.118117a26.352941 26.352941 0 0 0 26.352942-26.352941v-105.411764A26.352941 26.352941 0 0 0 663.853176 180.705882z m70.264471 263.529412H382.735059a26.352941 26.352941 0 0 0-26.352941 26.352941v105.411765c0 14.546824 11.806118 26.352941 26.352941 26.352941h351.382588a26.352941 26.352941 0 0 0 26.352941-26.352941v-105.411765a26.352941 26.352941 0 0 0-26.352941-26.352941z m105.411765 263.529412H382.735059a26.352941 26.352941 0 0 0-26.352941 26.352941v105.411765c0 14.546824 11.806118 26.352941 26.352941 26.352941h456.794353a26.352941 26.352941 0 0 0 26.352941-26.352941v-105.411765a26.352941 26.352941 0 0 0-26.352941-26.352941z" fill="#568af2" /></svg>