<svg class="icon" style="width: 1em;height: 1em;vertical-align: middle;fill: currentColor;overflow: hidden;" viewBox="0 0 1024 1024" version="1.1" xmlns="http://www.w3.org/2000/svg" width="32" height="32"><path d="M849.558588 233.411765a26.352941 26.352941 0 0 1 3.312941 52.495059l-3.312941 0.210823h-421.647059a26.352941 26.352941 0 0 1-3.312941-52.495059l3.312941-0.210823h421.647059z m0 245.970823a26.352941 26.352941 0 0 1 3.312941 52.495059l-3.312941 0.210824h-421.647059a26.352941 26.352941 0 0 1-3.312941-52.525177l3.312941-0.180706h421.647059z m0 245.940706a26.352941 26.352941 0 0 1 3.312941 52.525177l-3.312941 0.180705h-421.647059a26.352941 26.352941 0 0 1-3.312941-52.495058l3.312941-0.210824h421.647059zM288.466824 188.416c9.396706 9.456941 10.179765 24.244706 2.319058 34.575059l-2.349176 2.710588-34.093177 34.063059 34.093177 34.063059a26.352941 26.352941 0 0 1-34.575059 39.634823l-2.710588-2.349176-34.063059-34.093177-34.032941 34.093177A26.352941 26.352941 0 0 1 143.36 296.538353l2.379294-2.710588L179.802353 259.764706 145.769412 225.701647a26.352941 26.352941 0 0 1 34.544941-39.634823l2.710588 2.349176 34.063059 34.093176L251.181176 188.416a26.352941 26.352941 0 0 1 37.25553 0z m-71.378824 220.672a96.617412 96.617412 0 1 0 0 193.264941 96.617412 96.617412 0 0 0 0-193.264941z m0 245.970824a96.617412 96.617412 0 1 0 0 193.264941 96.617412 96.617412 0 0 0 0-193.264941z" fill="#568af2" /></svg>