<svg class="icon" style="width: 1em;height: 1em;vertical-align: middle;fill: currentColor;overflow: hidden;" viewBox="0 0 1024 1024" version="1.1" xmlns="http://www.w3.org/2000/svg" width="32" height="32"><path d="M479.563294 584.975059a26.352941 26.352941 0 0 1 37.25553 0l123.00047 122.970353a26.352941 26.352941 0 0 1 0 37.285647l-123.00047 122.970353a26.352941 26.352941 0 0 1-37.25553 0l-122.970353-122.970353a26.352941 26.352941 0 0 1 0-37.285647z m262.957177-213.172706l2.710588 2.349176 122.970353 122.970353c9.426824 9.456941 10.24 24.244706 2.349176 34.575059l-2.349176 2.710588-122.970353 122.970353a26.352941 26.352941 0 0 1-34.575059 2.349177l-2.710588-2.349177-122.970353-122.970353a26.352941 26.352941 0 0 1-2.349177-34.575058l2.349177-2.710589 122.970353-122.970353a26.352941 26.352941 0 0 1 34.575059-2.349176zM285.726118 354.183529l2.710588 2.379295 122.970353 122.970352c9.456941 9.426824 10.24 24.244706 2.379294 34.575059l-2.379294 2.710589-122.970353 122.970352a26.352941 26.352941 0 0 1-34.575059 2.349177l-2.710588-2.349177-122.970353-123.00047a26.352941 26.352941 0 0 1-2.349177-34.544941l2.349177-2.710589L251.181176 356.592941a26.352941 26.352941 0 0 1 34.544942-2.379294z m228.412235-228.382117l2.710588 2.349176 122.970353 123.000471c9.426824 9.426824 10.24 24.214588 2.349177 34.544941l-2.349177 2.710588-123.00047 122.970353a26.352941 26.352941 0 0 1-34.544942 2.379294l-2.710588-2.379294-122.970353-122.970353a26.352941 26.352941 0 0 1-2.379294-34.575059l2.379294-2.710588 122.970353-122.970353a26.352941 26.352941 0 0 1 34.575059-2.349176z" fill="#568af2" /></svg>