<svg class="icon" style="width: 1em;height: 1em;vertical-align: middle;fill: currentColor;overflow: hidden;" viewBox="0 0 1024 1024" version="1.1" xmlns="http://www.w3.org/2000/svg" width="32" height="32"><path d="M622.531765 319.126588a26.352941 26.352941 0 0 1-10.029177 33.370353l-2.921412 1.566118-125.199058 57.344v223.86447l125.199058 57.374118a26.352941 26.352941 0 0 1-18.883764 49.091765l-3.102118-1.204706-421.647059-193.234824a26.352941 26.352941 0 0 1-3.222588-46.170353l3.222588-1.746823 421.647059-193.234824a26.352941 26.352941 0 0 1 34.936471 12.950589z m-190.85553 291.990588v-175.585882l-191.488 87.823059 191.488 87.762823zM712.794353 207.119059c0-22.377412 25.750588-34.093176 42.526118-20.811294l2.439529 2.16847 105.411765 105.411765a26.352941 26.352941 0 0 1-34.544941 39.634824l-2.710589-2.379295-60.446117-60.416v568.862118a26.352941 26.352941 0 0 1-23.04 26.142118l-3.312942 0.210823a26.352941 26.352941 0 0 1-26.142117-23.04l-0.180706-3.312941v-632.470588z" fill="#568af2" /></svg>