<svg class="icon" style="width: 1em;height: 1em;vertical-align: middle;fill: currentColor;overflow: hidden;" viewBox="0 0 1024 1024" version="1.1" xmlns="http://www.w3.org/2000/svg" width="32" height="32"><path d="M874.435765 712.884706a26.352941 26.352941 0 0 1-13.101177 32.286118l-3.041882 1.264941-351.382588 123.00047a26.352941 26.352941 0 0 1-13.974589 0.933647l-3.433411-0.933647-351.382589-123.00047a26.352941 26.352941 0 0 1 14.21553-50.627765l3.19247 0.903529 342.648471 119.898353 342.708706-119.92847a26.352941 26.352941 0 0 1 33.551059 16.173176z m0-140.559059a26.352941 26.352941 0 0 1-13.101177 32.286118l-3.041882 1.295059L506.88 728.847059a26.352941 26.352941 0 0 1-13.974588 0.933647l-3.433412-0.933647-351.382588-122.970353a26.352941 26.352941 0 0 1 14.215529-50.657882l3.192471 0.903529 342.64847 119.928471 342.708706-119.928471a26.352941 26.352941 0 0 1 33.551059 16.173176z m0-140.559059a26.352941 26.352941 0 0 1-13.101177 32.286118l-3.041882 1.295059-351.382588 122.970353a26.352941 26.352941 0 0 1-13.974589 0.963764l-3.433411-0.963764-351.382589-122.970353a26.352941 26.352941 0 0 1 14.21553-50.657883l3.19247 0.90353 342.648471 119.92847 342.708706-119.92847a26.352941 26.352941 0 0 1 33.551059 16.173176zM503.416471 151.100235l3.403294 0.933647 351.35247 121.464471c22.407529 7.740235 23.642353 38.159059 3.553883 48.338823l-3.343059 1.41553-351.382588 124.476235a26.352941 26.352941 0 0 1-14.155295 0.993883l-3.433411-0.993883-351.382589-124.476235c-22.317176-7.890824-23.311059-38.339765-3.162352-48.338824l3.343058-1.415529 351.382589-121.464471a26.352941 26.352941 0 0 1 13.824-0.903529z" fill="#568af2" /></svg>