<svg class="icon" style="width: 1em;height: 1em;vertical-align: middle;fill: currentColor;overflow: hidden;" viewBox="0 0 1024 1024" version="1.1" xmlns="http://www.w3.org/2000/svg" width="32" height="32"><path d="M501.970824 177.001412l-0.030118 167.54447-2.258824 0.090353C256.843294 357.345882 150.588235 535.190588 150.588235 862.177882c0 29.003294 40.056471 36.743529 50.808471 9.788236l3.162353-7.198118 1.264941-2.770824a510.192941 510.192941 0 0 1 74.480941-114.326588l6.957177-7.860706c58.488471-64.512 128.421647-105.351529 210.823529-113.362823l3.855059-0.301177v165.737412a26.352941 26.352941 0 0 0 44.453647 19.184941l316.235294-298.676706a26.352941 26.352941 0 0 0 0.542118-37.797647l-316.235294-316.235294c-16.564706-16.594824-44.965647-4.818824-44.965647 18.642824z" fill="#568af2" /></svg>