<svg class="icon" style="width: 1em;height: 1em;vertical-align: middle;fill: currentColor;overflow: hidden;" viewBox="0 0 1024 1024" version="1.1" xmlns="http://www.w3.org/2000/svg" width="32" height="32"><path d="M865.882353 690.206118v79.058823a96.617412 96.617412 0 0 1-96.617412 96.617412H277.323294A96.617412 96.617412 0 0 1 180.705882 769.264941v-79.058823h685.176471zM769.264941 180.705882a96.617412 96.617412 0 0 1 96.617412 96.617412v360.176941H180.705882V277.323294A96.617412 96.617412 0 0 1 277.323294 180.705882z m-157.063529 183.416471a26.352941 26.352941 0 0 0-37.25553 0l-51.681882 51.591529-51.621647-51.591529-2.710588-2.379294a26.352941 26.352941 0 0 0-34.544941 39.634823l70.26447 70.264471 2.710588 2.379294a26.352941 26.352941 0 0 0 34.575059-2.379294l70.264471-70.264471 2.349176-2.710588a26.352941 26.352941 0 0 0-2.349176-34.544941z" fill="#568af2" /></svg>