<svg class="icon" style="width: 1em;height: 1em;vertical-align: middle;fill: currentColor;overflow: hidden;" viewBox="0 0 1024 1024" version="1.1" xmlns="http://www.w3.org/2000/svg" width="32" height="32"><path d="M809.411765 150.588235c33.972706 0 61.500235 27.527529 61.500235 61.500236v351.35247a61.500235 61.500235 0 0 1-61.500235 61.500235h-185.103059c0.210824 1.385412 0.361412 2.800941 0.451765 4.216471l0.180705 4.577882v175.676236a61.500235 61.500235 0 0 1-56.922352 61.319529l-4.577883 0.180706H212.088471a61.500235 61.500235 0 0 1-61.31953-56.922353L150.588235 809.411765V458.029176c0-32.406588 25.088-58.970353 56.922353-61.319529l4.577883-0.150588h175.676235c3.011765 0 5.903059 0.210824 8.794353 0.602353V212.088471c0-33.972706 27.527529-61.500235 61.470117-61.500236z m-421.647059 298.676706H212.088471a8.794353 8.794353 0 0 0-8.553412 6.746353l-0.240941 2.017882v351.382589c0 4.156235 2.891294 7.649882 6.77647 8.553411l2.017883 0.240942h351.35247a8.794353 8.794353 0 0 0 8.553412-6.776471l0.240941-2.017882v-175.676236a8.794353 8.794353 0 0 0-6.77647-8.553411l-2.017883-0.240942h-105.411765a61.500235 61.500235 0 0 1-61.319529-56.922352l-0.150588-4.577883v-105.411765a8.794353 8.794353 0 0 0-8.794353-8.764235z" fill="#568af2" /></svg>