<svg class="icon" style="width: 1em;height: 1em;vertical-align: middle;fill: currentColor;overflow: hidden;" viewBox="0 0 1024 1024" version="1.1" xmlns="http://www.w3.org/2000/svg" width="32" height="32"><path d="M786.823529 180.705882a79.058824 79.058824 0 0 1 79.058824 79.058824v527.058823a79.058824 79.058824 0 0 1-79.058824 79.058824h-527.058823A79.058824 79.058824 0 0 1 180.705882 786.823529v-527.058823A79.058824 79.058824 0 0 1 259.764706 180.705882z m-342.588235 0.120471H391.529412v684.875294h52.705882V180.856471z m238.230588 253.560471a26.352941 26.352941 0 0 0-37.255529 0l-70.264471 70.26447-2.379294 2.710588a26.352941 26.352941 0 0 0 2.379294 34.575059l70.264471 70.264471 2.710588 2.349176a26.352941 26.352941 0 0 0 34.544941-2.349176l2.379294-2.710588a26.352941 26.352941 0 0 0-2.379294-34.544942l-51.621647-51.681882 51.621647-51.621647 2.379294-2.710588a26.352941 26.352941 0 0 0-2.379294-34.544941z" fill="#568af2" /></svg>