<svg class="icon" style="width: 1em;height: 1em;vertical-align: middle;fill: currentColor;overflow: hidden;" viewBox="0 0 1024 1024" version="1.1" xmlns="http://www.w3.org/2000/svg" width="32" height="32"><path d="M654.848 218.593882l2.349176 2.710589 226.002824 299.911529a26.352941 26.352941 0 0 1-2.469647 34.575059l-2.710588 2.349176-245.458824 184.922353-58.217412 40.508236-8.161882 6.535529H858.352941a26.352941 26.352941 0 0 1 3.312941 52.495059l-3.312941 0.210823H491.52l-0.421647 0.060236h-185.584941a26.352941 26.352941 0 0 1-18.763294-7.830589l-2.288942-2.710588-158.689882-210.55247a26.352941 26.352941 0 0 1 2.469647-34.575059l2.710588-2.349177 183.326118-138.119529 305.995294-230.610824a26.352941 26.352941 0 0 1 34.575059 2.469647zM319.247059 508.988235L183.717647 611.087059l134.896941 179.019294h163.237647l39.514353-31.623529-202.119529-249.524706z" fill="#568af2" /></svg>