<svg class="icon" style="width: 1em;height: 1em;vertical-align: middle;fill: currentColor;overflow: hidden;" viewBox="0 0 1024 1024" version="1.1" xmlns="http://www.w3.org/2000/svg" width="32" height="32"><path d="M728.365176 269.884235c11.745882 8.613647 14.275765 25.118118 5.662118 36.833883l-31.623529 43.309176-65.686589 90.654118-102.249411 142.938353 0.451764 0.662588 87.642353 122.88a131.824941 131.824941 0 0 1 257.114353 40.749176 131.493647 131.493647 0 0 1-66.288941 114.416942 132.668235 132.668235 0 0 1-35.779765 14.004705l-1.596235 0.331295a111.585882 111.585882 0 0 1-5.059765 1.024c-0.240941 0-0.481882 0.060235-0.722823 0.12047-1.867294 0.301176-3.734588 0.602353-5.632 0.843294l-0.993882 0.090353a117.549176 117.549176 0 0 1-15.661177 0.933647l4.969412-0.090353-3.704471 0.090353h-1.295059a134.535529 134.535529 0 0 1-15.600941-0.903529l-1.14447-0.150588a119.326118 119.326118 0 0 1-5.421177-0.783059l-0.903529-0.180706a114.748235 114.748235 0 0 1-5.330824-1.054118l-1.084235-0.240941a128.963765 128.963765 0 0 1-17.347765-5.24047l-1.445647-0.572236a130.409412 130.409412 0 0 1-35.358117-20.811294 132.457412 132.457412 0 0 1-32.225883-39.062588l-64.180706-89.359059-65.927529-92.220235-123.151059 172.212706-7.168 9.84847a132.367059 132.367059 0 0 1-86.136471 65.204706l-1.084235 0.240941a113.182118 113.182118 0 0 1-5.300706 1.054118l-0.903529 0.150588c-1.807059 0.301176-3.614118 0.602353-5.421177 0.813177l-1.204705 0.150588a117.157647 117.157647 0 0 1-15.570824 0.903529l4.005647-0.060235-1.475765 0.060235H256a134.384941 134.384941 0 0 1-15.600941-0.903529l-1.174588-0.150588a119.296 119.296 0 0 1-5.421177-0.783059l-0.903529-0.180706a114.748235 114.748235 0 0 1-5.300706-1.054118l-1.114353-0.240941a128.963765 128.963765 0 0 1-42.977882-18.371765 159.503059 159.503059 0 0 1-11.535059-8.553411 215.190588 215.190588 0 0 1-4.517647-3.915294 131.764706 131.764706 0 1 1 213.955764-138.11953l6.354824-8.975059 81.799529-114.627764-86.076235-120.470589-54.211765-75.113411-44.875294-61.680942-14.516706-19.817411a26.352941 26.352941 0 1 1 42.496-31.171765l36.141177 49.453176 50.537412 69.692236 102.942117 143.631059 69.360941-97.099295 47.043765-65.264941 33.641412-46.381176 39.484235-54.031059a26.352941 26.352941 0 0 1 36.833882-5.662118z m124.988236-145.648941c13.402353 0 24.515765 10.059294 26.142117 23.04l0.180706 3.312941v351.382589a26.352941 26.352941 0 0 1-52.495059 3.312941l-0.210823-3.312941V176.941176H176.941176v325.029648a26.352941 26.352941 0 0 1-23.04 26.142117l-3.312941 0.210824a26.352941 26.352941 0 0 1-26.142117-23.070118l-0.210824-3.312941V150.588235c0-13.432471 10.059294-24.515765 23.04-26.142117L150.588235 124.235294h702.735059z" fill="#568af2" /></svg>