<svg class="icon" style="width: 1em;height: 1em;vertical-align: middle;fill: currentColor;overflow: hidden;" viewBox="0 0 1024 1024" version="1.1" xmlns="http://www.w3.org/2000/svg" width="32" height="32"><path d="M710.987294 285.936941a26.352941 26.352941 0 1 1-51.621647 10.601412c-15.420235-75.113412-85.985882-126.554353-163.328-118.814118-74.992941 7.469176-132.517647 68.276706-135.740235 141.914353l-0.150588 6.716236v114.928941h412.882823c32.406588 0 58.970353 25.118118 61.319529 56.922353l0.150589 4.577882v316.235294a61.500235 61.500235 0 0 1-56.892236 61.31953l-4.577882 0.180705h-527.058823a61.500235 61.500235 0 0 1-61.31953-56.922353l-0.180706-4.577882v-316.235294c0-32.406588 25.088-58.970353 56.922353-61.319529l4.577883-0.150589 61.470117-0.030117v-114.898824c-0.090353-103.815529 79.209412-190.704941 183.356235-201.125647 104.116706-10.390588 199.318588 59.000471 220.190118 160.677647z m-201.487059 295.092706a26.352941 26.352941 0 0 0-26.172235 23.04l-0.180706 3.312941v105.411765l0.180706 3.312941a26.352941 26.352941 0 0 0 52.314353 0l0.210823-3.312941v-105.411765l-0.210823-3.312941a26.352941 26.352941 0 0 0-26.142118-23.04z" fill="#568af2" /></svg>