<svg class="icon" style="width: 1em;height: 1em;vertical-align: middle;fill: currentColor;overflow: hidden;" viewBox="0 0 1024 1024" version="1.1" xmlns="http://www.w3.org/2000/svg" width="32" height="32"><path d="M813.176471 313.735529a26.352941 26.352941 0 0 1 3.312941 52.495059l-3.312941 0.210824H180.705882a26.352941 26.352941 0 0 1-3.312941-52.525177l3.312941-0.180706h632.470589zM707.764706 489.411765a26.352941 26.352941 0 0 1 3.312941 52.495059L707.764706 542.117647h-421.647059a26.352941 26.352941 0 0 1-3.312941-52.495059l3.312941-0.210823h421.647059zM567.205647 665.088a26.352941 26.352941 0 0 1 3.312941 52.525176l-3.312941 0.180706h-140.528941a26.352941 26.352941 0 0 1-3.312941-52.495058l3.312941-0.210824h140.528941z" fill="#568af2" /></svg>