<svg class="icon" style="width: 1em;height: 1em;vertical-align: middle;fill: currentColor;overflow: hidden;" viewBox="0 0 1024 1024" version="1.1" xmlns="http://www.w3.org/2000/svg" width="32" height="32"><path d="M839.529412 180.705882c14.546824 0 26.352941 11.806118 26.352941 26.352942v210.823529a26.352941 26.352941 0 0 1-26.352941 26.352941H347.617882a26.352941 26.352941 0 0 1-26.352941-26.352941v-79.329882a26.352941 26.352941 0 0 1-0.481882 0.060235l-3.312941 0.210823H203.294118v333.793883h114.206117c1.264941 0 2.529882 0.090353 3.764706 0.301176v-79.36c0-14.546824 11.776-26.352941 26.352941-26.352941h491.91153c14.546824 0 26.352941 11.806118 26.352941 26.352941v210.82353a26.352941 26.352941 0 0 1-26.352941 26.352941H347.617882a26.352941 26.352941 0 0 1-26.352941-26.352941v-79.329883a26.352941 26.352941 0 0 1-0.481882 0.090353l-3.312941 0.180706H176.971294a26.352941 26.352941 0 0 1-26.142118-23.04L150.588235 698.970353V312.470588c0-13.432471 10.059294-24.515765 23.04-26.142117l3.312941-0.210824h140.559059c1.264941 0 2.529882 0.090353 3.764706 0.271059V207.058824c0-14.546824 11.776-26.352941 26.352941-26.352942z" fill="#568af2" /></svg>