<svg class="icon" style="width: 1em;height: 1em;vertical-align: middle;fill: currentColor;overflow: hidden;" viewBox="0 0 1024 1024" version="1.1" xmlns="http://www.w3.org/2000/svg" width="32" height="32"><path d="M189.500235 214.588235c13.432471 0 24.515765 10.059294 26.142118 23.04l0.210823 3.312941v562.206118a26.352941 26.352941 0 0 1-52.525176 3.312941l-0.180706-3.312941V240.941176c0-14.546824 11.776-26.352941 26.352941-26.352941zM505.735529 214.588235c13.432471 0 24.515765 10.059294 26.142118 23.04l0.210824 3.312941v562.206118a26.352941 26.352941 0 0 1-52.525177 3.312941l-0.180706-3.312941V240.941176c0-14.546824 11.776-26.352941 26.352941-26.352941z" fill="#568af2" /><path d="M488.146824 495.676235a26.352941 26.352941 0 0 1 3.312941 52.525177l-3.312941 0.180706H207.058824a26.352941 26.352941 0 0 1-3.312942-52.495059l3.312942-0.210824h281.088zM646.264471 495.676235c13.432471 0 24.545882 10.059294 26.172235 23.04l0.180706 3.312941v281.088a26.352941 26.352941 0 0 1-52.495059 3.312942l-0.210824-3.312942v-281.088c0-14.546824 11.806118-26.352941 26.352942-26.352941z" fill="#568af2" /><path d="M734.117647 530.823529c63.457882 0 111.134118 48.188235 114.055529 108.724706l0.150589 5.872941v157.936942a26.352941 26.352941 0 0 1-52.525177 3.312941l-0.180706-3.312941V645.421176c0-34.755765-25.750588-61.891765-61.500235-61.891764-35.117176 0-61.500235 28.220235-61.500235 61.891764a26.352941 26.352941 0 1 1-52.705883 0c0-62.042353 49.182118-114.597647 114.206118-114.597647z" fill="#568af2" /></svg>