<svg class="icon" style="width: 1em;height: 1em;vertical-align: middle;fill: currentColor;overflow: hidden;" viewBox="0 0 1024 1024" version="1.1" xmlns="http://www.w3.org/2000/svg" width="32" height="32"><path d="M804.382118 180.705882H242.206118A61.500235 61.500235 0 0 0 180.705882 242.206118v562.176c0 33.972706 27.527529 61.500235 61.500236 61.500235h562.176a61.500235 61.500235 0 0 0 61.500235-61.500235V242.206118A61.500235 61.500235 0 0 0 804.382118 180.705882zM242.206118 233.411765h562.176c4.848941 0 8.794353 3.915294 8.794353 8.794353v562.176c0 4.848941-3.915294 8.794353-8.794353 8.794353H242.206118a8.794353 8.794353 0 0 1-8.794353-8.794353V242.206118c0-4.848941 3.915294-8.794353 8.794353-8.794353z" fill="#568af2" /><path d="M367.405176 187.361882a26.352941 26.352941 0 0 1 37.526589 36.833883l-2.499765 2.56-177.874824 158.117647a26.352941 26.352941 0 0 1-37.526588-36.833883l2.529883-2.56 177.844705-158.117647zM540.852706 187.482353a26.352941 26.352941 0 0 1 37.737412 36.592941l-2.469647 2.56-351.442824 316.235294a26.352941 26.352941 0 0 1-37.737412-36.592941l2.499765-2.56 351.412706-316.235294zM698.578824 187.783529a26.352941 26.352941 0 0 1 38.369882 35.960471l-2.43953 2.590118L224.978824 700.687059a26.352941 26.352941 0 0 1-38.369883-35.960471l2.469647-2.590117 509.470118-474.352942zM417.581176 609.340235a26.352941 26.352941 0 0 1 38.219295 36.141177l-2.469647 2.590117-228.382118 210.82353a26.352941 26.352941 0 0 1-38.249412-36.141177l2.499765-2.590117 228.382117-210.82353zM804.080941 257.957647a26.352941 26.352941 0 0 1 38.219294 36.141177l-2.469647 2.590117-206.546823 190.644706a26.352941 26.352941 0 0 1-38.219294-36.111059l2.469647-2.590117 206.546823-190.644706z" fill="#568af2" /><path d="M435.440941 444.235294c13.432471 0 24.545882 10.059294 26.172235 23.04l0.180706 3.312941v368.941177a26.352941 26.352941 0 0 1-52.495058 3.312941l-0.210824-3.312941v-368.941177c0-14.546824 11.806118-26.352941 26.352941-26.352941z" fill="#568af2" /><path d="M839.529412 444.235294a26.352941 26.352941 0 0 1 3.312941 52.495059l-3.312941 0.210823H435.440941a26.352941 26.352941 0 0 1-3.312941-52.495058l3.312941-0.210824h404.088471z" fill="#568af2" /></svg>