<svg class="icon" style="width: 1em;height: 1em;vertical-align: middle;fill: currentColor;overflow: hidden;" viewBox="0 0 1024 1024" version="1.1" xmlns="http://www.w3.org/2000/svg" width="32" height="32"><path d="M368.941176 377.735529H245.970824a61.500235 61.500235 0 0 0-61.500236 61.470118v368.941177c0 33.972706 27.527529 61.500235 61.500236 61.500235h368.941176a61.500235 61.500235 0 0 0 61.470118-61.500235V685.176471a61.500235 61.500235 0 0 0-61.470118-61.500236h-175.706353a8.794353 8.794353 0 0 1-8.764235-8.764235v-175.706353a61.500235 61.500235 0 0 0-61.500236-61.470118z m-122.970352 52.705883h122.970352c4.848941 0 8.794353 3.915294 8.794353 8.764235v175.706353c0 33.942588 27.527529 61.470118 61.470118 61.470118h175.706353c4.818824 0 8.764235 3.915294 8.764235 8.794353v122.970353c0 4.848941-3.915294 8.794353-8.764235 8.794352H245.970824a8.794353 8.794353 0 0 1-8.794353-8.794352v-368.941177c0-4.818824 3.915294-8.764235 8.794353-8.764235z" fill="#568af2" /><path d="M808.146824 184.470588h-368.941177a61.500235 61.500235 0 0 0-61.470118 61.500236v122.970352c0 33.972706 27.527529 61.500235 61.470118 61.500236h175.706353c4.818824 0 8.764235 3.915294 8.764235 8.764235v175.706353c0 33.942588 27.527529 61.470118 61.500236 61.470118h122.970353a61.500235 61.500235 0 0 0 61.500235-61.470118V245.970824a61.500235 61.500235 0 0 0-61.500235-61.500236z m-368.941177 52.705883h368.941177c4.848941 0 8.794353 3.915294 8.794352 8.794353v368.941176c0 4.818824-3.915294 8.764235-8.794352 8.764235H685.176471a8.794353 8.794353 0 0 1-8.794353-8.764235v-175.706353a61.500235 61.500235 0 0 0-61.470118-61.470118h-175.706353a8.794353 8.794353 0 0 1-8.764235-8.794353V245.970824c0-4.848941 3.915294-8.794353 8.764235-8.794353z" fill="#568af2" /></svg>