<svg class="icon" style="width: 1em;height: 1em;vertical-align: middle;fill: currentColor;overflow: hidden;" viewBox="0 0 1024 1024" version="1.1" xmlns="http://www.w3.org/2000/svg" width="32" height="32"><path d="M550.761412 343.762824l1.716706 3.312941 122.970353 281.118117a26.352941 26.352941 0 0 1-46.772706 24.064l-1.505883-2.951529-31.533176-72.071529h-134.625882l-31.503059 72.071529a26.352941 26.352941 0 0 1-49.423059-18.010353l1.114353-3.102118 123.00047-281.118117a26.383059 26.383059 0 0 1 46.561883-3.312941z m-22.40753 79.600941l-44.272941 101.165176h88.515765l-44.272941-101.165176z" fill="#568af2" /><path d="M521.306353 120.470588a377.825882 377.825882 0 0 1 370.145882 302.200471 26.352941 26.352941 0 1 1-51.621647 10.480941 325.12 325.12 0 0 0-623.194353-48.489412l-0.903529 2.56 58.307765-19.425882a26.352941 26.352941 0 0 1 32.105411 13.583059l1.204706 3.072a26.352941 26.352941 0 0 1-13.552941 32.105411l-3.102118 1.204706-105.411764 35.147294a26.352941 26.352941 0 0 1-34.153412-30.238117A377.825882 377.825882 0 0 1 521.276235 120.470588zM856.184471 543.864471a26.352941 26.352941 0 0 1 35.297882 29.846588 377.825882 377.825882 0 0 1-740.352 0 26.352941 26.352941 0 0 1 51.651765-10.480941 325.12 325.12 0 0 0 620.212706 56.229647l2.891294-7.469177-42.134589 16.203294a26.352941 26.352941 0 0 1-32.677647-12.107294l-1.385411-3.011764a26.352941 26.352941 0 0 1 12.137411-32.677648l3.011765-1.385411 91.346824-35.147294z" fill="#568af2" /></svg>