<svg class="icon" style="width: 1em;height: 1em;vertical-align: middle;fill: currentColor;overflow: hidden;" viewBox="0 0 1024 1024" version="1.1" xmlns="http://www.w3.org/2000/svg" width="32" height="32"><path d="M813.176471 184.470588c13.432471 0 24.515765 10.059294 26.142117 23.04l0.210824 3.312941v210.82353a26.352941 26.352941 0 0 1-52.495059 3.312941l-0.210824-3.312941V237.176471H602.352941a26.352941 26.352941 0 0 1-26.142117-23.04L576 210.823529c0-13.432471 10.059294-24.515765 23.04-26.142117l3.312941-0.210824h210.82353zM409.088 377.735529c13.432471 0 24.545882 10.029176 26.172235 23.04l0.180706 3.312942v184.44047h184.470588c13.432471 0 24.545882 10.059294 26.172236 23.070118l0.180706 3.312941a26.352941 26.352941 0 0 1-23.04 26.142118l-3.312942 0.210823h-210.823529a26.352941 26.352941 0 0 1-26.142118-23.070117l-0.210823-3.312942v-210.823529c0-14.546824 11.806118-26.322824 26.352941-26.322824z" fill="#568af2" /><path d="M794.533647 192.180706a26.352941 26.352941 0 0 1 39.634824 34.575059l-2.349177 2.710588-404.08847 404.058353a26.352941 26.352941 0 0 1-39.634824-34.544941l2.379294-2.710589L794.503529 192.150588z" fill="#568af2" /><path d="M461.793882 184.470588a26.352941 26.352941 0 0 1 3.312942 52.495059l-3.312942 0.210824H215.853176a8.794353 8.794353 0 0 0-8.553411 6.77647l-0.240941 2.017883v562.176c0 4.156235 2.891294 7.649882 6.77647 8.553411l2.017882 0.240941h562.176a8.794353 8.794353 0 0 0 8.553412-6.77647l0.240941-2.017882v-245.940706a26.352941 26.352941 0 0 1 52.495059-3.312942l0.210824 3.312942v245.940706a61.500235 61.500235 0 0 1-56.922353 61.319529l-4.577883 0.180706H215.853176a61.500235 61.500235 0 0 1-61.319529-56.922353l-0.180706-4.577882V245.970824c0-32.436706 25.088-58.970353 56.922353-61.31953l4.577882-0.180706h245.940706z" fill="#568af2" /></svg>