<svg class="icon" style="width: 1em;height: 1em;vertical-align: middle;fill: currentColor;overflow: hidden;" viewBox="0 0 1024 1024" version="1.1" xmlns="http://www.w3.org/2000/svg" width="32" height="32"><path d="M611.870118 253.590588l-195.644236 108.42353-1.295058-0.632471c-67.162353-31.834353-128.421647-25.6-178.145883 24.094118a26.352941 26.352941 0 0 0 0 37.285647l120.018824 120.018823-197.330824 268.318118-1.746823 2.620235c-13.974588 23.823059 15.209412 51.501176 38.640941 34.18353l267.655529-197.903059 120.621177 120.621176a26.352941 26.352941 0 0 0 37.255529 0l5.12-5.300706c44.453647-47.947294 48.64-102.851765 19.245177-170.917647l-1.234824-2.68047 108.965647-196.065883 68.969412 9.908706c25.057882 3.614118 40.267294-26.804706 22.377412-44.724706l-198.776471-198.77647c-17.92-17.92-48.368941-2.650353-44.724706 22.437647l10.029177 69.089882z" fill="#568af2" /></svg>