<svg class="icon" style="width: 1em;height: 1em;vertical-align: middle;fill: currentColor;overflow: hidden;" viewBox="0 0 1024 1024" version="1.1" xmlns="http://www.w3.org/2000/svg" width="32" height="32"><path d="M616.146824 150.588235c32.436706 0 58.970353 25.088 61.319529 56.922353l0.180706 4.577883v131.734588h131.764706c32.406588 0 58.970353 25.118118 61.319529 56.922353l0.180706 4.577882v404.088471a61.500235 61.500235 0 0 1-56.922353 61.319529l-4.577882 0.180706H405.323294a61.500235 61.500235 0 0 1-61.319529-56.922353l-0.150589-4.577882-0.030117-131.764706H212.088471a61.500235 61.500235 0 0 1-61.31953-56.922353L150.588235 616.176941V212.088471c0-32.436706 25.088-58.970353 56.922353-61.31953L212.058353 150.588235h404.058353z m193.264941 245.970824l-41.110589-0.030118-371.772235 405.534118v7.348706c0 4.156235 2.921412 7.649882 6.776471 8.553411l2.017882 0.240942 76.197647-0.030118L818.176 447.849412v-42.526118a8.794353 8.794353 0 0 0-8.764235-8.764235z m8.764235 129.626353l-265.426824 291.990588h104.448l160.978824-177.061647v-114.928941z m0 193.264941l-89.750588 98.725647h80.986353a8.794353 8.794353 0 0 0 8.553411-6.746353l0.240942-2.017882-0.030118-89.961412z m-121.404235-322.921412h-86.678589l-213.564235 229.948235v97.611295l300.242824-327.55953z m-158.629647 0h-132.818824a8.794353 8.794353 0 0 0-8.553412 6.776471l-0.210823 2.017882-0.030118 143.691294 141.613177-152.485647z" fill="#568af2" /></svg>