<svg class="icon" style="width: 1em;height: 1em;vertical-align: middle;fill: currentColor;overflow: hidden;" viewBox="0 0 1024 1024" version="1.1" xmlns="http://www.w3.org/2000/svg" width="32" height="32"><path d="M760.470588 184.470588a79.058824 79.058824 0 0 1 79.058824 79.058824v527.058823a79.058824 79.058824 0 0 1-79.058824 79.058824H233.411765a79.058824 79.058824 0 0 1-79.058824-79.058824V263.529412A79.058824 79.058824 0 0 1 233.411765 184.470588zM602.352941 500.705882a26.352941 26.352941 0 0 0-26.352941 26.352942v210.823529l0.210824 3.312941a26.352941 26.352941 0 0 0 52.495058-3.312941v-210.823529l-0.210823-3.312942a26.352941 26.352941 0 0 0-26.142118-23.04z m105.411765 70.264471a26.352941 26.352941 0 0 0-26.352941 26.352941V737.882353l0.210823 3.312941a26.352941 26.352941 0 0 0 52.495059-3.312941v-140.559059l-0.210823-3.312941a26.352941 26.352941 0 0 0-26.142118-23.04z m-210.82353 70.294588a26.352941 26.352941 0 0 0-26.352941 26.352941V737.882353l0.210824 3.312941a26.352941 26.352941 0 0 0 52.495059-3.312941v-70.264471l-0.210824-3.312941a26.352941 26.352941 0 0 0-26.142118-23.04z" fill="#568af2" /></svg>