<svg class="icon" style="width: 1em;height: 1em;vertical-align: middle;fill: currentColor;overflow: hidden;" viewBox="0 0 1024 1024" version="1.1" xmlns="http://www.w3.org/2000/svg" width="32" height="32"><path d="M843.294118 475.617882a26.352941 26.352941 0 0 1 3.312941 52.495059l-3.312941 0.210824H210.823529a26.352941 26.352941 0 0 1-3.312941-52.525177l3.312941-0.180706h632.470589zM325.029647 150.588235v210.82353c0 14.546824 11.776 26.352941 26.352941 26.352941H737.882353c27.316706 0 36.592941-36.442353 12.619294-49.483294l-386.499765-210.82353A26.352941 26.352941 0 0 0 325.029647 150.588235zM737.882353 616.146824H351.382588a26.352941 26.352941 0 0 0-26.352941 26.352941v210.823529a26.352941 26.352941 0 0 0 38.972235 23.130353l386.499765-210.823529c23.973647-13.071059 14.697412-49.483294-12.619294-49.483294z" fill="#568af2" /></svg>