<svg class="icon" style="width: 1em;height: 1em;vertical-align: middle;fill: currentColor;overflow: hidden;" viewBox="0 0 1024 1024" version="1.1" xmlns="http://www.w3.org/2000/svg" width="32" height="32"><path d="M808.146824 184.470588c33.972706 0 61.500235 27.527529 61.500235 61.500236v562.176a61.500235 61.500235 0 0 1-61.500235 61.500235H245.970824a61.500235 61.500235 0 0 1-61.500236-61.500235V245.970824c0-33.972706 27.527529-61.500235 61.500236-61.500236z m-298.646589 333.793883h-123.00047l-3.312941 0.210823a26.352941 26.352941 0 0 0 3.312941 52.495059h59.331764l-130.650353 130.710588-2.379294 2.710588a26.352941 26.352941 0 0 0 39.634824 34.544942l130.68047-130.680471v59.331765l0.210824 3.312941a26.352941 26.352941 0 0 0 52.525176-3.312941v-122.970353l-0.210823-3.312941a26.654118 26.654118 0 0 0-0.662588-3.373177l-0.993883-3.011765-1.505882-3.19247-1.656471-2.590118a26.563765 26.563765 0 0 0-2.710588-3.132235l-2.499765-2.228706-2.68047-1.807059-2.710588-1.415529-4.035765-1.41553a26.443294 26.443294 0 0 0-6.686118-0.873411z m298.646589-281.088h-184.470589v193.234823h193.264941V245.970824a8.794353 8.794353 0 0 0-6.77647-8.553412l-2.017882-0.240941z" fill="#568af2" /></svg>