<svg class="icon" style="width: 1em;height: 1em;vertical-align: middle;fill: currentColor;overflow: hidden;" viewBox="0 0 1024 1024" version="1.1" xmlns="http://www.w3.org/2000/svg" width="32" height="32"><path d="M839.529412 491.911529a26.352941 26.352941 0 0 1 3.312941 52.525177l-3.312941 0.180706h-281.088a26.352941 26.352941 0 0 1-3.312941-52.495059l3.312941-0.210824h281.088z" fill="#568af2" /><path d="M488.146824 439.205647a79.058824 79.058824 0 1 0 0 158.117647 79.058824 79.058824 0 0 0 0-158.117647z m0 52.705882a26.352941 26.352941 0 1 1 0 52.705883 26.352941 26.352941 0 0 1 0-52.705883z" fill="#568af2" /><path d="M839.529412 210.823529a26.352941 26.352941 0 0 1 3.312941 52.495059l-3.312941 0.210824H488.146824a254.735059 254.735059 0 0 0-7.649883 509.379764l7.649883 0.120471h351.382588a26.352941 26.352941 0 0 1 3.312941 52.495059l-3.312941 0.210823H488.146824C318.343529 825.735529 180.705882 688.097882 180.705882 518.264471c0-166.972235 133.12-302.832941 298.977883-307.320471L488.146824 210.823529h351.382588z" fill="#568af2" /></svg>