<svg class="icon" style="width: 1em;height: 1em;vertical-align: middle;fill: currentColor;overflow: hidden;" viewBox="0 0 1024 1024" version="1.1" xmlns="http://www.w3.org/2000/svg" width="32" height="32"><path d="M760.470588 184.470588a79.058824 79.058824 0 0 1 78.908236 74.059294l0.150588 4.99953v85.654588a26.352941 26.352941 0 0 1-52.495059 3.312941l-0.210824-3.312941V263.529412a26.352941 26.352941 0 0 0-23.04-26.142118l-3.312941-0.210823H233.411765a26.352941 26.352941 0 0 0-26.142118 23.04l-0.210823 3.312941v527.058823c0 13.432471 10.059294 24.515765 23.04 26.142118l3.312941 0.210823h527.058823a26.352941 26.352941 0 0 0 26.142118-23.04l0.210823-3.312941v-75.776a26.352941 26.352941 0 0 1 52.495059-3.312941l0.210824 3.312941v75.776a79.058824 79.058824 0 0 1-74.059294 78.908236l-4.99953 0.150588H233.411765a79.058824 79.058824 0 0 1-78.908236-74.059294l-0.150588-4.99953V263.529412a79.058824 79.058824 0 0 1 74.059294-78.908236l4.99953-0.150588h527.058823z" fill="#568af2" /><path d="M813.176471 500.705882a26.352941 26.352941 0 0 1 3.312941 52.495059l-3.312941 0.210824H496.941176a26.352941 26.352941 0 0 1-3.312941-52.495059l3.312941-0.210824H813.176471z" fill="#568af2" /><path d="M583.710118 403.004235a26.352941 26.352941 0 0 1 39.634823 34.575059l-2.349176 2.710588-86.799059 86.768942 86.799059 86.768941c9.426824 9.456941 10.24 24.244706 2.349176 34.575059l-2.349176 2.710588a26.352941 26.352941 0 0 1-34.575059 2.349176l-2.710588-2.349176-105.411765-105.411765a26.352941 26.352941 0 0 1-2.349177-34.575059l2.349177-2.710588 105.411765-105.411765z" fill="#568af2" /></svg>