<svg class="icon" style="width: 1em;height: 1em;vertical-align: middle;fill: currentColor;overflow: hidden;" viewBox="0 0 1024 1024" version="1.1" xmlns="http://www.w3.org/2000/svg" width="32" height="32"><path d="M628.705882 356.382118c13.432471 0 24.515765 10.059294 26.142118 23.070117l0.210824 3.312941V391.529412h166.912c22.829176 0 41.562353 17.408 43.700705 39.695059l0.210824 4.21647v386.529883c0 24.244706-19.666824 43.911529-43.911529 43.911529H435.440941A43.911529 43.911529 0 0 1 391.529412 821.970824V655.058824h-8.914824a26.352941 26.352941 0 0 1-3.312941-52.495059l3.312941-0.210824H391.529412v-166.912c0-22.829176 17.408-41.562353 39.695059-43.700706l4.21647-0.210823H602.352941v-8.794353c0-14.546824 11.806118-26.352941 26.352941-26.352941zM276.781176 180.705882a26.352941 26.352941 0 0 1 3.312942 52.495059l-3.312942 0.210824H233.411765v44.513882a26.352941 26.352941 0 0 1-23.04 26.142118l-3.312941 0.210823a26.352941 26.352941 0 0 1-26.142118-23.04L180.705882 277.925647V207.058824c0-13.432471 10.059294-24.515765 23.04-26.142118L207.058824 180.705882H276.781176zM207.058824 532.299294c13.432471 0 24.515765 10.029176 26.142117 23.04l0.210824 3.312941v43.670589L277.263059 602.352941c13.432471 0 24.515765 10.059294 26.142117 23.04l0.210824 3.312941a26.352941 26.352941 0 0 1-23.070118 26.142118l-3.312941 0.210824H207.088941a26.352941 26.352941 0 0 1-26.142117-23.04L180.705882 628.705882v-70.053647c0-14.576941 11.806118-26.352941 26.352942-26.352941zM628.705882 180.705882c13.432471 0 24.515765 10.059294 26.142118 23.04l0.210824 3.312942v70.535529a26.352941 26.352941 0 0 1-52.495059 3.312941L602.352941 277.594353V233.411765l-43.881412 0.030117a26.352941 26.352941 0 0 1-26.142117-23.04l-0.210824-3.312941c0-13.432471 10.059294-24.515765 23.04-26.142117l3.312941-0.210824h70.234353z m-175.525647 0a26.352941 26.352941 0 0 1 3.312941 52.495059l-3.312941 0.210824h-69.933176a26.352941 26.352941 0 0 1-3.312941-52.495059l3.312941-0.210824h69.933176z m-246.121411 175.676236c13.432471 0 24.515765 10.059294 26.142117 23.070117l0.210824 3.312941v70.264471a26.352941 26.352941 0 0 1-52.495059 3.312941L180.705882 452.999529v-70.294588c0-14.546824 11.806118-26.352941 26.352942-26.352941z" fill="#568af2" /></svg>