<svg class="icon" style="width: 1em;height: 1em;vertical-align: middle;fill: currentColor;overflow: hidden;" viewBox="0 0 1024 1024" version="1.1" xmlns="http://www.w3.org/2000/svg" width="32" height="32"><path d="M628.705882 180.705882a26.352941 26.352941 0 0 1 3.312942 52.495059l-3.312942 0.210824H259.764706a26.352941 26.352941 0 0 0-26.142118 23.04l-0.210823 3.312941v527.058823c0 13.432471 10.059294 24.515765 23.04 26.142118l3.312941 0.210824h527.058823a26.352941 26.352941 0 0 0 26.142118-23.04l0.210824-3.312942V453.029647a26.352941 26.352941 0 0 1 52.495058-3.312941l0.210824 3.312941v333.793882a79.058824 79.058824 0 0 1-74.059294 78.908236l-4.99953 0.150588h-527.058823a79.058824 79.058824 0 0 1-78.908235-74.059294L180.705882 786.823529v-527.058823a79.058824 79.058824 0 0 1 74.059294-78.908235L259.764706 180.705882h368.941176z" fill="#568af2" /><path d="M800.527059 209.317647a26.352941 26.352941 0 0 1 44.754823 27.587765l-1.867294 3.011764-263.529412 368.941177a26.352941 26.352941 0 0 1-35.087058 7.258353l-2.831059-1.957647-175.676235-140.559059a26.352941 26.352941 0 0 1 29.967058-43.218824l2.95153 2.048 153.931294 123.151059L800.527059 209.317647z" fill="#568af2" /></svg>