<svg class="icon" style="width: 1em;height: 1em;vertical-align: middle;fill: currentColor;overflow: hidden;" viewBox="0 0 1024 1024" version="1.1" xmlns="http://www.w3.org/2000/svg" width="32" height="32"><path d="M853.323294 193.264941a26.352941 26.352941 0 0 1 3.312941 52.495059l-3.312941 0.210824H150.588235a26.352941 26.352941 0 0 1-3.312941-52.525177L150.588235 193.264941h702.735059zM343.853176 474.352941a26.352941 26.352941 0 0 1 3.312942 52.495059l-3.312942 0.210824H150.588235a26.352941 26.352941 0 0 1-3.312941-52.495059L150.588235 474.352941h193.264941z m0 281.088a26.352941 26.352941 0 0 1 3.312942 52.525177l-3.312942 0.180706H150.588235a26.352941 26.352941 0 0 1-3.312941-52.495059l3.312941-0.210824h193.264941z m289.882353-386.499765a175.676235 175.676235 0 0 1 133.632 289.731765l104.658824 105.441883a26.352941 26.352941 0 0 1-34.695529 39.514352l-2.710589-2.379294-107.218823-107.971764a175.676235 175.676235 0 1 1-93.696-324.336942z" fill="#568af2" /></svg>