<svg class="icon" style="width: 1em;height: 1em;vertical-align: middle;fill: currentColor;overflow: hidden;" viewBox="0 0 1024 1024" version="1.1" xmlns="http://www.w3.org/2000/svg" width="32" height="32"><path d="M597.323294 124.235294a26.352941 26.352941 0 0 1 3.312941 52.495059l-3.312941 0.210823H245.970824a8.794353 8.794353 0 0 0-8.553412 6.776471l-0.240941 2.017882v632.470589c0 4.156235 2.891294 7.619765 6.77647 8.553411l2.017883 0.210824H737.882353a8.794353 8.794353 0 0 0 8.553412-6.746353l0.240941-2.017882V431.766588a26.352941 26.352941 0 0 1 52.495059-3.312941l0.210823 3.312941v386.409412a61.500235 61.500235 0 0 1-56.922353 61.349647l-4.577882 0.150588H245.970824A61.500235 61.500235 0 0 1 184.621176 822.814118l-0.180705-4.577883v-632.470588c0-32.436706 25.088-58.970353 56.922353-61.319529l4.577882-0.180706h351.35247z" fill="#568af2" /><path d="M456.794353 370.206118a26.352941 26.352941 0 0 1 3.312941 52.495058l-3.312941 0.210824H316.235294a26.352941 26.352941 0 0 1-3.312941-52.525176l3.312941-0.180706h140.559059zM527.058824 545.882353a26.352941 26.352941 0 0 1 3.312941 52.495059l-3.312941 0.210823h-210.82353a26.352941 26.352941 0 0 1-3.312941-52.495059l3.312941-0.210823h210.82353zM789.504 167.122824a26.352941 26.352941 0 0 1 39.634824 34.544941l-2.349177 2.710588-210.733176 210.733176a26.352941 26.352941 0 0 1-39.634824-34.575058l2.349177-2.710589 210.733176-210.703058z" fill="#568af2" /></svg>