<svg class="icon" style="width: 1em;height: 1em;vertical-align: middle;fill: currentColor;overflow: hidden;" viewBox="0 0 1024 1024" version="1.1" xmlns="http://www.w3.org/2000/svg" width="32" height="32"><path d="M614.701176 120.470588a26.352941 26.352941 0 0 1 3.312942 52.495059l-3.312942 0.210824H506.88v351.35247h333.793882V444.837647c0-13.432471 10.059294-24.515765 23.070118-26.142118l3.312941-0.210823c13.432471 0 24.515765 10.059294 26.142118 23.04l0.210823 3.312941v106.074353a26.352941 26.352941 0 0 1-23.070117 26.142118l-3.312941 0.210823H480.527059a26.352941 26.352941 0 0 1-26.142118-23.070117l-0.210823-3.312942V146.853647c0-13.432471 10.059294-24.515765 23.070117-26.142118l3.312941-0.210823h134.204236z" fill="#568af2" /><path d="M866.063059 163.328a26.352941 26.352941 0 0 1 39.634823 34.544941l-2.349176 2.710588-200.884706 201.065412a26.352941 26.352941 0 0 1-34.334118 2.56l-2.710588-2.288941-80.173176-78.034824a26.352941 26.352941 0 0 1 34.032941-40.086588l2.710588 2.319059 61.560471 59.873882 182.512941-182.663529zM287.472941 489.411765c13.432471 0 24.515765 10.059294 26.142118 23.04l0.210823 3.312941v193.264941c0 37.165176 7.890824 64.271059 21.805177 82.763294 14.727529 19.576471 36.924235 29.786353 62.313412 31.232l6.384941 0.180706h216.937412a26.352941 26.352941 0 0 1 3.312941 52.495059l-3.312941 0.210823h-216.937412c-43.429647 0-83.968-16.745412-110.832941-52.434823-19.847529-26.383059-30.870588-61.44-32.225883-104.990118l-0.150588-9.456941v-193.264941c0-14.576941 11.776-26.352941 26.352941-26.352941z" fill="#568af2" /><path d="M268.830118 497.121882a26.352941 26.352941 0 0 1 34.544941-2.379294l2.710588 2.379294 140.709647 140.528942a26.352941 26.352941 0 0 1-34.544941 39.664941l-2.710588-2.349177-122.096941-121.97647-121.976471 121.97647a26.352941 26.352941 0 0 1-34.575059 2.319059l-2.710588-2.349176a26.352941 26.352941 0 0 1-2.349177-34.575059l2.349177-2.710588 140.649412-140.528942z" fill="#568af2" /></svg>