<svg class="icon" style="width: 1em;height: 1em;vertical-align: middle;fill: currentColor;overflow: hidden;" viewBox="0 0 1024 1024" version="1.1" xmlns="http://www.w3.org/2000/svg" width="32" height="32"><path d="M197.180235 197.180235c56.982588-56.982588 149.624471-56.741647 210.281412-1.415529l5.421177 5.180235 136.673882 136.643765a26.352941 26.352941 0 0 1-34.575059 39.634823l-2.710588-2.379294-136.643765-136.643764C335.450353 198.023529 272.263529 196.668235 234.435765 234.435765c-36.352 36.382118-36.472471 96.376471-0.542118 136.643764l4.306824 4.547765 136.643764 136.643765a26.352941 26.352941 0 0 1-34.544941 39.634823l-2.710588-2.349176-136.643765-136.643765c-60.446118-60.446118-62.464-157.033412-3.764706-215.732706zM618.104471 443.693176a26.352941 26.352941 0 0 1 34.575058-2.349176l2.710589 2.349176 136.643764 136.673883c62.132706 62.132706 65.927529 156.400941 3.312942 216.124235-60.867765 58.096941-148.751059 57.133176-209.79953 1.084235l-5.481412-5.270588-136.643764-136.643765a26.352941 26.352941 0 0 1 34.544941-39.634823l2.710588 2.379294 136.643765 136.643765c41.261176 41.261176 99.990588 43.068235 141.643294 3.312941 38.821647-37.044706 37.948235-94.418824 0.150588-136.161882l-4.367059-4.577883-136.643764-136.643764a26.352941 26.352941 0 0 1 0-37.285648z" fill="#568af2" /><path d="M362.194824 357.888a26.352941 26.352941 0 0 1 34.575058-2.349176l2.710589 2.349176 68.306823 68.336941a26.352941 26.352941 0 0 1-34.575059 39.634824l-2.710588-2.379294-68.306823-68.306824a26.352941 26.352941 0 0 1 0-37.285647zM521.637647 517.330824a26.352941 26.352941 0 0 1 34.544941-2.379295l2.710588 2.379295 68.306824 68.306823a26.352941 26.352941 0 0 1-34.544941 39.634824l-2.710588-2.349177-68.336942-68.336941a26.352941 26.352941 0 0 1 0-37.255529z" fill="#568af2" /></svg>