<svg class="icon" style="width: 1em;height: 1em;vertical-align: middle;fill: currentColor;overflow: hidden;" viewBox="0 0 1024 1024" version="1.1" xmlns="http://www.w3.org/2000/svg" width="32" height="32"><path d="M348.461176 182.904471l1.807059 2.770823 162.69553 281.750588 160.677647-278.287058a26.352941 26.352941 0 0 1 47.134117 23.371294l-1.505882 2.951529-175.887059 304.64 96.195765 166.640941a114.176 114.176 0 0 1 215.009882 53.63953 114.206118 114.206118 0 0 1-215.883294 52.043294l-35.418353-63.096471-90.352941-156.521412-92.461176 160.165647-36.352 61.680942a114.206118 114.206118 0 1 1 1.234823-106.164706l97.15953-168.357647-177.874824-308.10353a26.352941 26.352941 0 0 1 43.791059-29.123764z" fill="#568af2" /></svg>