<svg class="icon" style="width: 1em;height: 1em;vertical-align: middle;fill: currentColor;overflow: hidden;" viewBox="0 0 1024 1024" version="1.1" xmlns="http://www.w3.org/2000/svg" width="32" height="32"><path d="M863.382588 292.442353c13.432471 0 24.515765 10.029176 26.142118 23.04l0.210823 3.312941V828.235294a61.500235 61.500235 0 0 1-56.922353 61.31953l-4.577882 0.180705H318.795294a26.352941 26.352941 0 0 1-3.312941-52.495058l3.312941-0.210824H828.235294a8.794353 8.794353 0 0 0 8.553412-6.776471l0.240941-2.017882V318.765176c0-14.546824 11.776-26.322824 26.352941-26.322823z m-175.706353-140.589177a79.058824 79.058824 0 0 1 78.908236 74.059295l0.150588 4.999529v456.764235A79.058824 79.058824 0 0 1 692.705882 766.584471l-4.999529 0.150588H230.912A79.058824 79.058824 0 0 1 152.003765 692.705882l-0.150589-4.999529V230.912A79.058824 79.058824 0 0 1 225.882353 152.003765l4.999529-0.150589h456.764236z m-104.05647 193.897412l-2.680471 2.409412-157.81647 162.394353-86.528-79.691294-2.800942-2.228706a26.352941 26.352941 0 0 0-35.358117 38.4l2.469647 2.620235 105.411764 97.069177 2.710589 2.198588a26.383059 26.383059 0 0 0 31.141647-0.662588l2.891294-2.56 175.676235-180.826353 2.319059-2.710588a26.352941 26.352941 0 0 0-37.436235-36.412236z" fill="#568af2" /></svg>