<svg class="icon" style="width: 1em;height: 1em;vertical-align: middle;fill: currentColor;overflow: hidden;" viewBox="0 0 1024 1024" version="1.1" xmlns="http://www.w3.org/2000/svg" width="32" height="32"><path d="M0 0h1024v1024H0z" fill="#568af2" fill-opacity="0" /><path d="M270.034824 401.076706a26.352941 26.352941 0 0 1-3.493648 37.104941 693.308235 693.308235 0 0 0-83.034352 81.769412L180.705882 523.294118l7.920942 9.216 5.421176 6.113882A693.308235 693.308235 0 0 0 266.541176 608.376471c75.203765 62.343529 153.961412 99.358118 231.664942 99.358117 21.082353 0 42.405647-2.770824 63.849411-8.131764a26.352941 26.352941 0 1 1 12.8 51.139764c-25.539765 6.384941-51.109647 9.697882-76.649411 9.697883-92.099765 0-181.519059-42.044235-265.276236-111.465412a745.532235 745.532235 0 0 1-78.095058-75.14353l-5.872942-6.625882-10.691764-12.468706-10.270118-12.709647-2.288941-3.011765a26.352941 26.352941 0 0 1 0-31.503058l7.80047-9.938824 4.758589-5.782588 10.691764-12.468706 5.872942-6.625882c23.04-25.6 49.212235-51.2 78.095058-75.14353a26.352941 26.352941 0 0 1 37.104942 3.493647zM498.206118 286.117647c92.099765 0 181.488941 42.044235 265.276235 111.465412a745.532235 745.532235 0 0 1 78.064941 75.143529l5.872941 6.625883 10.691765 12.468705 11.565176 14.396236 1.024 1.325176a26.352941 26.352941 0 0 1 0 31.503059l-7.830588 9.938824-4.758588 5.782588-10.691765 12.468706-5.872941 6.625882c-23.04 25.6-49.212235 51.2-78.064941 75.143529a26.352941 26.352941 0 0 1-33.641412-40.598588 693.308235 693.308235 0 0 0 72.523294-69.782588l5.421177-6.113882 7.920941-9.246118-7.920941-9.185882-5.421177-6.113883a693.308235 693.308235 0 0 0-72.523294-69.782588c-75.203765-62.343529-153.931294-99.358118-231.634823-99.358118-20.931765 0-42.074353 2.710588-63.36753 8.011295a26.352941 26.352941 0 1 1-12.709647-51.169883 315.030588 315.030588 0 0 1 76.077177-9.547294z" fill="#568af2" /><path d="M414.027294 446.132706a26.352941 26.352941 0 1 1 38.851765 35.599059 61.500235 61.500235 0 0 0 88.365176 85.473882 26.352941 26.352941 0 1 1 36.894118 37.647059 114.206118 114.206118 0 0 1-164.141177-158.72z" fill="#568af2" /><path d="M163.328 188.416a26.352941 26.352941 0 0 1 34.575059-2.349176l2.710588 2.349176 632.470588 632.470588a26.352941 26.352941 0 0 1-34.575059 39.634824l-2.710588-2.349177-632.470588-632.470588a26.352941 26.352941 0 0 1 0-37.285647z" fill="#568af2" /></svg>