<svg class="icon" style="width: 1em;height: 1em;vertical-align: middle;fill: currentColor;overflow: hidden;" viewBox="0 0 1024 1024" version="1.1" xmlns="http://www.w3.org/2000/svg" width="32" height="32"><path d="M809.411765 210.823529H212.088471A61.500235 61.500235 0 0 0 150.588235 272.323765v491.911529c0 33.972706 27.527529 61.500235 61.500236 61.500235h597.323294a61.500235 61.500235 0 0 0 61.500235-61.500235V272.323765A61.500235 61.500235 0 0 0 809.411765 210.823529zM212.088471 263.529412h597.323294c4.848941 0 8.794353 3.915294 8.794353 8.794353v491.911529c0 4.848941-3.915294 8.794353-8.794353 8.794353H212.088471a8.794353 8.794353 0 0 1-8.794353-8.794353V272.323765c0-4.848941 3.915294-8.794353 8.794353-8.794353z" fill="#568af2" /><path d="M343.853176 333.793882a52.705882 52.705882 0 1 0 0 105.411765 52.705882 52.705882 0 0 0 0-105.411765zM525.854118 448.421647l-88.847059 103.634824-67.915294-54.362353a26.352941 26.352941 0 0 0-35.087059 1.957647l-175.706353 175.676235a26.352941 26.352941 0 0 0-7.710118 18.642824v70.26447c0 33.972706 27.527529 61.500235 61.500236 61.500235h597.323294a61.500235 61.500235 0 0 0 61.500235-61.500235v-70.26447a26.352941 26.352941 0 0 0-10.360471-20.931765l-298.646588-228.412235a26.352941 26.352941 0 0 0-36.020706 3.794823z m23.792941 53.217882l268.528941 205.312v57.283765c0 4.848941-3.915294 8.794353-8.764235 8.794353H212.088471l-2.017883-0.240941a8.794353 8.794353 0 0 1-6.77647-8.553412v-59.392l151.280941-151.250823 69.421176 55.536941a26.352941 26.352941 0 0 0 36.472471-3.433412l89.178353-104.056471z" fill="#568af2" /></svg>