<svg class="icon" style="width: 1em;height: 1em;vertical-align: middle;fill: currentColor;overflow: hidden;" viewBox="0 0 1024 1024" version="1.1" xmlns="http://www.w3.org/2000/svg" width="32" height="32"><path d="M849.558588 286.117647h-527.058823a26.352941 26.352941 0 0 0-20.87153 10.300235L125.891765 524.8a26.352941 26.352941 0 0 0 0 32.135529l175.706353 228.382118a26.352941 26.352941 0 0 0 20.871529 10.300235h527.058824a26.352941 26.352941 0 0 0 26.352941-26.352941V312.470588a26.352941 26.352941 0 0 0-26.352941-26.352941z m-26.352941 52.705882v404.058353H335.450353l-155.407059-202.029176 155.407059-202.029177h487.755294z" fill="#568af2" /><path d="M426.857412 434.386824a26.352941 26.352941 0 0 1 34.575059-2.349177l2.710588 2.349177 175.676235 175.676235a26.352941 26.352941 0 0 1-34.575059 39.634823l-2.710588-2.349176-175.676235-175.706353a26.352941 26.352941 0 0 1 0-37.255529z" fill="#568af2" /><path d="M602.533647 434.386824a26.352941 26.352941 0 0 1 39.634824 34.575058l-2.349177 2.710589-175.706353 175.676235a26.352941 26.352941 0 0 1-39.604706-34.575059l2.349177-2.710588 175.676235-175.676235z" fill="#568af2" /></svg>