<svg class="icon" style="width: 1em;height: 1em;vertical-align: middle;fill: currentColor;overflow: hidden;" viewBox="0 0 1024 1024" version="1.1" xmlns="http://www.w3.org/2000/svg" width="32" height="32"><path d="M0 0h1024v1024H0z" fill="#568af2" fill-opacity="0" /><path d="M683.038118 163.147294a219.617882 219.617882 0 0 1 219.617882 219.587765 26.352941 26.352941 0 1 1-52.705882 0 166.912 166.912 0 0 0-303.49553-95.954824 26.352941 26.352941 0 0 1-43.068235 0 166.912 166.912 0 0 0-303.465412 95.954824c0 147.215059 167.243294 321.204706 317.289412 379.060706l7.619765 2.831059a391.529412 391.529412 0 0 0 47.525647-21.624471l10.149647-5.541647a26.352941 26.352941 0 0 1 25.72047 46.019765c-26.593882 14.878118-52.163765 26.503529-74.992941 34.093176a26.352941 26.352941 0 0 1-16.624941 0c-173.176471-57.554824-369.423059-255.728941-369.423059-434.838588A219.617882 219.617882 0 0 1 520.192 225.581176l4.698353 4.818824 4.758588-4.818824a219.075765 219.075765 0 0 1 145.076706-62.253176l8.312471-0.150588z" fill="#568af2" /><path d="M700.867765 502.814118a26.352941 26.352941 0 0 1 34.635294 1.264941l2.409412 2.650353 120.862117 149.323294a26.352941 26.352941 0 0 1-38.550588 35.779765l-2.409412-2.620236-120.862117-149.353411a26.352941 26.352941 0 0 1 3.915294-37.044706z" fill="#568af2" /><path d="M817.814588 506.729412a26.352941 26.352941 0 0 1 43.038118 30.208l-2.078118 2.921412-120.832 149.353411a26.352941 26.352941 0 0 1-43.038117-30.238117l2.048-2.921412 120.862117-149.323294z" fill="#568af2" /></svg>