<svg class="icon" style="width: 1em;height: 1em;vertical-align: middle;fill: currentColor;overflow: hidden;" viewBox="0 0 1024 1024" version="1.1" xmlns="http://www.w3.org/2000/svg" width="32" height="32"><path d="M0 0h1024v1024H0z" fill="#568af2" fill-opacity="0" /><path d="M716.589176 135.529412h-316.235294a26.352941 26.352941 0 0 0-23.341176 14.125176L183.717647 518.595765l-1.385412 3.132235a26.352941 26.352941 0 0 0 24.726589 35.448471h211.757176l-79.119059 300.754823c-6.987294 26.533647 26.202353 44.754824 44.875294 24.576l421.647059-456.794353 2.017882-2.469647a26.352941 26.352941 0 0 0-21.383529-41.743059l-209.317647-0.030117 159.744-203.294118a26.352941 26.352941 0 0 0-20.720941-42.646588z m-54.211764 52.705882l-159.774118 203.324235-1.837176 2.650353a26.352941 26.352941 0 0 0 22.588235 39.996236l203.324235-0.030118-309.067294 334.787765 60.928-231.424 0.602353-3.132236a26.352941 26.352941 0 0 0-26.081882-29.936941h-202.390589l165.586824-316.235294h246.091294z" fill="#568af2" /></svg>