<svg class="icon" style="width: 1em;height: 1em;vertical-align: middle;fill: currentColor;overflow: hidden;" viewBox="0 0 1024 1024" version="1.1" xmlns="http://www.w3.org/2000/svg" width="32" height="32"><path d="M279.853176 344.335059c13.432471 0 24.515765 10.059294 26.142118 23.070117l0.210824 3.312942v456.764235a26.352941 26.352941 0 0 1-52.525177 3.312941l-0.180706-3.312941V370.688c0-14.546824 11.776-26.352941 26.352941-26.352941zM508.235294 572.747294c13.432471 0 24.515765 10.029176 26.142118 23.04l0.210823 3.312941v228.382118a26.352941 26.352941 0 0 1-52.495059 3.312941l-0.210823-3.312941v-228.382118c0-14.576941 11.806118-26.352941 26.352941-26.352941zM508.235294 168.658824c13.432471 0 24.515765 10.059294 26.142118 23.04l0.210823 3.312941v228.382117a26.352941 26.352941 0 0 1-52.495059 3.312942l-0.210823-3.312942V195.011765c0-14.546824 11.806118-26.352941 26.352941-26.352941zM736.617412 168.658824c13.432471 0 24.545882 10.059294 26.172235 23.04l0.180706 3.312941v456.794353a26.352941 26.352941 0 0 1-52.495059 3.312941l-0.210823-3.312941V195.011765c0-14.546824 11.806118-26.352941 26.352941-26.352941z" fill="#568af2" /><path d="M279.853176 168.658824a114.206118 114.206118 0 1 0 0 228.382117 114.206118 114.206118 0 0 0 0-228.382117z m0 52.705882a61.500235 61.500235 0 1 1 0 122.970353 61.500235 61.500235 0 0 1 0-122.970353zM508.235294 397.040941a114.206118 114.206118 0 1 0 0 228.412235 114.206118 114.206118 0 0 0 0-228.412235z m0 52.705883a61.500235 61.500235 0 1 1 0 123.00047 61.500235 61.500235 0 0 1 0-123.00047zM736.617412 625.453176a114.206118 114.206118 0 1 0 0 228.382118 114.206118 114.206118 0 0 0 0-228.382118z m0 52.705883a61.500235 61.500235 0 1 1 0 122.970353 61.500235 61.500235 0 0 1 0-122.970353z" fill="#568af2" /></svg>