<svg class="icon" style="width: 1em;height: 1em;vertical-align: middle;fill: currentColor;overflow: hidden;" viewBox="0 0 1024 1024" version="1.1" xmlns="http://www.w3.org/2000/svg" width="32" height="32"><path d="M833.174588 195.764706c13.432471 0 24.515765 10.059294 26.142118 23.04l0.210823 3.312941v158.117647a26.352941 26.352941 0 0 1-52.495058 3.312941l-0.210824-3.312941V248.470588h-131.764706a26.352941 26.352941 0 0 1-26.142117-23.04l-0.210824-3.312941c0-13.432471 10.059294-24.515765 23.04-26.142118l3.312941-0.210823h158.117647zM260.457412 417.008941a272.323765 272.323765 0 1 0 6.324706-6.144l-6.324706 6.144z m347.858823 37.25553a218.804706 218.804706 0 0 1 64.301177 155.286588 219.617882 219.617882 0 1 1-64.331294-155.286588z" fill="#568af2" /><path d="M779.414588 238.622118a26.352941 26.352941 0 0 1 39.634824 34.575058l-2.379294 2.710589-174.832942 174.802823a26.352941 26.352941 0 0 1-39.604705-34.544941l2.349176-2.710588 174.832941-174.832941z" fill="#568af2" /></svg>