<svg class="icon" style="width: 1em;height: 1em;vertical-align: middle;fill: currentColor;overflow: hidden;" viewBox="0 0 1024 1024" version="1.1" xmlns="http://www.w3.org/2000/svg" width="32" height="32"><path d="M0 0h1024v1024H0z" fill="#568af2" fill-opacity="0" /><path d="M513.264941 135.529412C304.64 135.529412 135.529412 304.64 135.529412 513.264941c0 208.594824 169.110588 377.705412 377.735529 377.705412 208.594824 0 377.705412-169.110588 377.705412-377.705412 0-208.624941-169.110588-377.735529-377.705412-377.735529z m0 52.705882c179.501176 0 324.999529 145.528471 324.99953 325.029647s-145.498353 324.999529-324.99953 324.99953S188.235294 692.766118 188.235294 513.264941 333.763765 188.235294 513.264941 188.235294z" fill="#568af2" /><path d="M513.264941 311.205647a202.029176 202.029176 0 1 0 0 404.088471 202.029176 202.029176 0 0 0 0-404.088471z m0 52.705882a149.323294 149.323294 0 1 1 0 298.676706 149.323294 149.323294 0 0 1 0-298.676706z" fill="#568af2" /><path d="M513.264941 135.529412c13.432471 0 24.515765 10.059294 26.142118 23.04l0.210823 3.312941v702.735059a26.352941 26.352941 0 0 1-52.525176 3.312941l-0.180706-3.312941V161.882353c0-14.546824 11.776-26.352941 26.352941-26.352941zM161.912471 486.912l245.940705 0.150588a26.352941 26.352941 0 0 1 3.282824 52.495059l-3.312941 0.210824-245.970824-0.150589a26.352941 26.352941 0 0 1-3.252706-52.495058l3.312942-0.210824z" fill="#568af2" /><path d="M864.617412 487.062588a26.352941 26.352941 0 0 1 3.312941 52.495059l-3.312941 0.210824H161.882353a26.352941 26.352941 0 0 1-3.312941-52.525177l3.312941-0.180706h702.735059z" fill="#568af2" /></svg>