<svg class="icon" style="width: 1em;height: 1em;vertical-align: middle;fill: currentColor;overflow: hidden;" viewBox="0 0 1024 1024" version="1.1" xmlns="http://www.w3.org/2000/svg" width="32" height="32"><path d="M513.264941 135.529412C304.64 135.529412 135.529412 304.64 135.529412 513.264941c0 208.594824 169.110588 377.705412 377.735529 377.705412 208.594824 0 377.705412-169.110588 377.705412-377.705412 0-208.624941-169.110588-377.735529-377.705412-377.735529z m0 52.705882c179.501176 0 324.999529 145.528471 324.99953 325.029647s-145.498353 324.999529-324.99953 324.99953S188.235294 692.766118 188.235294 513.264941 333.763765 188.235294 513.264941 188.235294z" fill="#568af2" /><path d="M337.558588 513.264941m-52.705882 0a52.705882 52.705882 0 1 0 105.411765 0 52.705882 52.705882 0 1 0-105.411765 0Z" fill="#568af2" /><path d="M513.264941 513.264941m-52.705882 0a52.705882 52.705882 0 1 0 105.411765 0 52.705882 52.705882 0 1 0-105.411765 0Z" fill="#568af2" /><path d="M688.941176 513.264941m-52.705882 0a52.705882 52.705882 0 1 0 105.411765 0 52.705882 52.705882 0 1 0-105.411765 0Z" fill="#568af2" /></svg>