<svg class="icon" style="width: 1em;height: 1em;vertical-align: middle;fill: currentColor;overflow: hidden;" viewBox="0 0 1024 1024" version="1.1" xmlns="http://www.w3.org/2000/svg" width="32" height="32"><path d="M453.029647 180.705882H207.058824A26.352941 26.352941 0 0 0 180.705882 207.058824v193.264941c0 14.546824 11.806118 26.352941 26.352942 26.352941h245.970823a26.352941 26.352941 0 0 0 26.352941-26.352941V207.058824A26.352941 26.352941 0 0 0 453.029647 180.705882z m-26.383059 52.705883v140.528941H233.411765V233.411765h193.234823zM839.529412 619.911529h-245.970824a26.352941 26.352941 0 0 0-26.352941 26.352942v193.264941c0 14.546824 11.806118 26.352941 26.352941 26.352941h245.970824a26.352941 26.352941 0 0 0 26.352941-26.352941v-193.264941a26.352941 26.352941 0 0 0-26.352941-26.352942zM813.176471 672.617412v140.528941h-193.264942v-140.528941H813.176471zM839.529412 180.705882h-245.970824a26.352941 26.352941 0 0 0-26.352941 26.352942v298.676705c0 14.546824 11.806118 26.352941 26.352941 26.352942h245.970824a26.352941 26.352941 0 0 0 26.352941-26.352942V207.058824A26.352941 26.352941 0 0 0 839.529412 180.705882zM813.176471 233.411765v245.940706h-193.264942V233.411765H813.176471zM453.029647 514.499765H207.058824a26.352941 26.352941 0 0 0-26.352942 26.352941v298.676706c0 14.546824 11.806118 26.352941 26.352942 26.352941h245.970823a26.352941 26.352941 0 0 0 26.352941-26.352941v-298.676706a26.352941 26.352941 0 0 0-26.352941-26.352941z m-26.383059 52.705882V813.176471H233.411765v-245.970824h193.234823z" fill="#568af2" /></svg>