<svg class="icon" style="width: 1em;height: 1em;vertical-align: middle;fill: currentColor;overflow: hidden;" viewBox="0 0 1024 1024" version="1.1" xmlns="http://www.w3.org/2000/svg" width="32" height="32"><path d="M511.006118 221.123765a289.882353 289.882353 0 1 0 0 579.764706 289.882353 289.882353 0 0 0 0-579.764706z m0 52.705882a237.176471 237.176471 0 1 1 0 474.352941 237.176471 237.176471 0 0 1 0-474.352941z" fill="#568af2" /><path d="M511.006118 748.182588c13.432471 0 24.515765 10.029176 26.142117 23.04l0.210824 3.312941v87.823059a26.352941 26.352941 0 0 1-52.525177 3.312941l-0.180706-3.312941v-87.823059c0-14.576941 11.776-26.352941 26.352942-26.352941zM862.358588 467.064471a26.352941 26.352941 0 0 1 3.312941 52.525176l-3.312941 0.180706h-87.823059a26.352941 26.352941 0 0 1-3.312941-52.495059l3.312941-0.210823h87.823059zM247.476706 467.064471a26.352941 26.352941 0 0 1 3.312941 52.525176l-3.312941 0.180706H159.623529a26.352941 26.352941 0 0 1-3.312941-52.495059l3.312941-0.210823h87.853177zM511.006118 133.270588c13.432471 0 24.515765 10.059294 26.142117 23.04l0.210824 3.312941v87.853177a26.352941 26.352941 0 0 1-52.525177 3.312941l-0.180706-3.312941V159.623529c0-14.546824 11.776-26.352941 26.352942-26.352941zM678.701176 678.701176a26.352941 26.352941 0 0 1 34.575059-2.349176l2.710589 2.349176 62.102588 62.102589a26.352941 26.352941 0 0 1-34.575059 39.634823l-2.710588-2.349176-62.102589-62.132706a26.352941 26.352941 0 0 1 0-37.25553zM728.395294 231.484235a26.352941 26.352941 0 0 1 39.634824 34.575059l-2.379294 2.710588-62.102589 62.102589a26.352941 26.352941 0 0 1-39.634823-34.575059l2.379294-2.710588 62.102588-62.102589zM293.586824 666.292706a26.352941 26.352941 0 0 1 39.634823 34.544941l-2.349176 2.710588-62.132706 62.132706a26.352941 26.352941 0 0 1-39.604706-34.575059l2.349176-2.710588 62.102589-62.102588zM243.892706 243.892706a26.352941 26.352941 0 0 1 34.575059-2.349177l2.710588 2.349177 62.102588 62.132706a26.352941 26.352941 0 0 1-34.575059 39.634823l-2.710588-2.379294-62.102588-62.102588a26.352941 26.352941 0 0 1 0-37.285647z" fill="#568af2" /></svg>