<svg class="icon" style="width: 1em;height: 1em;vertical-align: middle;fill: currentColor;overflow: hidden;" viewBox="0 0 1024 1024" version="1.1" xmlns="http://www.w3.org/2000/svg" width="32" height="32"><path d="M374.422588 182.061176a26.352941 26.352941 0 0 1 32.075294 13.613177l1.264942 3.072 17.558588 52.705882a26.352941 26.352941 0 0 1-48.790588 19.727059l-1.204706-3.072-17.588706-52.705882a26.352941 26.352941 0 0 1 16.685176-33.340236z" fill="#568af2" /><path d="M593.588706 268.559059a26.352941 26.352941 0 0 1 3.312941 52.495059l-3.312941 0.210823H207.058824a26.352941 26.352941 0 0 1-3.312942-52.495059l3.312942-0.210823H593.618824zM270.095059 357.406118a26.352941 26.352941 0 0 1 32.587294 18.100706l0.692706 2.349176 3.252706 9.637647 3.102117 8.372706 3.915294 9.758118c9.607529 23.190588 21.594353 46.381176 35.990589 67.885176 15.992471 23.853176 34.002824 44.062118 53.910588 59.542588 19.124706 14.878118 42.706824 29.997176 69.662118 45.056a1077.910588 1077.910588 0 0 0 89.389176 44.212706l15.420235 6.686118 24.997647 10.24a26.352941 26.352941 0 1 1-18.883764 49.212235l-11.956706-4.788706-14.757647-6.144-16.112941-6.987294a1129.411765 1129.411765 0 0 1-93.816471-46.411294c-29.093647-16.263529-54.814118-32.768-76.288-49.483294-24.696471-19.215059-46.381176-43.550118-65.355294-71.770353a443.000471 443.000471 0 0 1-40.899765-77.101177l-4.487529-11.203764-5.12-14.125177-2.409412-7.408941a166.369882 166.369882 0 0 1-0.903529-3.041882 26.352941 26.352941 0 0 1 18.070588-32.587294z" fill="#568af2" /><path d="M528.896 269.161412a26.352941 26.352941 0 0 1 20.178824 31.35247l-2.288942 9.487059-0.903529 3.433412c-2.56 9.878588-5.692235 20.841412-9.396706 32.647529a646.836706 646.836706 0 0 1-40.146823 99.20753c-18.582588 36.382118-39.875765 67.764706-64.240942 92.641882-21.383529 21.835294-47.104 43.489882-76.227764 64.843294-29.967059 21.985882-61.982118 42.465882-93.967059 61.018353l-8.222118 4.728471-15.510588 8.643764-15.661177 8.372706-3.614117 1.867294a26.352941 26.352941 0 0 1-23.672471-47.104l10.842353-5.662117 14.034824-7.68 15.36-8.734118a1000.809412 1000.809412 0 0 0 89.238588-57.946353c26.985412-19.787294 50.537412-39.664941 69.752471-59.241412 20.239059-20.660706 38.640941-47.766588 54.964705-79.721411 14.757647-28.852706 26.985412-59.934118 36.803765-91.075765l4.728471-15.751529 4.698353-17.317647 1.897411-7.860706a26.352941 26.352941 0 0 1 31.352471-20.178824z" fill="#568af2" /></svg>