<svg class="icon" style="width: 1em;height: 1em;vertical-align: middle;fill: currentColor;overflow: hidden;" viewBox="0 0 1024 1024" version="1.1" xmlns="http://www.w3.org/2000/svg" width="32" height="32"><path d="M0 0h1024v1024H0z" fill="#568af2" fill-opacity="0" /><path d="M475.617882 150.588235C296.116706 150.588235 150.588235 296.116706 150.588235 475.617882s145.528471 324.999529 325.029647 324.99953 324.999529-145.498353 324.99953-324.99953S655.119059 150.588235 475.617882 150.588235z m0 52.705883a272.323765 272.323765 0 1 1 0 544.617411 272.323765 272.323765 0 0 1 0-544.617411z" fill="#568af2" /><path d="M475.617882 291.147294c44.845176 0 86.919529 17.769412 118.000942 48.880941a26.352941 26.352941 0 0 1-37.25553 37.25553 113.724235 113.724235 0 0 0-80.745412-33.430589c-30.72 0-59.452235 12.137412-80.745411 33.430589a26.352941 26.352941 0 1 1-37.285647-37.25553 166.430118 166.430118 0 0 1 118.031058-48.880941zM671.683765 671.683765a26.352941 26.352941 0 0 1 34.575059-2.349177l2.710588 2.349177 149.082353 149.082353a26.352941 26.352941 0 0 1-34.575059 39.634823l-2.710588-2.379294-149.082353-149.082353a26.352941 26.352941 0 0 1 0-37.255529z" fill="#568af2" /></svg>