<svg class="icon" style="width: 1em;height: 1em;vertical-align: middle;fill: currentColor;overflow: hidden;" viewBox="0 0 1024 1024" version="1.1" xmlns="http://www.w3.org/2000/svg" width="32" height="32"><path d="M0 0h1024v1024H0z" fill="#568af2" fill-opacity="0" /><path d="M804.382118 135.529412a26.352941 26.352941 0 0 1 3.312941 52.495059l-3.312941 0.210823H207.058824a26.352941 26.352941 0 0 1-3.312942-52.495059l3.312942-0.210823h597.323294zM804.382118 838.264471a26.352941 26.352941 0 0 1 3.312941 52.525176l-3.312941 0.180706H207.058824a26.352941 26.352941 0 0 1-3.312942-52.495059l3.312942-0.210823h597.323294z" fill="#568af2" /><path d="M505.735529 486.912c-118.181647-0.120471-199.318588 118.362353-248.95247 347.136l-5.300706 25.419294a26.352941 26.352941 0 0 0 25.840941 31.503059h456.794353a26.352941 26.352941 0 0 0 25.840941-31.503059 1441.340235 1441.340235 0 0 0-16.624941-73.487059l-6.023529-22.768941c-49.392941-178.477176-123.181176-272.323765-225.15953-276.178823l-6.415059-0.120471z m4.848942 52.796235c79.510588 3.674353 143.420235 95.382588 187.241411 281.931294l3.794824 16.624942h-391.830588l1.054117-4.608c44.754824-198.686118 111.435294-294.128941 194.861177-294.038589l4.879059 0.090353z" fill="#568af2" /><path d="M734.117647 135.529412H277.323294a26.352941 26.352941 0 0 0-25.840941 31.533176l5.300706 25.359059c2.710588 12.468706 5.511529 24.606118 8.402823 36.442353l5.903059 23.190588 3.072 11.264 6.294588 21.865412c50.326588 167.815529 124.265412 254.343529 225.249883 254.433882 122.488471 0.090353 205.191529-127.126588 254.253176-372.555294a26.352941 26.352941 0 0 0-25.840941-31.533176zM309.820235 188.235294h391.800471l-1.024 4.608a1263.375059 1263.375059 0 0 1-11.384471 46.592l-6.023529 21.775059c-2.048 7.077647-4.126118 14.004706-6.234353 20.720941l-6.445177 19.727059c-42.556235 124.867765-98.364235 185.313882-164.743529 185.223529l-4.909176-0.090353c-79.510588-3.674353-143.420235-95.382588-187.241412-281.931294l-3.794824-16.655059z" fill="#568af2" /></svg>