<svg class="icon" style="width: 1em;height: 1em;vertical-align: middle;fill: currentColor;overflow: hidden;" viewBox="0 0 1024 1024" version="1.1" xmlns="http://www.w3.org/2000/svg" width="32" height="32"><path d="M764.235294 135.529412H272.323765A61.500235 61.500235 0 0 0 210.823529 197.029647v632.470588c0 33.942588 27.527529 61.470118 61.500236 61.470118h491.911529a61.500235 61.500235 0 0 0 61.500235-61.470118v-632.470588A61.500235 61.500235 0 0 0 764.235294 135.529412zM272.323765 188.235294h491.911529c4.848941 0 8.794353 3.915294 8.794353 8.794353v632.470588c0 4.818824-3.915294 8.764235-8.794353 8.764236H272.323765a8.794353 8.794353 0 0 1-8.794353-8.764236v-632.470588c0-4.848941 3.915294-8.794353 8.794353-8.794353z" fill="#568af2" /><path d="M676.382118 135.529412h-210.82353a26.352941 26.352941 0 0 0-26.352941 26.352941v316.235294l0.180706 3.162353c2.409412 21.594353 29.545412 31.442824 45.236706 15.058824l86.347294-90.322824 86.377412 90.322824c16.414118 17.167059 45.387294 5.541647 45.387294-18.221177v-316.235294a26.352941 26.352941 0 0 0-26.352941-26.352941z m-26.352942 52.705882v224.195765l-59.994352-62.735059-2.740706-2.469647a26.352941 26.352941 0 0 0-35.358118 2.469647l-60.024471 62.735059V188.235294h158.117647z" fill="#568af2" /><path d="M764.235294 135.529412a26.352941 26.352941 0 0 1 3.312941 52.495059l-3.312941 0.210823H272.323765a26.352941 26.352941 0 0 1-3.312941-52.495059l3.312941-0.210823h491.911529z" fill="#568af2" /></svg>