<svg class="icon" style="width: 1em;height: 1em;vertical-align: middle;fill: currentColor;overflow: hidden;" viewBox="0 0 1024 1024" version="1.1" xmlns="http://www.w3.org/2000/svg" width="32" height="32"><path d="M839.529412 219.617882c13.432471 0 24.515765 10.029176 26.142117 23.04l0.210824 3.312942V527.058824a26.352941 26.352941 0 0 1-52.495059 3.312941L813.176471 527.058824V245.970824c0-14.576941 11.806118-26.352941 26.352941-26.352942zM207.058824 500.705882c13.432471 0 24.515765 10.059294 26.142117 23.04l0.210824 3.312942v281.088a26.352941 26.352941 0 0 1-52.495059 3.312941L180.705882 808.146824V527.058824c0-14.546824 11.806118-26.352941 26.352942-26.352942z" fill="#568af2" /><path d="M207.058824 500.705882c14.546824 0 26.352941 11.806118 26.352941 26.352942a289.882353 289.882353 0 0 0 289.882353 289.882352 288.768 288.768 0 0 0 201.306353-81.317647 26.352941 26.352941 0 0 1 36.592941 37.948236 341.473882 341.473882 0 0 1-237.899294 96.075294C334.095059 869.647059 180.705882 716.257882 180.705882 527.058824c0-14.546824 11.806118-26.352941 26.352942-26.352942z m316.235294-316.235294c189.199059 0 342.588235 153.389176 342.588235 342.588236a26.352941 26.352941 0 1 1-52.705882 0 289.882353 289.882353 0 0 0-289.882353-289.882353 288.918588 288.918588 0 0 0-208.594824 88.576 26.352941 26.352941 0 0 1-37.918118-36.592942 341.594353 341.594353 0 0 1 246.512942-104.688941z" fill="#568af2" /></svg>