<svg class="icon" style="width: 1em;height: 1em;vertical-align: middle;fill: currentColor;overflow: hidden;" viewBox="0 0 1024 1024" version="1.1" xmlns="http://www.w3.org/2000/svg" width="32" height="32"><path d="M663.04 180.856471A219.075765 219.075765 0 0 0 518.023529 243.139765l-4.758588 4.788706-4.698353-4.818824A219.617882 219.617882 0 0 0 135.529412 400.323765c0 179.109647 196.216471 377.283765 369.423059 434.838588 5.391059 1.807059 11.203765 1.807059 16.624941 0 173.176471-57.524706 369.392941-255.698824 369.392941-434.808471A219.617882 219.617882 0 0 0 671.382588 180.705882l-8.342588 0.150589z m8.342588 52.555294a166.912 166.912 0 0 1 166.881883 166.912l-0.150589 7.890823c-5.812706 145.468235-169.803294 314.337882-317.138823 371.139765l-7.740235 2.861176-7.68-2.861176C355.508706 721.528471 188.235294 547.538824 188.235294 400.323765a166.912 166.912 0 0 1 303.465412-95.984941 26.352941 26.352941 0 0 0 43.098353 0 166.640941 166.640941 0 0 1 136.583529-70.927059z" fill="#568af2" /><path d="M564.886588 399.239529a26.352941 26.352941 0 0 1 39.634824 34.575059l-2.349177 2.710588-140.559059 140.528942a26.352941 26.352941 0 0 1-39.634823-34.544942l2.379294-2.710588 140.528941-140.559059z" fill="#568af2" /><path d="M424.357647 399.239529a26.352941 26.352941 0 0 1 34.544941-2.349176l2.710588 2.349176 140.559059 140.559059a26.352941 26.352941 0 0 1-34.575059 39.634824l-2.710588-2.379294-140.528941-140.528942a26.352941 26.352941 0 0 1 0-37.285647z" fill="#568af2" /></svg>