<svg class="icon" style="width: 1em;height: 1em;vertical-align: middle;fill: currentColor;overflow: hidden;" viewBox="0 0 1024 1024" version="1.1" xmlns="http://www.w3.org/2000/svg" width="32" height="32"><path d="M487.996235 160.135529l-263.529411 210.82353a26.352941 26.352941 0 0 0-9.878589 20.570353v421.647059c0 14.546824 11.806118 26.352941 26.352941 26.352941h527.058824a26.352941 26.352941 0 0 0 26.352941-26.352941V391.529412a26.352941 26.352941 0 0 0-9.878588-20.570353l-263.529412-210.82353a26.352941 26.352941 0 0 0-32.948706 0z m16.474353 54.302118l237.176471 189.771294v382.614588H267.294118V404.178824l237.17647-189.741177z" fill="#568af2" /><path d="M592.323765 558.441412h-175.706353a26.352941 26.352941 0 0 0-26.352941 26.352941V813.176471c0 14.546824 11.806118 26.352941 26.352941 26.352941h175.706353a26.352941 26.352941 0 0 0 26.352941-26.352941v-228.382118a26.352941 26.352941 0 0 0-26.352941-26.352941z m-26.383059 52.675764v175.706353h-122.970353v-175.706353h122.970353z" fill="#568af2" /><path d="M768 786.823529a26.352941 26.352941 0 0 1 3.312941 52.495059l-3.312941 0.210824H240.941176a26.352941 26.352941 0 0 1-3.312941-52.495059l3.312941-0.210824h527.058824z" fill="#568af2" /></svg>