<svg class="icon" style="width: 1em;height: 1em;vertical-align: middle;fill: currentColor;overflow: hidden;" viewBox="0 0 1024 1024" version="1.1" xmlns="http://www.w3.org/2000/svg" width="32" height="32"><path d="M0 0h1024v1024H0z" fill="#568af2" fill-opacity="0" /><path d="M523.294118 180.705882h-316.235294A26.352941 26.352941 0 0 0 180.705882 207.058824v316.235294c0 6.987294 2.770824 13.703529 7.740236 18.672941l284.069647 283.708235a89.569882 89.569882 0 0 0 126.765176 0l226.725647-226.725647a89.630118 89.630118 0 0 0 0.060236-126.403765l-284.129883-284.129882A26.352941 26.352941 0 0 0 523.294118 180.705882zM233.411765 233.411765h278.979764l276.329412 276.359529a36.864 36.864 0 0 1-0.060235 51.952941l-226.665412 226.69553c-6.927059 6.927059-16.323765 10.842353-26.112 10.842353l-4.186353-0.240942a36.894118 36.894118 0 0 1-21.925647-10.601411L233.411765 512.361412V233.411765z" fill="#568af2" /><path d="M391.529412 435.440941a43.911529 43.911529 0 1 0 0-87.823059 43.911529 43.911529 0 0 0 0 87.823059z" fill="#568af2" /></svg>