<svg class="icon" style="width: 1em;height: 1em;vertical-align: middle;fill: currentColor;overflow: hidden;" viewBox="0 0 1024 1024" version="1.1" xmlns="http://www.w3.org/2000/svg" width="32" height="32"><path d="M0 0h1024v1024H0z" fill="#568af2" fill-opacity="0" /><path d="M498.206118 271.058824c-92.099765 0-181.519059 42.044235-265.276236 111.465411a745.532235 745.532235 0 0 0-78.095058 75.14353l-5.872942 6.625882-10.691764 12.468706-10.270118 12.709647-2.288941 3.011765a26.352941 26.352941 0 0 0 0 31.503059l7.80047 9.938823 4.758589 5.782588 10.691764 12.468706 5.872942 6.625883c23.04 25.6 49.212235 51.2 78.095058 75.143529 83.757176 69.421176 173.176471 111.465412 265.276236 111.465412s181.488941-42.044235 265.276235-111.465412a745.532235 745.532235 0 0 0 78.064941-75.143529l5.872941-6.625883 10.691765-12.468706 11.565176-14.396235 1.024-1.325176a26.352941 26.352941 0 0 0 0-31.503059l-7.830588-9.938824-4.758588-5.782588-10.691765-12.468706A745.532235 745.532235 0 0 0 763.482353 382.494118C679.755294 313.103059 590.305882 271.058824 498.236235 271.058824z m0 52.705882c77.703529 0 156.431059 37.044706 231.604706 99.358118a693.308235 693.308235 0 0 1 72.553411 69.782588l10.541177 11.986823 2.800941 3.343059-2.831059 3.343059a693.308235 693.308235 0 0 1-83.034353 81.769412C654.637176 655.691294 575.909647 692.705882 498.206118 692.705882s-156.461176-37.044706-231.664942-99.358117a693.308235 693.308235 0 0 1-72.523294-69.782589l-10.511058-11.986823L180.705882 508.205176l2.831059-3.312941a693.308235 693.308235 0 0 1 83.034353-81.769411c75.203765-62.343529 153.961412-99.358118 231.664941-99.358118z" fill="#568af2" /><path d="M498.206118 394.029176a114.206118 114.206118 0 1 0 0 228.412236 114.206118 114.206118 0 0 0 0-228.412236z m0 52.705883a61.500235 61.500235 0 1 1 0 123.00047 61.500235 61.500235 0 0 1 0-123.00047z" fill="#568af2" /></svg>