<svg class="icon" style="width: 1em;height: 1em;vertical-align: middle;fill: currentColor;overflow: hidden;" viewBox="0 0 1024 1024" version="1.1" xmlns="http://www.w3.org/2000/svg" width="32" height="32"><path d="M0 0h1024v1024H0z" fill="#568af2" fill-opacity="0" /><path d="M408.545882 233.411765H278.949647l-3.312941 0.210823a26.352941 26.352941 0 0 0-23.04 26.142118v129.596235l-97.67153 97.731765-2.379294 2.710588a26.352941 26.352941 0 0 0 2.379294 34.544941l97.67153 97.701647v129.626353l0.210823 3.312941a26.352941 26.352941 0 0 0 26.142118 23.04h129.596235l97.731765 97.701648 2.710588 2.349176a26.352941 26.352941 0 0 0 34.575059-2.349176l97.67153-97.701648h129.65647l3.312941-0.180705a26.352941 26.352941 0 0 0 23.04-26.172236v-129.626353l97.67153-97.701647 2.379294-2.710588a26.352941 26.352941 0 0 0-2.379294-34.544941l-97.701647-97.731765V259.764706l-0.180706-3.312941a26.352941 26.352941 0 0 0-26.142118-23.04H641.204706l-97.67153-97.701647a26.352941 26.352941 0 0 0-37.285647 0L408.545882 233.411765z m116.344471-41.803294l86.799059 86.799058 2.620235 2.288942c4.577882 3.493647 10.209882 5.421176 16.022588 5.421176h114.176v114.206118l0.240941 3.463529c0.752941 5.722353 3.373176 11.053176 7.499295 15.149177l86.738823 86.768941-86.738823 86.799059-2.288942 2.620235a26.352941 26.352941 0 0 0-5.421176 16.022588v114.176h-114.206118l-3.463529 0.240941a26.352941 26.352941 0 0 0-15.179294 7.499294l-86.799059 86.738824-86.738824-86.738824-2.620235-2.288941a26.352941 26.352941 0 0 0-16.022588-5.421176l-114.206118-0.030118v-114.176l-0.210823-3.463529a26.352941 26.352941 0 0 0-7.499294-15.179294L210.793412 505.675294l86.799059-86.738823 2.288941-2.620236a26.352941 26.352941 0 0 0 5.421176-16.022588V286.117647h114.206118a26.352941 26.352941 0 0 0 18.642823-7.710118l86.738824-86.799058z" fill="#568af2" /><path d="M524.920471 373.970824a131.764706 131.764706 0 1 0 0 263.529411 131.764706 131.764706 0 0 0 0-263.529411z m0 52.705882a79.058824 79.058824 0 1 1 0 158.117647 79.058824 79.058824 0 0 1 0-158.117647z" fill="#568af2" /></svg>