<svg class="icon" style="width: 1em;height: 1em;vertical-align: middle;fill: currentColor;overflow: hidden;" viewBox="0 0 1024 1024" version="1.1" xmlns="http://www.w3.org/2000/svg" width="32" height="32"><path d="M653.793882 135.529412a237.176471 237.176471 0 0 0-237.17647 237.17647l0.240941 10.63153c1.264941 28.310588 7.499294 55.777882 18.311529 81.408l0.451765 1.024-292.382118 292.382117a26.352941 26.352941 0 0 0 0 37.25553l87.853177 87.853176 2.710588 2.349177a26.352941 26.352941 0 0 0 34.544941-2.349177l292.382118-292.382117 1.024 0.481882A237.176471 237.176471 0 0 0 863.503059 261.812706l-1.807059-2.981647a26.352941 26.352941 0 0 0-40.116706-3.312941l-115.079529 115.019294-50.56753-50.56753 115.049412-115.049411a26.352941 26.352941 0 0 0-6.264471-41.923765 236.242824 236.242824 0 0 0-110.923294-27.467294z m10.149647 53.007059c13.432471 0.692706 26.593882 2.861176 39.333647 6.415058l2.409412 0.722824-105.652706 105.712941a26.352941 26.352941 0 0 0 0 37.25553l87.853177 87.823058 2.710588 2.379294a26.352941 26.352941 0 0 0 34.544941-2.379294l105.652706-105.682823 0.783059 2.439529a184.470588 184.470588 0 0 1-264.011294 212.600471l-3.46353-1.505883a26.352941 26.352941 0 0 0-27.497411 6.174118L249.675294 827.331765l-50.567529-50.56753 286.900706-286.870588a26.352941 26.352941 0 0 0 4.638117-30.960941 184.470588 184.470588 0 0 1 163.117177-270.697412l10.149647 0.301177z" fill="#568af2" /></svg>