<svg class="icon" style="width: 1em;height: 1em;vertical-align: middle;fill: currentColor;overflow: hidden;" viewBox="0 0 1024 1024" version="1.1" xmlns="http://www.w3.org/2000/svg" width="32" height="32"><path d="M396.739765 185.404235a342.618353 342.618353 0 0 0-206.817883 314.608941c0 189.229176 153.389176 342.588235 342.588236 342.588236 149.805176 0 280.847059-96.978824 326.113882-237.327059a26.352941 26.352941 0 0 0-35.538824-32.256 288.828235 288.828235 0 0 1-114.868705 23.642353 289.882353 289.882353 0 0 1-289.882353-289.882353c0-30.629647 4.728471-60.566588 13.914353-89.088a26.352941 26.352941 0 0 0-35.538824-32.286118z m-28.009412 75.414589l-0.752941 5.662117c-1.566118 13.312-2.349176 26.744471-2.349177 40.297412 0 189.199059 153.389176 342.588235 342.588236 342.588235l12.860235-0.240941c21.383529-0.783059 42.465882-3.553882 63.006118-8.192l2.108235-0.512-1.295059 2.409412a290.032941 290.032941 0 0 1-252.385882 147.06447 289.882353 289.882353 0 0 1-167.936-526.215529l4.156235-2.861176z" fill="#568af2" /><path d="M831.186824 227.689412c23.823059 0 34.936471 28.732235 18.823529 44.845176l-2.349177 2.108236-117.037176 93.605647h100.592941c13.402353 0 24.485647 10.059294 26.112 23.070117l0.210824 3.312941a26.352941 26.352941 0 0 1-23.04 26.142118l-3.312941 0.180706h-175.676236c-23.823059 0-34.936471-28.672-18.823529-44.815059l2.349176-2.108235 117.007059-93.605647H667.105882a26.352941 26.352941 0 0 1-26.142117-23.04l-0.210824-3.312941c0-13.432471 10.059294-24.515765 23.04-26.142118l3.312941-0.210824h164.080942z" fill="#568af2" /></svg>