<svg class="icon" style="width: 1em;height: 1em;vertical-align: middle;fill: currentColor;overflow: hidden;" viewBox="0 0 1024 1024" version="1.1" xmlns="http://www.w3.org/2000/svg" width="32" height="32"><path d="M780.8 172.182588H243.2a73.788235 73.788235 0 0 0-73.788235 73.788236v537.6a73.788235 73.788235 0 0 0 73.788235 73.788235h537.6a73.788235 73.788235 0 0 0 73.788235-73.788235V245.970824a73.788235 73.788235 0 0 0-73.788235-73.788236z m-537.6 52.705883h537.6a21.082353 21.082353 0 0 1 21.082353 21.082353v537.6a21.082353 21.082353 0 0 1-21.082353 21.082352H243.2a21.082353 21.082353 0 0 1-21.082353-21.082352V245.970824a21.082353 21.082353 0 0 1 21.082353-21.082353z" fill="#568af2" /><path d="M652.559059 172.182588H353.882353a26.352941 26.352941 0 0 0-26.352941 26.352941v316.235295c0 14.546824 11.806118 26.352941 26.352941 26.352941h298.676706a26.352941 26.352941 0 0 0 26.352941-26.352941v-316.235295a26.352941 26.352941 0 0 0-26.352941-26.352941z m-26.383059 52.675765v263.529412h-245.940706v-263.529412h245.940706z" fill="#568af2" /><path d="M547.147294 295.152941c13.432471 0 24.515765 10.059294 26.142118 23.04l0.210823 3.312941v70.264471a26.352941 26.352941 0 0 1-52.525176 3.312941l-0.180706-3.312941v-70.264471c0-14.546824 11.776-26.352941 26.352941-26.352941zM722.823529 172.182588a26.352941 26.352941 0 0 1 3.282824 52.495059l-3.312941 0.210824H283.557647a26.352941 26.352941 0 0 1-3.312941-52.525177l3.312941-0.180706h439.235765z" fill="#568af2" /></svg>