<svg class="icon" style="width: 1em;height: 1em;vertical-align: middle;fill: currentColor;overflow: hidden;" viewBox="0 0 1024 1024" version="1.1" xmlns="http://www.w3.org/2000/svg" width="32" height="32"><path d="M0 0h1024v1024H0z" fill="#568af2" fill-opacity="0" /><path d="M548.773647 219.678118a26.352941 26.352941 0 0 1 39.905882 0.572235l2.017883 2.770823 104.387764 164.050824 134.927059-149.232941a26.352941 26.352941 0 0 1 34.424471-4.096l2.800941 2.228706c9.908706 8.944941 11.444706 23.672471 4.096 34.394353l-2.228706 2.800941-158.117647 174.923294a26.352941 26.352941 0 0 1-39.755294-0.752941l-2.017882-2.770824-104.267294-163.809882-117.338353 132.035765a26.352941 26.352941 0 0 1-39.544471-0.180706l-2.078118-2.710589-85.835294-128.752941-153.088 183.717647a26.352941 26.352941 0 0 1-34.213647 5.481412l-2.891294-2.108235a26.352941 26.352941 0 0 1-5.481412-34.213647l2.108236-2.891294 175.676235-210.82353a26.352941 26.352941 0 0 1 40.05647-0.512l2.108236 2.770824 86.467764 129.686588 117.880471-132.577882zM548.773647 571.030588a26.352941 26.352941 0 0 1 39.905882 0.602353l2.017883 2.770824 104.387764 164.050823 134.927059-149.232941a26.352941 26.352941 0 0 1 34.424471-4.096l2.800941 2.198588c9.908706 8.944941 11.444706 23.702588 4.096 34.424471l-2.228706 2.800941-158.117647 174.923294a26.352941 26.352941 0 0 1-39.755294-0.752941l-2.017882-2.770824-104.267294-163.84-117.338353 132.065883a26.352941 26.352941 0 0 1-39.544471-0.180706l-2.078118-2.710588-85.835294-128.783059-153.088 183.717647a26.352941 26.352941 0 0 1-34.213647 5.511529l-2.891294-2.108235a26.352941 26.352941 0 0 1-5.481412-34.213647l2.108236-2.891294 175.676235-210.82353a26.352941 26.352941 0 0 1 40.05647-0.512l2.108236 2.740706 86.467764 129.716706 117.880471-132.608z" fill="#568af2" /></svg>