<svg class="icon" style="width: 1em;height: 1em;vertical-align: middle;fill: currentColor;overflow: hidden;" viewBox="0 0 1024 1024" version="1.1" xmlns="http://www.w3.org/2000/svg" width="32" height="32"><path d="M475.617882 150.588235C296.116706 150.588235 150.588235 296.116706 150.588235 475.617882s145.528471 324.999529 325.029647 324.99953 324.999529-145.498353 324.99953-324.99953S655.119059 150.588235 475.617882 150.588235z m0 52.705883a272.323765 272.323765 0 1 1 0 544.617411 272.323765 272.323765 0 0 1 0-544.617411z" fill="#568af2" /><path d="M475.617882 343.853176c13.432471 0 24.515765 10.029176 26.142118 23.04l0.210824 3.312942v210.823529a26.352941 26.352941 0 0 1-52.525177 3.312941l-0.180706-3.312941v-210.823529c0-14.576941 11.776-26.352941 26.352941-26.352942z" fill="#568af2" /><path d="M580.969412 449.264941a26.352941 26.352941 0 0 1 3.403294 52.495059l-3.312941 0.210824-210.552471 0.271058a26.352941 26.352941 0 0 1-3.373176-52.495058l3.312941-0.210824 210.522353-0.301176zM671.683765 671.683765a26.352941 26.352941 0 0 1 34.575059-2.349177l2.710588 2.349177 149.082353 149.082353a26.352941 26.352941 0 0 1-34.575059 39.634823l-2.710588-2.379294-149.082353-149.082353a26.352941 26.352941 0 0 1 0-37.255529z" fill="#568af2" /></svg>