<svg class="icon" style="width: 1em;height: 1em;vertical-align: middle;fill: currentColor;overflow: hidden;" viewBox="0 0 1024 1024" version="1.1" xmlns="http://www.w3.org/2000/svg" width="32" height="32"><path d="M693.970824 135.529412c13.432471 0 24.515765 10.059294 26.142117 23.04l0.210824 3.312941v105.411765a26.352941 26.352941 0 0 1-52.525177 3.312941l-0.180706-3.312941-0.030117-79.058824H263.529412v528.323765l67.282823-33.611294a26.352941 26.352941 0 0 1 33.67153 8.914823l1.686588 2.861177c6.023529 12.016941 1.957647 26.443294-8.944941 33.701647l-2.861177 1.65647-105.411764 52.705883a26.352941 26.352941 0 0 1-37.948236-20.178824L210.823529 759.205647V161.882353c0-13.432471 10.059294-24.515765 23.04-26.142118l3.312942-0.210823h456.794353z" fill="#568af2" /><path d="M799.382588 240.941176H342.588235a26.352941 26.352941 0 0 0-26.352941 26.352942v597.323294l0.210824 3.373176a26.352941 26.352941 0 0 0 37.586823 20.35953l216.937412-104.688942 216.937412 104.688942a26.352941 26.352941 0 0 0 37.827764-23.732706V267.294118A26.352941 26.352941 0 0 0 799.382588 240.941176z m-26.383059 52.705883v528.986353l-190.554353-91.949177-3.19247-1.264941a26.352941 26.352941 0 0 0-19.727059 1.264941l-190.584471 91.949177V293.647059h404.058353z" fill="#568af2" /></svg>