<svg class="icon" style="width: 1em;height: 1em;vertical-align: middle;fill: currentColor;overflow: hidden;" viewBox="0 0 1024 1024" version="1.1" xmlns="http://www.w3.org/2000/svg" width="32" height="32"><path d="M703.909647 180.705882H259.764706A79.058824 79.058824 0 0 0 180.705882 259.764706v527.058823a79.058824 79.058824 0 0 0 79.058824 79.058824h527.058823a79.058824 79.058824 0 0 0 79.058824-79.058824V333.673412c0-7.318588-3.011765-14.275765-8.372706-19.275294L721.92 187.783529A26.352941 26.352941 0 0 0 703.909647 180.705882z m-10.390588 52.705883L813.176471 345.148235v441.675294a26.352941 26.352941 0 0 1-26.352942 26.352942h-527.058823a26.352941 26.352941 0 0 1-26.352941-26.352942v-527.058823c0-14.546824 11.806118-26.352941 26.352941-26.352941h433.754353z" fill="#568af2" /><path d="M523.444706 180.705882h-175.826824a26.352941 26.352941 0 0 0-26.352941 26.352942v129.746823c0 23.913412 21.504 37.165176 43.91153 37.165177h140.559058c22.377412 0 43.911529-13.251765 43.91153-37.165177l0.150588-129.716706A26.352941 26.352941 0 0 0 523.444706 180.705882z m-26.413177 52.705883l-0.090353 87.823059h-123.00047V233.411765h123.090823z" fill="#568af2" /><path d="M703.909647 180.705882a26.352941 26.352941 0 0 1 3.312941 52.495059l-3.312941 0.210824H259.764706a26.352941 26.352941 0 0 1-3.312941-52.495059L259.764706 180.705882h444.144941zM698.970353 532.088471a26.352941 26.352941 0 0 1 3.312941 52.495058l-3.312941 0.210824H347.617882a26.352941 26.352941 0 0 1-3.312941-52.525177l3.312941-0.180705h351.352471zM523.444706 672.617412a26.352941 26.352941 0 0 1 3.312941 52.525176l-3.312941 0.180706h-175.826824a26.352941 26.352941 0 0 1-3.312941-52.495059l3.312941-0.210823h175.826824z" fill="#568af2" /></svg>