<svg class="icon" style="width: 1em;height: 1em;vertical-align: middle;fill: currentColor;overflow: hidden;" viewBox="0 0 1024 1024" version="1.1" xmlns="http://www.w3.org/2000/svg" width="32" height="32"><path d="M839.529412 742.912c13.432471 0 24.515765 10.029176 26.142117 23.04l0.210824 3.312941v70.264471a26.352941 26.352941 0 0 1-23.04 26.142117l-3.312941 0.210824h-632.470588a26.352941 26.352941 0 0 1-26.142118-23.04L180.705882 839.529412v-70.264471a26.352941 26.352941 0 0 1 52.495059-3.312941l0.210824 3.312941v43.881412H813.176471v-43.881412c0-13.432471 10.059294-24.545882 23.04-26.172235l3.312941-0.180706zM610.063059 188.416a26.352941 26.352941 0 0 1 34.575059-2.349176l2.710588 2.349176 175.676235 175.706353c9.426824 9.426824 10.24 24.214588 2.349177 34.544941l-2.349177 2.710588-175.676235 175.676236a26.352941 26.352941 0 0 1-39.634824-34.544942l2.349177-2.710588 157.033412-157.063529-157.033412-157.033412a26.352941 26.352941 0 0 1-2.349177-34.575059l2.349177-2.710588z" fill="#568af2" /><path d="M804.382118 356.382118a26.352941 26.352941 0 0 1 0 52.705882l-27.798589 0.120471-27.045647 0.361411-26.322823 0.602353-25.6 0.873412-24.877177 1.114353-24.154353 1.355294-23.431529 1.626353-11.444706 0.903529-22.347294 2.017883-21.624471 2.288941-20.931764 2.56-10.209883 1.385412-19.877647 2.981647-19.154823 3.252706c-181.940706 32.828235-266.149647 105.712941-266.149647 233.321411a26.352941 26.352941 0 0 1-52.705883 0c0-167.905882 110.471529-255.518118 337.980236-289.852235l21.323294-3.011765c7.228235-0.933647 14.546824-1.867294 21.985882-2.710588l22.678588-2.409412c3.824941-0.391529 7.68-0.783059 11.565177-1.114352l23.67247-2.017883 12.077177-0.903529 24.69647-1.566118 12.559059-0.662588 25.690353-1.174588 13.101177-0.481883 26.684235-0.752941 27.346824-0.512 28.039529-0.271059h14.275765z" fill="#568af2" /></svg>