<svg class="icon" style="width: 1em;height: 1em;vertical-align: middle;fill: currentColor;overflow: hidden;" viewBox="0 0 1024 1024" version="1.1" xmlns="http://www.w3.org/2000/svg" width="32" height="32"><path d="M0 0h1024v1024H0z" fill="#568af2" fill-opacity="0" /><path d="M392.794353 135.529412h-210.823529A61.500235 61.500235 0 0 0 120.470588 197.029647v210.823529c0 33.942588 27.527529 61.470118 61.500236 61.470118h210.823529a61.500235 61.500235 0 0 0 61.470118-61.470118v-210.823529A61.500235 61.500235 0 0 0 392.794353 135.529412z m-210.823529 52.705882h210.823529c4.818824 0 8.764235 3.915294 8.764235 8.794353v210.823529c0 4.818824-3.915294 8.764235-8.764235 8.764236h-210.823529a8.794353 8.794353 0 0 1-8.794353-8.764236v-210.823529c0-4.848941 3.915294-8.794353 8.794353-8.794353zM392.794353 557.176471h-210.823529A61.500235 61.500235 0 0 0 120.470588 618.676706v210.823529c0 33.942588 27.527529 61.470118 61.500236 61.470118h210.823529a61.500235 61.500235 0 0 0 61.470118-61.470118v-210.823529a61.500235 61.500235 0 0 0-61.470118-61.500235z m-210.823529 52.705882h210.823529c4.818824 0 8.764235 3.915294 8.764235 8.794353v210.823529c0 4.818824-3.915294 8.764235-8.764235 8.764236h-210.823529a8.794353 8.794353 0 0 1-8.794353-8.764236v-210.823529c0-4.848941 3.915294-8.794353 8.794353-8.794353zM814.441412 135.529412h-210.82353A61.500235 61.500235 0 0 0 542.117647 197.029647v210.823529c0 33.942588 27.527529 61.470118 61.500235 61.470118h210.82353a61.500235 61.500235 0 0 0 61.470117-61.470118v-210.823529A61.500235 61.500235 0 0 0 814.441412 135.529412z m-210.82353 52.705882h210.82353c4.818824 0 8.764235 3.915294 8.764235 8.794353v210.823529c0 4.818824-3.915294 8.764235-8.764235 8.764236h-210.82353a8.794353 8.794353 0 0 1-8.794353-8.764236v-210.823529c0-4.848941 3.915294-8.794353 8.794353-8.794353zM849.558588 557.176471a26.352941 26.352941 0 0 1 3.312941 52.495058l-3.312941 0.210824h-281.088a26.352941 26.352941 0 0 1-3.312941-52.495059l3.312941-0.210823h281.088zM849.558588 697.735529a26.352941 26.352941 0 0 1 3.312941 52.495059l-3.312941 0.210824h-140.528941a26.352941 26.352941 0 0 1-3.312941-52.525177l3.312941-0.180706h140.528941zM849.558588 838.264471a26.352941 26.352941 0 0 1 3.312941 52.525176l-3.312941 0.180706h-281.088a26.352941 26.352941 0 0 1-3.312941-52.495059l3.312941-0.210823h281.088z" fill="#568af2" /></svg>