<svg class="icon" style="width: 1em;height: 1em;vertical-align: middle;fill: currentColor;overflow: hidden;" viewBox="0 0 1024 1024" version="1.1" xmlns="http://www.w3.org/2000/svg" width="32" height="32"><path d="M603.617882 195.764706h-210.823529a26.352941 26.352941 0 0 0-23.582118 14.576941l-52.705882 105.411765a26.352941 26.352941 0 0 0 23.582118 38.128941h316.235294a26.352941 26.352941 0 0 0 23.552-38.128941l-52.705883-105.411765a26.352941 26.352941 0 0 0-23.552-14.576941zM587.294118 248.470588l26.352941 52.705883h-230.972235l26.352941-52.705883h178.266353z" fill="#568af2" /><path d="M796.852706 301.176471H199.529412A79.058824 79.058824 0 0 0 120.470588 380.235294v421.647059a79.058824 79.058824 0 0 0 79.058824 79.058823h597.323294a79.058824 79.058824 0 0 0 79.058823-79.058823v-421.647059A79.058824 79.058824 0 0 0 796.852706 301.176471zM199.529412 353.882353h597.323294c14.576941 0 26.352941 11.806118 26.352941 26.352941v421.647059a26.352941 26.352941 0 0 1-26.352941 26.352941H199.529412a26.352941 26.352941 0 0 1-26.352941-26.352941v-421.647059c0-14.546824 11.806118-26.352941 26.352941-26.352941z" fill="#568af2" /><path d="M498.206118 424.146824a166.912 166.912 0 1 0 0 333.824 166.912 166.912 0 0 0 0-333.824z m0 52.705882a114.206118 114.206118 0 1 1 0 228.412235 114.206118 114.206118 0 0 1 0-228.412235z" fill="#568af2" /></svg>