<svg class="icon" style="width: 1em;height: 1em;vertical-align: middle;fill: currentColor;overflow: hidden;" viewBox="0 0 1024 1024" version="1.1" xmlns="http://www.w3.org/2000/svg" width="32" height="32"><path d="M764.235294 120.470588H272.323765A61.500235 61.500235 0 0 0 210.823529 181.970824v667.587764l0.210824 3.433412a26.352941 26.352941 0 0 0 38.249412 19.998118l268.980706-139.113412 269.010823 139.113412a26.352941 26.352941 0 0 0 38.460235-23.43153V181.970824A61.500235 61.500235 0 0 0 764.235294 120.470588z m0 52.705883l2.017882 0.240941c3.885176 0.903529 6.776471 4.397176 6.776471 8.553412l-0.030118 624.308705-242.627764-125.470117-3.312941-1.445647a26.352941 26.352941 0 0 0-20.901648 1.445647L263.529412 806.279529V181.940706c0-4.818824 3.915294-8.764235 8.794353-8.764235h491.911529z" fill="#568af2" /><path d="M517.391059 295.273412c13.432471 0 24.515765 10.059294 26.142117 23.04l0.210824 3.312941v210.823529a26.352941 26.352941 0 0 1-52.495059 3.312942l-0.210823-3.312942v-210.823529c0-14.546824 11.806118-26.352941 26.352941-26.352941z" fill="#568af2" /><path d="M622.802824 400.685176a26.352941 26.352941 0 0 1 3.312941 52.495059l-3.312941 0.210824h-210.82353a26.352941 26.352941 0 0 1-3.312941-52.495059l3.312941-0.210824h210.82353z" fill="#568af2" /></svg>