<svg class="icon" style="width: 1em;height: 1em;vertical-align: middle;fill: currentColor;overflow: hidden;" viewBox="0 0 1024 1024" version="1.1" xmlns="http://www.w3.org/2000/svg" width="32" height="32"><path d="M671.382588 186.729412a219.617882 219.617882 0 0 1 219.587765 219.617882c0 180.404706-200.402824 380.807529-370.477177 429.417412a26.352941 26.352941 0 0 1-14.45647 0C335.902118 787.154824 135.529412 586.752 135.529412 406.347294a219.617882 219.617882 0 0 1 319.457882-195.644235c9.246118 4.698353 14.757647 14.366118 14.336 24.515765l-0.361412 3.403294-14.426353 83.486117L596.329412 400.865882a26.352941 26.352941 0 0 1 6.927059 40.538353l-2.590118 2.499765-106.074353 90.925176 41.261176 68.758589c6.927059 11.535059 4.005647 26.202353-6.324705 34.304l-2.710589 1.867294a26.352941 26.352941 0 0 1-34.273882-6.324706l-1.897412-2.710588-52.705882-87.853177a26.352941 26.352941 0 0 1 2.981647-31.141647l2.469647-2.409412 94.208-80.805647-124.988235-69.421176a26.352941 26.352941 0 0 1-13.552941-23.823059l0.391529-3.674353 14.064941-81.648941-6.595765-2.319059a166.309647 166.309647 0 0 0-42.887529-7.951059l-8.884706-0.240941a166.912 166.912 0 0 0-166.912 166.912c0 148.178824 170.435765 323.614118 316.928 373.910588l8.07153 2.620236 0.421647-0.090353c145.618824-45.839059 318.554353-219.557647 324.457411-368.64l0.150589-7.830589a166.912 166.912 0 0 0-242.748236-148.690823 26.352941 26.352941 0 1 1-23.973647-46.923294 218.774588 218.774588 0 0 1 99.84-23.973647z" fill="#568af2" /></svg>