<svg class="icon" style="width: 1em;height: 1em;vertical-align: middle;fill: currentColor;overflow: hidden;" viewBox="0 0 1024 1024" version="1.1" xmlns="http://www.w3.org/2000/svg" width="32" height="32"><path d="M465.317647 135.529412l-3.282823 0.210823a26.352941 26.352941 0 0 0-23.04 26.142118l-0.030118 62.855529-1.174588 0.301177a296.056471 296.056471 0 0 0-64.933647 25.449412l-11.083295 6.234353-44.453647-44.453648a26.352941 26.352941 0 0 0-37.285647 0l-67.764706 67.764706-2.349176 2.710589a26.352941 26.352941 0 0 0 2.349176 34.575058l44.453648 44.453647-0.542118 0.90353a296.207059 296.207059 0 0 0-31.141647 75.113412l-0.301177 1.174588H161.882353a26.352941 26.352941 0 0 0-26.352941 26.383059v95.834353l0.210823 3.312941a26.352941 26.352941 0 0 0 26.142118 23.04l62.825412-0.030118 0.301176 1.204706c6.927059 26.413176 17.408 51.651765 31.171765 75.113412l0.572235 0.873412-44.483765 44.513882a26.352941 26.352941 0 0 0 0 37.255529l67.764706 67.764706 2.710589 2.349177a26.352941 26.352941 0 0 0 34.575058-2.349177l44.453647-44.483764 0.90353 0.602352a296.207059 296.207059 0 0 0 75.113412 31.141648l1.174588 0.240941v62.885647c0 14.576941 11.806118 26.352941 26.383059 26.352941h95.834353l3.312941-0.180706a26.352941 26.352941 0 0 0 23.04-26.172235l-0.030118-62.85553 1.204706-0.301176a296.056471 296.056471 0 0 0 64.933647-25.449412l11.083294-6.26447 44.483765 44.483764a26.352941 26.352941 0 0 0 37.255529 0l67.764706-67.764706 2.349177-2.710588a26.352941 26.352941 0 0 0-2.349177-34.544941l-44.483764-44.483765 0.602352-0.903529a296.327529 296.327529 0 0 0 27.949177-63.849412l3.463529-12.468706h62.85553a26.352941 26.352941 0 0 0 26.352941-26.322823V465.317647l-0.180706-3.312941a26.352941 26.352941 0 0 0-26.172235-23.04l-62.885647-0.030118-0.240941-1.174588a296.207059 296.207059 0 0 0-31.171765-75.083294l-0.572235-0.933647 44.483764-44.453647a26.352941 26.352941 0 0 0 0-37.285647l-67.764706-67.764706-2.710588-2.349177a26.352941 26.352941 0 0 0-34.544941 2.349177L664.696471 256.752941l-0.90353-0.572235a296.327529 296.327529 0 0 0-63.849412-27.979294l-12.438588-3.493647V161.882353a26.352941 26.352941 0 0 0-26.322823-26.352941H465.317647z m26.352941 52.705882h43.128471v57.705412c0 12.8 9.185882 23.732706 21.744941 25.961412a243.651765 243.651765 0 0 1 96.737882 40.086588l3.252706 1.927529a26.352941 26.352941 0 0 0 30.479059-4.909176l40.809412-40.83953 30.509176 30.509177-40.839529 40.839529c-9.035294 9.035294-10.270118 23.220706-2.981647 33.701647a243.651765 243.651765 0 0 1 40.086588 96.737883l0.843294 3.343059c3.403294 10.842353 13.492706 18.371765 25.118118 18.371764h57.705412v43.128471h-57.705412a26.352941 26.352941 0 0 0-25.961412 21.744941 243.651765 243.651765 0 0 1-40.056471 96.737882l-1.957647 3.252706a26.352941 26.352941 0 0 0 4.909177 30.479059l40.809412 40.809412-30.479059 30.479059-40.809412-40.809412a26.352941 26.352941 0 0 0-33.731765-2.981647 243.651765 243.651765 0 0 1-96.737882 40.086588l-3.312941 0.843294a26.352941 26.352941 0 0 0-18.401883 25.118118l-0.030117 57.705412h-43.128471v-57.705412a26.352941 26.352941 0 0 0-21.684706-25.961412 243.651765 243.651765 0 0 1-96.768-40.056471l-3.252706-1.957647a26.352941 26.352941 0 0 0-30.448941 4.909177L298.676706 758.362353l-30.509177-30.509177 40.83953-40.809411c9.035294-9.035294 10.300235-23.250824 3.011765-33.731765a243.651765 243.651765 0 0 1-40.116706-96.737882L271.058824 553.261176a26.352941 26.352941 0 0 0-25.148236-18.401882l-57.705412-0.030118v-43.12847h57.705412a26.352941 26.352941 0 0 0 25.961412-21.684706 243.651765 243.651765 0 0 1 40.086588-96.768l1.92753-3.252706a26.352941 26.352941 0 0 0-4.909177-30.448941L268.167529 298.646588l30.479059-30.479059 40.869647 40.83953c9.035294 9.035294 23.220706 10.300235 33.701647 3.011765a243.651765 243.651765 0 0 1 96.737883-40.116706L473.298824 271.058824a26.352941 26.352941 0 0 0 18.371764-25.148236V188.235294z" fill="#568af2" /><path d="M513.264941 399.058824a114.206118 114.206118 0 1 0 0 228.382117 114.206118 114.206118 0 0 0 0-228.382117z m0 52.705882a61.500235 61.500235 0 1 1 0 122.970353 61.500235 61.500235 0 0 1 0-122.970353z" fill="#568af2" /></svg>