<svg class="icon" style="width: 1em;height: 1em;vertical-align: middle;fill: currentColor;overflow: hidden;" viewBox="0 0 1024 1024" version="1.1" xmlns="http://www.w3.org/2000/svg" width="32" height="32"><path d="M383.939765 245.398588a271.480471 271.480471 0 0 0-79.75153 192.572236 272.323765 272.323765 0 1 0 86.076236-198.686118l-6.324706 6.113882z m347.858823 37.285647a219.617882 219.617882 0 1 1-310.603294 310.573177A219.617882 219.617882 0 0 1 731.798588 282.684235z" fill="#568af2" /><path d="M381.891765 591.209412a26.352941 26.352941 0 0 1 39.664941 34.575059l-2.379294 2.710588-223.593412 223.623529a26.352941 26.352941 0 0 1-39.634824-34.575059l2.349177-2.710588 223.623529-223.593412z" fill="#568af2" /><path d="M170.736941 578.800941a26.352941 26.352941 0 0 1 34.575059-2.349176l2.710588 2.349176 223.593412 223.62353a26.352941 26.352941 0 0 1-34.575059 39.604705l-2.710588-2.349176-223.593412-223.593412a26.352941 26.352941 0 0 1 0-37.285647z" fill="#568af2" /></svg>