<svg class="icon" style="width: 1em;height: 1em;vertical-align: middle;fill: currentColor;overflow: hidden;" viewBox="0 0 1024 1024" version="1.1" xmlns="http://www.w3.org/2000/svg" width="32" height="32"><path d="M721.829647 133.270588h-421.647059a61.500235 61.500235 0 0 0-61.500235 61.500236v667.587764l0.210823 3.312941a26.352941 26.352941 0 0 0 41.472 18.130824l107.640471-76.920471 107.670588 76.920471 3.162353 1.957647c8.704 4.517647 19.335529 3.885176 27.467294-1.957647l107.670589-76.920471 107.670588 76.920471a26.352941 26.352941 0 0 0 41.652706-21.443765V194.770824a61.500235 61.500235 0 0 0-61.470118-61.500236z m0 52.705883l2.017882 0.240941c3.855059 0.903529 6.746353 4.397176 6.746353 8.553412v616.387764l-81.317647-58.066823-3.132235-1.957647a26.352941 26.352941 0 0 0-27.497412 1.957647l-107.670588 76.890353-107.640471-76.890353-3.162353-1.957647a26.352941 26.352941 0 0 0-27.467294 1.957647l-81.317647 58.066823V194.770824c0-4.848941 3.915294-8.794353 8.794353-8.794353h421.647059z" fill="#568af2" /><path d="M616.417882 449.505882a26.352941 26.352941 0 0 1 3.312942 52.495059l-3.312942 0.210824h-210.823529a26.352941 26.352941 0 0 1-3.312941-52.495059l3.312941-0.210824h210.823529zM616.417882 590.064941a26.352941 26.352941 0 0 1 3.312942 52.495059l-3.312942 0.210824h-210.823529a26.352941 26.352941 0 0 1-3.312941-52.525177l3.312941-0.180706h210.823529zM616.417882 308.946824a26.352941 26.352941 0 0 1 3.312942 52.525176l-3.312942 0.180706h-210.823529a26.352941 26.352941 0 0 1-3.312941-52.495059l3.312941-0.210823h210.823529z" fill="#568af2" /></svg>