<svg class="icon" style="width: 1em;height: 1em;vertical-align: middle;fill: currentColor;overflow: hidden;" viewBox="0 0 1024 1024" version="1.1" xmlns="http://www.w3.org/2000/svg" width="32" height="32"><path d="M839.529412 180.705882c13.432471 0 24.515765 10.059294 26.142117 23.04l0.210824 3.312942v245.970823a26.352941 26.352941 0 0 1-52.495059 3.312941l-0.210823-3.312941V233.411765h-219.617883a26.352941 26.352941 0 0 1-26.142117-23.04l-0.210824-3.312941c0-13.432471 10.059294-24.515765 23.070118-26.142118l3.312941-0.210824h245.940706zM402.823529 180.705882a26.352941 26.352941 0 0 1 3.312942 52.495059l-3.312942 0.210824h-158.117647a26.352941 26.352941 0 0 0-26.142117 23.04l-0.210824 3.312941v527.058823c0 13.432471 10.059294 24.515765 23.04 26.142118l3.312941 0.210824h527.058824a26.352941 26.352941 0 0 0 26.142118-23.04l0.210823-3.312942v-167.363764a26.352941 26.352941 0 0 1 52.495059-3.312941l0.210823 3.312941v167.363764a79.058824 79.058824 0 0 1-74.059294 78.908236l-4.999529 0.150588h-527.058824a79.058824 79.058824 0 0 1-78.908235-74.059294l-0.150588-4.99953v-527.058823a79.058824 79.058824 0 0 1 74.059294-78.908235L244.705882 180.705882h158.117647z" fill="#568af2" /><path d="M805.074824 204.227765a26.352941 26.352941 0 0 1 39.634823 34.575059l-2.349176 2.710588-268.8 268.8a26.352941 26.352941 0 0 1-39.634824-34.575059l2.349177-2.710588 268.8-268.8z" fill="#568af2" /></svg>