<svg class="icon" style="width: 1em;height: 1em;vertical-align: middle;fill: currentColor;overflow: hidden;" viewBox="0 0 1024 1024" version="1.1" xmlns="http://www.w3.org/2000/svg" width="32" height="32"><path d="M807.363765 349.244235a26.352941 26.352941 0 1 1 46.742588 24.335059c-12.769882 24.545882-31.834353 47.164235-56.259765 67.162353-67.162353 55.055059-171.128471 87.582118-283.346823 87.582118-112.218353 0-216.154353-32.527059-283.346824-87.582118-24.395294-19.998118-43.489882-42.616471-56.259765-67.162353a26.352941 26.352941 0 1 1 46.742589-24.335059c9.336471 17.889882 23.792941 35.056941 42.947764 50.748236 57.103059 46.802824 149.232941 75.595294 249.916236 75.595294s192.813176-28.792471 249.946353-75.595294c19.124706-15.661176 33.611294-32.858353 42.917647-50.748236z" fill="#568af2" /><path d="M595.124706 476.491294a26.352941 26.352941 0 0 1 31.232 15.510588l1.054118 3.132236 36.382117 135.770353a26.352941 26.352941 0 0 1-49.874823 16.775529l-1.054118-3.132235-36.352-135.770353a26.352941 26.352941 0 0 1 18.612706-32.286118zM730.473412 436.826353a26.352941 26.352941 0 0 1 34.575059-2.349177l2.710588 2.349177 99.388235 99.388235a26.352941 26.352941 0 0 1-34.575059 39.634824l-2.710588-2.379294-99.388235-99.388236a26.352941 26.352941 0 0 1 0-37.255529zM261.451294 436.826353a26.352941 26.352941 0 0 1 39.634824 34.575059l-2.349177 2.710588-99.388235 99.388235a26.352941 26.352941 0 0 1-39.634824-34.575059l2.349177-2.710588 99.388235-99.388235zM401.167059 495.134118a26.352941 26.352941 0 0 1 51.591529 10.390588l-0.662588 3.252706-36.382118 135.770353a26.352941 26.352941 0 0 1-51.561411-10.390589l0.662588-3.252705 36.352-135.770353z" fill="#568af2" /></svg>