<svg class="icon" style="width: 1em;height: 1em;vertical-align: middle;fill: currentColor;overflow: hidden;" viewBox="0 0 1024 1024" version="1.1" xmlns="http://www.w3.org/2000/svg" width="32" height="32"><path d="M688.941176 186.729412H337.558588a26.352941 26.352941 0 0 0-22.708706 12.980706l-175.676235 298.676706a26.352941 26.352941 0 0 0 0 26.714352l175.676235 298.676706a26.352941 26.352941 0 0 0 22.708706 12.980706h351.382588c9.336471 0 17.980235-4.939294 22.708706-12.980706l175.706353-298.676706a26.352941 26.352941 0 0 0 0-26.714352l-175.706353-298.676706a26.352941 26.352941 0 0 0-22.708706-12.980706z m-15.088941 52.705882l160.195765 272.293647-160.195765 272.323765H352.617412L192.451765 511.728941l160.165647-272.293647h321.234823z" fill="#568af2" /><path d="M513.264941 397.552941a114.206118 114.206118 0 1 0 0 228.382118 114.206118 114.206118 0 0 0 0-228.382118z m0 52.705883a61.500235 61.500235 0 1 1 0 122.970352 61.500235 61.500235 0 0 1 0-122.970352z" fill="#568af2" /></svg>