<svg class="icon" style="width: 1em;height: 1em;vertical-align: middle;fill: currentColor;overflow: hidden;" viewBox="0 0 1024 1024" version="1.1" xmlns="http://www.w3.org/2000/svg" width="32" height="32"><path d="M524.920471 150.256941c-208.624941 0-377.735529 169.110588-377.73553 377.73553 0 208.594824 169.110588 377.705412 377.73553 377.705411 208.594824 0 377.735529-169.110588 377.735529-377.705411 0-208.624941-169.140706-377.735529-377.735529-377.73553z m0 52.705883c179.501176 0 325.029647 145.498353 325.029647 325.029647 0 179.501176-145.528471 324.999529-325.029647 324.999529S199.890824 707.493647 199.890824 527.992471 345.449412 202.962824 524.950588 202.962824z" fill="#568af2" /><path d="M524.920471 730.021647c13.432471 0 24.515765 10.059294 26.142117 23.04l0.210824 3.312941v122.970353a26.352941 26.352941 0 0 1-52.495059 3.312941l-0.210824-3.312941v-122.970353c0-14.546824 11.806118-26.352941 26.352942-26.352941z" fill="#568af2" /><path d="M876.303059 501.639529a26.352941 26.352941 0 0 1 3.312941 52.495059l-3.312941 0.210824h-140.559059a26.352941 26.352941 0 0 1-3.312941-52.525177l3.312941-0.180706h140.559059z" fill="#568af2" /><path d="M296.538353 501.639529a26.352941 26.352941 0 0 1 3.312941 52.495059l-3.312941 0.210824H173.537882a26.352941 26.352941 0 0 1-3.312941-52.525177l3.312941-0.180706h123.000471z" fill="#568af2" /><path d="M524.920471 150.256941c13.432471 0 24.515765 10.059294 26.142117 23.04l0.210824 3.312941v122.970353a26.352941 26.352941 0 0 1-52.495059 3.312941l-0.210824-3.312941V176.609882c0-14.546824 11.806118-26.352941 26.352942-26.352941z" fill="#568af2" /></svg>