<svg class="icon" style="width: 1em;height: 1em;vertical-align: middle;fill: currentColor;overflow: hidden;" viewBox="0 0 1024 1024" version="1.1" xmlns="http://www.w3.org/2000/svg" width="32" height="32"><path d="M518.264471 120.470588C348.461176 120.470588 210.823529 258.108235 210.823529 427.911529a307.501176 307.501176 0 0 0 196.848942 286.960942c3.011765 1.174588 6.234353 1.776941 9.487058 1.776941h202.24c3.222588 0 6.445176-0.602353 9.487059-1.776941a307.501176 307.501176 0 0 0 196.848941-286.960942C825.735529 258.108235 688.097882 120.470588 518.264471 120.470588z m0 52.705883a254.735059 254.735059 0 0 1 254.765176 254.735058l-0.150588 8.58353a254.825412 254.825412 0 0 1-155.136 226.032941l-3.493647 1.385412H422.249412l4.397176 1.807059A254.795294 254.795294 0 0 1 518.264471 173.176471z" fill="#568af2" /><path d="M618.285176 663.943529l3.312942 0.090353c13.372235 1.114353 23.582118 12.047059 24.124235 25.118118l-0.060235 3.312941-11.926589 143.179294a43.911529 43.911529 0 0 1-39.54447 40.056471l-4.216471 0.210823h-143.36c-21.443765 0-39.484235-15.36-43.218823-36.050823l-0.572236-4.216471-11.926588-143.179294a26.352941 26.352941 0 0 1 52.043294-7.649882l0.481883 3.282823 11.264 135.107765h127.156706l11.294117-135.107765a26.352941 26.352941 0 0 1 21.925647-23.792941l3.222588-0.361412zM623.676235 348.852706c13.432471 0 24.545882 10.059294 26.172236 23.070118l0.180705 3.312941v105.411764a26.352941 26.352941 0 0 1-34.996705 24.877177l-3.132236-1.325177-93.635764-46.832941-93.605647 46.832941a26.352941 26.352941 0 0 1-37.948236-20.178823l-0.210823-3.403294v-105.411765a26.352941 26.352941 0 0 1 52.525176-3.312941l0.180706 3.312941v62.765177l67.282824-33.611295a26.352941 26.352941 0 0 1 20.329411-1.385411l3.252706 1.385411 67.252706 33.611295v-62.765177c0-13.432471 10.059294-24.515765 23.070118-26.142118l3.312941-0.210823z" fill="#568af2" /></svg>