<svg class="icon" style="width: 1em;height: 1em;vertical-align: middle;fill: currentColor;overflow: hidden;" viewBox="0 0 1024 1024" version="1.1" xmlns="http://www.w3.org/2000/svg" width="32" height="32"><path d="M513.264941 135.529412c208.594824 0 377.705412 169.110588 377.705412 377.735529 0 208.594824-169.110588 377.705412-377.705412 377.705412-208.624941 0-377.735529-169.110588-377.735529-377.705412a26.352941 26.352941 0 1 1 52.705882 0c0 179.501176 145.528471 324.999529 325.029647 324.99953s324.999529-145.498353 324.99953-324.99953S692.766118 188.235294 513.264941 188.235294a26.352941 26.352941 0 1 1 0-52.705882z" fill="#568af2" /><path d="M513.264941 276.088471a237.176471 237.176471 0 0 1 237.176471 237.17647 26.352941 26.352941 0 0 1-52.705883 0 184.470588 184.470588 0 1 0-184.470588 184.470588 26.352941 26.352941 0 0 1 0 52.705883 237.176471 237.176471 0 0 1 0-474.352941z" fill="#568af2" /></svg>