<svg class="icon" style="width: 1em;height: 1em;vertical-align: middle;fill: currentColor;overflow: hidden;" viewBox="0 0 1024 1024" version="1.1" xmlns="http://www.w3.org/2000/svg" width="32" height="32"><path d="M416.617412 277.323294a79.058824 79.058824 0 0 1 78.908235 74.089412l0.150588 4.969412v193.264941a26.352941 26.352941 0 0 1-52.495059 3.312941l-0.210823-3.312941v-193.264941a26.352941 26.352941 0 0 0-52.495059-3.312942l-0.210823 3.312942v193.264941a26.352941 26.352941 0 0 1-52.495059 3.312941l-0.210824-3.312941v-193.264941a79.058824 79.058824 0 0 1 79.058824-79.058824z" fill="#568af2" /><path d="M785.558588 505.735529c13.432471 0 24.545882 10.029176 26.172236 23.04l0.180705 3.312942v114.176a228.382118 228.382118 0 0 1-221.003294 228.291764l-7.378823 0.120471h-17.558588a228.382118 228.382118 0 0 1-228.291765-221.003294l-0.120471-7.408941v-114.176a26.352941 26.352941 0 0 1 52.525177-3.312942l0.180706 3.312942v114.176a175.676235 175.676235 0 0 0 168.96 175.585882l6.746353 0.120471h17.558588a175.676235 175.676235 0 0 0 175.585882-168.96l0.090353-6.746353v-114.176c0-14.576941 11.806118-26.352941 26.352941-26.352942z" fill="#568af2" /><path d="M522.029176 435.440941a79.058824 79.058824 0 0 1 78.908236 74.089412l0.150588 4.969412V602.352941a26.352941 26.352941 0 0 1-52.495059 3.312941l-0.210823-3.312941v-87.853176a26.352941 26.352941 0 0 0-52.495059-3.312941l-0.210824 3.312941V602.352941a26.352941 26.352941 0 0 1-52.495059 3.312941l-0.210823-3.312941v-87.853176a79.058824 79.058824 0 0 1 79.058823-79.058824z" fill="#568af2" /><path d="M627.440941 435.440941a79.058824 79.058824 0 0 1 78.908235 74.089412l0.150589 4.969412V602.352941a26.352941 26.352941 0 0 1-52.495059 3.312941l-0.210824-3.312941v-87.853176a26.352941 26.352941 0 0 0-52.495058-3.312941l-0.210824 3.312941V602.352941a26.352941 26.352941 0 0 1-52.495059 3.312941l-0.210823-3.312941v-87.853176a79.058824 79.058824 0 0 1 79.058823-79.058824z" fill="#568af2" /><path d="M732.852706 435.440941a79.058824 79.058824 0 0 1 78.908235 74.089412l0.150588 4.969412V602.352941a26.352941 26.352941 0 0 1-52.495058 3.312941l-0.210824-3.312941v-87.853176a26.352941 26.352941 0 0 0-52.495059-3.312941l-0.210823 3.312941V602.352941a26.352941 26.352941 0 0 1-52.495059 3.312941l-0.210824-3.312941v-87.853176a79.058824 79.058824 0 0 1 79.058824-79.058824zM416.617412 154.352941a201.758118 201.758118 0 0 1 162.454588 81.92 201.456941 201.456941 0 0 1 39.604706 120.109177 26.352941 26.352941 0 0 1-52.705882 0 149.263059 149.263059 0 0 0-29.244236-88.756706 149.052235 149.052235 0 0 0-120.109176-60.566588 149.052235 149.052235 0 0 0-120.079059 60.566588 148.781176 148.781176 0 0 0-29.244235 88.756706 26.352941 26.352941 0 1 1-52.705883 0 201.968941 201.968941 0 0 1 39.574589-120.109177 201.758118 201.758118 0 0 1 162.454588-81.92z" fill="#568af2" /></svg>