<svg class="icon" style="width: 1em;height: 1em;vertical-align: middle;fill: currentColor;overflow: hidden;" viewBox="0 0 1024 1024" version="1.1" xmlns="http://www.w3.org/2000/svg" width="32" height="32"><path d="M0 0h1024v1024H0z" fill="#568af2" fill-opacity="0" /><path d="M853.323294 395.745882h-105.411765a26.352941 26.352941 0 0 0-26.352941 26.352942V808.658824c0 14.546824 11.806118 26.352941 26.352941 26.352941h105.411765a26.352941 26.352941 0 0 0 26.352941-26.352941V422.098824a26.352941 26.352941 0 0 0-26.352941-26.352942z m-26.352941 52.705883v333.793882h-52.705882V448.451765h52.705882z" fill="#568af2" /><path d="M546.575059 348.973176l-19.425883-19.757176-8.944941-9.607529c-17.679059-19.757176-24.636235-33.008941-24.636235-47.194353l0.120471-9.09553c0.843294-26.413176 5.662118-30.418824 16.444235-22.528l3.614118 2.861177 23.371294 20.690823 95.563294 87.311059 88.877176 81.980235v348.611765h-288.677647c-26.112 0-40.267294-12.137412-44.513882-27.497412l-0.963765-4.517647-34.785882-226.484706a26.352941 26.352941 0 0 0-26.051765-22.437647h-123.181176a26.443294 26.443294 0 0 1-26.232471-23.100235l-0.210824-3.373176 0.150589-3.222589c1.054118-12.528941 12.498824-23.100235 26.23247-23.100235l357.918118-0.090353 3.072-0.361412 2.800941-0.662588 3.041882-1.084235 3.584-1.897412 9.426824-10.330353-23.491765-11.986823h26.383059c0-20.449882-8.944941-38.249412-25.359059-57.675295l-3.132235-3.614117-7.017412-7.68a471.943529 471.943529 0 0 0-3.975529-4.156236z m-58.277647 15.902118l20.419764 20.781177 6.475295 6.836705 3.102117 3.46353-314.910117-0.150588a79.088941 79.088941 0 0 0-78.908236 72.553411l-0.240941 6.53553 0.150588 4.999529a79.149176 79.149176 0 0 0 78.968471 74.11953h100.532706l31.051294 202.059294 0.783059 4.638117c7.258353 40.508235 41.773176 74.270118 97.159529 74.270118h315.030588a26.352941 26.352941 0 0 0 26.352942-26.352941V422.098824a26.352941 26.352941 0 0 0-8.432942-19.33553l-105.261176-97.069176-92.190118-84.118589-16.685176-14.787764-3.674353-3.162353c-52.043294-44.272941-107.158588-10.571294-107.158588 68.788706 0 34.002824 14.456471 58.036706 47.435294 92.461176z" fill="#568af2" /></svg>