<svg class="icon" style="width: 1em;height: 1em;vertical-align: middle;fill: currentColor;overflow: hidden;" viewBox="0 0 1024 1024" version="1.1" xmlns="http://www.w3.org/2000/svg" width="32" height="32"><path d="M854.407529 721.377882c-77.101176 77.101176-188.958118 148.269176-282.172235 148.269177-44.664471 0-81.377882-7.348706-132.427294-23.762824l-45.507765-14.96847-15.149176-4.728471-8.493177-2.499765-7.408941-2.017882-9.637647-2.228706-5.722353-1.024-5.360941-0.722823-7.920941-0.602353-5.451294-0.120471L150.588235 816.941176a26.352941 26.352941 0 0 1-3.312941-52.495058l3.312941-0.210824h179.380706l6.927059 0.180706 6.625882 0.301176 6.384942 0.602353 6.475294 0.90353 6.746353 1.204706 7.228235 1.566117 7.951059 2.048 8.884706 2.499765 15.510588 4.728471 41.712941 13.673411c52.585412 17.528471 86.618353 24.997647 127.819294 24.997647 74.932706 0 177.061647-64.993882 244.886588-132.818823 8.734118-8.734118 14.366118-17.016471 16.956236-23.160471l0.783058-2.108235-2.68047 0.120471-5.210353 0.512-6.686118 0.813176-22.979764 3.373177-38.189177 6.354823-57.193412 10.24-54.874353 10.330353-79.028705 15.329882-25.750589 5.089883a26.352941 26.352941 0 0 1-10.179764 0.030117l-3.312942-0.873411-105.411764-35.147294a26.352941 26.352941 0 0 1 13.462588-50.838589l3.192471 0.843294 98.785882 32.918589 34.93647-6.866824 63.457883-12.257882 65.626353-12.288 43.008-7.710118 41.562353-6.957176 21.353411-3.162353 12.649412-1.566118 9.637647-0.873412 4.728471-0.150588c67.162353 0 67.162353 66.740706 18.642823 115.260235z" fill="#568af2" /><path d="M326.264471 465.558588c75.324235 0 251.632941 71.981176 284.611764 115.952941 12.047059 16.022588 13.462588 35.026824 6.475294 53.609412-5.933176 15.841882-17.468235 30.810353-33.039058 45.628235a252.476235 252.476235 0 0 1-32.587295 26.352942 26.352941 26.352941 0 1 1-29.244235-43.851294l5.180235-3.704471 2.529883-1.897412a214.136471 214.136471 0 0 0 17.769412-15.058823c10.300235-9.818353 17.468235-19.124706 20.058353-25.961412l0.783058-2.319059c0.210824-0.722824 0.120471-0.903529-0.090353-1.174588-22.016-29.364706-182.482824-94.870588-242.447058-94.870588-50.808471 0-111.736471 34.816-157.033412 80.112941a26.352941 26.352941 0 1 1-37.285647-37.25553c54.241882-54.211765 126.554353-95.563294 194.319059-95.563294zM818.206118 184.470588c32.406588 0 58.970353 25.088 61.319529 56.922353l0.150588 4.577883V527.058824a26.352941 26.352941 0 0 1-52.495059 3.312941l-0.210823-3.312941V245.970824a8.794353 8.794353 0 0 0-6.746353-8.553412l-2.017882-0.240941h-421.647059a8.794353 8.794353 0 0 0-8.553412 6.77647l-0.240941 2.017883v140.528941a26.352941 26.352941 0 0 1-52.495059 3.312941l-0.210823-3.312941V245.970824c0-32.436706 25.088-58.970353 56.922352-61.31953l4.577883-0.180706h421.647059z" fill="#568af2" /><path d="M695.205647 184.470588H519.529412a26.352941 26.352941 0 0 0-26.352941 26.352941v158.117647c0 14.546824 11.806118 26.352941 26.352941 26.352942h175.676235a26.352941 26.352941 0 0 0 26.352941-26.352942V210.823529a26.352941 26.352941 0 0 0-26.352941-26.352941z m-26.352941 52.705883v105.411764h-122.970353v-105.411764h122.970353z" fill="#568af2" /></svg>