<svg class="icon" style="width: 1em;height: 1em;vertical-align: middle;fill: currentColor;overflow: hidden;" viewBox="0 0 1024 1024" version="1.1" xmlns="http://www.w3.org/2000/svg" width="32" height="32"><path d="M0 0h1024v1024H0z" fill="#568af2" fill-opacity="0" /><path d="M286.117647 394.360471H180.705882a26.352941 26.352941 0 0 0-26.352941 26.352941v386.499764c0 14.576941 11.806118 26.352941 26.352941 26.352942h105.411765a26.352941 26.352941 0 0 0 26.352941-26.352942V420.743529a26.352941 26.352941 0 0 0-26.352941-26.352941z m-26.352941 52.675764v333.824h-52.705882V447.036235h52.705882z" fill="#568af2" /><path d="M486.610824 203.474824l-16.504471 14.45647-42.104471 37.827765-159.683764 145.52847a26.352941 26.352941 0 0 0-8.553412 19.425883v386.499764c0 14.576941 11.806118 26.352941 26.352941 26.352942h297.472c53.157647 0 87.100235-31.021176 96.165647-69.360942l1.505882-7.830588 31.322353-203.776h118.061177a79.149176 79.149176 0 0 0 78.998588-74.149647l0.150588-4.999529a79.088941 79.088941 0 0 0-79.149176-79.028706l-182.603294 0.150588-131.824941-0.030118 3.674353-3.975529 6.234352-6.445176 13.342118-13.251765c37.767529-37.647059 54.181647-62.343529 54.181647-98.544941 0-79.299765-55.115294-112.941176-107.038117-68.848941z m20.720941 124.928l-22.467765 22.528-6.686118 7.107764a241.935059 241.935059 0 0 0-3.011764 3.343059l-4.577883 5.421177c-14.637176 17.950118-22.528 34.665412-22.528 53.910588h1.746824l3.523765 15.811764 12.167529 8.884706 0.993882 0.421647 3.97553 0.933647 4.306823 0.331295 28.431059 0.150588 327.499294-0.120471c13.432471 0 24.545882 10.029176 26.202353 23.04l0.180706 3.312941a26.413176 26.413176 0 0 1-26.413176 26.443295h-140.709648c-13.040941 0-24.094118 9.517176-26.051764 22.407529l-34.002824 221.455059-1.054117 6.294588-0.752942 3.312941c-4.216471 15.36-18.371765 27.467294-44.513882 27.467294h-271.119059V432.308706l169.652706-154.413177 33.008941-29.394823 5.601883-4.848941c13.312-11.294118 19.124706-9.517176 20.058353 19.215059l0.150588 9.456941c0 16.233412-9.246118 31.141647-33.611294 56.079059z" fill="#568af2" /></svg>