<svg class="icon" style="width: 1em;height: 1em;vertical-align: middle;fill: currentColor;overflow: hidden;" viewBox="0 0 1024 1024" version="1.1" xmlns="http://www.w3.org/2000/svg" width="32" height="32"><path d="M0 0h1024v1024H0z" fill="#568af2" fill-opacity="0" /><path d="M451.885176 124.385882A95.623529 95.623529 0 0 0 361.712941 219.858824l-0.030117 268.679529-0.602353-0.903529a98.304 98.304 0 0 0-161.852236 111.254588l165.104941 266.209882c5.662118 9.065412 15.570824 14.576941 26.232471 14.576941h343.04a79.058824 79.058824 0 0 0 79.028706-79.058823V448l-0.150588-4.728471a64.752941 64.752941 0 0 0-62.433883-59.994353l-197.150117-6.595764 0.030117-156.822588a95.623529 95.623529 0 0 0-95.623529-95.62353l-5.421177 0.150588z m5.421177 52.555294c23.702588 0 42.917647 19.215059 42.917647 42.917648v163.870117c0 24.515765 19.425882 44.574118 43.911529 45.417412l204.16753 6.806588a12.047059 12.047059 0 0 1 11.625412 12.047059v352.617412l-0.210824 3.312941a26.352941 26.352941 0 0 1-26.142118 23.04H402.733176l-158.72-255.849412a45.598118 45.598118 0 1 1 78.064942-47.104l43.248941 73.697883c13.613176 23.190588 49.091765 13.552941 49.091765-13.342118V219.858824c0-23.702588 19.215059-42.917647 42.887529-42.917648z" fill="#568af2" /></svg>