<svg class="icon" style="width: 1em;height: 1em;vertical-align: middle;fill: currentColor;overflow: hidden;" viewBox="0 0 1024 1024" version="1.1" xmlns="http://www.w3.org/2000/svg" width="32" height="32"><path d="M0 0h1024v1024H0z" fill="#568af2" fill-opacity="0" /><path d="M527.058824 335.058824a131.764706 131.764706 0 0 1 131.614117 125.379764l0.150588 6.384941v386.499765a26.352941 26.352941 0 0 1-52.495058 3.312941l-0.210824-3.312941V466.823529a79.058824 79.058824 0 0 0-157.967059-4.999529l-0.150588 4.999529v386.499765a26.352941 26.352941 0 0 1-52.495059 3.312941l-0.210823-3.312941V466.823529a131.764706 131.764706 0 0 1 131.764706-131.764705z" fill="#568af2" /><path d="M527.058824 229.647059a237.176471 237.176471 0 0 1 237.056 229.797647l0.12047 7.378823v386.499765a26.352941 26.352941 0 0 1-52.495059 3.312941l-0.210823-3.312941V466.823529a184.470588 184.470588 0 0 0-368.820706-6.77647l-0.120471 6.77647v386.499765a26.352941 26.352941 0 0 1-52.495059 3.312941l-0.210823-3.312941V466.823529A237.176471 237.176471 0 0 1 527.058824 229.647059z" fill="#568af2" /><path d="M527.058824 124.235294c186.247529 0 337.799529 148.630588 342.467764 333.733647l0.120471 8.854588v386.499765a26.352941 26.352941 0 0 1-52.495059 3.312941l-0.210824-3.312941V466.823529A289.882353 289.882353 0 0 0 527.058824 176.941176c-157.334588 0-285.394824 125.349647-289.761883 281.630118l-0.12047 8.252235v386.499765a26.352941 26.352941 0 0 1-52.495059 3.312941l-0.210824-3.312941V466.823529c0-189.199059 153.389176-342.588235 342.588236-342.588235z" fill="#568af2" /><path d="M527.058824 440.470588c13.432471 0 24.515765 10.059294 26.142117 23.04l0.210824 3.312941v386.499765a26.352941 26.352941 0 0 1-52.495059 3.312941l-0.210824-3.312941V466.823529c0-14.546824 11.806118-26.352941 26.352942-26.352941z" fill="#568af2" /></svg>