<svg class="icon" style="width: 1em;height: 1em;vertical-align: middle;fill: currentColor;overflow: hidden;" viewBox="0 0 1024 1024" version="1.1" xmlns="http://www.w3.org/2000/svg" width="32" height="32"><path d="M0 0h1024v1024H0z" fill="#568af2" fill-opacity="0" /><path d="M283.075765 154.352941h-37.948236a61.500235 61.500235 0 0 0-61.289411 56.380235l-29.274353 351.382589c-3.011765 35.84 25.298824 66.590118 61.289411 66.590117h67.222589a61.500235 61.500235 0 0 0 61.470117-61.500235V215.853176A61.500235 61.500235 0 0 0 283.105882 154.352941z m-37.948236 52.705883h37.948236c4.818824 0 8.764235 3.915294 8.764235 8.794352v351.352471c0 4.848941-3.915294 8.794353-8.764235 8.794353H215.853176a8.794353 8.794353 0 0 1-8.734117-9.517176l29.244235-351.382589a8.794353 8.794353 0 0 1 8.764235-8.041411zM757.187765 154.352941h-298.435765a61.500235 61.500235 0 0 0-61.500235 61.500235v344.786824c0 24.877176 14.968471 47.284706 37.526588 57.916235 40.267294 18.974118 74.179765 42.887529 89.208471 67.97553 10.721882 17.859765 18.974118 45.357176 24.545882 78.366117 3.222588 19.124706 5.180235 37.767529 6.204235 53.940706l0.572235 11.354353 0.180706 4.758588 0.421647 4.035765c5.782588 41.652706 43.158588 43.730824 79.088942 24.244706 25.298824-13.733647 51.260235-37.918118 65.957647-62.433882 15.269647-25.449412 19.968-57.072941 17.799529-91.949177a214.558118 214.558118 0 0 0-5.360941-36.653176l-2.95153-11.956706-3.764705-13.613177-5.180236-17.558588-5.300706-17.679059h155.346824a61.500235 61.500235 0 0 0 59.151059-78.185411L816.368941 199.137882a61.500235 61.500235 0 0 0-59.181176-44.784941z m-298.435765 52.705883h298.435765c3.915294 0 7.378824 2.620235 8.432941 6.384941l94.358588 334.095059a8.794353 8.794353 0 0 1-8.432941 11.143529H660.781176a26.352941 26.352941 0 0 0-25.238588 33.942588l18.160941 60.656941 3.734589 13.010824 2.981647 11.083294 1.204706 4.999529 1.957647 9.125647c1.355294 7.228235 2.168471 13.703529 2.590117 20.570353 1.536 25.238588-1.716706 47.104-10.420706 61.620706l-3.553882 5.421177a135.710118 135.710118 0 0 1-42.315294 37.767529l-2.409412 1.234824-0.692706-10.390589c-1.204706-15.902118-3.222588-33.430588-6.26447-51.561411-6.535529-38.942118-16.504471-72.041412-31.322353-96.737883-21.865412-36.502588-62.915765-65.445647-111.917177-88.545882-4.517647-2.108235-7.318588-6.264471-7.318588-10.24V215.853176c0-4.848941 3.945412-8.794353 8.794353-8.794352z" fill="#568af2" /></svg>