<svg class="icon" style="width: 1em;height: 1em;vertical-align: middle;fill: currentColor;overflow: hidden;" viewBox="0 0 1024 1024" version="1.1" xmlns="http://www.w3.org/2000/svg" width="32" height="32"><path d="M647.348706 437.790118a83.516235 83.516235 0 0 1 83.124706 78.426353l0.150588 5.059764v218.925177c0 74.089412-61.861647 144.474353-144.022588 148.118588l-6.716236 0.150588h-202.300235c-89.660235 0-193.114353-128.150588-193.114353-219.617882 0-55.657412 18.733176-98.032941 56.71153-123.964235a26.352941 26.352941 0 1 1 29.726117 43.52c-22.317176 15.239529-33.731765 41.020235-33.731764 80.444235 0 62.885647 78.456471 161.701647 135.920941 166.701176l4.487529 0.210824h202.300235c53.217882 0 95.051294-44.242824 97.882353-90.593882l0.150589-4.969412v-218.925177c0-16.956235-13.733647-30.72-30.72-30.780235a30.479059 30.479059 0 0 0-30.358589 27.015529l-0.180705 3.312942v1.927529a26.352941 26.352941 0 0 1-52.525177 3.312941l-0.180706-3.312941v-2.017882a83.184941 83.184941 0 0 1 83.425883-82.944z" fill="#568af2" /><path d="M337.136941 140.830118A82.883765 82.883765 0 0 1 419.84 218.654118l0.150588 5.059764v280.847059a26.352941 26.352941 0 0 1-52.495059 3.312941l-0.210823-3.312941V223.713882a30.177882 30.177882 0 0 0-60.114824-3.523764l-0.210823 3.523764v382.704942a26.352941 26.352941 0 0 1-52.495059 3.312941l-0.210824-3.312941V223.713882a82.883765 82.883765 0 0 1 82.883765-82.883764z" fill="#568af2" /><path d="M442.910118 361.472a75.595294 75.595294 0 0 1 75.474823 70.656l0.150588 4.969412v81.167059a26.352941 26.352941 0 0 1-52.495058 3.312941l-0.210824-3.312941v-81.167059a22.889412 22.889412 0 0 0-45.628235-3.102118l-0.210824 3.102118v73.637647a26.352941 26.352941 0 0 1-52.495059 3.312941l-0.210823-3.312941v-73.637647a75.595294 75.595294 0 0 1 75.625412-75.625412z" fill="#568af2" /><path d="M541.033412 396.619294a75.595294 75.595294 0 0 1 75.444706 70.625882l0.150588 4.969412v56.169412a26.352941 26.352941 0 0 1-52.495059 3.312941l-0.210823-3.312941v-56.169412a22.889412 22.889412 0 0 0-45.598118-3.102117l-0.210824 3.102117v50.085647a26.352941 26.352941 0 0 1-52.495058 3.312941l-0.210824-3.312941V472.244706a75.595294 75.595294 0 0 1 75.595294-75.595294zM807.996235 203.294118a26.352941 26.352941 0 0 1 3.312941 52.495058l-3.312941 0.210824h-527.058823a26.352941 26.352941 0 0 1-3.312941-52.495059l3.312941-0.210823h527.058823z" fill="#568af2" /><path d="M700.536471 132.969412a26.352941 26.352941 0 0 1 34.42447-4.186353l2.831059 2.228706 87.823059 79.058823c10.752 9.637647 11.565176 25.931294 2.499765 36.623059l-2.499765 2.529882-87.823059 79.058824a26.352941 26.352941 0 0 1-37.767529-36.592941l2.499764-2.56 66.048-59.512471-66.048-59.452235a26.352941 26.352941 0 0 1-1.957647-37.195294z" fill="#568af2" /></svg>