<svg class="icon" style="width: 1em;height: 1em;vertical-align: middle;fill: currentColor;overflow: hidden;" viewBox="0 0 1024 1024" version="1.1" xmlns="http://www.w3.org/2000/svg" width="32" height="32"><path d="M504.470588 154.352941c130.710588 0 253.289412 50.959059 343.732706 140.047059a26.352941 26.352941 0 1 1-36.98447 37.526588c-80.655059-79.420235-189.952-124.867765-306.748236-124.867764-116.103529 0-224.828235 44.935529-305.362823 123.51247A26.352941 26.352941 0 1 1 162.334118 292.864c90.292706-88.124235 212.208941-138.511059 342.166588-138.511059z" fill="#568af2" /><path d="M505.916235 287.593412a26.352941 26.352941 0 0 1 0 52.705882 278.166588 278.166588 0 0 0-278.076235 270.095059l-0.120471 9.065412a26.352941 26.352941 0 0 1-52.495058 3.312941l-0.210824-3.312941v-0.993883c0-182.753882 148.178824-330.872471 330.902588-330.87247zM607.864471 330.209882a26.352941 26.352941 0 0 1 34.93647-13.071058 330.902588 330.902588 0 0 1 193.837177 291.990588l0.150588 9.33647a26.352941 26.352941 0 1 1-52.495059 3.523765l-0.210823-3.312941a278.287059 278.287059 0 0 0-163.147295-253.590588 26.352941 26.352941 0 0 1-13.071058-34.876236z" fill="#568af2" /><path d="M505.916235 420.803765a197.662118 197.662118 0 0 1 197.51153 190.554353l0.12047 7.107764v133.210353a26.352941 26.352941 0 0 1-52.495059 3.312941l-0.210823-3.312941v-133.210353a144.926118 144.926118 0 0 0-289.731765-6.475294l-0.150588 6.475294v133.210353a26.352941 26.352941 0 0 1-52.495059 3.312941l-0.210823-3.312941v-133.210353a197.632 197.632 0 0 1 197.662117-197.662117z" fill="#568af2" /><path d="M505.916235 554.044235a83.456 83.456 0 0 1 83.275294 78.366118l0.150589 5.089882v152.756706a26.352941 26.352941 0 0 1-52.495059 3.312941l-0.210824-3.312941v-152.756706a30.72 30.72 0 0 0-61.289411-3.373176l-0.180706 3.373176v152.756706c0 44.784941-31.924706 90.172235-76.67953 101.195294a26.352941 26.352941 0 0 1-15.811764-50.176l3.162352-0.963764c18.823529-4.668235 34.544941-25.6 36.442353-45.989647l0.180706-4.065883v-152.756706a83.425882 83.425882 0 0 1 83.425883-83.456z" fill="#568af2" /></svg>