<svg class="icon" style="width: 1em;height: 1em;vertical-align: middle;fill: currentColor;overflow: hidden;" viewBox="0 0 1024 1024" version="1.1" xmlns="http://www.w3.org/2000/svg" width="32" height="32"><path d="M252.807529 417.882353H185.735529a61.500235 61.500235 0 0 0-61.259294 66.831059l29.033412 333.793882a61.500235 61.500235 0 0 0 61.259294 56.169412h38.038588A61.500235 61.500235 0 0 0 314.307765 813.176471V479.382588a61.500235 61.500235 0 0 0-61.500236-61.500235z m-67.072 52.705882h67.072c4.848941 0 8.794353 3.915294 8.794353 8.794353V813.176471c0 4.848941-3.915294 8.794353-8.794353 8.794353H214.768941a8.794353 8.794353 0 0 1-8.764235-8.041412l-29.033412-333.793883a8.794353 8.794353 0 0 1 8.734118-9.547294zM525.643294 190.042353l-0.240941 2.048-0.301177 4.126118-0.090352 4.547764c-0.813176 18.130824-2.891294 40.387765-6.746353 63.337412-5.541647 33.039059-13.793882 60.536471-24.515765 78.396235-15.058824 25.057882-48.971294 49.001412-89.208471 67.97553-22.588235 10.631529-37.526588 33.039059-37.526588 57.916235V813.176471c0 33.972706 27.527529 61.500235 61.500235 61.500235h298.405647c27.527529 0 51.712-18.311529 59.181177-44.784941l94.358588-334.064941 1.054118-4.367059a61.500235 61.500235 0 0 0-60.235294-73.848471l-155.316706-0.030118 10.450823-35.177411 3.764706-13.613177c5.029647-19.064471 7.348706-32.527059 8.342588-48.609882 2.138353-34.876235-2.56-66.499765-17.799529-91.949177-14.697412-24.515765-40.658824-48.700235-65.957647-62.433882-35.960471-19.516235-73.336471-17.408-79.119059 24.214588z m50.748235 33.159529l0.843295-12.318117 2.409411 1.234823c17.167059 9.336471 36.141176 27.015529 45.869177 43.218824 8.704 14.516706 11.956706 36.382118 10.390588 61.590588l-0.301176 4.096-0.90353 8.101647a177.513412 177.513412 0 0 1-2.288941 12.830118l-2.258824 9.667764-1.385411 5.360942-3.312942 11.986823-4.698352 15.841882-15.450353 51.59153a26.352941 26.352941 0 0 0 25.238588 33.91247h190.735059c5.842824 0 10.029176 5.571765 8.432941 11.14353L735.412706 815.585882a8.794353 8.794353 0 0 1-8.432941 6.415059h-298.465883a8.794353 8.794353 0 0 1-8.764235-8.794353V468.389647c0-3.975529 2.770824-8.131765 7.288471-10.24 49.031529-23.130353 90.051765-52.043294 111.947294-88.545882 14.787765-24.696471 24.756706-57.825882 31.322353-96.768a587.595294 587.595294 0 0 0 6.113882-49.633883z" fill="#568af2" /></svg>