<svg class="icon" style="width: 1em;height: 1em;vertical-align: middle;fill: currentColor;overflow: hidden;" viewBox="0 0 1024 1024" version="1.1" xmlns="http://www.w3.org/2000/svg" width="32" height="32"><path d="M0 0h1024v1024H0z" fill="#568af2" fill-opacity="0" /><path d="M465.317647 154.352941a26.352941 26.352941 0 0 0-24.094118 15.661177l-126.494117 284.611764a26.352941 26.352941 0 0 0-2.258824 10.691765V813.176471c0 14.546824 11.806118 26.352941 26.352941 26.352941h367.465412a89.539765 89.539765 0 0 0 89.298824-76.16753l43.64047-284.551529a89.630118 89.630118 0 0 0-20.961882-72.282353l-4.126118-4.427294a89.6 89.6 0 0 0-64.512-26.383059h-163.087059V275.576471a121.223529 121.223529 0 0 0-121.223529-121.22353z m16.233412 54.66353l1.987765 0.481882a68.547765 68.547765 0 0 1 50.29647 66.078118v126.494117c0 14.546824 11.806118 26.352941 26.352941 26.352941h189.741177a36.894118 36.894118 0 0 1 37.195294 42.435765l-43.640471 284.55153-0.722823 3.614117c-4.156235 16.353882-18.974118 28.009412-36.171294 27.798588H365.176471V470.829176l116.374588-261.812705z" fill="#568af2" /><path d="M338.823529 435.471059H254.403765c-49.664-0.903529-93.003294 39.183059-99.809883 89.539765l-0.240941 3.553882v221.364706l0.240941 3.523764a99.388235 99.388235 0 0 0 100.261647 86.076236h83.968a26.352941 26.352941 0 0 0 26.352942-26.352941V461.824a26.352941 26.352941 0 0 0-26.352942-26.352941z m-26.352941 351.322353H254.403765l-4.517647-0.090353a46.772706 46.772706 0 0 1-42.285177-35.990588l-0.542117-3.011765v-216.997647l0.542117-2.921412c5.059765-22.588235 25.148235-39.996235 46.320941-39.634823h58.548706v298.646588z" fill="#568af2" /></svg>