<svg class="icon" style="width: 1em;height: 1em;vertical-align: middle;fill: currentColor;overflow: hidden;" viewBox="0 0 1024 1024" version="1.1" xmlns="http://www.w3.org/2000/svg" width="32" height="32"><path d="M0 0h1024v1024H0z" fill="#568af2" fill-opacity="0" /><path d="M807.213176 721.558588H420.743529a26.352941 26.352941 0 0 0-26.352941 26.352941v105.411765c0 14.576941 11.806118 26.352941 26.352941 26.352941h386.499765a26.352941 26.352941 0 0 0 26.352941-26.352941v-105.411765a26.352941 26.352941 0 0 0-26.352941-26.352941z m-26.352941 52.705883v52.705882H447.036235v-52.705882h333.824z" fill="#568af2" /><path d="M473.479529 124.235294a79.088941 79.088941 0 0 0-79.058823 79.149177l0.150588 184.470588-0.030118 129.957647-3.975529-3.674353-6.445176-6.234353-13.251765-13.312c-37.647059-37.767529-62.343529-54.211765-98.544941-54.211765-77.312 0-111.224471 52.404706-71.981177 103.122824l6.174118 7.439059 47.134118 52.796235 121.97647 133.933176 25.660235 28.03953c4.969412 5.451294 12.047059 8.553412 19.425883 8.553412h386.499764a26.352941 26.352941 0 0 0 26.352942-26.352942v-297.472c0-53.157647-31.051294-87.070118-69.360942-96.135529l-7.830588-1.505882-203.776-31.382589v-118.061176a79.119059 79.119059 0 0 0-79.119059-79.119059z m0 52.705882c14.607059 0 26.443294 11.836235 26.443295 26.413177v140.739765c0 13.010824 9.517176 24.094118 22.407529 26.051764l221.455059 33.972706 6.294588 1.054118 3.312941 0.752941c15.36 4.216471 27.467294 18.401882 27.467294 44.513882v271.119059H432.308706l-146.100706-160.436706L248.470588 518.927059l-4.848941-5.601883c-10.179765-11.956706-9.758118-17.859765 11.384471-19.606588l7.830588-0.451764c2.861176-0.090353 6.023529-0.120471 9.456941-0.120471 16.233412 0 31.141647 9.216 56.079059 33.581176l22.528 22.467765 7.077647 6.686118 3.373176 3.011764 5.421177 4.608c17.92 14.637176 34.665412 22.497882 53.910588 22.497883v-1.776941l15.811765-3.493647 8.884706-12.16753 0.421647-0.963765 0.933647-4.005647 0.301176-3.614117 0.180706-29.093647-0.12047-327.529412c0-14.546824 11.776-26.352941 26.352941-26.383059z" fill="#568af2" /></svg>