<svg class="icon" style="width: 1em;height: 1em;vertical-align: middle;fill: currentColor;overflow: hidden;" viewBox="0 0 1024 1024" version="1.1" xmlns="http://www.w3.org/2000/svg" width="32" height="32"><path d="M818.206118 304.941176c33.942588 0 61.470118 27.527529 61.470117 61.500236v151.883294c0 23.04-12.8 44.032-32.286117 57.223529-25.750588 17.408-45.387294 42.767059-52.61553 77.552941-6.535529 31.472941-32.466824 55.928471-64.421647 55.928471H273.558588c-31.954824 0-57.856-24.455529-64.421647-55.928471-7.228235-34.785882-26.834824-60.144941-52.585412-77.552941-19.486118-13.191529-32.316235-34.183529-32.316235-57.223529v-151.883294c0-33.972706 27.527529-61.500235 61.500235-61.500236h632.470589z m0 52.705883h-632.470589a8.794353 8.794353 0 0 0-8.794353 8.794353v151.883294c0 4.216471 3.282824 9.607529 9.125648 13.552941 36.261647 24.545882 64.361412 60.837647 74.691764 110.501647 1.746824 8.432941 7.589647 13.944471 12.8 13.944471H730.352941c5.240471 0 11.053176-5.511529 12.830118-13.944471 10.330353-49.694118 38.4-85.955765 74.691765-110.501647 5.812706-3.945412 9.095529-9.336471 9.095529-13.552941v-151.883294a8.794353 8.794353 0 0 0-8.764235-8.794353z" fill="#568af2" /><path d="M677.647059 550.912a26.352941 26.352941 0 1 1 0 52.705882H326.264471a26.352941 26.352941 0 0 1 0-52.705882H677.647059z" fill="#568af2" /><path d="M326.264471 498.206118c14.576941 0 26.352941 11.776 26.352941 26.352941v52.705882a26.352941 26.352941 0 0 1-52.705883 0v-52.705882c0-14.576941 11.806118-26.352941 26.352942-26.352941zM449.264941 498.206118c14.546824 0 26.352941 11.776 26.352941 26.352941v52.705882a26.352941 26.352941 0 0 1-52.705882 0v-52.705882c0-14.576941 11.776-26.352941 26.352941-26.352941zM554.676706 498.206118c14.546824 0 26.352941 11.776 26.352941 26.352941v52.705882a26.352941 26.352941 0 0 1-52.705882 0v-52.705882c0-14.576941 11.776-26.352941 26.352941-26.352941zM677.647059 498.206118c14.546824 0 26.352941 11.776 26.352941 26.352941v52.705882a26.352941 26.352941 0 0 1-52.705882 0v-52.705882c0-14.576941 11.806118-26.352941 26.352941-26.352941zM308.705882 410.352941a26.352941 26.352941 0 1 1 0 52.705883H273.558588a26.352941 26.352941 0 1 1 0-52.705883h35.147294zM449.264941 410.352941a26.352941 26.352941 0 0 1 0 52.705883H414.117647a26.352941 26.352941 0 1 1 0-52.705883h35.147294zM589.793882 410.352941a26.352941 26.352941 0 1 1 0 52.705883h-35.117176a26.352941 26.352941 0 1 1 0-52.705883h35.117176zM730.352941 410.352941a26.352941 26.352941 0 1 1 0 52.705883h-35.147294a26.352941 26.352941 0 0 1 0-52.705883h35.147294z" fill="#568af2" /></svg>