<svg class="icon" style="width: 1em;height: 1em;vertical-align: middle;fill: currentColor;overflow: hidden;" viewBox="0 0 1024 1024" version="1.1" xmlns="http://www.w3.org/2000/svg" width="32" height="32"><path d="M783.058824 184.470588c14.546824 0 26.352941 11.806118 26.352941 26.352941v351.382589a26.352941 26.352941 0 0 1-26.352941 26.352941H220.852706a26.352941 26.352941 0 0 1-26.352941-26.352941V210.823529c0-14.546824 11.806118-26.352941 26.352941-26.352941H783.058824z m-26.383059 52.705883H247.205647v298.646588h509.470118V237.176471z" fill="#568af2" /><path d="M775.318588 536.997647a26.352941 26.352941 0 0 1 32.918588 17.468235l70.294589 228.382118a26.352941 26.352941 0 0 1-25.208471 34.093176H150.588235a26.352941 26.352941 0 0 1-25.178353-34.093176l70.264471-228.412235a26.352941 26.352941 0 0 1 50.386823 15.510588l-59.813647 194.258823h631.416471l-59.783529-194.258823a26.352941 26.352941 0 0 1 14.336-31.774118l3.102117-1.174588z" fill="#568af2" /><path d="M573.982118 658.823529c11.504941 0 21.684706 7.439059 25.148235 18.371765l33.370353 105.411765a26.352941 26.352941 0 0 1-25.118118 34.334117h-210.823529a26.352941 26.352941 0 0 1-25.148235-34.334117l33.40047-105.411765a26.352941 26.352941 0 0 1 25.118118-18.371765h144.052706z m-19.305412 52.705883h-105.441882l-16.685177 52.705882h138.812235l-16.685176-52.705882z" fill="#568af2" /></svg>