<svg class="icon" style="width: 1em;height: 1em;vertical-align: middle;fill: currentColor;overflow: hidden;" viewBox="0 0 1024 1024" version="1.1" xmlns="http://www.w3.org/2000/svg" width="32" height="32"><path d="M390.384941 189.229176a26.352941 26.352941 0 0 1 36.713412 6.475295l272.624941 389.360941a26.352941 26.352941 0 0 1-6.475294 36.713412A264.011294 264.011294 0 0 1 390.384941 189.229176z m9.577412 59.632942l-3.102118 2.861176a211.365647 211.365647 0 0 0 239.887059 342.618353l3.704471-1.987765L399.962353 248.862118z" fill="#568af2" /><path d="M491.911529 623.676235c14.576941 0 26.352941 11.806118 26.352942 26.352941V843.294118a26.352941 26.352941 0 1 1-52.705883 0v-193.264942c0-14.546824 11.806118-26.352941 26.352941-26.352941z" fill="#568af2" /><path d="M309.308235 526.064941a26.352941 26.352941 0 1 1 48.971294 19.576471l-108.544 271.299764H843.294118c13.432471 0 24.515765 10.059294 26.142117 23.04l0.210824 3.312942a26.352941 26.352941 0 0 1-26.352941 26.352941H210.823529a26.352941 26.352941 0 0 1-24.455529-36.141177l122.970353-307.440941zM792.576 189.560471a26.352941 26.352941 0 1 1 31.171765 42.526117l-263.529412 193.234824a26.352941 26.352941 0 1 1-31.171765-42.465883l263.529412-193.295058z" fill="#568af2" /><path d="M808.146824 184.470588c17.92 0 30.599529 17.468235 25.057882 34.514824l-122.970353 377.735529a26.352941 26.352941 0 0 1-50.115765-16.323765l111.736471-343.220705H404.088471a26.352941 26.352941 0 0 1-26.172236-23.04L377.735529 210.823529c0-14.546824 11.776-26.352941 26.352942-26.352941h404.058353z" fill="#568af2" /></svg>