<svg class="icon" style="width: 1em;height: 1em;vertical-align: middle;fill: currentColor;overflow: hidden;" viewBox="0 0 1024 1024" version="1.1" xmlns="http://www.w3.org/2000/svg" width="32" height="32"><path d="M316.235294 154.352941A131.764706 131.764706 0 0 1 448 286.117647v456.794353a131.764706 131.764706 0 0 1-263.529412 0V286.117647A131.764706 131.764706 0 0 1 316.235294 154.352941z m0 52.705883A79.058824 79.058824 0 0 0 237.176471 286.117647v456.794353a79.058824 79.058824 0 0 0 158.117647 0V286.117647A79.058824 79.058824 0 0 0 316.235294 207.058824zM737.882353 154.352941A131.764706 131.764706 0 0 1 869.647059 286.117647v456.794353a131.764706 131.764706 0 0 1-263.529412 0V286.117647A131.764706 131.764706 0 0 1 737.882353 154.352941z m0 52.705883A79.058824 79.058824 0 0 0 658.823529 286.117647v456.794353a79.058824 79.058824 0 0 0 158.117647 0V286.117647A79.058824 79.058824 0 0 0 737.882353 207.058824z" fill="#568af2" /><path d="M316.235294 611.147294a131.764706 131.764706 0 1 1 0 263.529412 131.764706 131.764706 0 0 1 0-263.529412z m0 52.705882a79.058824 79.058824 0 1 0 0 158.117648 79.058824 79.058824 0 0 0 0-158.117648zM737.882353 611.147294a131.764706 131.764706 0 1 1 0 263.529412 131.764706 131.764706 0 0 1 0-263.529412z m0 52.705882a79.058824 79.058824 0 1 0 0 158.117648 79.058824 79.058824 0 0 0 0-158.117648zM527.058824 330.029176a131.764706 131.764706 0 0 1 131.764705 131.764706 26.352941 26.352941 0 1 1-52.705882 0 79.058824 79.058824 0 0 0-158.117647 0 26.352941 26.352941 0 1 1-52.705882 0 131.764706 131.764706 0 0 1 131.764706-131.764706z" fill="#568af2" /><path d="M527.058824 505.735529a131.764706 131.764706 0 0 1 131.764705 131.764706 26.352941 26.352941 0 0 1-52.705882 0 79.058824 79.058824 0 0 0-158.117647 0 26.352941 26.352941 0 0 1-52.705882 0 131.764706 131.764706 0 0 1 131.764706-131.764706z" fill="#568af2" /></svg>