<svg class="icon" style="width: 1em;height: 1em;vertical-align: middle;fill: currentColor;overflow: hidden;" viewBox="0 0 1024 1024" version="1.1" xmlns="http://www.w3.org/2000/svg" width="32" height="32"><path d="M596.299294 154.352941c15.299765 0 30.057412 5.722353 41.35153 15.992471l171.700705 156.099764c12.830118 11.655529 20.148706 28.16 20.148706 45.477648v476.400941a61.500235 61.500235 0 0 1-61.500235 61.470117H276.088471a61.500235 61.500235 0 0 1-61.500236-61.470117v-632.470589c0-33.972706 27.527529-61.500235 61.500236-61.500235h320.210823z m0 52.705883H276.088471a8.794353 8.794353 0 0 0-8.794353 8.794352v632.470589c0 4.818824 3.915294 8.764235 8.794353 8.764235H768c4.848941 0 8.794353-3.915294 8.794353-8.764235V371.922824a8.764235 8.764235 0 0 0-2.891294-6.475295l-171.670588-156.099764a8.794353 8.794353 0 0 0-5.933177-2.288941z" fill="#568af2" /><path d="M399.058824 356.382118m-52.705883 0a52.705882 52.705882 0 1 0 105.411765 0 52.705882 52.705882 0 1 0-105.411765 0Z" fill="#568af2" /><path d="M662.588235 488.146824c14.546824 0 26.352941 11.806118 26.352941 26.352941v245.970823a26.352941 26.352941 0 0 1-26.352941 26.352941h-281.088a26.352941 26.352941 0 0 1-26.352941-26.352941v-245.970823c0-14.546824 11.776-26.352941 26.352941-26.352941H662.588235z m-26.352941 52.705882h-228.382118v193.234823h228.382118v-193.234823z" fill="#568af2" /></svg>