<svg class="icon" style="width: 1em;height: 1em;vertical-align: middle;fill: currentColor;overflow: hidden;" viewBox="0 0 1024 1024" version="1.1" xmlns="http://www.w3.org/2000/svg" width="32" height="32"><path d="M660.088471 442.970353c33.942588 0 61.470118 27.527529 61.470117 61.500235v281.088a61.500235 61.500235 0 0 1-61.470117 61.500236H185.735529a61.500235 61.500235 0 0 1-61.500235-61.500236V504.470588c0-33.972706 27.527529-61.500235 61.500235-61.500235h474.352942z m0 52.705882H185.735529a8.794353 8.794353 0 0 0-8.794353 8.794353v281.088c0 4.848941 3.915294 8.794353 8.794353 8.794353h474.352942c4.818824 0 8.764235-3.915294 8.764235-8.794353V504.470588a8.794353 8.794353 0 0 0-8.764235-8.794353z" fill="#568af2" /><path d="M589.793882 548.382118c14.576941 0 26.352941 11.806118 26.352942 26.352941v140.559059a26.352941 26.352941 0 0 1-26.352942 26.352941h-158.117647a26.352941 26.352941 0 0 1-26.352941-26.352941v-140.559059c0-14.546824 11.806118-26.352941 26.352941-26.352941h158.117647z m-26.352941 52.705882h-105.411765v87.823059h105.411765v-87.823059zM554.676706 214.588235a114.206118 114.206118 0 1 1 0 228.382118 114.206118 114.206118 0 0 1 0-228.382118z m0 52.705883a61.500235 61.500235 0 1 0 0 122.970353 61.500235 61.500235 0 0 0 0-122.970353zM308.705882 214.588235a114.206118 114.206118 0 1 1 0 228.382118 114.206118 114.206118 0 0 1 0-228.382118z m0 52.705883a61.500235 61.500235 0 1 0 0 122.970353 61.500235 61.500235 0 0 0 0-122.970353zM842.631529 480.376471a26.352941 26.352941 0 0 1 37.044706 24.094117v281.088a26.352941 26.352941 0 0 1-37.044706 24.094118l-158.117647-70.264471a26.352941 26.352941 0 0 1 21.38353-48.188235l121.072941 53.790118v-199.981177l-121.072941 53.820235a26.352941 26.352941 0 0 1-33.219765-10.450823l-1.536-2.921412a26.352941 26.352941 0 0 1 13.372235-34.785882l158.117647-70.294588z" fill="#568af2" /></svg>