<svg class="icon" style="width: 1em;height: 1em;vertical-align: middle;fill: currentColor;overflow: hidden;" viewBox="0 0 1024 1024" version="1.1" xmlns="http://www.w3.org/2000/svg" width="32" height="32"><path d="M481.882353 294.912a237.176471 237.176471 0 0 1 237.176471 237.176471v140.528941a237.176471 237.176471 0 0 1-474.352942 0v-140.528941A237.176471 237.176471 0 0 1 481.882353 294.912z m0 52.705882a184.470588 184.470588 0 0 0-184.470588 184.470589v140.528941a184.470588 184.470588 0 1 0 368.941176 0v-140.528941A184.470588 184.470588 0 0 0 481.882353 347.617882z" fill="#568af2" /><path d="M481.882353 294.912a237.176471 237.176471 0 0 1 237.176471 237.176471v43.911529H244.705882v-43.911529A237.176471 237.176471 0 0 1 481.882353 294.912z m0 52.705882a184.470588 184.470588 0 0 0-183.988706 171.008l-0.240941 4.668236h368.429176l-0.210823-4.668236a184.500706 184.500706 0 0 0-177.212235-170.887529L481.882353 347.617882z" fill="#568af2" /><path d="M604.852706 154.352941c108.423529 0 166.912 81.859765 166.912 184.470588a26.352941 26.352941 0 1 1-52.705882 0c0-76.589176-39.424-131.764706-114.206118-131.764705-68.005647 0-96.617412 40.357647-96.617412 114.206117v228.382118a26.352941 26.352941 0 1 1-52.705882 0v-228.382118c0-99.809882 47.525647-166.912 149.323294-166.912z" fill="#568af2" /></svg>