<svg class="icon" style="width: 1em;height: 1em;vertical-align: middle;fill: currentColor;overflow: hidden;" viewBox="0 0 1024 1024" version="1.1" xmlns="http://www.w3.org/2000/svg" width="32" height="32"><path d="M739.147294 395.294118c33.942588 0 61.470118 27.527529 61.470118 61.500235v351.352471a61.500235 61.500235 0 0 1-61.470118 61.500235H282.352941a61.500235 61.500235 0 0 1-61.500235-61.500235V456.794353c0-33.972706 27.527529-61.500235 61.500235-61.500235h456.794353z m0 52.705882H282.352941a8.794353 8.794353 0 0 0-8.794353 8.794353v351.352471c0 4.848941 3.915294 8.794353 8.794353 8.794352h456.794353c4.818824 0 8.764235-3.915294 8.764235-8.794352V456.794353a8.794353 8.794353 0 0 0-8.764235-8.794353z" fill="#568af2" /><path d="M387.764706 562.206118m-35.147294 0a35.147294 35.147294 0 1 0 70.294588 0 35.147294 35.147294 0 1 0-70.294588 0Z" fill="#568af2" /><path d="M633.735529 562.206118m-35.147294 0a35.147294 35.147294 0 1 0 70.294589 0 35.147294 35.147294 0 1 0-70.294589 0Z" fill="#568af2" /><path d="M440.470588 667.617882a35.147294 35.147294 0 1 0 0 70.264471v-70.264471z m140.559059 70.264471a35.147294 35.147294 0 1 0 0-70.264471V737.882353z m-140.559059 0h140.559059v-70.264471h-140.559059V737.882353zM510.735059 254.735059c14.576941 0 26.352941 11.806118 26.352941 26.352941V421.647059a26.352941 26.352941 0 1 1-52.705882 0V281.088c0-14.546824 11.806118-26.352941 26.352941-26.352941zM159.382588 535.853176c14.546824 0 26.352941 11.776 26.352941 26.352942v140.528941a26.352941 26.352941 0 1 1-52.705882 0v-140.528941c0-14.576941 11.776-26.352941 26.352941-26.352942zM862.117647 535.853176c14.546824 0 26.352941 11.776 26.352941 26.352942v140.528941a26.352941 26.352941 0 1 1-52.705882 0v-140.528941c0-14.576941 11.806118-26.352941 26.352941-26.352942z" fill="#568af2" /><path d="M510.735059 184.470588a61.500235 61.500235 0 1 1 0 122.970353 61.500235 61.500235 0 0 1 0-122.970353z m0 52.705883a8.794353 8.794353 0 1 0 0 17.558588 8.794353 8.794353 0 0 0 0-17.558588z" fill="#568af2" /></svg>