<svg class="icon" style="width: 1em;height: 1em;vertical-align: middle;fill: currentColor;overflow: hidden;" viewBox="0 0 1024 1024" version="1.1" xmlns="http://www.w3.org/2000/svg" width="32" height="32"><path d="M730.352941 214.588235a79.058824 79.058824 0 0 1 79.058824 79.058824V662.588235a26.352941 26.352941 0 0 1-26.352941 26.352941H220.852706A26.352941 26.352941 0 0 1 194.499765 662.588235V293.647059a79.058824 79.058824 0 0 1 79.058823-79.058824H730.352941z m0 52.705883H273.558588a26.352941 26.352941 0 0 0-26.352941 26.352941v342.588235h509.470118l0.030117-342.588235a26.352941 26.352941 0 0 0-23.04-26.142118l-3.312941-0.210823z" fill="#568af2" /><path d="M853.323294 636.235294c14.576941 0 26.352941 11.806118 26.352941 26.352941v35.147294a131.764706 131.764706 0 0 1-131.764706 131.764706H256a131.764706 131.764706 0 0 1-131.764706-131.764706V662.588235c0-14.546824 11.806118-26.352941 26.352941-26.352941h702.735059z m-26.352941 52.705882H176.941176v8.794353a79.058824 79.058824 0 0 0 74.059295 78.908236l4.999529 0.150588h491.911529a79.058824 79.058824 0 0 0 79.058824-79.058824v-8.794353z" fill="#568af2" /></svg>