<svg class="icon" style="width: 1em;height: 1em;vertical-align: middle;fill: currentColor;overflow: hidden;" viewBox="0 0 1024 1024" version="1.1" xmlns="http://www.w3.org/2000/svg" width="32" height="32"><path d="M818.206118 214.588235c33.942588 0 61.470118 27.527529 61.470117 61.500236V662.588235a61.500235 61.500235 0 0 1-61.470117 61.500236H431.676235A61.500235 61.500235 0 0 1 370.206118 662.588235V276.088471c0-33.972706 27.527529-61.500235 61.470117-61.500236h386.529883z m0 52.705883H431.676235a8.794353 8.794353 0 0 0-8.764235 8.794353V662.588235c0 4.848941 3.915294 8.794353 8.764235 8.794353h386.529883c4.818824 0 8.764235-3.915294 8.764235-8.794353V276.088471a8.794353 8.794353 0 0 0-8.764235-8.794353z" fill="#568af2" /><path d="M396.559059 425.411765c14.546824 0 26.352941 11.806118 26.352941 26.352941v245.970823a26.352941 26.352941 0 0 1-26.352941 26.352942H150.588235a26.352941 26.352941 0 0 1-26.352941-26.352942v-132.457411c0-7.348706 3.072-14.366118 8.493177-19.365647l122.970353-113.513412a26.352941 26.352941 0 0 1 17.859764-6.987294h123.000471z m-26.383059 52.705882H283.828706l-106.88753 98.695529v94.539295h193.234824v-193.234824z" fill="#568af2" /><path d="M396.559059 706.499765c14.546824 0 26.352941 11.806118 26.352941 26.352941a96.617412 96.617412 0 0 1-193.264941 0 26.352941 26.352941 0 0 1 52.705882 0 43.911529 43.911529 0 0 0 87.853177 0c0-14.546824 11.776-26.352941 26.352941-26.352941zM783.058824 706.499765c14.546824 0 26.352941 11.806118 26.352941 26.352941a96.617412 96.617412 0 0 1-193.264941 0 26.352941 26.352941 0 0 1 52.705882 0 43.911529 43.911529 0 0 0 87.853176 0c0-14.546824 11.806118-26.352941 26.352942-26.352941z" fill="#568af2" /></svg>