<svg class="icon" style="width: 1em;height: 1em;vertical-align: middle;fill: currentColor;overflow: hidden;" viewBox="0 0 1024 1024" version="1.1" xmlns="http://www.w3.org/2000/svg" width="32" height="32"><path d="M803.147294 124.235294c14.546824 0 26.352941 11.806118 26.352941 26.352941v702.735059a26.352941 26.352941 0 0 1-26.352941 26.352941H240.941176a26.352941 26.352941 0 0 1-26.352941-26.352941V465.468235c0-9.758118 5.391059-18.703059 14.004706-23.280941l91.346824-48.519529V150.588235c0-13.432471 10.089412-24.515765 23.070117-26.142117l3.312942-0.210824h456.82447z m-26.383059 52.705882H372.645647v232.598589a26.352941 26.352941 0 0 1-10.902588 21.353411l-3.072 1.897412-91.376941 48.489412v345.690353h509.470117V176.941176z" fill="#568af2" /><path d="M469.323294 264.794353c14.576941 0 26.352941 11.776 26.352941 26.352941v105.411765a26.352941 26.352941 0 0 1-52.705882 0v-105.411765c0-14.576941 11.806118-26.352941 26.352941-26.352941zM680.146824 264.794353c14.576941 0 26.352941 11.776 26.352941 26.352941v105.411765a26.352941 26.352941 0 0 1-52.705883 0v-105.411765c0-14.576941 11.806118-26.352941 26.352942-26.352941zM574.735059 264.794353c14.576941 0 26.352941 11.776 26.352941 26.352941v105.411765a26.352941 26.352941 0 0 1-52.705882 0v-105.411765c0-14.576941 11.806118-26.352941 26.352941-26.352941z" fill="#568af2" /></svg>