<svg class="icon" style="width: 1em;height: 1em;vertical-align: middle;fill: currentColor;overflow: hidden;" viewBox="0 0 1024 1024" version="1.1" xmlns="http://www.w3.org/2000/svg" width="32" height="32"><path d="M461.793882 335.058824c14.576941 0 26.352941 11.806118 26.352942 26.352941v158.117647a79.058824 79.058824 0 1 1-158.117648 0V361.411765c0-14.546824 11.806118-26.352941 26.352942-26.352941h105.411764z m-26.352941 52.705882h-52.705882v131.764706c0 13.432471 10.059294 24.515765 23.070117 26.142117l3.312942 0.210824a26.352941 26.352941 0 0 0 26.322823-26.352941v-131.764706z" fill="#568af2" /><path d="M409.088 545.882353c14.576941 0 26.352941 11.806118 26.352941 26.352941v175.676235a26.352941 26.352941 0 0 1-26.352941 26.352942h-105.411765a26.352941 26.352941 0 1 1 0-52.705883h79.058824V572.235294c0-13.432471 10.059294-24.515765 23.070117-26.142118l3.312942-0.210823zM461.793882 124.235294c14.576941 0 26.352941 11.806118 26.352942 26.352941v210.82353a26.352941 26.352941 0 0 1-26.352942 26.352941H286.117647c-67.463529 0-131.764706-54.151529-131.764706-131.764706 0-77.974588 57.163294-131.764706 122.970353-131.764706h184.470588z m-26.352941 210.82353v-158.117648h-158.117647c-35.900235 0-67.614118 28.521412-70.113882 73.366589l-0.150588 5.692235c0 46.290824 38.912 79.058824 79.058823 79.058824h149.323294zM751.676235 229.647059c65.837176 0 123.000471 53.790118 123.000471 131.764706 0 77.613176-64.331294 131.764706-131.764706 131.764706h-175.706353a26.352941 26.352941 0 0 1-26.352941-26.352942v-210.823529c0-14.546824 11.806118-26.352941 26.352941-26.352941h184.470588z m-158.117647 210.823529h149.353412c40.146824 0 79.058824-32.768 79.058824-79.058823 0-48.128-32.888471-79.058824-70.294589-79.058824h-158.117647v158.117647z" fill="#568af2" /><path d="M672.617412 440.470588c14.576941 0 26.352941 11.806118 26.352941 26.352941v158.117647a79.058824 79.058824 0 1 1-158.117647 0V466.823529c0-14.546824 11.806118-26.352941 26.352941-26.352941h105.411765z m-26.352941 52.705883h-52.705883v131.764705c0 13.432471 10.059294 24.515765 23.070118 26.142118l3.312941 0.210824a26.352941 26.352941 0 0 0 26.322824-26.352942v-131.764705z" fill="#568af2" /><path d="M619.911529 651.294118c14.576941 0 26.352941 11.806118 26.352942 26.352941v149.323294h79.058823c13.432471 0 24.545882 10.059294 26.172235 23.070118l0.180706 3.312941a26.352941 26.352941 0 0 1-26.352941 26.322823h-105.411765a26.352941 26.352941 0 0 1-26.352941-26.352941V677.647059c0-14.546824 11.806118-26.352941 26.352941-26.352941z" fill="#568af2" /></svg>