<svg class="icon" style="width: 1em;height: 1em;vertical-align: middle;fill: currentColor;overflow: hidden;" viewBox="0 0 1024 1024" version="1.1" xmlns="http://www.w3.org/2000/svg" width="32" height="32"><path d="M296.146824 596.088471a96.617412 96.617412 0 1 1 0 193.234823 96.617412 96.617412 0 0 1 0-193.234823z m0 52.705882a43.911529 43.911529 0 1 0 0 87.823059 43.911529 43.911529 0 0 0 0-87.823059zM700.235294 596.088471a96.617412 96.617412 0 1 1 0 193.234823 96.617412 96.617412 0 0 1 0-193.234823z m0 52.705882a43.911529 43.911529 0 1 0 0 87.823059 43.911529 43.911529 0 0 0 0-87.823059z" fill="#568af2" /><path d="M629.970824 244.705882c14.546824 0 26.352941 11.806118 26.352941 26.352942v421.647058a26.352941 26.352941 0 0 1-26.352941 26.352942h-263.529412a26.352941 26.352941 0 1 1 0-52.705883h237.146353V297.411765H146.823529v368.941176H225.882353c13.432471 0 24.515765 10.059294 26.142118 23.04l0.210823 3.312941a26.352941 26.352941 0 0 1-26.352941 26.352942H120.470588A26.352941 26.352941 0 0 1 94.117647 692.705882V271.058824c0-14.546824 11.806118-26.352941 26.352941-26.352942h509.500236z" fill="#568af2" /><path d="M780.559059 367.676235c8.252235 0 16.022588 3.885176 21.022117 10.480941l112.941177 149.323295a26.352941 26.352941 0 0 1 5.330823 15.902117V692.705882a26.352941 26.352941 0 0 1-26.352941 26.352942h-108.724706a26.352941 26.352941 0 0 1 0-52.705883h82.371765v-114.145882l-99.689412-131.824941h-111.134117V692.705882a26.352941 26.352941 0 0 1-23.070118 26.142118l-3.312941 0.210824a26.352941 26.352941 0 0 1-26.322824-26.352942v-298.676706c0-14.546824 11.776-26.352941 26.352942-26.352941h150.588235z" fill="#568af2" /></svg>