<svg class="icon" style="width: 1em;height: 1em;vertical-align: middle;fill: currentColor;overflow: hidden;" viewBox="0 0 1024 1024" version="1.1" xmlns="http://www.w3.org/2000/svg" width="32" height="32"><path d="M640.602353 207.179294a180.826353 180.826353 0 1 1 0 358.671059L272.594824 518.354824a29.123765 29.123765 0 0 1-25.419295-28.852706V283.527529c0-14.637176 10.872471-27.015529 25.389177-28.882823L640.602353 207.209412z m151.250823 179.320471a128.120471 128.120471 0 0 0-144.534588-127.066353L299.911529 304.278588v164.442353l347.407059 44.875294a128.120471 128.120471 0 0 0 144.384-121.012706l0.150588-6.083764z" fill="#568af2" /><path d="M124.235294 210.823529a26.352941 26.352941 0 0 1 39.454118-22.889411l122.940235 70.294588a26.352941 26.352941 0 0 1-26.142118 45.748706L176.941176 256.210824v260.547764l83.546353-47.706353a26.352941 26.352941 0 0 1 34.153412 7.017412l1.807059 2.770824c7.228235 12.649412 2.831059 28.732235-9.818353 35.96047l-122.970353 70.264471a26.352941 26.352941 0 0 1-39.424-22.889412V210.823529zM723.636706 499.260235l48.579765 20.48-117.609412 279.280941a115.410824 115.410824 0 0 1-106.37553 70.625883c-82.522353 0-138.390588-84.118588-106.345411-160.195765l88.485647-210.191059 48.579764 20.48-88.485647 210.160941a62.704941 62.704941 0 0 0 115.561412 48.670118l117.609412-279.311059z" fill="#568af2" /><path d="M695.205647 202.029176a184.470588 184.470588 0 1 1 0 368.941177 184.470588 184.470588 0 0 1 0-368.941177z m0 52.705883a131.764706 131.764706 0 1 0 0 263.529412 131.764706 131.764706 0 0 0 0-263.529412z" fill="#568af2" /></svg>