<svg class="icon" style="width: 1em;height: 1em;vertical-align: middle;fill: currentColor;overflow: hidden;" viewBox="0 0 1024 1024" version="1.1" xmlns="http://www.w3.org/2000/svg" width="32" height="32"><path d="M577.264941 154.352941c33.942588 0 61.470118 27.527529 61.470118 61.500235v140.528942a26.352941 26.352941 0 1 1-52.705883 0V215.853176a8.794353 8.794353 0 0 0-8.764235-8.794352h-105.411765a8.794353 8.794353 0 0 0-8.794352 8.794352v140.528942a26.352941 26.352941 0 1 1-52.705883 0V215.853176c0-33.972706 27.527529-61.500235 61.500235-61.500235h105.411765zM612.382118 681.411765c14.576941 0 26.352941 11.806118 26.352941 26.352941v140.559059a61.500235 61.500235 0 0 1-61.470118 61.470117h-105.411765a61.500235 61.500235 0 0 1-61.500235-61.470117V707.764706a26.352941 26.352941 0 1 1 52.705883 0v140.559059c0 4.818824 3.915294 8.764235 8.794352 8.764235h105.411765c4.818824 0 8.764235-3.915294 8.764235-8.764235V707.764706c0-14.546824 11.806118-26.352941 26.352942-26.352941z" fill="#568af2" /><path d="M524.559059 312.470588a219.617882 219.617882 0 1 1 0 439.205647 219.617882 219.617882 0 0 1 0-439.205647z m0 52.705883a166.912 166.912 0 1 0 0 333.793882 166.912 166.912 0 0 0 0-333.793882z" fill="#568af2" /><path d="M542.117647 523.294118a26.352941 26.352941 0 1 1 0 52.705882h-70.264471a26.352941 26.352941 0 1 1 0-52.705882H542.117647z" fill="#568af2" /><path d="M542.117647 453.029647c14.546824 0 26.352941 11.776 26.352941 26.352941v70.264471a26.352941 26.352941 0 1 1-52.705882 0v-70.264471c0-14.576941 11.806118-26.352941 26.352941-26.352941z" fill="#568af2" /></svg>