<svg class="icon" style="width: 1em;height: 1em;vertical-align: middle;fill: currentColor;overflow: hidden;" viewBox="0 0 1024 1024" version="1.1" xmlns="http://www.w3.org/2000/svg" width="32" height="32"><path d="M818.206118 294.912c33.942588 0 61.470118 27.527529 61.470117 61.470118v281.118117a61.500235 61.500235 0 0 1-61.470117 61.470118h-175.706353a26.352941 26.352941 0 0 1 0-52.705882h175.706353c4.818824 0 8.764235-3.915294 8.764235-8.764236v-281.118117a8.794353 8.794353 0 0 0-8.764235-8.764236h-175.706353a26.352941 26.352941 0 0 1 0-52.705882h175.706353zM361.411765 294.912a26.352941 26.352941 0 1 1 0 52.705882H185.735529a8.794353 8.794353 0 0 0-8.794353 8.764236v281.118117c0 4.818824 3.915294 8.764235 8.794353 8.764236H361.411765a26.352941 26.352941 0 0 1 0 52.705882H185.735529a61.500235 61.500235 0 0 1-61.500235-61.470118v-281.118117c0-33.942588 27.527529-61.470118 61.500235-61.470118H361.411765z" fill="#568af2" /><path d="M712.794353 294.912c14.546824 0 26.352941 11.776 26.352941 26.352941v105.411765a26.352941 26.352941 0 0 1-26.352941 26.352941h-421.647059a26.352941 26.352941 0 0 1-26.352941-26.352941v-105.411765a26.352941 26.352941 0 1 1 52.705882 0v79.058824h368.941177v-79.058824c0-13.432471 10.029176-24.545882 23.04-26.172235l3.312941-0.180706z" fill="#568af2" /><path d="M642.499765 154.352941c14.576941 0 26.352941 11.806118 26.352941 26.352941v140.559059a26.352941 26.352941 0 0 1-52.705882 0V207.058824h-228.382118v114.206117a26.352941 26.352941 0 0 1-23.04 26.142118l-3.312941 0.210823a26.352941 26.352941 0 0 1-26.352941-26.352941V180.705882c0-14.546824 11.806118-26.352941 26.352941-26.352941h281.088zM642.499765 576c14.576941 0 26.352941 11.806118 26.352941 26.352941v245.970824a26.352941 26.352941 0 0 1-26.352941 26.352941H361.411765a26.352941 26.352941 0 0 1-26.352941-26.352941V602.352941a26.352941 26.352941 0 1 1 52.705882 0v219.587765h228.382118V602.352941c0-13.432471 10.059294-24.515765 23.070117-26.142117l3.312941-0.210824z" fill="#568af2" /><path d="M537.088 681.411765a26.352941 26.352941 0 1 1 0 52.705882H466.823529a26.352941 26.352941 0 1 1 0-52.705882h70.264471zM695.205647 540.852706a26.352941 26.352941 0 0 1 0 52.705882H308.705882a26.352941 26.352941 0 1 1 0-52.705882h386.499765z" fill="#568af2" /></svg>