<svg class="icon" style="width: 1em;height: 1em;vertical-align: middle;fill: currentColor;overflow: hidden;" viewBox="0 0 1024 1024" version="1.1" xmlns="http://www.w3.org/2000/svg" width="32" height="32"><path d="M638.373647 184.470588c20.961882 0 41.080471 8.342588 55.898353 23.160471l67.764706 67.764706 84.449882 84.449882c14.817882 14.817882 23.160471 34.936471 23.160471 55.898353V790.588235a79.058824 79.058824 0 0 1-79.058824 79.058824H263.529412a79.058824 79.058824 0 0 1-79.058824-79.058824V263.529412A79.058824 79.058824 0 0 1 263.529412 184.470588h374.844235z m0 52.705883H263.529412a26.352941 26.352941 0 0 0-26.352941 26.352941v527.058823c0 14.546824 11.806118 26.352941 26.352941 26.352941h527.058823a26.352941 26.352941 0 0 0 26.352941-26.352941V415.744a26.352941 26.352941 0 0 0-7.710117-18.642824l-84.419765-84.419764-67.794823-67.764706a26.352941 26.352941 0 0 0-18.642824-7.740235z" fill="#568af2" /><path d="M650.029176 535.853176a79.058824 79.058824 0 0 1 79.058824 79.058824V843.294118a26.352941 26.352941 0 0 1-26.352941 26.352941H351.382588a26.352941 26.352941 0 0 1-26.352941-26.352941v-228.382118a79.058824 79.058824 0 0 1 79.058824-79.058824h245.940705z m0 52.705883h-245.940705a26.352941 26.352941 0 0 0-26.352942 26.352941v202.029176h298.646589v-202.029176a26.352941 26.352941 0 0 0-23.04-26.172235l-3.312942-0.180706zM351.382588 184.470588c14.546824 0 26.352941 11.806118 26.352941 26.352941v122.970353c0 14.576941 11.776 26.352941 26.352942 26.352942h210.823529a26.352941 26.352941 0 0 1 0 52.705882h-210.823529a79.058824 79.058824 0 0 1-79.058824-79.058824V210.823529c0-14.546824 11.776-26.352941 26.352941-26.352941z" fill="#568af2" /></svg>