<svg class="icon" style="width: 1em;height: 1em;vertical-align: middle;fill: currentColor;overflow: hidden;" viewBox="0 0 1024 1024" version="1.1" xmlns="http://www.w3.org/2000/svg" width="32" height="32"><path d="M429.327059 360.146824c245.970824 0 445.349647 199.378824 445.349647 445.349647a29.033412 29.033412 0 0 1-29.033412 29.003294H180.705882a26.352941 26.352941 0 0 1-26.352941-26.352941V399.058824c0-21.473882 17.408-38.851765 38.851765-38.851765h236.122353z m-222.268235 421.647058h614.159058l-0.210823-3.945411c-13.974588-200.884706-179.079529-360.176941-382.403765-364.875295l-9.276235-0.12047h-222.268235v368.941176z" fill="#568af2" /><path d="M532.088471 184.470588a26.352941 26.352941 0 0 1 0 52.705883H207.058824v149.323294a26.352941 26.352941 0 0 1-23.04 26.172235l-3.312942 0.180706a26.352941 26.352941 0 0 1-26.352941-26.352941V210.823529c0-14.546824 11.806118-26.352941 26.352941-26.352941h351.382589zM356.382118 448a96.617412 96.617412 0 1 1 0 193.264941 96.617412 96.617412 0 0 1 0-193.264941z m0 52.705882a43.911529 43.911529 0 1 0 0 87.853177 43.911529 43.911529 0 0 0 0-87.853177zM830.735059 676.382118a26.352941 26.352941 0 0 1 0 52.705882H180.705882a26.352941 26.352941 0 1 1 0-52.705882h650.029177zM580.427294 407.04c48.941176-73.426824 126.313412-123.181176 194.650353-77.583059 68.276706 45.477647 44.212706 139.685647-11.083294 213.413647a26.352941 26.352941 0 0 1-42.164706-31.623529c38.761412-51.681882 55.416471-117.007059 24.033882-137.938824-34.183529-22.799059-87.070118 11.203765-121.584941 62.945883a26.352941 26.352941 0 0 1-43.851294-29.214118z" fill="#568af2" /></svg>