<svg class="icon" style="width: 1em;height: 1em;vertical-align: middle;fill: currentColor;overflow: hidden;" viewBox="0 0 1024 1024" version="1.1" xmlns="http://www.w3.org/2000/svg" width="32" height="32"><path d="M835.764706 328.794353c24.244706 0 43.911529 19.666824 43.911529 43.911529v386.499765c0 24.274824-19.666824 43.941647-43.911529 43.941647h-228.382118a26.352941 26.352941 0 0 1-18.672941-7.740235l-86.648471-86.768941-86.889411 86.799058a26.352941 26.352941 0 0 1-15.149177 7.469177l-3.463529 0.240941H168.146824a43.911529 43.911529 0 0 1-43.91153-43.941647V372.705882c0-24.244706 19.666824-43.911529 43.91153-43.911529H835.764706z m-8.794353 52.705882H176.941176v368.941177h208.655059l97.882353-97.701647a26.352941 26.352941 0 0 1 34.575059-2.319059l2.710588 2.349176 97.520941 97.67153h208.685177v-368.941177z" fill="#568af2" /><path d="M326.264471 469.323294a96.617412 96.617412 0 1 1 0 193.264941 96.617412 96.617412 0 0 1 0-193.264941z m0 52.705882a43.911529 43.911529 0 1 0 0 87.853177 43.911529 43.911529 0 0 0 0-87.853177zM677.647059 469.323294a96.617412 96.617412 0 1 1 0 193.264941 96.617412 96.617412 0 0 1 0-193.264941z m0 52.705882a43.911529 43.911529 0 1 0 0 87.853177 43.911529 43.911529 0 0 0 0-87.853177z" fill="#568af2" /><path d="M818.206118 223.382588a26.352941 26.352941 0 0 1 0 52.705883h-632.470589a26.352941 26.352941 0 0 1 0-52.705883h632.470589z" fill="#568af2" /></svg>