<svg class="icon" style="width: 1em;height: 1em;vertical-align: middle;fill: currentColor;overflow: hidden;" viewBox="0 0 1024 1024" version="1.1" xmlns="http://www.w3.org/2000/svg" width="32" height="32"><path d="M818.206118 648.794353c14.546824 0 26.352941 11.776 26.352941 26.352941v105.411765a26.352941 26.352941 0 0 1-26.352941 26.352941h-105.411765a26.352941 26.352941 0 0 1-26.352941-26.352941v-105.411765c0-14.576941 11.776-26.352941 26.352941-26.352941h105.411765z m-26.352942 52.705882h-52.705882v52.705883h52.705882v-52.705883zM291.147294 648.794353c14.546824 0 26.352941 11.776 26.352941 26.352941v105.411765a26.352941 26.352941 0 0 1-26.352941 26.352941h-105.411765a26.352941 26.352941 0 0 1-26.352941-26.352941v-105.411765c0-14.576941 11.776-26.352941 26.352941-26.352941h105.411765z m-26.352941 52.705882h-52.705882v52.705883h52.705882v-52.705883z" fill="#568af2" /><path d="M501.970824 367.676235a26.352941 26.352941 0 0 1 0 52.705883H176.941176v228.382117h650.029177v-228.382117h-79.058824a26.352941 26.352941 0 0 1-26.142117-23.04l-0.210824-3.312942c0-14.546824 11.806118-26.352941 26.352941-26.352941h105.411765c14.576941 0 26.352941 11.806118 26.352941 26.352941v281.118118a26.352941 26.352941 0 0 1-26.352941 26.352941H150.588235a26.352941 26.352941 0 0 1-26.352941-26.352941v-281.118118c0-14.546824 11.806118-26.352941 26.352941-26.352941h351.382589z" fill="#568af2" /><path d="M396.559059 508.235294a26.352941 26.352941 0 0 1 0 52.705882H256a26.352941 26.352941 0 1 1 0-52.705882h140.559059zM624.941176 244.705882a149.323294 149.323294 0 1 1 0 298.676706 149.323294 149.323294 0 0 1 0-298.676706z m0 52.705883a96.617412 96.617412 0 1 0 0 193.264941 96.617412 96.617412 0 0 0 0-193.264941z" fill="#568af2" /><path d="M624.941176 446.735059a52.705882 52.705882 0 1 0 0-105.411765 52.705882 52.705882 0 0 0 0 105.411765z" fill="#568af2" /></svg>