<svg class="icon" style="width: 1em;height: 1em;vertical-align: middle;fill: currentColor;overflow: hidden;" viewBox="0 0 1024 1024" version="1.1" xmlns="http://www.w3.org/2000/svg" width="32" height="32"><path d="M501.970824 219.617882a26.352941 26.352941 0 0 1 0 52.705883H273.558588a26.352941 26.352941 0 0 0-26.352941 26.352941v342.588235h509.470118l0.030117-61.500235c0-13.432471 10.059294-24.515765 23.04-26.142118l3.312942-0.210823c14.546824 0 26.352941 11.806118 26.352941 26.352941v87.853176a26.352941 26.352941 0 0 1-26.352941 26.352942H220.852706a26.352941 26.352941 0 0 1-26.352941-26.352942V298.676706a79.058824 79.058824 0 0 1 79.058823-79.058824h228.412236z" fill="#568af2" /><path d="M853.323294 641.264941c14.576941 0 26.352941 11.776 26.352941 26.352941v35.117177a131.764706 131.764706 0 0 1-131.764706 131.764706H256a131.764706 131.764706 0 0 1-131.764706-131.764706v-35.117177c0-14.576941 11.806118-26.352941 26.352941-26.352941h702.735059z m-26.352941 52.705883H176.941176v8.764235a79.058824 79.058824 0 0 0 74.059295 78.908235l4.999529 0.150588h491.911529a79.058824 79.058824 0 0 0 79.058824-79.058823v-8.764235zM765.500235 289.882353a79.058824 79.058824 0 0 1 79.058824 79.058823v35.147295a79.058824 79.058824 0 0 1-79.058824 79.058823h-105.411764a79.058824 79.058824 0 0 1-79.058824-79.058823V368.941176a79.058824 79.058824 0 0 1 79.058824-79.058823h105.411764z m0 52.705882h-105.411764a26.352941 26.352941 0 0 0-26.352942 26.352941v35.147295c0 14.546824 11.776 26.352941 26.352942 26.352941h105.411764a26.352941 26.352941 0 0 0 26.352941-26.352941V368.941176a26.352941 26.352941 0 0 0-26.352941-26.352941z" fill="#568af2" /><path d="M712.794353 184.470588a79.058824 79.058824 0 0 1 79.058823 79.058824v52.705882a26.352941 26.352941 0 0 1-26.352941 26.352941h-105.411764a26.352941 26.352941 0 0 1-26.352942-26.352941V263.529412a79.058824 79.058824 0 0 1 79.058824-79.058824z m0 52.705883a26.352941 26.352941 0 0 0-26.352941 26.352941v26.352941h52.705882V263.529412a26.352941 26.352941 0 0 0-23.070118-26.142118l-3.312941-0.210823z" fill="#568af2" /></svg>