<svg class="icon" style="width: 1em;height: 1em;vertical-align: middle;fill: currentColor;overflow: hidden;" viewBox="0 0 1024 1024" version="1.1" xmlns="http://www.w3.org/2000/svg" width="32" height="32"><path d="M702.433882 124.235294c28.611765 0 51.772235 23.190588 51.772236 51.742118V624.941176a254.735059 254.735059 0 0 1-509.500236 0V175.977412c0-28.581647 23.190588-51.742118 51.742118-51.742118h405.985882z m-0.963764 52.705882H297.411765V624.941176a202.029176 202.029176 0 0 0 194.951529 201.908706l7.077647 0.120471a202.029176 202.029176 0 0 0 202.059294-202.029177L701.44 176.941176z" fill="#568af2" /><path d="M429.176471 335.058824a26.352941 26.352941 0 1 1 0 52.705882H376.470588a26.352941 26.352941 0 1 1 0-52.705882h52.705883zM622.441412 335.058824a26.352941 26.352941 0 0 1 0 52.705882h-52.705883a26.352941 26.352941 0 1 1 0-52.705882h52.705883z" fill="#568af2" /><path d="M376.470588 256m-35.147294 0a35.147294 35.147294 0 1 0 70.294588 0 35.147294 35.147294 0 1 0-70.294588 0Z" fill="#568af2" /><path d="M499.440941 475.617882a149.323294 149.323294 0 1 1 0 298.646589 149.323294 149.323294 0 0 1 0-298.646589z m0 52.705883a96.617412 96.617412 0 1 0 0 193.234823 96.617412 96.617412 0 0 0 0-193.234823z" fill="#568af2" /></svg>