<svg class="icon" style="width: 1em;height: 1em;vertical-align: middle;fill: currentColor;overflow: hidden;" viewBox="0 0 1024 1024" version="1.1" xmlns="http://www.w3.org/2000/svg" width="32" height="32"><path d="M154.352941 306.206118c0-33.972706 27.527529-61.500235 61.500235-61.500236H813.176471c33.972706 0 61.500235 27.527529 61.500235 61.500236v351.35247A61.500235 61.500235 0 0 1 813.176471 719.058824H215.853176a61.500235 61.500235 0 0 1-61.500235-61.500236V306.206118z m52.705883 0v351.35247c0 4.848941 3.915294 8.794353 8.794352 8.794353H813.176471c4.848941 0 8.794353-3.915294 8.794353-8.794353V306.206118A8.794353 8.794353 0 0 0 813.176471 297.411765H215.853176a8.794353 8.794353 0 0 0-8.794352 8.794353z" fill="#568af2" /><path d="M514.499765 402.823529a26.352941 26.352941 0 1 1 0 52.705883H444.235294a26.352941 26.352941 0 1 1 0-52.705883h70.264471zM707.764706 508.235294a26.352941 26.352941 0 1 1 0 52.705882H321.264941a26.352941 26.352941 0 1 1 0-52.705882H707.764706zM303.676235 666.352941c14.576941 0 26.352941 11.806118 26.352941 26.352941v70.264471a26.352941 26.352941 0 1 1-52.705882 0V692.705882c0-14.546824 11.806118-26.352941 26.352941-26.352941zM444.235294 666.352941c14.546824 0 26.352941 11.806118 26.352941 26.352941v70.264471a26.352941 26.352941 0 1 1-52.705882 0V692.705882c0-14.546824 11.806118-26.352941 26.352941-26.352941zM584.794353 666.352941c14.546824 0 26.352941 11.806118 26.352941 26.352941v70.264471a26.352941 26.352941 0 0 1-52.705882 0V692.705882c0-14.546824 11.776-26.352941 26.352941-26.352941zM725.323294 666.352941c14.576941 0 26.352941 11.806118 26.352941 26.352941v70.264471a26.352941 26.352941 0 1 1-52.705882 0V692.705882c0-14.546824 11.806118-26.352941 26.352941-26.352941zM356.382118 429.176471a35.147294 35.147294 0 1 1-70.264471 0 35.147294 35.147294 0 0 1 70.264471 0z" fill="#568af2" /></svg>