<svg class="icon" style="width: 1em;height: 1em;vertical-align: middle;fill: currentColor;overflow: hidden;" viewBox="0 0 1024 1024" version="1.1" xmlns="http://www.w3.org/2000/svg" width="32" height="32"><path d="M853.323294 576.030118c14.576941 0 26.352941 11.776 26.352941 26.352941v228.382117a26.352941 26.352941 0 0 1-26.352941 26.352942H150.588235a26.352941 26.352941 0 0 1-26.352941-26.352942V602.352941c0-14.576941 11.806118-26.352941 26.352941-26.352941h702.735059z m-26.352941 52.705882H176.941176v175.676235h650.029177v-175.676235z" fill="#568af2" /><path d="M704 760.470588a43.911529 43.911529 0 1 0 0-87.823059 43.911529 43.911529 0 0 0 0 87.853177zM765.861647 154.352941c12.468706 0 23.250824 8.764235 25.780706 20.992l87.491765 421.647059-51.59153 10.721882-83.154823-400.655058H260.487529L176.368941 607.774118l-51.561412-10.842353 88.515765-421.647059a26.352941 26.352941 0 0 1 25.780706-20.931765h526.757647z" fill="#568af2" /></svg>