<svg class="icon" style="width: 1em;height: 1em;vertical-align: middle;fill: currentColor;overflow: hidden;" viewBox="0 0 1024 1024" version="1.1" xmlns="http://www.w3.org/2000/svg" width="32" height="32"><path d="M317.500235 667.617882a43.911529 43.911529 0 1 0 0-87.853176 43.911529 43.911529 0 0 0 0 87.853176zM686.441412 667.617882a43.911529 43.911529 0 1 0 0-87.853176 43.911529 43.911529 0 0 0 0 87.853176z" fill="#568af2" /><path d="M675.779765 184.470588a96.617412 96.617412 0 0 1 94.32847 75.565177l35.960471 161.219764 0.783059 0.39153a131.764706 131.764706 0 0 1 72.673882 111.375059l0.150588 6.475294v163.237647a79.058824 79.058824 0 0 1-79.058823 79.058823h-9.155765l-0.180706 2.108236a96.677647 96.677647 0 0 1-90.563765 85.594353l-5.481411 0.150588a96.677647 96.677647 0 0 1-96.045177-85.744941l-0.180706-2.108236h-194.108235l-0.180706 2.108236a96.647529 96.647529 0 0 1-90.533647 85.594353l-5.481412 0.150588a96.647529 96.647529 0 0 1-96.015058-85.744941l-0.180706-2.108236H203.294118A79.058824 79.058824 0 0 1 124.385882 707.764706l-0.150588-4.99953v-163.207529c0-49.935059 28.220235-95.563294 72.884706-117.880471l0.873412-0.451764 37.797647-162.032941a96.617412 96.617412 0 0 1 88.545882-74.541177l5.541647-0.150588h345.901177z m0 52.705883H329.908706c-20.419765 0-38.159059 14.064941-42.767059 33.942588l-40.598588 174.08a26.352941 26.352941 0 0 1-13.884235 17.618823l-11.986824 5.993412a79.058824 79.058824 0 0 0-43.730824 70.716235v163.237647c0 14.546824 11.806118 26.322824 26.352942 26.322824h35.147294c14.546824 0 26.352941 11.806118 26.352941 26.352941v17.588706a43.911529 43.911529 0 0 0 87.823059 0v-17.588706c0-14.546824 11.806118-26.352941 26.352941-26.352941h245.970823c14.546824 0 26.352941 11.806118 26.352942 26.352941v17.588706a43.971765 43.971765 0 0 0 87.883294 0v-17.588706c0-14.546824 11.806118-26.352941 26.352941-26.352941h35.087059a26.352941 26.352941 0 0 0 26.352941-26.352941v-163.237647c0-29.936941-16.896-57.313882-43.670588-70.716236l-11.956706-5.963294a26.352941 26.352941 0 0 1-13.944471-17.829647l-38.731294-173.477647a43.911529 43.911529 0 0 0-42.887529-34.334117z" fill="#568af2" /><path d="M614.309647 307.440941c28.822588 0 53.790118 20.028235 60.024471 48.188235l29.033411 130.590118a26.352941 26.352941 0 0 1-25.72047 32.045177H326.264471a26.352941 26.352941 0 0 1-25.720471-32.045177l29.033412-130.620235a61.500235 61.500235 0 0 1 60.02447-48.158118h224.707765z m0 52.705883h-224.707765a8.794353 8.794353 0 0 0-8.583529 6.896941l-21.925647 98.514823h285.665882l-21.865412-98.514823a8.794353 8.794353 0 0 0-6.565647-6.656l-2.017882-0.240941z" fill="#568af2" /></svg>