<svg class="icon" style="width: 1em;height: 1em;vertical-align: middle;fill: currentColor;overflow: hidden;" viewBox="0 0 1024 1024" version="1.1" xmlns="http://www.w3.org/2000/svg" width="32" height="32"><path d="M768 154.352941c14.546824 0 26.352941 11.806118 26.352941 26.352941v38.580706c0 116.736-54.964706 226.635294-148.359529 296.658824l7.80047-6.02353v373.519059a26.352941 26.352941 0 0 1-23.04 26.172235l-3.312941 0.180706h-245.940706a26.352941 26.352941 0 0 1-26.352941-26.352941l-0.030118-373.519059-0.602352-0.451764A370.838588 370.838588 0 0 1 214.738824 229.888l-0.150589-10.601412V180.705882c0-14.546824 11.806118-26.352941 26.352941-26.352941h527.058824z m-26.352941 52.705883H267.294118v12.227764c0 96.798118 44.062118 188.144941 119.326117 248.380236l7.920941 6.113882c8.372706 6.264471 13.312 16.143059 13.312 26.593882l-0.030117 356.713412h193.264941V500.374588c0-9.155765 3.794824-17.829647 10.330353-24.094117l2.981647-2.499765a318.132706 318.132706 0 0 0 127.247059-254.494118v-12.227764z" fill="#568af2" /><path d="M750.441412 277.323294a26.352941 26.352941 0 0 1 0 52.705882H258.499765a26.352941 26.352941 0 1 1 0-52.705882h491.941647zM504.470588 576.150588c14.546824 0 26.352941 11.806118 26.352941 26.352941v70.264471a26.352941 26.352941 0 1 1-52.705882 0v-70.264471c0-14.546824 11.806118-26.352941 26.352941-26.352941z" fill="#568af2" /><path d="M240.941176 154.352941c14.546824 0 26.352941 11.806118 26.352942 26.352941v35.147294c0 102.279529 48.188235 198.625882 130.017882 260.005648a26.352941 26.352941 0 1 1-31.623529 42.164705A377.735529 377.735529 0 0 1 214.588235 215.853176V180.705882c0-14.546824 11.806118-26.352941 26.352941-26.352941zM768 154.352941c14.546824 0 26.352941 11.806118 26.352941 26.352941v35.147294c0 118.874353-55.988706 230.821647-151.100235 302.170353a26.352941 26.352941 0 1 1-31.62353-42.164705 325.029647 325.029647 0 0 0 130.017883-260.005648V180.705882c0-14.546824 11.806118-26.352941 26.352941-26.352941z" fill="#568af2" /></svg>