<svg class="icon" style="width: 1em;height: 1em;vertical-align: middle;fill: currentColor;overflow: hidden;" viewBox="0 0 1024 1024" version="1.1" xmlns="http://www.w3.org/2000/svg" width="32" height="32"><path d="M527.058824 154.352941a26.352941 26.352941 0 1 1 0 52.705883H263.529412a26.352941 26.352941 0 0 0-26.352941 26.352941v386.499764c0 14.576941 11.806118 26.352941 26.352941 26.352942h527.058823a26.352941 26.352941 0 0 0 26.352941-26.352942V549.647059a26.352941 26.352941 0 1 1 52.705883 0v70.26447a79.058824 79.058824 0 0 1-79.058824 79.058824H263.529412a79.058824 79.058824 0 0 1-79.058824-79.058824V233.411765A79.058824 79.058824 0 0 1 263.529412 154.352941h263.529412z" fill="#568af2" /><path d="M527.058824 646.264471c14.546824 0 26.352941 11.806118 26.352941 26.352941V813.176471a26.352941 26.352941 0 1 1-52.705883 0v-140.559059c0-14.546824 11.806118-26.352941 26.352942-26.352941zM790.588235 259.764706a79.058824 79.058824 0 0 1 79.058824 79.058823v35.147295a79.058824 79.058824 0 0 1-79.058824 79.058823h-105.411764a79.058824 79.058824 0 0 1-79.058824-79.058823V338.823529a79.058824 79.058824 0 0 1 79.058824-79.058823h105.411764z m0 52.705882h-105.411764a26.352941 26.352941 0 0 0-26.352942 26.352941v35.147295c0 14.546824 11.806118 26.352941 26.352942 26.352941h105.411764a26.352941 26.352941 0 0 0 26.352941-26.352941V338.823529a26.352941 26.352941 0 0 0-26.352941-26.352941z" fill="#568af2" /><path d="M737.882353 154.352941a79.058824 79.058824 0 0 1 79.058823 79.058824V286.117647a26.352941 26.352941 0 0 1-26.352941 26.352941h-105.411764a26.352941 26.352941 0 0 1-26.352942-26.352941V233.411765A79.058824 79.058824 0 0 1 737.882353 154.352941z m0 52.705883a26.352941 26.352941 0 0 0-26.352941 26.352941v26.352941h52.705882V233.411765a26.352941 26.352941 0 0 0-23.04-26.142118l-3.312941-0.210823zM702.735059 786.823529a26.352941 26.352941 0 1 1 0 52.705883H351.382588a26.352941 26.352941 0 1 1 0-52.705883h351.352471z" fill="#568af2" /></svg>