<svg class="icon" style="width: 1em;height: 1em;vertical-align: middle;fill: currentColor;overflow: hidden;" viewBox="0 0 1024 1024" version="1.1" xmlns="http://www.w3.org/2000/svg" width="32" height="32"><path d="M501.970824 124.235294A131.764706 131.764706 0 0 1 633.735529 256v491.911529a131.764706 131.764706 0 0 1-263.529411 0V256a131.764706 131.764706 0 0 1 131.764706-131.764706z m0 52.705882A79.058824 79.058824 0 0 0 422.912 256v491.911529a79.058824 79.058824 0 0 0 158.117647 0V256a79.058824 79.058824 0 0 0-79.058823-79.058824z" fill="#568af2" /><path d="M581.029647 238.441412c0-23.491765 28.370824-35.237647 44.965647-18.672941l226.635294 226.665411a96.617412 96.617412 0 1 1-136.643764 136.643765l-127.247059-127.247059a26.352941 26.352941 0 0 1-7.710118-18.642823v-198.776471z m52.705882 63.548235v124.295529l119.506824 119.506824a43.941647 43.941647 0 0 0 58.789647 3.011765l3.312941-3.011765c17.167059-17.136941 17.167059-44.935529 0-62.102588l-181.609412-181.669647zM152.545882 416.075294a96.617412 96.617412 0 0 1 136.643765 0l127.247059 127.247059a26.352941 26.352941 0 0 1 7.710118 18.612706v198.77647c0 23.491765-28.370824 35.237647-44.995765 18.642824l-226.605177-226.635294a96.617412 96.617412 0 0 1 0-136.643765z m99.388236 37.25553a43.911529 43.911529 0 0 0-62.132706 62.132705l181.639529 181.63953V572.837647l-119.506823-119.506823zM501.970824 229.647059c14.546824 0 26.352941 11.806118 26.352941 26.352941v17.558588a26.352941 26.352941 0 1 1-52.705883 0V256c0-14.546824 11.776-26.352941 26.352942-26.352941zM501.970824 704c14.546824 0 26.352941 11.806118 26.352941 26.352941v17.558588a26.352941 26.352941 0 1 1-52.705883 0v-17.558588c0-14.546824 11.776-26.352941 26.352942-26.352941z" fill="#568af2" /></svg>