<svg class="icon" style="width: 1em;height: 1em;vertical-align: middle;fill: currentColor;overflow: hidden;" viewBox="0 0 1024 1024" version="1.1" xmlns="http://www.w3.org/2000/svg" width="32" height="32"><path d="M737.882353 184.470588c33.972706 0 61.500235 27.527529 61.500235 61.500236v210.823529a26.352941 26.352941 0 0 1-52.705882 0v-210.823529a8.794353 8.794353 0 0 0-8.794353-8.794353h-421.647059a8.794353 8.794353 0 0 0-8.794353 8.794353v210.823529a26.352941 26.352941 0 0 1-52.705882 0v-210.823529c0-33.972706 27.527529-61.500235 61.500235-61.500236h421.647059z" fill="#568af2" /><path d="M808.146824 430.441412c33.972706 0 61.500235 27.527529 61.500235 61.470117v316.235295a61.500235 61.500235 0 0 1-61.500235 61.500235H245.970824a61.500235 61.500235 0 0 1-61.500236-61.500235v-316.235295c0-33.942588 27.527529-61.470118 61.500236-61.470117h562.176z m0 52.705882H245.970824a8.794353 8.794353 0 0 0-8.794353 8.764235v316.235295c0 4.848941 3.915294 8.794353 8.794353 8.794352h562.176c4.848941 0 8.794353-3.915294 8.794352-8.794352v-316.235295a8.794353 8.794353 0 0 0-8.794352-8.764235z" fill="#568af2" /><path d="M720.323765 676.382118c14.546824 0 26.352941 11.806118 26.352941 26.352941V843.294118a26.352941 26.352941 0 0 1-26.352941 26.352941h-263.529412a26.352941 26.352941 0 0 1-26.352941-26.352941v-140.559059c0-14.546824 11.776-26.352941 26.352941-26.352941h263.529412z m-26.352941 52.705882h-210.82353v87.823059h210.82353v-87.823059zM368.941176 535.853176a26.352941 26.352941 0 1 1 0 52.705883H316.235294a26.352941 26.352941 0 0 1 0-52.705883h52.705882z" fill="#568af2" /></svg>