<svg class="icon" style="width: 1em;height: 1em;vertical-align: middle;fill: currentColor;overflow: hidden;" viewBox="0 0 1024 1024" version="1.1" xmlns="http://www.w3.org/2000/svg" width="32" height="32"><path d="M517.029647 154.352941a272.323765 272.323765 0 1 1 0 544.617412 272.323765 272.323765 0 0 1 0-544.617412z m0 52.705883a219.617882 219.617882 0 1 0 0 439.205647 219.617882 219.617882 0 0 0 0-439.205647z" fill="#568af2" /><path d="M517.029647 294.912a131.764706 131.764706 0 1 1 0 263.529412 131.764706 131.764706 0 0 1 0-263.529412z m0 52.705882a79.058824 79.058824 0 1 0 0 158.117647 79.058824 79.058824 0 0 0 0-158.117647zM628.224 613.918118a26.352941 26.352941 0 0 1 35.358118 11.776l105.411764 210.823529a26.352941 26.352941 0 0 1-23.582117 38.159059H288.617412a26.352941 26.352941 0 0 1-23.552-38.159059l105.411764-210.823529a26.352941 26.352941 0 1 1 47.134118 23.582117l-86.377412 172.694589h371.531294l-86.347294-172.694589a26.352941 26.352941 0 0 1 8.944942-33.701647l2.861176-1.65647z" fill="#568af2" /></svg>