<svg class="icon" style="width: 1em;height: 1em;vertical-align: middle;fill: currentColor;overflow: hidden;" viewBox="0 0 1024 1024" version="1.1" xmlns="http://www.w3.org/2000/svg" width="32" height="32"><path d="M664.485647 335.058824c298.646588 0 298.646588 368.941176 0 368.941176h-316.235294c-134.776471 0-224.015059-80.323765-224.015059-184.470588s89.238588-184.470588 224.015059-184.470588h316.235294z m0 52.705882h-316.235294c-106.827294 0-171.309176 58.036706-171.309177 131.764706s64.481882 131.764706 171.309177 131.764706h316.235294c228.382118 0 228.382118-263.529412 0-263.529412z" fill="#568af2" /><path d="M453.662118 440.470588c14.546824 0 26.352941 11.806118 26.352941 26.352941V572.235294a26.352941 26.352941 0 1 1-52.705883 0v-105.411765c0-14.546824 11.776-26.352941 26.352942-26.352941zM559.073882 440.470588c14.546824 0 26.352941 11.806118 26.352942 26.352941V572.235294a26.352941 26.352941 0 1 1-52.705883 0v-105.411765c0-14.546824 11.776-26.352941 26.352941-26.352941zM664.485647 440.470588c14.546824 0 26.352941 11.806118 26.352941 26.352941V572.235294a26.352941 26.352941 0 1 1-52.705882 0v-105.411765c0-14.546824 11.776-26.352941 26.352941-26.352941zM348.250353 440.470588c14.546824 0 26.352941 11.806118 26.352941 26.352941V572.235294a26.352941 26.352941 0 1 1-52.705882 0v-105.411765c0-14.546824 11.776-26.352941 26.352941-26.352941z" fill="#568af2" /><path d="M717.191529 493.176471a26.352941 26.352941 0 1 1 0 52.705882h-421.647058a26.352941 26.352941 0 1 1 0-52.705882h421.647058z" fill="#568af2" /></svg>