<svg class="icon" style="width: 1em;height: 1em;vertical-align: middle;fill: currentColor;overflow: hidden;" viewBox="0 0 1024 1024" version="1.1" xmlns="http://www.w3.org/2000/svg" width="32" height="32"><path d="M851.787294 193.264941a26.352941 26.352941 0 1 1 0 52.705883H184.199529a26.352941 26.352941 0 0 1 0-52.705883h667.587765z" fill="#568af2" /><path d="M500.434824 193.264941c14.546824 0 26.352941 11.776 26.352941 26.352941v298.646589a26.352941 26.352941 0 1 1-52.705883 0V219.617882c0-14.576941 11.806118-26.352941 26.352942-26.352941z" fill="#568af2" /><path d="M218.925176 451.373176a26.352941 26.352941 0 0 1 32.256-18.642823l560.00753 150.046118a26.352941 26.352941 0 0 1 15.179294 39.996235l-29.575529 44.634353-71.378824 128.391529-30.599529 46.381177a26.352941 26.352941 0 0 1-28.792471 10.902588l-492.122353-131.855059a26.352941 26.352941 0 0 1-18.672941-32.286118l63.698823-237.568z m44.062118 39.062589l-50.025412 186.669176 448.361412 120.169412 19.094588-28.792471 71.378824-128.391529 10.420706-15.872-499.230118-133.782588z" fill="#568af2" /><path d="M748.303059 647.770353a26.352941 26.352941 0 0 1 32.286117-18.612706l67.885177 18.191059a26.352941 26.352941 0 0 1 18.612706 32.256l-36.352 135.770353a26.352941 26.352941 0 0 1-32.286118 18.642823l-101.797647-27.286588a26.352941 26.352941 0 1 1 13.613177-50.898823l76.378353 20.419764 22.708705-84.841411-42.405647-11.354353a26.352941 26.352941 0 0 1-19.275294-29.033412l0.632471-3.252706z" fill="#568af2" /></svg>