<svg class="icon" style="width: 1em;height: 1em;vertical-align: middle;fill: currentColor;overflow: hidden;" viewBox="0 0 1024 1024" version="1.1" xmlns="http://www.w3.org/2000/svg" width="32" height="32"><path d="M156.551529 368.007529a285.244235 285.244235 0 0 1 521.728 36.321883l1.626353 4.818823h21.142589c82.311529-0.060235 153.6 43.459765 179.922823 115.440941l2.409412 7.04753a188.175059 188.175059 0 0 1-71.137882 210.763294 26.352941 26.352941 0 1 1-30.328471-43.098353 135.469176 135.469176 0 0 0 51.2-151.732706c-16.715294-52.766118-68.758588-85.744941-132.065882-85.714823h-40.779295c-12.047059 0-22.528-8.131765-25.509647-19.787294a232.568471 232.568471 0 1 0-399.420235 211.907764 26.352941 26.352941 0 0 1-39.454118 34.936471 285.274353 285.274353 0 0 1-39.333647-320.90353z" fill="#568af2" /><path d="M682.556235 671.382588c14.546824 0 26.352941 11.776 26.352941 26.352941v105.411765a26.352941 26.352941 0 0 1-26.352941 26.352941H331.203765a26.352941 26.352941 0 0 1-26.352941-26.352941v-105.411765c0-14.576941 11.776-26.352941 26.352941-26.352941h351.35247z m-26.352941 52.705883h-298.646588v52.705882h298.646588v-52.705882zM682.556235 548.382118a26.352941 26.352941 0 1 1 0 52.705882h-210.823529a26.352941 26.352941 0 0 1 0-52.705882h210.823529zM366.320941 548.382118a26.352941 26.352941 0 1 1 0 52.705882h-35.117176a26.352941 26.352941 0 0 1 0-52.705882h35.117176z" fill="#568af2" /></svg>