<svg class="icon" style="width: 1em;height: 1em;vertical-align: middle;fill: currentColor;overflow: hidden;" viewBox="0 0 1024 1024" version="1.1" xmlns="http://www.w3.org/2000/svg" width="32" height="32"><path d="M790.588235 184.470588a79.058824 79.058824 0 0 1 79.058824 79.058824v527.058823a79.058824 79.058824 0 0 1-79.058824 79.058824H263.529412a79.058824 79.058824 0 0 1-79.058824-79.058824V263.529412A79.058824 79.058824 0 0 1 263.529412 184.470588h527.058823z m0 52.705883H263.529412a26.352941 26.352941 0 0 0-26.352941 26.352941v527.058823c0 14.546824 11.806118 26.352941 26.352941 26.352941h527.058823a26.352941 26.352941 0 0 0 26.352941-26.352941V263.529412a26.352941 26.352941 0 0 0-26.352941-26.352941z" fill="#568af2" /><path d="M702.735059 360.146824a26.352941 26.352941 0 0 1 0 52.705882h-114.176v52.705882l0.662588-0.210823c13.552941-4.517647 27.888941-7.469176 42.917647-8.312471l9.125647-0.240941c62.042353 0 87.823059 45.628235 87.823059 122.970353 0 72.432941-37.255529 114.206118-104.417882 114.206118-56.982588 0-88.847059-36.171294-88.847059-85.443765a26.352941 26.352941 0 1 1 52.705882 0c0 21.564235 9.848471 32.737882 36.141177 32.737882 36.623059 0 51.712-16.926118 51.712-61.500235 0-52.103529-10.270118-70.264471-35.117177-70.264471-16.504471 0-32.135529 3.794824-46.320941 10.149647-8.372706 3.734588-14.155294 7.348706-16.624941 9.246118a26.352941 26.352941 0 0 1-42.465883-20.841412v-121.554823c0-14.546824 11.776-26.352941 26.352942-26.352941h140.528941zM474.352941 360.146824a26.352941 26.352941 0 0 1 0 52.705882h-96.617412v254.765176a26.352941 26.352941 0 0 1-23.070117 26.142118l-3.312941 0.210824a26.352941 26.352941 0 0 1-26.322824-26.352942v-281.118117c0-14.546824 11.776-26.352941 26.352941-26.352941h122.970353z" fill="#568af2" /><path d="M474.352941 500.705882a26.352941 26.352941 0 1 1 0 52.705883h-122.970353a26.352941 26.352941 0 1 1 0-52.705883h122.970353z" fill="#568af2" /></svg>