<svg class="icon" style="width: 1em;height: 1em;vertical-align: middle;fill: currentColor;overflow: hidden;" viewBox="0 0 1024 1024" version="1.1" xmlns="http://www.w3.org/2000/svg" width="32" height="32"><path d="M818.206118 299.911529c33.942588 0 61.470118 27.527529 61.470117 61.500236v456.794353a61.500235 61.500235 0 0 1-61.470117 61.470117h-632.470589a61.500235 61.500235 0 0 1-61.500235-61.470117V361.411765c0-33.972706 27.527529-61.500235 61.500235-61.500236h632.470589z m0 52.705883h-632.470589a8.794353 8.794353 0 0 0-8.794353 8.794353v456.794353c0 4.818824 3.915294 8.764235 8.794353 8.764235h632.470589c4.818824 0 8.764235-3.915294 8.764235-8.764235V361.411765a8.794353 8.794353 0 0 0-8.764235-8.794353z" fill="#568af2" /><path d="M624.941176 422.912c14.546824 0 26.352941 11.776 26.352942 26.352941v281.088a26.352941 26.352941 0 0 1-26.352942 26.352941H273.558588a26.352941 26.352941 0 0 1-26.352941-26.352941v-281.088c0-14.576941 11.806118-26.352941 26.352941-26.352941H624.941176z m-26.383058 52.705882H299.911529v228.382118h298.646589v-228.382118zM659.847529 131.162353a26.352941 26.352941 0 0 1 35.599059 38.851765l-191.638588 175.676235a26.352941 26.352941 0 0 1-34.575059 0.903529l-159.744-131.764706a26.352941 26.352941 0 1 1 33.551059-40.658823l142.004706 117.187765 174.802823-160.195765zM747.911529 405.323294c14.576941 0 26.352941 11.806118 26.352942 26.352941v17.588706a26.352941 26.352941 0 0 1-52.705883 0v-17.588706c0-14.546824 11.806118-26.352941 26.352941-26.352941zM747.911529 528.323765c14.576941 0 26.352941 11.776 26.352942 26.352941V572.235294a26.352941 26.352941 0 1 1-52.705883 0v-17.558588c0-14.576941 11.806118-26.352941 26.352941-26.352941z" fill="#568af2" /></svg>