<svg class="icon" style="width: 1em;height: 1em;vertical-align: middle;fill: currentColor;overflow: hidden;" viewBox="0 0 1024 1024" version="1.1" xmlns="http://www.w3.org/2000/svg" width="32" height="32"><path d="M732.852706 154.352941c33.972706 0 61.500235 27.527529 61.500235 61.500235V813.176471a61.500235 61.500235 0 0 1-61.500235 61.500235H276.088471A61.500235 61.500235 0 0 1 214.588235 813.176471V215.853176c0-33.972706 27.527529-61.500235 61.500236-61.500235h456.764235z m0 52.705883H276.088471a8.794353 8.794353 0 0 0-8.794353 8.794352V813.176471c0 4.848941 3.915294 8.794353 8.794353 8.794353h456.764235c4.848941 0 8.794353-3.915294 8.794353-8.794353V215.853176a8.794353 8.794353 0 0 0-8.794353-8.794352z" fill="#568af2" /><path d="M539.617882 698.970353a26.352941 26.352941 0 0 1 0 52.705882h-70.294588a26.352941 26.352941 0 0 1 0-52.705882h70.294588z" fill="#568af2" /></svg>