<svg class="icon" style="width: 1em;height: 1em;vertical-align: middle;fill: currentColor;overflow: hidden;" viewBox="0 0 1024 1024" version="1.1" xmlns="http://www.w3.org/2000/svg" width="32" height="32"><path d="M808.146824 214.588235c33.972706 0 61.500235 27.527529 61.500235 61.500236V768a61.500235 61.500235 0 0 1-61.500235 61.500235H245.970824A61.500235 61.500235 0 0 1 184.470588 768V436.043294c0-12.137412 3.614118-24.003765 10.330353-34.093176l106.616471-159.984942a61.500235 61.500235 0 0 1 51.2-27.376941h455.529412z m0 52.705883H352.617412a8.794353 8.794353 0 0 0-7.318588 3.915294l-106.646589 159.984941a8.794353 8.794353 0 0 0-1.475764 4.848941V768c0 4.848941 3.915294 8.794353 8.794353 8.794353h562.176c4.848941 0 8.794353-3.915294 8.794352-8.794353V276.088471a8.794353 8.794353 0 0 0-8.794352-8.794353z" fill="#568af2" /><path d="M421.647059 214.588235c14.546824 0 26.352941 11.806118 26.352941 26.352941v140.559059a26.352941 26.352941 0 0 1-52.705882 0V240.941176c0-14.546824 11.806118-26.352941 26.352941-26.352941zM527.058824 214.588235c14.546824 0 26.352941 11.806118 26.352941 26.352941v140.559059a26.352941 26.352941 0 0 1-52.705883 0V240.941176c0-14.546824 11.806118-26.352941 26.352942-26.352941zM632.470588 214.588235c14.546824 0 26.352941 11.806118 26.352941 26.352941v140.559059a26.352941 26.352941 0 0 1-52.705882 0V240.941176c0-14.546824 11.806118-26.352941 26.352941-26.352941zM737.882353 214.588235c14.546824 0 26.352941 11.806118 26.352941 26.352941v140.559059a26.352941 26.352941 0 0 1-52.705882 0V240.941176c0-14.546824 11.806118-26.352941 26.352941-26.352941zM685.176471 565.970824c14.546824 0 26.352941 11.776 26.352941 26.352941v210.823529a26.352941 26.352941 0 0 1-26.352941 26.352941h-316.235295a26.352941 26.352941 0 0 1-26.352941-26.352941v-210.823529c0-14.576941 11.806118-26.352941 26.352941-26.352941h316.235295z m-26.352942 52.705882h-263.529411v158.117647h263.529411v-158.117647z" fill="#568af2" /></svg>