<svg class="icon" style="width: 1em;height: 1em;vertical-align: middle;fill: currentColor;overflow: hidden;" viewBox="0 0 1024 1024" version="1.1" xmlns="http://www.w3.org/2000/svg" width="32" height="32"><path d="M853.323294 124.235294c14.576941 0 26.352941 11.806118 26.352941 26.352941v281.088a26.352941 26.352941 0 0 1-26.352941 26.352941H150.588235a26.352941 26.352941 0 0 1-26.352941-26.352941V150.588235c0-14.546824 11.806118-26.352941 26.352941-26.352941h702.735059z m-26.352941 52.705882H176.941176v228.382118h650.029177V176.941176zM853.323294 545.882353c14.576941 0 26.352941 11.806118 26.352941 26.352941v281.088a26.352941 26.352941 0 0 1-26.352941 26.352941H150.588235a26.352941 26.352941 0 0 1-26.352941-26.352941V572.235294c0-14.546824 11.806118-26.352941 26.352941-26.352941h702.735059z m-26.352941 52.705882H176.941176v228.382118h650.029177v-228.382118z" fill="#568af2" /><path d="M308.705882 256H273.558588a17.558588 17.558588 0 0 0-17.558588 17.558588v35.147294c0 9.697882 7.860706 17.558588 17.558588 17.558589h35.147294a17.558588 17.558588 0 0 0 17.558589-17.558589V273.558588a17.558588 17.558588 0 0 0-17.558589-17.558588zM308.705882 677.647059H273.558588a17.558588 17.558588 0 0 0-17.558588 17.558588v35.147294c0 9.697882 7.860706 17.558588 17.558588 17.558588h35.147294a17.558588 17.558588 0 0 0 17.558589-17.558588v-35.147294a17.558588 17.558588 0 0 0-17.558589-17.558588zM449.264941 256H414.117647a17.558588 17.558588 0 0 0-17.558588 17.558588v35.147294c0 9.697882 7.830588 17.558588 17.558588 17.558589h35.147294a17.558588 17.558588 0 0 0 17.558588-17.558589V273.558588a17.558588 17.558588 0 0 0-17.558588-17.558588zM449.264941 677.647059H414.117647a17.558588 17.558588 0 0 0-17.558588 17.558588v35.147294c0 9.697882 7.830588 17.558588 17.558588 17.558588h35.147294a17.558588 17.558588 0 0 0 17.558588-17.558588v-35.147294a17.558588 17.558588 0 0 0-17.558588-17.558588z" fill="#568af2" /></svg>