<svg class="icon" style="width: 1em;height: 1em;vertical-align: middle;fill: currentColor;overflow: hidden;" viewBox="0 0 1024 1024" version="1.1" xmlns="http://www.w3.org/2000/svg" width="32" height="32"><path d="M269.793882 518.264471a175.676235 175.676235 0 1 1 0 351.382588 175.676235 175.676235 0 0 1 0-351.382588z m0 52.705882a122.970353 122.970353 0 1 0 0 245.970823 122.970353 122.970353 0 0 0 0-245.970823zM735.382588 500.705882a184.470588 184.470588 0 1 1 0 368.941177 184.470588 184.470588 0 0 1 0-368.941177z m0 52.705883a131.764706 131.764706 0 1 0 0 263.529411 131.764706 131.764706 0 0 0 0-263.529411z" fill="#568af2" /><path d="M577.204706 184.470588c11.354353 0 21.383529 7.258353 24.997647 18.010353l158.177882 474.352941a26.352941 26.352941 0 0 1-49.995294 16.685177L558.230588 237.176471h-139.143529a26.352941 26.352941 0 0 1-26.142118-23.04L392.734118 210.823529c0-14.546824 11.776-26.352941 26.352941-26.352941h158.117647z" fill="#568af2" /><path d="M625.633882 379.211294a26.352941 26.352941 0 1 1 32.617412 41.411765L295.905882 705.897412a26.352941 26.352941 0 0 1-32.617411-41.441883l362.345411-285.244235z" fill="#568af2" /><path d="M798.509176 271.962353a26.352941 26.352941 0 0 1 49.423059 18.251294l-32.436706 87.853177a26.352941 26.352941 0 0 1-24.69647 17.227294h-148.87153a26.352941 26.352941 0 1 1 0-52.705883h130.469647l26.112-70.625882zM348.852706 359.695059a26.352941 26.352941 0 0 1 0 52.705882H225.882353a26.352941 26.352941 0 1 1 0-52.705882h122.970353z" fill="#568af2" /><path d="M340.961882 361.381647a26.352941 26.352941 0 0 1 33.039059 17.227294l57.524706 183.115294a26.352941 26.352941 0 0 1-50.296471 15.75153l-57.524705-183.085177A26.352941 26.352941 0 0 1 340.992 361.411765z" fill="#568af2" /></svg>