<svg class="icon" style="width: 1em;height: 1em;vertical-align: middle;fill: currentColor;overflow: hidden;" viewBox="0 0 1024 1024" version="1.1" xmlns="http://www.w3.org/2000/svg" width="32" height="32"><path d="M488.387765 224.496941a122.970353 122.970353 0 0 1 173.929411 173.929412l-9.33647 9.336471-19.395765 19.395764a26.352941 26.352941 0 0 1-37.285647-37.285647l19.425882-19.395765 9.336471-9.33647a70.264471 70.264471 0 1 0-99.388235-99.388235l-223.653647 223.623529 99.388235 99.388235 78.426353-78.426353a26.352941 26.352941 0 0 1 34.575059-2.349176l2.710588 2.349176a26.352941 26.352941 0 0 1 0 37.285647l-19.425882 19.395765-65.204706 65.234824c-17.167059 17.167059-44.965647 17.167059-62.102588 0l-122.458353-122.458353a28.852706 28.852706 0 0 1 0-40.83953l240.459294-240.459294z" fill="#568af2" /><path d="M612.592941 149.985882a87.853176 87.853176 0 0 1 124.265412 124.205177l-31.081412 31.051294a26.352941 26.352941 0 0 1-37.255529 0L581.571765 218.292706a26.352941 26.352941 0 0 1 0-37.285647l31.021176-31.021177z m86.979765 37.25553a35.147294 35.147294 0 0 0-49.694118 0l-12.438588 12.378353 49.694118 49.694117 12.438588-12.378353c12.739765-12.739765 13.643294-32.828235 2.710588-46.652235l-2.710588-3.041882zM270.998588 491.580235a26.352941 26.352941 0 0 1 37.25553 0l86.979764 86.979765a26.352941 26.352941 0 0 1 0 37.255529l-74.541176 74.541177a26.352941 26.352941 0 0 1-37.285647 0l-86.949647-86.949647a26.352941 26.352941 0 0 1 0-37.285647l74.541176-74.541177z m18.612706 55.898353l-37.255529 37.25553 49.694117 49.694117 37.25553-37.255529-49.694118-49.694118zM637.470118 398.426353a105.411765 105.411765 0 1 1-149.082353 149.082353 105.411765 105.411765 0 0 1 149.082353-149.082353z m-37.285647 37.255529a52.705882 52.705882 0 1 0-74.541177 74.541177 52.705882 52.705882 0 0 0 74.541177-74.541177z" fill="#568af2" /><path d="M192.180706 418.454588a26.352941 26.352941 0 0 1 37.285647 0l223.593412 223.62353a26.352941 26.352941 0 0 1-37.25553 37.255529L192.150588 455.710118a26.352941 26.352941 0 0 1 0-37.25553zM843.294118 832.391529a26.352941 26.352941 0 0 1 0 52.705883H281.088a26.352941 26.352941 0 1 1 0-52.705883H843.294118z" fill="#568af2" /><path d="M650.029176 445.861647c90.834824 0 166.912 88.756706 166.912 202.059294 0 75.806118-34.334118 134.475294-95.141647 187.753412-9.216 8.071529-18.763294 15.811765-29.967058 24.455529-5.782588 4.427294-23.552 17.829647-25.780706 19.546353a26.352941 26.352941 0 0 1-32.015059-41.863529c2.469647-1.897412 20.148706-15.209412 25.630118-19.456 10.390588-8.011294 19.124706-15.058824 27.407058-22.317177 50.416941-44.212706 77.161412-89.871059 77.161412-148.118588 0-85.835294-54.422588-149.353412-114.206118-149.353412a26.352941 26.352941 0 1 1 0-52.705882z" fill="#568af2" /></svg>