<svg class="icon" style="width: 1em;height: 1em;vertical-align: middle;fill: currentColor;overflow: hidden;" viewBox="0 0 1024 1024" version="1.1" xmlns="http://www.w3.org/2000/svg" width="32" height="32"><path d="M681.411765 425.411765c33.972706 0 61.500235 27.527529 61.500235 61.500235v245.940706a61.500235 61.500235 0 0 1-61.500235 61.500235H330.029176a61.500235 61.500235 0 0 1-61.470117-61.500235v-245.940706c0-33.972706 27.527529-61.500235 61.470117-61.500235h351.382589z m0 52.705882H330.029176a8.794353 8.794353 0 0 0-8.764235 8.794353v245.940706c0 4.848941 3.915294 8.794353 8.764235 8.794353h351.382589c4.848941 0 8.794353-3.915294 8.794353-8.794353v-245.940706a8.794353 8.794353 0 0 0-8.794353-8.794353z" fill="#568af2" /><path d="M505.735529 214.588235c39.905882 0 76.348235 15.841882 100.833883 44.272941 11.023059 12.8 19.335529 27.828706 24.545882 44.483765a26.352941 26.352941 0 0 1-50.29647 15.75153 72.372706 72.372706 0 0 0-14.155295-25.810824c-14.245647-16.564706-35.990588-25.991529-60.928-25.991529-46.260706 0-79.058824 31.412706-79.058823 79.058823V451.764706a26.352941 26.352941 0 0 1-52.705882 0v-105.411765c0-77.281882 56.922353-131.764706 131.764705-131.764706zM505.735529 565.970824c14.546824 0 26.352941 11.776 26.352942 26.352941v35.117176a26.352941 26.352941 0 0 1-52.705883 0v-35.117176c0-14.576941 11.776-26.352941 26.352941-26.352941zM189.500235 390.264471c14.546824 0 26.352941 11.806118 26.352941 26.352941v210.823529a26.352941 26.352941 0 1 1-52.705882 0v-210.823529c0-14.546824 11.776-26.352941 26.352941-26.352941zM821.970824 390.264471c14.546824 0 26.352941 11.806118 26.352941 26.352941v210.823529a26.352941 26.352941 0 0 1-52.705883 0v-210.823529c0-14.546824 11.776-26.352941 26.352942-26.352941z" fill="#568af2" /></svg>