<svg class="icon" style="width: 1em;height: 1em;vertical-align: middle;fill: currentColor;overflow: hidden;" viewBox="0 0 1024 1024" version="1.1" xmlns="http://www.w3.org/2000/svg" width="32" height="32"><path d="M750.441412 154.352941c33.942588 0 61.470118 27.527529 61.470117 61.500235V813.176471a61.500235 61.500235 0 0 1-61.470117 61.500235H276.088471A61.500235 61.500235 0 0 1 214.588235 813.176471v-87.853177c0-7.981176 3.614118-15.570824 9.878589-20.570353l77.94447-62.373647v-31.262118H240.941176a26.352941 26.352941 0 0 1-26.142117-23.04l-0.210824-3.312941v-52.705882c0-6.144 2.168471-12.107294 6.113883-16.865882l81.709176-98.063059V215.853176c0-32.436706 25.118118-58.970353 56.922353-61.319529l4.577882-0.180706h386.529883z m0 52.705883H363.911529a8.794353 8.794353 0 0 0-8.764235 8.794352v210.82353a26.352941 26.352941 0 0 1-6.113882 16.865882l-81.739294 98.032941v16.835765h61.500235c13.432471 0 24.515765 10.059294 26.142118 23.070118l0.210823 3.312941v70.264471c0 8.011294-3.644235 15.570824-9.908706 20.570352l-77.94447 62.34353V813.176471c0 4.156235 2.891294 7.649882 6.77647 8.553411l2.017883 0.240942h474.352941c4.818824 0 8.764235-3.915294 8.764235-8.794353V215.853176a8.794353 8.794353 0 0 0-8.764235-8.794352z" fill="#568af2" /><path d="M662.588235 259.764706c14.546824 0 26.352941 11.806118 26.352941 26.352941v70.264471a26.352941 26.352941 0 1 1-52.705882 0V286.117647c0-14.546824 11.806118-26.352941 26.352941-26.352941zM451.764706 259.764706c14.546824 0 26.352941 11.806118 26.352941 26.352941v70.264471a26.352941 26.352941 0 1 1-52.705882 0V286.117647c0-14.546824 11.806118-26.352941 26.352941-26.352941zM557.176471 259.764706c14.546824 0 26.352941 11.806118 26.352941 26.352941v70.264471a26.352941 26.352941 0 1 1-52.705883 0V286.117647c0-14.546824 11.806118-26.352941 26.352942-26.352941z" fill="#568af2" /></svg>