<svg class="icon" style="width: 1em;height: 1em;vertical-align: middle;fill: currentColor;overflow: hidden;" viewBox="0 0 1024 1024" version="1.1" xmlns="http://www.w3.org/2000/svg" width="32" height="32"><path d="M818.206118 193.264941c33.942588 0 61.470118 27.527529 61.470117 61.470118v491.941647a61.500235 61.500235 0 0 1-61.470117 61.470118h-632.470589a61.500235 61.500235 0 0 1-61.500235-61.470118V254.735059c0-33.942588 27.527529-61.470118 61.500235-61.470118h632.470589z m0 52.705883h-632.470589a8.794353 8.794353 0 0 0-8.794353 8.764235v491.941647c0 4.818824 3.915294 8.764235 8.794353 8.764235h632.470589c4.818824 0 8.764235-3.915294 8.764235-8.764235V254.735059a8.794353 8.794353 0 0 0-8.764235-8.764235z" fill="#568af2" /><path d="M495.947294 207.811765a26.352941 26.352941 0 0 1 47.164235 23.582117c-2.108235 4.156235-5.872941 12.197647-10.812235 23.371294a899.102118 899.102118 0 0 0-24.244706 61.108706c-14.215529 40.086588-24.847059 79.299765-30.448941 115.651765a340.028235 340.028235 0 0 0-4.306823 54.452706l0.12047 5.933176h81.257412c12.8 0 23.582118 9.185882 25.901176 21.473883l0.39153 3.132235 17.558588 263.529412a26.352941 26.352941 0 0 1-52.585412 3.523765l-15.962353-238.953412h-80.715294a26.352941 26.352941 0 0 1-25.449412-19.456l-0.662588-3.162353c-4.216471-29.575529-3.162353-62.584471 2.349177-98.484706 6.174118-39.996235 17.648941-82.281412 32.88847-125.289412 8.161882-23.009882 16.926118-44.784941 25.660236-64.692706 5.300706-12.016941 9.456941-20.781176 11.89647-25.72047z" fill="#568af2" /><path d="M677.647059 755.440941a26.352941 26.352941 0 0 1 0 52.705883h-210.82353a26.352941 26.352941 0 1 1 0-52.705883h210.82353zM607.382588 193.264941a26.352941 26.352941 0 0 1 0 52.705883h-210.823529a26.352941 26.352941 0 1 1 0-52.705883h210.823529zM677.647059 333.793882c14.546824 0 26.352941 11.806118 26.352941 26.352942v35.147294a26.352941 26.352941 0 1 1-52.705882 0v-35.147294c0-14.546824 11.806118-26.352941 26.352941-26.352942zM326.264471 333.793882c14.576941 0 26.352941 11.806118 26.352941 26.352942v35.147294a26.352941 26.352941 0 1 1-52.705883 0v-35.147294c0-14.546824 11.806118-26.352941 26.352942-26.352942zM679.875765 567.115294a26.352941 26.352941 0 0 1 30.689882 42.857412c-10.872471 7.770353-30.268235 18.703059-57.434353 29.424941a409.690353 409.690353 0 0 1-151.190588 28.220235c-55.808 0-106.496-10.541176-151.160471-28.220235-27.136-10.721882-46.561882-21.654588-57.404235-29.424941a26.352941 26.352941 0 1 1 30.659765-42.857412c1.566118 1.114353 5.240471 3.493647 10.962823 6.716235 9.938824 5.601882 21.684706 11.264 35.147294 16.564706 38.761412 15.299765 82.944 24.515765 131.824942 24.515765 48.850824 0 93.063529-9.216 131.794823-24.515765a285.786353 285.786353 0 0 0 35.147294-16.564706c5.722353-3.222588 9.426824-5.601882 10.962824-6.716235z" fill="#568af2" /></svg>