<svg class="icon" style="width: 1em;height: 1em;vertical-align: middle;fill: currentColor;overflow: hidden;" viewBox="0 0 1024 1024" version="1.1" xmlns="http://www.w3.org/2000/svg" width="32" height="32"><path d="M818.206118 184.470588c33.942588 0 61.470118 27.527529 61.470117 61.470118v474.352941a26.352941 26.352941 0 0 1-26.352941 26.383059h-140.528941a26.352941 26.352941 0 0 1 0-52.705882l114.176-0.030118V245.940706a8.764235 8.764235 0 0 0-6.746353-8.523294l-2.017882-0.240941h-632.470589a8.764235 8.764235 0 0 0-8.794353 8.764235v448h114.206118c13.432471 0 24.515765 10.059294 26.142118 23.070118l0.210823 3.312941a26.352941 26.352941 0 0 1-26.352941 26.352941H150.588235a26.352941 26.352941 0 0 1-26.352941-26.352941V245.970824c0-33.972706 27.527529-61.500235 61.500235-61.500236h632.470589z" fill="#568af2" /><path d="M483.328 648.734118a26.352941 26.352941 0 0 1 37.255529 0l175.706353 175.676235c16.564706 16.624941 4.818824 44.995765-18.642823 44.995765H326.264471c-23.491765 0-35.237647-28.370824-18.612706-44.995765l175.676235-175.676235z m18.612706 55.898353l-112.037647 112.037647h224.075294l-112.037647-112.037647z" fill="#568af2" /></svg>