<svg class="icon" style="width: 1em;height: 1em;vertical-align: middle;fill: currentColor;overflow: hidden;" viewBox="0 0 1024 1024" version="1.1" xmlns="http://www.w3.org/2000/svg" width="32" height="32"><path d="M800.617412 124.235294a79.058824 79.058824 0 0 1 79.058823 79.058824v597.323294a79.058824 79.058824 0 0 1-79.058823 79.058823H203.294118a79.058824 79.058824 0 0 1-79.058824-79.058823V203.294118A79.058824 79.058824 0 0 1 203.294118 124.235294h597.323294z m0 52.705882H203.294118a26.352941 26.352941 0 0 0-26.352942 26.352942v597.323294c0 14.576941 11.806118 26.352941 26.352942 26.352941h597.323294a26.352941 26.352941 0 0 0 26.352941-26.352941V203.294118a26.352941 26.352941 0 0 0-26.352941-26.352942z" fill="#568af2" /><path d="M291.147294 326.264471a35.147294 35.147294 0 1 0 0-70.264471 35.147294 35.147294 0 0 0 0 70.264471zM291.147294 747.911529a35.147294 35.147294 0 1 0 0-70.26447 35.147294 35.147294 0 0 0 0 70.26447zM712.794353 326.264471a35.147294 35.147294 0 1 0 0-70.264471 35.147294 35.147294 0 0 0 0 70.264471zM712.794353 747.911529a35.147294 35.147294 0 1 0 0-70.26447 35.147294 35.147294 0 0 0 0 70.26447zM501.970824 317.500235a184.470588 184.470588 0 1 1 0 368.941177 184.470588 184.470588 0 0 1 0-368.941177z m0 52.705883a131.764706 131.764706 0 1 0 0 263.529411 131.764706 131.764706 0 0 0 0-263.529411z" fill="#568af2" /></svg>