<svg class="icon" style="width: 1em;height: 1em;vertical-align: middle;fill: currentColor;overflow: hidden;" viewBox="0 0 1024 1024" version="1.1" xmlns="http://www.w3.org/2000/svg" width="32" height="32"><path d="M425.321412 430.652235a38.972235 38.972235 0 0 1 55.115294 0l131.222588 131.222589a38.972235 38.972235 0 0 1 0 55.115294l-202.24 202.270117a131.764706 131.764706 0 0 1-186.368-186.337882l202.270118-202.270118z m27.557647 46.953412l-192.542118 192.572235a79.058824 79.058824 0 0 0 111.796706 111.796706l192.542118-192.572235-111.796706-111.796706z" fill="#568af2" /><path d="M510.102588 196.788706a42.044235 42.044235 0 0 1 59.482353 0l275.937883 275.937882c16.414118 16.444235 16.414118 43.068235 0 59.482353l-13.733648 13.733647A237.176471 237.176471 0 1 1 496.338824 210.522353l13.733647-13.733647z m29.726118 44.784941l-6.204235 6.234353a184.470588 184.470588 0 1 0 260.879058 260.879059l6.204236-6.234353-260.879059-260.879059zM409.419294 595.636706a26.352941 26.352941 0 1 1 37.25553 37.285647l-24.847059 24.847059a26.352941 26.352941 0 1 1-37.25553-37.285647l24.847059-24.847059z" fill="#568af2" /><path d="M546.032941 409.298824a26.352941 26.352941 0 0 1 37.285647 0l49.694118 49.694117a26.352941 26.352941 0 1 1-37.25553 37.25553l-49.694117-49.694118a26.352941 26.352941 0 0 1 0-37.255529z" fill="#568af2" /></svg>