<svg class="icon" style="width: 1em;height: 1em;vertical-align: middle;fill: currentColor;overflow: hidden;" viewBox="0 0 1024 1024" version="1.1" xmlns="http://www.w3.org/2000/svg" width="32" height="32"><path d="M189.500235 536.365176c14.546824 0 26.352941 11.806118 26.352941 26.352942v281.088a26.352941 26.352941 0 1 1-52.705882 0v-281.088c0-14.546824 11.776-26.352941 26.352941-26.352942z" fill="#568af2" /><path d="M360.809412 565.669647a26.352941 26.352941 0 0 1 43.851294 29.214118l-70.264471 105.411764a26.352941 26.352941 0 0 1-21.925647 11.745883H189.500235a26.352941 26.352941 0 1 1 0-52.705883h108.845177l62.464-93.665882z" fill="#568af2" /><path d="M185.133176 442.699294a26.352941 26.352941 0 0 1 36.532706-7.318588L682.164706 742.339765l161.430588-96.798118a26.352941 26.352941 0 0 1 34.243765 6.324706l1.897412 2.710588a26.352941 26.352941 0 0 1-9.035295 36.141177l-166.159058 99.689411c-14.546824 8.734118-32.828235 8.312471-46.98353-1.114353L192.451765 479.232a26.352941 26.352941 0 0 1-7.318589-36.532706z" fill="#568af2" /><path d="M320.060235 165.436235a43.911529 43.911529 0 0 1 53.248-3.915294l475.467294 311.536941c26.684235 17.468235 26.413176 56.681412-0.481882 73.788236l-160.647529 102.249411a43.911529 43.911529 0 0 1-47.947294-0.512l-445.891765-297.261176a43.911529 43.911529 0 0 1-4.818824-69.391059l131.072-116.495059z m29.967059 43.851294L232.508235 313.765647l431.646118 287.774118 144.323765-91.888941-458.480942-300.363295z" fill="#568af2" /></svg>