<svg class="icon" style="width: 1em;height: 1em;vertical-align: middle;fill: currentColor;overflow: hidden;" viewBox="0 0 1024 1024" version="1.1" xmlns="http://www.w3.org/2000/svg" width="32" height="32"><path d="M677.647059 274.823529c33.972706 0 61.500235 27.527529 61.500235 61.500236V722.823529a61.500235 61.500235 0 0 1-61.500235 61.500236H185.735529A61.500235 61.500235 0 0 1 124.235294 722.823529V336.323765c0-33.972706 27.527529-61.500235 61.500235-61.500236H677.647059z m0 52.705883H185.735529a8.794353 8.794353 0 0 0-8.794353 8.794353V722.823529c0 4.848941 3.915294 8.794353 8.794353 8.794353H677.647059c4.848941 0 8.794353-3.915294 8.794353-8.794353V336.323765a8.794353 8.794353 0 0 0-8.794353-8.794353z" fill="#568af2" /><path d="M431.676235 397.793882a131.764706 131.764706 0 1 1 0 263.529412 131.764706 131.764706 0 0 1 0-263.529412z m0 52.705883a79.058824 79.058824 0 1 0 0 158.117647 79.058824 79.058824 0 0 0 0-158.117647zM841.547294 347.858824a26.352941 26.352941 0 0 1 38.128941 23.582117v316.235294a26.352941 26.352941 0 0 1-38.128941 23.582118l-140.559059-70.264471a26.352941 26.352941 0 1 1 23.582118-47.164235l102.4 51.2v-230.972235l-102.4 51.230117a26.352941 26.352941 0 0 1-33.701647-8.914823l-1.656471-2.861177a26.352941 26.352941 0 0 1 11.776-35.358117l140.559059-70.264471z" fill="#568af2" /></svg>