<svg class="icon" style="width: 1em;height: 1em;vertical-align: middle;fill: currentColor;overflow: hidden;" viewBox="0 0 1024 1024" version="1.1" xmlns="http://www.w3.org/2000/svg" width="32" height="32"><path d="M790.588235 184.470588a79.058824 79.058824 0 0 1 79.058824 79.058824v527.058823a79.058824 79.058824 0 0 1-79.058824 79.058824H263.529412a79.058824 79.058824 0 0 1-79.058824-79.058824V263.529412A79.058824 79.058824 0 0 1 263.529412 184.470588h527.058823z m0 52.705883H263.529412a26.352941 26.352941 0 0 0-26.352941 26.352941v527.058823c0 14.546824 11.806118 26.352941 26.352941 26.352941h527.058823a26.352941 26.352941 0 0 0 26.352941-26.352941V263.529412a26.352941 26.352941 0 0 0-26.352941-26.352941z" fill="#568af2" /><path d="M667.617882 184.470588c14.546824 0 26.352941 11.806118 26.352942 26.352941v175.676236a26.352941 26.352941 0 0 1-26.352942 26.352941h-281.118117a26.352941 26.352941 0 0 1-26.352941-26.352941V210.823529c0-14.546824 11.806118-26.352941 26.352941-26.352941h281.118117z m-26.383058 52.705883h-228.382118v122.970353h228.382118V237.176471zM650.029176 711.529412a26.352941 26.352941 0 1 1 0 52.705882h-245.940705a26.352941 26.352941 0 1 1 0-52.705882h245.940705z" fill="#568af2" /></svg>