<svg class="icon" style="width: 1em;height: 1em;vertical-align: middle;fill: currentColor;overflow: hidden;" viewBox="0 0 1024 1024" version="1.1" xmlns="http://www.w3.org/2000/svg" width="32" height="32"><path d="M800.617412 133.029647a79.058824 79.058824 0 0 1 79.058823 79.058824v597.323294a79.058824 79.058824 0 0 1-79.058823 79.058823H203.294118a79.058824 79.058824 0 0 1-79.058824-79.058823V212.088471A79.058824 79.058824 0 0 1 203.294118 133.029647h597.323294z m0 52.705882H203.294118a26.352941 26.352941 0 0 0-26.352942 26.352942v597.323294c0 14.546824 11.806118 26.352941 26.352942 26.352941h597.323294a26.352941 26.352941 0 0 0 26.352941-26.352941V212.088471a26.352941 26.352941 0 0 0-26.352941-26.352942z" fill="#568af2" /><path d="M677.647059 133.029647c14.546824 0 26.352941 11.776 26.352941 26.352941v316.235294a26.352941 26.352941 0 0 1-26.352941 26.352942H343.853176a26.352941 26.352941 0 0 1-26.352941-26.352942v-316.235294c0-14.576941 11.776-26.352941 26.352941-26.352941H677.647059z m-26.352941 52.705882h-281.088v263.529412h281.088v-263.529412z" fill="#568af2" /><path d="M589.793882 256c14.576941 0 26.352941 11.806118 26.352942 26.352941v70.264471a26.352941 26.352941 0 1 1-52.705883 0V282.352941c0-14.546824 11.806118-26.352941 26.352941-26.352941zM730.352941 133.029647a26.352941 26.352941 0 0 1 0 52.705882H291.056941a26.352941 26.352941 0 0 1 0-52.705882h439.235765z" fill="#568af2" /></svg>