<svg class="icon" style="width: 1em;height: 1em;vertical-align: middle;fill: currentColor;overflow: hidden;" viewBox="0 0 1024 1024" version="1.1" xmlns="http://www.w3.org/2000/svg" width="32" height="32"><path d="M786.763294 236.604235a131.764706 131.764706 0 0 1 0 186.337883L463.751529 745.953882a131.764706 131.764706 0 1 1-186.337882-186.337882L600.395294 236.604235a131.764706 131.764706 0 0 1 186.368 0z m-37.285647 37.285647a79.058824 79.058824 0 0 0-111.796706 0L314.669176 596.871529a79.058824 79.058824 0 0 0 111.826824 111.796706l322.981647-322.981647a79.058824 79.058824 0 0 0 0-111.796706z" fill="#568af2" /><path d="M372.886588 472.636235a26.352941 26.352941 0 0 1 37.285647 0l140.528941 140.559059a26.352941 26.352941 0 1 1-37.255529 37.25553l-140.559059-140.528942a26.352941 26.352941 0 0 1 0-37.285647zM267.474824 718.607059a26.352941 26.352941 0 1 1 37.285647 37.255529l-105.411765 105.411765A26.352941 26.352941 0 0 1 162.032941 824.018824l105.411765-105.411765z" fill="#568af2" /><path d="M659.778692 303.987903m30.438449 17.573647l-0.026082-0.015058q30.43845 17.573647 12.864802 48.012096l0.015059-0.026082q-17.573647 30.43845-48.012096 12.864802l0.026082 0.015059q-30.43845-17.573647-12.864802-48.012097l-0.015059 0.026083q17.573647-30.43845 48.012096-12.864803Z" fill="#568af2" /></svg>