<svg class="icon" style="width: 1em;height: 1em;vertical-align: middle;fill: currentColor;overflow: hidden;" viewBox="0 0 1024 1024" version="1.1" xmlns="http://www.w3.org/2000/svg" width="32" height="32"><path d="M583.710118 583.710118a26.352941 26.352941 0 0 1 37.285647 0l122.970353 123.00047a26.352941 26.352941 0 1 1-37.25553 37.25553L583.68 621.025882a26.352941 26.352941 0 0 1 0-37.285647zM285.063529 285.063529a26.352941 26.352941 0 0 1 37.25553 0l122.970353 122.970353a26.352941 26.352941 0 0 1-37.25553 37.25553l-122.970353-122.970353a26.352941 26.352941 0 0 1 0-37.25553zM408.033882 583.710118a26.352941 26.352941 0 0 1 37.25553 37.285647l-122.970353 122.970353a26.352941 26.352941 0 1 1-37.25553-37.25553l122.970353-123.00047z m298.676706-298.646589a26.352941 26.352941 0 1 1 37.25553 37.25553l-122.970353 122.970353a26.352941 26.352941 0 0 1-37.285647-37.25553l123.00047-122.970353z" fill="#568af2" /><path d="M602.352941 400.323765c14.546824 0 26.352941 11.776 26.352941 26.352941V602.352941a26.352941 26.352941 0 0 1-26.352941 26.352941h-175.676235a26.352941 26.352941 0 0 1-26.352941-26.352941v-175.676235c0-14.576941 11.776-26.352941 26.352941-26.352941H602.352941z m-26.352941 52.705882h-122.970353v122.970353h122.970353v-122.970353zM668.190118 165.707294a149.323294 149.323294 0 1 1 57.133176 287.322353 26.352941 26.352941 0 1 1 0-52.705882 96.617412 96.617412 0 1 0-96.617412-96.64753 26.352941 26.352941 0 0 1-52.705882 0 149.323294 149.323294 0 0 1 92.16-137.938823zM725.323294 576a149.323294 149.323294 0 1 1-149.323294 149.323294 26.352941 26.352941 0 1 1 52.705882 0 96.617412 96.617412 0 1 0 96.617412-96.617412 26.352941 26.352941 0 0 1 0-52.705882zM303.676235 576a26.352941 26.352941 0 0 1 0 52.705882 96.617412 96.617412 0 1 0 96.64753 96.617412 26.352941 26.352941 0 0 1 52.705882 0 149.323294 149.323294 0 1 1-149.353412-149.323294zM274.552471 157.214118a149.323294 149.323294 0 0 1 178.477176 146.462117 26.352941 26.352941 0 0 1-52.705882 0 96.617412 96.617412 0 1 0-96.64753 96.64753 26.352941 26.352941 0 0 1 0 52.705882 149.323294 149.323294 0 0 1-29.123764-295.815529z" fill="#568af2" /></svg>