<svg class="icon" style="width: 1em;height: 1em;vertical-align: middle;fill: currentColor;overflow: hidden;" viewBox="0 0 1024 1024" version="1.1" xmlns="http://www.w3.org/2000/svg" width="32" height="32"><path d="M501.970824 124.235294c208.594824 0 377.705412 169.110588 377.705411 377.73553 0 208.594824-169.110588 377.705412-377.705411 377.705411-208.624941 0-377.735529-169.110588-377.73553-377.705411 0-208.624941 169.110588-377.735529 377.73553-377.73553z m0 52.705882c-179.501176 0-325.029647 145.528471-325.029648 325.029648s145.528471 324.999529 325.029648 324.999529 324.999529-145.498353 324.999529-324.999529S681.472 176.941176 501.970824 176.941176z" fill="#568af2" /><path d="M501.970824 721.558588a114.206118 114.206118 0 0 1 114.176 114.206118 26.352941 26.352941 0 1 1-52.705883 0 61.500235 61.500235 0 0 0-122.970353 0 26.352941 26.352941 0 1 1-52.705882 0 114.206118 114.206118 0 0 1 114.206118-114.206118z" fill="#568af2" /><path d="M640.090353 796.250353a26.352941 26.352941 0 0 1 22.407529 47.706353 376.350118 376.350118 0 0 1-160.527058 35.719529c-56.229647 0-110.742588-12.288-160.557177-35.719529a26.352941 26.352941 0 0 1 22.437647-47.706353 323.644235 323.644235 0 0 0 138.11953 30.72c48.429176 0 95.292235-10.541176 138.119529-30.72z" fill="#568af2" /><path d="M343.853176 343.853176m-52.705882 0a52.705882 52.705882 0 1 0 105.411765 0 52.705882 52.705882 0 1 0-105.411765 0Z" fill="#568af2" /><path d="M273.558588 484.382118m-52.705882 0a52.705882 52.705882 0 1 0 105.411765 0 52.705882 52.705882 0 1 0-105.411765 0Z" fill="#568af2" /><path d="M501.970824 273.558588m-52.705883 0a52.705882 52.705882 0 1 0 105.411765 0 52.705882 52.705882 0 1 0-105.411765 0Z" fill="#568af2" /><path d="M660.088471 343.853176m-52.705883 0a52.705882 52.705882 0 1 0 105.411765 0 52.705882 52.705882 0 1 0-105.411765 0Z" fill="#568af2" /><path d="M730.352941 484.382118m-52.705882 0a52.705882 52.705882 0 1 0 105.411765 0 52.705882 52.705882 0 1 0-105.411765 0Z" fill="#568af2" /></svg>