<svg class="icon" style="width: 1em;height: 1em;vertical-align: middle;fill: currentColor;overflow: hidden;" viewBox="0 0 1024 1024" version="1.1" xmlns="http://www.w3.org/2000/svg" width="32" height="32"><path d="M180.705882 407.853176c14.546824 0 26.352941 11.776 26.352942 26.352942v245.940706a96.617412 96.617412 0 1 0 193.264941 0v-52.705883a26.352941 26.352941 0 0 1 52.705882 0v52.705883a149.323294 149.323294 0 1 1-298.676706 0v-245.940706c0-14.576941 11.806118-26.352941 26.352941-26.352942zM848.323765 407.853176c14.546824 0 26.352941 11.776 26.352941 26.352942v245.940706a149.323294 149.323294 0 1 1-298.676706 0v-52.705883a26.352941 26.352941 0 0 1 52.705882 0v52.705883a96.617412 96.617412 0 1 0 193.264942 0v-245.940706c0-14.576941 11.776-26.352941 26.352941-26.352942z" fill="#568af2" /><path d="M655.058824 214.588235a219.617882 219.617882 0 0 1 0 439.205647h-281.088a219.617882 219.617882 0 1 1 0-439.205647h281.088z m0 52.705883h-281.088a166.912 166.912 0 1 0 0 333.793882h281.088a166.912 166.912 0 1 0 0-333.793882z" fill="#568af2" /><path d="M461.793882 407.853176a26.352941 26.352941 0 1 1 0 52.705883h-140.528941a26.352941 26.352941 0 0 1 0-52.705883h140.528941z" fill="#568af2" /><path d="M391.529412 337.558588c14.546824 0 26.352941 11.806118 26.352941 26.352941v140.559059a26.352941 26.352941 0 1 1-52.705882 0v-140.559059c0-14.546824 11.806118-26.352941 26.352941-26.352941z" fill="#568af2" /><path d="M655.058824 363.911529m35.147294 0l-0.030118 0q35.147294 0 35.147294 35.147295l0-0.030118q0 35.147294-35.147294 35.147294l0.030118 0q-35.147294 0-35.147294-35.147294l0 0.030118q0-35.147294 35.147294-35.147295Z" fill="#568af2" /><path d="M584.794353 451.764706m35.147294 0l-0.030118 0q35.147294 0 35.147295 35.147294l0-0.030118q0 35.147294-35.147295 35.147294l0.030118 0q-35.147294 0-35.147294-35.147294l0 0.030118q0-35.147294 35.147294-35.147294Z" fill="#568af2" /></svg>