<svg class="icon" style="width: 1em;height: 1em;vertical-align: middle;fill: currentColor;overflow: hidden;" viewBox="0 0 1024 1024" version="1.1" xmlns="http://www.w3.org/2000/svg" width="32" height="32"><path d="M483.207529 167.634824a79.058824 79.058824 0 0 1 87.702589 0l25.118117 16.745411a377.735529 377.735529 0 0 1 168.207059 314.277647v180.886589a26.352941 26.352941 0 0 1-26.352941 26.352941h-421.647059a26.352941 26.352941 0 0 1-26.352941-26.352941v-180.886589c0-126.283294 63.126588-244.224 168.207059-314.277647l25.118117-16.745411z m58.458353 43.851294a26.352941 26.352941 0 0 0-29.214117 0l-25.118118 16.745411a325.029647 325.029647 0 0 0-144.745412 270.456471v154.503529h368.941177v-154.503529c0-105.411765-51.079529-204.016941-136.613647-264.854588l-8.131765-5.601883-25.118118-16.745411z" fill="#568af2" /><path d="M527.058824 319.397647a131.764706 131.764706 0 1 1 0 263.529412 131.764706 131.764706 0 0 1 0-263.529412z m0 52.705882a79.058824 79.058824 0 1 0 0 158.117647 79.058824 79.058824 0 0 0 0-158.117647z" fill="#568af2" /><path d="M719.570824 467.335529a26.352941 26.352941 0 0 1 37.285647 0.662589l105.411764 109.236706c4.728471 4.909176 7.378824 11.444706 7.378824 18.311529v84.028235a26.352941 26.352941 0 0 1-26.352941 26.322824H210.823529a26.352941 26.352941 0 0 1-26.352941-26.352941v-84.028236c0-6.806588 2.650353-13.372235 7.378824-18.281411l105.411764-109.236706a26.352941 26.352941 0 1 1 37.948236 36.592941l-98.032941 101.556706v47.043764h579.764705v-47.013647l-98.032941-101.586823a26.352941 26.352941 0 0 1-1.746823-34.605177l2.409412-2.650353zM527.058824 741.044706c14.546824 0 26.352941 11.806118 26.352941 26.352941v105.411765a26.352941 26.352941 0 1 1-52.705883 0v-105.411765c0-14.546824 11.806118-26.352941 26.352942-26.352941zM386.499765 776.192c14.576941 0 26.352941 11.806118 26.352941 26.352941v35.117177a26.352941 26.352941 0 0 1-52.705882 0v-35.117177c0-14.546824 11.806118-26.352941 26.352941-26.352941zM667.617882 776.192c14.546824 0 26.352941 11.806118 26.352942 26.352941v35.117177a26.352941 26.352941 0 0 1-52.705883 0v-35.117177c0-14.546824 11.776-26.352941 26.352941-26.352941z" fill="#568af2" /></svg>