<svg class="icon" style="width: 1em;height: 1em;vertical-align: middle;fill: currentColor;overflow: hidden;" viewBox="0 0 1024 1024" version="1.1" xmlns="http://www.w3.org/2000/svg" width="32" height="32"><path d="M607.382588 267.294118c50.115765 0 98.304 13.583059 140.348236 38.912l-6.565648-3.794824h77.040942c13.432471 0 24.515765 10.059294 26.142117 23.070118l0.210824 3.312941-0.030118 76.980706 1.505883 2.56a270.938353 270.938353 0 0 1 33.430588 120.560941l0.210823 10.721882a271.149176 271.149176 0 0 1-38.912 140.348236l3.764706-6.565647v77.040941a26.352941 26.352941 0 0 1-23.04 26.142117l-3.312941 0.210824-77.010824-0.030118-2.529882 1.505883a270.938353 270.938353 0 0 1-120.560941 33.430588l-10.691765 0.210823a271.149176 271.149176 0 0 1-140.348235-38.912l6.505412 3.764706H150.588235a26.352941 26.352941 0 0 1-26.142117-23.04l-0.210824-3.312941v-421.647059c0-14.546824 11.806118-26.322824 26.352941-26.322823l322.95153-0.030118 2.56-1.445647a270.938353 270.938353 0 0 1 120.560941-33.460706l10.721882-0.210823z m0 52.705882a219.437176 219.437176 0 0 0-219.617882 219.617882 219.437176 219.437176 0 0 0 219.617882 219.587765 218.443294 218.443294 0 0 0 113.152-31.322353l8.252236-5.24047a220.912941 220.912941 0 0 0 66.861176-69.872942l4.879059-8.583529a218.503529 218.503529 0 0 0 26.443294-104.568471 218.443294 218.443294 0 0 0-31.322353-113.182117l-5.240471-8.252236a220.973176 220.973176 0 0 0-61.620705-61.590588l-8.252236-5.24047-8.583529-4.909177a218.503529 218.503529 0 0 0-104.568471-26.443294z m-200.31247 35.117176H176.941176v368.941177h230.098824l-2.56-2.770824a271.751529 271.751529 0 0 1-69.270588-172.363294l-0.150588-9.33647c0-68.547765 25.539765-132.698353 69.421176-181.63953l2.590118-2.831059z" fill="#568af2" /><path d="M378.970353 214.588235c14.576941 0 26.352941 11.806118 26.352941 26.352941v87.853177a26.352941 26.352941 0 0 1-26.352941 26.352941h-158.117647a26.352941 26.352941 0 0 1-26.352941-26.352941V240.941176c0-14.546824 11.806118-26.352941 26.352941-26.352941h158.117647z m-26.352941 52.705883h-105.411765v35.117176h105.411765V267.294118zM256 442.970353c14.546824 0 26.352941 11.806118 26.352941 26.352941v140.559059a26.352941 26.352941 0 1 1-52.705882 0v-140.559059c0-14.546824 11.806118-26.352941 26.352941-26.352941zM712.794353 513.264941c14.546824 0 26.352941 11.776 26.352941 26.352941a131.764706 131.764706 0 0 1-131.764706 131.764706 26.352941 26.352941 0 0 1 0-52.705882 79.058824 79.058824 0 0 0 79.058824-79.058824c0-14.576941 11.776-26.352941 26.352941-26.352941z m-105.411765-105.411765a26.352941 26.352941 0 0 1 0 52.705883 79.058824 79.058824 0 0 0-79.058823 79.058823 26.352941 26.352941 0 0 1-52.705883 0 131.764706 131.764706 0 0 1 131.764706-131.764706z" fill="#568af2" /></svg>