<svg class="icon" style="width: 1em;height: 1em;vertical-align: middle;fill: currentColor;overflow: hidden;" viewBox="0 0 1024 1024" version="1.1" xmlns="http://www.w3.org/2000/svg" width="32" height="32"><path d="M466.823529 219.617882a26.352941 26.352941 0 1 1 0 52.705883H273.558588a26.352941 26.352941 0 0 0-26.352941 26.352941v342.588235h509.470118l0.030117-166.912c0-13.432471 10.059294-24.515765 23.04-26.142117l3.312942-0.210824c14.546824 0 26.352941 11.806118 26.352941 26.352941v193.264941a26.352941 26.352941 0 0 1-26.352941 26.352942H220.852706a26.352941 26.352941 0 0 1-26.352941-26.352942V298.676706a79.058824 79.058824 0 0 1 79.058823-79.058824H466.823529z" fill="#568af2" /><path d="M853.323294 641.264941c14.576941 0 26.352941 11.776 26.352941 26.352941v35.117177a131.764706 131.764706 0 0 1-131.764706 131.764706H256a131.764706 131.764706 0 0 1-131.764706-131.764706v-35.117177c0-14.576941 11.806118-26.352941 26.352941-26.352941h702.735059z m-26.352941 52.705883H176.941176v8.764235a79.058824 79.058824 0 0 0 74.059295 78.908235l4.999529 0.150588h491.911529a79.058824 79.058824 0 0 0 79.058824-79.058823v-8.764235zM641.445647 192.180706a26.352941 26.352941 0 0 1 37.255529 37.285647L627.049412 281.088l51.651764 51.651765c9.456941 9.426824 10.24 24.244706 2.379295 34.575059l-2.379295 2.710588a26.352941 26.352941 0 0 1-37.255529 0l-70.264471-70.294588a26.352941 26.352941 0 0 1 0-37.25553l70.264471-70.294588zM746.857412 192.180706a26.352941 26.352941 0 0 1 37.255529 0l70.294588 70.294588a26.352941 26.352941 0 0 1 0 37.25553l-70.294588 70.26447a26.352941 26.352941 0 1 1-37.255529-37.255529l51.621647-51.651765-51.621647-51.621647a26.352941 26.352941 0 0 1-2.349177-34.575059l2.349177-2.710588z" fill="#568af2" /></svg>