<svg class="icon" style="width: 1em;height: 1em;vertical-align: middle;fill: currentColor;overflow: hidden;" viewBox="0 0 1024 1024" version="1.1" xmlns="http://www.w3.org/2000/svg" width="32" height="32"><path d="M634.970353 282.352941A79.058824 79.058824 0 0 1 714.029176 361.411765v281.088a79.058824 79.058824 0 0 1-79.058823 79.058823H353.882353a79.058824 79.058824 0 0 1-79.058824-79.058823V361.411765a79.058824 79.058824 0 0 1 79.058824-79.058824h281.088z m0 52.705883H353.882353a26.352941 26.352941 0 0 0-26.352941 26.352941v281.088c0 14.576941 11.806118 26.352941 26.352941 26.352941h281.088a26.352941 26.352941 0 0 0 26.352941-26.352941V361.411765a26.352941 26.352941 0 0 0-26.352941-26.352941z" fill="#568af2" /><path d="M582.264471 668.852706c14.576941 0 26.352941 11.806118 26.352941 26.352941v123.000471a61.500235 61.500235 0 0 1-61.470118 61.470117h-105.411765a61.500235 61.500235 0 0 1-61.500235-61.470117v-123.000471a26.352941 26.352941 0 0 1 52.705882 0v123.000471c0 4.818824 3.915294 8.764235 8.794353 8.764235h105.411765c4.818824 0 8.764235-3.915294 8.764235-8.764235v-123.000471c0-14.546824 11.806118-26.352941 26.352942-26.352941zM547.147294 124.235294c33.942588 0 61.470118 27.527529 61.470118 61.500235v122.970353a26.352941 26.352941 0 1 1-52.705883 0V185.735529a8.794353 8.794353 0 0 0-8.764235-8.794353h-105.411765a8.794353 8.794353 0 0 0-8.794353 8.794353v122.970353a26.352941 26.352941 0 1 1-52.705882 0V185.735529c0-33.972706 27.527529-61.500235 61.500235-61.500235h105.411765zM722.823529 422.912a26.352941 26.352941 0 1 1 0 52.705882h-35.147294a26.352941 26.352941 0 0 1 0-52.705882H722.823529zM441.735529 475.617882a26.352941 26.352941 0 0 1 0 52.705883H406.588235a26.352941 26.352941 0 0 1 0-52.705883h35.147294zM582.264471 475.617882a26.352941 26.352941 0 1 1 0 52.705883h-35.117177a26.352941 26.352941 0 0 1 0-52.705883h35.117177z" fill="#568af2" /></svg>