<svg class="icon" style="width: 1em;height: 1em;vertical-align: middle;fill: currentColor;overflow: hidden;" viewBox="0 0 1024 1024" version="1.1" xmlns="http://www.w3.org/2000/svg" width="32" height="32"><path d="M795.617882 244.705882a79.058824 79.058824 0 0 1 79.058824 79.058824v386.499765a79.058824 79.058824 0 0 1-79.058824 79.058823H233.411765a79.058824 79.058824 0 0 1-79.058824-79.058823V323.764706A79.058824 79.058824 0 0 1 233.411765 244.705882h562.206117z m0 52.705883H233.411765a26.352941 26.352941 0 0 0-26.352941 26.352941v386.499765c0 14.576941 11.806118 26.352941 26.352941 26.352941h562.206117a26.352941 26.352941 0 0 0 26.352942-26.352941V323.764706a26.352941 26.352941 0 0 0-26.352942-26.352941z" fill="#568af2" /><path d="M321.264941 367.676235c14.546824 0 26.352941 11.806118 26.352941 26.352941v123.000471a26.352941 26.352941 0 0 1-52.705882 0v-123.000471c0-14.546824 11.776-26.352941 26.352941-26.352941z" fill="#568af2" /><path d="M356.412235 604.852706m0 35.147294l0-0.030118q0 35.147294-35.147294 35.147294l0.030118 0q-35.147294 0-35.147294-35.147294l0 0.030118q0-35.147294 35.147294-35.147294l-0.030118 0q35.147294 0 35.147294 35.147294Z" fill="#568af2" /></svg>