<svg class="icon" style="width: 1em;height: 1em;vertical-align: middle;fill: currentColor;overflow: hidden;" viewBox="0 0 1024 1024" version="1.1" xmlns="http://www.w3.org/2000/svg" width="32" height="32"><path d="M818.206118 214.588235c33.942588 0 61.470118 27.527529 61.470117 61.500236V557.176471a61.500235 61.500235 0 0 1-61.470117 61.500235h-632.470589A61.500235 61.500235 0 0 1 124.235294 557.176471V276.088471c0-33.972706 27.527529-61.500235 61.500235-61.500236h632.470589z m0 52.705883h-632.470589a8.794353 8.794353 0 0 0-8.794353 8.794353V557.176471c0 4.848941 3.915294 8.794353 8.794353 8.794353h632.470589c4.818824 0 8.764235-3.915294 8.764235-8.794353V276.088471a8.794353 8.794353 0 0 0-8.764235-8.794353z" fill="#568af2" /><path d="M712.794353 425.411765c14.546824 0 26.352941 11.806118 26.352941 26.352941v140.559059a26.352941 26.352941 0 0 1-26.352941 26.352941h-421.647059a26.352941 26.352941 0 0 1-26.352941-26.352941V451.764706c0-14.546824 11.776-26.352941 26.352941-26.352941h421.647059z m-26.352941 52.705882h-368.941177v87.823059h368.941177v-87.823059zM712.794353 320a26.352941 26.352941 0 0 1 0 52.705882h-70.294588a26.352941 26.352941 0 0 1 0-52.705882h70.294588zM501.970824 671.382588c14.546824 0 26.352941 11.776 26.352941 26.352941v105.411765a26.352941 26.352941 0 0 1-52.705883 0v-105.411765c0-14.576941 11.776-26.352941 26.352942-26.352941zM361.411765 706.499765c14.546824 0 26.352941 11.806118 26.352941 26.352941V768a26.352941 26.352941 0 1 1-52.705882 0v-35.147294c0-14.546824 11.806118-26.352941 26.352941-26.352941zM642.499765 706.499765c14.576941 0 26.352941 11.806118 26.352941 26.352941V768a26.352941 26.352941 0 1 1-52.705882 0v-35.147294c0-14.546824 11.806118-26.352941 26.352941-26.352941z" fill="#568af2" /></svg>