<svg class="icon" style="width: 1em;height: 1em;vertical-align: middle;fill: currentColor;overflow: hidden;" viewBox="0 0 1024 1024" version="1.1" xmlns="http://www.w3.org/2000/svg" width="32" height="32"><path d="M727.853176 124.235294c33.942588 0 61.470118 27.527529 61.470118 61.500235v562.176a26.352941 26.352941 0 1 1-52.705882 0V185.735529a8.794353 8.794353 0 0 0-8.764236-8.794353h-421.647058a8.794353 8.794353 0 0 0-8.794353 8.794353v562.176a26.352941 26.352941 0 1 1-52.705883 0V185.735529c0-33.972706 27.527529-61.500235 61.500236-61.500235h421.647058z" fill="#568af2" /><path d="M657.558588 616.146824a131.764706 131.764706 0 0 1 0 263.529411H376.470588a131.764706 131.764706 0 1 1 0-263.529411h281.088z m0 52.705882H376.470588a79.058824 79.058824 0 0 0 0 158.117647h281.088a79.058824 79.058824 0 1 0 0-158.117647zM638.945882 272.504471c19.094588-19.124706 51.169882-0.512 44.062118 25.569882l-52.705882 193.264941a26.352941 26.352941 0 0 1-25.449412 19.395765H429.176471a26.352941 26.352941 0 0 1-25.419295-19.395765l-52.705882-193.264941c-7.107765-26.081882 24.937412-44.694588 44.062118-25.6l51.621647 51.651765 51.651765-51.621647a26.352941 26.352941 0 0 1 34.575058-2.349177l2.710589 2.349177 51.621647 51.651764 51.651764-51.651764z m-121.946353 55.898353l-51.621647 51.651764a26.352941 26.352941 0 0 1-37.255529 0l-0.120471-0.090353 21.293177 78.064941h135.439059l21.293176-78.095058a26.383059 26.383059 0 0 1-34.665412 2.469647l-2.710588-2.349177-51.651765-51.651764z" fill="#568af2" /><path d="M657.558588 747.911529m-35.147294 0a35.147294 35.147294 0 1 0 70.294588 0 35.147294 35.147294 0 1 0-70.294588 0Z" fill="#568af2" /></svg>