<svg class="icon" style="width: 1em;height: 1em;vertical-align: middle;fill: currentColor;overflow: hidden;" viewBox="0 0 1024 1024" version="1.1" xmlns="http://www.w3.org/2000/svg" width="32" height="32"><path d="M602.352941 124.235294c33.972706 0 61.500235 27.527529 61.500235 61.500235v632.470589A61.500235 61.500235 0 0 1 602.352941 879.676235H215.853176a61.500235 61.500235 0 0 1-61.500235-61.470117v-632.470589c0-33.972706 27.527529-61.500235 61.500235-61.500235H602.352941z m0 52.705882H215.853176a8.794353 8.794353 0 0 0-8.794352 8.794353v632.470589c0 4.818824 3.915294 8.764235 8.794352 8.764235H602.352941c4.848941 0 8.794353-3.915294 8.794353-8.764235v-632.470589A8.794353 8.794353 0 0 0 602.352941 176.941176z" fill="#568af2" /><path d="M778.029176 581.029647a96.617412 96.617412 0 1 1 0 193.234824H496.941176a96.617412 96.617412 0 1 1 0-193.234824h281.088z m0 52.705882H496.941176a43.911529 43.911529 0 1 0 0 87.823059h281.088a43.911529 43.911529 0 1 0 0-87.823059z" fill="#568af2" /><path d="M286.117647 291.147294m-35.147294 0a35.147294 35.147294 0 1 0 70.294588 0 35.147294 35.147294 0 1 0-70.294588 0Z" fill="#568af2" /><path d="M286.117647 396.559059m-35.147294 0a35.147294 35.147294 0 1 0 70.294588 0 35.147294 35.147294 0 1 0-70.294588 0Z" fill="#568af2" /><path d="M286.117647 501.970824m-35.147294 0a35.147294 35.147294 0 1 0 70.294588 0 35.147294 35.147294 0 1 0-70.294588 0Z" fill="#568af2" /><path d="M409.088 291.147294m-35.147294 0a35.147294 35.147294 0 1 0 70.294588 0 35.147294 35.147294 0 1 0-70.294588 0Z" fill="#568af2" /><path d="M409.088 396.559059m-35.147294 0a35.147294 35.147294 0 1 0 70.294588 0 35.147294 35.147294 0 1 0-70.294588 0Z" fill="#568af2" /><path d="M409.088 501.970824m-35.147294 0a35.147294 35.147294 0 1 0 70.294588 0 35.147294 35.147294 0 1 0-70.294588 0Z" fill="#568af2" /><path d="M532.088471 291.147294m-35.147295 0a35.147294 35.147294 0 1 0 70.294589 0 35.147294 35.147294 0 1 0-70.294589 0Z" fill="#568af2" /><path d="M532.088471 396.559059m-35.147295 0a35.147294 35.147294 0 1 0 70.294589 0 35.147294 35.147294 0 1 0-70.294589 0Z" fill="#568af2" /><path d="M532.088471 501.970824m-35.147295 0a35.147294 35.147294 0 1 0 70.294589 0 35.147294 35.147294 0 1 0-70.294589 0Z" fill="#568af2" /></svg>