<svg class="icon" style="width: 1em;height: 1em;vertical-align: middle;fill: currentColor;overflow: hidden;" viewBox="0 0 1024 1024" version="1.1" xmlns="http://www.w3.org/2000/svg" width="32" height="32"><path d="M768 184.470588c33.972706 0 61.500235 27.527529 61.500235 61.500236V632.470588a61.500235 61.500235 0 0 1-61.500235 61.500236H276.088471A61.500235 61.500235 0 0 1 214.588235 632.470588V245.970824c0-33.972706 27.527529-61.500235 61.500236-61.500236H768z m0 52.705883H276.088471a8.794353 8.794353 0 0 0-8.794353 8.794353V632.470588c0 4.848941 3.915294 8.794353 8.794353 8.794353H768c4.848941 0 8.794353-3.915294 8.794353-8.794353V245.970824a8.794353 8.794353 0 0 0-8.794353-8.794353z" fill="#568af2" /><path d="M346.352941 579.764706m-35.147294 0a35.147294 35.147294 0 1 0 70.294588 0 35.147294 35.147294 0 1 0-70.294588 0Z" fill="#568af2" /><path d="M697.735529 579.764706m-35.147294 0a35.147294 35.147294 0 1 0 70.294589 0 35.147294 35.147294 0 1 0-70.294589 0Z" fill="#568af2" /><path d="M697.735529 289.882353c14.546824 0 26.352941 11.806118 26.352942 26.352941v175.676235a26.352941 26.352941 0 0 1-26.352942 26.352942H346.352941a26.352941 26.352941 0 0 1-26.352941-26.352942V316.235294c0-14.546824 11.806118-26.352941 26.352941-26.352941h351.382588z m-26.383058 52.705882h-298.646589v122.970353h298.646589v-122.970353zM645.089882 647.920941a26.352941 26.352941 0 0 1 37.195294 2.168471l140.559059 158.117647a26.352941 26.352941 0 1 1-39.393882 35.026823l-140.559059-158.117647a26.352941 26.352941 0 0 1 2.198588-37.195294zM380.416 648.975059a26.352941 26.352941 0 0 1 37.285647 37.255529l-158.117647 158.117647a26.352941 26.352941 0 1 1-37.285647-37.255529l158.117647-158.117647z" fill="#568af2" /></svg>