<svg class="icon" style="width: 1em;height: 1em;vertical-align: middle;fill: currentColor;overflow: hidden;" viewBox="0 0 1024 1024" version="1.1" xmlns="http://www.w3.org/2000/svg" width="32" height="32"><path d="M426.767059 548.231529c14.546824 0 26.352941 11.776 26.352941 26.352942v188.385882a26.352941 26.352941 0 0 1-26.352941 26.352941H180.705882a26.352941 26.352941 0 0 1 0-52.705882h219.708236v-162.032941c0-13.432471 10.059294-24.545882 23.04-26.172236l3.312941-0.180706zM750.712471 454.686118a26.352941 26.352941 0 0 1 29.876705-12.649412l67.885177 18.160941a26.352941 26.352941 0 0 1 18.612706 32.286118l-36.352 135.770353a26.352941 26.352941 0 0 1-32.286118 18.612706l-101.797647-27.256471a26.352941 26.352941 0 0 1-16.263529-38.249412l70.324706-126.674823z m36.080941 43.580235l-43.91153 79.149176 43.760942 11.715765 22.708705-84.841412-22.588235-6.023529z" fill="#568af2" /><path d="M218.925176 264.252235a26.352941 26.352941 0 0 1 32.256-18.672941l560.00753 150.076235a26.352941 26.352941 0 0 1 15.179294 39.966118l-29.997176 45.387294-70.927059 127.668706-30.629647 46.351059a26.352941 26.352941 0 0 1-28.792471 10.932706l-492.122353-131.855059a26.352941 26.352941 0 0 1-18.672941-32.286118L218.955294 264.252235z m44.062118 39.062589l-50.025412 186.669176 448.361412 120.139294 19.094588-28.762353 70.294589-126.674823 1.054117-1.716706 10.450824-15.872-499.230118-133.782588z" fill="#568af2" /></svg>