<svg class="icon" style="width: 1em;height: 1em;vertical-align: middle;fill: currentColor;overflow: hidden;" viewBox="0 0 1024 1024" version="1.1" xmlns="http://www.w3.org/2000/svg" width="32" height="32"><path d="M627.350588 667.015529a26.352941 26.352941 0 0 1 0 52.705883H214.437647v87.823059h579.764706v-114.176c0-13.432471 10.059294-24.515765 23.070118-26.142118l3.312941-0.210824c14.546824 0 26.322824 11.806118 26.322823 26.352942v140.559058a26.352941 26.352941 0 0 1-26.352941 26.352942h-632.470588a26.352941 26.352941 0 0 1-26.352941-26.352942v-140.559058c0-14.546824 11.806118-26.352941 26.352941-26.352942H627.350588zM204.016941 260.276706a26.352941 26.352941 0 0 1 33.761883-15.75153l528.293647 192.271059a26.352941 26.352941 0 1 1-18.010353 49.54353L244.525176 303.043765l-30.057411 82.55247 399.962353 145.588706c12.649412 4.608 19.636706 17.829647 16.715294 30.59953l-0.933647 3.19247a26.352941 26.352941 0 0 1-33.792 15.75153L171.700706 426.134588a26.352941 26.352941 0 0 1-15.75153-33.792l48.067765-132.065882z" fill="#568af2" /><path d="M236.965647 172.574118a27.919059 27.919059 0 0 1 35.900235-16.474353l166.942118 61.891764a119.205647 119.205647 0 0 1 70.324706 153.208471 26.895059 26.895059 0 0 1-34.575059 15.841882L220.611765 292.532706a26.352941 26.352941 0 0 1-15.570824-33.882353l31.924706-86.076235zM277.775059 214.136471l-14.155294 38.159058 201.155764 74.571295-0.030117-1.204706a66.56 66.56 0 0 0-38.851765-56.410353l-4.427294-1.807059-143.691294-53.308235zM203.715765 414.539294a26.352941 26.352941 0 0 1 49.543529 18.010353l-21.052235 57.795765L331.294118 526.366118l21.022117-57.765647a26.352941 26.352941 0 0 1 30.59953-16.685177l3.162353 0.933647a26.352941 26.352941 0 0 1 15.751529 33.792l-24.033882 66.017883a43.911529 43.911529 0 0 1-56.32 26.262588l-115.531294-42.074353a43.911529 43.911529 0 0 1-26.262589-56.289883l24.033883-66.017882zM715.173647 456.192a149.323294 149.323294 0 1 1 0 298.676706 149.323294 149.323294 0 0 1 0-298.676706z m0 52.705882a96.617412 96.617412 0 1 0 0 193.264942 96.617412 96.617412 0 0 0 0-193.264942z" fill="#568af2" /></svg>