<svg class="icon" style="width: 1em;height: 1em;vertical-align: middle;fill: currentColor;overflow: hidden;" viewBox="0 0 1024 1024" version="1.1" xmlns="http://www.w3.org/2000/svg" width="32" height="32"><path d="M629.970824 154.352941c14.546824 0 26.352941 11.806118 26.352941 26.352941v140.559059a26.352941 26.352941 0 0 1-52.705883 0V207.058824h-158.117647v114.206117a26.352941 26.352941 0 0 1-23.070117 26.142118l-3.312942 0.210823a26.352941 26.352941 0 0 1-26.322823-26.352941V180.705882c0-14.546824 11.776-26.352941 26.352941-26.352941h210.82353z" fill="#568af2" /><path d="M711.228235 294.912c18.191059 0 32.918588 14.727529 32.918589 32.918588v362.37553a219.617882 219.617882 0 0 1-439.205648 0V327.830588c0-18.191059 14.757647-32.918588 32.918589-32.918588h373.36847z m-19.787294 52.705882H357.647059v342.588236a166.912 166.912 0 0 0 160.346353 166.761411l6.565647 0.120471a166.912 166.912 0 0 0 166.881882-166.881882V347.617882z" fill="#568af2" /><path d="M594.823529 453.029647a26.352941 26.352941 0 1 1 0 52.705882h-140.559058a26.352941 26.352941 0 0 1 0-52.705882h140.559058zM594.823529 593.558588a26.352941 26.352941 0 0 1 0 52.705883h-140.559058a26.352941 26.352941 0 0 1 0-52.705883h140.559058z" fill="#568af2" /></svg>