<svg class="icon" style="width: 1em;height: 1em;vertical-align: middle;fill: currentColor;overflow: hidden;" viewBox="0 0 1024 1024" version="1.1" xmlns="http://www.w3.org/2000/svg" width="32" height="32"><path d="M524.920471 185.012706c204.348235 0 369.995294 165.647059 369.995294 370.025412 0 98.785882-33.129412 193.656471-92.882824 258.409411a25.810824 25.810824 0 0 1-18.974117 8.342589H266.752c-7.228235 0-14.095059-3.011765-18.974118-8.312471-59.723294-64.752941-92.882824-159.623529-92.882823-258.439529 0-204.378353 165.647059-370.025412 370.025412-370.025412z m0 51.621647c-175.856941 0-318.403765 142.546824-318.403765 318.403765 0 79.209412 24.184471 154.985412 67.072 209.197176l4.848941 5.903059h492.905412l4.879059-5.903059c40.96-51.742118 64.843294-123.120941 66.921411-198.415059l0.150589-10.782117c0-175.856941-142.546824-318.403765-318.373647-318.403765z" fill="#568af2" /><path d="M524.920471 512a94.659765 94.659765 0 1 1 0 189.319529 94.659765 94.659765 0 0 1 0-189.319529z m0 51.621647a43.038118 43.038118 0 1 0 0 86.046118 43.038118 43.038118 0 0 0 0-86.046118z" fill="#568af2" /><path d="M524.920471 408.726588c14.245647 0 25.810824 11.565176 25.810823 25.840941v103.243295a25.810824 25.810824 0 1 1-51.651765 0V434.597647c0-14.275765 11.565176-25.840941 25.840942-25.840941zM524.920471 271.058824c14.245647 0 25.810824 11.565176 25.810823 25.810823V331.294118a25.810824 25.810824 0 1 1-51.651765 0V296.869647c0-14.245647 11.565176-25.810824 25.840942-25.810823zM301.176471 546.424471a25.810824 25.810824 0 0 1 0 51.621647H266.752a25.810824 25.810824 0 0 1 0-51.621647H301.176471zM317.349647 381.891765a25.810824 25.810824 0 0 1 36.502588 0l24.335059 24.335059a25.810824 25.810824 0 0 1-36.502588 36.502588l-24.335059-24.335059a25.810824 25.810824 0 0 1 0-36.502588zM783.058824 546.424471a25.810824 25.810824 0 0 1 0 51.621647h-34.424471a25.810824 25.810824 0 0 1 0-51.621647H783.058824zM703.096471 381.891765a25.810824 25.810824 0 0 1 36.502588 36.502588l-24.335059 24.335059a25.810824 25.810824 0 1 1-36.502588-36.502588l24.335059-24.335059z" fill="#568af2" /></svg>