<svg class="icon" style="width: 1em;height: 1em;vertical-align: middle;fill: currentColor;overflow: hidden;" viewBox="0 0 1024 1024" version="1.1" xmlns="http://www.w3.org/2000/svg" width="32" height="32"><path d="M848.323765 570.970353c14.546824 0 26.352941 11.806118 26.352941 26.352941V843.294118a26.352941 26.352941 0 0 1-26.352941 26.352941H180.705882A26.352941 26.352941 0 0 1 154.352941 843.294118v-245.970824c0-14.546824 11.806118-26.352941 26.352941-26.352941h667.617883z m-26.383059 52.705882H207.058824v193.234824h614.881882v-193.234824zM848.323765 184.470588c14.546824 0 26.352941 11.806118 26.352941 26.352941v245.970824a26.352941 26.352941 0 0 1-26.352941 26.352941H180.705882a26.352941 26.352941 0 0 1-26.352941-26.352941V210.823529c0-14.546824 11.806118-26.352941 26.352941-26.352941h667.617883z m-26.383059 52.705883H207.058824v193.234823h614.881882V237.176471z" fill="#568af2" /><path d="M286.117647 298.676706m35.147294 0l-0.030117 0q35.147294 0 35.147294 35.147294l0-0.030118q0 35.147294-35.147294 35.147294l0.030117 0q-35.147294 0-35.147294-35.147294l0 0.030118q0-35.147294 35.147294-35.147294Z" fill="#568af2" /><path d="M286.117647 685.176471m35.147294 0l-0.030117 0q35.147294 0 35.147294 35.147294l0-0.030118q0 35.147294-35.147294 35.147294l0.030117 0q-35.147294 0-35.147294-35.147294l0 0.030118q0-35.147294 35.147294-35.147294Z" fill="#568af2" /><path d="M426.676706 298.676706m35.147294 0l-0.030118 0q35.147294 0 35.147294 35.147294l0-0.030118q0 35.147294-35.147294 35.147294l0.030118 0q-35.147294 0-35.147294-35.147294l0 0.030118q0-35.147294 35.147294-35.147294Z" fill="#568af2" /><path d="M426.676706 685.176471m35.147294 0l-0.030118 0q35.147294 0 35.147294 35.147294l0-0.030118q0 35.147294-35.147294 35.147294l0.030118 0q-35.147294 0-35.147294-35.147294l0 0.030118q0-35.147294 35.147294-35.147294Z" fill="#568af2" /><path d="M707.764706 307.440941a26.352941 26.352941 0 0 1 0 52.705883h-70.264471a26.352941 26.352941 0 1 1 0-52.705883H707.764706zM707.764706 693.970824a26.352941 26.352941 0 1 1 0 52.705882h-70.264471a26.352941 26.352941 0 0 1 0-52.705882H707.764706z" fill="#568af2" /></svg>