<svg class="icon" style="width: 1em;height: 1em;vertical-align: middle;fill: currentColor;overflow: hidden;" viewBox="0 0 1024 1024" version="1.1" xmlns="http://www.w3.org/2000/svg" width="32" height="32"><path d="M519.529412 219.617882a26.352941 26.352941 0 1 1 0 52.705883H273.558588a26.352941 26.352941 0 0 0-26.352941 26.352941v342.588235h509.470118l0.030117-131.764706c0-13.432471 10.059294-24.545882 23.04-26.172235l3.312942-0.180706c14.546824 0 26.352941 11.776 26.352941 26.352941v158.117647a26.352941 26.352941 0 0 1-26.352941 26.352942H220.852706a26.352941 26.352941 0 0 1-26.352941-26.352942V298.676706a79.058824 79.058824 0 0 1 79.058823-79.058824h245.970824z" fill="#568af2" /><path d="M853.323294 641.264941c14.576941 0 26.352941 11.776 26.352941 26.352941v35.117177a131.764706 131.764706 0 0 1-131.764706 131.764706H256a131.764706 131.764706 0 0 1-131.764706-131.764706v-35.117177c0-14.576941 11.806118-26.352941 26.352941-26.352941h702.735059z m-26.352941 52.705883H176.941176v8.764235a79.058824 79.058824 0 0 0 74.059295 78.908235l4.999529 0.150588h491.911529a79.058824 79.058824 0 0 0 79.058824-79.058823v-8.764235zM730.352941 184.470588c14.546824 0 26.352941 11.806118 26.352941 26.352941v210.82353a26.352941 26.352941 0 1 1-52.705882 0V210.823529c0-14.546824 11.806118-26.352941 26.352941-26.352941z" fill="#568af2" /><path d="M711.710118 192.180706a26.352941 26.352941 0 0 1 37.285647 0l87.823059 87.853176a26.352941 26.352941 0 1 1-37.25553 37.25553l-69.24047-69.210353-69.180236 69.210353a26.352941 26.352941 0 0 1-34.575059 2.379294l-2.710588-2.379294a26.352941 26.352941 0 0 1 0-37.25553l87.853177-87.853176z" fill="#568af2" /></svg>