<svg class="icon" style="width: 1em;height: 1em;vertical-align: middle;fill: currentColor;overflow: hidden;" viewBox="0 0 1024 1024" version="1.1" xmlns="http://www.w3.org/2000/svg" width="32" height="32"><path d="M790.588235 184.470588a79.058824 79.058824 0 0 1 79.058824 79.058824v527.058823a79.058824 79.058824 0 0 1-79.058824 79.058824H263.529412a79.058824 79.058824 0 0 1-79.058824-79.058824V263.529412A79.058824 79.058824 0 0 1 263.529412 184.470588h527.058823z m0 52.705883H263.529412a26.352941 26.352941 0 0 0-26.352941 26.352941v527.058823c0 14.546824 11.806118 26.352941 26.352941 26.352941h527.058823a26.352941 26.352941 0 0 0 26.352941-26.352941V263.529412a26.352941 26.352941 0 0 0-26.352941-26.352941z" fill="#568af2" /><path d="M439.205647 360.146824c14.576941 0 26.352941 11.806118 26.352941 26.352941v281.118117a26.352941 26.352941 0 0 1-52.705882 0v-281.118117c0-14.546824 11.806118-26.352941 26.352941-26.352941zM614.912 360.146824c14.546824 0 26.352941 11.806118 26.352941 26.352941v281.118117a26.352941 26.352941 0 0 1-52.705882 0v-281.118117c0-14.546824 11.776-26.352941 26.352941-26.352941z" fill="#568af2" /><path d="M667.617882 412.852706a26.352941 26.352941 0 0 1 0 52.705882h-281.118117a26.352941 26.352941 0 0 1 0-52.705882h281.118117zM667.617882 588.559059a26.352941 26.352941 0 0 1 0 52.705882h-281.118117a26.352941 26.352941 0 0 1 0-52.705882h281.118117z" fill="#568af2" /></svg>