<svg class="icon" style="width: 1em;height: 1em;vertical-align: middle;fill: currentColor;overflow: hidden;" viewBox="0 0 1024 1024" version="1.1" xmlns="http://www.w3.org/2000/svg" width="32" height="32"><path d="M522.029176 154.352941c169.803294 0 307.471059 137.637647 307.471059 307.440941s-137.637647 307.471059-307.471059 307.471059c-169.803294 0-307.440941-137.637647-307.440941-307.471059 0-169.803294 137.637647-307.440941 307.440941-307.440941z m0 52.705883a254.735059 254.735059 0 1 0 0 509.500235 254.735059 254.735059 0 0 0 0-509.500235z" fill="#568af2" /><path d="M522.029176 312.470588a149.323294 149.323294 0 1 1 0 298.676706 149.323294 149.323294 0 0 1 0-298.676706z m0 52.705883a96.617412 96.617412 0 1 0 0 193.264941 96.617412 96.617412 0 0 0 0-193.264941zM662.588235 821.970824a26.352941 26.352941 0 1 1 0 52.705882h-281.088a26.352941 26.352941 0 0 1 0-52.705882H662.588235z" fill="#568af2" /><path d="M522.029176 716.559059c14.576941 0 26.352941 11.776 26.352942 26.352941v105.411765a26.352941 26.352941 0 0 1-52.705883 0v-105.411765c0-14.576941 11.806118-26.352941 26.352941-26.352941z" fill="#568af2" /></svg>