<svg class="icon" style="width: 1em;height: 1em;vertical-align: middle;fill: currentColor;overflow: hidden;" viewBox="0 0 1024 1024" version="1.1" xmlns="http://www.w3.org/2000/svg" width="32" height="32"><path d="M514.499765 154.352941c198.927059 0 360.176941 161.249882 360.176941 360.146824 0 198.927059-161.249882 360.176941-360.176941 360.176941-198.896941 0-360.146824-161.249882-360.146824-360.176941 0-198.896941 161.249882-360.146824 360.146824-360.146824z m0 52.705883c-169.803294 0-307.440941 137.637647-307.440941 307.440941s137.637647 307.471059 307.440941 307.471059 307.471059-137.637647 307.471059-307.471059c0-169.803294-137.637647-307.440941-307.471059-307.440941z" fill="#568af2" /><path d="M751.796706 524.950588a118.753882 118.753882 0 0 1-118.753882 118.723765h-237.056a118.753882 118.753882 0 1 1 0-237.507765h237.056a118.753882 118.753882 0 0 1 118.753882 118.753883z m-52.705882 0a66.048 66.048 0 0 0-66.048-66.078117h-237.056a66.048 66.048 0 0 0 0 132.096h237.056a66.048 66.048 0 0 0 66.048-66.048z" fill="#568af2" /><path d="M637.590588 643.674353a114.206118 114.206118 0 1 1 0-228.382118 114.206118 114.206118 0 0 1 0 228.382118z m0-52.705882a61.500235 61.500235 0 1 0 0-122.970353 61.500235 61.500235 0 0 0 0 122.970353z" fill="#568af2" /></svg>