<svg class="icon" style="width: 1em;height: 1em;vertical-align: middle;fill: currentColor;overflow: hidden;" viewBox="0 0 1024 1024" version="1.1" xmlns="http://www.w3.org/2000/svg" width="32" height="32"><path d="M471.341176 274.672941a26.352941 26.352941 0 0 1 37.044706-4.126117l351.382589 281.118117a26.352941 26.352941 0 0 1 5.24047 35.508706l-193.264941 281.088a26.352941 26.352941 0 0 1-43.429647-29.846588l179.350588-260.939294-332.197647-265.758118a26.352941 26.352941 0 0 1-6.174118-34.093176l2.048-2.95153z" fill="#568af2" /><path d="M443.723294 127.698824a26.352941 26.352941 0 0 1 31.683765 4.246588l70.294588 70.294588c8.402824 8.402824 10.119529 21.383529 4.216471 31.683765l-140.528942 245.970823a26.352941 26.352941 0 0 1-41.502117 5.571765L192.150588 309.76a26.352941 26.352941 0 0 1 5.571765-41.502118l245.970823-140.559058z m8.643765 55.747764L253.861647 296.899765l126.855529 126.855529 113.453177-198.505412-41.803294-41.803294zM773.029647 826.970353a26.352941 26.352941 0 0 1 0 52.705882H316.235294a26.352941 26.352941 0 1 1 0-52.705882h456.794353z" fill="#568af2" /><path d="M404.088471 756.705882c14.546824 0 26.352941 11.806118 26.352941 26.352942v70.26447a26.352941 26.352941 0 0 1-52.705883 0V783.058824c0-14.546824 11.776-26.352941 26.352942-26.352942z" fill="#568af2" /></svg>