<svg class="icon" style="width: 1em;height: 1em;vertical-align: middle;fill: currentColor;overflow: hidden;" viewBox="0 0 1024 1024" version="1.1" xmlns="http://www.w3.org/2000/svg" width="32" height="32"><path d="M768 212.088471c12.288 0 22.949647 8.493176 25.690353 20.48l35.147294 153.72047a26.352941 26.352941 0 0 1-1.505882 16.293647l-122.970353 285.515294a26.352941 26.352941 0 0 1-24.214588 15.902118h-316.235295a26.352941 26.352941 0 0 1-24.18447-15.932235l-123.000471-285.485177a26.352941 26.352941 0 0 1-1.475764-16.293647l35.147294-153.72047a26.352941 26.352941 0 0 1 25.690353-20.48H768z m-21.022118 52.705882H297.050353l-28.491294 124.867765 112.670117 261.632h281.569883l112.700235-261.632-28.521412-124.867765z" fill="#568af2" /><path d="M416.617412 124.235294c14.576941 0 26.352941 11.806118 26.352941 26.352941v87.853177a26.352941 26.352941 0 1 1-52.705882 0V150.588235c0-14.546824 11.806118-26.352941 26.352941-26.352941zM627.440941 124.235294c14.576941 0 26.352941 11.806118 26.352941 26.352941v87.853177a26.352941 26.352941 0 1 1-52.705882 0V150.588235c0-14.546824 11.806118-26.352941 26.352941-26.352941zM522.029176 651.294118c14.576941 0 26.352941 11.806118 26.352942 26.352941v149.323294h228.382117v-103.092706c0-13.432471 10.059294-24.515765 23.070118-26.142118l3.312941-0.210823c14.546824 0 26.352941 11.806118 26.352941 26.352941v129.445647a26.352941 26.352941 0 0 1-26.352941 26.352941h-281.118118a26.352941 26.352941 0 0 1-26.352941-26.352941V677.647059c0-14.546824 11.806118-26.352941 26.352941-26.352941zM627.440941 422.912a26.352941 26.352941 0 1 1 0 52.705882h-210.823529a26.352941 26.352941 0 0 1 0-52.705882h210.823529z" fill="#568af2" /></svg>