<svg class="icon" style="width: 1em;height: 1em;vertical-align: middle;fill: currentColor;overflow: hidden;" viewBox="0 0 1024 1024" version="1.1" xmlns="http://www.w3.org/2000/svg" width="32" height="32"><path d="M607.382588 244.705882a272.323765 272.323765 0 0 1 0 544.617412h-210.823529a272.323765 272.323765 0 1 1 0-544.617412h210.823529z m0 52.705883h-210.823529a219.617882 219.617882 0 0 0 0 439.205647h210.823529a219.617882 219.617882 0 1 0 0-439.205647z" fill="#568af2" /><path d="M624.941176 429.176471m-35.147294 0a35.147294 35.147294 0 1 0 70.294589 0 35.147294 35.147294 0 1 0-70.294589 0Z" fill="#568af2" /><path d="M695.205647 517.029647m-35.147294 0a35.147294 35.147294 0 1 0 70.294588 0 35.147294 35.147294 0 1 0-70.294588 0Z" fill="#568af2" /><path d="M378.970353 402.823529c14.576941 0 26.352941 11.806118 26.352941 26.352942v175.676235a26.352941 26.352941 0 1 1-52.705882 0V429.176471c0-14.546824 11.806118-26.352941 26.352941-26.352942z" fill="#568af2" /></svg>