<svg class="icon" style="width: 1em;height: 1em;vertical-align: middle;fill: currentColor;overflow: hidden;" viewBox="0 0 1024 1024" version="1.1" xmlns="http://www.w3.org/2000/svg" width="32" height="32"><path d="M678.219294 124.235294c7.077647 0 13.854118 2.861176 18.82353 7.920941l124.928 127.789177c4.818824 4.909176 7.529412 11.535059 7.529411 18.401882v574.976a26.352941 26.352941 0 0 1-26.352941 26.352941H240.941176a26.352941 26.352941 0 0 1-26.352941-26.352941V150.588235c0-14.546824 11.806118-26.352941 26.352941-26.352941h437.278118z m-11.113412 52.705882H267.294118v650.029177h509.470117V289.069176L667.105882 176.941176z" fill="#568af2" /><path d="M680.146824 510.735059c14.576941 0 26.352941 11.806118 26.352941 26.352941v175.706353a26.352941 26.352941 0 0 1-26.352941 26.352941h-316.235295a26.352941 26.352941 0 0 1-26.352941-26.352941v-175.706353c0-14.546824 11.806118-26.352941 26.352941-26.352941h316.235295z m-26.352942 52.705882h-263.529411v122.970353h263.529411v-122.970353zM363.911529 264.794353c14.576941 0 26.352941 11.776 26.352942 26.352941v105.411765a26.352941 26.352941 0 0 1-52.705883 0v-105.411765c0-14.576941 11.806118-26.352941 26.352941-26.352941zM469.323294 264.794353c14.576941 0 26.352941 11.776 26.352941 26.352941v105.411765a26.352941 26.352941 0 0 1-52.705882 0v-105.411765c0-14.576941 11.806118-26.352941 26.352941-26.352941zM574.735059 264.794353c14.576941 0 26.352941 11.776 26.352941 26.352941v105.411765a26.352941 26.352941 0 0 1-52.705882 0v-105.411765c0-14.576941 11.806118-26.352941 26.352941-26.352941z" fill="#568af2" /></svg>