<svg class="icon" style="width: 1em;height: 1em;vertical-align: middle;fill: currentColor;overflow: hidden;" viewBox="0 0 1024 1024" version="1.1" xmlns="http://www.w3.org/2000/svg" width="32" height="32"><path d="M818.206118 244.705882c33.942588 0 61.470118 27.527529 61.470117 61.500236v351.35247a61.500235 61.500235 0 0 1-61.470117 61.500236h-632.470589a61.500235 61.500235 0 0 1-61.500235-61.500236V306.206118c0-33.972706 27.527529-61.500235 61.500235-61.500236h632.470589z m0 52.705883h-632.470589a8.794353 8.794353 0 0 0-8.794353 8.794353v351.35247c0 4.848941 3.915294 8.794353 8.794353 8.794353h632.470589c4.818824 0 8.764235-3.915294 8.764235-8.794353V306.206118a8.794353 8.794353 0 0 0-8.764235-8.794353z" fill="#568af2" /><path d="M396.559059 402.823529a26.352941 26.352941 0 0 1 0 52.705883h-105.411765a26.352941 26.352941 0 1 1 0-52.705883h105.411765zM361.411765 508.235294a26.352941 26.352941 0 1 1 0 52.705882H291.147294a26.352941 26.352941 0 1 1 0-52.705882H361.411765zM326.264471 666.352941c14.576941 0 26.352941 11.806118 26.352941 26.352941v105.411765a26.352941 26.352941 0 1 1-52.705883 0V692.705882c0-14.546824 11.806118-26.352941 26.352942-26.352941zM677.647059 666.352941c14.546824 0 26.352941 11.806118 26.352941 26.352941v105.411765a26.352941 26.352941 0 1 1-52.705882 0V692.705882c0-14.546824 11.806118-26.352941 26.352941-26.352941zM624.941176 367.676235a114.206118 114.206118 0 1 1 0 228.412236 114.206118 114.206118 0 0 1 0-228.412236z m0 52.705883a61.500235 61.500235 0 1 0 0 123.00047 61.500235 61.500235 0 0 0 0-123.00047z" fill="#568af2" /></svg>