<svg class="icon" style="width: 1em;height: 1em;vertical-align: middle;fill: currentColor;overflow: hidden;" viewBox="0 0 1024 1024" version="1.1" xmlns="http://www.w3.org/2000/svg" width="32" height="32"><path d="M838.083765 304.941176a61.500235 61.500235 0 0 1 60.928 69.812706l-43.128471 316.235294a61.500235 61.500235 0 0 1-60.928 53.157648H259.011765a61.500235 61.500235 0 0 1-60.928-53.157648l-43.128471-316.235294a61.500235 61.500235 0 0 1 60.928-69.812706h622.230588z m0 52.705883H215.853176a8.794353 8.794353 0 0 0-8.734117 9.968941l43.158588 316.235294c0.602353 4.367059 4.306824 7.589647 8.704 7.589647h535.973647c4.397176 0 8.131765-3.222588 8.734118-7.589647l43.098353-316.235294a8.794353 8.794353 0 0 0-8.704-9.968941z" fill="#568af2" /><path d="M474.262588 445.500235a26.352941 26.352941 0 0 1 0 52.705883H439.115294a26.352941 26.352941 0 0 1 0-52.705883h35.147294zM544.527059 550.912a26.352941 26.352941 0 1 1 0 52.705882h-35.117177a26.352941 26.352941 0 0 1 0-52.705882h35.117177zM333.703529 445.500235a26.352941 26.352941 0 1 1 0 52.705883H298.586353a26.352941 26.352941 0 0 1 0-52.705883h35.117176zM403.998118 550.912a26.352941 26.352941 0 0 1 0 52.705882h-35.147294a26.352941 26.352941 0 0 1 0-52.705882h35.147294zM614.821647 445.500235a26.352941 26.352941 0 0 1 0 52.705883h-35.147294a26.352941 26.352941 0 0 1 0-52.705883h35.147294zM685.086118 550.912a26.352941 26.352941 0 0 1 0 52.705882H649.938824a26.352941 26.352941 0 0 1 0-52.705882h35.147294zM755.350588 445.500235a26.352941 26.352941 0 1 1 0 52.705883h-35.117176a26.352941 26.352941 0 0 1 0-52.705883h35.117176z" fill="#568af2" /></svg>