<svg class="icon" style="width: 1em;height: 1em;vertical-align: middle;fill: currentColor;overflow: hidden;" viewBox="0 0 1024 1024" version="1.1" xmlns="http://www.w3.org/2000/svg" width="32" height="32"><path d="M676.382118 264.794353c33.972706 0 61.500235 27.527529 61.500235 61.470118V677.647059a61.500235 61.500235 0 0 1-61.500235 61.500235h-316.235294A61.500235 61.500235 0 0 1 298.676706 677.647059V326.264471c0-33.942588 27.527529-61.470118 61.470118-61.470118h316.235294z m0 52.705882h-316.235294a8.794353 8.794353 0 0 0-8.764236 8.764236V677.647059c0 4.848941 3.915294 8.794353 8.764236 8.794353h316.235294c4.848941 0 8.794353-3.915294 8.794353-8.794353V326.264471a8.794353 8.794353 0 0 0-8.794353-8.764236z" fill="#568af2" /><path d="M518.264471 264.794353c14.576941 0 26.352941 11.776 26.352941 26.352941v105.411765a26.352941 26.352941 0 0 1-52.705883 0v-105.411765c0-14.576941 11.806118-26.352941 26.352942-26.352941z" fill="#568af2" /><path d="M570.970353 264.794353a26.352941 26.352941 0 1 1 0 52.705882h-105.411765a26.352941 26.352941 0 0 1 0-52.705882h105.411765zM518.264471 581.029647c14.576941 0 26.352941 11.776 26.352941 26.352941v105.411765a26.352941 26.352941 0 0 1-52.705883 0v-105.411765c0-14.576941 11.806118-26.352941 26.352942-26.352941z" fill="#568af2" /><path d="M570.970353 686.441412a26.352941 26.352941 0 1 1 0 52.705882h-105.411765a26.352941 26.352941 0 0 1 0-52.705882h105.411765zM711.228235 474.443294a26.352941 26.352941 0 1 1 0.602353 52.705882l-105.411764 1.174589a26.352941 26.352941 0 0 1-0.602353-52.705883l105.411764-1.174588z" fill="#568af2" /><path d="M711.529412 422.912c14.546824 0 26.352941 11.776 26.352941 26.352941v105.411765a26.352941 26.352941 0 0 1-52.705882 0v-105.411765c0-14.576941 11.806118-26.352941 26.352941-26.352941zM430.140235 475.617882a26.352941 26.352941 0 1 1 0.602353 52.705883l-105.411764 1.14447a26.352941 26.352941 0 0 1-0.602353-52.705882l105.411764-1.144471z" fill="#568af2" /><path d="M325.029647 422.912c14.546824 0 26.352941 11.776 26.352941 26.352941v105.411765a26.352941 26.352941 0 0 1-52.705882 0v-105.411765c0-14.576941 11.776-26.352941 26.352941-26.352941zM641.264941 124.235294c14.546824 0 26.352941 11.806118 26.352941 26.352941v140.559059a26.352941 26.352941 0 0 1-52.705882 0l-0.030118-114.206118H421.647059v114.206118a26.352941 26.352941 0 0 1-23.04 26.142118l-3.312941 0.210823a26.352941 26.352941 0 0 1-26.352942-26.352941V150.588235c0-14.546824 11.806118-26.352941 26.352942-26.352941h245.970823zM641.264941 686.441412c14.546824 0 26.352941 11.776 26.352941 26.352941v122.970353c0 24.244706-19.666824 43.911529-43.941647 43.911529h-210.823529a43.911529 43.911529 0 0 1-43.91153-43.911529v-122.970353a26.352941 26.352941 0 1 1 52.705883 0v114.145882h193.234823v-114.145882c0-13.432471 10.059294-24.545882 23.070118-26.172235l3.312941-0.180706zM219.617882 405.323294c14.546824 0 26.352941 11.806118 26.352942 26.352941V572.235294a26.352941 26.352941 0 1 1-52.705883 0v-140.559059c0-14.546824 11.776-26.352941 26.352941-26.352941zM816.941176 405.323294c14.546824 0 26.352941 11.806118 26.352942 26.352941V572.235294a26.352941 26.352941 0 1 1-52.705883 0v-140.559059c0-14.546824 11.806118-26.352941 26.352941-26.352941z" fill="#568af2" /></svg>