<svg class="icon" style="width: 1em;height: 1em;vertical-align: middle;fill: currentColor;overflow: hidden;" viewBox="0 0 1024 1024" version="1.1" xmlns="http://www.w3.org/2000/svg" width="32" height="32"><path d="M848.323765 154.352941c14.546824 0 26.352941 11.806118 26.352941 26.352941v667.617883a26.352941 26.352941 0 0 1-26.352941 26.352941H496.941176v-52.705882l324.99953-0.030118V207.058824H365.176471v149.323294h-52.705883V180.705882c0-14.546824 11.806118-26.352941 26.352941-26.352941h509.500236z" fill="#568af2" /><path d="M496.941176 330.029176c14.546824 0 26.352941 11.806118 26.352942 26.352942v491.941647a26.352941 26.352941 0 0 1-26.352942 26.352941H180.705882a26.352941 26.352941 0 0 1-26.352941-26.352941V356.382118c0-14.546824 11.806118-26.352941 26.352941-26.352942h316.235294z m-26.352941 52.705883h-263.529411v439.205647h263.529411V382.735059z" fill="#568af2" /><path d="M356.382118 716.559059a26.352941 26.352941 0 1 1 0 52.705882h-35.117177a26.352941 26.352941 0 0 1 0-52.705882h35.117177zM619.911529 716.559059a26.352941 26.352941 0 1 1 0 52.705882h-35.117176a26.352941 26.352941 0 0 1 0-52.705882h35.117176z" fill="#568af2" /></svg>