<svg class="icon" style="width: 1em;height: 1em;vertical-align: middle;fill: currentColor;overflow: hidden;" viewBox="0 0 1024 1024" version="1.1" xmlns="http://www.w3.org/2000/svg" width="32" height="32"><path d="M813.176471 325.029647c33.972706 0 61.500235 27.527529 61.500235 61.470118v421.647059A61.500235 61.500235 0 0 1 813.176471 869.647059H215.853176a61.500235 61.500235 0 0 1-61.500235-61.500235v-421.647059c0-33.942588 27.527529-61.470118 61.500235-61.470118H813.176471z m0 52.705882H215.853176a8.794353 8.794353 0 0 0-8.794352 8.764236v421.647059c0 4.848941 3.915294 8.794353 8.794352 8.794352H813.176471c4.848941 0 8.794353-3.915294 8.794353-8.794352v-421.647059a8.794353 8.794353 0 0 0-8.794353-8.764236z" fill="#568af2" /><path d="M725.323294 465.558588a26.352941 26.352941 0 0 1 0 52.705883H655.058824a26.352941 26.352941 0 1 1 0-52.705883h70.26447zM725.323294 570.970353a26.352941 26.352941 0 0 1 0 52.705882H655.058824a26.352941 26.352941 0 1 1 0-52.705882h70.26447zM725.323294 676.382118a26.352941 26.352941 0 0 1 0 52.705882H655.058824a26.352941 26.352941 0 1 1 0-52.705882h70.26447zM409.088 448a149.323294 149.323294 0 1 1 0 298.676706 149.323294 149.323294 0 0 1 0-298.676706z m0 52.705882a96.617412 96.617412 0 1 0 0 193.264942 96.617412 96.617412 0 0 0 0-193.264942zM760.470588 184.470588c14.546824 0 26.352941 11.806118 26.352941 26.352941v140.559059a26.352941 26.352941 0 0 1-52.705882 0V237.176471H294.912v114.206117a26.352941 26.352941 0 0 1-23.070118 26.142118l-3.312941 0.210823a26.352941 26.352941 0 0 1-26.322823-26.352941V210.823529c0-14.546824 11.776-26.352941 26.352941-26.352941H760.470588z" fill="#568af2" /></svg>