<svg class="icon" style="width: 1em;height: 1em;vertical-align: middle;fill: currentColor;overflow: hidden;" viewBox="0 0 1024 1024" version="1.1" xmlns="http://www.w3.org/2000/svg" width="32" height="32"><path d="M449.264941 219.617882a26.352941 26.352941 0 0 1 0 52.705883H273.558588a26.352941 26.352941 0 0 0-26.352941 26.352941v342.588235h509.470118l0.030117-96.647529c0-13.432471 10.059294-24.515765 23.04-26.142118l3.312942-0.210823c14.546824 0 26.352941 11.806118 26.352941 26.352941v123.00047a26.352941 26.352941 0 0 1-26.352941 26.352942H220.852706a26.352941 26.352941 0 0 1-26.352941-26.352942V298.676706a79.058824 79.058824 0 0 1 79.058823-79.058824h175.706353z" fill="#568af2" /><path d="M853.323294 641.264941c14.576941 0 26.352941 11.776 26.352941 26.352941v35.117177a131.764706 131.764706 0 0 1-131.764706 131.764706H256a131.764706 131.764706 0 0 1-131.764706-131.764706v-35.117177c0-14.576941 11.806118-26.352941 26.352941-26.352941h702.735059z m-26.352941 52.705883H176.941176v8.764235a79.058824 79.058824 0 0 0 74.059295 78.908235l4.999529 0.150588h491.911529a79.058824 79.058824 0 0 0 79.058824-79.058823v-8.764235zM695.205647 254.735059a79.058824 79.058824 0 1 1 0 158.117647 79.058824 79.058824 0 0 1 0-158.117647z m0 52.705882a26.352941 26.352941 0 1 0 0 52.705883 26.352941 26.352941 0 0 0 0-52.705883z" fill="#568af2" /><path d="M695.205647 360.146824c14.576941 0 26.352941 11.806118 26.352941 26.352941v70.294588a26.352941 26.352941 0 0 1-52.705882 0v-70.294588c0-14.546824 11.806118-26.352941 26.352941-26.352941zM695.205647 184.470588c14.576941 0 26.352941 11.806118 26.352941 26.352941v70.264471a26.352941 26.352941 0 1 1-52.705882 0V210.823529c0-14.546824 11.806118-26.352941 26.352941-26.352941z" fill="#568af2" /><path d="M636.385882 337.317647a26.352941 26.352941 0 1 1 26.352942 45.658353l-60.837648 35.147294a26.352941 26.352941 0 0 1-26.352941-45.658353l60.837647-35.117176zM788.540235 249.494588a26.352941 26.352941 0 0 1 26.352941 45.628236l-60.837647 35.147294a26.352941 26.352941 0 0 1-26.383058-45.628236l60.867764-35.147294z" fill="#568af2" /><path d="M565.910588 259.132235a26.352941 26.352941 0 0 1 35.960471-9.637647l60.867765 35.147294a26.352941 26.352941 0 0 1-26.352942 45.628236L575.548235 295.152941a26.352941 26.352941 0 0 1-9.637647-35.990588zM718.034824 346.955294a26.352941 26.352941 0 0 1 35.990588-9.637647l60.867764 35.147294a26.352941 26.352941 0 0 1-26.352941 45.658353l-60.837647-35.147294a26.352941 26.352941 0 0 1-9.637647-35.990588z" fill="#568af2" /></svg>