<svg class="icon" style="width: 1em;height: 1em;vertical-align: middle;fill: currentColor;overflow: hidden;" viewBox="0 0 1024 1024" version="1.1" xmlns="http://www.w3.org/2000/svg" width="32" height="32"><path d="M843.294118 448c14.546824 0 26.352941 11.806118 26.352941 26.352941V843.294118a26.352941 26.352941 0 0 1-26.352941 26.352941H210.823529A26.352941 26.352941 0 0 1 184.470588 843.294118V474.352941c0-14.546824 11.806118-26.352941 26.352941-26.352941h632.470589z m-26.352942 52.705882H237.176471v316.235294h579.764705v-316.235294z" fill="#568af2" /><path d="M702.735059 184.470588c14.576941 0 26.352941 11.806118 26.352941 26.352941v263.529412a26.352941 26.352941 0 1 1-52.705882 0V237.176471h-298.646589v237.17647a26.352941 26.352941 0 0 1-23.070117 26.142118l-3.312941 0.210823a26.352941 26.352941 0 0 1-26.322824-26.352941V210.823529c0-14.546824 11.776-26.352941 26.352941-26.352941h351.352471z" fill="#568af2" /><path d="M456.794353 289.882353c14.546824 0 26.352941 11.806118 26.352941 26.352941v35.147294a26.352941 26.352941 0 0 1-52.705882 0V316.235294c0-14.546824 11.776-26.352941 26.352941-26.352941zM597.323294 289.882353c14.576941 0 26.352941 11.806118 26.352941 26.352941v35.147294a26.352941 26.352941 0 0 1-52.705882 0V316.235294c0-14.546824 11.806118-26.352941 26.352941-26.352941z" fill="#568af2" /></svg>