<svg class="icon" style="width: 1em;height: 1em;vertical-align: middle;fill: currentColor;overflow: hidden;" viewBox="0 0 1024 1024" version="1.1" xmlns="http://www.w3.org/2000/svg" width="32" height="32"><path d="M778.059294 124.235294c33.942588 0 61.470118 27.527529 61.470118 61.500235v632.470589a61.500235 61.500235 0 0 1-61.470118 61.470117H215.853176a61.500235 61.500235 0 0 1-61.500235-61.470117v-632.470589c0-33.972706 27.527529-61.500235 61.500235-61.500235h562.206118z m0 52.705882H215.853176a8.794353 8.794353 0 0 0-8.794352 8.794353v632.470589c0 4.818824 3.915294 8.764235 8.794352 8.764235h562.206118c4.818824 0 8.764235-3.915294 8.764235-8.764235v-632.470589a8.794353 8.794353 0 0 0-8.764235-8.794353z" fill="#568af2" /><path d="M690.206118 229.647059c14.546824 0 26.352941 11.806118 26.352941 26.352941v158.117647a26.352941 26.352941 0 0 1-26.352941 26.352941H303.706353a26.352941 26.352941 0 0 1-26.352941-26.352941V256c0-14.546824 11.776-26.352941 26.352941-26.352941h386.499765z m-26.352942 52.705882H330.059294v105.411765h333.793882v-105.411765zM267.504941 553.592471a26.352941 26.352941 0 0 1 37.25553 0l122.970353 123.00047a26.352941 26.352941 0 0 1-37.25553 37.25553L267.504941 590.908235a26.352941 26.352941 0 0 1 0-37.285647z" fill="#568af2" /><path d="M390.475294 553.592471a26.352941 26.352941 0 1 1 37.25553 37.285647l-122.970353 122.970353a26.352941 26.352941 0 0 1-37.25553-37.25553l122.970353-123.00047zM707.764706 668.852706a26.352941 26.352941 0 0 1 0 52.705882h-140.528941a26.352941 26.352941 0 0 1 0-52.705882H707.764706zM707.764706 563.440941a26.352941 26.352941 0 0 1 0 52.705883h-140.528941a26.352941 26.352941 0 0 1 0-52.705883H707.764706z" fill="#568af2" /></svg>