<svg class="icon" style="width: 1em;height: 1em;vertical-align: middle;fill: currentColor;overflow: hidden;" viewBox="0 0 1024 1024" version="1.1" xmlns="http://www.w3.org/2000/svg" width="32" height="32"><path d="M803.147294 611.147294c14.546824 0 26.352941 11.776 26.352941 26.352941v210.82353a61.500235 61.500235 0 0 1-61.500235 61.470117H276.088471a61.500235 61.500235 0 0 1-61.500236-61.470117v-210.82353c0-14.576941 11.806118-26.352941 26.352941-26.352941h562.206118z m-26.383059 52.705882H267.294118v184.470589c0 4.156235 2.891294 7.619765 6.77647 8.553411l2.017883 0.210824H768c4.848941 0 8.794353-3.915294 8.794353-8.764235l-0.030118-184.470589z" fill="#568af2" /><path d="M768 154.352941c33.972706 0 61.500235 27.527529 61.500235 61.500235v421.647059h-52.705882v-421.647059a8.794353 8.794353 0 0 0-8.794353-8.794352H276.088471a8.794353 8.794353 0 0 0-8.794353 8.794352v421.647059h-52.705883v-421.647059c0-33.972706 27.527529-61.500235 61.500236-61.500235H768zM557.176471 734.117647a26.352941 26.352941 0 1 1 0 52.705882h-70.264471a26.352941 26.352941 0 1 1 0-52.705882H557.176471z" fill="#568af2" /></svg>