<svg class="icon" style="width: 1em;height: 1em;vertical-align: middle;fill: currentColor;overflow: hidden;" viewBox="0 0 1024 1024" version="1.1" xmlns="http://www.w3.org/2000/svg" width="32" height="32"><path d="M501.970824 124.235294c208.594824 0 377.705412 169.110588 377.705411 377.73553 0 208.594824-169.110588 377.705412-377.705411 377.705411-208.624941 0-377.735529-169.110588-377.73553-377.705411 0-208.624941 169.110588-377.735529 377.73553-377.73553z m0 52.705882c-179.501176 0-325.029647 145.528471-325.029648 325.029648s145.528471 324.999529 325.029648 324.999529 324.999529-145.498353 324.999529-324.999529S681.472 176.941176 501.970824 176.941176z" fill="#568af2" /><path d="M335.510588 512.090353a26.352941 26.352941 0 0 1 33.340236 16.685176l35.117176 105.411765a26.352941 26.352941 0 0 1-49.995294 16.655059l-35.117177-105.411765a26.352941 26.352941 0 0 1 16.655059-33.340235zM635.090824 528.775529a26.352941 26.352941 0 0 1 49.995294 16.655059l-35.147294 105.411765a26.352941 26.352941 0 0 1-49.995295-16.655059l35.147295-105.411765zM501.970824 282.352941c14.546824 0 26.352941 11.806118 26.352941 26.352941v105.411765a26.352941 26.352941 0 0 1-52.705883 0v-105.411765c0-14.546824 11.776-26.352941 26.352942-26.352941z" fill="#568af2" /></svg>