<svg class="icon" style="width: 1em;height: 1em;vertical-align: middle;fill: currentColor;overflow: hidden;" viewBox="0 0 1024 1024" version="1.1" xmlns="http://www.w3.org/2000/svg" width="32" height="32"><path d="M484.382118 219.587765a26.352941 26.352941 0 1 1 0 52.705882h-210.82353a26.352941 26.352941 0 0 0-26.352941 26.352941V641.204706h509.470118l0.030117-96.587294c0-13.432471 10.059294-24.515765 23.04-26.142118l3.312942-0.210823c14.546824 0 26.352941 11.806118 26.352941 26.352941v122.970353a26.352941 26.352941 0 0 1-26.352941 26.352941H220.852706a26.352941 26.352941 0 0 1-26.352941-26.352941V298.646588a79.058824 79.058824 0 0 1 79.058823-79.058823h210.82353z" fill="#568af2" /><path d="M853.323294 641.234824c14.576941 0 26.352941 11.806118 26.352941 26.352941v35.147294a131.764706 131.764706 0 0 1-131.764706 131.764706H256a131.764706 131.764706 0 0 1-131.764706-131.764706v-35.147294c0-14.546824 11.806118-26.352941 26.352941-26.352941h702.735059z m-26.352941 52.705882H176.941176v8.794353a79.058824 79.058824 0 0 0 74.059295 78.908235l4.999529 0.150588h491.911529a79.058824 79.058824 0 0 0 79.058824-79.058823v-8.794353zM712.794353 184.470588a131.764706 131.764706 0 1 1 0 263.529412 131.764706 131.764706 0 0 1 0-263.529412z m0 52.705883a79.058824 79.058824 0 1 0 0 158.117647 79.058824 79.058824 0 0 0 0-158.117647z" fill="#568af2" /><path d="M623.887059 227.328a26.352941 26.352941 0 0 1 37.255529 0l140.559059 140.559059a26.352941 26.352941 0 1 1-37.285647 37.255529l-140.528941-140.559059a26.352941 26.352941 0 0 1 0-37.255529z" fill="#568af2" /></svg>