<svg class="icon" style="width: 1em;height: 1em;vertical-align: middle;fill: currentColor;overflow: hidden;" viewBox="0 0 1024 1024" version="1.1" xmlns="http://www.w3.org/2000/svg" width="32" height="32"><path d="M304.941176 291.147294c0-33.972706 27.527529-61.500235 61.500236-61.500235H647.529412c33.972706 0 61.500235 27.527529 61.500235 61.500235v562.176a61.500235 61.500235 0 0 1-61.500235 61.500235h-281.088a61.500235 61.500235 0 0 1-61.500236-61.500235V291.147294z m52.705883 0v562.176c0 4.848941 3.915294 8.794353 8.794353 8.794353H647.529412c4.848941 0 8.794353-3.915294 8.794353-8.794353V291.147294a8.794353 8.794353 0 0 0-8.794353-8.794353h-281.088a8.794353 8.794353 0 0 0-8.794353 8.794353zM436.705882 220.852706V185.735529c0-19.425882 15.721412-35.147294 35.147294-35.147294H542.117647c19.395765 0 35.147294 15.721412 35.147294 35.147294v35.117177H436.705882z" fill="#568af2" /><path d="M500.976941 419.900235a26.352941 26.352941 0 0 1 47.134118 23.582118l-62.223059 124.416 84.961882-21.232941a26.352941 26.352941 0 0 1 31.232 34.454588l-1.264941 2.891294-87.823059 175.706353a26.352941 26.352941 0 1 1-47.164235-23.582118l62.223059-124.476235-84.931765 21.293177a26.352941 26.352941 0 0 1-31.232-34.484706l1.234824-2.891294 87.853176-175.676236z" fill="#568af2" /></svg>