<svg class="icon" style="width: 1em;height: 1em;vertical-align: middle;fill: currentColor;overflow: hidden;" viewBox="0 0 1024 1024" version="1.1" xmlns="http://www.w3.org/2000/svg" width="32" height="32"><path d="M853.323294 294.912c14.576941 0 26.352941 11.776 26.352941 26.352941V813.176471a26.352941 26.352941 0 0 1-26.352941 26.352941H150.588235A26.352941 26.352941 0 0 1 124.235294 813.176471V321.264941c0-14.576941 11.806118-26.352941 26.352941-26.352941h702.735059z m-26.352941 52.705882H176.941176v439.205647h650.029177V347.617882z" fill="#568af2" /><path d="M624.941176 453.029647a114.206118 114.206118 0 1 1 0 228.382118 114.206118 114.206118 0 0 1 0-228.382118z m0 52.705882a61.500235 61.500235 0 1 0 0 122.970353 61.500235 61.500235 0 0 0 0-122.970353zM396.559059 470.588235a26.352941 26.352941 0 0 1 0 52.705883h-105.411765a26.352941 26.352941 0 1 1 0-52.705883h105.411765zM396.559059 611.147294a26.352941 26.352941 0 0 1 0 52.705882h-105.411765a26.352941 26.352941 0 0 1 0-52.705882h105.411765zM220.852706 786.823529c14.576941 0 26.352941 11.806118 26.352941 26.352942v70.26447a26.352941 26.352941 0 1 1-52.705882 0V813.176471c0-14.546824 11.806118-26.352941 26.352941-26.352942zM783.058824 786.823529c14.546824 0 26.352941 11.806118 26.352941 26.352942v70.26447a26.352941 26.352941 0 1 1-52.705883 0V813.176471c0-14.546824 11.806118-26.352941 26.352942-26.352942zM705.536 155.376941a26.352941 26.352941 0 1 1 14.486588 50.657883L228.111059 346.593882a26.352941 26.352941 0 1 1-14.486588-50.688L705.536 155.407059z" fill="#568af2" /></svg>