<svg class="icon" style="width: 1em;height: 1em;vertical-align: middle;fill: currentColor;overflow: hidden;" viewBox="0 0 1024 1024" version="1.1" xmlns="http://www.w3.org/2000/svg" width="32" height="32"><path d="M813.176471 312.470588c33.972706 0 61.500235 27.527529 61.500235 61.500236v421.647058A61.500235 61.500235 0 0 1 813.176471 857.088H215.853176a61.500235 61.500235 0 0 1-61.500235-61.470118v-421.647058c0-33.972706 27.527529-61.500235 61.500235-61.500236H813.176471z m0 52.705883H215.853176a8.794353 8.794353 0 0 0-8.794352 8.794353v421.647058c0 4.818824 3.915294 8.764235 8.794352 8.764236H813.176471c4.848941 0 8.794353-3.915294 8.794353-8.764236v-421.647058a8.794353 8.794353 0 0 0-8.794353-8.794353z" fill="#568af2" /><path d="M409.088 470.588235a131.764706 131.764706 0 1 1 0 263.529412 131.764706 131.764706 0 0 1 0-263.529412z m0 52.705883a79.058824 79.058824 0 1 0 0 158.117647 79.058824 79.058824 0 0 0 0-158.117647zM725.323294 505.735529a26.352941 26.352941 0 1 1 0 52.705883h-105.411765a26.352941 26.352941 0 0 1 0-52.705883h105.411765zM725.323294 646.264471a26.352941 26.352941 0 0 1 0 52.705882h-105.411765a26.352941 26.352941 0 0 1 0-52.705882h105.411765zM520.282353 157.123765a26.352941 26.352941 0 0 1 23.582118 47.164235l-316.235295 158.117647a26.352941 26.352941 0 1 1-23.582117-47.164235l316.235294-158.117647z" fill="#568af2" /></svg>