<svg class="icon" style="width: 1em;height: 1em;vertical-align: middle;fill: currentColor;overflow: hidden;" viewBox="0 0 1024 1024" version="1.1" xmlns="http://www.w3.org/2000/svg" width="32" height="32"><path d="M642.499765 184.470588c79.721412 0 131.764706 58.548706 131.764706 131.764706v421.647059h-52.705883v-421.647059c0-45.387294-29.906824-79.058824-79.058823-79.058823-49.091765 0-79.058824 33.671529-79.058824 79.058823v219.617882h-52.705882V316.235294c0-73.185882 52.073412-131.764706 131.764706-131.764706z" fill="#568af2" /><path d="M840.161882 711.529412c13.281882 0 24.485647 9.908706 26.142118 23.070117l13.191529 105.411765a26.352941 26.352941 0 0 1-26.172235 29.635765h-210.823529a26.352941 26.352941 0 0 1-26.142118-29.635765l13.191529-105.411765a26.352941 26.352941 0 0 1 26.142118-23.070117h184.470588z m-23.280941 52.705882h-137.938823l-6.595765 52.705882h151.100235l-6.565647-52.705882zM304.218353 289.882353a259.222588 259.222588 0 0 1 259.222588 259.222588v292.201412c0 15.661176-12.679529 28.340706-28.310588 28.340706H256a26.352941 26.352941 0 1 1 0-52.705883h254.735059v-267.836235a206.516706 206.516706 0 0 0-199.378824-206.396235l-7.137882-0.120471a74.571294 74.571294 0 0 0-74.571294 74.571294v232.869647a26.352941 26.352941 0 1 1-52.705883 0v-232.869647a127.277176 127.277176 0 0 1 127.277177-127.277176z" fill="#568af2" /><path d="M256 606.117647a131.764706 131.764706 0 1 1 0 263.529412 131.764706 131.764706 0 0 1 0-263.529412z m0 52.705882a79.058824 79.058824 0 1 0 0 158.117647 79.058824 79.058824 0 0 0 0-158.117647z" fill="#568af2" /><path d="M326.264471 289.882353c14.576941 0 26.352941 11.806118 26.352941 26.352941v333.793882a26.352941 26.352941 0 1 1-52.705883 0V316.235294c0-14.546824 11.806118-26.352941 26.352942-26.352941z" fill="#568af2" /></svg>