<svg class="icon" style="width: 1em;height: 1em;vertical-align: middle;fill: currentColor;overflow: hidden;" viewBox="0 0 1024 1024" version="1.1" xmlns="http://www.w3.org/2000/svg" width="32" height="32"><path d="M524.920471 223.744c204.348235 0 369.995294 165.647059 369.995294 369.995294a25.810824 25.810824 0 0 1-25.810824 25.810824H180.705882a25.810824 25.810824 0 0 1-25.810823-25.810824c0-204.348235 165.647059-369.995294 370.025412-369.995294z m0 51.621647c-164.321882 0-299.550118 124.446118-316.596706 284.250353l-0.783059 8.312471h634.729412l-0.783059-8.312471c-16.745412-156.973176-147.576471-279.883294-307.952941-284.129882l-8.613647-0.120471z" fill="#568af2" /><path d="M524.920471 154.895059c14.245647 0 25.810824 11.565176 25.810823 25.810823v68.848942a25.810824 25.810824 0 1 1-51.651765 0V180.705882c0-14.245647 11.565176-25.810824 25.840942-25.810823zM697.012706 567.928471c14.245647 0 25.810824 11.565176 25.810823 25.810823a197.903059 197.903059 0 1 1-395.836235 0c0-14.245647 11.565176-25.810824 25.810824-25.810823h344.214588z m-28.099765 51.621647h-288.045176l1.204706 5.993411a146.371765 146.371765 0 0 0 136.31247 114.356706l6.53553 0.120471c69.872941 0 128.301176-48.971294 142.817882-114.477177l1.204706-5.993411zM750.441412 710.686118a25.810824 25.810824 0 0 1 35.96047 6.324706l35.599059 50.838588a25.810824 25.810824 0 0 1-42.285176 29.605647l-35.599059-50.808471a25.810824 25.810824 0 0 1 6.324706-35.96047zM270.456471 717.040941a25.810824 25.810824 0 1 1 36.502588 36.502588l-43.881412 43.881412a25.810824 25.810824 0 1 1-36.502588-36.502588l43.851294-43.881412zM662.467765 785.347765a25.810824 25.810824 0 0 1 35.930353 6.324706l19.757176 28.220235a25.810824 25.810824 0 0 1-42.285176 29.605647l-19.757177-28.190118a25.810824 25.810824 0 0 1 6.324706-35.96047zM354.063059 790.166588a25.810824 25.810824 0 1 1 36.502588 36.502588l-24.335059 24.335059a25.810824 25.810824 0 1 1-36.502588-36.502588l24.335059-24.335059z" fill="#568af2" /></svg>