<svg class="icon" style="width: 1em;height: 1em;vertical-align: middle;fill: currentColor;overflow: hidden;" viewBox="0 0 1024 1024" version="1.1" xmlns="http://www.w3.org/2000/svg" width="32" height="32"><path d="M692.705882 124.235294c33.972706 0 61.500235 27.527529 61.500236 61.500235v632.470589A61.500235 61.500235 0 0 1 692.705882 879.676235H306.206118a61.500235 61.500235 0 0 1-61.500236-61.470117v-632.470589c0-33.972706 27.527529-61.500235 61.500236-61.500235H692.705882z m0 52.705882H306.206118a8.794353 8.794353 0 0 0-8.794353 8.794353v632.470589c0 4.818824 3.915294 8.764235 8.794353 8.764235H692.705882c4.848941 0 8.794353-3.915294 8.794353-8.764235v-632.470589A8.794353 8.794353 0 0 0 692.705882 176.941176z" fill="#568af2" /><path d="M499.440941 581.029647a96.617412 96.617412 0 1 1 0 193.234824 96.617412 96.617412 0 0 1 0-193.234824z m0 52.705882a43.911529 43.911529 0 1 0 0 87.823059 43.911529 43.911529 0 0 0 0-87.823059zM604.852706 229.647059c14.576941 0 26.352941 11.806118 26.352941 26.352941v140.559059a26.352941 26.352941 0 0 1-26.352941 26.352941h-210.82353a26.352941 26.352941 0 0 1-26.352941-26.352941V256c0-14.546824 11.806118-26.352941 26.352941-26.352941h210.82353z m-26.352941 52.705882h-158.117647v87.823059h158.117647V282.352941zM517.029647 475.617882a26.352941 26.352941 0 0 1 0 52.705883H481.882353a26.352941 26.352941 0 0 1 0-52.705883h35.147294z" fill="#568af2" /></svg>