<svg class="icon" style="width: 1em;height: 1em;vertical-align: middle;fill: currentColor;overflow: hidden;" viewBox="0 0 1024 1024" version="1.1" xmlns="http://www.w3.org/2000/svg" width="32" height="32"><path d="M790.588235 184.470588a79.058824 79.058824 0 0 1 79.058824 79.058824v527.058823a79.058824 79.058824 0 0 1-79.058824 79.058824H263.529412a79.058824 79.058824 0 0 1-79.058824-79.058824V263.529412A79.058824 79.058824 0 0 1 263.529412 184.470588h527.058823z m0 52.705883H263.529412a26.352941 26.352941 0 0 0-26.352941 26.352941v527.058823c0 14.546824 11.806118 26.352941 26.352941 26.352941h527.058823a26.352941 26.352941 0 0 0 26.352941-26.352941V263.529412a26.352941 26.352941 0 0 0-26.352941-26.352941z" fill="#568af2" /><path d="M527.058824 325.029647a219.617882 219.617882 0 1 1 0 439.205647 219.617882 219.617882 0 0 1 0-439.205647z m0 52.705882a166.912 166.912 0 1 0 0 333.793883 166.912 166.912 0 0 0 0-333.793883z" fill="#568af2" /><path d="M491.911529 509.500235m35.147295 0l-0.030118 0q35.147294 0 35.147294 35.147294l0-0.030117q0 35.147294-35.147294 35.147294l0.030118 0q-35.147294 0-35.147295-35.147294l0 0.030117q0-35.147294 35.147295-35.147294Z" fill="#568af2" /><path d="M702.735059 702.735059m35.147294 0l-0.030118 0q35.147294 0 35.147294 35.147294l0-0.030118q0 35.147294-35.147294 35.147294l0.030118 0q-35.147294 0-35.147294-35.147294l0 0.030118q0-35.147294 35.147294-35.147294Z" fill="#568af2" /><path d="M719.239529 297.592471a26.352941 26.352941 0 1 1 37.285647 37.285647l-140.559058 140.528941a26.352941 26.352941 0 1 1-37.25553-37.25553L719.209412 297.562353z" fill="#568af2" /></svg>