<svg class="icon" style="width: 1em;height: 1em;vertical-align: middle;fill: currentColor;overflow: hidden;" viewBox="0 0 1024 1024" version="1.1" xmlns="http://www.w3.org/2000/svg" width="32" height="32"><path d="M730.352941 365.176471c33.972706 0 61.500235 27.527529 61.500235 61.500235V813.176471a61.500235 61.500235 0 0 1-61.500235 61.500235H273.558588A61.500235 61.500235 0 0 1 212.088471 813.176471V426.676706c0-33.972706 27.527529-61.500235 61.470117-61.500235H730.352941z m0 52.705882H273.558588a8.794353 8.794353 0 0 0-8.764235 8.794353V813.176471c0 4.848941 3.915294 8.794353 8.764235 8.794353H730.352941c4.848941 0 8.794353-3.915294 8.794353-8.794353V426.676706a8.794353 8.794353 0 0 0-8.794353-8.794353z" fill="#568af2" /><path d="M637.741176 237.025882a26.352941 26.352941 0 1 1 44.694589 27.919059l-87.853177 140.559059a26.352941 26.352941 0 1 1-44.694588-27.949176l87.853176-140.528942zM329.878588 228.623059a26.352941 26.352941 0 0 1 36.321883 8.402823l87.823058 140.528942a26.352941 26.352941 0 1 1-44.694588 27.949176l-87.823059-140.559059a26.352941 26.352941 0 0 1 8.372706-36.321882z" fill="#568af2" /><path d="M677.647059 154.352941a61.500235 61.500235 0 1 1 0 122.970353 61.500235 61.500235 0 0 1 0-122.970353z m0 52.705883a8.794353 8.794353 0 1 0 0 17.558588 8.794353 8.794353 0 0 0 0-17.558588zM326.264471 154.352941a61.500235 61.500235 0 1 1 0 122.970353 61.500235 61.500235 0 0 1 0-122.970353z m0 52.705883a8.794353 8.794353 0 1 0 0 17.558588 8.794353 8.794353 0 0 0 0-17.558588zM572.235294 488.146824a96.617412 96.617412 0 0 1 0 193.264941h-140.559059a96.617412 96.617412 0 0 1 0-193.264941H572.235294z m0 52.705882h-140.559059a43.911529 43.911529 0 0 0 0 87.853176H572.235294a43.911529 43.911529 0 1 0 0-87.853176zM238.441412 488.146824a26.352941 26.352941 0 0 1 0 52.705882H176.941176v122.970353h61.500236c13.432471 0 24.515765 10.059294 26.142117 23.070117l0.210824 3.312942a26.352941 26.352941 0 0 1-26.352941 26.352941H150.588235a26.352941 26.352941 0 0 1-26.352941-26.352941v-175.706353c0-14.546824 11.806118-26.352941 26.352941-26.352941h87.853177zM853.323294 488.146824c14.576941 0 26.352941 11.806118 26.352941 26.352941v175.706353a26.352941 26.352941 0 0 1-26.352941 26.352941h-87.823059a26.352941 26.352941 0 0 1 0-52.705883h61.44v-123.00047h-61.44a26.352941 26.352941 0 0 1-26.172235-23.04l-0.180706-3.312941c0-14.546824 11.776-26.352941 26.352941-26.352941h87.823059z" fill="#568af2" /></svg>