<svg class="icon" style="width: 1em;height: 1em;vertical-align: middle;fill: currentColor;overflow: hidden;" viewBox="0 0 1024 1024" version="1.1" xmlns="http://www.w3.org/2000/svg" width="32" height="32"><path d="M449.264941 219.617882a26.352941 26.352941 0 0 1 0 52.705883H273.558588a26.352941 26.352941 0 0 0-26.352941 26.352941v342.588235h509.470118l0.030117-149.353412c0-13.432471 10.059294-24.515765 23.04-26.142117l3.312942-0.210824c14.546824 0 26.352941 11.806118 26.352941 26.352941v175.706353a26.352941 26.352941 0 0 1-26.352941 26.352942H220.852706a26.352941 26.352941 0 0 1-26.352941-26.352942V298.676706a79.058824 79.058824 0 0 1 79.058823-79.058824h175.706353z" fill="#568af2" /><path d="M853.323294 641.264941c14.576941 0 26.352941 11.776 26.352941 26.352941v35.117177a131.764706 131.764706 0 0 1-131.764706 131.764706H256a131.764706 131.764706 0 0 1-131.764706-131.764706v-35.117177c0-14.576941 11.806118-26.352941 26.352941-26.352941h702.735059z m-26.352941 52.705883H176.941176v8.764235a79.058824 79.058824 0 0 0 74.059295 78.908235l4.999529 0.150588h491.911529a79.058824 79.058824 0 0 0 79.058824-79.058823v-8.764235zM742.640941 184.470588c46.411294 0 84.329412 36.833882 84.329412 82.642824 0 61.861647-64.903529 125.500235-123.663059 144.474353a26.352941 26.352941 0 0 1-16.173176 0c-58.789647-18.974118-123.693176-82.612706-123.693177-144.474353 0-45.808941 37.948235-82.642824 84.329412-82.642824 15.781647 0 30.840471 4.276706 43.791059 11.986824l3.644235 2.379294 3.644235-2.379294a85.323294 85.323294 0 0 1 37.948236-11.776l5.842823-0.210824z m0 52.705883c-10.601412 0-20.239059 4.969412-26.081882 13.040941a26.352941 26.352941 0 0 1-42.676706 0 32.075294 32.075294 0 0 0-26.112-13.040941c-17.618824 0-31.623529 13.583059-31.623529 29.936941 0 31.954824 40.478118 74.179765 77.583058 90.654117l1.445647 0.572236 1.505883-0.602353c35.538824-15.721412 74.089412-55.024941 77.372235-86.377412l0.210824-4.216471c0-16.384-13.974588-29.967059-31.62353-29.967058z" fill="#568af2" /></svg>