<svg class="icon" style="width: 1em;height: 1em;vertical-align: middle;fill: currentColor;overflow: hidden;" viewBox="0 0 1024 1024" version="1.1" xmlns="http://www.w3.org/2000/svg" width="32" height="32"><path d="M670.991059 361.411765c23.883294 0 43.218824 19.365647 43.218823 43.218823v240.760471a249.554824 249.554824 0 0 1-499.079529 0v-240.760471c0-23.853176 19.365647-43.218824 43.218823-43.218823h412.611765z m-8.432941 51.621647H266.752v232.357647a197.933176 197.933176 0 0 0 190.825412 197.782588l7.107764 0.120471A197.903059 197.903059 0 0 0 662.588235 645.391059l-0.030117-232.357647z" fill="#568af2" /><path d="M688.399059 481.882353c14.275765 0 25.810824 11.565176 25.810823 25.810823v137.697883a25.810824 25.810824 0 0 1-25.810823 25.810823H240.941176a25.810824 25.810824 0 0 1-25.810823-25.810823v-137.697883c0-14.245647 11.565176-25.810824 25.810823-25.810823h447.457883zM662.588235 533.504H266.752v86.046118h395.806118v-86.046118zM464.685176 154.895059c14.245647 0 25.810824 11.565176 25.810824 25.810823v103.273412a25.810824 25.810824 0 1 1-51.651765 0V180.705882c0-14.245647 11.565176-25.810824 25.840941-25.810823zM326.987294 189.319529c14.275765 0 25.810824 11.535059 25.810824 25.810824v34.424471a25.810824 25.810824 0 0 1-51.621647 0V215.130353c0-14.275765 11.565176-25.810824 25.810823-25.810824zM602.352941 189.319529c14.245647 0 25.810824 11.535059 25.810824 25.810824v34.424471a25.810824 25.810824 0 1 1-51.621647 0V215.130353c0-14.275765 11.565176-25.810824 25.810823-25.810824z" fill="#568af2" /><path d="M688.399059 430.260706a146.281412 146.281412 0 1 1 0 292.562823 25.810824 25.810824 0 0 1 0-51.621647 94.659765 94.659765 0 1 0 0-189.319529 25.810824 25.810824 0 0 1 0-51.621647z" fill="#568af2" /></svg>