<svg class="icon" style="width: 1em;height: 1em;vertical-align: middle;fill: currentColor;overflow: hidden;" viewBox="0 0 1024 1024" version="1.1" xmlns="http://www.w3.org/2000/svg" width="32" height="32"><path d="M491.911529 154.352941a26.352941 26.352941 0 1 1 0 52.705883H263.529412a26.352941 26.352941 0 0 0-26.352941 26.352941v386.499764c0 14.576941 11.806118 26.352941 26.352941 26.352942h527.058823a26.352941 26.352941 0 0 0 26.352941-26.352942v-158.117647a26.352941 26.352941 0 0 1 52.705883 0v158.117647a79.058824 79.058824 0 0 1-79.058824 79.058824H263.529412a79.058824 79.058824 0 0 1-79.058824-79.058824V233.411765A79.058824 79.058824 0 0 1 263.529412 154.352941h228.382117z" fill="#568af2" /><path d="M527.058824 646.264471c14.546824 0 26.352941 11.806118 26.352941 26.352941V813.176471a26.352941 26.352941 0 1 1-52.705883 0v-140.559059c0-14.546824 11.806118-26.352941 26.352942-26.352941z" fill="#568af2" /><path d="M702.735059 786.823529a26.352941 26.352941 0 1 1 0 52.705883H351.382588a26.352941 26.352941 0 1 1 0-52.705883h351.352471zM785.317647 154.352941c46.381176 0 84.329412 36.833882 84.329412 82.642824 0 61.861647-64.903529 125.500235-123.663059 144.474353a26.352941 26.352941 0 0 1-16.203294 0c-58.759529-18.974118-123.663059-82.612706-123.663059-144.474353 0-45.808941 37.948235-82.642824 84.329412-82.642824 15.751529 0 30.840471 4.276706 43.791059 11.986824l3.644235 2.379294 3.644235-2.379294a85.323294 85.323294 0 0 1 37.918118-11.776l5.872941-0.210824z m0 52.705883c-10.631529 0-20.239059 4.969412-26.112 13.040941a26.352941 26.352941 0 0 1-42.646588 0 32.075294 32.075294 0 0 0-26.112-13.040941c-17.648941 0-31.623529 13.583059-31.62353 29.936941 0 31.954824 40.448 74.179765 77.583059 90.654117l1.445647 0.572236 1.505883-0.602353c35.538824-15.721412 74.089412-55.024941 77.372235-86.377412l0.210823-4.216471c0-16.384-13.974588-29.967059-31.623529-29.967058z" fill="#568af2" /></svg>