<svg class="icon" style="width: 1em;height: 1em;vertical-align: middle;fill: currentColor;overflow: hidden;" viewBox="0 0 1024 1024" version="1.1" xmlns="http://www.w3.org/2000/svg" width="32" height="32"><path d="M496.941176 154.352941a26.352941 26.352941 0 1 1 0 52.705883H233.411765a26.352941 26.352941 0 0 0-26.352941 26.352941v386.499764c0 14.576941 11.806118 26.352941 26.352941 26.352942h527.058823a26.352941 26.352941 0 0 0 26.352941-26.352942v-87.823058a26.352941 26.352941 0 1 1 52.705883 0v87.823058a79.058824 79.058824 0 0 1-79.058824 79.058824H233.411765a79.058824 79.058824 0 0 1-79.058824-79.058824V233.411765A79.058824 79.058824 0 0 1 233.411765 154.352941h263.529411z" fill="#568af2" /><path d="M496.941176 646.264471c14.546824 0 26.352941 11.806118 26.352942 26.352941V813.176471a26.352941 26.352941 0 1 1-52.705883 0v-140.559059c0-14.546824 11.806118-26.352941 26.352941-26.352941z" fill="#568af2" /><path d="M672.617412 786.823529a26.352941 26.352941 0 1 1 0 52.705883H321.264941a26.352941 26.352941 0 1 1 0-52.705883h351.352471zM725.323294 224.617412a79.058824 79.058824 0 1 1 0 158.117647 79.058824 79.058824 0 0 1 0-158.117647z m0 52.705882a26.352941 26.352941 0 1 0 0 52.705882 26.352941 26.352941 0 0 0 0-52.705882z" fill="#568af2" /><path d="M725.323294 330.029176c14.576941 0 26.352941 11.806118 26.352941 26.352942v70.294588a26.352941 26.352941 0 0 1-52.705882 0v-70.294588c0-14.546824 11.806118-26.352941 26.352941-26.352942zM725.323294 154.352941c14.576941 0 26.352941 11.806118 26.352941 26.352941v70.264471a26.352941 26.352941 0 1 1-52.705882 0V180.705882c0-14.546824 11.806118-26.352941 26.352941-26.352941z" fill="#568af2" /><path d="M666.503529 307.2a26.352941 26.352941 0 0 1 26.352942 45.658353l-60.837647 35.147294a26.352941 26.352941 0 0 1-26.352942-45.658353l60.837647-35.117176zM818.657882 219.376941a26.352941 26.352941 0 0 1 26.352942 45.628235l-60.837648 35.147295a26.352941 26.352941 0 0 1-26.383058-45.628236l60.867764-35.147294z" fill="#568af2" /><path d="M596.028235 229.014588a26.352941 26.352941 0 0 1 35.960471-9.637647l60.867765 35.147294a26.352941 26.352941 0 0 1-26.352942 45.628236L605.665882 265.035294a26.352941 26.352941 0 0 1-9.637647-35.990588zM748.152471 316.837647a26.352941 26.352941 0 0 1 35.990588-9.637647l60.867765 35.147294a26.352941 26.352941 0 0 1-26.352942 45.658353l-60.837647-35.147294a26.352941 26.352941 0 0 1-9.667764-35.990588z" fill="#568af2" /></svg>