<svg class="icon" style="width: 1em;height: 1em;vertical-align: middle;fill: currentColor;overflow: hidden;" viewBox="0 0 1024 1024" version="1.1" xmlns="http://www.w3.org/2000/svg" width="32" height="32"><path d="M224.798118 251.843765a79.058824 79.058824 0 0 1 78.215529-67.373177h404.690824c40.056471 0 73.788235 29.967059 78.516705 69.752471l55.235765 465.558588a79.058824 79.058824 0 0 1-78.486588 88.365177H233.411765a79.058824 79.058824 0 0 1-78.185412-90.744471l69.571765-465.558588z m482.906353-14.667294H303.013647a26.352941 26.352941 0 0 0-26.081882 22.467764l-69.571765 465.558589a26.352941 26.352941 0 0 0 26.051765 30.238117h529.558588c15.781647 0 28.009412-13.763765 26.172235-29.455059L733.876706 260.427294a26.352941 26.352941 0 0 0-26.172235-23.250823z" fill="#568af2" /><path d="M708.096 606.117647a131.764706 131.764706 0 1 1 0 263.529412h-421.647059a131.764706 131.764706 0 1 1 0-263.529412h421.647059z m0 52.705882h-421.647059a79.058824 79.058824 0 1 0 0 158.117647h421.647059a79.058824 79.058824 0 1 0 0-158.117647z" fill="#568af2" /><path d="M409.419294 702.735059m35.147294 0l-0.030117 0q35.147294 0 35.147294 35.147294l0-0.030118q0 35.147294-35.147294 35.147294l0.030117 0q-35.147294 0-35.147294-35.147294l0 0.030118q0-35.147294 35.147294-35.147294Z" fill="#568af2" /><path d="M690.537412 711.529412a26.352941 26.352941 0 0 1 0 52.705882h-105.411765a26.352941 26.352941 0 1 1 0-52.705882h105.411765zM532.419765 289.882353a26.352941 26.352941 0 0 1 0 52.705882h-70.294589a26.352941 26.352941 0 1 1 0-52.705882h70.294589z" fill="#568af2" /></svg>