<svg class="icon" style="width: 1em;height: 1em;vertical-align: middle;fill: currentColor;overflow: hidden;" viewBox="0 0 1024 1024" version="1.1" xmlns="http://www.w3.org/2000/svg" width="32" height="32"><path d="M752.941176 199.529412c33.972706 0 61.500235 27.527529 61.500236 61.500235V752.941176A61.500235 61.500235 0 0 1 752.941176 814.441412H261.029647A61.500235 61.500235 0 0 1 199.529412 752.941176V261.029647c0-33.972706 27.527529-61.500235 61.500235-61.500235H752.941176z m0 52.705882H261.029647a8.794353 8.794353 0 0 0-8.794353 8.794353V752.941176c0 4.848941 3.915294 8.794353 8.794353 8.794353H752.941176c4.848941 0 8.794353-3.915294 8.794353-8.794353V261.029647A8.794353 8.794353 0 0 0 752.941176 252.235294z" fill="#568af2" /><path d="M612.382118 375.205647c14.576941 0 26.352941 11.806118 26.352941 26.352941v210.82353a26.352941 26.352941 0 0 1-26.352941 26.352941h-210.82353a26.352941 26.352941 0 0 1-26.352941-26.352941v-210.82353c0-14.546824 11.806118-26.352941 26.352941-26.352941h210.82353z m-26.352942 52.705882h-158.117647v158.117647h158.117647v-158.117647z" fill="#568af2" /><path d="M347.256471 94.117647c14.576941 0 26.352941 11.806118 26.352941 26.352941v105.411765a26.352941 26.352941 0 0 1-52.705883 0V120.470588c0-14.546824 11.806118-26.352941 26.352942-26.352941z" fill="#568af2" /><path d="M347.256471 761.735529c14.576941 0 26.352941 11.776 26.352941 26.352942v105.411764a26.352941 26.352941 0 0 1-52.705883 0v-105.411764c0-14.576941 11.806118-26.352941 26.352942-26.352942z" fill="#568af2" /><path d="M506.970353 94.117647c14.576941 0 26.352941 11.806118 26.352941 26.352941v105.411765a26.352941 26.352941 0 1 1-52.705882 0V120.470588c0-14.546824 11.806118-26.352941 26.352941-26.352941z" fill="#568af2" /><path d="M506.970353 761.735529c14.576941 0 26.352941 11.776 26.352941 26.352942v105.411764a26.352941 26.352941 0 0 1-52.705882 0v-105.411764c0-14.576941 11.806118-26.352941 26.352941-26.352942z" fill="#568af2" /><path d="M666.684235 94.117647c14.576941 0 26.352941 11.806118 26.352941 26.352941v105.411765a26.352941 26.352941 0 1 1-52.705882 0V120.470588c0-14.546824 11.806118-26.352941 26.352941-26.352941z" fill="#568af2" /><path d="M666.684235 761.735529c14.576941 0 26.352941 11.776 26.352941 26.352942v105.411764a26.352941 26.352941 0 0 1-52.705882 0v-105.411764c0-14.576941 11.806118-26.352941 26.352941-26.352942z" fill="#568af2" /><path d="M225.882353 320.903529a26.352941 26.352941 0 1 1 0 52.705883H120.470588a26.352941 26.352941 0 0 1 0-52.705883h105.411765z" fill="#568af2" /><path d="M893.500235 320.903529a26.352941 26.352941 0 0 1 0 52.705883h-105.411764a26.352941 26.352941 0 0 1 0-52.705883h105.411764z" fill="#568af2" /><path d="M225.882353 480.617412a26.352941 26.352941 0 0 1 0 52.705882H120.470588a26.352941 26.352941 0 1 1 0-52.705882h105.411765z" fill="#568af2" /><path d="M893.500235 480.617412a26.352941 26.352941 0 0 1 0 52.705882h-105.411764a26.352941 26.352941 0 1 1 0-52.705882h105.411764z" fill="#568af2" /><path d="M225.882353 640.331294a26.352941 26.352941 0 1 1 0 52.705882H120.470588a26.352941 26.352941 0 1 1 0-52.705882h105.411765z" fill="#568af2" /><path d="M893.500235 640.331294a26.352941 26.352941 0 0 1 0 52.705882h-105.411764a26.352941 26.352941 0 1 1 0-52.705882h105.411764z" fill="#568af2" /></svg>