<svg class="icon" style="width: 1em;height: 1em;vertical-align: middle;fill: currentColor;overflow: hidden;" viewBox="0 0 1024 1024" version="1.1" xmlns="http://www.w3.org/2000/svg" width="32" height="32"><path d="M722.823529 365.176471c14.546824 0 26.352941 11.806118 26.352942 26.352941v281.088a237.176471 237.176471 0 0 1-474.352942 0V391.529412c0-14.546824 11.806118-26.352941 26.352942-26.352941h421.647058z m-26.352941 52.705882h-368.941176v254.735059a184.470588 184.470588 0 0 0 177.694117 184.350117l6.776471 0.120471a184.470588 184.470588 0 0 0 184.470588-184.470588v-254.735059z" fill="#568af2" /><path d="M512 154.352941A237.176471 237.176471 0 0 1 749.176471 391.529412a26.352941 26.352941 0 0 1-26.352942 26.352941h-210.823529a26.352941 26.352941 0 0 1-26.352941-26.352941V180.705882c0-14.546824 11.806118-26.352941 26.352941-26.352941z m26.352941 54.573177v156.250353h156.220235v-0.301177a184.591059 184.591059 0 0 0-155.919058-155.888941l-0.301177-0.060235z" fill="#568af2" /><path d="M512 154.352941c14.546824 0 26.352941 11.806118 26.352941 26.352941v210.82353a26.352941 26.352941 0 0 1-26.352941 26.352941h-210.823529A26.352941 26.352941 0 0 1 274.823529 391.529412 237.176471 237.176471 0 0 1 512 154.352941z m-26.352941 54.573177l-0.301177 0.060235a184.591059 184.591059 0 0 0-155.888941 155.888941l-0.060235 0.301177h156.250353V208.926118z" fill="#568af2" /></svg>