<svg class="icon" style="width: 1em;height: 1em;vertical-align: middle;fill: currentColor;overflow: hidden;" viewBox="0 0 1024 1024" version="1.1" xmlns="http://www.w3.org/2000/svg" width="32" height="32"><path d="M818.206118 535.853176c33.942588 0 61.470118 27.527529 61.470117 61.470118v175.706353a61.500235 61.500235 0 0 1-61.470117 61.470118h-632.470589a61.500235 61.500235 0 0 1-61.500235-61.470118v-175.706353c0-33.942588 27.527529-61.470118 61.500235-61.470118h632.470589z m0 52.705883h-632.470589a8.794353 8.794353 0 0 0-8.794353 8.764235v175.706353c0 4.818824 3.915294 8.764235 8.794353 8.764235h632.470589c4.818824 0 8.764235-3.915294 8.764235-8.764235v-175.706353a8.794353 8.794353 0 0 0-8.764235-8.764235z" fill="#568af2" /><path d="M466.823529 658.823529a26.352941 26.352941 0 1 1 0 52.705883h-140.559058a26.352941 26.352941 0 0 1 0-52.705883H466.823529z" fill="#568af2" /><path d="M607.382588 650.029176m35.147294 0l-0.030117 0q35.147294 0 35.147294 35.147295l0-0.030118q0 35.147294-35.147294 35.147294l0.030117 0q-35.147294 0-35.147294-35.147294l0 0.030118q0-35.147294 35.147294-35.147295Z" fill="#568af2" /><path d="M291.147294 184.470588c14.546824 0 26.352941 11.806118 26.352941 26.352941v351.382589a26.352941 26.352941 0 0 1-52.705882 0V210.823529c0-14.546824 11.776-26.352941 26.352941-26.352941zM712.794353 184.470588c14.546824 0 26.352941 11.806118 26.352941 26.352941v351.382589a26.352941 26.352941 0 0 1-52.705882 0V210.823529c0-14.546824 11.776-26.352941 26.352941-26.352941z" fill="#568af2" /></svg>