<svg class="icon" style="width: 1em;height: 1em;vertical-align: middle;fill: currentColor;overflow: hidden;" viewBox="0 0 1024 1024" version="1.1" xmlns="http://www.w3.org/2000/svg" width="32" height="32"><path d="M790.588235 184.470588a79.058824 79.058824 0 0 1 79.058824 79.058824v527.058823a79.058824 79.058824 0 0 1-79.058824 79.058824H263.529412a79.058824 79.058824 0 0 1-79.058824-79.058824V263.529412A79.058824 79.058824 0 0 1 263.529412 184.470588h527.058823z m0 52.705883H263.529412a26.352941 26.352941 0 0 0-26.352941 26.352941v527.058823c0 14.546824 11.806118 26.352941 26.352941 26.352941h527.058823a26.352941 26.352941 0 0 0 26.352941-26.352941V263.529412a26.352941 26.352941 0 0 0-26.352941-26.352941z" fill="#568af2" /><path d="M614.912 553.411765c14.546824 0 26.352941 11.806118 26.352941 26.352941v105.411765a26.352941 26.352941 0 0 1-26.352941 26.352941h-175.706353a26.352941 26.352941 0 0 1-26.352941-26.352941v-105.411765c0-14.546824 11.806118-26.352941 26.352941-26.352941h175.706353z m-26.383059 52.705882h-122.970353v52.705882h122.970353v-52.705882z" fill="#568af2" /><path d="M702.735059 412.852706c14.576941 0 26.352941 11.806118 26.352941 26.352941v140.559059a26.352941 26.352941 0 0 1-26.352941 26.352941H351.382588a26.352941 26.352941 0 0 1-26.352941-26.352941v-140.559059c0-14.546824 11.776-26.352941 26.352941-26.352941h351.352471z m-26.352941 52.705882h-298.646589v87.823059h298.646589v-87.823059z" fill="#568af2" /><path d="M685.176471 342.588235c14.546824 0 26.352941 11.806118 26.352941 26.352941v70.264471a26.352941 26.352941 0 1 1-52.705883 0V368.941176c0-14.546824 11.806118-26.352941 26.352942-26.352941zM579.764706 342.588235c14.546824 0 26.352941 11.806118 26.352941 26.352941v70.264471a26.352941 26.352941 0 1 1-52.705882 0V368.941176c0-14.546824 11.806118-26.352941 26.352941-26.352941zM474.352941 342.588235c14.546824 0 26.352941 11.806118 26.352941 26.352941v70.264471a26.352941 26.352941 0 1 1-52.705882 0V368.941176c0-14.546824 11.806118-26.352941 26.352941-26.352941zM368.941176 342.588235c14.546824 0 26.352941 11.806118 26.352942 26.352941v70.264471a26.352941 26.352941 0 1 1-52.705883 0V368.941176c0-14.546824 11.806118-26.352941 26.352941-26.352941z" fill="#568af2" /></svg>