<svg class="icon" style="width: 1em;height: 1em;vertical-align: middle;fill: currentColor;overflow: hidden;" viewBox="0 0 1024 1024" version="1.1" xmlns="http://www.w3.org/2000/svg" width="32" height="32"><path d="M630.723765 154.352941c16.052706 0 31.442824 6.264471 42.917647 17.468235l137.246117 133.662118c11.896471 11.565176 18.612706 27.467294 18.612706 44.062118v498.748235a61.500235 61.500235 0 0 1-61.500235 61.500235H276.088471a61.500235 61.500235 0 0 1-61.500236-61.470117v-632.470589c0-33.972706 27.527529-61.500235 61.500236-61.500235h354.635294z m0 52.705883H276.088471a8.794353 8.794353 0 0 0-8.794353 8.794352v632.470589c0 4.818824 3.915294 8.764235 8.794353 8.764235H768c4.848941 0 8.794353-3.915294 8.794353-8.764235V349.545412a8.794353 8.794353 0 0 0-2.680471-6.324706l-137.246117-133.662118a8.794353 8.794353 0 0 0-6.144-2.499764z" fill="#568af2" /><path d="M803.147294 453.029647a26.352941 26.352941 0 0 1 0 52.705882H240.941176a26.352941 26.352941 0 0 1 0-52.705882h562.206118zM803.147294 593.558588a26.352941 26.352941 0 0 1 0 52.705883h-175.706353a26.352941 26.352941 0 0 1 0-52.705883h175.706353zM803.147294 716.559059a26.352941 26.352941 0 0 1 0 52.705882h-175.706353a26.352941 26.352941 0 0 1 0-52.705882h175.706353z" fill="#568af2" /><path d="M627.440941 453.029647c14.576941 0 26.352941 11.776 26.352941 26.352941v404.058353a26.352941 26.352941 0 1 1-52.705882 0V479.382588c0-14.576941 11.806118-26.352941 26.352941-26.352941zM416.617412 453.029647c14.576941 0 26.352941 11.776 26.352941 26.352941v404.058353a26.352941 26.352941 0 1 1-52.705882 0V479.382588c0-14.576941 11.806118-26.352941 26.352941-26.352941z" fill="#568af2" /><path d="M416.617412 663.853176a26.352941 26.352941 0 1 1 0 52.705883H240.941176a26.352941 26.352941 0 0 1 0-52.705883h175.676236z" fill="#568af2" /></svg>