<svg class="icon" style="width: 1em;height: 1em;vertical-align: middle;fill: currentColor;overflow: hidden;" viewBox="0 0 1024 1024" version="1.1" xmlns="http://www.w3.org/2000/svg" width="32" height="32"><path d="M762.970353 589.793882c14.576941 0 26.352941 11.806118 26.352941 26.352942v131.764705a26.352941 26.352941 0 1 1-52.705882 0v-131.764705c0-14.546824 11.806118-26.352941 26.352941-26.352942zM727.853176 124.235294c33.942588 0 61.470118 27.527529 61.470118 61.500235v17.558589a26.352941 26.352941 0 1 1-52.705882 0v-17.558589a8.794353 8.794353 0 0 0-8.764236-8.794353h-421.647058a8.794353 8.794353 0 0 0-8.794353 8.794353v562.176a26.352941 26.352941 0 1 1-52.705883 0V185.735529c0-33.972706 27.527529-61.500235 61.500236-61.500235h421.647058z" fill="#568af2" /><path d="M534.588235 282.352941a26.352941 26.352941 0 1 1 0 52.705883h-17.558588a79.058824 79.058824 0 0 0 0 158.117647h17.558588a26.352941 26.352941 0 1 1 0 52.705882h-17.558588a131.764706 131.764706 0 0 1 0-263.529412h17.558588zM692.705882 282.352941a131.764706 131.764706 0 0 1 0 263.529412h-17.558588a26.352941 26.352941 0 1 1 0-52.705882H692.705882a79.058824 79.058824 0 0 0 0-158.117647h-17.558588a26.352941 26.352941 0 1 1 0-52.705883H692.705882z" fill="#568af2" /><path d="M675.147294 387.764706a26.352941 26.352941 0 0 1 0 52.705882H534.588235a26.352941 26.352941 0 1 1 0-52.705882h140.559059zM657.558588 616.146824a131.764706 131.764706 0 0 1 0 263.529411H376.470588a131.764706 131.764706 0 0 1 0-263.529411h281.088z m0 52.705882H376.470588a79.058824 79.058824 0 0 0 0 158.117647h281.088a79.058824 79.058824 0 0 0 0-158.117647z" fill="#568af2" /><path d="M657.558588 747.911529m-35.147294 0a35.147294 35.147294 0 1 0 70.294588 0 35.147294 35.147294 0 1 0-70.294588 0Z" fill="#568af2" /></svg>