<svg class="icon" style="width: 1em;height: 1em;vertical-align: middle;fill: currentColor;overflow: hidden;" viewBox="0 0 1024 1024" version="1.1" xmlns="http://www.w3.org/2000/svg" width="32" height="32"><path d="M304.941176 291.147294c0-33.972706 27.527529-61.500235 61.500236-61.500235H647.529412c33.972706 0 61.500235 27.527529 61.500235 61.500235v562.176a61.500235 61.500235 0 0 1-61.500235 61.500235h-281.088a61.500235 61.500235 0 0 1-61.500236-61.500235V291.147294z m52.705883 0v562.176c0 4.848941 3.915294 8.794353 8.794353 8.794353H647.529412c4.848941 0 8.794353-3.915294 8.794353-8.794353V291.147294a8.794353 8.794353 0 0 0-8.794353-8.794353h-281.088a8.794353 8.794353 0 0 0-8.794353 8.794353zM436.705882 220.852706V185.735529c0-19.425882 15.721412-35.147294 35.147294-35.147294H542.117647c19.395765 0 35.147294 15.721412 35.147294 35.147294v35.117177H436.705882z" fill="#568af2" /><path d="M506.970353 405.323294c54.121412 0 96.647529 47.856941 96.647529 105.411765 0 46.08-27.226353 85.895529-65.807058 99.990588l-4.48753 1.445647v30.328471a26.352941 26.352941 0 0 1-23.04 26.172235l-3.312941 0.180706a26.352941 26.352941 0 0 1-26.352941-26.352941v-52.705883c0-14.546824 11.806118-26.352941 26.352941-26.352941 23.521882 0 43.941647-22.949647 43.941647-52.705882s-20.419765-52.705882-43.941647-52.705883c-23.491765 0-43.911529 22.949647-43.911529 52.705883a26.352941 26.352941 0 1 1-52.705883 0c0-57.554824 42.526118-105.411765 96.617412-105.411765zM542.117647 739.147294a35.147294 35.147294 0 1 1-70.264471 0 35.147294 35.147294 0 0 1 70.264471 0z" fill="#568af2" /><path d="M506.970353 695.205647a43.911529 43.911529 0 1 1 0 87.853177 43.911529 43.911529 0 0 1 0-87.853177z m0 17.588706a26.352941 26.352941 0 1 0 0 52.705882 26.352941 26.352941 0 0 0 0-52.705882z" fill="#568af2" /></svg>