<svg class="icon" style="width: 1em;height: 1em;vertical-align: middle;fill: currentColor;overflow: hidden;" viewBox="0 0 1024 1024" version="1.1" xmlns="http://www.w3.org/2000/svg" width="32" height="32"><path d="M813.176471 668.852706c33.972706 0 61.500235 27.527529 61.500235 61.500235v87.853177A61.500235 61.500235 0 0 1 813.176471 879.676235H215.853176a61.500235 61.500235 0 0 1-61.500235-61.470117V730.352941c0-33.972706 27.527529-61.500235 61.500235-61.500235H813.176471z m0 52.705882H215.853176a8.794353 8.794353 0 0 0-8.794352 8.794353v87.853177c0 4.818824 3.915294 8.764235 8.794352 8.764235H813.176471c4.848941 0 8.794353-3.915294 8.794353-8.764235V730.352941a8.794353 8.794353 0 0 0-8.794353-8.794353z" fill="#568af2" /><path d="M813.176471 563.440941c33.972706 0 61.500235 27.527529 61.500235 61.500235v193.264942A61.500235 61.500235 0 0 1 813.176471 879.676235H215.853176a61.500235 61.500235 0 0 1-61.500235-61.470117V624.941176c0-33.972706 27.527529-61.500235 61.500235-61.500235H813.176471z m0 52.705883H215.853176a8.794353 8.794353 0 0 0-8.794352 8.794352v193.264942c0 4.818824 3.915294 8.764235 8.794352 8.764235H813.176471c4.848941 0 8.794353-3.915294 8.794353-8.764235V624.941176a8.794353 8.794353 0 0 0-8.794353-8.794352z" fill="#568af2" /><path d="M589.974588 317.500235c18.552471 0 35.117176 11.655529 41.35153 29.153883l83.696941 234.285176a26.352941 26.352941 0 0 1-24.816941 35.237647H338.823529a26.352941 26.352941 0 0 1-24.816941-35.237647l83.666824-234.315294c6.264471-17.468235 22.799059-29.123765 41.381647-29.123765h150.889412z m-6.204235 52.705883h-138.541177l-69.029647 193.234823h276.600471l-69.029647-193.234823z" fill="#568af2" /><path d="M577.746824 124.235294a121.223529 121.223529 0 1 1 0 242.447059h-126.494118a121.223529 121.223529 0 0 1 0-242.447059h126.494118z m0 52.705882h-126.494118a68.517647 68.517647 0 0 0 0 137.035295h126.494118a68.517647 68.517647 0 0 0 0-137.035295z" fill="#568af2" /></svg>