<svg class="icon" style="width: 1em;height: 1em;vertical-align: middle;fill: currentColor;overflow: hidden;" viewBox="0 0 1024 1024" version="1.1" xmlns="http://www.w3.org/2000/svg" width="32" height="32"><path d="M596.028235 229.647059c14.576941 0 26.352941 11.806118 26.352941 26.352941v210.823529a26.352941 26.352941 0 0 1-26.352941 26.352942h-140.528941a26.352941 26.352941 0 0 1-26.352941-26.352942v-210.823529c0-14.546824 11.776-26.352941 26.352941-26.352941h140.528941z m-26.352941 52.705882h-87.823059v158.117647h87.823059v-158.117647zM311.175529 879.465412c-21.684706-2.499765-27.768471-26.684235-18.221176-41.35153l1.295059-1.746823 85.534117-153.961412a26.352941 26.352941 0 0 1 32.828236-11.655529l3.011764 1.415529a26.352941 26.352941 0 0 1 10.24 35.84l-66.138353 118.964706H691.802353l-66.078118-118.964706a26.352941 26.352941 0 0 1 7.439059-34.032941l2.800941-1.807059a26.352941 26.352941 0 0 1 35.84 10.24l87.823059 158.117647a26.352941 26.352941 0 0 1-23.04 39.152941h-421.647059l-3.764706-0.210823z" fill="#568af2" /><path d="M683.881412 124.235294c24.244706 0 43.911529 19.666824 43.911529 43.91153V466.823529a26.352941 26.352941 0 1 1-52.705882 0V176.941176h-298.646588V466.823529a26.352941 26.352941 0 0 1-23.070118 26.142118l-3.312941 0.210824a26.352941 26.352941 0 0 1-26.322824-26.352942V168.146824c0-24.244706 19.666824-43.911529 43.91153-43.91153h316.235294z" fill="#568af2" /><path d="M835.463529 440.470588c20.208941 0 35.237647 18.733176 30.840471 38.460236-24.997647 112.429176-94.72 201.577412-193.234824 233.682823-52.043294 16.956235-101.647059 26.503529-147.275294 26.503529-45.658353 0-95.262118-9.547294-147.335529-26.503529-98.484706-32.105412-168.267294-121.253647-193.234824-233.682823a31.623529 31.623529 0 0 1 30.870589-38.460236h619.339294z m-27.407058 52.705883H243.440941l0.662588 2.288941c24.576 78.727529 75.444706 139.143529 142.848 164.291764l7.830589 2.710589c47.224471 15.420235 91.587765 23.973647 131.011764 23.973647 39.393882 0 83.727059-8.553412 130.95153-23.94353 71.288471-23.220706 125.138824-85.293176 150.678588-167.03247l0.632471-2.288941z" fill="#568af2" /></svg>