<svg class="icon" style="width: 1em;height: 1em;vertical-align: middle;fill: currentColor;overflow: hidden;" viewBox="0 0 1024 1024" version="1.1" xmlns="http://www.w3.org/2000/svg" width="32" height="32"><path d="M501.970824 124.235294c208.594824 0 377.705412 169.110588 377.705411 377.73553 0 208.594824-169.110588 377.705412-377.705411 377.705411-208.624941 0-377.735529-169.110588-377.73553-377.705411 0-208.624941 169.110588-377.735529 377.73553-377.73553z m0 52.705882c-179.501176 0-325.029647 145.528471-325.029648 325.029648s145.528471 324.999529 325.029648 324.999529 324.999529-145.498353 324.999529-324.999529S681.472 176.941176 501.970824 176.941176z" fill="#568af2" /><path d="M343.853176 414.117647a43.911529 43.911529 0 1 0 0-87.853176 43.911529 43.911529 0 0 0 0 87.853176zM343.853176 554.676706a43.911529 43.911529 0 1 0 0-87.853177 43.911529 43.911529 0 0 0 0 87.853177zM501.970824 414.117647a43.911529 43.911529 0 1 0 0-87.853176 43.911529 43.911529 0 0 0 0 87.853176zM501.970824 554.676706a43.911529 43.911529 0 1 0 0-87.853177 43.911529 43.911529 0 0 0 0 87.853177zM660.088471 414.117647a43.911529 43.911529 0 1 0 0-87.853176 43.911529 43.911529 0 0 0 0 87.853176zM660.088471 554.676706a43.911529 43.911529 0 1 0 0-87.853177 43.911529 43.911529 0 0 0 0 87.853177z" fill="#568af2" /><path d="M624.941176 633.735529a26.352941 26.352941 0 1 1 0 52.705883h-245.970823a26.352941 26.352941 0 0 1 0-52.705883h245.970823z" fill="#568af2" /></svg>