<svg class="icon" style="width: 1em;height: 1em;vertical-align: middle;fill: currentColor;overflow: hidden;" viewBox="0 0 1024 1024" version="1.1" xmlns="http://www.w3.org/2000/svg" width="32" height="32"><path d="M818.206118 395.294118c33.942588 0 61.470118 27.527529 61.470117 61.500235v351.352471a61.500235 61.500235 0 0 1-61.470117 61.500235h-632.470589a61.500235 61.500235 0 0 1-61.500235-61.500235V456.794353c0-33.972706 27.527529-61.500235 61.500235-61.500235h632.470589z m0 52.705882h-632.470589a8.794353 8.794353 0 0 0-8.794353 8.794353v351.352471c0 4.848941 3.915294 8.794353 8.794353 8.794352h632.470589c4.818824 0 8.764235-3.915294 8.764235-8.794352V456.794353a8.794353 8.794353 0 0 0-8.764235-8.794353z" fill="#568af2" /><path d="M326.264471 527.058824m-35.147295 0a35.147294 35.147294 0 1 0 70.294589 0 35.147294 35.147294 0 1 0-70.294589 0Z" fill="#568af2" /><path d="M361.411765 632.470588m-35.147294 0a35.147294 35.147294 0 1 0 70.294588 0 35.147294 35.147294 0 1 0-70.294588 0Z" fill="#568af2" /><path d="M256 632.470588m-35.147294 0a35.147294 35.147294 0 1 0 70.294588 0 35.147294 35.147294 0 1 0-70.294588 0Z" fill="#568af2" /><path d="M431.676235 527.058824m-35.147294 0a35.147294 35.147294 0 1 0 70.294588 0 35.147294 35.147294 0 1 0-70.294588 0Z" fill="#568af2" /><path d="M466.823529 632.470588m-35.147294 0a35.147294 35.147294 0 1 0 70.294589 0 35.147294 35.147294 0 1 0-70.294589 0Z" fill="#568af2" /><path d="M537.088 527.058824m-35.147294 0a35.147294 35.147294 0 1 0 70.294588 0 35.147294 35.147294 0 1 0-70.294588 0Z" fill="#568af2" /><path d="M572.235294 632.470588m-35.147294 0a35.147294 35.147294 0 1 0 70.294588 0 35.147294 35.147294 0 1 0-70.294588 0Z" fill="#568af2" /><path d="M642.499765 527.058824m-35.147294 0a35.147294 35.147294 0 1 0 70.294588 0 35.147294 35.147294 0 1 0-70.294588 0Z" fill="#568af2" /><path d="M677.647059 632.470588m-35.147294 0a35.147294 35.147294 0 1 0 70.294588 0 35.147294 35.147294 0 1 0-70.294588 0Z" fill="#568af2" /><path d="M747.911529 527.058824m-35.147294 0a35.147294 35.147294 0 1 0 70.294589 0 35.147294 35.147294 0 1 0-70.294589 0Z" fill="#568af2" /><path d="M624.941176 711.529412a26.352941 26.352941 0 1 1 0 52.705882h-245.970823a26.352941 26.352941 0 0 1 0-52.705882h245.970823zM783.058824 184.470588c14.546824 0 26.352941 11.806118 26.352941 26.352941v90.051765c0 24.244706-19.666824 43.911529-43.91153 43.91153l-79.058823-0.030118V421.647059a26.352941 26.352941 0 0 1-23.070118 26.142117l-3.312941 0.210824a26.352941 26.352941 0 0 1-26.322824-26.352941v-85.654588c0-24.244706 19.666824-43.911529 43.91153-43.91153l79.058823-0.030117V210.823529c0-13.432471 10.059294-24.515765 23.04-26.142117l3.312942-0.210824z" fill="#568af2" /></svg>