<svg class="icon" style="width: 1em;height: 1em;vertical-align: middle;fill: currentColor;overflow: hidden;" viewBox="0 0 1024 1024" version="1.1" xmlns="http://www.w3.org/2000/svg" width="32" height="32"><path d="M813.176471 184.470588c33.972706 0 61.500235 27.527529 61.500235 61.500236v421.647058A61.500235 61.500235 0 0 1 813.176471 729.088H215.853176a61.500235 61.500235 0 0 1-61.500235-61.470118v-421.647058c0-33.972706 27.527529-61.500235 61.500235-61.500236H813.176471z m0 52.705883H215.853176a8.794353 8.794353 0 0 0-8.794352 8.794353v421.647058c0 4.818824 3.915294 8.764235 8.794352 8.764236H813.176471c4.848941 0 8.794353-3.915294 8.794353-8.764236v-421.647058A8.794353 8.794353 0 0 0 813.176471 237.176471z" fill="#568af2" /><path d="M813.176471 500.705882c33.972706 0 61.500235 27.527529 61.500235 61.500236v105.411764A61.500235 61.500235 0 0 1 813.176471 729.088H215.853176a61.500235 61.500235 0 0 1-61.500235-61.470118v-105.411764c0-33.972706 27.527529-61.500235 61.500235-61.500236H813.176471z m0 52.705883H215.853176a8.794353 8.794353 0 0 0-8.794352 8.794353v105.411764c0 4.818824 3.915294 8.764235 8.794352 8.764236H813.176471c4.848941 0 8.794353-3.915294 8.794353-8.764236v-105.411764a8.794353 8.794353 0 0 0-8.794353-8.794353zM458.782118 299.760941a26.352941 26.352941 0 1 1 41.170823 32.948706l-70.26447 87.823059A26.352941 26.352941 0 1 1 388.517647 387.614118l70.264471-87.853177zM563.712 335.570824a26.352941 26.352941 0 1 1 42.164706 31.623529l-52.705882 70.264471a26.352941 26.352941 0 0 1-42.164706-31.62353l52.705882-70.26447z" fill="#568af2" /><path d="M514.499765 614.912m-35.147294 0a35.147294 35.147294 0 1 0 70.294588 0 35.147294 35.147294 0 1 0-70.294588 0Z" fill="#568af2" /><path d="M628.254118 678.068706a26.352941 26.352941 0 0 1 33.91247 15.420235l52.705883 140.559059a26.352941 26.352941 0 0 1-24.696471 35.599059H338.823529a26.352941 26.352941 0 0 1-24.69647-35.599059l52.705882-140.559059a26.352941 26.352941 0 1 1 49.392941 18.522353l-39.393882 104.899765h275.335529l-39.363764-104.899765a26.352941 26.352941 0 0 1 12.40847-32.587294l3.011765-1.355294z" fill="#568af2" /></svg>