<svg class="icon" style="width: 1em;height: 1em;vertical-align: middle;fill: currentColor;overflow: hidden;" viewBox="0 0 1024 1024" version="1.1" xmlns="http://www.w3.org/2000/svg" width="32" height="32"><path d="M696.801882 361.411765c23.883294 0 43.218824 19.365647 43.218824 43.218823V662.588235a232.327529 232.327529 0 0 1-464.655059 0v-257.957647c0-23.853176 19.365647-43.218824 43.218824-43.218823h378.217411z m-8.402823 51.621647h-361.411765V662.588235a180.705882 180.705882 0 0 0 173.929412 180.585412l6.77647 0.120471a180.705882 180.705882 0 0 0 180.705883-180.705883v-249.554823z" fill="#568af2" /><path d="M662.588235 154.895059c14.245647 0 25.810824 11.565176 25.810824 25.810823v206.516706a25.810824 25.810824 0 0 1-25.810824 25.810824H352.798118a25.810824 25.810824 0 0 1-25.810824-25.810824V180.705882c0-14.245647 11.565176-25.810824 25.810824-25.810823H662.588235z m-25.840941 51.621647h-258.108235V361.411765h258.108235V206.516706z" fill="#568af2" /><path d="M456.071529 240.941176c14.245647 0 25.810824 11.565176 25.810824 25.810824V301.176471a25.810824 25.810824 0 0 1-51.621647 0V266.752c0-14.245647 11.535059-25.810824 25.810823-25.810824zM559.314824 240.941176c14.275765 0 25.840941 11.565176 25.840941 25.810824V301.176471a25.810824 25.810824 0 1 1-51.651765 0V266.752c0-14.245647 11.565176-25.810824 25.810824-25.810824zM714.209882 636.777412a25.810824 25.810824 0 0 1 0 51.621647H301.176471a25.810824 25.810824 0 0 1 0-51.621647h413.033411z" fill="#568af2" /></svg>