<svg class="icon" style="width: 1em;height: 1em;vertical-align: middle;fill: currentColor;overflow: hidden;" viewBox="0 0 1024 1024" version="1.1" xmlns="http://www.w3.org/2000/svg" width="32" height="32"><path d="M730.352941 616.146824c14.546824 0 26.352941 11.806118 26.352941 26.352941v210.823529a26.352941 26.352941 0 0 1-26.352941 26.352941H273.558588a26.352941 26.352941 0 0 1-26.352941-26.352941v-210.823529c0-14.546824 11.806118-26.352941 26.352941-26.352941H730.352941z m-26.383059 52.705882H299.911529v158.117647h404.058353v-158.117647z" fill="#568af2" /><path d="M853.323294 405.323294c14.576941 0 26.352941 11.806118 26.352941 26.352941v316.235294a26.352941 26.352941 0 0 1-26.352941 26.352942H730.654118a26.352941 26.352941 0 0 1-26.352942-26.352942v-79.058823H299.550118l0.030117 79.058823a26.352941 26.352941 0 0 1-23.04 26.172236l-3.312941 0.180706H150.588235a26.352941 26.352941 0 0 1-26.352941-26.352942v-316.235294c0-14.546824 11.806118-26.352941 26.352941-26.352941h702.735059z m-26.352941 52.705882H176.941176v263.529412h69.903059l0.030118-79.058823c0-13.432471 10.059294-24.515765 23.04-26.142118l3.312941-0.210823H730.654118c14.546824 0 26.352941 11.806118 26.352941 26.352941v79.058823h69.963294v-263.529412z" fill="#568af2" /><path d="M747.911529 124.235294c14.576941 0 26.352941 11.806118 26.352942 26.352941v281.088a26.352941 26.352941 0 0 1-26.352942 26.352941H256a26.352941 26.352941 0 0 1-26.352941-26.352941V150.588235c0-14.546824 11.806118-26.352941 26.352941-26.352941h491.911529z m-26.352941 52.705882H282.352941v228.382118h439.205647V176.941176z" fill="#568af2" /></svg>