<svg class="icon" style="width: 1em;height: 1em;vertical-align: middle;fill: currentColor;overflow: hidden;" viewBox="0 0 1024 1024" version="1.1" xmlns="http://www.w3.org/2000/svg" width="32" height="32"><path d="M818.206118 244.705882c33.942588 0 61.470118 27.527529 61.470117 61.500236v421.647058a61.500235 61.500235 0 0 1-61.470117 61.470118H427.971765a61.470118 61.470118 0 0 1-41.953883-16.534588l-253.409882-236.513882a26.352941 26.352941 0 0 1 0-38.520471l253.409882-236.513882c11.384471-10.631529 26.383059-16.534588 41.953883-16.534589h390.234353z m0 52.705883H427.971765a8.764235 8.764235 0 0 0-6.02353 2.349176l-232.719059 217.238588 232.749177 217.268706c1.084235 1.024 2.409412 1.716706 3.794823 2.108236l2.198589 0.240941h390.234353c4.818824 0 8.764235-3.915294 8.764235-8.764236v-421.647058a8.794353 8.794353 0 0 0-8.764235-8.794353z" fill="#568af2" /><path d="M694.151529 410.533647a26.352941 26.352941 0 1 1 37.25553 37.285647l-175.676235 175.676235a26.352941 26.352941 0 0 1-37.25553-37.255529l175.676235-175.706353z" fill="#568af2" /><path d="M518.475294 410.533647a26.352941 26.352941 0 0 1 37.25553 0l175.676235 175.706353a26.352941 26.352941 0 1 1-37.25553 37.255529l-175.676235-175.676235a26.352941 26.352941 0 0 1 0-37.285647z" fill="#568af2" /></svg>