<svg class="icon" style="width: 1em;height: 1em;vertical-align: middle;fill: currentColor;overflow: hidden;" viewBox="0 0 1024 1024" version="1.1" xmlns="http://www.w3.org/2000/svg" width="32" height="32"><path d="M449.264941 244.705882c14.546824 0 26.352941 11.806118 26.352941 26.352942v193.264941a26.352941 26.352941 0 0 1-52.705882 0l-0.030118-166.912H282.352941v166.912a26.352941 26.352941 0 0 1-23.04 26.142117l-3.312941 0.210824a26.352941 26.352941 0 0 1-26.352941-26.352941V271.058824c0-14.546824 11.806118-26.352941 26.352941-26.352942h193.264941z" fill="#568af2" /><path d="M818.206118 437.970824c33.942588 0 61.470118 27.527529 61.470117 61.470117v210.82353a61.500235 61.500235 0 0 1-61.470117 61.500235h-632.470589a61.500235 61.500235 0 0 1-61.500235-61.500235v-210.82353c0-33.942588 27.527529-61.470118 61.500235-61.470117h632.470589z m0 52.705882h-632.470589a8.794353 8.794353 0 0 0-8.794353 8.764235v210.82353c0 4.848941 3.915294 8.794353 8.794353 8.794353h632.470589c4.818824 0 8.764235-3.915294 8.764235-8.794353v-210.82353a8.794353 8.794353 0 0 0-8.764235-8.764235z" fill="#568af2" /><path d="M326.264471 569.735529m35.147294 0l-0.030118 0q35.147294 0 35.147294 35.147295l0-0.030118q0 35.147294-35.147294 35.147294l0.030118 0q-35.147294 0-35.147294-35.147294l0 0.030118q0-35.147294 35.147294-35.147295Z" fill="#568af2" /><path d="M712.794353 578.499765a26.352941 26.352941 0 0 1 0 52.705882H572.235294a26.352941 26.352941 0 1 1 0-52.705882h140.559059z" fill="#568af2" /></svg>