<svg class="icon" style="width: 1em;height: 1em;vertical-align: middle;fill: currentColor;overflow: hidden;" viewBox="0 0 1024 1024" version="1.1" xmlns="http://www.w3.org/2000/svg" width="32" height="32"><path d="M732.852706 154.352941c33.972706 0 61.500235 27.527529 61.500235 61.500235V813.176471a61.500235 61.500235 0 0 1-61.500235 61.500235H276.088471A61.500235 61.500235 0 0 1 214.588235 813.176471v-298.676706c0-14.546824 11.806118-26.352941 26.352941-26.352941h43.91153v-52.705883H240.941176a26.352941 26.352941 0 0 1-26.142117-23.04l-0.210824-3.312941v-87.823059c0-6.384941 2.319059-12.559059 6.505412-17.377882l112.489412-128.542118a61.500235 61.500235 0 0 1 46.290823-20.992h352.978824z m0 52.705883h-352.978824a8.794353 8.794353 0 0 0-6.625882 3.011764l-105.953882 121.042824v51.621647h43.911529c13.432471 0 24.545882 10.059294 26.172235 23.070117l0.180706 3.312942v105.411764a26.352941 26.352941 0 0 1-26.352941 26.322824H267.294118V813.176471c0 4.156235 2.891294 7.649882 6.77647 8.553411l2.017883 0.240942h456.764235c4.848941 0 8.794353-3.915294 8.794353-8.794353V215.853176a8.794353 8.794353 0 0 0-8.794353-8.794352z" fill="#568af2" /><path d="M662.588235 259.764706c14.546824 0 26.352941 11.806118 26.352941 26.352941v70.264471a26.352941 26.352941 0 1 1-52.705882 0V286.117647c0-14.546824 11.806118-26.352941 26.352941-26.352941zM451.764706 259.764706c14.546824 0 26.352941 11.806118 26.352941 26.352941v70.264471a26.352941 26.352941 0 1 1-52.705882 0V286.117647c0-14.546824 11.806118-26.352941 26.352941-26.352941zM557.176471 259.764706c14.546824 0 26.352941 11.806118 26.352941 26.352941v70.264471a26.352941 26.352941 0 1 1-52.705883 0V286.117647c0-14.546824 11.806118-26.352941 26.352942-26.352941z" fill="#568af2" /></svg>