<svg class="icon" style="width: 1em;height: 1em;vertical-align: middle;fill: currentColor;overflow: hidden;" viewBox="0 0 1024 1024" version="1.1" xmlns="http://www.w3.org/2000/svg" width="32" height="32"><path d="M778.029176 184.470588c33.972706 0 61.500235 27.527529 61.500236 61.500236v456.222117a79.058824 79.058824 0 0 1-79.058824 79.058824h-9.155764l-0.150589 2.017882a96.677647 96.677647 0 0 1-90.533647 85.594353l-5.481412 0.150588-5.481411-0.150588a96.677647 96.677647 0 0 1-90.563765-85.594353l-0.180706-2.017882h-123.783529l-0.150589 2.048a96.617412 96.617412 0 0 1-90.503529 85.534117l-5.481412 0.180706a96.617412 96.617412 0 0 1-96.015059-85.714823l-0.180705-2.048h-9.185883a79.058824 79.058824 0 0 1-78.908235-74.059294l-0.150588-4.99953V245.970824c0-33.972706 27.527529-61.500235 61.500235-61.500236h561.995294z m0 52.705883H216.033882a8.794353 8.794353 0 0 0-8.734117 8.794353v456.222117c0 14.546824 11.776 26.352941 26.322823 26.352941h35.117177c14.576941 0 26.352941 11.806118 26.352941 26.352942v17.52847a43.881412 43.881412 0 0 0 87.792941 0v-17.52847c0-14.546824 11.806118-26.352941 26.352941-26.352942h175.616c14.576941 0 26.352941 11.806118 26.352941 26.352942v17.468235c0 24.274824 19.666824 43.941647 43.941647 43.941647l4.216471-0.210824a43.911529 43.911529 0 0 0 39.695059-43.700706v-17.468235c0-14.576941 11.806118-26.383059 26.352941-26.383059h35.056941a26.352941 26.352941 0 0 0 26.352941-26.352941V245.970824a8.794353 8.794353 0 0 0-8.794353-8.794353z" fill="#568af2" /><path d="M813.176471 482.484706a26.352941 26.352941 0 0 1 0 52.705882H180.705882a26.352941 26.352941 0 1 1 0-52.705882h632.470589z" fill="#568af2" /><path d="M672.617412 306.808471c14.576941 0 26.352941 11.806118 26.352941 26.352941v175.706353a26.352941 26.352941 0 0 1-26.352941 26.352941H321.264941a26.352941 26.352941 0 0 1-26.352941-26.352941v-175.706353c0-14.546824 11.776-26.352941 26.352941-26.352941h351.352471z m-26.352941 52.705882h-298.646589v122.970353h298.646589v-122.970353zM356.382118 605.485176a26.352941 26.352941 0 1 1 0 52.705883h-35.117177a26.352941 26.352941 0 0 1 0-52.705883h35.117177zM672.617412 605.485176a26.352941 26.352941 0 1 1 0 52.705883h-35.117177a26.352941 26.352941 0 0 1 0-52.705883h35.117177z" fill="#568af2" /></svg>