<svg class="icon" style="width: 1em;height: 1em;vertical-align: middle;fill: currentColor;overflow: hidden;" viewBox="0 0 1024 1024" version="1.1" xmlns="http://www.w3.org/2000/svg" width="32" height="32"><path d="M834.680471 722.823529c14.275765 0 25.810824 11.565176 25.810823 25.810824v120.470588a25.810824 25.810824 0 0 1-25.810823 25.810824H215.130353a25.810824 25.810824 0 0 1-25.810824-25.810824v-120.470588c0-14.245647 11.535059-25.810824 25.810824-25.810824h619.550118z m-25.810824 51.621647H240.941176V843.294118h567.928471v-68.818824z" fill="#568af2" /><path d="M731.437176 258.138353c13.492706 0 24.696471 10.390588 25.720471 23.853176l34.424471 447.457883a25.810824 25.810824 0 1 1-51.501177 3.945412l-32.557176-423.604706H237.327059l75.866353 87.16047c12.288 14.155294 18.974118 32.165647 18.974117 50.748236l-0.210823 6.204235-22.256941 279.582117a25.810824 25.810824 0 0 1-51.471059-4.096l22.256941-279.582117a25.810824 25.810824 0 0 0-6.264471-18.974118L161.219765 300.905412A25.810824 25.810824 0 0 1 180.705882 258.138353h550.731294z" fill="#568af2" /><path d="M559.314824 395.836235a25.810824 25.810824 0 0 1 0 51.621647h-86.046118a25.810824 25.810824 0 0 1 0-51.621647h86.046118zM559.314824 499.079529a25.810824 25.810824 0 1 1 0 51.651765h-86.046118a25.810824 25.810824 0 1 1 0-51.651765h86.046118zM559.314824 602.352941a25.810824 25.810824 0 1 1 0 51.621647h-86.046118a25.810824 25.810824 0 1 1 0-51.621647h86.046118zM869.104941 258.138353c14.275765 0 25.810824 11.565176 25.810824 25.840941v275.33553a25.810824 25.810824 0 0 1-25.810824 25.840941H765.891765a25.810824 25.810824 0 1 1 0-51.651765h77.402353v-223.713882h-111.826824a25.810824 25.810824 0 0 1-25.6-22.588236l-0.210823-3.222588c0-14.275765 11.535059-25.840941 25.810823-25.840941h137.667765zM593.739294 154.895059c14.275765 0 25.810824 11.565176 25.810824 25.810823v86.046118a25.810824 25.810824 0 1 1-51.621647 0v-60.235294h-103.273412v60.235294a25.810824 25.810824 0 0 1-22.588235 25.6l-3.222589 0.210824a25.810824 25.810824 0 0 1-25.810823-25.810824V180.705882c0-14.245647 11.565176-25.810824 25.810823-25.810823h154.895059z" fill="#568af2" /></svg>