<svg class="icon" style="width: 1em;height: 1em;vertical-align: middle;fill: currentColor;overflow: hidden;" viewBox="0 0 1024 1024" version="1.1" xmlns="http://www.w3.org/2000/svg" width="32" height="32"><path d="M522.029176 273.558588c169.803294 0 307.471059 137.637647 307.471059 307.471059 0 169.803294-137.637647 307.440941-307.471059 307.440941-169.803294 0-307.440941-137.637647-307.440941-307.440941s137.637647-307.471059 307.440941-307.471059z m0 52.705883a254.735059 254.735059 0 1 0 0 509.500235 254.735059 254.735059 0 0 0 0-509.500235zM592.323765 133.029647a26.352941 26.352941 0 0 1 0 52.705882H451.764706a26.352941 26.352941 0 1 1 0-52.705882h140.559059z" fill="#568af2" /><path d="M522.029176 133.029647c14.576941 0 26.352941 11.776 26.352942 26.352941v140.528941a26.352941 26.352941 0 1 1-52.705883 0V159.382588c0-14.576941 11.806118-26.352941 26.352941-26.352941zM749.357176 298.857412a26.352941 26.352941 0 1 1 37.285648 37.255529l-52.705883 52.705883a26.352941 26.352941 0 1 1-37.285647-37.25553l52.705882-52.705882zM522.029176 449.264941c14.576941 0 26.352941 11.776 26.352942 26.352941v105.411765a26.352941 26.352941 0 0 1-52.705883 0v-105.411765c0-14.576941 11.806118-26.352941 26.352941-26.352941z" fill="#568af2" /><path d="M522.029176 554.676706a26.352941 26.352941 0 1 1 0 52.705882h-105.411764a26.352941 26.352941 0 0 1 0-52.705882h105.411764z" fill="#568af2" /></svg>