<svg class="icon" style="width: 1em;height: 1em;vertical-align: middle;fill: currentColor;overflow: hidden;" viewBox="0 0 1024 1024" version="1.1" xmlns="http://www.w3.org/2000/svg" width="32" height="32"><path d="M768 435.440941c33.972706 0 61.500235 27.527529 61.500235 61.500235v351.382589a61.500235 61.500235 0 0 1-61.500235 61.470117H276.088471a61.500235 61.500235 0 0 1-61.500236-61.470117V496.941176c0-33.972706 27.527529-61.500235 61.500236-61.500235H768z m0 52.705883H276.088471a8.794353 8.794353 0 0 0-8.794353 8.794352v351.382589c0 4.818824 3.915294 8.764235 8.794353 8.764235H768c4.848941 0 8.794353-3.915294 8.794353-8.764235V496.941176a8.794353 8.794353 0 0 0-8.794353-8.794352z" fill="#568af2" /><path d="M680.146824 154.352941c14.576941 0 26.352941 11.806118 26.352941 26.352941v281.088a26.352941 26.352941 0 0 1-26.352941 26.352942h-316.235295a26.352941 26.352941 0 0 1-26.352941-26.352942V180.705882c0-14.546824 11.806118-26.352941 26.352941-26.352941h316.235295z m-26.352942 52.705883h-263.529411v228.382117h263.529411V207.058824z" fill="#568af2" /><path d="M469.323294 259.764706c14.576941 0 26.352941 11.806118 26.352941 26.352941v35.147294a26.352941 26.352941 0 0 1-52.705882 0V286.117647c0-14.546824 11.806118-26.352941 26.352941-26.352941zM574.735059 259.764706c14.576941 0 26.352941 11.806118 26.352941 26.352941v35.147294a26.352941 26.352941 0 0 1-52.705882 0V286.117647c0-14.546824 11.806118-26.352941 26.352941-26.352941z" fill="#568af2" /></svg>