<svg class="icon" style="width: 1em;height: 1em;vertical-align: middle;fill: currentColor;overflow: hidden;" viewBox="0 0 1024 1024" version="1.1" xmlns="http://www.w3.org/2000/svg" width="32" height="32"><path d="M552.508235 293.104941l42.465883 66.710588 136.192 214.016a113.965176 113.965176 0 0 1-157.334589 157.334589l-214.016-136.192-66.710588-42.465883 78.848-6.053647a178.898824 178.898824 0 0 0 25.389177-4.517647 224.737882 224.737882 0 0 0 58.096941-22.497882c13.643294-7.710118 25.901176-16.835765 36.532706-27.467294 10.631529-10.601412 19.757176-22.889412 27.467294-36.532706a224.737882 224.737882 0 0 0 22.497882-58.127059 178.898824 178.898824 0 0 0 4.517647-25.359059l6.053647-78.848z m31.593412 147.817412l-2.710588 7.107765a279.220706 279.220706 0 0 1-16.052706 33.340235 221.575529 221.575529 0 0 1-36.080941 47.887059c-14.155294 14.155294-30.238118 26.081882-47.887059 36.080941a279.190588 279.190588 0 0 1-33.340235 16.022588l-7.107765 2.710588 161.189647 102.610824a61.259294 61.259294 0 0 0 72.523294-4.939294l3.674353-3.433412c20.299294-20.299294 23.792941-51.952941 8.372706-76.197647l-102.580706-161.189647z" fill="#568af2" /><path d="M373.970824 154.352941a219.617882 219.617882 0 1 1 0 439.205647 219.617882 219.617882 0 0 1 0-439.205647z m0 52.705883a166.912 166.912 0 1 0 0 333.793882 166.912 166.912 0 0 0 0-333.793882z" fill="#568af2" /><path d="M539.015529 191.186824a26.352941 26.352941 0 1 1 37.285647 37.255529l-347.858823 347.858823a26.352941 26.352941 0 0 1-37.255529-37.285647l347.858823-347.858823zM689.121882 671.563294a26.352941 26.352941 0 0 1 37.285647 0l140.528942 140.559059c16.624941 16.564706 4.848941 44.965647-18.612706 44.965647h-158.117647a26.352941 26.352941 0 1 1 0-52.705882h94.479058l-95.563294-95.563294a26.352941 26.352941 0 0 1-2.349176-34.544942l2.349176-2.710588z" fill="#568af2" /></svg>