<svg class="icon" style="width: 1em;height: 1em;vertical-align: middle;fill: currentColor;overflow: hidden;" viewBox="0 0 1024 1024" version="1.1" xmlns="http://www.w3.org/2000/svg" width="32" height="32"><path d="M818.206118 244.705882c33.942588 0 61.470118 27.527529 61.470117 61.500236v421.647058a61.500235 61.500235 0 0 1-61.470117 61.470118h-632.470589a61.500235 61.500235 0 0 1-61.500235-61.470118v-421.647058c0-33.972706 27.527529-61.500235 61.500235-61.500236h632.470589z m0 52.705883h-632.470589a8.794353 8.794353 0 0 0-8.794353 8.794353v421.647058c0 4.818824 3.915294 8.764235 8.794353 8.764236h632.470589c4.818824 0 8.764235-3.915294 8.764235-8.764236v-421.647058a8.794353 8.794353 0 0 0-8.764235-8.794353z" fill="#568af2" /><path d="M611.930353 631.205647c14.697412 0 28.882824 5.270588 40.056471 14.817882l113.091764 96.948706c18.582588 15.932235 7.318588 46.381176-17.167059 46.381177H256c-23.491765 0-35.237647-28.400941-18.642824-44.995765l95.141648-95.141647a61.500235 61.500235 0 0 1 43.459764-18.010353h235.971765z m0 52.705882h-235.971765a8.794353 8.794353 0 0 0-6.204235 2.590118l-50.176 50.115765h357.104941l-59.030588-50.597647a8.794353 8.794353 0 0 0-3.644235-1.867294l-2.078118-0.240942z" fill="#568af2" /><path d="M765.500235 736.617412a26.352941 26.352941 0 0 1 0 52.705882h-527.058823a26.352941 26.352941 0 1 1 0-52.705882h527.058823zM343.853176 367.676235a96.617412 96.617412 0 1 1 0 193.264941 96.617412 96.617412 0 0 1 0-193.264941z m0 52.705883a43.911529 43.911529 0 1 0 0 87.853176 43.911529 43.911529 0 0 0 0-87.853176zM660.088471 367.676235a96.617412 96.617412 0 1 1 0 193.264941 96.617412 96.617412 0 0 1 0-193.264941z m0 52.705883a43.911529 43.911529 0 1 0 0 87.853176 43.911529 43.911529 0 0 0 0-87.853176z" fill="#568af2" /><path d="M660.088471 508.235294a26.352941 26.352941 0 0 1 0 52.705882h-316.235295a26.352941 26.352941 0 1 1 0-52.705882h316.235295zM660.088471 367.676235a26.352941 26.352941 0 0 1 0 52.705883h-316.235295a26.352941 26.352941 0 1 1 0-52.705883h316.235295z" fill="#568af2" /></svg>