<svg class="icon" style="width: 1em;height: 1em;vertical-align: middle;fill: currentColor;overflow: hidden;" viewBox="0 0 1024 1024" version="1.1" xmlns="http://www.w3.org/2000/svg" width="32" height="32"><path d="M562.206118 184.470588c170.526118 0 307.440941 154.021647 307.440941 342.588236 0 188.536471-136.914824 342.588235-307.440941 342.588235-76.589176 0-148.690824-31.292235-204.498824-86.738824l37.135059-37.345882c46.170353 45.839059 105.050353 71.378824 167.363765 71.378823 139.956706 0 254.735059-129.144471 254.735058-289.882352s-114.778353-289.882353-254.735058-289.882353c-62.313412 0-121.193412 25.539765-167.363765 71.378823l-37.135059-37.345882c55.808-55.446588 127.909647-86.738824 204.498824-86.738824z" fill="#568af2" /><path d="M351.382588 254.735059c33.942588 0 61.470118 27.527529 61.470118 61.500235v421.647059a61.500235 61.500235 0 0 1-61.470118 61.500235h-105.411764A61.500235 61.500235 0 0 1 184.470588 737.882353v-421.647059c0-33.972706 27.527529-61.500235 61.500236-61.500235h105.411764z m0 52.705882h-105.411764a8.794353 8.794353 0 0 0-8.794353 8.794353v421.647059c0 4.848941 3.915294 8.794353 8.794353 8.794353h105.411764c4.818824 0 8.764235-3.915294 8.764236-8.794353v-421.647059a8.794353 8.794353 0 0 0-8.764236-8.794353z" fill="#568af2" /><path d="M333.824 421.647059m0 35.147294l0-0.030118q0 35.147294-35.147294 35.147294l0.030118 0q-35.147294 0-35.147295-35.147294l0 0.030118q0-35.147294 35.147295-35.147294l-0.030118 0q35.147294 0 35.147294 35.147294Z" fill="#568af2" /><path d="M333.824 544.617412m0 35.147294l0-0.030118q0 35.147294-35.147294 35.147294l0.030118 0q-35.147294 0-35.147295-35.147294l0 0.030118q0-35.147294 35.147295-35.147294l-0.030118 0q35.147294 0 35.147294 35.147294Z" fill="#568af2" /></svg>