<svg class="icon" style="width: 1em;height: 1em;vertical-align: middle;fill: currentColor;overflow: hidden;" viewBox="0 0 1024 1024" version="1.1" xmlns="http://www.w3.org/2000/svg" width="32" height="32"><path d="M795.617882 154.352941a79.058824 79.058824 0 0 1 79.058824 79.058824v562.206117a79.058824 79.058824 0 0 1-79.058824 79.058824H233.411765a79.058824 79.058824 0 0 1-79.058824-79.058824V233.411765A79.058824 79.058824 0 0 1 233.411765 154.352941h562.206117z m0 52.705883H233.411765a26.352941 26.352941 0 0 0-26.352941 26.352941v562.206117c0 14.546824 11.806118 26.352941 26.352941 26.352942h562.206117a26.352941 26.352941 0 0 0 26.352942-26.352942V233.411765a26.352941 26.352941 0 0 0-26.352942-26.352941z" fill="#568af2" /><path d="M426.676706 277.323294c14.546824 0 26.352941 11.806118 26.352941 26.352941v421.647059a26.352941 26.352941 0 0 1-26.352941 26.352941H286.117647a26.352941 26.352941 0 0 1-26.352941-26.352941v-421.647059c0-14.546824 11.806118-26.352941 26.352941-26.352941h140.559059z m-26.383059 52.705882h-87.823059v368.941177h87.823059v-368.941177zM742.912 277.323294c14.546824 0 26.352941 11.806118 26.352941 26.352941v105.411765a26.352941 26.352941 0 0 1-26.352941 26.352941h-210.823529a26.352941 26.352941 0 0 1-26.352942-26.352941v-105.411765c0-14.546824 11.776-26.352941 26.352942-26.352941h210.823529z m-26.352941 52.705882h-158.117647v52.705883h158.117647v-52.705883z" fill="#568af2" /><path d="M532.088471 514.499765m-35.147295 0a35.147294 35.147294 0 1 0 70.294589 0 35.147294 35.147294 0 1 0-70.294589 0Z" fill="#568af2" /><path d="M532.088471 619.911529m-35.147295 0a35.147294 35.147294 0 1 0 70.294589 0 35.147294 35.147294 0 1 0-70.294589 0Z" fill="#568af2" /><path d="M532.088471 725.323294m-35.147295 0a35.147294 35.147294 0 1 0 70.294589 0 35.147294 35.147294 0 1 0-70.294589 0Z" fill="#568af2" /><path d="M637.500235 514.499765m-35.147294 0a35.147294 35.147294 0 1 0 70.294588 0 35.147294 35.147294 0 1 0-70.294588 0Z" fill="#568af2" /><path d="M637.500235 619.911529m-35.147294 0a35.147294 35.147294 0 1 0 70.294588 0 35.147294 35.147294 0 1 0-70.294588 0Z" fill="#568af2" /><path d="M637.500235 725.323294m-35.147294 0a35.147294 35.147294 0 1 0 70.294588 0 35.147294 35.147294 0 1 0-70.294588 0Z" fill="#568af2" /><path d="M742.912 514.499765m-35.147294 0a35.147294 35.147294 0 1 0 70.294588 0 35.147294 35.147294 0 1 0-70.294588 0Z" fill="#568af2" /><path d="M742.912 619.911529m-35.147294 0a35.147294 35.147294 0 1 0 70.294588 0 35.147294 35.147294 0 1 0-70.294588 0Z" fill="#568af2" /><path d="M742.912 725.323294m-35.147294 0a35.147294 35.147294 0 1 0 70.294588 0 35.147294 35.147294 0 1 0-70.294588 0Z" fill="#568af2" /></svg>