<svg class="icon" style="width: 1em;height: 1em;vertical-align: middle;fill: currentColor;overflow: hidden;" viewBox="0 0 1024 1024" version="1.1" xmlns="http://www.w3.org/2000/svg" width="32" height="32"><path d="M818.206118 184.470588c33.942588 0 61.470118 27.527529 61.470117 61.500236v351.35247a61.500235 61.500235 0 0 1-61.470117 61.500235h-632.470589a61.500235 61.500235 0 0 1-61.500235-61.500235V245.970824c0-33.972706 27.527529-61.500235 61.500235-61.500236h632.470589z m0 52.705883h-632.470589a8.794353 8.794353 0 0 0-8.794353 8.794353v351.35247c0 4.848941 3.915294 8.794353 8.794353 8.794353h632.470589c4.818824 0 8.764235-3.915294 8.764235-8.794353V245.970824a8.794353 8.794353 0 0 0-8.764235-8.794353z" fill="#568af2" /><path d="M607.382588 184.470588c14.546824 0 26.352941 11.806118 26.352941 26.352941v421.647059a26.352941 26.352941 0 0 1-52.705882 0V210.823529c0-14.546824 11.776-26.352941 26.352941-26.352941zM396.559059 184.470588c14.546824 0 26.352941 11.806118 26.352941 26.352941v421.647059a26.352941 26.352941 0 0 1-52.705882 0V210.823529c0-14.546824 11.776-26.352941 26.352941-26.352941z" fill="#568af2" /><path d="M818.206118 395.294118a26.352941 26.352941 0 0 1 0 52.705882h-632.470589a26.352941 26.352941 0 1 1 0-52.705882h632.470589zM501.970824 606.117647c14.546824 0 26.352941 11.806118 26.352941 26.352941v158.117647a26.352941 26.352941 0 0 1-52.705883 0V632.470588c0-14.546824 11.776-26.352941 26.352942-26.352941z" fill="#568af2" /><path d="M624.941176 764.235294a26.352941 26.352941 0 1 1 0 52.705882h-245.970823a26.352941 26.352941 0 0 1 0-52.705882h245.970823z" fill="#568af2" /></svg>