<svg class="icon" style="width: 1em;height: 1em;vertical-align: middle;fill: currentColor;overflow: hidden;" viewBox="0 0 1024 1024" version="1.1" xmlns="http://www.w3.org/2000/svg" width="32" height="32"><path d="M747.911529 475.617882c10.541176 0 20.088471 6.264471 24.244706 15.962353l105.411765 245.970824a26.352941 26.352941 0 0 1-24.244706 36.743529H150.588235a26.352941 26.352941 0 0 1-24.214588-36.743529l105.411765-245.970824a26.352941 26.352941 0 0 1 24.214588-15.962353h491.911529z m-17.347764 52.705883H273.347765l-82.793412 193.234823h622.802823l-82.793411-193.234823z" fill="#568af2" /><path d="M256 124.235294c14.546824 0 26.352941 11.806118 26.352941 26.352941v351.382589a26.352941 26.352941 0 0 1-52.705882 0V150.588235c0-14.546824 11.806118-26.352941 26.352941-26.352941z" fill="#568af2" /><path d="M747.911529 124.235294c14.576941 0 26.352941 11.806118 26.352942 26.352941v351.382589a26.352941 26.352941 0 0 1-52.705883 0V150.588235c0-14.546824 11.806118-26.352941 26.352941-26.352941z" fill="#568af2" /><path d="M501.970824 124.235294c14.546824 0 26.352941 11.806118 26.352941 26.352941v351.382589a26.352941 26.352941 0 0 1-52.705883 0V150.588235c0-14.546824 11.776-26.352941 26.352942-26.352941zM853.323294 721.558588c14.576941 0 26.352941 11.806118 26.352941 26.352941v105.411765a26.352941 26.352941 0 0 1-26.352941 26.352941H150.588235a26.352941 26.352941 0 0 1-26.352941-26.352941v-105.411765a26.352941 26.352941 0 0 1 52.705882 0v79.058824h650.029177v-79.058824c0-13.432471 10.059294-24.515765 23.070118-26.142117l3.312941-0.210824z" fill="#568af2" /></svg>