<svg class="icon" style="width: 1em;height: 1em;vertical-align: middle;fill: currentColor;overflow: hidden;" viewBox="0 0 1024 1024" version="1.1" xmlns="http://www.w3.org/2000/svg" width="32" height="32"><path d="M409.088 184.470588c14.576941 0 26.352941 11.806118 26.352941 26.352941v597.323295a26.352941 26.352941 0 0 1-26.352941 26.352941H180.705882a26.352941 26.352941 0 0 1-26.352941-26.352941V210.823529c0-14.546824 11.806118-26.352941 26.352941-26.352941h228.382118z m-26.352941 52.705883H207.058824v544.617411h175.676235V237.176471zM795.617882 289.882353a79.058824 79.058824 0 0 1 79.058824 79.058823v281.088a79.058824 79.058824 0 0 1-79.058824 79.058824h-228.412235a79.058824 79.058824 0 0 1-79.058823-79.058824V368.941176a79.058824 79.058824 0 0 1 79.058823-79.058823h228.412235z m0 52.705882h-228.412235a26.352941 26.352941 0 0 0-26.352941 26.352941v281.088c0 14.576941 11.806118 26.352941 26.352941 26.352942h228.412235a26.352941 26.352941 0 0 0 26.352942-26.352942V368.941176a26.352941 26.352941 0 0 0-26.352942-26.352941z" fill="#568af2" /><path d="M681.411765 430.441412a87.853176 87.853176 0 1 1 0 175.676235 87.853176 87.853176 0 0 1 0-175.676235z m0 52.705882a35.147294 35.147294 0 1 0 0 70.264471 35.147294 35.147294 0 0 0 0-70.264471zM514.499765 483.147294a26.352941 26.352941 0 1 1 0 52.705882h-105.411765a26.352941 26.352941 0 0 1 0-52.705882h105.411765z" fill="#568af2" /><path d="M250.970353 351.382588m43.911529 0l0.030118 0q43.911529 0 43.911529 43.91153l0 0.030117q0 43.911529-43.911529 43.91153l-0.030118 0q-43.911529 0-43.911529-43.91153l0-0.030117q0-43.911529 43.911529-43.91153Z" fill="#568af2" /></svg>