<svg class="icon" style="width: 1em;height: 1em;vertical-align: middle;fill: currentColor;overflow: hidden;" viewBox="0 0 1024 1024" version="1.1" xmlns="http://www.w3.org/2000/svg" width="32" height="32"><path d="M853.323294 184.470588c14.576941 0 26.352941 11.806118 26.352941 26.352941v386.499765a26.352941 26.352941 0 0 1-26.352941 26.352941H150.588235a26.352941 26.352941 0 0 1-26.352941-26.352941V210.823529c0-14.546824 11.806118-26.352941 26.352941-26.352941h702.735059z m-26.352941 52.705883H176.941176v333.793882h650.029177V237.176471z" fill="#568af2" /><path d="M853.323294 570.970353c14.576941 0 26.352941 11.806118 26.352941 26.352941V737.882353a26.352941 26.352941 0 0 1-26.352941 26.352941H150.588235a26.352941 26.352941 0 0 1-26.352941-26.352941v-140.559059a26.352941 26.352941 0 0 1 52.705882 0v114.176h650.029177v-114.145882c0-13.462588 10.059294-24.545882 23.070118-26.172236l3.312941-0.210823zM310.302118 421.647059H271.962353a15.962353 15.962353 0 0 0-15.962353 15.962353v38.339764c0 8.824471 7.137882 15.962353 15.962353 15.962353h38.339765a15.962353 15.962353 0 0 0 15.962353-15.962353V437.609412a15.962353 15.962353 0 0 0-15.962353-15.962353zM310.302118 316.235294H271.962353a15.962353 15.962353 0 0 0-15.962353 15.962353v38.339765c0 8.824471 7.137882 15.962353 15.962353 15.962353h38.339765a15.962353 15.962353 0 0 0 15.962353-15.962353V332.197647a15.962353 15.962353 0 0 0-15.962353-15.962353zM450.861176 421.647059h-38.339764a15.962353 15.962353 0 0 0-15.962353 15.962353v38.339764c0 8.824471 7.137882 15.962353 15.962353 15.962353h38.339764a15.962353 15.962353 0 0 0 15.962353-15.962353V437.609412a15.962353 15.962353 0 0 0-15.962353-15.962353zM450.861176 316.235294h-38.339764a15.962353 15.962353 0 0 0-15.962353 15.962353v38.339765c0 8.824471 7.137882 15.962353 15.962353 15.962353h38.339764a15.962353 15.962353 0 0 0 15.962353-15.962353V332.197647a15.962353 15.962353 0 0 0-15.962353-15.962353zM591.390118 421.647059h-38.309647a15.962353 15.962353 0 0 0-15.962353 15.962353v38.339764c0 8.824471 7.137882 15.962353 15.962353 15.962353h38.309647a15.962353 15.962353 0 0 0 15.962353-15.962353V437.609412a15.962353 15.962353 0 0 0-15.962353-15.962353zM591.390118 316.235294h-38.309647a15.962353 15.962353 0 0 0-15.962353 15.962353v38.339765c0 8.824471 7.137882 15.962353 15.962353 15.962353h38.309647a15.962353 15.962353 0 0 0 15.962353-15.962353V332.197647a15.962353 15.962353 0 0 0-15.962353-15.962353zM731.949176 316.235294H693.609412a15.962353 15.962353 0 0 0-15.962353 15.962353v38.339765c0 8.824471 7.137882 15.962353 15.962353 15.962353h38.339764a15.962353 15.962353 0 0 0 15.962353-15.962353V332.197647a15.962353 15.962353 0 0 0-15.962353-15.962353z" fill="#568af2" /><path d="M540.822588 717.402353a26.352941 26.352941 0 0 1 37.044706 3.915294l85.142588 105.411765a26.352941 26.352941 0 0 1-20.48 42.917647H361.411765a26.352941 26.352941 0 0 1-20.48-42.917647l85.11247-105.411765a26.352941 26.352941 0 0 1 41.020236 33.129412l-50.537412 62.494117h170.827294l-50.477177-62.494117a26.352941 26.352941 0 0 1 1.295059-34.635294l2.650353-2.409412z" fill="#568af2" /></svg>