<svg class="icon" style="width: 1em;height: 1em;vertical-align: middle;fill: currentColor;overflow: hidden;" viewBox="0 0 1024 1024" version="1.1" xmlns="http://www.w3.org/2000/svg" width="32" height="32"><path d="M402.823529 184.470588a87.853176 87.853176 0 0 1 87.853177 87.853177v228.382117h-175.706353V272.323765a87.853176 87.853176 0 0 1 87.853176-87.853177z m0 52.705883c-19.395765 0-35.147294 15.721412-35.147294 35.147294v175.676235h70.264471V272.323765c0-18.130824-13.673412-33.039059-31.292235-34.936471l-3.824942-0.210823zM631.205647 184.470588a87.853176 87.853176 0 0 1 87.853177 87.853177v228.382117h-175.676236V272.323765a87.853176 87.853176 0 0 1 87.823059-87.853177z m0 52.705883c-19.395765 0-35.117176 15.721412-35.117176 35.147294v175.676235h70.26447V272.323765c0-18.130824-13.703529-33.039059-31.322353-34.936471l-3.824941-0.210823zM622.441412 676.382118c14.546824 0 26.352941 11.806118 26.352941 26.352941V843.294118a26.352941 26.352941 0 0 1-26.352941 26.352941h-210.82353a26.352941 26.352941 0 0 1-26.352941-26.352941v-140.559059c0-14.546824 11.776-26.352941 26.352941-26.352941h210.82353z m-26.352941 52.705882h-158.117647v87.823059h158.117647v-87.823059z" fill="#568af2" /><path d="M745.411765 448c24.244706 0 43.911529 19.666824 43.911529 43.911529v70.294589a166.912 166.912 0 0 1-166.881882 166.881882h-210.82353a166.912 166.912 0 0 1-166.912-166.881882v-70.294589c0-24.244706 19.666824-43.911529 43.91153-43.911529H745.411765z m-8.794353 52.705882H297.411765v61.500236a114.206118 114.206118 0 0 0 108.333176 114.025411l5.872941 0.150589h210.82353a114.206118 114.206118 0 0 0 114.176-114.176v-61.500236z" fill="#568af2" /></svg>