<svg class="icon" style="width: 1em;height: 1em;vertical-align: middle;fill: currentColor;overflow: hidden;" viewBox="0 0 1024 1024" version="1.1" xmlns="http://www.w3.org/2000/svg" width="32" height="32"><path d="M818.206118 184.470588c33.942588 0 61.470118 27.527529 61.470117 61.500236v456.764235a61.500235 61.500235 0 0 1-61.470117 61.500235h-632.470589a61.500235 61.500235 0 0 1-61.500235-61.500235V245.970824c0-33.972706 27.527529-61.500235 61.500235-61.500236h632.470589z m0 52.705883h-632.470589a8.794353 8.794353 0 0 0-8.794353 8.794353v456.764235c0 4.848941 3.915294 8.794353 8.794353 8.794353h632.470589c4.818824 0 8.764235-3.915294 8.764235-8.794353V245.970824a8.794353 8.794353 0 0 0-8.764235-8.794353z" fill="#568af2" /><path d="M747.911529 342.588235a26.352941 26.352941 0 1 1 0 52.705883H677.647059a26.352941 26.352941 0 1 1 0-52.705883h70.26447zM747.911529 448a26.352941 26.352941 0 1 1 0 52.705882H677.647059a26.352941 26.352941 0 1 1 0-52.705882h70.26447zM554.676706 342.588235c14.546824 0 26.352941 11.806118 26.352941 26.352941v210.82353a26.352941 26.352941 0 0 1-26.352941 26.352941H256a26.352941 26.352941 0 0 1-26.352941-26.352941v-210.82353c0-14.546824 11.806118-26.352941 26.352941-26.352941h298.676706z m-26.383059 52.705883H282.352941v158.117647h245.940706v-158.117647z" fill="#568af2" /><path d="M712.794353 579.764706m-35.147294 0a35.147294 35.147294 0 1 0 70.294588 0 35.147294 35.147294 0 1 0-70.294588 0Z" fill="#568af2" /><path d="M291.147294 711.529412c14.546824 0 26.352941 11.806118 26.352941 26.352941V843.294118a26.352941 26.352941 0 0 1-52.705882 0v-105.411765c0-14.546824 11.776-26.352941 26.352941-26.352941zM712.794353 711.529412c14.546824 0 26.352941 11.806118 26.352941 26.352941V843.294118a26.352941 26.352941 0 0 1-52.705882 0v-105.411765c0-14.546824 11.776-26.352941 26.352941-26.352941z" fill="#568af2" /></svg>