<svg class="icon" style="width: 1em;height: 1em;vertical-align: middle;fill: currentColor;overflow: hidden;" viewBox="0 0 1024 1024" version="1.1" xmlns="http://www.w3.org/2000/svg" width="32" height="32"><path d="M522.029176 154.352941c169.803294 0 307.471059 137.637647 307.471059 307.440941v80.745412c0 28.190118-22.859294 51.019294-51.049411 51.019294H265.637647a51.019294 51.019294 0 0 1-51.019294-51.019294v-80.715294c0-169.833412 137.637647-307.471059 307.440941-307.471059z m0 52.705883a254.735059 254.735059 0 0 0-254.735058 254.735058v79.058824h509.470117v-79.058824c0-138.119529-109.929412-250.578824-247.085176-254.614588l-7.649883-0.12047z" fill="#568af2" /><path d="M522.029176 540.852706c14.576941 0 26.352941 11.806118 26.352942 26.352941v281.118118a26.352941 26.352941 0 0 1-52.705883 0v-281.118118c0-14.546824 11.806118-26.352941 26.352941-26.352941zM363.911529 540.852706c14.576941 0 26.352941 11.806118 26.352942 26.352941v105.411765a26.352941 26.352941 0 1 1-52.705883 0v-105.411765c0-14.546824 11.806118-26.352941 26.352941-26.352941z" fill="#568af2" /><path d="M680.146824 821.970824a26.352941 26.352941 0 1 1 0 52.705882h-316.235295a26.352941 26.352941 0 0 1 0-52.705882h316.235295z" fill="#568af2" /></svg>