<svg class="icon" style="width: 1em;height: 1em;vertical-align: middle;fill: currentColor;overflow: hidden;" viewBox="0 0 1024 1024" version="1.1" xmlns="http://www.w3.org/2000/svg" width="32" height="32"><path d="M487.996235 190.253176a26.352941 26.352941 0 0 1 32.948706 0l263.529412 210.82353a26.352941 26.352941 0 0 1 9.878588 20.570353v421.647059a26.352941 26.352941 0 0 1-26.352941 26.352941H240.941176A26.352941 26.352941 0 0 1 214.588235 843.294118V421.647059c0-8.011294 3.614118-15.570824 9.878589-20.570353l263.529411-210.82353z m16.474353 54.302118l-237.17647 189.741177v382.644705h474.352941V434.326588L504.470588 244.555294z" fill="#568af2" /><path d="M504.470588 465.558588c14.546824 0 26.352941 11.806118 26.352941 26.352941v210.82353a26.352941 26.352941 0 1 1-52.705882 0v-210.82353c0-14.546824 11.806118-26.352941 26.352941-26.352941zM627.440941 535.853176c14.576941 0 26.352941 11.776 26.352941 26.352942V632.470588a26.352941 26.352941 0 1 1-52.705882 0v-70.26447c0-14.576941 11.806118-26.352941 26.352941-26.352942zM381.500235 535.853176c14.546824 0 26.352941 11.776 26.352941 26.352942V632.470588a26.352941 26.352941 0 0 1-52.705882 0v-70.26447c0-14.576941 11.776-26.352941 26.352941-26.352942z" fill="#568af2" /></svg>