<svg class="icon" style="width: 1em;height: 1em;vertical-align: middle;fill: currentColor;overflow: hidden;" viewBox="0 0 1024 1024" version="1.1" xmlns="http://www.w3.org/2000/svg" width="32" height="32"><path d="M727.853176 124.235294c33.942588 0 61.470118 27.527529 61.470118 61.500235v632.470589a61.500235 61.500235 0 0 1-61.470118 61.470117h-421.647058a61.500235 61.500235 0 0 1-61.500236-61.470117v-632.470589c0-33.972706 27.527529-61.500235 61.500236-61.500235h421.647058z m0 52.705882h-421.647058a8.794353 8.794353 0 0 0-8.794353 8.794353v632.470589c0 4.818824 3.915294 8.764235 8.794353 8.764235h421.647058c4.818824 0 8.764235-3.915294 8.764236-8.764235v-632.470589a8.794353 8.794353 0 0 0-8.764236-8.794353z" fill="#568af2" /><path d="M640 264.794353a26.352941 26.352941 0 1 1 0 52.705882h-245.970824a26.352941 26.352941 0 0 1 0-52.705882h245.970824z" fill="#568af2" /><path d="M394.029176 449.264941m-35.147294 0a35.147294 35.147294 0 1 0 70.294589 0 35.147294 35.147294 0 1 0-70.294589 0Z" fill="#568af2" /><path d="M394.029176 554.676706m-35.147294 0a35.147294 35.147294 0 1 0 70.294589 0 35.147294 35.147294 0 1 0-70.294589 0Z" fill="#568af2" /><path d="M394.029176 660.088471m-35.147294 0a35.147294 35.147294 0 1 0 70.294589 0 35.147294 35.147294 0 1 0-70.294589 0Z" fill="#568af2" /><path d="M517.029647 449.264941m-35.147294 0a35.147294 35.147294 0 1 0 70.294588 0 35.147294 35.147294 0 1 0-70.294588 0Z" fill="#568af2" /><path d="M517.029647 554.676706m-35.147294 0a35.147294 35.147294 0 1 0 70.294588 0 35.147294 35.147294 0 1 0-70.294588 0Z" fill="#568af2" /><path d="M517.029647 660.088471m-35.147294 0a35.147294 35.147294 0 1 0 70.294588 0 35.147294 35.147294 0 1 0-70.294588 0Z" fill="#568af2" /><path d="M640 449.264941m-35.147294 0a35.147294 35.147294 0 1 0 70.294588 0 35.147294 35.147294 0 1 0-70.294588 0Z" fill="#568af2" /><path d="M640 554.676706m-35.147294 0a35.147294 35.147294 0 1 0 70.294588 0 35.147294 35.147294 0 1 0-70.294588 0Z" fill="#568af2" /><path d="M640 660.088471m-35.147294 0a35.147294 35.147294 0 1 0 70.294588 0 35.147294 35.147294 0 1 0-70.294588 0Z" fill="#568af2" /></svg>