<svg class="icon" style="width: 1em;height: 1em;vertical-align: middle;fill: currentColor;overflow: hidden;" viewBox="0 0 1024 1024" version="1.1" xmlns="http://www.w3.org/2000/svg" width="32" height="32"><path d="M504.470588 124.235294a289.882353 289.882353 0 0 1 289.882353 289.882353 289.882353 289.882353 0 0 1-289.882353 289.882353 289.882353 289.882353 0 0 1-289.882353-289.882353 289.882353 289.882353 0 0 1 289.882353-289.882353z m0 52.705882a237.176471 237.176471 0 1 0 0 474.352942 237.176471 237.176471 0 0 0 0-474.352942z" fill="#568af2" /><path d="M504.470588 282.352941a131.764706 131.764706 0 1 1 0 263.529412 131.764706 131.764706 0 0 1 0-263.529412z m0 52.705883a79.058824 79.058824 0 1 0 0 158.117647 79.058824 79.058824 0 0 0 0-158.117647zM585.336471 651.294118c11.294118 0 21.323294 7.198118 24.967529 17.889882l59.663059 175.676235a26.352941 26.352941 0 0 1-24.937412 34.816h-281.118118a26.352941 26.352941 0 0 1-24.967529-34.755764l59.181176-175.676236a26.352941 26.352941 0 0 1 24.997648-17.950117h162.213647z m-18.883765 52.705882h-124.446118l-41.411764 122.970353h207.600941l-41.743059-122.970353z" fill="#568af2" /><path d="M715.294118 826.970353a26.352941 26.352941 0 0 1 0 52.705882h-421.647059a26.352941 26.352941 0 1 1 0-52.705882h421.647059z" fill="#568af2" /></svg>