<svg class="icon" style="width: 1em;height: 1em;vertical-align: middle;fill: currentColor;overflow: hidden;" viewBox="0 0 1024 1024" version="1.1" xmlns="http://www.w3.org/2000/svg" width="32" height="32"><path d="M474.352941 154.352941a26.352941 26.352941 0 1 1 0 52.705883h-210.823529a26.352941 26.352941 0 0 0-26.352941 26.352941v386.499764c0 14.576941 11.806118 26.352941 26.352941 26.352942h527.058823a26.352941 26.352941 0 0 0 26.352941-26.352942V444.235294a26.352941 26.352941 0 1 1 52.705883 0v175.676235a79.058824 79.058824 0 0 1-79.058824 79.058824H263.529412a79.058824 79.058824 0 0 1-79.058824-79.058824V233.411765A79.058824 79.058824 0 0 1 263.529412 154.352941h210.823529z" fill="#568af2" /><path d="M527.058824 646.264471c14.546824 0 26.352941 11.806118 26.352941 26.352941V813.176471a26.352941 26.352941 0 1 1-52.705883 0v-140.559059c0-14.546824 11.806118-26.352941 26.352942-26.352941zM648.975059 162.063059a26.352941 26.352941 0 0 1 37.255529 37.285647L634.578824 250.970353l51.651764 51.651765c9.456941 9.426824 10.24 24.244706 2.379294 34.575058l-2.379294 2.710589a26.352941 26.352941 0 0 1-37.255529 0l-70.264471-70.294589a26.352941 26.352941 0 0 1 0-37.255529l70.264471-70.294588zM754.386824 162.063059a26.352941 26.352941 0 0 1 37.255529 0l70.294588 70.294588a26.352941 26.352941 0 0 1 0 37.255529l-70.294588 70.264471a26.352941 26.352941 0 1 1-37.255529-37.255529l51.621647-51.651765-51.621647-51.621647a26.352941 26.352941 0 0 1-2.349177-34.575059l2.349177-2.710588z" fill="#568af2" /><path d="M702.735059 786.823529a26.352941 26.352941 0 1 1 0 52.705883H351.382588a26.352941 26.352941 0 1 1 0-52.705883h351.352471z" fill="#568af2" /></svg>