<svg class="icon" style="width: 1em;height: 1em;vertical-align: middle;fill: currentColor;overflow: hidden;" viewBox="0 0 1024 1024" version="1.1" xmlns="http://www.w3.org/2000/svg" width="32" height="32"><path d="M727.853176 124.235294c33.942588 0 61.470118 27.527529 61.470118 61.500235v562.176a26.352941 26.352941 0 1 1-52.705882 0V185.735529a8.794353 8.794353 0 0 0-8.764236-8.794353h-421.647058a8.794353 8.794353 0 0 0-8.794353 8.794353v562.176a26.352941 26.352941 0 1 1-52.705883 0V185.735529c0-33.972706 27.527529-61.500235 61.500236-61.500235h421.647058z" fill="#568af2" /><path d="M534.588235 299.911529a26.352941 26.352941 0 1 1 0 52.705883h-35.147294a26.352941 26.352941 0 0 1 0-52.705883h35.147294zM534.588235 440.470588a26.352941 26.352941 0 1 1 0 52.705883h-35.147294a26.352941 26.352941 0 0 1 0-52.705883h35.147294zM657.558588 616.146824a131.764706 131.764706 0 0 1 0 263.529411H376.470588a131.764706 131.764706 0 0 1 0-263.529411h281.088z m0 52.705882H376.470588a79.058824 79.058824 0 0 0 0 158.117647h281.088a79.058824 79.058824 0 0 0 0-158.117647z" fill="#568af2" /><path d="M394.029176 739.147294c14.576941 0 26.352941 11.776 26.352942 26.352941v87.823059a26.352941 26.352941 0 1 1-52.705883 0v-87.823059c0-14.576941 11.806118-26.352941 26.352941-26.352941zM481.882353 739.147294c14.546824 0 26.352941 11.776 26.352941 26.352941v87.823059a26.352941 26.352941 0 1 1-52.705882 0v-87.823059c0-14.576941 11.806118-26.352941 26.352941-26.352941zM569.735529 739.147294c14.546824 0 26.352941 11.776 26.352942 26.352941v87.823059a26.352941 26.352941 0 0 1-52.705883 0v-87.823059c0-14.576941 11.776-26.352941 26.352941-26.352941z" fill="#568af2" /><path d="M657.558588 747.911529m-35.147294 0a35.147294 35.147294 0 1 0 70.294588 0 35.147294 35.147294 0 1 0-70.294588 0Z" fill="#568af2" /><path d="M604.852706 826.970353a26.352941 26.352941 0 0 1 0 52.705882h-245.940706a26.352941 26.352941 0 1 1 0-52.705882h245.940706z" fill="#568af2" /></svg>