<svg class="icon" style="width: 1em;height: 1em;vertical-align: middle;fill: currentColor;overflow: hidden;" viewBox="0 0 1024 1024" version="1.1" xmlns="http://www.w3.org/2000/svg" width="32" height="32"><path d="M818.206118 244.705882c33.942588 0 61.470118 27.527529 61.470117 61.500236v456.764235a61.500235 61.500235 0 0 1-61.470117 61.500235h-421.647059v-52.705882h421.647059c4.818824 0 8.764235-3.915294 8.764235-8.794353V306.206118a8.794353 8.794353 0 0 0-8.764235-8.794353h-421.647059v-52.705883h421.647059z" fill="#568af2" /><path d="M422.912 244.705882v579.764706H185.735529a61.500235 61.500235 0 0 1-61.500235-61.500235V306.206118c0-33.972706 27.527529-61.500235 61.500235-61.500236h237.176471z m-52.736 527.058824V297.411765H185.735529a8.794353 8.794353 0 0 0-8.553411 6.77647l-0.240942 2.017883v456.764235c0 4.848941 3.915294 8.794353 8.794353 8.794353h184.440471z" fill="#568af2" /><path d="M273.558588 367.676235c14.576941 0 26.352941 11.806118 26.352941 26.352941v70.294589a26.352941 26.352941 0 0 1-52.705882 0v-70.294589c0-14.546824 11.806118-26.352941 26.352941-26.352941zM708.818824 361.261176a26.352941 26.352941 0 0 1 43.068235 30.418824l-210.82353 298.646588a26.352941 26.352941 0 0 1-43.068235-30.388706l210.82353-298.676706z" fill="#568af2" /><path d="M238.441412 534.588235m35.147294 0l-0.030118 0q35.147294 0 35.147294 35.147294l0-0.030117q0 35.147294-35.147294 35.147294l0.030118 0q-35.147294 0-35.147294-35.147294l0 0.030117q0-35.147294 35.147294-35.147294Z" fill="#568af2" /><path d="M238.441412 640m35.147294 0l-0.030118 0q35.147294 0 35.147294 35.147294l0-0.030118q0 35.147294-35.147294 35.147295l0.030118 0q-35.147294 0-35.147294-35.147295l0 0.030118q0-35.147294 35.147294-35.147294Z" fill="#568af2" /></svg>