<svg class="icon" style="width: 1em;height: 1em;vertical-align: middle;fill: currentColor;overflow: hidden;" viewBox="0 0 1024 1024" version="1.1" xmlns="http://www.w3.org/2000/svg" width="32" height="32"><path d="M813.176471 325.029647c33.972706 0 61.500235 27.527529 61.500235 61.470118v421.647059A61.500235 61.500235 0 0 1 813.176471 869.647059H215.853176a61.500235 61.500235 0 0 1-61.500235-61.500235v-421.647059c0-33.942588 27.527529-61.470118 61.500235-61.470118H813.176471z m0 52.705882H215.853176a8.794353 8.794353 0 0 0-8.794352 8.764236v421.647059c0 4.848941 3.915294 8.794353 8.794352 8.794352H813.176471c4.848941 0 8.794353-3.915294 8.794353-8.794352v-421.647059a8.794353 8.794353 0 0 0-8.794353-8.764236z" fill="#568af2" /><path d="M747.399529 187.934118a26.352941 26.352941 0 0 1 26.142118 45.778823l-245.970823 140.528941a26.352941 26.352941 0 1 1-26.142118-45.748706l245.970823-140.559058z" fill="#568af2" /><path d="M246.091294 196.999529a26.352941 26.352941 0 0 1 36.261647-8.613647l228.412235 140.528942a26.352941 26.352941 0 1 1-27.648 44.875294L254.735059 233.291294a26.352941 26.352941 0 0 1-8.643765-36.261647zM707.764706 430.441412c14.546824 0 26.352941 11.776 26.352941 26.352941v105.411765a26.352941 26.352941 0 0 1-52.705882 0v-105.411765c0-14.576941 11.806118-26.352941 26.352941-26.352941z" fill="#568af2" /><path d="M672.617412 667.617882m35.147294 0l-0.030118 0q35.147294 0 35.147294 35.147294l0-0.030117q0 35.147294-35.147294 35.147294l0.030118 0q-35.147294 0-35.147294-35.147294l0 0.030117q0-35.147294 35.147294-35.147294Z" fill="#568af2" /></svg>