<svg class="icon" style="width: 1em;height: 1em;vertical-align: middle;fill: currentColor;overflow: hidden;" viewBox="0 0 1024 1024" version="1.1" xmlns="http://www.w3.org/2000/svg" width="32" height="32"><path d="M247.205647 249.735529v245.940706a254.735059 254.735059 0 1 0 509.500235 0V249.735529h52.705883v245.940706c0 169.803294-137.637647 307.471059-307.440941 307.471059S194.499765 665.509647 194.499765 495.676235V249.735529h52.705882z" fill="#568af2" /><path d="M853.323294 223.382588a26.352941 26.352941 0 1 1 0 52.705883H150.588235a26.352941 26.352941 0 0 1 0-52.705883h702.735059zM501.970824 363.911529a131.764706 131.764706 0 1 1 0 263.529412 131.764706 131.764706 0 0 1 0-263.529412z m0 52.705883a79.058824 79.058824 0 1 0 0 158.117647 79.058824 79.058824 0 0 0 0-158.117647z" fill="#568af2" /></svg>