<svg class="icon" style="width: 1em;height: 1em;vertical-align: middle;fill: currentColor;overflow: hidden;" viewBox="0 0 1024 1024" version="1.1" xmlns="http://www.w3.org/2000/svg" width="32" height="32"><path d="M311.205647 299.911529a96.617412 96.617412 0 1 1 0 193.264942 96.617412 96.617412 0 0 1 0-193.264942z m0 52.705883a43.911529 43.911529 0 1 0 0 87.853176 43.911529 43.911529 0 0 0 0-87.853176zM732.852706 405.323294a96.617412 96.617412 0 1 1 0 193.264941 96.617412 96.617412 0 0 1 0-193.264941z m0 52.705882a43.911529 43.911529 0 1 0 0 87.853177 43.911529 43.911529 0 0 0 0-87.853177zM503.416471 131.945412a26.352941 26.352941 0 0 1 37.255529 0l87.853176 87.853176a26.352941 26.352941 0 1 1-37.285647 37.25553l-69.210353-69.210353-69.210352 69.210353a26.352941 26.352941 0 0 1-34.544942 2.379294l-2.710588-2.379294a26.352941 26.352941 0 0 1 0-37.25553l87.853177-87.853176z" fill="#568af2" /><path d="M311.205647 440.470588c14.576941 0 26.352941 11.806118 26.352941 26.352941v97.611295l218.834824 180.736a26.352941 26.352941 0 0 1 5.632 34.183529l-2.108236 2.921412a26.352941 26.352941 0 0 1-37.104941 3.523764l-228.382117-188.626823a26.352941 26.352941 0 0 1-9.577412-20.299294V466.823529c0-14.546824 11.806118-26.352941 26.352941-26.352941z" fill="#568af2" /><path d="M732.852706 545.882353c14.576941 0 26.352941 11.806118 26.352941 26.352941v84.148706a26.352941 26.352941 0 0 1-11.444706 21.744941l-210.823529 144.26353a26.352941 26.352941 0 1 1-29.786353-43.52l199.378823-136.432942V572.235294c0-13.432471 10.029176-24.515765 23.04-26.142118l3.312942-0.210823z" fill="#568af2" /><path d="M522.029176 124.235294c14.576941 0 26.352941 11.806118 26.352942 26.352941v685.176471a26.352941 26.352941 0 1 1-52.705883 0V150.588235c0-14.546824 11.806118-26.352941 26.352941-26.352941z" fill="#568af2" /><path d="M574.735059 826.970353a26.352941 26.352941 0 0 1 0 52.705882h-105.411765a26.352941 26.352941 0 0 1 0-52.705882h105.411765z" fill="#568af2" /></svg>