<svg class="icon" style="width: 1em;height: 1em;vertical-align: middle;fill: currentColor;overflow: hidden;" viewBox="0 0 1024 1024" version="1.1" xmlns="http://www.w3.org/2000/svg" width="32" height="32"><path d="M769.867294 587.745882a26.352941 26.352941 0 0 1 40.237177-2.800941c70.053647 72.523294 109.748706 167.484235 109.748705 268.378353a26.352941 26.352941 0 0 1-26.352941 26.352941H120.470588a26.352941 26.352941 0 0 1-26.352941-26.352941c0-100.894118 39.664941-195.855059 109.748706-268.378353a26.352941 26.352941 0 0 1 40.237176 2.800941 324.487529 324.487529 0 0 0 262.866824 133.812706c105.261176 0 202.059294-50.326588 262.896941-133.812706z m22.347294 56.410353l-6.384941 7.228236a376.892235 376.892235 0 0 1-278.859294 122.88 376.892235 376.892235 0 0 1-278.829177-122.88l-6.415058-7.228236-0.662589 0.843294A331.294118 331.294118 0 0 0 148.299294 822.211765l-0.391529 4.72847h718.125176l-0.361412-4.72847a331.294118 331.294118 0 0 0-72.764235-177.242353l-0.692706-0.843294z" fill="#568af2" /><path d="M506.970353 124.235294a254.735059 254.735059 0 1 1 0 509.500235 254.735059 254.735059 0 0 1 0-509.500235z m0 52.705882a202.029176 202.029176 0 1 0 0 404.088471 202.029176 202.029176 0 0 0 0-404.088471z" fill="#568af2" /><path d="M506.970353 264.794353a114.206118 114.206118 0 1 1 0 228.382118 114.206118 114.206118 0 0 1 0-228.382118z m0 52.705882a61.500235 61.500235 0 1 0 0 122.970353 61.500235 61.500235 0 0 0 0-122.970353z" fill="#568af2" /></svg>