<svg class="icon" style="width: 1em;height: 1em;vertical-align: middle;fill: currentColor;overflow: hidden;" viewBox="0 0 1024 1024" version="1.1" xmlns="http://www.w3.org/2000/svg" width="32" height="32"><path d="M768 94.117647c33.972706 0 61.500235 27.527529 61.500235 61.500235V858.352941a61.500235 61.500235 0 0 1-61.500235 61.500235H276.088471A61.500235 61.500235 0 0 1 214.588235 858.352941V155.617882c0-33.972706 27.527529-61.500235 61.500236-61.500235H768z m0 52.705882H276.088471a8.794353 8.794353 0 0 0-8.794353 8.794353V858.352941c0 4.848941 3.915294 8.794353 8.794353 8.794353H768c4.848941 0 8.794353-3.915294 8.794353-8.794353V155.617882a8.794353 8.794353 0 0 0-8.794353-8.794353z" fill="#568af2" /><path d="M522.029176 515.764706a131.764706 131.764706 0 1 1 0 263.529412 131.764706 131.764706 0 0 1 0-263.529412z m0 52.705882a79.058824 79.058824 0 1 0 0 158.117647 79.058824 79.058824 0 0 0 0-158.117647zM522.029176 234.676706a96.617412 96.617412 0 1 1 0 193.234823 96.617412 96.617412 0 0 1 0-193.234823z m0 52.705882a43.911529 43.911529 0 1 0 0 87.823059 43.911529 43.911529 0 0 0 0-87.823059z" fill="#568af2" /></svg>