<svg class="icon" style="width: 1em;height: 1em;vertical-align: middle;fill: currentColor;overflow: hidden;" viewBox="0 0 1024 1024" version="1.1" xmlns="http://www.w3.org/2000/svg" width="32" height="32"><path d="M808.146824 320c33.972706 0 61.500235 27.527529 61.500235 61.500235V768a61.500235 61.500235 0 0 1-61.500235 61.500235H245.970824A61.500235 61.500235 0 0 1 184.470588 768V381.500235c0-33.972706 27.527529-61.500235 61.500236-61.500235h562.176z m0 52.705882H245.970824a8.794353 8.794353 0 0 0-8.794353 8.794353V768c0 4.848941 3.915294 8.794353 8.794353 8.794353h562.176c4.848941 0 8.794353-3.915294 8.794352-8.794353V381.500235a8.794353 8.794353 0 0 0-8.794352-8.794353z" fill="#568af2" /><path d="M453.872941 214.588235c11.083294 0 20.992 6.957176 24.756706 17.408l38.068706 105.411765a26.352941 26.352941 0 0 1-24.786824 35.297882h-210.823529a26.352941 26.352941 0 0 1-24.786824-35.297882l38.068706-105.411765a26.352941 26.352941 0 0 1 24.786824-17.408h134.686118z m-18.522353 52.705883H337.618824l-19.034353 52.705882h135.830588l-19.064471-52.705882zM614.912 425.411765a149.323294 149.323294 0 1 1 0 298.676706 149.323294 149.323294 0 0 1 0-298.676706z m0 52.705882a96.617412 96.617412 0 1 0 0 193.264941 96.617412 96.617412 0 0 0 0-193.264941zM737.882353 249.735529c14.546824 0 26.352941 11.776 26.352941 26.352942V346.352941a26.352941 26.352941 0 1 1-52.705882 0V276.088471c0-14.576941 11.806118-26.352941 26.352941-26.352942z" fill="#568af2" /></svg>