<svg class="icon" style="width: 1em;height: 1em;vertical-align: middle;fill: currentColor;overflow: hidden;" viewBox="0 0 1024 1024" version="1.1" xmlns="http://www.w3.org/2000/svg" width="32" height="32"><path d="M853.323294 576.030118c14.576941 0 26.352941 11.776 26.352941 26.352941v228.382117a26.352941 26.352941 0 0 1-26.352941 26.352942H150.588235a26.352941 26.352941 0 0 1-26.352941-26.352942V602.352941c0-14.576941 11.806118-26.352941 26.352941-26.352941h702.735059z m-26.352941 52.705882H176.941176v175.676235h650.029177v-175.676235z" fill="#568af2" /><path d="M704 760.470588a43.911529 43.911529 0 1 0 0-87.823059 43.911529 43.911529 0 0 0 0 87.853177zM765.861647 154.352941c12.468706 0 23.250824 8.764235 25.780706 20.992l87.491765 421.647059-51.59153 10.721882-83.154823-400.655058H260.487529L176.368941 607.774118l-51.561412-10.842353 88.515765-421.647059a26.352941 26.352941 0 0 1 25.780706-20.931765h526.757647z" fill="#568af2" /><path d="M414.238118 348.069647a26.352941 26.352941 0 1 1 0 52.705882c-24.937412 0-44.032 16.203294-44.032 34.936471 0 22.889412 18.160941 34.876235 56.169411 34.876235h22.467765a26.352941 26.352941 0 1 1 0 52.705883h-22.467765c-63.638588 0-108.875294-29.876706-108.875294-87.612236 0-49.935059 44.453647-87.612235 96.737883-87.612235zM589.914353 348.069647c55.416471 0 96.527059 31.141647 96.527059 87.642353 0 57.705412-45.447529 87.582118-109.146353 87.582118h-22.859294a26.352941 26.352941 0 1 1 0-52.705883h22.859294c38.098824 0 56.440471-12.047059 56.44047-34.906353 0-23.672471-14.817882-34.906353-43.821176-34.906353a26.352941 26.352941 0 0 1 0-52.705882z" fill="#568af2" /><path d="M501.970824 259.794824c67.403294 0 114.296471 47.405176 114.29647 114.627764a26.352941 26.352941 0 1 1-52.705882 0c0-38.249412-23.431529-61.921882-61.590588-61.921882-38.460235 0-61.409882 23.100235-61.409883 61.921882a26.352941 26.352941 0 0 1-52.705882 0c0-67.855059 46.441412-114.627765 114.115765-114.627764zM431.676235 523.324235H572.235294v-52.705882h-140.559059z" fill="#568af2" /></svg>