<svg class="icon" style="width: 1em;height: 1em;vertical-align: middle;fill: currentColor;overflow: hidden;" viewBox="0 0 1024 1024" version="1.1" xmlns="http://www.w3.org/2000/svg" width="32" height="32"><path d="M234.857412 234.857412a26.352941 26.352941 0 0 1 37.285647 0l496.911059 496.941176a26.352941 26.352941 0 0 1 0 37.25553c-147.516235 147.516235-386.680471 147.516235-534.196706 0-147.486118-147.516235-147.486118-386.680471 0-534.196706z m19.395764 56.651294l-1.114352 1.295059c-107.580235 127.698824-101.255529 318.735059 18.974117 438.994823 120.259765 120.229647 311.296 126.554353 438.994824 18.974118l1.264941-1.144471L254.253176 291.538824z" fill="#568af2" /><path d="M742.851765 283.467294a26.352941 26.352941 0 0 1 51.260235 12.288l-92.611765 386.258824a26.352941 26.352941 0 1 1-51.260235-12.288l92.611765-386.258824z" fill="#568af2" /><path d="M714.721882 251.934118a26.352941 26.352941 0 0 1 37.285647 37.255529l-231.424 231.393882a26.352941 26.352941 0 1 1-37.255529-37.255529l231.393882-231.393882z" fill="#568af2" /><path d="M708.156235 209.829647a26.352941 26.352941 0 0 1 12.288 51.230118l-386.258823 92.611764a26.352941 26.352941 0 0 1-12.288-51.260235l386.258823-92.581647z" fill="#568af2" /><path d="M783.058824 124.235294a96.617412 96.617412 0 1 1 0 193.264941 96.617412 96.617412 0 0 1 0-193.264941z m0 52.705882a43.911529 43.911529 0 1 0 0 87.853177 43.911529 43.911529 0 0 0 0-87.853177z" fill="#568af2" /></svg>