<svg class="icon" style="width: 1em;height: 1em;vertical-align: middle;fill: currentColor;overflow: hidden;" viewBox="0 0 1024 1024" version="1.1" xmlns="http://www.w3.org/2000/svg" width="32" height="32"><path d="M727.853176 124.235294c33.942588 0 61.470118 27.527529 61.470118 61.500235v632.470589a61.500235 61.500235 0 0 1-61.470118 61.470117h-421.647058a61.500235 61.500235 0 0 1-61.500236-61.470117v-632.470589c0-33.972706 27.527529-61.500235 61.500236-61.500235h421.647058z m0 52.705882h-421.647058a8.794353 8.794353 0 0 0-8.794353 8.794353v632.470589c0 4.818824 3.915294 8.764235 8.794353 8.764235h421.647058c4.818824 0 8.764235-3.915294 8.764236-8.764235v-632.470589a8.794353 8.794353 0 0 0-8.764236-8.794353z" fill="#568af2" /><path d="M657.558588 264.794353c14.576941 0 26.352941 11.776 26.352941 26.352941V466.823529a26.352941 26.352941 0 0 1-26.352941 26.352942H376.470588a26.352941 26.352941 0 0 1-26.352941-26.352942V291.147294c0-14.576941 11.806118-26.352941 26.352941-26.352941h281.088z m-26.352941 52.705882h-228.382118v122.970353h228.382118v-122.970353zM517.029647 616.146824a26.352941 26.352941 0 0 1 0 52.705882H376.470588a26.352941 26.352941 0 1 1 0-52.705882h140.559059z" fill="#568af2" /><path d="M446.735059 545.882353c14.576941 0 26.352941 11.806118 26.352941 26.352941v140.559059a26.352941 26.352941 0 0 1-52.705882 0V572.235294c0-14.546824 11.806118-26.352941 26.352941-26.352941z" fill="#568af2" /><path d="M569.735529 660.088471m35.147295 0l-0.030118 0q35.147294 0 35.147294 35.147294l0-0.030118q0 35.147294-35.147294 35.147294l0.030118 0q-35.147294 0-35.147295-35.147294l0 0.030118q0-35.147294 35.147295-35.147294Z" fill="#568af2" /><path d="M622.441412 537.088m35.147294 0l-0.030118 0q35.147294 0 35.147294 35.147294l0-0.030118q0 35.147294-35.147294 35.147295l0.030118 0q-35.147294 0-35.147294-35.147295l0 0.030118q0-35.147294 35.147294-35.147294Z" fill="#568af2" /></svg>