<svg class="icon" style="width: 1em;height: 1em;vertical-align: middle;fill: currentColor;overflow: hidden;" viewBox="0 0 1024 1024" version="1.1" xmlns="http://www.w3.org/2000/svg" width="32" height="32"><path d="M800.617412 343.853176a79.058824 79.058824 0 0 1 79.058823 79.058824v107.851294c0 14.817882-4.156235 29.334588-12.016941 41.893647l-64.331294 102.972235a79.058824 79.058824 0 0 1-67.041882 37.165177H267.655529a79.058824 79.058824 0 0 1-67.041882-37.165177l-64.361412-102.972235c-7.830588-12.559059-12.016941-27.075765-12.016941-41.863529v-107.881412a79.058824 79.058824 0 0 1 79.058824-79.058824h597.323294z m0 52.705883H203.294118a26.352941 26.352941 0 0 0-26.352942 26.352941v107.851294c0 4.939294 1.385412 9.788235 4.005648 13.974588l64.361411 102.942118c4.818824 7.710118 13.251765 12.408471 22.347294 12.408471h468.630589a26.352941 26.352941 0 0 0 22.347294-12.408471l64.331294-102.942118c2.620235-4.216471 4.005647-9.035294 4.005647-13.974588v-107.851294a26.352941 26.352941 0 0 0-26.352941-26.352941z" fill="#568af2" /><path d="M730.352941 343.853176c14.546824 0 26.352941 11.776 26.352941 26.352942v140.528941a26.352941 26.352941 0 0 1-26.352941 26.352941H273.558588a26.352941 26.352941 0 0 1-26.352941-26.352941v-140.528941c0-14.576941 11.806118-26.352941 26.352941-26.352942H730.352941z m-26.383059 52.705883H299.911529v87.823059h404.058353v-87.823059z" fill="#568af2" /><path d="M449.264941 449.264941c14.546824 0 26.352941 11.776 26.352941 26.352941v35.117177a26.352941 26.352941 0 0 1-52.705882 0v-35.117177c0-14.576941 11.776-26.352941 26.352941-26.352941zM554.676706 449.264941c14.546824 0 26.352941 11.776 26.352941 26.352941v35.117177a26.352941 26.352941 0 0 1-52.705882 0v-35.117177c0-14.576941 11.776-26.352941 26.352941-26.352941zM642.499765 449.264941c14.576941 0 26.352941 11.776 26.352941 26.352941v35.117177a26.352941 26.352941 0 1 1-52.705882 0v-35.117177c0-14.576941 11.806118-26.352941 26.352941-26.352941zM361.411765 449.264941c14.546824 0 26.352941 11.776 26.352941 26.352941v35.117177a26.352941 26.352941 0 1 1-52.705882 0v-35.117177c0-14.576941 11.806118-26.352941 26.352941-26.352941zM783.058824 343.853176a26.352941 26.352941 0 1 1 0 52.705883H220.852706a26.352941 26.352941 0 0 1 0-52.705883H783.058824z" fill="#568af2" /></svg>