<svg class="icon" style="width: 1em;height: 1em;vertical-align: middle;fill: currentColor;overflow: hidden;" viewBox="0 0 1024 1024" version="1.1" xmlns="http://www.w3.org/2000/svg" width="32" height="32"><path d="M768 154.352941c33.972706 0 61.500235 27.527529 61.500235 61.500235v632.470589a61.500235 61.500235 0 0 1-61.500235 61.470117H276.088471a61.500235 61.500235 0 0 1-61.500236-61.470117v-632.470589c0-33.972706 27.527529-61.500235 61.500236-61.500235H768z m0 52.705883H276.088471a8.794353 8.794353 0 0 0-8.794353 8.794352v632.470589c0 4.818824 3.915294 8.764235 8.794353 8.764235H768c4.848941 0 8.794353-3.915294 8.794353-8.764235v-632.470589a8.794353 8.794353 0 0 0-8.794353-8.794352z" fill="#568af2" /><path d="M697.735529 154.352941c14.546824 0 26.352941 11.806118 26.352942 26.352941v175.676236a26.352941 26.352941 0 0 1-26.352942 26.352941H346.352941a26.352941 26.352941 0 0 1-26.352941-26.352941V180.705882a26.352941 26.352941 0 1 1 52.705882 0v149.323294h298.646589V180.705882c0-13.432471 10.059294-24.515765 23.070117-26.142117l3.312941-0.210824zM697.735529 505.735529c14.546824 0 26.352941 11.776 26.352942 26.352942v351.35247a26.352941 26.352941 0 0 1-26.352942 26.352941H346.352941a26.352941 26.352941 0 0 1-26.352941-26.352941V532.088471c0-14.576941 11.806118-26.352941 26.352941-26.352942h351.382588z m-26.383058 52.705883h-298.646589v298.646588h298.646589v-298.646588z" fill="#568af2" /><path d="M697.735529 646.264471a26.352941 26.352941 0 0 1 0 52.705882H346.352941a26.352941 26.352941 0 1 1 0-52.705882h351.382588z" fill="#568af2" /><path d="M697.735529 593.558588c14.546824 0 26.352941 11.806118 26.352942 26.352941v105.411765a26.352941 26.352941 0 0 1-52.705883 0v-105.411765c0-14.546824 11.776-26.352941 26.352941-26.352941zM346.352941 593.558588c14.546824 0 26.352941 11.806118 26.352941 26.352941v105.411765a26.352941 26.352941 0 1 1-52.705882 0v-105.411765c0-14.546824 11.806118-26.352941 26.352941-26.352941z" fill="#568af2" /></svg>