<svg class="icon" style="width: 1em;height: 1em;vertical-align: middle;fill: currentColor;overflow: hidden;" viewBox="0 0 1024 1024" version="1.1" xmlns="http://www.w3.org/2000/svg" width="32" height="32"><path d="M853.323294 124.235294c14.576941 0 26.352941 11.806118 26.352941 26.352941v702.735059a26.352941 26.352941 0 0 1-26.352941 26.352941H150.588235a26.352941 26.352941 0 0 1-26.352941-26.352941v-421.647059c0-14.546824 11.806118-26.352941 26.352941-26.352941h324.99953V150.588235c0-13.432471 10.059294-24.515765 23.070117-26.142117l3.312942-0.210824h351.35247z m-26.352941 52.705882h-298.676706v254.735059a26.352941 26.352941 0 0 1-23.04 26.172236l-3.312941 0.180705H176.971294v368.941177h650.029177V176.941176z" fill="#568af2" /><path d="M430.622118 553.592471a26.352941 26.352941 0 1 1 37.255529 37.285647l-51.651765 51.621647 51.651765 51.651764c9.456941 9.426824 10.24 24.244706 2.379294 34.575059l-2.379294 2.710588a26.352941 26.352941 0 0 1-37.255529 0l-70.264471-70.294588a26.352941 26.352941 0 0 1 0-37.255529l70.264471-70.294588z" fill="#568af2" /><path d="M677.647059 458.029176c14.546824 0 26.352941 11.806118 26.352941 26.352942v158.117647a26.352941 26.352941 0 0 1-26.352941 26.352941h-298.676706a26.352941 26.352941 0 0 1 0-52.705882h272.293647l0.030118-131.764706c0-13.432471 10.059294-24.515765 23.04-26.142118l3.312941-0.210824z" fill="#568af2" /></svg>