<svg class="icon" style="width: 1em;height: 1em;vertical-align: middle;fill: currentColor;overflow: hidden;" viewBox="0 0 1024 1024" version="1.1" xmlns="http://www.w3.org/2000/svg" width="32" height="32"><path d="M343.853176 337.558588c14.546824 0 26.352941 11.806118 26.352942 26.352941v316.235295a26.352941 26.352941 0 0 1-26.352942 26.352941H150.588235a26.352941 26.352941 0 0 1-26.352941-26.352941v-316.235295c0-14.546824 11.806118-26.352941 26.352941-26.352941h193.264941z m-26.383058 52.705883H176.941176v263.529411h140.528942v-263.529411z" fill="#568af2" /><path d="M650.541176 216.365176A26.352941 26.352941 0 0 1 686.441412 240.941176v562.206118a26.352941 26.352941 0 0 1-35.900236 24.545882L334.305882 704.752941a26.352941 26.352941 0 1 1 19.094589-49.121882l280.335058 108.995765V279.461647l-280.335058 109.025882a26.352941 26.352941 0 0 1-32.737883-12.016941l-1.385412-3.011764a26.352941 26.352941 0 0 1 15.028706-34.093177l316.235294-123.000471zM818.206118 372.705882a26.352941 26.352941 0 0 1 0 52.705883H783.058824a26.352941 26.352941 0 1 1 0-52.705883h35.147294zM853.323294 513.264941a26.352941 26.352941 0 1 1 0 52.705883h-87.823059a26.352941 26.352941 0 0 1 0-52.705883h87.823059zM818.206118 653.793882a26.352941 26.352941 0 0 1 0 52.705883H783.058824a26.352941 26.352941 0 1 1 0-52.705883h35.147294z" fill="#568af2" /></svg>