<svg class="icon" style="width: 1em;height: 1em;vertical-align: middle;fill: currentColor;overflow: hidden;" viewBox="0 0 1024 1024" version="1.1" xmlns="http://www.w3.org/2000/svg" width="32" height="32"><path d="M479.382588 154.352941a26.352941 26.352941 0 0 1 0 52.705883H233.411765a26.352941 26.352941 0 0 0-26.352941 26.352941v386.499764c0 14.576941 11.806118 26.352941 26.352941 26.352942h527.058823a26.352941 26.352941 0 0 0 26.352941-26.352942V496.941176a26.352941 26.352941 0 0 1 52.705883 0v122.970353a79.058824 79.058824 0 0 1-79.058824 79.058824H233.411765a79.058824 79.058824 0 0 1-79.058824-79.058824V233.411765A79.058824 79.058824 0 0 1 233.411765 154.352941h245.970823z" fill="#568af2" /><path d="M496.941176 646.324706c14.546824 0 26.352941 11.776 26.352942 26.322823v140.559059a26.352941 26.352941 0 1 1-52.705883 0v-140.559059c0-14.546824 11.806118-26.352941 26.352941-26.352941zM707.764706 154.383059a131.764706 131.764706 0 1 1 0 263.529412 131.764706 131.764706 0 0 1 0-263.529412z m0 52.705882a79.058824 79.058824 0 1 0 0 158.117647 79.058824 79.058824 0 0 0 0-158.117647z" fill="#568af2" /><path d="M618.857412 197.270588a26.352941 26.352941 0 0 1 37.255529 0l140.559059 140.528941a26.352941 26.352941 0 0 1-37.255529 37.25553l-140.559059-140.528941a26.352941 26.352941 0 0 1 0-37.285647zM672.617412 786.823529a26.352941 26.352941 0 0 1 0 52.705883H321.264941a26.352941 26.352941 0 1 1 0-52.705883h351.352471z" fill="#568af2" /></svg>