<svg class="icon" style="width: 1em;height: 1em;vertical-align: middle;fill: currentColor;overflow: hidden;" viewBox="0 0 1024 1024" version="1.1" xmlns="http://www.w3.org/2000/svg" width="32" height="32"><path d="M803.147294 124.235294c14.546824 0 26.352941 11.806118 26.352941 26.352941v702.735059a26.352941 26.352941 0 0 1-26.352941 26.352941H240.941176a26.352941 26.352941 0 0 1-26.352941-26.352941V291.147294c0-5.722353 1.837176-11.264 5.270589-15.811765l105.411764-140.559058a26.352941 26.352941 0 0 1 21.082353-10.541177h456.794353z m-26.383059 52.705882H359.514353L267.294118 299.911529v527.058824h509.470117V176.941176z" fill="#568af2" /><path d="M363.911529 317.500235c14.576941 0 26.352941 11.776 26.352942 26.352941v105.411765a26.352941 26.352941 0 0 1-52.705883 0v-105.411765c0-14.576941 11.806118-26.352941 26.352941-26.352941zM469.323294 264.794353c14.576941 0 26.352941 11.776 26.352941 26.352941v105.411765a26.352941 26.352941 0 0 1-52.705882 0v-105.411765c0-14.576941 11.806118-26.352941 26.352941-26.352941zM680.146824 264.794353c14.576941 0 26.352941 11.776 26.352941 26.352941v105.411765a26.352941 26.352941 0 0 1-52.705883 0v-105.411765c0-14.576941 11.806118-26.352941 26.352942-26.352941zM574.735059 264.794353c14.576941 0 26.352941 11.776 26.352941 26.352941v105.411765a26.352941 26.352941 0 0 1-52.705882 0v-105.411765c0-14.576941 11.806118-26.352941 26.352941-26.352941z" fill="#568af2" /></svg>