<svg class="icon" style="width: 1em;height: 1em;vertical-align: middle;fill: currentColor;overflow: hidden;" viewBox="0 0 1024 1024" version="1.1" xmlns="http://www.w3.org/2000/svg" width="32" height="32"><path d="M848.323765 154.352941c14.546824 0 26.352941 11.806118 26.352941 26.352941v667.617883a26.352941 26.352941 0 0 1-26.352941 26.352941H180.705882a26.352941 26.352941 0 0 1-26.352941-26.352941V496.941176c0-14.546824 11.806118-26.352941 26.352941-26.352941h289.882353V180.705882c0-13.432471 10.059294-24.515765 23.04-26.142117l3.312941-0.210824h351.382589z m-26.383059 52.705883h-298.646588V496.941176a26.352941 26.352941 0 0 1-23.04 26.142118l-3.312942 0.210824H207.058824v298.646588h614.881882V207.058824z" fill="#568af2" /><path d="M672.617412 294.912c14.576941 0 26.352941 11.776 26.352941 26.352941v351.352471a26.352941 26.352941 0 0 1-26.352941 26.352941H321.264941a26.352941 26.352941 0 1 1 0-52.705882h324.969412l0.030118-324.99953c0-13.432471 10.059294-24.545882 23.070117-26.172235l3.312941-0.180706z" fill="#568af2" /><path d="M372.886588 583.710118a26.352941 26.352941 0 1 1 37.285647 37.285647l-51.651764 51.621647 51.651764 51.651764c9.426824 9.426824 10.24 24.244706 2.349177 34.575059l-2.349177 2.710589a26.352941 26.352941 0 0 1-37.285647 0l-70.26447-70.294589a26.352941 26.352941 0 0 1 0-37.255529l70.26447-70.294588z" fill="#568af2" /></svg>