<svg class="icon" style="width: 1em;height: 1em;vertical-align: middle;fill: currentColor;overflow: hidden;" viewBox="0 0 1024 1024" version="1.1" xmlns="http://www.w3.org/2000/svg" width="32" height="32"><path d="M562.206118 154.352941a26.352941 26.352941 0 0 1 0 52.705883H263.529412a26.352941 26.352941 0 0 0-26.352941 26.352941v386.499764c0 14.576941 11.806118 26.352941 26.352941 26.352942h527.058823a26.352941 26.352941 0 0 0 26.352941-26.352942v-105.411764a26.352941 26.352941 0 0 1 52.705883 0v105.411764a79.058824 79.058824 0 0 1-79.058824 79.058824H263.529412a79.058824 79.058824 0 0 1-79.058824-79.058824V233.411765A79.058824 79.058824 0 0 1 263.529412 154.352941h298.676706z" fill="#568af2" /><path d="M527.058824 646.264471c14.546824 0 26.352941 11.806118 26.352941 26.352941V813.176471a26.352941 26.352941 0 1 1-52.705883 0v-140.559059c0-14.546824 11.806118-26.352941 26.352942-26.352941z" fill="#568af2" /><path d="M702.735059 786.823529a26.352941 26.352941 0 1 1 0 52.705883H351.382588a26.352941 26.352941 0 1 1 0-52.705883h351.352471zM824.651294 285.063529a26.352941 26.352941 0 1 1 37.285647 37.25553l-87.853176 87.853176a26.352941 26.352941 0 0 1-37.25553 0l-87.853176-87.853176a26.352941 26.352941 0 0 1 37.255529-37.25553l69.210353 69.150118 69.210353-69.150118z" fill="#568af2" /><path d="M755.440941 154.352941c14.576941 0 26.352941 11.806118 26.352941 26.352941v210.82353a26.352941 26.352941 0 1 1-52.705882 0V180.705882c0-14.546824 11.806118-26.352941 26.352941-26.352941z" fill="#568af2" /></svg>