<svg class="icon" style="width: 1em;height: 1em;vertical-align: middle;fill: currentColor;overflow: hidden;" viewBox="0 0 1024 1024" version="1.1" xmlns="http://www.w3.org/2000/svg" width="32" height="32"><path d="M843.294118 299.911529c14.546824 0 26.352941 11.806118 26.352941 26.352942v175.706353c0 4.096-0.963765 8.131765-2.770824 11.776-74.601412 149.172706-188.928 225.400471-339.817411 225.40047s-265.216-76.197647-339.817412-225.40047a26.352941 26.352941 0 0 1-2.770824-11.776v-175.706353c0-14.546824 11.806118-26.352941 26.352941-26.352942h632.470589z m-26.352942 52.705883H237.176471v142.998588l2.349176 4.577882c64.060235 121.856 155.708235 182.964706 277.594353 186.127059l9.938824 0.120471c130.198588 0 226.695529-64.361412 292.653176-196.276706l-2.770824 5.421176v-142.96847z" fill="#568af2" /><path d="M684.483765 651.294118l3.312941 0.12047c14.456471 1.445647 25.057882 14.366118 23.612235 28.852706l-17.588706 175.676235a26.352941 26.352941 0 0 1-26.202353 23.732706h-281.118117a26.352941 26.352941 0 0 1-26.202353-23.732706l-17.588706-175.676235a26.352941 26.352941 0 1 1 52.464941-5.24047l15.149177 151.943529h233.441882l15.179294-151.943529a26.352941 26.352941 0 0 1 25.539765-23.732706zM562.206118 475.617882a26.352941 26.352941 0 0 1 0 52.705883h-70.294589a26.352941 26.352941 0 0 1 0-52.705883h70.294589zM386.499765 124.235294c14.576941 0 26.352941 11.806118 26.352941 26.352941v140.559059a26.352941 26.352941 0 1 1-52.705882 0V150.588235c0-14.546824 11.806118-26.352941 26.352941-26.352941zM667.617882 124.235294c14.546824 0 26.352941 11.806118 26.352942 26.352941v140.559059a26.352941 26.352941 0 0 1-52.705883 0V150.588235c0-14.546824 11.776-26.352941 26.352941-26.352941z" fill="#568af2" /></svg>