<svg class="icon" style="width: 1em;height: 1em;vertical-align: middle;fill: currentColor;overflow: hidden;" viewBox="0 0 1024 1024" version="1.1" xmlns="http://www.w3.org/2000/svg" width="32" height="32"><path d="M715.294118 124.235294a79.058824 79.058824 0 0 1 79.058823 79.058824v597.323294a79.058824 79.058824 0 0 1-79.058823 79.058823h-421.647059a79.058824 79.058824 0 0 1-79.058824-79.058823V203.294118A79.058824 79.058824 0 0 1 293.647059 124.235294h421.647059z m0 52.705882h-421.647059a26.352941 26.352941 0 0 0-26.352941 26.352942v597.323294c0 14.576941 11.806118 26.352941 26.352941 26.352941h421.647059a26.352941 26.352941 0 0 0 26.352941-26.352941V203.294118a26.352941 26.352941 0 0 0-26.352941-26.352942z" fill="#568af2" /><path d="M504.470588 317.500235a149.323294 149.323294 0 1 1 0 298.646589 149.323294 149.323294 0 0 1 0-298.646589z m0 52.705883a96.617412 96.617412 0 1 0 0 193.234823 96.617412 96.617412 0 0 0 0-193.234823z" fill="#568af2" /><path d="M609.882353 220.852706m35.147294 0l-0.030118 0q35.147294 0 35.147295 35.147294l0-0.030118q0 35.147294-35.147295 35.147294l0.030118 0q-35.147294 0-35.147294-35.147294l0 0.030118q0-35.147294 35.147294-35.147294Z" fill="#568af2" /><path d="M592.323765 686.441412a26.352941 26.352941 0 0 1 0 52.705882H557.176471a26.352941 26.352941 0 0 1 0-52.705882h35.147294zM451.764706 686.441412a26.352941 26.352941 0 1 1 0 52.705882h-35.147294a26.352941 26.352941 0 0 1 0-52.705882H451.764706z" fill="#568af2" /></svg>