<svg class="icon" style="width: 1em;height: 1em;vertical-align: middle;fill: currentColor;overflow: hidden;" viewBox="0 0 1024 1024" version="1.1" xmlns="http://www.w3.org/2000/svg" width="32" height="32"><path d="M501.970824 124.235294c101.616941 0 196.939294 40.357647 267.324235 110.863059a376.560941 376.560941 0 0 1 110.381176 266.842353c0 208.624941-169.110588 377.735529-377.705411 377.735529-208.624941 0-377.735529-169.110588-377.73553-377.705411 0-101.406118 40.176941-196.517647 110.381177-266.842353a376.560941 376.560941 0 0 1 267.354353-110.893177z m0 52.705882a323.855059 323.855059 0 0 0-230.038589 95.412706 323.855059 323.855059 0 0 0-94.991059 229.616942c0 179.501176 145.528471 324.999529 325.029648 324.999529s324.999529-145.498353 324.999529-324.999529c0-87.311059-34.514824-169.080471-94.991059-229.616942a323.855059 323.855059 0 0 0-230.00847-95.412706z" fill="#568af2" /><path d="M220.852706 475.617882a26.352941 26.352941 0 1 1 0 52.705883H150.588235a26.352941 26.352941 0 0 1 0-52.705883h70.264471zM234.646588 235.098353a26.352941 26.352941 0 0 1 37.25553 0l54.994823 54.964706a26.352941 26.352941 0 1 1-37.255529 37.285647L234.616471 272.353882a26.352941 26.352941 0 0 1 0-37.255529zM501.970824 124.235294c14.546824 0 26.352941 11.806118 26.352941 26.352941v70.264471a26.352941 26.352941 0 0 1-52.705883 0V150.588235c0-14.546824 11.776-26.352941 26.352942-26.352941zM853.323294 475.617882a26.352941 26.352941 0 1 1 0 52.705883H783.058824a26.352941 26.352941 0 0 1 0-52.705883h70.26447zM732.009412 235.098353a26.352941 26.352941 0 1 1 37.255529 37.255529l-54.964706 54.994824a26.352941 26.352941 0 1 1-37.285647-37.285647l54.994824-54.964706zM501.970824 405.323294c14.546824 0 26.352941 11.806118 26.352941 26.352941v210.82353a26.352941 26.352941 0 0 1-52.705883 0v-210.82353c0-14.546824 11.776-26.352941 26.352942-26.352941z" fill="#568af2" /><path d="M501.970824 616.146824c103.664941 0 203.474824 26.864941 291.538823 77.191529a26.352941 26.352941 0 0 1 7.830588 38.972235 377.072941 377.072941 0 0 1-299.369411 147.365647 377.072941 377.072941 0 0 1-299.369412-147.365647 26.352941 26.352941 0 0 1 7.770353-38.972235 585.908706 585.908706 0 0 1 291.599059-77.191529z m0 52.705882a533.684706 533.684706 0 0 0-228.653177 51.109647l-8.613647 4.156235 5.812706 6.02353a324.005647 324.005647 0 0 0 221.244235 96.677647l10.209883 0.150588a324.065882 324.065882 0 0 0 231.424-96.798118l5.75247-6.023529-8.523294-4.216471a533.172706 533.172706 0 0 0-214.528-50.898823l-14.155294-0.180706z" fill="#568af2" /></svg>