<svg class="icon" style="width: 1em;height: 1em;vertical-align: middle;fill: currentColor;overflow: hidden;" viewBox="0 0 1024 1024" version="1.1" xmlns="http://www.w3.org/2000/svg" width="32" height="32"><path d="M677.647059 304.941176c33.972706 0 61.500235 27.527529 61.500235 61.500236v316.235294a61.500235 61.500235 0 0 1-61.500235 61.470118H185.735529a61.500235 61.500235 0 0 1-61.500235-61.470118v-316.235294c0-33.972706 27.527529-61.500235 61.500235-61.500236H677.647059z m0 52.705883H185.735529a8.794353 8.794353 0 0 0-8.794353 8.794353v316.235294c0 4.818824 3.915294 8.764235 8.794353 8.764235H677.647059c4.848941 0 8.794353-3.915294 8.794353-8.764235v-316.235294a8.794353 8.794353 0 0 0-8.794353-8.794353z" fill="#568af2" /><path d="M326.264471 304.941176c14.576941 0 26.352941 11.806118 26.352941 26.352942v386.499764a26.352941 26.352941 0 0 1-26.352941 26.352942H150.588235a26.352941 26.352941 0 0 1-26.352941-26.352942V331.294118c0-14.546824 11.806118-26.352941 26.352941-26.352942h175.676236z m-26.352942 52.705883H176.941176v333.793882h122.970353V357.647059zM853.323294 410.352941c14.576941 0 26.352941 11.806118 26.352941 26.352941v175.676236a26.352941 26.352941 0 0 1-26.352941 26.352941h-140.528941a26.352941 26.352941 0 1 1 0-52.705883h114.145882v-122.970352h-114.145882a26.352941 26.352941 0 0 1-26.172235-23.04l-0.180706-3.312942c0-14.546824 11.776-26.352941 26.352941-26.352941h140.528941z" fill="#568af2" /><path d="M607.382588 471.853176m-35.147294 0a35.147294 35.147294 0 1 0 70.294588 0 35.147294 35.147294 0 1 0-70.294588 0Z" fill="#568af2" /><path d="M607.382588 577.264941m-35.147294 0a35.147294 35.147294 0 1 0 70.294588 0 35.147294 35.147294 0 1 0-70.294588 0Z" fill="#568af2" /></svg>