<svg class="icon" style="width: 1em;height: 1em;vertical-align: middle;fill: currentColor;overflow: hidden;" viewBox="0 0 1024 1024" version="1.1" xmlns="http://www.w3.org/2000/svg" width="32" height="32"><path d="M671.201882 154.895059c14.245647 0 25.810824 11.565176 25.810824 25.810823v137.667765a25.810824 25.810824 0 0 1-25.810824 25.840941H361.411765a25.810824 25.810824 0 0 1-25.810824-25.840941V180.705882c0-14.245647 11.565176-25.810824 25.810824-25.810823h309.790117z m-25.840941 51.621647h-258.138353v86.046118h258.138353V206.516706z" fill="#568af2" /><path d="M354.334118 154.895059a25.810824 25.810824 0 0 1 0 51.621647H275.365647a8.613647 8.613647 0 0 0-8.613647 8.613647v619.550118c0 4.758588 3.855059 8.613647 8.613647 8.613647h481.882353a8.613647 8.613647 0 0 0 8.613647-8.613647V215.130353a8.613647 8.613647 0 0 0-8.613647-8.613647H678.249412a25.810824 25.810824 0 0 1 0-51.621647h78.96847a60.235294 60.235294 0 0 1 60.235294 60.235294v619.550118a60.235294 60.235294 0 0 1-60.235294 60.235294h-481.882353a60.235294 60.235294 0 0 1-60.235294-60.235294V215.130353a60.235294 60.235294 0 0 1 60.235294-60.235294h78.968471z" fill="#568af2" /><path d="M549.647059 437.820235a25.810824 25.810824 0 0 1 36.532706 36.502589l-93.57553 93.605647h109.808941c21.925647 0 33.430588 25.238588 20.389648 41.712941l-2.108236 2.409412-137.758117 137.667764a25.810824 25.810824 0 0 1-36.502589-36.502588l93.635765-93.665882-109.808941 0.030117c-21.925647 0-33.430588-25.208471-20.389647-41.652706l2.108235-2.409411 137.697882-137.697883z" fill="#568af2" /></svg>