<svg class="icon" style="width: 1em;height: 1em;vertical-align: middle;fill: currentColor;overflow: hidden;" viewBox="0 0 1024 1024" version="1.1" xmlns="http://www.w3.org/2000/svg" width="32" height="32"><path d="M702.735059 184.470588c33.972706 0 61.500235 27.527529 61.500235 61.500236v562.176a61.500235 61.500235 0 0 1-61.500235 61.500235H351.382588a61.500235 61.500235 0 0 1-61.500235-61.500235V245.970824c0-33.972706 27.527529-61.500235 61.500235-61.500236h351.352471z m0 52.705883H351.382588a8.794353 8.794353 0 0 0-8.794353 8.794353v562.176c0 4.848941 3.915294 8.794353 8.794353 8.794352h351.352471c4.848941 0 8.794353-3.915294 8.794353-8.794352V245.970824a8.794353 8.794353 0 0 0-8.794353-8.794353z" fill="#568af2" /><path d="M316.235294 289.882353a26.352941 26.352941 0 1 1 0 52.705882H210.823529a26.352941 26.352941 0 1 1 0-52.705882h105.411765zM316.235294 430.441412a26.352941 26.352941 0 1 1 0 52.705882H210.823529a26.352941 26.352941 0 0 1 0-52.705882h105.411765zM316.235294 570.970353a26.352941 26.352941 0 0 1 0 52.705882H210.823529a26.352941 26.352941 0 1 1 0-52.705882h105.411765zM316.235294 711.529412a26.352941 26.352941 0 1 1 0 52.705882H210.823529a26.352941 26.352941 0 1 1 0-52.705882h105.411765zM843.294118 289.882353a26.352941 26.352941 0 1 1 0 52.705882h-105.411765a26.352941 26.352941 0 1 1 0-52.705882H843.294118zM843.294118 430.441412a26.352941 26.352941 0 1 1 0 52.705882h-105.411765a26.352941 26.352941 0 0 1 0-52.705882H843.294118zM843.294118 570.970353a26.352941 26.352941 0 0 1 0 52.705882h-105.411765a26.352941 26.352941 0 1 1 0-52.705882H843.294118zM843.294118 711.529412a26.352941 26.352941 0 1 1 0 52.705882h-105.411765a26.352941 26.352941 0 1 1 0-52.705882H843.294118z" fill="#568af2" /></svg>