<svg class="icon" style="width: 1em;height: 1em;vertical-align: middle;fill: currentColor;overflow: hidden;" viewBox="0 0 1024 1024" version="1.1" xmlns="http://www.w3.org/2000/svg" width="32" height="32"><path d="M813.176471 214.588235c33.972706 0 61.500235 27.527529 61.500235 61.500236V768A61.500235 61.500235 0 0 1 813.176471 829.500235H215.853176A61.500235 61.500235 0 0 1 154.352941 768V276.088471c0-33.972706 27.527529-61.500235 61.500235-61.500236H813.176471z m0 52.705883H215.853176a8.794353 8.794353 0 0 0-8.794352 8.794353V768c0 4.848941 3.915294 8.794353 8.794352 8.794353H813.176471c4.848941 0 8.794353-3.915294 8.794353-8.794353V276.088471A8.794353 8.794353 0 0 0 813.176471 267.294118z" fill="#568af2" /><path d="M321.264941 214.588235c14.546824 0 26.352941 11.806118 26.352941 26.352941v562.206118a26.352941 26.352941 0 0 1-52.705882 0V240.941176c0-14.546824 11.776-26.352941 26.352941-26.352941zM584.794353 337.558588a184.470588 184.470588 0 1 1 0 368.941177 184.470588 184.470588 0 0 1 0-368.941177z m0 52.705883a131.764706 131.764706 0 1 0 0 263.529411 131.764706 131.764706 0 0 0 0-263.529411z" fill="#568af2" /><path d="M584.794353 522.029176m-52.705882 0a52.705882 52.705882 0 1 0 105.411764 0 52.705882 52.705882 0 1 0-105.411764 0Z" fill="#568af2" /><path d="M321.264941 355.147294a26.352941 26.352941 0 0 1 0 52.705882H180.705882a26.352941 26.352941 0 0 1 0-52.705882h140.559059zM321.264941 495.676235a26.352941 26.352941 0 0 1 0 52.705883H180.705882a26.352941 26.352941 0 1 1 0-52.705883h140.559059zM321.264941 636.235294a26.352941 26.352941 0 0 1 0 52.705882H180.705882a26.352941 26.352941 0 1 1 0-52.705882h140.559059z" fill="#568af2" /></svg>