<svg class="icon" style="width: 1em;height: 1em;vertical-align: middle;fill: currentColor;overflow: hidden;" viewBox="0 0 1024 1024" version="1.1" xmlns="http://www.w3.org/2000/svg" width="32" height="32"><path d="M640 124.235294c17.167059 0 29.726118 16.112941 25.569882 32.737882l-44.544 178.085648h177.091765a26.352941 26.352941 0 0 1 21.383529 41.803294l-2.078117 2.469647L360.658824 871.303529c-18.432 19.817412-51.2 2.349176-44.965648-23.973647l62.614589-266.300235H271.058824a26.352941 26.352941 0 0 1-26.112-29.876706l0.602352-3.102117 105.411765-404.088471a26.352941 26.352941 0 0 1 25.509647-19.696941z m-169.291294 123.78353a26.352941 26.352941 0 0 0-31.954824 19.154823L403.576471 407.732706l-0.602353 3.252706a26.352941 26.352941 0 0 0 51.742117 9.517176l35.147294-140.528941 0.602353-3.282823a26.352941 26.352941 0 0 0-19.787294-28.702118z" fill="#568af2" /></svg>