<svg class="icon" style="width: 1em;height: 1em;vertical-align: middle;fill: currentColor;overflow: hidden;" viewBox="0 0 1024 1024" version="1.1" xmlns="http://www.w3.org/2000/svg" width="32" height="32"><path d="M818.206118 184.470588h-632.470589a61.500235 61.500235 0 0 0-61.500235 61.500236v562.176c0 33.972706 27.527529 61.500235 61.500235 61.500235h632.470589a61.500235 61.500235 0 0 0 61.470117-61.500235V245.970824a61.500235 61.500235 0 0 0-61.470117-61.500236z m-632.470589 52.705883h632.470589c4.818824 0 8.764235 3.915294 8.764235 8.794353v562.176c0 4.848941-3.915294 8.794353-8.764235 8.794352h-632.470589a8.794353 8.794353 0 0 1-8.794353-8.794352V245.970824c0-4.848941 3.915294-8.794353 8.794353-8.794353z" fill="#568af2" /><path d="M853.323294 395.294118a26.352941 26.352941 0 0 1 3.312941 52.495058l-3.312941 0.210824H150.588235a26.352941 26.352941 0 0 1-3.312941-52.495059l3.312941-0.210823h702.735059z" fill="#568af2" /><path d="M387.764706 395.294118c13.432471 0 24.515765 10.059294 26.142118 23.04l0.210823 3.312941v421.647059a26.352941 26.352941 0 0 1-52.495059 3.312941L361.411765 843.294118V421.647059c0-14.546824 11.806118-26.352941 26.352941-26.352941zM616.146824 395.294118c13.432471 0 24.545882 10.059294 26.172235 23.04l0.180706 3.312941v421.647059a26.352941 26.352941 0 0 1-52.495059 3.312941l-0.210824-3.312941V421.647059c0-14.546824 11.806118-26.352941 26.352942-26.352941z" fill="#568af2" /><path d="M853.323294 606.117647a26.352941 26.352941 0 0 1 3.312941 52.495059l-3.312941 0.210823H150.588235a26.352941 26.352941 0 0 1-3.312941-52.495058l3.312941-0.210824h702.735059z" fill="#568af2" /><path d="M853.323294 219.617882c13.432471 0 24.545882 10.029176 26.172235 23.04l0.180706 3.312942v562.176a61.500235 61.500235 0 0 1-56.892235 61.319529l-4.577882 0.180706h-632.470589a61.500235 61.500235 0 0 1-61.319529-56.922353l-0.180706-4.577882V245.970824a26.352941 26.352941 0 0 1 52.495059-3.312942l0.210823 3.312942v562.176c0 4.156235 2.891294 7.649882 6.776471 8.553411l2.017882 0.240941h632.470589a8.794353 8.794353 0 0 0 8.553411-6.77647l0.210824-2.017882V245.970824c0-14.576941 11.806118-26.352941 26.352941-26.352942z" fill="#568af2" /></svg>