<svg class="icon" style="width: 1em;height: 1em;vertical-align: middle;fill: currentColor;overflow: hidden;" viewBox="0 0 1024 1024" version="1.1" xmlns="http://www.w3.org/2000/svg" width="32" height="32"><path d="M712.794353 124.235294h-421.647059a166.912 166.912 0 1 0 0 333.793882h421.647059a166.912 166.912 0 1 0 0-333.793882z m-421.647059 52.705882h421.647059a114.206118 114.206118 0 1 1 0 228.382118h-421.647059a114.206118 114.206118 0 1 1 0-228.382118zM712.794353 545.882353h-421.647059a166.912 166.912 0 1 0 0 333.793882h421.647059a166.912 166.912 0 1 0 0-333.793882z m-421.647059 52.705882h421.647059a114.206118 114.206118 0 1 1 0 228.382118h-421.647059a114.206118 114.206118 0 1 1 0-228.382118z" fill="#568af2" /><path d="M712.794353 229.647059a61.500235 61.500235 0 1 0 0 122.970353 61.500235 61.500235 0 0 0 0-122.970353z m0 52.705882a8.794353 8.794353 0 1 1 0 17.558588 8.794353 8.794353 0 0 1 0-17.558588zM291.147294 651.294118a61.500235 61.500235 0 1 0 0 122.970353 61.500235 61.500235 0 0 0 0-122.970353z m0 52.705882a8.794353 8.794353 0 1 1 0 17.558588 8.794353 8.794353 0 0 1 0-17.558588z" fill="#568af2" /></svg>