<svg class="icon" style="width: 1em;height: 1em;vertical-align: middle;fill: currentColor;overflow: hidden;" viewBox="0 0 1024 1024" version="1.1" xmlns="http://www.w3.org/2000/svg" width="32" height="32"><path d="M796.852706 244.705882h-632.470588a61.500235 61.500235 0 0 0-61.470118 61.500236v421.647058c0 33.942588 27.527529 61.470118 61.470118 61.470118h632.470588a61.500235 61.500235 0 0 0 61.500235-61.470118v-421.647058a61.500235 61.500235 0 0 0-61.500235-61.500236z m-632.470588 52.705883h632.470588c4.848941 0 8.794353 3.915294 8.794353 8.794353v421.647058c0 4.818824-3.915294 8.764235-8.794353 8.764236h-632.470588a8.794353 8.794353 0 0 1-8.764236-8.764236v-421.647058c0-4.848941 3.915294-8.794353 8.764236-8.794353z" fill="#568af2" /><path d="M550.912 385.264941h-140.559059a26.352941 26.352941 0 0 0-26.352941 26.352941v210.82353c0 14.546824 11.806118 26.352941 26.352941 26.352941h140.559059a26.352941 26.352941 0 0 0 26.352941-26.352941v-210.82353a26.352941 26.352941 0 0 0-26.352941-26.352941z m-26.383059 52.675765v158.117647H436.705882v-158.117647h87.823059zM832 385.264941a26.352941 26.352941 0 0 1 3.312941 52.495059l-3.312941 0.210824-114.206118-0.030118v158.117647h114.206118c13.432471 0 24.515765 10.059294 26.142118 23.070118l0.210823 3.312941a26.352941 26.352941 0 0 1-23.04 26.142117l-3.312941 0.210824h-140.559059a26.352941 26.352941 0 0 1-26.142117-23.070118l-0.210824-3.312941v-210.823529c0-13.402353 10.059294-24.515765 23.070118-26.142118l3.312941-0.180706h140.528941zM269.793882 385.264941c13.432471 0 24.545882 10.029176 26.172236 23.04l0.180706 3.312941v210.82353a26.352941 26.352941 0 0 1-23.04 26.142117l-3.312942 0.210824H129.264941a26.352941 26.352941 0 0 1-3.312941-52.525177l3.312941-0.180705 114.176-0.030118v-158.117647H129.264941a26.352941 26.352941 0 0 1-26.172235-23.04l-0.180706-3.312941c0-13.402353 10.029176-24.515765 23.04-26.142118l3.312941-0.180706h140.528941z" fill="#568af2" /><path d="M129.264941 314.970353c13.432471 0 24.515765 10.059294 26.142118 23.070118l0.210823 3.312941V692.705882a26.352941 26.352941 0 0 1-52.525176 3.312942L102.912 692.705882V341.323294c0-14.546824 11.776-26.352941 26.352941-26.352941zM832 314.970353c13.432471 0 24.515765 10.059294 26.142118 23.070118l0.210823 3.312941V692.705882a26.352941 26.352941 0 0 1-52.495059 3.312942L805.647059 692.705882V341.323294c0-14.546824 11.806118-26.352941 26.352941-26.352941z" fill="#568af2" /></svg>