<svg class="icon" style="width: 1em;height: 1em;vertical-align: middle;fill: currentColor;overflow: hidden;" viewBox="0 0 1024 1024" version="1.1" xmlns="http://www.w3.org/2000/svg" width="32" height="32"><path d="M0 0h1024v1024H0z" fill="#568af2" fill-opacity="0" /><path d="M501.970824 124.235294C293.345882 124.235294 124.235294 293.345882 124.235294 501.970824c0 208.594824 169.110588 377.705412 377.73553 377.705411 61.560471 0 82.612706-28.943059 92.551529-100.171294l1.867294-14.817882c0.301176-2.56 0.542118-5.150118 0.813177-7.830588l3.19247-33.129412c4.427294-40.267294 11.836235-64.542118 26.714353-81.317647 8.041412-9.095529 20.841412-16.082824 42.164706-22.799059l11.384471-3.312941c2.017882-0.572235 4.126118-1.114353 6.26447-1.656471l13.733647-3.343059 15.390118-3.433411 31.382588-6.475295 16.624941-3.674352c2.680471-0.602353 5.300706-1.234824 7.860706-1.867295l14.787765-3.764705c66.198588-17.889882 92.973176-40.056471 92.973176-90.112 0-208.624941-169.110588-377.735529-377.705411-377.73553z m0 52.705882c179.501176 0 324.999529 145.528471 324.999529 325.029648 0 12.769882-7.770353 22.136471-28.461177 30.659764l-8.372705 3.162353c-3.011765 1.054118-6.204235 2.108235-9.637647 3.132235l-10.962824 3.102118-12.348235 3.132235-13.824 3.162353-15.329883 3.252706-23.461647 4.818824-17.167059 3.824941c-51.772235 11.986824-78.908235 23.732706-99.749647 47.254588-22.497882 25.389176-32.828235 56.139294-38.550588 101.285647l-1.897412 16.805647-3.072 32.256-1.415529 12.288-1.536 10.842353c-5.963294 37.044706-15.36 46.019765-39.213176 46.019765-179.501176 0-325.029647-145.498353-325.029648-324.999529S322.469647 176.941176 501.970824 176.941176z" fill="#568af2" /><path d="M572.235294 247.205647a79.058824 79.058824 0 1 0 0 158.117647 79.058824 79.058824 0 0 0 0-158.117647z m0 52.705882a26.352941 26.352941 0 1 1 0 52.705883 26.352941 26.352941 0 0 1 0-52.705883zM361.411765 317.500235a79.058824 79.058824 0 1 0 0 158.117647 79.058824 79.058824 0 0 0 0-158.117647z m0 52.705883a26.352941 26.352941 0 1 1 0 52.705882 26.352941 26.352941 0 0 1 0-52.705882zM378.970353 545.882353a79.058824 79.058824 0 1 0 0 158.117647 79.058824 79.058824 0 0 0 0-158.117647z m0 52.705882a26.352941 26.352941 0 1 1 0 52.705883 26.352941 26.352941 0 0 1 0-52.705883z" fill="#568af2" /></svg>