<svg class="icon" style="width: 1em;height: 1em;vertical-align: middle;fill: currentColor;overflow: hidden;" viewBox="0 0 1024 1024" version="1.1" xmlns="http://www.w3.org/2000/svg" width="32" height="32"><path d="M0 0h1024v1024H0z" fill="#568af2" fill-opacity="0" /><path d="M739.147294 435.440941H387.764706a26.352941 26.352941 0 0 0-26.352941 26.352941V602.352941c0 14.546824 11.806118 26.352941 26.352941 26.352941h351.382588a26.352941 26.352941 0 0 0 26.352941-26.352941v-140.559059a26.352941 26.352941 0 0 0-26.352941-26.352941z m-26.383059 52.705883v87.853176H414.117647v-87.853176h298.646588zM633.735529 189.500235h-245.970823a26.352941 26.352941 0 0 0-26.352941 26.352941v140.528942c0 14.576941 11.806118 26.352941 26.352941 26.352941h245.970823a26.352941 26.352941 0 0 0 26.352942-26.352941V215.853176a26.352941 26.352941 0 0 0-26.352942-26.352941z m-26.383058 52.675765v87.853176H414.117647V242.176h193.234824zM844.559059 681.411765H387.764706A26.352941 26.352941 0 0 0 361.411765 707.764706v140.559059c0 14.546824 11.806118 26.352941 26.352941 26.352941h456.794353a26.352941 26.352941 0 0 0 26.352941-26.352941V707.764706a26.352941 26.352941 0 0 0-26.352941-26.352941z m-26.383059 52.705882v87.823059H414.117647v-87.823059h404.058353z" fill="#568af2" /><path d="M370.206118 259.764706a26.352941 26.352941 0 0 1 3.312941 52.495059l-3.312941 0.210823h-210.82353a26.352941 26.352941 0 0 1-3.312941-52.495059l3.312941-0.210823h210.82353zM370.206118 505.735529a26.352941 26.352941 0 0 1 3.312941 52.495059l-3.312941 0.210824h-210.82353a26.352941 26.352941 0 0 1-3.312941-52.525177l3.312941-0.180706h210.82353zM370.206118 751.676235a26.352941 26.352941 0 0 1 3.312941 52.525177l-3.312941 0.180706h-210.82353a26.352941 26.352941 0 0 1-3.312941-52.495059l3.312941-0.210824h210.82353z" fill="#568af2" /><path d="M159.382588 154.352941c13.432471 0 24.515765 10.059294 26.142118 23.04l0.210823 3.312941v702.735059a26.352941 26.352941 0 0 1-52.525176 3.312941l-0.180706-3.312941V180.705882c0-14.546824 11.776-26.352941 26.352941-26.352941z" fill="#568af2" /></svg>