<svg class="icon" style="width: 1em;height: 1em;vertical-align: middle;fill: currentColor;overflow: hidden;" viewBox="0 0 1024 1024" version="1.1" xmlns="http://www.w3.org/2000/svg" width="32" height="32"><path d="M0 0h1024v1024H0z" fill="#568af2" fill-opacity="0" /><path d="M790.588235 184.470588H263.529412A79.058824 79.058824 0 0 0 184.470588 263.529412v527.058823a79.058824 79.058824 0 0 0 79.058824 79.058824h527.058823a79.058824 79.058824 0 0 0 79.058824-79.058824V263.529412a79.058824 79.058824 0 0 0-79.058824-79.058824z m-527.058823 52.705883h527.058823c14.546824 0 26.352941 11.806118 26.352941 26.352941v527.058823a26.352941 26.352941 0 0 1-26.352941 26.352941H263.529412a26.352941 26.352941 0 0 1-26.352941-26.352941V263.529412c0-14.546824 11.806118-26.352941 26.352941-26.352941z" fill="#568af2" /><path d="M843.294118 377.735529a26.352941 26.352941 0 0 1 3.312941 52.495059l-3.312941 0.210824H210.823529a26.352941 26.352941 0 0 1-3.312941-52.525177l3.312941-0.180706h632.470589z" fill="#568af2" /><path d="M404.088471 377.735529c13.432471 0 24.515765 10.029176 26.142117 23.04l0.210824 3.312942V843.294118a26.352941 26.352941 0 0 1-52.525177 3.312941l-0.180706-3.312941V404.088471c0-14.576941 11.776-26.352941 26.352942-26.352942z" fill="#568af2" /></svg>