<svg class="icon" style="width: 1em;height: 1em;vertical-align: middle;fill: currentColor;overflow: hidden;" viewBox="0 0 1024 1024" version="1.1" xmlns="http://www.w3.org/2000/svg" width="32" height="32"><path d="M0 0h1024v1024H0z" fill="#568af2" fill-opacity="0" /><path d="M484.382118 154.352941H150.588235A26.352941 26.352941 0 0 0 124.235294 180.705882v386.499765c0 14.576941 11.806118 26.352941 26.352941 26.352941h333.793883a26.352941 26.352941 0 0 0 26.352941-26.352941V180.705882a26.352941 26.352941 0 0 0-26.352941-26.352941z m-26.352942 52.705883v333.793882H176.941176V207.058824h281.088zM853.323294 681.411765H150.588235a26.352941 26.352941 0 0 0-26.352941 26.352941v158.117647c0 14.546824 11.806118 26.352941 26.352941 26.352941h702.735059a26.352941 26.352941 0 0 0 26.352941-26.352941V707.764706a26.352941 26.352941 0 0 0-26.352941-26.352941z m-26.352941 52.705882v105.411765H176.941176v-105.411765h650.029177zM853.323294 154.352941H624.941176a26.352941 26.352941 0 0 0-26.352941 26.352941v140.559059c0 14.546824 11.806118 26.352941 26.352941 26.352941h228.382118a26.352941 26.352941 0 0 0 26.352941-26.352941V180.705882a26.352941 26.352941 0 0 0-26.352941-26.352941z m-26.352941 52.705883v87.823058h-175.676235V207.058824h175.676235zM853.323294 400.323765H624.941176a26.352941 26.352941 0 0 0-26.352941 26.352941v140.528941c0 14.576941 11.806118 26.352941 26.352941 26.352941h228.382118a26.352941 26.352941 0 0 0 26.352941-26.352941v-140.528941a26.352941 26.352941 0 0 0-26.352941-26.352941z m-26.352941 52.675764v87.853177h-175.676235v-87.853177h175.676235z" fill="#568af2" /></svg>