<svg class="icon" style="width: 1em;height: 1em;vertical-align: middle;fill: currentColor;overflow: hidden;" viewBox="0 0 1024 1024" version="1.1" xmlns="http://www.w3.org/2000/svg" width="32" height="32"><path d="M760.470588 184.470588H233.411765A79.058824 79.058824 0 0 0 154.352941 263.529412v527.058823a79.058824 79.058824 0 0 0 79.058824 79.058824h527.058823a79.058824 79.058824 0 0 0 79.058824-79.058824V263.529412a79.058824 79.058824 0 0 0-79.058824-79.058824z m-527.058823 52.705883h527.058823c14.546824 0 26.352941 11.806118 26.352941 26.352941v527.058823a26.352941 26.352941 0 0 1-26.352941 26.352941H233.411765a26.352941 26.352941 0 0 1-26.352941-26.352941V263.529412c0-14.546824 11.806118-26.352941 26.352941-26.352941z" fill="#568af2" /><path d="M548.592941 192.180706A26.352941 26.352941 0 0 1 588.197647 226.785882l-2.349176 2.710589L199.378824 615.966118a26.352941 26.352941 0 0 1-39.634824-34.575059l2.349176-2.710588L548.592941 192.210824zM794.533647 438.151529a26.352941 26.352941 0 0 1 39.634824 34.575059l-2.349177 2.710588-386.529882 386.499765a26.352941 26.352941 0 0 1-39.604706-34.575059l2.349176-2.710588L794.503529 438.151529zM759.416471 227.328a26.352941 26.352941 0 0 1 39.604705 34.575059l-2.349176 2.710588L234.465882 826.759529a26.352941 26.352941 0 0 1-39.604706-34.575058l2.349177-2.710589L759.416471 227.358118z" fill="#568af2" /><path d="M267.474824 473.298824a26.352941 26.352941 0 0 1 34.575058-2.379295l2.710589 2.379295 122.970353 122.970352a26.352941 26.352941 0 0 1-34.575059 39.634824l-2.710589-2.379294-122.970352-122.970353a26.352941 26.352941 0 0 1 0-37.255529zM566.151529 420.592941a26.352941 26.352941 0 0 1 34.575059-2.379294l2.710588 2.379294 122.970353 122.970353a26.352941 26.352941 0 0 1-34.575058 39.634824l-2.710589-2.379294-122.970353-122.970353a26.352941 26.352941 0 0 1 0-37.25553z" fill="#568af2" /></svg>