<svg class="icon" style="width: 1em;height: 1em;vertical-align: middle;fill: currentColor;overflow: hidden;" viewBox="0 0 1024 1024" version="1.1" xmlns="http://www.w3.org/2000/svg" width="32" height="32"><path d="M0 0h1024v1024H0z" fill="#568af2" fill-opacity="0" /><path d="M291.147294 442.970353H150.588235a26.352941 26.352941 0 0 0-26.352941 26.352941v245.970824c0 14.546824 11.806118 26.352941 26.352941 26.352941h140.559059a26.352941 26.352941 0 0 0 26.352941-26.352941v-245.970824a26.352941 26.352941 0 0 0-26.352941-26.352941z m-26.383059 52.705882v193.264941H176.941176v-193.264941h87.823059zM853.323294 442.970353h-140.528941a26.352941 26.352941 0 0 0-26.352941 26.352941v245.970824c0 14.546824 11.776 26.352941 26.352941 26.352941h140.528941a26.352941 26.352941 0 0 0 26.352941-26.352941v-245.970824a26.352941 26.352941 0 0 0-26.352941-26.352941z m-26.352941 52.705882v193.264941h-87.853177v-193.264941h87.853177z" fill="#568af2" /><path d="M712.794353 548.382118h-421.647059a26.352941 26.352941 0 0 0-26.352941 26.352941v140.559059c0 14.546824 11.776 26.352941 26.352941 26.352941h421.647059a26.352941 26.352941 0 0 0 26.352941-26.352941v-140.559059a26.352941 26.352941 0 0 0-26.352941-26.352941z m-26.383059 52.705882v87.853176h-368.941176v-87.853176h368.941176zM783.058824 214.588235c13.432471 0 24.515765 10.059294 26.142117 23.04l0.210824 3.312941v210.82353a26.352941 26.352941 0 0 1-52.495059 3.312941l-0.210824-3.312941V267.294118H247.205647V451.764706a26.352941 26.352941 0 0 1-23.04 26.142118l-3.312941 0.210823a26.352941 26.352941 0 0 1-26.142118-23.04L194.499765 451.764706V240.941176c0-13.432471 10.059294-24.515765 23.070117-26.142117l3.312942-0.210824H783.058824zM220.852706 706.499765c13.432471 0 24.545882 10.059294 26.172235 23.070117l0.180706 3.312942v70.26447a26.352941 26.352941 0 0 1-52.495059 3.312941l-0.210823-3.312941v-70.294588c0-14.546824 11.806118-26.352941 26.352941-26.352941zM783.058824 706.499765c13.432471 0 24.515765 10.059294 26.142117 23.070117l0.210824 3.312942v70.26447a26.352941 26.352941 0 0 1-52.495059 3.312941l-0.210824-3.312941v-70.294588c0-14.546824 11.806118-26.352941 26.352942-26.352941z" fill="#568af2" /></svg>