<svg class="icon" style="width: 1em;height: 1em;vertical-align: middle;fill: currentColor;overflow: hidden;" viewBox="0 0 1024 1024" version="1.1" xmlns="http://www.w3.org/2000/svg" width="32" height="32"><path d="M0 0h1024v1024H0z" fill="#568af2" fill-opacity="0" /><path d="M435.440941 299.911529c-100.141176 0-184.470588 56.229647-184.470588 131.764706V466.823529c0 14.546824 11.806118 26.352941 26.352941 26.352942h316.235294a26.352941 26.352941 0 0 0 26.352941-26.352942v-35.147294c0-75.535059-84.329412-131.764706-184.470588-131.764706z m7.168 52.826353c70.957176 2.349176 124.596706 39.393882 124.596706 78.938353v8.764236h-263.529412v-8.734118c0-40.899765 57.283765-79.088941 131.764706-79.088941l7.168 0.12047z" fill="#568af2" /><path d="M646.264471 124.235294c126.735059 0 232.688941 73.185882 237.025882 169.502118l0.150588 6.174117v553.411765a26.352941 26.352941 0 0 1-52.495059 3.312941l-0.210823-3.312941V299.911529c0-65.566118-81.016471-122.970353-184.470588-122.970353-100.773647 0-180.284235 54.512941-184.32 117.940706l-0.150589 5.029647v26.352942a26.352941 26.352941 0 0 1-52.495058 3.312941l-0.210824-3.312941v-26.352942c0-99.358118 107.760941-175.676235 237.176471-175.676235zM435.440941 545.882353c13.432471 0 24.515765 10.059294 26.142118 23.04l0.210823 3.312941v17.558588a26.352941 26.352941 0 0 1-52.495058 3.312942l-0.210824-3.312942V572.235294c0-14.546824 11.806118-26.352941 26.352941-26.352941zM273.167059 563.742118a26.352941 26.352941 0 0 1 50.447059 14.848l-0.933647 3.19247-6.02353 16.504471a26.352941 26.352941 0 0 1-50.447059-14.848l0.90353-3.162353 6.023529-16.534588zM167.755294 827.271529a26.352941 26.352941 0 0 1 50.447059 14.848l-0.933647 3.192471-6.02353 16.504471a26.352941 26.352941 0 0 1-50.447058-14.848l0.903529-3.162353 6.023529-16.534589zM435.440941 809.411765c13.432471 0 24.515765 10.059294 26.142118 23.04l0.210823 3.312941v17.558588a26.352941 26.352941 0 0 1-52.495058 3.312941l-0.210824-3.312941v-17.558588c0-14.546824 11.806118-26.352941 26.352941-26.352941zM435.440941 668.852706c13.432471 0 24.515765 10.059294 26.142118 23.070118l0.210823 3.312941v35.117176a26.352941 26.352941 0 0 1-52.495058 3.312941l-0.210824-3.312941v-35.147294c0-14.546824 11.806118-26.352941 26.352941-26.352941zM223.442824 687.284706a26.352941 26.352941 0 0 1 50.477176 14.817882l-0.963765 3.192471-12.016941 33.008941a26.352941 26.352941 0 0 1-50.447059-14.848l0.933647-3.162353 12.016942-33.039059z" fill="#568af2" /></svg>