<svg class="icon" style="width: 1em;height: 1em;vertical-align: middle;fill: currentColor;overflow: hidden;" viewBox="0 0 1024 1024" version="1.1" xmlns="http://www.w3.org/2000/svg" width="32" height="32"><path d="M0 0h1024v1024H0z" fill="#568af2" fill-opacity="0" /><path d="M632.470588 124.235294H245.970824a61.500235 61.500235 0 0 0-61.500236 61.500235v632.470589c0 33.942588 27.527529 61.470118 61.500236 61.470117H632.470588a61.500235 61.500235 0 0 0 61.500236-61.470117v-632.470589A61.500235 61.500235 0 0 0 632.470588 124.235294zM245.970824 176.941176H632.470588c4.848941 0 8.794353 3.915294 8.794353 8.794353v632.470589c0 4.818824-3.915294 8.764235-8.794353 8.764235H245.970824a8.794353 8.794353 0 0 1-8.794353-8.764235v-632.470589c0-4.848941 3.915294-8.794353 8.794353-8.794353z" fill="#568af2" /><path d="M527.058824 651.294118a26.352941 26.352941 0 0 1 3.312941 52.495058l-3.312941 0.210824h-175.676236a26.352941 26.352941 0 0 1-3.312941-52.495059l3.312941-0.210823H527.058824zM439.205647 264.794353a114.206118 114.206118 0 0 0 0 228.382118l6.806588-0.210824a113.904941 113.904941 0 0 0 71.288471-30.659765l4.276706-4.276706H843.294118a26.352941 26.352941 0 0 0 26.352941-26.352941v-105.411764l-0.210824-3.312942A26.352941 26.352941 0 0 0 843.294118 299.941647H521.607529l-4.306823-4.276706a113.935059 113.935059 0 0 0-78.095059-30.84047z m0 52.705882c17.829647 0 34.334118 7.589647 45.899294 20.570353l5.632 6.686118c4.909176 4.999529 11.655529 7.860706 18.763294 7.860706h307.440941v52.705882H509.500235a26.352941 26.352941 0 0 0-21.082353 10.541177 61.500235 61.500235 0 1 1-49.212235-98.364236z" fill="#568af2" /></svg>