<svg class="icon" style="width: 1em;height: 1em;vertical-align: middle;fill: currentColor;overflow: hidden;" viewBox="0 0 1024 1024" version="1.1" xmlns="http://www.w3.org/2000/svg" width="32" height="32"><path d="M291.147294 365.176471H150.588235a26.352941 26.352941 0 0 0-26.352941 26.352941v351.382588c0 14.546824 11.806118 26.352941 26.352941 26.352941h702.735059a26.352941 26.352941 0 0 0 26.352941-26.352941V391.529412a26.352941 26.352941 0 0 0-26.352941-26.352941h-140.528941l-3.312941 0.210823a26.352941 26.352941 0 0 0-23.04 26.142118l-0.030118 202.029176h-368.941176V391.529412a26.352941 26.352941 0 0 0-26.322824-26.352941z m535.823059 52.705882v298.646588H176.941176v-298.646588h87.823059v202.029176c0 14.576941 11.806118 26.352941 26.383059 26.352942h421.647059l3.312941-0.180706a26.352941 26.352941 0 0 0 23.04-26.172236l-0.030118-202.029176h87.853177z" fill="#568af2" /><path d="M712.794353 154.352941h-421.647059A26.352941 26.352941 0 0 0 264.794353 180.705882v439.205647c0 14.576941 11.776 26.352941 26.352941 26.352942h421.647059a26.352941 26.352941 0 0 0 26.352941-26.352942V180.705882a26.352941 26.352941 0 0 0-26.352941-26.352941z m-26.383059 52.705883v386.499764h-368.941176V207.058824h368.941176z" fill="#568af2" /><path d="M256 848.323765a70.264471 70.264471 0 0 0 70.264471-70.294589c-19.275294 0.090353-128.240941 0-140.528942 0A70.264471 70.264471 0 0 0 256 848.323765zM747.911529 848.323765a70.264471 70.264471 0 0 0 70.294589-70.294589c-33.460706-0.120471-125.409882 0-140.559059 0a70.264471 70.264471 0 0 0 70.26447 70.294589z" fill="#568af2" /></svg>