<svg class="icon" style="width: 1em;height: 1em;vertical-align: middle;fill: currentColor;overflow: hidden;" viewBox="0 0 1024 1024" version="1.1" xmlns="http://www.w3.org/2000/svg" width="32" height="32"><path d="M0 0h1024v1024H0z" fill="#568af2" fill-opacity="0" /><path d="M813.176471 184.470588H215.853176a61.500235 61.500235 0 0 0-61.500235 61.500236V316.235294c0 33.972706 27.527529 61.500235 61.500235 61.500235H813.176471a61.500235 61.500235 0 0 0 61.500235-61.500235V245.970824A61.500235 61.500235 0 0 0 813.176471 184.470588zM215.853176 237.176471H813.176471c4.848941 0 8.794353 3.915294 8.794353 8.794353V316.235294c0 4.848941-3.915294 8.794353-8.794353 8.794353H215.853176a8.794353 8.794353 0 0 1-8.794352-8.794353V245.970824c0-4.848941 3.915294-8.794353 8.794352-8.794353z" fill="#568af2" /><path d="M259.764706 351.382588v456.764236c0 4.156235 2.891294 7.649882 6.77647 8.553411l2.017883 0.240941H760.470588a8.794353 8.794353 0 0 0 8.553412-6.77647l0.240941-2.017882V351.382588h52.705883v456.764236a61.500235 61.500235 0 0 1-56.922353 61.319529l-4.577883 0.180706H268.559059a61.500235 61.500235 0 0 1-61.31953-56.922353l-0.180705-4.577882V351.382588h52.705882z" fill="#568af2" /><path d="M432.429176 449.475765c-4.668235 16.173176-10.932706 29.424941-21.955764 47.73647l-14.456471 23.311059c-21.383529 34.665412-30.840471 60.144941-30.84047 95.563294 0 81.859765 66.921412 148.148706 149.323294 148.148706 82.432 0 149.353412-66.258824 149.353411-148.178823 0-9.547294-1.716706-18.552471-4.939294-28.009412l-1.807058-4.698353-8.643765-20.35953-2.258824-5.059764 0.90353 2.108235a137.005176 137.005176 0 0 1-11.745883-44.754823 26.352941 26.352941 0 0 0-32.587294-23.190589l-7.348706 2.078118c-16.835765 5.210353-31.623529 13.643294-44.453647 24.515765l-3.553882 3.19247-0.331294-0.993882c-14.456471-39.905882-39.936-71.408941-78.848-88.274824a26.352941 26.352941 0 0 0-35.809883 16.865883z m38.4 46.923294l0.843295 0.752941c11.264 10.782118 19.757176 24.877176 25.840941 41.682824a162.635294 162.635294 0 0 1 9.33647 43.821176l0.240942 5.722353c0.391529 28.400941 38.610824 35.538824 50.025411 11.203765l1.295059-3.222589c2.108235-6.204235 7.649882-17.046588 17.016471-27.858823l4.156235-4.517647a82.823529 82.823529 0 0 1 9.005176-7.890824l0.813177-0.602353c1.716706 5.812706 3.614118 11.294118 5.782588 16.896l4.216471 10.11953 6.77647 15.299764 2.078118 5.059765c0.301176 0.752941 0.542118 1.505882 0.783059 2.198588 1.445647 4.306824 2.108235 7.68 2.108235 11.023059 0 52.645647-43.218824 95.442824-96.647529 95.442824-53.398588 0-96.617412-42.767059-96.617412-95.472941 0-21.865412 5.300706-37.918118 19.034353-61.31953l7.830588-12.830117 6.113882-9.697883c7.168-11.535059 12.950588-21.564235 17.79953-31.232l2.16847-4.577882z" fill="#568af2" /></svg>