<svg class="icon" style="width: 1em;height: 1em;vertical-align: middle;fill: currentColor;overflow: hidden;" viewBox="0 0 1024 1024" version="1.1" xmlns="http://www.w3.org/2000/svg" width="32" height="32"><path d="M730.352941 214.588235H273.558588A79.058824 79.058824 0 0 0 194.499765 293.647059v193.264941c0 14.546824 11.806118 26.352941 26.352941 26.352941H783.058824a26.352941 26.352941 0 0 0 26.352941-26.352941V293.647059a79.058824 79.058824 0 0 0-79.058824-79.058824z m0 52.705883l3.312941 0.210823a26.352941 26.352941 0 0 1 23.04 26.142118v166.881882H247.205647V293.647059c0-14.546824 11.806118-26.352941 26.352941-26.352941H730.352941zM185.735529 671.382588c13.432471 0 24.515765 10.029176 26.142118 23.04l0.210824 3.312941V768a26.352941 26.352941 0 0 1-52.525177 3.312941l-0.180706-3.312941v-70.264471c0-14.576941 11.776-26.352941 26.352941-26.352941zM818.206118 671.382588c13.432471 0 24.515765 10.029176 26.142117 23.04l0.210824 3.312941V768a26.352941 26.352941 0 0 1-52.525177 3.312941l-0.180706-3.312941v-70.264471c0-14.576941 11.776-26.352941 26.352942-26.352941z" fill="#568af2" /><path d="M431.676235 372.705882h-105.411764A79.058824 79.058824 0 0 0 247.205647 451.764706v35.147294c0 14.546824 11.806118 26.352941 26.352941 26.352941h210.82353a26.352941 26.352941 0 0 0 26.352941-26.352941V451.764706a79.058824 79.058824 0 0 0-79.058824-79.058824z m0 52.705883l3.312941 0.210823a26.352941 26.352941 0 0 1 23.04 26.142118v8.764235h-158.117647V451.764706c0-14.546824 11.806118-26.352941 26.352942-26.352941h105.411764z" fill="#568af2" /><path d="M677.647059 372.705882H572.235294A79.058824 79.058824 0 0 0 493.176471 451.764706v35.147294c0 14.546824 11.806118 26.352941 26.352941 26.352941h210.823529a26.352941 26.352941 0 0 0 26.352941-26.352941V451.764706a79.058824 79.058824 0 0 0-79.058823-79.058824z m0 52.705883l3.312941 0.210823a26.352941 26.352941 0 0 1 23.04 26.142118v8.764235h-158.117647V451.764706c0-14.546824 11.806118-26.352941 26.352941-26.352941h105.411765z" fill="#568af2" /><path d="M800.617412 460.559059H203.294118a79.058824 79.058824 0 0 0-79.058824 79.058823v158.117647c0 14.546824 11.806118 26.352941 26.352941 26.352942h702.735059a26.352941 26.352941 0 0 0 26.352941-26.352942v-158.117647a79.058824 79.058824 0 0 0-79.058823-79.058823z m0 52.705882l3.312941 0.180706a26.352941 26.352941 0 0 1 23.04 26.172235v131.734589H176.941176v-131.734589c0-14.576941 11.806118-26.352941 26.352942-26.352941h597.323294z" fill="#568af2" /></svg>