<svg class="icon" style="width: 1em;height: 1em;vertical-align: middle;fill: currentColor;overflow: hidden;" viewBox="0 0 1024 1024" version="1.1" xmlns="http://www.w3.org/2000/svg" width="32" height="32"><path d="M0 0h1024v1024H0z" fill="#568af2" fill-opacity="0" /><path d="M715.294118 184.470588a114.206118 114.206118 0 1 0 0 228.382118 114.206118 114.206118 0 0 0 0-228.382118z m0 52.705883a61.500235 61.500235 0 1 1 0 122.970353 61.500235 61.500235 0 0 1 0-122.970353zM328.794353 412.852706a114.206118 114.206118 0 1 0 0 228.412235 114.206118 114.206118 0 0 0 0-228.412235z m0 52.705882a61.500235 61.500235 0 1 1 0 123.000471 61.500235 61.500235 0 0 1 0-123.000471z" fill="#568af2" /><path d="M613.797647 321.355294a26.352941 26.352941 0 0 1 30.027294 43.188706l-2.710588 1.897412-222.448941 134.77647a26.352941 26.352941 0 0 1-30.027294-43.218823l2.710588-1.867294 222.448941-134.776471zM382.313412 558.682353a26.352941 26.352941 0 0 1 33.129412-10.782118l2.981647 1.505883 234.345411 138.511058a26.352941 26.352941 0 0 1-23.853176 46.863059l-2.95153-1.505882-234.375529-138.480941a26.352941 26.352941 0 0 1-9.276235-36.111059z" fill="#568af2" /><path d="M715.294118 641.264941a114.206118 114.206118 0 1 0 0 228.382118 114.206118 114.206118 0 0 0 0-228.382118z m0 52.705883a61.500235 61.500235 0 1 1 0 122.970352 61.500235 61.500235 0 0 1 0-122.970352z" fill="#568af2" /></svg>