<svg class="icon" style="width: 1em;height: 1em;vertical-align: middle;fill: currentColor;overflow: hidden;" viewBox="0 0 1024 1024" version="1.1" xmlns="http://www.w3.org/2000/svg" width="32" height="32"><path d="M0 0h1024v1024H0z" fill="#568af2" fill-opacity="0" /><path d="M746.857412 659.004235a26.352941 26.352941 0 0 1 34.575059-2.349176l2.710588 2.349176 87.823059 87.853177c9.426824 9.426824 10.24 24.244706 2.349176 34.575059l-2.349176 2.710588-87.853177 87.823059a26.352941 26.352941 0 0 1-39.604706-34.575059l2.349177-2.710588 69.180235-69.210353-69.180235-69.180236a26.352941 26.352941 0 0 1-2.349177-34.575058l2.349177-2.710589zM220.852706 124.235294a96.617412 96.617412 0 1 0 0 193.264941 96.617412 96.617412 0 0 0 0-193.264941z m0 52.705882a43.911529 43.911529 0 1 1 0 87.853177 43.911529 43.911529 0 0 1 0-87.853177z" fill="#568af2" /><path d="M431.676235 194.499765c51.531294 0 93.665882 40.357647 96.496941 91.166117l0.150589 5.481412v404.058353c0 22.829176 17.408 41.592471 39.695059 43.730824l4.21647 0.210823h281.088a26.352941 26.352941 0 0 1 3.312941 52.495059l-3.312941 0.210823H572.235294a96.647529 96.647529 0 0 1-96.466823-91.166117l-0.150589-5.481412V291.147294c0-22.829176-17.438118-41.592471-39.695058-43.730823l-4.216471-0.210824H291.117176a26.352941 26.352941 0 0 1-3.312941-52.495059l3.312941-0.210823h140.528942z" fill="#568af2" /></svg>