<svg class="icon" style="width: 1em;height: 1em;vertical-align: middle;fill: currentColor;overflow: hidden;" viewBox="0 0 1024 1024" version="1.1" xmlns="http://www.w3.org/2000/svg" width="32" height="32"><path d="M795.617882 405.323294a96.617412 96.617412 0 1 0 0 193.264941 96.617412 96.617412 0 0 0 0-193.264941z m0 52.705882a43.911529 43.911529 0 1 1 0 87.853177 43.911529 43.911529 0 0 1 0-87.853177zM250.970353 124.235294a96.617412 96.617412 0 1 0 0 193.264941 96.617412 96.617412 0 0 0 0-193.264941z m0 52.705882a43.911529 43.911529 0 1 1 0 87.853177 43.911529 43.911529 0 0 1 0-87.853177zM250.970353 686.441412a96.617412 96.617412 0 1 0 0 193.234823 96.617412 96.617412 0 0 0 0-193.234823z m0 52.705882a43.911529 43.911529 0 1 1 0 87.823059 43.911529 43.911529 0 0 1 0-87.823059z" fill="#568af2" /><path d="M250.970353 264.794353c13.432471 0 24.545882 10.029176 26.172235 23.04l0.180706 3.312941v184.591059h448c13.432471 0 24.545882 10.059294 26.172235 23.070118l0.180706 3.312941a26.352941 26.352941 0 0 1-23.04 26.142117l-3.312941 0.210824-448-0.030118v184.32c0 33.852235-48.850824 35.117176-52.495059 3.764706l-0.210823-3.734588v-421.647059c0-14.576941 11.806118-26.352941 26.352941-26.352941z" fill="#568af2" /></svg>