<svg class="icon" style="width: 1em;height: 1em;vertical-align: middle;fill: currentColor;overflow: hidden;" viewBox="0 0 1024 1024" version="1.1" xmlns="http://www.w3.org/2000/svg" width="32" height="32"><path d="M0 0h1024v1024H0z" fill="#568af2" fill-opacity="0" /><path d="M291.147294 596.088471H150.588235a26.352941 26.352941 0 0 0-26.352941 26.352941v140.528941c0 14.576941 11.806118 26.352941 26.352941 26.352941h140.559059a26.352941 26.352941 0 0 0 26.352941-26.352941v-140.528941a26.352941 26.352941 0 0 0-26.352941-26.352941zM264.734118 648.734118v87.853176H176.941176v-87.853176h87.823059zM853.323294 596.088471h-140.528941a26.352941 26.352941 0 0 0-26.352941 26.352941v140.528941c0 14.576941 11.776 26.352941 26.352941 26.352941h140.528941a26.352941 26.352941 0 0 0 26.352941-26.352941v-140.528941a26.352941 26.352941 0 0 0-26.352941-26.352941z m-26.352941 52.675764v87.853177h-87.853177v-87.853177h87.853177zM572.235294 244.705882h-140.559059a26.352941 26.352941 0 0 0-26.352941 26.352942v140.559058c0 14.546824 11.806118 26.352941 26.352941 26.352942H572.235294a26.352941 26.352941 0 0 0 26.352941-26.352942V271.058824A26.352941 26.352941 0 0 0 572.235294 244.705882z m-26.352941 52.705883v87.823059h-87.853177V297.411765h87.853177z" fill="#568af2" /><path d="M431.676235 314.970353a26.352941 26.352941 0 0 1 3.312941 52.525176l-3.312941 0.180706H150.588235a26.352941 26.352941 0 0 1-3.312941-52.495059l3.312941-0.210823h281.088zM853.323294 314.970353a26.352941 26.352941 0 0 1 3.312941 52.525176l-3.312941 0.180706H572.235294a26.352941 26.352941 0 0 1-3.312941-52.495059l3.312941-0.210823h281.088z" fill="#568af2" /><path d="M425.110588 324.668235a26.352941 26.352941 0 1 1 13.131294 51.049412 254.855529 254.855529 0 0 0-191.036235 246.723765 26.352941 26.352941 0 1 1-52.705882 0c0-141.101176 95.864471-263.077647 230.610823-297.773177zM546.725647 343.642353a26.352941 26.352941 0 0 1 32.075294-18.974118 307.561412 307.561412 0 0 1 230.610824 297.773177 26.352941 26.352941 0 1 1-52.705883 0 254.855529 254.855529 0 0 0-191.036235-246.723765 26.352941 26.352941 0 0 1-18.974118-32.105412z" fill="#568af2" /></svg>