<svg class="icon" style="width: 1em;height: 1em;vertical-align: middle;fill: currentColor;overflow: hidden;" viewBox="0 0 1024 1024" version="1.1" xmlns="http://www.w3.org/2000/svg" width="32" height="32"><path d="M522.029176 124.235294a219.617882 219.617882 0 0 1 219.497412 212.35953l0.120471 7.228235V677.647059a26.352941 26.352941 0 0 1-52.495059 3.312941l-0.210824-3.312941V343.853176a166.912 166.912 0 0 0-333.703529-6.565647l-0.090353 6.565647v509.470118a26.352941 26.352941 0 0 1-52.525176 3.312941l-0.180706-3.312941V343.853176a219.617882 219.617882 0 0 1 219.587764-219.617882z" fill="#568af2" /><path d="M398.004706 746.857412a26.352941 26.352941 0 0 1 39.604706 34.575059l-2.349177 2.710588-87.853176 87.823059a26.352941 26.352941 0 0 1-34.544941 2.349176l-2.710589-2.349176-87.853176-87.853177A26.352941 26.352941 0 0 1 256.903529 744.508235l2.710589 2.349177 69.180235 69.180235 69.240471-69.180235zM829.500235 765.500235a114.206118 114.206118 0 1 0-228.412235 0 114.206118 114.206118 0 0 0 228.412235 0z m-52.705882 0a61.500235 61.500235 0 1 1-123.000471 0 61.500235 61.500235 0 0 1 123.000471 0z" fill="#568af2" /></svg>