<svg class="icon" style="width: 1em;height: 1em;vertical-align: middle;fill: currentColor;overflow: hidden;" viewBox="0 0 1024 1024" version="1.1" xmlns="http://www.w3.org/2000/svg" width="32" height="32"><path d="M579.764706 441.464471a166.912 166.912 0 0 1 166.761412 160.346353l0.150588 6.565647v245.940705a26.352941 26.352941 0 0 1-52.525177 3.312942l-0.180705-3.312942V608.376471a114.206118 114.206118 0 0 0-108.333177-114.05553l-5.872941-0.150588H298.676706a26.352941 26.352941 0 0 1-3.312941-52.495059l3.312941-0.210823h281.088zM184.470588 238.441412a114.206118 114.206118 0 1 0 228.382118 0 114.206118 114.206118 0 0 0-228.382118 0z m52.705883 0a61.500235 61.500235 0 1 1 122.970353 0 61.500235 61.500235 0 0 1-122.970353 0z" fill="#568af2" /><path d="M298.676706 300.905412c13.432471 0 24.515765 10.059294 26.142118 23.04l0.210823 3.312941v509.500235a26.352941 26.352941 0 0 1-52.525176 3.312941l-0.180706-3.312941V327.258353c0-14.546824 11.776-26.352941 26.352941-26.352941z" fill="#568af2" /><path d="M367.887059 747.821176a26.352941 26.352941 0 0 1 39.604706 34.605177l-2.349177 2.710588-87.853176 87.823059a26.352941 26.352941 0 0 1-34.544941 2.349176l-2.710589-2.349176-87.853176-87.853176a26.352941 26.352941 0 0 1 34.575059-39.604706l2.710588 2.349176 69.180235 69.180235 69.240471-69.180235zM789.534118 747.821176a26.352941 26.352941 0 0 1 39.604706 34.605177l-2.349177 2.710588-87.853176 87.823059a26.352941 26.352941 0 0 1-34.544942 2.349176l-2.710588-2.349176-87.853176-87.853176a26.352941 26.352941 0 0 1 34.575059-39.604706l2.710588 2.349176 69.180235 69.180235 69.240471-69.180235z" fill="#568af2" /></svg>