<svg class="icon" style="width: 1em;height: 1em;vertical-align: middle;fill: currentColor;overflow: hidden;" viewBox="0 0 1024 1024" version="1.1" xmlns="http://www.w3.org/2000/svg" width="32" height="32"><path d="M818.206118 325.029647c32.406588 0 58.970353 25.088 61.319529 56.892235l0.150588 4.577883V632.470588a61.500235 61.500235 0 0 1-56.892235 61.31953l-4.577882 0.180706h-70.294589a26.352941 26.352941 0 0 1-3.312941-52.525177l3.312941-0.180706h70.294589a8.794353 8.794353 0 0 0 8.553411-6.77647l0.210824-2.017883v-245.970823a8.794353 8.794353 0 0 0-6.746353-8.553412l-2.017882-0.210824h-263.529412a26.352941 26.352941 0 0 1-3.312941-52.525176l3.312941-0.180706h263.529412zM273.558588 325.029647a26.352941 26.352941 0 0 1 3.312941 52.495059l-3.312941 0.210823H185.735529a8.794353 8.794353 0 0 0-8.553411 6.746353l-0.240942 2.017883V632.470588c0 4.156235 2.891294 7.649882 6.776471 8.553412l2.017882 0.240941h263.529412a26.352941 26.352941 0 0 1 3.312941 52.495059l-3.312941 0.210824h-263.529412a61.500235 61.500235 0 0 1-61.319529-56.922353L124.235294 632.470588v-245.970823c0-32.406588 25.088-58.970353 56.922353-61.31953l4.577882-0.150588h87.823059zM312.922353 188.114824a26.352941 26.352941 0 0 1 34.213647 6.625882l1.867294 2.710588L700.355765 794.804706a26.352941 26.352941 0 0 1-43.580236 29.455059l-1.837176-2.740706L303.555765 224.195765a26.352941 26.352941 0 0 1 9.33647-36.080941z" fill="#568af2" /><path d="M712.794353 483.147294a26.352941 26.352941 0 0 1 3.312941 52.495059l-3.312941 0.210823h-70.294588a26.352941 26.352941 0 0 1-3.312941-52.525176l3.312941-0.180706h70.294588zM361.411765 483.147294a26.352941 26.352941 0 0 1 3.312941 52.495059l-3.312941 0.210823H291.147294a26.352941 26.352941 0 0 1-3.312941-52.525176l3.312941-0.180706H361.411765z" fill="#568af2" /></svg>