<svg class="icon" style="width: 1em;height: 1em;vertical-align: middle;fill: currentColor;overflow: hidden;" viewBox="0 0 1024 1024" version="1.1" xmlns="http://www.w3.org/2000/svg" width="32" height="32"><path d="M0 0h1024v1024H0z" fill="#568af2" fill-opacity="0" /><path d="M737.882353 686.441412a96.617412 96.617412 0 1 0 0 193.234823 96.617412 96.617412 0 0 0 0-193.234823z m0 52.705882a43.911529 43.911529 0 1 1 0 87.823059 43.911529 43.911529 0 0 1 0-87.823059zM281.088 124.235294a96.617412 96.617412 0 1 0 0 193.264941 96.617412 96.617412 0 0 0 0-193.264941z m0 52.705882a43.911529 43.911529 0 1 1 0 87.853177 43.911529 43.911529 0 0 1 0-87.853177zM281.088 686.441412a96.617412 96.617412 0 1 0 0 193.234823 96.617412 96.617412 0 0 0 0-193.234823z m0 52.705882a43.911529 43.911529 0 1 1 0 87.823059 43.911529 43.911529 0 0 1 0-87.823059z" fill="#568af2" /><path d="M281.088 264.794353c13.432471 0 24.545882 10.029176 26.172235 23.04l0.180706 3.312941v421.647059a26.352941 26.352941 0 0 1-52.495059 3.312941l-0.210823-3.312941v-421.647059c0-14.576941 11.806118-26.352941 26.352941-26.352941zM667.617882 229.647059c51.501176 0 93.635765 40.357647 96.466824 91.136l0.150588 5.481412v386.529882a26.352941 26.352941 0 0 1-52.495059 3.312941l-0.210823-3.312941V326.264471c0-22.829176-17.408-41.562353-39.695059-43.700706l-4.216471-0.210824h-158.117647a26.352941 26.352941 0 0 1-3.312941-52.495059l3.312941-0.210823h158.117647z" fill="#568af2" /><path d="M596.269176 131.945412a26.352941 26.352941 0 0 1 39.634824 34.575059l-2.379294 2.710588L546.755765 256l86.768941 86.768941c9.456941 9.456941 10.24 24.244706 2.379294 34.575059l-2.379294 2.710588a26.352941 26.352941 0 0 1-34.544941 2.349177l-2.710589-2.349177-105.411764-105.411764a26.352941 26.352941 0 0 1-2.349177-34.575059l2.349177-2.710589 105.411764-105.411764z" fill="#568af2" /></svg>