<svg class="icon" style="width: 1em;height: 1em;vertical-align: middle;fill: currentColor;overflow: hidden;" viewBox="0 0 1024 1024" version="1.1" xmlns="http://www.w3.org/2000/svg" width="32" height="32"><path d="M0 0h1024v1024H0z" fill="#568af2" fill-opacity="0" /><path d="M864.888471 281.027765l-124.205177-124.235294a61.500235 61.500235 0 0 0-86.979765 0l-173.899294 173.929411a61.500235 61.500235 0 0 0 0 86.949647l124.205177 124.235295c24.033882 24.003765 62.945882 24.003765 86.979764 0l173.899295-173.929412a61.500235 61.500235 0 0 0 0-86.949647z m-161.490824-86.949647l124.235294 124.205176a8.794353 8.794353 0 0 1 0 12.438588l-173.929412 173.929412a8.794353 8.794353 0 0 1-12.40847 0l-124.235294-124.235294a8.794353 8.794353 0 0 1 0-12.438588l173.929411-173.899294a8.794353 8.794353 0 0 1 12.408471 0zM541.906824 604.009412l-124.235295-124.205177a61.500235 61.500235 0 0 0-86.949647 0l-173.929411 173.899294a61.500235 61.500235 0 0 0 0 86.979765l124.235294 124.235294c24.003765 24.003765 62.945882 24.003765 86.949647 0l173.929412-173.929412a61.500235 61.500235 0 0 0 0-86.979764z m-161.490824-86.949647l124.235294 124.235294a8.794353 8.794353 0 0 1 0 12.40847L330.691765 827.632941a8.794353 8.794353 0 0 1-12.438589 0l-124.205176-124.235294a8.794353 8.794353 0 0 1 0-12.408471l173.899294-173.929411a8.794353 8.794353 0 0 1 12.438588 0z" fill="#568af2" /><path d="M616.448 367.977412a26.352941 26.352941 0 0 1 39.634824 34.575059l-2.349177 2.710588-248.470588 248.470588a26.352941 26.352941 0 0 1-39.634824-34.575059l2.379294-2.710588 248.470589-248.470588z" fill="#568af2" /></svg>