<svg class="icon" style="width: 1em;height: 1em;vertical-align: middle;fill: currentColor;overflow: hidden;" viewBox="0 0 1024 1024" version="1.1" xmlns="http://www.w3.org/2000/svg" width="32" height="32"><path d="M0 0h1024v1024H0z" fill="#568af2" fill-opacity="0" /><path d="M637.500235 242.206118a26.352941 26.352941 0 0 1 3.312941 52.495058l-3.312941 0.210824H303.676235c-55.717647 0-96.617412 40.899765-96.617411 96.617412 0 53.790118 38.128941 93.786353 90.925176 96.496941l5.722353 0.120471H602.352941a26.352941 26.352941 0 0 1 3.312941 52.525176l-3.312941 0.180706h-298.676706c-84.811294 0-149.323294-64.481882-149.323294-149.323294 0-82.582588 61.138824-145.92 142.667294-149.202824l6.656-0.12047h333.824z" fill="#568af2" /><path d="M690.206118 488.146824c84.811294 0 149.323294 64.512 149.323294 149.353411 0 82.582588-61.138824 145.92-142.667294 149.202824l-6.656 0.12047H215.853176a26.352941 26.352941 0 0 1-3.312941-52.495058l3.312941-0.210824h474.352942c55.717647 0 96.617412-40.899765 96.617411-96.617412 0-53.820235-38.128941-93.786353-90.925176-96.496941l-5.722353-0.150588H602.352941a26.352941 26.352941 0 0 1-3.312941-52.495059l3.312941-0.210823h87.853177z" fill="#568af2" /><path d="M285.063529 654.004706a26.352941 26.352941 0 0 1 39.604706 34.544941l-2.349176 2.710588-69.210353 69.210353 69.210353 69.210353c9.426824 9.426824 10.24 24.244706 2.349176 34.575059l-2.349176 2.710588a26.352941 26.352941 0 0 1-34.575059 2.349177l-2.710588-2.379294-87.823059-87.823059a26.352941 26.352941 0 0 1-2.349177-34.575059l2.349177-2.710588 87.853176-87.823059zM728.425412 382.735059a114.206118 114.206118 0 1 0 0-228.382118 114.206118 114.206118 0 0 0 0 228.382118z m0-52.705883a61.500235 61.500235 0 1 1 0-122.970352 61.500235 61.500235 0 0 1 0 122.970352z" fill="#568af2" /></svg>