<svg class="icon" style="width: 1em;height: 1em;vertical-align: middle;fill: currentColor;overflow: hidden;" viewBox="0 0 1024 1024" version="1.1" xmlns="http://www.w3.org/2000/svg" width="32" height="32"><path d="M543.563294 280.033882l-52.705882 52.705883a26.352941 26.352941 0 0 0 0 37.255529l193.264941 193.264941a26.352941 26.352941 0 0 0 37.255529 0l52.705883-52.705882c52.886588-52.886588 69.300706-161.219765 0-230.520471-69.270588-69.270588-177.633882-52.886588-230.520471 0z m197.632 41.953883c40.658824 46.140235 28.822588 118.121412-4.367059 151.311059l-34.093176 34.032941-155.979294-155.979294 34.063059-34.032942c34.334118-34.334118 110.170353-45.839059 156.009411 0l4.367059 4.668236z" fill="#568af2" /><path d="M824.651294 192.180706a26.352941 26.352941 0 0 1 39.634824 34.575059l-2.349177 2.710588-87.853176 87.823059a26.352941 26.352941 0 0 1-39.634824-34.544941l2.379294-2.710589L824.621176 192.150588zM332.739765 490.857412l-52.705883 52.705882c-52.886588 52.886588-69.300706 161.219765 0 230.520471 69.270588 69.300706 177.633882 52.886588 230.520471 0l52.705882-52.705883a26.352941 26.352941 0 0 0 0-37.255529l-193.264941-193.264941a26.352941 26.352941 0 0 0-37.255529 0z m18.612706 55.898353l155.979294 155.979294-34.032941 34.093176c-34.334118 34.334118-110.170353 45.808941-156.009412 0-45.808941-45.839059-34.334118-121.675294 0-156.009411l34.063059-34.063059z" fill="#568af2" /><path d="M561.121882 578.710588a26.352941 26.352941 0 0 1 39.634824 34.544941l-2.349177 2.710589-70.294588 70.26447a26.352941 26.352941 0 0 1-39.604706-34.544941l2.349177-2.710588 70.26447-70.264471zM280.033882 736.828235a26.352941 26.352941 0 0 1 39.634824 34.544941l-2.379294 2.710589L229.496471 861.967059a26.352941 26.352941 0 0 1-39.634824-34.575059l2.349177-2.710588 87.853176-87.823059zM438.151529 455.710118a26.352941 26.352941 0 0 1 39.634824 34.575058l-2.379294 2.710589-70.264471 70.26447a26.352941 26.352941 0 0 1-39.634823-34.575059l2.379294-2.710588 70.26447-70.26447z" fill="#568af2" /></svg>