<svg class="icon" style="width: 1em;height: 1em;vertical-align: middle;fill: currentColor;overflow: hidden;" viewBox="0 0 1024 1024" version="1.1" xmlns="http://www.w3.org/2000/svg" width="32" height="32"><path d="M0 0h1024v1024H0z" fill="#568af2" fill-opacity="0" /><path d="M291.147294 676.382118H150.588235a26.352941 26.352941 0 0 0-26.352941 26.352941V843.294118c0 14.546824 11.806118 26.352941 26.352941 26.352941h140.559059a26.352941 26.352941 0 0 0 26.352941-26.352941v-140.559059a26.352941 26.352941 0 0 0-26.352941-26.352941z m-26.383059 52.705882v87.853176H176.941176v-87.853176h87.823059zM783.058824 184.470588H220.852706A26.352941 26.352941 0 0 0 194.499765 210.823529v210.82353c0 14.546824 11.806118 26.352941 26.352941 26.352941H783.058824a26.352941 26.352941 0 0 0 26.352941-26.352941V210.823529A26.352941 26.352941 0 0 0 783.058824 184.470588z m-26.352942 52.705883v158.117647H247.205647v-158.117647h509.500235z" fill="#568af2" /><path d="M501.970824 395.294118c13.432471 0 24.515765 10.059294 26.142117 23.04l0.210824 3.312941v281.088a26.352941 26.352941 0 0 1-52.525177 3.312941l-0.180706-3.312941V421.647059c0-14.546824 11.776-26.352941 26.352942-26.352941z" fill="#568af2" /><path d="M783.058824 535.853176c13.432471 0 24.515765 10.029176 26.142117 23.04l0.210824 3.312942v140.528941a26.352941 26.352941 0 0 1-52.495059 3.312941l-0.210824-3.312941v-114.206118H247.205647v114.206118a26.352941 26.352941 0 0 1-23.04 26.172235l-3.312941 0.180706a26.352941 26.352941 0 0 1-26.142118-23.04l-0.210823-3.312941v-140.528941c0-13.432471 10.059294-24.545882 23.070117-26.172236l3.312942-0.180706H783.058824z" fill="#568af2" /><path d="M853.323294 676.382118h-140.528941a26.352941 26.352941 0 0 0-26.352941 26.352941V843.294118c0 14.546824 11.776 26.352941 26.352941 26.352941h140.528941a26.352941 26.352941 0 0 0 26.352941-26.352941v-140.559059a26.352941 26.352941 0 0 0-26.352941-26.352941z m-26.352941 52.705882v87.853176h-87.853177v-87.853176h87.853177zM572.235294 676.382118h-140.559059a26.352941 26.352941 0 0 0-26.352941 26.352941V843.294118c0 14.546824 11.806118 26.352941 26.352941 26.352941H572.235294a26.352941 26.352941 0 0 0 26.352941-26.352941v-140.559059a26.352941 26.352941 0 0 0-26.352941-26.352941z m-26.352941 52.705882v87.853176h-87.853177v-87.853176h87.853177zM361.411765 289.882353a26.352941 26.352941 0 0 1 3.312941 52.495059l-3.312941 0.210823h-35.147294a26.352941 26.352941 0 0 1-3.312942-52.495059l3.312942-0.210823H361.411765z" fill="#568af2" /></svg>