<svg class="icon" style="width: 1em;height: 1em;vertical-align: middle;fill: currentColor;overflow: hidden;" viewBox="0 0 1024 1024" version="1.1" xmlns="http://www.w3.org/2000/svg" width="32" height="32"><path d="M0 0h1024v1024H0z" fill="#568af2" fill-opacity="0" /><path d="M848.323765 475.617882a26.352941 26.352941 0 0 1 3.312941 52.495059l-3.312941 0.210824H180.705882a26.352941 26.352941 0 0 1-3.312941-52.525177l3.312941-0.180706h667.617883zM584.794353 124.235294H444.235294a61.500235 61.500235 0 0 0-61.500235 61.500235v140.528942c0 33.972706 27.527529 61.500235 61.500235 61.500235h140.559059a61.500235 61.500235 0 0 0 61.470118-61.500235V185.735529a61.500235 61.500235 0 0 0-61.470118-61.500235z m-140.559059 52.705882h140.559059c4.818824 0 8.764235 3.915294 8.764235 8.794353v140.528942c0 4.848941-3.915294 8.794353-8.764235 8.794353H444.235294a8.794353 8.794353 0 0 1-8.794353-8.794353V185.735529c0-4.848941 3.915294-8.794353 8.794353-8.794353zM373.970824 616.146824H233.411765A61.500235 61.500235 0 0 0 171.911529 677.647059v140.559059c0 33.942588 27.527529 61.470118 61.500236 61.470117h140.559059a61.500235 61.500235 0 0 0 61.470117-61.470117V677.647059a61.500235 61.500235 0 0 0-61.470117-61.500235z m-140.559059 52.705882h140.559059c4.818824 0 8.764235 3.915294 8.764235 8.794353v140.559059c0 4.818824-3.915294 8.764235-8.764235 8.764235H233.411765a8.794353 8.794353 0 0 1-8.794353-8.764235V677.647059c0-4.848941 3.915294-8.794353 8.794353-8.794353zM795.617882 616.146824H655.058824a61.500235 61.500235 0 0 0-61.500236 61.500235v140.559059c0 33.942588 27.527529 61.470118 61.500236 61.470117h140.559058a61.500235 61.500235 0 0 0 61.470118-61.470117V677.647059a61.500235 61.500235 0 0 0-61.470118-61.500235z m-140.559058 52.705882h140.559058c4.818824 0 8.764235 3.915294 8.764236 8.794353v140.559059c0 4.818824-3.915294 8.764235-8.764236 8.764235H655.058824a8.794353 8.794353 0 0 1-8.794353-8.764235V677.647059c0-4.848941 3.915294-8.794353 8.794353-8.794353z" fill="#568af2" /><path d="M514.499765 335.058824c13.432471 0 24.545882 10.059294 26.172235 23.04l0.180706 3.312941v140.559059a26.352941 26.352941 0 0 1-52.495059 3.312941l-0.210823-3.312941V361.411765c0-14.546824 11.806118-26.352941 26.352941-26.352941zM725.323294 475.617882c13.432471 0 24.545882 10.029176 26.172235 23.04l0.180706 3.312942v140.528941a26.352941 26.352941 0 0 1-52.495059 3.312941l-0.210823-3.312941v-140.528941c0-14.576941 11.806118-26.352941 26.352941-26.352942zM303.676235 475.617882c13.432471 0 24.545882 10.029176 26.172236 23.04l0.180705 3.312942v140.528941a26.352941 26.352941 0 0 1-52.495058 3.312941l-0.210824-3.312941v-140.528941c0-14.576941 11.806118-26.352941 26.352941-26.352942z" fill="#568af2" /></svg>