<svg class="icon" style="width: 1em;height: 1em;vertical-align: middle;fill: currentColor;overflow: hidden;" viewBox="0 0 1024 1024" version="1.1" xmlns="http://www.w3.org/2000/svg" width="32" height="32"><path d="M0 0h1024v1024H0z" fill="#568af2" fill-opacity="0" /><path d="M677.647059 302.441412a26.352941 26.352941 0 0 1 3.312941 52.495059l-3.312941 0.210823H343.853176a166.912 166.912 0 0 0-6.565647 333.673412l6.565647 0.12047h509.470118a26.352941 26.352941 0 0 1 3.312941 52.495059l-3.312941 0.210824H343.853176a219.617882 219.617882 0 0 1-7.258352-439.115294l7.228235-0.090353H677.647059z" fill="#568af2" /><path d="M746.857412 608.828235a26.352941 26.352941 0 0 1 34.575059-2.379294l2.710588 2.379294 87.823059 87.823059c9.426824 9.456941 10.24 24.244706 2.349176 34.575059l-2.349176 2.710588-87.853177 87.823059a26.352941 26.352941 0 0 1-39.604706-34.544941l2.349177-2.710588 69.180235-69.210353-69.180235-69.210353a26.352941 26.352941 0 0 1-2.349177-34.575059l2.349177-2.710588zM765.500235 214.588235a114.206118 114.206118 0 1 0 0 228.382118 114.206118 114.206118 0 0 0 0-228.382118z m0 52.705883a61.500235 61.500235 0 1 1 0 122.970353 61.500235 61.500235 0 0 1 0-122.970353z" fill="#568af2" /></svg>