<svg class="icon" style="width: 1em;height: 1em;vertical-align: middle;fill: currentColor;overflow: hidden;" viewBox="0 0 1024 1024" version="1.1" xmlns="http://www.w3.org/2000/svg" width="32" height="32"><path d="M835.764706 124.235294H168.146824c-24.786824 0-43.911529 20.871529-43.91153 45.507765v172.513882c0 24.636235 19.124706 45.507765 43.91153 45.507765H835.764706c24.786824 0 43.911529-20.871529 43.911529-45.507765V169.743059c0-24.636235-19.124706-45.507765-43.911529-45.507765z m-8.794353 52.705882v158.117648H176.941176v-158.117648h650.029177zM835.764706 616.146824H168.146824c-24.786824 0-43.911529 20.871529-43.91153 45.537882v172.483765c0 24.666353 19.124706 45.507765 43.91153 45.507764H835.764706c24.786824 0 43.911529-20.841412 43.911529-45.507764V661.684706c0-24.666353-19.124706-45.537882-43.911529-45.537882z m-8.794353 52.705882v158.117647H176.941176v-158.117647h650.029177z" fill="#568af2" /><path d="M326.264471 335.058824c13.432471 0 24.545882 10.059294 26.172235 23.04l0.180706 3.312941v114.326588l325.029647 0.180706c13.432471 0 24.515765 10.059294 26.142117 23.04l0.210824 3.312941v140.227765a26.352941 26.352941 0 0 1-52.495059 3.312941l-0.210823-3.312941v-113.904941l-325.029647-0.120471a26.352941 26.352941 0 0 1-26.142118-23.070118l-0.210824-3.312941V361.411765c0-14.546824 11.806118-26.352941 26.352942-26.352941zM607.382588 721.558588a26.352941 26.352941 0 0 1 3.312941 52.525177l-3.312941 0.180706h-210.823529a26.352941 26.352941 0 0 1-3.312941-52.495059l3.312941-0.210824h210.823529zM607.382588 229.647059a26.352941 26.352941 0 0 1 3.312941 52.495059l-3.312941 0.210823h-210.823529a26.352941 26.352941 0 0 1-3.312941-52.495059l3.312941-0.210823h210.823529z" fill="#568af2" /></svg>