<svg class="icon" style="width: 1em;height: 1em;vertical-align: middle;fill: currentColor;overflow: hidden;" viewBox="0 0 1024 1024" version="1.1" xmlns="http://www.w3.org/2000/svg" width="32" height="32"><path d="M0 0h1024v1024H0z" fill="#568af2" fill-opacity="0" /><path d="M624.941176 493.176471a26.352941 26.352941 0 0 1 3.312942 52.495058l-3.312942 0.210824h-228.382117a26.352941 26.352941 0 0 1-3.312941-52.495059l3.312941-0.210823h228.382117z" fill="#568af2" /><path d="M818.206118 335.058824h-632.470589a61.500235 61.500235 0 0 0-61.500235 61.500235v245.940706c0 33.972706 27.527529 61.500235 61.500235 61.500235h632.470589a61.500235 61.500235 0 0 0 61.470117-61.500235v-245.940706a61.500235 61.500235 0 0 0-61.470117-61.500235z m-632.470589 52.705882h632.470589c4.818824 0 8.764235 3.915294 8.764235 8.794353v245.940706c0 4.848941-3.915294 8.794353-8.764235 8.794353h-632.470589a8.794353 8.794353 0 0 1-8.794353-8.794353v-245.940706c0-4.848941 3.915294-8.794353 8.794353-8.794353z" fill="#568af2" /></svg>