<svg class="icon" style="width: 1em;height: 1em;vertical-align: middle;fill: currentColor;overflow: hidden;" viewBox="0 0 1024 1024" version="1.1" xmlns="http://www.w3.org/2000/svg" width="32" height="32"><path d="M0 0h1024v1024H0z" fill="#568af2" fill-opacity="0" /><path d="M818.206118 342.588235c32.406588 0 58.970353 25.088 61.319529 56.922353l0.150588 4.577883v245.940705a61.500235 61.500235 0 0 1-56.892235 61.31953l-4.577882 0.180706h-175.706353a26.352941 26.352941 0 0 1-3.312941-52.495059l3.312941-0.210824h175.706353a8.794353 8.794353 0 0 0 8.553411-6.77647l0.210824-2.017883v-245.940705a8.794353 8.794353 0 0 0-6.746353-8.553412l-2.017882-0.240941h-175.706353a26.352941 26.352941 0 0 1-3.312941-52.495059l3.312941-0.210824h175.706353zM378.970353 342.588235a26.352941 26.352941 0 0 1 3.312941 52.495059l-3.312941 0.210824H185.735529a8.794353 8.794353 0 0 0-8.553411 6.77647l-0.240942 2.017883v245.940705c0 4.156235 2.891294 7.649882 6.776471 8.553412l2.017882 0.240941h193.234824a26.352941 26.352941 0 0 1 3.312941 52.495059l-3.312941 0.210824H185.735529a61.500235 61.500235 0 0 1-61.319529-56.922353l-0.180706-4.577883v-245.940705c0-32.436706 25.088-58.970353 56.922353-61.31953l4.577882-0.180706h193.234824zM501.970824 184.470588c13.432471 0 24.515765 10.059294 26.142117 23.04l0.210824 3.312941v632.470589a26.352941 26.352941 0 0 1-52.525177 3.312941l-0.180706-3.312941V210.823529c0-14.546824 11.776-26.352941 26.352942-26.352941z" fill="#568af2" /><path d="M361.411765 500.705882a26.352941 26.352941 0 0 1 3.312941 52.495059l-3.312941 0.210824H291.147294a26.352941 26.352941 0 0 1-3.312941-52.495059l3.312941-0.210824H361.411765zM712.794353 500.705882a26.352941 26.352941 0 0 1 3.312941 52.495059l-3.312941 0.210824h-70.294588a26.352941 26.352941 0 0 1-3.312941-52.495059l3.312941-0.210824h70.294588z" fill="#568af2" /></svg>