<svg class="icon" style="width: 1em;height: 1em;vertical-align: middle;fill: currentColor;overflow: hidden;" viewBox="0 0 1024 1024" version="1.1" xmlns="http://www.w3.org/2000/svg" width="32" height="32"><path d="M0 0h1024v1024H0z" fill="#568af2" fill-opacity="0" /><path d="M843.294118 500.705882c14.546824 0 26.352941 11.806118 26.352941 26.352942 0 189.199059-153.389176 342.588235-342.588235 342.588235S184.470588 716.257882 184.470588 527.058824a26.352941 26.352941 0 1 1 52.705883 0 289.882353 289.882353 0 0 0 579.764705 0c0-14.546824 11.806118-26.352941 26.352942-26.352942z" fill="#568af2" /><path d="M527.058824 325.029647c13.432471 0 24.515765 10.029176 26.142117 23.04l0.210824 3.312941V843.294118a26.352941 26.352941 0 0 1-52.495059 3.312941l-0.210824-3.312941V351.382588c0-14.576941 11.806118-26.352941 26.352942-26.352941z" fill="#568af2" /><path d="M527.058824 184.470588a96.617412 96.617412 0 1 0 0 193.264941 96.617412 96.617412 0 0 0 0-193.264941z m0 52.705883a43.911529 43.911529 0 1 1 0 87.853176 43.911529 43.911529 0 0 1 0-87.853176z" fill="#568af2" /></svg>