<svg class="icon" style="width: 1em;height: 1em;vertical-align: middle;fill: currentColor;overflow: hidden;" viewBox="0 0 1024 1024" version="1.1" xmlns="http://www.w3.org/2000/svg" width="32" height="32"><path d="M0 0h1024v1024H0z" fill="#568af2" fill-opacity="0" /><path d="M660.088471 302.441412a219.617882 219.617882 0 0 1 7.228235 439.115294l-7.228235 0.090353H150.588235a26.352941 26.352941 0 0 1-3.312941-52.495059l3.312941-0.210824h509.500236a166.912 166.912 0 0 0 6.535529-333.703529l-6.535529-0.090353H326.264471a26.352941 26.352941 0 0 1-3.312942-52.525176l3.312942-0.180706h333.824z" fill="#568af2" /><path d="M219.798588 608.828235a26.352941 26.352941 0 0 1 39.634824 34.544941l-2.379294 2.710589-69.210353 69.210353 69.210353 69.210353c9.456941 9.426824 10.24 24.244706 2.379294 34.575058l-2.379294 2.710589a26.352941 26.352941 0 0 1-34.544942 2.349176l-2.710588-2.379294L131.915294 733.967059a26.352941 26.352941 0 0 1-2.349176-34.575059l2.349176-2.710588 87.853177-87.823059zM238.441412 214.588235a114.206118 114.206118 0 1 0 0 228.382118 114.206118 114.206118 0 0 0 0-228.382118z m0 52.705883a61.500235 61.500235 0 1 1 0 122.970353 61.500235 61.500235 0 0 1 0-122.970353z" fill="#568af2" /></svg>