<svg class="icon" style="width: 1em;height: 1em;vertical-align: middle;fill: currentColor;overflow: hidden;" viewBox="0 0 1024 1024" version="1.1" xmlns="http://www.w3.org/2000/svg" width="32" height="32"><path d="M737.882353 124.235294a96.617412 96.617412 0 1 0 0 193.264941 96.617412 96.617412 0 0 0 0-193.264941z m0 52.705882a43.911529 43.911529 0 1 1 0 87.853177 43.911529 43.911529 0 0 1 0-87.853177zM281.088 124.235294a96.617412 96.617412 0 1 0 0 193.264941 96.617412 96.617412 0 0 0 0-193.264941z m0 52.705882a43.911529 43.911529 0 1 1 0 87.853177 43.911529 43.911529 0 0 1 0-87.853177zM509.500235 686.441412a96.617412 96.617412 0 1 0 0 193.234823 96.617412 96.617412 0 0 0 0-193.234823z m0 52.705882a43.911529 43.911529 0 1 1 0 87.823059 43.911529 43.911529 0 0 1 0-87.823059z" fill="#568af2" /><path d="M737.882353 264.794353c13.432471 0 24.515765 10.029176 26.142118 23.04l0.210823 3.312941v52.705882c0 54.874353-24.184471 89.238588-91.617882 144.26353l-15.661177 12.589176-8.432941 6.565647-23.792941 18.492236-7.017412 5.541647-12.950588 10.541176c-49.332706 40.839529-67.463529 65.746824-68.848941 96.737883l-0.060236 3.915294v70.294588c0 33.822118-48.880941 35.087059-52.495058 3.734588l-0.210824-3.734588v-70.294588l-0.090353-3.915294c-1.264941-28.431059-16.564706-51.712-57.133176-86.829177l-11.685647-9.908706-12.980706-10.541176-39.213177-30.59953-15.691294-12.589176-14.275765-11.896471c-54.332235-46.381176-75.595294-78.878118-77.221647-126.373647l-0.12047-6.023529v-52.705883a26.352941 26.352941 0 0 1 52.525176-3.312941l0.180706 3.312941v52.705883c0 30.268235 14.848 54.061176 57.22353 90.774588l11.685647 9.908706 12.980706 10.541176 39.213176 30.59953 15.691294 12.589176 14.275765 11.896471c20.389647 17.408 36.111059 32.828235 47.887059 47.856941l3.072 4.065882 3.102117-4.065882c16.926118-21.564235 41.984-43.971765 77.251765-71.830588l32.828235-25.569883c2.409412-1.867294 4.728471-3.734588 6.987294-5.541647l13.010824-10.541176 11.685647-9.908706c40.538353-35.117176 55.838118-58.428235 57.103059-86.829176l0.090353-3.915295v-52.705882c0-14.576941 11.806118-26.352941 26.352941-26.352941z" fill="#568af2" /></svg>