<svg class="icon" style="width: 1em;height: 1em;vertical-align: middle;fill: currentColor;overflow: hidden;" viewBox="0 0 1024 1024" version="1.1" xmlns="http://www.w3.org/2000/svg" width="32" height="32"><path d="M0 0h1024v1024H0z" fill="#568af2" fill-opacity="0" /><path d="M707.764706 194.499765a26.352941 26.352941 0 0 1 3.312941 52.525176l-3.312941 0.180706H356.382118a26.352941 26.352941 0 0 1-3.312942-52.495059l3.312942-0.210823H707.764706z" fill="#568af2" /><path d="M707.764706 194.499765a26.352941 26.352941 0 0 1 3.312941 52.525176l-3.312941 0.180706H356.382118a26.352941 26.352941 0 0 1-3.312942-52.495059l3.312942-0.210823H707.764706zM707.764706 756.705882a26.352941 26.352941 0 0 1 3.312941 52.495059l-3.312941 0.210824H356.382118a26.352941 26.352941 0 0 1-3.312942-52.495059l3.312942-0.210824H707.764706z" fill="#568af2" /><path d="M848.323765 124.235294h-70.294589a61.500235 61.500235 0 0 0-61.470117 61.500235V256c0 33.972706 27.527529 61.500235 61.470117 61.500235h70.294589A61.500235 61.500235 0 0 0 909.793882 256V185.735529a61.500235 61.500235 0 0 0-61.470117-61.500235z m-70.294589 52.705882h70.294589c4.818824 0 8.764235 3.915294 8.764235 8.794353V256c0 4.848941-3.915294 8.794353-8.764235 8.794353h-70.294589a8.794353 8.794353 0 0 1-8.764235-8.794353V185.735529c0-4.848941 3.915294-8.794353 8.764235-8.794353zM286.117647 124.235294H215.853176a61.500235 61.500235 0 0 0-61.500235 61.500235V256c0 33.972706 27.527529 61.500235 61.500235 61.500235H286.117647A61.500235 61.500235 0 0 0 347.617882 256V185.735529A61.500235 61.500235 0 0 0 286.117647 124.235294z m-70.264471 52.705882H286.117647c4.848941 0 8.794353 3.915294 8.794353 8.794353V256c0 4.848941-3.915294 8.794353-8.794353 8.794353H215.853176a8.794353 8.794353 0 0 1-8.794352-8.794353V185.735529c0-4.848941 3.915294-8.794353 8.794352-8.794353zM848.323765 686.441412h-70.294589a61.500235 61.500235 0 0 0-61.470117 61.470117v70.294589c0 33.942588 27.527529 61.470118 61.470117 61.470117h70.294589a61.500235 61.500235 0 0 0 61.470117-61.470117v-70.294589a61.500235 61.500235 0 0 0-61.470117-61.470117z m-70.294589 52.705882h70.294589c4.818824 0 8.764235 3.915294 8.764235 8.764235v70.294589c0 4.818824-3.915294 8.764235-8.764235 8.764235h-70.294589a8.794353 8.794353 0 0 1-8.764235-8.764235v-70.294589c0-4.818824 3.915294-8.764235 8.764235-8.764235zM286.117647 686.441412H215.853176a61.500235 61.500235 0 0 0-61.500235 61.470117v70.294589c0 33.942588 27.527529 61.470118 61.500235 61.470117H286.117647a61.500235 61.500235 0 0 0 61.500235-61.470117v-70.294589A61.500235 61.500235 0 0 0 286.117647 686.441412z m-70.264471 52.705882H286.117647c4.848941 0 8.794353 3.915294 8.794353 8.764235v70.294589c0 4.818824-3.915294 8.764235-8.794353 8.764235H215.853176a8.794353 8.794353 0 0 1-8.794352-8.764235v-70.294589c0-4.818824 3.915294-8.764235 8.794352-8.764235z" fill="#568af2" /><path d="M813.176471 299.911529c13.432471 0 24.515765 10.059294 26.142117 23.070118l0.210824 3.312941V677.647059a26.352941 26.352941 0 0 1-52.495059 3.312941l-0.210824-3.312941V326.264471c0-14.546824 11.806118-26.352941 26.352942-26.352942zM250.970353 299.911529c13.432471 0 24.545882 10.059294 26.172235 23.070118l0.180706 3.312941V677.647059a26.352941 26.352941 0 0 1-52.495059 3.312941l-0.210823-3.312941V326.264471c0-14.546824 11.806118-26.352941 26.352941-26.352942z" fill="#568af2" /></svg>