<svg class="icon" style="width: 1em;height: 1em;vertical-align: middle;fill: currentColor;overflow: hidden;" viewBox="0 0 1024 1024" version="1.1" xmlns="http://www.w3.org/2000/svg" width="32" height="32"><path d="M0 0h1024v1024H0z" fill="#568af2" fill-opacity="0" /><path d="M853.323294 648.794353a26.352941 26.352941 0 0 1 3.312941 52.495059l-3.312941 0.210823H150.588235a26.352941 26.352941 0 0 1-3.312941-52.525176l3.312941-0.180706h702.735059zM352.617412 455.529412c94.448941 0 172.001882 70.927059 175.585882 160.466823l0.120471 6.445177h-52.705883c0-62.704941-54.723765-114.206118-123.00047-114.206118-66.108235 0-119.536941 48.338824-122.819765 108.363294l-0.150588 5.842824h-52.705883c0-92.551529 78.998588-166.912 175.676236-166.912z" fill="#568af2" /><path d="M501.970824 244.705882c180.525176 0 324.999529 169.984 324.999529 377.73553a26.352941 26.352941 0 0 1-52.705882 0c0-180.404706-122.940235-325.029647-272.293647-325.029647-149.383529 0-272.323765 144.655059-272.323765 325.029647a26.352941 26.352941 0 0 1-52.705883 0c0-207.751529 144.474353-377.735529 325.029648-377.73553z" fill="#568af2" /><path d="M800.617412 596.088471a79.058824 79.058824 0 1 0 0 158.117647 79.058824 79.058824 0 0 0 0-158.117647z m0 52.705882a26.352941 26.352941 0 1 1 0 52.705882 26.352941 26.352941 0 0 1 0-52.705882zM501.970824 596.088471a79.058824 79.058824 0 1 0 0 158.117647 79.058824 79.058824 0 0 0 0-158.117647z m0 52.705882a26.352941 26.352941 0 1 1 0 52.705882 26.352941 26.352941 0 0 1 0-52.705882zM203.294118 596.088471a79.058824 79.058824 0 1 0 0 158.117647 79.058824 79.058824 0 0 0 0-158.117647z m0 52.705882a26.352941 26.352941 0 1 1 0 52.705882 26.352941 26.352941 0 0 1 0-52.705882z" fill="#568af2" /></svg>