<svg class="icon" style="width: 1em;height: 1em;vertical-align: middle;fill: currentColor;overflow: hidden;" viewBox="0 0 1024 1024" version="1.1" xmlns="http://www.w3.org/2000/svg" width="32" height="32"><path d="M662.768941 670.298353a26.352941 26.352941 0 0 1 34.575059-2.349177l2.710588 2.349177 158.117647 158.117647a26.352941 26.352941 0 0 1-34.575059 39.634824l-2.710588-2.349177-158.117647-158.117647a26.352941 26.352941 0 0 1 0-37.285647zM346.533647 670.298353a26.352941 26.352941 0 0 1 39.634824 34.575059l-2.349177 2.710588-158.117647 158.117647a26.352941 26.352941 0 0 1-39.634823-34.575059l2.349176-2.710588 158.117647-158.117647zM662.768941 383.819294a26.352941 26.352941 0 0 0 34.575059 2.349177l2.710588-2.349177 158.117647-158.117647a26.352941 26.352941 0 0 0-34.575059-39.634823l-2.710588 2.349176-158.117647 158.117647a26.352941 26.352941 0 0 0 0 37.285647zM346.533647 383.819294a26.352941 26.352941 0 0 0 39.634824-34.575059l-2.349177-2.710588-158.117647-158.117647a26.352941 26.352941 0 0 0-39.634823 34.575059l2.349176 2.710588 158.117647 158.117647zM523.294118 416.617412a114.206118 114.206118 0 1 0 0 228.412235 114.206118 114.206118 0 0 0 0-228.412235z m0 52.705882a61.500235 61.500235 0 1 1 0 123.000471 61.500235 61.500235 0 0 1 0-123.000471z" fill="#568af2" /></svg>