<svg class="icon" style="width: 1em;height: 1em;vertical-align: middle;fill: currentColor;overflow: hidden;" viewBox="0 0 1024 1024" version="1.1" xmlns="http://www.w3.org/2000/svg" width="32" height="32"><path d="M637.500235 154.352941c82.582588 0 145.92 61.138824 149.202824 142.667294l0.12047 6.656v333.824a26.352941 26.352941 0 0 1-52.495058 3.312941l-0.210824-3.312941V303.676235c0-55.717647-40.899765-96.617412-96.617412-96.617411-53.820235 0-93.786353 38.128941-96.496941 90.925176l-0.150588 5.722353v70.264471a26.352941 26.352941 0 0 1-52.495059 3.312941l-0.210823-3.312941v-70.294589c0-84.811294 64.512-149.323294 149.353411-149.323294z" fill="#568af2" /><path d="M268.559059 154.352941c13.432471 0 24.515765 10.059294 26.142117 23.04l0.210824 3.312941v509.500236c0 55.717647 40.899765 96.617412 96.617412 96.617411 53.790118 0 93.786353-38.128941 96.496941-90.925176l0.120471-5.722353v-316.235294a26.352941 26.352941 0 0 1 52.525176-3.312941l0.180706 3.312941v316.235294c0 84.841412-64.481882 149.353412-149.323294 149.353412-82.582588 0-145.92-61.138824-149.202824-142.667294l-0.12047-6.656V180.705882c0-14.546824 11.776-26.352941 26.352941-26.352941z" fill="#568af2" /><path d="M249.916235 162.063059a26.352941 26.352941 0 0 1 34.575059-2.349177l2.710588 2.349177 87.823059 87.853176a26.352941 26.352941 0 0 1-34.575059 39.634824l-2.710588-2.379294-69.210353-69.210353-69.180235 69.210353a26.352941 26.352941 0 0 1-34.575059 2.379294l-2.710588-2.379294a26.352941 26.352941 0 0 1-2.349177-34.544941l2.349177-2.710589 87.853176-87.853176zM760.470588 611.147294a114.206118 114.206118 0 1 0 0 228.382118 114.206118 114.206118 0 0 0 0-228.382118z m0 52.705882a61.500235 61.500235 0 1 1 0 122.970353 61.500235 61.500235 0 0 1 0-122.970353z" fill="#568af2" /></svg>