<svg class="icon" style="width: 1em;height: 1em;vertical-align: middle;fill: currentColor;overflow: hidden;" viewBox="0 0 1024 1024" version="1.1" xmlns="http://www.w3.org/2000/svg" width="32" height="32"><path d="M0 0h1024v1024H0z" fill="#568af2" fill-opacity="0" /><path d="M501.940706 124.235294a90.232471 90.232471 0 1 0 0 180.464941 90.232471 90.232471 0 0 0 0-180.464941z m0 52.705882a37.526588 37.526588 0 1 1 0 75.053177 37.526588 37.526588 0 0 1 0-75.053177zM501.940706 699.211294a90.232471 90.232471 0 1 0 0 180.464941 90.232471 90.232471 0 0 0 0-180.464941z m0 52.705882a37.526588 37.526588 0 1 1 0 75.053177 37.526588 37.526588 0 0 1 0-75.053177zM214.467765 411.708235a90.232471 90.232471 0 1 0 0 180.495059 90.232471 90.232471 0 0 0 0-180.495059z m0 52.705883a37.526588 37.526588 0 1 1 0 75.083294 37.526588 37.526588 0 0 1 0-75.083294zM789.443765 411.708235a90.232471 90.232471 0 1 0 0 180.495059 90.232471 90.232471 0 0 0 0-180.495059z m0 52.705883a37.526588 37.526588 0 1 1 0 75.083294 37.526588 37.526588 0 0 1 0-75.083294zM633.133176 244.736a26.352941 26.352941 0 0 1 36.352-8.192 315.331765 315.331765 0 0 1 97.882353 97.882353 26.352941 26.352941 0 1 1-44.513882 28.190118 262.625882 262.625882 0 0 0-81.528471-81.528471 26.352941 26.352941 0 0 1-8.192-36.352zM722.823529 641.325176a26.352941 26.352941 0 0 1 44.574118 28.16 315.331765 315.331765 0 0 1-97.882353 97.882353 26.352941 26.352941 0 0 1-28.190118-44.513882 262.625882 262.625882 0 0 0 81.528471-81.528471zM244.736 633.133176a26.352941 26.352941 0 0 1 36.352 8.192A262.625882 262.625882 0 0 0 362.616471 722.823529a26.352941 26.352941 0 1 1-28.190118 44.544 315.331765 315.331765 0 0 1-97.882353-97.882353 26.352941 26.352941 0 0 1 8.192-36.382117zM334.426353 236.544a26.352941 26.352941 0 0 1 28.190118 44.544 262.625882 262.625882 0 0 0-81.528471 81.528471 26.352941 26.352941 0 1 1-44.574118-28.190118 315.331765 315.331765 0 0 1 97.912471-97.882353z" fill="#568af2" /></svg>