<svg class="icon" style="width: 1em;height: 1em;vertical-align: middle;fill: currentColor;overflow: hidden;" viewBox="0 0 1024 1024" version="1.1" xmlns="http://www.w3.org/2000/svg" width="32" height="32"><path d="M0 0h1024v1024H0z" fill="#568af2" fill-opacity="0" /><path d="M712.794353 194.499765a26.352941 26.352941 0 0 1 3.312941 52.525176l-3.312941 0.180706H308.705882C242.477176 247.205647 176.941176 290.936471 176.941176 361.411765c0 68.367059 61.620706 111.525647 125.741177 114.085647l6.023529 0.12047h386.499765c91.888941 0 184.470588 61.711059 184.470588 166.881883 0 102.791529-88.395294 164.080941-178.206117 166.821647l-6.264471 0.090353H291.147294a26.352941 26.352941 0 0 1-3.312941-52.495059l3.312941-0.210824h404.058353c66.258824 0 131.764706-43.670588 131.764706-114.206117 0-68.367059-61.620706-111.525647-125.741177-114.05553l-6.023529-0.12047H308.705882c-91.888941 0-184.470588-61.741176-184.470588-166.912 0-102.791529 88.425412-164.080941 178.206118-166.79153l6.26447-0.12047h404.088471z" fill="#568af2" /><path d="M783.058824 124.235294a96.617412 96.617412 0 1 0 0 193.264941 96.617412 96.617412 0 0 0 0-193.264941z m0 52.705882a43.911529 43.911529 0 1 1 0 87.853177 43.911529 43.911529 0 0 1 0-87.853177zM220.852706 686.441412a96.617412 96.617412 0 1 0 0 193.234823 96.617412 96.617412 0 0 0 0-193.234823z m0 52.705882a43.911529 43.911529 0 1 1 0 87.823059 43.911529 43.911529 0 0 1 0-87.823059z" fill="#568af2" /></svg>