<svg class="icon" style="width: 1em;height: 1em;vertical-align: middle;fill: currentColor;overflow: hidden;" viewBox="0 0 1024 1024" version="1.1" xmlns="http://www.w3.org/2000/svg" width="32" height="32"><path d="M0 0h1024v1024H0z" fill="#568af2" fill-opacity="0" /><path d="M486.912 686.441412a96.617412 96.617412 0 1 0 0 193.234823 96.617412 96.617412 0 0 0 0-193.234823z m0 52.705882a43.911529 43.911529 0 1 1 0 87.823059 43.911529 43.911529 0 0 1 0-87.823059zM557.176471 124.235294a96.617412 96.617412 0 1 0 0 193.264941 96.617412 96.617412 0 0 0 0-193.264941z m0 52.705882a43.911529 43.911529 0 1 1 0 87.853177 43.911529 43.911529 0 0 1 0-87.853177zM732.852706 405.323294a96.617412 96.617412 0 1 0 0 193.264941 96.617412 96.617412 0 0 0 0-193.264941z m0 52.705882a43.911529 43.911529 0 1 1 0 87.853177 43.911529 43.911529 0 0 1 0-87.853177zM311.205647 405.323294a96.617412 96.617412 0 1 0 0 193.264941 96.617412 96.617412 0 0 0 0-193.264941z m0 52.705882a43.911529 43.911529 0 1 1 0 87.853177 43.911529 43.911529 0 0 1 0-87.853177z" fill="#568af2" /><path d="M662.588235 475.617882a26.352941 26.352941 0 0 1 3.312941 52.495059l-3.312941 0.210824h-281.088a26.352941 26.352941 0 0 1-3.312941-52.525177l3.312941-0.180706H662.588235zM483.900235 257.114353a26.352941 26.352941 0 0 1 43.188706 29.967059l-2.048 2.951529-140.528941 175.676235a26.352941 26.352941 0 0 1-43.218824-29.967058l2.048-2.95153 140.559059-175.676235zM659.576471 538.202353l41.140705 32.918588-140.559058 175.706353-41.140706-32.948706z" fill="#568af2" /></svg>