<svg class="icon" style="width: 1em;height: 1em;vertical-align: middle;fill: currentColor;overflow: hidden;" viewBox="0 0 1024 1024" version="1.1" xmlns="http://www.w3.org/2000/svg" width="32" height="32"><path d="M488.146824 491.911529a26.352941 26.352941 0 0 1 3.312941 52.525177l-3.312941 0.180706H207.058824a26.352941 26.352941 0 0 1-3.312942-52.495059l3.312942-0.210824h281.088z" fill="#568af2" /><path d="M839.529412 210.823529a26.352941 26.352941 0 0 1 3.312941 52.495059l-3.312941 0.210824h-210.82353a114.206118 114.206118 0 0 0-114.055529 108.333176l-0.150588 5.872941v281.088a114.206118 114.206118 0 0 0 108.333176 114.05553l5.872941 0.150588h210.82353a26.352941 26.352941 0 0 1 3.312941 52.495059l-3.312941 0.210823h-210.82353a166.912 166.912 0 0 1-166.761411-160.346353l-0.150589-6.565647v-281.088a166.912 166.912 0 0 1 160.346353-166.791529L628.705882 210.823529h210.82353z" fill="#568af2" /></svg>