<svg class="icon" style="width: 1em;height: 1em;vertical-align: middle;fill: currentColor;overflow: hidden;" viewBox="0 0 1024 1024" version="1.1" xmlns="http://www.w3.org/2000/svg" width="32" height="32"><path d="M501.970824 320c13.432471 0 24.515765 10.059294 26.142117 23.04l0.210824 3.312941V662.588235a26.352941 26.352941 0 0 1-52.525177 3.312941l-0.180706-3.312941V346.352941c0-14.546824 11.776-26.352941 26.352942-26.352941z" fill="#568af2" /><path d="M747.911529 214.588235H256A26.352941 26.352941 0 0 0 229.647059 240.941176v105.411765c0 14.546824 11.806118 26.352941 26.352941 26.352941h491.911529a26.352941 26.352941 0 0 0 26.352942-26.352941V240.941176a26.352941 26.352941 0 0 0-26.352942-26.352941z m-26.352941 52.705883v52.705882H282.352941v-52.705882h439.205647zM677.195294 495.676235c6.565647 0 12.860235 2.469647 17.679059 6.836706l2.288941 2.319059 105.86353 123.000471a26.352941 26.352941 0 0 1-37.436236 36.924235l-2.499764-2.529882-98.002824-113.844706H338.371765l-97.490824 113.78447a26.352941 26.352941 0 0 1-34.304 4.99953l-2.861176-2.138353a26.352941 26.352941 0 0 1-4.99953-34.273883l2.138353-2.891294 105.411765-122.970353a26.352941 26.352941 0 0 1 16.745412-9.005176l3.252706-0.210824h350.930823z" fill="#568af2" /><path d="M291.147294 636.235294H150.588235a26.352941 26.352941 0 0 0-26.352941 26.352941v140.559059c0 14.546824 11.806118 26.352941 26.352941 26.352941h140.559059a26.352941 26.352941 0 0 0 26.352941-26.352941V662.588235a26.352941 26.352941 0 0 0-26.352941-26.352941z m-26.383059 52.705882v87.823059H176.941176v-87.823059h87.823059zM572.235294 636.235294h-140.559059a26.352941 26.352941 0 0 0-26.352941 26.352941v140.559059c0 14.546824 11.806118 26.352941 26.352941 26.352941H572.235294a26.352941 26.352941 0 0 0 26.352941-26.352941V662.588235a26.352941 26.352941 0 0 0-26.352941-26.352941z m-26.352941 52.705882v87.823059h-87.853177v-87.823059h87.853177zM853.323294 636.235294h-140.528941a26.352941 26.352941 0 0 0-26.352941 26.352941v140.559059c0 14.546824 11.776 26.352941 26.352941 26.352941h140.528941a26.352941 26.352941 0 0 0 26.352941-26.352941V662.588235a26.352941 26.352941 0 0 0-26.352941-26.352941z m-26.352941 52.705882v87.823059h-87.853177v-87.823059h87.853177z" fill="#568af2" /></svg>