<svg class="icon" style="width: 1em;height: 1em;vertical-align: middle;fill: currentColor;overflow: hidden;" viewBox="0 0 1024 1024" version="1.1" xmlns="http://www.w3.org/2000/svg" width="32" height="32"><path d="M0 0h1024v1024H0z" fill="#568af2" fill-opacity="0" /><path d="M409.088 488.146824a26.352941 26.352941 0 0 1 3.312941 52.525176l-3.312941 0.180706h-105.411765c-55.717647 0-96.617412 40.929882-96.617411 96.647529 0 53.790118 38.128941 93.786353 90.925176 96.466824l5.722353 0.150588H813.176471a26.352941 26.352941 0 0 1 3.312941 52.495059l-3.312941 0.210823H303.676235c-84.811294 0-149.323294-64.512-149.323294-149.323294 0-82.612706 61.138824-145.92 142.667294-149.202823l6.656-0.150588h105.411765z" fill="#568af2" /><path d="M690.206118 242.206118c84.811294 0 149.323294 64.481882 149.323294 149.323294 0 82.582588-61.138824 145.92-142.667294 149.202823l-6.656 0.120471h-281.118118a26.352941 26.352941 0 0 1-3.312941-52.495059l3.312941-0.210823h281.118118c55.717647 0 96.617412-40.899765 96.617411-96.617412 0-53.790118-38.128941-93.786353-90.925176-96.466824l-5.722353-0.150588h-316.235294a26.352941 26.352941 0 0 1-3.312941-52.495059l3.312941-0.210823h316.235294zM706.710588 654.004706a26.352941 26.352941 0 0 1 34.544941-2.379294l2.710589 2.379294 87.853176 87.823059c9.426824 9.456941 10.24 24.244706 2.349177 34.575059l-2.349177 2.710588-87.853176 87.823059a26.352941 26.352941 0 0 1-39.634824-34.544942l2.379294-2.710588 69.180236-69.210353-69.180236-69.210353a26.352941 26.352941 0 0 1-2.379294-34.575059l2.379294-2.710588z" fill="#568af2" /><path d="M286.117647 382.735059a114.206118 114.206118 0 1 0 0-228.382118 114.206118 114.206118 0 0 0 0 228.382118z m0-52.705883a61.500235 61.500235 0 1 1 0-122.970352 61.500235 61.500235 0 0 1 0 122.970352z" fill="#568af2" /></svg>