<svg class="icon" style="width: 1em;height: 1em;vertical-align: middle;fill: currentColor;overflow: hidden;" viewBox="0 0 1024 1024" version="1.1" xmlns="http://www.w3.org/2000/svg" width="32" height="32"><path d="M501.970824 385.264941c184.289882 0 342.588235 182.573176 342.588235 377.705412a26.352941 26.352941 0 0 1-52.705883 0c0-167.544471-136.523294-324.999529-289.882352-324.999529-153.389176 0-289.882353 157.455059-289.882353 324.999529a26.352941 26.352941 0 1 1-52.705883 0c0-195.132235 158.268235-377.705412 342.588236-377.705412zM431.676235 314.970353a26.352941 26.352941 0 0 1 3.312941 52.525176l-3.312941 0.180706H256a26.352941 26.352941 0 0 1-3.312941-52.495059l3.312941-0.210823h175.676235zM747.911529 314.970353a26.352941 26.352941 0 0 1 3.312942 52.525176l-3.312942 0.180706H572.235294a26.352941 26.352941 0 0 1-3.312941-52.495059l3.312941-0.210823h175.676235z" fill="#568af2" /><path d="M203.294118 262.264471a79.058824 79.058824 0 1 0 0 158.117647 79.058824 79.058824 0 0 0 0-158.117647z m0 52.705882a26.352941 26.352941 0 1 1 0 52.705882 26.352941 26.352941 0 0 1 0-52.705882zM800.617412 262.264471a79.058824 79.058824 0 1 0 0 158.117647 79.058824 79.058824 0 0 0 0-158.117647z m0 52.705882a26.352941 26.352941 0 1 1 0 52.705882 26.352941 26.352941 0 0 1 0-52.705882zM501.970824 244.705882a96.617412 96.617412 0 1 0 0 193.264942 96.617412 96.617412 0 0 0 0-193.264942z m0 52.705883a43.911529 43.911529 0 1 1 0 87.853176 43.911529 43.911529 0 0 1 0-87.853176z" fill="#568af2" /></svg>