<svg class="icon" style="width: 1em;height: 1em;vertical-align: middle;fill: currentColor;overflow: hidden;" viewBox="0 0 1024 1024" version="1.1" xmlns="http://www.w3.org/2000/svg" width="32" height="32"><path d="M281.088 430.441412a96.617412 96.617412 0 1 0 0 193.234823 96.617412 96.617412 0 0 0 0-193.234823z m0 52.705882a43.911529 43.911529 0 1 1 0 87.823059 43.911529 43.911529 0 0 1 0-87.823059zM773.029647 184.470588a96.617412 96.617412 0 1 0 0 193.264941 96.617412 96.617412 0 0 0 0-193.264941z m0 52.705883a43.911529 43.911529 0 1 1 0 87.853176 43.911529 43.911529 0 0 1 0-87.853176zM773.029647 430.441412a96.617412 96.617412 0 1 0 0 193.234823 96.617412 96.617412 0 0 0 0-193.234823z m0 52.705882a43.911529 43.911529 0 1 1 0 87.823059 43.911529 43.911529 0 0 1 0-87.823059zM773.029647 676.382118a96.617412 96.617412 0 1 0 0 193.264941 96.617412 96.617412 0 0 0 0-193.264941z m0 52.705882a43.911529 43.911529 0 1 1 0 87.853176 43.911529 43.911529 0 0 1 0-87.853176z" fill="#568af2" /><path d="M702.735059 254.735059a26.352941 26.352941 0 0 1 3.312941 52.525176l-3.312941 0.180706h-184.470588v439.205647h184.470588c13.432471 0 24.545882 10.059294 26.172235 23.070118l0.180706 3.312941a26.352941 26.352941 0 0 1-23.04 26.142118l-3.312941 0.210823h-210.82353a26.352941 26.352941 0 0 1-26.142117-23.070117l-0.210824-3.312942V281.118118c0-13.432471 10.059294-24.515765 23.070118-26.142118l3.312941-0.210824h210.823529z" fill="#568af2" /><path d="M702.735059 500.705882a26.352941 26.352941 0 0 1 3.312941 52.495059l-3.312941 0.210824H351.382588a26.352941 26.352941 0 0 1-3.312941-52.495059l3.312941-0.210824h351.352471z" fill="#568af2" /></svg>