<svg class="icon" style="width: 1em;height: 1em;vertical-align: middle;fill: currentColor;overflow: hidden;" viewBox="0 0 1024 1024" version="1.1" xmlns="http://www.w3.org/2000/svg" width="32" height="32"><path d="M715.294118 124.235294c13.432471 0 24.515765 10.059294 26.142117 23.04l0.210824 3.312941v509.500236a219.617882 219.617882 0 0 1-439.115294 7.228235l-0.090353-7.228235V326.264471a26.352941 26.352941 0 0 1 52.495059-3.312942l0.210823 3.312942v333.824a166.912 166.912 0 0 0 333.673412 6.535529l0.12047-6.535529V150.588235c0-14.546824 11.806118-26.352941 26.352942-26.352941z" fill="#568af2" /><path d="M696.651294 131.945412a26.352941 26.352941 0 0 1 34.575059-2.349177l2.710588 2.349177 87.823059 87.853176a26.352941 26.352941 0 0 1-34.544941 39.634824l-2.710588-2.379294-69.210353-69.210353-69.210353 69.210353a26.352941 26.352941 0 0 1-34.575059 2.379294l-2.710588-2.379294a26.352941 26.352941 0 0 1-2.349177-34.544942l2.379294-2.710588L696.621176 131.915294zM214.588235 238.441412a114.206118 114.206118 0 1 0 228.382118 0 114.206118 114.206118 0 0 0-228.382118 0z m52.705883 0a61.500235 61.500235 0 1 1 122.970353 0 61.500235 61.500235 0 0 1-122.970353 0z" fill="#568af2" /></svg>