<svg class="icon" style="width: 1em;height: 1em;vertical-align: middle;fill: currentColor;overflow: hidden;" viewBox="0 0 1024 1024" version="1.1" xmlns="http://www.w3.org/2000/svg" width="32" height="32"><path d="M498.206118 381.500235c184.289882 0 342.588235 182.573176 342.588235 377.705412a26.352941 26.352941 0 0 1-52.705882 0c0-167.544471-136.523294-324.999529-289.882353-324.999529-153.389176 0-289.882353 157.455059-289.882353 324.999529a26.352941 26.352941 0 1 1-52.705883 0c0-195.132235 158.268235-377.705412 342.588236-377.705412zM427.911529 311.205647a26.352941 26.352941 0 0 1 3.312942 52.525177l-3.312942 0.180705H252.235294a26.352941 26.352941 0 0 1-3.312941-52.495058l3.312941-0.210824h175.676235zM744.146824 311.205647a26.352941 26.352941 0 0 1 3.312941 52.525177l-3.312941 0.180705h-175.676236a26.352941 26.352941 0 0 1-3.312941-52.495058l3.312941-0.210824h175.676236z" fill="#568af2" /><path d="M498.206118 240.941176a96.617412 96.617412 0 1 0 0 193.264942 96.617412 96.617412 0 0 0 0-193.264942z m0 52.705883a43.911529 43.911529 0 1 1 0 87.853176 43.911529 43.911529 0 0 1 0-87.853176z" fill="#568af2" /><path d="M568.470588 240.941176h-140.559059a26.352941 26.352941 0 0 0-26.352941 26.352942v140.559058c0 14.546824 11.806118 26.352941 26.352941 26.352942h140.559059a26.352941 26.352941 0 0 0 26.352941-26.352942V267.294118A26.352941 26.352941 0 0 0 568.470588 240.941176zM542.117647 293.647059v87.823059h-87.853176V293.647059H542.117647zM849.558588 258.499765h-105.411764a26.352941 26.352941 0 0 0-26.352942 26.352941v105.411765c0 14.576941 11.806118 26.352941 26.352942 26.352941h105.411764a26.352941 26.352941 0 0 0 26.352941-26.352941v-105.411765a26.352941 26.352941 0 0 0-26.352941-26.352941z m-26.352941 52.705882v52.705882h-52.705882v-52.705882h52.705882zM252.235294 258.499765h-105.411765A26.352941 26.352941 0 0 0 120.470588 284.852706v105.411765c0 14.576941 11.806118 26.352941 26.352941 26.352941h105.411765a26.352941 26.352941 0 0 0 26.352941-26.352941v-105.411765a26.352941 26.352941 0 0 0-26.352941-26.352941z m-26.352941 52.705882v52.705882H173.176471v-52.705882H225.882353z" fill="#568af2" /></svg>