<svg class="icon" style="width: 1em;height: 1em;vertical-align: middle;fill: currentColor;overflow: hidden;" viewBox="0 0 1024 1024" version="1.1" xmlns="http://www.w3.org/2000/svg" width="32" height="32"><path d="M0 0h1024v1024H0z" fill="#568af2" fill-opacity="0" /><path d="M697.735529 124.235294a96.617412 96.617412 0 1 0 0 193.264941 96.617412 96.617412 0 0 0 0-193.264941z m0 52.705882a43.911529 43.911529 0 1 1 0 87.853177 43.911529 43.911529 0 0 1 0-87.853177zM311.205647 124.235294a96.617412 96.617412 0 1 0 0 193.264941 96.617412 96.617412 0 0 0 0-193.264941z m0 52.705882a43.911529 43.911529 0 1 1 0 87.853177 43.911529 43.911529 0 0 1 0-87.853177zM311.205647 686.441412a96.617412 96.617412 0 1 0 0 193.234823 96.617412 96.617412 0 0 0 0-193.234823z m0 52.705882a43.911529 43.911529 0 1 1 0 87.823059 43.911529 43.911529 0 0 1 0-87.823059z" fill="#568af2" /><path d="M697.735529 264.794353c13.432471 0 24.515765 10.029176 26.142118 23.04l0.210824 3.312941V361.411765c0 53.549176-26.383059 86.226824-98.243765 123.783529l-14.034824 7.107765-15.088941 7.258353-16.233412 7.439059-17.377882 7.68-18.552471 7.951058-49.302588 20.449883-17.950117 7.589647-16.655059 7.258353-15.450353 6.987294c-2.469647 1.144471-4.909176 2.258824-7.258353 3.403294l-13.673412 6.595765-12.559059 6.354823c-7.981176 4.186353-15.209412 8.222118-21.775059 12.197647l-9.33647 5.872941c-29.304471 19.425882-41.833412 37.044706-42.947765 57.615059l-0.090353 3.132236v52.705882c0 33.822118-48.850824 35.087059-52.495059 3.734588l-0.210823-3.734588v-421.647059a26.352941 26.352941 0 0 1 52.525176-3.312941l0.180706 3.312941v272.685177l4.728471-3.312942c17.648941-12.257882 39.905882-24.395294 67.493647-37.436235l19.184941-8.854588c3.343059-1.505882 6.746353-3.011765 10.24-4.517647l21.624471-9.336471 23.311058-9.758117 20.118589-8.282353 18.55247-7.770353 25.47953-11.023059 15.450353-6.957177 7.258353-3.403294 13.673411-6.595764 12.559059-6.354824c3.975529-2.108235 7.800471-4.156235 11.444706-6.204235l10.330353-6.02353c36.020706-21.775059 51.049412-40.839529 52.284235-63.488l0.090353-3.102117V291.147294c0-14.576941 11.776-26.352941 26.352941-26.352941z" fill="#568af2" /></svg>