<svg class="icon" style="width: 1em;height: 1em;vertical-align: middle;fill: currentColor;overflow: hidden;" viewBox="0 0 1024 1024" version="1.1" xmlns="http://www.w3.org/2000/svg" width="32" height="32"><path d="M501.970824 224.617412c157.936941 0 307.440941 263.318588 307.440941 465.588706a26.352941 26.352941 0 0 1-52.705883 0c0-177.031529-133.903059-412.882824-254.735058-412.882824-120.832 0-254.765176 235.851294-254.765177 412.882824a26.352941 26.352941 0 0 1-52.705882 0c0-202.270118 149.504-465.588706 307.471059-465.588706z" fill="#568af2" /><path d="M291.147294 663.853176H150.588235a26.352941 26.352941 0 0 0-26.352941 26.352942v140.528941c0 14.576941 11.806118 26.352941 26.352941 26.352941h140.559059a26.352941 26.352941 0 0 0 26.352941-26.352941v-140.528941a26.352941 26.352941 0 0 0-26.352941-26.352942zM264.734118 716.498824v87.853176H176.941176v-87.853176h87.823059zM291.147294 154.352941H150.588235A26.352941 26.352941 0 0 0 124.235294 180.705882v140.559059c0 14.546824 11.806118 26.352941 26.352941 26.352941h140.559059a26.352941 26.352941 0 0 0 26.352941-26.352941V180.705882a26.352941 26.352941 0 0 0-26.352941-26.352941z m-26.383059 52.705883v87.823058H176.941176V207.058824h87.823059zM853.323294 663.853176h-140.528941a26.352941 26.352941 0 0 0-26.352941 26.352942v140.528941c0 14.576941 11.776 26.352941 26.352941 26.352941h140.528941a26.352941 26.352941 0 0 0 26.352941-26.352941v-140.528941a26.352941 26.352941 0 0 0-26.352941-26.352942z m-26.352941 52.675765v87.853177h-87.853177v-87.853177h87.853177zM853.323294 154.352941h-140.528941a26.352941 26.352941 0 0 0-26.352941 26.352941v140.559059c0 14.546824 11.776 26.352941 26.352941 26.352941h140.528941a26.352941 26.352941 0 0 0 26.352941-26.352941V180.705882a26.352941 26.352941 0 0 0-26.352941-26.352941z m-26.352941 52.705883v87.823058h-87.853177V207.058824h87.853177z" fill="#568af2" /><path d="M712.794353 224.617412a26.352941 26.352941 0 0 1 3.312941 52.525176l-3.312941 0.180706h-421.647059a26.352941 26.352941 0 0 1-3.312941-52.495059l3.312941-0.210823h421.647059z" fill="#568af2" /></svg>