<svg class="icon" style="width: 1em;height: 1em;vertical-align: middle;fill: currentColor;overflow: hidden;" viewBox="0 0 1024 1024" version="1.1" xmlns="http://www.w3.org/2000/svg" width="32" height="32"><path d="M326.264471 495.676235a26.352941 26.352941 0 0 1 3.312941 52.525177l-3.312941 0.180706H150.588235a26.352941 26.352941 0 0 1-3.312941-52.495059l3.312941-0.210824h175.676236z" fill="#568af2" /><path d="M849.648941 214.859294a26.352941 26.352941 0 1 1 7.378824 52.163765c-64.240941 9.095529-152.696471 54.332235-235.52 130.68047l-9.547294 8.944942c-86.437647 82.612706-202.842353 136.222118-283.919059 141.673411a26.352941 26.352941 0 0 1-3.553883-52.585411c65.987765-4.457412 165.888-49.483294 242.597647-119.326118l8.432942-7.830588c93.153882-89.088 195.915294-142.697412 274.130823-153.720471z" fill="#568af2" /><path d="M326.656 495.676235l3.312941 0.271059c75.414588 10.661647 173.658353 60.867765 264.101647 144.293647l9.999059 9.396706c77.703529 74.300235 182.603294 122.578824 251.030588 127.216941a26.352941 26.352941 0 0 1-3.553882 52.585412c-78.245647-5.300706-189.470118-55.416471-274.853647-133.240471l-9.035294-8.432941c-85.534118-81.769412-178.356706-130.198588-245.067294-139.625412a26.352941 26.352941 0 0 1 4.065882-52.464941z" fill="#568af2" /></svg>