<svg class="icon" style="width: 1em;height: 1em;vertical-align: middle;fill: currentColor;overflow: hidden;" viewBox="0 0 1024 1024" version="1.1" xmlns="http://www.w3.org/2000/svg" width="32" height="32"><path d="M0 0h1024v1024H0z" fill="#568af2" fill-opacity="0" /><path d="M268.559059 330.029176c13.432471 0 24.515765 10.059294 26.142117 23.070118l0.210824 3.312941v333.793883c0 55.717647 40.899765 96.617412 96.617412 96.617411 53.790118 0 93.786353-38.128941 96.496941-90.925176l0.120471-5.722353v-70.264471a26.352941 26.352941 0 0 1 52.525176-3.312941l0.180706 3.312941v70.294589c0 84.811294-64.481882 149.323294-149.323294 149.323294-82.582588 0-145.92-61.138824-149.202824-142.667294l-0.12047-6.656V356.382118c0-14.546824 11.776-26.352941 26.352941-26.352942z" fill="#568af2" /><path d="M637.500235 154.352941c82.582588 0 145.92 61.138824 149.202824 142.667294l0.12047 6.656V813.176471a26.352941 26.352941 0 0 1-52.495058 3.312941l-0.210824-3.312941V303.676235c0-55.717647-40.899765-96.617412-96.617412-96.617411-53.820235 0-93.786353 38.128941-96.496941 90.925176l-0.150588 5.722353v316.235294a26.352941 26.352941 0 0 1-52.495059 3.312941l-0.210823-3.312941v-316.235294c0-84.841412 64.512-149.353412 149.353411-149.353412z" fill="#568af2" /><path d="M829.680941 706.710588a26.352941 26.352941 0 0 1 39.634824 34.575059l-2.379294 2.710588-87.823059 87.823059a26.352941 26.352941 0 0 1-34.575059 2.349177l-2.710588-2.349177-87.823059-87.853176a26.352941 26.352941 0 0 1 34.544941-39.634824l2.710588 2.379294 69.210353 69.180236 69.210353-69.180236zM268.559059 382.735059a114.206118 114.206118 0 1 0 0-228.382118 114.206118 114.206118 0 0 0 0 228.382118z m0-52.705883a61.500235 61.500235 0 1 1 0-122.970352 61.500235 61.500235 0 0 1 0 122.970352z" fill="#568af2" /></svg>