<svg class="icon" style="width: 1em;height: 1em;vertical-align: middle;fill: currentColor;overflow: hidden;" viewBox="0 0 1024 1024" version="1.1" xmlns="http://www.w3.org/2000/svg" width="32" height="32"><path d="M0 0h1024v1024H0z" fill="#568af2" fill-opacity="0" /><path d="M501.970824 214.588235c109.146353 0 180.555294 51.380706 211.365647 129.566118l1.927529 5.12 0.301176 0.060235c18.793412 3.945412 41.261176 11.384471 64.301177 23.762824l7.68 4.306823c57.072941 33.28 92.16 86.859294 92.16 162.213647 0 105.953882-78.185412 164.201412-177.513412 166.79153l-6.987294 0.090353H466.823529a26.352941 26.352941 0 0 1-3.312941-52.495059l3.312941-0.210824h228.382118c76.589176 0 131.764706-39.393882 131.764706-114.176 0-55.326118-24.214588-92.340706-65.957647-116.705882a196.487529 196.487529 0 0 0-56.832-21.865412l-7.017412-1.415529-4.848941-0.722824a26.352941 26.352941 0 0 1-22.437647-18.974117c-19.486118-68.186353-73.607529-112.64-167.905882-112.64-100.502588 0-141.161412 45.387294-167.936 138.992941a26.352941 26.352941 0 0 1-25.328942 19.124706c-62.825412 0-131.764706 43.068235-131.764706 122.970353 0 70.083765 57.584941 105.411765 131.764706 105.411764a26.352941 26.352941 0 0 1 0 52.705883c-99.538824 0-184.470588-52.103529-184.470588-158.117647 0-105.050353 79.510588-164.291765 160.286118-174.200471l4.367059-0.481882 1.65647-4.939294c32.768-96.677647 88.425412-151.401412 202.511059-154.081883l8.914824-0.090353z" fill="#568af2" /><path d="M536.033882 573.680941a26.352941 26.352941 0 0 1 39.634824 34.575059l-2.379294 2.710588-69.210353 69.180236 69.210353 69.210352c9.456941 9.456941 10.24 24.244706 2.379294 34.575059l-2.379294 2.710589a26.352941 26.352941 0 0 1-34.544941 2.349176l-2.710589-2.349176-87.853176-87.853177a26.352941 26.352941 0 0 1-2.349177-34.575059l2.349177-2.710588 87.853176-87.823059z" fill="#568af2" /></svg>