<svg class="icon" style="width: 1em;height: 1em;vertical-align: middle;fill: currentColor;overflow: hidden;" viewBox="0 0 1024 1024" version="1.1" xmlns="http://www.w3.org/2000/svg" width="32" height="32"><path d="M0 0h1024v1024H0z" fill="#568af2" fill-opacity="0" /><path d="M720.323765 441.464471a26.352941 26.352941 0 0 1 3.312941 52.495058l-3.312941 0.210824h-281.118118a114.206118 114.206118 0 0 0-114.025412 108.303059l-0.150588 5.903059v245.940705a26.352941 26.352941 0 0 1-52.525176 3.312942l-0.180706-3.312942V608.376471a166.912 166.912 0 0 1 160.346353-166.79153l6.535529-0.12047h281.118118zM606.117647 238.441412a114.206118 114.206118 0 1 0 228.382118 0 114.206118 114.206118 0 0 0-228.382118 0z m52.705882 0a61.500235 61.500235 0 1 1 122.970353 0 61.500235 61.500235 0 0 1-122.970353 0z" fill="#568af2" /><path d="M720.323765 300.905412c13.432471 0 24.515765 10.059294 26.142117 23.04l0.210824 3.312941v509.500235a26.352941 26.352941 0 0 1-52.525177 3.312941l-0.180705-3.312941V327.258353c0-14.546824 11.776-26.352941 26.352941-26.352941z" fill="#568af2" /><path d="M789.534118 747.821176a26.352941 26.352941 0 0 1 39.604706 34.605177l-2.349177 2.710588-87.853176 87.823059a26.352941 26.352941 0 0 1-34.544942 2.349176l-2.710588-2.349176-87.853176-87.853176a26.352941 26.352941 0 0 1 34.575059-39.634824l2.710588 2.379294 69.180235 69.180235 69.240471-69.180235zM367.887059 747.821176a26.352941 26.352941 0 0 1 39.604706 34.605177l-2.349177 2.710588-87.853176 87.823059a26.352941 26.352941 0 0 1-34.544941 2.349176l-2.710589-2.349176-87.853176-87.853176a26.352941 26.352941 0 0 1 34.575059-39.634824l2.710588 2.379294 69.180235 69.180235 69.240471-69.180235z" fill="#568af2" /></svg>