<svg class="icon" style="width: 1em;height: 1em;vertical-align: middle;fill: currentColor;overflow: hidden;" viewBox="0 0 1024 1024" version="1.1" xmlns="http://www.w3.org/2000/svg" width="32" height="32"><path d="M0 0h1024v1024H0z" fill="#568af2" fill-opacity="0" /><path d="M755.440941 184.470588a114.206118 114.206118 0 1 0 0 228.382118 114.206118 114.206118 0 0 0 0-228.382118z m0 52.705883a61.500235 61.500235 0 1 1 0 122.970353 61.500235 61.500235 0 0 1 0-122.970353zM298.676706 641.264941a114.206118 114.206118 0 1 0 0 228.382118 114.206118 114.206118 0 0 0 0-228.382118z m0 52.705883a61.500235 61.500235 0 1 1 0 122.970352 61.500235 61.500235 0 0 1 0-122.970352z" fill="#568af2" /><path d="M412.912941 184.470588a140.649412 140.649412 0 0 1 140.498824 134.174118l0.150588 6.445176v404.088471a87.762824 87.762824 0 0 0 175.375059 5.150118l0.150588-5.150118V386.499765a26.352941 26.352941 0 0 1 52.525176-3.312941l0.180706 3.312941v342.678588a140.468706 140.468706 0 0 1-280.786823 6.415059l-0.150588-6.415059V325.089882a87.943529 87.943529 0 0 0-175.676236-5.150117l-0.150588 5.150117v342.528a26.352941 26.352941 0 0 1-52.525176 3.312942l-0.180706-3.312942V325.089882a140.649412 140.649412 0 0 1 140.619294-140.619294z" fill="#568af2" /></svg>