<svg class="icon" style="width: 1em;height: 1em;vertical-align: middle;fill: currentColor;overflow: hidden;" viewBox="0 0 1024 1024" version="1.1" xmlns="http://www.w3.org/2000/svg" width="32" height="32"><path d="M0 0h1024v1024H0z" fill="#568af2" fill-opacity="0" /><path d="M250.970353 124.235294a96.617412 96.617412 0 1 0 0 193.264941 96.617412 96.617412 0 0 0 0-193.264941z m0 52.705882a43.911529 43.911529 0 1 1 0 87.853177 43.911529 43.911529 0 0 1 0-87.853177zM286.117647 581.029647a131.764706 131.764706 0 1 0 0 263.529412 131.764706 131.764706 0 0 0 0-263.529412z m0 52.705882a79.058824 79.058824 0 1 1 0 158.117647 79.058824 79.058824 0 0 1 0-158.117647zM778.029176 616.146824a131.764706 131.764706 0 1 0 0 263.529411 131.764706 131.764706 0 0 0 0-263.529411z m0 52.705882a79.058824 79.058824 0 1 1 0 158.117647 79.058824 79.058824 0 0 1 0-158.117647zM496.941176 264.794353a166.912 166.912 0 1 0 0 333.793882 166.912 166.912 0 0 0 0-333.793882z m0 52.705882a114.206118 114.206118 0 1 1 0 228.382118 114.206118 114.206118 0 0 1 0-228.382118zM707.764706 124.235294a96.617412 96.617412 0 1 0 0 193.264941 96.617412 96.617412 0 0 0 0-193.264941z m0 52.705882a43.911529 43.911529 0 1 1 0 87.853177 43.911529 43.911529 0 0 1 0-87.853177z" fill="#568af2" /><path d="M285.063529 254.945882a26.352941 26.352941 0 0 1 34.544942-2.379294l2.710588 2.379294 70.26447 70.264471a26.352941 26.352941 0 0 1-34.544941 39.634823l-2.710588-2.379294-70.264471-70.26447a26.352941 26.352941 0 0 1 0-37.25553zM618.857412 272.504471a26.352941 26.352941 0 0 1 39.634823 34.575058l-2.379294 2.710589-35.117176 35.117176a26.352941 26.352941 0 0 1-39.634824-34.575059l2.349177-2.710588 35.147294-35.117176zM585.878588 516.517647a26.352941 26.352941 0 0 1 34.635294 1.475765l2.409412 2.650353 105.411765 131.764706a26.352941 26.352941 0 0 1-38.731294 35.538823l-2.409412-2.620235-105.411765-131.764706a26.352941 26.352941 0 0 1 4.096-37.044706zM408.033882 536.033882a26.352941 26.352941 0 0 1 39.634824 34.575059l-2.379294 2.710588-70.264471 70.264471a26.352941 26.352941 0 0 1-39.634823-34.575059l2.379294-2.710588 70.26447-70.264471z" fill="#568af2" /></svg>