<svg class="icon" style="width: 1em;height: 1em;vertical-align: middle;fill: currentColor;overflow: hidden;" viewBox="0 0 1024 1024" version="1.1" xmlns="http://www.w3.org/2000/svg" width="32" height="32"><path d="M487.152941 193.505882l9.788235-0.060235a26.352941 26.352941 0 0 1 3.312942 52.495059l-3.915294 0.210823h-0.572236c-20.961882 0-34.273882 1.385412-48.820706 6.776471-22.497882 8.342588-38.008471 24.515765-45.68847 53.549176l-1.505883 6.415059c-17.769412 83.817412-84.720941 179.079529-134.866823 210.191059a26.352941 26.352941 0 0 1-27.798588-44.784941c36.623059-22.708706 92.190118-100.713412 109.327058-168.779294l1.776942-7.529412c10.842353-51.2 39.755294-83.425882 80.414117-98.484706 19.576471-7.228235 36.261647-9.577412 58.548706-9.999059z" fill="#568af2" /><path d="M228.592941 486.791529a26.352941 26.352941 0 0 1 36.291765-8.493176c48.489412 30.087529 112.670118 120.109176 132.909176 201.788235l1.957647 8.432941c7.017412 33.129412 23.130353 51.109647 47.224471 60.084706 12.8 4.758588 24.636235 6.445176 41.441882 6.776471l8.523294 0.060235a26.352941 26.352941 0 0 1 3.312942 52.495059l-4.276706 0.210824c-26.834824 0-45.296941-1.927529-67.403294-10.149648-38.520471-14.366118-66.499765-44.062118-78.546824-90.654117l-1.837176-7.920941c-14.757647-69.752471-73.155765-152.786824-111.104-176.338824a26.352941 26.352941 0 0 1-8.493177-36.291765z" fill="#568af2" /><path d="M250.970353 500.675765m-70.264471 0a70.264471 70.264471 0 1 0 140.528942 0 70.264471 70.264471 0 1 0-140.528942 0Z" fill="#568af2" /><path d="M496.941176 474.352941a26.352941 26.352941 0 0 1 3.312942 52.495059l-3.312942 0.180706H250.970353a26.352941 26.352941 0 0 1-3.312941-52.495059l3.312941-0.210823H496.941176zM848.323765 474.352941a26.352941 26.352941 0 0 1 3.312941 52.495059l-3.312941 0.210824h-210.82353a26.352941 26.352941 0 0 1-3.312941-52.495059l3.312941-0.210824h210.82353zM848.323765 193.264941a26.352941 26.352941 0 0 1 3.312941 52.495059l-3.312941 0.210824h-210.82353a26.352941 26.352941 0 0 1-3.312941-52.525177l3.312941-0.180706h210.82353zM848.323765 755.440941a26.352941 26.352941 0 0 1 3.312941 52.525177l-3.312941 0.180706h-210.82353a26.352941 26.352941 0 0 1-3.312941-52.495059l3.312941-0.210824h210.82353z" fill="#568af2" /></svg>