<svg class="icon" style="width: 1em;height: 1em;vertical-align: middle;fill: currentColor;overflow: hidden;" viewBox="0 0 1024 1024" version="1.1" xmlns="http://www.w3.org/2000/svg" width="32" height="32"><path d="M0 0h1024v1024H0z" fill="#568af2" fill-opacity="0" /><path d="M246.422588 124.235294a122.187294 122.187294 0 1 0 0 244.374588h95.834353a26.352941 26.352941 0 0 0 26.352941-26.352941V246.422588a122.187294 122.187294 0 0 0-122.187294-122.187294zM251.181176 177.091765a69.481412 69.481412 0 0 1 64.722824 69.330823l-0.030118 69.451294H246.422588a69.481412 69.481412 0 0 1 0-138.932706l4.758588 0.150589zM342.256941 635.331765H246.422588a122.187294 122.187294 0 1 0 122.187294 122.157176V661.684706a26.352941 26.352941 0 0 0-26.352941-26.352941z m-95.834353 52.705882l69.451294-0.030118v69.481412a69.481412 69.481412 0 1 1-69.451294-69.451294z" fill="#568af2" /><path d="M661.684706 315.904H342.256941a26.352941 26.352941 0 0 0-26.352941 26.352941V661.684706c0 14.546824 11.776 26.352941 26.352941 26.352941H661.684706a26.352941 26.352941 0 0 0 26.352941-26.352941V342.256941a26.352941 26.352941 0 0 0-26.352941-26.352941z m-26.383059 52.675765v266.721882h-266.721882v-266.721882h266.721882z" fill="#568af2" /><path d="M757.488941 124.235294a122.187294 122.187294 0 0 0-122.157176 122.187294v95.834353c0 14.546824 11.776 26.352941 26.352941 26.352941h95.804235a122.187294 122.187294 0 0 0 0-244.374588z m0 52.705882a69.481412 69.481412 0 0 1 69.481412 69.481412l-0.150588 4.758588a69.481412 69.481412 0 0 1-69.330824 64.722824l-69.481412-0.030118V246.422588a69.481412 69.481412 0 0 1 69.481412-69.481412zM757.488941 635.331765H661.684706a26.352941 26.352941 0 0 0-26.352941 26.352941v95.804235a122.187294 122.187294 0 1 0 122.157176-122.157176z m-69.451294 122.157176l-0.030118-69.481412h69.481412a69.481412 69.481412 0 1 1-69.451294 69.481412z" fill="#568af2" /></svg>