<svg class="icon" style="width: 1em;height: 1em;vertical-align: middle;fill: currentColor;overflow: hidden;" viewBox="0 0 1024 1024" version="1.1" xmlns="http://www.w3.org/2000/svg" width="32" height="32"><path d="M637.500235 154.352941c13.432471 0 24.515765 10.059294 26.142118 23.04l0.210823 3.312941-0.030117 358.189177 130.16847 133.089882 0.150589 0.180706 108.122353 110.561882a26.352941 26.352941 0 0 1 7.318588 15.028706l0.210823 3.403294v47.164236a26.352941 26.352941 0 0 1-23.04 26.142117l-3.312941 0.210824H180.705882a26.352941 26.352941 0 0 1-26.142117-23.070118l-0.210824-3.312941v-47.134118c0-5.722353 1.867294-11.294118 5.270588-15.841882l2.228706-2.590118 107.52-109.929411 0.180706-0.180706 130.740706-133.692236V180.705882c0-13.432471 10.089412-24.515765 23.070118-26.142117l3.312941-0.210824h210.823529z m-26.383059 52.705883h-158.117647V549.647059c0 5.722353-1.837176 11.294118-5.270588 15.841882l-2.228706 2.590118-93.665882 95.744H712.282353l-93.635765-95.774118a26.352941 26.352941 0 0 1-7.28847-14.998588l-0.210824-3.403294-0.030118-96.64753h-79.028705a26.352941 26.352941 0 0 1-3.312942-52.495058l3.312942-0.180706 79.028705-0.030118v-52.705882h-79.028705a26.352941 26.352941 0 0 1-3.312942-52.495059l3.312942-0.180706 79.028705-0.030118V207.058824z" fill="#568af2" /></svg>