<svg class="icon" style="width: 1em;height: 1em;vertical-align: middle;fill: currentColor;overflow: hidden;" viewBox="0 0 1024 1024" version="1.1" xmlns="http://www.w3.org/2000/svg" width="32" height="32"><path d="M505.705412 120.470588c13.432471 0 24.515765 10.059294 26.142117 23.04l0.210824 3.312941v47.585883a96.677647 96.677647 0 0 1 21.895529 176.700235l111.435294 297.140706c22.347294-9.396706 43.911529-20.781176 64.39153-34.032941a26.352941 26.352941 0 1 1 28.672 44.212706c-23.702588 15.36-48.64 28.431059-74.541177 39.183058l57.283765 152.816942a26.352941 26.352941 0 0 1-47.977412 21.534117l-1.355294-3.011764-57.735529-153.961412c-41.261176 11.836235-84.389647 17.950118-128.421647 17.950117-44.032 0-87.160471-6.113882-128.421647-17.950117l-57.73553 153.961412a26.352941 26.352941 0 0 1-50.29647-15.36l0.963764-3.162353 57.283765-152.816942a464.203294 464.203294 0 0 1-74.511059-39.152941 26.352941 26.352941 0 1 1 28.611765-44.272941c20.510118 13.251765 42.074353 24.666353 64.451765 34.032941l111.405176-297.110588a96.677647 96.677647 0 0 1 21.89553-176.730353V146.823529c0-14.546824 11.806118-26.352941 26.352941-26.352941z m0 272.052706l-109.808941 292.954353c35.328 9.728 72.192 14.757647 109.808941 14.757647 37.647059 0 74.511059-5.029647 109.839059-14.757647l-109.839059-292.954353z" fill="#568af2" /></svg>