<svg class="icon" style="width: 1em;height: 1em;vertical-align: middle;fill: currentColor;overflow: hidden;" viewBox="0 0 1024 1024" version="1.1" xmlns="http://www.w3.org/2000/svg" width="32" height="32"><path d="M501.970824 304.941176c232.146824 0 377.705412 171.730824 377.705411 412.852706a26.352941 26.352941 0 0 1-23.04 26.172236l-3.312941 0.180706H150.588235a26.352941 26.352941 0 0 1-26.352941-26.352942c0-241.121882 145.588706-412.852706 377.73553-412.852706z m0 52.705883c-188.325647 0-309.157647 128.602353-323.584 320.722823l-0.632471 9.818353-0.180706 3.252706h52.073412V647.529412a26.352941 26.352941 0 0 1 52.495059-3.312941l0.210823 3.312941v43.911529h70.264471V647.529412a26.352941 26.352941 0 0 1 52.525176-3.312941l0.180706 3.312941v43.911529h70.264471V647.529412a26.352941 26.352941 0 0 1 52.525176-3.312941l0.210824 3.312941-0.030118 43.911529h70.294588V647.529412a26.352941 26.352941 0 0 1 52.495059-3.312941l0.210824 3.312941v43.911529h70.26447V647.529412a26.352941 26.352941 0 0 1 52.525177-3.312941l0.180706 3.312941v43.911529h52.043294l-0.150589-3.252706c-10.601412-191.036235-124.747294-321.656471-305.423058-330.089411l-9.396706-0.331295-9.366588-0.12047z m0 70.26447c104.869647 0 202.029176 51.2 202.029176 131.764706a26.352941 26.352941 0 0 1-26.352941 26.352941H326.264471a26.352941 26.352941 0 0 1-26.352942-26.352941c0-80.594824 97.159529-131.764706 202.059295-131.764706z" fill="#568af2" /></svg>