<svg class="icon" style="width: 1em;height: 1em;vertical-align: middle;fill: currentColor;overflow: hidden;" viewBox="0 0 1024 1024" version="1.1" xmlns="http://www.w3.org/2000/svg" width="32" height="32"><path d="M723.727059 129.596235l2.68047 2.349177 175.676236 175.706353c9.426824 9.426824 10.24 24.214588 2.349176 34.544941l-2.349176 2.710588-527.058824 527.058824a26.352941 26.352941 0 0 1-34.575059 2.349176l-2.710588-2.349176-175.676235-175.676236a26.352941 26.352941 0 0 1-2.349177-34.575058l2.349177-2.710589L227.779765 593.317647l0.180706-0.150588L623.254588 197.842824l0.210824-0.240942 65.65647-65.65647a26.352941 26.352941 0 0 1 34.575059-2.349177z m-417.912471 460.197647l-37.285647 37.285647 51.651765 51.621647 2.710588 2.379295a26.352941 26.352941 0 0 0 36.924235-36.924236l-2.349176-2.710588-51.651765-51.651765z m87.853177-87.853176l-37.285647 37.285647 86.799058 86.768941 2.710589 2.379294a26.352941 26.352941 0 0 0 36.894117-36.924235l-2.349176-2.710588-86.768941-86.799059z m87.823059-87.823059l-37.25553 37.255529 51.651765 51.651765 2.710588 2.349177a26.352941 26.352941 0 0 0 36.894118-36.924236l-2.349177-2.710588-51.651764-51.621647z m87.853176-87.853176l-37.285647 37.285647 86.799059 86.768941 2.710588 2.349176a26.352941 26.352941 0 0 0 36.924235-36.924235l-2.379294-2.710588-86.768941-86.768941z m87.853176-87.853177l-37.285647 37.285647 51.651765 51.651765 2.710588 2.349176a26.352941 26.352941 0 0 0 36.924236-36.924235l-2.379294-2.710588-51.621648-51.651765z" fill="#568af2" /></svg>