<svg class="icon" style="width: 1em;height: 1em;vertical-align: middle;fill: currentColor;overflow: hidden;" viewBox="0 0 1024 1024" version="1.1" xmlns="http://www.w3.org/2000/svg" width="32" height="32"><path d="M607.382588 238.441412c13.432471 0 24.515765 10.029176 26.142118 23.04l0.210823 3.312941-0.030117 287.713882 238.260706 238.260706c3.312941 3.312941 5.632 7.378824 6.806588 11.806118l0.692706 3.373176 0.210823 3.46353v52.705882a26.352941 26.352941 0 0 1-23.04 26.142118l-3.312941 0.210823H150.588235a26.352941 26.352941 0 0 1-26.142117-23.04l-0.210824-3.312941v-52.705882c0-5.812706 1.927529-11.444706 5.421177-16.022589l2.288941-2.620235 61.319529-61.319529 0.180706-0.150588 176.730353-176.790589V264.794353c0-12.348235 8.463059-22.678588 19.877647-25.569882l3.192471-0.602353 3.312941-0.180706h210.823529z m-105.411764 298.646588a26.352941 26.352941 0 0 0-26.172236 23.070118l-0.180706 3.312941v17.558588l0.180706 3.312941a26.352941 26.352941 0 0 0 52.314353 0l0.210824-3.312941v-17.588706l-0.210824-3.312941a26.352941 26.352941 0 0 0-26.142117-23.04z m0-158.117647a26.352941 26.352941 0 0 0-26.172236 23.070118l-0.180706 3.312941v52.705882l0.180706 3.312941a26.352941 26.352941 0 0 0 52.314353 0l0.210824-3.312941v-52.705882l-0.210824-3.312941a26.352941 26.352941 0 0 0-26.142117-23.070118z m105.411764-245.940706a26.352941 26.352941 0 0 1 3.312941 52.495059l-3.312941 0.210823h-210.823529a26.352941 26.352941 0 0 1-3.312941-52.525176l3.312941-0.180706h210.823529z" fill="#568af2" /></svg>