<svg class="icon" style="width: 1em;height: 1em;vertical-align: middle;fill: currentColor;overflow: hidden;" viewBox="0 0 1024 1024" version="1.1" xmlns="http://www.w3.org/2000/svg" width="32" height="32"><path d="M708.698353 133.029647a26.352941 26.352941 0 0 1 3.312941 52.495059l-3.312941 0.210823h-78.607059l0.030118 161.520942 124.205176 257.445647 78.878118 163.478588a83.847529 83.847529 0 0 1-75.535059 120.289882H238.230588a83.847529 83.847529 0 0 1-75.474823-120.380235l79.088941-163.418353 124.596706-257.445647V185.735529H287.021176a26.352941 26.352941 0 0 1-3.312941-52.525176l3.312941-0.180706h421.647059z m-131.312941 52.705882h-158.238118v167.574589a26.352941 26.352941 0 0 1-1.204706 7.80047l-1.415529 3.674353-116.555294 240.730353c4.065882 2.048 8.342588 4.035765 12.8 5.963294 43.670588 18.763294 88.304941 23.913412 128.813176 8.041412a142.607059 142.607059 0 0 0 39.424-23.612235 195.011765 195.011765 0 0 1 54.723765-32.496941c45.688471-17.648941 93.153882-16.112941 139.324235-1.746824l-95.021176-196.909176a26.352941 26.352941 0 0 1-2.319059-7.529412l-0.301177-3.915294V185.735529z" fill="#568af2" /></svg>