<svg class="icon" style="width: 1em;height: 1em;vertical-align: middle;fill: currentColor;overflow: hidden;" viewBox="0 0 1024 1024" version="1.1" xmlns="http://www.w3.org/2000/svg" width="32" height="32"><path d="M256 879.676235h-2.56l-1.716706-0.060235-1.114353-0.030118a133.180235 133.180235 0 0 1-4.005647-0.240941l-1.445647-0.090353-0.481882-0.060235a132.216471 132.216471 0 0 1-4.668236-0.481882l-0.783058-0.090353-0.451765-0.060236a131.614118 131.614118 0 0 1-4.035765-0.602353l-1.807059-0.301176-0.903529-0.150588a130.921412 130.921412 0 0 1-10.24-2.319059l4.698353 1.174588a128.180706 128.180706 0 0 1-12.137412-3.403294l-1.14447-0.391529a130.770824 130.770824 0 0 1-4.728471-1.716706l-0.752941-0.301177-0.602353-0.210823a131.222588 131.222588 0 0 1-17.468235-8.523294l-1.204706-0.722824-1.686589-1.054118a131.824941 131.824941 0 0 1-1.596235-0.993882l-1.65647-1.054118-0.843295-0.602353a132.156235 132.156235 0 0 1-5.722353-4.035764l-0.602352-0.481883-1.234824-0.933647a132.397176 132.397176 0 0 1-4.035765-3.282823l-0.903529-0.752941-2.710588-2.409412a132.818824 132.818824 0 0 1-28.762353-37.526588l-0.301177-0.572236a130.861176 130.861176 0 0 1-14.004706-53.097411l-0.150588-6.384942V150.588235c0-13.432471 10.059294-24.515765 23.04-26.142117L150.588235 124.235294h210.82353c13.432471 0 24.515765 10.059294 26.142117 23.04l0.210824 3.312941v279.130353l297.321412-297.743059 1.234823-1.114353 0.90353-0.813176a26.322824 26.322824 0 0 1 0.301176-0.240941l-2.409412 2.16847a26.503529 26.503529 0 0 1 5.421177-4.21647l0.180706-0.090353 2.56-1.264941a26.202353 26.202353 0 0 1 10.059294-2.168471h0.391529a26.503529 26.503529 0 0 1 15.962353 5.360941l1.445647 1.264941 1.234824 1.084236 149.323294 149.353412c9.456941 9.426824 10.24 24.214588 2.379294 34.544941l-2.379294 2.710588-297.592471 297.592471h279.220706c13.432471 0 24.545882 10.059294 26.172235 23.070117l0.180706 3.312941v210.82353a26.352941 26.352941 0 0 1-23.04 26.142117l-3.312941 0.180706H299.911529l-0.933647-0.060235H258.529882z m570.970353-210.823529H521.396706l-158.147765 158.117647h463.721412v-158.117647zM703.969882 188.114824L387.764706 504.32v223.623529L815.796706 299.911529l-111.826824-111.796705z" fill="#568af2" /></svg>