<svg class="icon" style="width: 1em;height: 1em;vertical-align: middle;fill: currentColor;overflow: hidden;" viewBox="0 0 1024 1024" version="1.1" xmlns="http://www.w3.org/2000/svg" width="32" height="32"><path d="M448.150588 158.147765a29.364706 29.364706 0 0 1 6.415059-2.800941 25.389176 25.389176 0 0 1 3.794824-0.783059l0.722823-0.060236a26.262588 26.262588 0 0 1 2.138353-0.150588H773.12a26.352941 26.352941 0 0 1 25.238588 34.002824l-1.174588 3.072-265.577412 595.395764h316.747294a26.352941 26.352941 0 0 1 3.312942 52.495059l-3.312942 0.210824H496.941176l-3.132235-0.210824-2.800941 0.210824H180.043294a26.172235 26.172235 0 0 1-1.65647-0.090353l2.319058 0.090353a27.045647 27.045647 0 0 1-4.909176-0.451765 25.810824 25.810824 0 0 1-11.14353-4.969412l-0.481882-0.391529a22.317176 22.317176 0 0 1-3.70447-3.674353 22.528 22.528 0 0 1-2.499765-3.523765 28.009412 28.009412 0 0 1-1.355294-2.710588 25.991529 25.991529 0 0 1-1.144471-18.251294l1.144471-3.072 281.118117-632.470588a26.352941 26.352941 0 0 1 8.131765-10.270118l0.210824-0.180706 2.078117-1.415529zM408.877176 591.510588l-100.833882-0.030117-23.431529 52.705882h124.265411l3.312942-0.180706a26.352941 26.352941 0 0 0-3.312942-52.495059z m58.066824-130.228706H365.929412l-23.401412 52.705883h124.446118l3.312941-0.210824a26.352941 26.352941 0 0 0-3.312941-52.495059z m61.680941-138.270117H427.369412l-23.43153 52.705882h124.687059l3.312941-0.210823a26.352941 26.352941 0 0 0-3.312941-52.495059z" fill="#568af2" /></svg>