<svg class="icon" style="width: 1em;height: 1em;vertical-align: middle;fill: currentColor;overflow: hidden;" viewBox="0 0 1024 1024" version="1.1" xmlns="http://www.w3.org/2000/svg" width="32" height="32"><path d="M166.761412 129.776941l2.469647 2.168471 702.735059 702.765176c15.811765 15.811765 5.903059 42.285176-15.36 44.784941l-3.282824 0.180706H150.588235a26.352941 26.352941 0 0 1-26.142117-23.04l-0.210824-3.312941V150.588235c0-22.347294 25.750588-34.093176 42.526118-20.811294z m10.179764 84.389647v156.009412h26.352942a26.352941 26.352941 0 0 1 3.312941 52.525176l-3.312941 0.210824h-26.352942v52.705882h26.352942a26.352941 26.352941 0 0 1 3.312941 52.495059l-3.312941 0.210824h-26.352942v52.705882h26.352942a26.352941 26.352941 0 0 1 3.312941 52.495059l-3.312941 0.210823h-26.352942v52.705883h26.352942a26.352941 26.352941 0 0 1 3.312941 52.495059l-3.312941 0.210823h-26.352942v87.823059h87.823059v-26.352941a26.352941 26.352941 0 0 1 52.525177-3.312941l0.210823 3.312941-0.030117 26.322823h52.705882v-26.322823a26.352941 26.352941 0 0 1 52.525176-3.312941l0.210824 3.312941-0.030118 26.322823h52.705883v-26.322823a26.352941 26.352941 0 0 1 52.525176-3.312941l0.210824 3.312941-0.030118 26.322823h52.705882v-26.322823a26.352941 26.352941 0 0 1 52.525177-3.312941l0.210823 3.312941-0.030117 26.322823 155.979294 0.030118L176.941176 214.166588z m105.411765 270.21553c0-23.491765 28.370824-35.237647 44.995765-18.612706l210.823529 210.823529c16.564706 16.564706 4.818824 44.965647-18.642823 44.965647h-210.82353a26.352941 26.352941 0 0 1-26.352941-26.352941z" fill="#568af2" /></svg>