<svg class="icon" style="width: 1em;height: 1em;vertical-align: middle;fill: currentColor;overflow: hidden;" viewBox="0 0 1024 1024" version="1.1" xmlns="http://www.w3.org/2000/svg" width="32" height="32"><path d="M395.294118 150.588235c0-13.432471 10.059294-24.515765 23.04-26.142117l3.312941-0.210824h210.823529c13.432471 0 24.515765 10.059294 26.142118 23.04l0.210823 3.312941v509.500236l-0.030117 0.542117 0.030117 0.572236v81.408c0 75.414588-58.699294 137.065412-131.764705 137.065411s-131.764706-61.650824-131.764706-137.035294V150.588235z m210.823529 26.352941h-158.117647v456.914824l158.117647 0.813176v-176.64h-61.500235a26.352941 26.352941 0 0 1-3.312941-52.495058l3.312941-0.210824h61.500235v-52.705882h-61.500235a26.352941 26.352941 0 0 1-3.312941-52.495059l3.312941-0.210824h61.500235V176.941176z" fill="#568af2" /></svg>