<svg class="icon" style="width: 1em;height: 1em;vertical-align: middle;fill: currentColor;overflow: hidden;" viewBox="0 0 1024 1024" version="1.1" xmlns="http://www.w3.org/2000/svg" width="32" height="32"><path d="M506.970353 124.235294A131.764706 131.764706 0 0 1 638.735059 256v268.528941l2.198588 1.837177a201.607529 201.607529 0 0 1 67.915294 142.908235l0.180706 8.372706a202.029176 202.029176 0 1 1-335.992471-151.280941l2.168471-1.837177V256a131.764706 131.764706 0 0 1 125.379765-131.614118z m0 228.382118a26.352941 26.352941 0 0 0-26.352941 26.352941v205.703529a96.677647 96.677647 0 0 0 26.352941 189.590589 96.617412 96.617412 0 0 0 26.352941-189.620706v-205.673412l-0.180706-3.312941a26.352941 26.352941 0 0 0-26.172235-23.04z" fill="#568af2" /></svg>