<svg class="icon" style="width: 1em;height: 1em;vertical-align: middle;fill: currentColor;overflow: hidden;" viewBox="0 0 1024 1024" version="1.1" xmlns="http://www.w3.org/2000/svg" width="32" height="32"><path d="M603.798588 124.235294c13.432471 0 24.515765 10.059294 26.142118 23.04l0.210823 3.312941-0.030117 187.873883 124.205176 257.445647 78.878118 163.508706a83.847529 83.847529 0 0 1-75.535059 120.259764H238.230588a83.847529 83.847529 0 0 1-75.474823-120.380235l79.088941-163.418353 124.596706-257.445647V150.588235c0-13.432471 10.059294-24.515765 23.04-26.142117l3.312941-0.210824h211.004235z m-26.383059 52.705882h-158.268235v167.574589a26.352941 26.352941 0 0 1-1.204706 7.830588l-1.415529 3.644235-116.555294 240.760471c4.065882 2.017882 8.342588 4.005647 12.8 5.933176 43.670588 18.763294 88.304941 23.913412 128.813176 8.07153a142.607059 142.607059 0 0 0 39.424-23.642353l7.408941-5.872941a192.722824 192.722824 0 0 1 47.284706-26.593883c45.718588-17.648941 93.184-16.143059 139.354353-1.746823l-95.021176-196.939294a26.352941 26.352941 0 0 1-2.319059-7.529412l-0.301177-3.915294V176.941176z" fill="#568af2" /></svg>