<svg class="icon" style="width: 1em;height: 1em;vertical-align: middle;fill: currentColor;overflow: hidden;" viewBox="0 0 1024 1024" version="1.1" xmlns="http://www.w3.org/2000/svg" width="32" height="32"><path d="M501.970824 124.235294c208.594824 0 377.705412 169.110588 377.705411 377.73553 0 208.594824-169.110588 377.705412-377.705411 377.705411-208.624941 0-377.735529-169.110588-377.73553-377.705411 0-208.624941 169.110588-377.735529 377.73553-377.73553z m-87.853177 245.970824a26.352941 26.352941 0 0 0-26.352941 26.352941v210.823529l0.210823 3.312941a26.352941 26.352941 0 0 0 52.495059-3.312941v-210.823529l-0.210823-3.312941a26.352941 26.352941 0 0 0-26.142118-23.04z m175.676235 0a26.352941 26.352941 0 0 0-26.352941 26.352941v210.823529l0.210824 3.312941a26.352941 26.352941 0 0 0 52.495059-3.312941v-210.823529l-0.180706-3.312941a26.352941 26.352941 0 0 0-26.172236-23.04z" fill="#568af2" /></svg>