<svg class="icon" style="width: 1em;height: 1em;vertical-align: middle;fill: currentColor;overflow: hidden;" viewBox="0 0 1024 1024" version="1.1" xmlns="http://www.w3.org/2000/svg" width="32" height="32"><path d="M463.781647 643.614118c32.225882-36.592941 94.298353-36.592941 126.554353 0 28.792471 32.677647 11.354353 203.023059-14.516706 232.357647-24.997647 28.370824-72.553412 28.370824-97.520941 0-25.901176-29.334588-43.309176-199.68-14.516706-232.357647zM527.058824 124.235294c189.199059 0 342.588235 153.389176 342.588235 342.588235 0 132.005647-75.354353 250.488471-191.728941 307.651765a26.352941 26.352941 0 0 1-23.220706-47.284706 289.882353 289.882353 0 1 0-255.247059 0 26.352941 26.352941 0 1 1-23.250824 47.284706A342.558118 342.558118 0 0 1 184.470588 466.823529c0-189.199059 153.389176-342.588235 342.588236-342.588235z m0 122.970353a219.617882 219.617882 0 0 1 139.113411 389.571765 26.352941 26.352941 0 1 1-33.430588-40.779294 166.912 166.912 0 1 0-211.395765 0 26.352941 26.352941 0 1 1-33.40047 40.779294A219.617882 219.617882 0 0 1 527.058824 247.235765z m0 123.000471a96.617412 96.617412 0 1 1 0 193.234823 96.617412 96.617412 0 0 1 0-193.234823z" fill="#568af2" /></svg>