<svg class="icon" style="width: 1em;height: 1em;vertical-align: middle;fill: currentColor;overflow: hidden;" viewBox="0 0 1024 1024" version="1.1" xmlns="http://www.w3.org/2000/svg" width="32" height="32"><path d="M769.054118 264.975059c147.516235 147.516235 147.516235 386.710588 0 534.196706a26.352941 26.352941 0 1 1-37.25553-37.25553c126.915765-126.945882 126.915765-332.739765 0-459.655529-126.945882-126.945882-332.739765-126.945882-459.655529 0-126.945882 126.915765-126.945882 332.709647 0 459.655529a26.352941 26.352941 0 1 1-37.285647 37.25553c-147.486118-147.516235-147.486118-386.680471 0-534.196706 147.516235-147.486118 386.710588-147.486118 534.196706 0z m-99.388236 99.388235a237.176471 237.176471 0 0 1 0 335.420235 26.352941 26.352941 0 1 1-37.255529-37.255529 184.470588 184.470588 0 1 0-260.879059 0 26.352941 26.352941 0 0 1-37.285647 37.255529 237.176471 237.176471 0 0 1 335.420235-335.420235z m-167.695058 71.077647a96.617412 96.617412 0 1 1 0 193.264941 96.617412 96.617412 0 0 1 0-193.264941z" fill="#568af2" /></svg>