<svg class="icon" style="width: 1em;height: 1em;vertical-align: middle;fill: currentColor;overflow: hidden;" viewBox="0 0 1024 1024" version="1.1" xmlns="http://www.w3.org/2000/svg" width="32" height="32"><path d="M592.323765 184.470588c-62.343529 0-120.018824 33.099294-172.272941 87.190588-17.709176 18.371765-33.581176 37.948235-47.435295 57.524706l-6.535529 9.487059-2.740706 4.096H276.088471a61.500235 61.500235 0 0 0-61.500236 61.500235v242.928942l0.180706 4.608a61.500235 61.500235 0 0 0 61.31953 56.922353l87.130353-0.030118 2.740705 4.216471 6.565647 9.637647c13.824 19.877647 29.665882 39.755294 47.375059 58.428235 52.284235 55.024941 109.929412 88.666353 172.42353 88.666353a26.352941 26.352941 0 0 0 26.352941-26.352941V210.823529a26.352941 26.352941 0 0 0-26.352941-26.352941z m120.892235 166.912a26.352941 26.352941 0 0 1 37.195294-2.108235c12.348235 11.023059 23.491765 23.371294 33.310118 36.773647a238.381176 238.381176 0 0 1 45.778823 141.010824c0 51.049412-15.962353 99.689412-45.025882 139.986823-9.968941 13.793882-21.383529 26.503529-34.032941 37.797647a26.352941 26.352941 0 0 1-35.117177-39.333647c9.788235-8.734118 18.672941-18.582588 26.413177-29.334588a185.735529 185.735529 0 0 0 35.056941-109.116235c0-40.237176-12.649412-78.426353-35.629177-109.929412a182.874353 182.874353 0 0 0-25.840941-28.521412 26.352941 26.352941 0 0 1-2.108235-37.225412z" fill="#568af2" /></svg>