<svg class="icon" style="width: 1em;height: 1em;vertical-align: middle;fill: currentColor;overflow: hidden;" viewBox="0 0 1024 1024" version="1.1" xmlns="http://www.w3.org/2000/svg" width="32" height="32"><path d="M712.794353 124.235294c69.722353 0 132.517647 39.032471 163.960471 99.870118a26.352941 26.352941 0 0 1 2.921411 12.077176v145.046588c0 4.216471-0.993882 8.342588-2.921411 12.077177a184.440471 184.440471 0 0 1-182.000942 98.996706l-8.342588-1.024v362.044235a26.352941 26.352941 0 0 1-23.04 26.172235l-3.312941 0.180706h-105.411765a26.352941 26.352941 0 0 1-26.322823-26.352941V308.705882a184.470588 184.470588 0 0 1 184.470588-184.470588zM677.647059 282.352941h-17.558588l-3.312942 0.210824a26.352941 26.352941 0 0 0 3.312942 52.495059h17.558588l3.312941-0.210824a26.352941 26.352941 0 0 0-3.312941-52.495059zM291.147294 124.235294a184.470588 184.470588 0 0 1 184.470588 184.470588v544.617412a26.352941 26.352941 0 0 1-26.352941 26.352941h-105.411765a26.352941 26.352941 0 0 1-26.352941-26.352941l-0.030117-362.044235-8.312471 1.024c-2.981647 0.301176-5.963294 0.512-8.975059 0.662588l-9.035294 0.210824a184.440471 184.440471 0 0 1-163.96047-99.870118 26.352941 26.352941 0 0 1-2.95153-12.077177V236.182588c0-4.216471 1.024-8.342588 2.95153-12.077176a184.440471 184.440471 0 0 1 163.96047-99.870118z m52.705882 158.117647h-17.588705l-3.312942 0.210824a26.352941 26.352941 0 0 0 3.312942 52.495059h17.588705l3.312942-0.210824a26.352941 26.352941 0 0 0-3.312942-52.495059z" fill="#568af2" /></svg>