<svg class="icon" style="width: 1em;height: 1em;vertical-align: middle;fill: currentColor;overflow: hidden;" viewBox="0 0 1024 1024" version="1.1" xmlns="http://www.w3.org/2000/svg" width="32" height="32"><path d="M427.911529 120.470588c169.803294 0 307.471059 137.637647 307.471059 307.440941 0 119.777882-68.487529 223.533176-168.417882 274.281412l21.443765 48.248471a360.207059 360.207059 0 0 0 199.68-322.529883v-35.117176c0-13.432471 10.029176-24.545882 23.04-26.172235l3.312941-0.180706h35.117176c13.432471 0 24.545882 10.029176 26.172236 23.04l0.180705 3.312941v35.117176a26.352941 26.352941 0 0 1-23.04 26.172236l-3.312941 0.180706h-9.607529a412.912941 412.912941 0 0 1-230.098824 344.395294l17.829647 40.207059a26.352941 26.352941 0 0 1-20.781176 36.864l-3.312941 0.180705H252.265412a26.352941 26.352941 0 0 1-25.238588-33.942588l1.14447-3.102117 60.717177-136.673883A307.440941 307.440941 0 0 1 120.470588 427.911529C120.470588 258.108235 258.108235 120.470588 427.911529 120.470588z m0 614.912c-31.352471 0-61.620706-4.698353-90.112-13.43247L292.743529 823.205647h270.275765l-44.995765-101.255529c-28.491294 8.734118-58.759529 13.432471-90.142117 13.43247z m0-404.08847a96.617412 96.617412 0 1 0 0 193.264941 96.617412 96.617412 0 0 0 0-193.264941z m0 52.705882a43.911529 43.911529 0 1 1 0 87.853176 43.911529 43.911529 0 0 1 0-87.853176z m0-158.117647A202.029176 202.029176 0 0 0 225.882353 427.911529a26.352941 26.352941 0 1 0 52.705882 0 149.323294 149.323294 0 0 1 149.323294-149.323294 26.352941 26.352941 0 1 0 0-52.705882z" fill="#568af2" /><path d="M853.323294 396.559059v35.117176h-35.117176v-35.117176z" fill="#568af2" /></svg>