<svg class="icon" style="width: 1em;height: 1em;vertical-align: middle;fill: currentColor;overflow: hidden;" viewBox="0 0 1024 1024" version="1.1" xmlns="http://www.w3.org/2000/svg" width="32" height="32"><path d="M730.352941 184.470588c13.432471 0 24.515765 10.059294 26.142118 23.04l0.210823 3.312941v43.91153h96.617412c13.432471 0 24.545882 10.059294 26.172235 23.070117l0.180706 3.312942V737.882353a26.352941 26.352941 0 0 1-23.04 26.142118l-3.312941 0.210823h-96.617412v43.91153a26.352941 26.352941 0 0 1-23.04 26.172235l-3.312941 0.180706H273.558588a26.352941 26.352941 0 0 1-26.142117-23.04l-0.210824-3.312941v-43.91153H150.588235a26.352941 26.352941 0 0 1-26.142117-23.04l-0.210824-3.312941V281.088c0-13.432471 10.059294-24.515765 23.04-26.142118L150.588235 254.735059h96.617412V210.823529c0-13.432471 10.059294-24.515765 23.070118-26.142117l3.312941-0.210824H730.352941zM247.205647 307.440941H176.941176v404.088471h70.264471V307.440941z m579.764706 0h-70.264471v404.088471h70.264471V307.440941z m-386.499765 131.764706v140.559059a26.352941 26.352941 0 0 0 40.96 21.925647l105.411765-70.264471a26.352941 26.352941 0 0 0 0-43.851294l-105.411765-70.294588a26.352941 26.352941 0 0 0-40.96 21.925647z m52.705883 49.242353l31.533176 21.022118-31.533176 21.022117v-42.044235z" fill="#568af2" /></svg>