<svg class="icon" style="width: 1em;height: 1em;vertical-align: middle;fill: currentColor;overflow: hidden;" viewBox="0 0 1024 1024" version="1.1" xmlns="http://www.w3.org/2000/svg" width="32" height="32"><path d="M501.970824 184.470588c-62.343529 0-120.018824 33.099294-172.272942 87.190588-17.709176 18.371765-33.581176 37.948235-47.435294 57.524706l-6.535529 9.487059-2.740706 4.096H185.735529a61.500235 61.500235 0 0 0-61.500235 61.500235v242.928942l0.180706 4.608a61.500235 61.500235 0 0 0 61.319529 56.922353l87.130353-0.030118 2.740706 4.216471 6.565647 9.637647c13.824 19.877647 29.665882 39.755294 47.375059 58.428235 52.284235 55.024941 109.929412 88.666353 172.42353 88.666353a26.352941 26.352941 0 0 0 26.352941-26.352941V210.823529a26.352941 26.352941 0 0 0-26.352941-26.352941z m198.475294 21.142588A377.434353 377.434353 0 0 1 879.646118 527.058824c0 134.565647-70.957176 256.843294-184.380236 324.547764a26.352941 26.352941 0 0 1-27.015529-45.236706 324.788706 324.788706 0 0 0 158.72-279.311058c0-113.965176-59.151059-217.750588-154.322824-276.630589a26.352941 26.352941 0 0 1 27.738353-44.815059z m-40.357647 143.661177a238.381176 238.381176 0 0 1 79.088941 177.784471c-0.030118 51.049412-15.962353 99.689412-45.056 139.986823-9.968941 13.793882-21.383529 26.503529-34.032941 37.797647a26.352941 26.352941 0 0 1-35.117177-39.333647c9.788235-8.734118 18.672941-18.582588 26.413177-29.334588a185.735529 185.735529 0 0 0 35.056941-109.116235c0-40.237176-12.649412-78.426353-35.629177-109.929412a182.874353 182.874353 0 0 0-25.840941-28.521412 26.352941 26.352941 0 0 1 35.087059-39.333647z" fill="#568af2" /></svg>