<svg class="icon" style="width: 1em;height: 1em;vertical-align: middle;fill: currentColor;overflow: hidden;" viewBox="0 0 1024 1024" version="1.1" xmlns="http://www.w3.org/2000/svg" width="32" height="32"><path d="M0 0h1024v1024H0z" fill="#568af2" fill-opacity="0" /><path d="M505.735529 352.617412c13.432471 0 24.515765 10.059294 26.142118 23.070117l0.210824 3.312942v245.940705a26.352941 26.352941 0 0 1-52.525177 3.312942l-0.180706-3.312942v-245.970823c0-14.546824 11.776-26.352941 26.352941-26.352941zM663.853176 247.205647c13.432471 0 24.515765 10.059294 26.142118 23.070118l0.210824 3.312941V730.352941a26.352941 26.352941 0 0 1-52.525177 3.312941l-0.180706-3.312941V273.558588c0-14.546824 11.776-26.352941 26.352941-26.352941zM189.500235 352.617412c13.432471 0 24.515765 10.059294 26.142118 23.070117l0.210823 3.312942v245.940705a26.352941 26.352941 0 0 1-52.525176 3.312942l-0.180706-3.312942v-245.970823c0-14.546824 11.776-26.352941 26.352941-26.352941zM821.970824 370.206118c13.432471 0 24.515765 10.029176 26.142117 23.04l0.210824 3.312941v210.823529a26.352941 26.352941 0 0 1-52.525177 3.312941l-0.180706-3.312941v-210.823529c0-14.576941 11.776-26.352941 26.352942-26.352941zM347.617882 124.235294c13.432471 0 24.515765 10.059294 26.142118 23.04l0.210824 3.312941v702.735059a26.352941 26.352941 0 0 1-52.525177 3.312941l-0.180706-3.312941V150.588235c0-14.546824 11.776-26.352941 26.352941-26.352941z" fill="#568af2" /></svg>