<svg class="icon" style="width: 1em;height: 1em;vertical-align: middle;fill: currentColor;overflow: hidden;" viewBox="0 0 1024 1024" version="1.1" xmlns="http://www.w3.org/2000/svg" width="32" height="32"><path d="M853.323294 184.470588c13.432471 0 24.545882 10.059294 26.172235 23.04l0.180706 3.312941v632.470589a26.352941 26.352941 0 0 1-23.04 26.142117l-3.312941 0.210824H150.588235a26.352941 26.352941 0 0 1-26.142117-23.04L124.235294 843.294118V210.823529c0-13.432471 10.059294-24.515765 23.04-26.142117L150.588235 184.470588h702.735059zM501.970824 641.264941h-210.82353l-3.312941 0.180706a26.352941 26.352941 0 0 0 0 52.314353l3.312941 0.210824h210.82353l3.312941-0.210824a26.352941 26.352941 0 0 0-3.312941-52.495059z m210.823529-140.559059h-421.647059l-3.312941 0.210824a26.352941 26.352941 0 0 0 0 52.284235l3.312941 0.210824h421.647059l3.312941-0.210824a26.352941 26.352941 0 0 0-3.312941-52.495059z m-474.654118-263.529411H176.941176v122.970353H287.322353L238.140235 237.176471z m421.647059 0h-83.787294l49.212235 122.970353h83.757177l-49.182118-122.970353z m-140.559059 0h-83.757176l49.182117 122.970353h83.787295L519.228235 237.176471z m-140.528941 0H294.912l49.182118 122.970353h83.787294l-49.182118-122.970353z m448.271059 0h-110.411294l49.182117 122.970353h61.229177V237.176471z" fill="#568af2" /></svg>