<svg class="icon" style="width: 1em;height: 1em;vertical-align: middle;fill: currentColor;overflow: hidden;" viewBox="0 0 1024 1024" version="1.1" xmlns="http://www.w3.org/2000/svg" width="32" height="32"><path d="M737.882353 184.470588a131.764706 131.764706 0 0 1 131.614118 125.379765l0.150588 6.384941v35.147294a26.352941 26.352941 0 0 1-52.495059 3.312941l-0.210824-3.312941V316.235294a79.058824 79.058824 0 0 0-74.059294-78.908235l-4.999529-0.150588h-421.647059a79.058824 79.058824 0 0 0-78.908235 74.059294l-0.150588 4.999529v35.147294a26.352941 26.352941 0 0 1-52.495059 3.312941l-0.210824-3.312941V316.235294a131.764706 131.764706 0 0 1 125.379765-131.614118l6.384941-0.150588h421.647059zM667.617882 395.294118c13.432471 0 24.515765 10.059294 26.142118 23.04l0.210824 3.312941v210.823529a26.352941 26.352941 0 0 1-52.525177 3.312941l-0.180706-3.312941v-210.823529c0-14.546824 11.776-26.352941 26.352941-26.352941zM808.146824 430.441412c13.432471 0 24.545882 10.029176 26.172235 23.04l0.180706 3.312941v140.528941a26.352941 26.352941 0 0 1-52.495059 3.312941l-0.210824-3.312941v-140.528941c0-14.576941 11.806118-26.352941 26.352942-26.352941z" fill="#568af2" /><path d="M527.058824 342.588235c13.432471 0 24.515765 10.059294 26.142117 23.04l0.210824 3.312941v316.235295a26.352941 26.352941 0 0 1-52.495059 3.312941l-0.210824-3.312941v-316.235295c0-14.546824 11.806118-26.352941 26.352942-26.352941zM386.499765 395.294118c13.432471 0 24.545882 10.059294 26.172235 23.04l0.180706 3.312941v210.823529a26.352941 26.352941 0 0 1-52.495059 3.312941l-0.210823-3.312941v-210.823529c0-14.546824 11.806118-26.352941 26.352941-26.352941zM245.970824 430.441412c13.432471 0 24.515765 10.029176 26.142117 23.04l0.210824 3.312941v140.528941a26.352941 26.352941 0 0 1-52.525177 3.312941l-0.180706-3.312941v-140.528941c0-14.576941 11.776-26.352941 26.352942-26.352941z" fill="#568af2" /><path d="M843.294118 676.382118c13.432471 0 24.515765 10.059294 26.142117 23.070117l0.210824 3.312941V737.882353a131.764706 131.764706 0 0 1-125.379765 131.614118l-6.384941 0.150588h-421.647059a131.764706 131.764706 0 0 1-131.614118-125.379765l-0.150588-6.384941v-35.147294a26.352941 26.352941 0 0 1 52.495059-3.312941l0.210824 3.312941V737.882353a79.058824 79.058824 0 0 0 74.059294 78.908235l4.999529 0.150588h421.647059a79.058824 79.058824 0 0 0 78.908235-74.059294l0.150588-4.999529v-35.147294c0-14.546824 11.806118-26.352941 26.352942-26.352941z" fill="#568af2" /></svg>