<svg class="icon" style="width: 1em;height: 1em;vertical-align: middle;fill: currentColor;overflow: hidden;" viewBox="0 0 1024 1024" version="1.1" xmlns="http://www.w3.org/2000/svg" width="32" height="32"><path d="M501.970824 124.235294c208.594824 0 377.705412 169.110588 377.705411 377.73553 0 208.594824-169.110588 377.705412-377.705411 377.705411-208.624941 0-377.735529-169.110588-377.73553-377.705411 0-208.624941 169.110588-377.735529 377.73553-377.73553z m210.823529 351.382588a26.352941 26.352941 0 0 0-26.352941 26.352942 184.470588 184.470588 0 0 1-184.470588 184.470588 26.352941 26.352941 0 1 0 0 52.705882 237.176471 237.176471 0 0 0 237.17647-237.17647 26.352941 26.352941 0 0 0-26.352941-26.352942z m-210.823529-70.294588a96.617412 96.617412 0 1 0 0 193.264941 96.617412 96.617412 0 0 0 0-193.264941z m0 52.705882a43.911529 43.911529 0 1 1 0 87.853177 43.911529 43.911529 0 0 1 0-87.853177z m0-193.234823a237.176471 237.176471 0 0 0-237.176471 237.176471 26.352941 26.352941 0 0 0 52.705882 0 184.470588 184.470588 0 0 1 184.470589-184.470589 26.352941 26.352941 0 0 0 0-52.705882z" fill="#568af2" /></svg>