<svg class="icon" style="width: 1em;height: 1em;vertical-align: middle;fill: currentColor;overflow: hidden;" viewBox="0 0 1024 1024" version="1.1" xmlns="http://www.w3.org/2000/svg" width="32" height="32"><path d="M869.647059 553.411765v237.17647a79.058824 79.058824 0 0 1-79.058824 79.058824h-96.617411l-0.030118-158.117647h175.706353v-52.705883h-175.706353v-105.411764h175.706353z m-509.500235 158.117647v158.117647H263.529412a79.058824 79.058824 0 0 1-79.058824-79.058824v-79.058823h175.676236z m281.088-158.117647v316.235294h-228.382118v-316.235294h228.382118z m-281.088 0v105.411764H184.470588v-105.411764h175.676236z m281.118117-368.941177l-0.030117 316.205177h-228.382118V184.470588h228.412235z m149.323294 0a79.058824 79.058824 0 0 1 79.058824 79.058824v237.17647l-175.706353-0.030117v-105.381647h175.706353v-52.705883h-175.706353v-158.117647z m-430.441411 210.82353v105.381647l-175.676236 0.030117v-105.411764h175.676236z m0-210.82353v158.117647H184.470588V263.529412A79.058824 79.058824 0 0 1 263.529412 184.470588h96.617412z" fill="#568af2" /></svg>