<svg class="icon" style="width: 1em;height: 1em;vertical-align: middle;fill: currentColor;overflow: hidden;" viewBox="0 0 1024 1024" version="1.1" xmlns="http://www.w3.org/2000/svg" width="32" height="32"><path d="M527.058824 184.470588c189.199059 0 342.588235 153.389176 342.588235 342.588236S716.257882 869.647059 527.058824 869.647059a341.534118 341.534118 0 0 1-242.236236-100.352 26.352941 26.352941 0 0 1 37.25553-37.25553 288.828235 288.828235 0 0 0 204.980706 84.901647 289.882353 289.882353 0 0 0 0-579.764705 288.828235 288.828235 0 0 0-204.980706 84.931764l-6.625883 6.686118-16.624941 17.558588-17.709176 19.154824-23.130353 25.449411-27.467294 30.629648a26.352941 26.352941 0 1 1-39.393883-34.996706l27.768471-30.991059 25.991529-28.55153 22.588236-24.304941 9.33647-9.818353 8.011294-8.131764A341.534118 341.534118 0 0 1 527.058824 184.500706z" fill="#568af2" /><path d="M210.823529 237.176471c13.432471 0 24.515765 10.059294 26.142118 23.04l0.210824 3.312941v114.176h114.206117c13.432471 0 24.515765 10.059294 26.142118 23.070117l0.210823 3.312942a26.352941 26.352941 0 0 1-23.070117 26.142117l-3.312941 0.210824H210.823529a26.352941 26.352941 0 0 1-26.142117-23.070118l-0.210824-3.312941V263.529412c0-14.546824 11.806118-26.352941 26.352941-26.352941zM597.323294 395.294118a26.352941 26.352941 0 0 1 3.312941 52.495058l-3.312941 0.210824h-96.617412v36.231529l2.198589-0.210823c5.12-0.481882 10.782118-0.752941 17.317647-0.843294l6.836706-0.030118c65.807059 0 96.617412 43.068235 96.617411 114.176 0 62.735059-40.779294 96.647529-96.617411 96.64753-39.183059 0-79.058824-26.593882-79.058824-61.500236a26.352941 26.352941 0 1 1 52.705882 0l1.204706 0.843294 3.312941 1.897412c4.909176 2.590118 13.251765 6.023529 21.835295 6.02353 28.672 0 43.911529-12.649412 43.911529-43.91153 0-45.056-11.745882-61.470118-43.911529-61.470118l-9.667765 0.060236-7.318588 0.301176a33.129412 33.129412 0 0 0-16.474353 4.758588l-4.788706 3.011765a26.352941 26.352941 0 0 1-40.628706-18.793412l-0.180706-3.222588V421.647059c0-13.432471 10.059294-24.515765 23.04-26.142118l3.312941-0.210823h122.970353z" fill="#568af2" /></svg>