<svg class="icon" style="width: 1em;height: 1em;vertical-align: middle;fill: currentColor;overflow: hidden;" viewBox="0 0 1024 1024" version="1.1" xmlns="http://www.w3.org/2000/svg" width="32" height="32"><path d="M501.970824 184.470588c-62.343529 0-120.018824 33.099294-172.272942 87.190588-17.709176 18.371765-33.581176 37.948235-47.435294 57.524706l-6.535529 9.487059-2.740706 4.096H185.735529a61.500235 61.500235 0 0 0-61.500235 61.500235v242.928942l0.180706 4.608a61.500235 61.500235 0 0 0 61.319529 56.922353l87.130353-0.030118 2.740706 4.216471 6.565647 9.637647c13.824 19.877647 29.665882 39.755294 47.375059 58.428235 52.284235 55.024941 109.929412 88.666353 172.42353 88.666353a26.352941 26.352941 0 0 0 26.352941-26.352941V210.823529a26.352941 26.352941 0 0 0-26.352941-26.352941z m351.35247 316.235294a26.352941 26.352941 0 0 1 3.312941 52.495059l-3.312941 0.210824h-210.823529a26.352941 26.352941 0 0 1-3.312941-52.495059l3.312941-0.210824h210.823529z" fill="#568af2" /></svg>