<svg class="icon" style="width: 1em;height: 1em;vertical-align: middle;fill: currentColor;overflow: hidden;" viewBox="0 0 1024 1024" version="1.1" xmlns="http://www.w3.org/2000/svg" width="32" height="32"><path d="M386.499765 124.235294a202.029176 202.029176 0 0 1 201.728 213.473882l242.386823 304.911059c13.552941 16.263529 13.432471 39.695059 0.301177 55.808l-3.011765 3.343059-15.872 15.841882a26.232471 26.232471 0 0 1 11.595294 5.993412c63.909647 56.681412 29.274353 154.081882-61.861647 169.712941-36.201412 6.234353-68.306824-3.794824-121.012706-31.262117l-33.520941-17.859765-18.883765-9.637647-10.842353-5.210353c-3.433412-1.566118-6.686118-3.011765-9.728-4.276706l-8.734117-3.403294c-12.468706-4.517647-22.287059-6.324706-32.13553-6.324706-39.664941 0-73.035294 17.92-101.918117 55.536941a26.352941 26.352941 0 1 1-41.833412-32.075294c38.490353-50.145882 86.979765-76.137412 143.751529-76.137412 26.142118 0 47.194353 6.144 82.281412 23.371295l13.854118 6.987294 33.551059 17.799529c5.300706 2.831059 10.360471 5.481412 15.149176 7.920941l13.703529 6.686118c30.328471 14.275765 49.874824 18.974118 67.403295 15.962353 49.453176-8.523294 65.054118-52.404706 35.809882-78.366118a26.232471 26.232471 0 0 1-8.222118-13.854117l-24.274823 24.335058a43.971765 43.971765 0 0 1-55.808 5.180236l-3.644236-2.740706-289.219764-248.71153a202.029176 202.029176 0 1 1-20.961883-403.004235z m186.729411 279.311059a202.782118 202.782118 0 0 1-104.146823 107.188706l255.548235 219.738353 60.446118-60.446118-211.84753-266.480941z m13.161412 85.684706l2.710588 2.349176 49.694118 49.694118a26.352941 26.352941 0 0 1-34.575059 39.634823l-2.710588-2.379294-49.694118-49.694117a26.352941 26.352941 0 0 1 34.575059-39.604706z" fill="#568af2" /></svg>