<svg class="icon" style="width: 1em;height: 1em;vertical-align: middle;fill: currentColor;overflow: hidden;" viewBox="0 0 1024 1024" version="1.1" xmlns="http://www.w3.org/2000/svg" width="32" height="32"><path d="M527.058824 184.470588c189.199059 0 342.588235 153.389176 342.588235 342.588236S716.257882 869.647059 527.058824 869.647059a341.534118 341.534118 0 0 1-242.236236-100.352 26.352941 26.352941 0 0 1 37.25553-37.25553 288.828235 288.828235 0 0 0 204.980706 84.901647 289.882353 289.882353 0 0 0 0-579.764705 288.828235 288.828235 0 0 0-204.980706 84.931764l-6.625883 6.686118-16.624941 17.558588-17.709176 19.154824-11.113412 12.197647h81.377882c13.432471 0 24.515765 10.059294 26.142118 23.070117l0.210823 3.312942a26.352941 26.352941 0 0 1-23.070117 26.142117l-3.312941 0.210824H210.070588a26.473412 26.473412 0 0 1-1.807059-0.150588l2.590118 0.150588a26.533647 26.533647 0 0 1-19.817412-9.005177l2.319059 2.349177a26.503529 26.503529 0 0 1-8.643765-16.414118l-0.12047-0.933647a26.503529 26.503529 0 0 1-0.090353-1.656471V263.529412a26.352941 26.352941 0 0 1 52.495059-3.312941l0.210823 3.312941v71.951059l7.710118-8.432942 22.588235-24.304941 9.336471-9.818353 8.011294-8.131764A341.534118 341.534118 0 0 1 527.058824 184.500706z m-42.104471 213.022118l2.951529 1.566118 175.706353 105.411764a26.352941 26.352941 0 0 1 3.011765 43.098353l-3.011765 2.108235-175.706353 105.411765a26.352941 26.352941 0 0 1-39.695058-19.275294L448 632.470588v-210.823529a26.352941 26.352941 0 0 1 36.954353-24.154353z" fill="#568af2" /></svg>