<svg class="icon" style="width: 1em;height: 1em;vertical-align: middle;fill: currentColor;overflow: hidden;" viewBox="0 0 1024 1024" version="1.1" xmlns="http://www.w3.org/2000/svg" width="32" height="32"><path d="M813.176471 373.970824c33.972706 0 61.500235 27.527529 61.500235 61.470117v351.382588A61.500235 61.500235 0 0 1 813.176471 848.323765H215.853176a61.500235 61.500235 0 0 1-61.500235-61.500236V435.440941c0-33.942588 27.527529-61.470118 61.500235-61.470117z m-289.882353 263.499294v30.780235l-0.210824 2.921412c-1.566118 10.541176-11.504941 19.034353-24.033882 19.034353h-39.363765l-3.312941-0.210824c-12.047059-1.505882-20.931765-10.902588-20.931765-21.744941v-8.824471l0.240941-2.921411c1.566118-10.541176 11.504941-19.004235 24.003765-19.004236l63.608471-0.030117z m0.060235-133.541647l-0.060235 1.024v79.841882h-63.608471l-5.029647 0.150588c-39.905882 2.499765-71.920941 34.635294-71.920941 74.480941v8.824471l0.180706 4.939294c2.620235 39.152941 36.231529 69.722353 76.8 69.722353h39.333647l5.029647-0.180706c39.936-2.499765 71.920941-34.635294 71.920941-74.480941v-130.409412l56.32 11.294118 3.282824 0.451765a26.352941 26.352941 0 0 0 7.047529-52.133648l-87.823059-17.558588-0.421647-0.090353a26.292706 26.292706 0 0 0-1.445647-0.240941l-0.903529-0.060235-0.512-0.060235-0.963765-0.060236h-1.596235a22.377412 22.377412 0 0 0-4.969412 0.602353 25.118118 25.118118 0 0 0-1.264941 0.301177l-1.084236 0.301176-1.054117 0.361412-0.783059 0.301176a29.394824 29.394824 0 0 0-5.782588 3.222589 27.045647 27.045647 0 0 0-3.102118 2.710588l-1.325176 1.415529-1.144471 1.445647-0.632471 0.90353-1.024 1.596235a27.105882 27.105882 0 0 0-0.722823 1.355294l-0.301177 0.572235-0.240941 0.602353a24.064 24.064 0 0 0-0.692706 1.716706l-0.512 1.505883-0.090353 0.361411-0.12047 0.421647-0.180706 0.783059-0.150588 0.692706-0.090353 0.481882-0.301177 2.198589 0.030118-0.301177-0.060235 0.421647-0.030118 0.602353z m272.263529-235.369412a26.352941 26.352941 0 0 1 3.312942 52.495059l-3.312942 0.210823H233.411765a26.352941 26.352941 0 0 1-3.312941-52.525176l3.312941-0.180706h562.206117z m-123.00047-105.411765a26.352941 26.352941 0 0 1 3.312941 52.495059l-3.312941 0.210823h-316.235294a26.352941 26.352941 0 0 1-3.312942-52.525176l3.312942-0.180706h316.235294z" fill="#568af2" /></svg>