<svg class="icon" style="width: 1em;height: 1em;vertical-align: middle;fill: currentColor;overflow: hidden;" viewBox="0 0 1024 1024" version="1.1" xmlns="http://www.w3.org/2000/svg" width="32" height="32"><path d="M790.347294 611.147294c47.525647 0 84.329412 42.857412 84.329412 93.906824 0 70.053647-63.849412 145.227294-122.277647 167.845647a26.352941 26.352941 0 0 1-19.004235 0c-58.398118-22.618353-122.277647-97.792-122.277648-167.845647 0-51.049412 36.803765-93.906824 84.329412-93.906824 17.287529 0 33.490824 5.722353 47.013647 15.841882l0.421647 0.361412 5.722353-4.005647a77.944471 77.944471 0 0 1 36.020706-11.986823zM496.941176 154.352941c189.199059 0 342.588235 153.389176 342.588236 342.588235a26.352941 26.352941 0 1 1-52.705883 0 289.882353 289.882353 0 1 0-289.882353 289.882353 26.352941 26.352941 0 1 1 0 52.705883c-189.199059 0-342.588235-153.389176-342.588235-342.588236S307.742118 154.352941 496.941176 154.352941z m0 228.382118a114.206118 114.206118 0 1 1 0 228.412235 114.206118 114.206118 0 0 1 0-228.412235z" fill="#568af2" /></svg>