<svg class="icon" style="width: 1em;height: 1em;vertical-align: middle;fill: currentColor;overflow: hidden;" viewBox="0 0 1024 1024" version="1.1" xmlns="http://www.w3.org/2000/svg" width="32" height="32"><path d="M853.323294 193.264941a26.352941 26.352941 0 0 1 3.312941 52.495059l-3.312941 0.210824h-43.941647l0.030118 430.411294a26.352941 26.352941 0 0 1-23.04 26.172235l-3.312941 0.180706h-217.47953l95.563294 95.563294a26.352941 26.352941 0 0 1-34.575059 39.634823l-2.710588-2.349176-121.916235-121.916235-121.886118 121.916235a26.352941 26.352941 0 0 1-34.575059 2.349176l-2.710588-2.349176a26.352941 26.352941 0 0 1-2.349176-34.575059l2.349176-2.710588 95.533177-95.563294h-217.449412a26.352941 26.352941 0 0 1-26.142118-23.04l-0.210823-3.312941V245.970824H150.588235a26.352941 26.352941 0 0 1-3.312941-52.525177L150.588235 193.264941h702.735059zM450.891294 339.124706l-2.710588 2.379294-2.349177 2.710588a26.383059 26.383059 0 0 0 0 31.834353l2.349177 2.710588 69.210353 69.210353-69.210353 69.210353-2.349177 2.710589a26.352941 26.352941 0 0 0 36.924236 36.924235l2.710588-2.379294 87.823059-87.823059 2.379294-2.710588a26.383059 26.383059 0 0 0 0-31.864471l-2.379294-2.710588-87.823059-87.823059-2.710588-2.379294a26.383059 26.383059 0 0 0-31.864471 0z" fill="#568af2" /></svg>