<svg class="icon" style="width: 1em;height: 1em;vertical-align: middle;fill: currentColor;overflow: hidden;" viewBox="0 0 1024 1024" version="1.1" xmlns="http://www.w3.org/2000/svg" width="32" height="32"><path d="M712.794353 244.705882c13.432471 0 24.515765 10.059294 26.142118 23.04l0.210823 3.312942-0.030118 132.156235 97.219765-82.010353a26.352941 26.352941 0 0 1 43.158588 16.865882l0.180706 3.252706V692.705882a26.352941 26.352941 0 0 1-43.339294 20.148706l-97.219765-82.04047v132.156235a26.352941 26.352941 0 0 1-23.04 26.172235l-3.312941 0.180706H150.588235a26.352941 26.352941 0 0 1-26.142117-23.04l-0.210824-3.312941V271.058824c0-13.432471 10.059294-24.515765 23.04-26.142118L150.588235 244.705882h562.206118z m-351.593412 165.014589l-2.469647 2.590117-2.108235 2.891294a26.383059 26.383059 0 0 0 2.891294 31.744l2.590118 2.469647 81.136941 67.584-81.136941 67.614118-2.590118 2.469647a26.352941 26.352941 0 0 0 33.430588 40.116706l2.891294-2.108235 105.411765-87.823059 2.529882-2.409412a26.383059 26.383059 0 0 0 0-35.689412l-2.529882-2.409411-105.411765-87.823059-2.891294-2.108236a26.383059 26.383059 0 0 0-31.744 2.891295z" fill="#568af2" /></svg>