<svg class="icon" style="width: 1em;height: 1em;vertical-align: middle;fill: currentColor;overflow: hidden;" viewBox="0 0 1024 1024" version="1.1" xmlns="http://www.w3.org/2000/svg" width="32" height="32"><path d="M124.235294 501.970824a166.942118 166.942118 0 0 1 141.854118-165.044706 237.206588 237.206588 0 0 1 471.823059 0 166.942118 166.942118 0 0 1-0.030118 330.089411 237.176471 237.176471 0 0 1-235.911529 212.660706 26.352941 26.352941 0 1 1 0-52.705882 184.470588 184.470588 0 0 0 184.32-177.694118l0.150588-6.77647V361.411765a184.470588 184.470588 0 0 0-368.820706-6.776471l-0.120471 6.776471v281.088a26.352941 26.352941 0 0 1-26.352941 26.352941 166.912 166.912 0 0 1-166.912-166.881882z" fill="#568af2" /></svg>