<svg class="icon" style="width: 1em;height: 1em;vertical-align: middle;fill: currentColor;overflow: hidden;" viewBox="0 0 1024 1024" version="1.1" xmlns="http://www.w3.org/2000/svg" width="32" height="32"><path d="M532.088471 184.470588c-62.343529 0-120.018824 33.099294-172.272942 87.190588-17.709176 18.371765-33.581176 37.948235-47.435294 57.524706l-6.535529 9.487059-2.740706 4.096H215.853176a61.500235 61.500235 0 0 0-61.500235 61.500235v242.928942l0.180706 4.608a61.500235 61.500235 0 0 0 61.319529 56.922353l87.130353-0.030118 2.740706 4.216471 6.565647 9.637647c13.824 19.877647 29.665882 39.755294 47.375059 58.428235 52.284235 55.024941 109.929412 88.666353 172.42353 88.666353a26.352941 26.352941 0 0 0 26.352941-26.352941V210.823529a26.352941 26.352941 0 0 0-26.352941-26.352941z m312.621176 258.710588c9.456941 9.426824 10.24 24.244706 2.379294 34.544942l-2.379294 2.710588-55.898353 55.898353 55.898353 55.898353A26.352941 26.352941 0 0 1 810.164706 631.868235l-2.710588-2.349176-55.928471-55.928471-55.868235 55.928471a26.352941 26.352941 0 0 1-39.634824-34.575059l2.349177-2.710588 55.898353-55.898353-55.898353-55.898353a26.352941 26.352941 0 0 1 34.575059-39.634824l2.710588 2.379294 55.868235 55.868236 55.928471-55.868236a26.352941 26.352941 0 0 1 37.255529 0z" fill="#568af2" /></svg>