<svg class="icon" style="width: 1em;height: 1em;vertical-align: middle;fill: currentColor;overflow: hidden;" viewBox="0 0 1024 1024" version="1.1" xmlns="http://www.w3.org/2000/svg" width="32" height="32"><path d="M245.458824 209.558588l2.56 2.529883L845.402353 879.676235a26.352941 26.352941 0 0 1-36.743529 37.647059l-2.529883-2.499765L208.715294 247.205647a26.352941 26.352941 0 0 1 36.74353-37.647059z m71.198117 239.736471c14.546824 0.421647 25.961412 12.589176 25.509647 27.136-3.162353 99.388235-23.250824 180.133647-55.055059 243.742117-5.722353 11.444706-11.504941 21.775059-17.167058 30.991059l-3.553883 5.541647h392.432941V783.058824a131.764706 131.764706 0 0 1-260.879058 26.383058L210.823529 809.411765c-23.521882 0-34.755765-28.069647-19.275294-44.363294l4.758589-4.397177 3.493647-3.614118 4.517647-5.12 2.590117-3.102117a280.576 280.576 0 0 0 33.039059-52.193883c28.370824-56.741647 46.622118-130.017882 49.54353-221.846588a26.352941 26.352941 0 0 1 27.166117-25.509647zM527.058824 150.588235a70.264471 70.264471 0 0 1 70.26447 70.264471h-6.113882a237.327059 237.327059 0 0 1 172.905412 221.003294l0.12047 7.408941c0 103.544471 18.823529 185.163294 49.935059 247.356235a280.576 280.576 0 0 0 33.039059 52.193883l2.620235 3.102117 4.517647 5.12 3.46353 3.614118 2.349176 2.168471a26.352941 26.352941 0 1 1-33.731765 40.478117c-15.872-13.221647-37.948235-40.207059-59.422117-83.124706-34.785882-69.571765-55.476706-159.262118-55.476706-270.908235a184.470588 184.470588 0 0 0-289.520941-151.67247 26.352941 26.352941 0 1 1-30.057412-43.279059 236.062118 236.062118 0 0 1 71.077647-33.490824l-6.234353 0.030118A70.264471 70.264471 0 0 1 527.058824 150.588235z" fill="#568af2" /></svg>