<svg class="icon" style="width: 1em;height: 1em;vertical-align: middle;fill: currentColor;overflow: hidden;" viewBox="0 0 1024 1024" version="1.1" xmlns="http://www.w3.org/2000/svg" width="32" height="32"><path d="M522.029176 569.735529a26.352941 26.352941 0 0 1 3.312942 52.495059l-3.312942 0.210824H240.941176a26.352941 26.352941 0 0 1-3.312941-52.525177l3.312941-0.180706h281.088zM522.029176 727.853176a26.352941 26.352941 0 0 1 3.312942 52.495059l-3.312942 0.210824H240.941176a26.352941 26.352941 0 0 1-3.312941-52.525177l3.312941-0.180706h281.088zM803.147294 411.617882a26.352941 26.352941 0 0 1 3.312941 52.495059l-3.312941 0.210824H240.941176a26.352941 26.352941 0 0 1-3.312941-52.525177l3.312941-0.180706h562.206118zM803.147294 253.500235a26.352941 26.352941 0 0 1 3.312941 52.495059l-3.312941 0.210824H240.941176a26.352941 26.352941 0 0 1-3.312941-52.525177L240.941176 253.500235h562.206118zM803.147294 657.558588a26.352941 26.352941 0 0 1 3.312941 52.525177l-3.312941 0.180706h-175.706353a26.352941 26.352941 0 0 1-3.312941-52.495059l3.312941-0.210824h175.706353z" fill="#568af2" /><path d="M715.294118 569.735529c13.432471 0 24.515765 10.029176 26.142117 23.04l0.210824 3.312942v175.676235a26.352941 26.352941 0 0 1-52.495059 3.312941l-0.210824-3.312941v-175.676235c0-14.576941 11.806118-26.352941 26.352942-26.352942z" fill="#568af2" /></svg>