<svg class="icon" style="width: 1em;height: 1em;vertical-align: middle;fill: currentColor;overflow: hidden;" viewBox="0 0 1024 1024" version="1.1" xmlns="http://www.w3.org/2000/svg" width="32" height="32"><path d="M818.206118 253.500235c32.406588 0 58.970353 25.088 61.319529 56.892236l0.150588 4.577882v421.647059a61.500235 61.500235 0 0 1-56.892235 61.319529l-4.577882 0.180706h-632.470589a61.500235 61.500235 0 0 1-61.319529-56.922353l-0.180706-4.577882v-421.647059c0-32.406588 25.088-58.970353 56.922353-61.319529l4.577882-0.150589h632.470589zM660.088471 481.882353a96.617412 96.617412 0 1 0 0 193.264941 96.617412 96.617412 0 0 0 0-193.264941z m-316.235295 0a96.617412 96.617412 0 1 0 0 193.264941 96.617412 96.617412 0 0 0 0-193.264941z m316.235295 52.705882a43.911529 43.911529 0 1 1 0 87.853177 43.911529 43.911529 0 0 1 0-87.853177z m-316.235295 0a43.911529 43.911529 0 1 1 0 87.853177 43.911529 43.911529 0 0 1 0-87.853177z m389.963295-228.382117H270.095059c-2.409412 16.173176 1.505882 33.551059 13.673412 48.128l29.30447 35.147294c11.685647 14.034824 28.973176 22.136471 47.224471 22.13647h283.316706c18.251294 0 35.538824-8.131765 47.254588-22.13647l29.274353-35.147294a60.355765 60.355765 0 0 0 13.673412-48.128z m-60.928 0c7.469176 0 11.535059 8.673882 6.77647 14.396235l-29.30447 35.147294a8.794353 8.794353 0 0 1-6.746353 3.162353h-283.316706a8.794353 8.794353 0 0 1-6.746353-3.162353l-29.274353-35.147294a8.794353 8.794353 0 0 1 6.746353-14.396235h341.865412z" fill="#568af2" /></svg>