<svg class="icon" style="width: 1em;height: 1em;vertical-align: middle;fill: currentColor;overflow: hidden;" viewBox="0 0 1024 1024" version="1.1" xmlns="http://www.w3.org/2000/svg" width="32" height="32"><path d="M501.970824 124.235294a26.352941 26.352941 0 0 1 0 52.705882c-179.501176 0-325.029647 145.528471-325.029648 325.029648s145.528471 324.999529 325.029648 324.999529 324.999529-145.498353 324.999529-324.999529a323.945412 323.945412 0 0 0-38.279529-153.238589 26.352941 26.352941 0 1 1 46.441411-24.877176 375.958588 375.958588 0 0 1 44.574118 178.115765c0 208.594824-169.140706 377.705412-377.735529 377.705411-208.624941 0-377.735529-169.110588-377.73553-377.705411 0-208.624941 169.110588-377.735529 377.73553-377.73553z m193.234823 0c51.983059 0 96.647529 33.490824 96.647529 79.058824s-44.664471 79.058824-96.647529 79.058823c-15.661176 0-30.629647-3.011765-43.911529-8.523294v228.803765a149.323294 149.323294 0 1 1-52.705883-114.537412V194.499765A26.202353 26.202353 0 0 1 602.352941 180.916706c11.836235-33.731765 49.844706-56.681412 92.852706-56.681412z" fill="#568af2" /></svg>