<svg class="icon" style="width: 1em;height: 1em;vertical-align: middle;fill: currentColor;overflow: hidden;" viewBox="0 0 1024 1024" version="1.1" xmlns="http://www.w3.org/2000/svg" width="32" height="32"><path d="M851.877647 177.362824l0.210824 3.343058v534.076236a89.6 89.6 0 0 1-84.329412 89.449411l-5.270588 0.150589h-68.517647a87.853176 87.853176 0 0 1-5.180236-175.525647l5.180236-0.150589h105.381647v-271.962353l-386.499765 91.52753v336.805647a89.6 89.6 0 0 1-84.329412 89.449412l-5.270588 0.150588H272.323765a87.853176 87.853176 0 1 1 0-175.706353h87.823059V286.117647c0-11.083294 6.927059-20.841412 17.076705-24.666353l3.132236-0.963765 439.205647-105.411764a26.352941 26.352941 0 0 1 32.316235 22.287059z m-52.525176 36.743529l-386.499765 92.762353v87.250823l386.499765-91.497411V214.106353z" fill="#568af2" /></svg>