<svg class="icon" style="width: 1em;height: 1em;vertical-align: middle;fill: currentColor;overflow: hidden;" viewBox="0 0 1024 1024" version="1.1" xmlns="http://www.w3.org/2000/svg" width="32" height="32"><path d="M517.029647 184.470588h0.722824c1.746824 0.060235 3.493647 0.301176 5.270588 0.692706l-2.831059-0.481882a24.636235 24.636235 0 0 1 3.614118 0.662588l225.581176 52.766118a26.352941 26.352941 0 0 1 20.329412 25.660235v142.456471a26.352941 26.352941 0 0 1-32.436706 25.6l-193.927529-45.95953V754.748235a114.898824 114.898824 0 0 1-108.965647 114.748236l-5.903059 0.150588H359.604706a114.898824 114.898824 0 0 1-114.898824-114.898824v-16.173176a114.898824 114.898824 0 0 1 114.898824-114.898824h131.041882V210.823529c0-5.601882 1.776941-10.782118 4.728471-15.058823l1.927529-2.409412a26.593882 26.593882 0 0 1 19.184941-8.884706h0.542118z" fill="#568af2" /></svg>