<svg class="icon" style="width: 1em;height: 1em;vertical-align: middle;fill: currentColor;overflow: hidden;" viewBox="0 0 1024 1024" version="1.1" xmlns="http://www.w3.org/2000/svg" width="32" height="32"><path d="M879.676235 803.147294a26.352941 26.352941 0 0 1-23.04 26.142118l-3.312941 0.210823H150.588235a26.352941 26.352941 0 0 1-26.142117-23.070117l-0.210824-3.312942V240.941176c0-13.432471 10.059294-24.515765 23.04-26.142117L150.588235 214.588235h702.735059c13.432471 0 24.545882 10.059294 26.172235 23.04l0.180706 3.312941v562.206118zM282.352941 548.382118h-52.705882V662.588235l0.210823 3.312941a26.352941 26.352941 0 0 0 52.284236 0l0.210823-3.312941v-114.206117z m105.411765 0h-52.705882V662.588235l0.210823 3.312941a26.352941 26.352941 0 0 0 52.284235 0l0.210824-3.312941v-114.206117z m175.676235 0h-52.705882V662.588235l0.210823 3.312941a26.352941 26.352941 0 0 0 52.314353 0l0.180706-3.312941v-114.206117z m105.411765 0h-52.705882V662.588235l0.210823 3.312941a26.352941 26.352941 0 0 0 52.314353 0l0.180706-3.312941v-114.206117z m105.411765 0h-52.705883V662.588235l0.210824 3.312941a26.352941 26.352941 0 0 0 52.314353 0l0.180706-3.312941v-114.206117z m52.705882-281.088H176.941176v228.382117h650.029177V267.294118z" fill="#568af2" /></svg>