<svg class="icon" style="width: 1em;height: 1em;vertical-align: middle;fill: currentColor;overflow: hidden;" viewBox="0 0 1024 1024" version="1.1" xmlns="http://www.w3.org/2000/svg" width="32" height="32"><path d="M272.143059 252.416a26.352941 26.352941 0 0 1 0 37.285647 323.855059 323.855059 0 0 0-95.201883 229.797647c0 87.401412 34.635294 169.261176 95.171765 229.827765a26.352941 26.352941 0 1 1-37.255529 37.285647 376.560941 376.560941 0 0 1-110.622118-267.083294c0-101.526588 40.267294-196.728471 110.622118-267.113412a26.352941 26.352941 0 0 1 37.285647 0z m496.911059 0a376.560941 376.560941 0 0 1 110.622117 267.113412c0 101.496471-40.267294 196.728471-110.622117 267.083294a26.352941 26.352941 0 1 1-37.25553-37.285647 323.855059 323.855059 0 0 0 95.171765-229.797647c0-87.401412-34.635294-169.261176-95.171765-229.827765a26.352941 26.352941 0 0 1 37.25553-37.285647zM346.654118 326.957176a26.352941 26.352941 0 0 1 0 37.285648 218.804706 218.804706 0 0 0-64.331294 155.286588c0 59.030588 23.371294 114.326588 64.331294 155.286588a26.352941 26.352941 0 0 1-37.285647 37.255529 271.480471 271.480471 0 0 1-79.75153-192.542117c0-73.185882 29.033412-141.854118 79.75153-192.572236a26.352941 26.352941 0 0 1 37.285647 0z m347.828706 0a271.480471 271.480471 0 0 1 79.751529 192.572236c0 73.185882-29.033412 141.824-79.751529 192.542117a26.352941 26.352941 0 1 1-37.25553-37.255529 218.804706 218.804706 0 0 0 64.301177-155.286588 218.804706 218.804706 0 0 0-64.301177-155.286588 26.352941 26.352941 0 0 1 37.25553-37.285648z m-136.643765 95.924706c51.260235 0 93.424941 39.755294 93.424941 89.6 0 34.635294-17.257412 65.355294-46.923294 96.888471-3.222588 3.403294-6.505412 6.776471-10.059294 10.270118l-5.51153 5.330823-20.058353 18.672941a409.6 409.6 0 0 1-52.766117 38.731294 26.352941 26.352941 0 0 1-28.03953 0 409.6 409.6 0 0 1-52.766117-38.761411l-7.198118-6.53553-18.371765-17.438117a369.182118 369.182118 0 0 1-10.059294-10.270118c-29.635765-31.503059-46.923294-62.283294-46.923294-96.888471 0-49.844706 42.164706-89.6 93.455059-89.6 16.414118 0 32.165647 4.126118 45.929412 11.565177l5.782588 3.403294 4.156235 2.861176 4.216471-2.861176c11.444706-7.318588 24.576-12.167529 38.460235-14.064941l7.017412-0.692706 6.234353-0.210824z" fill="#568af2" /></svg>