<svg class="icon" style="width: 1em;height: 1em;vertical-align: middle;fill: currentColor;overflow: hidden;" viewBox="0 0 1024 1024" version="1.1" xmlns="http://www.w3.org/2000/svg" width="32" height="32"><path d="M888.470588 632.470588v114.206118a61.500235 61.500235 0 0 1-61.500235 61.470118h-79.058824V632.470588H888.470588zM695.205647 193.264941v614.881883h-368.941176V193.264941h368.941176zM273.558588 632.470588v175.676236H194.499765a61.500235 61.500235 0 0 1-61.470118-61.470118V632.470588h140.528941z m158.117647-219.617882v175.706353a26.352941 26.352941 0 0 0 40.357647 22.347294l140.528942-87.853177a26.352941 26.352941 0 0 0 0-44.694588l-140.559059-87.853176a26.352941 26.352941 0 0 0-40.32753 22.347294zM888.470588 421.647059v158.117647h-140.559059V421.647059H888.470588zM273.558588 421.647059v158.117647H133.029647V421.647059h140.528941z m553.411765-228.382118c33.972706 0 61.500235 27.527529 61.500235 61.470118v114.206117h-140.559059V193.264941z m-553.411765 0v175.676235H133.029647V254.735059c0-33.942588 27.527529-61.470118 61.470118-61.470118h79.058823z" fill="#568af2" /></svg>