<svg class="icon" style="width: 1em;height: 1em;vertical-align: middle;fill: currentColor;overflow: hidden;" viewBox="0 0 1024 1024" version="1.1" xmlns="http://www.w3.org/2000/svg" width="32" height="32"><path d="M501.970824 124.235294c208.594824 0 377.705412 169.110588 377.705411 377.73553 0 208.594824-169.110588 377.705412-377.705411 377.705411-208.624941 0-377.735529-169.110588-377.73553-377.705411 0-208.624941 169.110588-377.735529 377.73553-377.73553z m87.823058 175.676235c-38.189176 0-72.583529 19.937882-103.363764 52.10353l-5.632 6.113882-5.300706 6.02353c-5.12 5.963294-9.637647 11.806118-13.643294 17.317647l-4.48753 6.384941h-59.060706l-4.156235 0.210823a45.778824 45.778824 0 0 0-41.532235 45.688471v134.957176l0.210823 4.156236 0.542118 4.065882c3.855059 21.383529 22.467765 37.647059 44.935529 37.647059h58.910118l0.752941 1.084235 4.577883 6.565647c6.505412 9.035294 14.456471 18.853647 23.732705 28.762353 30.780235 32.737882 65.204706 53.007059 103.514353 53.007059a26.352941 26.352941 0 0 0 26.352942-26.352941V326.264471l-0.180706-3.312942a26.352941 26.352941 0 0 0-26.172236-23.04z m-26.352941 59.060706v285.816471l-3.312941-1.626353-5.903059-3.373177a149.534118 149.534118 0 0 1-29.515294-24.907294 235.128471 235.128471 0 0 1-22.196706-27.617882l-5.541647-8.432941-2.108235-3.523765-1.92753-2.951529-2.288941-2.650353a26.352941 26.352941 0 0 0-18.733176-7.830588h-66.590118v-121.313883h66.56l3.523765-0.210823a26.352941 26.352941 0 0 0 19.365647-13.040942l2.108235-3.463529 5.51153-8.252235 5.059764-6.927059c5.210353-6.927059 10.932706-13.763765 17.076706-20.178824 11.745882-12.288 23.672471-21.744941 35.478588-27.858823l3.433412-1.656471z" fill="#568af2" /></svg>