<svg class="icon" style="width: 1em;height: 1em;vertical-align: middle;fill: currentColor;overflow: hidden;" viewBox="0 0 1024 1024" version="1.1" xmlns="http://www.w3.org/2000/svg" width="32" height="32"><path d="M0 0h1024v1024H0z" fill="#568af2" fill-opacity="0" /><path d="M501.970824 124.235294c104.899765 0 202.992941 43.008 273.829647 117.549177a378.036706 378.036706 0 0 1 75.535058 116.374588 26.352941 26.352941 0 1 1-48.730353 20.08847 325.330824 325.330824 0 0 0-64.993882-100.141176 323.975529 323.975529 0 0 0-235.64047-101.165177c-167.936 0-306.115765 127.337412-323.252706 290.725648l-0.722824 7.920941h148.269177c7.951059 0 15.420235 3.614118 20.389647 9.637647l1.957647 2.770823 62.945882 100.713412 137.095529-274.221176a26.352941 26.352941 0 0 1 42.88753-6.174118l2.288941 2.861176 115.109647 164.412236h144.384c13.432471 0 24.545882 10.059294 26.172235 23.070117l0.180706 3.312942c0 208.594824-169.110588 377.705412-377.705411 377.705411-100.201412 0-194.288941-39.213176-264.432942-107.971764a378.428235 378.428235 0 0 1-81.859764-118.66353 26.352941 26.352941 0 1 1 48.308706-21.082353c16.685176 38.249412 40.658824 72.884706 70.475294 102.098824a323.824941 323.824941 0 0 0 227.508706 92.912941c167.905882 0 306.085647-127.337412 323.222588-290.725647l0.692706-7.951059h-130.680471a26.352941 26.352941 0 0 1-19.275294-8.372706l-2.288941-2.861176-97.641412-139.444706-138.300235 276.690823a26.352941 26.352941 0 0 1-43.851294 5.059765l-2.078118-2.891294-80.112941-128.180706H150.588235a26.352941 26.352941 0 0 1-26.142117-23.04l-0.210824-3.312941c0-208.594824 169.110588-377.705412 377.73553-377.705412z" fill="#568af2" /></svg>