<svg class="icon" style="width: 1em;height: 1em;vertical-align: middle;fill: currentColor;overflow: hidden;" viewBox="0 0 1024 1024" version="1.1" xmlns="http://www.w3.org/2000/svg" width="32" height="32"><path d="M803.147294 411.617882a26.352941 26.352941 0 0 1 3.312941 52.495059l-3.312941 0.210824h-281.118118a26.352941 26.352941 0 0 1-3.312941-52.525177l3.312941-0.180706h281.118118z m0-158.117647a26.352941 26.352941 0 0 1 3.312941 52.495059l-3.312941 0.210824h-281.118118a26.352941 26.352941 0 0 1-3.312941-52.525177l3.312941-0.180706h281.118118z m0 491.91153a26.352941 26.352941 0 0 1 3.312941 52.495059l-3.312941 0.210823H240.941176a26.352941 26.352941 0 0 1-3.312941-52.495059L240.941176 745.411765h562.206118z m0-175.676236a26.352941 26.352941 0 0 1 3.312941 52.495059l-3.312941 0.210824H240.941176a26.352941 26.352941 0 0 1-3.312941-52.525177l3.312941-0.180706h562.206118zM214.588235 279.853176v175.676236a26.352941 26.352941 0 0 0 40.32753 22.347294l140.528941-87.853177a26.352941 26.352941 0 0 0 0-44.694588L254.915765 257.505882a26.352941 26.352941 0 0 0-40.32753 22.347294z" fill="#568af2" /></svg>