<svg class="icon" style="width: 1em;height: 1em;vertical-align: middle;fill: currentColor;overflow: hidden;" viewBox="0 0 1024 1024" version="1.1" xmlns="http://www.w3.org/2000/svg" width="32" height="32"><path d="M501.970824 124.235294a272.323765 272.323765 0 0 1 272.173176 264.282353l0.120471 8.041412v324.999529h79.058823a26.352941 26.352941 0 0 1 3.312941 52.525177l-3.312941 0.180706h-237.507765a114.206118 114.206118 0 0 1-227.689411 0H150.588235a26.352941 26.352941 0 0 1-3.312941-52.495059l3.312941-0.210824h79.058824V396.559059a272.323765 272.323765 0 0 1 272.323765-272.323765z m71.890823 233.743059l-2.710588 2.379294-69.210353 69.180235-69.180235-69.180235-2.710589-2.379294a26.352941 26.352941 0 0 0-36.924235 36.924235l2.349177 2.710588L464.715294 466.823529l-69.210353 69.210353-2.349176 2.710589a26.352941 26.352941 0 0 0 36.924235 36.924235l2.710588-2.379294 69.180236-69.210353 69.24047 69.210353 2.710588 2.379294a26.352941 26.352941 0 0 0 36.894118-36.924235l-2.349176-2.710589-69.210353-69.210353 69.210353-69.210353 2.349176-2.710588a26.352941 26.352941 0 0 0-36.924235-36.924235z" fill="#568af2" /></svg>