<svg class="icon" style="width: 1em;height: 1em;vertical-align: middle;fill: currentColor;overflow: hidden;" viewBox="0 0 1024 1024" version="1.1" xmlns="http://www.w3.org/2000/svg" width="32" height="32"><path d="M501.970824 124.235294c208.594824 0 377.705412 169.110588 377.705411 377.73553a26.352941 26.352941 0 0 1-52.705882 0c0-179.501176-145.498353-325.029647-324.999529-325.029648S176.941176 322.469647 176.941176 501.970824s145.528471 324.999529 325.029648 324.999529a26.352941 26.352941 0 0 1 0 52.705882c-208.624941 0-377.735529-169.110588-377.73553-377.705411 0-208.624941 169.110588-377.735529 377.73553-377.73553z m229.285647 491.91153c13.432471 0 24.515765 10.059294 26.142117 23.070117l0.210824 3.312941-0.030118 60.566589h60.626824a26.352941 26.352941 0 0 1 3.312941 52.525176l-3.312941 0.210824-60.626824-0.030118v62.403765a26.352941 26.352941 0 0 1-52.495059 3.312941l-0.180706-3.312941-0.030117-62.403765h-62.34353a26.352941 26.352941 0 0 1-3.312941-52.495059l3.312941-0.180706 62.34353-0.030117v-60.596706c0-14.546824 11.806118-26.352941 26.383059-26.352941z m-325.933177-235.91153a26.352941 26.352941 0 0 1 39.544471-22.829176l210.823529 121.735529a26.352941 26.352941 0 0 1 0 45.628235l-210.823529 121.73553a26.352941 26.352941 0 0 1-39.544471-22.829177z" fill="#568af2" /></svg>