<svg class="icon" style="width: 1em;height: 1em;vertical-align: middle;fill: currentColor;overflow: hidden;" viewBox="0 0 1024 1024" version="1.1" xmlns="http://www.w3.org/2000/svg" width="32" height="32"><path d="M501.970824 244.705882a272.323765 272.323765 0 0 1 272.173176 264.282353l0.120471 8.041412v8.764235h43.941647c32.406588 0 58.970353 25.088 61.319529 56.922353l0.150588 4.577883v140.559058a61.500235 61.500235 0 0 1-61.470117 61.470118h-70.294589a26.352941 26.352941 0 0 1-26.352941-26.352941v-245.940706a219.617882 219.617882 0 0 0-439.115294-7.258353l-0.090353 7.228235v245.970824a26.352941 26.352941 0 0 1-23.04 26.172235l-3.312941 0.180706H185.735529A61.500235 61.500235 0 0 1 124.385882 732.461176l-0.180706-4.577882V587.294118c0-32.406588 25.088-58.970353 56.922353-61.31953l4.577883-0.180706h43.911529v-8.764235a272.323765 272.323765 0 0 1 272.323765-272.323765z m-11.535059 295.695059l1.385411 3.433412 45.266824 135.770353 10.149647-30.358588a26.352941 26.352941 0 0 1 21.624471-17.829647l3.373176-0.210824h70.264471a26.352941 26.352941 0 0 1 3.312941 52.525177l-3.312941 0.180705h-51.260236l-29.153882 87.401412c-7.589647 22.829176-38.640941 23.973647-48.609882 3.433412l-1.385412-3.433412-45.266824-135.80047-10.149647 30.388705a26.352941 26.352941 0 0 1-21.62447 17.79953l-3.373177 0.210823H361.411765a26.352941 26.352941 0 0 1-3.312941-52.495058l3.312941-0.210824h51.260235l29.153882-87.371294c7.619765-22.829176 38.671059-23.973647 48.609883-3.433412z" fill="#568af2" /></svg>