<svg class="icon" style="width: 1em;height: 1em;vertical-align: middle;fill: currentColor;overflow: hidden;" viewBox="0 0 1024 1024" version="1.1" xmlns="http://www.w3.org/2000/svg" width="32" height="32"><path d="M853.323294 154.352941c14.576941 0 26.352941 11.806118 26.352941 26.352941v456.794353a26.352941 26.352941 0 0 1-26.352941 26.352941H150.588235a26.352941 26.352941 0 0 1-26.352941-26.352941V180.705882c0-14.546824 11.806118-26.352941 26.352941-26.352941z m-374.663529 160.888471a26.352941 26.352941 0 0 0-38.189177 23.582117v140.559059l0.180706 3.252706a26.352941 26.352941 0 0 0 40.779294 18.672941l105.411765-70.294588 2.921412-2.228706a26.352941 26.352941 0 0 0-2.921412-41.622588l-105.411765-70.264471z m14.516706 72.82447l31.533176 21.022118-31.533176 21.022118v-42.044236z m-166.912 328.493177c34.424471 0 63.698824 21.985882 74.571294 52.675765h417.370353a26.352941 26.352941 0 0 1 3.312941 52.525176l-3.312941 0.210824H400.835765a79.088941 79.088941 0 0 1-149.112471 0H185.735529a26.352941 26.352941 0 0 1-3.312941-52.525177l3.312941-0.180706 65.957647-0.030117a79.088941 79.088941 0 0 1 74.571295-52.705883z m0 52.705882a26.352941 26.352941 0 1 0 0 52.705883 26.352941 26.352941 0 0 0 0-52.705883z" fill="#568af2" /></svg>