<svg class="icon" style="width: 1em;height: 1em;vertical-align: middle;fill: currentColor;overflow: hidden;" viewBox="0 0 1024 1024" version="1.1" xmlns="http://www.w3.org/2000/svg" width="32" height="32"><path d="M268.559059 795.617882a26.352941 26.352941 0 0 1 3.312941 52.495059l-3.312941 0.210824H180.705882a26.352941 26.352941 0 0 1-3.312941-52.525177l3.312941-0.180706h87.853177zM268.559059 690.206118a26.352941 26.352941 0 0 1 3.312941 52.495058l-3.312941 0.210824H180.705882a26.352941 26.352941 0 0 1-3.312941-52.525176l3.312941-0.180706h87.853177zM268.559059 584.794353a26.352941 26.352941 0 0 1 3.312941 52.495059l-3.312941 0.210823H180.705882a26.352941 26.352941 0 0 1-3.312941-52.525176l3.312941-0.180706h87.853177zM268.559059 479.382588a26.352941 26.352941 0 0 1 3.312941 52.495059l-3.312941 0.210824H180.705882a26.352941 26.352941 0 0 1-3.312941-52.525177l3.312941-0.180706h87.853177zM461.793882 795.617882a26.352941 26.352941 0 0 1 3.312942 52.495059l-3.312942 0.210824h-87.823058a26.352941 26.352941 0 0 1-3.312942-52.525177l3.312942-0.180706h87.823058zM461.793882 690.206118a26.352941 26.352941 0 0 1 3.312942 52.495058l-3.312942 0.210824h-87.823058a26.352941 26.352941 0 0 1-3.312942-52.525176l3.312942-0.180706h87.823058zM461.793882 584.794353a26.352941 26.352941 0 0 1 3.312942 52.495059l-3.312942 0.210823h-87.823058a26.352941 26.352941 0 0 1-3.312942-52.525176l3.312942-0.180706h87.823058zM461.793882 479.382588a26.352941 26.352941 0 0 1 3.312942 52.495059l-3.312942 0.210824h-87.823058a26.352941 26.352941 0 0 1-3.312942-52.525177l3.312942-0.180706h87.823058zM461.793882 373.970824a26.352941 26.352941 0 0 1 3.312942 52.495058l-3.312942 0.210824h-87.823058a26.352941 26.352941 0 0 1-3.312942-52.525177l3.312942-0.180705h87.823058zM461.793882 268.559059a26.352941 26.352941 0 0 1 3.312942 52.495059l-3.312942 0.210823h-87.823058a26.352941 26.352941 0 0 1-3.312942-52.525176l3.312942-0.180706h87.823058zM461.793882 163.147294a26.352941 26.352941 0 0 1 3.312942 52.495059l-3.312942 0.210823h-87.823058a26.352941 26.352941 0 0 1-3.312942-52.525176l3.312942-0.180706h87.823058zM655.058824 795.617882a26.352941 26.352941 0 0 1 3.312941 52.495059l-3.312941 0.210824h-87.853177a26.352941 26.352941 0 0 1-3.312941-52.525177l3.312941-0.180706h87.853177zM848.323765 795.617882a26.352941 26.352941 0 0 1 3.312941 52.495059l-3.312941 0.210824H760.470588a26.352941 26.352941 0 0 1-3.312941-52.525177l3.312941-0.180706h87.853177zM655.058824 690.206118a26.352941 26.352941 0 0 1 3.312941 52.495058l-3.312941 0.210824h-87.853177a26.352941 26.352941 0 0 1-3.312941-52.525176l3.312941-0.180706h87.853177zM848.323765 690.206118a26.352941 26.352941 0 0 1 3.312941 52.495058l-3.312941 0.210824H760.470588a26.352941 26.352941 0 0 1-3.312941-52.525176l3.312941-0.180706h87.853177zM655.058824 584.794353a26.352941 26.352941 0 0 1 3.312941 52.495059l-3.312941 0.210823h-87.853177a26.352941 26.352941 0 0 1-3.312941-52.525176l3.312941-0.180706h87.853177zM848.323765 584.794353a26.352941 26.352941 0 0 1 3.312941 52.495059l-3.312941 0.210823H760.470588a26.352941 26.352941 0 0 1-3.312941-52.525176l3.312941-0.180706h87.853177zM848.323765 479.382588a26.352941 26.352941 0 0 1 3.312941 52.495059l-3.312941 0.210824H760.470588a26.352941 26.352941 0 0 1-3.312941-52.525177l3.312941-0.180706h87.853177zM848.323765 373.970824a26.352941 26.352941 0 0 1 3.312941 52.495058l-3.312941 0.210824H760.470588a26.352941 26.352941 0 0 1-3.312941-52.525177l3.312941-0.180705h87.853177z" fill="#568af2" /></svg>