<svg class="icon" style="width: 1em;height: 1em;vertical-align: middle;fill: currentColor;overflow: hidden;" viewBox="0 0 1024 1024" version="1.1" xmlns="http://www.w3.org/2000/svg" width="32" height="32"><path d="M768 458.029176c14.546824 0 26.352941 11.806118 26.352941 26.352942 0 151.220706-115.772235 275.395765-263.529412 288.707764v80.233412a26.352941 26.352941 0 0 1-52.495058 3.312941l-0.210824-3.312941V773.12c-147.727059-13.312-263.529412-137.487059-263.529412-288.707765a26.352941 26.352941 0 0 1 52.705883 0 237.176471 237.176471 0 1 0 474.352941 0c0-14.546824 11.806118-26.352941 26.352941-26.352941zM504.470588 124.235294a149.323294 149.323294 0 0 1 149.202824 142.848l0.12047 6.475294v228.412236a149.323294 149.323294 0 0 1-298.526117 6.475294l-0.120471-6.475294V273.558588a149.323294 149.323294 0 0 1 149.323294-149.323294z" fill="#568af2" /></svg>