<svg class="icon" style="width: 1em;height: 1em;vertical-align: middle;fill: currentColor;overflow: hidden;" viewBox="0 0 1024 1024" version="1.1" xmlns="http://www.w3.org/2000/svg" width="32" height="32"><path d="M263.529412 458.029176c14.546824 0 26.352941 11.806118 26.352941 26.352942a237.176471 237.176471 0 0 0 316.235294 223.683764 26.352941 26.352941 0 1 1 17.558588 49.694118 288.496941 288.496941 0 0 1-70.234353 15.329882l-0.030117 80.233412a26.352941 26.352941 0 0 1-52.495059 3.312941l-0.210824-3.312941V773.12c-147.727059-13.312-263.529412-137.487059-263.529411-288.707765 0-14.546824 11.806118-26.352941 26.352941-26.352941zM527.058824 124.235294a149.323294 149.323294 0 0 1 149.202823 142.848l0.120471 6.475294v228.412236c0 31.713882-9.878588 61.108706-26.744471 85.293176l212.299294 212.299294a26.352941 26.352941 0 0 1-34.575059 39.634824l-2.710588-2.379294-212.299294-212.269177a149.323294 149.323294 0 0 1-234.496-116.103529l-0.120471-6.475294-0.030117-112.097883-185.524706-185.524706A26.352941 26.352941 0 0 1 226.785882 164.743529l2.710589 2.349177 148.239058 148.239059V273.558588a149.323294 149.323294 0 0 1 142.878118-149.172706l6.475294-0.150588z m263.529411 333.793882c14.546824 0 26.352941 11.806118 26.352941 26.352942a288.978824 288.978824 0 0 1-24.124235 115.952941 26.352941 26.352941 0 0 1-48.308706-21.082353c12.950588-29.635765 19.727059-61.741176 19.727059-94.870588 0-14.546824 11.806118-26.352941 26.352941-26.352942z" fill="#568af2" /></svg>