<svg class="icon" style="width: 1em;height: 1em;vertical-align: middle;fill: currentColor;overflow: hidden;" viewBox="0 0 1024 1024" version="1.1" xmlns="http://www.w3.org/2000/svg" width="32" height="32"><path d="M615.634824 184.470588l2.620235 0.210824 0.662588 0.12047 1.054118 0.150589 1.716706 0.391529 225.581176 52.766118c10.842353 2.529882 18.763294 11.535059 20.118588 22.347294l0.210824 3.312941v142.456471c0 15.872-13.854118 27.858824-29.123765 26.202352l-3.312941-0.602352-193.927529-45.95953V754.748235a114.898824 114.898824 0 0 1-108.965648 114.748236l-5.903058 0.150588H457.487059a114.898824 114.898824 0 0 1-114.748235-108.995765l-0.150589-5.903059v-16.173176a114.898824 114.898824 0 0 1 108.995765-114.748235l5.903059-0.150589h131.041882V210.823529c0-5.601882 1.776941-10.782118 4.728471-15.058823l1.927529-2.409412a26.624 26.624 0 0 1 19.184941-8.884706h1.264942z m-229.135059 316.235294a26.352941 26.352941 0 0 1 3.312941 52.495059l-3.312941 0.210824H210.823529a26.352941 26.352941 0 0 1-3.312941-52.495059l3.312941-0.210824h175.676236z m70.294588-140.559058a26.352941 26.352941 0 0 1 3.312941 52.525176l-3.312941 0.180706H210.823529a26.352941 26.352941 0 0 1-3.312941-52.495059l3.312941-0.210823h245.970824z m0-140.528942a26.352941 26.352941 0 0 1 3.312941 52.495059l-3.312941 0.210824H210.823529a26.352941 26.352941 0 0 1-3.312941-52.525177L210.823529 219.617882h245.970824z" fill="#568af2" /></svg>