<svg class="icon" style="width: 1em;height: 1em;vertical-align: middle;fill: currentColor;overflow: hidden;" viewBox="0 0 1024 1024" version="1.1" xmlns="http://www.w3.org/2000/svg" width="32" height="32"><path d="M501.970824 124.235294c208.594824 0 377.705412 169.110588 377.705411 377.73553a26.352941 26.352941 0 0 1-52.705882 0c0-179.501176-145.498353-325.029647-324.999529-325.029648S176.941176 322.469647 176.941176 501.970824s145.528471 324.999529 325.029648 324.999529a26.352941 26.352941 0 0 1 0 52.705882c-208.624941 0-377.735529-169.110588-377.73553-377.705411 0-208.624941 169.110588-377.735529 377.73553-377.73553z m317.289411 517.210353c9.426824 9.426824 10.24 24.244706 2.349177 34.575059l-2.349177 2.710588-51.621647 51.621647 51.621647 51.651765a26.352941 26.352941 0 0 1-34.575059 39.604706l-2.710588-2.349177-51.621647-51.621647-51.651765 51.621647a26.352941 26.352941 0 0 1-39.604705-34.575059l2.349176-2.710588 51.621647-51.621647-51.621647-51.651765a26.352941 26.352941 0 0 1 34.575059-39.604705l2.710588 2.349176 51.621647 51.621647 51.651765-51.621647a26.352941 26.352941 0 0 1 37.255529 0z m-413.936941-261.210353a26.352941 26.352941 0 0 1 39.544471-22.829176l210.823529 121.735529a26.352941 26.352941 0 0 1 0 45.628235l-210.823529 121.73553a26.352941 26.352941 0 0 1-39.544471-22.829177z" fill="#568af2" /></svg>