<svg class="icon" style="width: 1em;height: 1em;vertical-align: middle;fill: currentColor;overflow: hidden;" viewBox="0 0 1024 1024" version="1.1" xmlns="http://www.w3.org/2000/svg" width="32" height="32"><path d="M150.588235 264.794353c13.432471 0 24.515765 10.029176 26.142118 23.04l0.210823 3.312941v430.411294h430.441412c13.432471 0 24.515765 10.059294 26.142118 23.070118l0.210823 3.312941a26.352941 26.352941 0 0 1-23.070117 26.142118l-3.312941 0.180706H150.588235a26.352941 26.352941 0 0 1-26.142117-23.04l-0.210824-3.312942V291.147294c0-14.576941 11.806118-26.352941 26.352941-26.352941z m562.206118-35.147294c13.432471 0 24.515765 10.059294 26.142118 23.04l0.210823 3.312941v298.676706a26.352941 26.352941 0 0 1-52.525176 3.312941l-0.180706-3.312941-0.030118-272.323765h-289.852235a26.352941 26.352941 0 0 1-26.172235-23.04l-0.180706-3.312941c0-13.432471 10.029176-24.515765 23.04-26.142118l3.312941-0.210823h316.235294z" fill="#568af2" /><path d="M836.367059 306.145882l-140.589177 118.573177a26.352941 26.352941 0 0 0-9.33647 20.148706v114.176c0 7.770353 3.403294 15.149176 9.33647 20.178823l140.559059 118.573177a26.352941 26.352941 0 0 0 43.369412-20.148706V326.264471a26.352941 26.352941 0 0 0-43.369412-20.118589z m-9.396706 76.830118v237.959529l-87.853177-74.149647v-89.690353l87.853177-74.119529zM131.945412 131.945412a26.352941 26.352941 0 0 1 34.575059-2.349177l2.710588 2.349177 702.735059 702.765176a26.352941 26.352941 0 0 1-34.575059 39.604706l-2.710588-2.349176L131.975529 169.261176a26.352941 26.352941 0 0 1 0-37.285647z" fill="#568af2" /></svg>