<svg class="icon" style="width: 1em;height: 1em;vertical-align: middle;fill: currentColor;overflow: hidden;" viewBox="0 0 1024 1024" version="1.1" xmlns="http://www.w3.org/2000/svg" width="32" height="32"><path d="M501.970824 124.235294c208.594824 0 377.705412 169.110588 377.705411 377.73553 0 208.594824-169.110588 377.705412-377.705411 377.705411-208.624941 0-377.735529-169.110588-377.73553-377.705411 0-208.624941 169.110588-377.735529 377.73553-377.73553z m36.141176 175.706353h-1.024a26.834824 26.834824 0 0 0-13.342118 3.614118 30.177882 30.177882 0 0 0-4.788706 3.614117 25.419294 25.419294 0 0 0-6.174117 8.914824 25.630118 25.630118 0 0 0-0.692706 1.807059l-0.240941 0.813176-0.120471 0.421647a26.172235 26.172235 0 0 0-0.451765 1.867294l-0.180705 0.933647a26.895059 26.895059 0 0 0-0.090353 0.572236l-0.060236 0.481882-0.090353 0.813177a26.413176 26.413176 0 0 0-0.12047 2.16847v167.213177h-108.574118l-5.722353 0.150588c-53.007059 2.590118-96.527059 41.200941-96.527059 90.593882v11.745883l0.180706 5.270588c3.072 48.579765 48.399059 85.504 102.098824 85.504h59.030588l5.722353-0.150588c53.007059-2.590118 96.496941-41.200941 96.496941-90.624v-238.290824l74.721883 12.468706 3.312941 0.331294a26.352941 26.352941 0 0 0 5.360941-52.314353l-105.411765-17.588706-0.542117-0.090353a26.563765 26.563765 0 0 0-3.794824-0.271059l2.469647 0.150589z m-27.376941 245.940706v49.784471l-0.210824 3.523764c-2.319059 18.522353-22.738824 34.544941-49.332706 34.544941h-59.030588l-4.909176-0.180705c-25.750588-1.957647-44.634353-19.094588-44.634353-37.888v-11.745883l0.240941-3.493647c2.288941-18.522353 22.738824-34.544941 49.302588-34.544941h108.574118z" fill="#568af2" /></svg>