<svg class="icon" style="width: 1em;height: 1em;vertical-align: middle;fill: currentColor;overflow: hidden;" viewBox="0 0 1024 1024" version="1.1" xmlns="http://www.w3.org/2000/svg" width="32" height="32"><path d="M164.382118 535.190588c0-193.566118 153.238588-350.72 342.588235-350.72 186.428235 0 337.889882 152.365176 342.497882 341.775059l0.090353 8.914824V843.294118a26.352941 26.352941 0 0 1-26.352941 26.352941H752.941176a96.617412 96.617412 0 0 1-96.617411-96.617412v-105.411765A96.617412 96.617412 0 0 1 752.941176 570.970353h43.91153v-35.809882c0-164.743529-129.927529-297.984-289.882353-297.984-157.214118 0-285.455059 128.783059-289.761882 289.641411l-0.120471 8.342589v35.809882h43.941647c51.501176 0 93.635765 40.357647 96.466824 91.166118l0.150588 5.481411v105.411765a96.617412 96.617412 0 0 1-96.617412 96.617412H190.735059A26.352941 26.352941 0 0 1 164.382118 843.294118V535.190588z" fill="#568af2" /></svg>