<svg class="icon" style="width: 1em;height: 1em;vertical-align: middle;fill: currentColor;overflow: hidden;" viewBox="0 0 1024 1024" version="1.1" xmlns="http://www.w3.org/2000/svg" width="32" height="32"><path d="M818.206118 325.029647c33.942588 0 61.470118 27.527529 61.470117 61.470118v386.529882a61.500235 61.500235 0 0 1-61.470117 61.470118h-632.470589a61.500235 61.500235 0 0 1-61.500235-61.470118V386.499765c0-33.942588 27.527529-61.470118 61.500235-61.470118h632.470589z m0 52.705882h-632.470589a8.794353 8.794353 0 0 0-8.794353 8.764236v386.529882c0 4.818824 3.915294 8.764235 8.794353 8.764235h632.470589c4.818824 0 8.764235-3.915294 8.764235-8.764235V386.499765a8.794353 8.794353 0 0 0-8.764235-8.764236z" fill="#568af2" /><path d="M483.328 192.180706a26.352941 26.352941 0 0 1 37.255529 0l140.559059 140.559059c16.594824 16.594824 4.818824 44.995765-18.642823 44.995764H361.411765c-23.491765 0-35.237647-28.400941-18.642824-44.995764l140.559059-140.559059z m18.612706 55.898353l-76.920471 76.92047h153.840941l-76.92047-76.92047zM607.382588 483.147294a26.352941 26.352941 0 0 1 0 52.705882h-316.235294a26.352941 26.352941 0 0 1 0-52.705882h316.235294zM431.676235 623.676235a26.352941 26.352941 0 0 1 0 52.705883H291.147294a26.352941 26.352941 0 1 1 0-52.705883h140.528941z" fill="#568af2" /></svg>