<svg class="icon" style="width: 1em;height: 1em;vertical-align: middle;fill: currentColor;overflow: hidden;" viewBox="0 0 1024 1024" version="1.1" xmlns="http://www.w3.org/2000/svg" width="32" height="32"><path d="M273.558588 214.588235c12.559059 0 23.401412 8.854588 25.840941 21.172706a105.773176 105.773176 0 0 0 15.510589 33.972706c14.546824 20.781176 34.785882 32.707765 64.060235 32.707765 29.274353 0 49.513412-11.926588 64.060235-32.677647a105.773176 105.773176 0 0 0 15.510588-34.002824 26.352941 26.352941 0 0 1 25.840942-21.172706h368.941176c14.576941 0 26.352941 11.806118 26.352941 26.352941v562.206118a26.352941 26.352941 0 0 1-26.352941 26.352941h-368.941176a26.352941 26.352941 0 0 1-25.840942-21.202823 105.773176 105.773176 0 0 0-15.510588-33.972706c-14.546824-20.781176-34.785882-32.677647-64.060235-32.677647-29.274353 0-49.513412 11.896471-64.060235 32.677647a105.773176 105.773176 0 0 0-15.510589 33.972706 26.352941 26.352941 0 0 1-25.840941 21.202823H150.588235a26.352941 26.352941 0 0 1-26.352941-26.352941V240.941176c0-14.546824 11.806118-26.352941 26.352941-26.352941h122.970353z m553.411765 52.705883H503.838118l-0.210824 0.602353a157.153882 157.153882 0 0 1-13.010823 25.449411l-4.397177 6.625883c-23.883294 34.123294-59.632941 55.175529-107.218823 55.175529s-83.365647-21.052235-107.248942-55.175529a158.840471 158.840471 0 0 1-17.438117-32.105412l-0.210824-0.572235H176.941176v509.470117h77.161412l0.210824-0.572235c3.222588-8.011294 7.469176-16.655059 13.040941-25.449412l4.397176-6.625882c23.883294-34.153412 59.632941-55.175529 107.218824-55.17553s83.365647 21.022118 107.218823 55.17553c7.770353 11.053176 13.432471 22.046118 17.468236 32.075294l0.180706 0.572235h323.132235V267.294118z" fill="#568af2" /><path d="M378.970353 407.853176c14.576941 0 26.352941 11.776 26.352941 26.352942v35.117176a26.352941 26.352941 0 1 1-52.705882 0v-35.117176c0-14.576941 11.806118-26.352941 26.352941-26.352942zM378.970353 548.382118c14.576941 0 26.352941 11.806118 26.352941 26.352941v35.147294a26.352941 26.352941 0 1 1-52.705882 0v-35.147294c0-14.546824 11.806118-26.352941 26.352941-26.352941zM712.794353 442.970353a26.352941 26.352941 0 0 1 0 52.705882H519.529412a26.352941 26.352941 0 1 1 0-52.705882h193.264941zM712.794353 548.382118a26.352941 26.352941 0 0 1 0 52.705882H519.529412a26.352941 26.352941 0 1 1 0-52.705882h193.264941z" fill="#568af2" /></svg>