<svg class="icon" style="width: 1em;height: 1em;vertical-align: middle;fill: currentColor;overflow: hidden;" viewBox="0 0 1024 1024" version="1.1" xmlns="http://www.w3.org/2000/svg" width="32" height="32"><path d="M422.912 180.705882c7.830588 0 15.239529 3.463529 20.239059 9.487059L523.083294 286.117647h286.328471c32.406588 0 58.970353 25.088 61.319529 56.922353l0.180706 4.577882v158.117647a26.352941 26.352941 0 0 1-52.705882 0v-158.117647a8.794353 8.794353 0 0 0-8.794353-8.794353h-298.676706a26.352941 26.352941 0 0 1-20.239059-9.487058L410.563765 233.411765h-198.475294a8.794353 8.794353 0 0 0-8.553412 6.77647l-0.240941 2.017883v562.176c0 4.848941 3.915294 8.794353 8.794353 8.794353h263.529411a26.352941 26.352941 0 0 1 0 52.705882h-263.529411A61.500235 61.500235 0 0 1 150.588235 804.382118V242.206118C150.588235 208.233412 178.115765 180.705882 212.088471 180.705882h210.823529z" fill="#568af2" /><path d="M809.411765 619.911529a26.352941 26.352941 0 0 1 0 52.705883h-245.970824a26.352941 26.352941 0 0 1 0-52.705883h245.970824zM809.411765 725.323294a26.352941 26.352941 0 0 1 0 52.705882h-245.970824a26.352941 26.352941 0 0 1 0-52.705882h245.970824z" fill="#568af2" /><path d="M702.945882 539.798588a26.352941 26.352941 0 0 1 37.25553 0l87.853176 87.853177a26.352941 26.352941 0 1 1-37.285647 37.255529L702.945882 577.054118a26.352941 26.352941 0 0 1 0-37.25553zM544.828235 733.063529a26.352941 26.352941 0 0 1 37.25553 0l87.853176 87.823059a26.352941 26.352941 0 1 1-37.285647 37.285647l-87.823059-87.853176a26.352941 26.352941 0 0 1 0-37.25553z" fill="#568af2" /></svg>