<svg class="icon" style="width: 1em;height: 1em;vertical-align: middle;fill: currentColor;overflow: hidden;" viewBox="0 0 1024 1024" version="1.1" xmlns="http://www.w3.org/2000/svg" width="32" height="32"><path d="M790.588235 184.470588a79.058824 79.058824 0 0 1 79.058824 79.058824v527.058823a79.058824 79.058824 0 0 1-79.058824 79.058824H263.529412a79.058824 79.058824 0 0 1-79.058824-79.058824V263.529412A79.058824 79.058824 0 0 1 263.529412 184.470588h527.058823z m0 52.705883H263.529412a26.352941 26.352941 0 0 0-26.352941 26.352941v527.058823c0 14.546824 11.806118 26.352941 26.352941 26.352941h527.058823a26.352941 26.352941 0 0 0 26.352941-26.352941V263.529412a26.352941 26.352941 0 0 0-26.352941-26.352941z" fill="#568af2" /><path d="M404.088471 390.113882a26.352941 26.352941 0 0 1 39.514353-22.799058l118.603294 68.457411 118.573176 68.457412a26.352941 26.352941 0 0 1 0 45.658353l-118.573176 68.457412-118.603294 68.457412a26.352941 26.352941 0 0 1-39.514353-22.799059v-273.889883z m52.705882 228.23153l79.058823-45.628236 79.028706-45.68847-79.028706-45.628235-79.058823-45.658353v182.603294z" fill="#568af2" /></svg>