<svg class="icon" style="width: 1em;height: 1em;vertical-align: middle;fill: currentColor;overflow: hidden;" viewBox="0 0 1024 1024" version="1.1" xmlns="http://www.w3.org/2000/svg" width="32" height="32"><path d="M760.470588 154.352941c12.468706 0 23.250824 8.734118 25.810824 20.992l87.823059 421.647059a26.352941 26.352941 0 1 1-51.59153 10.721882L739.026824 207.058824H289.972706L206.516706 607.713882a26.352941 26.352941 0 0 1-27.919059 20.901647l-3.252706-0.451764a26.352941 26.352941 0 0 1-20.449882-31.171765l87.853176-421.647059a26.352941 26.352941 0 0 1 25.810824-20.992H760.470588z" fill="#568af2" /><path d="M354.785882 576c11.625412 0 21.865412 7.589647 25.238589 18.703059l26.262588 86.708706h216.425412l26.292705-86.708706c3.011765-9.999059 11.625412-17.167059 21.775059-18.492235l3.433412-0.210824h174.08c14.576941 0 26.383059 11.806118 26.383059 26.352941v228.382118a26.352941 26.352941 0 0 1-26.352941 26.352941H180.705882a26.352941 26.352941 0 0 1-26.352941-26.352941V602.352941c0-14.546824 11.806118-26.352941 26.352941-26.352941h174.08z m467.154824 52.705882h-128.180706l-26.262588 86.708706a26.352941 26.352941 0 0 1-21.775059 18.492236l-3.433412 0.210823H386.710588a26.352941 26.352941 0 0 1-25.20847-18.703059l-26.292706-86.708706H207.058824v175.676236h614.881882v-175.676236zM601.298824 408.033882a26.352941 26.352941 0 0 1 37.255529 37.25553l-105.411765 105.411764a26.352941 26.352941 0 0 1-37.255529 0l-105.411765-105.411764a26.352941 26.352941 0 1 1 37.25553-37.25553l86.768941 86.799059 86.799059-86.799059z" fill="#568af2" /><path d="M514.499765 294.912c14.576941 0 26.352941 11.776 26.352941 26.352941v210.82353a26.352941 26.352941 0 0 1-52.705882 0v-210.82353c0-14.576941 11.806118-26.352941 26.352941-26.352941z" fill="#568af2" /></svg>