<svg class="icon" style="width: 1em;height: 1em;vertical-align: middle;fill: currentColor;overflow: hidden;" viewBox="0 0 1024 1024" version="1.1" xmlns="http://www.w3.org/2000/svg" width="32" height="32"><path d="M853.323294 449.264941a35.147294 35.147294 0 1 0-70.26447 0h70.26447z m-368.941176-228.412235a35.147294 35.147294 0 1 0 0-70.264471v70.264471zM765.500235 783.058824h-527.058823v70.26447h527.058823V783.058824z m-544.647529-17.558589v-527.058823H150.588235v527.058823h70.264471zM783.058824 449.264941v316.235294h70.26447v-316.235294H783.058824zM238.441412 220.852706h245.940706V150.588235H238.441412v70.264471z m0 562.206118a17.558588 17.558588 0 0 1-17.588706-17.558589H150.588235a87.853176 87.853176 0 0 0 87.853177 87.823059V783.058824z m527.058823 70.26447a87.853176 87.853176 0 0 0 87.823059-87.823059H783.058824a17.558588 17.558588 0 0 1-17.558589 17.558589v70.26447zM220.852706 238.441412c0-9.697882 7.860706-17.588706 17.588706-17.588706V150.588235A87.853176 87.853176 0 0 0 150.588235 238.441412h70.264471z" fill="#568af2" /><path d="M355.779765 503.567059a61.500235 61.500235 0 0 1 81.558588-1.355294l222.328471 190.554353a26.352941 26.352941 0 0 1-34.334118 40.026353l-222.268235-190.554353a8.794353 8.794353 0 0 0-11.65553 0.210823l-187.873882 172.182588a26.352941 26.352941 0 1 1-35.629177-38.851764l187.873883-172.182589z" fill="#568af2" /><path d="M637.470118 522.450824a61.500235 61.500235 0 0 1 80.353882-5.722353l116.193882 87.130353a26.352941 26.352941 0 0 1-31.623529 42.164705l-116.163765-87.130353a8.794353 8.794353 0 0 0-11.504941 0.813177L590.908235 643.614118a26.352941 26.352941 0 1 1-37.285647-37.285647l83.877647-83.84753zM760.229647 159.382588c46.381176 0 84.329412 36.833882 84.329412 82.642824 0 61.861647-64.903529 125.500235-123.693177 144.474353a26.352941 26.352941 0 0 1-16.173176 0c-58.759529-18.974118-123.663059-82.612706-123.663059-144.474353 0-45.808941 37.918118-82.642824 84.329412-82.642824 15.751529 0 30.810353 4.276706 43.791059 11.986824l3.614117 2.379294 3.674353-2.379294a85.323294 85.323294 0 0 1 37.918118-11.806118l5.872941-0.180706z m0 52.705883c-10.631529 0-20.239059 4.939294-26.112 13.040941a26.352941 26.352941 0 0 1-42.676706 0 32.075294 32.075294 0 0 0-26.081882-13.040941c-17.648941 0-31.623529 13.552941-31.62353 29.936941 0 31.954824 40.448 74.179765 77.552942 90.654117l1.475764 0.572236 1.505883-0.602353c35.508706-15.721412 74.089412-55.055059 77.342117-86.40753l0.240941-4.21647c0-16.353882-14.004706-29.936941-31.623529-29.936941z" fill="#568af2" /></svg>