<svg class="icon" style="width: 1em;height: 1em;vertical-align: middle;fill: currentColor;overflow: hidden;" viewBox="0 0 1024 1024" version="1.1" xmlns="http://www.w3.org/2000/svg" width="32" height="32"><path d="M684.212706 434.115765a26.352941 26.352941 0 0 1 33.310118-16.685177 237.236706 237.236706 0 0 1-74.992942 462.245647 236.333176 236.333176 0 0 1-158.117647-60.385882 26.352941 26.352941 0 0 1 35.147294-39.273412 184.470588 184.470588 0 1 0 181.308236-312.560941 26.352941 26.352941 0 0 1-16.655059-33.340235z" fill="#568af2" /><path d="M287.141647 417.189647a26.352941 26.352941 0 0 1 16.504471 50.055529A184.530824 184.530824 0 0 0 361.411765 826.970353a184.470588 184.470588 0 0 0 171.730823-251.934118 26.352941 26.352941 0 0 1 49.091765-19.275294 237.176471 237.176471 0 1 1-295.062588-138.541176z" fill="#568af2" /><path d="M501.970824 124.235294a237.176471 237.176471 0 1 1 0 474.352941 237.176471 237.176471 0 0 1 0-474.352941z m0 52.705882a184.470588 184.470588 0 1 0 0 368.941177 184.470588 184.470588 0 0 0 0-368.941177z" fill="#568af2" /></svg>