<svg class="icon" style="width: 1em;height: 1em;vertical-align: middle;fill: currentColor;overflow: hidden;" viewBox="0 0 1024 1024" version="1.1" xmlns="http://www.w3.org/2000/svg" width="32" height="32"><path d="M627.440941 124.235294c14.576941 0 26.352941 11.806118 26.352941 26.352941v149.323294h149.353412c13.432471 0 24.515765 10.059294 26.142118 23.070118l0.210823 3.312941v491.91153a61.500235 61.500235 0 0 1-61.500235 61.470117H276.088471a61.500235 61.500235 0 0 1-61.500236-61.470117v-632.470589c0-33.972706 27.527529-61.500235 61.500236-61.500235h351.35247z m-26.352941 52.705882H276.088471a8.794353 8.794353 0 0 0-8.794353 8.794353v632.470589c0 4.818824 3.915294 8.764235 8.794353 8.764235H768c4.848941 0 8.794353-3.915294 8.794353-8.764235l-0.030118-465.588706h-149.323294a26.352941 26.352941 0 0 1-26.142117-23.04l-0.210824-3.312941V176.941176z" fill="#568af2" /><path d="M608.828235 131.945412a26.352941 26.352941 0 0 1 37.25553 0l175.676235 175.706353a26.352941 26.352941 0 1 1-37.255529 37.255529L608.828235 169.261176a26.352941 26.352941 0 0 1 0-37.285647zM522.029176 440.470588a114.206118 114.206118 0 1 1 0 228.382118 114.206118 114.206118 0 0 1 0-228.382118z m0 52.705883a61.500235 61.500235 0 1 0 0 122.970353 61.500235 61.500235 0 0 0 0-122.970353z" fill="#568af2" /><path d="M522.029176 387.764706c14.576941 0 26.352941 11.806118 26.352942 26.352941v52.705882a26.352941 26.352941 0 1 1-52.705883 0v-52.705882c0-14.546824 11.806118-26.352941 26.352941-26.352941zM522.029176 616.146824c14.576941 0 26.352941 11.806118 26.352942 26.352941v52.705882a26.352941 26.352941 0 1 1-52.705883 0v-52.705882c0-14.546824 11.806118-26.352941 26.352941-26.352941zM605.786353 430.622118a26.352941 26.352941 0 0 1 37.285647 37.255529l-37.285647 37.285647a26.352941 26.352941 0 1 1-37.255529-37.285647l37.255529-37.255529zM430.110118 606.298353a26.352941 26.352941 0 1 1 37.255529 37.285647l-37.255529 37.255529a26.352941 26.352941 0 1 1-37.25553-37.255529l37.25553-37.285647zM398.004706 430.622118a26.352941 26.352941 0 0 1 37.255529 0l37.25553 37.255529a26.352941 26.352941 0 0 1-37.25553 37.285647l-37.255529-37.285647a26.352941 26.352941 0 0 1 0-37.255529zM573.680941 606.298353a26.352941 26.352941 0 0 1 37.25553 0l37.285647 37.285647a26.352941 26.352941 0 1 1-37.285647 37.255529l-37.25553-37.255529a26.352941 26.352941 0 0 1 0-37.285647zM434.206118 528.323765a26.352941 26.352941 0 0 1 0 52.705882h-52.705883a26.352941 26.352941 0 0 1 0-52.705882h52.705883zM662.588235 528.323765a26.352941 26.352941 0 1 1 0 52.705882h-52.705882a26.352941 26.352941 0 0 1 0-52.705882H662.588235z" fill="#568af2" /></svg>