<svg class="icon" style="width: 1em;height: 1em;vertical-align: middle;fill: currentColor;overflow: hidden;" viewBox="0 0 1024 1024" version="1.1" xmlns="http://www.w3.org/2000/svg" width="32" height="32"><path d="M414.117647 184.470588c7.830588 0 15.239529 3.463529 20.239059 9.487059l79.932235 95.924706h224.858353c32.406588 0 58.970353 25.088 61.31953 56.922353l0.150588 4.577882v105.411765a26.352941 26.352941 0 0 1-26.352941 26.352941L259.011765 483.087059l-82.82353 331.444706c-7.228235 28.973176-48.549647 25.027765-51.742117-2.921412l-0.180706-3.493647V245.970824c0-33.972706 27.527529-61.500235 61.500235-61.500236h228.382118z m-12.348235 52.705883H185.735529a8.794353 8.794353 0 0 0-8.794353 8.794353v348.099764l35.930353-143.661176a26.352941 26.352941 0 0 1 21.985883-19.727059l3.584-0.240941 509.470117-0.030118v-79.028706a8.794353 8.794353 0 0 0-6.746353-8.553412l-2.017882-0.240941h-237.17647a26.352941 26.352941 0 0 1-20.269177-9.487059L401.769412 237.176471z" fill="#568af2" /><path d="M853.323294 430.441412c16.624941 0 29.123765 15.209412 25.840941 31.503059l-70.26447 351.382588a26.352941 26.352941 0 0 1-25.840941 21.172706H150.588235a26.352941 26.352941 0 0 1-25.6-32.527059l84.540236-351.352471a26.352941 26.352941 0 0 1 25.6-20.178823h618.194823z m-32.135529 52.705882H255.909647L184.018824 781.793882h577.415529l59.753412-298.646588z" fill="#568af2" /></svg>