<svg class="icon" style="width: 1em;height: 1em;vertical-align: middle;fill: currentColor;overflow: hidden;" viewBox="0 0 1024 1024" version="1.1" xmlns="http://www.w3.org/2000/svg" width="32" height="32"><path d="M426.676706 184.470588c7.830588 0 15.239529 3.463529 20.239059 9.487059l79.932235 95.924706H813.176471c32.406588 0 58.970353 25.088 61.319529 56.922353l0.180706 4.577882v456.764236A61.500235 61.500235 0 0 1 813.176471 869.647059H215.853176a61.500235 61.500235 0 0 1-61.500235-61.500235V245.970824c0-33.972706 27.527529-61.500235 61.500235-61.500236h210.82353z m-12.348235 52.705883h-198.475295a8.794353 8.794353 0 0 0-8.794352 8.794353v562.176c0 4.848941 3.915294 8.794353 8.794352 8.794352H813.176471c4.848941 0 8.794353-3.915294 8.794353-8.794352V351.382588a8.794353 8.794353 0 0 0-8.794353-8.794353h-298.676706a26.352941 26.352941 0 0 1-20.239059-9.487059l-79.932235-95.924705z" fill="#568af2" /><path d="M613.707294 431.164235a26.352941 26.352941 0 1 1 12.408471 51.230118l-50.115765 12.137412v146.733176a26.352941 26.352941 0 0 1-23.04 26.142118l-3.312941 0.210823a26.352941 26.352941 0 0 1-26.352941-26.352941v-167.454117c0-12.167529 8.312471-22.768941 20.148706-25.6l70.26447-17.046589z" fill="#568af2" /><path d="M479.382588 535.853176a96.617412 96.617412 0 1 1 0 193.234824 96.617412 96.617412 0 0 1 0-193.234824z m0 52.705883a43.911529 43.911529 0 1 0 0 87.823059 43.911529 43.911529 0 0 0 0-87.823059z" fill="#568af2" /></svg>