<svg class="icon" style="width: 1em;height: 1em;vertical-align: middle;fill: currentColor;overflow: hidden;" viewBox="0 0 1024 1024" version="1.1" xmlns="http://www.w3.org/2000/svg" width="32" height="32"><path d="M808.146824 124.235294c33.972706 0 61.500235 27.527529 61.500235 61.500235v632.470589a61.500235 61.500235 0 0 1-61.500235 61.470117H316.235294a61.500235 61.500235 0 0 1-61.500235-61.470117v-158.117647a26.352941 26.352941 0 1 1 52.705882 0v158.117647c0 4.818824 3.915294 8.764235 8.794353 8.764235h491.91153c4.848941 0 8.794353-3.915294 8.794352-8.764235v-632.470589a8.794353 8.794353 0 0 0-8.794352-8.794353H316.235294a8.794353 8.794353 0 0 0-8.794353 8.794353v158.117647a26.352941 26.352941 0 0 1-52.705882 0v-158.117647c0-33.972706 27.527529-61.500235 61.500235-61.500235h491.91153z" fill="#568af2" /><path d="M737.882353 317.500235a26.352941 26.352941 0 1 1 0 52.705883h-52.705882a26.352941 26.352941 0 0 1 0-52.705883h52.705882zM737.882353 458.029176a26.352941 26.352941 0 0 1 0 52.705883H632.470588a26.352941 26.352941 0 1 1 0-52.705883h105.411765zM737.882353 598.588235a26.352941 26.352941 0 1 1 0 52.705883H632.470588a26.352941 26.352941 0 1 1 0-52.705883h105.411765zM527.058824 317.500235c14.546824 0 26.352941 11.776 26.352941 26.352941v316.235295a26.352941 26.352941 0 0 1-26.352941 26.352941H210.823529a26.352941 26.352941 0 0 1-26.352941-26.352941v-316.235295c0-14.576941 11.806118-26.352941 26.352941-26.352941h316.235295z m-26.352942 52.705883h-263.529411v263.529411h263.529411v-263.529411z" fill="#568af2" /><path d="M297.592471 430.622118a26.352941 26.352941 0 0 1 37.285647 0l105.411764 105.411764a26.352941 26.352941 0 1 1-37.285647 37.25553l-105.411764-105.411765a26.352941 26.352941 0 0 1 0-37.255529z" fill="#568af2" /><path d="M403.004235 430.622118a26.352941 26.352941 0 0 1 37.285647 37.255529l-105.411764 105.411765a26.352941 26.352941 0 1 1-37.285647-37.25553l105.411764-105.411764z" fill="#568af2" /></svg>