<svg class="icon" style="width: 1em;height: 1em;vertical-align: middle;fill: currentColor;overflow: hidden;" viewBox="0 0 1024 1024" version="1.1" xmlns="http://www.w3.org/2000/svg" width="32" height="32"><path d="M853.323294 501.970824a35.147294 35.147294 0 0 0-70.26447 0h70.26447zM501.970824 220.852706a35.147294 35.147294 0 1 0 0-70.264471v70.264471zM765.500235 783.058824h-527.058823v70.26447h527.058823V783.058824z m-544.647529-17.558589v-527.058823H150.588235v527.058823h70.264471zM783.058824 501.970824v263.529411h70.26447v-263.529411H783.058824zM238.441412 220.852706h263.529412V150.588235h-263.529412v70.264471z m0 562.206118a17.558588 17.558588 0 0 1-17.588706-17.558589H150.588235a87.853176 87.853176 0 0 0 87.853177 87.823059V783.058824z m527.058823 70.26447a87.853176 87.853176 0 0 0 87.823059-87.823059H783.058824a17.558588 17.558588 0 0 1-17.558589 17.558589v70.26447zM220.852706 238.441412c0-9.697882 7.860706-17.588706 17.588706-17.588706V150.588235A87.853176 87.853176 0 0 0 150.588235 238.441412h70.264471z" fill="#568af2" /><path d="M355.779765 503.597176a61.500235 61.500235 0 0 1 81.558588-1.355294l222.328471 190.554353a26.352941 26.352941 0 0 1-34.334118 40.026353l-222.268235-190.554353a8.794353 8.794353 0 0 0-11.65553 0.180706L203.535059 714.691765a26.352941 26.352941 0 0 1-35.629177-38.851765l187.873883-172.212706z" fill="#568af2" /><path d="M637.470118 522.450824a61.500235 61.500235 0 0 1 80.353882-5.722353l116.193882 87.16047a26.352941 26.352941 0 0 1-31.623529 42.164706l-116.163765-87.130353a8.794353 8.794353 0 0 0-11.504941 0.813177l-83.847529 83.847529a26.352941 26.352941 0 1 1-37.285647-37.255529l83.877647-83.877647zM712.794353 159.382588a131.764706 131.764706 0 1 1 0 263.529412 131.764706 131.764706 0 0 1 0-263.529412z m0 52.705883a79.058824 79.058824 0 1 0 0 158.117647 79.058824 79.058824 0 0 0 0-158.117647z" fill="#568af2" /><path d="M623.887059 202.24a26.352941 26.352941 0 0 1 37.255529 0l140.559059 140.559059a26.352941 26.352941 0 1 1-37.285647 37.255529l-140.528941-140.528941a26.352941 26.352941 0 0 1 0-37.285647z" fill="#568af2" /></svg>