<svg class="icon" style="width: 1em;height: 1em;vertical-align: middle;fill: currentColor;overflow: hidden;" viewBox="0 0 1024 1024" version="1.1" xmlns="http://www.w3.org/2000/svg" width="32" height="32"><path d="M399.058824 176.941176c14.546824 0 26.352941 11.806118 26.352941 26.352942v26.352941h193.234823V203.294118c0-13.432471 10.059294-24.515765 23.070118-26.142118l3.312941-0.210824H768c33.972706 0 61.500235 27.527529 61.500235 61.500236v579.764706a61.500235 61.500235 0 0 1-61.500235 61.470117H276.088471a61.500235 61.500235 0 0 1-61.500236-61.470117V238.441412c0-33.972706 27.527529-61.500235 61.500236-61.500236h122.970353zM671.382588 256a26.352941 26.352941 0 0 1-26.352941 26.352941H399.058824a26.352941 26.352941 0 0 1-26.352942-26.352941v-26.352941H276.088471a8.794353 8.794353 0 0 0-8.553412 6.77647l-0.240941 2.017883v579.764706c0 4.818824 3.915294 8.764235 8.794353 8.764235H768c4.848941 0 8.794353-3.915294 8.794353-8.764235V238.441412a8.794353 8.794353 0 0 0-8.794353-8.794353h-96.647529V256z" fill="#568af2" /><path d="M645.029647 124.235294c14.546824 0 26.352941 11.806118 26.352941 26.352941v105.411765a26.352941 26.352941 0 0 1-26.352941 26.352941H399.058824a26.352941 26.352941 0 0 1-26.352942-26.352941V150.588235c0-14.546824 11.806118-26.352941 26.352942-26.352941h245.970823z m-26.383059 52.705882h-193.234823v52.705883h193.234823v-52.705883zM556.092235 395.474824a26.352941 26.352941 0 0 1 37.285647 37.285647l-95.563294 95.563294h112.128c22.377412 0 34.093176 25.750588 20.811294 42.556235l-2.16847 2.439529-140.619294 140.559059a26.352941 26.352941 0 1 1-37.25553-37.255529l95.593412-95.593412h-112.097882c-22.377412 0-34.093176-25.720471-20.841412-42.526118l2.198588-2.439529 140.528941-140.589176z" fill="#568af2" /></svg>