<svg class="icon" style="width: 1em;height: 1em;vertical-align: middle;fill: currentColor;overflow: hidden;" viewBox="0 0 1024 1024" version="1.1" xmlns="http://www.w3.org/2000/svg" width="32" height="32"><path d="M808.146824 229.647059c14.576941 0 26.352941 11.806118 26.352941 26.352941v597.323294a26.352941 26.352941 0 0 1-26.352941 26.352941H316.235294a26.352941 26.352941 0 0 1-26.352941-26.352941V256c0-14.546824 11.806118-26.352941 26.352941-26.352941h491.91153z m-26.352942 52.705882H342.588235v544.617412h439.205647V282.352941z" fill="#568af2" /><path d="M702.735059 124.235294c14.576941 0 26.352941 11.806118 26.352941 26.352941v105.411765a26.352941 26.352941 0 1 1-52.705882 0V176.941176H237.176471v544.617412H316.235294c13.432471 0 24.515765 10.059294 26.142118 23.070118l0.210823 3.312941a26.352941 26.352941 0 0 1-26.352941 26.322824H210.823529a26.352941 26.352941 0 0 1-26.352941-26.352942V168.146824c0-24.244706 19.666824-43.911529 43.91153-43.91153h474.352941z" fill="#568af2" /><path d="M667.617882 440.470588a26.352941 26.352941 0 0 1 0 52.705883h-210.823529a26.352941 26.352941 0 1 1 0-52.705883h210.823529zM667.617882 581.029647a26.352941 26.352941 0 0 1 0 52.705882h-210.823529a26.352941 26.352941 0 0 1 0-52.705882h210.823529z" fill="#568af2" /></svg>