<svg class="icon" style="width: 1em;height: 1em;vertical-align: middle;fill: currentColor;overflow: hidden;" viewBox="0 0 1024 1024" version="1.1" xmlns="http://www.w3.org/2000/svg" width="32" height="32"><path d="M381.500235 212.088471v52.705882H267.294118v579.764706h474.352941V264.794353h-114.206118v-52.705882h123.000471c24.244706 0 43.911529 19.666824 43.911529 43.911529v597.323294c0 24.274824-19.666824 43.941647-43.911529 43.941647H258.499765a43.911529 43.911529 0 0 1-43.91153-43.941647V256c0-24.244706 19.666824-43.911529 43.91153-43.911529h123.00047z" fill="#568af2" /><path d="M504.470588 124.235294a79.058824 79.058824 0 0 1 79.058824 79.058824v8.764235h70.26447v114.206118c0 24.274824-19.666824 43.941647-43.911529 43.941647h-210.823529a43.911529 43.911529 0 0 1-43.91153-43.941647V212.088471l70.264471-0.030118V203.294118a79.058824 79.058824 0 0 1 74.059294-78.908236l4.999529-0.150588z m0 52.705882a26.352941 26.352941 0 0 0-26.352941 26.352942v34.273882c0 15.058824-12.197647 27.226353-27.226353 27.226353l-43.068235-0.030118v52.705883h193.264941v-52.705883h-43.068235a27.226353 27.226353 0 0 1-26.985412-23.792941l-0.210824-3.403294V203.294118a26.352941 26.352941 0 0 0-26.352941-26.352942z" fill="#568af2" /></svg>