<svg class="icon" style="width: 1em;height: 1em;vertical-align: middle;fill: currentColor;overflow: hidden;" viewBox="0 0 1024 1024" version="1.1" xmlns="http://www.w3.org/2000/svg" width="32" height="32"><path d="M808.146824 277.323294c33.972706 0 61.500235 27.527529 61.500235 61.500235v456.794353a61.500235 61.500235 0 0 1-61.500235 61.470118H245.970824a61.500235 61.500235 0 0 1-61.500236-61.470118V338.823529c0-33.972706 27.527529-61.500235 61.500236-61.500235h562.176z m0 52.705882H245.970824a8.794353 8.794353 0 0 0-8.794353 8.794353v456.794353c0 4.818824 3.915294 8.764235 8.794353 8.764236h562.176c4.848941 0 8.794353-3.915294 8.794352-8.764236V338.823529a8.794353 8.794353 0 0 0-8.794352-8.794353z" fill="#568af2" /><path d="M631.567059 488.297412a26.352941 26.352941 0 1 1 0 52.705882h-210.82353a26.352941 26.352941 0 0 1 0-52.705882h210.82353zM720.323765 154.352941c7.589647 0 14.817882 3.282824 19.817411 9.005177l123.000471 140.528941a26.352941 26.352941 0 0 1-39.695059 34.725647L708.367059 207.058824H345.720471l-115.049412 131.553882a26.352941 26.352941 0 0 1-34.334118 4.638118l-2.861176-2.168471a26.352941 26.352941 0 0 1-2.499765-37.195294l123.000471-140.528941a26.352941 26.352941 0 0 1 19.817411-9.005177h386.529883z" fill="#568af2" /></svg>