<svg class="icon" style="width: 1em;height: 1em;vertical-align: middle;fill: currentColor;overflow: hidden;" viewBox="0 0 1024 1024" version="1.1" xmlns="http://www.w3.org/2000/svg" width="32" height="32"><path d="M645.029647 124.235294c7.68 0 14.998588 3.373176 19.998118 9.216l158.117647 184.470588c4.096 4.758588 6.324706 10.842353 6.324706 17.136942v518.26447a26.352941 26.352941 0 0 1-26.322824 26.352941H240.941176a26.352941 26.352941 0 0 1-26.352941-26.352941V150.588235c0-14.546824 11.806118-26.352941 26.352941-26.352941h404.088471z m-12.137412 52.705882H267.294118v650.029177h509.470117v-482.183529l-143.872-167.845648z" fill="#568af2" /><path d="M650.902588 302.682353a26.352941 26.352941 0 1 1 23.371294 47.224471l-90.74447 44.875294v238.953411a26.352941 26.352941 0 0 1-23.04 26.142118l-3.312941 0.210824a26.352941 26.352941 0 0 1-26.352942-26.352942v-255.307294c0-10.029176 5.692235-19.184941 14.667295-23.612235l105.411764-52.163765z" fill="#568af2" /><path d="M460.559059 510.735059a122.970353 122.970353 0 1 1 0 245.970823 122.970353 122.970353 0 0 1 0-245.970823z m0 52.705882a70.264471 70.264471 0 1 0 0 140.559059 70.264471 70.264471 0 0 0 0-140.559059z" fill="#568af2" /></svg>