<svg class="icon" style="width: 1em;height: 1em;vertical-align: middle;fill: currentColor;overflow: hidden;" viewBox="0 0 1024 1024" version="1.1" xmlns="http://www.w3.org/2000/svg" width="32" height="32"><path d="M614.912 124.235294c7.469176 0 14.576941 3.162353 19.576471 8.734118l158.117647 175.676235c4.367059 4.818824 6.776471 11.143529 6.77647 17.618824v158.117647a26.352941 26.352941 0 0 1-52.705882 0l-0.030118-148.028236-143.48047-159.412706H245.970824a8.794353 8.794353 0 0 0-8.553412 6.776471l-0.240941 2.017882v632.470589c0 4.818824 3.915294 8.764235 8.794353 8.764235h210.823529a26.352941 26.352941 0 0 1 0 52.705882h-210.823529a61.500235 61.500235 0 0 1-61.500236-61.470117v-632.470589c0-33.972706 27.527529-61.500235 61.500236-61.500235h368.941176z" fill="#568af2" /><path d="M659.937882 547.026824a26.352941 26.352941 0 0 1 15.36 0 1032.914824 1032.914824 0 0 1 63.186824 21.684705c11.595294 4.397176 22.076235 8.734118 31.171765 12.860236 33.039059 15.119059 47.284706 24.877176 47.284705 46.893176 0 72.161882-25.389176 134.083765-67.463529 185.374118-25.148235 30.659765-50.447059 51.2-68.156235 61.982117a26.352941 26.352941 0 0 1-27.407059 0c-17.739294-10.782118-43.008-31.322353-68.186353-61.982117-42.044235-51.290353-67.463529-113.242353-67.463529-185.374118 0-21.985882 14.245647-31.774118 47.284705-46.893176 9.125647-4.156235 19.576471-8.463059 31.201883-12.890353a1032.914824 1032.914824 0 0 1 63.186823-21.654588z m7.649883 52.826352l-3.162353 1.024-7.770353 2.529883c-14.064941 4.638118-28.129882 9.577412-41.170824 14.546823-10.601412 4.035765-20.058353 7.920941-28.009411 11.565177-8.432941 3.855059-14.908235 7.288471-18.82353 9.999059l2.499765-1.656471 0.030117 0.903529c2.138353 51.2 20.088471 95.774118 49.332706 134.053648l5.993412 7.589647a271.661176 271.661176 0 0 0 38.490353 38.430117l2.590118 2.048 2.620235-2.048a270.034824 270.034824 0 0 0 31.051294-29.726117l7.469177-8.734118c34.785882-42.405647 55.506824-92.912941 55.506823-151.913412l-0.210823 9.426824a136.794353 136.794353 0 0 0-11.444706-6.113883l-4.818824-2.258823c-7.981176-3.614118-17.438118-7.529412-28.039529-11.565177a981.714824 981.714824 0 0 0-48.941177-17.076706l-3.19247-1.024zM597.323294 124.235294c14.576941 0 26.352941 11.806118 26.352941 26.352941v149.323294h149.353412c13.432471 0 24.515765 10.059294 26.142118 23.070118l0.210823 3.312941a26.352941 26.352941 0 0 1-26.352941 26.322824h-175.706353a26.352941 26.352941 0 0 1-26.352941-26.352941V150.588235c0-14.546824 11.806118-26.352941 26.352941-26.352941z" fill="#568af2" /></svg>