<svg class="icon" style="width: 1em;height: 1em;vertical-align: middle;fill: currentColor;overflow: hidden;" viewBox="0 0 1024 1024" version="1.1" xmlns="http://www.w3.org/2000/svg" width="32" height="32"><path d="M803.147294 124.235294c14.546824 0 26.352941 11.806118 26.352941 26.352941v562.206118a26.352941 26.352941 0 0 1-26.352941 26.352941H353.370353c-72.975059 0-84.781176 4.367059-85.955765 37.014588l-0.12047 3.343059V783.058824c0 33.822118-48.880941 35.087059-52.495059 3.764705L214.588235 783.058824V256c0-73.185882 62.494118-131.764706 138.782118-131.764706h449.776941z m-26.383059 52.705882H353.370353c-47.887059 0-86.076235 35.779765-86.076235 79.058824v440.109176l2.620235-0.843294c19.184941-5.842824 43.971765-8.432941 75.474823-8.794353l7.981177-0.030117 423.393882-0.030118V176.941176z" fill="#568af2" /><path d="M803.147294 686.441412c14.546824 0 26.352941 11.776 26.352941 26.352941v140.528941a26.352941 26.352941 0 0 1-26.352941 26.352941H311.205647a96.617412 96.617412 0 0 1 0-193.234823h491.941647z m-26.383059 140.528941v-87.823059H311.205647c-22.829176 0-41.562353 17.408-43.700706 39.695059l-0.210823 4.216471c0 24.244706 19.666824 43.911529 43.911529 43.911529h465.558588z" fill="#568af2" /></svg>