<svg class="icon" style="width: 1em;height: 1em;vertical-align: middle;fill: currentColor;overflow: hidden;" viewBox="0 0 1024 1024" version="1.1" xmlns="http://www.w3.org/2000/svg" width="32" height="32"><path d="M768 124.235294c33.972706 0 61.500235 27.527529 61.500235 61.500235v632.470589a61.500235 61.500235 0 0 1-61.500235 61.470117H276.088471a61.500235 61.500235 0 0 1-61.500236-61.470117v-632.470589c0-33.972706 27.527529-61.500235 61.500236-61.500235H768z m0 52.705882H276.088471a8.794353 8.794353 0 0 0-8.794353 8.794353v632.470589c0 4.818824 3.915294 8.764235 8.794353 8.764235H768c4.848941 0 8.794353-3.915294 8.794353-8.764235v-632.470589a8.794353 8.794353 0 0 0-8.794353-8.794353z" fill="#568af2" /><path d="M645.029647 581.029647a26.352941 26.352941 0 0 1 0 52.705882H399.058824a26.352941 26.352941 0 0 1 0-52.705882h245.970823zM522.029176 686.441412a26.352941 26.352941 0 1 1 0 52.705882H399.058824a26.352941 26.352941 0 0 1 0-52.705882h122.970352zM609.882353 352.617412a26.352941 26.352941 0 0 1 0 52.705882h-175.676235a26.352941 26.352941 0 1 1 0-52.705882h175.676235z" fill="#568af2" /><path d="M522.029176 264.794353c14.576941 0 26.352941 11.776 26.352942 26.352941V466.823529a26.352941 26.352941 0 1 1-52.705883 0V291.147294c0-14.576941 11.806118-26.352941 26.352941-26.352941z" fill="#568af2" /></svg>