<svg class="icon" style="width: 1em;height: 1em;vertical-align: middle;fill: currentColor;overflow: hidden;" viewBox="0 0 1024 1024" version="1.1" xmlns="http://www.w3.org/2000/svg" width="32" height="32"><path d="M809.411765 214.588235A79.058824 79.058824 0 0 1 888.470588 293.647059V451.764706a26.352941 26.352941 0 0 1-26.352941 26.352941H159.382588A26.352941 26.352941 0 0 1 133.029647 451.764706V293.647059a79.058824 79.058824 0 0 1 79.058824-79.058824h597.323294z m0 52.705883H212.088471a26.352941 26.352941 0 0 0-26.352942 26.352941v131.764706H835.764706V293.647059a26.352941 26.352941 0 0 0-23.04-26.142118l-3.312941-0.210823zM614.821647 537.328941a26.352941 26.352941 0 0 1 35.719529 0.963765l78.72753 76.739765a26.352941 26.352941 0 0 1-36.803765 37.767529l-61.319529-59.783529-122.970353 107.52a26.352941 26.352941 0 0 1-32.737883 1.505882l-2.831058-2.319059-96.888471-92.79247-195.644235 197.692235a26.352941 26.352941 0 0 1-34.544941 2.56l-2.710589-2.349177a26.352941 26.352941 0 0 1-0.210823-37.285647l213.925647-216.094117a26.352941 26.352941 0 0 1 36.954353-0.512l98.183529 94.027294 123.151059-107.640471z" fill="#568af2" /><path d="M862.117647 390.264471c14.546824 0 26.352941 11.806118 26.352941 26.352941v333.824a79.058824 79.058824 0 0 1-79.058823 79.058823H299.911529a26.352941 26.352941 0 0 1 0-52.705882h509.500236a26.352941 26.352941 0 0 0 26.352941-26.352941V416.617412c0-14.546824 11.806118-26.352941 26.352941-26.352941zM741.104941 320a26.352941 26.352941 0 1 1 0 52.705882h-316.235294a26.352941 26.352941 0 0 1 0-52.705882h316.235294zM319.427765 320a26.352941 26.352941 0 1 1 0 52.705882H284.310588a26.352941 26.352941 0 1 1 0-52.705882h35.117177zM159.382588 390.264471c14.546824 0 26.352941 11.806118 26.352941 26.352941v158.117647a26.352941 26.352941 0 1 1-52.705882 0v-158.117647c0-14.546824 11.776-26.352941 26.352941-26.352941z" fill="#568af2" /></svg>