<svg class="icon" style="width: 1em;height: 1em;vertical-align: middle;fill: currentColor;overflow: hidden;" viewBox="0 0 1024 1024" version="1.1" xmlns="http://www.w3.org/2000/svg" width="32" height="32"><path d="M493.176471 185.735529a26.352941 26.352941 0 1 1 0 52.705883A289.882353 289.882353 0 1 0 783.058824 528.323765a26.352941 26.352941 0 1 1 52.705882 0c0 189.199059-153.389176 342.588235-342.588235 342.588235S150.588235 717.522824 150.588235 528.323765c0-189.229176 153.389176-342.588235 342.588236-342.588236z" fill="#568af2" /><path d="M612.924235 406.708706a26.352941 26.352941 0 1 1 41.592471 32.37647c-117.157647 150.648471-176.579765 177.091765-354.605177 177.091765a26.352941 26.352941 0 1 1 0-52.705882c162.394353 0 206.305882-19.516235 313.012706-156.762353z" fill="#568af2" /><path d="M633.735529 396.559059c14.546824 0 26.352941 11.776 26.352942 26.352941v140.528941a26.352941 26.352941 0 0 1-52.705883 0l-0.030117-114.176h-114.176a26.352941 26.352941 0 0 1-26.142118-23.070117l-0.210824-3.312942c0-14.546824 11.806118-26.322824 26.352942-26.322823h140.559058zM633.735529 150.588235c14.546824 0 26.352941 11.806118 26.352942 26.352941V256a26.352941 26.352941 0 0 1-52.705883 0V176.941176c0-14.546824 11.776-26.352941 26.352941-26.352941zM853.323294 361.411765a26.352941 26.352941 0 1 1 0 52.705882h-79.058823a26.352941 26.352941 0 0 1 0-52.705882h79.058823zM788.841412 193.445647a26.352941 26.352941 0 0 1 37.255529 37.255529L757.76 299.068235a26.352941 26.352941 0 1 1-37.255529-37.255529l68.336941-68.367059z" fill="#568af2" /></svg>