<svg class="icon" style="width: 1em;height: 1em;vertical-align: middle;fill: currentColor;overflow: hidden;" viewBox="0 0 1024 1024" version="1.1" xmlns="http://www.w3.org/2000/svg" width="32" height="32"><path d="M378.307765 216.365176c-5.360941-24.907294 24.244706-42.164706 43.279059-25.238588l143.781647 127.819294 159.744-93.786353c21.323294-12.528941 45.929412 8.463059 38.430117 30.870589l-1.174588 2.921411-80.233412 173.537883 143.540706 127.578353c18.070588 16.082824 6.625882 45.387294-16.474353 46.049882l-3.222588-0.090353-192.271059-16.052706-71.378823 158.72c-9.908706 21.985882-40.96 19.937882-48.790589-1.596235l-0.963764-3.373177-39.664942-174.441411-191.548235-15.962353c-24.395294-2.017882-32.617412-32.737882-14.155294-46.98353l2.710588-1.807058 168.508236-101.888-40.116706-186.277648z m68.457411 67.644236l27.136 125.952a26.352941 26.352941 0 0 1-12.137411 28.099764l-115.049412 69.481412 129.807059 10.842353a26.352941 26.352941 0 0 1 22.588235 17.136941l0.933647 3.252706 26.50353 116.525177 46.742588-103.905883a26.352941 26.352941 0 0 1 22.558117-15.510588l3.674353 0.060235 132.035765 10.992942-99.026823-88.033883a26.352941 26.352941 0 0 1-7.770353-27.166117l1.355294-3.584 53.097411-114.928942-103.664941 60.867765a26.352941 26.352941 0 0 1-27.888941-0.722823l-2.981647-2.288942-97.882353-87.070117z" fill="#568af2" /><path d="M455.68 526.004706a26.352941 26.352941 0 0 1 37.345882 37.255529l-263.529411 263.890824a26.352941 26.352941 0 0 1-37.345883-37.25553l263.529412-263.890823z" fill="#568af2" /></svg>