<svg class="icon" style="width: 1em;height: 1em;vertical-align: middle;fill: currentColor;overflow: hidden;" viewBox="0 0 1024 1024" version="1.1" xmlns="http://www.w3.org/2000/svg" width="32" height="32"><path d="M627.440941 124.235294c14.576941 0 26.352941 11.806118 26.352941 26.352941v149.323294h149.353412c13.432471 0 24.515765 10.059294 26.142118 23.070118l0.210823 3.312941v491.91153a61.500235 61.500235 0 0 1-61.500235 61.470117H276.088471a61.500235 61.500235 0 0 1-61.500236-61.470117v-632.470589c0-33.972706 27.527529-61.500235 61.500236-61.500235h351.35247z m-26.352941 52.705882H276.088471a8.794353 8.794353 0 0 0-8.794353 8.794353v632.470589c0 4.818824 3.915294 8.764235 8.794353 8.764235H768c4.848941 0 8.794353-3.915294 8.794353-8.764235l-0.030118-465.588706h-149.323294a26.352941 26.352941 0 0 1-26.142117-23.04l-0.210824-3.312941V176.941176z" fill="#568af2" /><path d="M608.828235 131.945412a26.352941 26.352941 0 0 1 37.25553 0l175.676235 175.706353a26.352941 26.352941 0 1 1-37.255529 37.255529L608.828235 169.261176a26.352941 26.352941 0 0 1 0-37.285647zM577.355294 422.912c52.916706 0 94.027294 47.887059 94.027294 105.170824 0 79.721412-73.276235 165.948235-139.836235 191.698823a26.352941 26.352941 0 0 1-19.034353 0c-66.56-25.750588-139.806118-111.977412-139.806118-191.698823 0-57.283765 41.110588-105.170824 93.967059-105.170824 19.998118 0 38.731294 6.927059 54.15153 19.094588l1.204705 1.054118 1.204706-1.054118a87.521882 87.521882 0 0 1 48.188236-18.883764l5.963294-0.210824z m0 52.705882c-12.619294 0-24.756706 7.499294-32.768 20.781177a26.352941 26.352941 0 0 1-45.116235 0c-8.011294-13.281882-20.148706-20.781176-32.768-20.781177-21.835294 0-41.291294 22.648471-41.291294 52.464942 0 51.651765 50.477176 114.627765 96.105411 138.029176l0.512 0.240941 0.542118-0.240941c43.941647-22.558118 92.370824-81.769412 95.894588-132.246588l0.210824-5.782588c0-29.816471-19.456-52.464941-41.291294-52.464942z" fill="#568af2" /></svg>