<svg class="icon" style="width: 1em;height: 1em;vertical-align: middle;fill: currentColor;overflow: hidden;" viewBox="0 0 1024 1024" version="1.1" xmlns="http://www.w3.org/2000/svg" width="32" height="32"><path d="M768 124.235294c33.972706 0 61.500235 27.527529 61.500235 61.500235v632.470589a61.500235 61.500235 0 0 1-61.500235 61.470117H276.088471a61.500235 61.500235 0 0 1-61.500236-61.470117v-632.470589c0-33.972706 27.527529-61.500235 61.500236-61.500235H768z m0 52.705882H276.088471a8.794353 8.794353 0 0 0-8.794353 8.794353v632.470589c0 4.818824 3.915294 8.764235 8.794353 8.764235H768c4.848941 0 8.794353-3.915294 8.794353-8.764235v-632.470589a8.794353 8.794353 0 0 0-8.794353-8.794353z" fill="#568af2" /><path d="M697.735529 335.058824a26.352941 26.352941 0 0 1 0 52.705882H346.352941a26.352941 26.352941 0 1 1 0-52.705882h351.382588zM697.735529 475.617882a26.352941 26.352941 0 0 1 0 52.705883H346.352941a26.352941 26.352941 0 0 1 0-52.705883h351.382588zM697.735529 616.146824a26.352941 26.352941 0 0 1 0 52.705882H346.352941a26.352941 26.352941 0 1 1 0-52.705882h351.382588z" fill="#568af2" /><path d="M416.617412 264.794353c14.576941 0 26.352941 11.776 26.352941 26.352941v421.647059a26.352941 26.352941 0 0 1-52.705882 0v-421.647059c0-14.576941 11.806118-26.352941 26.352941-26.352941z" fill="#568af2" /></svg>