<svg class="icon" style="width: 1em;height: 1em;vertical-align: middle;fill: currentColor;overflow: hidden;" viewBox="0 0 1024 1024" version="1.1" xmlns="http://www.w3.org/2000/svg" width="32" height="32"><path d="M849.558588 210.823529c14.576941 0 26.352941 11.806118 26.352941 26.352942v527.058823a26.352941 26.352941 0 0 1-26.352941 26.352941H146.823529A26.352941 26.352941 0 0 1 120.470588 764.235294v-527.058823C120.470588 222.629647 132.276706 210.823529 146.823529 210.823529h702.735059z m-26.352941 52.705883H173.176471V737.882353h650.029176V263.529412z" fill="#568af2" /><path d="M833.746824 216.094118a26.352941 26.352941 0 1 1 31.623529 42.164706l-351.352471 263.529411a26.352941 26.352941 0 0 1-31.623529 0L131.011765 258.258824a26.352941 26.352941 0 1 1 31.623529-42.164706l335.540706 251.663058 335.570824-251.663058z" fill="#568af2" /><path d="M498.206118 210.823529a26.352941 26.352941 0 0 1 0 52.705883H173.176471v237.17647a26.352941 26.352941 0 0 1-23.04 26.142118l-3.312942 0.210824A26.352941 26.352941 0 0 1 120.470588 500.705882v-263.529411C120.470588 222.629647 132.276706 210.823529 146.823529 210.823529h351.382589z" fill="#568af2" /><path d="M849.558588 210.823529c14.576941 0 26.352941 11.806118 26.352941 26.352942v263.529411a26.352941 26.352941 0 1 1-52.705882 0V263.529412H498.206118a26.352941 26.352941 0 0 1-26.142118-23.04l-0.210824-3.312941c0-14.546824 11.776-26.352941 26.352942-26.352942h351.35247z" fill="#568af2" /></svg>