<svg class="icon" style="width: 1em;height: 1em;vertical-align: middle;fill: currentColor;overflow: hidden;" viewBox="0 0 1024 1024" version="1.1" xmlns="http://www.w3.org/2000/svg" width="32" height="32"><path d="M527.058824 124.235294c189.199059 0 342.588235 153.389176 342.588235 342.588235v70.264471a26.352941 26.352941 0 1 1-52.705883 0V466.823529a289.882353 289.882353 0 0 0-579.764705 0v70.264471a26.352941 26.352941 0 1 1-52.705883 0V466.823529c0-189.199059 153.389176-342.588235 342.588236-342.588235z" fill="#568af2" /><path d="M527.058824 124.235294c92.16 0 166.912 68.969412 166.912 154.051765v243.260235c0 13.432471-11.806118 24.335059-26.352942 24.335059-14.576941 0-26.352941-10.902588-26.352941-24.335059V278.287059c0-58.217412-51.139765-105.411765-114.206117-105.411765s-114.206118 47.194353-114.206118 105.411765v243.260235c0 13.432471-11.776 24.335059-26.352941 24.335059-14.546824 0-26.352941-10.902588-26.352941-24.335059V278.287059c0-85.082353 74.721882-154.051765 166.912-154.051765z" fill="#568af2" /><path d="M527.058824 505.735529c14.546824 0 26.352941 11.776 26.352941 26.352942v245.940705a79.058824 79.058824 0 0 0 158.117647 0v-50.748235a26.352941 26.352941 0 1 1 52.705882 0v50.748235a131.764706 131.764706 0 0 1-263.529412 0v-245.940705c0-14.576941 11.806118-26.352941 26.352942-26.352942z" fill="#568af2" /><path d="M832 505.735529c16.624941 0 30.117647 11.776 30.117647 26.352942 0 14.546824-13.492706 26.352941-30.117647 26.352941h-602.352941c-16.624941 0-30.117647-11.806118-30.117647-26.352941 0-14.576941 13.492706-26.352941 30.117647-26.352942h602.352941z" fill="#568af2" /></svg>