<svg class="icon" style="width: 1em;height: 1em;vertical-align: middle;fill: currentColor;overflow: hidden;" viewBox="0 0 1024 1024" version="1.1" xmlns="http://www.w3.org/2000/svg" width="32" height="32"><path d="M426.676706 184.470588c7.830588 0 15.239529 3.463529 20.239059 9.487059l79.932235 95.924706H813.176471c32.406588 0 58.970353 25.088 61.319529 56.922353l0.180706 4.577882v158.117647a26.352941 26.352941 0 0 1-52.705882 0v-158.117647a8.794353 8.794353 0 0 0-8.794353-8.794353h-298.676706a26.352941 26.352941 0 0 1-20.239059-9.487059l-79.932235-95.924705h-198.475295a8.794353 8.794353 0 0 0-8.553411 6.77647l-0.240941 2.017883v562.176c0 4.848941 3.915294 8.794353 8.794352 8.794352h263.529412a26.352941 26.352941 0 0 1 0 52.705883h-263.529412a61.500235 61.500235 0 0 1-61.500235-61.500235V245.970824c0-33.972706 27.527529-61.500235 61.500235-61.500236h210.82353z" fill="#568af2" /><path d="M741.827765 596.269176a26.352941 26.352941 0 0 1 37.285647 0l87.823059 87.853177a26.352941 26.352941 0 0 1 0 37.255529L779.143529 809.261176a26.352941 26.352941 0 1 1-37.285647-37.285647l69.180236-69.210353-69.180236-69.210352a26.352941 26.352941 0 0 1-2.349176-34.544942l2.349176-2.710588zM601.298824 596.269176a26.352941 26.352941 0 0 1 37.255529 37.25553l-69.210353 69.210353 69.210353 69.210353c9.426824 9.456941 10.24 24.244706 2.349176 34.575059l-2.349176 2.710588a26.352941 26.352941 0 0 1-37.255529 0l-87.853177-87.853177a26.352941 26.352941 0 0 1 0-37.255529l87.853177-87.853177z" fill="#568af2" /></svg>