<svg class="icon" style="width: 1em;height: 1em;vertical-align: middle;fill: currentColor;overflow: hidden;" viewBox="0 0 1024 1024" version="1.1" xmlns="http://www.w3.org/2000/svg" width="32" height="32"><path d="M426.676706 154.352941c7.830588 0 15.239529 3.463529 20.239059 9.487059l79.932235 95.924706H813.176471c32.406588 0 58.970353 25.088 61.319529 56.922353l0.180706 4.577882v158.117647a26.352941 26.352941 0 0 1-52.705882 0v-158.117647a8.794353 8.794353 0 0 0-8.794353-8.794353h-298.676706a26.352941 26.352941 0 0 1-20.239059-9.487059l-79.932235-95.924705h-198.475295a8.794353 8.794353 0 0 0-8.553411 6.77647l-0.240941 2.017882v562.176c0 4.848941 3.915294 8.794353 8.794352 8.794353h263.529412a26.352941 26.352941 0 0 1 0 52.705883h-263.529412a61.500235 61.500235 0 0 1-61.500235-61.500236V215.853176c0-33.972706 27.527529-61.500235 61.500235-61.500235h210.82353z" fill="#568af2" /><path d="M707.764706 523.294118a166.912 166.912 0 1 1 0 333.793882 166.912 166.912 0 0 1 0-333.793882z m0 52.705882a114.206118 114.206118 0 1 0 0 228.382118 114.206118 114.206118 0 0 0 0-228.382118z" fill="#568af2" /><path d="M724.269176 636.416a26.352941 26.352941 0 1 1 37.25553 37.285647l-70.264471 70.264471a26.352941 26.352941 0 0 1-37.255529-37.25553l70.26447-70.294588z" fill="#568af2" /></svg>