<svg class="icon" style="width: 1em;height: 1em;vertical-align: middle;fill: currentColor;overflow: hidden;" viewBox="0 0 1024 1024" version="1.1" xmlns="http://www.w3.org/2000/svg" width="32" height="32"><path d="M422.912 180.705882c7.830588 0 15.239529 3.463529 20.239059 9.487059L523.083294 286.117647h286.328471c32.406588 0 58.970353 25.088 61.319529 56.922353l0.180706 4.577882v456.764236a61.500235 61.500235 0 0 1-61.500235 61.500235H212.088471A61.500235 61.500235 0 0 1 150.588235 804.382118V242.206118C150.588235 208.233412 178.115765 180.705882 212.088471 180.705882h210.823529z m-12.348235 52.705883h-198.475294a8.794353 8.794353 0 0 0-8.794353 8.794353v562.176c0 4.848941 3.915294 8.794353 8.794353 8.794353h597.323294c4.848941 0 8.794353-3.915294 8.794353-8.794353V347.617882a8.794353 8.794353 0 0 0-8.794353-8.794353h-298.676706a26.352941 26.352941 0 0 1-20.239059-9.487058L410.563765 233.411765z" fill="#568af2" /><path d="M633.735529 496.941176a26.352941 26.352941 0 0 1 0 52.705883h-245.970823a26.352941 26.352941 0 1 1 0-52.705883h245.970823zM633.735529 602.352941a26.352941 26.352941 0 0 1 0 52.705883h-245.970823a26.352941 26.352941 0 1 1 0-52.705883h245.970823z" fill="#568af2" /><path d="M527.239529 416.828235a26.352941 26.352941 0 0 1 37.285647 0l87.823059 87.823059a26.352941 26.352941 0 1 1-37.255529 37.285647l-87.853177-87.853176a26.352941 26.352941 0 0 1 0-37.25553zM369.121882 610.063059a26.352941 26.352941 0 0 1 37.285647 0l87.823059 87.853176a26.352941 26.352941 0 1 1-37.255529 37.25553l-87.853177-87.823059a26.352941 26.352941 0 0 1 0-37.285647z" fill="#568af2" /></svg>