<svg class="icon" style="width: 1em;height: 1em;vertical-align: middle;fill: currentColor;overflow: hidden;" viewBox="0 0 1024 1024" version="1.1" xmlns="http://www.w3.org/2000/svg" width="32" height="32"><path d="M734.117647 120.470588c33.972706 0 61.500235 27.527529 61.500235 61.500236v182.663529a26.352941 26.352941 0 0 1-52.705882 0V181.970824a8.794353 8.794353 0 0 0-8.794353-8.794353H242.206118a8.794353 8.794353 0 0 0-8.794353 8.794353v632.470588c0 4.818824 3.915294 8.764235 8.794353 8.764235h175.676235a26.352941 26.352941 0 0 1 0 52.705882H242.206118A61.500235 61.500235 0 0 1 180.705882 814.441412v-632.470588C180.705882 147.998118 208.233412 120.470588 242.206118 120.470588h491.911529z" fill="#568af2" /><path d="M576 296.146824a26.352941 26.352941 0 1 1 0 52.705882h-228.382118a26.352941 26.352941 0 1 1 0-52.705882h228.382118zM435.440941 419.147294a26.352941 26.352941 0 1 1 0 52.705882h-87.823059a26.352941 26.352941 0 0 1 0-52.705882h87.823059zM663.853176 471.853176a202.029176 202.029176 0 1 1 0 404.058353 202.029176 202.029176 0 0 1 0-404.058353z m0 52.705883a149.323294 149.323294 0 1 0 0 298.646588 149.323294 149.323294 0 0 0 0-298.646588z" fill="#568af2" /><path d="M522.24 532.269176a26.352941 26.352941 0 0 1 37.255529 0l245.970824 245.970824a26.352941 26.352941 0 1 1-37.285647 37.255529L522.24 569.524706a26.352941 26.352941 0 0 1 0-37.25553z" fill="#568af2" /><path d="M663.853176 471.853176a26.352941 26.352941 0 0 1 0 52.705883 149.323294 149.323294 0 0 0-149.353411 149.323294 26.352941 26.352941 0 1 1-52.705883 0 202.029176 202.029176 0 0 1 202.059294-202.029177zM839.529412 647.529412c14.546824 0 26.352941 11.806118 26.352941 26.352941a202.029176 202.029176 0 0 1-202.029177 202.029176 26.352941 26.352941 0 1 1 0-52.705882A149.323294 149.323294 0 0 0 813.176471 673.882353c0-14.546824 11.806118-26.352941 26.352941-26.352941z" fill="#568af2" /></svg>