<svg class="icon" style="width: 1em;height: 1em;vertical-align: middle;fill: currentColor;overflow: hidden;" viewBox="0 0 1024 1024" version="1.1" xmlns="http://www.w3.org/2000/svg" width="32" height="32"><path d="M505.735529 180.705882c179.501176 0 324.999529 145.528471 324.99953 325.029647s-145.498353 324.999529-324.99953 324.99953S180.705882 685.236706 180.705882 505.735529 326.234353 180.705882 505.735529 180.705882z m0 52.705883a272.323765 272.323765 0 1 0 0 544.617411 272.323765 272.323765 0 0 0 0-544.617411z" fill="#568af2" /><path d="M700.837647 700.837647a26.352941 26.352941 0 0 1 37.255529 0l105.411765 105.411765a26.352941 26.352941 0 0 1-37.285647 37.255529l-105.411765-105.411765a26.352941 26.352941 0 0 1 0-37.285647zM508.626824 376.862118c14.546824 0 26.352941 11.806118 26.352941 26.352941v245.970823a26.352941 26.352941 0 1 1-52.705883 0v-245.970823c0-14.546824 11.806118-26.352941 26.352942-26.352941z" fill="#568af2" /><path d="M596.48 376.862118a26.352941 26.352941 0 0 1 0 52.705882h-175.676235a26.352941 26.352941 0 1 1 0-52.705882h175.676235z" fill="#568af2" /></svg>