<svg class="icon" style="width: 1em;height: 1em;vertical-align: middle;fill: currentColor;overflow: hidden;" viewBox="0 0 1024 1024" version="1.1" xmlns="http://www.w3.org/2000/svg" width="32" height="32"><path d="M818.206118 254.735059c33.942588 0 61.470118 27.527529 61.470117 61.500235v456.794353a61.500235 61.500235 0 0 1-61.470117 61.470118h-632.470589a61.500235 61.500235 0 0 1-61.500235-61.470118V316.235294c0-33.972706 27.527529-61.500235 61.500235-61.500235h632.470589z m0 52.705882h-632.470589a8.794353 8.794353 0 0 0-8.794353 8.794353v456.794353c0 4.818824 3.915294 8.764235 8.794353 8.764235h632.470589c4.818824 0 8.764235-3.915294 8.764235-8.764235V316.235294a8.794353 8.794353 0 0 0-8.764235-8.794353z" fill="#568af2" /><path d="M326.264471 184.470588c14.576941 0 26.352941 11.806118 26.352941 26.352941v140.559059a26.352941 26.352941 0 0 1-52.705883 0V210.823529c0-14.546824 11.806118-26.352941 26.352942-26.352941zM519.529412 483.147294a26.352941 26.352941 0 1 1 0 52.705882h-193.264941a26.352941 26.352941 0 0 1 0-52.705882h193.264941zM677.647059 623.676235a26.352941 26.352941 0 0 1 0 52.705883H326.264471a26.352941 26.352941 0 0 1 0-52.705883H677.647059zM677.647059 184.470588c14.546824 0 26.352941 11.806118 26.352941 26.352941v140.559059a26.352941 26.352941 0 0 1-52.705882 0V210.823529c0-14.546824 11.806118-26.352941 26.352941-26.352941z" fill="#568af2" /></svg>