<svg class="icon" style="width: 1em;height: 1em;vertical-align: middle;fill: currentColor;overflow: hidden;" viewBox="0 0 1024 1024" version="1.1" xmlns="http://www.w3.org/2000/svg" width="32" height="32"><path d="M838.957176 404.570353a26.352941 26.352941 0 0 1 40.719059 22.106353v383.307294c0 35.237647-26.985412 64.692706-61.470117 64.692706h-632.470589c-34.514824 0-61.500235-29.455059-61.500235-64.692706V426.676706a26.352941 26.352941 0 0 1 40.719059-22.106353l336.986353 219.045647 337.01647-219.045647zM176.941176 475.196235v334.787765c0 7.107765 4.457412 11.986824 8.794353 11.986824h632.470589c4.306824 0 8.764235-4.879059 8.764235-11.986824V475.226353l-310.633412 201.938823a26.352941 26.352941 0 0 1-25.359059 1.837177l-3.373176-1.837177-310.66353-201.968941z" fill="#568af2" /><path d="M487.002353 159.021176a26.352941 26.352941 0 0 1 29.906823 0l351.382589 242.145883a26.352941 26.352941 0 0 1-29.906824 43.399529L501.940706 212.690824l-336.414118 231.905882a26.352941 26.352941 0 0 1-34.42447-3.97553l-2.198589-2.800941a26.352941 26.352941 0 0 1 6.716236-36.653176L487.002353 159.021176z" fill="#568af2" /></svg>