<svg class="icon" style="width: 1em;height: 1em;vertical-align: middle;fill: currentColor;overflow: hidden;" viewBox="0 0 1024 1024" version="1.1" xmlns="http://www.w3.org/2000/svg" width="32" height="32"><path d="M614.912 124.235294c7.469176 0 14.576941 3.162353 19.576471 8.734118l158.117647 175.676235c4.367059 4.818824 6.776471 11.143529 6.77647 17.618824v158.117647a26.352941 26.352941 0 0 1-52.705882 0l-0.030118-148.028236-143.48047-159.412706H245.970824a8.794353 8.794353 0 0 0-8.553412 6.776471l-0.240941 2.017882v632.470589c0 4.818824 3.915294 8.764235 8.794353 8.764235h210.823529a26.352941 26.352941 0 0 1 0 52.705882h-210.823529a61.500235 61.500235 0 0 1-61.500236-61.470117v-632.470589c0-33.972706 27.527529-61.500235 61.500236-61.500235h368.941176z" fill="#568af2" /><path d="M765.409882 599.612235a26.352941 26.352941 0 0 1 50.356706 15.540706 178.145882 178.145882 0 0 1-25.871059 51.862588 172.363294 172.363294 0 0 1-139.866353 72.131765 172.363294 172.363294 0 0 1-139.866352-72.131765 178.145882 178.145882 0 0 1-25.840942-51.862588 26.352941 26.352941 0 0 1 50.356706-15.540706c4.065882 13.161412 10.24 25.479529 18.221177 36.532706a119.687529 119.687529 0 0 0 97.129411 50.296471c38.731294 0 74.390588-18.853647 97.15953-50.296471 7.981176-11.053176 14.155294-23.371294 18.221176-36.532706z" fill="#568af2" /><path d="M581.029647 707.162353a26.352941 26.352941 0 0 1 50.898824 13.643294l-18.160942 67.885177a26.352941 26.352941 0 1 1-50.898823-13.643295l18.160941-67.885176zM686.893176 688.519529a26.352941 26.352941 0 0 1 32.286118 18.672942l18.191059 67.855058a26.352941 26.352941 0 1 1-50.898824 13.643295l-18.221176-67.885177a26.352941 26.352941 0 0 1 18.672941-32.286118zM743.002353 665.238588a26.352941 26.352941 0 0 1 37.285647 0l49.694118 49.694118a26.352941 26.352941 0 1 1-37.25553 37.255529l-49.694117-49.694117a26.352941 26.352941 0 0 1 0-37.25553zM522.992941 662.196706a26.352941 26.352941 0 1 1 37.25553 37.285647l-49.694118 49.694118a26.352941 26.352941 0 0 1-37.255529-37.285647l49.694117-49.694118zM597.323294 124.235294c14.576941 0 26.352941 11.806118 26.352941 26.352941v149.323294h149.353412c13.432471 0 24.515765 10.059294 26.142118 23.070118l0.210823 3.312941a26.352941 26.352941 0 0 1-26.352941 26.322824h-175.706353a26.352941 26.352941 0 0 1-26.352941-26.352941V150.588235c0-14.546824 11.806118-26.352941 26.352941-26.352941z" fill="#568af2" /></svg>