<svg class="icon" style="width: 1em;height: 1em;vertical-align: middle;fill: currentColor;overflow: hidden;" viewBox="0 0 1024 1024" version="1.1" xmlns="http://www.w3.org/2000/svg" width="32" height="32"><path d="M623.676235 120.470588c14.576941 0 26.352941 11.806118 26.352941 26.352941v149.323295h149.353412c13.432471 0 24.515765 10.059294 26.142118 23.070117l0.210823 3.312941v491.91153a61.500235 61.500235 0 0 1-61.500235 61.470117H272.323765A61.500235 61.500235 0 0 1 210.823529 814.441412v-632.470588C210.823529 147.998118 238.351059 120.470588 272.323765 120.470588h351.35247z m-26.352941 52.705883H272.323765a8.794353 8.794353 0 0 0-8.794353 8.794353v632.470588c0 4.818824 3.915294 8.764235 8.794353 8.764235h491.911529c4.848941 0 8.794353-3.915294 8.794353-8.764235l-0.030118-465.588706h-149.323294a26.352941 26.352941 0 0 1-26.142117-23.04l-0.210824-3.312941V173.176471z" fill="#568af2" /><path d="M605.063529 128.180706a26.352941 26.352941 0 0 1 37.25553 0l175.676235 175.706353a26.352941 26.352941 0 1 1-37.255529 37.255529L605.063529 165.466353a26.352941 26.352941 0 0 1 0-37.285647zM602.593882 419.147294c8.131765 0 15.811765 3.734588 20.811294 10.179765l56.229648 72.342588a26.352941 26.352941 0 0 1-0.301177 32.737882l-140.589176 173.628236a26.352941 26.352941 0 0 1-40.96 0l-140.528942-173.628236a26.352941 26.352941 0 0 1-0.331294-32.737882l56.19953-72.342588a26.352941 26.352941 0 0 1 20.811294-10.179765h168.658823z m-12.890353 52.705882h-142.878117l-35.478588 45.628236 106.917647 132.096 106.917647-132.096-35.478589-45.628236z" fill="#568af2" /></svg>