<svg class="icon" style="width: 1em;height: 1em;vertical-align: middle;fill: currentColor;overflow: hidden;" viewBox="0 0 1024 1024" version="1.1" xmlns="http://www.w3.org/2000/svg" width="32" height="32"><path d="M614.912 124.235294c7.469176 0 14.576941 3.162353 19.576471 8.734118l158.117647 175.676235c4.367059 4.818824 6.776471 11.143529 6.77647 17.618824v158.117647a26.352941 26.352941 0 0 1-52.705882 0l-0.030118-148.028236-143.48047-159.412706H245.970824a8.794353 8.794353 0 0 0-8.553412 6.776471l-0.240941 2.017882v632.470589c0 4.818824 3.915294 8.764235 8.794353 8.764235h210.823529a26.352941 26.352941 0 0 1 0 52.705882h-210.823529a61.500235 61.500235 0 0 1-61.500236-61.470117v-632.470589c0-33.972706 27.527529-61.500235 61.500236-61.500235h368.941176z" fill="#568af2" /><path d="M722.944 581.029647c52.886588 0 93.997176 47.887059 93.997176 105.170824 0 79.721412-73.246118 165.948235-139.806117 191.698823a26.352941 26.352941 0 0 1-19.034353 0c-66.56-25.750588-139.836235-111.977412-139.836235-191.698823 0-57.283765 41.110588-105.170824 93.997176-105.170824 19.968 0 38.701176 6.927059 54.121412 19.094588l1.204706 1.054118 1.234823-1.054118a87.521882 87.521882 0 0 1 48.188236-18.883764l5.933176-0.210824z m0 52.705882c-12.649412 0-24.756706 7.499294-32.768 20.781177a26.352941 26.352941 0 0 1-45.116235 0c-8.011294-13.281882-20.178824-20.781176-32.798118-20.781177-21.835294 0-41.261176 22.648471-41.261176 52.464942 0 51.651765 50.447059 114.627765 96.075294 138.029176l0.512 0.240941 0.542117-0.240941c43.971765-22.558118 92.370824-81.769412 95.894589-132.246588l0.210823-5.782588c0-29.816471-19.456-52.464941-41.261176-52.464942zM597.323294 124.235294c14.576941 0 26.352941 11.806118 26.352941 26.352941v149.323294h149.353412c13.432471 0 24.515765 10.059294 26.142118 23.070118l0.210823 3.312941a26.352941 26.352941 0 0 1-26.352941 26.322824h-175.706353a26.352941 26.352941 0 0 1-26.352941-26.352941V150.588235c0-14.546824 11.806118-26.352941 26.352941-26.352941z" fill="#568af2" /></svg>