<svg class="icon" style="width: 1em;height: 1em;vertical-align: middle;fill: currentColor;overflow: hidden;" viewBox="0 0 1024 1024" version="1.1" xmlns="http://www.w3.org/2000/svg" width="32" height="32"><path d="M849.558588 180.705882c14.576941 0 26.352941 11.806118 26.352941 26.352942v456.794352a26.352941 26.352941 0 0 1-52.705882 0V233.411765H173.176471v439.205647h360.146823c13.462588 0 24.545882 10.059294 26.172235 23.070117l0.180706 3.312942a26.352941 26.352941 0 0 1-26.352941 26.322823H146.823529A26.352941 26.352941 0 0 1 120.470588 698.970353V207.058824C120.470588 192.512 132.276706 180.705882 146.823529 180.705882h702.735059z" fill="#568af2" /><path d="M691.440941 479.382588a184.470588 184.470588 0 1 1 0 368.941177 184.470588 184.470588 0 0 1 0-368.941177z m0 52.705883a131.764706 131.764706 0 1 0 0 263.529411 131.764706 131.764706 0 0 0 0-263.529411z" fill="#568af2" /><path d="M707.945412 610.063059a26.352941 26.352941 0 0 1 37.285647 37.285647l-70.294588 70.26447a26.352941 26.352941 0 1 1-37.25553-37.255529l70.264471-70.294588zM835.222588 184.952471a26.352941 26.352941 0 1 1 28.702118 44.212705L512.602353 457.547294a26.352941 26.352941 0 0 1-28.732235 0L132.457412 229.195294a26.352941 26.352941 0 1 1 28.732235-44.212706l337.016471 219.045647 337.01647-219.045647z" fill="#568af2" /></svg>