<svg class="icon" style="width: 1em;height: 1em;vertical-align: middle;fill: currentColor;overflow: hidden;" viewBox="0 0 1024 1024" version="1.1" xmlns="http://www.w3.org/2000/svg" width="32" height="32"><path d="M853.323294 184.470588c14.576941 0 26.352941 11.806118 26.352941 26.352941v527.058824a26.352941 26.352941 0 0 1-26.352941 26.352941h-252.626823l-80.112942 80.112941a26.352941 26.352941 0 0 1-34.544941 2.379294l-2.710588-2.379294-80.112941-80.112941H150.588235a26.352941 26.352941 0 0 1-26.142117-23.04l-0.210824-3.312941V210.823529c0-14.546824 11.806118-26.352941 26.352941-26.352941h702.735059z m-26.352941 52.705883H176.941176v474.352941h237.176471c5.812706 0 11.444706 1.927529 16.022588 5.421176l2.620236 2.288941 69.180235 69.180236 69.24047-69.180236a26.352941 26.352941 0 0 1 15.149177-7.469176l3.463529-0.240941h237.176471V237.176471z" fill="#568af2" /><path d="M431.676235 342.588235a26.352941 26.352941 0 1 1 0 52.705883h-105.411764a26.352941 26.352941 0 0 1 0-52.705883h105.411764zM361.411765 483.147294a26.352941 26.352941 0 1 1 0 52.705882h-35.147294a26.352941 26.352941 0 0 1 0-52.705882H361.411765zM578.017882 310.211765a26.352941 26.352941 0 0 1 35.358118 11.806117l122.970353 245.970824a26.352941 26.352941 0 0 1-47.134118 23.552l-122.970353-245.940706a26.352941 26.352941 0 0 1 11.776-35.358118z" fill="#568af2" /><path d="M566.211765 322.017882a26.352941 26.352941 0 1 1 47.164235 23.582118l-122.970353 245.940706a26.352941 26.352941 0 1 1-47.164235-23.552l123.00047-245.970824z" fill="#568af2" /><path d="M677.647059 483.147294a26.352941 26.352941 0 1 1 0 52.705882h-175.676235a26.352941 26.352941 0 0 1 0-52.705882H677.647059z" fill="#568af2" /></svg>