<svg class="icon" style="width: 1em;height: 1em;vertical-align: middle;fill: currentColor;overflow: hidden;" viewBox="0 0 1024 1024" version="1.1" xmlns="http://www.w3.org/2000/svg" width="32" height="32"><path d="M768 124.235294c33.972706 0 61.500235 27.527529 61.500235 61.500235v632.470589a61.500235 61.500235 0 0 1-61.500235 61.470117H276.088471a61.500235 61.500235 0 0 1-61.500236-61.470117v-632.470589c0-33.972706 27.527529-61.500235 61.500236-61.500235H768z m0 52.705882H276.088471a8.794353 8.794353 0 0 0-8.794353 8.794353v632.470589c0 4.818824 3.915294 8.764235 8.794353 8.764235H768c4.848941 0 8.794353-3.915294 8.794353-8.764235v-632.470589a8.794353 8.794353 0 0 0-8.794353-8.794353z" fill="#568af2" /><path d="M680.146824 299.911529a26.352941 26.352941 0 1 1 0 52.705883h-210.82353a26.352941 26.352941 0 0 1 0-52.705883h210.82353zM680.146824 475.617882a26.352941 26.352941 0 1 1 0 52.705883h-210.82353a26.352941 26.352941 0 0 1 0-52.705883h210.82353zM680.146824 651.294118a26.352941 26.352941 0 1 1 0 52.705882h-210.82353a26.352941 26.352941 0 0 1 0-52.705882h210.82353z" fill="#568af2" /><path d="M363.911529 361.411765a35.147294 35.147294 0 1 0 0-70.264471 35.147294 35.147294 0 0 0 0 70.264471zM363.911529 537.088a35.147294 35.147294 0 1 0 0-70.264471 35.147294 35.147294 0 0 0 0 70.264471zM363.911529 712.794353a35.147294 35.147294 0 1 0 0-70.294588 35.147294 35.147294 0 0 0 0 70.294588z" fill="#568af2" /></svg>