<svg class="icon" style="width: 1em;height: 1em;vertical-align: middle;fill: currentColor;overflow: hidden;" viewBox="0 0 1024 1024" version="1.1" xmlns="http://www.w3.org/2000/svg" width="32" height="32"><path d="M712.794353 214.588235c14.546824 0 26.352941 11.806118 26.352941 26.352941v140.559059a26.352941 26.352941 0 0 1-52.705882 0l-0.030118-114.206117H176.941176v368.941176h114.206118c13.432471 0 24.515765 10.059294 26.142118 23.04l0.210823 3.312941a26.352941 26.352941 0 0 1-26.352941 26.352941H150.588235A26.352941 26.352941 0 0 1 124.235294 662.588235V240.941176c0-14.546824 11.806118-26.352941 26.352941-26.352941h562.206118z" fill="#568af2" /><path d="M853.323294 355.147294c14.576941 0 26.352941 11.776 26.352941 26.352941v421.647059a26.352941 26.352941 0 0 1-26.352941 26.352941H291.147294a26.352941 26.352941 0 0 1-26.352941-26.352941v-421.647059c0-14.576941 11.776-26.352941 26.352941-26.352941h562.176z m-26.352941 52.705882H317.500235v368.941177h509.470118v-368.941177z" fill="#568af2" /><path d="M837.511529 360.417882a26.352941 26.352941 0 1 1 31.62353 42.164706l-281.088 210.82353a26.352941 26.352941 0 0 1-31.62353 0l-281.088-210.82353a26.352941 26.352941 0 1 1 31.62353-42.164706L572.235294 559.375059l265.276235-198.957177z" fill="#568af2" /><path d="M642.499765 355.147294a26.352941 26.352941 0 1 1 0 52.705882H317.500235v237.176471a26.352941 26.352941 0 0 1-23.070117 26.142118l-3.312942 0.210823a26.352941 26.352941 0 0 1-26.322823-26.352941v-263.529412c0-14.576941 11.776-26.352941 26.352941-26.352941h351.352471z" fill="#568af2" /><path d="M853.323294 355.147294c14.576941 0 26.352941 11.776 26.352941 26.352941v263.529412a26.352941 26.352941 0 0 1-52.705882 0v-237.176471H501.970824a26.352941 26.352941 0 0 1-26.172236-23.070117l-0.180706-3.312941c0-14.546824 11.776-26.322824 26.352942-26.322824h351.35247z" fill="#568af2" /></svg>