<svg class="icon" style="width: 1em;height: 1em;vertical-align: middle;fill: currentColor;overflow: hidden;" viewBox="0 0 1024 1024" version="1.1" xmlns="http://www.w3.org/2000/svg" width="32" height="32"><path d="M769.264941 184.470588a79.058824 79.058824 0 0 1 79.058824 79.058824v527.058823a79.058824 79.058824 0 0 1-79.058824 79.058824h-527.058823a79.058824 79.058824 0 0 1-79.058824-79.058824V263.529412a79.058824 79.058824 0 0 1 79.058824-79.058824h527.058823z m0 52.705883h-527.058823a26.352941 26.352941 0 0 0-26.352942 26.352941v527.058823c0 14.546824 11.776 26.352941 26.352942 26.352941h527.058823a26.352941 26.352941 0 0 0 26.352941-26.352941V263.529412a26.352941 26.352941 0 0 0-26.352941-26.352941z" fill="#568af2" /><path d="M359.544471 405.684706a61.500235 61.500235 0 0 1 81.558588-1.355294l222.32847 190.554353a26.352941 26.352941 0 0 1-34.334117 40.026353l-222.268236-190.554353a8.794353 8.794353 0 0 0-11.655529 0.210823l-187.873882 172.182588a26.352941 26.352941 0 1 1-35.629177-38.851764l187.873883-172.182588z" fill="#568af2" /><path d="M641.204706 424.568471a61.500235 61.500235 0 0 1 80.414118-5.722353l116.163764 87.130353a26.352941 26.352941 0 0 1-31.623529 42.164705l-116.163765-87.130352a8.794353 8.794353 0 0 0-11.504941 0.813176l-83.847529 83.877647a26.352941 26.352941 0 1 1-37.285648-37.285647l83.877648-83.847529zM189.500235 430.441412c14.546824 0 26.352941 11.776 26.352941 26.352941V632.470588a26.352941 26.352941 0 1 1-52.705882 0v-175.676235c0-14.576941 11.776-26.352941 26.352941-26.352941z" fill="#568af2" /><path d="M821.970824 430.441412c14.546824 0 26.352941 11.776 26.352941 26.352941V632.470588a26.352941 26.352941 0 0 1-52.705883 0v-175.676235c0-14.576941 11.776-26.352941 26.352942-26.352941z" fill="#568af2" /></svg>