<svg class="icon" style="width: 1em;height: 1em;vertical-align: middle;fill: currentColor;overflow: hidden;" viewBox="0 0 1024 1024" version="1.1" xmlns="http://www.w3.org/2000/svg" width="32" height="32"><path d="M426.676706 184.470588c7.830588 0 15.239529 3.463529 20.239059 9.487059l79.932235 95.924706H813.176471c32.406588 0 58.970353 25.088 61.319529 56.922353l0.180706 4.577882v158.117647a26.352941 26.352941 0 0 1-52.705882 0v-158.117647a8.794353 8.794353 0 0 0-8.794353-8.794353h-298.676706a26.352941 26.352941 0 0 1-20.239059-9.487059l-79.932235-95.924705h-198.475295a8.794353 8.794353 0 0 0-8.553411 6.77647l-0.240941 2.017883v562.176c0 4.848941 3.915294 8.794353 8.794352 8.794352h263.529412a26.352941 26.352941 0 0 1 0 52.705883h-263.529412a61.500235 61.500235 0 0 1-61.500235-61.500235V245.970824c0-33.972706 27.527529-61.500235 61.500235-61.500236h210.82353z" fill="#568af2" /><path d="M763.994353 588.559059c8.041412 0 15.661176 3.674353 20.630588 9.938823l49.182118 62.042353a26.352941 26.352941 0 0 1-0.301177 33.129412l-123.00047 148.841412a26.352941 26.352941 0 0 1-40.628706 0l-122.970353-148.811294a26.352941 26.352941 0 0 1-0.331294-33.15953l49.182117-62.042353a26.352941 26.352941 0 0 1 20.660706-9.938823h147.576471z m-12.769882 52.705882h-122.127059l-28.009412 35.297883 89.088 107.791058 89.088-107.821176-28.009412-35.267765z" fill="#568af2" /></svg>