<svg class="icon" style="width: 1em;height: 1em;vertical-align: middle;fill: currentColor;overflow: hidden;" viewBox="0 0 1024 1024" version="1.1" xmlns="http://www.w3.org/2000/svg" width="32" height="32"><path d="M627.440941 124.235294c14.576941 0 26.352941 11.806118 26.352941 26.352941v149.323294h149.353412c13.432471 0 24.515765 10.059294 26.142118 23.070118l0.210823 3.312941v491.91153a61.500235 61.500235 0 0 1-61.500235 61.470117H276.088471a61.500235 61.500235 0 0 1-61.500236-61.470117v-632.470589c0-33.972706 27.527529-61.500235 61.500236-61.500235h351.35247z m-26.352941 52.705882H276.088471a8.794353 8.794353 0 0 0-8.794353 8.794353v632.470589c0 4.818824 3.915294 8.764235 8.794353 8.764235H768c4.848941 0 8.794353-3.915294 8.794353-8.764235l-0.030118-465.588706h-149.323294a26.352941 26.352941 0 0 1-26.142117-23.04l-0.210824-3.312941V176.941176z" fill="#568af2" /><path d="M608.828235 131.945412a26.352941 26.352941 0 0 1 37.25553 0l175.676235 175.706353a26.352941 26.352941 0 1 1-37.255529 37.255529L608.828235 169.261176a26.352941 26.352941 0 0 1 0-37.285647zM522.029176 440.470588c46.08 0 89.509647 22.678588 129.656471 59.663059a368.128 368.128 0 0 1 50.356706 57.404235 26.352941 26.352941 0 0 1 0 29.394824 368.128 368.128 0 0 1-50.326588 57.404235c-40.176941 36.984471-83.606588 59.663059-129.686589 59.663059-46.08 0-89.479529-22.678588-129.65647-59.663059a368.128 368.128 0 0 1-50.326588-57.404235 26.352941 26.352941 0 0 1 0-29.394824 368.128 368.128 0 0 1 50.326588-57.404235c40.176941-36.984471 83.576471-59.663059 129.65647-59.663059z m0 52.705883c-30.328471 0-62.584471 16.865882-93.967058 45.748705-11.474824 10.571294-21.985882 21.985882-31.232 33.430589l0.060235-0.150589 7.107765 8.463059c4.909176 5.692235 10.149647 11.324235 15.661176 16.805647l8.432941 8.07153c31.352471 28.912941 63.608471 45.748706 93.967059 45.748706 30.298353 0 62.554353-16.865882 93.936941-45.748706 11.504941-10.571294 21.985882-21.985882 31.262118-33.430588l-0.120471 0.12047-7.047529-8.432941a317.620706 317.620706 0 0 0-15.661177-16.805647l-8.432941-8.07153c-31.382588-28.912941-63.638588-45.748706-93.967059-45.748705z" fill="#568af2" /><path d="M522.029176 607.382588a35.147294 35.147294 0 1 0 0-70.294588 35.147294 35.147294 0 0 0 0 70.294588z" fill="#568af2" /></svg>