<svg class="icon" style="width: 1em;height: 1em;vertical-align: middle;fill: currentColor;overflow: hidden;" viewBox="0 0 1024 1024" version="1.1" xmlns="http://www.w3.org/2000/svg" width="32" height="32"><path d="M786.823529 180.705882a79.058824 79.058824 0 0 1 79.058824 79.058824v527.058823a79.058824 79.058824 0 0 1-79.058824 79.058824h-527.058823A79.058824 79.058824 0 0 1 180.705882 786.823529v-527.058823A79.058824 79.058824 0 0 1 259.764706 180.705882h527.058823z m0 52.705883h-527.058823a26.352941 26.352941 0 0 0-26.352941 26.352941v527.058823c0 14.546824 11.806118 26.352941 26.352941 26.352942h527.058823a26.352941 26.352941 0 0 0 26.352942-26.352942v-527.058823a26.352941 26.352941 0 0 0-26.352942-26.352941z" fill="#568af2" /><path d="M470.588235 373.970824a26.352941 26.352941 0 1 1 0 52.705882h-114.206117v219.587765a26.352941 26.352941 0 0 1-23.04 26.172235l-3.312942 0.180706a26.352941 26.352941 0 0 1-26.352941-26.352941v-245.940706c0-14.576941 11.806118-26.352941 26.352941-26.352941h140.559059z" fill="#568af2" /><path d="M461.793882 496.941176a26.352941 26.352941 0 1 1 0 52.705883h-131.764706a26.352941 26.352941 0 0 1 0-52.705883h131.764706zM461.793882 619.911529a26.352941 26.352941 0 0 1 0 52.705883h-131.764706a26.352941 26.352941 0 0 1 0-52.705883h131.764706zM558.441412 409.088c14.546824 0 26.352941 11.806118 26.352941 26.352941v210.82353a26.352941 26.352941 0 0 1-52.705882 0v-210.82353c0-14.546824 11.776-26.352941 26.352941-26.352941z" fill="#568af2" /><path d="M637.500235 426.676706a105.411765 105.411765 0 0 1 105.411765 105.411765v114.176a26.352941 26.352941 0 0 1-52.705882 0v-114.176a52.705882 52.705882 0 1 0-105.411765 0v114.176a26.352941 26.352941 0 0 1-52.705882 0v-114.176a105.411765 105.411765 0 0 1 105.411764-105.411765z" fill="#568af2" /></svg>