<svg class="icon" style="width: 1em;height: 1em;vertical-align: middle;fill: currentColor;overflow: hidden;" viewBox="0 0 1024 1024" version="1.1" xmlns="http://www.w3.org/2000/svg" width="32" height="32"><path d="M803.147294 633.735529c14.546824 0 26.352941 11.776 26.352941 26.352942v158.117647a61.500235 61.500235 0 0 1-61.500235 61.470117h-114.206118a26.352941 26.352941 0 0 1 0-52.705882H768c4.848941 0 8.794353-3.915294 8.794353-8.764235v-158.117647c0-14.576941 11.776-26.352941 26.352941-26.352942zM768 124.235294c33.972706 0 61.500235 27.527529 61.500235 61.500235V361.411765a26.352941 26.352941 0 0 1-52.705882 0V185.735529a8.794353 8.794353 0 0 0-8.794353-8.794353H276.088471a8.794353 8.794353 0 0 0-8.794353 8.794353v632.470589c0 4.818824 3.915294 8.764235 8.794353 8.764235h105.411764a26.352941 26.352941 0 0 1 0 52.705882h-105.411764a61.500235 61.500235 0 0 1-61.500236-61.470117v-632.470589c0-33.972706 27.527529-61.500235 61.500236-61.500235H768z" fill="#568af2" /><path d="M627.440941 335.058824a26.352941 26.352941 0 1 1 0 52.705882h-245.940706a26.352941 26.352941 0 1 1 0-52.705882h245.940706zM782.667294 467.817412a26.352941 26.352941 0 0 1 40.96 33.129412l-298.676706 368.941176a26.352941 26.352941 0 0 1-40.96-33.129412l298.676706-368.941176zM522.029176 475.617882a26.352941 26.352941 0 1 1 0 52.705883h-140.528941a26.352941 26.352941 0 0 1 0-52.705883h140.528941z" fill="#568af2" /></svg>