<svg class="icon" style="width: 1em;height: 1em;vertical-align: middle;fill: currentColor;overflow: hidden;" viewBox="0 0 1024 1024" version="1.1" xmlns="http://www.w3.org/2000/svg" width="32" height="32"><path d="M786.823529 180.705882a79.058824 79.058824 0 0 1 79.058824 79.058824v527.058823a79.058824 79.058824 0 0 1-79.058824 79.058824h-527.058823A79.058824 79.058824 0 0 1 180.705882 786.823529v-527.058823A79.058824 79.058824 0 0 1 259.764706 180.705882h527.058823z m0 52.705883h-527.058823a26.352941 26.352941 0 0 0-26.352941 26.352941v527.058823c0 14.546824 11.806118 26.352941 26.352941 26.352942h527.058823a26.352941 26.352941 0 0 0 26.352942-26.352942v-527.058823a26.352941 26.352941 0 0 0-26.352942-26.352941z" fill="#568af2" /><path d="M698.970353 391.529412c14.576941 0 26.352941 11.806118 26.352941 26.352941v175.676235a26.352941 26.352941 0 0 1-26.352941 26.352941H347.617882a26.352941 26.352941 0 0 1-26.352941-26.352941v-175.676235c0-14.546824 11.776-26.352941 26.352941-26.352941h351.352471z m-26.352941 52.705882h-298.646588v122.970353h298.646588V444.235294z" fill="#568af2" /><path d="M523.294118 321.264941c14.546824 0 26.352941 11.776 26.352941 26.352941v368.941177a26.352941 26.352941 0 0 1-52.705883 0v-368.941177c0-14.576941 11.806118-26.352941 26.352942-26.352941z" fill="#568af2" /></svg>