<svg class="icon" style="width: 1em;height: 1em;vertical-align: middle;fill: currentColor;overflow: hidden;" viewBox="0 0 1024 1024" version="1.1" xmlns="http://www.w3.org/2000/svg" width="32" height="32"><path d="M808.146824 133.029647c33.972706 0 61.500235 27.527529 61.500235 61.470118v632.470588a61.500235 61.500235 0 0 1-61.500235 61.500235H316.235294a61.500235 61.500235 0 0 1-61.500235-61.500235v-632.470588c0-33.942588 27.527529-61.470118 61.500235-61.470118h491.91153z m0 52.705882H316.235294a8.794353 8.794353 0 0 0-8.794353 8.764236v632.470588c0 4.848941 3.915294 8.794353 8.794353 8.794353h491.91153c4.848941 0 8.794353-3.915294 8.794352-8.794353v-632.470588a8.794353 8.794353 0 0 0-8.794352-8.764236z" fill="#568af2" /><path d="M702.735059 168.146824c14.576941 0 26.352941 11.806118 26.352941 26.352941v632.470588a26.352941 26.352941 0 1 1-52.705882 0v-632.470588c0-14.546824 11.806118-26.352941 26.352941-26.352941zM351.382588 308.705882a26.352941 26.352941 0 0 1 0 52.705883H210.823529a26.352941 26.352941 0 1 1 0-52.705883h140.559059zM351.382588 484.382118a26.352941 26.352941 0 0 1 0 52.705882H210.823529a26.352941 26.352941 0 1 1 0-52.705882h140.559059zM351.382588 660.088471a26.352941 26.352941 0 0 1 0 52.705882H210.823529a26.352941 26.352941 0 0 1 0-52.705882h140.559059z" fill="#568af2" /><path d="M790.588235 133.029647a26.352941 26.352941 0 1 1 0 52.705882h-210.823529a26.352941 26.352941 0 1 1 0-52.705882h210.823529zM790.588235 835.764706a26.352941 26.352941 0 1 1 0 52.705882h-210.823529a26.352941 26.352941 0 1 1 0-52.705882h210.823529z" fill="#568af2" /></svg>