<svg class="icon" style="width: 1em;height: 1em;vertical-align: middle;fill: currentColor;overflow: hidden;" viewBox="0 0 1024 1024" version="1.1" xmlns="http://www.w3.org/2000/svg" width="32" height="32"><path d="M849.558588 210.823529c14.576941 0 26.352941 11.806118 26.352941 26.352942v263.529411a26.352941 26.352941 0 1 1-52.705882 0V263.529412H173.176471V737.882353h325.029647c13.432471 0 24.515765 10.059294 26.142117 23.04l0.210824 3.312941a26.352941 26.352941 0 0 1-26.352941 26.352941H146.823529A26.352941 26.352941 0 0 1 120.470588 764.235294v-527.058823C120.470588 222.629647 132.276706 210.823529 146.823529 210.823529h702.735059z" fill="#568af2" /><path d="M744.387765 551.152941a26.352941 26.352941 0 0 1 35.96047 1.204706l70.294589 70.264471a26.352941 26.352941 0 0 1-1.295059 38.460235l-140.528941 123.000471a26.352941 26.352941 0 0 1-17.377883 6.505411h-70.26447a26.352941 26.352941 0 0 1-26.352942-26.352941v-70.26447c0-7.619765 3.282824-14.848 9.005177-19.84753l140.559059-122.970353z m16.112941 55.868235l-112.941177 98.846118V737.882353h34.032942l111.826823-97.882353-32.918588-32.948706zM833.746824 216.094118a26.352941 26.352941 0 1 1 31.623529 42.164706l-351.352471 263.529411a26.352941 26.352941 0 0 1-31.623529 0L131.011765 258.258824a26.352941 26.352941 0 1 1 31.623529-42.164706l335.540706 251.663058 335.570824-251.663058z" fill="#568af2" /></svg>