<svg class="icon" style="width: 1em;height: 1em;vertical-align: middle;fill: currentColor;overflow: hidden;" viewBox="0 0 1024 1024" version="1.1" xmlns="http://www.w3.org/2000/svg" width="32" height="32"><path d="M611.147294 120.470588c7.469176 0 14.576941 3.162353 19.576471 8.734118l158.117647 175.676235c4.367059 4.818824 6.776471 11.143529 6.77647 17.618824v158.117647a26.352941 26.352941 0 0 1-52.705882 0l-0.030118-148.028236-143.48047-159.412705H242.206118a8.794353 8.794353 0 0 0-8.553412 6.77647l-0.240941 2.017883v632.470588c0 4.818824 3.915294 8.764235 8.794353 8.764235h210.823529a26.352941 26.352941 0 0 1 0 52.705882h-210.823529A61.500235 61.500235 0 0 1 180.705882 814.441412v-632.470588C180.705882 147.998118 208.233412 120.470588 242.206118 120.470588h368.941176z" fill="#568af2" /><path d="M730.593882 577.264941c8.131765 0 15.811765 3.734588 20.811294 10.179765l56.229648 72.342588a26.352941 26.352941 0 0 1-0.301177 32.737882l-140.589176 173.628236a26.352941 26.352941 0 0 1-40.96 0l-140.528942-173.628236a26.352941 26.352941 0 0 1-0.331294-32.737882l56.19953-72.342588a26.352941 26.352941 0 0 1 20.811294-10.179765h168.658823z m-12.890353 52.705883h-142.878117l-35.478588 45.628235 106.917647 132.096 106.917647-132.096-35.478589-45.628235zM593.558588 120.470588c14.576941 0 26.352941 11.806118 26.352941 26.352941v149.323295h149.353412c13.432471 0 24.515765 10.059294 26.142118 23.070117l0.210823 3.312941a26.352941 26.352941 0 0 1-26.352941 26.322824h-175.706353a26.352941 26.352941 0 0 1-26.352941-26.352941V146.823529c0-14.546824 11.806118-26.352941 26.352941-26.352941z" fill="#568af2" /></svg>