<svg class="icon" style="width: 1em;height: 1em;vertical-align: middle;fill: currentColor;overflow: hidden;" viewBox="0 0 1024 1024" version="1.1" xmlns="http://www.w3.org/2000/svg" width="32" height="32"><path d="M848.323765 400.323765c14.546824 0 26.352941 11.776 26.352941 26.352941v245.940706a26.352941 26.352941 0 0 1-52.705882 0l-0.030118-219.587765H207.058824V813.176471c0 4.156235 2.891294 7.649882 6.77647 8.553411l2.017882 0.240942h298.646589a26.352941 26.352941 0 1 1 0 52.705882H215.853176A61.500235 61.500235 0 0 1 154.352941 813.176471V426.676706c0-14.576941 11.806118-26.352941 26.352941-26.352941h667.617883z" fill="#568af2" /><path d="M813.176471 207.058824c33.972706 0 61.500235 27.527529 61.500235 61.500235v158.117647a26.352941 26.352941 0 0 1-26.352941 26.352941H180.705882a26.352941 26.352941 0 0 1-26.352941-26.352941v-158.117647c0-33.972706 27.527529-61.500235 61.500235-61.500235H813.176471z m0 52.705882H215.853176a8.794353 8.794353 0 0 0-8.794352 8.794353v131.734588h614.881882V268.559059a8.794353 8.794353 0 0 0-6.746353-8.553412L813.176471 259.764706z" fill="#568af2" /><path d="M373.970824 154.352941c14.546824 0 26.352941 11.806118 26.352941 26.352941v140.559059a26.352941 26.352941 0 0 1-52.705883 0V180.705882c0-14.546824 11.776-26.352941 26.352942-26.352941zM655.058824 154.352941c14.546824 0 26.352941 11.806118 26.352941 26.352941v140.559059a26.352941 26.352941 0 0 1-52.705883 0V180.705882c0-14.546824 11.806118-26.352941 26.352942-26.352941zM619.911529 505.735529a149.323294 149.323294 0 1 1 0 298.646589 149.323294 149.323294 0 0 1 0-298.646589z m0 52.705883a96.617412 96.617412 0 1 0 0 193.234823 96.617412 96.617412 0 0 0 0-193.234823z" fill="#568af2" /><path d="M705.084235 726.046118a26.352941 26.352941 0 0 1 37.104941-3.403294l105.411765 87.853176a26.352941 26.352941 0 0 1-33.731765 40.508235l-105.411764-87.853176a26.352941 26.352941 0 0 1-3.373177-37.104941z" fill="#568af2" /></svg>