<svg class="icon" style="width: 1em;height: 1em;vertical-align: middle;fill: currentColor;overflow: hidden;" viewBox="0 0 1024 1024" version="1.1" xmlns="http://www.w3.org/2000/svg" width="32" height="32"><path d="M849.558588 391.529412c14.576941 0 26.352941 11.806118 26.352941 26.352941v421.647059a26.352941 26.352941 0 0 1-26.352941 26.352941H146.823529A26.352941 26.352941 0 0 1 120.470588 839.529412v-421.647059c0-14.546824 11.806118-26.352941 26.352941-26.352941h702.735059z m-26.352941 52.705882H173.176471V813.176471h650.029176V444.235294z" fill="#568af2" /><path d="M833.746824 396.8a26.352941 26.352941 0 0 1 31.623529 42.164706l-351.352471 263.529412a26.352941 26.352941 0 0 1-31.623529 0L131.011765 438.964706a26.352941 26.352941 0 1 1 31.623529-42.164706l335.540706 251.663059 335.570824-251.663059z" fill="#568af2" /><path d="M498.206118 391.529412a26.352941 26.352941 0 0 1 0 52.705882H173.176471v237.176471a26.352941 26.352941 0 0 1-23.04 26.142117l-3.312942 0.210824A26.352941 26.352941 0 0 1 120.470588 681.411765v-263.529412c0-14.546824 11.806118-26.352941 26.352941-26.352941h351.382589z" fill="#568af2" /><path d="M849.558588 391.529412c14.576941 0 26.352941 11.806118 26.352941 26.352941v263.529412a26.352941 26.352941 0 1 1-52.705882 0V444.235294H498.206118a26.352941 26.352941 0 0 1-26.142118-23.04l-0.210824-3.312941c0-14.546824 11.776-26.352941 26.352942-26.352941h351.35247zM709.029647 286.117647a26.352941 26.352941 0 0 1 0 52.705882h-421.647059a26.352941 26.352941 0 1 1 0-52.705882h421.647059zM638.735059 180.705882a26.352941 26.352941 0 1 1 0 52.705883h-281.088a26.352941 26.352941 0 1 1 0-52.705883h281.088z" fill="#568af2" /></svg>