<svg class="icon" style="width: 1em;height: 1em;vertical-align: middle;fill: currentColor;overflow: hidden;" viewBox="0 0 1024 1024" version="1.1" xmlns="http://www.w3.org/2000/svg" width="32" height="32"><path d="M611.147294 120.470588c7.469176 0 14.576941 3.162353 19.576471 8.734118l158.117647 175.676235c4.367059 4.818824 6.776471 11.143529 6.77647 17.618824v158.117647a26.352941 26.352941 0 0 1-52.705882 0l-0.030118-148.028236-143.48047-159.412705H242.206118a8.794353 8.794353 0 0 0-8.553412 6.77647l-0.240941 2.017883v632.470588c0 4.818824 3.915294 8.764235 8.794353 8.764235h210.823529a26.352941 26.352941 0 0 1 0 52.705882h-210.823529A61.500235 61.500235 0 0 1 180.705882 814.441412v-632.470588C180.705882 147.998118 208.233412 120.470588 242.206118 120.470588h368.941176z" fill="#568af2" /><path d="M639.879529 539.949176a26.352941 26.352941 0 0 1 47.947295 0l38.128941 83.546353 91.25647 10.480942a26.352941 26.352941 0 0 1 17.136941 43.218823l-2.319058 2.379294-67.674353 62.102588 18.251294 90.051765a26.352941 26.352941 0 0 1-35.960471 29.545412l-2.831059-1.385412-79.99247-45.17647-79.962353 45.17647a26.352941 26.352941 0 0 1-39.243294-25.057882l0.451764-3.132235 18.251295-90.051765-67.674353-62.072471a26.352941 26.352941 0 0 1 11.565176-45.025882l3.252706-0.572235 91.256471-10.480942 38.159058-83.546353z m23.973647 74.390589l-20.359529 44.604235a26.352941 26.352941 0 0 1-20.992 15.239529l-48.700235 5.571765 36.141176 33.129412c5.933176 5.481412 9.035294 13.342118 8.432941 21.263059l-0.421647 3.403294-9.758117 48.067765 42.676706-24.094118a26.352941 26.352941 0 0 1 22.829176-1.505882l3.102118 1.505882 42.676706 24.094118-9.728-48.067765a26.352941 26.352941 0 0 1 5.632-22.166588l2.379294-2.469647 36.111059-33.15953-48.700236-5.571765a26.352941 26.352941 0 0 1-19.335529-12.197647l-1.626353-3.011764-20.35953-44.634353zM593.558588 120.470588c14.576941 0 26.352941 11.806118 26.352941 26.352941v149.323295h149.353412c13.432471 0 24.515765 10.059294 26.142118 23.070117l0.210823 3.312941a26.352941 26.352941 0 0 1-26.352941 26.322824h-175.706353a26.352941 26.352941 0 0 1-26.352941-26.352941V146.823529c0-14.546824 11.806118-26.352941 26.352941-26.352941z" fill="#568af2" /></svg>