<svg class="icon" style="width: 1em;height: 1em;vertical-align: middle;fill: currentColor;overflow: hidden;" viewBox="0 0 1024 1024" version="1.1" xmlns="http://www.w3.org/2000/svg" width="32" height="32"><path d="M843.294118 154.352941c14.546824 0 26.352941 11.806118 26.352941 26.352941v228.382118a26.352941 26.352941 0 0 1-26.352941 26.352941h-105.411765a26.352941 26.352941 0 1 1 0-52.705882h79.058823V207.058824H237.176471v175.676235H316.235294c13.432471 0 24.515765 10.059294 26.142118 23.070117l0.210823 3.312942a26.352941 26.352941 0 0 1-26.352941 26.322823H210.823529a26.352941 26.352941 0 0 1-26.352941-26.352941V180.705882c0-14.546824 11.806118-26.352941 26.352941-26.352941h632.470589z" fill="#568af2" /><path d="M737.882353 259.764706c14.546824 0 26.352941 11.806118 26.352941 26.352941v562.206118a26.352941 26.352941 0 0 1-42.044235 21.172706L632.470588 802.996706l-89.750588 66.499765a26.352941 26.352941 0 0 1-28.129882 2.048l-3.222589-2.048L421.647059 802.996706l-89.750588 66.499765a26.352941 26.352941 0 0 1-41.803295-17.829647l-0.210823-3.343059V286.117647c0-14.546824 11.806118-26.352941 26.352941-26.352941h421.647059z m-26.352941 52.705882h-368.941177v483.508706l63.36753-46.923294a26.352941 26.352941 0 0 1 28.16-2.048l3.222588 2.048 89.720471 66.439529 89.750588-66.439529a26.352941 26.352941 0 0 1 28.129882-2.048l3.222588 2.048 63.36753 46.953412V312.470588z" fill="#568af2" /><path d="M597.323294 505.735529a26.352941 26.352941 0 1 1 0 52.705883h-140.528941a26.352941 26.352941 0 0 1 0-52.705883h140.528941z" fill="#568af2" /><path d="M527.058824 435.440941c14.546824 0 26.352941 11.806118 26.352941 26.352941V602.352941a26.352941 26.352941 0 1 1-52.705883 0v-140.559059c0-14.546824 11.806118-26.352941 26.352942-26.352941z" fill="#568af2" /></svg>