<svg class="icon" style="width: 1em;height: 1em;vertical-align: middle;fill: currentColor;overflow: hidden;" viewBox="0 0 1024 1024" version="1.1" xmlns="http://www.w3.org/2000/svg" width="32" height="32"><path d="M747.911529 721.558588c14.576941 0 26.352941 11.806118 26.352942 26.352941v105.411765a26.352941 26.352941 0 0 1-26.352942 26.352941H256a26.352941 26.352941 0 0 1-26.352941-26.352941v-105.411765a26.352941 26.352941 0 0 1 52.705882 0v79.058824h439.205647v-79.058824c0-13.432471 10.059294-24.515765 23.070118-26.142117l3.312941-0.210824zM607.382588 124.235294c7.981176 0 15.570824 3.614118 20.570353 9.878588l140.559059 175.706353a26.352941 26.352941 0 0 1 5.752471 16.444236v105.411764a26.352941 26.352941 0 1 1-52.705883 0V335.510588l-126.855529-158.539294H282.352941v254.735059a26.352941 26.352941 0 0 1-23.04 26.172235l-3.312941 0.180706a26.352941 26.352941 0 0 1-26.352941-26.352941V150.588235c0-14.546824 11.806118-26.352941 26.352941-26.352941h351.382588z" fill="#568af2" /><path d="M572.235294 124.235294c14.546824 0 26.352941 11.806118 26.352941 26.352941v149.323294h149.323294c13.432471 0 24.545882 10.059294 26.172236 23.070118l0.180706 3.312941a26.352941 26.352941 0 0 1-26.352942 26.322824H572.235294a26.352941 26.352941 0 0 1-26.352941-26.352941V150.588235c0-14.546824 11.806118-26.352941 26.352941-26.352941zM431.676235 264.794353a26.352941 26.352941 0 1 1 0 52.705882H361.411765a26.352941 26.352941 0 0 1 0-52.705882h70.26447zM818.206118 405.323294c33.942588 0 61.470118 27.527529 61.470117 61.500235v245.970824a61.500235 61.500235 0 0 1-61.470117 61.470118h-632.470589a61.500235 61.500235 0 0 1-61.500235-61.470118V466.823529c0-33.972706 27.527529-61.500235 61.500235-61.500235h632.470589z m0 52.705882h-632.470589a8.794353 8.794353 0 0 0-8.794353 8.794353v245.970824c0 4.818824 3.915294 8.764235 8.794353 8.764235h632.470589c4.818824 0 8.764235-3.915294 8.764235-8.764235V466.823529a8.794353 8.794353 0 0 0-8.764235-8.794353z" fill="#568af2" /><path d="M378.970353 493.176471a26.352941 26.352941 0 0 1 21.082353 42.164705l-73.788235 98.364236h52.705882c13.432471 0 24.545882 10.059294 26.172235 23.070117l0.180706 3.312942a26.352941 26.352941 0 0 1-26.352941 26.352941h-105.411765a26.352941 26.352941 0 0 1-21.082353-42.164706l73.788236-98.394353h-52.705883a26.352941 26.352941 0 0 1-26.142117-23.04l-0.210824-3.312941c0-14.546824 11.806118-26.352941 26.352941-26.352941h105.411765zM501.970824 493.176471c14.546824 0 26.352941 11.806118 26.352941 26.352941v140.559059a26.352941 26.352941 0 0 1-52.705883 0V519.529412c0-14.546824 11.776-26.352941 26.352942-26.352941zM624.941176 493.176471c14.546824 0 26.352941 11.806118 26.352942 26.352941v140.559059a26.352941 26.352941 0 0 1-52.705883 0V519.529412c0-14.546824 11.806118-26.352941 26.352941-26.352941z" fill="#568af2" /><path d="M686.441412 493.176471a70.264471 70.264471 0 0 1 0 140.559058H624.941176a26.352941 26.352941 0 0 1 0-52.705882h61.500236a17.558588 17.558588 0 0 0 0-35.147294H624.941176a26.352941 26.352941 0 1 1 0-52.705882h61.500236z" fill="#568af2" /></svg>