<svg class="icon" style="width: 1em;height: 1em;vertical-align: middle;fill: currentColor;overflow: hidden;" viewBox="0 0 1024 1024" version="1.1" xmlns="http://www.w3.org/2000/svg" width="32" height="32"><path d="M287.382588 356.382118a26.352941 26.352941 0 0 1 0 52.705882H173.176471V813.176471h650.029176V409.088h-114.176a26.352941 26.352941 0 0 1-26.142118-23.04l-0.210823-3.312941c0-14.546824 11.776-26.352941 26.352941-26.352941h140.528941c14.576941 0 26.352941 11.806118 26.352941 26.352941v456.794353a26.352941 26.352941 0 0 1-26.352941 26.352941H146.823529A26.352941 26.352941 0 0 1 120.470588 839.529412V382.735059c0-14.546824 11.806118-26.352941 26.352941-26.352941h140.559059z" fill="#568af2" /><path d="M498.206118 180.705882c14.546824 0 26.352941 11.806118 26.352941 26.352942v245.970823a26.352941 26.352941 0 0 1-52.705883 0V207.058824c0-14.546824 11.776-26.352941 26.352942-26.352942z" fill="#568af2" /><path d="M584.975059 328.975059a26.352941 26.352941 0 0 1 37.255529 37.255529l-105.411764 105.411765a26.352941 26.352941 0 0 1-37.25553 0l-105.411765-105.411765a26.352941 26.352941 0 0 1 37.25553-37.255529l86.799059 86.799059 86.768941-86.799059z" fill="#568af2" /><path d="M833.746824 361.652706a26.352941 26.352941 0 0 1 31.623529 42.164706l-351.352471 263.529412a26.352941 26.352941 0 0 1-31.623529 0L131.011765 403.817412a26.352941 26.352941 0 1 1 31.623529-42.164706l335.540706 251.663059 335.570824-251.663059z" fill="#568af2" /></svg>