<svg class="icon" style="width: 1em;height: 1em;vertical-align: middle;fill: currentColor;overflow: hidden;" viewBox="0 0 1024 1024" version="1.1" xmlns="http://www.w3.org/2000/svg" width="32" height="32"><path d="M803.147294 124.235294c14.546824 0 26.352941 11.806118 26.352941 26.352941v702.735059a26.352941 26.352941 0 0 1-26.352941 26.352941H240.941176a26.352941 26.352941 0 0 1-26.352941-26.352941V150.588235c0-14.546824 11.806118-26.352941 26.352941-26.352941h562.206118z m-26.383059 52.705882H267.294118v650.029177h509.470117V176.941176z" fill="#568af2" /><path d="M522.029176 264.794353c14.576941 0 26.352941 11.776 26.352942 26.352941v421.647059a26.352941 26.352941 0 0 1-52.705883 0v-421.647059c0-14.576941 11.806118-26.352941 26.352941-26.352941z" fill="#568af2" /><path d="M803.147294 686.441412a26.352941 26.352941 0 0 1 0 52.705882H240.941176a26.352941 26.352941 0 0 1 0-52.705882h562.206118zM782.064941 134.776471a26.352941 26.352941 0 1 1 42.164706 31.623529l-105.411765 140.559059a26.352941 26.352941 0 0 1-21.082353 10.541176H346.352941a26.352941 26.352941 0 0 1-21.082353-10.541176L219.858824 166.4a26.352941 26.352941 0 0 1 42.164705-31.623529l97.490824 129.987764h325.029647l97.520941-129.987764z" fill="#568af2" /></svg>