<svg class="icon" style="width: 1em;height: 1em;vertical-align: middle;fill: currentColor;overflow: hidden;" viewBox="0 0 1024 1024" version="1.1" xmlns="http://www.w3.org/2000/svg" width="32" height="32"><path d="M373.970824 184.470588a166.912 166.912 0 0 1 166.881882 166.912v474.352941c0 35.117176-52.705882 35.117176-52.705882 0a79.058824 79.058824 0 0 0-79.058824-79.058823H180.705882a26.352941 26.352941 0 0 1-26.352941-26.352941V210.823529c0-14.546824 11.806118-26.352941 26.352941-26.352941h193.264942zM207.058824 693.940706h202.029176c27.828706 0 53.639529 8.643765 74.902588 23.371294l4.156236 3.011765v-368.941177a114.206118 114.206118 0 0 0-108.303059-114.055529l-5.872941-0.150588H207.058824v456.764235z" fill="#568af2" /><path d="M488.146824 351.382588a166.912 166.912 0 0 1 166.912-166.912h193.264941c14.546824 0 26.352941 11.806118 26.352941 26.352941v509.500236a26.352941 26.352941 0 0 1-26.352941 26.352941h-228.412236a79.058824 79.058824 0 0 0-79.058823 79.058823c0 35.117176-52.705882 35.117176-52.705882 0v-474.352941z m333.793882-114.206117H655.058824a114.206118 114.206118 0 0 0-114.206118 114.206117v368.911059l4.156235-3.011765a131.072 131.072 0 0 1 68.517647-23.190588l6.384941-0.12047 202.029177-0.030118V237.176471z" fill="#568af2" /></svg>