<svg class="icon" style="width: 1em;height: 1em;vertical-align: middle;fill: currentColor;overflow: hidden;" viewBox="0 0 1024 1024" version="1.1" xmlns="http://www.w3.org/2000/svg" width="32" height="32"><path d="M623.676235 120.470588c14.576941 0 26.352941 11.806118 26.352941 26.352941v149.323295h149.353412c13.432471 0 24.515765 10.059294 26.142118 23.070117l0.210823 3.312941v491.91153a61.500235 61.500235 0 0 1-61.500235 61.470117H272.323765A61.500235 61.500235 0 0 1 210.823529 814.441412v-632.470588C210.823529 147.998118 238.351059 120.470588 272.323765 120.470588h351.35247z m-26.352941 52.705883H272.323765a8.794353 8.794353 0 0 0-8.794353 8.794353v632.470588c0 4.818824 3.915294 8.764235 8.794353 8.764235h491.911529c4.848941 0 8.794353-3.915294 8.794353-8.764235l-0.030118-465.588706h-149.323294a26.352941 26.352941 0 0 1-26.142117-23.04l-0.210824-3.312941V173.176471z" fill="#568af2" /><path d="M605.063529 128.180706a26.352941 26.352941 0 0 1 37.25553 0l175.676235 175.706353a26.352941 26.352941 0 1 1-37.255529 37.255529L605.063529 165.466353a26.352941 26.352941 0 0 1 0-37.285647zM494.290824 399.420235a26.352941 26.352941 0 0 1 47.947294 0l38.128941 83.516236 91.286588 10.480941a26.352941 26.352941 0 0 1 17.136941 43.218823l-2.319059 2.409412-67.70447 62.072471 18.281412 90.051764a26.352941 26.352941 0 0 1-35.960471 29.57553l-2.831059-1.41553-80.022588-45.17647-79.932235 45.17647a26.352941 26.352941 0 0 1-39.243294-25.057882l0.451764-3.102118 18.221177-90.051764-67.644236-62.102589a26.352941 26.352941 0 0 1 11.535059-45.025882l3.282824-0.572235 91.25647-10.480941 38.128942-83.516236z m23.973647 74.360471l-20.35953 44.604235a26.352941 26.352941 0 0 1-20.961882 15.23953l-48.730353 5.571764 36.141176 33.15953c5.963294 5.481412 9.035294 13.312 8.493177 21.263059l-0.481883 3.403294-9.758117 48.037647 42.706823-24.094118a26.352941 26.352941 0 0 1 22.829177-1.505882l3.102117 1.505882 42.646589 24.094118-9.728-48.037647a26.352941 26.352941 0 0 1 5.662117-22.166589l2.349177-2.499764 36.141176-33.15953-48.700235-5.571764a26.352941 26.352941 0 0 1-19.365647-12.197647l-1.626353-3.011765-20.359529-44.634353z" fill="#568af2" /></svg>