<svg class="icon" style="width: 1em;height: 1em;vertical-align: middle;fill: currentColor;overflow: hidden;" viewBox="0 0 1024 1024" version="1.1" xmlns="http://www.w3.org/2000/svg" width="32" height="32"><path d="M702.735059 154.352941c14.576941 0 26.352941 11.806118 26.352941 26.352941v456.794353a26.352941 26.352941 0 0 1-26.352941 26.352941H316.235294a79.209412 79.209412 0 0 0-79.058823 79.058824c0 35.117176-52.705882 35.117176-52.705883 0V286.117647A131.764706 131.764706 0 0 1 316.235294 154.352941h386.499765z m-26.352941 52.705883H316.235294A79.058824 79.058824 0 0 0 237.176471 286.117647v351.412706l4.21647-3.011765a131.011765 131.011765 0 0 1 68.457412-23.220706l6.384941-0.150588 360.146824-0.030118V207.058824z" fill="#568af2" /><path d="M808.146824 189.500235c14.576941 0 26.352941 11.776 26.352941 26.352941v632.470589a26.352941 26.352941 0 0 1-26.352941 26.352941H316.235294a131.764706 131.764706 0 0 1 0-263.529412h386.499765a26.352941 26.352941 0 1 1 0 52.705882H316.235294a79.058824 79.058824 0 0 0 0 158.117648h465.558588V215.853176c0-13.432471 10.059294-24.545882 23.070118-26.172235l3.312941-0.180706z" fill="#568af2" /><path d="M685.176471 716.559059a26.352941 26.352941 0 1 1 0 52.705882H333.793882a26.352941 26.352941 0 0 1 0-52.705882H685.176471z" fill="#568af2" /></svg>