<svg class="icon" style="width: 1em;height: 1em;vertical-align: middle;fill: currentColor;overflow: hidden;" viewBox="0 0 1024 1024" version="1.1" xmlns="http://www.w3.org/2000/svg" width="32" height="32"><path d="M768 124.235294c14.546824 0 26.352941 11.806118 26.352941 26.352941v702.735059c0 21.383529-24.094118 33.852235-41.562353 21.564235l-248.350117-175.043764-248.32 175.043764a26.352941 26.352941 0 0 1-41.35153-18.251294l-0.180706-3.312941V150.588235c0-14.546824 11.806118-26.352941 26.352941-26.352941h527.058824z m-26.352941 52.705882H267.294118v625.573648l221.967058-156.461177a26.352941 26.352941 0 0 1 27.256471-1.897412l3.132235 1.897412 221.997177 156.461177V176.941176z" fill="#568af2" /><path d="M768 124.235294c14.546824 0 26.352941 11.806118 26.352941 26.352941v210.82353a26.352941 26.352941 0 0 1-26.352941 26.352941H240.941176A26.352941 26.352941 0 0 1 214.588235 361.411765V150.588235c0-14.546824 11.806118-26.352941 26.352941-26.352941h527.058824z m-26.352941 52.705882H267.294118v158.117648h474.352941v-158.117648z" fill="#568af2" /></svg>