<svg class="icon" style="width: 1em;height: 1em;vertical-align: middle;fill: currentColor;overflow: hidden;" viewBox="0 0 1024 1024" version="1.1" xmlns="http://www.w3.org/2000/svg" width="32" height="32"><path d="M773.029647 202.029176a79.058824 79.058824 0 0 1 79.058824 79.058824v491.941647a79.058824 79.058824 0 0 1-79.058824 79.058824H281.088a79.058824 79.058824 0 0 1-79.058824-79.058824V281.088a79.058824 79.058824 0 0 1 79.058824-79.058824h491.941647z m0 52.705883H281.088a26.352941 26.352941 0 0 0-26.352941 26.352941v491.941647c0 14.546824 11.806118 26.352941 26.352941 26.352941h491.941647a26.352941 26.352941 0 0 0 26.352941-26.352941V281.088a26.352941 26.352941 0 0 0-26.352941-26.352941z" fill="#568af2" /><path d="M644.999529 459.685647a61.500235 61.500235 0 0 1 80.353883-5.722353l116.193882 87.160471a26.352941 26.352941 0 0 1-31.623529 42.164706l-116.163765-87.130353a8.794353 8.794353 0 0 0-11.504941 0.813176l-83.84753 83.84753a26.352941 26.352941 0 1 1-37.285647-37.25553l83.877647-83.877647zM403.907765 402.160941a26.352941 26.352941 0 0 1 35.478588 38.972235l-193.264941 175.706353a26.352941 26.352941 0 0 1-35.448471-39.002353l193.234824-175.676235z" fill="#568af2" /><path d="M192.180706 192.180706a26.352941 26.352941 0 0 1 37.285647 0l632.470588 632.470588a26.352941 26.352941 0 1 1-37.285647 37.285647l-632.470588-632.470588a26.352941 26.352941 0 0 1 0-37.285647z" fill="#568af2" /></svg>