<svg class="icon" style="width: 1em;height: 1em;vertical-align: middle;fill: currentColor;overflow: hidden;" viewBox="0 0 1024 1024" version="1.1" xmlns="http://www.w3.org/2000/svg" width="32" height="32"><path d="M614.912 124.235294c7.469176 0 14.576941 3.162353 19.576471 8.734118l158.117647 175.676235c4.367059 4.818824 6.776471 11.143529 6.77647 17.618824v158.117647a26.352941 26.352941 0 0 1-52.705882 0l-0.030118-148.028236-143.48047-159.412706H245.970824a8.794353 8.794353 0 0 0-8.553412 6.776471l-0.240941 2.017882v632.470589c0 4.818824 3.915294 8.764235 8.794353 8.764235h210.823529a26.352941 26.352941 0 0 1 0 52.705882h-210.823529a61.500235 61.500235 0 0 1-61.500236-61.470117v-632.470589c0-33.972706 27.527529-61.500235 61.500236-61.500235h368.941176z" fill="#568af2" /><path d="M667.617882 598.588235a114.206118 114.206118 0 1 1 0 228.382118 114.206118 114.206118 0 0 1 0-228.382118z m0 52.705883a61.500235 61.500235 0 1 0 0 122.970353 61.500235 61.500235 0 0 0 0-122.970353z" fill="#568af2" /><path d="M667.617882 545.882353c14.546824 0 26.352941 11.806118 26.352942 26.352941v52.705882a26.352941 26.352941 0 0 1-52.705883 0V572.235294c0-14.546824 11.776-26.352941 26.352941-26.352941zM667.617882 774.264471c14.546824 0 26.352941 11.806118 26.352942 26.352941v52.705882a26.352941 26.352941 0 0 1-52.705883 0v-52.705882c0-14.546824 11.776-26.352941 26.352941-26.352941zM751.375059 588.739765a26.352941 26.352941 0 0 1 37.255529 37.255529l-37.255529 37.285647a26.352941 26.352941 0 1 1-37.285647-37.285647l37.285647-37.255529zM575.668706 764.416a26.352941 26.352941 0 1 1 37.285647 37.285647l-37.285647 37.255529a26.352941 26.352941 0 1 1-37.25553-37.255529l37.25553-37.285647zM543.563294 588.739765a26.352941 26.352941 0 0 1 37.25553 0l37.285647 37.255529a26.352941 26.352941 0 1 1-37.285647 37.285647l-37.25553-37.285647a26.352941 26.352941 0 0 1 0-37.255529zM719.239529 764.416a26.352941 26.352941 0 0 1 37.285647 0l37.25553 37.285647a26.352941 26.352941 0 1 1-37.25553 37.255529L719.209412 801.731765a26.352941 26.352941 0 0 1 0-37.285647zM579.764706 686.441412a26.352941 26.352941 0 1 1 0 52.705882H527.058824a26.352941 26.352941 0 0 1 0-52.705882h52.705882zM808.146824 686.441412a26.352941 26.352941 0 1 1 0 52.705882h-52.705883a26.352941 26.352941 0 0 1 0-52.705882h52.705883zM597.323294 124.235294c14.576941 0 26.352941 11.806118 26.352941 26.352941v149.323294h149.353412c13.432471 0 24.515765 10.059294 26.142118 23.070118l0.210823 3.312941a26.352941 26.352941 0 0 1-26.352941 26.322824h-175.706353a26.352941 26.352941 0 0 1-26.352941-26.352941V150.588235c0-14.546824 11.806118-26.352941 26.352941-26.352941z" fill="#568af2" /></svg>