<svg class="icon" style="width: 1em;height: 1em;vertical-align: middle;fill: currentColor;overflow: hidden;" viewBox="0 0 1024 1024" version="1.1" xmlns="http://www.w3.org/2000/svg" width="32" height="32"><path d="M681.411765 184.470588c33.972706 0 61.500235 27.527529 61.500235 61.500236v456.764235a61.500235 61.500235 0 0 1-61.500235 61.500235H224.617412a61.500235 61.500235 0 0 1-61.470118-61.500235V245.970824c0-33.972706 27.527529-61.500235 61.470118-61.500236h456.794353z m0 52.705883H224.617412a8.794353 8.794353 0 0 0-8.764236 8.794353v456.764235c0 4.848941 3.915294 8.794353 8.764236 8.794353h456.794353c4.848941 0 8.794353-3.915294 8.794353-8.794353V245.970824a8.794353 8.794353 0 0 0-8.794353-8.794353z" fill="#568af2" /><path d="M821.970824 289.882353c14.546824 0 26.352941 11.806118 26.352941 26.352941v474.352941a79.058824 79.058824 0 0 1-79.058824 79.058824H294.912a26.352941 26.352941 0 1 1 0-52.705883h474.352941a26.352941 26.352941 0 0 0 26.352941-26.352941V316.235294c0-14.546824 11.776-26.352941 26.352942-26.352941z" fill="#568af2" /><path d="M306.507294 405.383529a61.500235 61.500235 0 0 1 82.221177 0.451765l169.863529 154.443294a26.352941 26.352941 0 0 1-35.448471 38.972236l-169.863529-154.413177a8.794353 8.794353 0 0 0-11.745882-0.090353l-134.53553 119.567059A26.352941 26.352941 0 1 1 171.971765 524.950588l134.535529-119.567059z" fill="#568af2" /><path d="M537.780706 419.177412a61.500235 61.500235 0 0 1 76.257882-1.92753l118.332236 88.726589a26.352941 26.352941 0 1 1-31.62353 42.164705l-118.332235-88.726588a8.794353 8.794353 0 0 0-10.902588 0.271059l-84.028236 70.053647a26.352941 26.352941 0 0 1-33.761882-40.508235l84.058353-70.053647zM189.500235 412.852706c14.546824 0 26.352941 11.806118 26.352941 26.352941v140.559059a26.352941 26.352941 0 1 1-52.705882 0v-140.559059c0-14.546824 11.776-26.352941 26.352941-26.352941z" fill="#568af2" /><path d="M716.559059 412.852706c14.546824 0 26.352941 11.806118 26.352941 26.352941v140.559059a26.352941 26.352941 0 0 1-52.705882 0v-140.559059c0-14.546824 11.776-26.352941 26.352941-26.352941z" fill="#568af2" /></svg>