<svg class="icon" style="width: 1em;height: 1em;vertical-align: middle;fill: currentColor;overflow: hidden;" viewBox="0 0 1024 1024" version="1.1" xmlns="http://www.w3.org/2000/svg" width="32" height="32"><path d="M498.447059 299.911529c113.392941 0 205.552941 90.352941 205.552941 202.059295 0 111.676235-92.16 202.029176-205.552941 202.029176a206.908235 206.908235 0 0 1-136.854588-51.290353 26.352941 26.352941 0 1 1 34.755764-39.604706 154.202353 154.202353 0 0 0 102.098824 38.189177c84.540235 0 152.847059-66.981647 152.847059-149.323294 0-82.371765-68.306824-149.353412-152.847059-149.353412a26.352941 26.352941 0 1 1 0-52.705883z" fill="#568af2" /><path d="M501.970824 124.235294c208.594824 0 377.705412 169.110588 377.705411 377.73553 0 208.594824-169.110588 377.705412-377.705411 377.705411a376.470588 376.470588 0 0 1-263.04753-106.61647 376.621176 376.621176 0 0 1-114.688-271.088941 376.470588 376.470588 0 0 1 104.929882-261.270589 26.352941 26.352941 0 1 1 38.068706 36.442353 323.764706 323.764706 0 0 0-90.292706 224.828236c0 89.088 35.990588 172.423529 98.69553 233.261176a323.794824 323.794824 0 0 0 226.334118 91.738353c179.501176 0 324.999529-145.498353 324.999529-324.999529S681.472 176.941176 501.970824 176.941176a26.352941 26.352941 0 1 1 0-52.705882z" fill="#568af2" /><path d="M229.165176 240.700235a26.352941 26.352941 0 0 1 37.25553-0.813176l253.771294 243.049412c10.541176 10.119529 10.842353 26.895059 0.692706 37.376L276.178824 772.517647a26.352941 26.352941 0 1 1-37.827765-36.713412l226.183529-233.110588-234.556235-224.677647a26.352941 26.352941 0 0 1-3.102118-34.544941l2.288941-2.710588z" fill="#568af2" /></svg>