<svg class="icon" style="width: 1em;height: 1em;vertical-align: middle;fill: currentColor;overflow: hidden;" viewBox="0 0 1024 1024" version="1.1" xmlns="http://www.w3.org/2000/svg" width="32" height="32"><path d="M849.558588 210.823529c14.576941 0 26.352941 11.806118 26.352941 26.352942v263.529411a26.352941 26.352941 0 1 1-52.705882 0V263.529412H173.176471V737.882353h325.029647c13.432471 0 24.515765 10.059294 26.142117 23.04l0.210824 3.312941a26.352941 26.352941 0 0 1-26.352941 26.352941H146.823529A26.352941 26.352941 0 0 1 120.470588 764.235294v-527.058823C120.470588 222.629647 132.276706 210.823529 146.823529 210.823529h702.735059z" fill="#568af2" /><path d="M760.651294 605.063529a26.352941 26.352941 0 1 1 37.285647 37.25553l-140.559059 140.559059a26.352941 26.352941 0 1 1-37.255529-37.285647l140.528941-140.528942z" fill="#568af2" /><path d="M620.122353 605.063529a26.352941 26.352941 0 0 1 37.255529 0l140.559059 140.528942a26.352941 26.352941 0 1 1-37.285647 37.285647l-140.528941-140.559059a26.352941 26.352941 0 0 1 0-37.25553zM833.746824 216.094118a26.352941 26.352941 0 1 1 31.623529 42.164706l-351.352471 263.529411a26.352941 26.352941 0 0 1-31.623529 0L131.011765 258.258824a26.352941 26.352941 0 1 1 31.623529-42.164706l335.540706 251.663058 335.570824-251.663058z" fill="#568af2" /></svg>