<svg class="icon" style="width: 1em;height: 1em;vertical-align: middle;fill: currentColor;overflow: hidden;" viewBox="0 0 1024 1024" version="1.1" xmlns="http://www.w3.org/2000/svg" width="32" height="32"><path d="M853.323294 184.470588c14.576941 0 26.352941 11.806118 26.352941 26.352941v456.794353a26.352941 26.352941 0 0 1-52.705882 0V237.176471H176.941176v439.205647h360.146824c13.432471 0 24.545882 10.059294 26.172235 23.070117l0.180706 3.312941a26.352941 26.352941 0 0 1-26.352941 26.322824H150.588235a26.352941 26.352941 0 0 1-26.352941-26.352941V210.823529c0-14.546824 11.806118-26.352941 26.352941-26.352941h702.735059z" fill="#568af2" /><path d="M695.205647 483.147294a184.470588 184.470588 0 1 1 0 368.941177 184.470588 184.470588 0 0 1 0-368.941177z m0 52.705882a131.764706 131.764706 0 1 0 0 263.529412 131.764706 131.764706 0 0 0 0-263.529412z" fill="#568af2" /><path d="M677.647059 588.559059c14.546824 0 26.352941 11.776 26.352941 26.352941v43.911529h43.911529c13.432471 0 24.545882 10.059294 26.172236 23.04l0.180706 3.312942a26.352941 26.352941 0 0 1-26.352942 26.352941H677.647059a26.352941 26.352941 0 0 1-26.352941-26.352941v-70.264471c0-14.576941 11.806118-26.352941 26.352941-26.352941zM838.957176 188.717176a26.352941 26.352941 0 0 1 28.732236 44.212706l-351.352471 228.382118a26.352941 26.352941 0 0 1-28.732235 0L136.222118 232.929882a26.352941 26.352941 0 1 1 28.732235-44.212706l336.986353 219.045648 337.01647-219.045648z" fill="#568af2" /></svg>