<svg class="icon" style="width: 1em;height: 1em;vertical-align: middle;fill: currentColor;overflow: hidden;" viewBox="0 0 1024 1024" version="1.1" xmlns="http://www.w3.org/2000/svg" width="32" height="32"><path d="M645.029647 124.235294c7.68 0 14.998588 3.373176 19.998118 9.216l158.117647 184.470588c4.096 4.758588 6.324706 10.842353 6.324706 17.136942v518.26447a26.352941 26.352941 0 0 1-26.322824 26.352941H240.941176a26.352941 26.352941 0 0 1-26.352941-26.352941V150.588235c0-14.546824 11.806118-26.352941 26.352941-26.352941h404.088471z m-12.137412 52.705882H267.294118v650.029177h509.470117v-482.183529l-143.872-167.845648z" fill="#568af2" /><path d="M498.055529 332.890353a26.352941 26.352941 0 0 1 47.947295 0l48.007529 105.110588 114.838588 13.19153a26.352941 26.352941 0 0 1 17.106824 43.218823l-2.288941 2.409412L638.494118 574.945882l22.949647 113.242353a26.352941 26.352941 0 0 1-35.930353 29.605647l-2.831059-1.415529-100.653177-56.832-100.592941 56.832a26.352941 26.352941 0 0 1-39.273411-25.057882l0.451764-3.102118 22.979765-113.272471-85.172706-78.155294A26.352941 26.352941 0 0 1 331.986824 451.764706l3.252705-0.572235 114.808471-13.161412 48.007529-105.110588z m23.973647 74.390588L491.821176 473.449412a26.352941 26.352941 0 0 1-20.961882 15.209412l-72.282353 8.282352 53.609412 49.182118c5.963294 5.481412 9.035294 13.312 8.463059 21.263059l-0.451765 3.403294-14.456471 71.288471 63.337412-35.779765a26.352941 26.352941 0 0 1 22.829177-1.505882l3.102117 1.505882 63.307294 35.779765-14.45647-71.288471a26.352941 26.352941 0 0 1 5.662118-22.166588l2.379294-2.499765 53.579294-49.182118-72.282353-8.282352a26.352941 26.352941 0 0 1-19.33553-12.197648l-1.626353-3.011764-30.208-66.198588z" fill="#568af2" /></svg>