<svg class="icon" style="width: 1em;height: 1em;vertical-align: middle;fill: currentColor;overflow: hidden;" viewBox="0 0 1024 1024" version="1.1" xmlns="http://www.w3.org/2000/svg" width="32" height="32"><path d="M737.882353 124.235294c33.972706 0 61.500235 27.527529 61.500235 61.500235v260.758589a26.352941 26.352941 0 0 1-52.705882 0V185.735529a8.794353 8.794353 0 0 0-8.794353-8.794353H245.970824a8.794353 8.794353 0 0 0-8.794353 8.794353v632.470589c0 4.818824 3.915294 8.764235 8.794353 8.764235H527.058824a26.352941 26.352941 0 0 1 0 52.705882H245.970824a61.500235 61.500235 0 0 1-61.500236-61.470117v-632.470589c0-33.972706 27.527529-61.500235 61.500236-61.500235H737.882353z" fill="#568af2" /><path d="M421.647059 352.617412a26.352941 26.352941 0 0 1 0 52.705882h-105.411765a26.352941 26.352941 0 1 1 0-52.705882H421.647059zM667.617882 352.617412a26.352941 26.352941 0 0 1 0 52.705882h-105.411764a26.352941 26.352941 0 1 1 0-52.705882h105.411764zM421.647059 545.882353a26.352941 26.352941 0 1 1 0 52.705882h-105.411765a26.352941 26.352941 0 1 1 0-52.705882H421.647059zM421.647059 651.294118a26.352941 26.352941 0 1 1 0 52.705882h-105.411765a26.352941 26.352941 0 1 1 0-52.705882H421.647059z" fill="#568af2" /><path d="M368.941176 299.911529c14.546824 0 26.352941 11.806118 26.352942 26.352942v105.411764a26.352941 26.352941 0 1 1-52.705883 0v-105.411764c0-14.546824 11.806118-26.352941 26.352941-26.352942zM714.480941 724.510118a26.352941 26.352941 0 0 1 37.25553 0l74.541176 74.541176a26.352941 26.352941 0 1 1-37.255529 37.25553l-74.541177-74.541177a26.352941 26.352941 0 0 1 0-37.255529z" fill="#568af2" /><path d="M751.736471 575.427765a131.764706 131.764706 0 1 1-186.337883 186.337882 131.764706 131.764706 0 0 1 186.337883-186.337882z m-37.25553 37.285647a79.058824 79.058824 0 1 0-111.826823 111.796706 79.058824 79.058824 0 0 0 111.826823-111.796706z" fill="#568af2" /></svg>