<svg class="icon" style="width: 1em;height: 1em;vertical-align: middle;fill: currentColor;overflow: hidden;" viewBox="0 0 1024 1024" version="1.1" xmlns="http://www.w3.org/2000/svg" width="32" height="32"><path d="M829.44 360.146824a61.500235 61.500235 0 0 1 59.813647 75.836235l-88.545882 368.941176a61.500235 61.500235 0 0 1-59.78353 47.164236H304.399059a61.500235 61.500235 0 0 1-59.78353-47.164236l-88.545882-368.941176a61.500235 61.500235 0 0 1 59.783529-75.836235h613.616942z m0 52.705882H215.883294a8.794353 8.794353 0 0 0-8.523294 10.842353l88.545882 368.941176a8.794353 8.794353 0 0 0 8.523294 6.746353h436.525177a8.794353 8.794353 0 0 0 8.553412-6.746353l88.545882-368.941176a8.794353 8.794353 0 0 0-8.553412-10.842353z" fill="#568af2" /><path d="M434.808471 184.470588c14.576941 0 26.352941 11.806118 26.352941 26.352941v175.676236a26.352941 26.352941 0 0 1-26.352941 26.352941H294.279529a26.352941 26.352941 0 0 1-26.352941-26.352941V210.823529c0-14.546824 11.776-26.352941 26.352941-26.352941h140.528942z m-26.352942 52.705883h-87.823058v122.970353h87.823058V237.176471z" fill="#568af2" /><path d="M527.661176 212.961882a26.352941 26.352941 0 0 1 36.74353-5.963294l219.617882 158.117647a26.352941 26.352941 0 1 1-30.810353 42.767059l-198.26447-142.727529-98.785883 136.794353a26.352941 26.352941 0 0 1-33.731764 7.830588l-3.011765-1.897412a26.352941 26.352941 0 0 1-5.963294-36.803765l114.206117-158.117647zM505.072941 500.705882a26.352941 26.352941 0 0 1 0 52.705883h-140.528941a26.352941 26.352941 0 1 1 0-52.705883h140.559059z" fill="#568af2" /></svg>