<svg class="icon" style="width: 1em;height: 1em;vertical-align: middle;fill: currentColor;overflow: hidden;" viewBox="0 0 1024 1024" version="1.1" xmlns="http://www.w3.org/2000/svg" width="32" height="32"><path d="M667.858824 186.368a26.352941 26.352941 0 0 1 34.243764 14.667294l70.294588 175.676235a26.352941 26.352941 0 1 1-48.941176 19.576471l-60.536471-151.220706-414.72 165.918118a26.352941 26.352941 0 0 1-32.828235-11.685647l-1.415529-3.011765a26.352941 26.352941 0 0 1 14.697411-34.243765l439.205648-175.676235z" fill="#568af2" /><path d="M853.323294 360.146824c14.576941 0 26.352941 11.806118 26.352941 26.352941v105.411764a26.352941 26.352941 0 0 1-26.352941 26.352942c-44.363294 0-79.058824 28.912941-79.058823 70.294588 0 45.778824 39.845647 87.823059 79.058823 87.823059 14.576941 0 26.352941 11.806118 26.352941 26.352941v105.411765a26.352941 26.352941 0 0 1-26.352941 26.352941H150.588235a26.352941 26.352941 0 0 1-26.352941-26.352941v-105.411765c0-14.546824 11.806118-26.352941 26.352941-26.352941 45.387294 0 79.058824-29.906824 79.058824-79.058824 0-49.091765-33.671529-79.058824-79.058824-79.058823a26.352941 26.352941 0 0 1-26.352941-26.352942v-105.411764c0-14.546824 11.806118-26.352941 26.352941-26.352941h702.735059z m-26.352941 52.705882H176.941176v55.055059l4.848942 0.963764c55.958588 12.167529 97.581176 57.223529 100.412235 121.494589l0.150588 6.957176c0 68.005647-42.616471 115.862588-100.562823 128.481882l-4.848942 0.90353v55.115294h650.029177V725.835294l-2.650353-0.602353c-54.723765-14.727529-99.689412-69.210353-102.610824-130.349176l-0.150588-6.324706c0-61.801412 43.369412-107.279059 100.201412-119.627294l5.210353-1.054118v-55.024941z" fill="#568af2" /><path d="M484.382118 525.040941a26.352941 26.352941 0 0 1 0 52.705883h-105.411765a26.352941 26.352941 0 0 1 0-52.705883h105.411765zM624.941176 630.452706a26.352941 26.352941 0 0 1 0 52.705882h-245.970823a26.352941 26.352941 0 0 1 0-52.705882h245.970823z" fill="#568af2" /></svg>