<svg class="icon" style="width: 1em;height: 1em;vertical-align: middle;fill: currentColor;overflow: hidden;" viewBox="0 0 1024 1024" version="1.1" xmlns="http://www.w3.org/2000/svg" width="32" height="32"><path d="M843.294118 124.235294c14.546824 0 26.352941 11.806118 26.352941 26.352941v175.676236a26.352941 26.352941 0 0 1-26.352941 26.352941H210.823529a26.352941 26.352941 0 0 1-26.352941-26.352941V150.588235c0-14.546824 11.806118-26.352941 26.352941-26.352941h632.470589z m-26.352942 52.705882H237.176471v122.970353h579.764705V176.941176zM843.294118 387.764706c14.546824 0 26.352941 11.806118 26.352941 26.352941v175.676235a26.352941 26.352941 0 0 1-26.352941 26.352942H210.823529a26.352941 26.352941 0 0 1-26.352941-26.352942V414.117647c0-14.546824 11.806118-26.352941 26.352941-26.352941h632.470589z m-26.352942 52.705882H237.176471v122.970353h579.764705v-122.970353zM843.294118 651.294118c14.546824 0 26.352941 11.806118 26.352941 26.352941v175.676235a26.352941 26.352941 0 0 1-26.352941 26.352941H210.823529a26.352941 26.352941 0 0 1-26.352941-26.352941V677.647059c0-14.546824 11.806118-26.352941 26.352941-26.352941h632.470589z m-26.352942 52.705882H237.176471v122.970353h579.764705v-122.970353z" fill="#568af2" /><path d="M579.764706 212.088471a26.352941 26.352941 0 1 1 0 52.705882h-105.411765a26.352941 26.352941 0 1 1 0-52.705882h105.411765zM579.764706 475.617882a26.352941 26.352941 0 1 1 0 52.705883h-105.411765a26.352941 26.352941 0 0 1 0-52.705883h105.411765zM579.764706 739.147294a26.352941 26.352941 0 1 1 0 52.705882h-105.411765a26.352941 26.352941 0 0 1 0-52.705882h105.411765z" fill="#568af2" /></svg>