<svg class="icon" style="width: 1em;height: 1em;vertical-align: middle;fill: currentColor;overflow: hidden;" viewBox="0 0 1024 1024" version="1.1" xmlns="http://www.w3.org/2000/svg" width="32" height="32"><path d="M744.146824 647.529412c14.576941 0 26.352941 11.806118 26.352941 26.383059v122.970353a26.352941 26.352941 0 0 1-26.352941 26.352941h-228.382118a26.352941 26.352941 0 0 1 0-52.705883h202.029176v-96.617411c0-13.432471 10.059294-24.515765 23.070118-26.142118l3.312941-0.210824zM744.146824 173.176471c14.576941 0 26.352941 11.806118 26.352941 26.383058v122.970353a26.352941 26.352941 0 0 1-52.705883 0V225.912471h-202.029176a26.352941 26.352941 0 0 1-26.142118-23.04l-0.210823-3.312942c0-14.576941 11.806118-26.352941 26.352941-26.352941h228.382118z" fill="#568af2" /><path d="M252.235294 647.529412c14.546824 0 26.352941 11.806118 26.352941 26.383059v62.58447l210.82353 75.595294v-133.903059c0-13.432471 10.059294-24.545882 23.04-26.172235l3.312941-0.180706c14.546824 0 26.352941 11.776 26.352941 26.352941v171.39953a26.352941 26.352941 0 0 1-35.237647 24.816941l-263.529412-94.569412a26.352941 26.352941 0 0 1-17.468235-24.786823v-81.136941c0-14.576941 11.806118-26.352941 26.352941-26.352942zM506.88 122.036706a26.352941 26.352941 0 0 1 35.237647 24.816941v175.194353a26.352941 26.352941 0 0 1-52.705882 0V184.32l-210.82353 75.595294v62.162824a26.352941 26.352941 0 0 1-23.04 26.172235l-3.312941 0.180706a26.352941 26.352941 0 0 1-26.352941-26.352941V241.392941c0-11.143529 6.987294-21.082353 17.468235-24.816941l263.529412-94.539294z" fill="#568af2" /><path d="M814.441412 296.176941c33.942588 0 61.470118 27.527529 61.470117 61.500235v281.088a61.500235 61.500235 0 0 1-61.470117 61.500236h-632.470588A61.500235 61.500235 0 0 1 120.470588 638.765176v-281.088c0-33.972706 27.527529-61.500235 61.500236-61.500235h632.470588z m0 52.705883h-632.470588a8.794353 8.794353 0 0 0-8.794353 8.794352v281.088c0 4.848941 3.915294 8.794353 8.794353 8.794353h632.470588c4.818824 0 8.764235-3.915294 8.764235-8.794353v-281.088a8.794353 8.794353 0 0 0-8.764235-8.794352z" fill="#568af2" /><path d="M252.235294 384c14.546824 0 26.352941 11.806118 26.352941 26.383059v175.676235a26.352941 26.352941 0 0 1-52.705882 0v-175.676235c0-14.576941 11.806118-26.352941 26.352941-26.352941zM445.500235 384c14.546824 0 26.352941 11.806118 26.352941 26.383059v175.676235a26.352941 26.352941 0 0 1-52.705882 0v-175.676235c0-14.576941 11.776-26.352941 26.352941-26.352941zM691.440941 401.588706c14.576941 0 26.352941 11.806118 26.352941 26.352941v140.559059a26.352941 26.352941 0 1 1-52.705882 0v-140.559059c0-14.546824 11.806118-26.352941 26.352941-26.352941z" fill="#568af2" /><path d="M744.146824 401.588706a26.352941 26.352941 0 1 1 0 52.705882h-105.411765a26.352941 26.352941 0 0 1 0-52.705882h105.411765zM304.941176 384a79.058824 79.058824 0 1 1 0 158.117647h-52.705882a26.352941 26.352941 0 1 1 0-52.705882h52.705882a26.352941 26.352941 0 1 0 0-52.705883h-52.705882a26.352941 26.352941 0 1 1 0-52.705882h52.705882zM498.206118 384a79.058824 79.058824 0 1 1 0 158.117647h-52.705883a26.352941 26.352941 0 1 1 0-52.705882h52.705883a26.352941 26.352941 0 1 0 0-52.705883h-52.705883a26.352941 26.352941 0 1 1 0-52.705882h52.705883z" fill="#568af2" /></svg>