<svg class="icon" style="width: 1em;height: 1em;vertical-align: middle;fill: currentColor;overflow: hidden;" viewBox="0 0 1024 1024" version="1.1" xmlns="http://www.w3.org/2000/svg" width="32" height="32"><path d="M783.058824 500.705882c14.546824 0 26.352941 11.806118 26.352941 26.352942V843.294118a26.352941 26.352941 0 0 1-26.352941 26.352941H220.852706A26.352941 26.352941 0 0 1 194.499765 843.294118V527.058824c0-14.546824 11.806118-26.352941 26.352941-26.352942H783.058824z m-26.383059 52.705883H247.205647v263.529411h509.470118v-263.529411z" fill="#568af2" /><path d="M607.382588 184.470588c14.546824 0 26.352941 11.806118 26.352941 26.352941l-0.030117 96.617412h219.617882c13.432471 0 24.545882 10.059294 26.172235 23.070118l0.180706 3.312941V527.058824a26.352941 26.352941 0 0 1-26.352941 26.352941H150.588235a26.352941 26.352941 0 0 1-26.352941-26.352941v-193.264942c0-14.546824 11.806118-26.352941 26.352941-26.352941h219.587765V210.823529c0-13.432471 10.059294-24.515765 23.070118-26.142117l3.312941-0.210824h210.823529z m-26.383059 52.705883h-158.117647v96.617411a26.352941 26.352941 0 0 1-23.04 26.172236l-3.312941 0.180706H176.971294v140.559058h650.029177v-140.559058h-219.587765a26.352941 26.352941 0 0 1-26.172235-23.04l-0.180706-3.312942-0.030118-96.617411zM361.411765 641.264941c14.546824 0 26.352941 11.776 26.352941 26.352941V843.294118a26.352941 26.352941 0 1 1-52.705882 0v-175.676236c0-14.576941 11.806118-26.352941 26.352941-26.352941z" fill="#568af2" /></svg>