<svg class="icon" style="width: 1em;height: 1em;vertical-align: middle;fill: currentColor;overflow: hidden;" viewBox="0 0 1024 1024" version="1.1" xmlns="http://www.w3.org/2000/svg" width="32" height="32"><path d="M732.702118 184.470588c42.345412 0 72.192 41.863529 59.301647 82.070588-31.472941 98.183529-52.856471 192.632471-52.856471 260.517648 0 67.885176 21.383529 162.334118 52.856471 260.517647 12.890353 40.237176-16.956235 82.070588-59.331765 82.070588H271.269647c-42.345412 0-72.222118-41.863529-59.331765-82.070588 31.472941-98.183529 52.886588-192.632471 52.886589-260.517647 0-67.885176-21.413647-162.334118-52.856471-260.517648-12.920471-40.237176 16.956235-82.070588 59.301647-82.070588h461.462588z m0 52.705883H271.239529c-6.354824 0-11.203765 6.806588-9.125647 13.281882 33.039059 103.092706 55.386353 201.667765 55.386353 276.600471 0 74.932706-22.347294 173.507765-55.386353 276.60047-2.078118 6.475294 2.770824 13.281882 9.125647 13.281882h461.462589c6.324706 0 11.173647-6.806588 9.095529-13.281882-33.039059-103.092706-55.356235-201.667765-55.356235-276.60047 0-74.932706 22.317176-173.507765 55.356235-276.600471 2.108235-6.475294-2.770824-13.281882-9.095529-13.281882z" fill="#568af2" /><path d="M134.776471 347.858824a26.352941 26.352941 0 0 1 36.894117 5.270588c27.527529 36.743529 40.417882 103.634824 40.417883 173.929412 0 70.294588-12.890353 137.216-40.417883 173.929411a26.352941 26.352941 0 0 1-42.164706-31.623529c18.793412-25.088 29.876706-82.582588 29.876706-142.305882 0-59.723294-11.083294-117.217882-29.876706-142.305883a26.352941 26.352941 0 0 1 5.270589-36.894117zM607.382588 351.382588a26.352941 26.352941 0 0 1 0 52.705883h-210.823529a26.352941 26.352941 0 0 1 0-52.705883h210.823529zM607.382588 500.705882a26.352941 26.352941 0 0 1 0 52.705883h-210.823529a26.352941 26.352941 0 1 1 0-52.705883h210.823529zM466.823529 641.264941a26.352941 26.352941 0 1 1 0 52.705883h-70.26447a26.352941 26.352941 0 0 1 0-52.705883H466.823529zM832.240941 353.129412a26.352941 26.352941 0 0 1 42.164706 31.623529c-18.793412 25.088-29.846588 82.582588-29.846588 142.305883 0 54.091294 9.818353 101.285647 32.346353 146.341647a26.352941 26.352941 0 1 1-47.134118 23.552c-26.413176-52.826353-37.948235-108.032-37.948235-169.893647 0-70.294588 12.890353-137.216 40.417882-173.929412z" fill="#568af2" /></svg>