<svg class="icon" style="width: 1em;height: 1em;vertical-align: middle;fill: currentColor;overflow: hidden;" viewBox="0 0 1024 1024" version="1.1" xmlns="http://www.w3.org/2000/svg" width="32" height="32"><path d="M435.440941 184.470588c7.830588 0 15.239529 3.463529 20.269177 9.487059l79.932235 95.924706h286.328471c32.406588 0 58.970353 25.088 61.319529 56.922353l0.150588 4.577882v456.764236a61.500235 61.500235 0 0 1-61.470117 61.500235H224.617412a61.500235 61.500235 0 0 1-61.470118-61.500235V245.970824c0-33.972706 27.527529-61.500235 61.470118-61.500236h210.823529z m-12.348235 52.705883h-198.475294a8.794353 8.794353 0 0 0-8.764236 8.794353v562.176c0 4.848941 3.915294 8.794353 8.764236 8.794352h597.353412c4.818824 0 8.764235-3.915294 8.764235-8.794352V351.382588a8.794353 8.794353 0 0 0-8.764235-8.794353h-298.676706a26.352941 26.352941 0 0 1-20.239059-9.487059l-79.932235-95.924705z" fill="#568af2" /><path d="M857.088 465.558588H189.500235v52.705883h667.587765z" fill="#568af2" /><path d="M189.500235 360.146824c14.546824 0 26.352941 11.806118 26.352941 26.352941v210.823529a26.352941 26.352941 0 1 1-52.705882 0v-210.823529c0-14.546824 11.776-26.352941 26.352941-26.352941zM857.088 360.146824c14.576941 0 26.352941 11.806118 26.352941 26.352941v210.823529a26.352941 26.352941 0 1 1-52.705882 0v-210.823529c0-14.546824 11.806118-26.352941 26.352941-26.352941z" fill="#568af2" /></svg>