<svg class="icon" style="width: 1em;height: 1em;vertical-align: middle;fill: currentColor;overflow: hidden;" viewBox="0 0 1024 1024" version="1.1" xmlns="http://www.w3.org/2000/svg" width="32" height="32"><path d="M627.440941 124.235294c14.576941 0 26.352941 11.806118 26.352941 26.352941v149.323294h149.353412c13.432471 0 24.515765 10.059294 26.142118 23.070118l0.210823 3.312941v491.91153a61.500235 61.500235 0 0 1-61.500235 61.470117H276.088471a61.500235 61.500235 0 0 1-61.500236-61.470117v-632.470589c0-33.972706 27.527529-61.500235 61.500236-61.500235h351.35247z m-26.352941 52.705882H276.088471a8.794353 8.794353 0 0 0-8.794353 8.794353v632.470589c0 4.818824 3.915294 8.764235 8.794353 8.764235H768c4.848941 0 8.794353-3.915294 8.794353-8.764235l-0.030118-465.588706h-149.323294a26.352941 26.352941 0 0 1-26.142117-23.04l-0.210824-3.312941V176.941176z" fill="#568af2" /><path d="M608.828235 131.945412a26.352941 26.352941 0 0 1 37.25553 0l175.676235 175.706353a26.352941 26.352941 0 1 1-37.255529 37.255529L608.828235 169.261176a26.352941 26.352941 0 0 1 0-37.285647zM637.409882 476.611765a26.352941 26.352941 0 0 1 50.356706 15.540706 178.145882 178.145882 0 0 1-25.871059 51.892705 172.363294 172.363294 0 0 1-139.866353 72.101648 172.363294 172.363294 0 0 1-139.866352-72.101648 178.145882 178.145882 0 0 1-25.840942-51.892705 26.352941 26.352941 0 1 1 50.356706-15.540706c4.065882 13.161412 10.24 25.509647 18.221177 36.562823a119.687529 119.687529 0 0 0 97.129411 50.296471c38.731294 0 74.390588-18.853647 97.15953-50.296471 7.981176-11.053176 14.155294-23.401412 18.221176-36.562823z" fill="#568af2" /><path d="M453.029647 584.192a26.352941 26.352941 0 0 1 50.898824 13.643294l-18.160942 67.885177a26.352941 26.352941 0 1 1-50.898823-13.643295l18.160941-67.885176zM558.893176 565.549176a26.352941 26.352941 0 0 1 32.286118 18.642824l18.191059 67.885176a26.352941 26.352941 0 1 1-50.898824 13.643295l-18.221176-67.885177a26.352941 26.352941 0 0 1 18.672941-32.286118zM615.002353 542.238118a26.352941 26.352941 0 0 1 37.285647 0l49.694118 49.694117a26.352941 26.352941 0 1 1-37.25553 37.285647l-49.694117-49.694117a26.352941 26.352941 0 0 1 0-37.285647zM394.992941 539.226353a26.352941 26.352941 0 1 1 37.25553 37.285647l-49.694118 49.694118a26.352941 26.352941 0 1 1-37.255529-37.285647l49.694117-49.694118z" fill="#568af2" /></svg>