<svg class="icon" style="width: 1em;height: 1em;vertical-align: middle;fill: currentColor;overflow: hidden;" viewBox="0 0 1024 1024" version="1.1" xmlns="http://www.w3.org/2000/svg" width="32" height="32"><path d="M737.882353 224.617412a26.352941 26.352941 0 1 1 0 52.705882H263.529412a26.352941 26.352941 0 0 0-26.352941 26.352941v491.941647c0 14.546824 11.806118 26.352941 26.352941 26.352942h527.058823a26.352941 26.352941 0 0 0 26.352941-26.352942v-368.941176a26.352941 26.352941 0 0 1 52.705883 0v368.941176a79.058824 79.058824 0 0 1-79.058824 79.058824H263.529412a79.058824 79.058824 0 0 1-79.058824-79.058824V303.676235A79.058824 79.058824 0 0 1 263.529412 224.617412H737.882353z" fill="#568af2" /><path d="M653.251765 162.063059a26.352941 26.352941 0 0 1 37.255529 0l74.541177 74.541176a26.352941 26.352941 0 0 1 0 37.285647l-74.541177 74.511059a26.352941 26.352941 0 1 1-37.255529-37.255529l55.898353-55.898353-55.898353-55.898353a26.352941 26.352941 0 0 1-2.379294-34.575059l2.379294-2.710588zM527.058824 382.735059c14.546824 0 26.352941 11.806118 26.352941 26.352941V707.764706a26.352941 26.352941 0 0 1-52.705883 0v-298.676706c0-14.546824 11.806118-26.352941 26.352942-26.352941zM667.617882 505.735529c14.546824 0 26.352941 11.776 26.352942 26.352942V707.764706a26.352941 26.352941 0 0 1-52.705883 0v-175.676235c0-14.576941 11.776-26.352941 26.352941-26.352942zM386.499765 505.735529c14.576941 0 26.352941 11.776 26.352941 26.352942V707.764706a26.352941 26.352941 0 0 1-52.705882 0v-175.676235c0-14.576941 11.806118-26.352941 26.352941-26.352942z" fill="#568af2" /></svg>