<svg class="icon" style="width: 1em;height: 1em;vertical-align: middle;fill: currentColor;overflow: hidden;" viewBox="0 0 1024 1024" version="1.1" xmlns="http://www.w3.org/2000/svg" width="32" height="32"><path d="M790.588235 184.470588a79.058824 79.058824 0 0 1 79.058824 79.058824v527.058823a79.058824 79.058824 0 0 1-79.058824 79.058824H263.529412a79.058824 79.058824 0 0 1-79.058824-79.058824V263.529412A79.058824 79.058824 0 0 1 263.529412 184.470588h527.058823z m0 52.705883H263.529412a26.352941 26.352941 0 0 0-26.352941 26.352941v527.058823c0 14.546824 11.806118 26.352941 26.352941 26.352941h527.058823a26.352941 26.352941 0 0 0 26.352941-26.352941V263.529412a26.352941 26.352941 0 0 0-26.352941-26.352941z" fill="#568af2" /><path d="M808.146824 325.029647a26.352941 26.352941 0 1 1 0 52.705882H210.823529a26.352941 26.352941 0 0 1 0-52.705882h597.323295zM843.294118 465.558588a26.352941 26.352941 0 0 1 0 52.705883h-210.82353a26.352941 26.352941 0 1 1 0-52.705883h210.82353zM843.294118 606.117647a26.352941 26.352941 0 1 1 0 52.705882h-210.82353a26.352941 26.352941 0 1 1 0-52.705882h210.82353zM527.058824 465.558588a26.352941 26.352941 0 0 1 0 52.705883h-17.558589a26.352941 26.352941 0 1 1 0-52.705883h17.558589zM527.058824 606.117647a26.352941 26.352941 0 1 1 0 52.705882h-17.558589a26.352941 26.352941 0 1 1 0-52.705882h17.558589z" fill="#568af2" /><path d="M351.382588 184.470588c14.546824 0 26.352941 11.806118 26.352941 26.352941v632.470589a26.352941 26.352941 0 0 1-52.705882 0V210.823529c0-14.546824 11.776-26.352941 26.352941-26.352941z" fill="#568af2" /></svg>