<svg class="icon" style="width: 1em;height: 1em;vertical-align: middle;fill: currentColor;overflow: hidden;" viewBox="0 0 1024 1024" version="1.1" xmlns="http://www.w3.org/2000/svg" width="32" height="32"><path d="M426.676706 184.470588c7.830588 0 15.239529 3.463529 20.239059 9.487059l79.932235 95.924706H813.176471c32.406588 0 58.970353 25.088 61.319529 56.922353l0.180706 4.577882v456.764236A61.500235 61.500235 0 0 1 813.176471 869.647059H215.853176a61.500235 61.500235 0 0 1-61.500235-61.500235V245.970824c0-33.972706 27.527529-61.500235 61.500235-61.500236h210.82353z m-12.348235 52.705883h-198.475295a8.794353 8.794353 0 0 0-8.794352 8.794353v562.176c0 4.848941 3.915294 8.794353 8.794352 8.794352H813.176471c4.848941 0 8.794353-3.915294 8.794353-8.794352V351.382588a8.794353 8.794353 0 0 0-8.794353-8.794353h-298.676706a26.352941 26.352941 0 0 1-20.239059-9.487059l-79.932235-95.924705z" fill="#568af2" /><path d="M514.499765 500.705882a96.617412 96.617412 0 1 1 0 193.264942 96.617412 96.617412 0 0 1 0-193.264942z m0 52.705883a43.911529 43.911529 0 1 0 0 87.853176 43.911529 43.911529 0 0 0 0-87.853176z" fill="#568af2" /><path d="M514.499765 448c14.576941 0 26.352941 11.806118 26.352941 26.352941v52.705883a26.352941 26.352941 0 1 1-52.705882 0v-52.705883c0-14.546824 11.806118-26.352941 26.352941-26.352941zM514.499765 641.264941c14.576941 0 26.352941 11.776 26.352941 26.352941v52.705883a26.352941 26.352941 0 0 1-52.705882 0v-52.705883c0-14.576941 11.806118-26.352941 26.352941-26.352941z" fill="#568af2" /><path d="M580.698353 490.857412a26.352941 26.352941 0 0 1 37.255529 37.255529l-37.255529 37.285647a26.352941 26.352941 0 1 1-37.255529-37.285647l37.255529-37.255529zM440.139294 631.416471a26.352941 26.352941 0 1 1 37.285647 37.255529l-37.285647 37.255529a26.352941 26.352941 0 0 1-37.255529-37.255529l37.255529-37.255529zM408.033882 490.857412a26.352941 26.352941 0 0 1 37.25553 0l37.285647 37.255529a26.352941 26.352941 0 1 1-37.285647 37.285647l-37.25553-37.285647a26.352941 26.352941 0 0 1 0-37.255529zM548.592941 631.416471a26.352941 26.352941 0 0 1 37.25553 0l37.255529 37.255529a26.352941 26.352941 0 0 1-37.255529 37.255529l-37.25553-37.255529a26.352941 26.352941 0 0 1 0-37.255529z" fill="#568af2" /><path d="M444.235294 570.970353a26.352941 26.352941 0 0 1 0 52.705882H391.529412a26.352941 26.352941 0 1 1 0-52.705882h52.705882zM637.500235 570.970353a26.352941 26.352941 0 0 1 0 52.705882h-52.705882a26.352941 26.352941 0 1 1 0-52.705882h52.705882z" fill="#568af2" /></svg>