<svg class="icon" style="width: 1em;height: 1em;vertical-align: middle;fill: currentColor;overflow: hidden;" viewBox="0 0 1024 1024" version="1.1" xmlns="http://www.w3.org/2000/svg" width="32" height="32"><path d="M768 124.235294c33.972706 0 61.500235 27.527529 61.500235 61.500235v632.470589a61.500235 61.500235 0 0 1-61.500235 61.470117H276.088471a61.500235 61.500235 0 0 1-61.500236-61.470117v-632.470589c0-33.972706 27.527529-61.500235 61.500236-61.500235H768z m0 52.705882H276.088471a8.794353 8.794353 0 0 0-8.794353 8.794353v632.470589c0 4.818824 3.915294 8.764235 8.794353 8.764235H768c4.848941 0 8.794353-3.915294 8.794353-8.764235v-632.470589a8.794353 8.794353 0 0 0-8.794353-8.794353z" fill="#568af2" /><path d="M539.617882 124.235294c14.546824 0 26.352941 11.806118 26.352942 26.352941v281.088a26.352941 26.352941 0 0 1-43.881412 19.696941l-61.560471-54.723764-61.530353 54.723764a26.352941 26.352941 0 0 1-43.670588-16.353882l-0.180706-3.312941V150.588235c0-14.546824 11.776-26.352941 26.352941-26.352941h158.117647z m-26.352941 52.705882h-105.411765v196.035765l35.177412-31.262117a26.352941 26.352941 0 0 1 32.195765-2.198589l2.831059 2.198589 35.207529 31.292235v-196.065883zM557.176471 545.882353a26.352941 26.352941 0 1 1 0 52.705882h-175.676236a26.352941 26.352941 0 1 1 0-52.705882H557.176471zM662.588235 651.294118a26.352941 26.352941 0 1 1 0 52.705882h-281.088a26.352941 26.352941 0 1 1 0-52.705882H662.588235z" fill="#568af2" /></svg>