<svg class="icon" style="width: 1em;height: 1em;vertical-align: middle;fill: currentColor;overflow: hidden;" viewBox="0 0 1024 1024" version="1.1" xmlns="http://www.w3.org/2000/svg" width="32" height="32"><path d="M426.676706 184.470588c7.830588 0 15.239529 3.463529 20.239059 9.487059l79.932235 95.924706H813.176471c32.406588 0 58.970353 25.088 61.319529 56.922353l0.180706 4.577882v456.764236A61.500235 61.500235 0 0 1 813.176471 869.647059H215.853176a61.500235 61.500235 0 0 1-61.500235-61.500235V245.970824c0-33.972706 27.527529-61.500235 61.500235-61.500236h210.82353z m-12.348235 52.705883h-198.475295a8.794353 8.794353 0 0 0-8.794352 8.794353v562.176c0 4.848941 3.915294 8.794353 8.794352 8.794352H813.176471c4.848941 0 8.794353-3.915294 8.794353-8.794352V351.382588a8.794353 8.794353 0 0 0-8.794353-8.794353h-298.676706a26.352941 26.352941 0 0 1-20.239059-9.487059l-79.932235-95.924705z" fill="#568af2" /><path d="M490.526118 445.831529a26.352941 26.352941 0 0 1 47.947294 0l33.219764 72.764236 79.510589 9.125647a26.352941 26.352941 0 0 1 17.106823 43.218823l-2.319059 2.379294-58.970353 54.091295 15.932236 78.396235a26.352941 26.352941 0 0 1-35.960471 29.575529l-2.831059-1.385412-69.662117-39.363764-69.632 39.363764a26.352941 26.352941 0 0 1-39.243294-25.057882l0.451764-3.132235 15.872-78.396235-58.940235-54.091295a26.352941 26.352941 0 0 1 11.565176-45.025882l3.252706-0.572235 79.450353-9.125647 33.249883-72.764236z m23.973647 74.390589l-15.420236 33.822117a26.352941 26.352941 0 0 1-20.961882 15.23953l-36.954353 4.21647 27.407059 25.118118c5.963294 5.481412 9.035294 13.312 8.463059 21.263059l-0.451765 3.403294-7.408941 36.412235 32.37647-18.281412a26.352941 26.352941 0 0 1 22.829177-1.475764l3.102118 1.505882 32.316235 18.251294-7.348706-36.412235a26.352941 26.352941 0 0 1 5.632-22.166588l2.379294-2.499765 27.346824-25.118118-36.894118-4.21647a26.352941 26.352941 0 0 1-19.335529-12.227765l-1.626353-3.011765-15.450353-33.822117z" fill="#568af2" /></svg>