<svg class="icon" style="width: 1em;height: 1em;vertical-align: middle;fill: currentColor;overflow: hidden;" viewBox="0 0 1024 1024" version="1.1" xmlns="http://www.w3.org/2000/svg" width="32" height="32"><path d="M607.382588 163.147294c14.546824 0 26.352941 11.776 26.352941 26.352941v632.470589a26.352941 26.352941 0 0 1-26.352941 26.352941H150.588235a26.352941 26.352941 0 0 1-26.352941-26.352941v-632.470589c0-14.576941 11.806118-26.352941 26.352941-26.352941h456.794353z m-26.383059 52.705882H176.941176v579.764706h404.058353V215.853176z" fill="#568af2" /><path d="M291.147294 163.147294c14.546824 0 26.352941 11.776 26.352941 26.352941v632.470589a26.352941 26.352941 0 0 1-52.705882 0v-632.470589c0-14.576941 11.776-26.352941 26.352941-26.352941zM853.323294 163.147294c14.576941 0 26.352941 11.776 26.352941 26.352941v562.176a26.352941 26.352941 0 0 1-7.710117 18.672941L801.731765 840.583529a26.352941 26.352941 0 0 1-37.285647 0l-70.264471-70.26447a26.352941 26.352941 0 0 1-7.710118-18.642824V189.500235c0-14.576941 11.776-26.352941 26.352942-26.352941h140.528941z m-26.352941 52.705882h-87.823059v524.920471L783.058824 784.685176l43.911529-43.971764V215.883294z" fill="#568af2" /><path d="M853.323294 268.559059a26.352941 26.352941 0 1 1 0 52.705882h-140.528941a26.352941 26.352941 0 0 1 0-52.705882h140.528941zM607.382588 163.147294a26.352941 26.352941 0 0 1 0 52.705882H150.588235a26.352941 26.352941 0 0 1 0-52.705882h456.794353zM607.382588 795.617882a26.352941 26.352941 0 0 1 0 52.705883H150.588235a26.352941 26.352941 0 0 1 0-52.705883h456.794353z" fill="#568af2" /><path d="M712.794353 163.147294c14.546824 0 26.352941 11.776 26.352941 26.352941v281.088a26.352941 26.352941 0 0 1-52.705882 0V189.500235c0-14.576941 11.776-26.352941 26.352941-26.352941zM853.323294 163.147294c14.576941 0 26.352941 11.776 26.352941 26.352941v281.088a26.352941 26.352941 0 1 1-52.705882 0V189.500235c0-14.576941 11.806118-26.352941 26.352941-26.352941z" fill="#568af2" /></svg>