<svg class="icon" style="width: 1em;height: 1em;vertical-align: middle;fill: currentColor;overflow: hidden;" viewBox="0 0 1024 1024" version="1.1" xmlns="http://www.w3.org/2000/svg" width="32" height="32"><path d="M645.029647 124.235294c7.68 0 14.998588 3.373176 19.998118 9.216l158.117647 184.470588c4.096 4.758588 6.324706 10.842353 6.324706 17.136942v518.26447a26.352941 26.352941 0 0 1-26.322824 26.352941H240.941176a26.352941 26.352941 0 0 1-26.352941-26.352941V150.588235c0-14.546824 11.806118-26.352941 26.352941-26.352941h404.088471z m-12.137412 52.705882H267.294118v650.029177h509.470117v-482.183529l-143.872-167.845648z" fill="#568af2" /><path d="M522.029176 317.500235c52.284235 0 101.496471 19.968 138.721883 55.115294a202.029176 202.029176 0 1 1-138.721883-55.115294z m0 52.705883a149.323294 149.323294 0 1 0 0 298.646588 149.323294 149.323294 0 0 0 0-298.646588z" fill="#568af2" /><path d="M380.416 377.916235a26.352941 26.352941 0 0 1 37.285647 0l245.940706 245.970824a26.352941 26.352941 0 1 1-37.255529 37.255529l-245.970824-245.970823a26.352941 26.352941 0 0 1 0-37.25553z" fill="#568af2" /><path d="M697.735529 493.176471c14.546824 0 26.352941 11.806118 26.352942 26.352941a202.029176 202.029176 0 0 1-202.059295 202.029176 26.352941 26.352941 0 0 1 0-52.705882 149.323294 149.323294 0 0 0 149.353412-149.323294c0-14.546824 11.776-26.352941 26.352941-26.352941z m-175.706353-175.676236a26.352941 26.352941 0 1 1 0 52.705883 149.323294 149.323294 0 0 0-149.323294 149.323294 26.352941 26.352941 0 1 1-52.705882 0 202.029176 202.029176 0 0 1 202.029176-202.029177z" fill="#568af2" /></svg>