<svg class="icon" style="width: 1em;height: 1em;vertical-align: middle;fill: currentColor;overflow: hidden;" viewBox="0 0 1024 1024" version="1.1" xmlns="http://www.w3.org/2000/svg" width="32" height="32"><path d="M426.676706 184.470588c7.830588 0 15.239529 3.463529 20.239059 9.487059l79.932235 95.924706H813.176471c32.406588 0 58.970353 25.088 61.319529 56.922353l0.180706 4.577882v158.117647a26.352941 26.352941 0 0 1-52.705882 0v-158.117647a8.794353 8.794353 0 0 0-8.794353-8.794353h-298.676706a26.352941 26.352941 0 0 1-20.239059-9.487059l-79.932235-95.924705h-198.475295a8.794353 8.794353 0 0 0-8.553411 6.77647l-0.240941 2.017883v562.176c0 4.848941 3.915294 8.794353 8.794352 8.794352h263.529412a26.352941 26.352941 0 0 1 0 52.705883h-263.529412a61.500235 61.500235 0 0 1-61.500235-61.500235V245.970824c0-33.972706 27.527529-61.500235 61.500235-61.500236h210.82353z" fill="#568af2" /><path d="M683.791059 568.832a26.352941 26.352941 0 0 1 47.947294 0l33.219765 72.734118 79.48047 9.125647a26.352941 26.352941 0 0 1 17.106824 43.218823l-2.288941 2.409412-58.970353 54.061176 15.932235 78.396236a26.352941 26.352941 0 0 1-35.960471 29.575529l-2.831058-1.385412-69.662118-39.363764-69.662118 39.363764a26.352941 26.352941 0 0 1-39.243294-25.057882l0.451765-3.132235 15.902117-78.396236-58.940235-54.091294a26.352941 26.352941 0 0 1 11.565177-45.025882l3.252706-0.572235 79.450352-9.125647 33.249883-72.734118z m23.973647 74.360471l-15.420235 33.822117a26.352941 26.352941 0 0 1-20.992 15.23953l-36.924236 4.21647 27.407059 25.148236c5.933176 5.451294 9.035294 13.312 8.432941 21.232941l-0.421647 3.403294-7.408941 36.412235 32.376471-18.251294a26.352941 26.352941 0 0 1 22.829176-1.505882l3.072 1.505882 32.346353 18.251294-7.378823-36.412235a26.352941 26.352941 0 0 1 5.662117-22.166588l2.349177-2.469647 27.376941-25.148236-36.894118-4.21647a26.352941 26.352941 0 0 1-19.365647-12.197647l-1.626353-3.011765-15.420235-33.852235z" fill="#568af2" /></svg>