<svg class="icon" style="width: 1em;height: 1em;vertical-align: middle;fill: currentColor;overflow: hidden;" viewBox="0 0 1024 1024" version="1.1" xmlns="http://www.w3.org/2000/svg" width="32" height="32"><path d="M800.617412 184.470588a79.058824 79.058824 0 0 1 79.058823 79.058824v527.058823a79.058824 79.058824 0 0 1-79.058823 79.058824H203.294118a79.058824 79.058824 0 0 1-79.058824-79.058824V263.529412A79.058824 79.058824 0 0 1 203.294118 184.470588h597.323294z m0 52.705883H203.294118a26.352941 26.352941 0 0 0-26.352942 26.352941v527.058823c0 14.546824 11.806118 26.352941 26.352942 26.352941h597.323294a26.352941 26.352941 0 0 0 26.352941-26.352941V263.529412a26.352941 26.352941 0 0 0-26.352941-26.352941z" fill="#568af2" /><path d="M853.323294 325.029647a26.352941 26.352941 0 1 1 0 52.705882H150.588235a26.352941 26.352941 0 0 1 0-52.705882h702.735059zM712.794353 500.705882a26.352941 26.352941 0 0 1 0 52.705883h-281.118118a26.352941 26.352941 0 0 1 0-52.705883h281.118118zM712.794353 641.264941a26.352941 26.352941 0 0 1 0 52.705883h-281.118118a26.352941 26.352941 0 0 1 0-52.705883h281.118118zM326.264471 500.705882a26.352941 26.352941 0 1 1 0 52.705883H291.147294a26.352941 26.352941 0 1 1 0-52.705883h35.117177zM326.264471 641.264941a26.352941 26.352941 0 1 1 0 52.705883H291.147294a26.352941 26.352941 0 0 1 0-52.705883h35.117177z" fill="#568af2" /></svg>