<svg class="icon" style="width: 1em;height: 1em;vertical-align: middle;fill: currentColor;overflow: hidden;" viewBox="0 0 1024 1024" version="1.1" xmlns="http://www.w3.org/2000/svg" width="32" height="32"><path d="M627.440941 124.235294c14.576941 0 26.352941 11.806118 26.352941 26.352941v149.323294h149.353412c13.432471 0 24.515765 10.059294 26.142118 23.070118l0.210823 3.312941v491.91153a61.500235 61.500235 0 0 1-61.500235 61.470117H276.088471a61.500235 61.500235 0 0 1-61.500236-61.470117v-632.470589c0-33.972706 27.527529-61.500235 61.500236-61.500235h351.35247z m-26.352941 52.705882H276.088471a8.794353 8.794353 0 0 0-8.794353 8.794353v632.470589c0 4.818824 3.915294 8.764235 8.794353 8.764235H768c4.848941 0 8.794353-3.915294 8.794353-8.764235l-0.030118-465.588706h-149.323294a26.352941 26.352941 0 0 1-26.142117-23.04l-0.210824-3.312941V176.941176z" fill="#568af2" /><path d="M608.828235 131.945412a26.352941 26.352941 0 0 1 37.25553 0l175.676235 175.706353a26.352941 26.352941 0 1 1-37.255529 37.255529L608.828235 169.261176a26.352941 26.352941 0 0 1 0-37.285647zM583.378824 422.912c14.576941 0 26.383059 11.776 26.383058 26.352941l-0.030117 23.130353 78.546823-30.177882a26.352941 26.352941 0 0 1 35.599059 21.383529l0.210824 3.222588v193.264942a26.352941 26.352941 0 0 1-35.84 24.576l-78.516706-30.147765v23.130353a26.352941 26.352941 0 0 1-23.009883 26.142117l-3.312941 0.210824H346.352941a26.352941 26.352941 0 0 1-26.352941-26.352941v-228.382118c0-14.576941 11.806118-26.352941 26.352941-26.352941h237.025883z m-26.352942 52.705882h-184.32v175.676236h184.32v-35.147294a26.352941 26.352941 0 0 1 32.768-25.569883l3.072 0.993883 78.486589 30.117647v-116.495059l-78.486589 30.147764a26.352941 26.352941 0 0 1-35.629176-21.383529l-0.180706-3.222588-0.030118-35.117177z" fill="#568af2" /></svg>