<svg class="icon" style="width: 1em;height: 1em;vertical-align: middle;fill: currentColor;overflow: hidden;" viewBox="0 0 1024 1024" version="1.1" xmlns="http://www.w3.org/2000/svg" width="32" height="32"><path d="M737.882353 124.235294c33.972706 0 61.500235 27.527529 61.500235 61.500235v182.66353a26.352941 26.352941 0 0 1-52.705882 0V185.735529a8.794353 8.794353 0 0 0-8.794353-8.794353H245.970824a8.794353 8.794353 0 0 0-8.794353 8.794353v632.470589c0 4.818824 3.915294 8.764235 8.794353 8.764235H421.647059a26.352941 26.352941 0 0 1 0 52.705882H245.970824a61.500235 61.500235 0 0 1-61.500236-61.470117v-632.470589c0-33.972706 27.527529-61.500235 61.500236-61.500235H737.882353z" fill="#568af2" /><path d="M579.764706 299.911529a26.352941 26.352941 0 1 1 0 52.705883h-228.382118a26.352941 26.352941 0 1 1 0-52.705883h228.382118zM439.205647 422.912a26.352941 26.352941 0 1 1 0 52.705882h-87.823059a26.352941 26.352941 0 0 1 0-52.705882h87.823059zM869.647059 677.647059a202.029176 202.029176 0 1 1-404.088471 0 202.029176 202.029176 0 0 1 404.088471 0z m-52.705883 0a149.323294 149.323294 0 1 0-298.676705 0 149.323294 149.323294 0 0 0 298.676705 0z" fill="#568af2" /><path d="M667.617882 686.441412c14.546824 0 26.352941 11.776 26.352942 26.352941v52.705882a26.352941 26.352941 0 0 1-52.705883 0v-52.705882c0-14.576941 11.776-26.352941 26.352941-26.352941z" fill="#568af2" /><path d="M667.617882 607.382588m-35.147294 0a35.147294 35.147294 0 1 0 70.294588 0 35.147294 35.147294 0 1 0-70.294588 0Z" fill="#568af2" /></svg>