<svg class="icon" style="width: 1em;height: 1em;vertical-align: middle;fill: currentColor;overflow: hidden;" viewBox="0 0 1024 1024" version="1.1" xmlns="http://www.w3.org/2000/svg" width="32" height="32"><path d="M614.912 124.235294c7.469176 0 14.576941 3.162353 19.576471 8.734118l158.117647 175.676235c4.367059 4.818824 6.776471 11.143529 6.77647 17.618824v158.117647a26.352941 26.352941 0 0 1-52.705882 0l-0.030118-148.028236-143.48047-159.412706H245.970824a8.794353 8.794353 0 0 0-8.553412 6.776471l-0.240941 2.017882v632.470589c0 4.818824 3.915294 8.764235 8.794353 8.764235h210.823529a26.352941 26.352941 0 0 1 0 52.705882h-210.823529a61.500235 61.500235 0 0 1-61.500236-61.470117v-632.470589c0-33.972706 27.527529-61.500235 61.500236-61.500235h368.941176z" fill="#568af2" /><path d="M596.269176 641.445647a26.352941 26.352941 0 0 1 37.25553 37.255529l-69.210353 69.210353 69.210353 69.210353c9.456941 9.456941 10.24 24.244706 2.379294 34.575059l-2.379294 2.710588a26.352941 26.352941 0 0 1-37.25553 0l-87.853176-87.853176a26.352941 26.352941 0 0 1 0-37.255529l87.853176-87.853177z" fill="#568af2" /><path d="M808.146824 581.029647c14.576941 0 26.352941 11.776 26.352941 26.352941v140.528941a26.352941 26.352941 0 0 1-26.352941 26.352942H527.058824a26.352941 26.352941 0 1 1 0-52.705883h254.735058v-114.176c0-13.432471 10.059294-24.545882 23.070118-26.172235l3.312941-0.180706zM597.323294 124.235294c14.576941 0 26.352941 11.806118 26.352941 26.352941v149.323294h149.353412c13.432471 0 24.515765 10.059294 26.142118 23.070118l0.210823 3.312941a26.352941 26.352941 0 0 1-26.352941 26.322824h-175.706353a26.352941 26.352941 0 0 1-26.352941-26.352941V150.588235c0-14.546824 11.806118-26.352941 26.352941-26.352941z" fill="#568af2" /></svg>