<svg class="icon" style="width: 1em;height: 1em;vertical-align: middle;fill: currentColor;overflow: hidden;" viewBox="0 0 1024 1024" version="1.1" xmlns="http://www.w3.org/2000/svg" width="32" height="32"><path d="M426.676706 154.352941c7.830588 0 15.239529 3.463529 20.239059 9.487059l79.932235 95.924706H813.176471c32.406588 0 58.970353 25.088 61.319529 56.922353l0.180706 4.577882v158.117647a26.352941 26.352941 0 0 1-52.705882 0v-158.117647a8.794353 8.794353 0 0 0-8.794353-8.794353h-298.676706a26.352941 26.352941 0 0 1-20.239059-9.487059l-79.932235-95.924705h-198.475295a8.794353 8.794353 0 0 0-8.553411 6.77647l-0.240941 2.017882v562.176c0 4.848941 3.915294 8.794353 8.794352 8.794353h263.529412a26.352941 26.352941 0 0 1 0 52.705883h-263.529412a61.500235 61.500235 0 0 1-61.500235-61.500236V215.853176c0-33.972706 27.527529-61.500235 61.500235-61.500235h210.82353z" fill="#568af2" /><path d="M636.416 636.416a26.352941 26.352941 0 1 1 37.285647 37.285647l-69.240471 69.180235 69.240471 69.240471c9.426824 9.426824 10.24 24.214588 2.349177 34.544941l-2.349177 2.710588a26.352941 26.352941 0 0 1-37.285647 0l-87.823059-87.853176a26.352941 26.352941 0 0 1 0-37.25553l87.823059-87.853176z" fill="#568af2" /><path d="M848.323765 576c14.546824 0 26.352941 11.806118 26.352941 26.352941v140.559059a26.352941 26.352941 0 0 1-26.352941 26.352941h-281.118118a26.352941 26.352941 0 0 1 0-52.705882l254.735059-0.030118V602.352941c0-13.432471 10.059294-24.515765 23.070118-26.142117l3.312941-0.210824z" fill="#568af2" /></svg>