<svg class="icon" style="width: 1em;height: 1em;vertical-align: middle;fill: currentColor;overflow: hidden;" viewBox="0 0 1024 1024" version="1.1" xmlns="http://www.w3.org/2000/svg" width="32" height="32"><path d="M611.147294 120.470588c7.469176 0 14.576941 3.162353 19.576471 8.734118l158.117647 175.676235c4.367059 4.818824 6.776471 11.143529 6.77647 17.618824v158.117647a26.352941 26.352941 0 0 1-52.705882 0l-0.030118-148.028236-143.48047-159.412705H242.206118a8.794353 8.794353 0 0 0-8.553412 6.77647l-0.240941 2.017883v632.470588c0 4.818824 3.915294 8.764235 8.794353 8.764235h210.823529a26.352941 26.352941 0 0 1 0 52.705882h-210.823529A61.500235 61.500235 0 0 1 180.705882 814.441412v-632.470588C180.705882 147.998118 208.233412 120.470588 242.206118 120.470588h368.941176z" fill="#568af2" /><path d="M786.823529 629.970824a26.352941 26.352941 0 1 1 0 52.705882h-245.970823a26.352941 26.352941 0 0 1 0-52.705882h245.970823zM786.823529 735.382588a26.352941 26.352941 0 1 1 0 52.705883h-245.970823a26.352941 26.352941 0 0 1 0-52.705883h245.970823z" fill="#568af2" /><path d="M680.357647 549.827765a26.352941 26.352941 0 0 1 37.255529 0l87.853177 87.853176a26.352941 26.352941 0 1 1-37.285647 37.25553l-87.823059-87.823059a26.352941 26.352941 0 0 1 0-37.285647zM522.24 743.092706a26.352941 26.352941 0 0 1 37.255529 0l87.853177 87.853176a26.352941 26.352941 0 1 1-37.285647 37.25553L522.24 780.348235a26.352941 26.352941 0 0 1 0-37.255529zM593.558588 120.470588c14.576941 0 26.352941 11.806118 26.352941 26.352941v149.323295h149.353412c13.432471 0 24.515765 10.059294 26.142118 23.070117l0.210823 3.312941a26.352941 26.352941 0 0 1-26.352941 26.322824h-175.706353a26.352941 26.352941 0 0 1-26.352941-26.352941V146.823529c0-14.546824 11.806118-26.352941 26.352941-26.352941z" fill="#568af2" /></svg>