<svg class="icon" style="width: 1em;height: 1em;vertical-align: middle;fill: currentColor;overflow: hidden;" viewBox="0 0 1024 1024" version="1.1" xmlns="http://www.w3.org/2000/svg" width="32" height="32"><path d="M645.029647 124.235294c7.68 0 14.998588 3.373176 19.998118 9.216l158.117647 184.470588c4.096 4.758588 6.324706 10.842353 6.324706 17.136942v518.26447a26.352941 26.352941 0 0 1-26.322824 26.352941H240.941176a26.352941 26.352941 0 0 1-26.352941-26.352941V150.588235c0-14.546824 11.806118-26.352941 26.352941-26.352941h404.088471z m-12.137412 52.705882H267.294118v650.029177h509.470117v-482.183529l-143.872-167.845648z" fill="#568af2" /><path d="M469.323294 545.882353c14.576941 0 26.352941 11.806118 26.352941 26.352941v122.970353a26.352941 26.352941 0 0 1-26.352941 26.352941h-105.411765a26.352941 26.352941 0 0 1-26.352941-26.352941V572.235294c0-14.546824 11.806118-26.352941 26.352941-26.352941h105.411765z m-26.352941 52.705882h-52.705882v70.264471h52.705882v-70.264471z" fill="#568af2" /><path d="M697.735529 668.852706a26.352941 26.352941 0 0 1 0 52.705882H346.352941a26.352941 26.352941 0 1 1 0-52.705882h351.382588z" fill="#568af2" /><path d="M574.735059 458.029176c14.576941 0 26.352941 11.806118 26.352941 26.352942v210.823529a26.352941 26.352941 0 0 1-26.352941 26.352941h-105.411765a26.352941 26.352941 0 0 1-26.352941-26.352941v-210.823529c0-14.546824 11.806118-26.352941 26.352941-26.352942h105.411765z m-26.352941 52.705883h-52.705883v158.117647h52.705883v-158.117647z" fill="#568af2" /><path d="M680.146824 370.206118c14.576941 0 26.352941 11.776 26.352941 26.352941v298.646588a26.352941 26.352941 0 0 1-26.352941 26.352941h-105.411765a26.352941 26.352941 0 0 1-26.352941-26.352941v-298.646588c0-14.576941 11.806118-26.352941 26.352941-26.352941h105.411765z m-26.352942 52.705882h-52.705882v245.940706h52.705882v-245.940706z" fill="#568af2" /></svg>