<svg class="icon" style="width: 1em;height: 1em;vertical-align: middle;fill: currentColor;overflow: hidden;" viewBox="0 0 1024 1024" version="1.1" xmlns="http://www.w3.org/2000/svg" width="32" height="32"><path d="M814.441412 210.823529c33.942588 0 61.470118 27.527529 61.470117 61.500236v491.911529a61.500235 61.500235 0 0 1-61.470117 61.500235h-632.470588A61.500235 61.500235 0 0 1 120.470588 764.235294V272.323765C120.470588 238.351059 147.998118 210.823529 181.970824 210.823529h632.470588z m0 52.705883h-632.470588a8.794353 8.794353 0 0 0-8.794353 8.794353v491.911529c0 4.848941 3.915294 8.794353 8.794353 8.794353h632.470588c4.818824 0 8.764235-3.915294 8.764235-8.794353V272.323765a8.794353 8.794353 0 0 0-8.764235-8.794353z" fill="#568af2" /><path d="M814.441412 210.823529c33.942588 0 61.470118 27.527529 61.470117 61.500236v105.411764a26.352941 26.352941 0 0 1-26.352941 26.352942H146.823529A26.352941 26.352941 0 0 1 120.470588 377.735529v-105.411764C120.470588 238.351059 147.998118 210.823529 181.970824 210.823529h632.470588z m0 52.705883h-632.470588a8.794353 8.794353 0 0 0-8.794353 8.794353v79.028706h650.029176V272.323765a8.794353 8.794353 0 0 0-6.746353-8.553412l-2.017882-0.240941zM517.180235 474.383059l3.312941 0.391529c14.305882 2.620235 23.792941 16.323765 21.202824 30.659765l-35.147294 193.234823a26.352941 26.352941 0 1 1-51.862588-9.426823l35.147294-193.264941a26.352941 26.352941 0 0 1 30.659764-21.202824l-3.312941-0.391529zM600.937412 483.84a26.352941 26.352941 0 0 1 37.104941-3.373176l105.411765 87.823058c11.896471 9.938824 12.739765 27.949176 1.776941 38.881883l-105.411765 105.411764a26.352941 26.352941 0 1 1-37.285647-37.255529l84.992-85.022118-83.215059-69.360941a26.352941 26.352941 0 0 1-5.481412-34.213647l2.108236-2.891294zM358.339765 480.466824a26.352941 26.352941 0 0 1 33.731764 40.478117L308.826353 590.305882l85.022118 85.022118c9.426824 9.426824 10.24 24.244706 2.349176 34.575059l-2.349176 2.710588a26.352941 26.352941 0 0 1-37.25553 0l-105.411765-105.411765a26.352941 26.352941 0 0 1 1.746824-38.912l105.411765-87.823058z" fill="#568af2" /></svg>