<svg class="icon" style="width: 1em;height: 1em;vertical-align: middle;fill: currentColor;overflow: hidden;" viewBox="0 0 1024 1024" version="1.1" xmlns="http://www.w3.org/2000/svg" width="32" height="32"><path d="M849.558588 210.823529c14.576941 0 26.352941 11.806118 26.352941 26.352942v263.529411a26.352941 26.352941 0 1 1-52.705882 0V263.529412H173.176471V737.882353h325.029647c13.432471 0 24.515765 10.059294 26.142117 23.04l0.210824 3.312941a26.352941 26.352941 0 0 1-26.352941 26.352941H146.823529A26.352941 26.352941 0 0 1 120.470588 764.235294v-527.058823C120.470588 222.629647 132.276706 210.823529 146.823529 210.823529h702.735059z" fill="#568af2" /><path d="M681.652706 528.956235a26.352941 26.352941 0 0 1 19.57647 0 641.174588 641.174588 0 0 1 45.929412 20.660706c8.493176 4.216471 16.173176 8.402824 22.91953 12.438588 23.702588 14.215529 35.568941 24.907294 35.568941 44.062118 0 67.614118-18.612706 119.717647-50.025412 157.424941-19.546353 23.431529-39.604706 36.833882-54.392471 42.736941a26.352941 26.352941 0 0 1-19.57647 0c-14.757647-5.903059-34.816-19.275294-54.362353-42.767058-31.442824-37.677176-50.025412-89.750588-50.025412-157.394824 0-19.154824 11.866353-29.846588 35.538824-44.062118 6.746353-4.035765 14.456471-8.192 22.949647-12.438588a641.174588 641.174588 0 0 1 45.899294-20.660706z m9.788235 53.007059l-3.222588 1.385412c-9.908706 4.306824-19.757176 8.824471-28.912941 13.402353a293.044706 293.044706 0 0 0-19.365647 10.480941 121.825882 121.825882 0 0 0-8.463059 5.511529l-1.41553 1.054118 0.060236 1.927529c1.475765 47.284706 13.854118 82.853647 33.611294 108.965648l4.035765 5.12c8.041412 9.637647 15.902118 16.564706 22.437647 21.232941l1.204706 0.813176 1.295058-0.813176c5.421176-3.885176 11.806118-9.336471 18.432-16.655059l4.005647-4.577882c23.491765-28.190118 37.797647-68.336941 37.797647-123.693177l-0.12047 7.68-1.385412-1.054118a105.170824 105.170824 0 0 0-5.300706-3.553882l-3.162353-1.957647a293.044706 293.044706 0 0 0-19.395764-10.480941 589.884235 589.884235 0 0 0-28.882824-13.402353l-3.252706-1.41553zM833.746824 216.094118a26.352941 26.352941 0 1 1 31.623529 42.164706l-351.352471 263.529411a26.352941 26.352941 0 0 1-31.623529 0L131.011765 258.258824a26.352941 26.352941 0 1 1 31.623529-42.164706l335.540706 251.663058 335.570824-251.663058z" fill="#568af2" /></svg>