<svg class="icon" style="width: 1em;height: 1em;vertical-align: middle;fill: currentColor;overflow: hidden;" viewBox="0 0 1024 1024" version="1.1" xmlns="http://www.w3.org/2000/svg" width="32" height="32"><path d="M426.676706 184.470588c7.830588 0 15.239529 3.463529 20.239059 9.487059l79.932235 95.924706H813.176471c32.406588 0 58.970353 25.088 61.319529 56.922353l0.180706 4.577882v456.764236A61.500235 61.500235 0 0 1 813.176471 869.647059H215.853176a61.500235 61.500235 0 0 1-61.500235-61.500235V245.970824c0-33.972706 27.527529-61.500235 61.500235-61.500236h210.82353z m-12.348235 52.705883h-198.475295a8.794353 8.794353 0 0 0-8.794352 8.794353v562.176c0 4.848941 3.915294 8.794353 8.794352 8.794352H813.176471c4.848941 0 8.794353-3.915294 8.794353-8.794352V351.382588a8.794353 8.794353 0 0 0-8.794353-8.794353h-298.676706a26.352941 26.352941 0 0 1-20.239059-9.487059l-79.932235-95.924705z" fill="#568af2" /><path d="M506.669176 431.616a26.352941 26.352941 0 0 1 15.661177 0 877.417412 877.417412 0 0 1 54.422588 19.064471c10.029176 3.885176 19.094588 7.68 26.985412 11.38447 29.816471 13.884235 42.526118 22.799059 42.526118 43.91153 0 63.849412-22.016 118.663529-58.518589 164.080941-21.835294 27.166118-43.791059 45.417412-59.331764 55.055059a26.352941 26.352941 0 0 1-27.828706 0c-15.510588-9.637647-37.496471-27.888941-59.331765-55.055059-36.472471-45.387294-58.518588-100.231529-58.518588-164.080941 0-21.082353 12.739765-30.027294 42.556235-43.91153 7.890824-3.704471 16.956235-7.499294 26.955294-11.38447a877.417412 877.417412 0 0 1 54.422588-19.064471z m7.830589 52.826353l-8.041412 2.710588c-11.986824 4.035765-24.003765 8.312471-35.117177 12.649412-9.005176 3.493647-17.016471 6.866824-23.792941 9.999059a162.032941 162.032941 0 0 0-10.721882 5.451294l-1.174588 0.662588 0.602353 8.824471c3.493647 39.875765 18.070588 74.932706 40.719058 105.351529l5.360942 6.927059c10.360471 12.920471 21.473882 23.973647 32.527058 33.129412l-0.391529-0.301177 6.324706-5.421176c6.625882-5.933176 13.191529-12.559059 19.576471-19.877647l6.324705-7.529412c25.690353-31.984941 42.315294-69.330824 46.08-112.278588l0.542118-8.824471-1.144471-0.662588a139.203765 139.203765 0 0 0-6.716235-3.523765l-4.005647-1.927529a401.167059 401.167059 0 0 0-23.792941-9.999059 826.187294 826.187294 0 0 0-42.887529-15.269647l-0.271059-0.090353z" fill="#568af2" /></svg>