<svg class="icon" style="width: 1em;height: 1em;vertical-align: middle;fill: currentColor;overflow: hidden;" viewBox="0 0 1024 1024" version="1.1" xmlns="http://www.w3.org/2000/svg" width="32" height="32"><path d="M765.500235 184.470588a79.058824 79.058824 0 0 1 79.058824 79.058824v527.058823a79.058824 79.058824 0 0 1-79.058824 79.058824h-527.058823a79.058824 79.058824 0 0 1-79.058824-79.058824V263.529412a79.058824 79.058824 0 0 1 79.058824-79.058824h527.058823z m0 52.705883h-527.058823a26.352941 26.352941 0 0 0-26.352941 26.352941v527.058823c0 14.546824 11.776 26.352941 26.352941 26.352941h527.058823a26.352941 26.352941 0 0 0 26.352941-26.352941V263.529412a26.352941 26.352941 0 0 0-26.352941-26.352941z" fill="#568af2" /><path d="M343.853176 623.676235c9.968941 0 19.094588 5.662118 23.552 14.576941l27.828706 55.717648h213.413647l27.858824-55.717648a26.352941 26.352941 0 0 1 20.269176-14.366117l3.312942-0.210824h193.234823a26.352941 26.352941 0 0 1 0 52.705883h-176.971294l-27.828706 55.717647a26.352941 26.352941 0 0 1-20.299294 14.366117l-3.282824 0.210824h-245.970823a26.352941 26.352941 0 0 1-23.552-14.576941l-27.858824-55.717647H150.588235a26.352941 26.352941 0 0 1-26.142117-23.04l-0.210824-3.312942c0-14.546824 11.806118-26.352941 26.352941-26.352941h193.264941z" fill="#568af2" /><path d="M818.206118 535.853176c14.546824 0 26.352941 11.776 26.352941 26.352942V737.882353a26.352941 26.352941 0 0 1-52.705883 0v-175.676235c0-14.576941 11.776-26.352941 26.352942-26.352942zM185.735529 535.853176c14.546824 0 26.352941 11.776 26.352942 26.352942V737.882353a26.352941 26.352941 0 1 1-52.705883 0v-175.676235c0-14.576941 11.776-26.352941 26.352941-26.352942zM624.941176 342.588235a26.352941 26.352941 0 1 1 0 52.705883h-245.970823a26.352941 26.352941 0 0 1 0-52.705883h245.970823zM624.941176 483.147294a26.352941 26.352941 0 1 1 0 52.705882h-245.970823a26.352941 26.352941 0 0 1 0-52.705882h245.970823z" fill="#568af2" /></svg>