<svg class="icon" style="width: 1em;height: 1em;vertical-align: middle;fill: currentColor;overflow: hidden;" viewBox="0 0 1024 1024" version="1.1" xmlns="http://www.w3.org/2000/svg" width="32" height="32"><path d="M768 133.029647c33.972706 0 61.500235 27.527529 61.500235 61.470118v632.470588A61.500235 61.500235 0 0 1 768 888.470588H276.088471a61.500235 61.500235 0 0 1-61.500236-61.500235v-632.470588c0-33.942588 27.527529-61.470118 61.500236-61.470118H768z m0 52.705882H276.088471a8.794353 8.794353 0 0 0-8.794353 8.764236v632.470588c0 4.848941 3.915294 8.794353 8.794353 8.794353H768c4.848941 0 8.794353-3.915294 8.794353-8.794353v-632.470588a8.794353 8.794353 0 0 0-8.794353-8.764236z" fill="#568af2" /><path d="M381.500235 133.029647c14.546824 0 26.352941 11.776 26.352941 26.352941v702.735059a26.352941 26.352941 0 0 1-52.705882 0V159.382588c0-14.576941 11.776-26.352941 26.352941-26.352941zM662.588235 273.558588a26.352941 26.352941 0 1 1 0 52.705883h-140.559059a26.352941 26.352941 0 0 1 0-52.705883H662.588235zM662.588235 414.117647a26.352941 26.352941 0 1 1 0 52.705882h-140.559059a26.352941 26.352941 0 0 1 0-52.705882H662.588235z" fill="#568af2" /><path d="M486.912 133.029647a26.352941 26.352941 0 0 1 0 52.705882h-210.823529a26.352941 26.352941 0 0 1 0-52.705882h210.823529zM486.912 835.764706a26.352941 26.352941 0 0 1 0 52.705882h-210.823529a26.352941 26.352941 0 1 1 0-52.705882h210.823529z" fill="#568af2" /></svg>