<svg class="icon" style="width: 1em;height: 1em;vertical-align: middle;fill: currentColor;overflow: hidden;" viewBox="0 0 1024 1024" version="1.1" xmlns="http://www.w3.org/2000/svg" width="32" height="32"><path d="M471.070118 686.622118c14.456471-1.807059 27.617882 8.432941 29.424941 22.889411l17.588706 140.559059a26.352941 26.352941 0 1 1-52.314353 6.53553l-17.558588-140.559059a26.352941 26.352941 0 0 1 22.889411-29.424941z" fill="#568af2" /><path d="M843.294118 264.794353c14.546824 0 26.352941 11.776 26.352941 26.352941v562.176a26.352941 26.352941 0 0 1-26.352941 26.352941H491.911529a26.352941 26.352941 0 0 1-19.817411-43.670588l115.169882-131.704471-16.082824-128.783058-17.558588-140.559059-17.588706-140.559059a26.352941 26.352941 0 0 1 26.172236-29.605647H843.294118z m-26.383059 52.705882h-224.888471l13.884236 110.923294 17.588705 140.528942 17.558589 140.559058a26.352941 26.352941 0 0 1-6.324706 20.630589l-84.751059 96.828235h266.932706V317.500235z" fill="#568af2" /><path d="M685.176471 545.882353a26.352941 26.352941 0 1 1 0 52.705882h-87.853177a26.352941 26.352941 0 0 1 0-52.705882h87.853177zM685.176471 405.323294a26.352941 26.352941 0 0 1 0 52.705882h-105.411765a26.352941 26.352941 0 1 1 0-52.705882h105.411765z" fill="#568af2" /><path d="M544.617412 124.235294c13.312 0 24.515765 9.908706 26.172235 23.070118l17.558588 140.559059 17.558589 140.559058 35.147294 281.088a26.352941 26.352941 0 0 1-26.142118 29.635765H210.823529a26.352941 26.352941 0 0 1-26.352941-26.352941V150.588235c0-14.546824 11.806118-26.352941 26.352941-26.352941h333.793883z m-23.250824 52.705882H237.176471v509.470118h347.858823l-13.854118-110.893176-17.558588-140.559059-17.588706-140.559059-14.667294-117.458824z" fill="#568af2" /><path d="M439.205647 264.794353a26.352941 26.352941 0 1 1 0 52.705882H316.235294a26.352941 26.352941 0 0 1 0-52.705882h122.970353zM456.794353 405.323294a26.352941 26.352941 0 0 1 0 52.705882H316.235294a26.352941 26.352941 0 1 1 0-52.705882h140.559059zM474.352941 545.882353a26.352941 26.352941 0 1 1 0 52.705882H316.235294a26.352941 26.352941 0 1 1 0-52.705882h158.117647z" fill="#568af2" /></svg>