<svg class="icon" style="width: 1em;height: 1em;vertical-align: middle;fill: currentColor;overflow: hidden;" viewBox="0 0 1024 1024" version="1.1" xmlns="http://www.w3.org/2000/svg" width="32" height="32"><path d="M833.114353 402.311529a26.352941 26.352941 0 0 1 42.797176 20.600471v383.307294c0 35.237647-26.985412 64.692706-61.470117 64.692706h-632.470588C147.456 870.912 120.470588 841.456941 120.470588 806.219294V422.912a26.352941 26.352941 0 0 1 42.827294-20.600471l334.908236 267.956706 334.908235-267.956706z m-9.908706 75.414589l-308.555294 246.844235a26.352941 26.352941 0 0 1-32.918588 0L173.176471 477.726118v328.493176c0 6.204235 3.433412 10.721882 7.168 11.745882l1.626353 0.240942h632.470588c4.306824 0 8.764235-4.879059 8.764235-11.986824V477.726118z" fill="#568af2" /><path d="M483.237647 155.256471a26.352941 26.352941 0 0 1 29.906824 0l351.382588 242.145882a26.352941 26.352941 0 1 1-29.906824 43.399529l-336.414117-231.875764-336.414118 231.905882a26.352941 26.352941 0 0 1-34.424471-3.975529l-2.228705-2.800942a26.352941 26.352941 0 0 1 6.746352-36.653176l351.352471-242.145882z" fill="#568af2" /><path d="M673.882353 396.559059c14.546824 0 26.352941 11.776 26.352941 26.352941v140.528941c0 8.011294-3.614118 15.600941-9.878588 20.600471l-175.706353 140.528941a26.352941 26.352941 0 0 1-32.918588 0l-175.676236-140.528941a26.352941 26.352941 0 0 1-9.908705-20.600471v-140.528941c0-14.576941 11.806118-26.352941 26.352941-26.352941h351.382588z m-26.383059 52.705882h-298.646588v101.496471l149.323294 119.506823 149.323294-119.476706v-101.526588z" fill="#568af2" /></svg>