<svg class="icon" style="width: 1em;height: 1em;vertical-align: middle;fill: currentColor;overflow: hidden;" viewBox="0 0 1024 1024" version="1.1" xmlns="http://www.w3.org/2000/svg" width="32" height="32"><path d="M210.823529 658.823529c14.546824 0 26.352941 11.806118 26.352942 26.352942v105.411764c0 14.546824 11.806118 26.352941 26.352941 26.352941h105.411764a26.352941 26.352941 0 1 1 0 52.705883h-105.411764a79.058824 79.058824 0 0 1-79.058824-79.058824v-105.411764c0-14.546824 11.806118-26.352941 26.352941-26.352942zM843.294118 658.823529c14.546824 0 26.352941 11.806118 26.352941 26.352942v105.411764a79.058824 79.058824 0 0 1-79.058824 79.058824h-105.411764a26.352941 26.352941 0 1 1 0-52.705883h105.411764a26.352941 26.352941 0 0 0 26.352941-26.352941v-105.411764c0-14.546824 11.806118-26.352941 26.352942-26.352942zM790.588235 184.470588a79.058824 79.058824 0 0 1 79.058824 79.058824v105.411764a26.352941 26.352941 0 1 1-52.705883 0v-105.411764a26.352941 26.352941 0 0 0-26.352941-26.352941h-105.411764a26.352941 26.352941 0 1 1 0-52.705883h105.411764zM368.941176 184.470588a26.352941 26.352941 0 1 1 0 52.705883h-105.411764a26.352941 26.352941 0 0 0-26.352941 26.352941v105.411764a26.352941 26.352941 0 1 1-52.705883 0v-105.411764A79.058824 79.058824 0 0 1 263.529412 184.470588h105.411764zM527.058824 342.588235c14.546824 0 26.352941 11.806118 26.352941 26.352941v351.382589a26.352941 26.352941 0 0 1-52.705883 0V368.941176c0-14.546824 11.806118-26.352941 26.352942-26.352941z" fill="#568af2" /><path d="M650.029176 342.588235a26.352941 26.352941 0 1 1 0 52.705883h-245.940705a26.352941 26.352941 0 1 1 0-52.705883h245.940705z" fill="#568af2" /></svg>