<svg class="icon" style="width: 1em;height: 1em;vertical-align: middle;fill: currentColor;overflow: hidden;" viewBox="0 0 1024 1024" version="1.1" xmlns="http://www.w3.org/2000/svg" width="32" height="32"><path d="M623.616 253.168941a131.764706 131.764706 0 0 1 186.337882 186.368L499.380706 750.110118a184.470588 184.470588 0 0 1-260.879059-260.879059l260.879059-260.909177a26.352941 26.352941 0 0 1 37.255529 37.285647L275.757176 526.456471a131.764706 131.764706 0 1 0 186.368 186.337882l310.573177-310.573177a79.058824 79.058824 0 0 0-111.826824-111.796705L350.298353 601.027765a26.352941 26.352941 0 1 0 37.285647 37.255529l260.879059-260.879059a26.352941 26.352941 0 1 1 37.255529 37.285647l-260.879059 260.879059a79.058824 79.058824 0 1 1-111.796705-111.826823L623.616 253.168941z" fill="#568af2" /></svg>