<svg class="icon" style="width: 1em;height: 1em;vertical-align: middle;fill: currentColor;overflow: hidden;" viewBox="0 0 1024 1024" version="1.1" xmlns="http://www.w3.org/2000/svg" width="32" height="32"><path d="M426.676706 184.470588c7.830588 0 15.239529 3.463529 20.239059 9.487059l79.932235 95.924706H813.176471c32.406588 0 58.970353 25.088 61.319529 56.922353l0.180706 4.577882v456.764236A61.500235 61.500235 0 0 1 813.176471 869.647059H215.853176a61.500235 61.500235 0 0 1-61.500235-61.500235V245.970824c0-33.972706 27.527529-61.500235 61.500235-61.500236h210.82353z m-12.348235 52.705883h-198.475295a8.794353 8.794353 0 0 0-8.794352 8.794353v562.176c0 4.848941 3.915294 8.794353 8.794352 8.794352H813.176471c4.848941 0 8.794353-3.915294 8.794353-8.794352V351.382588a8.794353 8.794353 0 0 0-8.794353-8.794353h-298.676706a26.352941 26.352941 0 0 1-20.239059-9.487059l-79.932235-95.924705z" fill="#568af2" /><path d="M566.151529 473.298824a26.352941 26.352941 0 0 1 37.25553 0l87.853176 87.823058a26.352941 26.352941 0 0 1 0 37.285647l-87.853176 87.823059a26.352941 26.352941 0 1 1-37.25553-37.255529l69.180236-69.240471-69.180236-69.180235a26.352941 26.352941 0 0 1-2.349176-34.575059l2.349176-2.710588zM425.592471 473.298824a26.352941 26.352941 0 1 1 37.285647 37.255529L393.637647 579.764706l69.240471 69.24047c9.426824 9.426824 10.24 24.244706 2.349176 34.575059l-2.349176 2.710589a26.352941 26.352941 0 0 1-37.285647 0l-87.823059-87.853177a26.352941 26.352941 0 0 1 0-37.285647l87.823059-87.823059z" fill="#568af2" /></svg>