<svg class="icon" style="width: 1em;height: 1em;vertical-align: middle;fill: currentColor;overflow: hidden;" viewBox="0 0 1024 1024" version="1.1" xmlns="http://www.w3.org/2000/svg" width="32" height="32"><path d="M803.147294 133.029647a26.352941 26.352941 0 0 1 0 52.705882H240.941176a26.352941 26.352941 0 0 1 0-52.705882h562.206118zM803.147294 835.764706a26.352941 26.352941 0 0 1 0 52.705882H240.941176a26.352941 26.352941 0 1 1 0-52.705882h562.206118z" fill="#568af2" /><path d="M311.205647 133.029647c14.576941 0 26.352941 11.776 26.352941 26.352941v200.704l151.371294 168.176941c8.914824 9.908706 8.914824 24.726588 0.542118 34.635295l-2.499765 2.56a26.352941 26.352941 0 0 1-37.225411-1.957648l-158.117648-175.676235a26.352941 26.352941 0 0 1-6.77647-17.618823v-210.82353c0-14.576941 11.806118-26.352941 26.352941-26.352941zM555.580235 439.958588a26.352941 26.352941 0 0 1 37.25553-1.084235l158.117647 149.353412a26.352941 26.352941 0 0 1 8.252235 19.154823v254.735059a26.352941 26.352941 0 1 1-52.705882 0v-243.410823l-149.835294-141.522824a26.352941 26.352941 0 0 1-3.373177-34.484706l2.288941-2.740706z" fill="#568af2" /><path d="M406.768941 483.328a26.352941 26.352941 0 0 1 37.285647 37.255529l-106.496 106.465883v235.068235a26.352941 26.352941 0 0 1-23.04 26.142118l-3.312941 0.210823a26.352941 26.352941 0 0 1-26.352941-26.352941v-245.970823c0-6.987294 2.800941-13.673412 7.740235-18.612706l114.176-114.206118zM732.852706 133.029647c14.576941 0 26.352941 11.776 26.352941 26.352941v210.82353c0 6.324706-2.288941 12.468706-6.415059 17.257411l-114.206117 131.764706a26.352941 26.352941 0 0 1-39.845647-34.514823l107.760941-124.385883V159.412706c0-13.432471 10.059294-24.545882 23.070117-26.172235l3.312942-0.180706z" fill="#568af2" /><path d="M434.206118 642.499765a26.352941 26.352941 0 0 1 0 52.705882h-17.588706a26.352941 26.352941 0 0 1 0-52.705882h17.588706zM593.829647 644.005647a26.352941 26.352941 0 0 1 37.255529 0l12.438589 12.438588a26.352941 26.352941 0 0 1-37.285647 37.25553l-12.408471-12.408471a26.352941 26.352941 0 0 1 0-37.285647zM539.617882 730.352941a26.352941 26.352941 0 0 1 0 52.705883h-17.588706a26.352941 26.352941 0 0 1 0-52.705883h17.588706z" fill="#568af2" /></svg>