<svg class="icon" style="width: 1em;height: 1em;vertical-align: middle;fill: currentColor;overflow: hidden;" viewBox="0 0 1024 1024" version="1.1" xmlns="http://www.w3.org/2000/svg" width="32" height="32"><path d="M627.440941 124.235294c6.987294 0 13.703529 2.770824 18.672941 7.710118l175.646118 175.706353a26.352941 26.352941 0 0 1 7.740235 18.612706v491.941647a61.500235 61.500235 0 0 1-61.500235 61.470117H276.088471a61.500235 61.500235 0 0 1-61.500236-61.470117v-632.470589c0-33.972706 27.527529-61.500235 61.500236-61.500235h351.35247z m-10.902588 52.705882H276.088471a8.794353 8.794353 0 0 0-8.794353 8.794353v632.470589c0 4.818824 3.915294 8.764235 8.794353 8.764235H768c4.848941 0 8.794353-3.915294 8.794353-8.764235l-0.030118-481.008942-160.225882-160.256z" fill="#568af2" /><path d="M609.882353 370.206118a26.352941 26.352941 0 1 1 0 52.705882h-149.323294v228.382118h149.323294c13.432471 0 24.515765 10.059294 26.142118 23.04l0.210823 3.312941a26.352941 26.352941 0 0 1-26.352941 26.352941h-175.676235a26.352941 26.352941 0 0 1-26.352942-26.352941v-281.088c0-14.576941 11.776-26.352941 26.352942-26.352941h175.676235z" fill="#568af2" /><path d="M609.882353 510.735059a26.352941 26.352941 0 0 1 0 52.705882h-175.676235a26.352941 26.352941 0 1 1 0-52.705882h175.676235z" fill="#568af2" /></svg>