<svg class="icon" style="width: 1em;height: 1em;vertical-align: middle;fill: currentColor;overflow: hidden;" viewBox="0 0 1024 1024" version="1.1" xmlns="http://www.w3.org/2000/svg" width="32" height="32"><path d="M614.912 124.235294c7.469176 0 14.576941 3.162353 19.576471 8.734118l158.117647 175.676235c4.367059 4.818824 6.776471 11.143529 6.77647 17.618824v158.117647a26.352941 26.352941 0 0 1-52.705882 0l-0.030118-148.028236-143.48047-159.412706H245.970824a8.794353 8.794353 0 0 0-8.553412 6.776471l-0.240941 2.017882v632.470589c0 4.818824 3.915294 8.764235 8.794353 8.764235h210.823529a26.352941 26.352941 0 0 1 0 52.705882h-210.823529a61.500235 61.500235 0 0 1-61.500236-61.470117v-632.470589c0-33.972706 27.527529-61.500235 61.500236-61.500235h368.941176z" fill="#568af2" /><path d="M650.029176 563.440941c46.08 0 89.509647 22.678588 129.656471 59.693177a368.128 368.128 0 0 1 50.356706 57.404235 26.352941 26.352941 0 0 1 0 29.364706 368.128 368.128 0 0 1-50.326588 57.404235c-40.176941 36.984471-83.606588 59.663059-129.686589 59.663059-46.08 0-89.479529-22.678588-129.65647-59.663059a368.128 368.128 0 0 1-50.326588-57.404235 26.352941 26.352941 0 0 1 0-29.364706 368.128 368.128 0 0 1 50.326588-57.404235c40.176941-37.014588 83.576471-59.693176 129.65647-59.693177z m0 52.705883c-30.328471 0-62.584471 16.865882-93.967058 45.748705-11.474824 10.601412-21.985882 22.016-31.232 33.430589l0.060235-0.150589 7.107765 8.463059c4.909176 5.722353 10.149647 11.324235 15.661176 16.805647l8.432941 8.101647c31.352471 28.882824 63.608471 45.718588 93.967059 45.718589 30.298353 0 62.554353-16.865882 93.936941-45.718589 11.504941-10.601412 21.985882-22.016 31.262118-33.430588l-0.120471 0.090353-7.047529-8.432941a317.620706 317.620706 0 0 0-15.661177-16.77553l-8.432941-8.101647c-31.382588-28.912941-63.638588-45.748706-93.967059-45.748705z" fill="#568af2" /><path d="M650.029176 730.352941a35.147294 35.147294 0 1 0 0-70.26447 35.147294 35.147294 0 0 0 0 70.26447zM597.323294 124.235294c14.576941 0 26.352941 11.806118 26.352941 26.352941v149.323294h149.353412c13.432471 0 24.515765 10.059294 26.142118 23.070118l0.210823 3.312941a26.352941 26.352941 0 0 1-26.352941 26.322824h-175.706353a26.352941 26.352941 0 0 1-26.352941-26.352941V150.588235c0-14.546824 11.806118-26.352941 26.352941-26.352941z" fill="#568af2" /></svg>