<svg class="icon" style="width: 1em;height: 1em;vertical-align: middle;fill: currentColor;overflow: hidden;" viewBox="0 0 1024 1024" version="1.1" xmlns="http://www.w3.org/2000/svg" width="32" height="32"><path d="M773.029647 124.235294c33.942588 0 61.470118 27.527529 61.470118 61.500235v632.470589a61.500235 61.500235 0 0 1-61.470118 61.470117h-527.058823a61.500235 61.500235 0 0 1-61.500236-61.470117v-632.470589c0-33.972706 27.527529-61.500235 61.500236-61.500235h527.058823z m0 52.705882h-527.058823a8.794353 8.794353 0 0 0-8.794353 8.794353v632.470589c0 4.818824 3.915294 8.764235 8.794353 8.764235h527.058823c4.818824 0 8.764235-3.915294 8.764235-8.764235v-632.470589a8.794353 8.794353 0 0 0-8.764235-8.794353z" fill="#568af2" /><path d="M439.205647 563.440941a26.352941 26.352941 0 0 1 0 52.705883H368.941176a26.352941 26.352941 0 1 1 0-52.705883h70.264471zM544.617412 668.852706a26.352941 26.352941 0 0 1 0 52.705882H368.941176a26.352941 26.352941 0 1 1 0-52.705882h175.676236zM765.289412 160.828235a26.352941 26.352941 0 1 1 50.597647 14.667294c-2.379294 8.222118-7.228235 21.865412-14.938353 39.092706a424.237176 424.237176 0 0 1-49.332706 83.727059c-58.88 77.462588-139.053176 124.596706-242.145882 124.596706-103.032471 0-183.235765-47.134118-242.145883-124.596706a424.237176 424.237176 0 0 1-49.302588-83.727059 323.072 323.072 0 0 1-14.938353-39.092706 26.352941 26.352941 0 1 1 50.597647-14.667294c1.776941 6.023529 5.812706 17.377882 12.468706 32.286118 11.143529 24.997647 25.479529 50.055529 43.158588 73.276235 49.633882 65.295059 115.139765 103.815529 200.192 103.81553 85.022118 0 150.558118-38.550588 200.161883-103.81553a372.073412 372.073412 0 0 0 43.158588-73.276235c6.625882-14.908235 10.721882-26.262588 12.468706-32.286118z" fill="#568af2" /><path d="M509.500235 299.911529a96.617412 96.617412 0 1 1 0 193.264942 96.617412 96.617412 0 0 1 0-193.264942z m0 52.705883a43.911529 43.911529 0 1 0 0 87.853176 43.911529 43.911529 0 0 0 0-87.853176zM351.382588 124.235294a26.352941 26.352941 0 0 1 0 52.705882h-105.411764a8.794353 8.794353 0 0 0-8.794353 8.794353v105.411765a26.352941 26.352941 0 0 1-52.705883 0v-105.411765c0-33.972706 27.527529-61.500235 61.500236-61.500235h105.411764zM773.029647 124.235294c33.942588 0 61.470118 27.527529 61.470118 61.500235v105.411765a26.352941 26.352941 0 1 1-52.705883 0v-105.411765a8.794353 8.794353 0 0 0-8.764235-8.794353h-105.411765a26.352941 26.352941 0 1 1 0-52.705882h105.411765z" fill="#568af2" /></svg>