<svg class="icon" style="width: 1em;height: 1em;vertical-align: middle;fill: currentColor;overflow: hidden;" viewBox="0 0 1024 1024" version="1.1" xmlns="http://www.w3.org/2000/svg" width="32" height="32"><path d="M431.676235 214.588235a26.352941 26.352941 0 1 1 0 52.705883H185.735529a8.794353 8.794353 0 0 0-8.794353 8.794353v456.764235c0 4.848941 3.915294 8.794353 8.794353 8.794353h632.470589c4.818824 0 8.764235-3.915294 8.764235-8.794353v-43.91153a26.352941 26.352941 0 0 1 52.705882 0v43.91153a61.500235 61.500235 0 0 1-61.470117 61.500235h-632.470589a61.500235 61.500235 0 0 1-61.500235-61.500235V276.088471c0-33.972706 27.527529-61.500235 61.500235-61.500236h245.940706z" fill="#568af2" /><path d="M396.559059 442.970353a26.352941 26.352941 0 0 1 0 52.705882H256a26.352941 26.352941 0 1 1 0-52.705882h140.559059zM677.647059 583.529412a26.352941 26.352941 0 1 1 0 52.705882h-421.647059a26.352941 26.352941 0 1 1 0-52.705882h421.647059zM677.647059 214.588235a131.764706 131.764706 0 1 1 0 263.529412 131.764706 131.764706 0 0 1 0-263.529412z m0 52.705883a79.058824 79.058824 0 1 0 0 158.117647 79.058824 79.058824 0 0 0 0-158.117647z" fill="#568af2" /><path d="M677.647059 425.411765c80.353882 0 160.406588 51.410824 199.137882 127.09647a26.352941 26.352941 0 1 1-46.923294 24.033883c-29.906824-58.488471-92.099765-98.424471-152.214588-98.424471-56.832 0-86.738824 12.318118-123.723294 45.869177a26.352941 26.352941 0 0 1-35.418353-39.032471c46.381176-42.104471 88.786824-59.542588 159.141647-59.542588z" fill="#568af2" /></svg>