<svg class="icon" style="width: 1em;height: 1em;vertical-align: middle;fill: currentColor;overflow: hidden;" viewBox="0 0 1024 1024" version="1.1" xmlns="http://www.w3.org/2000/svg" width="32" height="32"><path d="M627.440941 124.235294c6.987294 0 13.703529 2.770824 18.672941 7.710118l175.646118 175.706353a26.352941 26.352941 0 0 1 7.740235 18.612706v491.941647a61.500235 61.500235 0 0 1-61.500235 61.470117H276.088471a61.500235 61.500235 0 0 1-61.500236-61.470117v-632.470589c0-33.972706 27.527529-61.500235 61.500236-61.500235h351.35247z m-10.902588 52.705882H276.088471a8.794353 8.794353 0 0 0-8.794353 8.794353v632.470589c0 4.818824 3.915294 8.764235 8.794353 8.764235H768c4.848941 0 8.794353-3.915294 8.794353-8.764235l-0.030118-481.008942-160.225882-160.256z" fill="#568af2" /><path d="M636.988235 426.164706a26.352941 26.352941 0 1 1 51.501177 11.053176l-52.705883 245.940706c-5.210353 24.395294-38.189176 28.551529-49.332705 6.264471l-64.271059-128.572235-64.271059 128.602352c-10.601412 21.202824-41.020235 18.401882-48.399059-2.951529l-0.933647-3.312941-52.705882-245.970824a26.352941 26.352941 0 0 1 51.531294-11.053176l36.954353 172.513882 54.272-108.513882a26.352941 26.352941 0 0 1 45.236706-3.222588l1.897411 3.222588 54.211765 108.483765 36.984471-172.483765z" fill="#568af2" /></svg>