<svg class="icon" style="width: 1em;height: 1em;vertical-align: middle;fill: currentColor;overflow: hidden;" viewBox="0 0 1024 1024" version="1.1" xmlns="http://www.w3.org/2000/svg" width="32" height="32"><path d="M853.323294 537.088a35.147294 35.147294 0 1 0-70.26447 0h70.26447z m-351.35247-316.235294a35.147294 35.147294 0 1 0 0-70.264471v70.264471zM765.500235 783.058824h-527.058823v70.26447h527.058823V783.058824z m-544.647529-17.558589v-527.058823H150.588235v527.058823h70.264471zM783.058824 537.088v228.412235h70.26447v-228.412235H783.058824zM238.441412 220.852706h263.529412V150.588235h-263.529412v70.264471z m0 562.206118a17.558588 17.558588 0 0 1-17.588706-17.558589H150.588235a87.853176 87.853176 0 0 0 87.853177 87.823059V783.058824z m527.058823 70.26447a87.853176 87.853176 0 0 0 87.823059-87.823059H783.058824a17.558588 17.558588 0 0 1-17.558589 17.558589v70.26447zM220.852706 238.441412c0-9.697882 7.860706-17.588706 17.588706-17.588706V150.588235A87.853176 87.853176 0 0 0 150.588235 238.441412h70.264471z" fill="#568af2" /><path d="M355.779765 503.567059a61.500235 61.500235 0 0 1 81.558588-1.355294l222.328471 190.554353a26.352941 26.352941 0 0 1-34.334118 40.026353l-222.268235-190.554353a8.794353 8.794353 0 0 0-11.65553 0.210823l-187.873882 172.182588a26.352941 26.352941 0 1 1-35.629177-38.851764l187.873883-172.182589z" fill="#568af2" /><path d="M637.470118 522.450824a61.500235 61.500235 0 0 1 80.353882-5.722353l116.193882 87.130353a26.352941 26.352941 0 0 1-31.623529 42.164705l-116.163765-87.130353a8.794353 8.794353 0 0 0-11.504941 0.813177L590.908235 643.614118a26.352941 26.352941 0 1 1-37.285647-37.285647l83.877647-83.84753zM765.500235 264.794353a79.058824 79.058824 0 0 1 79.058824 79.058823v35.117177a79.058824 79.058824 0 0 1-79.058824 79.058823h-105.411764a79.058824 79.058824 0 0 1-79.058824-79.058823v-35.117177a79.058824 79.058824 0 0 1 79.058824-79.058823h105.411764z m0 52.705882h-105.411764a26.352941 26.352941 0 0 0-26.352942 26.352941v35.117177c0 14.576941 11.776 26.352941 26.352942 26.352941h105.411764a26.352941 26.352941 0 0 0 26.352941-26.352941v-35.117177a26.352941 26.352941 0 0 0-26.352941-26.352941z" fill="#568af2" /><path d="M765.500235 291.147294v35.117177c19.395765 0 35.117176-15.721412 35.117177-35.117177h-35.117177z m-105.411764 0H624.941176c0 19.395765 15.721412 35.117176 35.147295 35.117177V291.147294z m70.26447-52.705882v52.705882h70.264471v-52.705882H730.352941z m35.147294 17.558588h-105.411764v70.264471h105.411764V256z m-70.294588 35.147294v-52.705882H624.941176v52.705882h70.264471z m0-52.705882c0-9.697882 7.860706-17.588706 17.588706-17.588706V150.588235a87.853176 87.853176 0 0 0-87.853177 87.853177h70.264471z m105.411765 0A87.853176 87.853176 0 0 0 712.794353 150.588235v70.264471c9.697882 0 17.558588 7.890824 17.558588 17.588706h70.264471z" fill="#568af2" /></svg>