<svg class="icon" style="width: 1em;height: 1em;vertical-align: middle;fill: currentColor;overflow: hidden;" viewBox="0 0 1024 1024" version="1.1" xmlns="http://www.w3.org/2000/svg" width="32" height="32"><path d="M744.146824 717.793882c14.576941 0 26.352941 11.806118 26.352941 26.352942v105.411764a26.352941 26.352941 0 0 1-26.352941 26.352941H252.235294a26.352941 26.352941 0 0 1-26.352941-26.352941v-105.411764a26.352941 26.352941 0 0 1 52.705882 0v79.058823h439.205647v-79.058823c0-13.432471 10.059294-24.515765 23.070118-26.142118l3.312941-0.210824zM603.617882 120.470588c7.981176 0 15.570824 3.614118 20.570353 9.878588l140.559059 175.706353a26.352941 26.352941 0 0 1 5.752471 16.444236v105.411764a26.352941 26.352941 0 1 1-52.705883 0v-96.195764L590.938353 173.176471H278.588235v254.735058a26.352941 26.352941 0 0 1-23.04 26.172236l-3.312941 0.180706a26.352941 26.352941 0 0 1-26.352941-26.352942V146.823529c0-14.546824 11.806118-26.352941 26.352941-26.352941h351.382588z" fill="#568af2" /><path d="M568.470588 120.470588c14.546824 0 26.352941 11.806118 26.352941 26.352941v149.323295h149.323295c13.432471 0 24.545882 10.059294 26.172235 23.070117l0.180706 3.312941a26.352941 26.352941 0 0 1-26.352941 26.322824h-175.676236a26.352941 26.352941 0 0 1-26.352941-26.352941V146.823529c0-14.546824 11.806118-26.352941 26.352941-26.352941zM814.441412 401.558588c33.942588 0 61.470118 27.527529 61.470117 61.500236v245.970823a61.500235 61.500235 0 0 1-61.470117 61.470118h-632.470588A61.500235 61.500235 0 0 1 120.470588 709.029647v-245.970823c0-33.972706 27.527529-61.500235 61.500236-61.500236h632.470588z m0 52.705883h-632.470588a8.794353 8.794353 0 0 0-8.794353 8.794353v245.970823c0 4.818824 3.915294 8.764235 8.794353 8.764235h632.470588c4.818824 0 8.764235-3.915294 8.764235-8.764235v-245.970823a8.794353 8.794353 0 0 0-8.764235-8.794353z" fill="#568af2" /><path d="M445.500235 489.411765c14.546824 0 26.352941 11.806118 26.352941 26.352941v140.559059a26.352941 26.352941 0 0 1-52.705882 0v-140.559059c0-14.546824 11.776-26.352941 26.352941-26.352941zM252.235294 489.411765c14.546824 0 26.352941 11.806118 26.352941 26.352941v140.559059a26.352941 26.352941 0 0 1-52.705882 0v-140.559059c0-14.546824 11.806118-26.352941 26.352941-26.352941zM726.588235 489.411765a26.352941 26.352941 0 1 1 0 52.705882h-61.500235v114.206118a26.352941 26.352941 0 0 1-23.04 26.142117l-3.312941 0.210824a26.352941 26.352941 0 0 1-26.352941-26.352941v-140.559059c0-14.546824 11.806118-26.352941 26.352941-26.352941h87.853176z" fill="#568af2" /><path d="M726.588235 577.264941a26.352941 26.352941 0 1 1 0 52.705883h-87.853176a26.352941 26.352941 0 0 1 0-52.705883h87.853176zM313.735529 489.411765a70.264471 70.264471 0 0 1 0 140.559059H252.235294a26.352941 26.352941 0 0 1 0-52.705883h61.500235a17.558588 17.558588 0 0 0 0-35.147294H252.235294a26.352941 26.352941 0 1 1 0-52.705882h61.500235zM480.617412 489.411765a96.617412 96.617412 0 0 1 0 193.264941h-35.117177a26.352941 26.352941 0 0 1 0-52.705882h35.117177a43.911529 43.911529 0 0 0 0-87.853177h-35.117177a26.352941 26.352941 0 1 1 0-52.705882h35.117177zM427.911529 261.029647a26.352941 26.352941 0 1 1 0 52.705882h-70.26447a26.352941 26.352941 0 0 1 0-52.705882h70.26447z" fill="#568af2" /></svg>