<svg class="icon" style="width: 1em;height: 1em;vertical-align: middle;fill: currentColor;overflow: hidden;" viewBox="0 0 1024 1024" version="1.1" xmlns="http://www.w3.org/2000/svg" width="32" height="32"><path d="M529.106824 237.327059c70.475294-70.475294 210.703059-74.992941 298.164705 12.40847 87.401412 87.461647 82.883765 227.689412 12.408471 298.164706l-16.112941 16.112941-12.920471 12.920471-5.782588 5.782588-11.324235 11.324236-27.407059 27.407058-25.298824 25.268706-19.817411 19.84753-13.552942 13.552941-12.288 12.257882-37.857882 37.888-7.137882 7.137883-12.047059 12.047058-11.956706 11.956706-13.342118 13.342118-7.198117 7.168-3.764706 3.794823-4.005647 4.005648-6.625883 6.625882a26.352941 26.352941 0 1 1-37.285647-37.25553l98.304-98.304 31.503059-31.503058 35.990588-35.990589 24.154353-24.18447 58.488471-58.458353c50.447059-50.447059 53.910588-157.334588-12.408471-223.62353-66.288941-66.288941-173.176471-62.855529-223.623529-12.438588l-141.944471 141.974588-43.008 42.977883-10.932706 10.962823-28.611764 28.611765-50.145883 50.145882-11.685647 11.685647-27.949176 27.949177-8.282353 8.282353-4.969412 4.969412-2.439529 2.439529-2.43953 2.409412-3.011764 3.011765c-31.382588 31.382588-37.526588 99.117176 12.438588 149.082352 49.965176 49.965176 117.699765 43.791059 149.082353 12.438589l26.503529-26.50353 4.99953-4.999529 8.794353-8.824471 17.167058-17.167059 117.398589-117.398588 11.264-11.264 9.547294-9.547294 19.034353-19.034353 21.11247-21.11247 8.432941-8.432942 77.101177-77.071058 1.626353-1.656471c19.516235-19.486118 22.497882-64.451765 0-86.949647-22.497882-22.497882-67.463529-19.516235-86.949647 0l-2.319059 2.288941-3.975529 3.97553-1.746824 1.776941-8.734118 8.704-2.078117 2.078117-7.890824 7.890824-16.323764 16.353882-15.36 15.36-7.890824 7.890824-6.836706 6.836706-6.505412 6.505411-14.938353 14.908236-9.84847 9.84847-12.378353 12.408471-6.896941 6.866823-12.649412 12.67953-11.384471 11.38447-5.210353 5.210353-9.547294 9.547294-8.493176 8.493177-10.962824 10.962823-3.252706 3.222589-5.903058 5.903059-16.233412 16.263529-3.794824 3.764706-12.528941 12.559059-3.794823 3.794823-8.553412 8.553412a26.352941 26.352941 0 0 1-37.285647-37.285647l8.553412-8.553412 9.185882-9.185882 7.168-7.137883 3.794823-3.794823 8.553412-8.553412 4.969412-4.969412 5.571765-5.571764 17.227294-17.257412 8.493176-8.463059 14.757647-14.757647 30.930824-30.960941 12.40847-12.378353 9.848471-9.848471 8.011294-8.041411 6.927059-6.896942 21.202823-21.232941a140403006.223059 140403006.223059 0 0 1 31.713883-31.683765l5.571765-5.571764 2.319058-2.319059 10.782118-10.812235 8.041412-8.041412c39.062588-39.062588 117.217882-44.272941 161.490823 0 44.272941 44.272941 39.062588 122.458353 0 161.520941l-26.503529 26.503529-4.99953 4.99953-186.608941 186.608941-6.77647 6.776471-10.932706 10.932706-8.432941 8.432941-42.88753 42.887529-6.716235 6.716235-22.347294 22.347295-2.43953 2.439529-2.710588 2.710588-1.626353 1.626353c-50.597647 50.597647-151.401412 59.783529-223.623529-12.40847-72.192-72.222118-63.036235-173.025882-12.408471-223.62353l1.596236-1.626353 6.26447-6.234353 3.041882-3.041882 19.33553-19.33553 2.379294-2.409411 4.306824-4.276706 2.108235-2.108235 33.942588-33.942589 45.176471-45.206588 7.80047-7.770353 4.216471-4.21647 20.299294-20.299295 20.359529-20.359529 29.394824-29.424941 12.528941-12.528941 34.725647-34.69553 7.860706-7.860706 10.571294-10.601411 6.445177-6.415059 9.035294-9.035294 5.872941-5.872942 11.776-11.776 6.234353-6.234352 13.733647-13.763765 16.414118-16.384z" fill="#568af2" /></svg>