<svg class="icon" style="width: 1em;height: 1em;vertical-align: middle;fill: currentColor;overflow: hidden;" viewBox="0 0 1024 1024" version="1.1" xmlns="http://www.w3.org/2000/svg" width="32" height="32"><path d="M835.222588 488.658824a26.352941 26.352941 0 0 1 40.688941 22.076235v295.484235c0 35.237647-26.985412 64.692706-61.470117 64.692706h-632.470588C147.456 870.912 120.470588 841.456941 120.470588 806.219294v-295.454118a26.352941 26.352941 0 0 1 40.719059-22.106352l337.016471 219.015529 337.01647-219.015529zM173.176471 559.254588v246.964706c0 7.107765 4.457412 11.986824 8.794353 11.986824h632.470588c4.306824 0 8.764235-4.879059 8.764235-11.986824V559.284706L512.602353 761.223529a26.352941 26.352941 0 0 1-25.359059 1.867295l-3.373176-1.867295L173.176471 559.284706z" fill="#568af2" /><path d="M307.561412 364.182588a26.352941 26.352941 0 0 1 29.906823 43.369412l-175.676235 121.072941a26.352941 26.352941 0 1 1-29.906824-43.369412l175.676236-121.072941z m344.636235 6.746353a26.352941 26.352941 0 0 1 36.653177-6.746353l175.676235 121.072941a26.352941 26.352941 0 0 1-29.906824 43.369412l-175.676235-121.072941a26.352941 26.352941 0 0 1-6.746353-36.623059z" fill="#568af2" /><path d="M673.882353 150.588235c14.546824 0 26.352941 11.806118 26.352941 26.352941v428.93553c0 20.781176-10.541176 40.207059-27.979294 51.561412l-140.559059 91.346823c-20.359529 13.251765-46.622118 13.251765-67.011765 0l-140.559058-91.346823a61.500235 61.500235 0 0 1-27.979294-51.561412V176.941176c0-14.546824 11.806118-26.352941 26.352941-26.352941h351.382588zM647.529412 203.294118h-298.646588v402.582588c0 2.228706 0.843294 4.336941 2.319058 5.933176l1.686589 1.41553 140.559058 91.376941a8.794353 8.794353 0 0 0 9.577412 0l140.528941-91.376941a8.794353 8.794353 0 0 0 4.005647-7.348706V203.294118z" fill="#568af2" /><path d="M498.206118 291.147294a26.352941 26.352941 0 1 1 0 52.705882h-70.294589a26.352941 26.352941 0 0 1 0-52.705882h70.294589zM568.470588 396.559059a26.352941 26.352941 0 0 1 0 52.705882h-140.559059a26.352941 26.352941 0 0 1 0-52.705882h140.559059z" fill="#568af2" /></svg>