<svg class="icon" style="width: 1em;height: 1em;vertical-align: middle;fill: currentColor;overflow: hidden;" viewBox="0 0 1024 1024" version="1.1" xmlns="http://www.w3.org/2000/svg" width="32" height="32"><path d="M426.676706 184.470588c7.830588 0 15.239529 3.463529 20.239059 9.487059l79.932235 95.924706H813.176471c32.406588 0 58.970353 25.088 61.319529 56.922353l0.180706 4.577882v158.117647a26.352941 26.352941 0 0 1-52.705882 0v-158.117647a8.794353 8.794353 0 0 0-8.794353-8.794353h-298.676706a26.352941 26.352941 0 0 1-20.239059-9.487059l-79.932235-95.924705h-198.475295a8.794353 8.794353 0 0 0-8.553411 6.77647l-0.240941 2.017883v562.176c0 4.848941 3.915294 8.794353 8.794352 8.794352h263.529412a26.352941 26.352941 0 0 1 0 52.705883h-263.529412a61.500235 61.500235 0 0 1-61.500235-61.500235V245.970824c0-33.972706 27.527529-61.500235 61.500235-61.500236h210.82353z" fill="#568af2" /><path d="M848.323765 676.382118c14.546824 0 26.352941 11.806118 26.352941 26.352941V843.294118a26.352941 26.352941 0 0 1-26.352941 26.352941H602.352941a26.352941 26.352941 0 0 1-26.352941-26.352941v-140.559059c0-14.546824 11.806118-26.352941 26.352941-26.352941h245.970824z m-26.383059 52.705882h-193.234824v87.823059h193.234824v-87.823059z" fill="#568af2" /><path d="M725.323294 570.970353a79.058824 79.058824 0 0 1 79.058824 79.058823v52.705883a26.352941 26.352941 0 1 1-52.705883 0v-52.705883a26.352941 26.352941 0 1 0-52.705882 0v52.705883a26.352941 26.352941 0 1 1-52.705882 0v-52.705883a79.058824 79.058824 0 0 1 79.058823-79.058823z" fill="#568af2" /></svg>