<svg class="icon" style="width: 1em;height: 1em;vertical-align: middle;fill: currentColor;overflow: hidden;" viewBox="0 0 1024 1024" version="1.1" xmlns="http://www.w3.org/2000/svg" width="32" height="32"><path d="M768 124.235294c33.972706 0 61.500235 27.527529 61.500235 61.500235v368.941177a26.352941 26.352941 0 0 1-52.705882 0V185.735529a8.794353 8.794353 0 0 0-8.794353-8.794353H276.088471a8.794353 8.794353 0 0 0-8.794353 8.794353v632.470589c0 4.818824 3.915294 8.764235 8.794353 8.764235h193.234823a26.352941 26.352941 0 0 1 0 52.705882H276.088471a61.500235 61.500235 0 0 1-61.500236-61.470117v-632.470589c0-33.972706 27.527529-61.500235 61.500236-61.500235H768z" fill="#568af2" /><path d="M645.029647 264.794353a26.352941 26.352941 0 0 1 0 52.705882H399.058824a26.352941 26.352941 0 0 1 0-52.705882h245.970823zM645.029647 405.323294a26.352941 26.352941 0 0 1 0 52.705882H399.058824a26.352941 26.352941 0 1 1 0-52.705882h245.970823zM504.470588 545.882353a26.352941 26.352941 0 1 1 0 52.705882h-105.411764a26.352941 26.352941 0 1 1 0-52.705882h105.411764z" fill="#568af2" /><path d="M662.588235 616.146824a114.206118 114.206118 0 0 1 97.701647 173.357176l-0.542117 0.752941 44.453647 44.453647c9.426824 9.426824 10.24 24.214588 2.349176 34.544941l-2.349176 2.710589a26.352941 26.352941 0 0 1-37.25553 0l-44.453647-44.453647-0.752941 0.542117a113.754353 113.754353 0 0 1-52.103529 16.26353l-7.04753 0.240941a114.206118 114.206118 0 0 1 0-228.412235z m0 52.705882a61.500235 61.500235 0 1 0 0 123.00047 61.500235 61.500235 0 0 0 0-123.00047z" fill="#568af2" /></svg>