<svg class="icon" style="width: 1em;height: 1em;vertical-align: middle;fill: currentColor;overflow: hidden;" viewBox="0 0 1024 1024" version="1.1" xmlns="http://www.w3.org/2000/svg" width="32" height="32"><path d="M765.500235 154.352941c12.468706 0 23.250824 8.734118 25.780706 20.992l87.853177 421.647059a26.352941 26.352941 0 0 1-51.59153 10.721882L744.056471 207.058824H259.855059L176.399059 607.713882a26.352941 26.352941 0 0 1-27.919059 20.901647l-3.252706-0.451764a26.352941 26.352941 0 0 1-20.449882-31.171765l87.853176-421.647059a26.352941 26.352941 0 0 1 25.810824-20.992h527.058823z" fill="#568af2" /><path d="M342.256941 576c11.595294 0 21.835294 7.589647 25.208471 18.703059l26.262588 86.708706h216.425412l26.292706-86.708706c3.011765-9.999059 11.625412-17.167059 21.805176-18.492235l3.433412-0.210824h191.638588c14.576941 0 26.352941 11.806118 26.352941 26.352941v228.382118a26.352941 26.352941 0 0 1-26.352941 26.352941H150.588235a26.352941 26.352941 0 0 1-26.352941-26.352941V602.352941c0-14.546824 11.806118-26.352941 26.352941-26.352941h191.668706z m484.713412 52.705882h-145.769412l-26.262588 86.708706a26.352941 26.352941 0 0 1-21.775059 18.492236l-3.433412 0.210823h-255.548235a26.352941 26.352941 0 0 1-25.208471-18.703059l-26.292705-86.708706H176.941176v175.676236h650.029177v-175.676236zM589.793882 294.912a26.352941 26.352941 0 1 1 0 52.705882H414.117647a26.352941 26.352941 0 0 1 0-52.705882h175.676235zM642.499765 435.440941a26.352941 26.352941 0 0 1 0 52.705883H361.411765a26.352941 26.352941 0 1 1 0-52.705883h281.088z" fill="#568af2" /></svg>