<svg class="icon" style="width: 1em;height: 1em;vertical-align: middle;fill: currentColor;overflow: hidden;" viewBox="0 0 1024 1024" version="1.1" xmlns="http://www.w3.org/2000/svg" width="32" height="32"><path d="M210.823529 658.823529c14.546824 0 26.352941 11.806118 26.352942 26.352942v105.411764c0 14.546824 11.806118 26.352941 26.352941 26.352941h105.411764a26.352941 26.352941 0 1 1 0 52.705883h-105.411764a79.058824 79.058824 0 0 1-79.058824-79.058824v-105.411764c0-14.546824 11.806118-26.352941 26.352941-26.352942zM843.294118 658.823529c14.546824 0 26.352941 11.806118 26.352941 26.352942v105.411764a79.058824 79.058824 0 0 1-79.058824 79.058824h-105.411764a26.352941 26.352941 0 1 1 0-52.705883h105.411764a26.352941 26.352941 0 0 0 26.352941-26.352941v-105.411764c0-14.546824 11.806118-26.352941 26.352942-26.352942zM790.588235 184.470588a79.058824 79.058824 0 0 1 79.058824 79.058824v105.411764a26.352941 26.352941 0 1 1-52.705883 0v-105.411764a26.352941 26.352941 0 0 0-26.352941-26.352941h-105.411764a26.352941 26.352941 0 1 1 0-52.705883h105.411764zM368.941176 184.470588a26.352941 26.352941 0 1 1 0 52.705883h-105.411764a26.352941 26.352941 0 0 0-26.352941 26.352941v105.411764a26.352941 26.352941 0 1 1-52.705883 0v-105.411764A79.058824 79.058824 0 0 1 263.529412 184.470588h105.411764zM632.470588 433.694118l-20.510117 9.878588c-3.915294 2.620235-7.589647 5.360941-12.227765 9.035294 2.108235-1.626353-9.366588 7.619765-12.408471 9.938824-18.371765 14.034824-35.388235 20.600471-60.265411 20.60047-24.877176 0-41.863529-6.565647-60.235295-20.60047l-4.427294-3.46353-3.734588-2.981647-4.276706-3.463529a261.842824 261.842824 0 0 0-12.227765-9.035294c-18.974118-12.709647-54.573176-8.734118-69.692235 11.444705-15.631059 20.781176-14.155294 41.712941-2.469647 53.368471l1.807059 1.807059 6.565647 6.565647 3.644235 3.644235 2.078118 2.078118 4.638118 4.638117 5.391058 5.391059 9.577412 9.577412 41.261177 41.261177 18.341647 18.341647 5.812706 5.812705 10.541176 10.541177 13.281882 13.281882 7.378824 7.378824 18.733176 18.733176 7.469177 7.469177 0.512 0.512 157.093647-157.033412c10.902588-10.902588 12.920471-29.816471 0.451765-49.212235l-2.891294-4.186353c-10.089412-13.432471-26.503529-20.540235-49.212236-21.323294z m-133.12-12.619294l2.921412 2.138352c7.830588 5.421176 13.884235 7.228235 24.786824 7.228236 12.468706 0 18.552471-2.349176 28.28047-9.788236l-0.512 0.361412 0.481882-0.301176c1.987765-1.415529 11.143529-8.432941 27.407059-20.992a100.653176 100.653176 0 0 1 49.935059-15.962353c33.852235-1.927529 69.812706 11.143529 91.196235 39.634823 31.322353 41.833412 27.738353 92.069647-2.469647 122.277647l-175.676235 175.706353a26.352941 26.352941 0 0 1-37.285647 0l-4.035765-4.035764-15.119059-15.149177-9.637647-9.607529-4.72847-4.728471-5.481412-5.481412-6.354823-6.384941-7.378824-7.348706-8.553412-8.553411-15.269647-15.269647a122490844.310588 122490844.310588 0 0 0-77.793882-77.793883l-5.029647-5.029647-4.276706-4.276706-8.011294-8.011294-2.228706-2.228706-1.776941-1.807059c-30.208-30.177882-33.822118-80.444235-2.43953-122.277647 20.630588-27.497412 55.597176-39.604706 91.346824-39.695058 21.022118-0.060235 41.863529-2.349176 61.500235 15.962352 9.788235 13.402353 15.179294 20.510118 16.173177 21.38353v0.030118z" fill="#568af2" /></svg>