<svg class="icon" style="width: 1em;height: 1em;vertical-align: middle;fill: currentColor;overflow: hidden;" viewBox="0 0 1024 1024" version="1.1" xmlns="http://www.w3.org/2000/svg" width="32" height="32"><path d="M343.853176 184.470588c7.951059 0 15.510588 3.614118 20.510118 9.818353l137.577412 170.797177 137.637647-170.767059a26.352941 26.352941 0 0 1 17.106823-9.637647l3.403295-0.210824h193.234823a26.352941 26.352941 0 0 1 20.540235 42.88753l-241.483294 299.670588 241.483294 299.730823a26.352941 26.352941 0 0 1-17.287529 42.706824l-3.252706 0.180706h-193.234823a26.352941 26.352941 0 0 1-20.540236-9.818353l-137.607529-170.827294-137.577412 170.827294a26.352941 26.352941 0 0 1-17.136941 9.607529l-3.373177 0.210824H150.588235a26.352941 26.352941 0 0 1-20.510117-42.88753l241.392941-299.700705L130.108235 227.358118a26.352941 26.352941 0 0 1 17.257412-42.706824L150.588235 184.470588z" fill="#568af2" /></svg>