<svg class="icon" style="width: 1em;height: 1em;vertical-align: middle;fill: currentColor;overflow: hidden;" viewBox="0 0 1024 1024" version="1.1" xmlns="http://www.w3.org/2000/svg" width="32" height="32"><path d="M790.588235 154.352941a79.058824 79.058824 0 0 1 79.058824 79.058824v527.058823a79.058824 79.058824 0 0 1-79.058824 79.058824H263.529412a79.058824 79.058824 0 0 1-79.058824-79.058824V233.411765A79.058824 79.058824 0 0 1 263.529412 154.352941z m-263.529411 175.676235a26.352941 26.352941 0 0 0-26.352942 26.352942v114.206117h-114.206117l-3.312941 0.210824a26.352941 26.352941 0 0 0 3.312941 52.495059h114.206117v114.206117l0.210824 3.312941a26.352941 26.352941 0 0 0 52.495059-3.312941v-114.206117h114.206117l3.312942-0.210824a26.352941 26.352941 0 0 0-3.312942-52.495059h-114.206117v-114.206117l-0.210824-3.312942a26.352941 26.352941 0 0 0-26.142117-23.04z" fill="#568af2" /></svg>