<svg class="icon" style="width: 1em;height: 1em;vertical-align: middle;fill: currentColor;overflow: hidden;" viewBox="0 0 1024 1024" version="1.1" xmlns="http://www.w3.org/2000/svg" width="32" height="32"><path d="M502.121412 214.588235c172.544 0 307.290353 134.806588 307.290353 307.440941 0 91.919059-40.478118 175.104-119.928471 249.042824l-6.354823 5.752471h170.194823c13.432471 0 24.545882 10.059294 26.172235 23.070117l0.180706 3.312941a26.352941 26.352941 0 0 1-23.04 26.142118l-3.312941 0.210824h-245.820235c-25.780706 0-36.231529-33.159529-15.149177-47.947295 110.531765-77.462588 164.352-163.629176 164.352-259.584 0-143.540706-111.134118-254.735059-254.58447-254.735058-146.462118 0-254.915765 106.194824-254.915765 254.735058 0 101.135059 53.669647 186.970353 163.84 259.132236 20.961882 13.703529 12.589176 45.477647-11.113412 48.188235l-3.312941 0.210824H150.588235a26.352941 26.352941 0 0 1-3.312941-52.525177l3.312941-0.180706 167.574589-0.030117-1.505883-1.295059c-78.125176-69.330824-119.265882-150.768941-121.97647-243.501177l-0.180706-9.999059c0-177.904941 132.306824-307.440941 307.621647-307.440941z" fill="#568af2" /></svg>