<svg class="icon" style="width: 1em;height: 1em;vertical-align: middle;fill: currentColor;overflow: hidden;" viewBox="0 0 1024 1024" version="1.1" xmlns="http://www.w3.org/2000/svg" width="32" height="32"><path d="M501.970824 124.235294c208.594824 0 377.705412 169.110588 377.705411 377.73553a26.352941 26.352941 0 0 1-52.705882 0c0-179.501176-145.498353-325.029647-324.999529-325.029648S176.941176 322.469647 176.941176 501.970824s145.528471 324.999529 325.029648 324.999529c78.968471 0 153.539765-28.220235 212.118588-78.757647a26.352941 26.352941 0 0 1 34.42447 39.936 376.289882 376.289882 0 0 1-246.543058 91.557647c-208.624941 0-377.735529-169.140706-377.73553-377.735529 0-208.624941 169.110588-377.735529 377.73553-377.73553z" fill="#568af2" /><path d="M501.970824 335.058824a166.912 166.912 0 1 0 0 333.793882 166.912 166.912 0 0 0 0-333.793882z m0 52.705882a114.206118 114.206118 0 1 1 0 228.382118 114.206118 114.206118 0 0 1 0-228.382118z" fill="#568af2" /><path d="M853.323294 475.617882c14.576941 0 26.352941 11.776 26.352941 26.352942a131.764706 131.764706 0 0 1-263.529411 0 26.352941 26.352941 0 0 1 52.705882 0 79.058824 79.058824 0 0 0 158.117647 0c0-14.576941 11.806118-26.352941 26.352941-26.352942z" fill="#568af2" /><path d="M642.499765 335.058824c13.432471 0 24.545882 10.059294 26.172235 23.04l0.180706 3.312941v158.117647a26.352941 26.352941 0 0 1-52.495059 3.312941l-0.210823-3.312941V361.411765c0-14.546824 11.806118-26.352941 26.352941-26.352941z" fill="#568af2" /></svg>