<svg class="icon" style="width: 1em;height: 1em;vertical-align: middle;fill: currentColor;overflow: hidden;" viewBox="0 0 1024 1024" version="1.1" xmlns="http://www.w3.org/2000/svg" width="32" height="32"><path d="M396.559059 124.235294l-3.312941 0.210824a26.352941 26.352941 0 0 0-23.04 26.142117l-0.030118 219.587765H150.588235a26.352941 26.352941 0 0 0-26.352941 26.383059v210.823529l0.210824 3.312941a26.352941 26.352941 0 0 0 26.142117 23.04l219.587765-0.030117v219.617882c0 14.576941 11.806118 26.352941 26.383059 26.352941h210.823529l3.312941-0.180706a26.352941 26.352941 0 0 0 23.04-26.172235l-0.030117-219.617882h219.617882a26.352941 26.352941 0 0 0 26.352941-26.322824v-210.823529l-0.180706-3.312941a26.352941 26.352941 0 0 0-26.172235-23.04l-219.617882-0.030118V150.588235a26.352941 26.352941 0 0 0-26.322824-26.352941h-210.823529z" fill="#568af2" /></svg>