<svg class="icon" style="width: 1em;height: 1em;vertical-align: middle;fill: currentColor;overflow: hidden;" viewBox="0 0 1024 1024" version="1.1" xmlns="http://www.w3.org/2000/svg" width="32" height="32"><path d="M501.970824 124.235294c208.594824 0 377.705412 169.110588 377.705411 377.73553 0 208.594824-169.110588 377.705412-377.705411 377.705411-208.624941 0-377.735529-169.110588-377.73553-377.705411 0-208.624941 169.110588-377.735529 377.73553-377.73553z m0 210.82353a26.352941 26.352941 0 0 0-26.352942 26.352941l-0.030117 114.176H361.411765l-3.312941 0.210823a26.352941 26.352941 0 0 0 3.312941 52.525177l114.176-0.030118v114.206118l0.210823 3.312941a26.352941 26.352941 0 0 0 52.525177-3.312941l-0.030118-114.206118h114.206118l3.312941-0.180706a26.352941 26.352941 0 0 0-3.312941-52.495059l-114.206118-0.030117V361.411765l-0.180706-3.312941a26.352941 26.352941 0 0 0-26.142117-23.04z" fill="#568af2" /></svg>