<svg class="icon" style="width: 1em;height: 1em;vertical-align: middle;fill: currentColor;overflow: hidden;" viewBox="0 0 1024 1024" version="1.1" xmlns="http://www.w3.org/2000/svg" width="32" height="32"><path d="M478.388706 138.812235a26.352941 26.352941 0 0 1 45.236706-3.222588l1.897412 3.222588 351.382588 702.735059a26.352941 26.352941 0 0 1-45.477647 26.443294l-1.656471-2.861176L501.940706 209.498353 174.170353 865.129412a26.352941 26.352941 0 0 1-32.316235 13.071059l-3.041883-1.295059a26.352941 26.352941 0 0 1-13.101176-32.316236l1.295059-3.041882L478.388706 138.812235z" fill="#568af2" /><path d="M712.794353 545.882353a26.352941 26.352941 0 0 1 3.312941 52.495059l-3.312941 0.210823h-421.647059a26.352941 26.352941 0 0 1-3.312941-52.495059l3.312941-0.210823h421.647059z" fill="#568af2" /></svg>