<svg class="icon" style="width: 1em;height: 1em;vertical-align: middle;fill: currentColor;overflow: hidden;" viewBox="0 0 1024 1024" version="1.1" xmlns="http://www.w3.org/2000/svg" width="32" height="32"><path d="M499.350588 129.295059a26.352941 26.352941 0 0 1 31.051294 0l85.323294 62.223059 105.622589-0.180706c10.330353 0 19.576471 5.963294 23.883294 15.088941l1.264941 3.162353 32.436706 100.502588 85.564235 61.952a26.352941 26.352941 0 0 1 10.541177 25.871059l-0.933647 3.644235-32.858353 100.382118L874.104471 602.352941a26.352941 26.352941 0 0 1-6.716236 27.105883l-2.891294 2.409411-85.564235 61.921883-32.436706 100.532706a26.352941 26.352941 0 0 1-21.744941 18.070588l-3.403294 0.180706-105.622589-0.210824-85.323294 62.253177a26.352941 26.352941 0 0 1-27.858823 2.017882l-3.192471-2.017882-85.353412-62.253177-105.59247 0.210824a26.352941 26.352941 0 0 1-23.883294-15.088942l-1.264941-3.162352-32.436706-100.502589-85.564236-61.921882a26.352941 26.352941 0 0 1-10.511058-25.901177l0.903529-3.644235 32.828235-100.412235-32.828235-100.382118a26.352941 26.352941 0 0 1 6.716235-27.105882l2.891294-2.409412 85.564236-61.982118 32.436706-100.47247a26.352941 26.352941 0 0 1 21.744941-18.040471l3.403294-0.210823 105.59247 0.180706z m174.712471 266.179765a26.352941 26.352941 0 0 0-37.25553 0l-157.063529 157.033411-69.210353-69.180235-2.710588-2.349176a26.352941 26.352941 0 0 0-34.544941 39.604705l87.823058 87.853177 2.710589 2.349176a26.352941 26.352941 0 0 0 34.575059-2.349176l175.676235-175.676235 2.349176-2.710589a26.352941 26.352941 0 0 0-2.349176-34.575058z" fill="#568af2" /></svg>