<svg class="icon" style="width: 1em;height: 1em;vertical-align: middle;fill: currentColor;overflow: hidden;" viewBox="0 0 1024 1024" version="1.1" xmlns="http://www.w3.org/2000/svg" width="32" height="32"><path d="M501.970824 124.235294c101.496471 0 196.728471 40.267294 267.083294 110.622118a376.560941 376.560941 0 0 1 110.622117 267.113412c0 101.496471-40.267294 196.728471-110.622117 267.083294a376.560941 376.560941 0 0 1-267.083294 110.622117c-101.526588 0-196.728471-40.267294-267.113412-110.622117a376.560941 376.560941 0 0 1-110.622118-267.083294c0-101.526588 40.267294-196.728471 110.622118-267.113412a376.560941 376.560941 0 0 1 267.113412-110.622118z m0 529.257412a43.911529 43.911529 0 1 0 0 87.823059 43.911529 43.911529 0 0 0 0-87.823059z m0-377.73553a131.764706 131.764706 0 0 0-131.764706 131.764706 26.352941 26.352941 0 1 0 52.705882 0 79.058824 79.058824 0 1 1 79.058824 79.058824l-3.312942 0.210823a26.352941 26.352941 0 0 0-23.04 26.142118v70.264471l0.180706 3.312941a26.352941 26.352941 0 0 0 26.172236 23.04l3.312941-0.180706a26.352941 26.352941 0 0 0 23.04-26.172235l-0.030118-46.561883 4.728471-1.024a131.824941 131.824941 0 0 0-31.051294-259.855059z" fill="#568af2" /></svg>