<svg class="icon" style="width: 1em;height: 1em;vertical-align: middle;fill: currentColor;overflow: hidden;" viewBox="0 0 1024 1024" version="1.1" xmlns="http://www.w3.org/2000/svg" width="32" height="32"><path d="M501.970824 124.235294C293.345882 124.235294 124.235294 293.345882 124.235294 501.970824c0 208.594824 169.110588 377.705412 377.73553 377.705411 208.594824 0 377.705412-169.110588 377.705411-377.705411 0-208.624941-169.110588-377.735529-377.705411-377.73553z m0 52.705882c179.501176 0 324.999529 145.528471 324.999529 325.029648s-145.498353 324.999529-324.999529 324.999529S176.941176 681.472 176.941176 501.970824 322.469647 176.941176 501.970824 176.941176z" fill="#568af2" /><path d="M582.716235 383.939765a26.352941 26.352941 0 0 1 39.604706 34.575059l-2.349176 2.710588-198.776471 198.77647a26.352941 26.352941 0 0 1-39.604706-34.605176l2.349177-2.710588 198.77647-198.746353z" fill="#568af2" /><path d="M383.939765 383.939765a26.352941 26.352941 0 0 1 34.575059-2.349177l2.710588 2.349177 198.77647 198.77647a26.352941 26.352941 0 0 1-34.605176 39.634824l-2.710588-2.379294-198.746353-198.776471a26.352941 26.352941 0 0 1 0-37.255529z" fill="#568af2" /></svg>