<svg class="icon" style="width: 1em;height: 1em;vertical-align: middle;fill: currentColor;overflow: hidden;" viewBox="0 0 1024 1024" version="1.1" xmlns="http://www.w3.org/2000/svg" width="32" height="32"><path d="M501.970824 124.235294c208.594824 0 377.705412 169.110588 377.705411 377.73553 0 208.594824-169.110588 377.705412-377.705411 377.705411-208.624941 0-377.735529-169.110588-377.73553-377.705411 0-208.624941 169.110588-377.735529 377.73553-377.73553z m209.167058 549.978353a26.352941 26.352941 0 0 0-34.544941 39.634824l52.705883 52.705882 2.710588 2.349176a26.352941 26.352941 0 0 0 34.544941-39.604705l-52.705882-52.705883z m-156.461176-321.596235a26.352941 26.352941 0 0 0-26.352941 26.352941v245.970823l0.180706 3.312942a26.352941 26.352941 0 0 0 26.172235 23.04c99.779765 0 166.881882-52.163765 166.881882-149.323294 0-97.189647-67.102118-149.353412-166.881882-149.353412z m-134.02353 15.661176c-9.426824-21.985882-42.496-20.781176-49.453176 3.46353L300.935529 617.712941l-0.722823 3.222588a26.352941 26.352941 0 0 0 51.410823 11.233883l9.577412-33.581177h70.656l9.637647 33.581177 1.084236 3.132235a26.352941 26.352941 0 0 0 49.573647-17.588706l-70.264471-245.970823z m160.346353 38.610824l1.204706 0.150588 6.324706 0.963765c51.832471 8.854588 80.323765 39.996235 80.323765 93.967059l-0.120471 6.354823-0.421647 6.144c-4.336941 48.308706-34.544941 75.595294-86.13647 82.401882l-1.174589 0.120471V406.889412z m-184.470588 67.975529l20.299294 71.017412h-40.598588l20.299294-71.017412zM271.932235 235.008a26.352941 26.352941 0 0 0-34.575059 39.634824l52.705883 52.705882 2.710588 2.349176a26.352941 26.352941 0 0 0 34.575059-39.634823l-52.705882-52.705883z" fill="#568af2" /></svg>