<svg class="icon" style="width: 1em;height: 1em;vertical-align: middle;fill: currentColor;overflow: hidden;" viewBox="0 0 1024 1024" version="1.1" xmlns="http://www.w3.org/2000/svg" width="32" height="32"><path d="M736.828235 192.180706L527.058824 401.950118l-209.769412-209.769412a26.352941 26.352941 0 0 0-37.25553 0L192.150588 280.033882l-2.349176 2.710589a26.352941 26.352941 0 0 0 2.349176 34.544941l209.769412 209.769412-209.769412 209.769411a26.352941 26.352941 0 0 0 0 37.25553l87.853177 87.853176 2.710588 2.349177a26.352941 26.352941 0 0 0 34.544941-2.349177l209.769412-209.769412 209.769412 209.769412a26.352941 26.352941 0 0 0 37.255529 0l87.853177-87.853176 2.349176-2.710589a26.352941 26.352941 0 0 0-2.349176-34.544941L652.167529 527.058824l209.769412-209.769412a26.352941 26.352941 0 0 0 0-37.25553L774.083765 192.150588a26.352941 26.352941 0 0 0-37.25553 0z" fill="#568af2" /></svg>