<svg class="icon" style="width: 1em;height: 1em;vertical-align: middle;fill: currentColor;overflow: hidden;" viewBox="0 0 1024 1024" version="1.1" xmlns="http://www.w3.org/2000/svg" width="32" height="32"><path d="M861.936941 192.180706c9.426824 9.456941 10.24 24.244706 2.349177 34.575059l-2.349177 2.710588-632.470588 632.470588a26.352941 26.352941 0 0 1-39.634824-34.575059l2.349177-2.710588 632.470588-632.470588a26.352941 26.352941 0 0 1 37.285647 0z m-106.496 449.054118a114.206118 114.206118 0 1 1 0 228.412235 114.206118 114.206118 0 0 1 0-228.382118zM298.676706 184.500706a114.206118 114.206118 0 1 1 0 228.382118 114.206118 114.206118 0 0 1 0-228.382118z" fill="#568af2" /></svg>