<svg class="icon" style="width: 1em;height: 1em;vertical-align: middle;fill: currentColor;overflow: hidden;" viewBox="0 0 1024 1024" version="1.1" xmlns="http://www.w3.org/2000/svg" width="32" height="32"><path d="M501.970824 124.235294c101.496471 0 196.728471 40.267294 267.083294 110.622118a376.560941 376.560941 0 0 1 110.622117 267.113412c0 101.496471-40.267294 196.728471-110.622117 267.083294a376.560941 376.560941 0 0 1-267.083294 110.622117c-101.526588 0-196.728471-40.267294-267.113412-110.622117a376.560941 376.560941 0 0 1-110.622118-267.083294c0-101.526588 40.267294-196.728471 110.622118-267.113412a376.560941 376.560941 0 0 1 267.113412-110.622118z m194.319058 253.680941a26.352941 26.352941 0 0 0-37.285647 0L466.823529 570.096941l-86.768941-86.768941-2.710588-2.349176a26.352941 26.352941 0 0 0-34.575059 39.604705l105.411765 105.411765 2.710588 2.379294a26.352941 26.352941 0 0 0 34.575059-2.379294l210.823529-210.823529 2.349177-2.710589a26.352941 26.352941 0 0 0-2.349177-34.544941z" fill="#568af2" /></svg>