<svg class="icon" style="width: 1em;height: 1em;vertical-align: middle;fill: currentColor;overflow: hidden;" viewBox="0 0 1024 1024" version="1.1" xmlns="http://www.w3.org/2000/svg" width="32" height="32"><path d="M501.970824 124.235294c208.594824 0 377.705412 169.110588 377.705411 377.73553 0 208.594824-169.110588 377.705412-377.705411 377.705411-208.624941 0-377.735529-169.110588-377.73553-377.705411 0-208.624941 169.110588-377.735529 377.73553-377.73553z m-70.294589 263.529412H291.147294l-3.312941 0.210823a26.352941 26.352941 0 0 0 3.312941 52.495059h43.91153v149.323294l0.210823 3.312942a26.352941 26.352941 0 0 0 52.495059-3.312942v-149.323294h43.911529l3.312941-0.210823a26.352941 26.352941 0 0 0-3.312941-52.495059z m307.260236 23.070118c-2.56-22.317176-31.322353-31.653647-46.381177-13.583059l-67.614118 81.076706-67.584-81.076706-2.258823-2.409412c-16.263529-15.480471-44.363294-4.246588-44.363294 19.275294v175.676235l0.210823 3.312942a26.352941 26.352941 0 0 0 26.142118 23.04l3.312941-0.180706a26.352941 26.352941 0 0 0 23.04-26.172236v-102.881882l41.261177 49.483294 2.409411 2.529882a26.352941 26.352941 0 0 0 38.068706-2.529882l41.231059-49.483294v102.881882l0.210824 3.312942a26.352941 26.352941 0 0 0 52.525176-3.312942V414.117647z" fill="#568af2" /></svg>