<svg class="icon" style="width: 1em;height: 1em;vertical-align: middle;fill: currentColor;overflow: hidden;" viewBox="0 0 1024 1024" version="1.1" xmlns="http://www.w3.org/2000/svg" width="32" height="32"><path d="M501.970824 124.235294c208.594824 0 377.705412 169.110588 377.705411 377.73553 0 208.594824-169.110588 377.705412-377.705411 377.705411-208.624941 0-377.735529-169.110588-377.73553-377.705411 0-208.624941 169.110588-377.735529 377.73553-377.73553z m0 228.382118h-70.294589l-3.312941 0.210823a26.352941 26.352941 0 0 0-23.04 26.142118v245.970823l0.210824 3.312942a26.352941 26.352941 0 0 0 52.495058-3.312942v-96.647529h12.769883l79.99247 111.977412 2.258824 2.770823a26.352941 26.352941 0 0 0 40.628706-33.430588l-60.837647-85.11247c41.803294-11.023059 65.746824-44.634353 65.746823-84.028236 0-48.278588-35.960471-87.853176-96.617411-87.853176z m0 52.705882l5.180235 0.150588c26.744471 1.626353 38.731294 15.962353 38.731294 34.996706 0 20.239059-13.552941 35.147294-43.911529 35.147294l-43.941648-0.030117v-70.264471h43.941648z" fill="#568af2" /></svg>