<svg class="icon" style="width: 1em;height: 1em;vertical-align: middle;fill: currentColor;overflow: hidden;" viewBox="0 0 1024 1024" version="1.1" xmlns="http://www.w3.org/2000/svg" width="32" height="32"><path d="M501.970824 124.235294c208.594824 0 377.705412 169.110588 377.705411 377.73553 0 208.594824-169.110588 377.705412-377.705411 377.705411-208.624941 0-377.735529-169.110588-377.73553-377.705411 0-208.624941 169.110588-377.735529 377.73553-377.73553z m-96.64753 491.91153H361.411765l-3.764706 0.210823c-30.117647 3.493647-30.117647 48.790588 0 52.284235l3.764706 0.210824h43.911529v43.941647l0.210824 3.312941a26.352941 26.352941 0 0 0 52.495058-3.312941v-43.941647h35.147295v43.941647l0.210823 3.312941a26.352941 26.352941 0 0 0 52.495059-3.312941v-43.941647h43.911529l5.481412-0.150588a96.647529 96.647529 0 0 0 39.032471-182.272 96.617412 96.617412 0 0 0-79.631059-151.371294h-8.794353V291.147294l-0.210824-3.312941a26.352941 26.352941 0 0 0-52.495058 3.312941v43.91153h-35.147295V291.147294l-0.180705-3.312941a26.352941 26.352941 0 0 0-52.525177 3.312941v43.91153H361.411765l-3.312941 0.210823a26.352941 26.352941 0 0 0 3.312941 52.495059h43.911529v228.382118z m184.470588-87.823059l4.216471 0.180706a43.941647 43.941647 0 0 1-4.216471 87.642353h-131.764706v-87.853177h131.764706z m-35.117176-140.559059l4.21647 0.210823c22.287059 2.108235 39.695059 20.871529 39.695059 43.700706l-0.210823 4.216471a43.941647 43.941647 0 0 1-43.700706 39.725176l-96.64753-0.030117v-87.823059h96.64753z" fill="#568af2" /></svg>