<svg class="icon" style="width: 1em;height: 1em;vertical-align: middle;fill: currentColor;overflow: hidden;" viewBox="0 0 1024 1024" version="1.1" xmlns="http://www.w3.org/2000/svg" width="32" height="32"><path d="M466.823529 154.352941a26.352941 26.352941 0 1 1 0 52.705883 289.882353 289.882353 0 0 0 0 579.764705 26.352941 26.352941 0 1 1 0 52.705883c-189.199059 0-342.588235-153.389176-342.588235-342.588236S277.624471 154.352941 466.823529 154.352941zM853.323294 154.352941a26.352941 26.352941 0 1 1 0 52.705883 289.882353 289.882353 0 0 0 0 579.764705 26.352941 26.352941 0 1 1 0 52.705883c-189.199059 0-342.588235-153.389176-342.588235-342.588236S664.124235 154.352941 853.323294 154.352941z" fill="#568af2" /><path d="M730.352941 470.588235a26.352941 26.352941 0 0 1 3.312941 52.495059l-3.312941 0.210824h-193.264941a26.352941 26.352941 0 0 1-3.312941-52.495059l3.312941-0.210824h193.264941z" fill="#568af2" /></svg>