<svg class="icon" style="width: 1em;height: 1em;vertical-align: middle;fill: currentColor;overflow: hidden;" viewBox="0 0 1024 1024" version="1.1" xmlns="http://www.w3.org/2000/svg" width="32" height="32"><path d="M343.853176 879.676235a26.352941 26.352941 0 0 1-25.419294-19.365647L125.168941 157.575529A26.352941 26.352941 0 0 1 150.588235 124.235294h140.559059c11.866353 0 22.256941 7.920941 25.389177 19.365647l175.525647 638.373647 337.92-643.614117a26.352941 26.352941 0 0 1 48.037647 21.443764l-1.355294 3.011765-368.941177 702.765176-0.271059 0.512a26.624 26.624 0 0 1-0.963764 1.596236l1.234823-2.108236a26.563765 26.563765 0 0 1-3.915294 5.601883 26.202353 26.202353 0 0 1-19.425882 8.493176h0.903529-0.752941z" fill="#568af2" /></svg>