<svg class="icon" style="width: 1em;height: 1em;vertical-align: middle;fill: currentColor;overflow: hidden;" viewBox="0 0 1024 1024" version="1.1" xmlns="http://www.w3.org/2000/svg" width="32" height="32"><path d="M0 0h1024v1024H0z" fill="#568af2" fill-opacity="0" /><path d="M498.206118 120.470588C289.581176 120.470588 120.470588 289.581176 120.470588 498.206118c0 208.594824 169.110588 377.705412 377.73553 377.705411 208.594824 0 377.705412-169.110588 377.705411-377.705411C875.911529 289.581176 706.800941 120.470588 498.206118 120.470588z m0 52.705883c179.501176 0 324.999529 145.528471 324.999529 325.029647s-145.498353 324.999529-324.999529 324.999529S173.176471 677.707294 173.176471 498.206118 318.704941 173.176471 498.206118 173.176471z" fill="#568af2" /><path d="M498.206118 261.029647c13.432471 0 24.515765 10.029176 26.142117 23.04l0.210824 3.312941v52.705883a26.352941 26.352941 0 0 1-52.525177 3.312941l-0.180706-3.312941v-52.705883c0-14.576941 11.776-26.352941 26.352942-26.352941zM628.645647 330.480941a26.352941 26.352941 0 0 1 39.604706 34.575059l-2.349177 2.710588-37.255529 37.25553a26.352941 26.352941 0 0 1-39.634823-34.575059l2.349176-2.710588 37.285647-37.25553zM709.029647 471.853176a26.352941 26.352941 0 0 1 3.312941 52.495059l-3.312941 0.210824h-52.705882a26.352941 26.352941 0 0 1-3.312941-52.525177l3.312941-0.180706h52.705882zM591.36 591.36a26.352941 26.352941 0 0 1 34.575059-2.349176l2.710588 2.349176 37.255529 37.285647a26.352941 26.352941 0 0 1-34.575058 39.604706l-2.710589-2.349177-37.255529-37.255529a26.352941 26.352941 0 0 1 0-37.285647zM498.206118 629.970824c13.432471 0 24.515765 10.029176 26.142117 23.04l0.210824 3.312941v52.705882a26.352941 26.352941 0 0 1-52.525177 3.312941l-0.180706-3.312941v-52.705882c0-14.576941 11.776-26.352941 26.352942-26.352941zM367.736471 591.36a26.352941 26.352941 0 0 1 39.634823 34.575059l-2.349176 2.710588-37.25553 37.255529a26.352941 26.352941 0 0 1-39.634823-34.575058l2.349176-2.710589 37.285647-37.255529zM340.088471 471.853176a26.352941 26.352941 0 0 1 3.312941 52.495059l-3.312941 0.210824h-52.705883a26.352941 26.352941 0 0 1-3.312941-52.525177l3.312941-0.180706h52.705883zM330.480941 330.480941a26.352941 26.352941 0 0 1 34.575059-2.349176l2.710588 2.349176 37.25553 37.285647a26.352941 26.352941 0 0 1-34.575059 39.604706l-2.710588-2.349176-37.25553-37.25553a26.352941 26.352941 0 0 1 0-37.285647z" fill="#568af2" /></svg>