<svg class="icon" style="width: 1em;height: 1em;vertical-align: middle;fill: currentColor;overflow: hidden;" viewBox="0 0 1024 1024" version="1.1" xmlns="http://www.w3.org/2000/svg" width="32" height="32"><path d="M0 0h1024v1024H0z" fill="#568af2" fill-opacity="0" /><path d="M693.067294 613.496471a26.352941 26.352941 0 0 1 51.2 12.137411l-0.752941 3.222589-69.511529 228.382117a26.352941 26.352941 0 0 1-21.775059 18.462118l-3.433412 0.210823h-245.970824a26.352941 26.352941 0 0 1-24.003764-15.450353l-1.204706-3.222588-69.51153-228.382117a26.352941 26.352941 0 0 1 49.272471-18.462118l1.144471 3.102118 63.789176 209.709176h206.938353l63.849412-209.709176z" fill="#568af2" /><path d="M648.794353 120.470588c10.420706 0 19.757176 6.144 23.973647 15.450353l1.204706 3.222588 69.541647 228.412236a26.352941 26.352941 0 0 1-49.272471 18.432l-1.174588-3.102118-63.819294-209.709176h-206.938353l-63.789176 209.709176a26.352941 26.352941 0 0 1-29.665883 18.311529l-3.222588-0.783058a26.352941 26.352941 0 0 1-18.281412-29.635765l0.752941-3.222588 69.51153-228.412236a26.352941 26.352941 0 0 1 21.775059-18.462117L402.823529 120.470588h245.970824z" fill="#568af2" fill-opacity="0" /><path d="M525.793882 243.440941A254.524235 254.524235 0 0 0 271.058824 498.206118 254.524235 254.524235 0 0 0 525.793882 752.941176a254.524235 254.524235 0 0 0 254.765177-254.735058 254.524235 254.524235 0 0 0-254.735059-254.735059z m0 52.705883a201.818353 201.818353 0 0 1 202.059294 202.059294 201.818353 201.818353 0 0 1-202.029176 202.029176 201.818353 201.818353 0 0 1-202.059294-202.029176 201.818353 201.818353 0 0 1 202.029176-202.029177z" fill="#568af2" /><path d="M525.793882 348.852706c13.432471 0 24.545882 10.059294 26.172236 23.070118l0.180706 3.312941v112.007529l62.554352 62.584471c9.456941 9.456941 10.24 24.244706 2.379295 34.575059l-2.379295 2.710588a26.352941 26.352941 0 0 1-34.544941 2.349176l-2.710588-2.349176-70.264471-70.294588a26.352941 26.352941 0 0 1-7.529411-15.149177l-0.210824-3.463529v-123.000471c0-14.546824 11.806118-26.352941 26.352941-26.352941z" fill="#568af2" /></svg>