<svg class="icon" style="width: 1em;height: 1em;vertical-align: middle;fill: currentColor;overflow: hidden;" viewBox="0 0 1024 1024" version="1.1" xmlns="http://www.w3.org/2000/svg" width="32" height="32"><path d="M814.441412 120.470588h-632.470588A61.500235 61.500235 0 0 0 120.470588 181.970824v632.470588c0 33.942588 27.527529 61.470118 61.500236 61.470117h632.470588a61.500235 61.500235 0 0 0 61.470117-61.470117v-632.470588A61.500235 61.500235 0 0 0 814.441412 120.470588z m-632.470588 52.705883h632.470588c4.818824 0 8.764235 3.915294 8.764235 8.794353v632.470588c0 4.818824-3.915294 8.764235-8.764235 8.764235h-632.470588a8.794353 8.794353 0 0 1-8.794353-8.764235v-632.470588c0-4.848941 3.915294-8.794353 8.794353-8.794353z" fill="#568af2" /><path d="M849.558588 296.146824a26.352941 26.352941 0 0 1 3.312941 52.525176l-3.312941 0.180706H146.823529a26.352941 26.352941 0 0 1-3.312941-52.495059l3.312941-0.210823h702.735059z" fill="#568af2" /><path d="M849.558588 243.440941c13.432471 0 24.545882 10.059294 26.172236 23.070118l0.180705 3.312941v210.823529a26.352941 26.352941 0 0 1-52.495058 3.312942l-0.210824-3.312942v-210.823529c0-14.576941 11.806118-26.383059 26.352941-26.383059zM357.647059 436.705882a26.352941 26.352941 0 0 1 3.312941 52.495059l-3.312941 0.210824H287.382588a26.352941 26.352941 0 0 1-3.312941-52.495059l3.312941-0.210824h70.264471zM533.323294 436.705882a26.352941 26.352941 0 0 1 3.312941 52.495059l-3.312941 0.210824h-70.26447a26.352941 26.352941 0 0 1-3.312942-52.495059l3.312942-0.210824h70.26447zM709.029647 436.705882a26.352941 26.352941 0 0 1 3.312941 52.495059l-3.312941 0.210824h-70.294588a26.352941 26.352941 0 0 1-3.312941-52.495059l3.312941-0.210824h70.294588zM357.647059 559.676235a26.352941 26.352941 0 0 1 3.312941 52.525177l-3.312941 0.180706H287.382588a26.352941 26.352941 0 0 1-3.312941-52.495059l3.312941-0.210824h70.264471zM533.323294 559.676235a26.352941 26.352941 0 0 1 3.312941 52.525177l-3.312941 0.180706h-70.26447a26.352941 26.352941 0 0 1-3.312942-52.495059l3.312942-0.210824h70.26447zM709.029647 559.676235a26.352941 26.352941 0 0 1 3.312941 52.525177l-3.312941 0.180706h-70.294588a26.352941 26.352941 0 0 1-3.312941-52.495059l3.312941-0.210824h70.294588zM357.647059 682.676706a26.352941 26.352941 0 0 1 3.312941 52.495059l-3.312941 0.210823H287.382588a26.352941 26.352941 0 0 1-3.312941-52.525176l3.312941-0.180706h70.264471zM533.323294 682.676706a26.352941 26.352941 0 0 1 3.312941 52.495059l-3.312941 0.210823h-70.26447a26.352941 26.352941 0 0 1-3.312942-52.525176l3.312942-0.180706h70.26447zM709.029647 682.676706a26.352941 26.352941 0 0 1 3.312941 52.495059l-3.312941 0.210823h-70.294588a26.352941 26.352941 0 0 1-3.312941-52.525176l3.312941-0.180706h70.294588zM146.823529 243.440941c13.432471 0 24.515765 10.059294 26.142118 23.070118l0.210824 3.312941v210.823529a26.352941 26.352941 0 0 1-52.495059 3.312942L120.470588 480.617412v-210.82353c0-14.576941 11.806118-26.383059 26.352941-26.383058z" fill="#568af2" /></svg>