<svg class="icon" style="width: 1em;height: 1em;vertical-align: middle;fill: currentColor;overflow: hidden;" viewBox="0 0 1024 1024" version="1.1" xmlns="http://www.w3.org/2000/svg" width="32" height="32"><path d="M0 0h1024v1024H0z" fill="#568af2" fill-opacity="0" /><path d="M498.206118 120.470588C289.641412 120.470588 120.470588 287.924706 120.470588 494.682353v354.876235c0 14.576941 11.806118 26.352941 26.352941 26.352941h702.735059a26.352941 26.352941 0 0 0 26.352941-26.352941V494.682353C875.911529 287.954824 706.740706 120.470588 498.206118 120.470588z m8.643764 52.826353c175.585882 4.517647 316.355765 146.733176 316.355765 321.385412v328.523294H173.176471V494.682353c0-177.513412 145.468235-321.505882 325.029647-321.505882l8.643764 0.12047z" fill="#568af2" /><path d="M498.206118 261.029647a237.176471 237.176471 0 1 0 0 474.352941 237.176471 237.176471 0 0 0 0-474.352941z m0 52.705882a184.470588 184.470588 0 1 1 0 368.941177 184.470588 184.470588 0 0 1 0-368.941177z" fill="#568af2" /><path d="M498.206118 366.441412c13.432471 0 24.515765 10.029176 26.142117 23.04l0.210824 3.312941-0.030118 94.448941 62.584471 62.584471c9.426824 9.456941 10.24 24.244706 2.349176 34.575059l-2.349176 2.710588a26.352941 26.352941 0 0 1-34.575059 2.349176l-2.710588-2.349176-70.264471-70.294588a26.352941 26.352941 0 0 1-7.499294-15.149177l-0.210824-3.463529v-105.411765c0-14.576941 11.776-26.352941 26.352942-26.352941z" fill="#568af2" /></svg>