<svg class="icon" style="width: 1em;height: 1em;vertical-align: middle;fill: currentColor;overflow: hidden;" viewBox="0 0 1024 1024" version="1.1" xmlns="http://www.w3.org/2000/svg" width="32" height="32"><path d="M0 0h1024v1024H0z" fill="#568af2" fill-opacity="0" /><path d="M178.778353 168.357647c13.432471 0 24.515765 10.089412 26.142118 23.070118l0.210823 3.312941-0.030118 101.406118h101.436236c13.432471 0 24.515765 10.059294 26.142117 23.070117l0.210824 3.312941a26.352941 26.352941 0 0 1-23.04 26.142118l-3.312941 0.180706H178.778353a26.352941 26.352941 0 0 1-26.142118-23.04l-0.210823-3.312941V194.740706c0-14.546824 11.776-26.352941 26.352941-26.352941z" fill="#568af2" /><path d="M498.206118 120.470588c208.594824 0 377.705412 169.110588 377.705411 377.73553 0 208.594824-169.110588 377.705412-377.705411 377.705411C289.581176 875.911529 120.470588 706.800941 120.470588 498.206118a26.352941 26.352941 0 1 1 52.705883 0c0 179.501176 145.528471 324.999529 325.029647 324.999529s324.999529-145.498353 324.999529-324.999529S677.707294 173.176471 498.206118 173.176471a324.818824 324.818824 0 0 0-281.539765 162.484705 26.352941 26.352941 0 1 1-45.628235-26.383058A377.524706 377.524706 0 0 1 498.206118 120.470588z" fill="#568af2" /><path d="M498.296471 261.029647c13.432471 0 24.515765 10.059294 26.142117 23.04l0.210824 3.312941-0.060236 200.041412 141.251765 141.251765c9.456941 9.456941 10.24 24.244706 2.409412 34.575059l-2.409412 2.710588a26.352941 26.352941 0 0 1-34.544941 2.349176l-2.710588-2.349176-148.961883-148.961883a26.352941 26.352941 0 0 1-7.499294-15.179294l-0.210823-3.463529V287.382588c0-14.576941 11.806118-26.352941 26.383059-26.352941z" fill="#568af2" /></svg>