<svg class="icon" style="width: 1em;height: 1em;vertical-align: middle;fill: currentColor;overflow: hidden;" viewBox="0 0 1024 1024" version="1.1" xmlns="http://www.w3.org/2000/svg" width="32" height="32"><path d="M0 0h1024v1024H0z" fill="#568af2" fill-opacity="0" /><path d="M814.441412 190.735059h-632.470588A61.500235 61.500235 0 0 0 120.470588 252.235294v562.206118c0 33.942588 27.527529 61.470118 61.500236 61.470117h632.470588a61.500235 61.500235 0 0 0 61.470117-61.470117V252.235294a61.500235 61.500235 0 0 0-61.470117-61.500235z m-632.470588 52.705882h632.470588c4.818824 0 8.764235 3.915294 8.764235 8.794353v562.206118c0 4.818824-3.915294 8.764235-8.764235 8.764235h-632.470588a8.794353 8.794353 0 0 1-8.794353-8.764235V252.235294c0-4.848941 3.915294-8.794353 8.794353-8.794353z" fill="#568af2" /><path d="M849.558588 401.558588a26.352941 26.352941 0 0 1 3.312941 52.525177l-3.312941 0.180706H146.823529a26.352941 26.352941 0 0 1-3.312941-52.495059l3.312941-0.210824h702.735059zM849.558588 612.382118a26.352941 26.352941 0 0 1 3.312941 52.525176l-3.312941 0.180706H146.823529a26.352941 26.352941 0 0 1-3.312941-52.495059l3.312941-0.210823h702.735059zM375.205647 120.470588c13.432471 0 24.545882 10.059294 26.172235 23.04l0.180706 3.312941v140.559059a26.352941 26.352941 0 0 1-52.495059 3.312941l-0.210823-3.312941V146.823529c0-14.546824 11.806118-26.352941 26.352941-26.352941zM621.176471 120.470588c13.432471 0 24.515765 10.059294 26.142117 23.04l0.210824 3.312941v140.559059a26.352941 26.352941 0 0 1-52.495059 3.312941l-0.210824-3.312941V146.823529c0-14.546824 11.806118-26.352941 26.352942-26.352941z" fill="#568af2" /><path d="M375.205647 401.558588c13.432471 0 24.545882 10.059294 26.172235 23.070118l0.180706 3.312941v421.647059a26.352941 26.352941 0 0 1-52.495059 3.312941l-0.210823-3.312941v-421.647059c0-14.576941 11.806118-26.383059 26.352941-26.383059zM621.176471 401.558588c13.432471 0 24.515765 10.059294 26.142117 23.070118l0.210824 3.312941v421.647059a26.352941 26.352941 0 0 1-52.495059 3.312941l-0.210824-3.312941v-421.647059c0-14.576941 11.806118-26.383059 26.352942-26.383059zM849.558588 278.588235c13.432471 0 24.545882 10.059294 26.172236 23.04l0.180705 3.312941v456.794353a26.352941 26.352941 0 0 1-52.495058 3.312942l-0.210824-3.312942V304.941176c0-14.546824 11.806118-26.352941 26.352941-26.352941zM146.823529 278.588235c13.432471 0 24.515765 10.059294 26.142118 23.04l0.210824 3.312941v456.794353a26.352941 26.352941 0 0 1-52.495059 3.312942L120.470588 761.705412V304.941176c0-14.546824 11.806118-26.352941 26.352941-26.352941z" fill="#568af2" /><path d="M673.882353 823.205647a26.352941 26.352941 0 0 1 3.312941 52.525177l-3.312941 0.180705H322.499765a26.352941 26.352941 0 0 1-3.312941-52.495058l3.312941-0.210824h351.382588z" fill="#568af2" /></svg>