<svg class="icon" style="width: 1em;height: 1em;vertical-align: middle;fill: currentColor;overflow: hidden;" viewBox="0 0 1024 1024" version="1.1" xmlns="http://www.w3.org/2000/svg" width="32" height="32"><path d="M0 0h1024v1024H0z" fill="#568af2" fill-opacity="0" /><path d="M849.558588 190.735059H146.823529A26.352941 26.352941 0 0 0 120.470588 217.088v632.470588c0 14.576941 11.806118 26.352941 26.352941 26.352941h702.735059a26.352941 26.352941 0 0 0 26.352941-26.352941v-632.470588a26.352941 26.352941 0 0 0-26.352941-26.352941z m-26.352941 52.705882v579.764706H173.176471V243.440941h650.029176z" fill="#568af2" /><path d="M709.029647 401.558588h-140.559059a26.352941 26.352941 0 0 0-26.352941 26.352941v245.970824c0 14.546824 11.806118 26.352941 26.352941 26.352941h140.559059a26.352941 26.352941 0 0 0 26.352941-26.352941v-245.970824a26.352941 26.352941 0 0 0-26.352941-26.352941z m-26.383059 52.705883V647.529412h-87.853176v-193.264941h87.853176z" fill="#568af2" /><path d="M375.205647 120.470588c13.432471 0 24.545882 10.059294 26.172235 23.04l0.180706 3.312941v140.559059a26.352941 26.352941 0 0 1-52.495059 3.312941l-0.210823-3.312941V146.823529c0-14.546824 11.806118-26.352941 26.352941-26.352941zM621.176471 120.470588c13.432471 0 24.515765 10.059294 26.142117 23.04l0.210824 3.312941v140.559059a26.352941 26.352941 0 0 1-52.495059 3.312941l-0.210824-3.312941V146.823529c0-14.546824 11.806118-26.352941 26.352942-26.352941z" fill="#568af2" fill-opacity="0" /><path d="M427.911529 401.558588c13.432471 0 24.545882 10.059294 26.172236 23.070118l0.180706 3.312941v245.940706a26.352941 26.352941 0 0 1-23.04 26.142118l-3.312942 0.210823H287.382588a26.352941 26.352941 0 0 1-3.312941-52.495059l3.312941-0.210823h114.176v-193.264941H287.382588a26.352941 26.352941 0 0 1-26.172235-23.04l-0.180706-3.312942c0-13.432471 10.029176-24.515765 23.04-26.142117l3.312941-0.210824h140.528941z" fill="#568af2" /><path d="M427.911529 524.559059a26.352941 26.352941 0 0 1 3.312942 52.495059l-3.312942 0.210823h-105.411764a26.352941 26.352941 0 0 1-3.312941-52.525176l3.312941-0.180706h105.411764z" fill="#568af2" /></svg>