<svg class="icon" style="width: 1em;height: 1em;vertical-align: middle;fill: currentColor;overflow: hidden;" viewBox="0 0 1024 1024" version="1.1" xmlns="http://www.w3.org/2000/svg" width="32" height="32"><path d="M498.206118 120.470588C289.581176 120.470588 120.470588 289.581176 120.470588 498.206118c0 208.594824 169.110588 377.705412 377.73553 377.705411 208.594824 0 377.705412-169.110588 377.705411-377.705411C875.911529 289.581176 706.800941 120.470588 498.206118 120.470588z m0 52.705883c179.501176 0 324.999529 145.528471 324.999529 325.029647s-145.498353 324.999529-324.999529 324.999529S173.176471 677.707294 173.176471 498.206118 318.704941 173.176471 498.206118 173.176471z" fill="#568af2" /><path d="M498.356706 261.029647c13.432471 0 24.515765 10.059294 26.142118 23.04l0.210823 3.312941-0.060235 200.041412 141.251764 141.251765c9.456941 9.456941 10.24 24.244706 2.409412 34.575059l-2.409412 2.710588a26.352941 26.352941 0 0 1-34.544941 2.349176l-2.710588-2.349176-148.961882-148.961883a26.352941 26.352941 0 0 1-7.499294-15.179294l-0.210824-3.463529V287.382588c0-14.576941 11.806118-26.352941 26.383059-26.352941z" fill="#568af2" /></svg>