<svg class="icon" style="width: 1em;height: 1em;vertical-align: middle;fill: currentColor;overflow: hidden;" viewBox="0 0 1024 1024" version="1.1" xmlns="http://www.w3.org/2000/svg" width="32" height="32"><path d="M0 0h1024v1024H0z" fill="#568af2" fill-opacity="0" /><path d="M498.206118 184.892235c-192.451765 0-348.461176 156.009412-348.461177 348.461177 0 192.421647 156.009412 348.431059 348.461177 348.431059 192.451765 0 348.461176-156.009412 348.461176-348.461177 0-192.451765-156.009412-348.461176-348.461176-348.461176z m0 52.705883c163.328 0 295.755294 132.397176 295.755294 295.755294 0 163.297882-132.427294 295.725176-295.755294 295.725176s-295.755294-132.427294-295.755294-295.755294 132.427294-295.755294 295.755294-295.755294z" fill="#568af2" /><path d="M493.959529 319.939765c13.462588 0 24.545882 10.059294 26.172236 23.04l0.180706 3.312941v182.512941l128.813176 128.813177c9.426824 9.426824 10.24 24.244706 2.379294 34.575058l-2.379294 2.710589a26.352941 26.352941 0 0 1-34.575059 2.349176l-2.710588-2.379294-136.523294-136.523294a26.352941 26.352941 0 0 1-7.499294-15.179294l-0.210824-3.46353v-193.415529c0-14.546824 11.806118-26.352941 26.352941-26.352941z" fill="#568af2" /><path d="M254.494118 125.379765a26.352941 26.352941 0 0 1 33.40047 40.628706l-2.770823 2.258823-122.970353 87.853177a26.352941 26.352941 0 0 1-33.430588-40.628706l2.770823-2.258824L254.494118 125.379765zM705.144471 131.493647a26.352941 26.352941 0 0 1 33.731764-7.981176l3.011765 1.867294 123.000471 87.853176a26.352941 26.352941 0 0 1-27.587765 44.754824l-3.041882-1.867294-123.000471-87.853177a26.352941 26.352941 0 0 1-6.113882-36.743529z" fill="#568af2" fill-opacity="0" /></svg>