<svg class="icon" style="width: 1em;height: 1em;vertical-align: middle;fill: currentColor;overflow: hidden;" viewBox="0 0 1024 1024" version="1.1" xmlns="http://www.w3.org/2000/svg" width="32" height="32"><path d="M0 0h1024v1024H0z" fill="#568af2" fill-opacity="0" /><path d="M498.206118 120.470588c67.373176 0 132.246588 17.709176 189.319529 50.808471a26.352941 26.352941 0 1 1-26.473412 45.598117 323.373176 323.373176 0 0 0-162.846117-43.700705c-179.501176 0-325.029647 145.528471-325.029647 325.029647s145.528471 324.999529 325.029647 324.999529 324.999529-145.498353 324.999529-324.999529c0-57.645176-14.998588-113.061647-43.098353-161.882353a26.352941 26.352941 0 0 1 45.688471-26.292706 376.079059 376.079059 0 0 1 50.115764 188.175059c0 208.594824-169.110588 377.705412-377.705411 377.705411C289.581176 875.911529 120.470588 706.800941 120.470588 498.206118 120.470588 289.581176 289.581176 120.470588 498.206118 120.470588z" fill="#568af2" /><path d="M628.615529 333.854118l-26.112 10.059294-20.660705 8.222117-19.576471 7.951059-27.166118 11.414588-16.655059 7.228236-15.450352 7.017412-14.155295 6.716235-12.860235 6.415059c-20.299294 10.511059-34.936471 19.847529-43.068235 27.979294a96.617412 96.617412 0 0 0 136.613647 136.643764c9.125647-9.095529 19.124706-25.449412 30.900706-49.091764l7.28847-15.058824 7.770353-16.805647 8.101647-18.371765c6.866824-15.811765 13.793882-32.466824 20.570353-49.332705l9.758118-24.606118 8.613647-22.467765a26.352941 26.352941 0 0 0-33.912471-33.91247z m-37.466353 71.348706l-2.529882 6.294588c-4.457412 10.842353-8.944941 21.473882-13.402353 31.713882l-7.770353 17.648941-6.716235 14.607059-5.692235 11.776-5.300706 10.541177-4.848941 9.095529-4.367059 7.619765a67.343059 67.343059 0 0 1-8.252236 11.745882 43.911529 43.911529 0 0 1-62.102588-62.132706c1.325176-1.325176 3.252706-2.831059 5.722353-4.547765l5.722353-3.644235c1.054118-0.662588 2.198588-1.325176 3.373177-1.987765l7.740235-4.306823 9.035294-4.668235 15.691294-7.649883 11.776-5.481411 19.456-8.704 14.004706-6.02353 22.347294-9.366588 6.113882-2.529882z" fill="#568af2" /></svg>