<svg class="icon" style="width: 1em;height: 1em;vertical-align: middle;fill: currentColor;overflow: hidden;" viewBox="0 0 1024 1024" version="1.1" xmlns="http://www.w3.org/2000/svg" width="32" height="32"><path d="M0 0h1024v1024H0z" fill="#568af2" fill-opacity="0" /><path d="M586.601412 459.745882l-21.684706 8.794353-5.029647 2.048a2262.437647 2262.437647 0 0 0-60.144941 25.810824l-14.095059 6.384941-17.227294 8.041412-15.661177 7.619764c-29.756235 14.787765-49.995294 27.105882-60.235294 37.707295a96.617412 96.617412 0 1 0 139.023059 134.26447c6.174118-6.415059 12.709647-16.263529 19.907765-29.575529l6.324706-12.257883 6.716235-13.974588 7.077647-15.691294 8.071529-18.672941 4.126118-9.938824c6.625882-15.962353 13.251765-32.768 19.757176-49.754353l12.047059-32.165647 5.541647-15.299764a26.352941 26.352941 0 0 0-34.514823-33.340236z m-36.23153 72.011294l-2.439529 6.415059c-4.276706 10.932706-8.583529 21.684706-12.860235 32.015059l-7.890824 18.672941-6.595765 14.968471-7.890823 16.926118-4.818824 9.637647-4.367058 8.252235a182.573176 182.573176 0 0 1-3.885177 6.716235l-3.312941 5.12a29.726118 29.726118 0 0 1-2.680471 3.312941 43.911529 43.911529 0 0 1-63.186823-61.018353c1.686588-1.746824 4.577882-3.945412 8.553412-6.565647l6.77647-4.21647 8.282353-4.728471 9.728-5.210353 11.053177-5.662117 12.257882-6.02353 13.372235-6.354823 20.931765-9.547294 19.245176-8.493177 9.728-4.216471z" fill="#568af2" /><path d="M485.647059 180.705882c218.322824 0 395.294118 176.971294 395.294117 395.294118 0 106.255059-42.164706 205.884235-115.772235 279.491765a26.352941 26.352941 0 1 1-37.285647-37.25553 341.353412 341.353412 0 0 0 100.352-242.236235c0-189.199059-153.389176-342.588235-342.588235-342.588235S143.058824 386.800941 143.058824 576c0 92.129882 36.502588 178.386824 100.352 242.236235a26.352941 26.352941 0 0 1-37.285648 37.285647A394.059294 394.059294 0 0 1 90.352941 576C90.352941 357.677176 267.324235 180.705882 485.647059 180.705882z" fill="#568af2" /><path d="M485.647059 198.264471c13.432471 0 24.515765 10.059294 26.142117 23.070117l0.210824 3.312941v70.264471a26.352941 26.352941 0 0 1-52.495059 3.312941l-0.210823-3.312941V224.617412c0-14.546824 11.806118-26.352941 26.352941-26.352941zM729.871059 329.637647a26.352941 26.352941 0 0 1 35.809882 38.520471l-2.650353 2.409411-54.603294 44.242824a26.352941 26.352941 0 0 1-35.779765-38.550588l2.620236-2.409412 54.603294-44.212706zM716.920471 611.087059a26.352941 26.352941 0 0 1 28.310588-20.329412l3.282823 0.542118 68.48753 15.811764a26.352941 26.352941 0 0 1-8.613647 51.892706l-3.252706-0.542117-68.48753-15.811765a26.352941 26.352941 0 0 1-19.727058-31.593412zM222.780235 591.299765a26.352941 26.352941 0 0 1 15.028706 50.416941l-3.19247 0.933647-68.457412 15.811765a26.352941 26.352941 0 0 1-15.058824-50.386824l3.192471-0.963765 68.487529-15.811764zM204.348235 333.522824a26.352941 26.352941 0 0 1 34.153412-5.963295l2.921412 2.078118 54.603294 44.212706a26.352941 26.352941 0 0 1-30.238118 43.008l-2.921411-2.048-54.603295-44.242824a26.352941 26.352941 0 0 1-3.915294-37.044705z" fill="#568af2" /></svg>