<svg class="icon" style="width: 1em;height: 1em;vertical-align: middle;fill: currentColor;overflow: hidden;" viewBox="0 0 1024 1024" version="1.1" xmlns="http://www.w3.org/2000/svg" width="32" height="32"><path d="M0 0h1024v1024H0z" fill="#568af2" fill-opacity="0" /><path d="M503.205647 150.588235c228.020706 0 412.882824 184.832 412.882824 412.852706 0 110.983529-44.032 215.04-120.922353 291.960471a26.352941 26.352941 0 0 1-37.285647-37.285647 358.881882 358.881882 0 0 0 105.502117-254.674824c0-198.896941-161.249882-360.146824-360.176941-360.146823-198.896941 0-360.146824 161.249882-360.146823 360.146823 0 96.858353 38.369882 187.542588 105.502117 254.674824a26.352941 26.352941 0 1 1-37.285647 37.285647A411.587765 411.587765 0 0 1 90.352941 563.440941C90.352941 335.450353 275.184941 150.588235 503.205647 150.588235z" fill="#568af2" /><path d="M503.205647 291.147294a26.352941 26.352941 0 1 1 0 52.705882 219.617882 219.617882 0 0 0-155.286588 374.874353 26.352941 26.352941 0 1 1-37.25553 37.285647 272.323765 272.323765 0 0 1 192.542118-464.865882z" fill="#568af2" /><path d="M503.205647 396.559059c13.432471 0 24.545882 10.029176 26.172235 23.04l0.180706 3.312941v140.528941a26.352941 26.352941 0 0 1-52.495059 3.312941l-0.210823-3.312941v-140.528941c0-14.576941 11.806118-26.352941 26.352941-26.352941z" fill="#568af2" /></svg>