<svg class="icon" style="width: 1em;height: 1em;vertical-align: middle;fill: currentColor;overflow: hidden;" viewBox="0 0 1024 1024" version="1.1" xmlns="http://www.w3.org/2000/svg" width="32" height="32"><path d="M0 0h1024v1024H0z" fill="#568af2" fill-opacity="0" /><path d="M724.088471 261.029647H267.294118A26.352941 26.352941 0 0 0 240.941176 287.382588v421.647059c0 14.546824 11.806118 26.352941 26.352942 26.352941h456.794353a26.352941 26.352941 0 0 0 26.352941-26.352941v-421.647059a26.352941 26.352941 0 0 0-26.352941-26.352941z m-26.383059 52.675765v368.941176H293.647059v-368.941176h404.058353z" fill="#568af2" /><path d="M495.676235 401.558588a96.617412 96.617412 0 1 0 0 193.264941 96.617412 96.617412 0 0 0 0-193.264941z m0 52.705883a43.911529 43.911529 0 1 1 0 87.853176 43.911529 43.911529 0 0 1 0-87.853176zM590.275765 120.470588c19.275294 0 36.352 12.257882 42.285176 30.268236l1.114353 3.945411 28.250353 122.970353a26.352941 26.352941 0 0 1-50.447059 14.968471l-0.903529-3.162353-26.744471-116.284235h-175.887059l-26.563764 115.591529-0.090353 1.897412a26.352941 26.352941 0 0 1-22.859294 22.859294l-3.312942 0.210823a26.352941 26.352941 0 0 1-26.322823-26.352941c0-2.198588 0.150588-4.367059 0.481882-6.505412l0.602353-3.222588 28.250353-122.970353a44.303059 44.303059 0 0 1 39.30353-34.032941L401.528471 120.470588H590.305882zM355.147294 682.676706c13.432471 0 24.515765 10.029176 26.142118 23.04l0.090353 1.867294 26.563764 115.621647h175.887059l26.714353-116.254118a26.352941 26.352941 0 0 1 28.310588-20.329411l3.282824 0.512c13.101176 3.011765 21.654588 15.299765 20.329412 28.310588l-0.542118 3.312941-28.250353 122.940235a44.303059 44.303059 0 0 1-39.303529 34.032942l-4.096 0.180705h-188.747294c-19.275294 0-36.352-12.257882-42.285177-30.268235l-1.114353-3.915294-28.250353-123.030588a43.459765 43.459765 0 0 1-1.084235-9.667765c0-14.576941 11.776-26.352941 26.352941-26.352941zM776.794353 331.294118c13.432471 0 24.515765 10.059294 26.142118 23.04l0.210823 3.312941v70.26447a26.352941 26.352941 0 0 1-52.525176 3.312942l-0.180706-3.312942v-70.26447c0-14.546824 11.776-26.352941 26.352941-26.352941z" fill="#568af2" /></svg>