<svg class="icon" style="width: 1em;height: 1em;vertical-align: middle;fill: currentColor;overflow: hidden;" viewBox="0 0 1024 1024" version="1.1" xmlns="http://www.w3.org/2000/svg" width="32" height="32"><path d="M505.735529 225.882353C326.234353 225.882353 180.705882 371.410824 180.705882 550.912s145.528471 324.999529 325.029647 324.999529 324.999529-145.498353 324.99953-324.999529S685.236706 225.882353 505.735529 225.882353z m0 52.705882a272.323765 272.323765 0 1 1 0 544.617412 272.323765 272.323765 0 0 1 0-544.617412z" fill="#568af2" /><path d="M733.063529 233.592471a26.352941 26.352941 0 0 1 39.604706 34.575058l-2.349176 2.710589-52.705883 52.705882a26.352941 26.352941 0 0 1-39.634823-34.575059l2.379294-2.710588 52.705882-52.705882zM505.735529 366.441412c13.432471 0 24.515765 10.029176 26.142118 23.04l0.210824 3.312941v158.117647a26.352941 26.352941 0 0 1-52.525177 3.312941l-0.180706-3.312941v-158.117647c0-14.576941 11.776-26.352941 26.352941-26.352941z" fill="#568af2" /></svg>