<svg class="icon" style="width: 1em;height: 1em;vertical-align: middle;fill: currentColor;overflow: hidden;" viewBox="0 0 1024 1024" version="1.1" xmlns="http://www.w3.org/2000/svg" width="32" height="32"><path d="M0 0h1024v1024H0z" fill="#568af2" fill-opacity="0" /><path d="M505.735529 225.882353C326.234353 225.882353 180.705882 371.410824 180.705882 550.912s145.528471 324.999529 325.029647 324.999529 324.999529-145.498353 324.99953-324.999529S685.236706 225.882353 505.735529 225.882353z m0 52.705882a272.323765 272.323765 0 1 1 0 544.617412 272.323765 272.323765 0 0 1 0-544.617412z" fill="#568af2" /><path d="M611.147294 120.470588a26.352941 26.352941 0 0 1 3.312941 52.495059l-3.312941 0.210824h-210.823529a26.352941 26.352941 0 0 1-3.312941-52.495059l3.312941-0.210824h210.823529z" fill="#568af2" fill-opacity="0" /><path d="M505.735529 384c13.432471 0 24.515765 10.059294 26.142118 23.04l0.210824 3.312941v140.559059a26.352941 26.352941 0 0 1-52.525177 3.312941l-0.180706-3.312941v-140.559059c0-14.546824 11.776-26.352941 26.352941-26.352941z" fill="#568af2" /><path d="M646.264471 524.559059a26.352941 26.352941 0 0 1 3.312941 52.495059l-3.312941 0.210823h-140.528942a26.352941 26.352941 0 0 1-3.312941-52.525176l3.312941-0.180706h140.528942z" fill="#568af2" /><path d="M505.735529 120.470588c13.432471 0 24.515765 10.059294 26.142118 23.04l0.210824 3.312941v70.264471a26.352941 26.352941 0 0 1-52.525177 3.312941l-0.180706-3.312941V146.823529c0-14.546824 11.776-26.352941 26.352941-26.352941z" fill="#568af2" fill-opacity="0" /></svg>