<svg class="icon" style="width: 1em;height: 1em;vertical-align: middle;fill: currentColor;overflow: hidden;" viewBox="0 0 1024 1024" version="1.1" xmlns="http://www.w3.org/2000/svg" width="32" height="32"><path d="M0 0h1024v1024H0z" fill="#568af2" fill-opacity="0" /><path d="M498.206118 120.470588c13.432471 0 24.515765 10.059294 26.142117 23.04l0.210824 3.312941v281.088a26.352941 26.352941 0 0 1-52.525177 3.312942l-0.180706-3.312942-0.030117-253.680941-7.920941 0.722824c-160.557176 16.865882-286.328471 150.588235-290.635294 314.578823l-0.090353 8.673883c0 179.501176 145.528471 324.999529 325.029647 324.999529s324.999529-145.498353 324.999529-324.999529a26.352941 26.352941 0 0 1 52.705882 0c0 208.594824-169.110588 377.705412-377.705411 377.705411C289.581176 875.911529 120.470588 706.800941 120.470588 498.206118 120.470588 289.581176 289.581176 120.470588 498.206118 120.470588z" fill="#568af2" /><path d="M498.206118 401.558588a96.617412 96.617412 0 1 0 0 193.264941 96.617412 96.617412 0 0 0 0-193.264941z m0 52.705883a43.911529 43.911529 0 1 1 0 87.853176 43.911529 43.911529 0 0 1 0-87.853176z" fill="#568af2" /></svg>