<svg class="icon" style="width: 1em;height: 1em;vertical-align: middle;fill: currentColor;overflow: hidden;" viewBox="0 0 1024 1024" version="1.1" xmlns="http://www.w3.org/2000/svg" width="32" height="32"><path d="M0 0h1024v1024H0z" fill="#568af2" fill-opacity="0" /><path d="M505.735529 278.106353a184.470588 184.470588 0 0 0-184.470588 184.470588c0 61.952 32.677647 121.856 86.256941 178.447059 18.221176 19.215059 37.647059 36.713412 57.072942 52.163765l9.426823 7.348706 8.041412 6.023529 6.445176 4.577882 2.590118 1.776942a26.352941 26.352941 0 0 0 29.244235 0l5.632-3.915295 11.444706-8.432941 9.426824-7.378823a555.640471 555.640471 0 0 0 57.072941-52.163765c53.609412-56.591059 86.287059-116.495059 86.287059-178.447059a184.470588 184.470588 0 0 0-184.470589-184.470588z m0 52.705882a131.764706 131.764706 0 0 1 131.764706 131.764706c0 45.658353-26.624 94.479059-71.860706 142.185412a503.536941 503.536941 0 0 1-51.621647 47.194353l-8.31247 6.475294-8.282353-6.475294a503.536941 503.536941 0 0 1-51.621647-47.194353c-45.206588-47.706353-71.830588-96.527059-71.830588-142.155294a131.764706 131.764706 0 0 1 131.764705-131.794824z" fill="#568af2" /><path d="M505.735529 383.518118a79.058824 79.058824 0 1 0 0 158.117647 79.058824 79.058824 0 0 0 0-158.117647z m0 52.705882a26.352941 26.352941 0 1 1 0 52.705882 26.352941 26.352941 0 0 1 0-52.705882z" fill="#568af2" /><path d="M292.141176 230.912c88.184471-71.589647 195.824941-99.328 318.825412-56.771765 87.521882 30.298353 149.534118 83.335529 189.108706 152.244706a367.495529 367.495529 0 0 1 42.465882 117.549177c4.126118 22.799059 5.722353 42.285176 5.812706 56.95247l-0.060235 6.625883a26.352941 26.352941 0 0 1-52.585412 1.295058l-0.060235-3.674353a272.022588 272.022588 0 0 0-4.999529-51.742117 315.331765 315.331765 0 0 0-36.291765-100.773647c-33.370353-58.127059-85.413647-102.640941-160.617412-128.662588-104.116706-36.050824-193.355294-13.040941-268.348235 47.887058-17.709176 14.336-33.129412 29.756235-46.08 45.116236l-5.963294 7.228235-4.608 5.933176-4.457412 6.324706a26.352941 26.352941 0 0 1-44.152471-28.79247C233.020235 287.864471 257.114353 259.312941 292.141176 230.912z" fill="#568af2" /><path d="M821.970824 190.283294c13.432471 0 24.515765 10.029176 26.142117 23.04l0.210824 3.312941v281.088a26.352941 26.352941 0 0 1-52.525177 3.312941l-0.180706-3.312941V216.636235c0-14.576941 11.776-26.352941 26.352942-26.352941zM189.500235 471.341176c13.432471 0 24.515765 10.089412 26.142118 23.070118l0.572235 11.745882 0.240941 3.312942c0.783059 10.089412 2.228706 21.443765 4.48753 33.701647a339.275294 339.275294 0 0 0 35.870117 102.460235c36.050824 65.415529 93.003294 112.399059 176.489412 134.023529 106.767059 27.708235 191.457882 3.403294 257.686588-54.211764a291.538824 291.538824 0 0 0 42.164706-45.327059l5.210353-7.198118c0.752941-1.084235 1.505882-2.138353 2.138353-3.132235l3.403294-5.240471 2.228706-3.764706a26.352941 26.352941 0 0 1 46.260706 25.238589c-11.203765 20.540235-33.129412 49.935059-66.800941 79.209411-78.697412 68.427294-180.946824 97.761882-305.543529 65.445648-98.063059-25.419294-166.610824-81.950118-209.377883-159.62353a391.318588 391.318588 0 0 1-41.562353-118.362353c-4.457412-24.274824-5.963294-43.429647-5.963294-54.964706 0-14.546824 11.776-26.352941 26.352941-26.352941z" fill="#568af2" /><path d="M189.500235 471.341176c13.432471 0 24.515765 10.089412 26.142118 23.070118l0.210823 3.312941v281.088a26.352941 26.352941 0 0 1-52.525176 3.312941l-0.180706-3.312941v-281.088c0-14.546824 11.776-26.352941 26.352941-26.352941z" fill="#568af2" /></svg>