<svg class="icon" style="width: 1em;height: 1em;vertical-align: middle;fill: currentColor;overflow: hidden;" viewBox="0 0 1024 1024" version="1.1" xmlns="http://www.w3.org/2000/svg" width="32" height="32"><path d="M853.323294 480.617412c22.377412 0 34.093176 25.750588 20.811294 42.556235l-2.16847 2.439529-140.559059 140.559059a26.352941 26.352941 0 0 1-15.149177 7.469177l-3.463529 0.240941h-61.500235a26.352941 26.352941 0 0 1-3.312942-52.495059l3.312942-0.210823h50.537411l87.853177-87.853177H273.558588c-4.547765 0-9.035294 1.204706-12.950588 3.433412l-2.861176 1.837176-57.404236 43.068236 72.432941 36.683294c2.740706 1.385412 5.722353 2.288941 8.794353 2.650353l3.102118 0.180706h24.033882a26.352941 26.352941 0 0 1 3.312942 52.495058l-3.312942 0.210824h-24.033882c-10.360471 0-20.570353-2.017882-30.087529-5.933177l-5.632-2.590117-110.260706-55.808a26.352941 26.352941 0 0 1-6.625883-42.255059l2.710589-2.349176 91.346823-68.517648c11.986824-8.975059 26.202353-14.336 41.050353-15.540705l6.384941-0.271059h579.764706z" fill="#568af2" /><path d="M414.117647 586.029176a26.352941 26.352941 0 0 0-26.352941 26.352942v105.411764c0 14.576941 11.806118 26.352941 26.352941 26.352942 91.316706 0 166.912-28.310588 166.912-79.058824 0-50.718118-75.595294-79.058824-166.912-79.058824z m26.352941 53.729883l4.096 0.301176c22.889412 2.078118 43.550118 6.415059 59.693177 12.438589 6.294588 2.379294 11.203765 4.698353 14.938353 6.716235l4.668235 2.740706 2.981647 2.017882 1.475765 1.114353-2.770824 2.048a61.590588 61.590588 0 0 1-1.686588 1.084235l-4.668235 2.740706a118.874353 118.874353 0 0 1-14.938353 6.716235l-7.198118 2.499765a249.012706 249.012706 0 0 1-52.495059 9.938824l-4.096 0.271059v-50.627765zM730.352941 304.941176l-3.463529 0.240942a26.352941 26.352941 0 0 0-15.179294 7.469176l-101.948236 101.948235-153.630117 68.306824c-26.021647 11.565176-17.769412 50.416941 10.691764 50.416941h263.529412a26.352941 26.352941 0 0 0 25.238588-18.763294l52.705883-175.706353A26.352941 26.352941 0 0 0 783.058824 304.941176h-52.705883z m17.257412 52.705883l-36.894118 122.970353h-119.747764l44.66447-19.817412 2.861177-1.505882a26.352941 26.352941 0 0 0 5.089882-3.945412l97.641412-97.701647h6.384941z" fill="#568af2" /></svg>