<svg class="icon" style="width: 1em;height: 1em;vertical-align: middle;fill: currentColor;overflow: hidden;" viewBox="0 0 1024 1024" version="1.1" xmlns="http://www.w3.org/2000/svg" width="32" height="32"><path d="M818.206118 124.235294h-632.470589a61.500235 61.500235 0 0 0-61.500235 61.500235v632.470589c0 33.942588 27.527529 61.470118 61.500235 61.470117h632.470589a61.500235 61.500235 0 0 0 61.470117-61.470117v-632.470589a61.500235 61.500235 0 0 0-61.470117-61.500235z m-632.470589 52.705882h632.470589c4.818824 0 8.764235 3.915294 8.764235 8.794353v632.470589c0 4.818824-3.915294 8.764235-8.764235 8.764235h-632.470589a8.794353 8.794353 0 0 1-8.794353-8.764235v-632.470589c0-4.848941 3.915294-8.794353 8.794353-8.794353z" fill="#568af2" /><path d="M739.056941 266.330353a26.352941 26.352941 0 0 1 20.781177 48.308706l-3.041883 1.325176-491.941647 175.676236a26.352941 26.352941 0 0 1-20.781176-48.338824l3.072-1.295059 491.911529-175.676235zM739.056941 389.300706a26.352941 26.352941 0 0 1 20.781177 48.338823l-3.041883 1.295059-491.941647 175.676236a26.352941 26.352941 0 0 1-20.781176-48.308706l3.072-1.325177 491.911529-175.676235zM739.056941 512.301176a26.352941 26.352941 0 0 1 20.781177 48.308706l-3.041883 1.295059-491.941647 175.706353a26.352941 26.352941 0 0 1-20.781176-48.338823l3.072-1.295059 491.911529-175.706353z" fill="#568af2" /><path d="M299.459765 248.892235a26.352941 26.352941 0 0 1 32.557176 12.408471l1.355294 3.011765 52.705883 140.559058a26.352941 26.352941 0 0 1-47.977412 21.534118l-1.355294-3.011765L284.009412 282.804706a26.352941 26.352941 0 0 1 15.420235-33.942588zM668.400941 547.538824a26.352941 26.352941 0 0 1 32.557177 12.40847l1.355294 3.011765 52.705882 140.559059a26.352941 26.352941 0 0 1-47.977412 21.534117l-1.355294-3.011764-52.705882-140.559059a26.352941 26.352941 0 0 1 15.420235-33.912471z" fill="#568af2" /></svg>