<svg class="icon" style="width: 1em;height: 1em;vertical-align: middle;fill: currentColor;overflow: hidden;" viewBox="0 0 1024 1024" version="1.1" xmlns="http://www.w3.org/2000/svg" width="32" height="32"><path d="M0 0h1024v1024H0z" fill="#568af2" fill-opacity="0" /><path d="M501.970824 124.235294C293.345882 124.235294 124.235294 293.345882 124.235294 501.970824c0 208.594824 169.110588 377.705412 377.73553 377.705411 208.594824 0 377.705412-169.110588 377.705411-377.705411 0-208.624941-169.110588-377.735529-377.705411-377.73553z m0 52.705882c179.501176 0 324.999529 145.528471 324.999529 325.029648s-145.498353 324.999529-324.999529 324.999529S176.941176 681.472 176.941176 501.970824 322.469647 176.941176 501.970824 176.941176z" fill="#568af2" /><path d="M581.782588 138.179765a26.352941 26.352941 0 0 1 29.545412 39.424l-1.114353 1.505882v1.144471c0 2.078118 0.090353 4.457412 0.301177 7.168l0.903529 9.005176c0.180706 1.656471 0.391529 3.373176 0.662588 5.180235l1.807059 11.715765 1.114353 6.505412c1.957647 10.842353 4.939294 15.600941 12.348235 20.781176l4.156236 2.650353 5.421176 3.252706c27.858824 16.685176 39.333647 36.623059 33.370353 74.812235-6.656 42.676706-27.256471 56.169412-68.065882 59.994353l-17.227295 1.41553-5.421176 0.662588-4.517647 0.843294c-0.752941 0.150588-1.505882 0.301176-2.228706 0.512a41.411765 41.411765 0 0 0-17.980235 9.065412c-4.577882 4.005647-6.445176 10.480941-5.782588 25.238588l0.602352 8.884706c0.150588 1.656471 0.301176 3.343059 0.512 5.12l1.987765 16.956235c6.836706 55.567059 0.722824 86.377412-38.249412 108.122353a79.631059 79.631059 0 0 1-43.550117 10.149647c-21.353412-1.084235-38.942118-8.131765-64.632471-23.732706l-28.370823-17.859764-11.384471-6.806588-5.933176-3.252706-4.758589-2.349177a53.669647 53.669647 0 0 0-1.987764-0.843294l-3.312942-1.144471c-2.349176-0.602353-3.855059-0.542118-4.909176 0-5.722353 3.132235-9.396706 10.541176-12.077176 26.895059l-1.385412 9.818353-3.041883 31.021177c-3.674353 33.731765-8.854588 49.182118-25.238588 64.12047-29.485176 26.895059-72.824471 26.895059-127.427765 4.99953a26.352941 26.352941 0 1 1 19.606589-48.941177c37.888 15.209412 61.138824 15.209412 72.282353 4.99953 1.807059-1.626353 3.312941-4.367059 4.608-8.944942l1.234823-5.210352 1.174588-6.595765 1.084236-8.131765 1.054117-9.818353 0.963765-10.480941c4.457412-49.543529 12.378353-73.878588 41.953882-89.991529 22.558118-12.288 37.315765-11.444706 66.288942 4.547764l10.24 5.903059 11.444705 7.04753 12.890353 8.192c3.945412 2.56 7.649882 4.879059 11.083295 6.987294l9.637647 5.632c13.552941 7.529412 22.949647 10.872471 31.623529 11.324235a27.015529 27.015529 0 0 0 15.149176-3.553882c12.047059-6.716235 15.329882-16.926118 12.890353-43.971765l-3.523764-30.960941c-4.367059-42.556235-0.602353-62.885647 22.678588-83.124706 11.806118-10.300235 24.997647-16.775529 39.845647-20.48l7.047529-1.566118 7.077647-1.114353 8.192-0.873412 17.980236-1.385411 5.782588-0.602353c7.378824-1.024 9.517176-2.831059 10.842353-8.192l1.204706-6.656 0.903529-6.354824c0.903529-7.077647 0.120471-9.065412-4.818823-12.348235l-11.926589-7.228235c-21.383529-13.372235-34.213647-29.906824-39.273411-58.127059l-3.222589-19.034353-1.596235-11.203765c-4.728471-37.285647-0.180706-53.910588 23.491765-60.717176zM633.163294 559.134118c55.024941-28.852706 122.187294 0.813176 202.24 80.414117a26.352941 26.352941 0 0 1-37.135059 37.345883c-65.415529-64.993882-112.549647-85.835294-140.649411-71.077647-14.305882 7.499294-21.805176 14.576941-25.208471 21.534117-2.168471 4.427294-2.951529 8.704-2.921412 17.106824l0.210824 8.31247c0.722824 17.709176 0.331294 25.509647-3.794824 36.623059a73.607529 73.607529 0 0 1-18.974117 28.822588l-9.035295 8.432942c-1.656471 1.505882-2.951529 2.800941-4.126117 4.035764-6.023529 6.324706-10.24 13.342118-14.034824 25.268706-5.812706 18.191059 2.499765 40.146824 29.274353 67.553883a26.352941 26.352941 0 1 1-37.677176 36.833882c-39.092706-39.996235-54.482824-80.685176-41.833412-120.380235 6.264471-19.636706 14.637176-33.641412 26.142118-45.688471l3.011764-3.041882 8.432941-7.890824c5.842824-5.360941 7.770353-7.860706 9.396706-12.257882a9.878588 9.878588 0 0 0 0.481883-1.957647l0.271059-3.011765v-4.517647l-0.210824-6.686118c-0.903529-22.588235 0.240941-34.785882 8.011294-50.688 8.734118-17.889882 24.485647-32.707765 48.128-45.086117z" fill="#568af2" /></svg>