<svg class="icon" style="width: 1em;height: 1em;vertical-align: middle;fill: currentColor;overflow: hidden;" viewBox="0 0 1024 1024" version="1.1" xmlns="http://www.w3.org/2000/svg" width="32" height="32"><path d="M525.733647 214.588235c-169.803294 0-307.471059 137.637647-307.471059 307.440941s137.637647 307.471059 307.471059 307.471059c169.803294 0 307.440941-137.637647 307.440941-307.471059 0-169.803294-137.637647-307.440941-307.440941-307.440941z m0 52.705883a254.735059 254.735059 0 1 1 0 509.500235 254.735059 254.735059 0 0 1 0-509.500235z" fill="#568af2" /><path d="M763.000471 346.533647l3.312941 0.090353c86.226824 7.529412 144.685176 35.659294 158.208 86.136471 19.395765 72.432941-67.794824 154.593882-206.004706 215.853176l-18.341647 7.890824c-18.582588 7.740235-38.008471 15.088941-58.127059 22.016l-20.359529 6.77647c-10.300235 3.312941-20.781176 6.505412-31.352471 9.577412l-21.413647 5.963294c-18.311529 4.879059-36.442353 9.276235-54.332235 13.101177l-21.38353 4.367058c-7.047529 1.385412-14.064941 2.650353-21.082353 3.855059l-20.781176 3.343059c-6.836706 1.024-13.673412 1.987765-20.419765 2.831059l-20.08847 2.319059c-6.625882 0.692706-13.191529 1.295059-19.666824 1.807058l-19.275294 1.295059c-129.987765 7.137882-227.388235-21.684706-244.976941-87.280941-14.095059-52.705882 26.292706-108.754824 103.424-160.165647a26.352941 26.352941 0 1 1 29.214117 43.851294c-60.205176 40.116706-88.094118 78.848-81.709176 102.671059 9.276235 34.635294 82.944 53.157647 185.584941 48.218353l17.377882-1.024 8.854589-0.692706 18.130823-1.686588 18.552471-2.168471 18.974117-2.620235 19.305412-3.072c16.263529-2.770824 32.858353-6.023529 49.724235-9.818353l20.35953-4.788706 20.570353-5.270588c28.039529-7.529412 54.964706-15.992471 80.474353-25.208471l18.823529-7.017411 18.281412-7.228236 17.709176-7.499294c11.565176-5.029647 22.738824-10.24 33.460706-15.48047l15.721412-7.951059c7.710118-3.975529 15.119059-8.041412 22.256941-12.107294l13.884236-8.131765c11.264-6.866824 21.684706-13.733647 31.232-20.570353l11.023058-8.192c40.538353-31.322353 61.500235-61.590588 55.476706-84.118588-6.023529-22.497882-45.477647-41.472-111.887059-47.284706a26.352941 26.352941 0 0 1 1.264942-52.585412z" fill="#568af2" /></svg>