<svg class="icon" style="width: 1em;height: 1em;vertical-align: middle;fill: currentColor;overflow: hidden;" viewBox="0 0 1024 1024" version="1.1" xmlns="http://www.w3.org/2000/svg" width="32" height="32"><path d="M522.029176 124.235294c-169.411765 0-307.440941 129.385412-307.440941 289.882353 0 96.316235 44.694588 194.288941 120.771765 290.816a1021.530353 1021.530353 0 0 0 146.763294 150.136471l16.926118 13.763764 7.168 5.571765a26.352941 26.352941 0 0 0 31.623529 0l9.426824-7.348706 15.811764-12.950588 13.342118-11.414588a1064.056471 1064.056471 0 0 0 106.104471-106.074353c91.587765-105.923765 146.974118-214.919529 146.974117-322.499765 0-160.496941-138.029176-289.882353-307.471059-289.882353z m0 52.705882c141.071059 0 254.765176 106.586353 254.765177 237.176471 0 92.280471-50.055529 190.795294-134.144 288.015059a1011.892706 1011.892706 0 0 1-94.147765 94.960941l-8.282353 7.228235-10.480941 8.944942-7.710118 6.384941 5.059765 4.126117a971.595294 971.595294 0 0 1-150.347294-151.491764c-69.421176-88.064-109.447529-175.826824-109.447529-258.168471 0-130.590118 113.694118-237.176471 254.735058-237.176471z" fill="#568af2" /><path d="M469.323294 299.911529c13.432471 0 24.545882 10.059294 26.172235 23.070118l0.180706 3.312941v281.088a26.352941 26.352941 0 0 1-52.495059 3.312941l-0.210823-3.312941v-281.118117c0-14.546824 11.806118-26.352941 26.352941-26.352942z" fill="#568af2" /><path d="M574.735059 299.911529h-105.411765a26.352941 26.352941 0 0 0-26.352941 26.352942V466.823529c0 14.546824 11.806118 26.352941 26.352941 26.352942h105.411765a96.617412 96.617412 0 0 0 0-193.264942z m-79.058824 140.559059v-87.853176h79.058824a43.911529 43.911529 0 0 1 0 87.853176h-79.058824z" fill="#568af2" /></svg>