<svg class="icon" style="width: 1em;height: 1em;vertical-align: middle;fill: currentColor;overflow: hidden;" viewBox="0 0 1024 1024" version="1.1" xmlns="http://www.w3.org/2000/svg" width="32" height="32"><path d="M475.075765 191.216941a61.500235 61.500235 0 0 1 81.317647-31.563294l4.186353 2.048 194.800941 104.929882a26.352941 26.352941 0 0 1-21.985882 47.766589l-3.011765-1.385412-194.800941-104.899765a8.794353 8.794353 0 0 0-11.14353 2.379294l-1.054117 1.837177-107.700706 246.181647a26.352941 26.352941 0 0 1-49.423059-18.010353l1.114353-3.132235 107.700706-246.15153z" fill="#568af2" /><path d="M848.323765 263.469176c13.432471 0 24.515765 10.059294 26.142117 23.04l0.210824 3.312942V799.322353a26.352941 26.352941 0 0 1-23.070118 26.142118l-3.312941 0.210823h-281.088a26.352941 26.352941 0 0 1-26.142118-23.070118l-0.210823-3.312941v-70.26447a26.352941 26.352941 0 0 1 52.525176-3.312941l0.180706 3.312941v43.911529h228.382118V316.144941h-228.382118v307.501177a26.352941 26.352941 0 0 1-23.04 26.112l-3.312941 0.210823a26.352941 26.352941 0 0 1-26.142118-23.04l-0.210823-3.312941V289.822118c0-13.432471 10.059294-24.515765 23.070118-26.142118l3.312941-0.210824h281.088z" fill="#568af2" /><path d="M575.819294 392.071529l0.180706 3.162353v158.117647c0 16.082824-14.155294 28.129882-29.635765 26.142118l-8.192-1.566118a150.889412 150.889412 0 0 0-2.800941-0.421647c-25.178353-3.644235-53.217882-1.957647-78.908235 8.734118a116.254118 116.254118 0 0 0-18.281412 9.577412 27.136 27.136 0 0 0-9.728 12.468706l-0.180706 1.084235 1.566118 1.114353c3.011765 1.867294 8.131765 3.614118 15.48047 4.969412l4.698353 0.722823c15.269647 2.078118 36.141176 0.602353 64.481883-4.246588l16.233411-3.011765 8.673883-1.716706 27.407059-5.933176 37.49647-8.432941 28.912941-6.204236 13.372236-2.590117 7.589647-1.295059 6.686117-0.993882 5.963295-0.662589 5.360941-0.391529 4.939294-0.120471 4.608 0.120471 4.487529 0.361412 6.746353 0.903529c30.539294 4.909176 43.911529 28.641882 40.658824 56.982588-1.807059 15.36-7.860706 31.322353-16.26353 47.405177a55.717647 55.717647 0 0 1-28.310588 25.660235 912.082824 912.082824 0 0 1-131.373176 42.616471l-10.24 2.409411-10.360471 2.168471-10.752 2.017882-11.535059 1.92753-12.649412 1.927529-21.955764 3.011765-66.650353 8.342588-12.438588 1.746824c-2.228706 0.301176-5.059765 1.746824-9.336471 5.210353l-3.463529 3.162353-27.708236 27.045647-6.324706 5.933176-2.469647 2.228706c-42.315294 36.864-94.027294 56.621176-171.098353 56.621176a26.352941 26.352941 0 0 1 0-52.705882c64.210824 0 103.664941-15.058824 136.493177-43.670588l2.409412-2.198588 29.394823-28.611765 7.168-6.656a67.162353 67.162353 0 0 1 2.469647-2.138353c11.053176-8.944941 22.106353-14.546824 34.936471-16.384l48.278588-6.264471 38.279529-4.818823 19.636706-2.800941 16.655059-2.710589 5.089882-0.903529 9.697883-1.927529 14.004706-3.162353a860.461176 860.461176 0 0 0 123.693176-40.116706c0.963765-0.391529 1.505882-0.903529 1.746824-1.325177 4.818824-9.306353 8.523294-18.552471 10.029176-25.690353l0.451765-2.710588-2.710588-0.090353-3.855059 0.120471-4.517647 0.361412-5.300706 0.662588-9.788235 1.566117-7.920942 1.505883-25.780705 5.391059-61.771295 13.763764c-6.957176 1.475765-13.643294 2.831059-20.028235 4.065883l-18.371765 3.343059c-32.286118 5.421176-57.042824 6.987294-78.155294 4.126117-42.315294-5.722353-67.824941-26.955294-67.463529-59.00047 0.240941-22.799059 15.269647-45.718588 34.183529-57.886118 8.463059-5.451294 17.347765-10.089412 26.563765-13.914353a195.282824 195.282824 0 0 1 80.805647-14.486588l6.264471 0.271059v-93.244236l-8.734118 2.680471-16.896 5.360941a1159.830588 1159.830588 0 0 0-129.355294 50.356706c-67.764706 31.563294-119.868235 66.078118-149.775059 101.978353a26.352941 26.352941 0 1 1-40.508235-33.731765c35.900235-43.098353 93.846588-81.468235 168.05647-116.013176a1211.331765 1211.331765 0 0 1 135.258353-52.705883c12.077176-3.915294 23.491765-7.469176 34.153412-10.601411l19.034353-5.451295 8.583529-2.319058a26.352941 26.352941 0 0 1 32.707765 22.377411zM848.323765 421.586824a26.352941 26.352941 0 0 1 3.312941 52.495058l-3.312941 0.210824h-175.706353a26.352941 26.352941 0 0 1-3.312941-52.495059l3.312941-0.210823h175.706353z" fill="#568af2" /></svg>