<svg class="icon" style="width: 1em;height: 1em;vertical-align: middle;fill: currentColor;overflow: hidden;" viewBox="0 0 1024 1024" version="1.1" xmlns="http://www.w3.org/2000/svg" width="32" height="32"><path d="M683.610353 158.268235l-439.085177 270.155294-55.536941-55.536941a26.352941 26.352941 0 0 0-43.911529 11.14353l-3.312941 11.986823c-2.409412 9.185882-4.818824 19.124706-7.04753 29.57553a524.468706 524.468706 0 0 0-8.222117 47.917176c-2.409412 20.449882-3.011765 38.580706-1.234824 54.121412 7.830588 68.909176 79.179294 114.145882 141.342118 82.55247l7.890823-4.397176 101.918118-62.253177 409.419294-253.409882 83.606588-51.892706c20.058353-12.468706 14.848-42.977882-8.192-48.097882l-158.117647-35.147294a26.352941 26.352941 0 0 0-19.516235 3.282823z m18.492235 50.477177l84.600471 18.793412-520.432941 321.686588-21.263059 12.739764c-28.220235 16.293647-63.397647-5.210353-67.373177-40.267294-1.234824-10.902588-0.783059-25.208471 1.204706-41.923764l1.385412-10.360471c1.024-6.987294 2.288941-14.215529 3.704471-21.594353l0.933647-4.517647 37.135058 37.135059a26.352941 26.352941 0 0 0 32.436706 3.824941L702.102588 208.715294z" fill="#568af2" /><path d="M271.661176 213.835294l3.312942 0.120471 267.083294 28.400941a26.352941 26.352941 0 0 1-2.258824 52.555294l-3.312941-0.150588-258.529882-27.497412-12.016941 6.927059 98.725647 98.695529c9.426824 9.456941 10.24 24.244706 2.349176 34.575059l-2.349176 2.710588a26.352941 26.352941 0 0 1-34.575059 2.349177l-2.710588-2.349177-122.970353-123.00047a26.352941 26.352941 0 0 1 2.620235-39.544471l2.831059-1.897412L259.011765 217.359059a26.352941 26.352941 0 0 1 12.649411-3.523765zM820.404706 628.705882c13.402353 0 24.485647 10.059294 26.112 23.04l0.210823 3.312942v70.26447a26.352941 26.352941 0 0 1-23.04 26.172235l-3.312941 0.180706h-243.83247l36.020706 45.025883a26.352941 26.352941 0 0 1-1.475765 34.635294l-2.650353 2.409412a26.352941 26.352941 0 0 1-34.635294-1.475765l-2.409412-2.620235-70.264471-87.853177a26.352941 26.352941 0 0 1 17.347765-42.616471l3.222588-0.210823h272.323765V655.058824c0-13.432471 10.059294-24.515765 23.04-26.142118l3.312941-0.210824zM628.254118 511.488a26.352941 26.352941 0 0 1 34.605176 1.505882l2.409412 2.620236 70.26447 87.853176a26.352941 26.352941 0 0 1-17.317647 42.616471l-3.252705 0.180706h-272.323765v43.941647a26.352941 26.352941 0 0 1-23.04 26.142117l-3.312941 0.210824a26.352941 26.352941 0 0 1-26.142118-23.070118l-0.210824-3.312941v-70.264471c0-13.432471 10.059294-24.515765 23.070118-26.142117l3.312941-0.210824h243.802353l-35.990588-45.025882a26.352941 26.352941 0 0 1 1.445647-34.635294l2.650353-2.409412z" fill="#568af2" /></svg>