<svg class="icon" style="width: 1em;height: 1em;vertical-align: middle;fill: currentColor;overflow: hidden;" viewBox="0 0 1024 1024" version="1.1" xmlns="http://www.w3.org/2000/svg" width="32" height="32"><path d="M725.172706 678.369882a26.352941 26.352941 0 0 1 32.828235-17.679058c75.836235 22.768941 121.675294 55.265882 121.675294 99.779764 0 58.458353-87.04 100.984471-213.865411 120.259765l-18.853648 2.650353c-9.547294 1.264941-19.305412 2.379294-29.244235 3.343059l-20.118588 1.807059-20.570353 1.445647-10.420706 0.602353-21.202823 0.903529c-3.553882 0.150588-7.137882 0.240941-10.721883 0.331294l-21.744941 0.361412-10.962823 0.060235-10.992942-0.060235-21.714823-0.361412-10.752-0.301176-21.172706-0.933647a1154.469647 1154.469647 0 0 1-10.450824-0.602353l-20.570353-1.445647-20.118588-1.807059c-9.938824-0.963765-19.696941-2.108235-29.214117-3.312941l-18.853647-2.680471c-126.825412-19.275294-213.895529-61.801412-213.89553-120.259765 0-44.513882 45.839059-77.010824 121.675294-99.779764a26.352941 26.352941 0 1 1 15.179294 50.477176c-55.115294 16.534588-84.148706 37.135059-84.148706 49.302588 0 12.167529 29.033412 32.768 84.148706 49.302588 62.825412 18.853647 148.841412 29.756235 240.880942 29.756236s178.055529-10.902588 240.880941-29.756236c55.085176-16.534588 84.118588-37.135059 84.118588-49.302588 0-12.167529-29.033412-32.768-84.118588-49.302588a26.352941 26.352941 0 0 1-17.679059-32.828235z" fill="#568af2" /><path d="M501.970824 154.352941c-140.559059 0-254.765176 111.405176-254.765177 249.163294 0 83.817412 45.959529 165.918118 121.645177 243.952941 25.901176 26.714353 53.549176 51.049412 81.227294 72.643765l14.004706 10.661647c2.258824 1.656471 4.427294 3.282824 6.595764 4.818824l9.035294 6.475294 7.830589 5.330823c8.734118 5.722353 20.088471 5.722353 28.822588 0l7.830588-5.330823 2.800941-1.987765a790.106353 790.106353 0 0 0 108.092236-92.611765c75.655529-78.034824 121.615059-160.135529 121.615058-243.952941 0-137.758118-114.206118-249.163294-254.735058-249.163294z m0 52.705883c111.736471 0 202.029176 88.094118 202.029176 196.457411 0 67.162353-39.695059 138.119529-106.767059 207.269647a738.032941 738.032941 0 0 1-75.776 67.764706l-13.040941 9.908706-6.475294 4.728471-12.830118-9.547294a738.032941 738.032941 0 0 1-82.432-72.884706c-67.041882-69.12-106.767059-140.047059-106.767059-207.23953 0-108.363294 90.322824-196.457412 202.059295-196.457411z" fill="#568af2" /><path d="M501.970824 294.912a114.206118 114.206118 0 1 0 0 228.382118 114.206118 114.206118 0 0 0 0-228.382118z m0 52.705882a61.500235 61.500235 0 1 1 0 122.970353 61.500235 61.500235 0 0 1 0-122.970353z" fill="#568af2" /></svg>