<svg class="icon" style="width: 1em;height: 1em;vertical-align: middle;fill: currentColor;overflow: hidden;" viewBox="0 0 1024 1024" version="1.1" xmlns="http://www.w3.org/2000/svg" width="32" height="32"><path d="M768 405.323294c13.432471 0 24.515765 10.059294 26.142118 23.070118l0.210823 3.312941v175.676235a166.912 166.912 0 0 1-160.346353 166.761412l-6.565647 0.120471h-245.940706a166.912 166.912 0 0 1-166.791529-160.346353l-0.120471-6.53553v-175.706353a26.352941 26.352941 0 0 1 52.495059-3.312941l0.210824 3.312941v175.706353a114.206118 114.206118 0 0 0 108.333176 114.025412l5.872941 0.150588h245.940706a114.206118 114.206118 0 0 0 114.05553-108.303059l0.150588-5.872941v-175.706353c0-14.546824 11.806118-26.352941 26.352941-26.352941z" fill="#568af2" /><path d="M680.146824 721.558588c13.432471 0 24.545882 10.059294 26.172235 23.070118l0.180706 3.312941v70.264471a26.352941 26.352941 0 0 1-52.495059 3.312941l-0.210824-3.312941v-70.294589c0-14.546824 11.806118-26.352941 26.352942-26.352941zM328.794353 721.558588c13.432471 0 24.515765 10.059294 26.142118 23.070118l0.210823 3.312941v70.264471a26.352941 26.352941 0 0 1-52.525176 3.312941l-0.180706-3.312941v-70.294589c0-14.546824 11.776-26.352941 26.352941-26.352941zM574.735059 826.970353a26.352941 26.352941 0 0 1 3.312941 52.525176l-3.312941 0.180706h-140.528941a26.352941 26.352941 0 0 1-3.312942-52.495059l3.312942-0.210823h140.528941zM504.470588 124.235294c-147.757176 0-289.882353 144.564706-289.882353 243.531294v63.909647c0 14.576941 11.806118 26.352941 26.352941 26.352941h527.058824a26.352941 26.352941 0 0 0 26.352941-26.352941v-63.909647c0-98.966588-142.125176-243.531294-289.882353-243.531294z m7.228236 52.856471c116.013176 4.758588 229.948235 122.036706 229.948235 190.644706v37.586823H267.294118v-37.556706c0-70.053647 118.723765-190.825412 237.17647-190.825412l7.228236 0.150589zM416.617412 607.382588a35.147294 35.147294 0 1 0 0 70.264471 35.147294 35.147294 0 0 0 0-70.264471z m0 17.558588a17.558588 17.558588 0 1 1 0 35.147295 17.558588 17.558588 0 0 1 0-35.147295zM592.323765 607.382588a35.147294 35.147294 0 1 0 0 70.264471 35.147294 35.147294 0 0 0 0-70.264471z m0 17.558588a17.558588 17.558588 0 1 1 0 35.147295 17.558588 17.558588 0 0 1 0-35.147295z" fill="#568af2" /><path d="M539.617882 247.205647a26.352941 26.352941 0 0 1 3.312942 52.525177l-3.312942 0.180705h-70.294588a26.352941 26.352941 0 0 1-3.312941-52.495058l3.312941-0.210824h70.294588z" fill="#568af2" /></svg>