<svg class="icon" style="width: 1em;height: 1em;vertical-align: middle;fill: currentColor;overflow: hidden;" viewBox="0 0 1024 1024" version="1.1" xmlns="http://www.w3.org/2000/svg" width="32" height="32"><path d="M0 0h1024v1024H0z" fill="#568af2" fill-opacity="0" /><path d="M540.370824 261.662118a289.882353 289.882353 0 0 0-289.882353 289.882353 289.882353 289.882353 0 0 0 289.882353 289.882353 289.882353 289.882353 0 0 0 289.882352-289.882353 289.882353 289.882353 0 0 0-289.882352-289.882353z m0 52.705882a237.176471 237.176471 0 1 1 0 474.352941 237.176471 237.176471 0 0 1 0-474.352941z" fill="#568af2" /><path d="M524.438588 443.090824l0.783059 2.469647 0.903529 3.855058c7.981176 33.310118 0.361412 57.524706-37.104941 82.522353-60.747294 40.508235-157.214118 61.650824-224.707764 25.208471a26.352941 26.352941 0 0 1 25.027764-46.381177c46.592 25.178353 124.205176 8.131765 170.465883-22.678588l6.565647-4.517647c9.336471-6.625882 10.902588-9.637647 9.577411-16.926117l-1.084235-4.969412c-3.433412-14.426353-4.216471-20.510118-1.596235-31.171765 2.56-10.300235 6.806588-17.588706 14.125176-26.112l6.806589-7.559529c6.625882-7.168 8.222118-9.968941 8.613647-15.058824 1.234824-17.167059-14.757647-35.960471-45.568-53.187765a26.352941 26.352941 0 0 1 25.690353-46.019764c46.832941 26.202353 75.595294 59.934118 72.432941 103.03247-1.295059 17.618824-7.107765 29.334588-18.432 42.496l-8.704 9.637647-2.409412 2.95153a10.330353 10.330353 0 0 0-1.174588 1.807059l-0.210824 0.602353z" fill="#568af2" /><path d="M853.835294 185.374118a26.352941 26.352941 0 0 1 31.804235 33.761882l-4.005647 11.143529-3.102117 7.981177-1.807059 4.547765a961.536 961.536 0 0 1-144.022588 242.477176 801.882353 801.882353 0 0 1-123.301647 122.066824l-19.305412 15.058823-19.094588 14.456471-9.456942 7.017411-18.733176 13.552942c-6.174118 4.427294-12.348235 8.734118-18.432 12.950588l-18.191059 12.348235-8.975059 5.903059-17.769411 11.384471-17.408 10.721882-17.106824 10.059294-16.775529 9.396706c-5.511529 3.011765-10.992941 5.933176-16.414118 8.734118l-16.052706 8.011294c-111.104 53.820235-194.56 56.440471-229.737412-6.927059-38.249412-68.879059 25.389176-169.050353 105.622589-219.557647a26.352941 26.352941 0 0 1 28.099764 44.574117c-59.482353 37.436235-107.670588 113.332706-87.642353 149.38353 14.817882 26.684235 59.120941 26.593882 123.181177 1.355294l13.492706-5.601882c9.216-3.945412 18.763294-8.402824 28.672-13.312l15.119058-7.710118c7.649882-4.035765 15.510588-8.342588 23.552-12.920471l16.26353-9.487058c5.511529-3.252706 11.083294-6.656 16.715294-10.179765l17.167059-10.842353 17.52847-11.595294 17.92-12.257883 18.281412-12.950588 18.612706-13.613176 18.974118-14.305883 19.215059-14.998588a749.387294 749.387294 0 0 0 115.169882-114.085647 909.342118 909.342118 0 0 0 110.471529-172.212706l7.770353-16.082823 3.614118-7.800471 2.650353-5.963294-40.83953 10.902588a26.352941 26.352941 0 0 1-31.201882-15.510588l-1.054118-3.162353a26.352941 26.352941 0 0 1 15.540706-31.201882l3.132236-1.054118 91.858823-24.455529zM786.341647 595.456a26.352941 26.352941 0 0 1 0 52.705882l-2.499765 0.060236-6.656 0.451764a179.139765 179.139765 0 0 0-4.126117 0.421647l-9.637647 1.325177-5.421177 0.903529a216.365176 216.365176 0 0 0-64.873412 22.467765c-10.842353 5.933176-20.961882 12.830118-30.208 20.751059a158.599529 158.599529 0 0 0-34.93647 43.730823 229.044706 229.044706 0 0 0-21.564235 55.235765l-1.114353 4.638118-1.807059 8.222117-1.144471 6.565647-0.602353 4.758589a26.352941 26.352941 0 0 1-52.464941-5.240471c2.56-25.690353 11.866353-62.554353 32.647529-99.84a210.823529 210.823529 0 0 1 46.682353-58.127059 227.448471 227.448471 0 0 1 39.273412-26.955294c44.242824-24.094118 87.973647-32.075294 118.452706-32.075294z" fill="#568af2" /></svg>