<svg class="icon" style="width: 1em;height: 1em;vertical-align: middle;fill: currentColor;overflow: hidden;" viewBox="0 0 1024 1024" version="1.1" xmlns="http://www.w3.org/2000/svg" width="32" height="32"><path d="M0 0h1024v1024H0z" fill="#568af2" fill-opacity="0" /><path d="M268.860235 184.470588l3.312941 0.240941c13.312 1.867294 22.889412 13.342118 22.738824 26.443295l-0.271059 3.312941-87.823059 632.470588a26.352941 26.352941 0 0 1-52.464941-3.975529l0.240941-3.312942 87.853177-632.470588a26.352941 26.352941 0 0 1 26.413176-22.708706zM721.739294 184.711529a26.352941 26.352941 0 0 1 29.033412 19.275295l0.662588 3.222588 87.220706 631.687529a26.352941 26.352941 0 0 1-51.561412 10.450824l-0.662588-3.222589L699.241412 214.437647a26.352941 26.352941 0 0 1 22.497882-29.726118zM496.941176 184.470588c13.432471 0 24.515765 10.059294 26.142118 23.04l0.210824 3.312941v105.411765a26.352941 26.352941 0 0 1-52.495059 3.312941l-0.210824-3.312941V210.823529c0-14.546824 11.806118-26.352941 26.352941-26.352941zM496.941176 693.970824c13.432471 0 24.515765 10.029176 26.142118 23.04l0.210824 3.312941V843.294118a26.352941 26.352941 0 0 1-52.495059 3.312941l-0.210824-3.312941v-122.970353c0-14.576941 11.806118-26.352941 26.352941-26.352941zM496.941176 430.441412c13.432471 0 24.515765 10.029176 26.142118 23.04l0.210824 3.312941v122.970353a26.352941 26.352941 0 0 1-52.495059 3.312941l-0.210824-3.312941v-122.970353c0-14.576941 11.806118-26.352941 26.352941-26.352941z" fill="#568af2" /></svg>