<svg class="icon" style="width: 1em;height: 1em;vertical-align: middle;fill: currentColor;overflow: hidden;" viewBox="0 0 1024 1024" version="1.1" xmlns="http://www.w3.org/2000/svg" width="32" height="32"><path d="M765.741176 184.470588H228.141176a73.788235 73.788235 0 0 0-73.788235 73.788236v537.6a73.788235 73.788235 0 0 0 73.788235 73.788235h537.6a73.788235 73.788235 0 0 0 73.788236-73.788235V258.258824a73.788235 73.788235 0 0 0-73.788236-73.788236z m-537.6 52.705883h537.6a21.082353 21.082353 0 0 1 21.082353 21.082353v537.6a21.082353 21.082353 0 0 1-21.082353 21.082352H228.141176a21.082353 21.082353 0 0 1-21.082352-21.082352V258.258824a21.082353 21.082353 0 0 1 21.082352-21.082353z" fill="#568af2" /><path d="M697.374118 555.550118a26.352941 26.352941 0 0 1 23.732706 46.953411l-2.95153 1.505883-123.00047 52.705882a26.352941 26.352941 0 0 1-23.702589-46.983529l2.95153-1.505883 122.970353-52.705882zM433.844706 660.961882a26.352941 26.352941 0 0 1 23.732706 46.953412l-2.95153 1.505882-123.00047 52.705883a26.352941 26.352941 0 0 1-23.702588-46.98353l2.951529-1.505882 122.970353-52.705882zM356.382118 430.441412a79.058824 79.058824 0 0 0-79.058824 79.058823c0 26.744471 19.124706 64.993882 57.374118 120.380236a26.352941 26.352941 0 0 0 43.369412 0c38.249412-55.386353 57.374118-93.635765 57.374117-120.380236a79.058824 79.058824 0 0 0-79.058823-79.058823z m0 52.705882c14.576941 0 26.352941 11.776 26.352941 26.352941l-0.120471 2.048c-0.813176 6.716235-5.180235 17.829647-13.161412 32.737883l-5.872941 10.541176-7.198117 11.986824-3.855059-6.324706-6.384941-11.083294a313.765647 313.765647 0 0 1-5.330824-9.938824l-4.246588-8.794353c-4.367059-9.607529-6.535529-16.745412-6.53553-21.172706 0-14.576941 11.806118-26.352941 26.352942-26.352941zM637.500235 307.440941a79.058824 79.058824 0 0 0-79.058823 79.058824c0 26.774588 19.124706 65.054118 57.374117 120.410353a26.352941 26.352941 0 0 0 43.369412 0c38.249412-55.386353 57.374118-93.665882 57.374118-120.410353a79.058824 79.058824 0 0 0-79.058824-79.058824z m0 52.705883c14.546824 0 26.352941 11.806118 26.352941 26.352941l-0.150588 2.078117c-0.512 4.457412-2.650353 10.902588-6.384941 19.094589l-4.246588 8.794353-5.330824 9.938823-6.384941 11.083294-3.885176 6.354824-7.168-12.047059-5.872942-10.480941c-8.854588-16.564706-13.281882-28.461176-13.281882-34.816 0-14.546824 11.776-26.352941 26.352941-26.352941z" fill="#568af2" /></svg>