<svg class="icon" style="width: 1em;height: 1em;vertical-align: middle;fill: currentColor;overflow: hidden;" viewBox="0 0 1024 1024" version="1.1" xmlns="http://www.w3.org/2000/svg" width="32" height="32"><path d="M0 0h1024v1024H0z" fill="#568af2" fill-opacity="0" /><path d="M509.500235 238.441412c-179.501176 0-325.029647 145.498353-325.029647 324.999529S329.999059 888.470588 509.500235 888.470588s324.999529-145.528471 324.99953-325.029647S689.001412 238.441412 509.500235 238.441412z m0 52.705882a272.323765 272.323765 0 1 1 0 544.617412 272.323765 272.323765 0 0 1 0-544.617412zM597.323294 133.029647a26.352941 26.352941 0 0 1 3.312941 52.495059l-3.312941 0.210823H421.647059a26.352941 26.352941 0 0 1-3.312941-52.525176l3.312941-0.180706h175.676235z" fill="#568af2" /><path d="M486.610824 427.369412l-70.264471 123.00047a26.352941 26.352941 0 0 0 0 26.142118l70.264471 123.000471a26.352941 26.352941 0 0 0 45.778823 0l70.264471-123.000471a26.352941 26.352941 0 0 0 0-26.142118l-70.294589-122.970353a26.352941 26.352941 0 0 0-45.748705 0z m22.859294 66.228706l39.936 69.842823-39.936 69.842824-39.905883-69.842824 39.905883-69.842823zM281.088 537.088a26.352941 26.352941 0 0 1 3.312941 52.525176l-3.312941 0.180706H210.823529a26.352941 26.352941 0 0 1-3.312941-52.495058l3.312941-0.210824h70.264471zM808.146824 537.088a26.352941 26.352941 0 0 1 3.312941 52.525176l-3.312941 0.180706H737.882353a26.352941 26.352941 0 0 1-3.312941-52.495058l3.312941-0.210824h70.264471zM509.500235 238.441412c13.432471 0 24.515765 10.029176 26.142118 23.04l0.210823 3.312941v70.264471a26.352941 26.352941 0 0 1-52.525176 3.312941l-0.180706-3.312941V264.794353c0-14.576941 11.776-26.352941 26.352941-26.352941zM509.500235 765.500235c13.432471 0 24.515765 10.029176 26.142118 23.04l0.210823 3.312941v70.264471a26.352941 26.352941 0 0 1-52.525176 3.312941l-0.180706-3.312941v-70.264471c0-14.576941 11.776-26.352941 26.352941-26.352941z" fill="#568af2" /><path d="M613.616941 815.164235a26.352941 26.352941 0 0 1 20.178824 48.700236 324.096 324.096 0 0 1-124.29553 24.606117c-43.188706 0-85.232941-8.432941-124.295529-24.606117a26.352941 26.352941 0 1 1 20.178823-48.700236 271.390118 271.390118 0 0 0 104.116706 20.600471 271.390118 271.390118 0 0 0 104.116706-20.600471zM209.076706 439.175529a26.352941 26.352941 0 1 1 48.700235 20.178824 271.420235 271.420235 0 0 0-20.60047 104.086588c0 36.231529 7.047529 71.408941 20.60047 104.116706a26.352941 26.352941 0 0 1-48.700235 20.178824 324.096 324.096 0 0 1-24.606118-124.29553c0-43.158588 8.432941-85.202824 24.606118-124.265412zM775.469176 424.899765a26.352941 26.352941 0 0 1 34.424471 14.275764c16.173176 39.062588 24.606118 81.106824 24.606118 124.265412 0 43.188706-8.432941 85.232941-24.606118 124.29553a26.352941 26.352941 0 1 1-48.700235-20.178824 271.390118 271.390118 0 0 0 20.60047-104.116706 271.390118 271.390118 0 0 0-20.60047-104.116706 26.352941 26.352941 0 0 1 14.275764-34.42447zM509.500235 238.441412c46.682353 0 92.039529 9.848471 133.692236 28.672a26.352941 26.352941 0 1 1-21.684706 48.037647 271.239529 271.239529 0 0 0-112.037647-24.003765c-39.152941 0-77.101176 8.252235-111.977412 24.003765a26.352941 26.352941 0 0 1-21.684706-48.037647 323.915294 323.915294 0 0 1 133.692235-28.672z" fill="#568af2" /></svg>