<svg class="icon" style="width: 1em;height: 1em;vertical-align: middle;fill: currentColor;overflow: hidden;" viewBox="0 0 1024 1024" version="1.1" xmlns="http://www.w3.org/2000/svg" width="32" height="32"><path d="M0 0h1024v1024H0z" fill="#568af2" fill-opacity="0" /><path d="M883.440941 289.882353H180.705882a26.352941 26.352941 0 0 0-26.352941 26.352941V843.294118c0 14.546824 11.806118 26.352941 26.352941 26.352941h702.735059a26.352941 26.352941 0 0 0 26.352941-26.352941V316.235294a26.352941 26.352941 0 0 0-26.352941-26.352941z m-26.352941 52.705882v474.352941H207.058824v-474.352941h650.029176z" fill="#568af2" /><path d="M321.264941 184.470588H180.705882A26.352941 26.352941 0 0 0 154.352941 210.823529v105.411765c0 14.546824 11.806118 26.352941 26.352941 26.352941h140.559059a26.352941 26.352941 0 0 0 26.352941-26.352941V210.823529a26.352941 26.352941 0 0 0-26.352941-26.352941z m-26.383059 52.705883v52.705882H207.058824v-52.705882h87.823058zM883.440941 184.470588h-140.528941a26.352941 26.352941 0 0 0-26.352941 26.352941v105.411765c0 14.546824 11.776 26.352941 26.352941 26.352941h140.528941a26.352941 26.352941 0 0 0 26.352941-26.352941V210.823529a26.352941 26.352941 0 0 0-26.352941-26.352941z m-26.352941 52.705883v52.705882h-87.853176v-52.705882h87.853176zM391.529412 448a26.352941 26.352941 0 0 1 3.312941 52.495059l-3.312941 0.210823H286.117647a26.352941 26.352941 0 0 1-3.312941-52.495058l3.312941-0.210824H391.529412zM778.029176 448a26.352941 26.352941 0 0 1 3.312942 52.495059l-3.312942 0.210823h-105.411764a26.352941 26.352941 0 0 1-3.312941-52.495058l3.312941-0.210824h105.411764z" fill="#568af2" /><path d="M338.823529 395.294118c13.432471 0 24.515765 10.059294 26.142118 23.04l0.210824 3.312941v105.411765a26.352941 26.352941 0 0 1-52.495059 3.312941l-0.210824-3.312941V421.647059c0-14.546824 11.806118-26.352941 26.352941-26.352941z" fill="#568af2" /></svg>