<svg class="icon" style="width: 1em;height: 1em;vertical-align: middle;fill: currentColor;overflow: hidden;" viewBox="0 0 1024 1024" version="1.1" xmlns="http://www.w3.org/2000/svg" width="32" height="32"><path d="M419.538824 461.854118a26.352941 26.352941 0 0 1 41.562352 32.195764l-2.198588 2.831059-101.586823 114.236235h81.92c13.402353 0 24.515765 10.059294 26.142117 23.070118l0.180706 3.312941a26.352941 26.352941 0 0 1-23.04 26.142118l-3.312941 0.210823H298.676706a26.352941 26.352941 0 0 1-21.775059-41.261176l2.078118-2.620235 140.528941-158.117647z" fill="#568af2" /><path d="M439.205647 154.352941a26.352941 26.352941 0 0 0-26.352941 26.352941v456.794353c0 14.546824 11.806118 26.352941 26.352941 26.352941H790.588235a26.352941 26.352941 0 0 0 26.352941-26.352941c0-241.543529-185.856-483.147294-377.735529-483.147294z m26.352941 54.633412l1.807059 0.271059c140.589176 21.684706 278.347294 201.065412 295.152941 390.023529l0.873412 11.836235h-297.833412V208.986353zM843.294118 716.559059H210.823529a26.352941 26.352941 0 0 0-24.997647 34.665412l35.147294 105.411764c3.584 10.782118 13.643294 18.040471 24.997648 18.040471H652.047059c14.275765 0 28.250353-3.855059 40.508235-11.14353l164.23153-98.002823c22.979765-13.703529 13.251765-48.971294-13.492706-48.971294z m-95.62353 52.675765l-82.130823 49.001411-3.162353 1.626353a26.352941 26.352941 0 0 1-10.330353 2.108236L264.944941 821.910588l-17.558588-52.705882h500.284235z" fill="#568af2" /><path d="M439.205647 611.147294c13.432471 0 24.545882 10.029176 26.172235 23.04l0.180706 3.312941v105.411765a26.352941 26.352941 0 0 1-52.495059 3.312941l-0.210823-3.312941v-105.411765c0-14.576941 11.806118-26.352941 26.352941-26.352941zM825.735529 453.029647a26.352941 26.352941 0 0 1 3.312942 52.495059l-3.312942 0.210823h-210.823529a26.352941 26.352941 0 0 1-3.312941-52.525176l3.312941-0.180706h210.823529z" fill="#568af2" /></svg>