<svg class="icon" style="width: 1em;height: 1em;vertical-align: middle;fill: currentColor;overflow: hidden;" viewBox="0 0 1024 1024" version="1.1" xmlns="http://www.w3.org/2000/svg" width="32" height="32"><path d="M742.912 229.647059H180.705882a26.352941 26.352941 0 0 0-26.352941 26.352941v210.823529c0 14.546824 11.806118 26.352941 26.352941 26.352942h562.206118a26.352941 26.352941 0 0 0 18.612706-7.710118l105.411765-105.411765a26.352941 26.352941 0 0 0 0-37.285647l-105.411765-105.411765a26.352941 26.352941 0 0 0-18.612706-7.710117z m-10.932706 52.705882L811.038118 361.411765l-79.088942 79.058823H207.058824v-158.117647h524.92047z" fill="#568af2" /><path d="M479.382588 440.470588c13.432471 0 24.515765 10.059294 26.142118 23.04l0.210823 3.312941v386.499765a26.352941 26.352941 0 0 1-52.525176 3.312941l-0.180706-3.312941V466.823529c0-14.546824 11.776-26.352941 26.352941-26.352941zM479.382588 124.235294c13.432471 0 24.515765 10.059294 26.142118 23.04l0.210823 3.312941v105.411765a26.352941 26.352941 0 0 1-52.525176 3.312941l-0.180706-3.312941V150.588235c0-14.546824 11.776-26.352941 26.352941-26.352941z" fill="#568af2" /><path d="M567.205647 826.970353a26.352941 26.352941 0 0 1 3.312941 52.525176l-3.312941 0.180706H391.529412a26.352941 26.352941 0 0 1-3.312941-52.495059l3.312941-0.210823h175.676235z" fill="#568af2" /></svg>