<svg class="icon" style="width: 1em;height: 1em;vertical-align: middle;fill: currentColor;overflow: hidden;" viewBox="0 0 1024 1024" version="1.1" xmlns="http://www.w3.org/2000/svg" width="32" height="32"><path d="M493.869176 129.355294L400.865882 197.782588a272.323765 272.323765 0 0 0-110.953411 219.376941V730.352941c0 14.546824 11.806118 26.352941 26.352941 26.352941h386.499764a26.352941 26.352941 0 0 0 26.352942-26.352941v-313.223529a272.323765 272.323765 0 0 0-110.953412-219.346824l-93.033412-68.427294a26.352941 26.352941 0 0 0-31.232 0z m15.600942 53.910588l77.43247 56.982589 6.625883 5.059764a219.617882 219.617882 0 0 1 82.853647 171.851294v286.840471H342.588235v-286.840471c0-69.872941 33.219765-135.529412 89.47953-176.911058l77.402353-56.982589z" fill="#568af2" /><path d="M297.592471 360.357647l-105.411765 105.411765a26.352941 26.352941 0 0 0-7.710118 18.612706v140.559058a26.352941 26.352941 0 0 0 38.128941 23.582118l105.411765-52.705882a26.352941 26.352941 0 0 0 14.576941-23.582118v-193.264941c0-23.491765-28.370824-35.237647-44.995764-18.612706z m-7.710118 82.221177v113.362823l-52.705882 26.352941v-87.009882l52.705882-52.705882zM676.382118 378.970353V572.235294c0 9.968941 5.662118 19.094588 14.576941 23.582118l105.411765 52.705882a26.352941 26.352941 0 0 0 38.128941-23.582118v-140.559058a26.352941 26.352941 0 0 0-7.710118-18.612706l-105.411765-105.411765c-16.594824-16.624941-44.995765-4.848941-44.995764 18.612706z m52.705882 63.638588l52.705882 52.705883v86.979764l-52.705882-26.352941v-113.332706zM404.088471 739.147294c13.432471 0 24.515765 10.029176 26.142117 23.04l0.210824 3.312941v52.705883a26.352941 26.352941 0 0 1-52.525177 3.312941l-0.180706-3.312941v-52.705883c0-14.576941 11.776-26.352941 26.352942-26.352941zM509.500235 739.147294c13.432471 0 24.515765 10.029176 26.142118 23.04l0.210823 3.312941v87.823059a26.352941 26.352941 0 0 1-52.525176 3.312941l-0.180706-3.312941v-87.823059c0-14.576941 11.776-26.352941 26.352941-26.352941zM614.912 739.147294c13.432471 0 24.515765 10.029176 26.142118 23.04l0.210823 3.312941v52.705883a26.352941 26.352941 0 0 1-52.525176 3.312941l-0.180706-3.312941v-52.705883c0-14.576941 11.776-26.352941 26.352941-26.352941z" fill="#568af2" /></svg>