<svg class="icon" style="width: 1em;height: 1em;vertical-align: middle;fill: currentColor;overflow: hidden;" viewBox="0 0 1024 1024" version="1.1" xmlns="http://www.w3.org/2000/svg" width="32" height="32"><path d="M518.264471 301.447529l-316.235295 112.037647a26.352941 26.352941 0 0 0-15.751529 34.424471l93.696 239.344941a26.352941 26.352941 0 0 0 24.545882 16.745412H749.628235c10.842353 0 20.570353-6.625882 24.545883-16.745412l93.665882-239.344941a26.352941 26.352941 0 0 0-15.721412-34.454588l-316.235294-112.037647a26.352941 26.352941 0 0 0-17.588706 0z m8.794353 52.796236l281.780705 99.779764-77.221647 197.270589H322.469647l-77.221647-197.270589 281.810824-99.779764z" fill="#568af2" /><path d="M720.323765 194.499765H333.793882a26.352941 26.352941 0 0 0-26.352941 26.352941v173.869176l0.210824 3.312942a26.352941 26.352941 0 0 0 34.93647 21.534117l184.440471-65.325176 184.44047 65.325176a26.352941 26.352941 0 0 0 35.147295-24.847059l0.060235-173.839058a26.352941 26.352941 0 0 0-26.352941-26.383059z m-26.383059 52.705882l-0.030118 110.230588-158.057412-56.018823-3.463529-0.963765a26.352941 26.352941 0 0 0-14.155294 0.993882l-158.087529 55.988706v-110.230588h333.793882z" fill="#568af2" /><path d="M527.058824 124.235294c13.432471 0 24.515765 10.059294 26.142117 23.04l0.210824 3.312941v70.264471a26.352941 26.352941 0 0 1-52.495059 3.312941l-0.210824-3.312941V150.588235c0-14.546824 11.806118-26.352941 26.352942-26.352941zM527.058824 335.058824c13.432471 0 24.515765 10.059294 26.142117 23.04l0.210824 3.312941v140.559059a26.352941 26.352941 0 0 1-52.495059 3.312941l-0.210824-3.312941V361.411765c0-14.546824 11.806118-26.352941 26.352942-26.352941zM263.740235 763.211294a26.352941 26.352941 0 0 1 34.635294-0.030118l2.56 2.529883 41.622589 47.585882 41.682823-47.585882a26.352941 26.352941 0 0 1 37.104941-2.56l2.56 2.56 41.652706 47.585882 41.652706-47.585882a26.352941 26.352941 0 0 1 37.104941-2.56l2.590118 2.56 41.622588 47.585882 41.682824-47.585882a26.352941 26.352941 0 0 1 37.104941-2.56l2.56 2.56 41.652706 47.585882 41.652706-47.585882a26.352941 26.352941 0 0 1 34.334117-4.668235l2.861177 2.16847c10.029176 8.794353 11.806118 23.521882 4.638117 34.334118l-2.16847 2.861176-61.470118 70.294588a26.352941 26.352941 0 0 1-37.104941 2.529883l-2.590118-2.529883-41.652706-47.616-41.652705 47.585883a26.352941 26.352941 0 0 1-37.104942 2.56l-2.56-2.529883-41.652705-47.646117-41.652706 47.646117a26.352941 26.352941 0 0 1-37.104942 2.529883l-2.56-2.529883-41.682823-47.616-41.622588 47.585883a26.352941 26.352941 0 0 1-37.104941 2.56l-2.590118-2.529883-61.470118-70.294588a26.352941 26.352941 0 0 1 2.469647-37.195294z" fill="#568af2" /></svg>