<svg class="icon" style="width: 1em;height: 1em;vertical-align: middle;fill: currentColor;overflow: hidden;" viewBox="0 0 1024 1024" version="1.1" xmlns="http://www.w3.org/2000/svg" width="32" height="32"><path d="M400.353882 171.911529c76.137412 0 137.246118 64.873412 140.468706 145.167059l0.150588 6.716236-0.210823 391.107764c0 49.513412 39.454118 89.479529 87.883294 89.47953 46.742588 0 85.082353-37.165176 87.762824-84.208942l0.150588-5.270588v-123.211294a26.352941 26.352941 0 0 1 52.495059-3.312941l0.210823 3.312941v123.211294c0 78.456471-62.885647 142.185412-140.619294 142.185412-75.595294 0-137.095529-60.235294-140.438588-135.68l-0.150588-6.505412 0.210823-391.137882c0-55.265882-39.936-99.147294-87.913412-99.147294-46.290824 0-85.112471 40.899765-87.732706 93.485176l-0.150588 5.662118v267.926588a26.352941 26.352941 0 0 1-52.495059 3.312941l-0.210823-3.312941V323.764706c0-83.335529 62.343529-151.853176 140.589176-151.853177z" fill="#568af2" /><path d="M724.269176 513.445647a26.352941 26.352941 0 0 1 34.575059-2.349176l2.710589 2.349176 105.411764 105.411765a26.352941 26.352941 0 0 1-34.575059 39.634823l-2.710588-2.379294-86.799059-86.768941-86.738823 86.768941a26.352941 26.352941 0 0 1-34.575059 2.379294l-2.710588-2.379294a26.352941 26.352941 0 0 1-2.349177-34.544941l2.349177-2.710588 105.411764-105.411765zM742.912 154.352941a134.354824 134.354824 0 0 0-92.762353 36.74353 124.687059 124.687059 0 0 0-39.002353 90.23247c0 42.706824 22.979765 82.913882 60.355765 120.591059 12.438588 12.528941 25.720471 23.943529 38.972235 34.032941l7.439059 5.51153 8.704 6.023529 2.108235 1.415529c7.589647 4.818824 16.956235 5.421176 24.997647 1.807059l3.794824-2.108235 2.409412-1.596235a360.056471 360.056471 0 0 0 62.192941-53.248c32.798118-35.478588 52.555294-72.975059 52.555294-112.429177a124.687059 124.687059 0 0 0-39.032471-90.202353 134.354824 134.354824 0 0 0-92.762353-36.773647z m0 52.705883c21.202824 0 41.502118 8.011294 56.32 22.166588a71.981176 71.981176 0 0 1 22.738824 52.103529c0 23.612235-13.914353 49.995294-38.550589 76.649412l-7.499294 7.800471c-10.119529 10.119529-20.660706 19.215059-30.72 26.925176l-2.288941 1.656471-0.542118-0.39153a321.656471 321.656471 0 0 1-33.460706-29.214117c-28.521412-28.702118-45.056-57.645176-45.056-83.425883 0-19.425882 8.131765-38.159059 22.708706-52.103529a81.679059 81.679059 0 0 1 56.32-22.166588zM286.117647 576a134.354824 134.354824 0 0 0-92.732235 36.743529 124.687059 124.687059 0 0 0-39.032471 90.232471c0 42.706824 22.979765 82.913882 60.355765 120.591059 12.468706 12.528941 25.720471 23.943529 39.002353 34.032941l7.439059 5.511529 6.144 4.336942 4.668235 3.102117a26.352941 26.352941 0 0 0 28.310588 0l7.55953-5.12 6.836705-4.939294 3.855059-2.891294c13.281882-10.089412 26.533647-21.504 39.002353-34.032941 37.345882-37.647059 60.355765-77.884235 60.355765-120.591059a124.687059 124.687059 0 0 0-39.032471-90.202353A134.354824 134.354824 0 0 0 286.117647 576z m0 52.705882c21.232941 0 41.502118 8.011294 56.32 22.166589a71.981176 71.981176 0 0 1 22.738824 52.103529c0 25.780706-16.564706 54.723765-45.056 83.425882l-8.101647 7.860706c-5.481412 5.12-11.143529 10.029176-16.805648 14.637177l-9.125647 7.107764-0.481882-0.391529a321.656471 321.656471 0 0 1-33.490823-29.214118c-28.521412-28.702118-45.056-57.645176-45.056-83.425882 0-19.425882 8.131765-38.159059 22.708705-52.103529a81.679059 81.679059 0 0 1 56.350118-22.166589z" fill="#568af2" /><path d="M742.912 286.117647m-35.147294 0a35.147294 35.147294 0 1 0 70.294588 0 35.147294 35.147294 0 1 0-70.294588 0Z" fill="#568af2" /><path d="M286.117647 707.764706m-35.147294 0a35.147294 35.147294 0 1 0 70.294588 0 35.147294 35.147294 0 1 0-70.294588 0Z" fill="#568af2" /></svg>