<svg class="icon" style="width: 1em;height: 1em;vertical-align: middle;fill: currentColor;overflow: hidden;" viewBox="0 0 1024 1024" version="1.1" xmlns="http://www.w3.org/2000/svg" width="32" height="32"><path d="M499.260235 128.602353c-39.815529 19.877647-72.583529 70.475294-72.583529 136.824471l-0.030118 120.199529-262.806588 219.075765a26.352941 26.352941 0 0 0-9.487059 20.239058v70.264471l0.210824 3.403294a26.352941 26.352941 0 0 0 37.948235 20.178824l242.928941-121.494589v107.91153l-83.817412 134.174118-1.505882 2.68047c-10.059294 20.781176 10.480941 44.423529 33.099294 35.960471l131.282824-49.272471 131.312941 49.272471 2.921412 0.903529c22.377412 5.752471 41.472-19.094588 28.672-39.54447l-83.84753-134.174118v-107.91153l242.959059 121.494589a26.352941 26.352941 0 0 0 38.159059-23.582118V624.941176l-0.210824-3.312941a26.352941 26.352941 0 0 0-9.276235-16.926117L602.352941 385.626353v-120.169412c0-69.029647-35.448471-120.982588-77.402353-139.083294a26.352941 26.352941 0 0 0-20.871529 0l-4.818824 2.258824z m15.23953 52.344471l3.132235 2.499764c17.528471 15.058824 32.015059 43.911529 32.015059 81.980236v132.517647l0.210823 3.312941c0.843294 6.595765 4.126118 12.649412 9.276236 16.956235l262.806588 219.045647v15.299765l-242.928941-121.464471a26.352941 26.352941 0 0 0-38.159059 23.582118v158.117647l0.271059 3.674353c0.512 3.614118 1.807059 7.137882 3.734588 10.270118l46.652235 74.631529-67.764706-25.419294-3.614117-1.084235a26.352941 26.352941 0 0 0-14.878118 1.084235l-67.764706 25.419294 46.682353-74.631529c2.590118-4.186353 3.975529-9.035294 3.97553-13.944471v-158.117647l-0.210824-3.403294a26.352941 26.352941 0 0 0-37.918118-20.178824l-242.959058 121.464471v-15.299765l262.836705-219.045647a26.352941 26.352941 0 0 0 9.487059-20.269176v-132.517647c0-38.068706 14.456471-66.921412 32.015059-81.980236l3.102118-2.499764z" fill="#568af2" /></svg>