<svg class="icon" style="width: 1em;height: 1em;vertical-align: middle;fill: currentColor;overflow: hidden;" viewBox="0 0 1024 1024" version="1.1" xmlns="http://www.w3.org/2000/svg" width="32" height="32"><path d="M853.323294 274.823529a26.352941 26.352941 0 0 1 24.907294 35.026824l-1.325176 3.102118-27.286588 54.573176a79.058824 79.058824 0 0 1-29.756236 32.256l-5.601882 3.102118-152.395294 76.167529-154.202353 291.237647a26.352941 26.352941 0 0 1-44.965647 2.650353l-1.867294-3.19247-76.077177-152.124236-50.597647 25.298824a79.058824 79.058824 0 0 1-82.04047-6.866824l-4.638118-3.644235-113.995294-97.189647a26.352941 26.352941 0 0 1 4.517647-43.218824l3.162353-1.445647 62.58447-23.973647a79.058824 79.058824 0 0 1 46.592-3.072l5.722353 1.596236 57.615059 18.371764a26.352941 26.352941 0 0 0 16.805647-0.240941l3.162353-1.355294 14.004706-7.137882-79.540706-143.209412c-10.691765-19.245176 5.451294-41.803294 26.413177-38.942118l3.011764 0.602353 273.317647 68.276706 153.901177-78.095059c9.246118-4.668235 19.275294-7.529412 29.575529-8.31247l6.204236-0.240942h92.79247z m-42.646588 52.705883h-50.145882a26.352941 26.352941 0 0 0-9.09553 1.626353l-2.831059 1.204706-391.107764 198.535529a79.058824 79.058824 0 0 1-53.850353 6.475294l-5.993412-1.65647-57.615059-18.401883a26.352941 26.352941 0 0 0-14.034823-0.572235l-3.403295 1.054118-21.142588 8.101647 80.233412 68.367058a26.352941 26.352941 0 0 0 25.660235 4.879059l3.222588-1.325176 74.089412-37.074824 0.120471-0.030117 52.404706-26.232471 17.859764-8.914824a26.352941 26.352941 0 0 1 26.443295 45.477648l-2.891295 1.65647-46.682353 23.341177 53.157648 106.315294 134.144-253.379765a26.232471 26.232471 0 0 1 8.523294-9.517176l0.12047-0.060236 1.114353-0.722823a26.383059 26.383059 0 0 1 1.475765-0.813177l0.271059-0.150588 159.984941-79.962353a26.352941 26.352941 0 0 0 10.059294-8.854588l1.716706-2.95153 8.192-16.414117z m-467.004235 31.503059l51.019294 91.858823 104.448-53.007059-155.467294-38.851764z" fill="#568af2" /></svg>