<svg class="icon" style="width: 1em;height: 1em;vertical-align: middle;fill: currentColor;overflow: hidden;" viewBox="0 0 1024 1024" version="1.1" xmlns="http://www.w3.org/2000/svg" width="32" height="32"><path d="M0 0h1024v1024H0z" fill="#568af2" fill-opacity="0" /><path d="M501.970824 124.235294C293.345882 124.235294 124.235294 293.345882 124.235294 501.970824c0 208.594824 169.110588 377.705412 377.73553 377.705411 208.594824 0 377.705412-169.110588 377.705411-377.705411 0-208.624941-169.110588-377.735529-377.705411-377.73553z m0 52.705882c179.501176 0 324.999529 145.528471 324.999529 325.029648s-145.498353 324.999529-324.999529 324.999529S176.941176 681.472 176.941176 501.970824 322.469647 176.941176 501.970824 176.941176z" fill="#568af2" /><path d="M353.972706 669.304471l-0.813177 3.011764c-4.969412 22.859294 21.232941 40.990118 41.140706 26.774589l107.640471-76.920471 107.670588 76.920471c20.781176 14.848 48.399059-5.571765 40.357647-29.786353l-123.00047-368.941177c-8.011294-24.003765-42.014118-24.003765-49.995295 0l-123.00047 368.941177z m147.968-277.293177l72.342588 217.057882-57.012706-40.719058-3.162353-1.92753a26.352941 26.352941 0 0 0-27.467294 1.92753l-57.042823 40.719058 72.342588-217.057882z" fill="#568af2" /></svg>