<svg class="icon" style="width: 1em;height: 1em;vertical-align: middle;fill: currentColor;overflow: hidden;" viewBox="0 0 1024 1024" version="1.1" xmlns="http://www.w3.org/2000/svg" width="32" height="32"><path d="M184.470588 702.735059V843.294118c0 14.546824 11.806118 26.352941 26.352941 26.352941h105.411765a26.352941 26.352941 0 0 0 26.352941-26.352941v-140.559059a26.352941 26.352941 0 0 0-26.352941-26.352941H210.823529a26.352941 26.352941 0 0 0-26.352941 26.352941z m52.705883 26.383059h52.705882v87.853176h-52.705882v-87.853176zM711.529412 702.735059V843.294118c0 14.546824 11.806118 26.352941 26.352941 26.352941H843.294118a26.352941 26.352941 0 0 0 26.352941-26.352941v-140.559059a26.352941 26.352941 0 0 0-26.352941-26.352941h-105.411765a26.352941 26.352941 0 0 0-26.352941 26.352941z m52.705882 26.383059h52.705882v87.853176h-52.705882v-87.853176zM527.058824 325.029647c13.432471 0 24.515765 10.029176 26.142117 23.04l0.210824 3.312941v52.705883a26.352941 26.352941 0 0 1-52.495059 3.312941l-0.210824-3.312941v-52.705883c0-14.576941 11.806118-26.352941 26.352942-26.352941zM527.058824 184.470588c13.432471 0 24.515765 10.059294 26.142117 23.04l0.210824 3.312941v35.147295a26.352941 26.352941 0 0 1-52.495059 3.312941l-0.210824-3.312941V210.823529c0-14.546824 11.806118-26.352941 26.352942-26.352941zM527.058824 535.853176c13.432471 0 24.515765 10.029176 26.142117 23.04l0.210824 3.312942V632.470588a26.352941 26.352941 0 0 1-52.495059 3.312941l-0.210824-3.312941v-70.26447c0-14.576941 11.806118-26.352941 26.352942-26.352942z" fill="#568af2" /><path d="M263.529412 184.470588c13.432471 0 24.515765 10.059294 26.142117 23.04l0.210824 3.312941v491.91153a26.352941 26.352941 0 0 1-52.495059 3.312941l-0.210823-3.312941V210.823529c0-14.546824 11.806118-26.352941 26.352941-26.352941zM790.588235 184.470588c13.432471 0 24.515765 10.059294 26.142118 23.04l0.210823 3.312941v491.91153a26.352941 26.352941 0 0 1-52.495058 3.312941l-0.210824-3.312941V210.823529c0-14.546824 11.806118-26.352941 26.352941-26.352941zM527.058824 746.676706c13.432471 0 24.515765 10.029176 26.142117 23.04l0.210824 3.312941V843.294118a26.352941 26.352941 0 0 1-52.495059 3.312941l-0.210824-3.312941v-70.264471c0-14.576941 11.806118-26.352941 26.352942-26.352941z" fill="#568af2" /><path d="M456.794353 448H263.529412a26.352941 26.352941 0 0 0-26.352941 26.352941V632.470588a26.352941 26.352941 0 0 0 43.068235 20.389647l193.234823-158.117647c19.154824-15.661176 8.071529-46.742588-16.685176-46.742588z m-73.878588 52.705882l-93.033412 76.107294v-76.107294h93.033412zM790.588235 448h-193.264941c-24.756706 0-35.84 31.051294-16.685176 46.742588l193.264941 158.117647A26.352941 26.352941 0 0 0 816.941176 632.470588v-158.117647a26.352941 26.352941 0 0 0-26.352941-26.352941z m-26.352941 52.705882v76.137412l-93.063529-76.137412h93.063529zM421.647059 342.588235a26.352941 26.352941 0 0 1 3.312941 52.495059l-3.312941 0.210824H263.529412a26.352941 26.352941 0 0 1-3.312941-52.495059l3.312941-0.210824H421.647059zM790.588235 342.588235a26.352941 26.352941 0 0 1 3.312941 52.495059l-3.312941 0.210824H632.470588a26.352941 26.352941 0 0 1-3.312941-52.495059l3.312941-0.210824h158.117647z" fill="#568af2" /></svg>