<svg class="icon" style="width: 1em;height: 1em;vertical-align: middle;fill: currentColor;overflow: hidden;" viewBox="0 0 1024 1024" version="1.1" xmlns="http://www.w3.org/2000/svg" width="32" height="32"><path d="M800.617412 124.235294H203.294118A79.058824 79.058824 0 0 0 124.235294 203.294118v597.323294a79.058824 79.058824 0 0 0 79.058824 79.058823h597.323294a79.058824 79.058824 0 0 0 79.058823-79.058823V203.294118a79.058824 79.058824 0 0 0-79.058823-79.058824zM203.294118 176.941176h597.323294c14.576941 0 26.352941 11.806118 26.352941 26.352942v597.323294a26.352941 26.352941 0 0 1-26.352941 26.352941H203.294118a26.352941 26.352941 0 0 1-26.352942-26.352941V203.294118c0-14.546824 11.806118-26.352941 26.352942-26.352942z" fill="#568af2" /><path d="M655.751529 265.155765a26.352941 26.352941 0 0 1 29.57553 18.432l0.752941 3.222588 70.264471 421.647059a26.352941 26.352941 0 0 1-51.230118 11.89647l-0.752941-3.222588-70.264471-421.647059a26.352941 26.352941 0 0 1 21.654588-30.32847zM365.748706 265.155765c13.251765 2.198588 22.528 13.944471 21.985882 27.015529l-0.301176 3.312941-70.294588 421.647059a26.352941 26.352941 0 0 1-52.344471-5.391059l0.361412-3.312941 70.26447-421.647059a26.352941 26.352941 0 0 1 27.01553-21.985882l3.312941 0.361412zM501.970824 264.794353c13.432471 0 24.515765 10.029176 26.142117 23.04l0.210824 3.312941V361.411765a26.352941 26.352941 0 0 1-52.525177 3.312941l-0.180706-3.312941V291.147294c0-14.576941 11.776-26.352941 26.352942-26.352941zM501.970824 440.470588c13.432471 0 24.515765 10.059294 26.142117 23.04l0.210824 3.312941v70.264471a26.352941 26.352941 0 0 1-52.525177 3.312941l-0.180706-3.312941V466.823529c0-14.546824 11.776-26.352941 26.352942-26.352941zM501.970824 616.146824c13.432471 0 24.515765 10.059294 26.142117 23.070117l0.210824 3.312941v70.264471a26.352941 26.352941 0 0 1-52.525177 3.312941l-0.180706-3.312941v-70.294588c0-14.546824 11.776-26.352941 26.352942-26.352941z" fill="#568af2" /></svg>