<svg class="icon" style="width: 1em;height: 1em;vertical-align: middle;fill: currentColor;overflow: hidden;" viewBox="0 0 1024 1024" version="1.1" xmlns="http://www.w3.org/2000/svg" width="32" height="32"><path d="M826.970353 124.235294h-632.470588a61.500235 61.500235 0 0 0-61.470118 61.500235v562.176c0 33.972706 27.527529 61.500235 61.470118 61.500236h632.470588a61.500235 61.500235 0 0 0 61.500235-61.500236V185.735529a61.500235 61.500235 0 0 0-61.500235-61.500235z m-632.470588 52.705882h632.470588c4.848941 0 8.794353 3.915294 8.794353 8.794353v562.176c0 4.848941-3.915294 8.794353-8.794353 8.794353h-632.470588a8.794353 8.794353 0 0 1-8.764236-8.794353V185.735529c0-4.848941 3.915294-8.794353 8.764236-8.794353z" fill="#568af2" /><path d="M370.206118 756.705882H229.647059A26.352941 26.352941 0 0 0 203.294118 783.058824v70.26447c0 14.576941 11.806118 26.352941 26.352941 26.352941h140.559059a26.352941 26.352941 0 0 0 26.352941-26.352941V783.058824a26.352941 26.352941 0 0 0-26.352941-26.352942z m-26.383059 52.705883v17.558588H256v-17.558588h87.823059zM791.853176 756.705882h-140.559058a26.352941 26.352941 0 0 0-26.352942 26.352942v70.26447c0 14.576941 11.806118 26.352941 26.352942 26.352941h140.559058a26.352941 26.352941 0 0 0 26.352942-26.352941V783.058824a26.352941 26.352941 0 0 0-26.352942-26.352942z m-26.383058 52.705883v17.558588H677.647059v-17.558588h87.823059zM563.440941 335.058824a26.352941 26.352941 0 0 1 3.312941 52.495058l-3.312941 0.210824h-105.411765a26.352941 26.352941 0 0 1-3.312941-52.495059l3.312941-0.210823h105.411765zM299.911529 651.294118a26.352941 26.352941 0 0 1 3.312942 52.495058l-3.312942 0.210824H264.794353a26.352941 26.352941 0 0 1-3.312941-52.495059l3.312941-0.210823h35.117176zM598.588235 651.294118a26.352941 26.352941 0 0 1 3.312941 52.495058l-3.312941 0.210824h-175.676235a26.352941 26.352941 0 0 1-3.312941-52.495059l3.312941-0.210823h175.676235zM862.117647 493.176471a26.352941 26.352941 0 0 1 3.312941 52.495058l-3.312941 0.210824H159.382588a26.352941 26.352941 0 0 1-3.312941-52.495059l3.312941-0.210823h702.735059zM862.117647 229.647059a26.352941 26.352941 0 0 1 3.312941 52.495059l-3.312941 0.210823H159.382588a26.352941 26.352941 0 0 1-3.312941-52.495059l3.312941-0.210823h702.735059zM756.705882 651.294118a26.352941 26.352941 0 0 1 3.312942 52.495058l-3.312942 0.210824h-35.147294a26.352941 26.352941 0 0 1-3.312941-52.495059l3.312941-0.210823h35.147294z" fill="#568af2" /><path d="M159.382588 159.382588c13.432471 0 24.515765 10.029176 26.142118 23.04l0.210823 3.312941v140.528942a26.352941 26.352941 0 0 1-52.525176 3.312941l-0.180706-3.312941V185.735529c0-14.576941 11.776-26.352941 26.352941-26.352941zM862.117647 159.382588c13.432471 0 24.515765 10.029176 26.142118 23.04l0.210823 3.312941v140.528942a26.352941 26.352941 0 0 1-52.495059 3.312941l-0.210823-3.312941V185.735529c0-14.576941 11.806118-26.352941 26.352941-26.352941zM159.382588 422.912c13.432471 0 24.515765 10.029176 26.142118 23.04l0.210823 3.312941v140.528941a26.352941 26.352941 0 0 1-52.525176 3.312942l-0.180706-3.312942v-140.528941c0-14.576941 11.776-26.352941 26.352941-26.352941zM862.117647 422.912c13.432471 0 24.515765 10.029176 26.142118 23.04l0.210823 3.312941v140.528941a26.352941 26.352941 0 0 1-52.495059 3.312942l-0.210823-3.312942v-140.528941c0-14.576941 11.806118-26.352941 26.352941-26.352941z" fill="#568af2" /></svg>