<svg class="icon" style="width: 1em;height: 1em;vertical-align: middle;fill: currentColor;overflow: hidden;" viewBox="0 0 1024 1024" version="1.1" xmlns="http://www.w3.org/2000/svg" width="32" height="32"><path d="M0 0h1024v1024H0z" fill="#568af2" fill-opacity="0" /><path d="M527.058824 154.352941c13.432471 0 24.515765 10.059294 26.142117 23.04l0.210824 3.312941v650.029177a26.352941 26.352941 0 0 1-52.495059 3.312941l-0.210824-3.312941V180.705882c0-14.546824 11.806118-26.352941 26.352942-26.352941z" fill="#568af2" /><path d="M800.165647 224.617412H527.058824a26.352941 26.352941 0 0 0-26.352942 26.352941V391.529412c0 14.546824 11.806118 26.352941 26.352942 26.352941h273.106823a26.352941 26.352941 0 0 0 22.467765-12.559059l43.12847-70.294588a26.352941 26.352941 0 0 0 0-27.557647l-43.12847-70.264471a26.352941 26.352941 0 0 0-22.467765-12.589176z m-14.757647 52.705882l26.955294 43.91153-26.955294 43.941647h-231.996235V277.323294h231.996235zM527.058824 470.588235H253.952a26.352941 26.352941 0 0 0-22.467765 12.559059l-43.12847 70.294588a26.352941 26.352941 0 0 0 0 27.557647l43.12847 70.264471c4.818824 7.830588 13.312 12.589176 22.467765 12.589176H527.058824a26.352941 26.352941 0 0 0 26.352941-26.352941V496.941176a26.352941 26.352941 0 0 0-26.352941-26.352941z m-26.352942 52.705883v87.823058H268.679529l-26.955294-43.911529 26.925177-43.911529h232.05647zM667.617882 821.970824a26.352941 26.352941 0 0 1 3.312942 52.495058l-3.312942 0.210824h-281.118117a26.352941 26.352941 0 0 1-3.312941-52.525177l3.312941-0.180705h281.118117z" fill="#568af2" /></svg>