<svg class="icon" style="width: 1em;height: 1em;vertical-align: middle;fill: currentColor;overflow: hidden;" viewBox="0 0 1024 1024" version="1.1" xmlns="http://www.w3.org/2000/svg" width="32" height="32"><path d="M675.147294 124.235294H323.764706a61.500235 61.500235 0 0 0-61.500235 61.500235v421.647059c0 33.942588 27.527529 61.470118 61.500235 61.470118h351.382588a61.500235 61.500235 0 0 0 61.470118-61.470118v-421.647059a61.500235 61.500235 0 0 0-61.470118-61.500235zM323.764706 176.941176h351.382588c4.818824 0 8.764235 3.915294 8.764235 8.794353v421.647059c0 4.818824-3.915294 8.764235-8.764235 8.764236H323.764706a8.794353 8.794353 0 0 1-8.794353-8.764236v-421.647059c0-4.848941 3.915294-8.794353 8.794353-8.794353z" fill="#568af2" /><path d="M394.029176 537.088m-35.147294 0a35.147294 35.147294 0 1 0 70.294589 0 35.147294 35.147294 0 1 0-70.294589 0Z" fill="#568af2" /><path d="M604.852706 537.088m-35.147294 0a35.147294 35.147294 0 1 0 70.294588 0 35.147294 35.147294 0 1 0-70.294588 0Z" fill="#568af2" /><path d="M710.264471 405.323294a26.352941 26.352941 0 0 1 3.312941 52.525177l-3.312941 0.180705h-421.647059a26.352941 26.352941 0 0 1-3.312941-52.495058l3.312941-0.210824h421.647059zM552.146824 721.558588a26.352941 26.352941 0 0 1 3.312941 52.525177l-3.312941 0.180706h-105.411765a26.352941 26.352941 0 0 1-3.312941-52.495059l3.312941-0.210824h105.411765zM604.852706 826.970353a26.352941 26.352941 0 0 1 3.312941 52.525176l-3.312941 0.180706h-210.82353a26.352941 26.352941 0 0 1-3.312941-52.495059l3.312941-0.210823h210.82353zM352.888471 630.723765a26.352941 26.352941 0 0 1 48.459294 20.510117l-1.295059 3.072-105.411765 210.82353a26.352941 26.352941 0 0 1-48.459294-20.540236l1.295059-3.041882 105.411765-210.823529zM610.635294 618.917647a26.352941 26.352941 0 0 1 33.731765 8.944941l1.626353 2.861177 105.411764 210.823529a26.352941 26.352941 0 0 1-45.477647 26.443294l-1.65647-2.861176-105.411765-210.82353a26.352941 26.352941 0 0 1 11.776-35.358117z" fill="#568af2" /><path d="M710.264471 317.500235c13.432471 0 24.545882 10.029176 26.172235 23.04l0.180706 3.312941v175.676236a26.352941 26.352941 0 0 1-52.495059 3.312941l-0.210824-3.312941v-175.676236c0-14.576941 11.806118-26.352941 26.352942-26.352941zM288.617412 317.500235c13.432471 0 24.545882 10.029176 26.172235 23.04l0.180706 3.312941v175.676236a26.352941 26.352941 0 0 1-52.495059 3.312941l-0.210823-3.312941v-175.676236c0-14.576941 11.806118-26.352941 26.352941-26.352941z" fill="#568af2" /></svg>