<svg class="icon" style="width: 1em;height: 1em;vertical-align: middle;fill: currentColor;overflow: hidden;" viewBox="0 0 1024 1024" version="1.1" xmlns="http://www.w3.org/2000/svg" width="32" height="32"><path d="M0 0h1024v1024H0z" fill="#568af2" fill-opacity="0" /><path d="M154.352941 210.823529v527.058824c0 10.270118 5.963294 19.606588 15.299765 23.913412l228.412235 105.411764 3.46353 1.325177a26.352941 26.352941 0 0 0 17.950117-1.024l235.188706-100.803765 217.750588 100.502588A26.352941 26.352941 0 0 0 909.793882 843.294118V316.235294a26.352941 26.352941 0 0 0-15.299764-23.913412l-228.382118-105.411764-3.463529-1.325177a26.352941 26.352941 0 0 0-17.980236 1.024l-235.188706 100.773647-217.750588-100.47247A26.352941 26.352941 0 0 0 154.383059 210.823529z m500.314353 28.822589l202.420706 93.455058v468.992l-190.976-88.124235-3.463529-1.325176a26.352941 26.352941 0 0 0-17.980236 1.024l-235.188706 100.773647-202.420705-93.424941V251.994353l191.006117 88.154353a26.352941 26.352941 0 0 0 21.413647 0.301176l235.188706-100.803764z" fill="#568af2" /><path d="M655.058824 184.470588c13.432471 0 24.515765 10.059294 26.142117 23.04l0.210824 3.312941v527.058824a26.352941 26.352941 0 0 1-52.495059 3.312941l-0.210824-3.312941V210.823529c0-14.546824 11.806118-26.352941 26.352942-26.352941zM409.088 289.882353c13.432471 0 24.545882 10.059294 26.172235 23.04l0.180706 3.312941V843.294118a26.352941 26.352941 0 0 1-52.495059 3.312941l-0.210823-3.312941V316.235294c0-14.546824 11.806118-26.352941 26.352941-26.352941z" fill="#568af2" /><path d="M644.668235 186.608941a26.352941 26.352941 0 0 1 17.980236-1.024l3.463529 1.325177 114.176 52.705882a26.352941 26.352941 0 0 1-18.974118 49.031529l-3.102117-1.204705-103.544471-47.796706-235.188706 100.803764a26.352941 26.352941 0 0 1-17.950117 1.024l-3.46353-1.325176-114.206117-52.705882a26.352941 26.352941 0 0 1 18.974117-49.03153l3.102118 1.204706 103.54447 47.766588 235.218824-100.773647zM644.668235 713.667765a26.352941 26.352941 0 0 1 17.980236-1.024l3.463529 1.325176 114.176 52.705883a26.352941 26.352941 0 0 1-18.974118 49.031529l-3.102117-1.204706-103.544471-47.796706-235.188706 100.803765a26.352941 26.352941 0 0 1-17.950117 1.024l-3.46353-1.325177-114.206117-52.705882a26.352941 26.352941 0 0 1 18.974117-49.031529l3.102118 1.204706 103.54447 47.766588 235.218824-100.773647z" fill="#568af2" /></svg>