<svg class="icon" style="width: 1em;height: 1em;vertical-align: middle;fill: currentColor;overflow: hidden;" viewBox="0 0 1024 1024" version="1.1" xmlns="http://www.w3.org/2000/svg" width="32" height="32"><path d="M0 0h1024v1024H0z" fill="#568af2" fill-opacity="0" /><path d="M501.970824 124.235294C293.345882 124.235294 124.235294 293.345882 124.235294 501.970824c0 208.594824 169.110588 377.705412 377.73553 377.705411 208.594824 0 377.705412-169.110588 377.705411-377.705411 0-208.624941-169.110588-377.735529-377.705411-377.73553z m0 52.705882c179.501176 0 324.999529 145.528471 324.999529 325.029648s-145.498353 324.999529-324.999529 324.999529S176.941176 681.472 176.941176 501.970824 322.469647 176.941176 501.970824 176.941176z" fill="#568af2" /><path d="M313.223529 231.604706l-4.939294-52.464941 18.913883-1.596236 18.160941-1.14447c8.884706-0.481882 17.498353-0.783059 25.810823-0.933647l16.26353-0.060236c103.062588 1.084235 156.491294 30.930824 149.62447 96.737883-5.059765 48.308706-26.804706 65.596235-72.402823 75.414588l-13.763765 2.770824c-23.732706 4.879059-32.376471 10.541176-38.701176 28.491294-5.270588 14.998588-2.349176 25.6 11.053176 43.489882l15.420235 19.666824c4.969412 6.686118 8.643765 12.559059 11.414589 18.793411 13.884235 31.081412 0 58.759529-38.821647 82.371765-34.454588 20.992-65.174588 23.672471-90.955295 7.529412-16.624941-10.420706-26.744471-23.913412-40.417882-49.392941l-7.68-14.697412c-9.185882-17.648941-14.607059-25.720471-19.365647-29.093647-14.908235-10.631529-42.465882-8.824471-83.606588 9.396706l-7.378824 3.403294-22.528-47.676235c60.687059-28.611765 109.086118-32.948706 144.052706-8.101648 12.769882 9.095529 20.841412 20.239059 32.105412 41.170824l7.649882 14.607059c1.867294 3.614118 3.614118 6.836706 5.240471 9.788235l4.638118 8.011294 4.186352 6.415059c3.975529 5.692235 7.469176 9.246118 11.083295 11.504941 7.017412 4.397176 16.805647 3.553882 35.568941-7.860706 9.878588-6.023529 15.540706-10.902588 17.889882-14.155294l0.632471-1.054117-0.421647-0.692706-1.295059-2.710589-0.90353-1.445647-3.644235-4.909176-10.661647-13.583059c-26.473412-33.551059-36.141176-60.837647-22.979765-98.243765 12.830118-36.472471 35.117176-52.585412 71.258353-61.199058l24.45553-5.089883c21.022118-4.728471 24.455529-9.246118 26.473411-28.400941 2.108235-20.088471-19.064471-33.972706-69.12-37.767529l-12.559058-0.722824c-8.764235-0.361412-18.281412-0.451765-28.55153-0.240941l-15.99247 0.512-17.197177 0.933647-18.371765 1.385412-9.637647 0.873412zM695.446588 201.005176a26.352941 26.352941 0 1 1 34.665412 39.695059l-17.468235 15.510589c-38.942118 35.177412-65.536 63.578353-79.480471 84.630588a75.294118 75.294118 0 0 0-9.035294 17.106823l-0.180706 0.662589 1.144471 0.63247c7.499294 3.885176 13.281882 4.728471 20.841411 3.553882l5.12-0.993882 9.637648-2.590118 3.403294-0.963764c26.202353-7.439059 43.881412-9.456941 68.758588-4.457412 77.643294 15.631059 79.390118 138.420706 9.065412 138.420706l-11.685647-0.39153-10.330353-0.512c-23.792941-1.174588-41.712941-1.264941-59.632942 0.301177-46.441412 4.065882-66.620235 16.775529-64.542117 40.839529 2.258824 26.142118 12.739765 44.152471 34.816 64.752942l6.505412 5.842823 23.823058 20.48 2.017883 1.776941c20.510118 18.913882 31.322353 36.382118 31.322353 59.753412 0 38.851765-21.534118 92.641882-63.969883 164.080941a26.352941 26.352941 0 0 1-45.296941-26.925176c12.649412-21.263059 23.130353-40.658824 31.503059-57.976471l6.656-14.396235c12.288-27.738353 18.371765-49.513412 18.371765-64.783059 0-5.300706-3.553882-11.083294-14.305883-20.992l-26.202353-22.528c-34.936471-30.780235-53.970824-60.566588-57.765647-104.538353-5.391059-62.554353 40.839529-91.617882 112.459294-97.882353a434.718118 434.718118 0 0 1 56.018824-0.903529l25.991529 1.174588 0.542118-1.024a27.075765 27.075765 0 0 0 1.807059-7.981177l0.12047-3.072c-0.150588-11.745882-5.692235-19.425882-17.679058-21.835294-13.372235-2.710588-22.799059-2.108235-37.978353 1.837177l-20.48 5.601882-2.800941 0.602353c-23.582118 5.210353-44.152471 2.56-67.162353-11.294118-31.804235-19.124706-29.515294-53.217882-4.818824-90.473411 19.124706-28.912941 54.392471-65.505882 106.224941-110.742589zM384.752941 600.003765c30.238118 13.342118 47.284706 34.032941 54.964706 61.259294l1.505882 5.782588c0.240941 0.933647 0.451765 1.867294 0.632471 2.831059l1.114353 6.144 2.770823 19.124706 1.204706 6.836706 0.602353 0.602353 2.017883 1.264941 1.445647 0.722823 6.535529 2.710589 7.017412 2.529882c36.141176 12.649412 53.007059 25.810824 53.007059 59.964235 0 28.882824-9.336471 60.144941-27.407059 94.027294a26.352941 26.352941 0 1 1-46.47153-24.816941c14.275765-26.804706 21.172706-49.904941 21.172706-69.210353 0-2.078118-0.391529-3.222588-3.975529-4.969412l-3.975529-1.686588-10.149648-3.674353c-19.787294-6.927059-28.400941-11.023059-37.978352-21.082353-8.583529-8.975059-12.047059-17.287529-14.576942-31.834353l-1.626353-10.691764-1.024-7.378824-1.204705-7.348706a70.174118 70.174118 0 0 0-0.421648-1.897412l-0.933647-3.644235c-3.523765-12.559059-10.149647-20.570353-25.509647-27.346823-23.401412-10.330353-64.030118-5.782588-120.832 16.052706l-12.709647 5.059764-19.275294 8.131765-12.589176 5.481412a26.352941 26.352941 0 1 1-21.082353-48.308706l28.672-12.318118 8.131764-3.312941c73.577412-29.756235 130.168471-37.014588 170.947765-18.974118z" fill="#568af2" /></svg>