<svg class="icon" style="width: 1em;height: 1em;vertical-align: middle;fill: currentColor;overflow: hidden;" viewBox="0 0 1024 1024" version="1.1" xmlns="http://www.w3.org/2000/svg" width="32" height="32"><path d="M579.764706 184.470588h-105.411765a26.352941 26.352941 0 0 0-25.389176 19.275294l-175.676236 632.470589a26.352941 26.352941 0 0 0 31.051295 32.828235l430.441411-94.870588a26.352941 26.352941 0 0 0 19.696941-32.828236l-149.323294-537.6a26.352941 26.352941 0 0 0-25.389176-19.275294z m-85.38353 52.705883h65.325177l136.553412 491.489882-360.508236 79.450353 158.629647-570.940235z" fill="#568af2" /><path d="M711.529412 658.823529a26.352941 26.352941 0 0 1 3.312941 52.495059l-3.312941 0.210824h-368.941177a26.352941 26.352941 0 0 1-3.312941-52.495059l3.312941-0.210824h368.941177zM667.617882 500.705882a26.352941 26.352941 0 0 1 3.312942 52.495059l-3.312942 0.210824h-281.118117a26.352941 26.352941 0 0 1-3.312941-52.495059l3.312941-0.210824h281.118117zM623.676235 342.588235a26.352941 26.352941 0 0 1 3.312941 52.495059l-3.312941 0.210824h-193.234823a26.352941 26.352941 0 0 1-3.312941-52.495059l3.312941-0.210824h193.234823z" fill="#568af2" /><path d="M594.672941 264.493176a26.352941 26.352941 0 0 1 31.352471 15.209412l1.084235 3.132236 127.397647 458.541176a26.352941 26.352941 0 0 1-49.694118 17.227294l-1.114352-3.132235L576.331294 296.96a26.352941 26.352941 0 0 1 18.341647-32.436706zM427.008 282.804706a26.352941 26.352941 0 0 1 51.471059 10.902588l-0.692706 3.222588-131.764706 474.352942a26.352941 26.352941 0 0 1-51.501176-10.842353l0.722823-3.252706 131.764706-474.352941z" fill="#568af2" /></svg>