<svg class="icon" style="width: 1em;height: 1em;vertical-align: middle;fill: currentColor;overflow: hidden;" viewBox="0 0 1024 1024" version="1.1" xmlns="http://www.w3.org/2000/svg" width="32" height="32"><path d="M597.323294 124.235294c32.436706 0 58.970353 25.088 61.31953 56.922353l0.180705 4.577882V256a26.352941 26.352941 0 0 1-52.495058 3.312941l-0.210824-3.312941V185.735529a8.794353 8.794353 0 0 0-6.776471-8.553411l-2.017882-0.240942H245.970824a8.794353 8.794353 0 0 0-8.553412 6.776471l-0.240941 2.017882v562.176c0 4.156235 2.891294 7.649882 6.77647 8.553412l2.017883 0.240941H316.235294a26.352941 26.352941 0 0 1 3.312941 52.495059l-3.312941 0.210824H245.970824a61.500235 61.500235 0 0 1-61.31953-56.922353l-0.180706-4.577883V185.735529c0-32.436706 25.088-58.970353 56.922353-61.319529l4.577883-0.180706h351.35247z" fill="#568af2" /><path d="M289.882353 291.147294v527.058824c0 33.942588 27.527529 61.470118 61.500235 61.470117h421.647059a61.500235 61.500235 0 0 0 61.470118-61.470117v-527.058824a61.500235 61.500235 0 0 0-61.470118-61.500235h-421.647059a61.500235 61.500235 0 0 0-61.500235 61.500235z m52.705882 527.058824v-527.058824c0-4.848941 3.915294-8.794353 8.794353-8.794353h421.647059c4.818824 0 8.764235 3.915294 8.764235 8.794353v527.058824c0 4.818824-3.915294 8.764235-8.764235 8.764235h-421.647059a8.794353 8.794353 0 0 1-8.794353-8.764235z" fill="#568af2" /><path d="M562.206118 387.764706a166.912 166.912 0 1 0 0 333.793882 166.912 166.912 0 0 0 0-333.793882z m0 52.705882a114.206118 114.206118 0 1 1 0 228.382118 114.206118 114.206118 0 0 1 0-228.382118z" fill="#568af2" /><path d="M636.054588 550.640941a169.562353 169.562353 0 0 1 63.457883-5.330823l7.559529 0.903529a26.352941 26.352941 0 0 1-5.360941 52.344471l-7.228235-0.783059a119.085176 119.085176 0 0 0-43.670589 3.463529c-7.830588 2.288941-14.576941 5.481412-20.118588 9.637647-20.570353 15.450353-33.430588 63.066353-29.003294 69.722353a26.352941 26.352941 0 1 1-43.851294 29.244236c-21.323294-31.924706-0.180706-110.08 41.261176-141.131295a114.537412 114.537412 0 0 1 36.954353-18.070588zM509.500235 528.323765c14.546824 0 26.352941 11.776 26.352941 26.352941 0 49.694118-46.953412 96.617412-96.647529 96.617412a26.352941 26.352941 0 0 1-3.312941-52.495059l3.312941-0.210824c19.395765 0 41.200941-20.660706 43.670588-40.267294l0.271059-3.644235c0-14.576941 11.776-26.352941 26.352941-26.352941zM632.470588 405.323294c14.546824 0 26.352941 11.806118 26.352941 26.352941 0 11.685647-1.987765 27.708235-8.252235 44.393412-11.745882 31.322353-35.297882 52.254118-70.806588 52.254118a26.352941 26.352941 0 0 1-3.312941-52.525177l3.312941-0.180706c10.601412 0 16.715294-5.421176 21.443765-18.070588 3.011765-8.011294 4.427294-16.534588 4.818823-22.588235l0.090353-3.282824c0-14.546824 11.806118-26.352941 26.352941-26.352941z" fill="#568af2" /></svg>