<svg class="icon" style="width: 1em;height: 1em;vertical-align: middle;fill: currentColor;overflow: hidden;" viewBox="0 0 1024 1024" version="1.1" xmlns="http://www.w3.org/2000/svg" width="32" height="32"><path d="M853.323294 214.588235H150.588235A26.352941 26.352941 0 0 0 124.235294 240.941176v527.058824c0 14.546824 11.806118 26.352941 26.352941 26.352941h702.735059a26.352941 26.352941 0 0 0 26.352941-26.352941V240.941176a26.352941 26.352941 0 0 0-26.352941-26.352941z m-26.352941 52.705883v474.352941H176.941176V267.294118h650.029177z" fill="#568af2" /><path d="M233.833412 332.107294a26.352941 26.352941 0 0 1 33.520941-9.547294l2.891294 1.626353 491.911529 316.235294a26.352941 26.352941 0 0 1-25.6 45.959529l-2.891294-1.626352-491.911529-316.235295a26.352941 26.352941 0 0 1-7.920941-36.442353z" fill="#568af2" /><path d="M726.708706 330.721882a26.352941 26.352941 0 0 1 44.363294 28.250353l-1.927529 3.011765-245.970824 333.793882a26.352941 26.352941 0 0 1-44.363294-28.220235l1.927529-3.011765L726.738824 330.691765zM481.159529 330.179765a26.352941 26.352941 0 0 1 43.610353 29.394823l-2.017882 2.95153-245.940706 316.235294a26.352941 26.352941 0 0 1-43.610353-29.394824l1.987765-2.951529 245.970823-316.235294z" fill="#568af2" /></svg>