<svg class="icon" style="width: 1em;height: 1em;vertical-align: middle;fill: currentColor;overflow: hidden;" viewBox="0 0 1024 1024" version="1.1" xmlns="http://www.w3.org/2000/svg" width="32" height="32"><path d="M760.470588 264.794353H303.676235a26.352941 26.352941 0 0 0-26.352941 26.352941v210.82353l0.210824 3.19247a26.352941 26.352941 0 0 0 35.599058 21.38353l218.925177-84.208942 218.955294 84.208942a26.352941 26.352941 0 0 0 35.809882-24.576v-210.82353a26.352941 26.352941 0 0 0-26.352941-26.352941z m-26.352941 52.675765v146.100706l-192.572235-74.059295-3.734588-1.114353a26.352941 26.352941 0 0 0-15.179295 1.114353l-192.602353 74.059295v-146.100706h404.088471z" fill="#568af2" /><path d="M567.205647 124.235294H496.941176a79.058824 79.058824 0 0 0-79.058823 79.058824v87.853176c0 14.546824 11.806118 26.352941 26.352941 26.352941h175.676235a26.352941 26.352941 0 0 0 26.352942-26.352941V203.294118a79.058824 79.058824 0 0 0-79.058824-79.058824z m0 52.705882l3.312941 0.210824a26.352941 26.352941 0 0 1 23.04 26.142118v61.470117h-122.970353V203.294118c0-14.546824 11.806118-26.352941 26.352941-26.352942h70.264471zM522.541176 389.541647a26.352941 26.352941 0 0 1 15.36-1.144471l3.734589 1.144471 316.235294 123.000471a26.352941 26.352941 0 0 1 16.323765 29.515294l-0.90353 3.373176-105.411765 316.235294a26.352941 26.352941 0 0 1-50.838588-13.462588l0.873412-3.19247 97.460706-292.472471-283.316706-110.170353-283.316706 110.170353 97.520941 292.442353a26.352941 26.352941 0 0 1-13.613176 32.105412l-3.072 1.234823a26.352941 26.352941 0 0 1-32.075294-13.583059l-1.234824-3.072-105.411765-316.235294a26.352941 26.352941 0 0 1 12.288-31.442823l3.162353-1.445647 316.235294-123.000471z" fill="#568af2" /><path d="M907.655529 807.815529a26.352941 26.352941 0 0 1-13.824 34.605177l-10.812235 4.367059a638.945882 638.945882 0 0 1-39.936 14.095059 476.16 476.16 0 0 1-54.031059 13.94447 249.735529 249.735529 0 0 1-46.140235 4.848941c-33.972706 0-57.012706-3.493647-93.304471-13.191529l-36.864-10.24c-2.710588-0.752941-5.360941-1.415529-7.890823-2.078118l-14.426353-3.463529a250.217412 250.217412 0 0 0-58.337882-6.144c-21.594353 0-37.827765 1.656471-58.368 6.144l-14.426353 3.463529c-2.529882 0.662588-5.150118 1.325176-7.860706 2.078118l-36.894118 10.24c-36.291765 9.697882-59.331765 13.191529-93.274353 13.191529-14.095059 0-29.515294-1.686588-46.170353-4.848941a476.16 476.16 0 0 1-54.031059-13.94447 640.271059 640.271059 0 0 1-36.080941-12.589177l-12.679529-5.029647a26.352941 26.352941 0 1 1 18.793412-49.272471l9.306353 3.764706 3.463529 1.325177c10.24 3.915294 21.443765 7.890824 33.069176 11.565176 16.715294 5.270588 32.948706 9.517176 48.00753 12.378353 13.613176 2.590118 25.871059 3.945412 36.321882 3.945412 21.564235 0 37.827765-1.656471 58.337883-6.144l14.426352-3.463529 16.323765-4.367059 9.065412-2.56c48.308706-13.793882 73.035294-18.582588 112.64-18.582589 34.002824 0 57.012706 3.493647 93.304471 13.19153l36.894117 10.24c2.710588 0.752941 5.330824 1.415529 7.860706 2.078118l14.456471 3.463529c20.48 4.517647 36.743529 6.144 58.337882 6.144 10.450824 0 22.678588-1.355294 36.321882-3.915294 15.058824-2.891294 31.262118-7.137882 47.977412-12.408471 7.770353-2.469647 15.329882-5.029647 22.528-7.649882l14.034824-5.240471 9.276235-3.764706a26.352941 26.352941 0 0 1 34.635294 13.824z" fill="#568af2" /><path d="M532.088471 387.764706c13.432471 0 24.515765 10.059294 26.142117 23.04l0.210824 3.312941v404.088471a26.352941 26.352941 0 0 1-52.525177 3.312941l-0.180706-3.312941V414.117647c0-14.546824 11.776-26.352941 26.352942-26.352941z" fill="#568af2" /></svg>