<svg class="icon" style="width: 1em;height: 1em;vertical-align: middle;fill: currentColor;overflow: hidden;" viewBox="0 0 1024 1024" version="1.1" xmlns="http://www.w3.org/2000/svg" width="32" height="32"><path d="M301.176471 150.588235v35.147294l70.415058 670.358589c3.674353 34.846118 55.928471 29.515294 52.434824-5.391059L353.761882 147.968C350.448941 114.718118 301.176471 117.157647 301.176471 150.588235z" fill="#568af2" /><path d="M381.500235 826.970353a26.352941 26.352941 0 0 1 3.312941 52.525176l-3.312941 0.180706H240.941176a26.352941 26.352941 0 0 1-3.312941-52.495059l3.312941-0.210823h140.559059zM303.465412 179.862588l24.515764 280.033883c1.505882 17.468235 19.305412 28.581647 35.659295 22.317176L841.487059 299.369412c24.756706-9.487059 21.594353-45.477647-4.427294-50.507294L334.727529 151.702588a26.352941 26.352941 0 0 0-31.262117 28.16z m55.536941 30.238118l377.434353 72.975059-359.002353 137.396706-18.432-210.371765z" fill="#568af2" /></svg>