<svg class="icon" style="width: 1em;height: 1em;vertical-align: middle;fill: currentColor;overflow: hidden;" viewBox="0 0 1024 1024" version="1.1" xmlns="http://www.w3.org/2000/svg" width="32" height="32"><path d="M769.264941 483.147294h-527.058823a26.352941 26.352941 0 0 0-26.352942 26.352941v193.234824c0 33.972706 27.527529 61.500235 61.470118 61.500235h456.794353a61.500235 61.500235 0 0 0 61.500235-61.500235v-193.234824a26.352941 26.352941 0 0 0-26.352941-26.352941zM268.528941 535.792941h474.352941v166.912c0 4.848941-3.915294 8.794353-8.764235 8.794353H277.323294l-2.017882-0.240941a8.794353 8.794353 0 0 1-6.746353-8.553412l-0.030118-166.912z" fill="#568af2" /><path d="M734.117647 184.470588H277.323294a61.500235 61.500235 0 0 0-61.470118 61.500236v263.529411c0 14.546824 11.776 26.352941 26.352942 26.352941h527.058823a26.352941 26.352941 0 0 0 26.352941-26.352941v-263.529411a61.500235 61.500235 0 0 0-61.500235-61.500236z m0 52.705883l2.017882 0.240941c3.885176 0.903529 6.776471 4.397176 6.776471 8.553412l-0.030118 237.146352H268.528941V245.970824c0-4.848941 3.945412-8.794353 8.794353-8.794353h456.794353zM400.323765 711.529412h-105.411765a26.352941 26.352941 0 0 0-26.352941 26.352941v52.705882a79.058824 79.058824 0 1 0 158.117647 0V737.882353a26.352941 26.352941 0 0 0-26.352941-26.352941z m-79.088941 52.705882h52.705882v26.352941a26.352941 26.352941 0 0 1-26.322824 26.352941l-3.312941-0.210823a26.352941 26.352941 0 0 1-23.04-26.142118l-0.030117-26.352941zM716.559059 711.529412h-105.411765a26.352941 26.352941 0 0 0-26.352941 26.352941v52.705882a79.058824 79.058824 0 1 0 158.117647 0V737.882353a26.352941 26.352941 0 0 0-26.352941-26.352941z m-79.088941 52.705882h52.705882v26.352941a26.352941 26.352941 0 0 1-26.322824 26.352941l-3.312941-0.210823a26.352941 26.352941 0 0 1-23.04-26.142118l-0.030117-26.352941z" fill="#568af2" /><path d="M189.500235 289.882353c13.432471 0 24.515765 10.059294 26.142118 23.04l0.210823 3.312941v70.264471a26.352941 26.352941 0 0 1-52.525176 3.312941l-0.180706-3.312941V316.235294c0-14.546824 11.776-26.352941 26.352941-26.352941zM821.970824 289.882353c13.432471 0 24.515765 10.059294 26.142117 23.04l0.210824 3.312941v70.264471a26.352941 26.352941 0 0 1-52.525177 3.312941l-0.180706-3.312941V316.235294c0-14.546824 11.776-26.352941 26.352942-26.352941z" fill="#568af2" /><path d="M347.617882 632.470588m-35.147294 0a35.147294 35.147294 0 1 0 70.294588 0 35.147294 35.147294 0 1 0-70.294588 0Z" fill="#568af2" /><path d="M663.853176 632.470588m-35.147294 0a35.147294 35.147294 0 1 0 70.294589 0 35.147294 35.147294 0 1 0-70.294589 0Z" fill="#568af2" /><path d="M609.129412 193.204706a26.352941 26.352941 0 0 1 41.381647 32.436706l-2.228706 2.800941-158.117647 175.706353a26.352941 26.352941 0 0 1-41.381647-32.436706l2.228706-2.831059 158.117647-175.676235zM731.437176 211.516235A26.352941 26.352941 0 0 1 774.023529 242.356706l-2.108235 2.891294-87.823059 105.411765A26.352941 26.352941 0 0 1 641.505882 319.849412l2.108236-2.891294 87.823058-105.411765z" fill="#568af2" /></svg>