<svg class="icon" style="width: 1em;height: 1em;vertical-align: middle;fill: currentColor;overflow: hidden;" viewBox="0 0 1024 1024" version="1.1" xmlns="http://www.w3.org/2000/svg" width="32" height="32"><path d="M501.970824 124.235294C293.345882 124.235294 124.235294 293.345882 124.235294 501.970824c0 208.594824 169.110588 377.705412 377.73553 377.705411 208.594824 0 377.705412-169.110588 377.705411-377.705411 0-208.624941-169.110588-377.735529-377.705411-377.73553z m0 52.705882c179.501176 0 324.999529 145.528471 324.999529 325.029648s-145.498353 324.999529-324.999529 324.999529S176.941176 681.472 176.941176 501.970824 322.469647 176.941176 501.970824 176.941176z" fill="#568af2" /><path d="M853.323294 475.617882a26.352941 26.352941 0 0 1 3.312941 52.495059l-3.312941 0.210824H150.588235a26.352941 26.352941 0 0 1-3.312941-52.525177l3.312941-0.180706h702.735059z" fill="#568af2" /><path d="M501.970824 124.235294c-98.785882 0-166.912 170.315294-166.912 377.73553 0 207.390118 68.126118 377.705412 166.912 377.705411s166.881882-170.315294 166.881882-377.705411a856.847059 856.847059 0 0 0-11.384471-141.854118l-3.373176-18.552471c-25.148235-128-80.594824-217.328941-152.124235-217.328941z m0 52.705882c28.220235 0 56.771765 36.080941 78.275764 94.750118l4.638118 13.402353c2.258824 6.866824 4.457412 14.034824 6.505412 21.413647l4.005647 15.119059c3.222588 12.890353 6.113882 26.383059 8.673882 40.478118l2.861177 17.167058 2.529882 17.709177c1.204706 8.944941 2.198588 18.100706 3.072 27.407059l1.566118 18.823529a834.379294 834.379294 0 0 1 0 117.488941l-1.566118 18.82353c-0.873412 9.336471-1.897412 18.462118-3.072 27.407059l-2.529882 17.709176-2.861177 17.167059c-2.56 14.095059-5.451294 27.617882-8.673882 40.478117l-4.005647 15.119059c-2.048 7.408941-4.216471 14.546824-6.505412 21.413647l-4.638118 13.402353c-21.504 58.669176-50.055529 94.750118-78.305882 94.750118-25.088 0-50.416941-28.491294-70.836706-76.047059l-4.999529-12.257882c-10.601412-27.437176-19.606588-60.235294-26.232471-96.858353l-2.891294-17.167059-1.325177-8.794353-2.319058-17.92a814.923294 814.923294 0 0 1-5.51153-85.955765l-0.060235-9.999058c0-33.460706 1.987765-65.686588 5.571765-95.984942l2.319058-17.92 1.325177-8.794353 2.891294-17.167058c6.625882-36.623059 15.661176-69.421176 26.232471-96.828236l4.999529-12.288c20.419765-47.525647 45.778824-76.047059 70.866824-76.047059z" fill="#568af2" /><path d="M731.798588 239.856941a26.352941 26.352941 0 0 1 37.25553 37.285647 376.560941 376.560941 0 0 1-267.083294 110.622118c-101.526588 0-196.728471-40.267294-267.113412-110.622118a26.352941 26.352941 0 0 1 37.285647-37.285647 323.855059 323.855059 0 0 0 229.797647 95.201883c87.431529 0 169.261176-34.635294 229.857882-95.171765zM501.970824 616.146824c101.496471 0 196.728471 40.267294 267.083294 110.652235a26.352941 26.352941 0 0 1-37.25553 37.255529 323.855059 323.855059 0 0 0-229.827764-95.171764c-87.401412 0-169.261176 34.605176-229.827765 95.171764a26.352941 26.352941 0 1 1-37.285647-37.255529 376.560941 376.560941 0 0 1 267.113412-110.652235z" fill="#568af2" /></svg>