<svg class="icon" style="width: 1em;height: 1em;vertical-align: middle;fill: currentColor;overflow: hidden;" viewBox="0 0 1024 1024" version="1.1" xmlns="http://www.w3.org/2000/svg" width="32" height="32"><path d="M554.676706 124.235294c32.406588 0 58.970353 25.088 61.319529 56.922353l0.150589 4.577882v114.176h79.058823c32.436706 0 58.970353 25.088 61.319529 56.922353l0.180706 4.577883-0.030117 203.294117 45.296941 22.648471a61.500235 61.500235 0 0 1 31.774118 71.378823l-1.505883 4.638118-50.959059 140.137412 3.704471 1.867294 13.342118 7.529412c18.070588 10.300235 30.328471 14.064941 54.994823 14.064941a26.352941 26.352941 0 0 1 0 52.705882c-31.744 0-52.043294-5.421176-74.842353-17.558588l-12.8-7.228235c-13.793882-7.860706-21.263059-10.330353-35.328-10.330353-14.034824 0-20.690824 2.048-33.129412 9.908706l-4.969411 3.222588c-23.672471 15.811765-39.152941 21.985882-67.312942 21.985882-22.889412 0-38.550588-4.367059-59.060705-14.607059l-11.535059-6.023529c-20.389647-10.902588-31.623529-14.486588-52.404706-14.486588-18.432 0-29.364706 2.831059-45.869177 11.083294l-10.992941 5.782588c-24.184471 12.860235-40.658824 18.251294-66.108235 18.251294-25.780706 0-40.96-5.210353-61.560471-18.221176l-5.75247-3.764706c-15.841882-10.541176-22.287059-13.131294-38.098824-13.131294-12.288 0-19.576471 1.897412-30.418823 7.649882l-11.384471 6.445177c-25.509647 14.576941-46.531765 21.022118-81.167059 21.022117a26.352941 26.352941 0 1 1 0-52.705882c22.196706 0 34.364235-3.041882 49.754353-11.173647l11.745883-6.625882c3.674353-2.108235 7.168-4.005647 10.571294-5.692236L171.670588 663.371294a61.500235 61.500235 0 0 1 25.99153-73.637647l4.276706-2.379294 45.266823-22.618353V361.411765c0-32.406588 25.088-58.970353 56.922353-61.31953l4.577882-0.180706h79.058824V185.735529c0-32.436706 25.088-58.970353 56.922353-61.319529l4.577882-0.180706h105.411765zM499.952941 497.543529l-1.927529 0.692706-272.504471 136.282353a8.794353 8.794353 0 0 0-4.818823 8.734118l0.481882 2.108235 53.278118 146.492235 6.535529 0.150589c21.443765 0.963765 35.599059 6.324706 54.121412 18.070588l5.782588 3.764706c15.811765 10.541176 22.287059 13.131294 38.068706 13.131294 13.522824 0 22.046118-2.288941 35.900235-9.246118l9.908706-5.210353c19.456-10.390588 34.695529-16.444235 52.976941-19.094588a25.449412 25.449412 0 0 1-1.957647-7.047529l-0.180706-3.312941v-140.559059a26.352941 26.352941 0 0 1 52.495059-3.312941l0.210824 3.312941V783.058824c0 3.674353-0.752941 7.228235-2.108236 10.390588 15.872 2.258824 29.515294 7.168 45.658353 15.299764l11.745883 6.144c17.227294 9.185882 26.142118 12.077176 41.321411 12.077177 14.034824 0 20.690824-2.048 33.129412-9.908706l4.969412-3.222588c23.431529-15.631059 38.851765-21.865412 66.379294-21.985883l53.308235-146.492235a8.794353 8.794353 0 0 0-2.499764-9.637647l-1.807059-1.204706-272.534588-136.282353a8.794353 8.794353 0 0 0-5.933177-0.692706z m195.252706-144.926117H308.705882a8.794353 8.794353 0 0 0-8.553411 6.77647L299.911529 361.411765v169.622588l176.278589-81.317647c13.071059-6.053647 27.768471-7.258353 41.472-3.644235l5.12 1.596235 4.939294 2.017882 176.278588 81.347765V361.411765a8.794353 8.794353 0 0 0-4.909176-7.890824l-1.867295-0.662588-2.017882-0.240941z m-140.528941-175.676236h-105.411765a8.794353 8.794353 0 0 0-8.553412 6.776471l-0.240941 2.017882v114.176h122.970353V185.735529a8.794353 8.794353 0 0 0-6.746353-8.553411l-2.017882-0.240942z" fill="#568af2" /></svg>