<svg class="icon" style="width: 1em;height: 1em;vertical-align: middle;fill: currentColor;overflow: hidden;" viewBox="0 0 1024 1024" version="1.1" xmlns="http://www.w3.org/2000/svg" width="32" height="32"><path d="M759.205647 154.352941a79.058824 79.058824 0 0 1 78.908235 74.059294l0.150589 4.99953v491.911529a79.058824 79.058824 0 0 1-74.059295 78.908235l-4.999529 0.150589h-26.352941v43.941647a26.352941 26.352941 0 0 1-52.495059 3.312941l-0.210823-3.312941v-43.941647h-298.646589v43.941647a26.352941 26.352941 0 0 1-52.525176 3.312941l-0.180706-3.312941v-43.941647h-26.352941a79.058824 79.058824 0 0 1-78.908236-74.059294l-0.150588-4.99953V233.411765a79.058824 79.058824 0 0 1 74.059294-78.908236l4.99953-0.150588h456.764235z m26.352941 368.941177H276.088471v202.029176c0 13.432471 10.029176 24.545882 23.04 26.172235l3.312941 0.180706h456.764235a26.352941 26.352941 0 0 0 26.172235-23.04l0.180706-3.312941v-202.029176z m-79.058823 114.206117a35.147294 35.147294 0 1 1 0 70.264471 35.147294 35.147294 0 0 1 0-70.264471z m-351.352471 0a35.147294 35.147294 0 1 1 0 70.264471 35.147294 35.147294 0 0 1 0-70.264471zM759.205647 207.058824H302.441412a26.352941 26.352941 0 0 0-26.172236 23.04l-0.180705 3.312941v237.17647h509.470117V233.411765a26.352941 26.352941 0 0 0-23.04-26.142118l-3.312941-0.210823z m-122.970353 87.853176a26.352941 26.352941 0 0 1 3.312941 52.495059l-3.312941 0.210823h-210.823529a26.352941 26.352941 0 0 1-3.312941-52.525176l3.312941-0.180706h210.823529z" fill="#568af2" /></svg>