<svg class="icon" style="width: 1em;height: 1em;vertical-align: middle;fill: currentColor;overflow: hidden;" viewBox="0 0 1024 1024" version="1.1" xmlns="http://www.w3.org/2000/svg" width="32" height="32"><path d="M506.970353 234.676706a272.323765 272.323765 0 1 0 0 544.617412 272.323765 272.323765 0 0 0 0-544.617412z m0 52.705882a219.617882 219.617882 0 1 1 0 439.205647 219.617882 219.617882 0 0 1 0-439.205647z" fill="#568af2" /><path d="M561.453176 257.505882a26.352941 26.352941 0 0 1 34.334118 39.81553l-2.710588 2.349176a58.608941 58.608941 0 0 0-10.63153 11.685647c-7.830588 10.902588-12.047059 23.130353-11.173647 36.803765 0.301176 4.848941 1.204706 7.499294 4.788706 12.047059l5.12 5.903059c15.600941 17.317647 22.437647 30.208 22.437647 53.007058 0 55.898353-46.110118 129.957647-104.417882 140.438589-26.172235 4.698353-46.230588-0.903529-68.668235-14.817883l-9.125647-5.933176-10.691765-7.077647-1.505882 21.895529-0.421647 4.457412c-1.927529 18.311529-6.776471 32.798118-17.79953 45.658353-28.400941 33.129412-78.275765 33.731765-122.48847 15.450353a26.352941 26.352941 0 1 1 20.178823-48.730353c25.539765 10.571294 52.615529 10.24 62.283294-1.024 2.861176-3.312941 4.517647-8.192 5.391059-16.865882l0.783059-10.842353c1.837176-31.412706 6.264471-46.170353 27.798588-58.277647a46.381176 46.381176 0 0 1 33.912471-4.909177c5.330824 1.204706 10.24 3.192471 15.36 5.963294l6.595764 3.885177 13.251765 8.82447c14.576941 9.728 23.491765 12.679529 35.84 10.450824 29.635765-5.330824 61.018353-55.717647 61.018353-88.545883 0-6.083765-0.903529-8.523294-6.294588-14.757647l-3.132236-3.553882c-14.757647-16.384-21.473882-28.310588-22.829176-49.332706-1.686588-26.895059 6.505412-50.718118 20.961882-70.866823 7.830588-10.902588 15.781647-18.552471 21.835294-23.100236zM591.811765 562.477176c30.750118-15.36 95.171765 8.463059 142.607059 47.043765a26.352941 26.352941 0 1 1-33.249883 40.899765c-28.370824-23.070118-67.011765-39.092706-81.076706-40.990118l-1.897411-0.210823-1.264942 5.933176-2.048 10.842353c-3.463529 17.317647-8.312471 29.485176-18.974117 40.176941a60.416 60.416 0 0 1-20.239059 14.336l-7.168 3.222589 0.090353 1.957647c0.512 5.722353 2.710588 9.517176 8.673882 15.179294l4.638118 4.096 12.257882 10.209882a26.352941 26.352941 0 0 1-30.930823 42.526118l-3.162353-2.349177-14.155294-11.776c-20.178824-17.618824-30.147765-34.936471-30.117647-60.928 0-24.365176 10.24-37.857882 29.696-46.351059l7.649882-3.463529 2.620235-1.475765a13.131294 13.131294 0 0 0 0.963765-0.722823l1.897412-1.746824c1.054118-1.054118 2.108235-3.312941 3.252706-7.378823l1.325176-5.842824 1.295059-6.896941c4.668235-25.6 9.336471-37.315765 27.316706-46.290824z" fill="#568af2" /><path d="M506.970353 155.617882m-35.147294 0a35.147294 35.147294 0 1 0 70.294588 0 35.147294 35.147294 0 1 0-70.294588 0Z" fill="#568af2" /><path d="M506.970353 858.352941m-35.147294 0a35.147294 35.147294 0 1 0 70.294588 0 35.147294 35.147294 0 1 0-70.294588 0Z" fill="#568af2" /><path d="M858.352941 506.970353m-35.147294 0a35.147294 35.147294 0 1 0 70.294588 0 35.147294 35.147294 0 1 0-70.294588 0Z" fill="#568af2" /><path d="M752.941176 261.029647m-35.147294 0a35.147294 35.147294 0 1 0 70.294589 0 35.147294 35.147294 0 1 0-70.294589 0Z" fill="#568af2" /><path d="M261.029647 752.941176m-35.147294 0a35.147294 35.147294 0 1 0 70.294588 0 35.147294 35.147294 0 1 0-70.294588 0Z" fill="#568af2" /><path d="M155.617882 506.970353m-35.147294 0a35.147294 35.147294 0 1 0 70.294588 0 35.147294 35.147294 0 1 0-70.294588 0Z" fill="#568af2" /><path d="M261.029647 261.029647m-35.147294 0a35.147294 35.147294 0 1 0 70.294588 0 35.147294 35.147294 0 1 0-70.294588 0Z" fill="#568af2" /><path d="M752.941176 752.941176m-35.147294 0a35.147294 35.147294 0 1 0 70.294589 0 35.147294 35.147294 0 1 0-70.294589 0Z" fill="#568af2" /><path d="M261.029647 480.617412c14.546824 0 26.352941 11.806118 26.352941 26.352941 0 58.277647 22.768941 112.911059 62.735059 153.690353a26.352941 26.352941 0 0 1-37.647059 36.894118 271.480471 271.480471 0 0 1-77.793882-190.584471c0-14.546824 11.776-26.352941 26.352941-26.352941zM752.941176 480.617412c14.546824 0 26.352941 11.806118 26.352942 26.352941a272.323765 272.323765 0 0 1-272.323765 272.323765 26.352941 26.352941 0 0 1 0-52.705883 219.617882 219.617882 0 0 0 219.617882-219.617882c0-14.546824 11.806118-26.352941 26.352941-26.352941zM506.970353 234.676706c72.222118 0 140.047059 28.250353 190.584471 77.793882a26.352941 26.352941 0 1 1-36.894118 37.647059 218.774588 218.774588 0 0 0-153.690353-62.735059 26.352941 26.352941 0 0 1 0-52.705882z" fill="#568af2" /></svg>