<svg class="icon" style="width: 1em;height: 1em;vertical-align: middle;fill: currentColor;overflow: hidden;" viewBox="0 0 1024 1024" version="1.1" xmlns="http://www.w3.org/2000/svg" width="32" height="32"><path d="M818.206118 681.411765a26.352941 26.352941 0 0 1 3.312941 52.495059l-3.312941 0.210823H677.647059a26.352941 26.352941 0 0 1-3.312941-52.495059l3.312941-0.210823h140.559059zM624.941176 804.382118a26.352941 26.352941 0 0 1 3.312942 52.525176l-3.312942 0.180706h-70.26447a26.352941 26.352941 0 0 1-3.312941-52.495059l3.312941-0.210823h70.26447zM220.852706 365.176471H150.588235a26.352941 26.352941 0 0 0-23.100235 39.03247l8.041412 14.21553 8.131764 13.94447c12.378353 21.022118 25.509647 42.044235 38.79153 61.741177 9.788235 14.486588 19.275294 27.738353 28.461176 39.484235 30.328471 38.851765 54.362353 59.964235 80.233412 59.964235h562.176c24.666353 0 35.84-30.810353 16.865882-46.592l-105.411764-87.853176-2.95153-2.108236a26.352941 26.352941 0 0 0-13.914353-3.975529L335.811765 452.969412l-98.063059-81.709177a26.352941 26.352941 0 0 0-16.865882-6.113882z m88.545882 134.445176l3.011765 2.138353a26.352941 26.352941 0 0 0 13.854118 3.975529l412.129882-0.030117 42.164706 35.147294H291.147294c-0.301176 0-0.843294-0.210824-1.566118-0.662588l-2.770823-2.017883-3.824941-3.252706-4.788706-4.517647-5.541647-5.662117-6.264471-6.806589-3.312941-3.794823-6.987294-8.402824-3.614118-4.577882c-8.372706-10.691765-17.167059-22.979765-26.322823-36.532706l-9.456941-14.275765-9.366589-14.697411-10.932706-17.769412h14.938353l98.063059 81.739294z" fill="#568af2" /><path d="M408.154353 312.470588c4.367059 0 8.613647 1.084235 12.438588 3.102118l2.740706 1.716706 199.228235 140.559059a26.352941 26.352941 0 0 1-27.316706 44.935529l-3.072-1.867294-192.361411-135.740235h-0.361412l39.333647 104.929882a26.352941 26.352941 0 0 1-12.378353 32.587294l-3.011765 1.355294a26.352941 26.352941 0 0 1-32.587294-12.40847l-1.355294-3.011765-52.705882-140.559059a26.352941 26.352941 0 0 1 21.473882-35.418353l3.192471-0.180706h46.742588zM589.342118 547.990588a26.352941 26.352941 0 0 1 38.490353 35.84l-2.409412 2.620236-224.918588 210.823529a26.352941 26.352941 0 0 1-14.034824 6.806588l-3.975529 0.301177h-56.229647a26.352941 26.352941 0 0 1-25.750589-31.924706l0.90353-3.252706 74.992941-210.82353a26.352941 26.352941 0 0 1 50.567529 14.456471l-0.903529 3.192471-62.494118 175.646117h8.463059l217.298824-203.685647zM765.891765 154.352941c-33.551059 0-57.374118 15.781647-69.993412 40.83953l-2.469647 5.300705-0.993882 2.499765-7.288471-0.361412c-2.620235-0.060235-5.240471-0.030118-7.830588 0.090353-10.511059 0.572235-20.239059 2.710588-29.003294 7.107765-22.016 10.992941-30.659765 30.418824-32.045177 55.597177l-0.180706 5.421176v8.914824l-2.800941 1.957647a99.388235 99.388235 0 0 1-8.914823 4.969411 187.693176 187.693176 0 0 1-22.889412 9.577412c-28.370824 9.426824-21.564235 51.350588 8.31247 51.350588h175.706353c12.227765 0 28.852706-2.590118 46.08-10.601411 20.329412-9.456941 36.141176-24.786824 44.363294-46.652236 22.979765-61.168941-20.781176-136.011294-90.051764-136.011294z m0 52.705883c30.238118 0 51.440941 36.231529 40.719059 64.752941-2.951529 7.890824-8.673882 13.432471-17.257412 17.408l-3.885177 1.626353a61.108706 61.108706 0 0 1-19.968 4.065882l-97.551059-0.030118 0.120471-0.361411c0.512-2.650353 0.783059-5.421176 0.783059-8.402824l-0.090353-11.806118 0.150588-5.993411c0.451765-8.282353 1.505882-10.601412 2.921412-11.324236a22.588235 22.588235 0 0 1 8.222118-1.626353c5.481412-0.301176 11.926588 0.361412 18.371764 1.656471l5.601883 1.295059 0.993882 0.301176a26.352941 26.352941 0 0 0 33.912471-21.955764l0.210823-3.252706c0-2.831059 1.024-8.944941 3.794824-14.486589 3.975529-7.860706 9.999059-11.866353 22.949647-11.866352z" fill="#568af2" /></svg>