<svg class="icon" style="width: 1em;height: 1em;vertical-align: middle;fill: currentColor;overflow: hidden;" viewBox="0 0 1024 1024" version="1.1" xmlns="http://www.w3.org/2000/svg" width="32" height="32"><path d="M773.029647 194.499765H281.088a26.352941 26.352941 0 0 0-26.352941 26.352941V361.411765c0 14.546824 11.806118 26.352941 26.352941 26.352941h491.941647a26.352941 26.352941 0 0 0 18.612706-7.710118l70.294588-70.294588a26.352941 26.352941 0 0 0 0-37.255529l-70.294588-70.264471a26.352941 26.352941 0 0 0-18.612706-7.740235z m-10.962823 52.705882l43.941647 43.911529-43.941647 43.941648H307.440941V247.205647h454.625883zM773.029647 458.029176H281.088a26.352941 26.352941 0 0 0-18.612706 7.740236L192.150588 536.033882a26.352941 26.352941 0 0 0 0 37.25553l70.294588 70.294588a26.352941 26.352941 0 0 0 18.612706 7.710118h491.941647a26.352941 26.352941 0 0 0 26.352942-26.352942v-140.559058a26.352941 26.352941 0 0 0-26.352942-26.352942z m-26.383059 52.705883v87.853176H292.020706l-43.941647-43.941647 43.941647-43.911529h454.625882z" fill="#568af2" /><path d="M527.058824 598.588235c13.432471 0 24.515765 10.059294 26.142117 23.04l0.210824 3.312941v228.382118a26.352941 26.352941 0 0 1-52.495059 3.312941l-0.210824-3.312941V624.941176c0-14.546824 11.806118-26.352941 26.352942-26.352941zM527.058824 335.058824c13.432471 0 24.515765 10.059294 26.142117 23.04l0.210824 3.312941v122.970353a26.352941 26.352941 0 0 1-52.495059 3.312941l-0.210824-3.312941V361.411765c0-14.546824 11.806118-26.352941 26.352942-26.352941zM527.058824 124.235294c13.432471 0 24.515765 10.059294 26.142117 23.04l0.210824 3.312941v70.264471a26.352941 26.352941 0 0 1-52.495059 3.312941l-0.210824-3.312941V150.588235c0-14.546824 11.806118-26.352941 26.352942-26.352941z" fill="#568af2" /><path d="M614.912 826.970353a26.352941 26.352941 0 0 1 3.312941 52.525176l-3.312941 0.180706h-175.706353a26.352941 26.352941 0 0 1-3.312941-52.495059l3.312941-0.210823h175.706353z" fill="#568af2" /></svg>