<svg class="icon" style="width: 1em;height: 1em;vertical-align: middle;fill: currentColor;overflow: hidden;" viewBox="0 0 1024 1024" version="1.1" xmlns="http://www.w3.org/2000/svg" width="32" height="32"><path d="M329.908706 259.764706l-5.601882 0.150588a96.617412 96.617412 0 0 0-88.515765 74.541177l-37.014588 126.494117-1.656471 0.873412a131.764706 131.764706 0 0 0-72.884706 117.850353V707.764706l0.150588 4.999529a79.058824 79.058824 0 0 0 78.908236 74.059294h9.216l0.180706 2.108236a96.647529 96.647529 0 0 0 96.015058 85.744941l5.481412-0.150588a96.647529 96.647529 0 0 0 90.533647-85.594353l0.180706-2.108236h194.108235l0.180706 2.108236a96.677647 96.677647 0 0 0 96.075294 85.744941l5.481412-0.150588a96.677647 96.677647 0 0 0 90.533647-85.594353l0.180706-2.108236h9.155765a79.058824 79.058824 0 0 0 79.058823-79.058823v-128.120471l-0.150588-6.475294a131.764706 131.764706 0 0 0-66.680471-108.182588l-7.499294-3.945412-35.599058-127.09647c-9.517176-42.767059-48.700235-74.179765-93.967059-74.179765H329.908706z m0 52.705882h345.871059c20.570353 0 38.4 14.275765 42.887529 34.334118l39.062588 139.715765c2.017882 7.137882 6.927059 13.131294 13.613177 16.444235l11.926588 5.993412a79.058824 79.058824 0 0 1 43.700706 70.686117V707.764706a26.352941 26.352941 0 0 1-26.352941 26.352941h-35.087059a26.352941 26.352941 0 0 0-26.352941 26.352941v17.558588a43.911529 43.911529 0 1 1-87.883294 0v-17.558588a26.352941 26.352941 0 0 0-26.352942-26.352941h-245.970823a26.352941 26.352941 0 0 0-26.352941 26.352941v17.588706a43.911529 43.911529 0 1 1-87.823059 0v-17.588706a26.352941 26.352941 0 0 0-26.352941-26.352941H203.294118a26.352941 26.352941 0 0 1-26.352942-26.352941v-128.090353c0-29.936941 16.926118-57.344 43.730824-70.716235l11.986824-5.993412a26.352941 26.352941 0 0 0 13.522823-16.173177l40.568471-138.962823c4.999529-21.293176 22.738824-35.358118 43.12847-35.358118z" fill="#568af2" /><path d="M317.500235 672.617412a43.911529 43.911529 0 1 0 0-87.823059 43.911529 43.911529 0 0 0 0 87.823059zM686.441412 672.617412a43.911529 43.911529 0 1 0 0-87.823059 43.911529 43.911529 0 0 0 0 87.823059zM569.374118 154.352941h-134.836706c-22.889412 0-41.893647 16.926118-46.411294 39.514353l-17.408 87.070118a26.352941 26.352941 0 0 0 25.840941 31.533176h210.823529a26.352941 26.352941 0 0 0 25.840941-31.533176l-17.438117-87.04c-4.517647-22.618353-23.491765-39.544471-46.381177-39.544471z m-4.698353 52.705883l10.541176 52.705882h-146.55247l10.541176-52.705882h125.470118zM660.088471 470.588235a26.352941 26.352941 0 0 1 3.312941 52.495059l-3.312941 0.210824h-316.235295a26.352941 26.352941 0 0 1-3.312941-52.495059l3.312941-0.210824h316.235295z" fill="#568af2" /></svg>