<svg class="icon" style="width: 1em;height: 1em;vertical-align: middle;fill: currentColor;overflow: hidden;" viewBox="0 0 1024 1024" version="1.1" xmlns="http://www.w3.org/2000/svg" width="32" height="32"><path d="M219.617882 184.470588c13.432471 0 24.515765 10.059294 26.142118 23.04l0.210824 3.312941v632.470589a26.352941 26.352941 0 0 1-52.525177 3.312941L193.264941 843.294118V210.823529c0-14.546824 11.776-26.352941 26.352941-26.352941zM500.705882 184.470588c13.432471 0 24.515765 10.059294 26.142118 23.04L527.058824 210.823529v70.264471a26.352941 26.352941 0 0 1-52.495059 3.312941l-0.210824-3.312941V210.823529c0-14.546824 11.806118-26.352941 26.352941-26.352941zM500.705882 430.441412c13.432471 0 24.515765 10.029176 26.142118 23.04l0.210824 3.312941v140.528941a26.352941 26.352941 0 0 1-52.495059 3.312941l-0.210824-3.312941v-140.528941c0-14.576941 11.806118-26.352941 26.352941-26.352941zM500.705882 746.676706c13.432471 0 24.515765 10.029176 26.142118 23.04l0.210824 3.312941V843.294118a26.352941 26.352941 0 0 1-52.495059 3.312941L474.352941 843.294118v-70.264471c0-14.576941 11.806118-26.352941 26.352941-26.352941zM781.793882 184.470588c13.432471 0 24.545882 10.059294 26.172236 23.04l0.180706 3.312941v632.470589a26.352941 26.352941 0 0 1-52.495059 3.312941l-0.210824-3.312941V210.823529c0-14.546824 11.806118-26.352941 26.352941-26.352941z" fill="#568af2" /></svg>