<svg class="icon" style="width: 1em;height: 1em;vertical-align: middle;fill: currentColor;overflow: hidden;" viewBox="0 0 1024 1024" version="1.1" xmlns="http://www.w3.org/2000/svg" width="32" height="32"><path d="M504.470588 124.235294c-111.314824 0-194.861176 19.576471-252.988235 48.730353-23.491765 11.776-36.894118 36.050824-36.894118 62.644706v477.184c0 33.942588 27.527529 61.470118 61.500236 61.470118h456.764235a61.500235 61.500235 0 0 0 61.500235-61.470118V235.610353c0-26.593882-13.372235-50.868706-36.894117-62.644706-58.127059-29.153882-141.673412-48.730353-252.988236-48.730353z m0 52.705882c103.152941 0 178.597647 17.679059 229.376 43.158589 4.698353 2.349176 7.800471 7.951059 7.800471 15.510588v477.184c0 4.818824-3.915294 8.764235-8.794353 8.764235H276.088471a8.794353 8.794353 0 0 1-8.794353-8.764235V235.610353c0-7.559529 3.102118-13.161412 7.80047-15.510588 50.808471-25.479529 126.223059-43.158588 229.376-43.158589z" fill="#568af2" /><path d="M680.146824 721.558588c13.432471 0 24.545882 10.059294 26.172235 23.070118l0.180706 3.312941v70.264471a26.352941 26.352941 0 0 1-52.495059 3.312941l-0.210824-3.312941v-70.294589c0-14.546824 11.806118-26.352941 26.352942-26.352941zM328.794353 721.558588c13.432471 0 24.515765 10.059294 26.142118 23.070118l0.210823 3.312941v70.264471a26.352941 26.352941 0 0 1-52.525176 3.312941l-0.180706-3.312941v-70.294589c0-14.546824 11.776-26.352941 26.352941-26.352941zM416.617412 607.382588a35.147294 35.147294 0 1 0 0 70.264471 35.147294 35.147294 0 0 0 0-70.264471z m0 17.558588a17.558588 17.558588 0 1 1 0 35.147295 17.558588 17.558588 0 0 1 0-35.147295zM592.323765 607.382588a35.147294 35.147294 0 1 0 0 70.264471 35.147294 35.147294 0 0 0 0-70.264471z m0 17.558588a17.558588 17.558588 0 1 1 0 35.147295 17.558588 17.558588 0 0 1 0-35.147295zM574.735059 826.970353a26.352941 26.352941 0 0 1 3.312941 52.525176l-3.312941 0.180706h-140.528941a26.352941 26.352941 0 0 1-3.312942-52.495059l3.312942-0.210823h140.528941zM768 264.794353H240.941176a26.352941 26.352941 0 0 0-26.352941 26.352941v245.940706c0 14.576941 11.806118 26.352941 26.352941 26.352941h527.058824a26.352941 26.352941 0 0 0 26.352941-26.352941V291.147294a26.352941 26.352941 0 0 0-26.352941-26.352941z m-26.352941 52.675765v193.264941H267.294118v-193.264941h474.352941z" fill="#568af2" /><path d="M504.470588 264.794353c13.432471 0 24.515765 10.029176 26.142118 23.04l0.210823 3.312941v245.940706a26.352941 26.352941 0 0 1-52.495058 3.312941l-0.210824-3.312941V291.147294c0-14.576941 11.806118-26.352941 26.352941-26.352941z" fill="#568af2" /><path d="M574.735059 264.794353a26.352941 26.352941 0 0 1 3.312941 52.495059l-3.312941 0.210823h-140.528941a26.352941 26.352941 0 0 1-3.312942-52.525176l3.312942-0.180706h140.528941zM574.735059 510.735059a26.352941 26.352941 0 0 1 3.312941 52.525176l-3.312941 0.180706h-140.528941a26.352941 26.352941 0 0 1-3.312942-52.495059l3.312942-0.210823h140.528941z" fill="#568af2" /></svg>