<svg class="icon" style="width: 1em;height: 1em;vertical-align: middle;fill: currentColor;overflow: hidden;" viewBox="0 0 1024 1024" version="1.1" xmlns="http://www.w3.org/2000/svg" width="32" height="32"><path d="M506.970353 124.235294a184.470588 184.470588 0 1 1 0 368.941177 184.470588 184.470588 0 0 1 0-368.941177z m0 52.705882a131.764706 131.764706 0 1 0 0 263.529412 131.764706 131.764706 0 0 0 0-263.529412zM643.915294 510.976c98.906353 13.010824 223.232 194.168471 223.232 342.347294h-52.705882c0-116.525176-95.171765-262.204235-164.442353-286.900706l-0.39153-0.12047-123.060705 136.673882a26.352941 26.352941 0 0 1-37.195295 1.957647l-2.499764-2.590118a2420.675765 2420.675765 0 0 0-41.532236-47.646117l-6.324705-7.107765a5725.184 5725.184 0 0 0-77.492706-84.690823l4.848941 5.210352-2.379294 1.084236c-81.950118 38.731294-160.707765 160.105412-164.321883 275.877647l-0.12047 8.252235h-52.705883c0-148.660706 106.224941-305.031529 218.533647-341.293176a26.352941 26.352941 0 0 1 27.316706 7.047529 3498.014118 3498.014118 0 0 1 26.744471 28.762353c20.058353 21.684706 40.086588 43.670588 58.819765 64.602353l6.415058 7.168c5.421176 6.083765 10.631529 11.956706 15.600942 17.618823l7.198117 8.192 113.483294-125.952a26.352941 26.352941 0 0 1 19.33553-8.734117l3.674353 0.240941z" fill="#568af2" /><path d="M893.500235 826.970353a26.352941 26.352941 0 0 1 0 52.705882H120.470588a26.352941 26.352941 0 1 1 0-52.705882h773.029647z" fill="#568af2" /></svg>