<svg class="icon" style="width: 1em;height: 1em;vertical-align: middle;fill: currentColor;overflow: hidden;" viewBox="0 0 1024 1024" version="1.1" xmlns="http://www.w3.org/2000/svg" width="32" height="32"><path d="M326.264471 154.352941a149.323294 149.323294 0 1 1 0 298.676706 149.323294 149.323294 0 0 1 0-298.676706z m0 52.705883a96.617412 96.617412 0 1 0 0 193.264941 96.617412 96.617412 0 0 0 0-193.264941zM677.647059 154.352941a149.323294 149.323294 0 1 1 0 298.676706 149.323294 149.323294 0 0 1 0-298.676706z m0 52.705883a96.617412 96.617412 0 1 0 0 193.264941 96.617412 96.617412 0 0 0 0-193.264941zM387.312941 523.294118c38.701176 0 72.764235 16.022588 101.827765 42.134588 16.956235 15.209412 28.762353 30.418824 35.358118 41.291294a26.352941 26.352941 0 1 1-45.086118 27.346824 159.713882 159.713882 0 0 0-25.47953-29.424942c-20.178824-18.130824-42.526118-28.641882-66.620235-28.641882H298.526118c-66.048 0-121.584941 65.957647-121.584942 149.323294v158.117647a26.352941 26.352941 0 1 1-52.705882 0v-158.117647c0-110.652235 76.950588-202.029176 174.290824-202.029176h88.786823z" fill="#568af2" /><path d="M703.638588 523.294118c98.243765 0 176.037647 91.316706 176.037647 202.029176v158.117647a26.352941 26.352941 0 1 1-52.705882 0v-158.117647c0-83.305412-56.229647-149.323294-123.331765-149.323294H613.797647c-22.979765 0-44.604235 10.420706-64.240941 28.431059a159.292235 159.292235 0 0 0-23.702588 27.467294l-0.993883 1.536 0.240941-0.451765 0.602353-1.204706c0.421647-0.843294 0.421647-0.843294 1.686589-4.487529l-0.512 0.903529c-3.975529 9.336471-16.865882 12.649412-46.561883-7.408941l-4.547764-3.19247 1.776941-7.077647 0.662588-1.536 0.662588-1.264942 0.451765-0.843294 0.692706-1.114353 1.897412-2.951529a211.576471 211.576471 0 0 1 32.015058-37.195294c28.551529-26.202353 61.982118-42.315294 99.870118-42.315294h89.840941z" fill="#568af2" /><path d="M747.911529 786.823529a26.352941 26.352941 0 1 1 0 52.705883H273.558588a26.352941 26.352941 0 1 1 0-52.705883h474.352941z" fill="#568af2" /><path d="M664.244706 728.756706a26.352941 26.352941 0 0 1 37.285647 0.12047l21.775059 21.89553 43.550117 43.821176c10.119529 10.179765 10.24 26.593882 0.240942 36.894118l-65.325177 67.523765a26.352941 26.352941 0 0 1-37.857882-36.653177l21.775059-22.497882 25.539764-26.443294-25.298823-25.47953-21.775059-21.925647a26.352941 26.352941 0 0 1 0.090353-37.255529zM313.464471 728.304941a26.352941 26.352941 0 1 1 37.195294 37.345883l-22.136471 22.016-25.630118 25.509647 25.780706 26.142117 22.136471 22.377412a26.352941 26.352941 0 1 1-37.496471 37.044706l-22.13647-22.377412L246.964706 831.548235a26.352941 26.352941 0 0 1 0.150588-37.195294l44.272941-44.062117 22.106353-22.016z" fill="#568af2" /></svg>