<svg class="icon" style="width: 1em;height: 1em;vertical-align: middle;fill: currentColor;overflow: hidden;" viewBox="0 0 1024 1024" version="1.1" xmlns="http://www.w3.org/2000/svg" width="32" height="32"><path d="M439.205647 184.470588a149.323294 149.323294 0 1 1 0 298.676706 149.323294 149.323294 0 0 1 0-298.676706z m0 52.705883a96.617412 96.617412 0 1 0 0 193.264941 96.617412 96.617412 0 0 0 0-193.264941z" fill="#568af2" /><path d="M737.882353 588.559059c14.546824 0 26.352941 11.776 26.352941 26.352941v79.058824H843.294118c13.432471 0 24.515765 10.029176 26.142117 23.04l0.210824 3.312941a26.352941 26.352941 0 0 1-26.352941 26.352941h-79.058824v79.058823a26.352941 26.352941 0 0 1-23.04 26.142118l-3.312941 0.210824a26.352941 26.352941 0 0 1-26.352941-26.352942v-79.058823H632.470588a26.352941 26.352941 0 0 1-26.142117-23.070118l-0.210824-3.312941c0-14.546824 11.806118-26.322824 26.352941-26.322823h79.058824v-79.058824c0-13.432471 10.059294-24.545882 23.04-26.172235l3.312941-0.180706z" fill="#568af2" /><path d="M579.764706 570.970353a26.352941 26.352941 0 0 1 0 52.705882l-161.731765 0.030118c-78.396235 0.271059-99.026824 2.499765-118.512941 12.438588a114.206118 114.206118 0 0 0-49.904941 49.904941c-9.938824 19.456-12.167529 40.116706-12.408471 118.452706l-0.030117 12.408471 342.588235 0.030117c13.432471 0 24.515765 10.059294 26.142118 23.04l0.210823 3.312942a26.352941 26.352941 0 0 1-26.352941 26.352941H210.823529A26.352941 26.352941 0 0 1 184.470588 843.294118v-21.082353c0-103.695059 2.017882-128.361412 18.191059-160.105412a166.912 166.912 0 0 1 72.944941-72.944941c31.744-16.173176 56.410353-18.191059 160.105412-18.191059h144.052706z" fill="#568af2" /></svg>