<svg class="icon" style="width: 1em;height: 1em;vertical-align: middle;fill: currentColor;overflow: hidden;" viewBox="0 0 1024 1024" version="1.1" xmlns="http://www.w3.org/2000/svg" width="32" height="32"><path d="M506.970353 154.352941c150.979765 0 289.129412 114.447059 337.799529 265.035294 0.602353 1.897412 3.704471 5.150118 11.956706 11.083294 1.807059 1.295059 11.595294 8.071529 14.576941 10.209883 31.924706 23.009882 48.549647 47.706353 48.549647 87.883294s-16.775529 64.632471-48.338823 85.714823l-4.096 2.680471-5.210353 3.343059-5.210353 3.343059c-7.68 5.059765-10.209882 7.529412-10.450823 8.342588-46.652235 153.389176-186.307765 270.787765-339.576471 270.787765-152.545882 0-291.749647-116.495059-339.034353-269.040942-0.301176-1.054118-2.951529-3.644235-10.782118-8.854588-1.204706-0.813176-11.264-7.228235-14.516706-9.456941-31.713882-21.413647-48.519529-46.140235-48.519529-86.859294 0-40.719059 16.715294-65.626353 48.670118-88.274824 3.072-2.198588 12.950588-8.884706 14.516706-9.999058 8.252235-5.782588 11.264-8.884706 11.836235-10.63153 48.549647-150.768941 186.759529-265.306353 337.829647-265.306353z m0 52.705883c-126.735059 0-245.76 98.635294-287.683765 228.743529-5.059765 15.721412-14.757647 25.750588-31.683764 37.647059-2.108235 1.445647-11.806118 8.041412-14.336 9.84847-19.335529 13.703529-26.443294 24.304941-26.443295 45.266824 0 20.690824 6.776471 30.659765 25.298824 43.188706 2.650353 1.776941 12.438588 8.041412 14.155294 9.185882 17.257412 11.444706 27.075765 21.232941 32.015059 37.195294 40.779294 131.614118 160.647529 231.936 288.677647 231.936 128.632471 0 248.892235-101.074824 289.159529-233.411764 4.848941-15.992471 14.667294-25.720471 31.924706-37.044706 1.746824-1.174588 11.535059-7.378824 14.155294-9.155765 18.281412-12.197647 24.937412-21.895529 24.937412-41.893647 0-20.449882-7.168-31.081412-26.654118-45.116235-2.469647-1.776941-12.197647-8.523294-14.45647-10.149647-16.775529-11.986824-26.413176-22.106353-31.442824-37.677177-41.984-130.017882-160.948706-228.562824-287.623529-228.562823z" fill="#568af2" /><path d="M506.970353 154.352941c150.979765 0 289.129412 114.447059 337.799529 265.035294a26.352941 26.352941 0 1 1-50.176 16.233412c-41.984-130.017882-160.948706-228.562824-287.623529-228.562823a26.352941 26.352941 0 0 1 0-52.705883zM420.894118 489.923765c0 14.516706-3.915294 27.256471-9.848471 36.111059-5.933176 8.914824-13.191529 13.071059-20.028235 13.071058-6.806588 0-14.064941-4.156235-19.998118-13.071058-5.903059-8.854588-9.848471-21.594353-9.84847-36.141177 0-14.486588 3.915294-27.256471 9.84847-36.111059 5.933176-8.914824 13.191529-13.071059 19.998118-13.071059 6.836706 0 14.095059 4.156235 20.028235 13.071059 5.903059 8.854588 9.848471 21.624471 9.848471 36.141177z" fill="#568af2" /><path d="M391.017412 431.947294c10.390588 0 20.118588 6.144 27.346823 16.956235 7.198118 10.812235 11.324235 25.419294 11.324236 41.020236 0 15.570824-4.126118 30.177882-11.324236 40.96-7.228235 10.842353-16.956235 17.016471-27.346823 17.01647-10.360471 0-20.088471-6.174118-27.316706-16.986353s-11.324235-25.419294-11.324235-40.990117c0-15.600941 4.126118-30.208 11.324235-41.020236 7.228235-10.842353 16.956235-16.956235 27.316706-16.956235z m0 17.558588c-3.945412 0-8.523294 2.891294-12.709647 9.155765-5.210353 7.830588-8.372706 19.034353-8.372706 31.262118s3.162353 23.431529 8.372706 31.232c4.216471 6.264471 8.764235 9.155765 12.709647 9.155764 3.975529 0 8.553412-2.891294 12.739764-9.155764 5.180235-7.830588 8.342588-19.004235 8.342589-31.232 0-12.227765-3.162353-23.461647-8.342589-31.262118-4.216471-6.264471-8.764235-9.155765-12.739764-9.155765zM652.8 489.923765c0 14.516706-3.915294 27.256471-9.848471 36.111059-5.933176 8.914824-13.191529 13.071059-20.028235 13.071058-6.806588 0-14.064941-4.156235-19.998118-13.071058-5.933176-8.854588-9.848471-21.594353-9.84847-36.141177 0-14.486588 3.915294-27.256471 9.84847-36.111059 5.933176-8.914824 13.191529-13.071059 19.998118-13.071059 6.836706 0 14.095059 4.156235 20.028235 13.071059 5.903059 8.854588 9.848471 21.624471 9.848471 36.141177z" fill="#568af2" /><path d="M622.923294 431.947294c10.360471 0 20.118588 6.144 27.346824 16.956235 7.198118 10.812235 11.324235 25.419294 11.324235 41.020236 0 15.570824-4.126118 30.177882-11.324235 40.96-7.228235 10.842353-16.986353 17.016471-27.346824 17.01647-10.360471 0-20.118588-6.174118-27.316706-16.986353-7.228235-10.812235-11.324235-25.419294-11.324235-40.990117 0-15.600941 4.126118-30.208 11.324235-41.020236 7.228235-10.842353 16.956235-16.956235 27.316706-16.956235z m0 17.558588c-3.945412 0-8.523294 2.891294-12.709647 9.155765-5.210353 7.830588-8.372706 19.034353-8.372706 31.262118s3.162353 23.431529 8.372706 31.232c4.186353 6.264471 8.734118 9.155765 12.709647 9.155764s8.553412-2.891294 12.709647-9.155764c5.210353-7.830588 8.372706-19.004235 8.372706-31.232 0-12.227765-3.162353-23.461647-8.372706-31.262118-4.156235-6.264471-8.734118-9.155765-12.709647-9.155765z" fill="#568af2" /><path d="M410.322824 668.250353c33.912471 22.829176 66.198588 34.243765 96.828235 34.243765 30.599529 0 60.928-11.384471 90.985412-34.18353" fill="#568af2" /><path d="M388.457412 653.552941a26.352941 26.352941 0 0 1 36.562823-7.168c29.876706 20.088471 57.193412 29.756235 82.130824 29.756235 24.485647 0 49.362824-9.336471 75.083294-28.822588a26.352941 26.352941 0 1 1 31.834353 42.014118c-34.424471 26.081882-70.234353 39.514353-106.917647 39.514353-36.321882 0-73.547294-13.161412-111.555765-38.731294a26.352941 26.352941 0 0 1-7.137882-36.592941zM639.126588 193.264941a26.352941 26.352941 0 0 1 29.726118 22.467765c6.083765 43.911529-8.613647 79.119059-43.369412 100.532706-30.569412 18.853647-76.438588 27.015529-138.209882 25.931294a26.352941 26.352941 0 1 1 0.903529-52.705882c52.615529 0.903529 89.419294-5.601882 109.658353-18.100706 16.112941-9.938824 22.136471-24.365176 18.82353-48.399059a26.352941 26.352941 0 0 1 22.467764-29.726118z" fill="#568af2" /></svg>