<svg class="icon" style="width: 1em;height: 1em;vertical-align: middle;fill: currentColor;overflow: hidden;" viewBox="0 0 1024 1024" version="1.1" xmlns="http://www.w3.org/2000/svg" width="32" height="32"><path d="M558.441412 154.352941a149.323294 149.323294 0 1 1 0 298.676706 149.323294 149.323294 0 0 1 0-298.676706z m0 52.705883a96.617412 96.617412 0 1 0 0 193.264941 96.617412 96.617412 0 0 0 0-193.264941zM523.294118 523.294118a26.352941 26.352941 0 1 1 0 52.705882c-160.737882 0-289.882353 114.778353-289.882353 254.735059a26.352941 26.352941 0 1 1-52.705883 0c0-170.526118 154.021647-307.440941 342.588236-307.440941zM768.180706 583.710118a26.352941 26.352941 0 0 1 37.285647 0l70.264471 70.294588a26.352941 26.352941 0 0 1 0 37.255529l-175.676236 175.676236a26.352941 26.352941 0 0 1-18.642823 7.740235h-70.264471a26.352941 26.352941 0 0 1-26.352941-26.352941v-70.294589c0-6.987294 2.770824-13.673412 7.710118-18.612705l175.676235-175.706353z m18.642823 55.898353l-149.323294 149.323294v33.008941h32.978824l149.323294-149.323294-32.978824-33.008941z" fill="#568af2" /></svg>