<svg class="icon" style="width: 1em;height: 1em;vertical-align: middle;fill: currentColor;overflow: hidden;" viewBox="0 0 1024 1024" version="1.1" xmlns="http://www.w3.org/2000/svg" width="32" height="32"><path d="M532.088471 154.352941a149.323294 149.323294 0 1 1 0 298.676706 149.323294 149.323294 0 0 1 0-298.676706z m0 52.705883a96.617412 96.617412 0 1 0 0 193.264941 96.617412 96.617412 0 0 0 0-193.264941zM496.941176 523.294118a26.352941 26.352941 0 1 1 0 52.705882c-160.737882 0-289.882353 114.778353-289.882352 254.735059a26.352941 26.352941 0 1 1-52.705883 0c0-170.526118 154.021647-307.440941 342.588235-307.440941zM717.643294 541.997176a26.352941 26.352941 0 0 1 15.36 0 1032.914824 1032.914824 0 0 1 63.186824 21.684706c11.625412 4.397176 22.076235 8.734118 31.201882 12.890353 33.039059 15.088941 47.284706 24.847059 47.284706 46.863059 0 72.161882-25.419294 134.083765-67.46353 185.374118-25.178353 30.659765-50.447059 51.2-68.156235 62.012235a26.352941 26.352941 0 0 1-27.437176 0c-17.709176-10.812235-43.008-31.322353-68.156236-62.042353-42.074353-51.260235-67.463529-113.182118-67.463529-185.344 0-21.985882 14.245647-31.774118 47.284706-46.863059 9.095529-4.186353 19.576471-8.493176 31.171765-12.890353a1032.914824 1032.914824 0 0 1 63.186823-21.684706z m7.68 52.826353l-3.162353 1.024-7.770353 2.529883c-14.064941 4.668235-28.129882 9.577412-41.170823 14.546823-10.601412 4.035765-20.058353 7.920941-28.009412 11.565177-8.432941 3.855059-14.908235 7.318588-18.853647 9.999059l2.529882-1.656471 0.030118 0.903529c2.108235 51.2 20.088471 95.804235 49.302588 134.083765l6.02353 7.55953a271.661176 271.661176 0 0 0 38.490352 38.430117l2.590118 2.048 2.620235-2.048a270.034824 270.034824 0 0 0 31.021177-29.726117l7.469176-8.704c34.816-42.405647 55.536941-92.912941 55.536942-151.94353l-0.210824 9.426824a136.794353 136.794353 0 0 0-11.444706-6.113883l-4.818823-2.258823c-7.981176-3.614118-17.468235-7.529412-28.03953-11.565177a981.714824 981.714824 0 0 0-48.941176-17.076706l-3.192471-1.024z" fill="#568af2" /></svg>