<svg class="icon" style="width: 1em;height: 1em;vertical-align: middle;fill: currentColor;overflow: hidden;" viewBox="0 0 1024 1024" version="1.1" xmlns="http://www.w3.org/2000/svg" width="32" height="32"><path d="M527.058824 124.235294a166.912 166.912 0 1 1 0 333.793882 166.912 166.912 0 0 1 0-333.793882z m0 52.705882a114.206118 114.206118 0 1 0 0 228.382118 114.206118 114.206118 0 0 0 0-228.382118zM527.058824 510.735059c189.199059 0 342.588235 153.389176 342.588235 342.588235a26.352941 26.352941 0 1 1-52.705883 0 289.882353 289.882353 0 0 0-579.764705 0 26.352941 26.352941 0 1 1-52.705883 0c0-189.199059 153.389176-342.588235 342.588236-342.588235z" fill="#568af2" /><path d="M438.151529 694.151529a26.352941 26.352941 0 0 1 37.25553 0l140.559059 140.559059a26.352941 26.352941 0 0 1-37.25553 37.25553l-140.559059-140.559059a26.352941 26.352941 0 0 1 0-37.25553z" fill="#568af2" /><path d="M578.710588 694.151529a26.352941 26.352941 0 0 1 37.25553 37.25553l-140.559059 140.559059a26.352941 26.352941 0 0 1-37.25553-37.25553l140.559059-140.559059z" fill="#568af2" /></svg>