<svg class="icon" style="width: 1em;height: 1em;vertical-align: middle;fill: currentColor;overflow: hidden;" viewBox="0 0 1024 1024" version="1.1" xmlns="http://www.w3.org/2000/svg" width="32" height="32"><path d="M501.970824 154.352941c208.594824 0 377.705412 169.110588 377.705411 377.73553 0 208.594824-169.110588 377.705412-377.705411 377.705411-208.624941 0-377.735529-169.110588-377.73553-377.705411 0-208.624941 169.110588-377.735529 377.73553-377.73553z m0 52.705883c-179.501176 0-325.029647 145.528471-325.029648 325.029647s145.528471 324.999529 325.029648 324.999529 324.999529-145.498353 324.999529-324.999529S681.472 207.058824 501.970824 207.058824z" fill="#568af2" /><path d="M501.970824 312.470588a114.206118 114.206118 0 1 1 0 228.382118 114.206118 114.206118 0 0 1 0-228.382118z m0 52.705883a61.500235 61.500235 0 1 0 0 122.970353 61.500235 61.500235 0 0 0 0-122.970353zM572.235294 593.558588a202.059294 202.059294 0 0 1 201.577412 188.175059 26.352941 26.352941 0 1 1-52.585412 3.553882A149.353412 149.353412 0 0 0 572.235294 646.264471h-140.559059a149.353412 149.353412 0 0 0-148.992 139.354353 26.352941 26.352941 0 1 1-52.585411-3.493648 202.059294 202.059294 0 0 1 201.577411-188.53647H572.235294z" fill="#568af2" /></svg>