<svg class="icon" style="width: 1em;height: 1em;vertical-align: middle;fill: currentColor;overflow: hidden;" viewBox="0 0 1024 1024" version="1.1" xmlns="http://www.w3.org/2000/svg" width="32" height="32"><path d="M326.264471 505.735529a114.206118 114.206118 0 1 1 0 228.382118 114.206118 114.206118 0 0 1 0-228.382118z m0 52.705883a61.500235 61.500235 0 1 0 0 122.970353 61.500235 61.500235 0 0 0 0-122.970353zM677.647059 505.735529a114.206118 114.206118 0 1 1 0 228.382118 114.206118 114.206118 0 0 1 0-228.382118z m0 52.705883a61.500235 61.500235 0 1 0 0 122.970353 61.500235 61.500235 0 0 0 0-122.970353zM501.970824 154.352941a114.206118 114.206118 0 1 1 0 228.382118 114.206118 114.206118 0 0 1 0-228.382118z m0 52.705883a61.500235 61.500235 0 1 0 0 122.970352 61.500235 61.500235 0 0 0 0-122.970352z" fill="#568af2" /><path d="M326.264471 681.411765a202.029176 202.029176 0 0 1 202.059294 202.029176 26.352941 26.352941 0 0 1-52.705883 0 149.323294 149.323294 0 0 0-298.676706 0 26.352941 26.352941 0 1 1-52.705882 0 202.029176 202.029176 0 0 1 202.029177-202.029176z" fill="#568af2" /><path d="M677.647059 681.411765a202.029176 202.029176 0 0 1 202.029176 202.029176 26.352941 26.352941 0 1 1-52.705882 0 149.323294 149.323294 0 0 0-298.646588 0 26.352941 26.352941 0 0 1-52.705883 0 202.029176 202.029176 0 0 1 202.029177-202.029176zM501.970824 330.029176a202.029176 202.029176 0 0 1 202.029176 202.059295 26.352941 26.352941 0 0 1-52.705882 0 149.323294 149.323294 0 0 0-298.676706 0 26.352941 26.352941 0 0 1-52.705883 0 202.029176 202.029176 0 0 1 202.059295-202.059295z" fill="#568af2" /></svg>