<svg class="icon" style="width: 1em;height: 1em;vertical-align: middle;fill: currentColor;overflow: hidden;" viewBox="0 0 1024 1024" version="1.1" xmlns="http://www.w3.org/2000/svg" width="32" height="32"><path d="M527.058824 124.235294a237.176471 237.176471 0 0 1 167.695058 404.87153 26.352941 26.352941 0 0 1-37.255529-37.25553 184.470588 184.470588 0 1 0-260.879059 0 26.352941 26.352941 0 1 1-37.255529 37.25553A237.176471 237.176471 0 0 1 527.058824 124.235294zM613.827765 606.298353a26.352941 26.352941 0 0 1 34.153411-2.680471l193.234824 140.559059c5.360941 3.915294 9.035294 9.637647 10.360471 16.143059l17.558588 87.853176a26.352941 26.352941 0 0 1-51.681883 10.330353l-15.570823-77.793882-166.731294-121.223529-89.449412 89.509647a26.352941 26.352941 0 0 1-34.575059 2.349176l-2.710588-2.349176-89.479529-89.509647-166.731295 121.223529-15.540705 77.793882a26.352941 26.352941 0 0 1-27.708236 21.112471l-3.312941-0.451765a26.352941 26.352941 0 0 1-20.660706-31.021176l17.558588-87.823059a26.352941 26.352941 0 0 1 10.360471-16.143059l193.234824-140.559059a26.352941 26.352941 0 0 1 34.153411 2.710589l86.768942 86.768941 86.768941-86.799059z" fill="#568af2" /><path d="M435.712 276.781176l-1.987765-0.813176c-12.498824-4.638118-21.865412-0.210824-43.188706 30.268235-19.636706 28.069647-30.298353 75.896471-30.509176 143.23953l-52.705882-0.180706c0.240941-77.101176 13.101176-134.776471 40.026353-173.266824 36.261647-51.802353 71.770353-63.939765 109.507764-47.525647 10.752 4.668235 17.980235 12.649412 25.539765 24.816941 3.252706 5.240471 13.854118 24.576 13.763765 24.365177 8.101647 14.185412 14.336 21.714824 20.058353 24.545882 7.981176 3.915294 21.654588 6.957176 52.374588 12.197647l5.150117 0.90353c43.730824 7.439059 62.192941 12.016941 78.155295 22.738823l4.156235 2.740706 5.842823 3.824941 4.065883 2.650353c6.806588 4.517647 12.498824 8.493176 18.070588 12.709647 41.140706 31.201882 62.042353 67.162353 49.784471 113.061647l-50.898824-13.583058c5.421176-20.299294-4.758588-37.797647-30.72-57.494589a285.304471 285.304471 0 0 0-15.299765-10.721882l-14.426353-9.426824c-6.896941-4.668235-23.190588-8.704-57.584941-14.576941l-5.12-0.873412c-36.833882-6.264471-52.193882-9.728-66.740706-16.835764-17.829647-8.734118-29.696-23.009882-42.646588-45.748706-0.542118-0.903529-10.360471-18.823529-12.739765-22.618353-2.319059-3.734588-3.553882-5.12-1.807058-4.336941l-0.120471-0.060236z" fill="#568af2" /></svg>