<svg class="icon" style="width: 1em;height: 1em;vertical-align: middle;fill: currentColor;overflow: hidden;" viewBox="0 0 1024 1024" version="1.1" xmlns="http://www.w3.org/2000/svg" width="32" height="32"><path d="M532.088471 154.352941a149.323294 149.323294 0 1 1 0 298.676706 149.323294 149.323294 0 0 1 0-298.676706z m0 52.705883a96.617412 96.617412 0 1 0 0 193.264941 96.617412 96.617412 0 0 0 0-193.264941zM496.941176 523.294118a26.352941 26.352941 0 1 1 0 52.705882c-160.737882 0-289.882353 114.778353-289.882352 254.735059a26.352941 26.352941 0 1 1-52.705883 0c0-170.526118 154.021647-307.440941 342.588235-307.440941zM780.649412 576c52.916706 0 94.027294 47.887059 94.027294 105.170824 0 79.721412-73.276235 165.948235-139.836235 191.728941a26.352941 26.352941 0 0 1-19.034353 0c-66.56-25.780706-139.806118-112.007529-139.806118-191.728941 0-57.253647 41.110588-105.170824 93.967059-105.170824 19.998118 0 38.731294 6.927059 54.151529 19.094588l1.204706 1.054118 1.204706-1.054118a87.521882 87.521882 0 0 1 48.188235-18.883764l5.963294-0.210824z m0 52.705882c-12.619294 0-24.756706 7.529412-32.768 20.781177a26.352941 26.352941 0 0 1-45.116236 0c-8.011294-13.251765-20.148706-20.781176-32.768-20.781177-21.835294 0-41.291294 22.678588-41.291294 52.464942 0 51.651765 50.477176 114.627765 96.105412 138.029176l0.512 0.240941 0.542118-0.240941c43.941647-22.528 92.370824-81.739294 95.894588-132.216471l0.210824-5.812705c0-29.816471-19.456-52.464941-41.291295-52.464942z" fill="#568af2" /></svg>