<svg class="icon" style="width: 1em;height: 1em;vertical-align: middle;fill: currentColor;overflow: hidden;" viewBox="0 0 1024 1024" version="1.1" xmlns="http://www.w3.org/2000/svg" width="32" height="32"><path d="M506.970353 124.235294a184.470588 184.470588 0 1 1 0 368.941177 184.470588 184.470588 0 0 1 0-368.941177z m0 52.705882a131.764706 131.764706 0 1 0 0 263.529412 131.764706 131.764706 0 0 0 0-263.529412z" fill="#568af2" /><path d="M792.485647 124.235294a92.220235 92.220235 0 0 1 92.220235 92.250353v636.837647h-52.705882V216.485647a39.514353 39.514353 0 1 0-79.058824 0V572.235294c0 41.170824-26.503529 63.337412-65.596235 63.728941-24.003765 0.240941-51.561412-6.716235-87.732706-19.757176a307.501176 307.501176 0 0 0-65.084235-15.450353 238.351059 238.351059 0 0 0-27.557647-2.168471c-177.091765 0-316.235294 136.493176-316.235294 254.735059h-52.705883c0-147.576471 162.936471-307.440941 368.941177-307.440941 7.137882 0 18.974118 0.662588 34.213647 2.620235 25.238588 3.222588 51.139765 9.035294 76.318118 18.100706 30.569412 11.053176 53.428706 16.805647 69.330823 16.655059 12.137412-0.120471 13.402353-1.204706 13.402353-11.023059V216.485647a92.220235 92.220235 0 0 1 92.250353-92.250353z" fill="#568af2" /><path d="M893.500235 827.000471a26.352941 26.352941 0 0 1 0 52.705882H120.470588a26.352941 26.352941 0 0 1 0-52.705882h773.029647z" fill="#568af2" /></svg>