<svg class="icon" style="width: 1em;height: 1em;vertical-align: middle;fill: currentColor;overflow: hidden;" viewBox="0 0 1024 1024" version="1.1" xmlns="http://www.w3.org/2000/svg" width="32" height="32"><path d="M424.448 155.407059c24.847059-1.264941 39.815529-1.505882 56.500706-0.240941 60.235294 4.487529 108.423529 16.926118 145.769412 34.816 24.094118 11.535059 39.815529 23.311059 48.790588 33.129411 13.342118 15.450353 22.889412 34.032941 28.672 55.416471 1.807059 6.625882 3.011765 12.408471 3.553882 16.835765 4.216471 23.792941 4.728471 47.495529 3.192471 75.595294-0.361412 6.445176-0.963765 13.071059-1.807059 20.178823l-0.752941 5.963294 0.301176 0.39153c2.831059 3.614118 5.029647 7.228235 6.866824 11.715765l1.716706 4.72847c1.957647 6.023529 2.831059 12.257882 2.800941 20.239059a152.696471 152.696471 0 0 1-28.250353 80.143059c-4.939294 6.957176-9.336471 12.077176-20.088471 23.883294-31.352471 34.575059-43.038118 54.031059-46.08 87.853176a244.826353 244.826353 0 0 0-0.873411 12.348236l-0.090353 3.102117 1.65647 0.843294c5.632 2.620235 13.824 5.511529 24.816941 8.553412l5.722353 1.505883a485.948235 485.948235 0 0 0 50.898824 9.84847c38.008471 6.836706 70.144 18.371765 96.015059 34.785883 22.166588 14.064941 39.755294 31.623529 52.043294 52.193882 15.480471 25.961412 19.998118 51.2 18.733176 69.451294v16.112941a40.056471 40.056471 0 0 1-40.267294 39.875765H194.680471a40.056471 40.056471 0 0 1-40.267295-39.875765l0.030118-14.848c-1.024-19.968 3.704471-45.357176 19.33553-71.469176 12.378353-20.690824 29.997176-38.279529 52.103529-52.254118 25.871059-16.323765 57.856-27.648 95.713882-34.032941a454.987294 454.987294 0 0 0 50.718118-9.848471c13.854118-3.553882 23.823059-6.987294 30.388706-10.029176l1.596235-0.813177-0.090353-3.132235a215.371294 215.371294 0 0 0-0.451765-7.770353l-0.391529-4.517647c-3.072-33.852235-14.757647-53.308235-45.236706-86.949647l-0.903529-0.933647c-10.691765-11.806118-15.119059-16.926118-20.058353-23.883294a152.756706 152.756706 0 0 1-28.250353-80.564706c0-13.402353 3.403294-23.702588 9.818353-32.677647l2.228706-2.921412-0.210824-1.505882a370.085647 370.085647 0 0 1-1.084235-90.804706l1.234823-8.342588 0.481883-5.601883c3.704471-31.171765 20.781176-55.928471 40.207059-73.728l4.517647-3.975529 0.271058-0.301177-0.090352-0.451764a48.368941 48.368941 0 0 1-0.421648-13.432471l0.722824-4.758588c3.373176-17.046588 15.781647-31.623529 37.195294-37.135059 6.686118-1.746824 11.836235-2.288941 20.660706-2.710588z m52.585412 52.314353c-13.914353-1.024-27.105882-0.843294-49.965177 0.301176-3.192471 0.180706-5.421176 0.331294-7.137882 0.572236l0.843294 2.409411a29.515294 29.515294 0 0 1 0.873412 14.336l-0.90353 3.855059a26.352941 26.352941 0 0 1-3.132235 6.746353c-4.517647 6.927059-9.728 12.107294-17.679059 18.672941-12.197647 10.330353-25.6 28.822588-26.503529 47.164236l-0.361412 3.222588c-4.336941 25.088-3.915294 65.415529 1.114353 91.798588 1.807059 9.005176 2.108235 13.703529-2.048 22.347294a26.352941 26.352941 0 0 1-6.174118 8.222118l-1.686588 1.505882c-2.740706 2.56-2.650353 2.379294-2.68047 3.493647 0.180706 3.192471 0.993882 9.216 2.921411 16.835765 3.192471 12.438588 8.282353 24.304941 15.570824 34.544941 3.312941 4.638118 6.927059 8.854588 15.299765 18.100706l0.903529 0.933647c38.460235 42.375529 55.175529 70.264471 59.572706 118.512941 1.626353 17.859765 1.475765 29.214118 0.090353 36.352a26.352941 26.352941 0 0 1-2.680471 7.529412l0.542118-1.204706-0.481882 1.566118c-5.872941 14.546824-24.877176 25.991529-60.596706 35.930353l-7.378824 1.957647a506.307765 506.307765 0 0 1-55.627294 10.842353c-30.72 5.180235-56.169412 14.185412-75.685647 26.503529-15.299765 9.697882-27.015529 21.383529-35.026824 34.755765-9.637647 16.052706-12.468706 31.322353-11.89647 43.068235v3.343059h614.761412v-4.99953c0.602353-9.035294-1.415529-21.775059-8.432942-35.538823l-2.891294-5.180235c-7.890824-13.251765-19.576471-24.907294-34.966588-34.635294-19.696941-12.498824-45.447529-21.744941-75.866353-27.256471-13.221647-1.716706-34.725647-5.421176-55.868235-10.842353-43.369412-11.083294-64.843294-24.064-69.270588-41.200941l0.421647 1.415529-0.451765-0.963764a26.352941 26.352941 0 0 1-0.903529-2.499765l-0.632471-2.590118c-1.385412-7.107765-1.505882-18.492235 0.090353-36.352 4.397176-48.248471 21.142588-76.137412 59.602823-118.512941 9.246118-10.179765 12.860235-14.396235 16.173177-19.034353 7.288471-10.24 12.408471-22.136471 15.570823-34.605176 1.927529-7.710118 2.800941-14.064941 2.921412-16.082824a10.179765 10.179765 0 0 0-0.301176-2.981647c-0.150588-0.451765-0.481882-0.903529-3.222589-3.764706l-1.114352-1.174588-1.445648-1.596235c-1.295059-1.505882-1.295059-1.505882-3.674352-5.481412-3.373176-6.595765-3.734588-12.830118-2.650353-19.907765 1.807059-11.595294 2.831059-21.142588 3.312941-30.117647 1.355294-24.395294 0.903529-44.513882-2.620236-64.752941a80.414118 80.414118 0 0 0-2.319058-10.902588c-3.824941-14.034824-9.728-25.6-17.167059-34.273883-3.945412-4.276706-14.275765-11.986824-32.225883-20.60047-31.292235-14.968471-73.095529-25.780706-126.915764-29.786353z" fill="#568af2" /></svg>