<svg class="icon" style="width: 1em;height: 1em;vertical-align: middle;fill: currentColor;overflow: hidden;" viewBox="0 0 1024 1024" version="1.1" xmlns="http://www.w3.org/2000/svg" width="32" height="32"><path d="M527.058824 154.352941a166.912 166.912 0 1 1 0 333.793883 166.912 166.912 0 0 1 0-333.793883z m0 52.705883a114.206118 114.206118 0 1 0 0 228.382117 114.206118 114.206118 0 0 0 0-228.382117zM527.058824 540.852706c189.199059 0 342.588235 153.389176 342.588235 342.588235a26.352941 26.352941 0 1 1-52.705883 0 289.882353 289.882353 0 0 0-579.764705 0 26.352941 26.352941 0 1 1-52.705883 0c0-189.199059 153.389176-342.588235 342.588236-342.588235z" fill="#568af2" /><path d="M613.827765 724.269176a26.352941 26.352941 0 0 1 37.285647 37.25553l-140.559059 140.559059a26.352941 26.352941 0 0 1-37.255529 0L402.974118 831.849412a26.352941 26.352941 0 1 1 37.285647-37.285647l51.621647 51.621647 121.916235-121.886118z" fill="#568af2" /></svg>