<svg class="icon" style="width: 1em;height: 1em;vertical-align: middle;fill: currentColor;overflow: hidden;" viewBox="0 0 1024 1024" version="1.1" xmlns="http://www.w3.org/2000/svg" width="32" height="32"><path d="M527.058824 124.235294a166.912 166.912 0 1 1 0 333.793882 166.912 166.912 0 0 1 0-333.793882z m0 52.705882a114.206118 114.206118 0 1 0 0 228.382118 114.206118 114.206118 0 0 0 0-228.382118zM527.058824 510.735059c189.199059 0 342.588235 153.389176 342.588235 342.588235a26.352941 26.352941 0 1 1-52.705883 0 289.882353 289.882353 0 0 0-579.764705 0 26.352941 26.352941 0 1 1-52.705883 0c0-189.199059 153.389176-342.588235 342.588236-342.588235z" fill="#568af2" /><path d="M614.912 739.147294a26.352941 26.352941 0 0 1 0 52.705882h-175.706353a26.352941 26.352941 0 0 1 0-52.705882h175.706353z" fill="#568af2" /><path d="M527.058824 651.294118c14.546824 0 26.352941 11.806118 26.352941 26.352941v175.676235a26.352941 26.352941 0 1 1-52.705883 0V677.647059c0-14.546824 11.806118-26.352941 26.352942-26.352941z" fill="#568af2" /></svg>