<svg class="icon" style="width: 1em;height: 1em;vertical-align: middle;fill: currentColor;overflow: hidden;" viewBox="0 0 1024 1024" version="1.1" xmlns="http://www.w3.org/2000/svg" width="32" height="32"><path d="M519.830588 125.289412a26.352941 26.352941 0 0 1 14.757647 0l316.084706 92.340706c11.264 3.282824 18.974118 13.583059 18.974118 25.298823v189.349647c0 206.938353-131.072 378.368-334.21553 446.042353a26.352941 26.352941 0 0 1-16.655058 0c-203.203765-67.674353-334.305882-239.134118-334.305883-446.132706V242.928941c0-11.715765 7.740235-22.016 18.974118-25.298823L519.830588 125.289412z m7.348706 52.736l-290.002823 84.630588v169.562353c0 180.314353 111.856941 329.908706 288.37647 392.734118l1.536 0.512 1.566118-0.512c173.176471-61.680941 284.129882-206.878118 288.165647-382.674824l0.12047-9.999059V262.656l-289.761882-84.630588z" fill="#568af2" /><path d="M527.058824 282.352941a114.206118 114.206118 0 1 1 0 228.382118 114.206118 114.206118 0 0 1 0-228.382118z m0 52.705883a61.500235 61.500235 0 1 0 0 122.970352 61.500235 61.500235 0 0 0 0-122.970352z" fill="#568af2" /><path d="M527.058824 458.029176a166.912 166.912 0 0 1 166.912 166.912 26.352941 26.352941 0 0 1-52.705883 0 114.206118 114.206118 0 1 0-228.412235 0 26.352941 26.352941 0 1 1-52.705882 0 166.912 166.912 0 0 1 166.912-166.912z" fill="#568af2" /></svg>