<svg class="icon" style="width: 1em;height: 1em;vertical-align: middle;fill: currentColor;overflow: hidden;" viewBox="0 0 1024 1024" version="1.1" xmlns="http://www.w3.org/2000/svg" width="32" height="32"><path d="M853.323294 184.470588c14.576941 0 26.352941 11.806118 26.352941 26.352941v527.058824a26.352941 26.352941 0 0 1-26.352941 26.352941h-252.626823l-80.112942 80.112941a26.352941 26.352941 0 0 1-34.544941 2.379294l-2.710588-2.379294-80.112941-80.112941H150.588235a26.352941 26.352941 0 0 1-26.142117-23.04l-0.210824-3.312941V210.823529c0-14.546824 11.806118-26.352941 26.352941-26.352941h702.735059z m-26.352941 52.705883H176.941176v474.352941h237.176471c5.812706 0 11.444706 1.927529 16.022588 5.421176l2.620236 2.288941 69.180235 69.180236 69.24047-69.180236a26.352941 26.352941 0 0 1 15.149177-7.469176l3.463529-0.240941h237.176471V237.176471z" fill="#568af2" /><path d="M501.970824 289.882353a114.206118 114.206118 0 1 1 0 228.382118 114.206118 114.206118 0 0 1 0-228.382118z m0 52.705882a61.500235 61.500235 0 1 0 0 122.970353 61.500235 61.500235 0 0 0 0-122.970353z" fill="#568af2" /><path d="M501.970824 465.558588c101.225412 0 184.470588 73.999059 184.470588 166.912a26.352941 26.352941 0 0 1-52.705883 0c0-62.343529-58.368-114.206118-131.764705-114.206117-73.426824 0-131.764706 51.862588-131.764706 114.206117a26.352941 26.352941 0 0 1-52.705883 0c0-92.912941 83.215059-166.912 184.470589-166.912z" fill="#568af2" /></svg>