<svg class="icon" style="width: 1em;height: 1em;vertical-align: middle;fill: currentColor;overflow: hidden;" viewBox="0 0 1024 1024" version="1.1" xmlns="http://www.w3.org/2000/svg" width="32" height="32"><path d="M501.970824 259.764706a131.764706 131.764706 0 1 1 0 263.529412 131.764706 131.764706 0 0 1 0-263.529412z m0 52.705882a79.058824 79.058824 0 1 0 0 158.117647 79.058824 79.058824 0 0 0 0-158.117647z" fill="#568af2" /><path d="M501.970824 505.735529a237.176471 237.176471 0 0 1 237.17647 237.176471 26.352941 26.352941 0 0 1-52.705882 0 184.470588 184.470588 0 0 0-368.941177 0 26.352941 26.352941 0 0 1-52.705882 0 237.176471 237.176471 0 0 1 237.176471-237.176471zM853.323294 154.352941c14.576941 0 26.352941 11.806118 26.352941 26.352941v140.559059a26.352941 26.352941 0 0 1-52.705882 0V207.058824h-114.176a26.352941 26.352941 0 0 1-26.172235-23.04L686.441412 180.705882c0-14.546824 11.776-26.352941 26.352941-26.352941h140.528941zM291.147294 154.352941a26.352941 26.352941 0 0 1 0 52.705883H176.941176v114.206117a26.352941 26.352941 0 0 1-23.04 26.142118l-3.312941 0.210823a26.352941 26.352941 0 0 1-26.352941-26.352941V180.705882c0-14.546824 11.806118-26.352941 26.352941-26.352941h140.559059zM853.323294 716.559059c14.576941 0 26.352941 11.776 26.352941 26.352941v140.528941a26.352941 26.352941 0 0 1-26.352941 26.352941h-140.528941a26.352941 26.352941 0 1 1 0-52.705882h114.145882l0.030118-114.176c0-13.432471 10.059294-24.545882 23.070118-26.172235l3.312941-0.180706zM150.588235 716.559059c14.546824 0 26.352941 11.776 26.352941 26.352941v114.145882l114.206118 0.030118c13.432471 0 24.515765 10.059294 26.142118 23.070118l0.210823 3.312941a26.352941 26.352941 0 0 1-26.352941 26.322823H150.588235a26.352941 26.352941 0 0 1-26.352941-26.352941v-140.528941c0-14.576941 11.806118-26.352941 26.352941-26.352941z" fill="#568af2" /></svg>