<svg class="icon" style="width: 1em;height: 1em;vertical-align: middle;fill: currentColor;overflow: hidden;" viewBox="0 0 1024 1024" version="1.1" xmlns="http://www.w3.org/2000/svg" width="32" height="32"><path d="M532.088471 154.352941a149.323294 149.323294 0 1 1 0 298.676706 149.323294 149.323294 0 0 1 0-298.676706z m0 52.705883a96.617412 96.617412 0 1 0 0 193.264941 96.617412 96.617412 0 0 0 0-193.264941zM496.941176 523.294118a26.352941 26.352941 0 1 1 0 52.705882c-160.737882 0-289.882353 114.778353-289.882352 254.735059a26.352941 26.352941 0 1 1-52.705883 0c0-170.526118 154.021647-307.440941 342.588235-307.440941zM707.764706 523.294118a184.470588 184.470588 0 1 1 0 368.941176 184.470588 184.470588 0 0 1 0-368.941176z m0 52.705882a131.764706 131.764706 0 1 0 0 263.529412 131.764706 131.764706 0 0 0 0-263.529412z" fill="#568af2" /><path d="M690.206118 628.705882c14.546824 0 26.352941 11.806118 26.352941 26.352942v43.911529h43.911529c13.432471 0 24.515765 10.059294 26.142118 23.070118l0.210823 3.312941a26.352941 26.352941 0 0 1-26.352941 26.322823h-70.26447a26.352941 26.352941 0 0 1-26.352942-26.352941V655.058824c0-14.546824 11.776-26.352941 26.352942-26.352942z" fill="#568af2" /></svg>