<svg class="icon" style="width: 1em;height: 1em;vertical-align: middle;fill: currentColor;overflow: hidden;" viewBox="0 0 1024 1024" version="1.1" xmlns="http://www.w3.org/2000/svg" width="32" height="32"><path d="M483.328 192.180706a26.352941 26.352941 0 0 1 37.255529 0l80.143059 80.112941h252.596706c13.432471 0 24.545882 10.059294 26.172235 23.070118l0.180706 3.312941v527.058823a26.352941 26.352941 0 0 1-26.352941 26.352942H150.588235a26.352941 26.352941 0 0 1-26.352941-26.352942v-527.058823c0-14.576941 11.806118-26.352941 26.352941-26.352941l252.596706-0.030118 80.112941-80.112941z m18.612706 55.898353l-69.180235 69.210353a26.352941 26.352941 0 0 1-18.642824 7.740235l-237.176471-0.030118v474.352942h650.029177v-474.352942h-237.176471a26.352941 26.352941 0 0 1-16.022588-5.421176l-2.590118-2.288941-69.24047-69.210353z" fill="#568af2" /><path d="M501.970824 377.735529a114.206118 114.206118 0 1 1 0 228.382118 114.206118 114.206118 0 0 1 0-228.382118z m0 52.705883a61.500235 61.500235 0 1 0 0 122.970353 61.500235 61.500235 0 0 0 0-122.970353z" fill="#568af2" /><path d="M501.970824 553.411765c101.225412 0 184.470588 73.999059 184.470588 166.912a26.352941 26.352941 0 0 1-52.705883 0c0-62.343529-58.368-114.206118-131.764705-114.206118-73.426824 0-131.764706 51.862588-131.764706 114.206118a26.352941 26.352941 0 0 1-52.705883 0c0-92.912941 83.215059-166.912 184.470589-166.912z" fill="#568af2" /></svg>