<svg class="icon" style="width: 1em;height: 1em;vertical-align: middle;fill: currentColor;overflow: hidden;" viewBox="0 0 1024 1024" version="1.1" xmlns="http://www.w3.org/2000/svg" width="32" height="32"><path d="M501.970824 154.352941a149.323294 149.323294 0 1 1 0 298.676706 149.323294 149.323294 0 0 1 0-298.676706z m0 52.705883a96.617412 96.617412 0 1 0 0 193.264941 96.617412 96.617412 0 0 0 0-193.264941zM466.823529 523.294118a26.352941 26.352941 0 1 1 0 52.705882c-160.737882 0-289.882353 114.778353-289.882353 254.735059a26.352941 26.352941 0 1 1-52.705882 0c0-170.526118 154.021647-307.440941 342.588235-307.440941zM695.205647 576a131.764706 131.764706 0 1 1 0 263.529412 131.764706 131.764706 0 0 1 0-263.529412z m0 52.705882a79.058824 79.058824 0 1 0 0 158.117647 79.058824 79.058824 0 0 0 0-158.117647z" fill="#568af2" /><path d="M761.976471 762.217412a26.352941 26.352941 0 0 1 36.894117-5.270588l70.264471 52.705882a26.352941 26.352941 0 1 1-31.62353 42.164706l-70.26447-52.705883a26.352941 26.352941 0 0 1-5.270588-36.894117z" fill="#568af2" /></svg>