<svg class="icon" style="width: 1em;height: 1em;vertical-align: middle;fill: currentColor;overflow: hidden;" viewBox="0 0 1024 1024" version="1.1" xmlns="http://www.w3.org/2000/svg" width="32" height="32"><path d="M501.970824 124.235294a114.206118 114.206118 0 1 1 0 228.382118 114.206118 114.206118 0 0 1 0-228.382118z m0 52.705882a61.500235 61.500235 0 1 0 0 122.970353 61.500235 61.500235 0 0 0 0-122.970353zM554.676706 405.323294h5.029647l8.312471 0.030118c8.432941 0.060235 12.920471 0.180706 17.046588 0.481882l3.523764 0.301177a166.912 166.912 0 0 1 149.744942 149.744941l0.301176 3.523764c0.301176 4.126118 0.421647 8.613647 0.481882 17.046589V589.793882a26.352941 26.352941 0 0 1-26.322823 26.352942h-421.647059a26.352941 26.352941 0 0 1-26.352941-26.352942V576.451765c0.060235-8.432941 0.180706-12.920471 0.481882-17.046589l0.301177-3.523764a166.912 166.912 0 0 1 149.744941-149.744941l3.553882-0.301177c4.126118-0.301176 8.583529-0.421647 17.016471-0.481882h118.784z m12.830118 52.736H436.404706c-9.035294 0.060235-12.468706 0.180706-15.962353 0.542118a114.206118 114.206118 0 0 0-102.550588 103.755294l-0.090353 1.084235H686.08l-0.090353-1.084235-0.120471-1.325177a114.206118 114.206118 0 0 0-118.362352-102.972235z" fill="#568af2" /><path d="M778.480941 536.606118a26.352941 26.352941 0 0 1 36.412235-7.890824c41.080471 26.443294 64.783059 59.211294 64.783059 96.225882 0 98.785882-170.315294 166.912-377.705411 166.912-207.420235 0-377.735529-68.126118-377.73553-166.912 0-37.044706 23.732706-69.782588 64.783059-96.225882a26.352941 26.352941 0 0 1 28.551529 44.303059c-27.497412 17.679059-40.628706 35.84-40.628706 51.922823 0 56.470588 144.323765 114.206118 325.029648 114.206118s324.999529-57.735529 324.999529-114.206118c0-16.082824-13.131294-34.243765-40.598588-51.922823a26.352941 26.352941 0 0 1-7.890824-36.442353z" fill="#568af2" /><path d="M395.474824 659.004235a26.352941 26.352941 0 0 1 37.285647 0l87.823058 87.853177a26.352941 26.352941 0 0 1 0 37.255529l-87.823058 87.853177a26.352941 26.352941 0 0 1-37.285647-37.25553l69.180235-69.24047-69.180235-69.180236a26.352941 26.352941 0 0 1-2.349177-34.575058l2.349177-2.710589z" fill="#568af2" /></svg>