<svg class="icon" style="width: 1em;height: 1em;vertical-align: middle;fill: currentColor;overflow: hidden;" viewBox="0 0 1024 1024" version="1.1" xmlns="http://www.w3.org/2000/svg" width="32" height="32"><path d="M768 124.235294c33.972706 0 61.500235 27.527529 61.500235 61.500235v632.470589a61.500235 61.500235 0 0 1-61.500235 61.470117H276.088471a61.500235 61.500235 0 0 1-61.500236-61.470117v-632.470589c0-33.972706 27.527529-61.500235 61.500236-61.500235H768z m0 52.705882H276.088471a8.794353 8.794353 0 0 0-8.794353 8.794353v632.470589c0 4.818824 3.915294 8.764235 8.794353 8.764235H768c4.848941 0 8.794353-3.915294 8.794353-8.764235v-632.470589a8.794353 8.794353 0 0 0-8.794353-8.794353z" fill="#568af2" /><path d="M522.029176 247.205647a96.617412 96.617412 0 1 1 0 193.264941 96.617412 96.617412 0 0 1 0-193.264941z m0 52.705882a43.911529 43.911529 0 1 0 0 87.853177 43.911529 43.911529 0 0 0 0-87.853177z" fill="#568af2" /><path d="M522.029176 387.764706a131.764706 131.764706 0 0 1 131.764706 131.764706 26.352941 26.352941 0 1 1-52.705882 0 79.058824 79.058824 0 0 0-158.117647 0 26.352941 26.352941 0 1 1-52.705882 0 131.764706 131.764706 0 0 1 131.764705-131.764706zM627.440941 598.588235a26.352941 26.352941 0 1 1 0 52.705883h-210.823529a26.352941 26.352941 0 0 1 0-52.705883h210.823529zM539.617882 704a26.352941 26.352941 0 0 1 0 52.705882h-123.00047a26.352941 26.352941 0 0 1 0-52.705882h123.00047z" fill="#568af2" /></svg>