<svg class="icon" style="width: 1em;height: 1em;vertical-align: middle;fill: currentColor;overflow: hidden;" viewBox="0 0 1024 1024" version="1.1" xmlns="http://www.w3.org/2000/svg" width="32" height="32"><path d="M358.912 184.470588a96.617412 96.617412 0 1 1 0 193.264941 96.617412 96.617412 0 0 1 0-193.264941z m0 52.705883a43.911529 43.911529 0 1 0 0 87.853176 43.911529 43.911529 0 0 0 0-87.853176zM675.147294 184.470588a96.617412 96.617412 0 1 1 0 193.264941 96.617412 96.617412 0 0 1 0-193.264941z m0 52.705883a43.911529 43.911529 0 1 0 0 87.853176 43.911529 43.911529 0 0 0 0-87.853176zM446.735059 430.441412c15.510588 0 27.648 13.281882 26.262588 28.732235l-35.147294 386.499765a26.352941 26.352941 0 0 1-26.232471 23.973647h-105.411764a26.352941 26.352941 0 0 1-26.262589-23.973647L244.856471 459.173647A26.352941 26.352941 0 0 1 271.058824 430.441412h175.676235z m-28.882824 52.705882H299.911529l30.358589 333.793882h57.253647l30.32847-333.793882zM762.970353 430.441412c15.510588 0 27.648 13.281882 26.262588 28.732235l-35.147294 386.499765a26.352941 26.352941 0 0 1-26.232471 23.973647h-105.411764a26.352941 26.352941 0 0 1-26.262588-23.973647L561.091765 459.173647a26.352941 26.352941 0 0 1 26.23247-28.732235h175.676236z m-28.882824 52.705882h-117.940705l30.358588 333.793882h57.253647l30.32847-333.793882z" fill="#568af2" /></svg>