<svg class="icon" style="width: 1em;height: 1em;vertical-align: middle;fill: currentColor;overflow: hidden;" viewBox="0 0 1024 1024" version="1.1" xmlns="http://www.w3.org/2000/svg" width="32" height="32"><path d="M527.058824 124.235294a166.912 166.912 0 1 1 0 333.793882 166.912 166.912 0 0 1 0-333.793882z m0 52.705882a114.206118 114.206118 0 1 0 0 228.382118 114.206118 114.206118 0 0 0 0-228.382118zM527.058824 510.735059c189.199059 0 342.588235 153.389176 342.588235 342.588235a26.352941 26.352941 0 1 1-52.705883 0 289.882353 289.882353 0 0 0-579.764705 0 26.352941 26.352941 0 1 1-52.705883 0c0-189.199059 153.389176-342.588235 342.588236-342.588235z" fill="#568af2" /><path d="M501.880471 529.347765c7.619765-24.816941 42.736941-24.816941 50.356705 0l70.294589 228.382117a26.352941 26.352941 0 0 1-4.608 24.214589l-70.294589 87.853176a26.352941 26.352941 0 0 1-41.140705 0l-70.294589-87.853176a26.352941 26.352941 0 0 1-4.608-24.214589l70.294589-228.382117z m25.178353 97.310117l-40.990118 133.240471 40.96 51.230118 41.020235-51.2-40.990117-133.270589z" fill="#568af2" /></svg>