<svg class="icon" style="width: 1em;height: 1em;vertical-align: middle;fill: currentColor;overflow: hidden;" viewBox="0 0 1024 1024" version="1.1" xmlns="http://www.w3.org/2000/svg" width="32" height="32"><path d="M444.235294 184.470588a149.323294 149.323294 0 1 1 0 298.676706 149.323294 149.323294 0 0 1 0-298.676706z m0 52.705883a96.617412 96.617412 0 1 0 0 193.264941 96.617412 96.617412 0 0 0 0-193.264941zM829.680941 350.298353a26.352941 26.352941 0 1 1 37.25553 37.285647l-140.528942 140.528941a26.352941 26.352941 0 1 1-37.285647-37.255529l140.559059-140.559059z" fill="#568af2" /><path d="M689.121882 350.298353a26.352941 26.352941 0 0 1 37.285647 0l140.528942 140.559059a26.352941 26.352941 0 1 1-37.25553 37.255529L689.091765 387.614118a26.352941 26.352941 0 0 1 0-37.285647zM482.876235 570.970353c103.695059 0 128.361412 2.017882 160.105412 18.191059a166.912 166.912 0 0 1 72.944941 72.944941c16.173176 31.744 18.191059 56.410353 18.191059 160.105412v21.082353a26.352941 26.352941 0 0 1-26.352941 26.352941H180.705882A26.352941 26.352941 0 0 1 154.352941 843.294118v-21.082353c0-103.695059 2.017882-128.361412 18.191059-160.105412a166.912 166.912 0 0 1 72.944941-72.944941c31.744-16.173176 56.410353-18.191059 160.105412-18.191059h77.281882z m17.709177 52.736h-112.700236c-78.366118 0.271059-98.996706 2.499765-118.482823 12.438588a114.206118 114.206118 0 0 0-49.904941 49.904941c-9.938824 19.456-12.167529 40.116706-12.408471 118.452706l-0.030117 12.408471h474.322823V813.176471c-0.090353-82.552471-1.987765-105.381647-11.384471-124.988236l-1.024-2.108235a114.206118 114.206118 0 0 0-49.904941-49.904941c-19.486118-9.938824-40.116706-12.167529-118.482823-12.438588z" fill="#568af2" /></svg>