<svg class="icon" style="width: 1em;height: 1em;vertical-align: middle;fill: currentColor;overflow: hidden;" viewBox="0 0 1024 1024" version="1.1" xmlns="http://www.w3.org/2000/svg" width="32" height="32"><path d="M414.117647 184.470588a149.323294 149.323294 0 1 1 0 298.676706 149.323294 149.323294 0 0 1 0-298.676706z m0 52.705883a96.617412 96.617412 0 1 0 0 193.264941 96.617412 96.617412 0 0 0 0-193.264941zM452.758588 570.970353c103.695059 0 128.361412 2.017882 160.105412 18.191059a166.912 166.912 0 0 1 72.944941 72.944941c16.173176 31.744 18.191059 56.410353 18.191059 160.105412v21.082353a26.352941 26.352941 0 0 1-26.352941 26.352941H150.588235A26.352941 26.352941 0 0 1 124.235294 843.294118v-21.082353c0-103.695059 2.017882-128.361412 18.191059-160.105412a166.912 166.912 0 0 1 72.944941-72.944941c31.744-16.173176 56.410353-18.191059 160.105412-18.191059h77.281882z m17.709177 52.736h-112.700236c-78.366118 0.271059-98.996706 2.499765-118.482823 12.438588a114.206118 114.206118 0 0 0-49.904941 49.904941c-9.938824 19.456-12.167529 40.116706-12.408471 118.452706l-0.030118 12.408471h474.322824V813.176471c-0.090353-82.552471-1.987765-105.381647-11.384471-124.988236l-1.024-2.108235a114.206118 114.206118 0 0 0-49.904941-49.904941c-19.486118-9.938824-40.116706-12.167529-118.482823-12.438588z" fill="#568af2" /><path d="M747.911529 307.440941c14.576941 0 26.352941 11.806118 26.352942 26.352941v79.058824h79.058823c13.432471 0 24.545882 10.059294 26.172235 23.070118l0.180706 3.312941a26.352941 26.352941 0 0 1-26.352941 26.322823h-79.058823v79.058824a26.352941 26.352941 0 0 1-23.04 26.172235l-3.312942 0.180706a26.352941 26.352941 0 0 1-26.352941-26.352941v-79.058824h-79.058823a26.352941 26.352941 0 0 1-26.142118-23.04l-0.210823-3.312941c0-14.546824 11.806118-26.352941 26.352941-26.352941h79.058823v-79.058824c0-13.432471 10.059294-24.515765 23.070118-26.142117l3.312941-0.210824z" fill="#568af2" /></svg>