<svg class="icon" style="width: 1em;height: 1em;vertical-align: middle;fill: currentColor;overflow: hidden;" viewBox="0 0 1024 1024" version="1.1" xmlns="http://www.w3.org/2000/svg" width="32" height="32"><path d="M422.309647 165.707294c76.197647-53.308235 148.630588-54.693647 202.691765-7.529412 47.435294 41.381647 74.300235 116.314353 74.270117 197.421177 2.409412 77.342118 23.130353 114.688 66.861177 156.581647l0.271059 0.210823a26.352941 26.352941 0 0 1-1.987765 39.785412c-45.718588 35.809882-91.798588 61.921882-137.938824 78.848l-0.692705 0.210824 1.536 7.318588c0.752941 3.312941 1.505882 6.625882 2.288941 9.728l2.288941 8.854588c3.072 11.324235 7.920941 16.715294 17.046588 19.395765 12.348235 3.674353 24.455529 6.686118 45.839059 11.565176l5.210353 1.204706 14.125176 3.252706c30.750118 7.168 50.688 12.8 69.872942 20.510118 26.744471 10.782118 47.887059 24.606118 63.638588 43.610353 18.492235 22.347294 27.617882 50.055529 27.015529 82.221176-0.451765 22.949647-19.546353 40.779294-42.345412 40.779294H196.698353c-22.799059 0-41.863529-17.829647-42.315294-40.779294-0.602353-32.165647 8.523294-59.873882 26.985412-82.221176 15.751529-19.004235 36.924235-32.828235 63.638588-43.610353 19.184941-7.710118 39.152941-13.342118 69.903059-20.510118l14.155294-3.252706c26.352941-6.023529 37.647059-8.794353 51.019294-12.769882 9.125647-2.710588 13.944471-8.071529 17.046588-19.395765 1.204706-4.427294 2.499765-9.637647 3.764706-15.058823l0.150588-0.843294-10.511059-3.102118a380.506353 380.506353 0 0 1-117.187764-61.31953l-9.216-7.318588a26.352941 26.352941 0 0 1 1.355294-41.773176c13.161412-9.487059 21.684706-19.395765 26.684235-29.876706 7.198118-15.088941 7.469176-30.117647 3.102118-54.874353l-0.752941-4.156235a327.378824 327.378824 0 0 1-1.807059-10.541177c-25.961412-173.959529 29.756235-256.210824 126.554353-262.083765l2.529882-0.12047 0.512-0.361412z m168.056471 32.195765c-35.689412-31.141647-83.787294-29.214118-144.052706 15.48047a26.352941 26.352941 0 0 1-15.691294 5.180236c-69.692235 0-108.212706 51.561412-85.775059 201.908706 0.301176 2.168471 0.662588 4.156235 1.536 8.975058l0.783059 4.336942c6.113882 34.695529 5.662118 59.241412-7.408942 86.738823-3.975529 8.312471-9.035294 16.263529-15.179294 23.792941l-2.409411 2.710589 1.686588 1.204705a324.126118 324.126118 0 0 0 102.159059 45.116236l11.143529 2.529882c13.944471 2.831059 23.100235 16.233412 20.690824 30.238118-2.499765 14.667294-6.415059 32.225882-9.878589 44.935529-7.710118 28.129882-25.389176 47.887059-52.916706 56.018824-14.787765 4.397176-26.804706 7.318588-54.272 13.613176l-13.914352 3.192471c-28.310588 6.595765-46.110118 11.625412-62.132706 18.070588-19.275294 7.770353-33.310118 16.956235-42.767059 28.340706-7.920941 9.637647-12.769882 21.052235-14.336 34.996706l-0.150588 1.686588h614.00847l-0.090353-1.686588a65.445647 65.445647 0 0 0-11.143529-30.750118l-3.222588-4.216471c-9.426824-11.444706-23.491765-20.600471-42.767059-28.370823-15.962353-6.445176-33.822118-11.444706-62.102588-18.070588l-13.944471-3.192471-5.210353-1.204706a769.264941 769.264941 0 0 1-49.031529-12.40847c-27.527529-8.131765-45.236706-27.919059-52.916706-56.018824a493.869176 493.869176 0 0 1-11.324236-53.850353 26.352941 26.352941 0 0 1 18.492236-28.943059c36.442353-10.962824 73.246118-28.611765 110.290823-53.338353l9.788236-6.77647-0.421648-0.451765c-36.924235-41.743059-57.012706-87.130353-60.867764-161.008941l-0.421647-10.24c0-67.945412-21.684706-128.391529-56.229647-158.539294z" fill="#568af2" /></svg>