<svg class="icon" style="width: 1em;height: 1em;vertical-align: middle;fill: currentColor;overflow: hidden;" viewBox="0 0 1024 1024" version="1.1" xmlns="http://www.w3.org/2000/svg" width="32" height="32"><path d="M818.206118 214.588235c33.942588 0 61.470118 27.527529 61.470117 61.500236V768a61.500235 61.500235 0 0 1-61.470117 61.500235h-632.470589A61.500235 61.500235 0 0 1 124.235294 768V276.088471c0-33.972706 27.527529-61.500235 61.500235-61.500236h632.470589z m0 52.705883h-632.470589a8.794353 8.794353 0 0 0-8.794353 8.794353V768c0 4.848941 3.915294 8.794353 8.794353 8.794353h632.470589c4.818824 0 8.764235-3.915294 8.764235-8.794353V276.088471a8.794353 8.794353 0 0 0-8.764235-8.794353z" fill="#568af2" /><path d="M378.970353 372.705882a96.617412 96.617412 0 1 1 0 193.264942 96.617412 96.617412 0 0 1 0-193.264942z m0 52.705883a43.911529 43.911529 0 1 0 0 87.853176 43.911529 43.911529 0 0 0 0-87.853176z" fill="#568af2" /><path d="M378.970353 513.264941a131.764706 131.764706 0 0 1 131.764706 131.764706 26.352941 26.352941 0 0 1-52.705883 0 79.058824 79.058824 0 0 0-158.117647 0 26.352941 26.352941 0 0 1-52.705882 0 131.764706 131.764706 0 0 1 131.764706-131.764706zM712.794353 425.411765a26.352941 26.352941 0 0 1 0 52.705882H572.235294a26.352941 26.352941 0 1 1 0-52.705882h140.559059zM712.794353 565.970824a26.352941 26.352941 0 0 1 0 52.705882h-105.411765a26.352941 26.352941 0 0 1 0-52.705882h105.411765z" fill="#568af2" /></svg>