<svg class="icon" style="width: 1em;height: 1em;vertical-align: middle;fill: currentColor;overflow: hidden;" viewBox="0 0 1024 1024" version="1.1" xmlns="http://www.w3.org/2000/svg" width="32" height="32"><path d="M0 0h1024v1024H0z" fill="#568af2" fill-opacity="0" /><path d="M611.508706 417.882353h-170.526118a26.352941 26.352941 0 0 0-25.178353 18.612706l-62.042353 202.059294-0.722823 3.072a26.352941 26.352941 0 0 0 22.196706 30.72l79.600941 11.414588-39.424 158.177883c-6.716235 26.925176 27.376941 44.574118 45.507765 23.612235l201.517176-233.110588 2.078118-2.710589a26.352941 26.352941 0 0 0-15.600941-40.086588l-87.823059-22.046118 72.372706-108.754823a26.352941 26.352941 0 0 0-21.985883-40.96z m-49.182118 52.705882l-65.776941 98.936471-1.686588 2.891294a26.352941 26.352941 0 0 0 17.227294 37.255529l82.492235 20.660706-101.315764 117.187765 19.787294-79.329882 0.602353-3.252706a26.352941 26.352941 0 0 0-22.437647-29.214118l-78.034824-11.173647 47.254588-153.961412h101.888z" fill="#568af2" /><path d="M390.174118 154.352941c109.989647 0 206.546824 68.427294 246.512941 168.719059l0.963765 2.620235 7.740235-2.288941c12.438588-3.403294 25.298824-5.481412 38.369882-6.174118l9.848471-0.240941c102.881882 0 186.066824 84.720941 186.066823 188.988236 0 75.715765-44.272941 143.269647-111.435294 173.17647a26.352941 26.352941 0 1 1-21.443765-48.188235c48.248471-21.443765 80.173176-70.174118 80.173177-124.988235 0-75.384471-59.813647-136.282353-133.360941-136.282353-21.172706 0-41.592471 5.029647-60.054588 14.546823a26.352941 26.352941 0 0 1-37.586824-16.624941c-24.967529-94.117647-109.025882-160.557176-205.793882-160.557176-117.669647 0-213.232941 97.310118-213.232942 217.6a218.684235 218.684235 0 0 0 85.473883 174.230588 26.352941 26.352941 0 1 1-32.015059 41.863529A271.390118 271.390118 0 0 1 124.235294 424.658824c0-149.172706 118.964706-270.305882 265.938824-270.305883z" fill="#568af2" /></svg>