<svg class="icon" style="width: 1em;height: 1em;vertical-align: middle;fill: currentColor;overflow: hidden;" viewBox="0 0 1024 1024" version="1.1" xmlns="http://www.w3.org/2000/svg" width="32" height="32"><path d="M0 0h1024v1024H0z" fill="#568af2" fill-opacity="0" /><path d="M390.174118 184.470588c109.989647 0 206.546824 68.427294 246.512941 168.719059l0.963765 2.620235 7.740235-2.288941c12.438588-3.403294 25.298824-5.481412 38.369882-6.174117l9.848471-0.240942c102.881882 0 186.066824 84.720941 186.066823 188.988236 0 75.715765-44.272941 143.269647-111.435294 173.17647a26.352941 26.352941 0 1 1-21.443765-48.188235c48.248471-21.443765 80.173176-70.174118 80.173177-124.988235 0-75.384471-59.813647-136.282353-133.360941-136.282353-21.172706 0-41.592471 5.029647-60.054588 14.546823a26.352941 26.352941 0 0 1-37.586824-16.624941c-24.967529-94.117647-109.025882-160.557176-205.793882-160.557176-117.669647 0-213.232941 97.310118-213.232942 217.6a218.684235 218.684235 0 0 0 85.473883 174.230588 26.352941 26.352941 0 1 1-32.015059 41.863529A271.390118 271.390118 0 0 1 124.235294 454.776471c0-149.172706 118.964706-270.305882 265.938824-270.305883z" fill="#568af2" /><path d="M367.616 483.568941a26.352941 26.352941 0 0 1 39.634824 34.575059l-2.349177 2.710588-49.694118 49.694118a26.352941 26.352941 0 0 1-39.634823-34.575059l2.349176-2.710588 49.694118-49.694118zM536.033882 508.416a26.352941 26.352941 0 0 1 39.634824 34.575059l-2.379294 2.710588-95.563294 95.563294h112.158117c22.347294 0 34.093176 25.750588 20.781177 42.556235l-2.168471 2.43953-140.619294 140.559059a26.352941 26.352941 0 0 1-39.604706-34.575059l2.349177-2.710588 95.593411-95.563294H414.117647c-22.347294 0-34.093176-25.720471-20.811294-42.526118l2.168471-2.43953 140.559058-140.589176zM648.734118 764.687059a26.352941 26.352941 0 0 1 39.604706 34.575059l-2.349177 2.710588-49.694118 49.694118a26.352941 26.352941 0 0 1-39.634823-34.605177l2.379294-2.710588 49.694118-49.694118z" fill="#568af2" /></svg>