<svg class="icon" style="width: 1em;height: 1em;vertical-align: middle;fill: currentColor;overflow: hidden;" viewBox="0 0 1024 1024" version="1.1" xmlns="http://www.w3.org/2000/svg" width="32" height="32"><path d="M0 0h1024v1024H0z" fill="#568af2" fill-opacity="0" /><path d="M390.174118 184.470588c109.989647 0 206.546824 68.427294 246.512941 168.719059l0.963765 2.620235 7.740235-2.288941c12.438588-3.403294 25.298824-5.481412 38.369882-6.174117l9.848471-0.240942c102.881882 0 186.066824 84.720941 186.066823 188.988236 0 75.715765-44.272941 143.269647-111.435294 173.17647a26.352941 26.352941 0 1 1-21.443765-48.188235c48.248471-21.443765 80.173176-70.174118 80.173177-124.988235 0-75.384471-59.813647-136.282353-133.360941-136.282353-21.172706 0-41.592471 5.029647-60.054588 14.546823a26.352941 26.352941 0 0 1-37.586824-16.624941c-24.967529-94.117647-109.025882-160.557176-205.793882-160.557176-117.669647 0-213.232941 97.310118-213.232942 217.6a218.684235 218.684235 0 0 0 85.473883 174.230588 26.352941 26.352941 0 1 1-32.015059 41.863529A271.390118 271.390118 0 0 1 124.235294 454.776471c0-149.172706 118.964706-270.305882 265.938824-270.305883z" fill="#568af2" /><path d="M396.559059 483.147294c13.432471 0 24.515765 10.029176 26.142117 23.04l0.210824 3.312941v105.411765a26.352941 26.352941 0 0 1-52.525176 3.312941l-0.180706-3.312941v-105.411765c0-14.576941 11.776-26.352941 26.352941-26.352941z" fill="#568af2" /><path d="M449.264941 535.853176a26.352941 26.352941 0 0 1 3.312941 52.495059l-3.312941 0.210824h-105.411765a26.352941 26.352941 0 0 1-3.312941-52.525177l3.312941-0.180706h105.411765zM624.941176 535.853176c13.432471 0 24.515765 10.029176 26.142118 23.04l0.210824 3.312942v105.411764a26.352941 26.352941 0 0 1-52.495059 3.312942l-0.210824-3.312942v-105.411764c0-14.576941 11.806118-26.352941 26.352941-26.352942z" fill="#568af2" /><path d="M677.647059 588.559059a26.352941 26.352941 0 0 1 3.312941 52.495059l-3.312941 0.210823H572.235294a26.352941 26.352941 0 0 1-3.312941-52.525176l3.312941-0.180706h105.411765zM501.970824 711.529412c13.432471 0 24.515765 10.059294 26.142117 23.04l0.210824 3.312941V843.294118a26.352941 26.352941 0 0 1-52.525177 3.312941l-0.180706-3.312941v-105.411765c0-14.546824 11.776-26.352941 26.352942-26.352941z" fill="#568af2" /><path d="M554.676706 764.235294a26.352941 26.352941 0 0 1 3.312941 52.495059l-3.312941 0.210823h-105.411765a26.352941 26.352941 0 0 1-3.312941-52.495058l3.312941-0.210824h105.411765z" fill="#568af2" /></svg>