<svg class="icon" style="width: 1em;height: 1em;vertical-align: middle;fill: currentColor;overflow: hidden;" viewBox="0 0 1024 1024" version="1.1" xmlns="http://www.w3.org/2000/svg" width="32" height="32"><path d="M0 0h1024v1024H0z" fill="#568af2" fill-opacity="0" /><path d="M524.559059 269.793882a254.735059 254.735059 0 1 0 0 509.500236 254.735059 254.735059 0 0 0 0-509.500236z m0 52.705883a202.029176 202.029176 0 1 1 0 404.08847 202.029176 202.029176 0 0 1 0-404.08847zM524.559059 208.323765a43.911529 43.911529 0 1 0 0-87.853177 43.911529 43.911529 0 0 0 0 87.853177zM779.294118 313.735529a43.911529 43.911529 0 1 0 0-87.853176 43.911529 43.911529 0 0 0 0 87.853176zM884.705882 568.470588a43.911529 43.911529 0 1 0 0-87.853176 43.911529 43.911529 0 0 0 0 87.853176zM779.294118 823.205647a43.911529 43.911529 0 1 0 0-87.823059 43.911529 43.911529 0 0 0 0 87.823059zM524.559059 928.617412a43.911529 43.911529 0 1 0 0-87.823059 43.911529 43.911529 0 0 0 0 87.823059zM269.793882 823.205647a43.911529 43.911529 0 1 0 0-87.823059 43.911529 43.911529 0 0 0 0 87.823059zM164.382118 568.470588a43.911529 43.911529 0 1 0 0-87.853176 43.911529 43.911529 0 0 0 0 87.853176zM269.793882 313.735529a43.911529 43.911529 0 1 0 0-87.853176 43.911529 43.911529 0 0 0 0 87.853176z" fill="#568af2" /></svg>