<svg class="icon" style="width: 1em;height: 1em;vertical-align: middle;fill: currentColor;overflow: hidden;" viewBox="0 0 1024 1024" version="1.1" xmlns="http://www.w3.org/2000/svg" width="32" height="32"><path d="M0 0h1024v1024H0z" fill="#568af2" fill-opacity="0" /><path d="M390.174118 184.470588c109.989647 0 206.546824 68.427294 246.512941 168.719059l0.963765 2.620235 7.740235-2.288941c12.438588-3.403294 25.298824-5.481412 38.369882-6.174117l9.848471-0.240942c102.881882 0 186.066824 84.720941 186.066823 188.988236a189.259294 189.259294 0 0 1-103.604706 169.441882c-6.445176 3.222588-13.432471 5.12-20.60047 5.752471l-5.421177 0.240941H343.853176a26.352941 26.352941 0 0 1-3.312941-52.495059l3.312941-0.210824h406.196706a5.722353 5.722353 0 0 0 2.349177-0.391529 136.583529 136.583529 0 0 0 74.571294-122.337882c0-75.384471-59.813647-136.282353-133.360941-136.282353-21.172706 0-41.592471 5.029647-60.054588 14.546823a26.352941 26.352941 0 0 1-37.586824-16.624941c-24.967529-94.117647-109.025882-160.557176-205.793882-160.557176-117.669647 0-213.232941 97.310118-213.232942 217.6a26.352941 26.352941 0 0 1-52.705882 0c0-149.172706 118.964706-270.305882 265.938824-270.305883z" fill="#568af2" /><path d="M343.853176 658.823529a26.352941 26.352941 0 0 1 3.312942 52.495059l-3.312942 0.210824h-52.705882a43.911529 43.911529 0 0 0-4.21647 87.642353l4.21647 0.210823h52.705882a26.352941 26.352941 0 0 1 3.312942 52.495059l-3.312942 0.210824h-52.705882a96.617412 96.617412 0 0 1-5.481412-193.114353l5.481412-0.150589h52.705882zM466.823529 395.294118a26.352941 26.352941 0 0 1 3.312942 52.495058l-3.312942 0.210824h-52.705882a43.911529 43.911529 0 0 0-4.216471 87.642353l4.216471 0.210823h52.705882a26.352941 26.352941 0 0 1 3.312942 52.495059l-3.312942 0.210824h-52.705882a96.617412 96.617412 0 0 1-5.481412-193.114353l5.481412-0.150588h52.705882z" fill="#568af2" /><path d="M642.499765 535.853176a26.352941 26.352941 0 0 1 3.312941 52.495059l-3.312941 0.210824H414.117647a26.352941 26.352941 0 0 1-3.312941-52.525177l3.312941-0.180706h228.382118z" fill="#568af2" /></svg>