<svg class="icon" style="width: 1em;height: 1em;vertical-align: middle;fill: currentColor;overflow: hidden;" viewBox="0 0 1024 1024" version="1.1" xmlns="http://www.w3.org/2000/svg" width="32" height="32"><path d="M527.058824 124.235294c13.432471 0 24.515765 10.059294 26.142117 23.04l0.210824 3.312941v702.735059a26.352941 26.352941 0 0 1-52.495059 3.312941l-0.210824-3.312941V150.588235c0-14.546824 11.806118-26.352941 26.352942-26.352941z" fill="#568af2" /><path d="M200.734118 313.103059a26.352941 26.352941 0 0 1 33.039058-11.14353l2.95153 1.505883 608.587294 351.35247a26.352941 26.352941 0 0 1-23.371294 47.134118l-2.981647-1.505882L210.371765 349.123765a26.352941 26.352941 0 0 1-9.637647-35.990589z" fill="#568af2" /><path d="M817.483294 303.856941a26.352941 26.352941 0 0 1 29.123765 43.821177l-2.770824 1.807058-607.171764 350.569412a26.352941 26.352941 0 0 1-29.153883-43.791059l2.770824-1.837176 607.201882-350.569412zM307.892706 231.002353a26.352941 26.352941 0 0 1 32.105412 13.583059l1.234823 3.072 52.705883 158.117647a26.352941 26.352941 0 0 1-16.112942 33.129412l-3.162353 0.933647-158.117647 35.147294a26.352941 26.352941 0 0 1-14.607058-50.537412l3.162352-0.903529 129.566118-28.822589-43.429647-130.409411a26.352941 26.352941 0 0 1 13.583059-32.075295l3.072-1.234823z" fill="#568af2" /><path d="M185.103059 548.954353a26.352941 26.352941 0 0 1 28.16-20.540235l3.282823 0.542117 158.117647 35.117177c14.155294 3.162353 22.889412 17.046588 20.118589 30.870588l-0.843294 3.192471-52.705883 158.117647a26.352941 26.352941 0 0 1-50.838588-13.462589l0.843294-3.19247 43.429647-130.43953-129.566118-28.762353a26.352941 26.352941 0 0 1-20.510117-28.190117l0.512-3.252706zM712.884706 247.657412a26.352941 26.352941 0 0 1 50.838588 13.462588l-0.843294 3.222588-43.459765 130.379294 129.596236 28.822589a26.352941 26.352941 0 0 1 20.510117 28.16l-0.512 3.252705a26.352941 26.352941 0 0 1-28.16 20.540236l-3.282823-0.512-158.117647-35.147294a26.352941 26.352941 0 0 1-20.118589-30.870589l0.843295-3.19247 52.705882-158.117647zM837.571765 528.956235a26.352941 26.352941 0 0 1 14.607059 50.507294l-3.162353 0.90353-129.596236 28.79247 43.459765 130.409412a26.352941 26.352941 0 0 1-13.583059 32.105412l-3.072 1.234823a26.352941 26.352941 0 0 1-32.105412-13.583058l-1.234823-3.072-52.705882-158.117647a26.352941 26.352941 0 0 1 16.112941-33.129412l3.162353-0.90353 158.117647-35.147294zM613.827765 184.651294a26.352941 26.352941 0 0 1 39.634823 34.575059l-2.349176 2.710588-105.411765 105.411765a26.352941 26.352941 0 0 1-34.575059 2.349176l-2.710588-2.349176-105.411765-105.411765a26.352941 26.352941 0 0 1 34.575059-39.634823l2.710588 2.349176L527.058824 271.450353l86.768941-86.799059zM508.416 676.592941a26.352941 26.352941 0 0 1 34.575059-2.379294l2.710588 2.379294 105.411765 105.411765a26.352941 26.352941 0 0 1-34.575059 39.604706l-2.710588-2.349177-86.768941-86.768941-86.768942 86.768941a26.352941 26.352941 0 0 1-34.575058 2.349177l-2.710589-2.349177a26.352941 26.352941 0 0 1-2.349176-34.575059l2.349176-2.710588 105.411765-105.411764z" fill="#568af2" /></svg>