<svg class="icon" style="width: 1em;height: 1em;vertical-align: middle;fill: currentColor;overflow: hidden;" viewBox="0 0 1024 1024" version="1.1" xmlns="http://www.w3.org/2000/svg" width="32" height="32"><path d="M390.174118 184.470588c109.989647 0 206.546824 68.427294 246.512941 168.719059l0.963765 2.620235 7.740235-2.288941c12.438588-3.403294 25.298824-5.481412 38.369882-6.174117l9.848471-0.240942c102.881882 0 186.066824 84.720941 186.066823 188.988236 0 75.715765-44.272941 143.269647-111.435294 173.17647a26.352941 26.352941 0 1 1-21.443765-48.188235c48.248471-21.443765 80.173176-70.174118 80.173177-124.988235 0-75.384471-59.813647-136.282353-133.360941-136.282353-21.172706 0-41.592471 5.029647-60.054588 14.546823a26.352941 26.352941 0 0 1-37.586824-16.624941c-24.967529-94.117647-109.025882-160.557176-205.793882-160.557176-117.669647 0-213.232941 97.310118-213.232942 217.6a218.684235 218.684235 0 0 0 85.473883 174.230588 26.352941 26.352941 0 1 1-32.015059 41.863529A271.390118 271.390118 0 0 1 124.235294 454.776471c0-149.172706 118.964706-270.305882 265.938824-270.305883z" fill="#568af2" /><path d="M537.088 606.117647a131.764706 131.764706 0 1 0 129.054118 105.110588c-5.360941-26.142118-40.96-28.190118-50.206118-4.72847l-1.084235 3.373176a40.749176 40.749176 0 1 1-53.458824-48.579765l3.704471-1.14447c26.985412-7.047529 25.991529-45.688471-1.325177-51.320471-8.734118-1.807059-17.648941-2.710588-26.684235-2.710588z m-52.796235 72.914824l-0.843294 4.126117a93.424941 93.424941 0 0 0 91.979294 109.839059l5.541647-0.180706c3.674353-0.210824 7.288471-0.632471 10.842353-1.264941l4.065882-0.873412-2.891294 3.102118a79.058824 79.058824 0 0 1-111.796706-111.796706l3.102118-2.951529zM396.559059 325.029647c35.388235 0 68.638118 14.034824 93.153882 38.580706a26.352941 26.352941 0 0 1-37.255529 37.285647 79.058824 79.058824 0 0 0-111.796706 111.796706 26.352941 26.352941 0 0 1-37.285647 37.255529 131.764706 131.764706 0 0 1 93.184-224.948706z" fill="#568af2" /></svg>