<svg class="icon" style="width: 1em;height: 1em;vertical-align: middle;fill: currentColor;overflow: hidden;" viewBox="0 0 1024 1024" version="1.1" xmlns="http://www.w3.org/2000/svg" width="32" height="32"><path d="M0 0h1024v1024H0z" fill="#568af2" fill-opacity="0" /><path d="M712.794353 154.352941a166.912 166.912 0 0 1 6.535529 333.70353l-6.535529 0.090353H150.588235a26.352941 26.352941 0 0 1-3.312941-52.495059l3.312941-0.210824h562.206118a114.206118 114.206118 0 1 0-114.206118-114.176 26.352941 26.352941 0 0 1-52.705882 0 166.912 166.912 0 0 1 166.912-166.912zM256 558.441412a26.352941 26.352941 0 0 1 3.312941 52.495059l-3.312941 0.210823H150.588235a26.352941 26.352941 0 0 1-3.312941-52.525176l3.312941-0.180706h105.411765zM554.676706 558.441412a26.352941 26.352941 0 0 1 3.312941 52.495059l-3.312941 0.210823h-105.411765a26.352941 26.352941 0 0 1-3.312941-52.525176l3.312941-0.180706h105.411765zM853.323294 558.441412a26.352941 26.352941 0 0 1 3.312941 52.495059l-3.312941 0.210823h-105.411765a26.352941 26.352941 0 0 1-3.312941-52.525176l3.312941-0.180706h105.411765zM256 663.853176a26.352941 26.352941 0 0 1 3.312941 52.495059l-3.312941 0.210824H150.588235a26.352941 26.352941 0 0 1-3.312941-52.525177l3.312941-0.180706h105.411765zM554.676706 663.853176a26.352941 26.352941 0 0 1 3.312941 52.495059l-3.312941 0.210824h-105.411765a26.352941 26.352941 0 0 1-3.312941-52.525177l3.312941-0.180706h105.411765zM853.323294 663.853176a26.352941 26.352941 0 0 1 3.312941 52.495059l-3.312941 0.210824h-105.411765a26.352941 26.352941 0 0 1-3.312941-52.525177l3.312941-0.180706h105.411765zM361.411765 786.823529a26.352941 26.352941 0 0 1 3.312941 52.495059l-3.312941 0.210824H150.588235a26.352941 26.352941 0 0 1-3.312941-52.495059l3.312941-0.210824h210.82353zM853.323294 786.823529a26.352941 26.352941 0 0 1 3.312941 52.495059l-3.312941 0.210824h-210.823529a26.352941 26.352941 0 0 1-3.312941-52.495059l3.312941-0.210824h210.823529z" fill="#568af2" /></svg>