<svg class="icon" style="width: 1em;height: 1em;vertical-align: middle;fill: currentColor;overflow: hidden;" viewBox="0 0 1024 1024" version="1.1" xmlns="http://www.w3.org/2000/svg" width="32" height="32"><path d="M390.174118 154.352941c109.989647 0 206.546824 68.427294 246.512941 168.719059l0.963765 2.620235 7.740235-2.288941c12.438588-3.403294 25.298824-5.481412 38.369882-6.174118l9.848471-0.240941c102.881882 0 186.066824 84.720941 186.066823 188.988236 0 75.715765-44.272941 143.269647-111.435294 173.17647a26.352941 26.352941 0 1 1-21.443765-48.188235c48.248471-21.443765 80.173176-70.174118 80.173177-124.988235 0-75.384471-59.813647-136.282353-133.360941-136.282353-21.172706 0-41.592471 5.029647-60.054588 14.546823a26.352941 26.352941 0 0 1-37.586824-16.624941c-24.967529-94.117647-109.025882-160.557176-205.793882-160.557176-117.669647 0-213.232941 97.310118-213.232942 217.6a218.684235 218.684235 0 0 0 85.473883 174.230588 26.352941 26.352941 0 1 1-32.015059 41.863529A271.390118 271.390118 0 0 1 124.235294 424.658824c0-149.172706 118.964706-270.305882 265.938824-270.305883z" fill="#568af2" /><path d="M396.559059 294.912c35.388235 0 68.638118 14.034824 93.153882 38.580706a26.352941 26.352941 0 0 1-37.255529 37.285647 79.058824 79.058824 0 0 0-111.796706 111.796706 26.352941 26.352941 0 0 1-37.285647 37.255529 131.764706 131.764706 0 0 1 93.184-224.948706zM572.235294 646.264471a26.352941 26.352941 0 0 1 3.312941 52.525176l-3.312941 0.180706h-140.559059a26.352941 26.352941 0 0 1-3.312941-52.495059l3.312941-0.210823H572.235294zM431.676235 786.823529a26.352941 26.352941 0 0 1 3.312941 52.495059l-3.312941 0.210824H256a26.352941 26.352941 0 0 1-3.312941-52.495059l3.312941-0.210824h175.676235zM747.911529 786.823529a26.352941 26.352941 0 0 1 3.312942 52.495059l-3.312942 0.210824H572.235294a26.352941 26.352941 0 0 1-3.312941-52.495059l3.312941-0.210824h175.676235zM677.647059 505.735529a26.352941 26.352941 0 0 1 3.312941 52.495059l-3.312941 0.210824h-140.559059a26.352941 26.352941 0 0 1-3.312941-52.525177l3.312941-0.180706H677.647059z" fill="#568af2" /></svg>