<svg class="icon" style="width: 1em;height: 1em;vertical-align: middle;fill: currentColor;overflow: hidden;" viewBox="0 0 1024 1024" version="1.1" xmlns="http://www.w3.org/2000/svg" width="32" height="32"><path d="M316.235294 360.146824a26.352941 26.352941 0 0 1 3.312941 52.525176l-3.312941 0.180706H281.088a43.911529 43.911529 0 0 0-4.216471 87.642353l4.216471 0.210823H316.235294a26.352941 26.352941 0 0 1 3.312941 52.495059l-3.312941 0.210824H281.088a96.617412 96.617412 0 0 1-5.481412-193.114353l5.481412-0.150588H316.235294zM491.911529 641.264941a26.352941 26.352941 0 0 1 3.312942 52.495059l-3.312942 0.210824h-52.705882a43.911529 43.911529 0 0 0-4.216471 87.642352l4.216471 0.180706h52.705882a26.352941 26.352941 0 0 1 3.312942 52.525177l-3.312942 0.180706h-52.705882a96.617412 96.617412 0 0 1-5.481412-193.084236l5.481412-0.150588h52.705882zM579.764706 184.470588a26.352941 26.352941 0 0 1 3.312941 52.495059l-3.312941 0.210824H527.058824a43.911529 43.911529 0 0 0-4.216471 87.642353l4.216471 0.210823h52.705882a26.352941 26.352941 0 0 1 3.312941 52.495059l-3.312941 0.210823H527.058824a96.617412 96.617412 0 0 1-5.481412-193.114353l5.481412-0.150588h52.705882z" fill="#568af2" /><path d="M808.146824 325.029647a26.352941 26.352941 0 0 1 3.312941 52.495059l-3.312941 0.210823H527.058824a26.352941 26.352941 0 0 1-3.312942-52.525176l3.312942-0.180706h281.088zM843.294118 500.705882a26.352941 26.352941 0 0 1 3.312941 52.495059l-3.312941 0.210824H316.235294a26.352941 26.352941 0 0 1-3.312941-52.495059l3.312941-0.210824H843.294118zM702.735059 641.264941a26.352941 26.352941 0 0 1 3.312941 52.495059l-3.312941 0.210824h-210.82353a26.352941 26.352941 0 0 1-3.312941-52.525177l3.312941-0.180706h210.82353z" fill="#568af2" /></svg>