<svg class="icon" style="width: 1em;height: 1em;vertical-align: middle;fill: currentColor;overflow: hidden;" viewBox="0 0 1024 1024" version="1.1" xmlns="http://www.w3.org/2000/svg" width="32" height="32"><path d="M522.029176 124.235294a219.617882 219.617882 0 0 1 219.497412 212.35953l0.120471 7.228235v310.512941a114.236235 114.236235 0 0 1-26.352941 225.340235 114.206118 114.206118 0 0 1-26.352942-225.340235v-310.512941a166.912 166.912 0 0 0-333.703529-6.53553l-0.090353 6.565647-0.030118 445.83153 42.88753-42.827294a26.352941 26.352941 0 0 1 39.604706 34.575059l-2.349177 2.710588-87.853176 87.823059-0.662588 0.63247a26.503529 26.503529 0 0 1-1.234824 1.114353l1.897412-1.746823a26.563765 26.563765 0 0 1-15.269647 7.529411l-3.343059 0.180706-3.373177-0.210823a26.443294 26.443294 0 0 1-12.559058-5.12l-0.783059-0.632471a26.503529 26.503529 0 0 1-1.295059-1.14447l-0.632471-0.602353-87.853176-87.853177A26.352941 26.352941 0 0 1 256.903529 744.508235l2.710589 2.349177 42.827294 42.827294V343.853176a219.617882 219.617882 0 0 1 219.617882-219.617882z" fill="#568af2" /></svg>