<svg class="icon" style="width: 1em;height: 1em;vertical-align: middle;fill: currentColor;overflow: hidden;" viewBox="0 0 1024 1024" version="1.1" xmlns="http://www.w3.org/2000/svg" width="32" height="32"><path d="M715.474824 124.235294a26.051765 26.051765 0 0 1 15.751529 5.360941l0.722823 0.602353a26.503529 26.503529 0 0 1 1.716706 1.505883l0.271059 0.240941 87.823059 87.853176a26.352941 26.352941 0 0 1-34.544941 39.634824l-2.710588-2.379294-42.88753-42.88753 0.030118 445.921883a219.617882 219.617882 0 0 1-439.115294 7.228235l-0.090353-7.228235-0.030118-310.512942a114.236235 114.236235 0 0 1 26.383059-225.340235 114.206118 114.206118 0 0 1 26.352941 225.340235v310.512942a166.912 166.912 0 0 0 333.673412 6.535529l0.12047-6.535529-0.030117-445.861647-42.827294 42.827294a26.352941 26.352941 0 0 1-34.575059 2.379294l-2.710588-2.379294a26.352941 26.352941 0 0 1-2.349177-34.544942l2.379294-2.710588L696.621176 131.915294l0.271059-0.240941a26.503529 26.503529 0 0 1 1.716706-1.505882l-1.987765 1.746823a26.533647 26.533647 0 0 1 18.642824-7.710118h0.180706z" fill="#568af2" /></svg>