<svg class="icon" style="width: 1em;height: 1em;vertical-align: middle;fill: currentColor;overflow: hidden;" viewBox="0 0 1024 1024" version="1.1" xmlns="http://www.w3.org/2000/svg" width="32" height="32"><path d="M367.073882 233.562353c22.347294 0 42.917647 12.107294 53.76 31.623529l42.977883 77.432471c9.848471 17.769412 10.330353 39.213176 1.264941 57.344l-37.074824 74.089412 0.813177 2.68047 2.620235 7.860706 1.656471 4.48753c6.957176 18.371765 16.655059 36.773647 29.424941 53.850353a196.367059 196.367059 0 0 0 39.454118 39.54447 218.895059 218.895059 0 0 0 53.910588 29.455059l8.583529 3.072 6.415059 1.987765 74.149647-37.044706a61.500235 61.500235 0 0 1 52.434824-1.204706l4.939294 2.469647L780.047059 624.338824a61.500235 61.500235 0 0 1 31.623529 53.729882v89.148235c0 63.518118-59.934118 108.905412-119.958588 88.636235-130.409412-44.001882-245.970824-103.183059-322.56-179.802352-76.649412-76.619294-135.830588-192.150588-179.802353-322.56-20.269176-60.054588 25.118118-119.958588 88.606118-119.958589z m467.757177-49.091765c13.432471 0 24.515765 10.059294 26.142117 23.04l0.210824 3.312941v228.382118a26.352941 26.352941 0 0 1-52.495059 3.312941l-0.210823-3.312941V281.509647l-183.777883 176.700235a26.352941 26.352941 0 0 1-38.942117-35.328l2.409411-2.650353 190.34353-183.055058h-172.062118a26.352941 26.352941 0 0 1-26.142117-23.04L580.065882 210.823529c0-13.432471 10.059294-24.515765 23.04-26.142117l3.312942-0.210824h228.382117z" fill="#568af2" /></svg>