<svg class="icon" style="width: 1em;height: 1em;vertical-align: middle;fill: currentColor;overflow: hidden;" viewBox="0 0 1024 1024" version="1.1" xmlns="http://www.w3.org/2000/svg" width="32" height="32"><path d="M336.956235 221.003294c22.347294 0 42.917647 12.137412 53.76 31.653647l42.977883 77.402353c9.848471 17.769412 10.330353 39.213176 1.264941 57.374118l-37.044706 73.999059 0.662588 2.409411c7.830588 26.413176 22.497882 55.536941 45.688471 81.016471l6.565647 6.866823a207.661176 207.661176 0 0 0 94.448941 53.910589l-4.457412-1.204706 74.089412-37.044706a61.500235 61.500235 0 0 1 52.434824-1.204706l4.939294 2.469647 77.643294 43.158588a61.500235 61.500235 0 0 1 31.623529 53.76v89.148236c0 63.488-59.934118 108.875294-119.958588 88.606117-130.409412-43.971765-245.970824-103.183059-322.56-179.802353-76.649412-76.619294-135.830588-192.150588-179.802353-322.56-20.269176-60.024471 25.118118-119.958588 88.606118-119.958588z m378.277647-61.289412l2.710589 2.349177 140.559058 140.559059a26.232471 26.232471 0 0 1 7.710118 18.793411 26.292706 26.292706 0 0 1-9.155765 19.937883l-139.113411 139.083294a26.352941 26.352941 0 0 1-39.634824-34.575059l2.379294-2.710588 95.322353-95.412706h-217.238588a26.352941 26.352941 0 0 1-3.312941-52.495059l3.312941-0.180706 217.6-0.030117-95.683765-95.683765a26.352941 26.352941 0 0 1-2.379294-34.575059l2.379294-2.710588a26.352941 26.352941 0 0 1 34.544941-2.349177z" fill="#568af2" /></svg>