<svg class="icon" style="width: 1em;height: 1em;vertical-align: middle;fill: currentColor;overflow: hidden;" viewBox="0 0 1024 1024" version="1.1" xmlns="http://www.w3.org/2000/svg" width="32" height="32"><path d="M367.073882 214.076235c22.347294 0 42.917647 12.137412 53.76 31.653647l42.977883 77.402353c9.848471 17.769412 10.330353 39.213176 1.264941 57.374118l-37.044706 73.999059 0.662588 2.409412c7.830588 26.413176 22.497882 55.536941 45.688471 81.01647l6.565647 6.866824a209.648941 209.648941 0 0 0 90.74447 52.916706l-0.722823-0.210824 74.059294-37.044706a61.500235 61.500235 0 0 1 52.434824-1.204706l4.939294 2.469647 77.643294 43.188706a61.500235 61.500235 0 0 1 31.623529 53.729883v89.148235c0 63.488-59.934118 108.875294-119.958588 88.606117-130.409412-43.971765-245.970824-103.152941-322.56-179.802352-76.649412-76.619294-135.830588-192.150588-179.802353-322.56-20.269176-60.024471 25.118118-119.958588 88.606118-119.958589z m422.79153 13.251765c9.426824 9.426824 10.24 24.244706 2.349176 34.575059l-2.349176 2.710588-60.446118 60.385882 60.446118 60.446118a26.352941 26.352941 0 0 1-34.575059 39.634824l-2.710588-2.379295-60.416-60.446117-60.416 60.446117a26.352941 26.352941 0 0 1-39.634824-34.544941l2.379294-2.710588 60.416-60.446118-60.416-60.416a26.352941 26.352941 0 0 1 34.544941-39.604705l2.710589 2.349176 60.416 60.416 60.446117-60.416a26.352941 26.352941 0 0 1 37.25553 0z" fill="#568af2" /></svg>