<svg class="icon" style="width: 1em;height: 1em;vertical-align: middle;fill: currentColor;overflow: hidden;" viewBox="0 0 1024 1024" version="1.1" xmlns="http://www.w3.org/2000/svg" width="32" height="32"><path d="M853.323294 184.470588c14.576941 0 26.352941 11.806118 26.352941 26.352941v527.058824a26.352941 26.352941 0 0 1-26.352941 26.352941h-252.626823l-80.112942 80.112941a26.352941 26.352941 0 0 1-34.544941 2.379294l-2.710588-2.379294-80.112941-80.112941H150.588235a26.352941 26.352941 0 0 1-26.142117-23.04l-0.210824-3.312941V210.823529c0-14.546824 11.806118-26.352941 26.352941-26.352941z m-351.35247 263.529412a26.352941 26.352941 0 0 0-26.352942 26.352941V632.470588l0.180706 3.312941a26.352941 26.352941 0 0 0 52.525177-3.312941v-158.117647l-0.210824-3.312941a26.352941 26.352941 0 0 0-26.142117-23.04z m0-122.970353a26.352941 26.352941 0 0 0-26.352942 26.352941v17.558588l0.180706 3.312942a26.352941 26.352941 0 0 0 52.525177-3.312942v-17.558588l-0.210824-3.312941a26.352941 26.352941 0 0 0-26.142117-23.04z" fill="#568af2" /></svg>