<svg class="icon" style="width: 1em;height: 1em;vertical-align: middle;fill: currentColor;overflow: hidden;" viewBox="0 0 1024 1024" version="1.1" xmlns="http://www.w3.org/2000/svg" width="32" height="32"><path d="M853.323294 184.470588c14.576941 0 26.352941 11.806118 26.352941 26.352941v527.058824a26.352941 26.352941 0 0 1-26.352941 26.352941H455.408941l-170.044235 85.052235a26.352941 26.352941 0 0 1-37.948235-20.178823l-0.210824-3.373177v-61.500235H150.588235a26.352941 26.352941 0 0 1-26.142117-23.04l-0.210824-3.312941V210.823529c0-14.546824 11.806118-26.352941 26.352941-26.352941z m-216.606118 319.006118a26.352941 26.352941 0 0 0-35.358117 11.806118c-3.011765 6.023529-10.450824 16.534588-22.467765 27.226352-20.118588 17.859765-45.296941 28.461176-76.92047 28.461177-31.623529 0-56.832-10.601412-76.920471-28.461177-12.047059-10.691765-19.486118-21.232941-22.497882-27.226352l-1.656471-2.861177a26.352941 26.352941 0 0 0-45.477647 26.413177c5.782588 11.565176 16.986353 27.407059 34.605176 43.068235 29.304471 26.051765 66.680471 41.773176 111.947295 41.773176 45.236706 0 82.612706-15.721412 111.917176-41.773176 17.648941-15.661176 28.852706-31.503059 34.635294-43.068235a26.352941 26.352941 0 0 0-11.806118-35.358118z m-11.776-160.888471a26.352941 26.352941 0 0 0-26.352941 26.352941v17.558589l0.210824 3.312941a26.352941 26.352941 0 0 0 52.495059-3.312941v-17.558589l-0.210824-3.312941a26.352941 26.352941 0 0 0-26.142118-23.04z m-245.970823 0a26.352941 26.352941 0 0 0-26.352941 26.352941v17.558589l0.210823 3.312941a26.352941 26.352941 0 0 0 52.495059-3.312941v-17.558589l-0.180706-3.312941a26.352941 26.352941 0 0 0-26.172235-23.04z" fill="#568af2" /></svg>