<svg class="icon" style="width: 1em;height: 1em;vertical-align: middle;fill: currentColor;overflow: hidden;" viewBox="0 0 1024 1024" version="1.1" xmlns="http://www.w3.org/2000/svg" width="32" height="32"><path d="M853.323294 184.470588c14.576941 0 26.352941 11.806118 26.352941 26.352941v527.058824a26.352941 26.352941 0 0 1-26.352941 26.352941H490.556235l-170.074353 85.052235a26.352941 26.352941 0 0 1-37.948235-20.178823l-0.180706-3.373177v-61.500235H150.588235a26.352941 26.352941 0 0 1-26.142117-23.04l-0.210824-3.312941V210.823529c0-14.546824 11.806118-26.352941 26.352941-26.352941zM326.264471 421.647059a26.352941 26.352941 0 0 0-26.352942 26.352941v52.705882l0.210824 3.312942a26.352941 26.352941 0 0 0 52.495059-3.312942v-52.705882l-0.180706-3.312941a26.352941 26.352941 0 0 0-26.172235-23.04z m175.706353 0a26.352941 26.352941 0 0 0-26.352942 26.352941v52.705882l0.180706 3.312942a26.352941 26.352941 0 0 0 52.525177-3.312942v-52.705882l-0.210824-3.312941a26.352941 26.352941 0 0 0-26.142117-23.04z m175.676235 0a26.352941 26.352941 0 0 0-26.352941 26.352941v52.705882l0.210823 3.312942a26.352941 26.352941 0 0 0 52.495059-3.312942v-52.705882l-0.210824-3.312941A26.352941 26.352941 0 0 0 677.647059 421.647059z" fill="#568af2" /></svg>