<svg class="icon" style="width: 1em;height: 1em;vertical-align: middle;fill: currentColor;overflow: hidden;" viewBox="0 0 1024 1024" version="1.1" xmlns="http://www.w3.org/2000/svg" width="32" height="32"><path d="M532.088471 124.235294c208.594824 0 377.705412 169.110588 377.705411 377.73553 0 208.594824-169.110588 377.705412-377.705411 377.705411H180.705882a26.352941 26.352941 0 0 1-26.352941-26.352941V501.970824c0-208.624941 169.110588-377.735529 377.73553-377.73553z m176.730353 271.23953a26.352941 26.352941 0 0 0-37.25553 0l-209.769412 209.739294-86.768941-86.738824-2.710588-2.379294a26.352941 26.352941 0 0 0-34.544941 39.634824l105.411764 105.411764 2.710589 2.349177a26.352941 26.352941 0 0 0 34.544941-2.349177l228.382118-228.382117 2.379294-2.710589a26.352941 26.352941 0 0 0-2.379294-34.575058z" fill="#568af2" /></svg>