<svg class="icon" style="width: 1em;height: 1em;vertical-align: middle;fill: currentColor;overflow: hidden;" viewBox="0 0 1024 1024" version="1.1" xmlns="http://www.w3.org/2000/svg" width="32" height="32"><path d="M397.191529 184.470588H308.103529c-63.488 0-108.875294 59.934118-88.636235 119.958588 44.032 130.409412 103.183059 245.940706 179.802353 322.56 76.619294 76.619294 192.150588 135.800471 322.56 179.802353 60.054588 20.269176 119.958588-25.118118 119.958588-88.636235v-89.148235c0-22.287059-12.077176-42.887529-31.623529-53.729883l-77.613177-43.158588-4.939294-2.469647a61.500235 61.500235 0 0 0-52.434823 1.204706l-74.149647 37.044706-6.415059-1.987765-8.58353-3.072a218.895059 218.895059 0 0 1-53.910588-29.455059 195.885176 195.885176 0 0 1-39.454117-39.514353 220.641882 220.641882 0 0 1-29.424942-53.88047l-1.65647-4.48753-2.620235-7.860705-0.813177-2.680471 37.044706-74.089412a61.500235 61.500235 0 0 0-1.204706-57.344l-43.008-77.402353a61.500235 61.500235 0 0 0-53.76-31.653647z" fill="#568af2" /></svg>