<svg class="icon" style="width: 1em;height: 1em;vertical-align: middle;fill: currentColor;overflow: hidden;" viewBox="0 0 1024 1024" version="1.1" xmlns="http://www.w3.org/2000/svg" width="32" height="32"><path d="M712.794353 184.470588c13.432471 0 24.515765 10.059294 26.142118 23.04l0.210823 3.312941-0.030118 254.735059h114.206118c13.432471 0 24.545882 10.059294 26.172235 23.070118l0.180706 3.312941v281.088a26.352941 26.352941 0 0 1-23.04 26.142118l-3.312941 0.210823-76.92047-0.030117-44.995765 44.995764a26.352941 26.352941 0 0 1-31.62353 4.306824l-2.921411-1.92753-2.710589-2.379294-45.025882-44.995764H466.823529a26.352941 26.352941 0 0 1-25.539764-19.84753l-0.602353-3.19247-0.210824-3.312942-0.030117-114.176h-50.56753l-62.524235 62.554353a26.352941 26.352941 0 0 1-31.653647 4.276706l-2.921412-1.927529-2.710588-2.349177-62.554353-62.554353H150.588235a26.352941 26.352941 0 0 1-25.539764-19.877647l-0.602353-3.162353-0.210824-3.312941V210.823529c0-13.432471 10.059294-24.515765 23.04-26.142117L150.588235 184.470588h562.206118z m114.176 333.793883h-87.853177V632.470588a26.352941 26.352941 0 0 1-23.04 26.142118l-3.312941 0.210823h-219.587764v87.823059h166.912c4.638118 0 9.185882 1.264941 13.161411 3.553883l2.861177 1.897411 2.590117 2.288942 34.063059 34.032941 34.093177-34.032941a26.352941 26.352941 0 0 1 11.806117-6.806589l3.373177-0.692706 3.463529-0.210823 61.470118-0.030118v-228.382117z m-395.294118-122.970353h-17.558588l-3.312941 0.210823a26.352941 26.352941 0 0 0 0 52.284235l3.312941 0.210824h17.558588l3.312941-0.210824a26.352941 26.352941 0 0 0-3.312941-52.495058z m123.000471 0h-17.588706l-3.312941 0.210823a26.352941 26.352941 0 0 0 0 52.284235l3.312941 0.210824h17.588706l3.312941-0.210824a26.352941 26.352941 0 0 0-3.312941-52.495058z m-245.970824 0h-17.558588l-3.312941 0.210823a26.352941 26.352941 0 0 0 0 52.284235l3.312941 0.210824h17.558588l3.312942-0.210824a26.352941 26.352941 0 0 0-3.312942-52.495058z" fill="#568af2" /></svg>