<svg class="icon" style="width: 1em;height: 1em;vertical-align: middle;fill: currentColor;overflow: hidden;" viewBox="0 0 1024 1024" version="1.1" xmlns="http://www.w3.org/2000/svg" width="32" height="32"><path d="M532.088471 124.235294c208.594824 0 377.705412 169.110588 377.705411 377.73553 0 208.594824-169.110588 377.705412-377.705411 377.705411H180.705882a26.352941 26.352941 0 0 1-26.352941-26.352941V501.970824c0-208.624941 169.110588-377.735529 377.73553-377.73553z m0 527.058824h-175.706353l-3.312942 0.210823a26.352941 26.352941 0 0 0 3.312942 52.495059h175.706353l3.312941-0.210824a26.352941 26.352941 0 0 0-3.312941-52.495058z m140.528941-140.559059h-316.235294l-3.312942 0.210823a26.352941 26.352941 0 0 0 3.312942 52.495059h316.235294l3.312941-0.180706a26.352941 26.352941 0 0 0-3.312941-52.525176z m0-140.528941h-316.235294l-3.312942 0.180706a26.352941 26.352941 0 0 0 3.312942 52.525176h316.235294l3.312941-0.210824a26.352941 26.352941 0 0 0-3.312941-52.495058z" fill="#568af2" /></svg>