<svg class="icon" style="width: 1em;height: 1em;vertical-align: middle;fill: currentColor;overflow: hidden;" viewBox="0 0 1024 1024" version="1.1" xmlns="http://www.w3.org/2000/svg" width="32" height="32"><path d="M853.323294 184.470588c14.576941 0 26.352941 11.806118 26.352941 26.352941v527.058824a26.352941 26.352941 0 0 1-26.352941 26.352941h-252.626823l-80.112942 80.112941a26.352941 26.352941 0 0 1-34.544941 2.379294l-2.710588-2.379294-80.112941-80.112941H150.588235a26.352941 26.352941 0 0 1-26.142117-23.04l-0.210824-3.312941V210.823529c0-14.546824 11.806118-26.352941 26.352941-26.352941z m-279.552 123.030588a26.352941 26.352941 0 0 0-27.828706 24.756706l-3.734588 63.036236h-70.174118l3.523765-59.934118v-3.312941a26.352941 26.352941 0 0 0-52.615529 0.210823l-3.704471 63.036236H361.411765l-3.312941 0.210823a26.352941 26.352941 0 0 0 3.312941 52.495059h54.723764l-4.156235 70.264471h-68.126118l-3.312941 0.210823a26.352941 26.352941 0 0 0 3.312941 52.495059h65.024l-3.493647 59.934118v3.312941a26.352941 26.352941 0 0 0 52.61553-0.210824l3.674353-63.036235h70.204235l-3.523765 59.934118v3.312941a26.352941 26.352941 0 0 0 52.61553-0.210824l3.70447-63.036235h57.825883l3.312941-0.180706a26.352941 26.352941 0 0 0-3.312941-52.525176h-54.723765l4.126118-70.264471h68.186353l3.312941-0.210824a26.352941 26.352941 0 0 0-3.312941-52.495058h-65.084236l3.523765-59.934118v-3.312941a26.352941 26.352941 0 0 0-24.756706-24.545883zM539.105882 448l-4.126117 70.264471h-70.204236l4.156236-70.264471h70.174117z" fill="#568af2" /></svg>