<svg class="icon" style="width: 1em;height: 1em;vertical-align: middle;fill: currentColor;overflow: hidden;" viewBox="0 0 1024 1024" version="1.1" xmlns="http://www.w3.org/2000/svg" width="32" height="32"><path d="M336.956235 238.592c22.347294 0 42.917647 12.107294 53.76 31.623529l42.977883 77.402353c9.848471 17.769412 10.330353 39.213176 1.264941 57.374118l-37.044706 73.999059 0.662588 2.439529c7.830588 26.413176 22.497882 55.506824 45.688471 81.016471l6.565647 6.836706a209.679059 209.679059 0 0 0 90.74447 52.916706l-0.722823-0.210824 74.059294-37.044706a61.500235 61.500235 0 0 1 52.434824-1.204706l4.939294 2.469647 77.643294 43.188706a61.500235 61.500235 0 0 1 31.623529 53.729883v89.148235c0 63.488-59.934118 108.875294-119.958588 88.636235-130.409412-44.032-245.940706-103.183059-322.56-179.802353-76.649412-76.649412-135.830588-192.150588-179.802353-322.56-20.269176-60.054588 25.118118-119.958588 88.606118-119.958588z m432.64-84.239059c14.546824 0 26.352941 11.806118 26.352941 26.352941l-0.030117 13.763765 51.712-20.660706a26.352941 26.352941 0 0 1 35.96047 21.232941l0.180706 3.222589v140.559058a26.352941 26.352941 0 0 1-36.141176 24.45553l-51.712-20.690824v13.793883a26.352941 26.352941 0 0 1-23.04 26.172235l-3.312941 0.180706h-210.82353a26.352941 26.352941 0 0 1-26.322823-26.352941V180.705882c0-14.546824 11.776-26.352941 26.352941-26.352941z" fill="#568af2" /></svg>