<svg class="icon" style="width: 1em;height: 1em;vertical-align: middle;fill: currentColor;overflow: hidden;" viewBox="0 0 1024 1024" version="1.1" xmlns="http://www.w3.org/2000/svg" width="32" height="32"><path d="M853.323294 184.470588c13.432471 0 24.545882 10.059294 26.172235 23.04l0.180706 3.312941v193.264942a26.352941 26.352941 0 0 1-52.495059 3.312941l-0.210823-3.312941V237.176471H176.941176v474.352941h96.617412c13.432471 0 24.545882 10.059294 26.172236 23.04l0.180705 3.312941v45.206588l137.547295-68.788706a26.352941 26.352941 0 0 1 8.734117-2.590117l3.072-0.180706h79.058824a26.352941 26.352941 0 0 1 3.312941 52.495059l-3.312941 0.210823H455.378824l-170.044236 85.052235a26.352941 26.352941 0 0 1-37.948235-20.178823l-0.210824-3.373177v-61.500235H150.588235a26.352941 26.352941 0 0 1-26.142117-23.04l-0.210824-3.312941V210.823529c0-13.432471 10.059294-24.515765 23.04-26.142117L150.588235 184.470588h702.735059z m-122.970353 245.970824a79.058824 79.058824 0 0 1 78.908235 74.059294l0.150589 4.999529-0.030118 26.322824h43.971765c13.402353 0 24.515765 10.059294 26.142117 23.070117l0.180706 3.312942v140.528941a26.352941 26.352941 0 0 1-26.352941 26.352941h-245.940706a26.352941 26.352941 0 0 1-26.352941-26.352941v-140.528941c0-14.576941 11.776-26.352941 26.352941-26.352942l43.881412-0.030117 0.030118-26.322824a79.058824 79.058824 0 0 1 79.058823-79.058823z m0 52.705882a26.352941 26.352941 0 0 0-26.142117 23.04l-0.210824 3.312941-0.030118 26.322824h52.705883l0.030117-26.322824a26.352941 26.352941 0 0 0-26.352941-26.352941z m-228.382117-52.705882a26.352941 26.352941 0 0 1 3.312941 52.495059l-3.312941 0.210823h-210.82353a26.352941 26.352941 0 0 1-3.312941-52.525176l3.312941-0.180706h210.82353z m-105.411765-105.411765a26.352941 26.352941 0 0 1 3.312941 52.495059l-3.312941 0.210823h-105.411765a26.352941 26.352941 0 0 1-3.312941-52.525176l3.312941-0.180706h105.411765z" fill="#568af2" /></svg>