<svg class="icon" style="width: 1em;height: 1em;vertical-align: middle;fill: currentColor;overflow: hidden;" viewBox="0 0 1024 1024" version="1.1" xmlns="http://www.w3.org/2000/svg" width="32" height="32"><path d="M336.956235 239.194353c22.347294 0 42.917647 12.107294 53.76 31.623529l42.977883 77.432471c9.848471 17.769412 10.330353 39.213176 1.264941 57.344l-37.044706 73.999059 0.662588 2.439529c7.830588 26.413176 22.497882 55.506824 45.688471 81.016471l6.565647 6.866823c6.565647 6.565647 13.583059 12.649412 21.022117 18.191059a218.895059 218.895059 0 0 0 53.910589 29.455059l8.583529 3.072 6.415059 1.987765 74.149647-37.044706a61.500235 61.500235 0 0 1 52.434824-1.204706l4.939294 2.469647 77.643294 43.158588a61.500235 61.500235 0 0 1 31.623529 53.729883v89.148235c0 63.518118-59.934118 108.875294-119.958588 88.636235-130.409412-44.001882-245.970824-103.183059-322.56-179.802353-76.649412-76.619294-135.830588-192.150588-179.802353-322.56-20.269176-60.054588 25.118118-119.958588 88.606118-119.958588z m317.741177-47.043765a253.650824 253.650824 0 0 1 117.970823 66.921412 253.650824 253.650824 0 0 1 66.95153 117.970824 255.909647 255.909647 0 0 1 4.848941 99.900235 26.352941 26.352941 0 1 1-52.10353-7.770353 203.203765 203.203765 0 0 0-3.885176-79.329882 200.944941 200.944941 0 0 0-53.097412-93.485177 200.944941 200.944941 0 0 0-93.485176-53.097412 203.233882 203.233882 0 0 0-79.329883-3.855059 26.352941 26.352941 0 1 1-7.770353-52.133647 255.939765 255.939765 0 0 1 99.900236 4.879059z m19.275294 158.027294a131.614118 131.614118 0 0 1 37.165176 112.64 26.352941 26.352941 0 0 1-52.404706-4.457411l0.301177-3.312942a78.908235 78.908235 0 0 0-22.287059-67.614117c-16.594824-16.564706-39.183059-24.696471-61.982118-22.91953l-5.692235 0.632471a26.352941 26.352941 0 0 1-7.770353-52.103529 131.614118 131.614118 0 0 1 112.700236 37.135058z" fill="#568af2" /></svg>