<svg class="icon" style="width: 1em;height: 1em;vertical-align: middle;fill: currentColor;overflow: hidden;" viewBox="0 0 1024 1024" version="1.1" xmlns="http://www.w3.org/2000/svg" width="32" height="32"><path d="M367.073882 233.562353c22.347294 0 42.917647 12.107294 53.76 31.623529l42.977883 77.432471c9.848471 17.769412 10.330353 39.213176 1.264941 57.344l-37.074824 74.089412 0.813177 2.68047 2.620235 7.860706 1.656471 4.48753c6.957176 18.371765 16.655059 36.773647 29.424941 53.850353a196.367059 196.367059 0 0 0 39.454118 39.54447 218.864941 218.864941 0 0 0 53.910588 29.455059l8.583529 3.072 6.415059 1.987765 74.149647-37.044706a61.500235 61.500235 0 0 1 52.434824-1.204706l4.939294 2.469647L780.047059 624.338824a61.500235 61.500235 0 0 1 31.623529 53.76v89.148235c0 63.488-59.934118 108.875294-119.958588 88.606117-130.409412-44.001882-245.970824-103.183059-322.56-179.802352-76.649412-76.619294-135.830588-192.150588-179.802353-322.56-20.269176-60.054588 25.118118-119.958588 88.606118-119.958589z m237.598118 231.936l1.776941 0.060235a26.593882 26.593882 0 0 1-18.974117-8.071529l-0.361412-0.361412a26.503529 26.503529 0 0 1-1.505883-1.807059l1.837177 2.168471a26.563765 26.563765 0 0 1-7.318588-17.016471l-0.030118-1.264941V210.823529a26.352941 26.352941 0 0 1 52.495059-3.312941l0.210823 3.312941-0.060235 166.520471 183.838118-176.730353a26.352941 26.352941 0 0 1 38.942117 35.328l-2.409411 2.650353-181.248 174.260706h162.966588c13.432471 0 24.515765 10.059294 26.142117 23.070118l0.210824 3.312941a26.352941 26.352941 0 0 1-23.04 26.112l-3.312941 0.210823h-228.894118a26.503529 26.503529 0 0 1-1.264941-0.060235z" fill="#568af2" /></svg>