<svg class="icon" style="width: 1em;height: 1em;vertical-align: middle;fill: currentColor;overflow: hidden;" viewBox="0 0 1024 1024" version="1.1" xmlns="http://www.w3.org/2000/svg" width="32" height="32"><path d="M853.323294 184.470588c13.432471 0 24.545882 10.059294 26.172235 23.04l0.180706 3.312941v193.264942a26.352941 26.352941 0 0 1-52.495059 3.312941l-0.210823-3.312941V237.176471H176.941176v474.352941h96.617412c13.432471 0 24.545882 10.059294 26.172236 23.04l0.180705 3.312941v45.206588l137.547295-68.788706a26.352941 26.352941 0 0 1 8.734117-2.590117l3.072-0.180706h79.058824a26.352941 26.352941 0 0 1 3.312941 52.495059l-3.312941 0.210823H455.378824l-170.044236 85.052235a26.352941 26.352941 0 0 1-37.948235-20.178823l-0.210824-3.373177v-61.500235H150.588235a26.352941 26.352941 0 0 1-26.142117-23.04l-0.210824-3.312941V210.823529c0-13.432471 10.059294-24.515765 23.04-26.142117L150.588235 184.470588h702.735059z m-148.208941 264.673883a26.352941 26.352941 0 0 1 15.36 0l2.228706 0.692705 9.396706 2.981648 22.889411 7.619764c9.788235 3.373176 19.425882 6.836706 28.672 10.360471 11.595294 4.427294 22.076235 8.734118 31.171765 12.890353 33.039059 15.119059 47.284706 24.877176 47.284706 46.893176 0 72.161882-25.389176 134.083765-67.463529 185.374118-25.148235 30.659765-50.447059 51.2-68.156236 61.982118a26.352941 26.352941 0 0 1-27.738353-0.180706l-4.517647-2.95153a264.071529 264.071529 0 0 1-22.678588-17.468235 325.481412 325.481412 0 0 1-45.206588-47.073882c-39.393882-50.326588-62.915765-110.381176-62.915765-179.681883 0-21.985882 14.245647-31.774118 47.284706-46.893176 9.125647-4.156235 19.576471-8.463059 31.201882-12.890353 13.854118-5.270588 28.611765-10.450824 43.369412-15.329883l4.276706-1.385411z m-203.143529-18.703059a26.352941 26.352941 0 0 1 3.312941 52.495059l-3.312941 0.210823h-210.82353a26.352941 26.352941 0 0 1-3.312941-52.525176l3.312941-0.180706h210.82353z m-105.411765-105.411765a26.352941 26.352941 0 0 1 3.312941 52.495059l-3.312941 0.210823h-105.411765a26.352941 26.352941 0 0 1-3.312941-52.525176l3.312941-0.180706h105.411765z" fill="#568af2" /></svg>