<svg class="icon" style="width: 1em;height: 1em;vertical-align: middle;fill: currentColor;overflow: hidden;" viewBox="0 0 1024 1024" version="1.1" xmlns="http://www.w3.org/2000/svg" width="32" height="32"><path d="M853.323294 184.470588c14.576941 0 26.352941 11.806118 26.352941 26.352941v527.058824a26.352941 26.352941 0 0 1-26.352941 26.352941h-252.626823l-80.112942 80.112941a26.352941 26.352941 0 0 1-34.544941 2.379294l-2.710588-2.379294-80.112941-80.112941H150.588235a26.352941 26.352941 0 0 1-26.142117-23.04l-0.210824-3.312941V210.823529c0-14.546824 11.806118-26.352941 26.352941-26.352941z m-333.763765 263.529412h-35.177411l-3.312942 0.210824a26.352941 26.352941 0 0 0 3.312942 52.495058h35.177411l3.312942-0.210823a26.352941 26.352941 0 0 0-3.312942-52.495059z m175.646118 0h-35.117176l-3.312942 0.210824a26.352941 26.352941 0 0 0 3.312942 52.495058h35.117176l3.312941-0.210823a26.352941 26.352941 0 0 0-3.312941-52.495059z m-351.352471 0H308.705882l-3.312941 0.210824a26.352941 26.352941 0 0 0 3.312941 52.495058h35.117177l3.312941-0.210823a26.352941 26.352941 0 0 0-3.312941-52.495059z" fill="#568af2" /></svg>