<svg class="icon" style="width: 1em;height: 1em;vertical-align: middle;fill: currentColor;overflow: hidden;" viewBox="0 0 1024 1024" version="1.1" xmlns="http://www.w3.org/2000/svg" width="32" height="32"><path d="M501.970824 124.235294c208.594824 0 377.705412 169.110588 377.705411 377.73553 0 208.594824-169.110588 377.705412-377.705411 377.705411a376.651294 376.651294 0 0 1-209.92-63.638588l5.451294 3.493647-2.891294 0.301177-7.830589 1.14447-9.938823 1.807059-5.51153 1.144471-12.348235 2.710588-21.684706 5.24047-16.564706 4.216471-28.069647 7.529412a26.352941 26.352941 0 0 1-32.346353-32.376471l5.12-19.124706 6.625883-25.509647 3.614117-14.878117 3.011765-13.19153 2.409412-11.444706 1.837176-9.968941c0.752941-4.457412 1.234824-8.131765 1.41553-10.721882l-4.517647-7.04753c-7.740235-12.649412-14.757647-25.750588-20.961883-39.213176l-5.963294-13.613177a376.651294 376.651294 0 0 1-28.672-144.564705c0-208.624941 169.110588-377.735529 377.73553-377.73553z m86.437647 206.245647a26.352941 26.352941 0 0 0-27.256471 21.744941l-8.794353 49.935059h-69.481412l7.228236-40.779294 0.361411-3.312941a26.352941 26.352941 0 0 0-21.744941-27.226353l-3.312941-0.361412a26.352941 26.352941 0 0 0-27.226353 21.744941l-8.824471 49.935059h-57.313882l-3.312941 0.210824a26.352941 26.352941 0 0 0 3.312941 52.495059h48.00753l-16.022589 90.985411-67.132235 0.030118-3.312941 0.210823a26.352941 26.352941 0 0 0 3.312941 52.495059l57.825882-0.030117-7.740235 43.971764-0.361412 3.312942a26.352941 26.352941 0 0 0 52.284236 5.842823l9.33647-53.127529h69.481412l-7.740235 43.971764-0.39153 3.312942a26.352941 26.352941 0 0 0 52.284236 5.842823l9.33647-53.127529 60.476235 0.030117 3.312942-0.210823a26.352941 26.352941 0 0 0-3.312942-52.495059l-51.2-0.030118 16.052706-90.985411h70.294589l3.312941-0.180706a26.352941 26.352941 0 0 0-3.312941-52.525177h-60.988236l7.228236-40.779294 0.361411-3.312941a26.352941 26.352941 0 0 0-21.744941-27.226353z m-45.357177 124.385883l-16.052706 90.985411h-69.481412l16.052706-90.985411h69.481412z" fill="#568af2" /></svg>