<svg class="icon" style="width: 1em;height: 1em;vertical-align: middle;fill: currentColor;overflow: hidden;" viewBox="0 0 1024 1024" version="1.1" xmlns="http://www.w3.org/2000/svg" width="32" height="32"><path d="M883.440941 184.470588c14.576941 0 26.352941 11.806118 26.352941 26.352941v527.058824a26.352941 26.352941 0 0 1-26.352941 26.352941H520.673882l-170.074353 85.052235a26.352941 26.352941 0 0 1-37.948235-20.178823l-0.180706-3.373177v-61.500235H180.705882a26.352941 26.352941 0 0 1-26.142117-23.04l-0.210824-3.312941V210.823529c0-14.546824 11.806118-26.352941 26.352941-26.352941z m-175.676235 263.529412H356.382118l-3.312942 0.210824a26.352941 26.352941 0 0 0 3.312942 52.495058H707.764706l3.312941-0.210823a26.352941 26.352941 0 0 0-3.312941-52.495059z" fill="#568af2" /></svg>