<svg class="icon" style="width: 1em;height: 1em;vertical-align: middle;fill: currentColor;overflow: hidden;" viewBox="0 0 1024 1024" version="1.1" xmlns="http://www.w3.org/2000/svg" width="32" height="32"><path d="M765.741176 184.470588a73.788235 73.788235 0 0 1 73.788236 73.788236v537.6a73.788235 73.788235 0 0 1-73.788236 73.788235H228.141176a73.788235 73.788235 0 0 1-73.788235-73.788235V258.258824a73.788235 73.788235 0 0 1 73.788235-73.788236z m-297.261176 490.315294a26.352941 26.352941 0 0 0-34.635294-13.854117l-122.970353 52.705882-2.951529 1.505882a26.352941 26.352941 0 0 0 23.702588 46.98353l123.00047-52.705883 2.95153-1.505882a26.352941 26.352941 0 0 0 10.87247-33.129412z m263.529412-105.411764a26.352941 26.352941 0 0 0-34.635294-13.854118l-122.970353 52.705882-2.95153 1.505883a26.352941 26.352941 0 0 0 23.702589 46.983529l123.00047-52.705882 2.95153-1.505883a26.352941 26.352941 0 0 0 10.87247-33.129411z m-375.627294-138.932706a79.058824 79.058824 0 0 0-79.058824 79.058823c0 26.744471 19.124706 64.993882 57.374118 120.380236a26.352941 26.352941 0 0 0 43.369412 0c38.249412-55.386353 57.374118-93.635765 57.374117-120.380236a79.058824 79.058824 0 0 0-79.058823-79.058823z m0 52.705882c14.576941 0 26.352941 11.776 26.352941 26.352941l-0.120471 2.048-0.481882 2.710589c-1.475765 6.836706-5.722353 16.986353-12.67953 30.027294l-5.872941 10.541176-7.198117 11.986824-3.855059-6.324706-6.384941-11.083294-2.800942-5.12-2.529882-4.818824-4.246588-8.794353-1.987765-4.608c-3.011765-7.288471-4.517647-12.860235-4.517647-16.564706 0-14.576941 11.776-26.352941 26.322824-26.352941z m281.118117-175.706353a79.058824 79.058824 0 0 0-79.058823 79.058824c0 26.774588 19.124706 65.054118 57.374117 120.410353a26.352941 26.352941 0 0 0 43.369412 0c38.249412-55.386353 57.374118-93.665882 57.374118-120.410353a79.058824 79.058824 0 0 0-79.058824-79.058824z m0 52.705883c14.546824 0 26.352941 11.806118 26.352941 26.352941l-0.150588 2.078117-0.512 2.921412c-0.903529 4.186353-2.891294 9.637647-5.872941 16.173177l-4.246588 8.794353-5.330824 9.938823-6.384941 11.083294-3.885176 6.354824-7.168-12.047059-5.872942-10.480941-2.770823-5.360941c-7.017412-13.793882-10.541176-23.792941-10.541177-29.455059 0-14.546824 11.806118-26.352941 26.383059-26.352941z" fill="#568af2" /></svg>