<svg class="icon" style="width: 1em;height: 1em;vertical-align: middle;fill: currentColor;overflow: hidden;" viewBox="0 0 1024 1024" version="1.1" xmlns="http://www.w3.org/2000/svg" width="32" height="32"><path d="M189.500235 471.341176c13.432471 0 24.515765 10.089412 26.142118 23.070118l0.210823 3.312941v1.024l0.361412 7.408941 0.240941 3.312942c0.783059 10.089412 2.228706 21.443765 4.48753 33.701647a339.275294 339.275294 0 0 0 35.870117 102.460235c36.050824 65.415529 93.003294 112.399059 176.489412 134.023529 106.767059 27.708235 191.457882 3.403294 257.686588-54.211764a291.538824 291.538824 0 0 0 42.164706-45.327059l5.210353-7.198118c0.752941-1.084235 1.505882-2.138353 2.138353-3.132235l3.403294-5.240471 2.228706-3.764706a26.352941 26.352941 0 0 1 46.260706 25.238589c-11.203765 20.540235-33.129412 49.935059-66.800941 79.209411-78.697412 68.427294-180.946824 97.761882-305.543529 65.445648-94.177882-24.395294-161.129412-77.552941-204.197648-150.528v98.665411a26.352941 26.352941 0 0 1-52.525176 3.312941l-0.180706-3.312941v-281.088c0-13.432471 10.029176-24.515765 23.04-26.142117l3.312941-0.210824z m316.235294-193.234823a184.470588 184.470588 0 0 1 184.470589 184.470588c0 61.952-32.677647 121.856-86.287059 178.447059-14.576941 15.36-29.906824 29.635765-45.417412 42.646588l-11.655529 9.517177-9.426824 7.348706-11.444706 8.493176-5.632 3.885177a26.352941 26.352941 0 0 1-29.214117 0l-1.264942-0.843295-1.355294-0.903529-6.445176-4.638118-8.041412-5.993411-9.426823-7.348706a555.640471 555.640471 0 0 1-57.072942-52.163765c-53.609412-56.591059-86.256941-116.495059-86.256941-178.447059a184.470588 184.470588 0 0 1 184.470588-184.470588z m0 105.411765a79.058824 79.058824 0 1 0 0 158.117647 79.058824 79.058824 0 0 0 0-158.117647z m105.231059-209.377883c84.329412 29.214118 144.956235 79.480471 184.651294 144.715294V216.636235a26.352941 26.352941 0 0 1 52.495059-3.312941l0.210824 3.312941v281.389177l0.030117 2.861176-0.060235 6.625883a26.352941 26.352941 0 0 1-52.585412 1.295058l-0.060235-3.674353a272.022588 272.022588 0 0 0-4.999529-51.742117 315.331765 315.331765 0 0 0-36.291765-100.773647c-33.370353-58.127059-85.413647-102.640941-160.617412-128.662588-104.116706-36.050824-193.355294-13.040941-268.348235 47.887058-17.709176 14.336-33.129412 29.756235-46.08 45.116236l-5.963294 7.228235-4.608 5.933176-4.457412 6.324706a26.352941 26.352941 0 0 1-44.152471-28.79247C233.020235 287.864471 257.114353 259.312941 292.141176 230.912c88.184471-71.589647 195.824941-99.328 318.825412-56.771765z m-105.231059 262.083765a26.352941 26.352941 0 1 1 0 52.705882 26.352941 26.352941 0 0 1 0-52.705882z" fill="#568af2" /></svg>