<svg class="icon" style="width: 1em;height: 1em;vertical-align: middle;fill: currentColor;overflow: hidden;" viewBox="0 0 1024 1024" version="1.1" xmlns="http://www.w3.org/2000/svg" width="32" height="32"><path d="M759.205647 154.352941a79.058824 79.058824 0 0 1 78.908235 74.059294l0.150589 4.99953v491.911529a79.058824 79.058824 0 0 1-74.059295 78.908235l-4.999529 0.150589h-26.352941v43.941647a26.352941 26.352941 0 0 1-52.495059 3.312941l-0.210823-3.312941v-43.941647h-298.646589v43.941647a26.352941 26.352941 0 0 1-52.525176 3.312941l-0.180706-3.312941v-43.941647h-26.352941a79.058824 79.058824 0 0 1-78.908236-74.059294l-0.150588-4.99953V233.411765a79.058824 79.058824 0 0 1 74.059294-78.908236l4.99953-0.150588h456.764235z m-52.705882 483.147294a35.147294 35.147294 0 1 0 0 70.264471 35.147294 35.147294 0 0 0 0-70.264471z m-351.352471 0a35.147294 35.147294 0 1 0 0 70.264471 35.147294 35.147294 0 0 0 0-70.264471z m430.381177-166.912H276.118588v52.705883h509.470118v-52.705883z m-149.293177-175.676235h-210.823529l-3.312941 0.180706a26.352941 26.352941 0 0 0 0 52.314353l3.312941 0.210823h210.823529l3.312941-0.210823a26.352941 26.352941 0 0 0-3.312941-52.495059z" fill="#568af2" /></svg>