<svg class="icon" style="width: 1em;height: 1em;vertical-align: middle;fill: currentColor;overflow: hidden;" viewBox="0 0 1024 1024" version="1.1" xmlns="http://www.w3.org/2000/svg" width="32" height="32"><path d="M263.529412 184.470588c13.432471 0 24.515765 10.059294 26.142117 23.04l0.210824 3.312941v131.764706H421.647059a26.352941 26.352941 0 0 1 3.312941 52.495059l-3.312941 0.210824H289.882353v52.705882h166.912c23.642353 0 34.816 28.310588 19.094588 44.513882l-2.409412 2.228706-183.597176 150.196706v31.442824h26.352941c13.432471 0 24.515765 10.059294 26.142118 23.070117l0.210823 3.312941V843.294118a26.352941 26.352941 0 0 1-23.04 26.142117l-3.312941 0.210824H210.823529a26.352941 26.352941 0 0 1-26.142117-23.04L184.470588 843.294118v-140.559059c0-13.432471 10.059294-24.515765 23.04-26.142118l3.312941-0.210823h26.352942V210.823529c0-14.546824 11.806118-26.352941 26.352941-26.352941z m527.058823 0c13.432471 0 24.515765 10.059294 26.142118 23.04l0.210823 3.312941v465.558589H843.294118c13.432471 0 24.515765 10.059294 26.142117 23.070117l0.210824 3.312941V843.294118a26.352941 26.352941 0 0 1-23.04 26.142117l-3.312941 0.210824h-105.411765a26.352941 26.352941 0 0 1-26.142118-23.04l-0.210823-3.312941v-140.559059c0-13.432471 10.059294-24.515765 23.04-26.142118l3.312941-0.210823h26.352941v-31.412706l-183.597176-150.226824c-18.281412-14.968471-9.035294-43.971765 13.402353-46.561882l3.312941-0.180706h166.881882v-52.705882H632.470588a26.352941 26.352941 0 0 1-3.312941-52.495059l3.312941-0.210824h131.764706V210.823529c0-14.546824 11.806118-26.352941 26.352941-26.352941z m-263.529411 140.559059c13.432471 0 24.515765 10.029176 26.142117 23.04l0.210824 3.312941v52.705883a26.352941 26.352941 0 0 1-52.495059 3.312941l-0.210824-3.312941v-52.705883c0-14.576941 11.806118-26.352941 26.352942-26.352941z m0-140.559059c13.432471 0 24.515765 10.059294 26.142117 23.04l0.210824 3.312941v35.147295a26.352941 26.352941 0 0 1-52.495059 3.312941l-0.210824-3.312941V210.823529c0-14.546824 11.806118-26.352941 26.352942-26.352941z m0 351.382588c13.432471 0 24.515765 10.029176 26.142117 23.04l0.210824 3.312942V632.470588a26.352941 26.352941 0 0 1-52.495059 3.312941l-0.210824-3.312941v-70.26447c0-14.576941 11.806118-26.352941 26.352942-26.352942z m0 210.82353c13.432471 0 24.515765 10.029176 26.142117 23.04l0.210824 3.312941V843.294118a26.352941 26.352941 0 0 1-52.495059 3.312941l-0.210824-3.312941v-70.264471c0-14.576941 11.806118-26.352941 26.352942-26.352941z" fill="#568af2" /></svg>