<svg class="icon" style="width: 1em;height: 1em;vertical-align: middle;fill: currentColor;overflow: hidden;" viewBox="0 0 1024 1024" version="1.1" xmlns="http://www.w3.org/2000/svg" width="32" height="32"><path d="M675.147294 124.235294c32.406588 0 58.970353 25.088 61.31953 56.922353l0.150588 4.577882v421.647059a61.500235 61.500235 0 0 1-56.892236 61.31953l-4.577882 0.150588h-10.089412l86.347294 172.694588a26.352941 26.352941 0 0 1-45.477647 26.443294l-1.65647-2.861176-98.123294-196.276706H392.734118l-98.093177 196.276706a26.352941 26.352941 0 0 1-48.459294-20.540236l1.295059-3.041882 86.347294-172.694588h-10.059294a61.500235 61.500235 0 0 1-61.31953-56.892235l-0.180705-4.577883v-421.647059c0-32.436706 25.088-58.970353 56.922353-61.319529l4.577882-0.180706h351.382588z m-70.294588 702.735059a26.352941 26.352941 0 0 1 3.312941 52.525176l-3.312941 0.180706h-210.82353a26.352941 26.352941 0 0 1-3.312941-52.495059l3.312941-0.210823h210.82353z m-52.705882-105.411765a26.352941 26.352941 0 0 1 3.312941 52.525177l-3.312941 0.180706h-105.411765a26.352941 26.352941 0 0 1-3.312941-52.495059l3.312941-0.210824h105.411765z m-158.117648-219.587764a35.147294 35.147294 0 1 0 0 70.26447 35.147294 35.147294 0 0 0 0-70.26447z m210.82353 0a35.147294 35.147294 0 1 0 0 70.26447 35.147294 35.147294 0 0 0 0-70.26447z m79.058823-96.64753h-368.941176v52.705882h368.941176v-52.705882z" fill="#568af2" /></svg>