<svg class="icon" style="width: 1em;height: 1em;vertical-align: middle;fill: currentColor;overflow: hidden;" viewBox="0 0 1024 1024" version="1.1" xmlns="http://www.w3.org/2000/svg" width="32" height="32"><path d="M835.764706 821.970824a26.352941 26.352941 0 0 1 3.312941 52.495058l-3.312941 0.210824H168.146824a26.352941 26.352941 0 0 1-3.312942-52.525177l3.312942-0.180705H835.764706zM422.881882 465.317647l-151.220706-27.497412-0.993882-1.445647a467.636706 467.636706 0 0 0-21.835294-28.732235l-9.637647-11.384471C208.082824 360.628706 172.152471 329.878588 150.588235 329.878588a26.352941 26.352941 0 0 0-26.352941 26.352941v175.856942c0 11.504941 7.499294 21.684706 18.492235 25.148235l75.173647 23.220706 54.422589 16.624941 81.01647 24.455529c13.432471 4.035765 26.804706 8.011294 40.116706 11.956706l54.693647 16.143059 74.812236 21.684706 43.941647 12.438588 49.78447 13.763765 35.599059 9.487059 31.804235 8.131764 21.293177 5.180236 12.950588 3.011764 11.986824 2.650353 10.962823 2.288942 14.516706 2.710588 8.372706 1.385412 7.348706 0.963764 6.324706 0.602353 5.210353 0.180706c14.336 0 27.798588-1.385412 43.068235-6.565647 32.165647-10.902588 53.549176-35.177412 53.549176-72.493176 0-18.672941-4.156235-35.930353-18.823529-54.422589l-3.97553-4.668235c-15.239529-16.745412-37.556706-29.274353-67.433411-36.743529l-146.82353-32.406589-97.882353-318.704941a26.352941 26.352941 0 0 0-13.43247-15.841882l-70.264471-35.147294A26.352941 26.352941 0 0 0 422.912 180.705882l-0.030118 284.641883z" fill="#568af2" /></svg>