<svg class="icon" style="width: 1em;height: 1em;vertical-align: middle;fill: currentColor;overflow: hidden;" viewBox="0 0 1024 1024" version="1.1" xmlns="http://www.w3.org/2000/svg" width="32" height="32"><path d="M400.353882 171.911529c76.137412 0 137.246118 64.873412 140.468706 145.167059l0.150588 6.716236-0.210823 391.107764c0 49.513412 39.454118 89.479529 87.883294 89.47953 46.742588 0 85.082353-37.165176 87.762824-84.208942l0.150588-5.270588-0.030118-119.235764-60.416 60.446117a26.352941 26.352941 0 0 1-34.544941 2.379294l-2.710588-2.379294a26.352941 26.352941 0 0 1-2.349177-34.544941l2.349177-2.710588 105.411764-105.411765a26.352941 26.352941 0 0 1 34.575059-2.349176l2.710589 2.349176 105.411764 105.411765a26.352941 26.352941 0 0 1-34.575059 39.634823l-2.710588-2.379294-60.446117-60.416v119.205647c0 78.456471-62.855529 142.185412-140.589177 142.185412-75.595294 0-137.095529-60.235294-140.438588-135.68l-0.150588-6.505412 0.210823-391.137882c0-55.265882-39.936-99.147294-87.913412-99.147294-46.290824 0-85.112471 40.899765-87.732706 93.485176l-0.150588 5.662118 0.030118 254.795294a133.360941 133.360941 0 0 1 66.349176 34.213647 124.687059 124.687059 0 0 1 39.032471 90.202353c0 42.706824-22.979765 82.913882-60.355765 120.591059-12.468706 12.528941-25.720471 23.943529-39.002353 34.032941l-1.957647 1.505882-1.897412 1.385412-6.836705 4.939294-7.55953 5.12a26.352941 26.352941 0 0 1-24.967529 1.807059l-3.312941-1.807059-4.698353-3.102117-6.144-4.336942-7.439059-5.511529c-13.281882-10.089412-26.533647-21.504-39.002353-34.032941-37.345882-37.647059-60.355765-77.884235-60.355765-120.591059a124.687059 124.687059 0 0 1 39.032471-90.202353 133.360941 133.360941 0 0 1 66.379294-34.213647v-254.795294c0-83.335529 62.343529-151.853176 140.589176-151.853177zM286.117647 672.617412a35.147294 35.147294 0 1 0 0 70.294588 35.147294 35.147294 0 0 0 0-70.294588zM742.912 154.352941c34.695529 0 68.035765 13.191529 92.732235 36.74353a124.687059 124.687059 0 0 1 39.032471 90.23247c0 39.454118-19.757176 76.950588-52.555294 112.429177a360.026353 360.026353 0 0 1-54.753883 48.097882l-7.469176 5.150118-2.409412 1.596235-3.764706 2.108235a26.352941 26.352941 0 0 1-24.997647-1.807059l-0.993882-0.662588-1.114353-0.722823-8.704-6.02353-7.439059-5.541647c-13.251765-10.089412-26.503529-21.504-38.972235-34.032941-37.376-37.647059-60.355765-77.884235-60.355765-120.591059a124.687059 124.687059 0 0 1 39.032471-90.202353 134.354824 134.354824 0 0 1 92.732235-36.773647z m0 96.617412a35.147294 35.147294 0 1 0 0 70.294588 35.147294 35.147294 0 0 0 0-70.294588z" fill="#568af2" /></svg>