<svg class="icon" style="width: 1em;height: 1em;vertical-align: middle;fill: currentColor;overflow: hidden;" viewBox="0 0 1024 1024" version="1.1" xmlns="http://www.w3.org/2000/svg" width="32" height="32"><path d="M527.058824 124.235294c13.432471 0 24.515765 10.059294 26.142117 23.04l0.210824 3.312941v43.91153h166.912c13.432471 0 24.515765 10.059294 26.142117 23.070117l0.210824 3.312942-0.060235 155.196235 105.472 37.376c12.950588 4.608 20.028235 18.251294 16.775529 31.232l-1.024 3.222588-93.696 239.344941a26.352941 26.352941 0 0 1-20.992 16.504471l-3.553882 0.240941H304.489412a26.352941 26.352941 0 0 1-23.009883-13.522824l-1.505882-3.222588-93.726118-239.344941a26.352941 26.352941 0 0 1 12.649412-33.129412l3.102118-1.325176 105.411765-37.345883V220.852706c0-13.432471 10.059294-24.515765 23.070117-26.142118l3.312941-0.210823h166.851765L500.736 150.588235c0-14.546824 11.806118-26.352941 26.352941-26.352941z m26.352941 239.344941v138.390589a26.352941 26.352941 0 0 1-52.495059 3.312941l-0.210824-3.312941v-138.390589l-255.457882 90.443294 77.221647 197.270589h409.148235l77.221647-197.270589-167.54447-59.331764-87.883294-31.11153z m-289.67153 399.661177a26.352941 26.352941 0 0 1 34.635294-0.060236l2.56 2.529883 41.622589 47.585882 41.682823-47.585882a26.352941 26.352941 0 0 1 37.104941-2.56l2.56 2.56 41.652706 47.585882 41.652706-47.585882a26.352941 26.352941 0 0 1 37.104941-2.56l2.590118 2.56 41.622588 47.585882 41.682824-47.585882a26.352941 26.352941 0 0 1 37.104941-2.56l2.56 2.56 41.652706 47.585882 41.652706-47.585882a26.352941 26.352941 0 0 1 34.334117-4.668235l2.861177 2.16847c10.029176 8.794353 11.806118 23.521882 4.638117 34.334118l-2.16847 2.861176-61.470118 70.294588a26.352941 26.352941 0 0 1-37.104941 2.529883l-2.590118-2.529883-41.652706-47.616-41.652705 47.585883a26.352941 26.352941 0 0 1-37.104942 2.56l-2.56-2.529883-41.652705-47.646117-41.652706 47.646117a26.352941 26.352941 0 0 1-37.104942 2.529883l-2.56-2.529883-41.682823-47.616-41.622588 47.585883a26.352941 26.352941 0 0 1-37.104941 2.56l-2.590118-2.529883-61.470118-70.294588a26.352941 26.352941 0 0 1 2.469647-37.195294z" fill="#568af2" /></svg>