<svg class="icon" style="width: 1em;height: 1em;vertical-align: middle;fill: currentColor;overflow: hidden;" viewBox="0 0 1024 1024" version="1.1" xmlns="http://www.w3.org/2000/svg" width="32" height="32"><path d="M501.970824 124.235294c208.594824 0 377.705412 169.110588 377.705411 377.73553 0 208.594824-169.110588 377.705412-377.705411 377.705411-208.624941 0-377.735529-169.110588-377.73553-377.705411 0-208.624941 169.110588-377.735529 377.73553-377.73553z m23.612235 172.724706c-9.938824-20.540235-41.020235-19.425882-48.609883 3.403294l-123.00047 368.941177-0.813177 3.011764-0.481882 2.95153c-2.198588 21.413647 22.588235 37.436235 41.622588 23.823059l107.640471-76.920471 107.670588 76.920471 2.650353 1.686588c20.359529 11.444706 45.417412-8.252235 37.677177-31.472941l-122.970353-368.941177z m-23.642353 95.051294l72.342588 217.057882-57.012706-40.719058-3.162353-1.92753-3.312941-1.445647a26.352941 26.352941 0 0 0-24.154353 3.373177l-57.042823 40.719058 72.342588-217.057882z" fill="#568af2" /></svg>