<svg class="icon" style="width: 1em;height: 1em;vertical-align: middle;fill: currentColor;overflow: hidden;" viewBox="0 0 1024 1024" version="1.1" xmlns="http://www.w3.org/2000/svg" width="32" height="32"><path d="M820.404706 628.705882c13.402353 0 24.485647 10.059294 26.112 23.04l0.210823 3.312942v70.26447a26.352941 26.352941 0 0 1-23.04 26.172235l-3.312941 0.180706h-243.83247l36.020706 45.025883a26.352941 26.352941 0 0 1-1.475765 34.635294l-2.650353 2.409412a26.352941 26.352941 0 0 1-34.635294-1.475765l-2.409412-2.620235-70.264471-87.853177a26.352941 26.352941 0 0 1 17.347765-42.616471l3.222588-0.210823h272.323765V655.058824c0-13.432471 10.059294-24.515765 23.04-26.142118l3.312941-0.210824z m-157.545412-115.742117l2.409412 2.650353 70.26447 87.853176a26.352941 26.352941 0 0 1-17.317647 42.616471l-3.252705 0.180706h-272.323765v43.941647a26.352941 26.352941 0 0 1-23.04 26.142117l-3.312941 0.210824a26.352941 26.352941 0 0 1-26.142118-23.070118l-0.210824-3.312941v-70.264471c0-13.432471 10.059294-24.515765 23.070118-26.142117l3.312941-0.210824h243.802353l-35.990588-45.025882a26.352941 26.352941 0 0 1 1.445647-34.635294l2.650353-2.409412a26.352941 26.352941 0 0 1 34.635294 1.505882z m36.894118-358.520471l3.373176 0.542118 158.117647 35.147294c21.895529 4.848941 27.708235 32.647529 10.992941 46.08l-2.800941 2.017882-83.606588 51.892706-409.419294 253.409882-101.918118 62.253177-7.890823 4.397176c-62.162824 31.623529-133.511529-13.643294-141.342118-82.522353-1.776941-15.570824-1.204706-33.731765 1.234824-54.151529 1.807059-15.299765 4.668235-31.442824 8.222117-47.917176 1.505882-6.957176 3.041882-13.703529 4.638118-20.178824l2.409412-9.396706 3.312941-11.956706a26.352941 26.352941 0 0 1 41.321412-13.462588l2.590117 2.288941 55.536941 55.536941 62.614589-38.52047-102.701177-102.701177a26.352941 26.352941 0 0 1 2.590118-39.574588l2.831059-1.897412L259.011765 217.359059a26.352941 26.352941 0 0 1 12.649411-3.523765l3.312942 0.120471 267.083294 28.400941a26.563765 26.563765 0 0 1 3.764706 0.662588l137.788235-84.751059c4.848941-3.011765 10.541176-4.306824 16.143059-3.824941zM277.985882 267.264l-12.016941 6.927059 87.311059 87.311059 119.536941-73.547294-194.831059-20.690824z" fill="#568af2" /></svg>