<svg class="icon" style="width: 1em;height: 1em;vertical-align: middle;fill: currentColor;overflow: hidden;" viewBox="0 0 1024 1024" version="1.1" xmlns="http://www.w3.org/2000/svg" width="32" height="32"><path d="M414.117647 586.029176c91.316706 0 166.912 28.340706 166.912 79.058824 0 50.718118-75.595294 79.058824-166.912 79.058824a26.352941 26.352941 0 0 1-26.352941-26.352942v-105.411764c0-14.546824 11.806118-26.352941 26.352941-26.352942zM783.058824 304.941176a26.352941 26.352941 0 0 1 25.238588 33.912471l-42.526118 141.763765h87.552c22.377412 0 34.093176 25.750588 20.811294 42.556235l-2.16847 2.439529-140.559059 140.559059a26.352941 26.352941 0 0 1-15.149177 7.469177l-3.463529 0.240941h-61.500235a26.352941 26.352941 0 0 1-3.312942-52.495059l3.312942-0.210823h50.537411l87.853177-87.853177H273.558588c-4.547765 0-9.035294 1.204706-12.950588 3.433412l-2.861176 1.837176-57.404236 43.068236 72.432941 36.683294c2.740706 1.385412 5.722353 2.288941 8.794353 2.650353l3.102118 0.180706h24.033882a26.352941 26.352941 0 0 1 3.312942 52.495058l-3.312942 0.210824h-24.033882c-10.360471 0-20.570353-2.017882-30.087529-5.933177l-5.632-2.590117-110.260706-55.808a26.352941 26.352941 0 0 1-6.625883-42.255059l2.710589-2.349176 91.346823-68.517648c11.986824-8.975059 26.202353-14.336 41.050353-15.540705l6.384941-0.271059h187.632941l148.570353-66.017883 101.948236-101.948235a26.352941 26.352941 0 0 1 15.179294-7.469176l3.463529-0.240942z" fill="#568af2" /></svg>