<svg class="icon" style="width: 1em;height: 1em;vertical-align: middle;fill: currentColor;overflow: hidden;" viewBox="0 0 1024 1024" version="1.1" xmlns="http://www.w3.org/2000/svg" width="32" height="32"><path d="M301.176471 150.588235c0-33.430588 49.242353-35.870118 52.585411-2.620235l0.722824 7.529412 482.544941 93.364706c24.847059 4.788706 28.822588 37.797647 7.619765 49.031529l-3.192471 1.445647-455.168 174.200471 37.737412 377.163294c2.258824 22.497882-18.672941 32.707765-34.816 27.798588a22.136471 22.136471 0 0 1-4.427294 0.993882l-3.312941 0.180706H240.941176a26.352941 26.352941 0 0 1-3.312941-52.495059l3.312941-0.210823h127.578353L331.023059 470.136471a26.081882 26.081882 0 0 1-2.590118-7.04753l-0.451765-3.19247-10.089411-114.898824L301.176471 185.735529z" fill="#568af2" /></svg>