<svg class="icon" style="width: 1em;height: 1em;vertical-align: middle;fill: currentColor;overflow: hidden;" viewBox="0 0 1024 1024" version="1.1" xmlns="http://www.w3.org/2000/svg" width="32" height="32"><path d="M501.970824 124.235294c208.594824 0 377.705412 169.110588 377.705411 377.73553 0 205.522824-164.141176 372.736-368.549647 377.615058l-9.155764 0.090353c-208.624941 0-377.735529-169.110588-377.73553-377.705411 0-208.624941 169.110588-377.735529 377.73553-377.73553zM223.292235 615.243294l-9.487059 3.734588-8.131764 3.343059-4.848941 2.138353c6.686118 16.414118 14.667294 32.165647 23.823058 47.104l5.300706-2.228706 12.709647-5.059764c56.801882-21.835294 97.430588-26.383059 120.832-16.052706 13.824 6.113882 20.570353 13.221647 24.335059 23.702588l1.174588 3.614118 0.933647 3.674352 0.210824 0.90353 0.210824 0.993882 1.204705 7.348706 1.024 7.378824 1.626353 10.691764c2.529882 14.546824 5.993412 22.859294 14.576942 31.834353 8.613647 9.035294 16.474353 13.251765 32.37647 19.064471l5.601882 2.017882 10.149648 3.674353 3.975529 1.686588c3.614118 1.746824 3.975529 2.891294 3.975529 4.969412 0 15.36-4.367059 33.129412-13.342117 53.308235 16.414118 2.56 33.28 3.915294 50.447059 3.915295l4.758588-0.060236c7.168-20.028235 10.842353-39.062588 10.842353-57.163294 0-32.346353-15.149176-45.839059-47.465412-57.946353l-5.541647-2.017882-7.017412-2.529882-6.535529-2.710589-0.783059-0.361411-0.662588-0.361412-2.017883-1.264941-0.602353-0.602353-1.204706-6.836706-2.770823-19.124706-1.114353-6.144-0.301176-1.41553-0.301177-1.415529-1.505882-5.782588c-7.710118-27.226353-24.756706-47.917176-54.994824-61.259294-39.002353-17.227294-92.461176-11.324235-161.430588 15.239529z m446.765177-391.529412l-2.017883 1.837177c-37.044706 34.153412-63.247059 62.735059-78.817882 86.196706-24.696471 37.255529-26.985412 71.378824 4.818824 90.473411 21.082353 12.709647 40.146824 15.962353 61.319529 12.438589l5.842824-1.114353 2.831058-0.632471 20.449883-5.601882c15.179294-3.915294 24.606118-4.517647 37.978353-1.837177 10.782118 2.168471 16.353882 8.583529 17.468235 18.432l0.210823 3.403294-0.090352 3.072a29.424941 29.424941 0 0 1-1.024 5.601883l-0.813177 2.379294-0.542118 1.024-25.991529-1.204706a434.718118 434.718118 0 0 0-56.018824 0.903529c-71.619765 6.294588-117.850353 35.358118-112.459294 97.882353 3.584 41.261176 20.540235 69.993412 51.410824 98.785883l6.384941 5.782588 26.172235 22.528c10.752 9.908706 14.336 15.691294 14.336 20.992 0 13.854118-5.029647 33.129412-15.179294 57.374118l-3.222588 7.408941-6.625882 14.396235a745.411765 745.411765 0 0 1-27.376942 50.898824c27.286588-7.529412 53.127529-18.582588 77.040942-32.617412 18.672941-39.544471 28.069647-71.770353 28.069647-97.460706 0-23.371294-10.812235-40.839529-31.322353-59.753412l-0.90353-0.813176-1.114353-0.993883-23.823058-20.48-6.505412-5.842823c-22.076235-20.570353-32.557176-38.550588-34.816-64.722824-2.078118-24.094118 18.070588-36.743529 64.542117-40.839529 15.36-1.325176 30.72-1.475765 49.784471-0.752941l9.848471 0.451764 10.330353 0.512 11.685647 0.39153c70.324706 0 68.577882-122.789647-9.035294-138.420706-24.907294-4.999529-42.586353-3.011765-68.788706 4.457412l-1.807059 0.512-1.596235 0.451764-9.637648 2.590118-5.12 0.993882a29.997176 29.997176 0 0 1-17.227294-1.867294l-3.614117-1.686588-1.144471-0.63247 0.210824-0.662589a75.294118 75.294118 0 0 1 9.005176-17.106823c13.010824-19.636706 37.044706-45.718588 71.860706-77.70353l7.649882-6.927058 0.963765-0.90353c-13.583059-11.655529-28.16-22.256941-43.580235-31.593412z m-219.045647-42.827294a323.463529 323.463529 0 0 0-128.301177 49.904941l0.150588-0.030117 18.371765-1.385412 17.167059-0.933647 16.022588-0.512c6.866824-0.120471 13.372235-0.150588 19.546353 0l9.005177 0.240941 12.559058 0.722824c50.055529 3.794824 71.198118 17.679059 69.12 37.767529-1.867294 17.859765-4.999529 23.009882-22.497882 27.467294l-3.975529 0.933647-24.45553 5.089883c-36.141176 8.613647-58.428235 24.696471-71.258353 61.199058-12.438588 35.328-4.517647 61.650824 18.703059 92.702118l4.276706 5.541647 10.661647 13.552941 3.644235 4.939294 0.90353 1.445647 1.295059 2.710589 0.421647 0.692706-0.632471 1.054117c-2.349176 3.252706-8.011294 8.131765-17.889882 14.155294-18.763294 11.414588-28.551529 12.257882-35.568941 7.860706a34.906353 34.906353 0 0 1-8.734118-8.342588l-2.349177-3.162353-4.186352-6.415059-4.638118-8.011294a376.139294 376.139294 0 0 1-3.433412-6.324706l-1.807059-3.463529-7.649882-14.607059c-11.264-20.931765-19.335529-32.075294-32.105412-41.170824-24.094118-17.136941-54.603294-20.389647-91.105882-11.38447a321.746824 321.746824 0 0 0-12.980706 59.542588c35.659294-14.215529 59.904-14.908235 73.547294-5.180235 4.276706 3.011765 9.095529 9.878588 16.715294 24.094117l2.650353 4.99953 7.68 14.667294c13.673412 25.509647 23.792941 39.002353 40.417882 49.423059 25.780706 16.143059 56.500706 13.462588 90.955295-7.529412 38.821647-23.612235 52.705882-51.290353 38.821647-82.371765a87.341176 87.341176 0 0 0-7.951059-13.914353l-3.46353-4.879058-15.420235-19.666824c-13.402353-17.92-16.323765-28.491294-11.053176-43.489882 5.872941-16.685176 13.763765-22.738824 33.852235-27.437177l4.848941-1.054117 13.763765-2.770824c45.628235-9.818353 67.343059-27.105882 72.402823-75.414588 5.270588-50.537412-24.997647-79.872-86.046117-91.256471z" fill="#568af2" /></svg>