<svg class="icon" style="width: 1em;height: 1em;vertical-align: middle;fill: currentColor;overflow: hidden;" viewBox="0 0 1024 1024" version="1.1" xmlns="http://www.w3.org/2000/svg" width="32" height="32"><path d="M885.639529 219.136l-4.005647 11.143529-3.102117 7.981177-1.807059 4.547765a864.075294 864.075294 0 0 1-27.105882 60.235294 983.823059 983.823059 0 0 1-58.669177 102.701176 288.436706 288.436706 0 0 1 39.303529 145.769412c0 143.329882-103.966118 262.324706-240.579764 285.726118a25.901176 25.901176 0 0 1-22.196706 2.951529 288.828235 288.828235 0 0 1-220.190118-72.402824c-86.799059 32.256-151.461647 26.021647-181.308235-27.76847-34.846118-62.735059 14.817882-151.401412 84.540235-204.890353a25.208471 25.208471 0 0 1 0.752941-7.589647l-0.301176 7.258353a289.882353 289.882353 0 0 1 506.729412-175.073883 912.745412 912.745412 0 0 0 44.66447-80.022588l7.770353-16.082823 3.614118-7.800471 2.650353-5.963294-40.83953 10.902588a26.352941 26.352941 0 0 1-31.201882-15.510588l-1.054118-3.162353a26.352941 26.352941 0 0 1 15.540706-31.201882l3.132236-1.054118 91.858823-24.455529a26.352941 26.352941 0 0 1 31.804235 33.761882z m-128.843294 235.309176l-11.38447 14.908236c-4.156235 5.360941-8.432941 10.661647-12.709647 15.962353a801.882353 801.882353 0 0 1-123.301647 122.036706l-19.305412 15.058823-19.094588 14.456471-9.456942 7.017411-18.733176 13.552942c-6.174118 4.427294-12.348235 8.734118-18.432 12.950588l-18.191059 12.348235-8.975059 5.903059-17.769411 11.384471-17.408 10.721882-17.106824 10.059294-16.775529 9.396706c-5.511529 3.011765-10.992941 5.933176-16.414118 8.734118l-10.059294 5.029647a236.122353 236.122353 0 0 0 151.491765 44.423529 276.961882 276.961882 0 0 1 28.762352-75.776 210.823529 210.823529 0 0 1 46.682353-58.127059 227.448471 227.448471 0 0 1 39.273412-26.955294c38.309647-20.871529 76.197647-29.635765 105.502118-31.623529 2.710588-14.366118 4.156235-29.214118 4.156235-44.363294 0-34.605176-7.408941-67.463529-20.751059-97.099295zM254.945882 602.443294l-2.831058 3.011765c-34.153412 37.737412-54.302118 83.365647-40.056471 108.965647 12.619294 22.768941 46.712471 26.051765 96.225882 10.842353a288.256 288.256 0 0 1-53.338353-122.819765z m285.424942-288.075294a240.941176 240.941176 0 0 0-13.643295 0.391529c19.937882 20.178824 30.629647 43.670588 28.611765 70.836706-1.264941 17.618824-7.077647 29.334588-18.401882 42.496l-8.704 9.637647-2.409412 2.95153a10.330353 10.330353 0 0 0-1.174588 1.807059l-0.210824 0.602353 0.783059 2.469647 0.903529 3.855058c7.981176 33.310118 0.361412 57.524706-37.104941 82.522353-49.543529 33.039059-122.940235 53.217882-184.922353 39.755294l-0.602353-9.577411a235.580235 235.580235 0 0 0 56.259765 143.149176c5.752471-2.620235 11.625412-5.421176 17.618824-8.402823l15.119058-7.710118c7.649882-4.035765 15.510588-8.342588 23.552-12.920471l16.26353-9.487058c5.511529-3.252706 11.083294-6.656 16.715294-10.179765l17.167059-10.842353 17.52847-11.595294 17.92-12.257883 18.281412-12.950588 18.612706-13.613176 18.974118-14.305883 19.215059-14.998588a749.387294 749.387294 0 0 0 115.169882-114.085647 868.894118 868.894118 0 0 0 35.388235-46.381176 236.815059 236.815059 0 0 0-186.910117-91.166118z" fill="#568af2" /></svg>