<svg class="icon" style="width: 1em;height: 1em;vertical-align: middle;fill: currentColor;overflow: hidden;" viewBox="0 0 1024 1024" version="1.1" xmlns="http://www.w3.org/2000/svg" width="32" height="32"><path d="M826.970353 124.235294c32.436706 0 58.970353 25.088 61.319529 56.922353l0.180706 4.577882v562.176a61.500235 61.500235 0 0 1-56.922353 61.31953l-4.577882 0.180706h-8.794353v43.911529a26.352941 26.352941 0 0 1-23.04 26.172235l-3.312941 0.180706h-140.528941a26.352941 26.352941 0 0 1-26.142118-23.04l-0.210824-3.312941v-43.911529h-228.412235v43.911529a26.352941 26.352941 0 0 1-23.04 26.172235l-3.312941 0.180706H229.677176a26.352941 26.352941 0 0 1-26.142117-23.04l-0.210824-3.312941v-43.911529h-8.794353a61.500235 61.500235 0 0 1-61.319529-56.922353l-0.150588-4.577883V185.735529c0-32.436706 25.088-58.970353 56.892235-61.319529l4.577882-0.180706h632.470589z m-483.147294 685.176471H256v17.558588h87.823059v-17.558588z m421.647059 0H677.647059v17.558588h87.823059v-17.558588z m-465.558589-158.117647H264.794353l-3.312941 0.210823a26.352941 26.352941 0 0 0 0 52.284235l3.312941 0.210824h35.117176l3.312942-0.210824a26.352941 26.352941 0 0 0-3.312942-52.495058z m298.676706 0h-175.676235l-3.312941 0.210823a26.352941 26.352941 0 0 0 0 52.284235l3.312941 0.210824h175.676235l3.312941-0.210824a26.352941 26.352941 0 0 0-3.312941-52.495058z m158.117647 0h-35.147294l-3.312941 0.210823a26.352941 26.352941 0 0 0 0 52.284235l3.312941 0.210824h35.147294l3.312942-0.210824a26.352941 26.352941 0 0 0-3.312942-52.495058z m79.058824-158.117647H185.735529v52.705882H835.764706v-52.705882z m-272.323765-158.117647h-105.411765l-3.312941 0.210823a26.352941 26.352941 0 0 0 0 52.284235l3.312941 0.210824h105.411765l3.312941-0.210824a26.352941 26.352941 0 0 0-3.312941-52.495058z m263.529412-158.117648h-632.470588c-4.035765 0-7.439059 0.301176-8.432941 0.662589l-0.331295 0.240941v51.802353H835.764706v-51.802353c0-0.481882-3.915294-0.903529-8.794353-0.90353z" fill="#568af2" /></svg>