<svg class="icon" style="width: 1em;height: 1em;vertical-align: middle;fill: currentColor;overflow: hidden;" viewBox="0 0 1024 1024" version="1.1" xmlns="http://www.w3.org/2000/svg" width="32" height="32"><path d="M909.793882 843.294118a26.352941 26.352941 0 0 1-23.04 26.142117l-3.312941 0.210824H180.705882a26.352941 26.352941 0 0 1-26.142117-23.04L154.352941 843.294118V210.823529c0-14.546824 11.806118-26.352941 26.352941-26.352941h140.559059c14.546824 0 26.352941 11.806118 26.352941 26.352941l-0.030117 79.058824h368.941176V210.823529c0-13.432471 10.059294-24.515765 23.070118-26.142117l3.312941-0.210824h140.528941c14.576941 0 26.352941 11.806118 26.352941 26.352941v632.470589zM338.823529 395.294118a26.352941 26.352941 0 0 0-26.142117 23.04l-0.210824 3.312941v26.352941H286.117647l-3.312941 0.210824a26.352941 26.352941 0 0 0 0 52.284235l3.312941 0.210823h26.352941v26.352942l0.210824 3.312941a26.352941 26.352941 0 0 0 52.284235 0l0.210824-3.312941v-26.352942H391.529412l3.312941-0.210823a26.352941 26.352941 0 0 0 0-52.284235l-3.312941-0.210824h-26.352941V421.647059l-0.210824-3.312941a26.352941 26.352941 0 0 0-26.142118-23.04z m439.205647 52.705882h-105.411764l-3.312941 0.210824a26.352941 26.352941 0 0 0 0 52.284235l3.312941 0.210823h105.411764l3.312942-0.210823a26.352941 26.352941 0 0 0-3.312942-52.495059z" fill="#568af2" /></svg>