<svg class="icon" style="width: 1em;height: 1em;vertical-align: middle;fill: currentColor;overflow: hidden;" viewBox="0 0 1024 1024" version="1.1" xmlns="http://www.w3.org/2000/svg" width="32" height="32"><path d="M567.205647 124.235294a79.058824 79.058824 0 0 1 78.908235 74.059294l0.150589 4.99953v61.470117h114.206117c13.432471 0 24.515765 10.059294 26.142118 23.070118l0.210823 3.312941V484.894118l71.04753 27.648a26.352941 26.352941 0 0 1 16.323765 29.515294l-0.90353 3.373176-92.400941 277.232941 9.818353-2.017882c11.715765-2.650353 23.973647-6.023529 36.502588-9.999059 7.770353-2.469647 15.329882-5.029647 22.528-7.649882l14.034824-5.240471 9.276235-3.764706a26.352941 26.352941 0 0 1 20.781176 48.429177l-10.812235 4.367059a638.945882 638.945882 0 0 1-39.936 14.095059 476.16 476.16 0 0 1-54.031059 13.94447 268.739765 268.739765 0 0 1-37.526588 4.668235l-7.348706 0.180706h-1.264941c-33.972706 0-57.012706-3.493647-93.304471-13.191529l-36.864-10.24c-2.710588-0.752941-5.360941-1.415529-7.890823-2.078118l-14.426353-3.463529a250.217412 250.217412 0 0 0-58.337882-6.144c-21.594353 0-37.827765 1.656471-58.368 6.144l-14.426353 3.463529c-2.529882 0.662588-5.150118 1.325176-7.860706 2.078118l-36.894118 10.24c-36.291765 9.697882-59.331765 13.191529-93.274353 13.191529h-1.234823-0.030118 1.264941c-14.095059 0-29.515294-1.686588-46.170353-4.848941a476.16 476.16 0 0 1-54.031059-13.94447 640.271059 640.271059 0 0 1-36.080941-12.589177l-12.679529-5.029647a26.352941 26.352941 0 1 1 18.793412-49.272471l9.306353 3.764706 3.463529 1.325177c10.24 3.915294 21.443765 7.890824 33.069176 11.565176a429.778824 429.778824 0 0 0 46.320942 12.047059L190.855529 545.430588a26.352941 26.352941 0 0 1 12.288-31.442823l3.162353-1.445647 71.017412-27.648V291.147294c0-13.432471 10.059294-24.545882 23.070118-26.172235l3.312941-0.180706 114.145882-0.030118 0.030118-61.470117a79.058824 79.058824 0 0 1 74.059294-78.908236l4.999529-0.150588h70.264471z m-61.500235 328.342588l-256.963765 99.960471 91.346824 273.92c13.251765-0.783059 25.359059-2.529882 39.514353-5.632l14.426352-3.463529 16.323765-4.367059 9.065412-2.56c36.743529-10.511059 59.873882-15.781647 86.287059-17.709177V452.577882z m52.705882 0l0.060235 340.148706c21.443765 1.566118 40.719059 5.330824 66.891295 12.348236l36.894117 10.24 7.860706 2.048 14.456471 3.463529c14.155294 3.102118 26.232471 4.848941 39.454117 5.632l91.346824-273.92-256.963765-99.960471z m8.794353-275.636706H496.941176a26.352941 26.352941 0 0 0-26.142117 23.04l-0.210824 3.312942v61.470117h122.970353V203.294118a26.352941 26.352941 0 0 0-19.877647-25.539765l-3.162353-0.602353-3.312941-0.210824z" fill="#568af2" /></svg>