<svg class="icon" style="width: 1em;height: 1em;vertical-align: middle;fill: currentColor;overflow: hidden;" viewBox="0 0 1024 1024" version="1.1" xmlns="http://www.w3.org/2000/svg" width="32" height="32"><path d="M837.330824 777.758118a26.352941 26.352941 0 0 1 3.312941 52.495058l-3.312941 0.210824H169.712941a26.352941 26.352941 0 0 1-3.312941-52.495059l3.312941-0.210823h667.617883zM306.537412 188.867765l-3.373177 0.391529a26.352941 26.352941 0 0 0-17.889882 39.092706l129.957647 225.039059-130.258824 46.622117-1.686588-0.783058c-4.216471-1.957647-8.553412-3.885176-12.980706-5.752471l-13.643294-5.511529c-46.230588-17.799529-99.026824-29.545412-119.265882-17.889883a26.352941 26.352941 0 0 0-9.637647 35.990589l81.046588 140.378352c5.782588 9.999059 17.347765 15.058824 28.611765 12.528942l92.431059-21.082353 34.635294-8.041412 68.758588-16.143059 67.222588-16.052706 37.25553-9.035294 70.686117-17.558588 54.272-13.854118 47.284706-12.619294 24.937412-6.927059 22.317176-6.445176 19.696942-5.993412 16.986352-5.481412 9.818353-3.403294 8.58353-3.19247 3.824941-1.505883 6.746353-2.891294c2.017882-0.903529 3.855059-1.807059 5.481412-2.650353l4.758588-2.710588 3.493647-2.168471c39.213176-25.298824 61.530353-61.680941 35.448471-106.827294a76.890353 76.890353 0 0 0-31.954824-31.35247l-4.969412-2.499765c-21.985882-10.059294-49.302588-11.264-81.618823-2.017882l-131.011765 41.441882-224.165647-208.414118a26.352941 26.352941 0 0 0-19.516235-7.017411l-72.282353 4.336941z" fill="#568af2" /></svg>