<svg class="icon" style="width: 1em;height: 1em;vertical-align: middle;fill: currentColor;overflow: hidden;" viewBox="0 0 1024 1024" version="1.1" xmlns="http://www.w3.org/2000/svg" width="32" height="32"><path d="M408.154353 312.470588c4.367059 0 8.613647 1.084235 12.438588 3.102118l2.740706 1.716706 192.391529 135.710117h132.216471c3.674353 0 7.318588 0.813176 10.631529 2.258824l3.252706 1.716706 2.95153 2.138353 105.411764 87.853176c18.070588 15.058824 8.734118 43.821176-13.552941 46.411294l-3.312941 0.180706h-235.550118l-217.268705 203.715765a26.352941 26.352941 0 0 1-14.034824 6.806588l-3.975529 0.301177h-56.229647a26.352941 26.352941 0 0 1-25.750589-31.924706l0.90353-3.252706 62.494117-175.646118H291.147294c-24.335059 0-47.073882-18.672941-74.962823-53.308235l-5.270589-6.625882c-9.155765-11.745882-18.672941-24.997647-28.461176-39.514353-9.938824-14.757647-19.847529-30.298353-29.364706-45.989647l-9.456941-15.75153-8.131765-13.94447-8.011294-14.21553a26.352941 26.352941 0 0 1 19.817412-38.851765L150.588235 365.176471h70.264471c4.939294 0 9.758118 1.385412 13.914353 3.945411l2.951529 2.168471 98.063059 81.709176h40.297412l-39.333647-104.929882a26.352941 26.352941 0 0 1 21.473882-35.418353l3.192471-0.180706h46.742588z m132.517647 281.088H419.84l-56.229647 158.117647h8.463059l168.658823-158.117647z m277.534118 87.853177a26.352941 26.352941 0 0 1 3.312941 52.495059l-3.312941 0.210823H677.647059a26.352941 26.352941 0 0 1-3.312941-52.495059l3.312941-0.210823h140.559059z m-418.394353-316.235294h-0.361412l32.918588 87.823058h91.919059l-124.476235-87.823058z m366.08-210.82353c69.270588 0 113.031529 74.842353 90.051764 136.011294-8.222118 21.865412-24.033882 37.195294-44.333176 46.652236a111.405176 111.405176 0 0 1-46.110118 10.601411h-175.706353c-29.876706 0-36.683294-41.923765-8.31247-51.350588 5.481412-1.837176 14.336-5.300706 22.889412-9.577412a99.388235 99.388235 0 0 0 8.914823-4.969411l2.800941-1.957647v-8.914824l0.180706-5.421176c1.385412-25.178353 10.029176-44.604235 32.045177-55.597177 8.764235-4.367059 18.492235-6.535529 29.003294-7.107765 2.590118-0.120471 5.210353-0.150588 7.830588-0.090353l7.288471 0.361412 0.993882-2.499765 2.469647-5.300705c12.619294-25.057882 36.442353-40.839529 69.993412-40.83953z m-140.950589 650.029177a26.352941 26.352941 0 0 1 3.312942 52.525176l-3.312942 0.180706h-70.26447a26.352941 26.352941 0 0 1-3.312941-52.495059l3.312941-0.210823h70.26447z" fill="#568af2" /></svg>