<svg class="icon" style="width: 1em;height: 1em;vertical-align: middle;fill: currentColor;overflow: hidden;" viewBox="0 0 1024 1024" version="1.1" xmlns="http://www.w3.org/2000/svg" width="32" height="32"><path d="M439.205647 879.676235a26.352941 26.352941 0 0 1-3.312941-52.495059l3.312941-0.210823h61.500235v-175.676235H281.088a26.352941 26.352941 0 0 1-16.022588-5.421177l-2.590118-2.288941-70.294588-70.294588a26.352941 26.352941 0 0 1-2.349177-34.544941l2.349177-2.710589 70.294588-70.26447a26.352941 26.352941 0 0 1 15.149177-7.529412l3.463529-0.210824h219.617882v-70.26447H281.088a26.352941 26.352941 0 0 1-26.142118-23.04L254.735059 361.411765V220.852706c0-13.432471 10.059294-24.515765 23.070117-26.142118l3.312942-0.210823h219.587764V150.588235a26.352941 26.352941 0 0 1 52.495059-3.312941l0.210824 3.312941v43.91153h219.617882c5.812706 0 11.444706 1.927529 16.022588 5.421176l2.590118 2.319059 70.294588 70.264471c9.426824 9.426824 10.24 24.244706 2.349177 34.575058l-2.349177 2.710589-70.294588 70.26447a26.352941 26.352941 0 0 1-15.149177 7.469177l-3.463529 0.240941h-219.617882v70.26447h219.617882c13.432471 0 24.515765 10.059294 26.142118 23.070118l0.210823 3.312941v140.528941a26.352941 26.352941 0 0 1-23.070117 26.142118l-3.312942 0.210824h-219.587764v175.676235h61.500235a26.352941 26.352941 0 0 1 3.312941 52.525176l-3.312941 0.180706h-175.706353z" fill="#568af2" /></svg>