<svg class="icon" style="width: 1em;height: 1em;vertical-align: middle;fill: currentColor;overflow: hidden;" viewBox="0 0 1024 1024" version="1.1" xmlns="http://www.w3.org/2000/svg" width="32" height="32"><path d="M758.000941 660.690824c75.836235 22.768941 121.675294 55.265882 121.675294 99.779764 0 58.458353-87.04 100.984471-213.865411 120.259765l-18.853648 2.650353c-9.547294 1.264941-19.305412 2.379294-29.244235 3.343059l-20.118588 1.807059-20.570353 1.445647-10.420706 0.602353-21.202823 0.903529c-3.553882 0.150588-7.137882 0.240941-10.721883 0.331294l-21.744941 0.361412-10.962823 0.060235-10.992942-0.060235-21.714823-0.361412-10.752-0.301176-21.172706-0.933647-10.450824-0.602353-20.570353-1.445647-20.118588-1.807059c-9.938824-0.963765-19.696941-2.108235-29.214117-3.312941l-18.853647-2.680471c-126.825412-19.275294-213.895529-61.801412-213.89553-120.259765 0-44.513882 45.839059-77.010824 121.675294-99.779764a26.352941 26.352941 0 1 1 15.179294 50.477176c-55.115294 16.534588-84.148706 37.135059-84.148706 49.302588 0 12.167529 29.033412 32.768 84.148706 49.302588 62.825412 18.853647 148.841412 29.756235 240.880942 29.756236s178.055529-10.902588 240.880941-29.756236c55.085176-16.534588 84.118588-37.135059 84.118588-49.302588 0-12.167529-29.033412-32.768-84.118588-49.302588a26.352941 26.352941 0 0 1 15.149176-50.477176zM501.970824 154.352941c140.528941 0 254.735059 111.405176 254.735058 249.163294 0 83.817412-45.959529 165.918118-121.615058 243.952941a790.106353 790.106353 0 0 1-101.827765 88.124236l-6.264471 4.517647-2.800941 1.957647-7.830588 5.330823a26.352941 26.352941 0 0 1-25.419294 1.867295l-3.403294-1.867295-7.830589-5.330823-9.035294-6.475294-3.252706-2.349177-3.312941-2.469647-14.034823-10.661647a790.106353 790.106353 0 0 1-81.227294-72.643765c-75.685647-78.034824-121.645176-160.135529-121.645177-243.952941 0-137.758118 114.206118-249.163294 254.765177-249.163294z m0 140.559059a114.206118 114.206118 0 1 0 0 228.382118 114.206118 114.206118 0 0 0 0-228.382118z m0 52.705882a61.500235 61.500235 0 1 1 0 122.970353 61.500235 61.500235 0 0 1 0-122.970353z" fill="#568af2" /></svg>