<svg class="icon" style="width: 1em;height: 1em;vertical-align: middle;fill: currentColor;overflow: hidden;" viewBox="0 0 1024 1024" version="1.1" xmlns="http://www.w3.org/2000/svg" width="32" height="32"><path d="M574.735059 826.970353a26.352941 26.352941 0 0 1 3.312941 52.525176l-3.312941 0.180706h-140.528941a26.352941 26.352941 0 0 1-3.312942-52.495059l3.312942-0.210823h140.528941zM504.470588 124.235294c145.106824 0 284.792471 139.444706 289.731765 238.170353l0.150588 5.360941v239.616a166.851765 166.851765 0 0 1-87.823059 147.004236v63.819294a26.352941 26.352941 0 0 1-52.525176 3.312941l-0.210824-3.312941V772.216471a167.634824 167.634824 0 0 1-19.787294 1.927529l-6.565647 0.120471h-245.940706c-8.975059 0-17.769412-0.692706-26.352941-2.048v45.989647a26.352941 26.352941 0 0 1-52.525176 3.312941l-0.180706-3.312941-0.030118-63.819294a166.881882 166.881882 0 0 1-87.702588-140.468706l-0.120471-6.53553V367.736471c0-98.966588 142.125176-243.531294 289.882353-243.531295z m237.176471 333.793882H267.294118v149.353412a114.206118 114.206118 0 0 0 108.333176 114.025412l5.872941 0.150588h245.940706a114.206118 114.206118 0 0 0 114.05553-108.303059l0.150588-5.872941v-149.353412z m-325.029647 149.353412a35.147294 35.147294 0 1 1 0 70.264471 35.147294 35.147294 0 0 1 0-70.264471z m175.706353 0a35.147294 35.147294 0 1 1 0 70.264471 35.147294 35.147294 0 0 1 0-70.264471z m-52.705883-360.176941h-70.294588l-3.312941 0.210824a26.352941 26.352941 0 0 0 0 52.314353l3.312941 0.180705h70.294588l3.312942-0.180705a26.352941 26.352941 0 0 0-3.312942-52.525177z" fill="#568af2" /></svg>