<svg class="icon" style="width: 1em;height: 1em;vertical-align: middle;fill: currentColor;overflow: hidden;" viewBox="0 0 1024 1024" version="1.1" xmlns="http://www.w3.org/2000/svg" width="32" height="32"><path d="M261.029647 717.793882a35.147294 35.147294 0 1 1 0 70.294589 35.147294 35.147294 0 0 1 0-70.294589z m491.911529 0a35.147294 35.147294 0 1 1 0 70.294589 35.147294 35.147294 0 0 1 0-70.294589zM591.600941 248.079059l0.90353 0.301176a270.787765 270.787765 0 0 1 8.041411 2.770824l2.529883 0.963765 5.541647 2.138352 1.776941 0.752942 2.590118 1.054117a270.667294 270.667294 0 0 1 6.144 2.710589l0.783058 0.331294a271.058824 271.058824 0 0 1 32.707765 17.739294l0.331294 0.210823a272.715294 272.715294 0 0 1 44.604236 35.418353 271.661176 271.661176 0 0 1 81.739294 193.837177v0.662588a272.323765 272.323765 0 0 1-272.323765 272.323765l-0.572235-0.030118-7.439059-0.090353a271.450353 271.450353 0 0 1-186.277647-81.408l-0.210824-0.210823-0.843294-0.873412a273.859765 273.859765 0 0 1-34.575059-43.730824l-0.210823-0.331294a271.751529 271.751529 0 0 1-2.499765-4.035765l-1.656471-2.710588a216.154353 216.154353 0 0 1-6.625882-11.866353 305.603765 305.603765 0 0 1-6.204235-12.498823l2.108235 4.487529a270.757647 270.757647 0 0 1-9.84847-22.919529l-0.963765-2.590118a265.637647 265.637647 0 0 1-5.360941-16.203294l-0.240942-0.903529a270.848 270.848 0 0 1-4.758588-18.672942c0-0.210824-0.090353-0.421647-0.12047-0.662588l0.12047 0.692706a271.661176 271.661176 0 0 1-6.113882-57.765647 272.323765 272.323765 0 0 1 281.328941-272.143059l-9.035294-0.150588a275.787294 275.787294 0 0 1 38.339765 2.68047c0.240941 0 0.451765 0.060235 0.662588 0.090353 3.072 0.421647 6.144 0.903529 9.185882 1.475765l0.993883 0.180706c2.650353 0.481882 5.330824 0.993882 7.981176 1.566118l1.566118 0.361411c2.650353 0.572235 5.300706 1.204706 7.951059 1.867295l0.873411 0.210823c2.409412 0.602353 4.758588 1.264941 7.137883 1.927529l1.746823 0.512 0.90353 0.240942c2.409412 0.722824 4.879059 1.505882 7.28847 2.288941z m0.210824 314.398117c-16.685176 8.342588-21.925647 19.004235-26.322824 41.020236l-0.993882 5.270588-1.295059 6.896941-1.325176 5.842824a22.648471 22.648471 0 0 1-2.620236 6.625882l-0.63247 0.752941-1.897412 1.746824-0.963765 0.722823-2.620235 1.505883-7.649882 3.433411c-19.456 8.493176-29.726118 21.985882-29.726118 46.381177 0 17.197176 4.367059 30.629647 13.191529 42.827294a218.142118 218.142118 0 0 0 59.934118-14.697412l-6.987294-5.842823-4.638118-4.096c-4.969412-4.728471-7.318588-8.131765-8.282353-12.468706l-0.391529-2.710588-0.090353-1.957647 7.168-3.222589c8.975059-4.246588 13.071059-7.198118 20.208941-14.336 9.336471-9.336471 14.245647-19.817412 17.648941-33.91247l1.355294-6.264471 2.048-10.842353 1.264942-5.933176 1.897411 0.210823c11.294118 1.505882 38.460235 12.167529 63.397647 28.220236 10.480941-14.095059 19.275294-29.515294 26.202353-45.989648-43.158588-27.557647-92.220235-42.014118-117.88047-29.214117z m-57.675294-273.468235l-1.746824 2.95153a106.074353 106.074353 0 0 0-13.733647 59.51247c1.204706 18.913882 6.776471 30.479059 18.642824 44.513883l4.186352 4.818823 3.132236 3.523765c5.391059 6.264471 6.294588 8.734118 6.294588 14.817882 0 32.828235-31.382588 83.184941-61.048471 88.545882-10.962824 1.957647-19.215059-0.150588-31.141647-7.469176l-4.668235-3.011765-13.251765-8.82447-6.565647-3.915294a61.078588 61.078588 0 0 0-15.36-5.933177 46.381176 46.381176 0 0 0-33.942588 4.909177c-20.178824 11.354353-25.328941 25.027765-27.407059 52.585411l-0.391529 5.692236-0.783059 10.842353c-0.903529 8.673882-2.529882 13.552941-5.391059 16.865882-8.523294 9.938824-30.629647 11.384471-53.248 4.306823 6.505412 20.48 15.962353 39.785412 28.129883 57.464471 25.419294-0.120471 48.820706-8.432941 65.14447-27.467294 9.788235-11.444706 14.727529-24.154353 17.046588-39.695059l0.752942-5.963294 0.391529-4.457412 1.536-21.895529 10.691765 7.077647 9.095529 5.933176c22.467765 13.914353 42.526118 19.516235 68.668235 14.817883 58.337882-10.480941 104.448-84.540235 104.448-140.408471 0-20.781176-5.662118-33.28-18.371764-48.399059l-4.065883-4.638117-5.12-5.933177a18.160941 18.160941 0 0 1-4.818823-12.047059c-0.843294-13.643294 3.373176-25.901176 11.203764-36.773647 2.409412-3.343059 4.728471-6.083765 6.716236-8.131764a219.376941 219.376941 0 0 0-55.024941-14.185412zM752.941176 225.882353a35.147294 35.147294 0 1 1 0 70.264471A35.147294 35.147294 0 0 1 752.941176 225.882353z m-491.911529 0a35.147294 35.147294 0 1 1 0 70.264471 35.147294 35.147294 0 0 1 0-70.264471z m245.940706-35.147294a35.147294 35.147294 0 1 0 0-70.264471 35.147294 35.147294 0 0 0 0 70.264471z m0 702.765176a35.147294 35.147294 0 1 0 0-70.294588 35.147294 35.147294 0 0 0 0 70.294588zM858.352941 542.117647a35.147294 35.147294 0 1 0 0-70.264471 35.147294 35.147294 0 0 0 0 70.264471zM155.617882 542.117647a35.147294 35.147294 0 1 0 0-70.264471 35.147294 35.147294 0 0 0 0 70.264471z" fill="#568af2" /></svg>