<svg class="icon" style="width: 1em;height: 1em;vertical-align: middle;fill: currentColor;overflow: hidden;" viewBox="0 0 1024 1024" version="1.1" xmlns="http://www.w3.org/2000/svg" width="32" height="32"><path d="M188.656941 185.675294l3.102118 1.204706 114.085647 52.675765 0.090353 0.060235 103.54447 47.766588 235.218824-100.773647a26.352941 26.352941 0 0 1 17.950118-1.024l3.252705 1.204706a26.202353 26.202353 0 0 0-0.210823-0.090353l0.421647 0.210824 228.382118 105.411764a26.352941 26.352941 0 0 1 15.088941 20.540236l0.210823 3.373176V843.294118a26.352941 26.352941 0 0 1-34.273882 25.148235l-3.102118-1.204706-114.055529-52.675765-0.150588-0.060235-103.544471-47.796706-235.188706 100.803765-0.180706 0.090353a26.202353 26.202353 0 0 1-17.769411 0.933647l-3.312942-1.204706a26.232471 26.232471 0 0 0 0.361412 0.120471l-0.512-0.240942-16.805647-7.740235-97.40047-44.965647-0.120471-0.060235-114.085647-52.645647a26.352941 26.352941 0 0 1-15.058824-20.540236l-0.240941-3.373176V210.823529a26.352941 26.352941 0 0 1 34.304-25.148235z m194.078118 147.425882v468.992l26.74447 12.348236 25.961412-11.113412V333.613176l-15.962353 6.836706a26.352941 26.352941 0 0 1-17.950117 1.024l-3.46353-1.325176-15.329882-7.04753z m271.932235-93.455058l-25.961412 11.113411v469.714824l15.962353-6.806588a26.352941 26.352941 0 0 1 17.980236-1.024l3.463529 1.325176 15.299765 7.04753V251.994353l-26.744471-12.348235z" fill="#568af2" /></svg>