<svg class="icon" style="width: 1em;height: 1em;vertical-align: middle;fill: currentColor;overflow: hidden;" viewBox="0 0 1024 1024" version="1.1" xmlns="http://www.w3.org/2000/svg" width="32" height="32"><path d="M574.735059 826.970353a26.352941 26.352941 0 0 1 3.312941 52.525176l-3.312941 0.180706h-140.528941a26.352941 26.352941 0 0 1-3.312942-52.495059l3.312942-0.210823h140.528941zM504.470588 124.235294c111.314824 0 194.861176 19.576471 252.988236 48.730353 21.955765 10.992941 35.056941 32.858353 36.743529 57.344l0.150588 5.300706v477.184a61.500235 61.500235 0 0 1-56.922353 61.319529l-4.577882 0.150589h-26.352941v43.941647a26.352941 26.352941 0 0 1-52.495059 3.312941l-0.210824-3.312941v-43.941647h-298.676706v43.941647a26.352941 26.352941 0 0 1-52.495058 3.312941l-0.180706-3.312941-0.030118-43.941647h-26.322823A61.500235 61.500235 0 0 1 214.738824 717.402353l-0.180706-4.577882V235.610353c0-26.593882 13.372235-50.868706 36.894117-62.644706 58.127059-29.153882 141.673412-48.730353 252.988236-48.730353z m237.176471 439.205647H267.294118v149.353412c0 4.156235 2.891294 7.619765 6.77647 8.553412l2.017883 0.210823h456.764235a8.794353 8.794353 0 0 0 8.553412-6.746353l0.240941-2.017882v-149.353412z m-325.029647 43.941647a35.147294 35.147294 0 1 1 0 70.264471 35.147294 35.147294 0 0 1 0-70.264471z m175.706353 0a35.147294 35.147294 0 1 1 0 70.264471 35.147294 35.147294 0 0 1 0-70.264471z m-61.500236-289.91247h-52.705882v193.264941h52.705882v-193.264941z m-26.352941-140.528942c-103.152941 0-178.597647 17.679059-229.376 43.158589-4.035765 2.017882-6.896941 6.415059-7.619764 12.378353l-0.180706 3.132235v29.153882h474.352941v-29.153882c0-7.559529-3.102118-13.161412-7.800471-15.510588-50.808471-25.479529-126.223059-43.158588-229.376-43.158589z" fill="#568af2" /></svg>