<svg class="icon" style="width: 1em;height: 1em;vertical-align: middle;fill: currentColor;overflow: hidden;" viewBox="0 0 1024 1024" version="1.1" xmlns="http://www.w3.org/2000/svg" width="32" height="32"><path d="M818.206118 124.235294c33.942588 0 61.470118 27.527529 61.470117 61.500235v632.470589a61.500235 61.500235 0 0 1-61.470117 61.470117h-632.470589a61.500235 61.500235 0 0 1-61.500235-61.470117v-632.470589c0-33.972706 27.527529-61.500235 61.500235-61.500235z m-45.477647 403.998118a26.352941 26.352941 0 0 0-33.67153-15.962353L247.145412 687.977412l-3.041883 1.295059a26.352941 26.352941 0 0 0 20.781177 48.338823l393.84847-140.709647 46.953412 125.138824 1.355294 3.011764a26.352941 26.352941 0 0 0 47.977412-21.534117l-46.622118-124.325647 48.399059-17.28753 3.011765-1.295059a26.352941 26.352941 0 0 0 12.950588-32.37647z m0-122.970353a26.352941 26.352941 0 0 0-33.67153-15.962353L247.145412 564.976941l-3.041883 1.325177a26.352941 26.352941 0 0 0 20.781177 48.308706l491.911529-175.676236 3.011765-1.295059a26.352941 26.352941 0 0 0 12.950588-32.37647z m-440.71153-143.962353a26.352941 26.352941 0 0 0-47.977412 21.534118l48.248471 128.722823-85.142588 30.448941-3.041883 1.295059a26.352941 26.352941 0 0 0 20.781177 48.338824l491.911529-175.676236 3.011765-1.325176a26.352941 26.352941 0 0 0-20.751059-48.308706l-357.104941 127.488-48.579765-129.505882z" fill="#568af2" /></svg>