<svg class="icon" style="width: 1em;height: 1em;vertical-align: middle;fill: currentColor;overflow: hidden;" viewBox="0 0 1024 1024" version="1.1" xmlns="http://www.w3.org/2000/svg" width="32" height="32"><path d="M527.058824 154.352941c13.432471 0 24.515765 10.059294 26.142117 23.04l0.210824 3.312941v43.91153h246.753882c8.011294 0 15.540706 3.644235 20.48 9.788235l1.987765 2.800941 43.12847 70.264471a26.352941 26.352941 0 0 1 0 27.557647l-43.12847 70.294588a26.352941 26.352941 0 0 1-22.467765 12.559059h-246.753882v404.058353h114.206117a26.352941 26.352941 0 0 1 3.312942 52.525176l-3.312942 0.210824h-281.118117a26.352941 26.352941 0 0 1-3.312941-52.525177l3.312941-0.180705 114.206117-0.030118v-158.117647H253.952a26.352941 26.352941 0 0 1-20.48-9.758118l-1.987765-2.800941-43.12847-70.264471a26.352941 26.352941 0 0 1 0-27.557647l43.12847-70.294588a26.352941 26.352941 0 0 1 22.467765-12.559059l246.753882-0.030117V180.705882c0-14.546824 11.806118-26.352941 26.352942-26.352941z" fill="#568af2" /></svg>