<svg class="icon" style="width: 1em;height: 1em;vertical-align: middle;fill: currentColor;overflow: hidden;" viewBox="0 0 1024 1024" version="1.1" xmlns="http://www.w3.org/2000/svg" width="32" height="32"><path d="M800.617412 124.235294a79.058824 79.058824 0 0 1 79.058823 79.058824v597.323294a79.058824 79.058824 0 0 1-79.058823 79.058823H203.294118a79.058824 79.058824 0 0 1-79.058824-79.058823V203.294118A79.058824 79.058824 0 0 1 203.294118 124.235294z m-141.552941 140.559059l-3.312942 0.361412a26.352941 26.352941 0 0 0-21.684705 30.32847l70.294588 421.647059 0.752941 3.222588a26.352941 26.352941 0 0 0 51.230118-11.89647l-70.264471-421.647059-0.752941-3.222588a26.352941 26.352941 0 0 0-29.57553-18.432z m-296.628706 0a26.352941 26.352941 0 0 0-27.01553 21.985882l-70.26447 421.647059-0.361412 3.312941a26.352941 26.352941 0 0 0 52.344471 5.391059l70.26447-421.647059 0.331294-3.312941a26.352941 26.352941 0 0 0-21.985882-27.015529z m139.535059 351.352471a26.352941 26.352941 0 0 0-26.352942 26.352941v70.294588l0.180706 3.312941a26.352941 26.352941 0 0 0 52.525177-3.312941v-70.294588l-0.210824-3.312941a26.352941 26.352941 0 0 0-26.142117-23.04z m0-175.676236a26.352941 26.352941 0 0 0-26.352942 26.352941v70.264471l0.180706 3.312941a26.352941 26.352941 0 0 0 52.525177-3.312941V466.823529l-0.210824-3.312941a26.352941 26.352941 0 0 0-26.142117-23.04z m0-175.676235a26.352941 26.352941 0 0 0-26.352942 26.352941V361.411765l0.180706 3.312941a26.352941 26.352941 0 0 0 52.525177-3.312941V291.147294l-0.210824-3.312941a26.352941 26.352941 0 0 0-26.142117-23.04z" fill="#568af2" /></svg>