<svg class="icon" style="width: 1em;height: 1em;vertical-align: middle;fill: currentColor;overflow: hidden;" viewBox="0 0 1024 1024" version="1.1" xmlns="http://www.w3.org/2000/svg" width="32" height="32"><path d="M509.500235 238.441412c3.523765 0 7.047529 0.060235 10.541177 0.150588l-10.541177-0.150588a330.179765 330.179765 0 0 1 22.588236 0.752941l1.024 0.090353a322.861176 322.861176 0 0 1 21.534117 2.258823l2.198588 0.301177c2.921412 0.421647 5.782588 0.903529 8.613648 1.385412l2.228705 0.391529a311.657412 311.657412 0 0 1 31.11153 7.228235l2.017882 0.602353c3.312941 0.933647 6.565647 1.957647 9.818353 3.011765l1.807059 0.602353c2.921412 0.993882 5.782588 1.987765 8.613647 3.011765l1.596235 0.602353c6.656 2.469647 13.191529 5.12 19.606589 8.011294l0.903529 0.421647 0.301176 0.12047a326.113882 326.113882 0 0 1 170.676706 182.693647l-4.246588-10.752a323.041882 323.041882 0 0 1 12.077177 34.605177l0.813176 2.861176a317.048471 317.048471 0 0 1 7.348706 33.430589l0.361412 2.228705c0.602353 3.824941 1.144471 7.589647 1.596235 11.384471l0.361412 3.011765c0.873412 7.619765 1.445647 15.36 1.776941 23.130353v0.542117-0.542117a330.691765 330.691765 0 0 1 0.060235 25.660235l0.210824-12.047059a330.209882 330.209882 0 0 1-6.625883 65.656471c-1.475765 7.137882-3.162353 14.185412-5.089882 21.142588l-0.813176 2.891294c-1.987765 7.017412-4.216471 13.944471-6.686118 20.751059l-1.204706 3.162353a326.023529 326.023529 0 0 1-179.862588 186.639059l-0.451765 0.180706-0.903529 0.361411c-3.132235 1.295059-6.324706 2.529882-9.487059 3.734589l10.390588-4.096a323.041882 323.041882 0 0 1-34.605176 12.077176l-2.891295 0.813177a319.156706 319.156706 0 0 1-49.874823 9.637647 326.174118 326.174118 0 0 1-28.250353 1.957647l-8.643765 0.12047c-4.065882 0-8.131765-0.060235-12.167529-0.210823l12.167529 0.210823a330.209882 330.209882 0 0 1-65.626353-6.625882 319.879529 319.879529 0 0 1-21.202823-5.12l-2.861177-0.783059c-7.348706-2.108235-14.607059-4.457412-21.744941-7.077647l-1.957647-0.722824c-3.463529-1.295059-6.927059-2.620235-10.330353-4.035764l-0.572235-0.240941a326.174118 326.174118 0 0 1-180.314353-186.789647l4.216471 10.661647a323.072 323.072 0 0 1-12.107295-34.635295l-0.813176-2.891294c-0.843294-2.981647-1.626353-5.993412-2.349177-9.035294l-0.542117-2.228706a320.271059 320.271059 0 0 1-8.734118-66.861176l-0.090353-8.643765c0-4.367059 0.090353-8.734118 0.271059-13.071059v-0.542117 0.542117a327.469176 327.469176 0 0 1 3.704471-37.948235l0.301176-1.776941c1.867294-11.565176 4.367059-22.889412 7.439059-34.032941 0.301176-0.903529 0.542118-1.867294 0.813176-2.831059 0.963765-3.312941 1.957647-6.625882 3.011765-9.938824l0.301177-0.903529a322.590118 322.590118 0 0 1 3.433411-9.968941l1.114353-3.041883a326.053647 326.053647 0 0 1 170.676706-182.693647l0.271059-0.12047 0.903529-0.421647c9.728-4.336941 19.666824-8.222118 29.846589-11.625412l1.807058-0.602353c3.222588-1.054118 6.505412-2.078118 9.818353-3.011765l2.017883-0.602353a296.658824 296.658824 0 0 1 8.041412-2.16847l3.072-0.783059a289.882353 289.882353 0 0 1 19.968-4.276706l2.198588-0.361412c2.951529-0.542118 5.933176-0.993882 8.914823-1.445647l1.716706-0.240941a309.217882 309.217882 0 0 1 21.775059-2.288941l0.993882-0.090353a323.764706 323.764706 0 0 1 13.944471-0.662588l8.673882-0.090353z m0 527.058823a26.352941 26.352941 0 0 0-26.172235 23.04l-0.180706 3.312941v42.646589a276.028235 276.028235 0 0 0 52.705882 0v-42.646589l-0.210823-3.312941a26.352941 26.352941 0 0 0-26.142118-23.04z m-22.889411-338.100706l-70.264471 122.970353a26.352941 26.352941 0 0 0 0 26.142118l70.264471 123.000471a26.352941 26.352941 0 0 0 45.778823 0l70.264471-123.000471a26.352941 26.352941 0 0 0 0-26.142118l-70.294589-122.970353a26.352941 26.352941 0 0 0-45.748705 0z m293.948235 109.688471H737.882353l-3.312941 0.210824a26.352941 26.352941 0 0 0 0 52.314352l3.312941 0.180706h42.646588a276.028235 276.028235 0 0 0 0-52.705882z m-499.471059 0H238.441412a275.998118 275.998118 0 0 0 0 52.705882h42.646588l3.312941-0.180706a26.352941 26.352941 0 0 0-3.312941-52.525176z m228.412235-245.940706c-8.854588 0-17.648941 0.421647-26.352941 1.234824v42.676706l0.180706 3.312941a26.352941 26.352941 0 0 0 52.314353 0l0.210823-3.312941V292.382118a275.998118 275.998118 0 0 0-26.352941-1.234824z m87.823059-158.117647a26.352941 26.352941 0 0 1 3.312941 52.495059l-3.312941 0.210823H421.647059a26.352941 26.352941 0 0 1-3.312941-52.525176l3.312941-0.180706h175.676235z" fill="#568af2" /></svg>