<svg class="icon" style="width: 1em;height: 1em;vertical-align: middle;fill: currentColor;overflow: hidden;" viewBox="0 0 1024 1024" version="1.1" xmlns="http://www.w3.org/2000/svg" width="32" height="32"><path d="M597.323294 124.235294c32.436706 0 58.970353 25.088 61.31953 56.922353l0.180705 4.577882V256a26.352941 26.352941 0 0 1-52.495058 3.312941l-0.210824-3.312941V185.735529a8.794353 8.794353 0 0 0-6.776471-8.553411l-2.017882-0.240942H245.970824a8.794353 8.794353 0 0 0-8.553412 6.776471l-0.240941 2.017882v562.176c0 4.156235 2.891294 7.649882 6.77647 8.553412l2.017883 0.240941H316.235294a26.352941 26.352941 0 0 1 3.312941 52.495059l-3.312941 0.210824H245.970824a61.500235 61.500235 0 0 1-61.31953-56.922353l-0.180706-4.577883V185.735529c0-32.436706 25.088-58.970353 56.922353-61.319529l4.577883-0.180706h351.35247z" fill="#568af2" /><path d="M773.029647 229.647059c33.942588 0 61.470118 27.527529 61.470118 61.500235v527.058824a61.500235 61.500235 0 0 1-61.470118 61.470117h-421.647059a61.500235 61.500235 0 0 1-61.500235-61.470117v-527.058824c0-33.972706 27.527529-61.500235 61.500235-61.500235z m-210.823529 158.117647a166.912 166.912 0 0 0-148.720942 242.748235c1.114353 5.391059 3.945412 10.179765 7.890824 13.824a166.851765 166.851765 0 0 0 153.569882 76.739765c5.240471 1.024 10.812235 0.421647 15.902118-1.957647a167.092706 167.092706 0 0 0 135.800471-135.770353 26.352941 26.352941 0 0 0 1.987764-16.082824 166.761412 166.761412 0 0 0-76.8-153.419294 26.142118 26.142118 0 0 0-13.824-7.920941 166.460235 166.460235 0 0 0-75.806117-18.160941z m0 52.705882c14.757647 0 28.822588 2.800941 41.773176 7.890824l-1.14447 4.336941-1.626353 4.879059c-4.728471 12.589176-10.842353 18.040471-21.443765 18.04047l-3.312941 0.180706a26.352941 26.352941 0 0 0 3.312941 52.525177c35.538824 0 59.030588-20.931765 70.77647-52.254118l-1.65647 4.216471c15.058824 17.588706 24.907294 39.815529 27.075765 64.240941a159.382588 159.382588 0 0 0-39.905883 6.113882 114.537412 114.537412 0 0 0-36.98447 18.070588c-28.190118 21.142588-46.983529 64.120471-49.392942 99.478589a113.694118 113.694118 0 0 1-65.14447-29.816471c29.575529-17.347765 51.320471-49.874824 51.32047-83.727059a26.352941 26.352941 0 0 0-52.705882 0l-0.240941 3.674353c-1.807059 14.275765-13.854118 29.093647-27.768471 36.141177a114.206118 114.206118 0 0 1 107.068236-153.961412z m44.453647 219.407059l-3.614118 1.475765c4.306824-17.136941 14.366118-40.508235 27.648-50.477177 5.541647-4.156235 12.318118-7.348706 20.118588-9.637647 5.511529-1.596235 11.264-2.710588 17.046589-3.312941a114.326588 114.326588 0 0 1-61.199059 61.952z" fill="#568af2" /></svg>