<svg class="icon" style="width: 1em;height: 1em;vertical-align: middle;fill: currentColor;overflow: hidden;" viewBox="0 0 1024 1024" version="1.1" xmlns="http://www.w3.org/2000/svg" width="32" height="32"><path d="M734.117647 184.470588c32.406588 0 58.970353 25.088 61.319529 56.922353l0.180706 4.577883v456.764235c0 30.991059-22.889412 56.621176-52.705882 60.867765v26.985411a79.058824 79.058824 0 0 1-157.967059 4.99953l-0.150588-4.99953v-26.383059h-158.117647v26.383059a79.058824 79.058824 0 0 1-74.089412 78.908236l-4.969412 0.150588a79.058824 79.058824 0 0 1-78.908235-74.059294l-0.150588-4.99953v-26.985411a61.500235 61.500235 0 0 1-52.555294-56.259765l-0.150589-4.608V245.970824c0-32.436706 25.088-58.970353 56.892236-61.31953l4.577882-0.180706h456.794353zM347.617882 597.323294a35.147294 35.147294 0 1 0 0 70.294588 35.147294 35.147294 0 0 0 0-70.294588z m316.235294 0a35.147294 35.147294 0 1 0 0 70.294588 35.147294 35.147294 0 0 0 0-70.294588z m46.200471-360.146823h-69.632l-150.256941 166.972235a26.352941 26.352941 0 0 1-41.381647-32.436706l2.228706-2.831059 118.482823-131.70447h-292.141176a8.794353 8.794353 0 0 0-8.58353 6.77647l-0.210823 2.017883-0.030118 237.146352h474.352941V280.064l-58.789647 70.595765A26.352941 26.352941 0 0 1 641.505882 319.849412l2.108236-2.891294 66.439529-79.75153zM189.500235 289.882353c13.432471 0 24.515765 10.059294 26.142118 23.04l0.210823 3.312941v70.264471a26.352941 26.352941 0 0 1-52.525176 3.312941l-0.180706-3.312941V316.235294c0-14.546824 11.776-26.352941 26.352941-26.352941z m632.470589 0c13.432471 0 24.515765 10.059294 26.142117 23.04l0.210824 3.312941v70.264471a26.352941 26.352941 0 0 1-52.525177 3.312941l-0.180706-3.312941V316.235294c0-14.546824 11.776-26.352941 26.352942-26.352941z" fill="#568af2" /></svg>