<svg class="icon" style="width: 1em;height: 1em;vertical-align: middle;fill: currentColor;overflow: hidden;" viewBox="0 0 1024 1024" version="1.1" xmlns="http://www.w3.org/2000/svg" width="32" height="32"><path d="M853.323294 214.588235c14.576941 0 26.352941 11.806118 26.352941 26.352941v527.058824a26.352941 26.352941 0 0 1-26.352941 26.352941H150.588235a26.352941 26.352941 0 0 1-26.352941-26.352941V240.941176c0-14.546824 11.806118-26.352941 26.352941-26.352941z m-335.209412 110.953412a26.352941 26.352941 0 0 0-36.954353 4.638118l-67.222588 86.347294-143.661176-92.340706-2.921412-1.626353a26.352941 26.352941 0 0 0-25.6 45.959529l139.685647 89.810824-146.251294 188.084706-1.987765 2.951529a26.352941 26.352941 0 0 0 43.610353 29.394824l149.142588-191.789177 125.952 80.956236-71.168 96.587294-1.927529 3.011764a26.352941 26.352941 0 0 0 44.363294 28.250353l73.155765-99.297882 137.33647 88.274824 2.891294 1.626352a26.352941 26.352941 0 0 0 25.6-45.959529l-134.475294-86.467765 141.462589-191.969882 1.927529-3.011765a26.352941 26.352941 0 0 0-44.363294-28.250353l-143.450353 194.650353-124.777412-80.203294 64.271059-82.642823 2.017882-2.95153a26.352941 26.352941 0 0 0-6.625882-34.032941z" fill="#568af2" /></svg>