<svg class="icon" style="width: 1em;height: 1em;vertical-align: middle;fill: currentColor;overflow: hidden;" viewBox="0 0 1024 1024" version="1.1" xmlns="http://www.w3.org/2000/svg" width="32" height="32"><path d="M391.529412 616.146824a26.352941 26.352941 0 0 1 3.312941 52.525176l-3.312941 0.180706h-56.19953l-105.381647 158.117647h604.250353l-105.411764-158.117647h-56.169412a26.352941 26.352941 0 0 1-26.142118-23.04l-0.210823-3.312941c0-13.432471 10.059294-24.515765 23.070117-26.142118l3.312941-0.210823h70.264471c7.710118 0 14.968471 3.373176 19.937882 9.125647l1.987765 2.620235 140.528941 210.823529a26.352941 26.352941 0 0 1-18.672941 40.779294l-3.252706 0.180706H180.705882a26.352941 26.352941 0 0 1-23.582117-38.159059l1.65647-2.800941 140.559059-210.823529a26.352941 26.352941 0 0 1 18.642824-11.535059l3.282823-0.210823H391.529412z m140.559059-491.91153a166.912 166.912 0 0 1 26.352941 331.745882v291.930353a26.352941 26.352941 0 0 1-52.525177 3.312942l-0.180706-3.312942V455.981176a166.942118 166.942118 0 0 1 26.352942-331.745882z" fill="#568af2" /></svg>