<svg class="icon" style="width: 1em;height: 1em;vertical-align: middle;fill: currentColor;overflow: hidden;" viewBox="0 0 1024 1024" version="1.1" xmlns="http://www.w3.org/2000/svg" width="32" height="32"><path d="M501.970824 124.235294c208.594824 0 377.705412 169.110588 377.705411 377.73553 0 3.523765-0.030118 7.077647-0.150588 10.571294l0.150588-10.571294a384.391529 384.391529 0 0 1-3.343059 50.567529 376.259765 376.259765 0 0 1-16.263529 69.872941l1.114353-3.312941a374.814118 374.814118 0 0 1-21.744941 52.705882l0.060235-0.150588-4.276706 8.312471a376.982588 376.982588 0 0 1-74.36047 97.039058 425.953882 425.953882 0 0 1-21.142589 18.492236 385.867294 385.867294 0 0 1-55.265882 37.255529 393.336471 393.336471 0 0 1-33.822118 16.564706 390.625882 390.625882 0 0 1-33.551058 12.498824c-5.782588 1.837176-11.625412 3.553882-17.528471 5.12l-0.542118 0.180705a374.964706 374.964706 0 0 1-87.04 12.438589h-0.843294c-3.011765 0.090353-6.083765 0.120471-9.155764 0.12047-208.624941 0-377.735529-169.110588-377.73553-377.705411 0-208.624941 169.110588-377.735529 377.73553-377.73553z m131.19247 434.898824c-23.642353 12.378353-39.363765 27.196235-48.128 45.086117-6.987294 14.305882-8.643765 25.6-8.222118 44.212706l0.210824 6.475294 0.210824 6.656v4.577883l-0.271059 3.011764a9.878588 9.878588 0 0 1-0.481883 1.92753 24.064 24.064 0 0 1-6.77647 9.788235l-2.590118 2.469647-8.432941 7.890824-3.011765 3.041882c-11.535059 12.047059-19.907765 26.051765-26.172235 45.688471-8.884706 27.858824-3.915294 56.199529 13.281882 84.419764a318.945882 318.945882 0 0 0 56.079059-12.077176c-18.672941-22.287059-24.094118-40.719059-19.124706-56.350118 3.794824-11.926588 8.011294-18.974118 14.034824-25.298823l1.867294-1.867294 2.228706-2.108236 9.035294-8.432941c8.975059-8.884706 14.607059-16.926118 19.004235-28.852706 3.674353-9.878588 4.397176-17.136941 3.97553-31.081412l-0.180706-5.541647-0.210824-8.31247c-0.030118-8.432941 0.752941-12.679529 2.921412-17.106824 3.403294-6.957176 10.902588-14.034824 25.208471-21.534117 26.051765-13.673412 68.427294 3.222588 126.494117 57.46447 9.155765-15.841882 16.956235-32.557176 23.311059-49.995294-67.885176-59.572706-125.771294-79.570824-174.260706-54.151529zM556.815059 181.549176v1.204706c0.150588 3.252706 0.451765 6.716235 0.843294 10.420706l0.662588 5.722353 1.596235 11.203765 3.222589 19.06447c4.668235 26.021647 15.962353 42.104471 34.484706 54.934589l4.788705 3.162353 11.926589 7.228235c4.216471 2.800941 5.421176 4.668235 5.12 9.607529l-0.301177 2.710589-0.903529 6.384941-1.204706 6.625882c-1.174588 4.728471-2.951529 6.686118-8.312471 7.800471l-2.529882 0.421647-5.782588 0.602353-17.980236 1.385411-8.192 0.873412-7.077647 1.114353-7.047529 1.566118c-14.848 3.704471-28.009412 10.179765-39.845647 20.48-21.985882 19.124706-26.563765 38.309647-23.311059 76.257882l0.632471 6.866824 3.523764 30.960941c2.409412 27.045647-0.843294 37.255529-12.890353 43.971765a27.015529 27.015529 0 0 1-15.179294 3.553882c-7.559529-0.391529-15.721412-3.011765-26.684235-8.673882l-4.879059-2.650353-9.637647-5.632a468.660706 468.660706 0 0 1-7.228235-4.517647l-3.915294-2.469647-12.860236-8.192-11.444705-7.04753-10.24-5.903059c-28.973176-16.022588-43.730824-16.865882-66.288942-4.547764-28.099765 15.299765-36.653176 38.038588-41.261176 82.763294l-0.692706 7.228235-0.963765 10.480941-1.054117 9.818353-1.084236 8.131765-1.174588 6.595765-1.234823 5.210352c-1.325176 4.577882-2.800941 7.318588-4.577883 8.944942-11.203765 10.209882-34.424471 10.209882-72.282353-4.99953a26.563765 26.563765 0 0 0-3.824941-1.204706c6.927059 22.256941 16.173176 43.429647 27.437177 63.277177 34.605176 6.625882 62.945882 1.204706 84.178823-18.130824 15.299765-13.944471 20.811294-28.310588 24.485647-57.584941l0.752941-6.505412 3.011765-31.021176 1.41553-9.848471c2.680471-16.323765 6.324706-23.762824 12.077176-26.864941 0.783059-0.451765 1.807059-0.602353 3.312941-0.361412l1.626353 0.331294 3.282824 1.144471 0.963764 0.391529 1.024 0.451765 4.758589 2.349177 5.933176 3.252706 11.384471 6.806588 28.370823 17.859764c25.690353 15.600941 43.279059 22.648471 64.632471 23.732706 15.209412 0.783059 29.846588-2.499765 43.550117-10.149647 37.345882-20.841412 44.513882-49.995294 39.032471-101.315764l-0.783059-6.806589-1.987765-16.926117-0.271058-2.620236-0.240942-2.529882-0.602352-8.884706c-0.662588-14.757647 1.204706-21.232941 5.782588-25.238588 5.210353-4.517647 10.902588-7.318588 17.980235-9.065412l1.114353-0.301176 1.084235-0.210824 4.547765-0.843294 5.421176-0.662588 17.227295-1.41553c40.809412-3.824941 61.409882-17.317647 68.065882-59.994353 5.632-36.080941-4.306824-55.838118-28.912941-71.981176l-4.457412-2.831059-5.421176-3.252706-4.156236-2.650353a25.268706 25.268706 0 0 1-11.565176-16.986353l-0.783059-3.794823-1.114353-6.505412-1.807059-11.715765-0.361412-2.650353-0.301176-2.529882-0.060235-0.602353a322.710588 322.710588 0 0 0-54.512942-14.275765z" fill="#568af2" /></svg>