<svg class="icon" style="width: 1em;height: 1em;vertical-align: middle;fill: currentColor;overflow: hidden;" viewBox="0 0 1024 1024" version="1.1" xmlns="http://www.w3.org/2000/svg" width="32" height="32"><path d="M569.374118 154.352941c21.504 0 39.514353 14.878118 45.417411 35.358118l0.993883 4.156235 13.161412 65.897412h46.832941c43.369412 0 81.167059 28.852706 92.641882 68.909176l1.325177 5.300706 35.599058 127.066353 7.529412 3.945412a131.764706 131.764706 0 0 1 66.108235 101.104941l0.542118 7.077647 0.150588 6.475294V707.764706a79.058824 79.058824 0 0 1-74.059294 78.908235l-4.999529 0.150588h-9.155765l-0.180706 2.108236a96.677647 96.677647 0 0 1-84.931765 85.11247l-5.601882 0.481883-5.481412 0.150588a96.677647 96.677647 0 0 1-95.322353-80.414118l-0.752941-5.330823-0.180706-2.108236h-194.108235l-0.180706 2.108236a96.677647 96.677647 0 0 1-84.931765 85.11247l-5.601882 0.481883-5.481412 0.150588a96.677647 96.677647 0 0 1-95.262117-80.414118l-0.752941-5.330823-0.180706-2.108236H203.294118a79.058824 79.058824 0 0 1-78.456471-69.150117l-0.451765-4.909177-0.150588-4.999529v-128.090353c0-47.736471 25.810824-91.557647 67.162353-114.838588l5.722353-3.011765 1.656471-0.873412 37.014588-126.494117a96.647529 96.647529 0 0 1 83.004235-74.059295l5.51153-0.481882 5.571764-0.150588h45.056l13.19153-65.897412c4.216471-21.172706 21.172706-37.376 42.164706-39.333647l4.246588-0.180706h134.836706z m-251.873883 430.441412a43.911529 43.911529 0 1 0 0 87.823059 43.911529 43.911529 0 0 0 0-87.823059z m368.941177 0a43.911529 43.911529 0 1 0 0 87.823059 43.911529 43.911529 0 0 0 0-87.823059z m-26.352941-114.206118h-316.235295l-3.312941 0.210824a26.352941 26.352941 0 0 0 0 52.284235l3.312941 0.210824h316.235295l3.312941-0.210824a26.352941 26.352941 0 0 0-3.312941-52.495059z m-95.412706-263.529411h-125.470118l-10.541176 52.705882h146.55247l-10.541176-52.705882z" fill="#568af2" /></svg>