<svg class="icon" style="width: 1em;height: 1em;vertical-align: middle;fill: currentColor;overflow: hidden;" viewBox="0 0 1024 1024" version="1.1" xmlns="http://www.w3.org/2000/svg" width="32" height="32"><path d="M504.470588 124.235294a289.882353 289.882353 0 0 1 289.882353 289.882353c0 107.158588-51.832471 216.033882-137.637647 321.837177a1034.992941 1034.992941 0 0 1-116.555294 121.584941l-7.168 6.26447-6.023529 5.12-6.02353 4.99953a26.352941 26.352941 0 0 1-29.936941 2.078117l-3.011765-2.108235-6.023529-4.969412-13.19153-11.38447a1034.992941 1034.992941 0 0 1-116.555294-121.554824c-85.805176-105.833412-137.637647-214.738824-137.637647-321.867294a289.882353 289.882353 0 0 1 289.882353-289.882353z m0 158.117647a131.764706 131.764706 0 1 0 0 263.529412 131.764706 131.764706 0 0 0 0-263.529412z m0 52.705883a79.058824 79.058824 0 1 1 0 158.117647 79.058824 79.058824 0 0 1 0-158.117647z" fill="#568af2" /></svg>