<svg class="icon" style="width: 1em;height: 1em;vertical-align: middle;fill: currentColor;overflow: hidden;" viewBox="0 0 1024 1024" version="1.1" xmlns="http://www.w3.org/2000/svg" width="32" height="32"><path d="M499.260235 128.602353c-39.815529 19.877647-72.583529 70.475294-72.583529 136.824471l-0.030118 120.199529-262.806588 219.075765a26.352941 26.352941 0 0 0-9.487059 20.239058v70.264471l0.210824 3.403294a26.352941 26.352941 0 0 0 37.948235 20.178824l242.928941-121.494589v107.91153l-83.817412 134.174118-1.505882 2.68047c-10.059294 20.781176 10.480941 44.423529 33.099294 35.960471l131.282824-49.272471 131.312941 49.272471 2.921412 0.903529c22.377412 5.752471 41.472-19.094588 28.672-39.54447l-83.84753-134.174118v-107.91153l242.959059 121.494589a26.352941 26.352941 0 0 0 38.159059-23.582118V624.941176l-0.210824-3.312941a26.352941 26.352941 0 0 0-9.276235-16.926117L602.352941 385.626353v-120.169412c0-69.029647-35.448471-120.982588-77.402353-139.083294a26.352941 26.352941 0 0 0-20.871529 0l-4.818824 2.258824z" fill="#568af2" /></svg>