<svg class="icon" style="width: 1em;height: 1em;vertical-align: middle;fill: currentColor;overflow: hidden;" viewBox="0 0 1024 1024" version="1.1" xmlns="http://www.w3.org/2000/svg" width="32" height="32"><path d="M579.764706 184.470588c10.661647 0 20.118588 6.384941 24.244706 15.962353l1.14447 3.312941 88.003765 316.80753 8.884706 32.045176 52.434823 188.777412a26.503529 26.503529 0 0 1-4.698352 23.371294 26.112 26.112 0 0 1-11.926589 8.553412l-0.662588 0.210823a26.804706 26.804706 0 0 1-1.024 0.301177l-0.813176 0.150588-0.602353 0.180706-430.411294 94.870588a26.352941 26.352941 0 0 1-31.744-29.605647l0.692705-3.162353 35.478589-127.819294 118.241882-425.59247 0.060235-0.301177 21.89553-78.757647a26.352941 26.352941 0 0 1 21.895529-19.064471l3.493647-0.240941h105.411765z m97.099294 474.352941h-299.610353l-14.637176 52.705883h328.884705l-14.637176-52.705883z m-43.971765-158.117647h-211.727059l-14.637176 52.705883H647.529412l-14.637177-52.705883z m-43.881411-158.117647h-123.904l-14.637177 52.705883h153.178353l-14.637176-52.705883z" fill="#568af2" /></svg>