<svg class="icon" style="width: 1em;height: 1em;vertical-align: middle;fill: currentColor;overflow: hidden;" viewBox="0 0 1024 1024" version="1.1" xmlns="http://www.w3.org/2000/svg" width="32" height="32"><path d="M493.869176 129.355294a26.352941 26.352941 0 0 1 31.232 0l93.033412 68.427294a272.323765 272.323765 0 0 1 105.411765 164.74353l103.243294 103.243294a26.352941 26.352941 0 0 1 7.499294 15.149176l0.210824 3.46353v140.559058a26.352941 26.352941 0 0 1-34.996706 24.907295l-3.132235-1.325177-67.282824-33.671529v115.501176a26.352941 26.352941 0 0 1-23.04 26.142118l-3.312941 0.210823h-62.976a26.202353 26.202353 0 0 1 1.295059 5.481412l0.210823 3.312941v52.705883a26.352941 26.352941 0 0 1-52.525176 3.312941l-0.180706-3.312941v-52.705883c0-3.102118 0.512-6.023529 1.505882-8.794353h-55.717647a26.202353 26.202353 0 0 1 1.295059 5.481412l0.210823 3.312941v87.823059a26.352941 26.352941 0 0 1-52.525176 3.312941l-0.180706-3.312941v-87.823059c0-3.102118 0.512-6.023529 1.505882-8.794353h-55.717647a26.202353 26.202353 0 0 1 1.295059 5.481412l0.210824 3.312941v52.705883a26.352941 26.352941 0 0 1-52.525177 3.312941l-0.180706-3.312941v-52.705883c0-3.102118 0.512-6.023529 1.505883-8.794353H316.235294a26.352941 26.352941 0 0 1-26.352941-26.352941v-115.501176l-67.282824 33.671529a26.352941 26.352941 0 0 1-37.948235-20.178823l-0.180706-3.403295v-140.559058c0-5.812706 1.927529-11.444706 5.421177-16.022589l2.288941-2.590117 103.213176-103.213177a272.323765 272.323765 0 0 1 105.441883-164.773647z m-203.986823 313.22353l-52.705882 52.705882v87.009882l52.705882-26.352941v-113.362823z m439.205647 0.030117v113.332706l52.705882 26.352941v-86.979764l-52.705882-52.705883z" fill="#568af2" /></svg>