<svg class="icon" style="width: 1em;height: 1em;vertical-align: middle;fill: currentColor;overflow: hidden;" viewBox="0 0 1024 1024" version="1.1" xmlns="http://www.w3.org/2000/svg" width="32" height="32"><path d="M391.529412 879.676235a26.352941 26.352941 0 0 1-3.312941-52.495059l3.312941-0.210823h61.470117V493.176471H180.705882a26.352941 26.352941 0 0 1-26.142117-23.04l-0.210824-3.312942v-210.823529c0-13.432471 10.059294-24.515765 23.04-26.142118L180.705882 229.647059h272.293647V150.588235a26.352941 26.352941 0 0 1 52.525177-3.312941l0.210823 3.312941-0.030117 79.058824h237.206588c5.812706 0 11.444706 1.927529 16.022588 5.421176l2.590118 2.288941 105.411765 105.411765c9.456941 9.456941 10.24 24.244706 2.379294 34.575059l-2.379294 2.710588-105.411765 105.411765a26.352941 26.352941 0 0 1-15.149177 7.469176l-3.463529 0.240942H505.675294v333.793882h61.500235a26.352941 26.352941 0 0 1 3.312942 52.525176l-3.312942 0.180706H391.529412z" fill="#568af2" /></svg>