<svg class="icon" style="width: 1em;height: 1em;vertical-align: middle;fill: currentColor;overflow: hidden;" viewBox="0 0 1024 1024" version="1.1" xmlns="http://www.w3.org/2000/svg" width="32" height="32"><path d="M522.029176 124.235294c169.441882 0 307.471059 129.385412 307.471059 289.882353 0 107.580235-55.386353 216.576-146.974117 322.499765a1064.056471 1064.056471 0 0 1-106.104471 106.074353l-13.342118 11.444706-15.811764 12.950588-9.426824 7.318588a26.352941 26.352941 0 0 1-31.623529 0l-7.168-5.571765-16.926118-13.763764a1021.530353 1021.530353 0 0 1-146.763294-150.136471c-76.077176-96.527059-120.771765-194.499765-120.771765-290.816 0-160.496941 138.029176-289.882353 307.440941-289.882353z m52.705883 175.676235h-105.411765a26.352941 26.352941 0 0 0-26.352941 26.352942v281.118117l0.210823 3.312941a26.352941 26.352941 0 0 0 52.495059-3.312941v-114.206117h79.058824l5.481412-0.150589a96.647529 96.647529 0 0 0-5.481412-193.114353z m0 52.705883l4.21647 0.210823a43.941647 43.941647 0 0 1-4.21647 87.642353h-79.058824v-87.853176h79.058824z" fill="#568af2" /></svg>