<svg class="icon" style="width: 1em;height: 1em;vertical-align: middle;fill: currentColor;overflow: hidden;" viewBox="0 0 1024 1024" version="1.1" xmlns="http://www.w3.org/2000/svg" width="32" height="32"><path d="M124.355765 511.126588l-0.120471-9.155764c0-208.624941 169.110588-377.735529 377.73553-377.73553 205.522824 0 372.736 164.171294 377.615058 368.549647l0.090353 9.185883c0 205.522824-164.141176 372.736-368.549647 377.615058l-9.155764 0.090353c-205.552941 0-372.766118-164.141176-377.615059-368.549647zM501.970824 176.941176c27.045647 0 54.392471 33.129412 75.535058 87.521883l2.710589 7.228235 4.668235 13.402353 3.312941 10.541177 3.192471 10.87247 3.975529 14.938353c-29.876706 8.944941-61.259294 13.613176-93.394823 13.613177-32.135529 0-63.548235-4.668235-93.364706-13.613177 4.065882-16.414118 8.673882-31.774118 13.673411-45.839059l3.824942-10.330353 4.999529-12.288 3.102118-6.987294c18.793412-41.050353 41.381647-66.288941 64-68.848941l3.764706-0.210824c-34.183529 0-67.162353 5.270588-98.093177 15.058824-18.341647 29.214118-33.551059 66.650353-44.965647 109.929412A322.770824 322.770824 0 0 1 289.490824 256c-13.312 11.504941-25.690353 24.094118-37.014589 37.647059 28.551529 25.148235 60.536471 45.718588 94.900706 61.138823a828.897882 828.897882 0 0 0-11.956706 120.801883H177.995294a329.456941 329.456941 0 0 0 0 52.705882l157.424941 0.030118c1.204706 42.526118 5.300706 83.215059 11.956706 120.832a377.133176 377.133176 0 0 0-94.870588 61.078588c11.264 13.552941 23.642353 26.142118 36.954353 37.647059a325.752471 325.752471 0 0 1 69.451294-45.929412c11.444706 43.279059 26.624 80.715294 44.965647 109.929412 30.930824 9.818353 63.879529 15.088941 98.093177 15.088941-23.853176 0-47.917176-25.720471-67.764706-69.059765l-3.102118-6.987294-4.999529-12.257882-3.915295-10.541177a499.712 499.712 0 0 1-13.613176-45.628235 324.367059 324.367059 0 0 1 93.364706-13.643294c32.165647 0 63.548235 4.698353 93.424941 13.643294l-3.975529 14.908235-3.162353 10.902589-3.312941 10.541176-4.668236 13.372235-2.710588 7.228236c-20.239059 52.043294-46.140235 84.630588-72.041412 87.341176l-3.523764 0.180706c34.183529 0 67.162353-5.270588 98.093176-15.058824 18.311529-29.214118 33.520941-66.650353 44.965647-109.929411 24.907294 12.197647 48.248471 27.617882 69.421177 45.959529 13.312-11.535059 25.690353-24.094118 36.98447-37.647059a375.386353 375.386353 0 0 0-94.870588-61.138823c6.625882-37.647059 10.721882-78.305882 11.926588-120.832h157.424941a329.456941 329.456941 0 0 0 0-52.705883l-157.424941-0.030117a852.510118 852.510118 0 0 0-8.553412-99.84l-2.469647-15.631059-0.933647-5.330824a377.253647 377.253647 0 0 0 94.930824-61.138823c-11.354353-13.552941-23.732706-26.142118-37.044706-37.647059a324.065882 324.065882 0 0 1-69.391059 45.959529c-11.444706-43.279059-26.654118-80.745412-44.995765-109.959529a325.150118 325.150118 0 0 0-98.063058-15.058824z m-113.784471 351.352471l227.568941 0.060235-0.692706 16.293647-0.963764 16.052706-1.566118 18.82353-1.41553 13.854117-1.65647 13.552942-2.529882 17.709176-1.024 6.023529a378.337882 378.337882 0 0 0-103.936-14.516705c-35.719529 0-70.656 4.999529-103.996236 14.516705l-0.993882-6.023529-0.662588-4.367059-0.662589-4.427294-2.319058-17.92-1.807059-16.564706a816.067765 816.067765 0 0 1-3.312941-51.591529l-0.030118-1.475765z m217.750588-155.015529l0.993883 6.023529 2.529882 17.679059 1.65647 13.552941 1.41553 13.854118 1.566118 18.823529 1.14447 19.245177 0.512 13.101176h-227.568941a816.790588 816.790588 0 0 1 3.312941-52.705882l1.807059-16.865883 2.349176-17.92 0.662589-4.397176 0.662588-4.397177 0.993882-6.023529c33.340235 9.547294 68.276706 14.516706 103.996236 14.516706 35.689412 0 70.625882-4.969412 103.936-14.486588z" fill="#568af2" /></svg>