<svg class="icon" style="width: 1em;height: 1em;vertical-align: middle;fill: currentColor;overflow: hidden;" viewBox="0 0 1024 1024" version="1.1" xmlns="http://www.w3.org/2000/svg" width="32" height="32"><path d="M501.970824 244.705882c174.08 0 314.669176 158.117647 324.457411 355.689412a79.058824 79.058824 0 1 1-100.352 101.104941h-149.564235a79.088941 79.088941 0 0 1-149.082353 0H277.835294a79.088941 79.088941 0 1 1-100.382118-101.104941c9.788235-197.571765 150.377412-355.689412 324.48753-355.689412z m-149.353412 263.529412c-60.446118 0-110.230588 40.357647-120.862118 93.153882a79.209412 79.209412 0 0 1 46.08 47.375059h149.564235a79.299765 79.299765 0 0 1 46.08-47.405176c-10.601412-52.766118-60.416-93.123765-120.862117-93.123765z m149.353412-210.823529c-108.001882 0-202.179765 75.595294-246.061177 185.675294a181.639529 181.639529 0 0 1 96.707765-27.557647c88.756706 0 162.635294 62.644706 174.140235 144.564706 23.190588 7.589647 41.622588 25.690353 49.754353 48.670117h149.564235a79.269647 79.269647 0 0 1 47.585883-47.977411c-9.336471-170.164706-128.361412-303.375059-271.691294-303.375059z" fill="#568af2" /></svg>