<svg class="icon" style="width: 1em;height: 1em;vertical-align: middle;fill: currentColor;overflow: hidden;" viewBox="0 0 1024 1024" version="1.1" xmlns="http://www.w3.org/2000/svg" width="32" height="32"><path d="M747.911529 214.588235c13.432471 0 24.545882 10.059294 26.172236 23.04l0.180706 3.312941v105.411765a26.352941 26.352941 0 0 1-23.04 26.142118l-3.312942 0.210823h-219.617882v122.970353h148.901647c6.565647 0 12.860235 2.469647 17.679059 6.836706l2.288941 2.319059 105.86353 123.000471c2.198588 2.56 3.824941 5.421176 4.879058 8.432941l45.417412-0.030118c14.576941 0 26.352941 11.806118 26.352941 26.352941v140.559059a26.352941 26.352941 0 0 1-26.352941 26.352941h-140.528941a26.352941 26.352941 0 0 1-26.352941-26.352941V662.588235c0-14.546824 11.776-26.352941 26.352941-26.352941h27.919059l-75.625412-87.853176-136.794353-0.030118v87.883294H572.235294c13.432471 0 24.515765 10.059294 26.142118 23.04l0.210823 3.312941v140.559059a26.352941 26.352941 0 0 1-23.04 26.142118l-3.312941 0.210823h-140.559059a26.352941 26.352941 0 0 1-26.142117-23.070117l-0.210824-3.312942V662.588235c0-13.432471 10.059294-24.515765 23.070118-26.142117l3.312941-0.210824h43.881412v-87.883294l-137.216 0.030118-75.294118 87.853176h28.069647c13.432471 0 24.515765 10.059294 26.142118 23.04l0.210823 3.312941v140.559059a26.352941 26.352941 0 0 1-26.352941 26.352941H150.588235a26.352941 26.352941 0 0 1-26.352941-26.352941V662.588235c0-14.546824 11.806118-26.352941 26.352941-26.352941h45.417412a26.202353 26.202353 0 0 1 2.710588-5.481412l2.138353-2.891294 105.411765-122.970353a26.352941 26.352941 0 0 1 16.745412-9.005176l3.252706-0.210824h149.323294v-122.970353H256a26.352941 26.352941 0 0 1-26.142118-23.04l-0.210823-3.312941V240.941176c0-13.432471 10.059294-24.515765 23.04-26.142117l3.312941-0.210824h491.911529z" fill="#568af2" /></svg>