<svg class="icon" style="width: 1em;height: 1em;vertical-align: middle;fill: currentColor;overflow: hidden;" viewBox="0 0 1024 1024" version="1.1" xmlns="http://www.w3.org/2000/svg" width="32" height="32"><path d="M697.735529 124.235294a96.617412 96.617412 0 0 1 26.352942 189.620706V361.411765c0 53.549176-26.383059 86.226824-98.243765 123.783529l-14.034824 7.107765-15.088941 7.258353-16.233412 7.439059-17.377882 7.68-18.552471 7.951058-49.302588 20.449883-17.950117 7.589647-16.655059 7.258353-15.450353 6.987294c-2.469647 1.144471-4.909176 2.258824-7.258353 3.403294l-13.673412 6.595765-12.559059 6.354823c-7.981176 4.186353-15.209412 8.222118-21.775059 12.197647l-9.33647 5.872941c-29.304471 19.425882-41.833412 37.044706-42.947765 57.615059l-0.090353 3.132236v29.967058a96.677647 96.677647 0 0 1-26.352941 189.620706 96.617412 96.617412 0 0 1-26.352941-189.620706V313.856a96.677647 96.677647 0 0 1 26.352941-189.620706 96.617412 96.617412 0 0 1 26.352941 189.620706v249.976471l4.728471-3.312942c17.648941-12.257882 39.905882-24.395294 67.493647-37.436235l19.184941-8.854588c3.343059-1.505882 6.746353-3.011765 10.24-4.517647l21.624471-9.336471 23.311058-9.758117 20.118589-8.282353 18.55247-7.770353 25.47953-11.023059 15.450353-6.957177 7.258353-3.403294 13.673411-6.595764 12.559059-6.354824c3.975529-2.108235 7.800471-4.156235 11.444706-6.204235l10.330353-6.02353c36.020706-21.775059 51.049412-40.839529 52.284235-63.488l0.090353-3.102117v-47.585883a96.677647 96.677647 0 0 1 26.352941-189.590588z" fill="#568af2" /></svg>