<svg class="icon" style="width: 1em;height: 1em;vertical-align: middle;fill: currentColor;overflow: hidden;" viewBox="0 0 1024 1024" version="1.1" xmlns="http://www.w3.org/2000/svg" width="32" height="32"><path d="M835.764706 124.235294c23.341176 0 41.652706 18.492235 43.730823 41.200941l0.180706 4.306824v172.513882c0 23.190588-16.926118 43.068235-39.604706 45.296941l-4.306823 0.210824H352.617412v87.973647l325.029647 0.180706c13.432471 0 24.515765 10.059294 26.142117 23.04l0.210824 3.312941v113.874824h131.764706c23.341176 0 41.652706 18.492235 43.730823 41.231058l0.180706 4.306824v172.483765c0 23.190588-16.926118 43.068235-39.604706 45.296941l-4.306823 0.210823H168.146824c-23.311059 0-41.652706-18.462118-43.700706-41.200941l-0.210824-4.306823V661.684706c0-23.190588 16.956235-43.068235 39.604706-45.327059l4.306824-0.210823h483.147294v-87.552l-325.029647-0.120471a26.352941 26.352941 0 0 1-26.142118-23.070118l-0.210824-3.312941v-114.326588H168.146824c-23.311059 0-41.652706-18.492235-43.700706-41.200941l-0.210824-4.306824V169.743059c0-23.190588 16.956235-43.068235 39.604706-45.296941l4.306824-0.210824H835.764706z m-228.382118 597.323294h-210.823529l-3.312941 0.210824a26.352941 26.352941 0 0 0 0 52.314353l3.312941 0.180706h210.823529l3.312941-0.180706a26.352941 26.352941 0 0 0-3.312941-52.525177z m0-491.911529h-210.823529l-3.312941 0.210823a26.352941 26.352941 0 0 0 0 52.284236l3.312941 0.210823h210.823529l3.312941-0.210823a26.352941 26.352941 0 0 0-3.312941-52.495059z" fill="#568af2" /></svg>