<svg class="icon" style="width: 1em;height: 1em;vertical-align: middle;fill: currentColor;overflow: hidden;" viewBox="0 0 1024 1024" version="1.1" xmlns="http://www.w3.org/2000/svg" width="32" height="32"><path d="M351.352471 184.470588a26.443294 26.443294 0 0 0-4.728471 0.421647h9.517176a26.292706 26.292706 0 0 0-1.475764-0.210823l-3.312941-0.210824H790.588235a79.058824 79.058824 0 0 1 79.058824 79.058824v527.058823a79.058824 79.058824 0 0 1-79.058824 79.058824l-102.881882 0.060235a26.503529 26.503529 0 0 1-4.577882 0.421647H267.685647a26.503529 26.503529 0 0 1-4.698353-0.421647l0.542118-0.060235a79.058824 79.058824 0 0 1-79.058824-79.058824V263.529412A79.058824 79.058824 0 0 1 263.529412 184.470588h87.823059z m26.352941 53.157647h-52.705883v87.371294H237.176471v52.705883h87.823058V817.392941h52.705883V377.705412h430.441412a26.322824 26.322824 0 0 0 8.82447-1.505883v-49.694117a26.202353 26.202353 0 0 0-5.511529-1.295059l-3.312941-0.180706-430.441412-0.030118V237.628235z m439.235764 368.489412H632.470588a26.352941 26.352941 0 0 0-3.312941 52.495059l3.312941 0.210823h184.470588v-52.705882z m-289.882352 0h-17.558589a26.352941 26.352941 0 0 0-3.312941 52.495059l3.312941 0.210823h17.558589a26.352941 26.352941 0 1 0 0-52.705882z m289.882352-140.559059H632.470588a26.352941 26.352941 0 0 0-3.312941 52.525177l3.312941 0.180706h184.470588v-52.705883z m-289.882352 0h-17.558589a26.352941 26.352941 0 0 0-3.312941 52.525177l3.312941 0.180706h17.558589a26.352941 26.352941 0 1 0 0-52.705883z" fill="#568af2" /></svg>