<svg class="icon" style="width: 1em;height: 1em;vertical-align: middle;fill: currentColor;overflow: hidden;" viewBox="0 0 1024 1024" version="1.1" xmlns="http://www.w3.org/2000/svg" width="32" height="32"><path d="M853.323294 184.470588h0.301177c0.662588 0 1.325176 0.030118 1.957647 0.090353l-2.258824-0.090353a26.593882 26.593882 0 0 1 6.896941 0.90353l0.662589 0.210823a24.214588 24.214588 0 0 1 2.288941 0.783059l0.813176 0.331294a26.112 26.112 0 0 1 11.294118 9.517177l0.150588 0.240941 0.481882 0.783059 0.873412 1.536-1.355294-2.319059a26.533647 26.533647 0 0 1 4.246588 14.366117v456.794353a184.470588 184.470588 0 0 1-358.4 61.500236H150.588235a26.352941 26.352941 0 0 1-26.352941-26.383059V209.92l0.120471-1.807059-0.120471 2.710588a26.503529 26.503529 0 0 1 3.885177-13.763764l0.361411-0.602353 0.180706-0.240941a26.443294 26.443294 0 0 1 1.114353-1.566118l-1.295059 1.807059a26.593882 26.593882 0 0 1 17.167059-11.535059 34.334118 34.334118 0 0 1 4.638118-0.451765h703.036235zM677.647059 588.559059a26.352941 26.352941 0 0 0-26.142118 23.04l-0.210823 3.312941v70.264471c0 13.432471 10.059294 24.515765 23.04 26.142117l3.312941 0.210824h70.26447a26.352941 26.352941 0 0 0 26.172236-23.04l0.180706-3.312941-0.180706-3.312942a26.352941 26.352941 0 0 0-22.859294-22.829176l-3.312942-0.210824h-43.911529v-43.911529a26.352941 26.352941 0 0 0-26.352941-26.352941z m149.323294-329.185883l-310.633412 201.938824a26.352941 26.352941 0 0 1-28.732235 0L176.941176 259.373176v417.008942h334.004706A184.470588 184.470588 0 0 1 827.030588 538.503529l-0.030117-279.130353z m-62.584471-22.196705H239.495529l262.445177 170.586353 262.445176-170.586353z" fill="#568af2" /></svg>