<svg class="icon" style="width: 1em;height: 1em;vertical-align: middle;fill: currentColor;overflow: hidden;" viewBox="0 0 1024 1024" version="1.1" xmlns="http://www.w3.org/2000/svg" width="32" height="32"><path d="M627.440941 124.235294c6.987294 0 13.703529 2.770824 18.672941 7.710118l175.646118 175.706353a26.352941 26.352941 0 0 1 7.740235 18.612706v491.941647a61.500235 61.500235 0 0 1-61.500235 61.470117H276.088471a61.500235 61.500235 0 0 1-61.500236-61.470117v-632.470589c0-33.972706 27.527529-61.500235 61.500236-61.500235h351.35247z m17.588706 245.970824h-175.706353a26.352941 26.352941 0 0 0 0 52.705882l61.500235-0.030118v184.500706c0 22.829176-17.408 41.562353-39.695058 43.700706l-4.216471 0.210824a43.911529 43.911529 0 0 1-43.941647-43.91153 26.352941 26.352941 0 1 0-52.705882 0 96.617412 96.617412 0 0 0 193.264941 0V422.851765h61.500235a26.352941 26.352941 0 0 0 26.142118-23.04l0.210823-3.312941a26.352941 26.352941 0 0 0-26.352941-26.322824z" fill="#568af2" /></svg>