<svg class="icon" style="width: 1em;height: 1em;vertical-align: middle;fill: currentColor;overflow: hidden;" viewBox="0 0 1024 1024" version="1.1" xmlns="http://www.w3.org/2000/svg" width="32" height="32"><path d="M505.735529 461.793882a79.058824 79.058824 0 0 1 79.058824 79.058824v245.970823a79.058824 79.058824 0 0 1-79.058824 79.058824H259.764706A79.058824 79.058824 0 0 1 180.705882 786.823529v-245.970823a79.058824 79.058824 0 0 1 79.058824-79.058824h245.970823zM396.257882 599.341176a79.058824 79.058824 0 0 0-97.490823-2.048l-107.52 80.624942a26.352941 26.352941 0 1 0 31.623529 42.164706l107.52-80.624942a26.352941 26.352941 0 0 1 32.496941 0.692706l161.28 131.97553a26.352941 26.352941 0 0 0 33.370353-40.809412z m302.712471 205.101177a35.147294 35.147294 0 1 1 0 70.264471 35.147294 35.147294 0 0 1 0-70.294589z m-491.911529-421.647059a35.147294 35.147294 0 1 1 0 70.264471 35.147294 35.147294 0 0 1 0-70.294589z m632.470588 421.647059a35.147294 35.147294 0 1 1 0 70.264471 35.147294 35.147294 0 0 1 0-70.294589z m-632.470588-562.206118a35.147294 35.147294 0 1 1 0 70.264471 35.147294 35.147294 0 0 1 0-70.264471z m632.470588 421.647059a35.147294 35.147294 0 1 1 0 70.264471 35.147294 35.147294 0 0 1 0-70.264471z m-491.91153-421.647059a35.147294 35.147294 0 1 1 0 70.264471 35.147294 35.147294 0 0 1 0-70.264471z m491.91153 281.088a35.147294 35.147294 0 1 1 0 70.264471 35.147294 35.147294 0 0 1 0-70.264471zM488.146824 242.206118a35.147294 35.147294 0 1 1 0 70.26447 35.147294 35.147294 0 0 1 0-70.26447zM839.529412 180.705882a26.232471 26.232471 0 0 1 18.642823 7.710118l0.451765 0.481882a26.503529 26.503529 0 0 1 1.264941 1.445647l-1.716706-1.927529a26.533647 26.533647 0 0 1 7.710118 18.642824v210.823529a26.352941 26.352941 0 1 1-52.705882 0V270.667294l-165.827765 165.857882a26.352941 26.352941 0 1 1-37.285647-37.285647l165.797647-165.827764h-147.154824a26.352941 26.352941 0 0 1-26.142117-23.04L602.352941 207.058824c0-14.546824 11.806118-26.352941 26.352941-26.352942h210.82353z" fill="#568af2" /></svg>