<svg class="icon" style="width: 1em;height: 1em;vertical-align: middle;fill: currentColor;overflow: hidden;" viewBox="0 0 1024 1024" version="1.1" xmlns="http://www.w3.org/2000/svg" width="32" height="32"><path d="M786.823529 180.705882a79.058824 79.058824 0 0 1 79.058824 79.058824v527.058823a79.058824 79.058824 0 0 1-79.058824 79.058824h-527.058823A79.058824 79.058824 0 0 1 180.705882 786.823529v-527.058823A79.058824 79.058824 0 0 1 259.764706 180.705882h527.058823z m-316.235294 193.264942h-140.559059a26.352941 26.352941 0 0 0-26.352941 26.352941v245.940706c0 14.576941 11.806118 26.352941 26.352941 26.352941h131.764706a26.352941 26.352941 0 1 0 0-52.705883h-105.411764V549.647059h105.411764a26.352941 26.352941 0 0 0 26.172236-23.04l0.180706-3.312941a26.352941 26.352941 0 0 0-26.352942-26.352942h-105.411764v-70.26447h114.206117a26.352941 26.352941 0 0 0 0-52.705882z m87.853177 35.117176a26.352941 26.352941 0 0 0-26.352941 26.352941v210.82353c0 14.576941 11.776 26.352941 26.352941 26.352941l3.312941-0.180706a26.352941 26.352941 0 0 0 23.04-26.172235v-114.176a52.705882 52.705882 0 1 1 105.411765 0v114.176a26.352941 26.352941 0 1 0 52.705882 0v-114.176a105.411765 105.411765 0 0 0-158.147765-91.316706v-5.330824a26.352941 26.352941 0 0 0-26.322823-26.352941z" fill="#568af2" /></svg>