<svg class="icon" style="width: 1em;height: 1em;vertical-align: middle;fill: currentColor;overflow: hidden;" viewBox="0 0 1024 1024" version="1.1" xmlns="http://www.w3.org/2000/svg" width="32" height="32"><path d="M768 124.235294c33.972706 0 61.500235 27.527529 61.500235 61.500235v632.470589a61.500235 61.500235 0 0 1-61.500235 61.470117H276.088471a61.500235 61.500235 0 0 1-61.500236-61.470117v-632.470589c0-33.972706 27.527529-61.500235 61.500236-61.500235H768z m-245.970824 562.206118H399.058824a26.352941 26.352941 0 1 0 0 52.705882h122.970352a26.352941 26.352941 0 0 0 0-52.705882z m123.000471-105.411765H399.058824a26.352941 26.352941 0 1 0 0 52.705882h245.970823a26.352941 26.352941 0 0 0 0-52.705882z m-34.093176-290.936471a26.352941 26.352941 0 0 0-37.25553 0l-51.651765 51.59153-51.621647-51.621647a26.352941 26.352941 0 0 0-34.575058-2.349177l-2.710589 2.349177a26.352941 26.352941 0 0 0 0 37.285647l51.621647 51.621647-51.621647 51.651765a26.352941 26.352941 0 0 0-2.349176 34.575058l2.349176 2.710589a26.352941 26.352941 0 0 0 37.285647 0l51.621647-51.681883 51.651765 51.651765a26.352941 26.352941 0 0 0 34.575059 2.379294l2.710588-2.379294a26.352941 26.352941 0 0 0 0-37.255529l-51.681882-51.651765 51.651765-51.621647a26.352941 26.352941 0 0 0 2.379294-34.575059z" fill="#568af2" /></svg>