<svg class="icon" style="width: 1em;height: 1em;vertical-align: middle;fill: currentColor;overflow: hidden;" viewBox="0 0 1024 1024" version="1.1" xmlns="http://www.w3.org/2000/svg" width="32" height="32"><path d="M501.970824 124.235294c208.594824 0 377.705412 169.110588 377.705411 377.73553 0 208.594824-169.110588 377.705412-377.705411 377.705411a376.470588 376.470588 0 0 1-263.04753-106.61647 376.621176 376.621176 0 0 1-114.688-271.088941 376.470588 376.470588 0 0 1 104.929882-261.270589 26.262588 26.262588 0 0 1 18.462118-8.131764l3.373177 0.150588c5.601882 0.602353 11.053176 3.011765 15.420235 7.168l253.771294 243.049412c10.541176 10.119529 10.842353 26.895059 0.692706 37.376l-104.508235 107.670588c24.214588 15.058824 52.464941 23.311059 82.070588 23.311059 84.540235 0 152.847059-66.981647 152.847059-149.323294 0-82.371765-68.306824-149.353412-152.847059-149.353412a26.352941 26.352941 0 1 1 0-52.705883c113.392941 0 205.552941 90.352941 205.552941 202.059295 0 111.676235-92.16 202.029176-205.552941 202.029176a207.209412 207.209412 0 0 1-119.356235-37.526588l-83.787295 86.347294a323.614118 323.614118 0 0 0 206.667295 74.149647c179.501176 0 324.999529-145.498353 324.999529-324.999529S681.472 176.941176 501.970824 176.941176a26.352941 26.352941 0 1 1 0-52.705882z" fill="#568af2" /></svg>