<svg class="icon" style="width: 1em;height: 1em;vertical-align: middle;fill: currentColor;overflow: hidden;" viewBox="0 0 1024 1024" version="1.1" xmlns="http://www.w3.org/2000/svg" width="32" height="32"><path d="M426.676706 184.470588c7.830588 0 15.239529 3.463529 20.239059 9.487059l79.932235 95.924706H813.176471c32.406588 0 58.970353 25.088 61.319529 56.922353l0.180706 4.577882v456.764236A61.500235 61.500235 0 0 1 813.176471 869.647059H215.853176a61.500235 61.500235 0 0 1-61.500235-61.500235V245.970824c0-33.972706 27.527529-61.500235 61.500235-61.500236h210.82353z m161.611294 263.529412h-147.576471a26.352941 26.352941 0 0 0-18.341647 7.439059l-2.288941 2.529882-49.182117 62.012235a26.352941 26.352941 0 0 0-1.807059 30.177883l2.108235 3.011765 123.000471 148.781176a26.352941 26.352941 0 0 0 38.249411 2.56l2.379294-2.56 122.970353-148.781176a26.352941 26.352941 0 0 0 2.409412-30.147765l-2.078117-3.041883-49.182118-62.012235a26.352941 26.352941 0 0 0-20.660706-9.968941z m-12.739765 52.705882l28.03953 35.297883-89.088 107.791059-89.088-107.791059 28.009411-35.297883h122.127059z" fill="#568af2" /></svg>