<svg class="icon" style="width: 1em;height: 1em;vertical-align: middle;fill: currentColor;overflow: hidden;" viewBox="0 0 1024 1024" version="1.1" xmlns="http://www.w3.org/2000/svg" width="32" height="32"><path d="M627.440941 124.235294c2.319059 0 4.517647 0.301176 6.625883 0.843294l0.391529 0.090353a26.112 26.112 0 0 1 11.625412 6.776471l175.676235 175.706353 0.662588 0.662588a26.503529 26.503529 0 0 1 1.084236 1.234823l-1.746824-1.897411a26.563765 26.563765 0 0 1 7.529412 15.329882l0.210823 3.312941v491.91153a61.500235 61.500235 0 0 1-61.500235 61.470117H276.088471a61.500235 61.500235 0 0 1-61.500236-61.470117v-632.470589c0-33.972706 27.527529-61.500235 61.500236-61.500235h351.35247z m9.938824 352.376471c-4.035765 13.161412-10.209882 25.509647-18.191059 36.562823a119.687529 119.687529 0 0 1-97.15953 50.296471 119.687529 119.687529 0 0 1-97.129411-50.296471 125.44 125.44 0 0 1-18.221177-36.562823 26.352941 26.352941 0 1 0-50.356706 15.540706 178.145882 178.145882 0 0 0 29.274353 56.470588l-40.297411 40.297412a26.352941 26.352941 0 0 0 34.544941 39.634823l2.710588-2.379294 41.140706-41.140706c7.981176 5.601882 16.384 10.511059 25.178353 14.667294l-14.034824 52.374588a26.352941 26.352941 0 0 0 49.874824 16.77553l1.054117-3.132235 13.643295-51.049412a171.399529 171.399529 0 0 0 45.357176 0l13.673412 51.049412a26.352941 26.352941 0 0 0 51.591529-10.420706l-0.662588-3.222589-14.064941-52.404705c8.794353-4.186353 17.197176-9.095529 25.178353-14.697412l44.242823 44.242823a26.352941 26.352941 0 0 0 39.604706-34.575058l-2.349176-2.710589-43.459765-43.459764 3.373176-4.427295c9.456941-13.071059 17.136941-27.407059 22.738824-42.646588l3.132235-9.246117a26.352941 26.352941 0 1 0-50.356706-15.540706z m102.098823-176.700236l-85.684706-85.714823v85.714823h85.684706z" fill="#568af2" /></svg>