<svg class="icon" style="width: 1em;height: 1em;vertical-align: middle;fill: currentColor;overflow: hidden;" viewBox="0 0 1024 1024" version="1.1" xmlns="http://www.w3.org/2000/svg" width="32" height="32"><path d="M627.440941 124.235294c2.319059 0 4.517647 0.301176 6.625883 0.843294l0.391529 0.090353a26.112 26.112 0 0 1 11.625412 6.776471l175.676235 175.706353 0.662588 0.662588a26.503529 26.503529 0 0 1 1.084236 1.234823l-1.746824-1.897411a26.563765 26.563765 0 0 1 7.529412 15.329882l0.210823 3.312941v491.91153a61.500235 61.500235 0 0 1-61.500235 61.470117H276.088471a61.500235 61.500235 0 0 1-61.500236-61.470117v-632.470589c0-33.972706 27.527529-61.500235 61.500236-61.500235h351.35247zM662.588235 440.470588l-3.312941 0.210824a26.352941 26.352941 0 0 0-22.829176 22.829176l-0.210824 3.312941v114.176h-191.156706l42.88753-42.827294a26.352941 26.352941 0 0 0 2.349176-34.575059l-2.349176-2.710588a26.352941 26.352941 0 0 0-34.575059-2.349176l-2.710588 2.349176-87.823059 87.853177a26.804706 26.804706 0 0 0-3.674353 4.608l-0.843294 1.415529a28.310588 28.310588 0 0 0-1.355294 2.921412 26.262588 26.262588 0 0 0 2.108235 23.552l1.084235 1.626353 0.301177 0.451765 0.63247 0.783058 1.114353 1.234824 0.602353 0.662588 87.883294 87.853177a26.352941 26.352941 0 0 0 34.544941 2.349176l2.710589-2.349176 2.349176-2.710589a26.383059 26.383059 0 0 0 0-31.86447l-2.349176-2.710588-42.88753-42.857412H662.588235a26.352941 26.352941 0 0 0 26.142118-23.04l0.210823-3.312941V466.823529a26.352941 26.352941 0 0 0-26.352941-26.352941z m76.890353-140.559059l-85.684706-85.714823v85.714823h85.684706z" fill="#568af2" /></svg>