<svg class="icon" style="width: 1em;height: 1em;vertical-align: middle;fill: currentColor;overflow: hidden;" viewBox="0 0 1024 1024" version="1.1" xmlns="http://www.w3.org/2000/svg" width="32" height="32"><path d="M159.382588 263.529412a79.058824 79.058824 0 0 1 79.058824-79.058824h527.058823a79.058824 79.058824 0 0 1 79.058824 79.058824v527.058823a79.058824 79.058824 0 0 1-79.058824 79.058824h-527.058823a79.058824 79.058824 0 0 1-79.058824-79.058824V263.529412z m52.705883 412.852706h115.471058l27.858824 55.717647c3.945412 7.920941 11.595294 13.251765 20.269176 14.366117l3.312942 0.210824h245.940705l3.312942-0.210824a26.352941 26.352941 0 0 0 18.612706-11.504941l1.65647-2.861176 27.828706-55.717647h115.501176v-52.705883h-131.764705l-3.312942 0.210824a26.352941 26.352941 0 0 0-18.612705 11.504941l-1.656471 2.861176-27.858824 55.717648h-213.413647l-27.828706-55.717648a26.352941 26.352941 0 0 0-20.269176-14.366117l-3.312941-0.210824H212.118588v52.705883z m289.882353-386.499765c-2.319059 0-4.517647 0.301176-6.625883 0.843294l-0.391529 0.090353a26.112 26.112 0 0 0-5.632 2.288941l-1.385412 0.813177a28.069647 28.069647 0 0 0-1.475765 0.993882l-0.421647 0.331294-0.692706 0.542118a26.503529 26.503529 0 0 0-1.566117 1.385412l-0.451765 0.421647-105.411765 105.411764a26.352941 26.352941 0 0 0-2.349176 34.575059l2.349176 2.710588 2.710589 2.349177a26.383059 26.383059 0 0 0 31.86447 0l2.710588-2.349177 60.385883-60.446117v217.479529a26.352941 26.352941 0 0 0 52.525176 3.312941l0.210824-3.312941-0.030118-217.479529 60.446118 60.446117a26.352941 26.352941 0 0 0 34.575059 2.349177l2.710588-2.349177a26.352941 26.352941 0 0 0 2.349176-34.575058l-2.379294-2.710589-105.411765-105.411764a26.864941 26.864941 0 0 0-5.872941-4.427295 26.262588 26.262588 0 0 0-12.739764-3.282823z" fill="#568af2" /></svg>