<svg class="icon" style="width: 1em;height: 1em;vertical-align: middle;fill: currentColor;overflow: hidden;" viewBox="0 0 1024 1024" version="1.1" xmlns="http://www.w3.org/2000/svg" width="32" height="32"><path d="M702.102588 201.035294l63.638588 159.11153h87.582118c14.576941 0 26.352941 11.806118 26.352941 26.352941v105.411764a26.352941 26.352941 0 0 1-26.352941 26.352942c-44.363294 0-79.058824 28.912941-79.058823 70.294588 0 45.778824 39.845647 87.823059 79.058823 87.823059 14.576941 0 26.352941 11.806118 26.352941 26.352941v105.411765a26.352941 26.352941 0 0 1-26.352941 26.352941H150.588235a26.352941 26.352941 0 0 1-26.352941-26.352941v-105.411765c0-14.546824 11.806118-26.352941 26.352941-26.352941 45.387294 0 79.058824-29.906824 79.058824-79.058824 0-49.091765-33.671529-79.058824-79.058824-79.058823a26.352941 26.352941 0 0 1-26.352941-26.352942v-105.411764c0-14.546824 11.806118-26.352941 26.352941-26.352941h82.763294l434.507295-173.778824a26.352941 26.352941 0 0 1 34.243764 14.667294zM624.941176 630.452706h-245.970823a26.352941 26.352941 0 0 0-3.312941 52.495059l3.312941 0.210823h245.970823a26.352941 26.352941 0 1 0 0-52.705882z m-140.559058-105.411765h-105.411765a26.352941 26.352941 0 0 0-3.312941 52.495059l3.312941 0.210824h105.411765a26.352941 26.352941 0 1 0 0-52.705883z m178.567529-279.973647l-287.713882 115.049412h333.763764l-46.08-115.049412z" fill="#568af2" /></svg>