<svg class="icon" style="width: 1em;height: 1em;vertical-align: middle;fill: currentColor;overflow: hidden;" viewBox="0 0 1024 1024" version="1.1" xmlns="http://www.w3.org/2000/svg" width="32" height="32"><path d="M769.264941 184.470588a79.058824 79.058824 0 0 1 79.058824 79.058824v527.058823a79.058824 79.058824 0 0 1-79.058824 79.058824h-527.058823a79.058824 79.058824 0 0 1-79.058824-79.058824V263.529412a79.058824 79.058824 0 0 1 79.058824-79.058824h527.058823z m0 52.705883h-527.058823a26.352941 26.352941 0 0 0-26.352942 26.352941v273.859764l143.691295-131.674352a61.500235 61.500235 0 0 1 81.558588-1.385412l118.633412 101.707294 81.498353-81.468235a61.500235 61.500235 0 0 1 80.353882-5.722353l73.999059 55.476706V263.529412a26.352941 26.352941 0 0 0-26.322824-26.352941z" fill="#568af2" /></svg>