<svg class="icon" style="width: 1em;height: 1em;vertical-align: middle;fill: currentColor;overflow: hidden;" viewBox="0 0 1024 1024" version="1.1" xmlns="http://www.w3.org/2000/svg" width="32" height="32"><path d="M627.440941 124.235294c2.319059 0 4.517647 0.301176 6.625883 0.843294l0.391529 0.090353a26.112 26.112 0 0 1 11.625412 6.776471l175.676235 175.706353 0.662588 0.662588a26.503529 26.503529 0 0 1 1.084236 1.234823l-1.746824-1.897411a26.563765 26.563765 0 0 1 7.529412 15.329882l0.210823 3.312941v491.91153a61.500235 61.500235 0 0 1-61.500235 61.470117H276.088471a61.500235 61.500235 0 0 1-61.500236-61.470117v-632.470589c0-33.972706 27.527529-61.500235 61.500236-61.500235h351.35247z m-50.055529 298.676706l-5.963294 0.210824c-15.510588 1.054118-30.117647 6.324706-42.827294 14.96847l-5.330824 3.915294-1.234824 1.054118-1.204705-1.054118a87.130353 87.130353 0 0 0-54.121412-19.094588c-52.886588 0-93.997176 47.887059-93.997177 105.170824 0 79.721412 73.246118 165.948235 139.806118 191.698823a26.352941 26.352941 0 0 0 19.034353 0c66.56-25.750588 139.836235-111.977412 139.836235-191.698823 0-57.283765-41.110588-105.170824-93.997176-105.170824z m0 52.705882c21.835294 0 41.261176 22.648471 41.261176 52.464942l-0.180706 5.782588c-3.523765 50.477176-51.952941 109.688471-95.894588 132.21647l-0.542118 0.271059-0.512-0.240941c-45.628235-23.401412-96.105412-86.377412-96.105411-138.029176 0-29.816471 19.456-52.464941 41.261176-52.464942 12.649412 0 24.786824 7.499294 32.828235 20.781177a26.352941 26.352941 0 0 0 45.086118 0c8.011294-13.281882 20.178824-20.781176 32.798118-20.781177z m76.40847-261.421176v85.714823h85.684706l-85.684706-85.714823z" fill="#568af2" /></svg>