<svg class="icon" style="width: 1em;height: 1em;vertical-align: middle;fill: currentColor;overflow: hidden;" viewBox="0 0 1024 1024" version="1.1" xmlns="http://www.w3.org/2000/svg" width="32" height="32"><path d="M273.558588 214.588235c12.559059 0 23.401412 8.854588 25.840941 21.172706a105.773176 105.773176 0 0 0 15.510589 33.972706c14.546824 20.781176 34.785882 32.707765 64.060235 32.707765 29.274353 0 49.513412-11.926588 64.060235-32.677647a105.773176 105.773176 0 0 0 15.510588-34.002824 26.352941 26.352941 0 0 1 25.840942-21.172706h368.941176c14.576941 0 26.352941 11.806118 26.352941 26.352941v562.206118a26.352941 26.352941 0 0 1-26.352941 26.352941h-368.941176a26.352941 26.352941 0 0 1-25.840942-21.202823 105.773176 105.773176 0 0 0-15.510588-33.972706c-14.546824-20.781176-34.785882-32.677647-64.060235-32.677647-29.274353 0-49.513412 11.896471-64.060235 32.677647a105.773176 105.773176 0 0 0-15.510589 33.972706 26.352941 26.352941 0 0 1-25.840941 21.202823H150.588235a26.352941 26.352941 0 0 1-26.352941-26.352941V240.941176c0-14.546824 11.806118-26.352941 26.352941-26.352941h122.970353z m105.411765 333.793883a26.352941 26.352941 0 0 0-26.352941 26.352941v35.147294a26.352941 26.352941 0 0 0 52.705882 0v-35.147294a26.352941 26.352941 0 0 0-26.352941-26.352941z m333.824 0H519.529412a26.352941 26.352941 0 0 0 0 52.705882h193.264941a26.352941 26.352941 0 0 0 0-52.705882z m-333.824-140.528942a26.352941 26.352941 0 0 0-26.352941 26.352942v35.117176a26.352941 26.352941 0 0 0 52.705882 0v-35.117176a26.352941 26.352941 0 0 0-26.352941-26.352942z m333.824 35.117177H519.529412a26.352941 26.352941 0 0 0 0 52.705882h193.264941a26.352941 26.352941 0 0 0 0-52.705882z" fill="#568af2" /></svg>