<svg class="icon" style="width: 1em;height: 1em;vertical-align: middle;fill: currentColor;overflow: hidden;" viewBox="0 0 1024 1024" version="1.1" xmlns="http://www.w3.org/2000/svg" width="32" height="32"><path d="M853.112471 356.623059a28.220235 28.220235 0 0 1 5.12 1.204706l1.14447 0.451764 1.234824 0.542118 1.987764 1.024a22.287059 22.287059 0 0 1 3.885177 2.680471 30.72 30.72 0 0 1 3.614118 3.674353l0.301176 0.361411 0.542118 0.752942 0.602353 0.903529 0.180705 0.271059-0.210823-0.301177 0.331294 0.512 0.873412 1.445647a26.232471 26.232471 0 0 1 3.19247 12.589177v456.794353a26.352941 26.352941 0 0 1-26.352941 26.352941H146.823529A26.352941 26.352941 0 0 1 120.470588 839.529412V382.735059c0-5.872941 1.927529-11.294118 5.180236-15.661177l0.090352-0.150588 0.301177-0.391529 0.813176-0.963765 0.120471-0.180706-0.903529 1.174588 1.355294-1.686588 1.204706-1.204706a30.027294 30.027294 0 0 1 5.180235-3.855059 27.166118 27.166118 0 0 1 11.203765-3.373176 27.346824 27.346824 0 0 1 1.445647-0.060235h140.92047a26.352941 26.352941 0 0 1 0 52.705882H225.882353l272.293647 204.227765 272.323765-204.227765h-61.470118a26.352941 26.352941 0 0 1-26.142118-23.04l-0.210823-3.312941c0-14.546824 11.776-26.352941 26.352941-26.352941h140.920471l0.933647 0.060235h0.481882l1.746824 0.180706zM498.206118 180.705882a26.232471 26.232471 0 0 1 18.612706 7.710118l105.411764 105.411765a26.352941 26.352941 0 1 1-37.255529 37.285647l-60.446118-60.446118v182.362353a26.352941 26.352941 0 0 1-52.705882 0V270.667294l-60.416 60.446118a26.352941 26.352941 0 0 1-34.544941 2.349176l-2.710589-2.349176a26.352941 26.352941 0 0 1 0-37.285647l105.411765-105.411765 0.451765-0.421647a26.503529 26.503529 0 0 1 1.566117-1.385412l-2.017882 1.807059a26.563765 26.563765 0 0 1 11.595294-6.746353l0.421647-0.120471a26.262588 26.262588 0 0 1 6.625883-0.843294z" fill="#568af2" /></svg>