<svg class="icon" style="width: 1em;height: 1em;vertical-align: middle;fill: currentColor;overflow: hidden;" viewBox="0 0 1024 1024" version="1.1" xmlns="http://www.w3.org/2000/svg" width="32" height="32"><path d="M276.088471 888.470588a61.500235 61.500235 0 0 1-61.500236-61.500235v-632.470588c0-33.942588 27.527529-61.470118 61.500236-61.470118H768c33.972706 0 61.500235 27.527529 61.500235 61.470118v632.470588A61.500235 61.500235 0 0 1 768 888.470588H276.088471zM407.792941 185.735529h-52.705882V835.764706h52.705882V185.735529zM662.588235 414.117647h-140.559059a26.352941 26.352941 0 0 0-3.312941 52.495059l3.312941 0.210823H662.588235a26.352941 26.352941 0 1 0 0-52.705882z m0-140.559059h-140.559059a26.352941 26.352941 0 0 0-3.312941 52.525177l3.312941 0.180706H662.588235a26.352941 26.352941 0 1 0 0-52.705883z" fill="#568af2" /></svg>