<svg class="icon" style="width: 1em;height: 1em;vertical-align: middle;fill: currentColor;overflow: hidden;" viewBox="0 0 1024 1024" version="1.1" xmlns="http://www.w3.org/2000/svg" width="32" height="32"><path d="M150.588235 848.323765a26.352941 26.352941 0 0 1-26.352941-26.352941v-632.470589c0-14.576941 11.806118-26.352941 26.352941-26.352941h456.794353c14.546824 0 26.352941 11.776 26.352941 26.352941v632.470589a26.352941 26.352941 0 0 1-23.070117 26.142117l-3.312941 0.210824H150.588235z m166.881883-632.470589h-52.705883v579.764706h52.705883V215.853176z m535.853176-52.705882c14.576941 0 26.352941 11.776 26.352941 26.352941v562.176a26.352941 26.352941 0 0 1-7.710117 18.672941L801.731765 840.583529a26.352941 26.352941 0 0 1-37.285647 0l-70.264471-70.26447a26.352941 26.352941 0 0 1-7.710118-18.642824V189.500235c0-14.576941 11.776-26.352941 26.352942-26.352941h140.528941z m-26.352941 105.411765h-87.853177v52.705882h87.853177v-52.705882z" fill="#568af2" /></svg>