<svg class="icon" style="width: 1em;height: 1em;vertical-align: middle;fill: currentColor;overflow: hidden;" viewBox="0 0 1024 1024" version="1.1" xmlns="http://www.w3.org/2000/svg" width="32" height="32"><path d="M544.617412 124.235294c13.312 0 24.515765 9.908706 26.172235 23.070118l14.637177 117.458823H843.294118c14.546824 0 26.352941 11.806118 26.352941 26.383059v562.176a26.352941 26.352941 0 0 1-26.352941 26.352941l-348.099765-0.180706a26.503529 26.503529 0 0 1-4.939294 0.150589l1.65647 0.030117a25.840941 25.840941 0 0 1-19.516235-8.613647l-0.512-0.602353a18.221176 18.221176 0 0 1-2.017882-2.710588 25.118118 25.118118 0 0 1-3.343059-7.348706l-0.210824-0.873412a25.449412 25.449412 0 0 1-0.692705-4.096l-14.546824-116.314353H210.823529a26.352941 26.352941 0 0 1-26.352941-26.322823V150.588235c0-14.546824 11.806118-26.352941 26.352941-26.352941h333.793883z m12.167529 614.881882h-52.585412l6.565647 52.61553 46.019765-52.61553z m-82.432-193.234823H316.235294a26.352941 26.352941 0 0 0-3.312941 52.495059l3.312941 0.210823h158.117647a26.352941 26.352941 0 1 0 0-52.705882z m210.82353 0h-64.602353l6.595764 52.705882h58.006589a26.352941 26.352941 0 1 0 0-52.705882z m-228.382118-140.559059H316.235294a26.352941 26.352941 0 0 0-3.312941 52.525177l3.312941 0.180705h140.559059a26.352941 26.352941 0 0 0 0-52.705882z m228.382118 0h-82.160942l2.891295 23.100235 3.70447 29.605647h75.565177a26.352941 26.352941 0 1 0 0-52.705882z m-245.970824-140.528941H316.235294a26.352941 26.352941 0 0 0-3.312941 52.495059l3.312941 0.210823h122.970353a26.352941 26.352941 0 0 0 0-52.705882z" fill="#568af2" /></svg>