<svg class="icon" style="width: 1em;height: 1em;vertical-align: middle;fill: currentColor;overflow: hidden;" viewBox="0 0 1024 1024" version="1.1" xmlns="http://www.w3.org/2000/svg" width="32" height="32"><path d="M627.440941 124.235294c2.319059 0 4.517647 0.301176 6.625883 0.843294l0.391529 0.090353a26.112 26.112 0 0 1 11.625412 6.776471l175.676235 175.706353 0.662588 0.662588a26.503529 26.503529 0 0 1 1.084236 1.234823l-1.746824-1.897411a26.563765 26.563765 0 0 1 7.529412 15.329882l0.210823 3.312941v491.91153a61.500235 61.500235 0 0 1-61.500235 61.470117H276.088471a61.500235 61.500235 0 0 1-61.500236-61.470117v-632.470589c0-33.972706 27.527529-61.500235 61.500236-61.500235h351.35247z m-140.528941 281.088a131.764706 131.764706 0 1 0 84.329412 232.990118l74.87247 59.934117a26.352941 26.352941 0 0 0 35.568942-38.761411l-2.620236-2.409412-74.87247-59.873882a131.764706 131.764706 0 0 0-117.308236-191.849412z m252.566588-105.411765l-85.684706-85.714823v85.714823h85.684706z" fill="#568af2" /></svg>