<svg class="icon" style="width: 1em;height: 1em;vertical-align: middle;fill: currentColor;overflow: hidden;" viewBox="0 0 1024 1024" version="1.1" xmlns="http://www.w3.org/2000/svg" width="32" height="32"><path d="M611.147294 120.470588c7.469176 0 14.576941 3.162353 19.576471 8.734118l158.117647 175.676235 0.903529 1.054118c0.481882 0.602353 0.903529 1.174588 1.325177 1.807059l-2.228706-2.861177a26.352941 26.352941 0 0 1 4.126117 6.144l0.39153 0.813177a23.973647 23.973647 0 0 1 2.048 7.378823l0.210823 3.312941v158.117647a26.352941 26.352941 0 0 1-52.705882 0l-0.030118-131.794823h-149.323294a26.352941 26.352941 0 0 1-26.352941-26.352941V173.176471H242.206118a8.794353 8.794353 0 0 0-8.553412 6.77647l-0.240941 2.017883v632.470588c0 4.818824 3.915294 8.764235 8.794353 8.764235h210.823529a26.352941 26.352941 0 0 1 0 52.705882h-210.823529A61.500235 61.500235 0 0 1 180.705882 814.441412v-632.470588C180.705882 147.998118 208.233412 120.470588 242.206118 120.470588h368.941176z m76.67953 419.478588l38.128941 83.546353 91.25647 10.480942a26.352941 26.352941 0 0 1 17.136941 43.218823l-2.319058 2.379294-67.674353 62.102588 18.251294 90.051765a26.352941 26.352941 0 0 1-35.960471 29.545412l-2.831059-1.385412-79.99247-45.17647-79.962353 45.17647a26.352941 26.352941 0 0 1-39.243294-25.057882l0.451764-3.132235 18.251295-90.051765-67.674353-62.072471a26.352941 26.352941 0 0 1 11.565176-45.025882l3.252706-0.572235 91.256471-10.480942 38.159058-83.546353a26.352941 26.352941 0 0 1 47.947295 0z m22.256941-243.802352l-90.172236-100.171295v100.171295h90.172236z" fill="#568af2" /></svg>