<svg class="icon" style="width: 1em;height: 1em;vertical-align: middle;fill: currentColor;overflow: hidden;" viewBox="0 0 1024 1024" version="1.1" xmlns="http://www.w3.org/2000/svg" width="32" height="32"><path d="M677.647059 214.588235c33.972706 0 61.500235 27.527529 61.500235 61.500236l-0.030118 105.381647 98.394353-73.788236a26.352941 26.352941 0 0 1 41.984 17.769412l0.180706 3.312941v404.088471a26.352941 26.352941 0 0 1-42.164706 21.082353l-98.394353-73.788235V768a61.500235 61.500235 0 0 1-56.892235 61.319529l-4.577882 0.180706H185.735529A61.500235 61.500235 0 0 1 124.235294 768V276.088471c0-33.972706 27.527529-61.500235 61.500235-61.500236H677.647059z m-333.793883 105.411765a26.352941 26.352941 0 0 0-26.352941 26.352941v140.559059a26.352941 26.352941 0 0 0 52.705883 0V346.352941a26.352941 26.352941 0 0 0-26.352942-26.352941zM256 355.147294a26.352941 26.352941 0 0 0-26.352941 26.352941V451.764706a26.352941 26.352941 0 1 0 52.705882 0v-70.264471a26.352941 26.352941 0 0 0-26.352941-26.352941z m175.676235 0a26.352941 26.352941 0 0 0-26.352941 26.352941V451.764706a26.352941 26.352941 0 0 0 52.705882 0v-70.264471a26.352941 26.352941 0 0 0-26.352941-26.352941z" fill="#568af2" /></svg>