<svg class="icon" style="width: 1em;height: 1em;vertical-align: middle;fill: currentColor;overflow: hidden;" viewBox="0 0 1024 1024" version="1.1" xmlns="http://www.w3.org/2000/svg" width="32" height="32"><path d="M814.441412 210.823529c33.942588 0 61.470118 27.527529 61.470117 61.500236v491.911529a61.500235 61.500235 0 0 1-61.470117 61.500235h-632.470588A61.500235 61.500235 0 0 1 120.470588 764.235294V272.323765C120.470588 238.351059 147.998118 210.823529 181.970824 210.823529h632.470588z m-176.399059 269.643295a26.352941 26.352941 0 0 0-37.104941 3.373176l-2.108236 2.891294a26.352941 26.352941 0 0 0 5.481412 34.213647l83.215059 69.360941-84.992 85.022118a26.352941 26.352941 0 1 0 37.285647 37.255529l105.411765-105.411764a26.352941 26.352941 0 0 0-1.776941-38.851765z m-242.567529 3.373176a26.352941 26.352941 0 0 0-37.135059-3.373176l-105.411765 87.823058a26.352941 26.352941 0 0 0-1.746824 38.881883l105.411765 105.411764a26.352941 26.352941 0 0 0 37.25553 0l2.349176-2.710588a26.352941 26.352941 0 0 0-2.349176-34.544941L308.826353 590.305882l83.245176-69.360941a26.352941 26.352941 0 0 0 3.403295-37.104941z m121.705411-9.456941h-3.222588a26.352941 26.352941 0 0 0-24.094118 21.594353l-35.177411 193.264941a26.352941 26.352941 0 1 0 51.862588 9.426823l35.147294-193.234823a26.352941 26.352941 0 0 0-21.202824-30.659765l-3.312941-0.391529z m297.261177-210.853647h-632.470588a8.794353 8.794353 0 0 0-8.794353 8.794353v79.028706h650.029176V272.323765a8.794353 8.794353 0 0 0-6.746353-8.553412l-2.017882-0.240941z" fill="#568af2" /></svg>