<svg class="icon" style="width: 1em;height: 1em;vertical-align: middle;fill: currentColor;overflow: hidden;" viewBox="0 0 1024 1024" version="1.1" xmlns="http://www.w3.org/2000/svg" width="32" height="32"><path d="M778.029176 184.470588c4.096 0 8.131765 0.963765 11.806118 2.770824 11.535059 5.782588 27.376941 16.986353 43.038118 34.635294 26.051765 29.304471 41.803294 66.680471 41.803294 111.917176 0 45.266824-15.751529 82.642824-41.803294 111.947294-15.661176 17.618824-31.503059 28.822588-43.068236 34.635295a26.352941 26.352941 0 0 1-11.745882 2.770823H180.705882c-27.798588 0-36.653176-37.496471-11.776-49.935059 6.023529-3.011765 16.534588-10.450824 27.226353-22.497882 17.859765-20.088471 28.461176-45.296941 28.461177-76.920471 0-31.623529-10.601412-56.801882-28.461177-76.92047-10.691765-12.016941-21.232941-19.486118-27.226353-22.467765-24.877176-12.438588-16.022588-49.935059 11.776-49.935059h597.323294z m70.294589 386.499765c27.798588 0 36.653176 37.496471 11.776 49.935059-6.023529 3.011765-16.564706 10.450824-27.226353 22.497882-17.859765 20.088471-28.491294 45.296941-28.491294 76.920471 0 31.623529 10.631529 56.801882 28.491294 76.92047 10.691765 12.016941 21.202824 19.486118 27.226353 22.467765 24.877176 12.438588 16.022588 49.935059-11.776 49.935059H250.970353a26.352941 26.352941 0 0 1-11.776-2.770824c-11.565176-5.782588-27.407059-16.986353-43.068235-34.635294-26.021647-29.304471-41.773176-66.680471-41.773177-111.917176 0-45.266824 15.751529-82.642824 41.803294-111.947294 15.661176-17.618824 31.472941-28.822588 43.038118-34.635295a26.352941 26.352941 0 0 1 11.776-2.770823h597.353412z" fill="#568af2" /></svg>