<svg class="icon" style="width: 1em;height: 1em;vertical-align: middle;fill: currentColor;overflow: hidden;" viewBox="0 0 1024 1024" version="1.1" xmlns="http://www.w3.org/2000/svg" width="32" height="32"><path d="M645.029647 124.235294c7.68 0 14.998588 3.373176 19.998118 9.216l158.117647 184.470588c4.096 4.758588 6.324706 10.842353 6.324706 17.136942v518.26447a26.352941 26.352941 0 0 1-26.322824 26.352941H240.941176a26.352941 26.352941 0 0 1-26.352941-26.352941V150.588235c0-14.546824 11.806118-26.352941 26.352941-26.352941h404.088471z m-123.000471 193.264941a202.029176 202.029176 0 1 0 0 404.058353 202.029176 202.029176 0 0 0 0-404.058353z m-122.578823 116.736l207.872 207.902118a149.323294 149.323294 0 0 1-207.872-207.902118z m122.578823-64.030117c38.671059 0 74.992941 14.727529 102.520471 40.749176a148.811294 148.811294 0 0 1 46.832941 108.574118 148.630588 148.630588 0 0 1-26.74447 85.293176l-207.902118-207.872a148.630588 148.630588 0 0 1 85.293176-26.74447z" fill="#568af2" /></svg>