<svg class="icon" style="width: 1em;height: 1em;vertical-align: middle;fill: currentColor;overflow: hidden;" viewBox="0 0 1024 1024" version="1.1" xmlns="http://www.w3.org/2000/svg" width="32" height="32"><path d="M607.382588 124.235294c7.981176 0 15.570824 3.614118 20.570353 9.878588l140.559059 175.706353 0.722824 0.993883 0.692705 0.993882 0.90353 1.415529c0.331294 0.602353 0.662588 1.234824 0.963765 1.897412l0.512 1.144471c0.301176 0.692706 0.572235 1.445647 0.813176 2.228706l0.120471 0.481882 0.12047 0.481882a24.184471 24.184471 0 0 1 0.90353 6.806589v79.058823h43.941647c33.942588 0 61.470118 27.527529 61.470117 61.500235v245.970824a61.500235 61.500235 0 0 1-61.470117 61.470118h-43.941647v79.058823a26.352941 26.352941 0 0 1-26.352942 26.352941H256a26.352941 26.352941 0 0 1-26.352941-26.352941v-79.058823H185.735529a61.500235 61.500235 0 0 1-61.500235-61.470118V466.823529c0-33.972706 27.527529-61.500235 61.500235-61.500235h43.91153V150.588235c0-14.546824 11.806118-26.352941 26.352941-26.352941h351.382588z m114.176 650.029177H282.352941v52.705882h439.205647v-52.705882zM291.147294 493.176471H256a26.352941 26.352941 0 0 0-26.142118 23.04l-0.210823 3.312941v140.559059c0 13.432471 10.059294 24.515765 23.04 26.142117l3.312941 0.210824h35.147294a96.617412 96.617412 0 0 0 0-193.264941z m210.82353 0c-45.598118 0-79.058824 44.634353-79.058824 96.617411 0 51.983059 33.460706 96.647529 79.058824 96.64753 45.568 0 79.058824-44.664471 79.058823-96.64753s-33.490824-96.617412-79.058823-96.617411z m245.940705 0h-35.117176a96.617412 96.617412 0 0 0-5.481412 193.114353l5.481412 0.150588h35.117176a26.352941 26.352941 0 0 0 3.312942-52.525177l-3.312942-0.180706h-35.117176a43.911529 43.911529 0 0 1-4.216471-87.642353l4.216471-0.210823h35.117176a26.352941 26.352941 0 1 0 0-52.705882z m-465.588705 52.705882h8.82447a43.911529 43.911529 0 0 1 4.216471 87.642353l-4.216471 0.210823h-8.82447v-87.883294z m219.648 0c12.649412 0 26.352941 18.281412 26.352941 43.911529s-13.733647 43.941647-26.352941 43.941647c-12.649412 0-26.352941-18.311529-26.352942-43.941647 0-25.6 13.703529-43.911529 26.352942-43.911529z m43.881411-368.971294l-263.499294 0.030117v228.382118h439.205647v-52.705882H572.235294a26.352941 26.352941 0 0 1-26.352941-26.352941l-0.030118-149.353412z m-114.145882 87.883294a26.352941 26.352941 0 1 1 0 52.705882H361.411765a26.352941 26.352941 0 0 1 0-52.705882h70.26447z" fill="#568af2" /></svg>