<svg class="icon" style="width: 1em;height: 1em;vertical-align: middle;fill: currentColor;overflow: hidden;" viewBox="0 0 1024 1024" version="1.1" xmlns="http://www.w3.org/2000/svg" width="32" height="32"><path d="M765.500235 154.352941c12.468706 0 23.250824 8.734118 25.780706 20.992l87.853177 421.647059 0.150588 0.692706a26.352941 26.352941 0 0 1 0.301176 2.048l-0.451764-2.740706a26.533647 26.533647 0 0 1 0.542117 5.360941v228.382118a26.352941 26.352941 0 0 1-26.352941 26.352941H150.588235a26.352941 26.352941 0 0 1-26.352941-26.352941v-228.924235c0-0.722824 0.060235-1.445647 0.150588-2.168471l-0.150588 2.710588a26.503529 26.503529 0 0 1 0.421647-4.668235l0.120471-0.692706 87.853176-421.647059a26.352941 26.352941 0 0 1 25.810824-20.992h527.058823z m-21.443764 52.705883H259.855059l-76.890353 368.941176h159.292235c11.595294 0 21.835294 7.589647 25.208471 18.703059l26.262588 86.708706h216.425412l26.292706-86.708706c3.011765-9.999059 11.625412-17.167059 21.805176-18.492235l3.433412-0.210824h159.232l-76.860235-368.941176z m-238.742589 88.064l1.024 0.150588a26.172235 26.172235 0 0 1 14.245647 7.348706l105.411765 105.411764a26.352941 26.352941 0 1 1-37.255529 37.25553l-60.446118-60.446118v147.245177a26.352941 26.352941 0 0 1-52.705882 0v-147.245177l-60.416 60.446118a26.352941 26.352941 0 0 1-34.544941 2.379294l-2.710589-2.379294a26.352941 26.352941 0 0 1 0-37.25553l105.411765-105.411764 0.602353-0.602353a26.503529 26.503529 0 0 1 1.325176-1.144471l-1.927529 1.746824a26.563765 26.563765 0 0 1 14.034824-7.318589 26.593882 26.593882 0 0 1 7.951058-0.180705z" fill="#568af2" /></svg>