<svg class="icon" style="width: 1em;height: 1em;vertical-align: middle;fill: currentColor;overflow: hidden;" viewBox="0 0 1024 1024" version="1.1" xmlns="http://www.w3.org/2000/svg" width="32" height="32"><path d="M765.500235 553.411765c14.546824 0 26.352941 11.806118 26.352941 26.352941l-0.030117 147.154823 42.887529-42.797176a26.352941 26.352941 0 1 1 37.25553 37.255529l-87.853177 87.853177-0.421647 0.421647a26.503529 26.503529 0 0 1-1.566118 1.385412l1.987765-1.807059a26.563765 26.563765 0 0 1-15.329882 7.529412l-3.312941 0.180705a26.383059 26.383059 0 0 1-6.625883-0.843294l-0.361411-0.090353a26.112 26.112 0 0 1-11.625412-6.77647l-87.853177-87.853177a26.352941 26.352941 0 1 1 37.285647-37.255529l42.827294 42.797176V579.764706c0-14.546824 11.806118-26.352941 26.383059-26.352941z m114.176-61.500236a26.352941 26.352941 0 1 1-52.705882 0v-43.911529H176.941176v272.323765c0 14.546824 11.806118 26.352941 26.352942 26.352941h351.382588a26.352941 26.352941 0 0 1 0 52.705882H203.294118a79.058824 79.058824 0 0 1-79.058824-79.058823V263.529412A79.058824 79.058824 0 0 1 203.294118 184.470588h597.323294a79.058824 79.058824 0 0 1 79.058823 79.058824v228.382117z m-623.676235-210.823529a35.147294 35.147294 0 1 0 0 70.294588 35.147294 35.147294 0 0 0 0-70.294588z m105.411765 0a35.147294 35.147294 0 1 0 0 70.294588 35.147294 35.147294 0 0 0 0-70.294588z" fill="#568af2" /></svg>