<svg class="icon" style="width: 1em;height: 1em;vertical-align: middle;fill: currentColor;overflow: hidden;" viewBox="0 0 1024 1024" version="1.1" xmlns="http://www.w3.org/2000/svg" width="32" height="32"><path d="M712.794353 214.588235c14.546824 0 26.352941 11.806118 26.352941 26.352941l-0.030118 114.176h114.56753a26.503529 26.503529 0 0 1 0.993882 0.060236l-1.355294-0.030118c1.234824 0 2.439529 0.060235 3.614118 0.240941h0.12047l0.752942 0.120471a26.202353 26.202353 0 0 1 2.439529 0.542118l0.120471 0.030117 0.451764 0.150588 2.048 0.692706a26.202353 26.202353 0 0 1 11.535059 8.734118l0.210824 0.301176 0.361411 0.481883a26.383059 26.383059 0 0 1 0.752942 1.174588l-1.325177-1.927529a26.563765 26.563765 0 0 1 5.270588 15.811764v421.647059a26.352941 26.352941 0 0 1-26.352941 26.352941H291.147294a26.352941 26.352941 0 0 1-26.352941-26.352941l-0.030118-114.206118H150.588235A26.352941 26.352941 0 0 1 124.235294 662.588235V240.941176c0-14.546824 11.806118-26.352941 26.352941-26.352941h562.206118zM317.44 434.176v342.618353h509.500235l-0.030117-342.588235-238.893177 179.2a26.352941 26.352941 0 0 1-31.623529 0l-238.953412-179.230118z m456.794353-26.352941H370.176L572.235294 559.375059l202.029177-151.552z" fill="#568af2" /></svg>