<svg class="icon" style="width: 1em;height: 1em;vertical-align: middle;fill: currentColor;overflow: hidden;" viewBox="0 0 1024 1024" version="1.1" xmlns="http://www.w3.org/2000/svg" width="32" height="32"><path d="M879.676235 750.441412a79.058824 79.058824 0 0 1-79.058823 79.058823H203.294118a79.058824 79.058824 0 0 1-79.058824-79.058823V293.647059A79.058824 79.058824 0 0 1 203.294118 214.588235h597.323294a79.058824 79.058824 0 0 1 79.058823 79.058824v456.794353z m-52.705882-272.323765H176.941176v272.323765c0 14.546824 11.806118 26.352941 26.352942 26.352941h597.323294a26.352941 26.352941 0 0 0 26.352941-26.352941v-272.323765zM256 311.205647a35.147294 35.147294 0 1 0 0 70.294588 35.147294 35.147294 0 0 0 0-70.294588z m105.411765 0a35.147294 35.147294 0 1 0 0 70.294588 35.147294 35.147294 0 0 0 0-70.294588z" fill="#568af2" /></svg>