<svg class="icon" style="width: 1em;height: 1em;vertical-align: middle;fill: currentColor;overflow: hidden;" viewBox="0 0 1024 1024" version="1.1" xmlns="http://www.w3.org/2000/svg" width="32" height="32"><path d="M627.440941 124.235294c2.319059 0 4.517647 0.301176 6.625883 0.843294l0.391529 0.090353a26.112 26.112 0 0 1 11.625412 6.776471l175.676235 175.706353 0.662588 0.662588a26.503529 26.503529 0 0 1 1.084236 1.234823l-1.746824-1.897411a26.563765 26.563765 0 0 1 7.529412 15.329882l0.210823 3.312941v491.91153a61.500235 61.500235 0 0 1-61.500235 61.470117H276.088471a61.500235 61.500235 0 0 1-61.500236-61.470117v-632.470589c0-33.972706 27.527529-61.500235 61.500236-61.500235h351.35247z m-105.411765 281.088a96.617412 96.617412 0 0 0-74.541176 158.117647 166.851765 166.851765 0 0 0-92.340706 149.353412 26.352941 26.352941 0 0 0 52.705882 0 114.206118 114.206118 0 0 1 108.303059-114.055529l5.51153-0.180706 0.361411 0.030117h0.512a114.206118 114.206118 0 0 1 113.694118 114.206118 26.352941 26.352941 0 0 0 52.705882 0 166.912 166.912 0 0 0-92.370823-149.383529 96.617412 96.617412 0 0 0-74.511059-158.057412z m0 52.705882a43.911529 43.911529 0 1 1 0 87.853177 43.911529 43.911529 0 0 1 0-87.853177z m131.764706-243.83247v85.714823h85.684706l-85.684706-85.714823z" fill="#568af2" /></svg>