<svg class="icon" style="width: 1em;height: 1em;vertical-align: middle;fill: currentColor;overflow: hidden;" viewBox="0 0 1024 1024" version="1.1" xmlns="http://www.w3.org/2000/svg" width="32" height="32"><path d="M853.323294 184.470588c14.576941 0 26.352941 11.806118 26.352941 26.352941v527.058824a26.352941 26.352941 0 0 1-26.352941 26.352941h-252.626823l-80.112942 80.112941a26.352941 26.352941 0 0 1-34.544941 2.379294l-2.710588-2.379294-80.112941-80.112941H150.588235a26.352941 26.352941 0 0 1-26.142117-23.04l-0.210824-3.312941V210.823529c0-14.546824 11.806118-26.352941 26.352941-26.352941h702.735059z m-262.836706 122.970353h-0.662588a26.292706 26.292706 0 0 0-7.890824 1.204706l-0.873411 0.301177-0.361412 0.12047a26.503529 26.503529 0 0 0-2.198588 0.90353l-0.481883 0.271058-0.843294 0.421647a26.383059 26.383059 0 0 0-9.035294 8.131765l-0.240941 0.361412-0.903529 1.475765a26.413176 26.413176 0 0 0-0.421648 0.722823l-0.331294 0.662588-123.00047 245.970824a26.352941 26.352941 0 0 0 47.164235 23.552l27.828706-55.717647h143.119059l27.858823 55.717647c6.023529 12.047059 19.968 17.468235 32.316236 13.101176l3.041882-1.295058a26.352941 26.352941 0 0 0 11.776-35.358118l-122.970353-245.970824-0.421647-0.843294a26.383059 26.383059 0 0 0-8.252235-9.125647l-0.240942-0.150588-0.963764-0.602353a26.413176 26.413176 0 0 0-1.41553-0.813176l-0.481882-0.240942a26.774588 26.774588 0 0 0-10.480941-2.770823h-0.632471zM361.411765 483.147294h-35.147294a26.352941 26.352941 0 0 0 0 52.705882H361.411765a26.352941 26.352941 0 0 0 0-52.705882z m228.382117-90.443294l45.206589 90.413176h-90.413177l45.206588-90.413176z m-158.117647-50.115765h-105.411764a26.352941 26.352941 0 0 0 0 52.705883h105.411764a26.352941 26.352941 0 1 0 0-52.705883z" fill="#568af2" /></svg>