<svg class="icon" style="width: 1em;height: 1em;vertical-align: middle;fill: currentColor;overflow: hidden;" viewBox="0 0 1024 1024" version="1.1" xmlns="http://www.w3.org/2000/svg" width="32" height="32"><path d="M516.909176 159.021176l351.382589 242.145883c8.041412 5.541647 12.047059 14.757647 11.324235 23.883294a12.468706 12.468706 0 0 1 0.060235 1.626353v383.307294c0 35.237647-26.985412 64.692706-61.470117 64.692706h-632.470589c-34.514824 0-61.500235-29.455059-61.500235-64.692706V426.676706l0.090353-1.626353a26.352941 26.352941 0 0 1 11.294118-23.883294L487.002353 159.021176a26.352941 26.352941 0 0 1 29.906823 0z m-14.96847 53.669648L195.102118 424.176941l306.838588 199.439059 306.838588-199.439059-306.838588-211.486117z" fill="#568af2" /></svg>