<svg class="icon" style="width: 1em;height: 1em;vertical-align: middle;fill: currentColor;overflow: hidden;" viewBox="0 0 1024 1024" version="1.1" xmlns="http://www.w3.org/2000/svg" width="32" height="32"><path d="M520.583529 192.180706l132.848942 132.818823h164.743529c33.972706 0 61.500235 27.557647 61.500235 61.500236v386.529882a61.500235 61.500235 0 0 1-61.470117 61.470118h-632.470589a61.500235 61.500235 0 0 1-61.500235-61.470118V386.499765c0-33.942588 27.527529-61.470118 61.500235-61.470118l164.74353-0.030118 132.818823-132.818823a26.352941 26.352941 0 0 1 37.285647 0z m-88.907294 431.495529H291.147294a26.352941 26.352941 0 0 0-3.312941 52.525177l3.312941 0.180706h140.528941a26.352941 26.352941 0 1 0 0-52.705883z m175.706353-140.528941h-316.235294a26.352941 26.352941 0 0 0-3.312941 52.495059l3.312941 0.210823h316.235294a26.352941 26.352941 0 0 0 0-52.705882z m-105.441882-235.068235l-76.920471 76.92047h153.840941l-76.92047-76.92047z" fill="#568af2" /></svg>