<svg class="icon" style="width: 1em;height: 1em;vertical-align: middle;fill: currentColor;overflow: hidden;" viewBox="0 0 1024 1024" version="1.1" xmlns="http://www.w3.org/2000/svg" width="32" height="32"><path d="M603.617882 120.470588c7.981176 0 15.570824 3.614118 20.570353 9.878588l140.559059 175.706353 0.722824 0.993883 0.692706 0.993882 0.903529 1.41553c0.331294 0.602353 0.662588 1.234824 0.963765 1.897411l0.512 1.144471c0.301176 0.692706 0.572235 1.445647 0.813176 2.228706l0.120471 0.481882 0.12047 0.481882a24.184471 24.184471 0 0 1 0.90353 6.806589v79.058823h43.941647c33.942588 0 61.470118 27.527529 61.470117 61.500236v245.970823a61.500235 61.500235 0 0 1-61.470117 61.470118h-43.941647v79.058823a26.352941 26.352941 0 0 1-26.352941 26.352941H252.235294a26.352941 26.352941 0 0 1-26.352941-26.352941v-79.058823H181.970824A61.500235 61.500235 0 0 1 120.470588 709.029647v-245.970823c0-33.972706 27.527529-61.500235 61.500236-61.500236H225.882353V146.823529c0-14.546824 11.806118-26.352941 26.352941-26.352941h351.382588z m114.176 650.029177H278.588235v52.705882h439.205647v-52.705882z m-185.645176-273.257412l-2.319059 2.710588L498.145882 542.117647l-31.623529-42.164706a26.352941 26.352941 0 0 0-33.882353-7.228235l-3.011765 1.957647a26.352941 26.352941 0 0 0-7.228235 33.882353l1.987765 3.011765 40.809411 54.452705-40.809411 54.482824a26.352941 26.352941 0 0 0 2.529882 34.544941l2.710588 2.349177a26.352941 26.352941 0 0 0 34.575059-2.56l2.349177-2.710589 31.593411-42.164705 31.62353 42.164705a26.352941 26.352941 0 0 0 33.91247 7.228236l3.011765-1.957647a26.352941 26.352941 0 0 0 7.228235-33.912471l-1.957647-3.011765-40.869647-54.452706 40.869647-54.452705a26.352941 26.352941 0 0 0-2.56-34.544942l-2.710588-2.349176a26.352941 26.352941 0 0 0-34.575059 2.56z m-174.501647-7.830588h-105.411765a26.352941 26.352941 0 0 0-3.312941 52.495059l3.312941 0.210823h26.352941v114.206118c0 13.432471 10.059294 24.515765 23.04 26.142117l3.312941 0.210824a26.352941 26.352941 0 0 0 26.142118-23.070118l0.210824-3.312941V542.117647l26.352941 0.030118a26.352941 26.352941 0 0 0 26.142117-23.04l0.210824-3.312941a26.352941 26.352941 0 0 0-26.352941-26.352942z m386.499765 0h-105.411765a26.352941 26.352941 0 0 0-3.312941 52.495059l3.312941 0.210823h26.352941v114.206118c0 13.432471 10.059294 24.515765 23.070118 26.142117l3.312941 0.210824a26.352941 26.352941 0 0 0 26.142117-23.070118l0.180706-3.312941V542.117647l26.352942 0.030118a26.352941 26.352941 0 0 0 26.172235-23.04l0.180706-3.312941a26.352941 26.352941 0 0 0-26.352941-26.352942zM542.117647 173.146353l-263.529412 0.030118v228.382117h439.205647v-52.705882h-149.323294a26.352941 26.352941 0 0 1-26.352941-26.352941V173.176471z m-114.206118 87.883294a26.352941 26.352941 0 1 1 0 52.705882h-70.26447a26.352941 26.352941 0 0 1 0-52.705882h70.26447z" fill="#568af2" /></svg>