<svg class="icon" style="width: 1em;height: 1em;vertical-align: middle;fill: currentColor;overflow: hidden;" viewBox="0 0 1024 1024" version="1.1" xmlns="http://www.w3.org/2000/svg" width="32" height="32"><path d="M505.735529 180.705882c179.501176 0 324.999529 145.528471 324.99953 325.029647 0 80.263529-29.093647 153.720471-77.281883 210.432l90.051765 90.051765a26.352941 26.352941 0 0 1-37.285647 37.285647l-90.051765-90.051765a323.734588 323.734588 0 0 1-210.432 77.281883C326.234353 830.735059 180.705882 685.236706 180.705882 505.735529S326.234353 180.705882 505.735529 180.705882z m90.744471 196.156236h-175.676235a26.352941 26.352941 0 0 0-3.312941 52.495058l3.312941 0.210824h61.470117v219.617882c0 13.432471 10.059294 24.515765 23.04 26.142118l3.312942 0.210824a26.352941 26.352941 0 0 0 26.142117-23.04l0.210824-3.312942v-219.617882h61.500235a26.352941 26.352941 0 0 0 26.142118-23.04l0.210823-3.312941a26.352941 26.352941 0 0 0-26.352941-26.352941z" fill="#568af2" /></svg>