<svg class="icon" style="width: 1em;height: 1em;vertical-align: middle;fill: currentColor;overflow: hidden;" viewBox="0 0 1024 1024" version="1.1" xmlns="http://www.w3.org/2000/svg" width="32" height="32"><path d="M614.912 124.235294c7.469176 0 14.576941 3.162353 19.576471 8.734118l158.117647 175.676235 0.903529 1.054118c0.481882 0.602353 0.903529 1.174588 1.325177 1.807059l-2.228706-2.861177a26.352941 26.352941 0 0 1 4.126117 6.144l0.39153 0.813177a23.973647 23.973647 0 0 1 2.048 7.378823l0.210823 3.312941v158.117647a26.352941 26.352941 0 0 1-52.705882 0l-0.030118-131.794823h-149.323294a26.352941 26.352941 0 0 1-26.352941-26.352941V176.941176H245.970824a8.794353 8.794353 0 0 0-8.553412 6.776471l-0.240941 2.017882v632.470589c0 4.818824 3.915294 8.764235 8.794353 8.764235h210.823529a26.352941 26.352941 0 0 1 0 52.705882h-210.823529a61.500235 61.500235 0 0 1-61.500236-61.470117v-632.470589c0-33.972706 27.527529-61.500235 61.500236-61.500235h368.941176z m35.117176 439.205647c46.08 0 89.509647 22.678588 129.656471 59.693177a368.128 368.128 0 0 1 50.356706 57.404235 26.352941 26.352941 0 0 1 0 29.364706 368.128 368.128 0 0 1-50.326588 57.404235c-40.176941 36.984471-83.606588 59.663059-129.686589 59.663059-46.08 0-89.479529-22.678588-129.65647-59.663059a368.128 368.128 0 0 1-50.326588-57.404235 26.352941 26.352941 0 0 1 0-29.364706 368.128 368.128 0 0 1 50.326588-57.404235c40.176941-37.014588 83.576471-59.693176 129.65647-59.693177z m0 96.64753a35.147294 35.147294 0 1 0 0 70.26447 35.147294 35.147294 0 0 0 0-70.26447z m63.819295-360.176942l-90.172236-100.171294v100.171294h90.172236z" fill="#568af2" /></svg>