<svg class="icon" style="width: 1em;height: 1em;vertical-align: middle;fill: currentColor;overflow: hidden;" viewBox="0 0 1024 1024" version="1.1" xmlns="http://www.w3.org/2000/svg" width="32" height="32"><path d="M627.440941 124.235294c2.319059 0 4.517647 0.301176 6.625883 0.843294l0.391529 0.090353a26.112 26.112 0 0 1 11.625412 6.776471l175.676235 175.706353 0.662588 0.662588a26.503529 26.503529 0 0 1 1.084236 1.234823l-1.746824-1.897411a26.563765 26.563765 0 0 1 7.529412 15.329882l0.210823 3.312941v491.91153a61.500235 61.500235 0 0 1-61.500235 61.470117H276.088471a61.500235 61.500235 0 0 1-61.500236-61.470117v-632.470589c0-33.972706 27.527529-61.500235 61.500236-61.500235h351.35247z m-105.411765 263.529412a26.352941 26.352941 0 0 0-26.142117 23.04l-0.210824 3.312941v29.424941a113.543529 113.543529 0 0 0-33.581176 13.914353l-26.804706-26.834823a26.352941 26.352941 0 0 0-39.664941 34.575058l2.379294 2.710589 26.804706 26.804706a113.543529 113.543529 0 0 0-13.914353 33.581176h-29.394824a26.352941 26.352941 0 0 0-3.312941 52.525177l3.312941 0.210823h29.394824c2.680471 11.324235 7.047529 21.985882 12.8 31.713882l-30.840471 30.840471a26.352941 26.352941 0 0 0 34.544941 39.604706l2.710589-2.349177 30.117647-30.117647c10.721882 6.927059 22.678588 12.047059 35.44847 15.058824v29.424941a26.352941 26.352941 0 0 0 52.525177 3.312941l0.180706-3.312941 0.030117-29.394823a113.543529 113.543529 0 0 0 33.581177-13.914353l28.943059 28.943058a26.352941 26.352941 0 0 0 39.634823-34.575058l-2.349176-2.710589-28.973177-28.912941c6.324706-10.24 11.083294-21.564235 13.914353-33.611294H662.588235a26.352941 26.352941 0 0 0 3.312941-52.525176l-3.312941-0.180706-29.424941-0.030118a113.543529 113.543529 0 0 0-15.058823-35.418353l24.967529-24.997647a26.352941 26.352941 0 0 0-34.575059-39.604706l-2.710588 2.349177-25.690353 25.690353a113.483294 113.483294 0 0 0-31.683765-12.769883v-29.424941a26.352941 26.352941 0 0 0-26.383059-26.352941z m217.449412-87.853177l-85.684706-85.714823v85.714823h85.684706z m-217.449412 193.264942a61.500235 61.500235 0 1 0 0 122.970353 61.500235 61.500235 0 0 0 0-122.970353z" fill="#568af2" /></svg>