<svg class="icon" style="width: 1em;height: 1em;vertical-align: middle;fill: currentColor;overflow: hidden;" viewBox="0 0 1024 1024" version="1.1" xmlns="http://www.w3.org/2000/svg" width="32" height="32"><path d="M734.117647 120.470588c33.972706 0 61.500235 27.527529 61.500235 61.500236v182.663529a26.352941 26.352941 0 0 1-52.705882 0V181.970824a8.794353 8.794353 0 0 0-8.794353-8.794353H242.206118a8.794353 8.794353 0 0 0-8.794353 8.794353v632.470588c0 4.818824 3.915294 8.764235 8.794353 8.764235h175.676235a26.352941 26.352941 0 0 1 0 52.705882H242.206118A61.500235 61.500235 0 0 1 180.705882 814.441412v-632.470588C180.705882 147.998118 208.233412 120.470588 242.206118 120.470588h491.911529z m-70.264471 351.382588a202.029176 202.029176 0 0 1 202.029177 202.029177l-0.150588 6.475294v0.602353a202.059294 202.059294 0 0 1-194.800941 194.861176l-7.077648 0.090353a202.029176 202.029176 0 0 1 0-404.058353z m-122.578823 116.736l207.872 207.872a150.166588 150.166588 0 0 0 37.285647-37.285647l-207.872-207.902117a150.166588 150.166588 0 0 0-37.315765 37.315764z m-105.833412-169.441882a26.352941 26.352941 0 1 1 0 52.705882h-87.823059a26.352941 26.352941 0 0 1 0-52.705882h87.823059z m140.559059-123.00047a26.352941 26.352941 0 1 1 0 52.705882h-228.382118a26.352941 26.352941 0 1 1 0-52.705882h228.382118z" fill="#568af2" /></svg>