<svg class="icon" style="width: 1em;height: 1em;vertical-align: middle;fill: currentColor;overflow: hidden;" viewBox="0 0 1024 1024" version="1.1" xmlns="http://www.w3.org/2000/svg" width="32" height="32"><path d="M737.882353 124.235294c33.972706 0 61.500235 27.527529 61.500235 61.500235v260.758589a26.352941 26.352941 0 0 1-52.705882 0V185.735529a8.794353 8.794353 0 0 0-8.794353-8.794353H245.970824a8.794353 8.794353 0 0 0-8.794353 8.794353v632.470589c0 4.818824 3.915294 8.764235 8.794353 8.764235H527.058824a26.352941 26.352941 0 0 1 0 52.705882H245.970824a61.500235 61.500235 0 0 1-61.500236-61.470117v-632.470589c0-33.972706 27.527529-61.500235 61.500236-61.500235H737.882353z m13.854118 451.192471a131.824941 131.824941 0 0 1 16.775529 165.857882l57.765647 57.765647a26.352941 26.352941 0 1 1-37.255529 37.25553l-57.825883-57.73553a131.824941 131.824941 0 0 1-165.797647-203.143529 131.764706 131.764706 0 0 1 186.337883 0zM421.647059 651.294118a26.352941 26.352941 0 1 1 0 52.705882h-105.411765a26.352941 26.352941 0 1 1 0-52.705882H421.647059z m0-105.411765a26.352941 26.352941 0 1 1 0 52.705882h-105.411765a26.352941 26.352941 0 1 1 0-52.705882H421.647059z m-52.705883-245.970824c14.546824 0 26.352941 11.806118 26.352942 26.352942v26.352941H421.647059a26.352941 26.352941 0 0 1 0 52.705882h-26.352941v26.352941a26.352941 26.352941 0 1 1-52.705883 0v-26.352941H316.235294a26.352941 26.352941 0 1 1 0-52.705882h26.352941v-26.352941c0-14.546824 11.806118-26.352941 26.352941-26.352942z m298.676706 52.705883a26.352941 26.352941 0 0 1 0 52.705882h-105.411764a26.352941 26.352941 0 1 1 0-52.705882h105.411764z" fill="#568af2" /></svg>