<svg class="icon" style="width: 1em;height: 1em;vertical-align: middle;fill: currentColor;overflow: hidden;" viewBox="0 0 1024 1024" version="1.1" xmlns="http://www.w3.org/2000/svg" width="32" height="32"><path d="M768 124.235294c33.972706 0 61.500235 27.527529 61.500235 61.500235v632.470589a61.500235 61.500235 0 0 1-61.500235 61.470117H276.088471a61.500235 61.500235 0 0 1-61.500236-61.470117v-632.470589c0-33.972706 27.527529-61.500235 61.500236-61.500235H768zM416.617412 264.794353a26.352941 26.352941 0 0 0-26.352941 26.352941v43.91153H346.352941a26.352941 26.352941 0 0 0-26.142117 23.04l-0.210824 3.312941c0 14.546824 11.806118 26.352941 26.352941 26.352941h43.91153v87.823059H346.352941a26.352941 26.352941 0 0 0-26.142117 23.070117l-0.210824 3.312942c0 14.546824 11.806118 26.352941 26.352941 26.352941l43.91153-0.030118v87.853177H346.352941a26.352941 26.352941 0 0 0-26.142117 23.070117l-0.210824 3.312941c0 14.546824 11.806118 26.322824 26.352941 26.322824h43.91153v43.941647c0 13.432471 10.059294 24.515765 23.070117 26.142118l3.312941 0.210823a26.352941 26.352941 0 0 0 26.322824-26.352941v-43.941647h254.765176a26.352941 26.352941 0 0 0 26.142118-23.04l0.210824-3.312941a26.352941 26.352941 0 0 0-26.352942-26.352941h-254.765176v-87.853177h254.765176a26.352941 26.352941 0 0 0 26.142118-23.04l0.210824-3.312941a26.352941 26.352941 0 0 0-26.352942-26.322824l-254.765176-0.030117v-87.823059h254.765176a26.352941 26.352941 0 0 0 26.142118-23.04l0.210824-3.312941a26.352941 26.352941 0 0 0-26.352942-26.352941h-254.765176V291.147294a26.352941 26.352941 0 0 0-23.04-26.172235z" fill="#568af2" /></svg>