<svg class="icon" style="width: 1em;height: 1em;vertical-align: middle;fill: currentColor;overflow: hidden;" viewBox="0 0 1024 1024" version="1.1" xmlns="http://www.w3.org/2000/svg" width="32" height="32"><path d="M210.823529 405.323294c14.546824 0 26.352941 11.806118 26.352942 26.352941v395.294118H579.764706c13.432471 0 24.515765 10.059294 26.142118 23.070118l0.210823 3.312941a26.352941 26.352941 0 0 1-26.352941 26.322823H210.823529a26.352941 26.352941 0 0 1-26.352941-26.352941v-421.647059c0-14.546824 11.806118-26.352941 26.352941-26.352941z m404.088471-281.088h0.391529a26.503529 26.503529 0 0 1 1.92753 0.090353l-2.319059-0.090353a26.563765 26.563765 0 0 1 19.425882 8.553412l193.234824 210.823529a26.804706 26.804706 0 0 1 6.746353 14.486589l0.030117 0.512a26.473412 26.473412 0 0 1 0.150589 1.686588V747.911529a26.352941 26.352941 0 0 1-26.352941 26.352942H316.235294a26.352941 26.352941 0 0 1-26.352941-26.352942V150.588235c0-14.546824 11.806118-26.352941 26.352941-26.352941h298.676706z m17.558588 421.647059h-210.823529a26.352941 26.352941 0 0 0-3.312941 52.495059l3.312941 0.210823h210.823529a26.352941 26.352941 0 1 0 0-52.705882z m-140.559059-140.559059H421.647059a26.352941 26.352941 0 0 0-3.312941 52.525177l3.312941 0.180705h70.26447a26.352941 26.352941 0 1 0 0-52.705882z m149.323295-187.00047v116.736h107.008l-107.008-116.736z" fill="#568af2" /></svg>