<svg class="icon" style="width: 1em;height: 1em;vertical-align: middle;fill: currentColor;overflow: hidden;" viewBox="0 0 1024 1024" version="1.1" xmlns="http://www.w3.org/2000/svg" width="32" height="32"><path d="M603.617882 120.470588c7.981176 0 15.570824 3.614118 20.570353 9.878588l140.559059 175.706353 0.722824 0.993883 0.692706 0.993882 0.903529 1.41553c0.331294 0.602353 0.662588 1.234824 0.963765 1.897411l0.512 1.144471c0.301176 0.692706 0.572235 1.445647 0.813176 2.228706l0.120471 0.481882 0.12047 0.481882a24.184471 24.184471 0 0 1 0.90353 6.806589v79.058823h43.941647c33.942588 0 61.470118 27.527529 61.470117 61.500236v245.970823a61.500235 61.500235 0 0 1-61.470117 61.470118h-43.941647v79.058823a26.352941 26.352941 0 0 1-26.352941 26.352941H252.235294a26.352941 26.352941 0 0 1-26.352941-26.352941v-79.058823H181.970824A61.500235 61.500235 0 0 1 120.470588 709.029647v-245.970823c0-33.972706 27.527529-61.500235 61.500236-61.500236H225.882353V146.823529c0-14.546824 11.806118-26.352941 26.352941-26.352941h351.382588z m114.176 650.029177H278.588235v52.705882h439.205647v-52.705882z m-237.17647-281.088h-35.117177a26.352941 26.352941 0 0 0-26.172235 23.04l-0.180706 3.312941v140.559059c0 13.432471 10.029176 24.515765 23.04 26.142117l3.312941 0.210824h35.117177a96.617412 96.617412 0 0 0 0-193.264941z m-166.881883 0H252.235294a26.352941 26.352941 0 0 0-26.142118 23.04l-0.210823 3.312941v140.559059a26.352941 26.352941 0 0 0 52.495059 3.312941l0.210823-3.312941v-26.383059h35.147294c37.195294 0 67.644235-28.882824 70.113883-65.445647l0.150588-4.818824a70.264471 70.264471 0 0 0-70.264471-70.26447z m412.852706 0h-87.853176a26.352941 26.352941 0 0 0-26.142118 23.04l-0.210823 3.312941v140.559059c0 13.432471 10.059294 24.515765 23.070117 26.142117l3.312941 0.210824 3.312942-0.210824a26.352941 26.352941 0 0 0 22.829176-22.859294l0.180706-3.312941v-26.352941h61.500235a26.352941 26.352941 0 0 0 26.142118-23.04l0.210823-3.312941a26.352941 26.352941 0 0 0-23.04-26.142118l-3.312941-0.180706h-61.500235V542.117647h61.500235a26.352941 26.352941 0 1 0 0-52.705882zM471.823059 542.117647h8.794353a43.911529 43.911529 0 0 1 4.21647 87.642353l-4.21647 0.210824h-8.794353v-87.883295zM278.588235 542.117647h35.147294a17.558588 17.558588 0 0 1 2.831059 34.906353l-2.831059 0.240941H278.588235v-35.177412zM542.117647 173.116235l-263.529412 0.030118v228.382118h439.205647v-52.705883h-149.323294a26.352941 26.352941 0 0 1-26.352941-26.352941V173.176471z m-114.206118 87.883294a26.352941 26.352941 0 1 1 0 52.705883h-70.26447a26.352941 26.352941 0 0 1 0-52.705883h70.26447z" fill="#568af2" /></svg>