<svg class="icon" style="width: 1em;height: 1em;vertical-align: middle;fill: currentColor;overflow: hidden;" viewBox="0 0 1024 1024" version="1.1" xmlns="http://www.w3.org/2000/svg" width="32" height="32"><path d="M426.676706 184.470588c7.830588 0 15.239529 3.463529 20.239059 9.487059l79.932235 95.924706H813.176471c32.406588 0 58.970353 25.088 61.319529 56.922353l0.180706 4.577882v456.764236A61.500235 61.500235 0 0 1 813.176471 869.647059H215.853176a61.500235 61.500235 0 0 1-61.500235-61.500235V245.970824c0-33.972706 27.527529-61.500235 61.500235-61.500236h210.82353z m228.382118 281.088l-3.312942 0.210824a26.352941 26.352941 0 0 0-23.04 26.142117v79.058824h-191.156706l42.88753-42.857412a26.352941 26.352941 0 0 0 2.349176-34.544941l-2.349176-2.710588a26.352941 26.352941 0 0 0-37.25553 0l-87.853176 87.853176a26.804706 26.804706 0 0 0-5.872941 8.914824 26.262588 26.262588 0 0 0 3.19247 25.20847l0.301177 0.421647 0.63247 0.783059a26.503529 26.503529 0 0 0 1.144471 1.295059l0.602353 0.632471 87.853176 87.853176a26.352941 26.352941 0 0 0 37.25553 0l2.349176-2.710588a26.352941 26.352941 0 0 0-2.349176-34.575059l-42.857412-42.857412h217.47953a26.352941 26.352941 0 0 0 26.142117-23.04l0.210824-3.312941v-105.411765a26.352941 26.352941 0 0 0-26.352941-26.352941z" fill="#568af2" /></svg>