<svg class="icon" style="width: 1em;height: 1em;vertical-align: middle;fill: currentColor;overflow: hidden;" viewBox="0 0 1024 1024" version="1.1" xmlns="http://www.w3.org/2000/svg" width="32" height="32"><path d="M210.823529 658.823529c14.546824 0 26.352941 11.806118 26.352942 26.352942v105.411764c0 14.546824 11.806118 26.352941 26.352941 26.352941h105.411764a26.352941 26.352941 0 1 1 0 52.705883h-105.411764a79.058824 79.058824 0 0 1-79.058824-79.058824v-105.411764c0-14.546824 11.806118-26.352941 26.352941-26.352942z m632.470589 0c14.546824 0 26.352941 11.806118 26.352941 26.352942v105.411764a79.058824 79.058824 0 0 1-79.058824 79.058824h-105.411764a26.352941 26.352941 0 1 1 0-52.705883h105.411764a26.352941 26.352941 0 0 0 26.352941-26.352941v-105.411764c0-14.546824 11.806118-26.352941 26.352942-26.352942zM632.470588 433.694118c20.660706 0.692706 36.080941 6.625882 46.290824 17.829647l2.921412 3.493647 2.891294 4.186353c11.565176 18.010353 10.661647 35.629176 1.746823 46.772706l-2.198588 2.439529-157.093647 157.033412-0.512-0.512-57.404235-57.404236-2.861177-2.861176-2.951529-2.951529-41.502118-41.502118-9.637647-9.637647-42.164706-42.164706c-11.655529-11.655529-13.161412-32.557176 2.469647-53.398588 15.119059-20.178824 50.688-24.094118 69.692235-11.444706 3.794824 2.680471 7.047529 5.059765 9.728 7.107765l2.499765 1.957647 0.632471 0.512 2.228706 1.807058 1.415529 1.144471 3.734588 2.981647 4.397177 3.46353c18.371765 14.034824 35.388235 20.600471 60.265412 20.60047 24.877176 0 41.863529-6.565647 60.265411-20.60047 3.011765-2.319059 14.486588-11.565176 12.408471-9.938824 3.102118-2.439529 5.722353-4.487529 8.342588-6.324706l3.885177-2.710588L632.470588 433.694118z m158.117647-249.22353a79.058824 79.058824 0 0 1 79.058824 79.058824v105.411764a26.352941 26.352941 0 1 1-52.705883 0v-105.411764a26.352941 26.352941 0 0 0-26.352941-26.352941h-105.411764a26.352941 26.352941 0 1 1 0-52.705883h105.411764z m-421.647059 0a26.352941 26.352941 0 1 1 0 52.705883h-105.411764a26.352941 26.352941 0 0 0-26.352941 26.352941v105.411764a26.352941 26.352941 0 1 1-52.705883 0v-105.411764A79.058824 79.058824 0 0 1 263.529412 184.470588h105.411764z" fill="#568af2" /></svg>