<svg class="icon" style="width: 1em;height: 1em;vertical-align: middle;fill: currentColor;overflow: hidden;" viewBox="0 0 1024 1024" version="1.1" xmlns="http://www.w3.org/2000/svg" width="32" height="32"><path d="M667.708235 475.557647a202.089412 202.089412 0 1 1 0 404.178824 202.089412 202.089412 0 0 1 0-404.178824zM737.882353 124.235294c33.972706 0 61.500235 27.527529 61.500235 61.500235v182.66353a26.352941 26.352941 0 0 1-52.705882 0V185.735529a8.794353 8.794353 0 0 0-8.794353-8.794353H245.970824a8.794353 8.794353 0 0 0-8.794353 8.794353v632.470589c0 4.818824 3.915294 8.764235 8.794353 8.764235H421.647059a26.352941 26.352941 0 0 1 0 52.705882H245.970824a61.500235 61.500235 0 0 1-61.500236-61.470117v-632.470589c0-33.972706 27.527529-61.500235 61.500236-61.500235H737.882353zM667.557647 686.381176a26.352941 26.352941 0 0 0-26.142118 23.04l-0.210823 3.312942v52.705882a26.352941 26.352941 0 0 0 52.495059 3.312941l0.210823-3.312941v-52.705882a26.352941 26.352941 0 0 0-26.352941-26.352942z m0-114.145882a35.087059 35.087059 0 1 0 0 70.174118 35.087059 35.087059 0 0 0 0-70.174118z m-228.352-149.323294a26.352941 26.352941 0 1 1 0 52.705882h-87.823059a26.352941 26.352941 0 0 1 0-52.705882h87.823059z m140.559059-123.000471a26.352941 26.352941 0 1 1 0 52.705883h-228.382118a26.352941 26.352941 0 1 1 0-52.705883h228.382118z" fill="#568af2" /></svg>