<svg class="icon" style="width: 1em;height: 1em;vertical-align: middle;fill: currentColor;overflow: hidden;" viewBox="0 0 1024 1024" version="1.1" xmlns="http://www.w3.org/2000/svg" width="32" height="32"><path d="M614.912 124.235294c7.469176 0 14.576941 3.162353 19.576471 8.734118l158.117647 175.676235 0.903529 1.054118c0.481882 0.602353 0.903529 1.174588 1.325177 1.807059l-2.228706-2.861177a26.352941 26.352941 0 0 1 4.126117 6.144l0.39153 0.813177a23.973647 23.973647 0 0 1 2.048 7.378823l0.210823 3.312941v158.117647a26.352941 26.352941 0 0 1-52.705882 0l-0.030118-131.794823h-149.323294a26.352941 26.352941 0 0 1-26.352941-26.352941V176.941176H245.970824a8.794353 8.794353 0 0 0-8.553412 6.776471l-0.240941 2.017882v632.470589c0 4.818824 3.915294 8.764235 8.794353 8.764235h210.823529a26.352941 26.352941 0 0 1 0 52.705882h-210.823529a61.500235 61.500235 0 0 1-61.500236-61.470117v-632.470589c0-33.972706 27.527529-61.500235 61.500236-61.500235h368.941176z m52.705882 421.647059c14.546824 0 26.352941 11.806118 26.352942 26.352941v29.424941c11.324235 2.650353 21.985882 7.017412 31.713882 12.769883l25.690353-25.690353a26.352941 26.352941 0 0 1 37.255529 37.255529l-24.997647 24.997647c6.927059 10.721882 12.077176 22.648471 15.119059 35.418353h29.394824a26.352941 26.352941 0 1 1 0 52.705882h-29.394824a113.543529 113.543529 0 0 1-13.914353 33.611295l28.943059 28.973176a26.352941 26.352941 0 1 1-37.25553 37.255529l-28.973176-28.943058a113.543529 113.543529 0 0 1-33.581176 13.914353v29.394823a26.352941 26.352941 0 0 1-52.705883 0l-0.030117-29.394823a113.543529 113.543529 0 0 1-35.418353-15.088942l-30.117647 30.117647a26.352941 26.352941 0 1 1-37.285648-37.255529l30.840471-30.840471a113.483294 113.483294 0 0 1-12.769882-31.713882H527.058824a26.352941 26.352941 0 0 1 0-52.705882l29.424941-0.030118c2.831059-12.047059 7.589647-23.341176 13.914353-33.581176l-26.834824-26.804706a26.352941 26.352941 0 0 1 37.25553-37.285647l26.834823 26.804706a113.543529 113.543529 0 0 1 33.581177-13.884236V572.235294c0-14.546824 11.806118-26.352941 26.383058-26.352941z m46.230589-245.970824l-90.172236-100.171294v100.171294h90.172236z" fill="#568af2" /></svg>