<svg class="icon" style="width: 1em;height: 1em;vertical-align: middle;fill: currentColor;overflow: hidden;" viewBox="0 0 1024 1024" version="1.1" xmlns="http://www.w3.org/2000/svg" width="32" height="32"><path d="M875.911529 510.735059v295.484235c0 35.237647-26.985412 64.692706-61.470117 64.692706h-632.470588C147.456 870.912 120.470588 841.456941 120.470588 806.219294v-295.454118a26.352941 26.352941 0 0 1 40.719059-22.106352l337.016471 219.015529 337.01647-219.015529a26.352941 26.352941 0 0 1 40.688941 22.076235zM173.176471 559.284706v246.964706c0 7.107765 4.457412 11.986824 8.794353 11.986823h632.470588c4.306824 0 8.764235-4.879059 8.764235-11.986823V559.284706L512.602353 761.223529a26.352941 26.352941 0 0 1-25.359059 1.867295l-3.373176-1.867295L173.176471 559.284706z" fill="#568af2" /><path d="M307.561412 364.182588a26.352941 26.352941 0 0 1 29.906823 43.369412l-175.676235 121.072941a26.352941 26.352941 0 1 1-29.906824-43.369412l175.676236-121.072941zM652.197647 370.928941a26.352941 26.352941 0 0 1 36.653177-6.746353l175.676235 121.072941a26.352941 26.352941 0 0 1-29.906824 43.369412l-175.676235-121.072941a26.352941 26.352941 0 0 1-6.746353-36.623059z" fill="#568af2" /><path d="M673.882353 150.588235c14.546824 0 26.352941 11.806118 26.352941 26.352941v428.93553c0 20.781176-10.541176 40.207059-27.979294 51.561412l-140.559059 91.346823c-20.359529 13.251765-46.622118 13.251765-67.011765 0l-140.559058-91.346823a61.500235 61.500235 0 0 1-27.979294-51.561412V176.941176c0-14.546824 11.806118-26.352941 26.352941-26.352941h351.382588z m-105.411765 245.970824h-140.559059a26.352941 26.352941 0 1 0 0 52.705882h140.559059a26.352941 26.352941 0 0 0 0-52.705882z m-70.26447-105.411765h-70.294589a26.352941 26.352941 0 1 0 0 52.705882h70.294589a26.352941 26.352941 0 0 0 0-52.705882z" fill="#568af2" /></svg>