<svg class="icon" style="width: 1em;height: 1em;vertical-align: middle;fill: currentColor;overflow: hidden;" viewBox="0 0 1024 1024" version="1.1" xmlns="http://www.w3.org/2000/svg" width="32" height="32"><path d="M426.676706 184.470588c7.830588 0 15.239529 3.463529 20.239059 9.487059l79.932235 95.924706H813.176471c32.406588 0 58.970353 25.088 61.319529 56.922353l0.180706 4.577882v456.764236A61.500235 61.500235 0 0 1 813.176471 869.647059H215.853176a61.500235 61.500235 0 0 1-61.500235-61.500235V245.970824c0-33.972706 27.527529-61.500235 61.500235-61.500236h210.82353z m87.823059 544.617412a26.292706 26.292706 0 0 0 19.937882-9.095529l104.116706-104.026353a26.352941 26.352941 0 1 0-37.255529-37.285647l-60.446118 60.325647v-182.211765a26.352941 26.352941 0 0 0-23.04-26.172235l-3.312941-0.180706a26.352941 26.352941 0 0 0-26.352941 26.352941v182.482823l-60.416-60.355764a26.352941 26.352941 0 0 0-34.575059-2.349177l-2.710589 2.379294a26.352941 26.352941 0 0 0 0.030118 37.25553l105.291294 105.170823c5.12 5.150118 11.896471 7.710118 18.612706 7.710118z" fill="#568af2" /></svg>