<svg class="icon" style="width: 1em;height: 1em;vertical-align: middle;fill: currentColor;overflow: hidden;" viewBox="0 0 1024 1024" version="1.1" xmlns="http://www.w3.org/2000/svg" width="32" height="32"><path d="M730.352941 518.264471c14.546824 0 26.352941 11.806118 26.352941 26.352941l0.030118 48.429176c9.246118 3.282824 17.679059 8.222118 24.997647 14.456471l41.953882-24.214588a26.352941 26.352941 0 0 1 26.352942 45.658353l-41.953883 24.18447a79.510588 79.510588 0 0 1 0 28.912941l41.953883 24.244706a26.352941 26.352941 0 1 1-26.352942 45.628235l-41.984-24.18447c-7.288471 6.234353-15.721412 11.143529-24.967529 14.426353l-0.030118 48.429176a26.352941 26.352941 0 1 1-52.705882 0v-48.429176a78.968471 78.968471 0 0 1-25.027765-14.456471l-41.953882 24.214588a26.352941 26.352941 0 0 1-26.352941-45.628235l41.953882-24.244706a79.510588 79.510588 0 0 1 0-28.912941l-41.953882-24.18447a26.352941 26.352941 0 0 1 26.352941-45.658353l41.984 24.214588c7.288471-6.264471 15.751529-11.173647 24.997647-14.456471v-48.429176c0-14.546824 11.806118-26.352941 26.352941-26.352941z m70.264471-333.793883a79.058824 79.058824 0 0 1 79.058823 79.058824v211.847529a26.352941 26.352941 0 1 1-52.705882 0v-27.376941H176.941176v272.323765c0 14.546824 11.806118 26.352941 26.352942 26.352941h298.676706a26.352941 26.352941 0 0 1 0 52.705882H203.294118a79.058824 79.058824 0 0 1-79.058824-79.058823V263.529412A79.058824 79.058824 0 0 1 203.294118 184.470588h597.323294zM730.352941 641.264941a26.352941 26.352941 0 1 0 0 52.705883 26.352941 26.352941 0 0 0 0-52.705883zM256 281.088a35.147294 35.147294 0 1 0 0 70.294588 35.147294 35.147294 0 0 0 0-70.294588z m105.411765 0a35.147294 35.147294 0 1 0 0 70.294588 35.147294 35.147294 0 0 0 0-70.294588z" fill="#568af2" /></svg>