<svg class="icon" style="width: 1em;height: 1em;vertical-align: middle;fill: currentColor;overflow: hidden;" viewBox="0 0 1024 1024" version="1.1" xmlns="http://www.w3.org/2000/svg" width="32" height="32"><path d="M702.735059 154.352941c14.576941 0 26.352941 11.806118 26.352941 26.352941v456.794353a26.352941 26.352941 0 0 1-23.04 26.142118l-3.312941 0.210823H316.235294A79.269647 79.269647 0 0 0 240.941176 718.848l-1.355294 4.577882a79.058824 79.058824 0 0 0 76.649412 98.514824h465.558588V215.883294c0-13.432471 10.059294-24.545882 23.070118-26.172235l3.312941-0.180706c14.546824 0 26.322824 11.776 26.322824 26.352941v632.470588a26.352941 26.352941 0 0 1-26.352941 26.352942H316.235294a131.764706 131.764706 0 0 1-131.764706-131.764706V286.117647A131.764706 131.764706 0 0 1 316.235294 154.352941h386.499765z m-17.558588 562.206118a26.352941 26.352941 0 1 1 0 52.705882H333.793882a26.352941 26.352941 0 0 1 0-52.705882H685.176471z" fill="#568af2" /></svg>