<svg class="icon" style="width: 1em;height: 1em;vertical-align: middle;fill: currentColor;overflow: hidden;" viewBox="0 0 1024 1024" version="1.1" xmlns="http://www.w3.org/2000/svg" width="32" height="32"><path d="M421.586824 191.126588l143.781647 127.819294 159.744-93.786353c21.323294-12.528941 45.929412 8.463059 38.430117 30.870589l-1.174588 2.921411-80.233412 173.537883 143.540706 127.578353c18.070588 16.082824 6.625882 45.387294-16.474353 46.049882l-3.222588-0.090353-192.271059-16.052706-71.378823 158.72c-9.908706 21.985882-40.96 19.937882-48.790589-1.596235l-0.963764-3.373177-33.340236-146.672941-229.767529 230.098824a26.352941 26.352941 0 0 1-37.285647-37.25553l223.382588-223.713882-154.202353-12.860235c-24.395294-2.017882-32.617412-32.737882-14.155294-46.98353l2.710588-1.807058 168.508236-101.888-40.116706-186.277648c-5.360941-24.907294 24.244706-42.164706 43.279059-25.238588z" fill="#568af2" /></svg>