<svg class="icon" style="width: 1em;height: 1em;vertical-align: middle;fill: currentColor;overflow: hidden;" viewBox="0 0 1024 1024" version="1.1" xmlns="http://www.w3.org/2000/svg" width="32" height="32"><path d="M627.440941 124.235294c2.319059 0 4.517647 0.301176 6.625883 0.843294l0.391529 0.090353a26.112 26.112 0 0 1 11.625412 6.776471l175.676235 175.706353 0.662588 0.662588a26.503529 26.503529 0 0 1 1.084236 1.234823l-1.746824-1.897411a26.563765 26.563765 0 0 1 7.529412 15.329882l0.210823 3.312941v491.91153a61.500235 61.500235 0 0 1-61.500235 61.470117H276.088471a61.500235 61.500235 0 0 1-61.500236-61.470117v-632.470589c0-33.972706 27.527529-61.500235 61.500236-61.500235h351.35247z m-105.411765 263.529412c-59.241412 0-94.147765 41.682824-96.496941 91.25647l-0.12047 5.360942v43.911529h-26.352941a26.352941 26.352941 0 0 0-26.142118 23.070118l-0.210824 3.312941v140.528941c0 13.432471 10.059294 24.545882 23.04 26.172235l3.312942 0.180706h245.970823a26.352941 26.352941 0 0 0 26.142118-23.04l0.210823-3.312941v-140.528941a26.352941 26.352941 0 0 0-23.070117-26.172235l-3.312942-0.180706-26.352941-0.030118v-43.911529c0-50.115765-32.828235-93.515294-90.352941-96.466824l-6.264471-0.150588z m0 52.705882c27.437176 0 42.164706 16.594824 43.791059 39.544471l0.150589 4.367059-0.030118 43.911529h-87.823059v-43.911529c0-23.702588 13.071059-41.682824 38.912-43.730824l4.999529-0.180706z m217.449412-140.559059l-85.684706-85.714823v85.714823h85.684706z" fill="#568af2" /></svg>