<svg class="icon" style="width: 1em;height: 1em;vertical-align: middle;fill: currentColor;overflow: hidden;" viewBox="0 0 1024 1024" version="1.1" xmlns="http://www.w3.org/2000/svg" width="32" height="32"><path d="M765.500235 553.411765a26.232471 26.232471 0 0 1 18.612706 7.710117l87.853177 87.853177a26.352941 26.352941 0 0 1-37.25553 37.255529l-42.887529-42.857412v147.215059a26.352941 26.352941 0 0 1-52.705883 0v-147.215059l-42.827294 42.857412a26.352941 26.352941 0 0 1-34.575058 2.379294l-2.710589-2.379294a26.352941 26.352941 0 0 1 0-37.255529l87.853177-87.853177 0.451764-0.421647a26.503529 26.503529 0 0 1 1.566118-1.385411l-2.017882 1.807058a26.563765 26.563765 0 0 1 11.595294-6.746353l0.421647-0.12047a26.262588 26.262588 0 0 1 6.625882-0.843294z m35.117177-368.941177a79.058824 79.058824 0 0 1 79.058823 79.058824v211.847529a26.352941 26.352941 0 1 1-52.705882 0v-27.376941H176.941176v272.323765c0 14.546824 11.806118 26.352941 26.352942 26.352941H572.235294a26.352941 26.352941 0 1 1 0 52.705882H203.294118a79.058824 79.058824 0 0 1-79.058824-79.058823V263.529412A79.058824 79.058824 0 0 1 203.294118 184.470588h597.323294zM256 281.088a35.147294 35.147294 0 1 0 0 70.294588 35.147294 35.147294 0 0 0 0-70.294588z m105.411765 0a35.147294 35.147294 0 1 0 0 70.294588 35.147294 35.147294 0 0 0 0-70.294588z" fill="#568af2" /></svg>