<svg class="icon" style="width: 1em;height: 1em;vertical-align: middle;fill: currentColor;overflow: hidden;" viewBox="0 0 1024 1024" version="1.1" xmlns="http://www.w3.org/2000/svg" width="32" height="32"><path d="M614.912 124.235294c7.469176 0 14.576941 3.162353 19.576471 8.734118l158.117647 175.676235 0.903529 1.054118c0.481882 0.602353 0.903529 1.174588 1.325177 1.807059l-2.228706-2.861177a26.352941 26.352941 0 0 1 4.126117 6.144l0.39153 0.813177a23.973647 23.973647 0 0 1 2.048 7.378823l0.210823 3.312941v158.117647a26.352941 26.352941 0 0 1-52.705882 0l-0.030118-131.794823h-149.323294a26.352941 26.352941 0 0 1-26.352941-26.352941V176.941176H245.970824a8.794353 8.794353 0 0 0-8.553412 6.776471l-0.240941 2.017882v632.470589c0 4.818824 3.915294 8.764235 8.794353 8.764235h210.823529a26.352941 26.352941 0 0 1 0 52.705882h-210.823529a61.500235 61.500235 0 0 1-61.500236-61.470117v-632.470589c0-33.972706 27.527529-61.500235 61.500236-61.500235h368.941176z m192.361412 497.874824c11.264 9.216 12.950588 25.810824 3.70447 37.074823l-158.117647 193.264941a26.352941 26.352941 0 0 1-37.255529 3.553883l-105.411765-87.823059a26.352941 26.352941 0 0 1 33.731765-40.508235l84.961882 70.77647 141.312-172.634353a26.352941 26.352941 0 0 1 37.074824-3.70447z" fill="#568af2" /></svg>