<svg class="icon" style="width: 1em;height: 1em;vertical-align: middle;fill: currentColor;overflow: hidden;" viewBox="0 0 1024 1024" version="1.1" xmlns="http://www.w3.org/2000/svg" width="32" height="32"><path d="M645.029647 124.235294c14.546824 0 26.352941 11.806118 26.352941 26.352941l-0.030117 26.352941H768c33.972706 0 61.500235 27.527529 61.500235 61.500236v579.764706a61.500235 61.500235 0 0 1-61.500235 61.470117H276.088471a61.500235 61.500235 0 0 1-61.500236-61.470117V238.441412c0-33.972706 27.527529-61.500235 61.500236-61.500236h96.617411V150.588235c0-14.546824 11.806118-26.352941 26.352942-26.352941h245.970823z m-51.651765 271.23953a26.352941 26.352941 0 0 0-37.285647 0L415.563294 536.094118l-2.198588 2.439529c-13.251765 16.805647-1.505882 42.526118 20.841412 42.526118h112.097882l-95.593412 95.593411a26.352941 26.352941 0 1 0 37.25553 37.25553l140.619294-140.559059 2.16847-2.439529c13.281882-16.805647 1.566118-42.556235-20.781176-42.556236h-112.158118l95.563294-95.563294a26.352941 26.352941 0 0 0 0-37.285647z m25.268706-218.533648h-193.234823v52.705883h193.234823v-52.705883z" fill="#568af2" /></svg>