<svg class="icon" style="width: 1em;height: 1em;vertical-align: middle;fill: currentColor;overflow: hidden;" viewBox="0 0 1024 1024" version="1.1" xmlns="http://www.w3.org/2000/svg" width="32" height="32"><path d="M677.647059 184.470588c14.546824 0 26.352941 11.806118 26.352941 26.352941v43.91153h114.206118c33.942588 0 61.470118 27.527529 61.470117 61.500235v456.794353a61.500235 61.500235 0 0 1-61.470117 61.470118h-632.470589a61.500235 61.500235 0 0 1-61.500235-61.470118V316.235294c0-33.972706 27.527529-61.500235 61.500235-61.500235h114.176V210.823529a26.352941 26.352941 0 0 1 52.705883 0v43.91153h298.676706V210.823529c0-14.546824 11.806118-26.352941 26.352941-26.352941z m0 439.205647H326.264471a26.352941 26.352941 0 0 0-3.312942 52.525177l3.312942 0.180706H677.647059a26.352941 26.352941 0 1 0 0-52.705883z m-158.117647-140.528941h-193.264941a26.352941 26.352941 0 0 0-3.312942 52.495059l3.312942 0.210823h193.264941a26.352941 26.352941 0 0 0 0-52.705882z" fill="#568af2" /></svg>