<svg class="icon" style="width: 1em;height: 1em;vertical-align: middle;fill: currentColor;overflow: hidden;" viewBox="0 0 1024 1024" version="1.1" xmlns="http://www.w3.org/2000/svg" width="32" height="32"><path d="M849.558588 180.705882h0.301177c0.662588 0 1.325176 0.030118 1.957647 0.090353L849.558588 180.705882a26.593882 26.593882 0 0 1 6.927059 0.90353l0.632471 0.210823a24.214588 24.214588 0 0 1 2.288941 0.783059l0.813176 0.361412a26.112 26.112 0 0 1 11.294118 9.487059l0.150588 0.240941 0.481883 0.783059 0.873411 1.536-1.355294-2.319059a26.533647 26.533647 0 0 1 4.246588 14.366118v456.794352a184.470588 184.470588 0 0 1-358.4 61.500236H146.793412A26.352941 26.352941 0 0 1 120.470588 698.940235V206.155294l0.120471-1.807059-0.120471 2.710589a26.503529 26.503529 0 0 1 3.915294-13.763765l0.331294-0.602353 0.180706-0.240941a26.443294 26.443294 0 0 1 1.114353-1.536l-1.295059 1.807059a26.593882 26.593882 0 0 1 17.167059-11.565177A34.334118 34.334118 0 0 1 146.522353 180.705882h703.036235z m-138.902588 427.008l-2.710588 2.349177-70.264471 70.294588a26.352941 26.352941 0 0 0 34.575059 39.604706l2.710588-2.349177 70.264471-70.26447a26.352941 26.352941 0 0 0-34.575059-39.634824z m112.549647-352.075294L512.602353 457.517176a26.352941 26.352941 0 0 1-28.732235 0L173.176471 255.608471v417.008941h334.004705a184.470588 184.470588 0 0 1 316.054589-137.878588V255.638588z m-62.584471-22.226823H235.700706l262.475294 170.586353 262.445176-170.586353z" fill="#568af2" /></svg>