<svg class="icon" style="width: 1em;height: 1em;vertical-align: middle;fill: currentColor;overflow: hidden;" viewBox="0 0 1024 1024" version="1.1" xmlns="http://www.w3.org/2000/svg" width="32" height="32"><path d="M316.235294 888.470588a61.500235 61.500235 0 0 1-61.500235-61.500235v-114.176H210.823529a26.352941 26.352941 0 0 1 0-52.705882h43.91153v-123.000471H210.823529a26.352941 26.352941 0 1 1 0-52.705882h43.91153V361.411765H210.823529a26.352941 26.352941 0 1 1 0-52.705883h43.91153V194.499765c0-33.942588 27.527529-61.470118 61.500235-61.470118h491.91153c33.972706 0 61.500235 27.527529 61.500235 61.470118v632.470588a61.500235 61.500235 0 0 1-61.500235 61.500235H316.235294zM727.582118 185.735529h-49.694118a26.202353 26.202353 0 0 0-1.295059 5.481412l-0.210823 3.312941v632.470589c0 3.072 0.542118 6.023529 1.505882 8.794353h49.694118a26.202353 26.202353 0 0 0 1.325176-5.51153l0.180706-3.312941v-632.470588c0-3.072-0.512-6.023529-1.505882-8.764236z" fill="#568af2" /></svg>