<svg class="icon" style="width: 1em;height: 1em;vertical-align: middle;fill: currentColor;overflow: hidden;" viewBox="0 0 1024 1024" version="1.1" xmlns="http://www.w3.org/2000/svg" width="32" height="32"><path d="M627.440941 124.235294c6.987294 0 13.703529 2.770824 18.672941 7.710118l175.646118 175.706353a26.352941 26.352941 0 0 1 7.740235 18.612706v491.941647a61.500235 61.500235 0 0 1-61.500235 61.470117H276.088471a61.500235 61.500235 0 0 1-61.500236-61.470117v-632.470589c0-33.972706 27.527529-61.500235 61.500236-61.500235h351.35247z m40.809412 281.690353a26.352941 26.352941 0 0 0-31.292235 20.239059l-36.954353 172.483765-54.241883-108.483765-1.897411-3.222588a26.352941 26.352941 0 0 0-45.236706 3.222588l-54.272 108.513882-36.954353-172.513882a26.352941 26.352941 0 1 0-51.531294 11.053176l52.705882 245.940706 0.903529 3.343059c7.408941 21.383529 37.827765 24.154353 48.429177 2.921412l64.271059-128.572235 64.271059 128.602352c11.143529 22.287059 44.122353 18.070588 49.332705-6.294588l52.705883-245.940706a26.352941 26.352941 0 0 0-20.239059-31.322353z" fill="#568af2" /></svg>