<svg class="icon" style="width: 1em;height: 1em;vertical-align: middle;fill: currentColor;overflow: hidden;" viewBox="0 0 1024 1024" version="1.1" xmlns="http://www.w3.org/2000/svg" width="32" height="32"><path d="M426.676706 184.470588c7.830588 0 15.239529 3.463529 20.239059 9.487059l79.932235 95.924706H813.176471c32.406588 0 58.970353 25.088 61.319529 56.922353l0.180706 4.577882v158.117647a26.352941 26.352941 0 0 1-52.705882 0v-158.117647a8.794353 8.794353 0 0 0-8.794353-8.794353h-298.676706a26.352941 26.352941 0 0 1-20.239059-9.487059l-79.932235-95.924705h-198.475295a8.794353 8.794353 0 0 0-8.553411 6.77647l-0.240941 2.017883v562.176c0 4.848941 3.915294 8.794353 8.794352 8.794352h263.529412a26.352941 26.352941 0 0 1 0 52.705883h-263.529412a61.500235 61.500235 0 0 1-61.500235-61.500235V245.970824c0-33.972706 27.527529-61.500235 61.500235-61.500236h210.82353z m271.36 387.704471a877.387294 877.387294 0 0 1 54.422588 19.06447c9.999059 3.885176 19.064471 7.68 26.955294 11.354353 29.816471 13.914353 42.556235 22.829176 42.556236 43.941647 0 63.849412-22.046118 118.663529-58.518589 164.080942-21.835294 27.166118-43.821176 45.417412-59.331764 55.055058a26.352941 26.352941 0 0 1-27.858824 0c-15.510588-9.637647-37.466353-27.888941-59.331765-55.055058-36.442353-45.417412-58.488471-100.231529-58.48847-164.080942 0-21.082353 12.739765-30.027294 42.526117-43.941647 7.890824-3.674353 16.956235-7.469176 26.985412-11.38447a877.387294 877.387294 0 0 1 54.422588-19.034353 26.352941 26.352941 0 0 1 15.661177 0z" fill="#568af2" /></svg>