<svg class="icon" style="width: 1em;height: 1em;vertical-align: middle;fill: currentColor;overflow: hidden;" viewBox="0 0 1024 1024" version="1.1" xmlns="http://www.w3.org/2000/svg" width="32" height="32"><path d="M768 124.235294c33.972706 0 61.500235 27.527529 61.500235 61.500235v632.470589a61.500235 61.500235 0 0 1-61.500235 61.470117H276.088471a61.500235 61.500235 0 0 1-61.500236-61.470117v-632.470589c0-33.972706 27.527529-61.500235 61.500236-61.500235H768zM363.911529 642.499765a35.147294 35.147294 0 1 0 0 70.294588 35.147294 35.147294 0 0 0 0-70.294588z m316.235295 8.794353h-210.82353a26.352941 26.352941 0 0 0 0 52.705882h210.82353a26.352941 26.352941 0 1 0 0-52.705882z m-316.235295-184.470589a35.147294 35.147294 0 1 0 0 70.264471 35.147294 35.147294 0 0 0 0-70.264471z m316.235295 8.794353h-210.82353a26.352941 26.352941 0 0 0 0 52.705883h210.82353a26.352941 26.352941 0 0 0 0-52.705883z m-316.235295-184.470588a35.147294 35.147294 0 1 0 0 70.264471 35.147294 35.147294 0 0 0 0-70.264471z m316.235295 8.764235h-210.82353a26.352941 26.352941 0 0 0 0 52.705883h210.82353a26.352941 26.352941 0 1 0 0-52.705883z" fill="#568af2" /></svg>