<svg class="icon" style="width: 1em;height: 1em;vertical-align: middle;fill: currentColor;overflow: hidden;" viewBox="0 0 1024 1024" version="1.1" xmlns="http://www.w3.org/2000/svg" width="32" height="32"><path d="M768 124.235294c33.972706 0 61.500235 27.527529 61.500235 61.500235v632.470589a61.500235 61.500235 0 0 1-61.500235 61.470117H276.088471a61.500235 61.500235 0 0 1-61.500236-61.470117v-632.470589c0-33.972706 27.527529-61.500235 61.500236-61.500235H768z m-245.970824 562.206118H399.058824a26.352941 26.352941 0 1 0 0 52.705882h122.970352a26.352941 26.352941 0 0 0 0-52.705882z m123.000471-105.411765H399.058824a26.352941 26.352941 0 1 0 0 52.705882h245.970823a26.352941 26.352941 0 0 0 0-52.705882z m-123.000471-316.235294a26.352941 26.352941 0 0 0-26.352941 26.352941v61.470118h-61.470117a26.352941 26.352941 0 0 0-26.172236 23.070117l-0.180706 3.312942c0 14.546824 11.776 26.322824 26.352942 26.322823h61.470117V466.823529c0 13.432471 10.059294 24.515765 23.070118 26.142118l3.312941 0.210824a26.352941 26.352941 0 0 0 26.322824-26.352942v-61.500235h61.500235a26.352941 26.352941 0 0 0 26.142118-23.04l0.210823-3.312941a26.352941 26.352941 0 0 0-26.352941-26.352941h-61.500235V291.147294a26.352941 26.352941 0 0 0-23.04-26.172235z" fill="#568af2" /></svg>