<svg class="icon" style="width: 1em;height: 1em;vertical-align: middle;fill: currentColor;overflow: hidden;" viewBox="0 0 1024 1024" version="1.1" xmlns="http://www.w3.org/2000/svg" width="32" height="32"><path d="M829.500235 853.323294a26.352941 26.352941 0 0 1-26.352941 26.352941H311.205647A96.617412 96.617412 0 0 1 214.588235 783.058824V256c0-73.185882 62.494118-131.764706 138.782118-131.764706h449.776941c14.546824 0 26.352941 11.806118 26.352941 26.352941v702.735059z m-52.736-114.176H353.370353c-26.624 0-45.086118 0.572235-57.886118 2.891294a43.971765 43.971765 0 0 0-28.009411 36.803765l-0.180706 4.216471c0 24.244706 19.666824 43.911529 43.911529 43.911529h465.558588v-87.823059z" fill="#568af2" /></svg>