<svg class="icon" style="width: 1em;height: 1em;vertical-align: middle;fill: currentColor;overflow: hidden;" viewBox="0 0 1024 1024" version="1.1" xmlns="http://www.w3.org/2000/svg" width="32" height="32"><path d="M501.970824 150.588235a35.147294 35.147294 0 0 1 3.824941 70.053647l-3.824941 0.210824h-263.529412c-8.734118 0-15.962353 6.384941-17.347765 14.727529l-0.240941 2.861177v388.818823l134.927059-123.663059a61.500235 61.500235 0 0 1 81.558588-1.355294l118.633412 101.677177 81.498353-81.468235a61.500235 61.500235 0 0 1 80.353882-5.722353L783.058824 565.699765v-63.698824l0.210823-3.824941a35.147294 35.147294 0 0 1 69.872941 0l0.180706 3.824941v263.529412H783.058824v-133.963294l-96.828236-72.613647a8.794353 8.794353 0 0 0-11.504941 0.813176l-78.607059 78.576941 63.548236 54.482824a26.352941 26.352941 0 0 1-34.334118 40.026353l-222.268235-190.554353a8.794353 8.794353 0 0 0-11.65553 0.180706L220.852706 698.729412v66.770823H150.588235v-527.058823l0.150589-5.180236A87.853176 87.853176 0 0 1 238.441412 150.588235h263.529412z m210.823529 8.794353a131.764706 131.764706 0 1 1 0 263.529412 131.764706 131.764706 0 0 1 0-263.529412z m-71.378824 97.67153a79.058824 79.058824 0 0 0 100.171295 107.730823l5.300705-2.288941-105.441882-105.411765z m71.378824-44.965647c-10.179765 0-19.907765 1.927529-28.852706 5.421176l-5.240471 2.288941 105.411765 105.441883a79.058824 79.058824 0 0 0-71.378823-113.152zM233.261176 853.172706A87.853176 87.853176 0 0 1 150.588235 765.500235h70.264471c0 9.697882 7.890824 17.558588 17.588706 17.558589h527.058823v70.26447h-527.058823z m532.239059 0.150588a87.853176 87.853176 0 0 0 87.823059-87.823059H783.058824a17.558588 17.558588 0 0 1-17.558589 17.558589v70.26447z" fill="#568af2" /></svg>