<svg class="icon" style="width: 1em;height: 1em;vertical-align: middle;fill: currentColor;overflow: hidden;" viewBox="0 0 1024 1024" version="1.1" xmlns="http://www.w3.org/2000/svg" width="32" height="32"><path d="M426.676706 184.470588c7.830588 0 15.239529 3.463529 20.239059 9.487059l79.932235 95.924706H813.176471c32.406588 0 58.970353 25.088 61.319529 56.922353l0.180706 4.577882v456.764236A61.500235 61.500235 0 0 1 813.176471 869.647059H215.853176a61.500235 61.500235 0 0 1-61.500235-61.500235V245.970824c0-33.972706 27.527529-61.500235 61.500235-61.500236h210.82353z m176.730353 288.828236a26.352941 26.352941 0 0 0-37.25553 0l-2.349176 2.710588a26.352941 26.352941 0 0 0 2.349176 34.544941l69.180236 69.180235-69.180236 69.240471a26.352941 26.352941 0 0 0 37.25553 37.255529l87.853176-87.823059a26.352941 26.352941 0 0 0 0-37.285647z m-140.528941 0a26.352941 26.352941 0 0 0-37.285647 0l-87.823059 87.823058a26.352941 26.352941 0 0 0 0 37.285647l87.823059 87.823059a26.352941 26.352941 0 0 0 37.285647 0l2.349176-2.710588a26.352941 26.352941 0 0 0-2.349176-34.544941l-69.240471-69.240471 69.240471-69.180235a26.352941 26.352941 0 0 0 0-37.255529z" fill="#568af2" /></svg>