<svg class="icon" style="width: 1em;height: 1em;vertical-align: middle;fill: currentColor;overflow: hidden;" viewBox="0 0 1024 1024" version="1.1" xmlns="http://www.w3.org/2000/svg" width="32" height="32"><path d="M627.440941 124.235294c6.987294 0 13.703529 2.770824 18.672941 7.710118l175.646118 175.706353a26.352941 26.352941 0 0 1 7.740235 18.612706v491.941647a61.500235 61.500235 0 0 1-61.500235 61.470117H276.088471a61.500235 61.500235 0 0 1-61.500236-61.470117v-632.470589c0-33.972706 27.527529-61.500235 61.500236-61.500235h351.35247z m0 245.970824h-210.823529a26.352941 26.352941 0 0 0-26.081883 22.528l-0.060235 0.512-0.210823 3.312941V677.647059a26.352941 26.352941 0 0 0 52.525176 3.312941l0.180706-3.312941v-114.236235l184.500706-0.120471a26.352941 26.352941 0 0 0 26.142117-23.04l0.180706-3.312941v-140.378353a26.352941 26.352941 0 0 0-26.352941-26.352941z m-26.352941 52.705882v87.702588l-158.027294 0.090353-0.090353-87.792941h158.117647z" fill="#568af2" /></svg>