<svg class="icon" style="width: 1em;height: 1em;vertical-align: middle;fill: currentColor;overflow: hidden;" viewBox="0 0 1024 1024" version="1.1" xmlns="http://www.w3.org/2000/svg" width="32" height="32"><path d="M753.272471 184.470588c10.330353 0 19.696941 6.023529 24.003764 15.420236l100.050824 219.617882c4.216471 9.306353 2.710588 20.208941-3.915294 28.009412L522.029176 860.370824a26.352941 26.352941 0 0 1-40.146823 0L130.529882 447.548235a26.352941 26.352941 0 0 1-3.915294-28.009411l100.050824-219.617883a26.352941 26.352941 0 0 1 23.973647-15.420235h502.663529z m-93.244236 217.47953a26.352941 26.352941 0 0 0-37.225411 2.198588l-120.862118 135.920941-120.832-135.920941a26.352941 26.352941 0 0 0-39.393882 34.996706l140.559058 158.117647a26.352941 26.352941 0 0 0 39.393883 0l140.528941-158.117647a26.352941 26.352941 0 0 0-2.168471-37.195294z" fill="#568af2" /></svg>