<svg class="icon" style="width: 1em;height: 1em;vertical-align: middle;fill: currentColor;overflow: hidden;" viewBox="0 0 1024 1024" version="1.1" xmlns="http://www.w3.org/2000/svg" width="32" height="32"><path d="M768 124.235294c33.972706 0 61.500235 27.527529 61.500235 61.500235v632.470589a61.500235 61.500235 0 0 1-61.500235 61.470117H276.088471a61.500235 61.500235 0 0 1-61.500236-61.470117v-632.470589c0-33.972706 27.527529-61.500235 61.500236-61.500235H768z m-105.411765 527.058824h-281.088a26.352941 26.352941 0 0 0-3.312941 52.495058l3.312941 0.210824H662.588235a26.352941 26.352941 0 1 0 0-52.705882z m-105.411764-105.411765h-175.676236a26.352941 26.352941 0 0 0-3.312941 52.495059l3.312941 0.210823H557.176471a26.352941 26.352941 0 1 0 0-52.705882z m8.764235-368.971294h-210.82353v254.795294l0.210824 3.312941a26.383059 26.383059 0 0 0 41.050353 18.432l2.620235-2.078118 61.530353-54.723764 61.560471 54.723764a26.352941 26.352941 0 0 0 43.670588-16.353882l0.210824-3.312941-0.030118-254.795294z m-52.705882 0.030117v196.065883l-35.177412-31.292235-2.831059-2.198589a26.352941 26.352941 0 0 0-32.195765 2.198589l-35.177412 31.262117V176.941176h105.411765z" fill="#568af2" /></svg>