<svg class="icon" style="width: 1em;height: 1em;vertical-align: middle;fill: currentColor;overflow: hidden;" viewBox="0 0 1024 1024" version="1.1" xmlns="http://www.w3.org/2000/svg" width="32" height="32"><path d="M747.911529 553.411765a131.764706 131.764706 0 1 1 0 263.529411 131.764706 131.764706 0 0 1 0-263.529411z m131.764706-78.004706a26.352941 26.352941 0 1 1-52.705882 0v-27.407059H176.941176v272.323765c0 14.546824 11.806118 26.352941 26.352942 26.352941h316.235294a26.352941 26.352941 0 1 1 0 52.705882H203.294118a79.058824 79.058824 0 0 1-79.058824-79.058823V263.529412A79.058824 79.058824 0 0 1 203.294118 184.470588h597.323294a79.058824 79.058824 0 0 1 79.058823 79.058824v211.847529z m-203.113411 175.676235a79.058824 79.058824 0 0 0 100.171294 107.730824l5.270588-2.288942-105.411765-105.441882z m71.378823-44.965647c-10.179765 0-19.907765 1.927529-28.852706 5.421177l-5.270588 2.288941 105.441882 105.441882a79.058824 79.058824 0 0 0-71.378823-113.152zM256 281.088a35.147294 35.147294 0 1 0 0 70.294588 35.147294 35.147294 0 0 0 0-70.294588z m105.411765 0a35.147294 35.147294 0 1 0 0 70.294588 35.147294 35.147294 0 0 0 0-70.294588z" fill="#568af2" /></svg>