<svg class="icon" style="width: 1em;height: 1em;vertical-align: middle;fill: currentColor;overflow: hidden;" viewBox="0 0 1024 1024" version="1.1" xmlns="http://www.w3.org/2000/svg" width="32" height="32"><path d="M696.289882 631.416471a26.352941 26.352941 0 0 1 0 37.255529l-51.651764 51.621647 51.651764 51.651765c9.426824 9.456941 10.24 24.244706 2.349177 34.575059l-2.349177 2.710588a26.352941 26.352941 0 0 1-37.285647 0l-70.26447-70.294588a26.352941 26.352941 0 0 1 0-37.25553l70.26447-70.26447a26.352941 26.352941 0 0 1 37.285647 0z m105.411765 0l70.264471 70.26447a26.352941 26.352941 0 0 1 0 37.25553L801.731765 809.261176a26.352941 26.352941 0 1 1-37.285647-37.285647l51.621647-51.651764-51.621647-51.621647a26.352941 26.352941 0 0 1-2.349177-34.575059l2.349177-2.710588a26.352941 26.352941 0 0 1 37.285647 0z m-1.084235-446.945883a79.058824 79.058824 0 0 1 79.058823 79.058824v261.451294a26.352941 26.352941 0 1 1-52.705882 0v-76.980706H176.941176v272.323765c0 14.546824 11.806118 26.352941 26.352942 26.352941h281.088a26.352941 26.352941 0 1 1 0 52.705882H203.294118a79.058824 79.058824 0 0 1-79.058824-79.058823V263.529412A79.058824 79.058824 0 0 1 203.294118 184.470588h597.323294zM256 281.088a35.147294 35.147294 0 1 0 0 70.294588 35.147294 35.147294 0 0 0 0-70.294588z m105.411765 0a35.147294 35.147294 0 1 0 0 70.294588 35.147294 35.147294 0 0 0 0-70.294588z" fill="#568af2" /></svg>