<svg class="icon" style="width: 1em;height: 1em;vertical-align: middle;fill: currentColor;overflow: hidden;" viewBox="0 0 1024 1024" version="1.1" xmlns="http://www.w3.org/2000/svg" width="32" height="32"><path d="M627.440941 124.235294c2.319059 0 4.517647 0.301176 6.625883 0.843294l0.391529 0.090353a26.112 26.112 0 0 1 11.625412 6.776471l175.676235 175.706353 0.662588 0.662588a26.503529 26.503529 0 0 1 1.084236 1.234823l-1.746824-1.897411a26.563765 26.563765 0 0 1 7.529412 15.329882l0.210823 3.312941v491.91153a61.500235 61.500235 0 0 1-61.500235 61.470117H276.088471a61.500235 61.500235 0 0 1-61.500236-61.470117v-632.470589c0-33.972706 27.527529-61.500235 61.500236-61.500235h351.35247z m-44.032 298.676706H346.352941a26.352941 26.352941 0 0 0-26.142117 23.04l-0.210824 3.312941V677.647059c0 13.432471 10.059294 24.515765 23.04 26.142117l3.312941 0.210824h237.025883l3.312941-0.210824a26.352941 26.352941 0 0 0 22.859294-22.829176l0.210823-3.312941-0.030117-23.130353 78.546823 30.147765a26.352941 26.352941 0 0 0 35.599059-21.38353l0.210824-3.19247V466.823529l-0.210824-3.19247a26.383059 26.383059 0 0 0-32.346353-22.437647l-3.252706 1.024-78.546823 30.177882v-23.130353a26.352941 26.352941 0 0 0-26.322824-26.352941z m-26.383059 52.705882v35.117177l0.210824 3.222588a26.352941 26.352941 0 0 0 35.629176 21.383529l78.486589-30.147764v116.525176l-78.486589-30.147764-3.072-0.993883a26.352941 26.352941 0 0 0-32.737882 25.6l-0.030118 35.117177h-184.32v-175.676236h184.32z m96.768-261.421176v85.714823h85.684706l-85.684706-85.714823z" fill="#568af2" /></svg>