<svg class="icon" style="width: 1em;height: 1em;vertical-align: middle;fill: currentColor;overflow: hidden;" viewBox="0 0 1024 1024" version="1.1" xmlns="http://www.w3.org/2000/svg" width="32" height="32"><path d="M627.440941 124.235294c14.576941 0 26.352941 11.806118 26.352941 26.352941v149.323294h149.353412c13.432471 0 24.515765 10.059294 26.142118 23.070118l0.210823 3.312941v491.91153a61.500235 61.500235 0 0 1-61.500235 61.470117H276.088471a61.500235 61.500235 0 0 1-61.500236-61.470117v-632.470589c0-33.972706 27.527529-61.500235 61.500236-61.500235h351.35247z m-97.731765 282.232471a26.352941 26.352941 0 0 0-15.36 0 1032.914824 1032.914824 0 0 0-63.186823 21.684706c-11.595294 4.397176-22.076235 8.734118-31.171765 12.890353-33.039059 15.088941-47.284706 24.847059-47.284706 46.863058 0 72.161882 25.389176 134.083765 67.46353 185.374118 25.148235 30.659765 50.447059 51.2 68.156235 62.012235 8.432941 5.12 19.004235 5.12 27.407059 0 17.739294-10.812235 43.008-31.322353 68.186353-62.042353 42.044235-51.260235 67.463529-113.182118 67.463529-185.344 0-21.985882-14.245647-31.774118-47.284706-46.863058-9.125647-4.186353-19.576471-8.493176-31.201882-12.890353a1032.914824 1032.914824 0 0 0-63.186824-21.684706z" fill="#568af2" /><path d="M608.828235 131.945412a26.352941 26.352941 0 0 1 37.25553 0l175.676235 175.706353a26.352941 26.352941 0 1 1-37.255529 37.255529L608.828235 169.261176a26.352941 26.352941 0 0 1 0-37.285647zM522.029176 459.294118l-3.162352 1.024-7.770353 2.529882c-14.064941 4.668235-28.129882 9.577412-41.170824 14.546824-10.601412 4.035765-20.058353 7.920941-28.009412 11.565176-8.432941 3.855059-14.908235 7.318588-18.853647 9.999059l2.529883-1.656471 0.030117 0.90353c2.108235 51.2 20.088471 95.804235 49.302588 134.083764l6.02353 7.55953a271.661176 271.661176 0 0 0 38.490353 38.430117l2.590117 2.048 2.620236-2.048a270.034824 270.034824 0 0 0 31.021176-29.726117l7.469177-8.704c34.816-42.405647 55.536941-92.912941 55.536941-151.94353l-0.210824 9.426824a136.794353 136.794353 0 0 0-11.444706-6.113882l-4.818823-2.258824c-7.981176-3.614118-17.468235-7.529412-28.039529-11.565176a981.714824 981.714824 0 0 0-48.941177-17.076706l-3.192471-1.024z" fill="#568af2" /></svg>