<svg class="icon" style="width: 1em;height: 1em;vertical-align: middle;fill: currentColor;overflow: hidden;" viewBox="0 0 1024 1024" version="1.1" xmlns="http://www.w3.org/2000/svg" width="32" height="32"><path d="M790.588235 184.470588a79.058824 79.058824 0 0 1 79.058824 79.058824v527.058823a79.058824 79.058824 0 0 1-79.058824 79.058824H263.529412a79.058824 79.058824 0 0 1-79.058824-79.058824V263.529412A79.058824 79.058824 0 0 1 263.529412 184.470588h527.058823z m-386.319059 202.360471l-0.180705 3.312941v273.859765a26.352941 26.352941 0 0 0 36.562823 24.304941l2.95153-1.505882 118.603294-68.457412 118.573176-68.457412a26.352941 26.352941 0 0 0 3.102118-43.580235l-3.102118-2.078118-118.573176-68.457412-118.603294-68.457411a26.352941 26.352941 0 0 0-39.333648 19.516235z m52.525177 48.911059l79.058823 45.658353 79.028706 45.628235-79.028706 45.68847-79.058823 45.628236v-182.603294z" fill="#568af2" /></svg>