<svg class="icon" style="width: 1em;height: 1em;vertical-align: middle;fill: currentColor;overflow: hidden;" viewBox="0 0 1024 1024" version="1.1" xmlns="http://www.w3.org/2000/svg" width="32" height="32"><path d="M434.808471 184.470588c14.576941 0 26.352941 11.806118 26.352941 26.352941v94.208l66.499764-92.069647a26.352941 26.352941 0 0 1 36.74353-5.963294l212.720941 153.148236h52.344471a61.500235 61.500235 0 0 1 59.783529 75.836235l-88.545882 368.941176a61.500235 61.500235 0 0 1-59.78353 47.164236H304.399059a61.500235 61.500235 0 0 1-59.78353-47.164236l-88.545882-368.941176a61.500235 61.500235 0 0 1 59.783529-75.836235h52.073412V210.823529c0-14.546824 11.776-26.352941 26.352941-26.352941h140.528942z m70.294588 316.235294h-140.559059a26.352941 26.352941 0 0 0-3.312941 52.495059l3.312941 0.210824h140.559059a26.352941 26.352941 0 0 0 0-52.705883z m181.790117-140.559058l-131.915294-94.991059-68.608 94.991059h200.523294z m-278.437647-122.970353h-87.823058v122.970353h87.823058V237.176471z" fill="#568af2" /></svg>