<svg class="icon" style="width: 1em;height: 1em;vertical-align: middle;fill: currentColor;overflow: hidden;" viewBox="0 0 1024 1024" version="1.1" xmlns="http://www.w3.org/2000/svg" width="32" height="32"><path d="M786.823529 180.705882a79.058824 79.058824 0 0 1 79.058824 79.058824v527.058823a79.058824 79.058824 0 0 1-79.058824 79.058824h-527.058823A79.058824 79.058824 0 0 1 180.705882 786.823529v-527.058823A79.058824 79.058824 0 0 1 259.764706 180.705882h527.058823z m-291.297882 262.686118c-14.607059-42.526118-48.429176-74.812235-98.243765-68.758588-59.392 7.228235-97.340235 77.824-93.30447 160.436706 3.855059 78.667294 48.278588 137.547294 103.484235 137.547294 27.196235 0 49.633882-13.071059 67.343059-33.731765 9.908706-11.535059 16.414118-22.949647 19.998118-31.322353a26.352941 26.352941 0 0 0-48.429177-20.781176 76.498824 76.498824 0 0 1-11.565176 17.769411c-8.613647 10.059294-17.739294 15.36-27.346824 15.36-22.648471 0-48.188235-33.852235-50.838588-87.431529-2.861176-58.337882 20.781176-102.339765 46.983529-105.502118 19.727059-2.409412 34.605176 11.745882 42.044236 33.520942a26.352941 26.352941 0 1 0 49.874823-17.106824z m62.915765-34.304a26.352941 26.352941 0 0 0-26.352941 26.352941v210.82353c0 14.576941 11.776 26.352941 26.352941 26.352941l3.312941-0.180706a26.352941 26.352941 0 0 0 23.04-26.172235v-114.176a52.705882 52.705882 0 1 1 105.411765 0v114.176a26.352941 26.352941 0 1 0 52.705882 0v-114.176a105.411765 105.411765 0 0 0-158.147765-91.316706v-5.330824a26.352941 26.352941 0 0 0-26.322823-26.352941z" fill="#568af2" /></svg>