<svg class="icon" style="width: 1em;height: 1em;vertical-align: middle;fill: currentColor;overflow: hidden;" viewBox="0 0 1024 1024" version="1.1" xmlns="http://www.w3.org/2000/svg" width="32" height="32"><path d="M623.676235 120.470588c2.319059 0 4.517647 0.301176 6.625883 0.843294l0.391529 0.090353a26.112 26.112 0 0 1 11.625412 6.776471l175.676235 175.706353 0.662588 0.662588a26.503529 26.503529 0 0 1 1.084236 1.234824l-1.746824-1.897412a26.563765 26.563765 0 0 1 7.529412 15.329882l0.210823 3.312941v491.91153a61.500235 61.500235 0 0 1-61.500235 61.470117H272.323765A61.500235 61.500235 0 0 1 210.823529 814.441412v-632.470588C210.823529 147.998118 238.351059 120.470588 272.323765 120.470588h351.35247z m17.588706 474.352941h-245.549176a26.503529 26.503529 0 0 0-15.781647 4.939295l-0.602353 0.421647-0.692706 0.602353a26.503529 26.503529 0 0 0-1.716706 1.505882l-0.271059 0.240941a26.864941 26.864941 0 0 0-4.517647 6.023529 26.262588 26.262588 0 0 0 1.746824 28.009412l0.421647 0.542118 0.602353 0.722823a26.503529 26.503529 0 0 0 1.505882 1.716706l0.240941 0.271059 87.853177 87.823059a26.352941 26.352941 0 0 0 39.634823-34.544941l-2.379294-2.710588-42.827294-42.857412h182.332235a26.352941 26.352941 0 0 0 26.142118-23.04l0.210823-3.312941a26.352941 26.352941 0 0 0-23.070117-26.142118l-3.312941-0.210824z m-106.496-185.524705a26.352941 26.352941 0 0 0-2.349176 34.544941l2.349176 2.710588 42.857412 42.857412h-182.332235a26.352941 26.352941 0 0 0-26.142118 23.04l-0.210824 3.312941c0 13.432471 10.059294 24.515765 23.04 26.142118l3.312942 0.210823h245.970823l3.312941-0.210823a26.202353 26.202353 0 0 0 9.396706-3.072l1.144471-0.662589a27.678118 27.678118 0 0 0 1.626353-1.084235l0.451764-0.331294 0.692706-0.542118a26.503529 26.503529 0 0 0 1.566118-1.385412l0.421647-0.421647a26.864941 26.864941 0 0 0 5.872941-8.944941l0.512-1.355294a26.473412 26.473412 0 0 0-3.614117-23.702588l-0.39153-0.602353-0.63247-0.752941a26.503529 26.503529 0 0 0-1.264942-1.445647l-88.304941-88.304941a26.352941 26.352941 0 0 0-37.285647 0z m200.944941-113.152l-85.684706-85.714824v85.714824h85.684706z" fill="#568af2" /></svg>