<svg class="icon" style="width: 1em;height: 1em;vertical-align: middle;fill: currentColor;overflow: hidden;" viewBox="0 0 1024 1024" version="1.1" xmlns="http://www.w3.org/2000/svg" width="32" height="32"><path d="M843.294118 154.352941c14.546824 0 26.352941 11.806118 26.352941 26.352941v228.382118a26.352941 26.352941 0 0 1-26.352941 26.352941h-79.058824v412.882824a26.352941 26.352941 0 0 1-42.044235 21.172706L632.470588 802.996706l-89.750588 66.499765a26.352941 26.352941 0 0 1-28.129882 2.048l-3.222589-2.048L421.647059 802.996706l-89.750588 66.499765a26.352941 26.352941 0 0 1-41.803295-17.829647l-0.210823-3.343059V435.440941H210.823529a26.352941 26.352941 0 0 1-26.352941-26.352941V180.705882c0-14.546824 11.806118-26.352941 26.352941-26.352941h632.470589z m-316.235294 281.088a26.352941 26.352941 0 0 0-26.142118 23.070118l-0.210824 3.312941v43.881412h-43.911529a26.352941 26.352941 0 0 0-26.172235 23.070117l-0.180706 3.312942c0 13.432471 10.029176 24.515765 23.04 26.142117l3.312941 0.210824 43.911529-0.030118V602.352941c0 13.432471 10.059294 24.515765 23.04 26.142118l3.312942 0.210823a26.352941 26.352941 0 0 0 26.142117-23.04l0.210824-3.312941v-43.941647h43.911529a26.352941 26.352941 0 0 0 26.172235-23.04l0.180706-3.312941a26.352941 26.352941 0 0 0-23.04-26.142118l-3.312941-0.180706-43.911529-0.030117v-43.91153a26.352941 26.352941 0 0 0-23.04-26.142117l-3.312941-0.210824z m289.882352-228.382117H237.176471v175.676235h52.705882V286.117647c0-14.546824 11.806118-26.352941 26.352941-26.352941h421.647059c14.546824 0 26.352941 11.806118 26.352941 26.352941v96.617412h52.705882V207.058824z" fill="#568af2" /></svg>