<svg class="icon" style="width: 1em;height: 1em;vertical-align: middle;fill: currentColor;overflow: hidden;" viewBox="0 0 1024 1024" version="1.1" xmlns="http://www.w3.org/2000/svg" width="32" height="32"><path d="M209.739294 246.994824l173.718588 173.718588-172.784941 157.123764a26.352941 26.352941 0 0 0-4.005647 34.424471l2.228706 2.800941a26.352941 26.352941 0 0 0 37.225412 1.776941l174.682353-158.810353 386.288941 386.349177a78.757647 78.757647 0 0 1-34.063059 7.710118H281.088a79.058824 79.058824 0 0 1-79.058824-79.058824V281.088c0-12.197647 2.770824-23.762824 7.710118-34.093176z m563.290353-44.965648a79.058824 79.058824 0 0 1 79.058824 79.058824v491.941647c0 12.197647-2.770824 23.732706-7.710118 34.032941l-236.122353-236.092235 73.999059-73.999059a8.794353 8.794353 0 0 1 9.637647-1.897412l1.867294 1.084236 116.163765 87.130353a26.352941 26.352941 0 1 0 31.623529-42.164706l-116.193882-87.130353a61.500235 61.500235 0 0 0-80.353883 5.722353l-74.059294 73.968941L246.994824 209.739294a78.757647 78.757647 0 0 1 34.093176-7.710118h491.941647z" fill="#568af2" /></svg>