<svg class="icon" style="width: 1em;height: 1em;vertical-align: middle;fill: currentColor;overflow: hidden;" viewBox="0 0 1024 1024" version="1.1" xmlns="http://www.w3.org/2000/svg" width="32" height="32"><path d="M809.411765 214.588235A79.058824 79.058824 0 0 1 888.470588 293.647059v456.794353a79.058824 79.058824 0 0 1-79.058823 79.058823H299.911529a26.352941 26.352941 0 0 1 0-52.705882h509.500236a26.352941 26.352941 0 0 0 26.352941-26.352941v-272.323765H185.735529v96.617412a26.352941 26.352941 0 1 1-52.705882 0V293.647059a79.058824 79.058824 0 0 1 79.058824-79.058824h597.323294zM650.541176 538.292706l78.72753 76.739765a26.352941 26.352941 0 0 1-36.803765 37.767529l-61.319529-59.783529-122.970353 107.52a26.352941 26.352941 0 0 1-32.737883 1.505882l-2.831058-2.319059-96.888471-92.79247-195.644235 197.692235a26.352941 26.352941 0 0 1-34.544941 2.56l-2.710589-2.349177a26.352941 26.352941 0 0 1-0.210823-37.285647l213.925647-216.094117a26.352941 26.352941 0 0 1 36.954353-0.512l98.183529 94.027294 123.151059-107.640471a26.352941 26.352941 0 0 1 35.719529 0.963765z m90.563765-218.292706h-316.235294a26.352941 26.352941 0 0 0-3.312941 52.495059l3.312941 0.210823h316.235294a26.352941 26.352941 0 1 0 0-52.705882z m-421.647059 0H284.310588a26.352941 26.352941 0 0 0-3.312941 52.495059l3.312941 0.210823h35.117177a26.352941 26.352941 0 1 0 0-52.705882z" fill="#568af2" /></svg>