<svg class="icon" style="width: 1em;height: 1em;vertical-align: middle;fill: currentColor;overflow: hidden;" viewBox="0 0 1024 1024" version="1.1" xmlns="http://www.w3.org/2000/svg" width="32" height="32"><path d="M491.911529 869.647059a26.352941 26.352941 0 0 1-26.352941-26.352941V210.823529c0-14.546824 11.806118-26.352941 26.352941-26.352941H843.294118c14.546824 0 26.352941 11.806118 26.352941 26.352941v632.470589a26.352941 26.352941 0 0 1-26.352941 26.352941H491.911529z m87.853177-527.058824a26.352941 26.352941 0 0 0-26.142118 23.04l-0.210823 3.312941V421.647059a26.352941 26.352941 0 0 0 52.495059 3.312941l0.210823-3.312941v-52.705883a26.352941 26.352941 0 0 0-26.352941-26.352941z m175.676235 0a26.352941 26.352941 0 0 0-26.142117 23.04l-0.210824 3.312941V421.647059a26.352941 26.352941 0 0 0 52.525176 3.312941l0.180706-3.312941v-52.705883a26.352941 26.352941 0 0 0-26.352941-26.352941zM281.027765 184.470588l3.312941 0.210824 140.589176 17.558588c14.155294 1.776941 24.365176 14.546824 22.949647 28.762353l-61.500235 614.912a26.352941 26.352941 0 0 1-29.30447 23.552l-149.323295-17.558588a26.352941 26.352941 0 0 1-23.100235-29.184L254.915765 207.841882a26.352941 26.352941 0 0 1 29.455059-23.190588l-3.312942-0.180706z" fill="#568af2" /></svg>