<svg class="icon" style="width: 1em;height: 1em;vertical-align: middle;fill: currentColor;overflow: hidden;" viewBox="0 0 1024 1024" version="1.1" xmlns="http://www.w3.org/2000/svg" width="32" height="32"><path d="M542.117647 146.853647v26.322824h202.029177c14.576941 0 26.352941 11.806118 26.352941 26.383058v96.617412h43.941647c33.942588 0 61.470118 27.527529 61.470117 61.500235v281.088a61.500235 61.500235 0 0 1-61.470117 61.500236l-43.941647-0.030118v96.677647a26.352941 26.352941 0 0 1-26.352941 26.322824H542.117647v26.352941a26.352941 26.352941 0 0 1-35.237647 24.816941l-263.529412-94.569412a26.352941 26.352941 0 0 1-17.468235-24.786823v-54.814118H181.970824A61.500235 61.500235 0 0 1 120.470588 638.795294v-281.118118c0-33.972706 27.527529-61.500235 61.500236-61.500235H225.882353v-54.814117c0-11.113412 6.987294-21.022118 17.468235-24.786824l263.529412-94.539294a26.352941 26.352941 0 0 1 35.237647 24.816941zM489.411765 700.235294h-210.82353v36.261647l210.82353 75.595294V700.235294z m228.382117 0H542.117647v70.294588h175.676235V700.235294z m-412.852706-316.235294h-52.705882a26.352941 26.352941 0 0 0-26.142118 23.070118l-0.210823 3.312941v175.676235a26.352941 26.352941 0 0 0 52.495059 3.312941l0.210823-3.312941V542.117647h26.352941a79.058824 79.058824 0 0 0 78.908236-74.029176l0.150588-4.99953a79.058824 79.058824 0 0 0-79.058824-79.058823z m193.264942 0h-52.705883a26.352941 26.352941 0 0 0-26.172235 23.070118l-0.180706 3.312941v175.676235a26.352941 26.352941 0 0 0 52.495059 3.312941l0.210823-3.312941L471.823059 542.117647h26.383059a79.058824 79.058824 0 0 0 78.908235-74.029176l0.150588-4.99953a79.058824 79.058824 0 0 0-79.058823-79.058823z m245.940706 17.588706h-105.411765a26.352941 26.352941 0 0 0-3.312941 52.495059l3.312941 0.210823h26.352941v114.206118c0 13.432471 10.059294 24.515765 23.070118 26.142118l3.312941 0.210823a26.352941 26.352941 0 0 0 26.142117-23.04l0.180706-3.312941v-114.236235l26.352942 0.030117a26.352941 26.352941 0 0 0 26.172235-23.04l0.180706-3.312941a26.352941 26.352941 0 0 0-26.352941-26.352941z m-245.940706 35.147294a26.352941 26.352941 0 0 1 3.312941 52.495059l-3.312941 0.210823h-26.383059V436.705882h26.383059z m-193.264942 0a26.352941 26.352941 0 0 1 3.312942 52.495059l-3.312942 0.210823H278.588235V436.705882h26.352941z m184.470589-252.446118l-210.82353 75.595294v36.291765h210.82353V184.289882zM717.793882 225.882353L542.117647 225.882353v70.294588h175.676235V225.912471z" fill="#568af2" /></svg>