<svg class="icon" style="width: 1em;height: 1em;vertical-align: middle;fill: currentColor;overflow: hidden;" viewBox="0 0 1024 1024" version="1.1" xmlns="http://www.w3.org/2000/svg" width="32" height="32"><path d="M263.529412 839.529412a79.058824 79.058824 0 0 1-79.058824-79.058824V233.411765A79.058824 79.058824 0 0 1 263.529412 154.352941h527.058823a79.058824 79.058824 0 0 1 79.058824 79.058824v527.058823a79.058824 79.058824 0 0 1-79.058824 79.058824H263.529412z m527.058823-632.470588H263.529412a26.352941 26.352941 0 0 0-26.352941 26.352941v527.058823c0 14.546824 11.806118 26.352941 26.352941 26.352941h109.748706l199.258353-266.661647a61.500235 61.500235 0 0 1 99.689411 1.626353l144.715294 207.540706V233.411765a26.352941 26.352941 0 0 0-26.352941-26.352941zM421.647059 277.323294a114.206118 114.206118 0 1 1 0 228.412235 114.206118 114.206118 0 0 1 0-228.412235z" fill="#568af2" /></svg>