<svg class="icon" style="width: 1em;height: 1em;vertical-align: middle;fill: currentColor;overflow: hidden;" viewBox="0 0 1024 1024" version="1.1" xmlns="http://www.w3.org/2000/svg" width="32" height="32"><path d="M747.911529 553.411765c14.576941 0 26.352941 11.806118 26.352942 26.352941v79.058823h79.058823a26.352941 26.352941 0 1 1 0 52.705883h-79.058823v79.058823a26.352941 26.352941 0 1 1-52.705883 0v-79.058823h-79.058823a26.352941 26.352941 0 0 1 0-52.705883h79.058823V579.764706c0-14.546824 11.806118-26.352941 26.352941-26.352941z m52.705883-368.941177a79.058824 79.058824 0 0 1 79.058823 79.058824v244.916706a26.352941 26.352941 0 0 1-52.705882 0v-60.446118H176.941176v272.323765c0 14.546824 11.806118 26.352941 26.352942 26.352941h316.235294a26.352941 26.352941 0 1 1 0 52.705882H203.294118a79.058824 79.058824 0 0 1-79.058824-79.058823V263.529412A79.058824 79.058824 0 0 1 203.294118 184.470588h597.323294zM256 281.088a35.147294 35.147294 0 1 0 0 70.294588 35.147294 35.147294 0 0 0 0-70.294588z m105.411765 0a35.147294 35.147294 0 1 0 0 70.294588 35.147294 35.147294 0 0 0 0-70.294588z" fill="#568af2" /></svg>