<svg class="icon" style="width: 1em;height: 1em;vertical-align: middle;fill: currentColor;overflow: hidden;" viewBox="0 0 1024 1024" version="1.1" xmlns="http://www.w3.org/2000/svg" width="32" height="32"><path d="M426.676706 184.470588c7.830588 0 15.239529 3.463529 20.239059 9.487059l79.932235 95.924706H813.176471c32.406588 0 58.970353 25.088 61.319529 56.922353l0.180706 4.577882v456.764236A61.500235 61.500235 0 0 1 813.176471 869.647059H215.853176a61.500235 61.500235 0 0 1-61.500235-61.500235V245.970824c0-33.972706 27.527529-61.500235 61.500235-61.500236h210.82353z m79.99247 247.145412a877.417412 877.417412 0 0 0-54.422588 19.064471c-9.999059 3.885176-19.064471 7.68-26.955294 11.38447-29.816471 13.884235-42.556235 22.799059-42.556235 43.91153 0 63.849412 22.046118 118.663529 58.518588 164.080941 21.835294 27.166118 43.821176 45.417412 59.331765 55.055059a26.352941 26.352941 0 0 0 27.858823 0c15.510588-9.637647 37.466353-27.888941 59.331765-55.055059 36.442353-45.387294 58.488471-100.231529 58.488471-164.080941 0-21.082353-12.739765-30.027294-42.526118-43.91153a451.734588 451.734588 0 0 0-26.985412-11.38447 877.417412 877.417412 0 0 0-54.422588-19.064471 26.352941 26.352941 0 0 0-15.661177 0z m7.830589 52.826353l8.071529 2.710588c11.986824 4.035765 23.973647 8.312471 35.087059 12.649412 9.035294 3.493647 17.046588 6.866824 23.792941 9.999059l4.005647 1.927529c2.529882 1.264941 4.818824 2.409412 6.716235 3.523765l1.144471 0.662588-0.572235 8.824471c-3.734588 42.947765-20.359529 80.293647-46.08 112.308706l-6.294588 7.529411c-6.384941 7.288471-12.950588 13.914353-19.576471 19.877647l-6.324706 5.360942-6.234353-5.391059a232.267294 232.267294 0 0 1-19.57647-19.877647l-6.324706-7.529412-5.360942-6.927059c-22.648471-30.418824-37.225412-65.475765-40.719058-105.351529l-0.602353-8.824471 1.204706-0.662588a162.032941 162.032941 0 0 1 10.721882-5.421177c6.746353-3.162353 14.757647-6.535529 23.792941-10.029176 11.083294-4.336941 23.100235-8.613647 35.087059-12.649412l8.041412-2.710588z" fill="#568af2" /></svg>