<svg class="icon" style="width: 1em;height: 1em;vertical-align: middle;fill: currentColor;overflow: hidden;" viewBox="0 0 1024 1024" version="1.1" xmlns="http://www.w3.org/2000/svg" width="32" height="32"><path d="M627.440941 124.235294c2.319059 0 4.517647 0.301176 6.625883 0.843294l0.391529 0.090353a26.112 26.112 0 0 1 11.625412 6.776471l175.676235 175.706353 0.662588 0.662588a26.503529 26.503529 0 0 1 1.084236 1.234823l-1.746824-1.897411a26.563765 26.563765 0 0 1 7.529412 15.329882l0.210823 3.312941v491.91153a61.500235 61.500235 0 0 1-61.500235 61.470117H276.088471a61.500235 61.500235 0 0 1-61.500236-61.470117v-632.470589c0-33.972706 27.527529-61.500235 61.500236-61.500235h351.35247z m-105.411765 553.411765a43.911529 43.911529 0 1 0 0 87.853176 43.911529 43.911529 0 0 0 0-87.853176z m0-289.882353c-54.091294 0-96.617412 47.826824-96.617411 105.411765a26.352941 26.352941 0 1 0 52.705882 0c0-29.756235 20.389647-52.705882 43.911529-52.705883 23.521882 0 43.941647 22.949647 43.941648 52.705883s-20.419765 52.705882-43.941648 52.705882a26.352941 26.352941 0 0 0-26.352941 26.352941v52.705882c0 14.546824 11.806118 26.352941 26.352941 26.352942l3.312942-0.210824a26.352941 26.352941 0 0 0 23.04-26.142118v-30.32847l4.487529-1.445647c38.580706-14.095059 65.807059-53.910588 65.807059-99.990588 0-57.584941-42.526118-105.411765-96.64753-105.411765z m131.764706-173.568v85.714823h85.684706l-85.684706-85.714823z" fill="#568af2" /></svg>