<svg class="icon" style="width: 1em;height: 1em;vertical-align: middle;fill: currentColor;overflow: hidden;" viewBox="0 0 1024 1024" version="1.1" xmlns="http://www.w3.org/2000/svg" width="32" height="32"><path d="M426.676706 184.470588c7.830588 0 15.239529 3.463529 20.239059 9.487059l79.932235 95.924706H813.176471c32.406588 0 58.970353 25.088 61.319529 56.922353l0.180706 4.577882v456.764236A61.500235 61.500235 0 0 1 813.176471 869.647059H215.853176a61.500235 61.500235 0 0 1-61.500235-61.500235V245.970824c0-33.972706 27.527529-61.500235 61.500235-61.500236h210.82353z m87.823059 245.970824a26.533647 26.533647 0 0 0-15.480471 5.029647l-0.451765 0.301176-0.783058 0.632471a26.503529 26.503529 0 0 0-1.295059 1.14447l-0.602353 0.602353-105.411765 105.411765a26.352941 26.352941 0 0 0 0 37.25553l2.710588 2.379294a26.352941 26.352941 0 0 0 34.544942-2.379294l60.416-60.446118v182.362353c0 13.432471 10.059294 24.545882 23.070117 26.172235l3.312941 0.180706a26.352941 26.352941 0 0 0 26.322824-26.352941v-182.452706l60.446118 60.325647a26.352941 26.352941 0 0 0 34.575058 2.319059l2.710589-2.349177a26.352941 26.352941 0 0 0-0.060236-37.255529l-105.411764-105.200941a26.834824 26.834824 0 0 0-10.541177-6.445177 26.503529 26.503529 0 0 0-6.384941-1.204706l-1.686588-0.030117z" fill="#568af2" /></svg>