<svg class="icon" style="width: 1em;height: 1em;vertical-align: middle;fill: currentColor;overflow: hidden;" viewBox="0 0 1024 1024" version="1.1" xmlns="http://www.w3.org/2000/svg" width="32" height="32"><path d="M627.440941 124.235294c6.987294 0 13.703529 2.770824 18.672941 7.710118l175.646118 175.706353a26.352941 26.352941 0 0 1 7.740235 18.612706v491.941647a61.500235 61.500235 0 0 1-61.500235 61.470117H276.088471a61.500235 61.500235 0 0 1-61.500236-61.470117v-632.470589c0-33.972706 27.527529-61.500235 61.500236-61.500235h351.35247z m0 246.121412h-210.823529a26.352941 26.352941 0 0 0 0 52.705882l79.209412-0.030117V677.647059c0 13.432471 10.059294 24.515765 23.04 26.142117l3.312941 0.210824a26.352941 26.352941 0 0 0 26.352941-26.352941v-254.614588h78.908235a26.352941 26.352941 0 0 0 26.172235-23.04l0.180706-3.312942a26.352941 26.352941 0 0 0-26.352941-26.322823z" fill="#568af2" /></svg>