<svg class="icon" style="width: 1em;height: 1em;vertical-align: middle;fill: currentColor;overflow: hidden;" viewBox="0 0 1024 1024" version="1.1" xmlns="http://www.w3.org/2000/svg" width="32" height="32"><path d="M803.147294 133.029647a26.352941 26.352941 0 0 1 0 52.705882h-43.941647v184.470589c0 6.324706-2.288941 12.468706-6.415059 17.257411L656.263529 498.748235l94.689883 89.449412a26.352941 26.352941 0 0 1 8.252235 19.154824v228.382117h43.941647a26.352941 26.352941 0 0 1 0 52.705883H240.941176a26.352941 26.352941 0 1 1 0-52.705883h43.91153v-219.617882c0-6.987294 2.800941-13.673412 7.740235-18.612706l98.785883-98.846118-99.749648-110.863058a26.352941 26.352941 0 0 1-6.77647-17.618824V185.735529H240.941176a26.352941 26.352941 0 0 1 0-52.705882h562.206118z m-263.529412 597.323294h-17.588706a26.352941 26.352941 0 0 0-3.312941 52.495059l3.312941 0.210824h17.588706a26.352941 26.352941 0 0 0 0-52.705883z m54.211765-86.347294a26.352941 26.352941 0 0 0-2.379294 34.575059l2.379294 2.710588 12.408471 12.408471a26.352941 26.352941 0 0 0 39.634823-34.575059l-2.349176-2.710588-12.438589-12.408471a26.352941 26.352941 0 0 0-37.255529 0z m-159.623529-1.505882h-17.588706a26.352941 26.352941 0 0 0-3.312941 52.525176l3.312941 0.180706h17.588706a26.352941 26.352941 0 0 0 0-52.705882z" fill="#568af2" /></svg>