<svg class="icon" style="width: 1em;height: 1em;vertical-align: middle;fill: currentColor;overflow: hidden;" viewBox="0 0 1024 1024" version="1.1" xmlns="http://www.w3.org/2000/svg" width="32" height="32"><path d="M701.229176 528.956235a641.174588 641.174588 0 0 1 45.929412 20.660706c8.493176 4.216471 16.173176 8.402824 22.91953 12.438588 23.702588 14.215529 35.568941 24.907294 35.568941 44.062118 0 67.614118-18.612706 119.717647-50.025412 157.424941-19.546353 23.431529-39.604706 36.833882-54.392471 42.736941a26.352941 26.352941 0 0 1-19.57647 0c-14.757647-5.903059-34.816-19.275294-54.362353-42.767058-31.442824-37.677176-50.025412-89.750588-50.025412-157.394824 0-19.154824 11.866353-29.846588 35.538824-44.062118 6.746353-4.035765 14.456471-8.192 22.949647-12.438588a641.174588 641.174588 0 0 1 45.899294-20.660706 26.352941 26.352941 0 0 1 19.57647 0zM851.124706 210.883765L849.558588 210.823529a26.593882 26.593882 0 0 1 6.836706 0.90353l0.90353 0.240941a24.606118 24.606118 0 0 1 7.981176 4.065882 20.299294 20.299294 0 0 1 3.403294 3.011765 27.557647 27.557647 0 0 1 1.957647 2.319059l0.301177 0.361412a26.413176 26.413176 0 0 1 0.993882 1.505882l-1.295059-1.867294a26.563765 26.563765 0 0 1 5.270588 15.811765v263.529411a26.352941 26.352941 0 1 1-52.705882 0v-210.823529l-309.187765 231.905882a26.352941 26.352941 0 0 1-31.623529 0L173.176471 289.912471V737.882353h325.029647c13.432471 0 24.515765 10.059294 26.142117 23.04l0.210824 3.312941a26.352941 26.352941 0 0 1-26.352941 26.352941H146.823529A26.352941 26.352941 0 0 1 120.470588 764.235294v-527.058823l0.030118-1.536a26.352941 26.352941 0 0 1 0.150588-1.596236L120.470588 237.176471a26.232471 26.232471 0 0 1 5.029647-15.480471l0.240941-0.301176 0.481883-0.632471a26.503529 26.503529 0 0 1 1.475765-1.716706l-1.957648 2.319059a26.533647 26.533647 0 0 1 19.486118-10.480941 27.196235 27.196235 0 0 1 1.204706-0.060236h703.518118a26.503529 26.503529 0 0 1 1.174588 0.060236zM770.499765 263.529412H225.882353l272.323765 204.227764 272.323764-204.197647z" fill="#568af2" /></svg>