<svg class="icon" style="width: 1em;height: 1em;vertical-align: middle;fill: currentColor;overflow: hidden;" viewBox="0 0 1024 1024" version="1.1" xmlns="http://www.w3.org/2000/svg" width="32" height="32"><path d="M623.676235 120.470588c2.319059 0 4.517647 0.301176 6.625883 0.843294l0.391529 0.090353a26.112 26.112 0 0 1 11.625412 6.776471l175.676235 175.706353 0.662588 0.662588a26.503529 26.503529 0 0 1 1.084236 1.234824l-1.746824-1.897412a26.563765 26.563765 0 0 1 7.529412 15.329882l0.210823 3.312941v491.91153a61.500235 61.500235 0 0 1-61.500235 61.470117H272.323765A61.500235 61.500235 0 0 1 210.823529 814.441412v-632.470588C210.823529 147.998118 238.351059 120.470588 272.323765 120.470588h351.35247z m-26.352941 52.705883H272.323765a8.794353 8.794353 0 0 0-8.794353 8.794353v632.470588c0 4.818824 3.915294 8.764235 8.794353 8.764235h491.911529c4.848941 0 8.794353-3.915294 8.794353-8.764235l-0.030118-465.588706h-149.323294a26.352941 26.352941 0 0 1-26.142117-23.04l-0.210824-3.312941V173.176471z m5.270588 245.970823c8.131765 0 15.811765 3.734588 20.811294 10.179765l56.229648 72.342588a26.352941 26.352941 0 0 1-0.301177 32.737882l-140.589176 173.628236a26.352941 26.352941 0 0 1-40.96 0l-140.528942-173.628236a26.352941 26.352941 0 0 1-0.331294-32.737882l56.19953-72.342588a26.352941 26.352941 0 0 1 20.811294-10.179765h168.658823z m47.435294-208.715294v85.714824h85.684706l-85.684706-85.714824z" fill="#568af2" /></svg>