<svg class="icon" style="width: 1em;height: 1em;vertical-align: middle;fill: currentColor;overflow: hidden;" viewBox="0 0 1024 1024" version="1.1" xmlns="http://www.w3.org/2000/svg" width="32" height="32"><path d="M327.559529 676.382118l27.858824 55.717647c3.945412 7.920941 11.595294 13.251765 20.269176 14.366117l3.312942 0.210824h245.940705l3.312942-0.210824a26.352941 26.352941 0 0 0 18.612706-11.504941l1.65647-2.861176 27.828706-55.717647h168.176941v114.206117a79.058824 79.058824 0 0 1-79.028706 79.058824h-527.058823a79.058824 79.058824 0 0 1-79.058824-79.058824l-0.030117-114.206117h168.207058z m437.910589-491.91153a79.058824 79.058824 0 0 1 79.088941 79.058824l-0.030118 360.146823h-184.44047l-3.312942 0.210824a26.352941 26.352941 0 0 0-18.612705 11.504941l-1.656471 2.861176-27.858824 55.717648h-213.413647l-27.828706-55.717648a26.352941 26.352941 0 0 0-20.269176-14.366117l-3.312941-0.210824H159.382588V263.529412a79.058824 79.058824 0 0 1 79.088941-79.058824h527.058824z m-263.529412 105.411765a26.352941 26.352941 0 0 0-26.322824 26.352941l-0.030117 217.47953-60.416-60.416a26.352941 26.352941 0 0 0-34.544941-2.379295l-2.710589 2.379295a26.352941 26.352941 0 0 0 0 37.255529l105.411765 105.411765a26.804706 26.804706 0 0 0 12.016941 6.866823 26.593882 26.593882 0 0 0 22.106353-4.21647l0.451765-0.301177 0.783059-0.602353a26.503529 26.503529 0 0 0 1.295058-1.14447l0.602353-0.602353 105.411765-105.411765a26.352941 26.352941 0 1 0-37.255529-37.255529L528.263529 533.684706V316.235294a26.352941 26.352941 0 0 0-23.04-26.142118z" fill="#568af2" /><path d="M818.206118 535.853176c14.546824 0 26.352941 11.776 26.352941 26.352942V737.882353a26.352941 26.352941 0 0 1-52.705883 0v-175.676235c0-14.576941 11.776-26.352941 26.352942-26.352942zM185.735529 535.853176c14.546824 0 26.352941 11.776 26.352942 26.352942V737.882353a26.352941 26.352941 0 1 1-52.705883 0v-175.676235c0-14.576941 11.776-26.352941 26.352941-26.352942z" fill="#568af2" /></svg>