<svg class="icon" style="width: 1em;height: 1em;vertical-align: middle;fill: currentColor;overflow: hidden;" viewBox="0 0 1024 1024" version="1.1" xmlns="http://www.w3.org/2000/svg" width="32" height="32"><path d="M829.500235 853.323294a26.352941 26.352941 0 0 1-26.352941 26.352941H240.941176a26.352941 26.352941 0 0 1-26.352941-26.352941V150.588235c0-13.432471 10.059294-24.515765 23.04-26.142117l2.590118-0.210824-0.903529 0.060235 0.813176-0.060235h563.019294l1.626353 0.060235-0.963765-0.030117 2.620236 0.180706c11.926588 1.505882 21.383529 10.932706 22.859294 22.829176l0.210823 3.192471v702.855529zM293.647059 176.941176h-26.352941v52.705883l57.97647 77.312a26.352941 26.352941 0 0 0 17.558588 10.300235l3.523765 0.240941 149.323294-0.030117v368.941176H267.294118v52.705882h509.470117v-52.705882h-228.382117V317.44h149.353411c7.107765 0 13.854118-2.861176 18.763295-7.830588l2.319058-2.710588 57.946353-77.281883v-52.705882h-26.352941l-65.867294 87.823059H359.514353L293.647059 176.941176z" fill="#568af2" /></svg>