<svg class="icon" style="width: 1em;height: 1em;vertical-align: middle;fill: currentColor;overflow: hidden;" viewBox="0 0 1024 1024" version="1.1" xmlns="http://www.w3.org/2000/svg" width="32" height="32"><path d="M426.676706 184.470588c7.830588 0 15.239529 3.463529 20.239059 9.487059l79.932235 95.924706H813.176471c32.406588 0 58.970353 25.088 61.319529 56.922353l0.180706 4.577882v158.117647a26.352941 26.352941 0 0 1-52.705882 0v-158.117647a8.794353 8.794353 0 0 0-8.794353-8.794353h-298.676706a26.352941 26.352941 0 0 1-20.239059-9.487059l-79.932235-95.924705h-198.475295a8.794353 8.794353 0 0 0-8.553411 6.77647l-0.240941 2.017883v562.176c0 4.848941 3.915294 8.794353 8.794352 8.794352h263.529412a26.352941 26.352941 0 0 1 0 52.705883h-263.529412a61.500235 61.500235 0 0 1-61.500235-61.500235V245.970824c0-33.972706 27.527529-61.500235 61.500235-61.500236h210.82353zM707.764706 570.970353c14.546824 0 26.352941 11.806118 26.352941 26.352941l0.030118 29.997177c6.565647 1.867294 12.860235 4.397176 18.763294 7.529411l21.052235-21.022117a26.352941 26.352941 0 1 1 37.25553 37.285647l-20.178824 20.178823c4.156235 7.047529 7.439059 14.637176 9.728 22.678589h29.967059a26.352941 26.352941 0 1 1 0 52.705882h-29.967059a96.045176 96.045176 0 0 1-8.613647 20.781176l24.214588 24.184471a26.352941 26.352941 0 1 1-37.255529 37.285647l-24.244706-24.214588c-6.475294 3.614118-13.432471 6.505412-20.720941 8.583529l-0.030118 29.997177a26.352941 26.352941 0 1 1-52.705882 0v-29.997177a96.075294 96.075294 0 0 1-22.678589-9.697882l-25.328941 25.298823a26.352941 26.352941 0 1 1-37.255529-37.255529l26.172235-26.202353a96.015059 96.015059 0 0 1-7.529412-18.763294h-29.997176a26.352941 26.352941 0 0 1 0-52.705882h29.967059c2.108235-7.318588 4.999529-14.275765 8.613647-20.781177l-22.076235-22.076235a26.352941 26.352941 0 1 1 37.255529-37.285647l22.106353 22.106353c6.475294-3.614118 13.432471-6.535529 20.751059-8.613647v-29.997177c0-14.546824 11.806118-26.352941 26.352941-26.352941z" fill="#568af2" /></svg>