<svg class="icon" style="width: 1em;height: 1em;vertical-align: middle;fill: currentColor;overflow: hidden;" viewBox="0 0 1024 1024" version="1.1" xmlns="http://www.w3.org/2000/svg" width="32" height="32"><path d="M426.676706 184.470588c7.830588 0 15.239529 3.463529 20.239059 9.487059l79.932235 95.924706H813.176471c32.406588 0 58.970353 25.088 61.319529 56.922353l0.180706 4.577882v456.764236A61.500235 61.500235 0 0 1 813.176471 869.647059H215.853176a61.500235 61.500235 0 0 1-61.500235-61.500235V245.970824c0-33.972706 27.527529-61.500235 61.500235-61.500236h210.82353z m65.596235 258.108236l-1.746823 3.252705-33.249883 72.764236-79.450353 9.125647-3.252706 0.572235a26.383059 26.383059 0 0 0-13.974588 42.496l2.409412 2.529882 58.940235 54.091295-15.872 78.396235-0.451764 3.132235a26.383059 26.383059 0 0 0 36.261647 26.50353l2.981647-1.445648 69.632-39.363764 69.662117 39.363764 2.831059 1.385412a26.383059 26.383059 0 0 0 36.442353-26.292706l-0.481882-3.312941-15.932236-78.366117 58.970353-54.091295 2.319059-2.379294a26.383059 26.383059 0 0 0-13.703529-42.61647l-3.433412-0.602353-79.480471-9.125647-33.219764-72.764236a26.352941 26.352941 0 0 0-46.200471-3.222588z m22.226824 77.643294l15.450353 33.822117 1.626353 3.011765c4.216471 6.746353 11.294118 11.294118 19.335529 12.227765l36.894118 4.21647-27.346824 25.118118-2.379294 2.499765a26.352941 26.352941 0 0 0-5.632 22.166588l7.348706 36.412235-32.316235-18.281412-3.102118-1.475764a26.352941 26.352941 0 0 0-22.829177 1.505882l-32.37647 18.251294 7.408941-36.412235 0.451765-3.403294a26.352941 26.352941 0 0 0-8.463059-21.263059l-27.407059-25.118118 36.954353-4.21647a26.352941 26.352941 0 0 0 20.961882-15.23953l15.420236-33.822117z" fill="#568af2" /></svg>