<svg class="icon" style="width: 1em;height: 1em;vertical-align: middle;fill: currentColor;overflow: hidden;" viewBox="0 0 1024 1024" version="1.1" xmlns="http://www.w3.org/2000/svg" width="32" height="32"><path d="M627.440941 124.235294c2.319059 0 4.517647 0.301176 6.625883 0.843294l0.391529 0.090353a26.112 26.112 0 0 1 11.625412 6.776471l175.676235 175.706353 0.662588 0.662588a26.503529 26.503529 0 0 1 1.084236 1.234823l-1.746824-1.897411a26.563765 26.563765 0 0 1 7.529412 15.329882l0.210823 3.312941v491.91153a61.500235 61.500235 0 0 1-61.500235 61.470117H276.088471a61.500235 61.500235 0 0 1-61.500236-61.470117v-632.470589c0-33.972706 27.527529-61.500235 61.500236-61.500235h351.35247z m-34.032941 359.092706a26.352941 26.352941 0 0 0-37.285647 0l-2.379294 2.710588a26.352941 26.352941 0 0 0 2.379294 34.544941l69.150118 69.210353-69.150118 69.210353a26.352941 26.352941 0 1 0 37.255529 37.285647l87.853177-87.853176a26.352941 26.352941 0 0 0 0-37.25553z m-105.411765 0a26.352941 26.352941 0 0 0-37.285647 0l-87.853176 87.853176a26.352941 26.352941 0 0 0 0 37.25553l87.853176 87.853176a26.352941 26.352941 0 0 0 37.25553 0l2.349176-2.710588a26.352941 26.352941 0 0 0-2.349176-34.575059l-69.210353-69.210353 69.210353-69.210353a26.352941 26.352941 0 0 0 0-37.255529z m165.797647-269.131294v85.714823h85.684706l-85.684706-85.714823z" fill="#568af2" /></svg>