<svg class="icon" style="width: 1em;height: 1em;vertical-align: middle;fill: currentColor;overflow: hidden;" viewBox="0 0 1024 1024" version="1.1" xmlns="http://www.w3.org/2000/svg" width="32" height="32"><path d="M645.029647 124.235294c7.68 0 14.998588 3.373176 19.998118 9.216l158.117647 184.470588c4.096 4.758588 6.324706 10.842353 6.324706 17.136942v518.26447a26.352941 26.352941 0 0 1-26.322824 26.352941H240.941176a26.352941 26.352941 0 0 1-26.352941-26.352941V150.588235c0-14.546824 11.806118-26.352941 26.352941-26.352941h404.088471z m-145.227294 205.402353l-1.746824 3.252706-48.007529 105.110588-114.808471 13.19153-3.252705 0.602353a26.383059 26.383059 0 0 0-13.974589 42.465882l2.409412 2.529882 85.172706 78.155294-22.979765 113.242353-0.451764 3.132236a26.383059 26.383059 0 0 0 36.261647 26.503529l3.011764-1.445647 100.592941-56.832 100.653177 56.832 2.831059 1.415529a26.383059 26.383059 0 0 0 36.412235-26.292706l-0.481882-3.312941-22.949647-113.242353 85.172706-78.155294 2.288941-2.379294a26.383059 26.383059 0 0 0-13.673412-42.61647l-3.433412-0.602353-114.838588-13.161412-48.007529-105.110588a26.352941 26.352941 0 0 0-46.200471-3.252706z m22.226823 77.643294l30.208 66.198588 1.626353 3.011765c4.216471 6.746353 11.324235 11.294118 19.365647 12.197647l72.252236 8.282353-53.609412 49.182118-2.349176 2.499764a26.352941 26.352941 0 0 0-5.632 22.166589l14.426352 71.28847-63.307294-35.779764-3.102117-1.505883a26.352941 26.352941 0 0 0-22.829177 1.505883L445.741176 642.108235l14.456471-71.28847 0.451765-3.403294a26.352941 26.352941 0 0 0-8.463059-21.263059l-53.609412-49.182118 72.282353-8.282353a26.352941 26.352941 0 0 0 20.961882-15.209412l30.208-66.198588z" fill="#568af2" /></svg>