<svg class="icon" style="width: 1em;height: 1em;vertical-align: middle;fill: currentColor;overflow: hidden;" viewBox="0 0 1024 1024" version="1.1" xmlns="http://www.w3.org/2000/svg" width="32" height="32"><path d="M159.382588 263.529412a79.058824 79.058824 0 0 1 79.058824-79.058824h527.058823a79.058824 79.058824 0 0 1 79.058824 79.058824v527.058823a79.058824 79.058824 0 0 1-79.058824 79.058824h-527.058823a79.058824 79.058824 0 0 1-79.058824-79.058824V263.529412z m52.705883 412.852706h115.471058l27.858824 55.717647c3.945412 7.920941 11.595294 13.251765 20.269176 14.366117l3.312942 0.210824h245.940705l3.312942-0.210824a26.352941 26.352941 0 0 0 18.612706-11.504941l1.65647-2.861176 27.828706-55.717647h115.501176v-52.705883h-131.764705l-3.312942 0.210824a26.352941 26.352941 0 0 0-18.612705 11.504941l-1.656471 2.861176-27.858824 55.717648h-213.413647l-27.828706-55.717648a26.352941 26.352941 0 0 0-20.269176-14.366117l-3.312941-0.210824H212.118588v52.705883z m432.489411-346.322824l-2.770823 2.319059-164.442353 158.117647-80.112941-77.040941a26.352941 26.352941 0 0 0-38.942118 35.358117l2.409412 2.650353 98.394353 94.569412a26.352941 26.352941 0 0 0 33.852235 2.258824l2.650353-2.228706 182.723765-175.706353a26.352941 26.352941 0 0 0-33.792-40.297412z" fill="#568af2" /></svg>