<svg class="icon" style="width: 1em;height: 1em;vertical-align: middle;fill: currentColor;overflow: hidden;" viewBox="0 0 1024 1024" version="1.1" xmlns="http://www.w3.org/2000/svg" width="32" height="32"><path d="M504.470588 124.235294a79.058824 79.058824 0 0 1 79.058824 79.058824l-0.030118 8.734117 166.942118 0.060236c24.244706 0 43.911529 19.666824 43.911529 43.911529v597.323294c0 24.274824-19.666824 43.941647-43.911529 43.941647H258.499765a43.911529 43.911529 0 0 1-43.91153-43.941647V256c0-24.244706 19.666824-43.911529 43.91153-43.911529l166.881882-0.060236 0.030118-8.734117a79.058824 79.058824 0 0 1 74.059294-78.908236l4.999529-0.150588z m26.322824 87.823059l0.030117 25.509647 0.210824 3.403294c1.686588 13.432471 13.131294 23.792941 27.015529 23.792941h43.038118v52.705883h-193.234824v-52.705883h43.068236c14.998588 0 27.196235-12.167529 27.196235-27.196235l-0.030118-25.509647-52.705882-0.030118v0.030118h-70.234353v114.206118c0 24.274824 19.666824 43.941647 43.91153 43.941647h210.823529c24.244706 0 43.911529-19.666824 43.911529-43.941647V212.088471l-70.26447-0.030118-0.030118-0.030118-52.705882 0.030118z" fill="#568af2" /></svg>