<svg class="icon" style="width: 1em;height: 1em;vertical-align: middle;fill: currentColor;overflow: hidden;" viewBox="0 0 1024 1024" version="1.1" xmlns="http://www.w3.org/2000/svg" width="32" height="32"><path d="M627.440941 124.235294c6.987294 0 13.703529 2.770824 18.672941 7.710118l175.646118 175.706353a26.352941 26.352941 0 0 1 7.740235 18.612706v491.941647a61.500235 61.500235 0 0 1-61.500235 61.470117H276.088471a61.500235 61.500235 0 0 1-61.500236-61.470117v-632.470589c0-33.972706 27.527529-61.500235 61.500236-61.500235h351.35247z m17.739294 245.970824H399.058824a26.352941 26.352941 0 0 0-26.352942 26.352941V677.647059c0 14.546824 11.806118 26.352941 26.352942 26.352941h246.121411a26.352941 26.352941 0 0 0 26.352941-26.352941v-122.819765a26.352941 26.352941 0 0 0-26.352941-26.352941H557.176471a26.352941 26.352941 0 0 0-26.352942 26.352941l0.210824 3.312941a26.352941 26.352941 0 0 0 26.142118 23.04l61.620705-0.030117v70.144h-193.385411v-228.382118h219.76847a26.352941 26.352941 0 0 0 0-52.705882z" fill="#568af2" /></svg>