<svg class="icon" style="width: 1em;height: 1em;vertical-align: middle;fill: currentColor;overflow: hidden;" viewBox="0 0 1024 1024" version="1.1" xmlns="http://www.w3.org/2000/svg" width="32" height="32"><path d="M484.382118 150.588235a35.147294 35.147294 0 0 1 3.824941 70.053647l-3.824941 0.210824H238.441412c-8.734118 0-15.962353 6.384941-17.347765 14.727529l-0.240941 2.861177v388.818823l134.927059-123.663059a61.500235 61.500235 0 0 1 81.558588-1.385411l118.633412 101.707294 81.498353-81.468235a61.500235 61.500235 0 0 1 80.353882-5.722353L783.058824 565.639529v-116.374588l0.210823-3.824941a35.147294 35.147294 0 0 1 69.872941 0l0.180706 3.824941v316.235294H783.058824v-133.963294l-96.828236-72.643765a8.794353 8.794353 0 0 0-11.504941 0.813177l-78.637176 78.607059 63.548235 54.452706a26.352941 26.352941 0 0 1-34.273882 40.026353l-222.328471-190.554353a8.794353 8.794353 0 0 0-11.625412 0.210823L220.852706 698.729412v66.770823H150.588235v-527.058823l0.150589-5.180236A87.853176 87.853176 0 0 1 238.441412 150.588235h245.940706z m275.847529 8.794353c46.381176 0 84.329412 36.833882 84.329412 82.642824 0 61.861647-64.903529 125.500235-123.693177 144.474353a26.352941 26.352941 0 0 1-16.173176 0c-58.759529-18.974118-123.663059-82.612706-123.663059-144.474353 0-45.808941 37.918118-82.642824 84.329412-82.642824 15.751529 0 30.810353 4.276706 43.791059 11.986824l3.614117 2.379294 3.674353-2.379294a85.323294 85.323294 0 0 1 37.918118-11.806118l5.872941-0.180706zM233.261176 853.172706A87.853176 87.853176 0 0 1 150.588235 765.500235h70.264471c0 9.697882 7.890824 17.558588 17.588706 17.558589h527.058823v70.26447h-527.058823z m532.239059 0.150588a87.853176 87.853176 0 0 0 87.823059-87.823059H783.058824a17.558588 17.558588 0 0 1-17.558589 17.558589v70.26447z" fill="#568af2" /></svg>