<svg class="icon" style="width: 1em;height: 1em;vertical-align: middle;fill: currentColor;overflow: hidden;" viewBox="0 0 1024 1024" version="1.1" xmlns="http://www.w3.org/2000/svg" width="32" height="32"><path d="M760.470588 154.352941c12.468706 0 23.250824 8.734118 25.810824 20.992l87.823059 421.647059 0.240941 1.174588a26.352941 26.352941 0 0 1 0.180706 1.475765l-0.421647-2.650353a26.503529 26.503529 0 0 1 0.572235 5.360941v228.382118a26.352941 26.352941 0 0 1-26.352941 26.352941H180.705882a26.352941 26.352941 0 0 1-26.352941-26.352941v-228.924235c0-0.722824 0.060235-1.445647 0.150588-2.168471l-0.150588 2.710588a26.503529 26.503529 0 0 1 0.421647-4.668235l0.120471-0.692706 87.853176-421.647059a26.352941 26.352941 0 0 1 25.810824-20.992H760.470588z m-425.231059 474.352941H207.058824v175.676236h614.881882v-175.676236h-128.180706l-26.262588 86.708706a26.352941 26.352941 0 0 1-21.775059 18.492236l-3.433412 0.210823H386.710588a26.352941 26.352941 0 0 1-25.20847-18.703059l-26.292706-86.708706z m179.260236-333.793882a26.352941 26.352941 0 0 0-26.142118 23.04l-0.210823 3.312941v147.184941l-60.416-60.416a26.352941 26.352941 0 0 0-34.575059-2.349176l-2.710589 2.349176a26.352941 26.352941 0 0 0-2.349176 34.575059l2.379294 2.710588 105.411765 105.411765a26.804706 26.804706 0 0 0 4.879059 3.855059l0.722823 0.421647 0.632471 0.331294a26.232471 26.232471 0 0 0 20.961882 1.656471l0.572235-0.180706 0.542118-0.210824a26.714353 26.714353 0 0 0 1.054118-0.451764l1.65647-0.813177 0.602353-0.331294 0.722824-0.421647a27.557647 27.557647 0 0 0 1.776941-1.204706l0.421647-0.301176 0.783059-0.602353a26.503529 26.503529 0 0 0 1.295059-1.144471l0.63247-0.602353 105.411765-105.411765a26.352941 26.352941 0 0 0-34.575059-39.634823l-2.710588 2.349176-60.416 60.416v-147.184941a26.352941 26.352941 0 0 0-23.04-26.172235l-3.312941-0.180706z" fill="#568af2" /></svg>