<svg class="icon" style="width: 1em;height: 1em;vertical-align: middle;fill: currentColor;overflow: hidden;" viewBox="0 0 1024 1024" version="1.1" xmlns="http://www.w3.org/2000/svg" width="32" height="32"><path d="M426.676706 184.470588c7.830588 0 15.239529 3.463529 20.239059 9.487059l79.932235 95.924706H813.176471c32.406588 0 58.970353 25.088 61.319529 56.922353l0.180706 4.577882v456.764236A61.500235 61.500235 0 0 1 813.176471 869.647059H215.853176a61.500235 61.500235 0 0 1-61.500235-61.500235V245.970824c0-33.972706 27.527529-61.500235 61.500235-61.500236h210.82353z m192.361412 368.941177h-210.82353a26.352941 26.352941 0 1 0 0 52.705882h210.82353a26.352941 26.352941 0 0 0 0-52.705882z" fill="#568af2" /></svg>