<svg class="icon" style="width: 1em;height: 1em;vertical-align: middle;fill: currentColor;overflow: hidden;" viewBox="0 0 1024 1024" version="1.1" xmlns="http://www.w3.org/2000/svg" width="32" height="32"><path d="M373.970824 184.470588a166.761412 166.761412 0 0 1 140.559058 76.890353 166.671059 166.671059 0 0 1 140.528942-76.890353h193.264941c14.546824 0 26.352941 11.806118 26.352941 26.352941v509.500236a26.352941 26.352941 0 0 1-26.352941 26.352941h-228.412236a79.058824 79.058824 0 0 0-78.908235 74.059294l-0.150588 4.999529a24.997647 24.997647 0 0 1-21.985882 26.021647l-2.891295 0.301177h-2.921411c-12.679529-0.632471-24.907294-9.426824-24.907294-26.322824a79.058824 79.058824 0 0 0-79.058824-79.058823H180.705882a26.352941 26.352941 0 0 1-26.352941-26.352941V210.823529c0-14.546824 11.806118-26.352941 26.352941-26.352941h193.264942z" fill="#568af2" /></svg>