<svg class="icon" style="width: 1em;height: 1em;vertical-align: middle;fill: currentColor;overflow: hidden;" viewBox="0 0 1024 1024" version="1.1" xmlns="http://www.w3.org/2000/svg" width="32" height="32"><path d="M426.676706 184.470588c7.830588 0 15.239529 3.463529 20.239059 9.487059l79.932235 95.924706H813.176471c32.406588 0 58.970353 25.088 61.319529 56.922353l0.180706 4.577882v456.764236A61.500235 61.500235 0 0 1 813.176471 869.647059H215.853176a61.500235 61.500235 0 0 1-61.500235-61.500235V245.970824c0-33.972706 27.527529-61.500235 61.500235-61.500236h210.82353z m87.823059 245.970824a79.058824 79.058824 0 0 0-78.908236 74.059294l-0.150588 4.999529v26.322824H391.529412a26.352941 26.352941 0 0 0-26.142118 23.070117l-0.210823 3.312942v140.528941c0 13.432471 10.059294 24.545882 23.04 26.172235l3.312941 0.180706h245.970823a26.352941 26.352941 0 0 0 26.142118-23.04l0.210823-3.312941v-140.528941a26.352941 26.352941 0 0 0-23.070117-26.172236l-3.312941-0.180706-43.91153-0.030117v-26.322824a79.058824 79.058824 0 0 0-74.059294-78.908235l-4.999529-0.150588z m96.617411 158.117647v87.823059h-193.234823v-87.823059h193.234823z m-96.617411-105.411765c13.432471 0 24.545882 10.029176 26.172235 23.04l0.180706 3.312941v26.322824h-52.705882v-26.322824c0-13.432471 10.059294-24.545882 23.070117-26.172235l3.312941-0.180706z" fill="#568af2" /></svg>