<svg class="icon" style="width: 1em;height: 1em;vertical-align: middle;fill: currentColor;overflow: hidden;" viewBox="0 0 1024 1024" version="1.1" xmlns="http://www.w3.org/2000/svg" width="32" height="32"><path d="M755.952941 529.829647a26.352941 26.352941 0 0 1 11.776 35.358118l-16.082823 32.135529h62.795294c16.624941 0 29.093647 15.239529 25.840941 31.533177l-35.147294 175.676235a26.352941 26.352941 0 0 1-25.840941 21.202823h-105.411765a26.352941 26.352941 0 0 1-25.840941-21.202823L612.894118 628.856471a26.352941 26.352941 0 0 1 25.840941-31.533177h54.000941l27.858824-55.717647a26.352941 26.352941 0 0 1 35.358117-11.745882z m95.171765-318.945882L849.558588 210.823529a26.593882 26.593882 0 0 1 6.836706 0.90353l0.90353 0.240941a24.606118 24.606118 0 0 1 7.981176 4.065882 20.299294 20.299294 0 0 1 3.403294 3.011765 27.557647 27.557647 0 0 1 1.957647 2.319059l0.301177 0.361412a26.413176 26.413176 0 0 1 0.993882 1.505882l-1.295059-1.867294a26.563765 26.563765 0 0 1 5.270588 15.811765v263.529411a26.352941 26.352941 0 1 1-52.705882 0v-210.823529l-309.187765 231.905882a26.352941 26.352941 0 0 1-31.623529 0L173.176471 289.882353V737.882353h325.029647c13.432471 0 24.515765 10.059294 26.142117 23.04l0.210824 3.312941a26.352941 26.352941 0 0 1-26.352941 26.352941H146.823529A26.352941 26.352941 0 0 1 120.470588 764.235294v-527.058823l0.030118-1.536a26.352941 26.352941 0 0 1 0.150588-1.596236L120.470588 237.176471a26.232471 26.232471 0 0 1 5.180236-15.691295l0.090352-0.12047 0.180706-0.240941a26.503529 26.503529 0 0 1 1.807059-2.108236l-1.987765 2.349177a26.533647 26.533647 0 0 1 19.486118-10.480941 27.196235 27.196235 0 0 1 1.204706-0.060236h703.518118a26.503529 26.503529 0 0 1 1.174588 0.060236zM770.499765 263.529412H225.882353l272.293647 204.227764 272.323765-204.197647z" fill="#568af2" /></svg>