<svg class="icon" style="width: 1em;height: 1em;vertical-align: middle;fill: currentColor;overflow: hidden;" viewBox="0 0 1024 1024" version="1.1" xmlns="http://www.w3.org/2000/svg" width="32" height="32"><path d="M614.912 124.235294c7.469176 0 14.576941 3.162353 19.576471 8.734118l158.117647 175.676235 0.903529 1.054118c0.481882 0.602353 0.903529 1.174588 1.325177 1.807059l-2.228706-2.861177a26.352941 26.352941 0 0 1 4.126117 6.144l0.39153 0.813177a23.973647 23.973647 0 0 1 2.048 7.378823l0.210823 3.312941v158.117647a26.352941 26.352941 0 0 1-52.705882 0l-0.030118-131.794823h-149.323294a26.352941 26.352941 0 0 1-26.352941-26.352941V176.941176H245.970824a8.794353 8.794353 0 0 0-8.553412 6.776471l-0.240941 2.017882v632.470589c0 4.818824 3.915294 8.764235 8.794353 8.764235h210.823529a26.352941 26.352941 0 0 1 0 52.705882h-210.823529a61.500235 61.500235 0 0 1-61.500236-61.470117v-632.470589c0-33.972706 27.527529-61.500235 61.500236-61.500235h368.941176z m60.385882 422.79153a1032.914824 1032.914824 0 0 1 63.186824 21.684705c11.595294 4.397176 22.076235 8.734118 31.171765 12.860236 33.039059 15.119059 47.284706 24.877176 47.284705 46.893176 0 72.161882-25.389176 134.083765-67.463529 185.374118-25.148235 30.659765-50.447059 51.2-68.156235 61.982117a26.352941 26.352941 0 0 1-27.407059 0c-17.739294-10.782118-43.008-31.322353-68.186353-61.982117-42.044235-51.290353-67.463529-113.242353-67.463529-185.374118 0-21.985882 14.245647-31.774118 47.284705-46.893176 9.125647-4.156235 19.576471-8.463059 31.201883-12.890353a1032.914824 1032.914824 0 0 1 63.186823-21.654588 26.352941 26.352941 0 0 1 15.36 0z" fill="#568af2" /></svg>