<svg class="icon" style="width: 1em;height: 1em;vertical-align: middle;fill: currentColor;overflow: hidden;" viewBox="0 0 1024 1024" version="1.1" xmlns="http://www.w3.org/2000/svg" width="32" height="32"><path d="M645.029647 124.235294c7.68 0 14.998588 3.373176 19.998118 9.216l158.117647 184.470588c4.096 4.758588 6.324706 10.842353 6.324706 17.136942v518.26447a26.352941 26.352941 0 0 1-26.322824 26.352941H240.941176a26.352941 26.352941 0 0 1-26.352941-26.352941V150.588235c0-14.546824 11.806118-26.352941 26.352941-26.352941h404.088471z m41.170824 190.34353a26.352941 26.352941 0 0 0-35.297883-11.926589l-105.411764 52.163765a26.352941 26.352941 0 0 0-14.667295 23.612235v154.352941a122.970353 122.970353 0 1 0 52.705883 100.924236v-238.923294l90.74447-44.875294a26.352941 26.352941 0 0 0 11.926589-35.328z m-225.641412 248.862117a70.264471 70.264471 0 1 1 0 140.559059 70.264471 70.264471 0 0 1 0-140.559059z" fill="#568af2" /></svg>