<svg class="icon" style="width: 1em;height: 1em;vertical-align: middle;fill: currentColor;overflow: hidden;" viewBox="0 0 1024 1024" version="1.1" xmlns="http://www.w3.org/2000/svg" width="32" height="32"><path d="M808.146824 124.235294c33.972706 0 61.500235 27.527529 61.500235 61.500235v632.470589a61.500235 61.500235 0 0 1-61.500235 61.470117H316.235294a61.500235 61.500235 0 0 1-61.500235-61.470117V686.381176H210.823529a26.352941 26.352941 0 0 1-26.352941-26.322823v-316.235294c0-14.576941 11.806118-26.352941 26.352941-26.352941l43.91153-0.030118V185.735529c0-33.972706 27.527529-61.500235 61.500235-61.500235h491.91153z m0 52.705882H316.235294a8.794353 8.794353 0 0 0-8.794353 8.794353v131.734589H527.058824c14.546824 0 26.352941 11.806118 26.352941 26.383058v316.235295a26.352941 26.352941 0 0 1-26.352941 26.352941l-219.617883-0.030118v131.794824c0 4.818824 3.915294 8.764235 8.794353 8.764235h491.91153c4.848941 0 8.794353-3.915294 8.794352-8.764235v-632.470589a8.794353 8.794353 0 0 0-8.794352-8.794353z m-70.264471 421.647059a26.352941 26.352941 0 1 1 0 52.705883H632.470588a26.352941 26.352941 0 1 1 0-52.705883h105.411765zM405.684706 428.272941l-2.680471 2.349177-34.063059 34.093176-34.063058-34.093176a26.352941 26.352941 0 0 0-34.575059-2.349177l-2.710588 2.349177a26.352941 26.352941 0 0 0-2.349177 34.575058l2.349177 2.710589 34.093176 34.032941-34.093176 34.093176a26.352941 26.352941 0 0 0-2.349177 34.575059l2.349177 2.710588a26.352941 26.352941 0 0 0 34.575058 2.349177l2.710589-2.379294 34.063058-34.063059 34.063059 34.063059a26.352941 26.352941 0 0 0 34.575059 2.379294l2.710588-2.379294a26.352941 26.352941 0 0 0 2.349177-34.544941l-2.349177-2.710589-34.093176-34.063058 34.093176-34.093177a26.352941 26.352941 0 0 0 2.349177-34.544941l-2.349177-2.710588a26.352941 26.352941 0 0 0-34.575058-2.349177z m332.197647 29.756235a26.352941 26.352941 0 0 1 0 52.705883H632.470588a26.352941 26.352941 0 1 1 0-52.705883h105.411765z m0-140.528941a26.352941 26.352941 0 1 1 0 52.705883h-52.705882a26.352941 26.352941 0 0 1 0-52.705883h52.705882z" fill="#568af2" /></svg>