<svg class="icon" style="width: 1em;height: 1em;vertical-align: middle;fill: currentColor;overflow: hidden;" viewBox="0 0 1024 1024" version="1.1" xmlns="http://www.w3.org/2000/svg" width="32" height="32"><path d="M426.676706 184.470588c7.830588 0 15.239529 3.463529 20.239059 9.487059l79.932235 95.924706H813.176471c32.406588 0 58.970353 25.088 61.319529 56.922353l0.180706 4.577882v456.764236A61.500235 61.500235 0 0 1 813.176471 869.647059H215.853176a61.500235 61.500235 0 0 1-61.500235-61.500235V245.970824c0-33.972706 27.527529-61.500235 61.500235-61.500236h210.82353z m87.823059 263.529412a26.352941 26.352941 0 0 0-26.142118 23.04l-0.210823 3.312941v29.997177a96.045176 96.045176 0 0 0-20.781177 8.613647l-22.076235-22.106353a26.352941 26.352941 0 0 0-39.604706 34.575059l2.349176 2.710588 22.106353 22.076235c-3.644235 6.505412-6.565647 13.462588-8.613647 20.781177H391.529412a26.352941 26.352941 0 0 0-3.312941 52.495058l3.312941 0.180706h29.997176c1.867294 6.595765 4.397176 12.890353 7.529412 18.793412l-26.202353 26.202353a26.352941 26.352941 0 0 0 34.605177 39.634824l2.710588-2.379295 25.298823-25.298823c7.047529 4.126118 14.667294 7.408941 22.678589 9.697882v29.997177a26.352941 26.352941 0 0 0 52.525176 3.312941l0.180706-3.312941v-29.997177c7.318588-2.078118 14.245647-4.969412 20.751059-8.583529l24.244706 24.18447a26.352941 26.352941 0 0 0 39.634823-34.544941l-2.379294-2.710588-24.184471-24.244706c3.614118-6.505412 6.505412-13.432471 8.58353-20.751059h29.997176a26.352941 26.352941 0 0 0 3.312941-52.495059l-3.312941-0.210823h-29.997176a96.075294 96.075294 0 0 0-9.697883-22.648471l20.178824-20.178823a26.352941 26.352941 0 0 0-34.575059-39.634824l-2.710588 2.349177-21.052235 21.022117a96.015059 96.015059 0 0 0-18.793412-7.529411v-29.997177a26.352941 26.352941 0 0 0-26.352941-26.352941z m0 105.411765a43.911529 43.911529 0 1 1 0 87.853176 43.911529 43.911529 0 0 1 0-87.853176z" fill="#568af2" /></svg>