<svg class="icon" style="width: 1em;height: 1em;vertical-align: middle;fill: currentColor;overflow: hidden;" viewBox="0 0 1024 1024" version="1.1" xmlns="http://www.w3.org/2000/svg" width="32" height="32"><path d="M744.146824 180.705882c14.576941 0 26.352941 11.806118 26.352941 26.352942V391.529412h79.450353a26.503529 26.503529 0 0 1 1.174588 0.030117L849.558588 391.529412a26.593882 26.593882 0 0 1 6.836706 0.903529l0.90353 0.240941a24.606118 24.606118 0 0 1 7.981176 4.035765 20.299294 20.299294 0 0 1 3.011765 2.650353l0.421647 0.421647a26.503529 26.503529 0 0 1 1.264941 1.445647l0.662588 0.843294 0.39153 0.512a26.413176 26.413176 0 0 1 0.752941 1.144471l-1.144471-1.656471a26.563765 26.563765 0 0 1 5.270588 15.811765v421.647059a26.352941 26.352941 0 0 1-26.352941 26.352941H146.823529A26.352941 26.352941 0 0 1 120.470588 839.529412v-421.647059l0.030118-1.536a26.352941 26.352941 0 0 1 0.150588-1.596235L120.470588 417.882353a26.232471 26.232471 0 0 1 5.089883-15.540706l0.180705-0.271059 0.421648-0.542117a26.503529 26.503529 0 0 1 1.536-1.776942l-1.957648 2.319059a26.533647 26.533647 0 0 1 19.486118-10.480941 27.196235 27.196235 0 0 1 1.204706-0.060235H225.882353V207.058824c0-13.432471 10.059294-24.515765 23.04-26.142118L252.235294 180.705882h491.91153z m-26.352942 52.705883H278.588235V483.779765l219.587765 164.683294 219.617882-164.713412V233.411765z m-219.587764 70.26447c14.546824 0 26.352941 11.806118 26.352941 26.352941v129.626353l42.857412-42.827294a26.352941 26.352941 0 0 1 34.544941-2.379294l2.710588 2.379294a26.352941 26.352941 0 0 1 0 37.25553l-87.853176 87.853176-0.662589 0.542118-0.451764 0.512-0.843295 0.602353-0.722823 0.692706-0.481882 0.301176-0.39153 0.331294-1.65647 0.993883-0.39153 0.301176-0.602353 0.331294-1.867294 0.813177-0.63247 0.361411-0.240942 0.030118-1.325176 0.451765-1.656471 0.602353a26.413176 26.413176 0 0 1-3.312941 0.602353l-3.373176 0.240941a26.473412 26.473412 0 0 1-6.686118-0.843294l-1.897412-0.662589-0.963764-0.271058-0.150589-0.090353-1.054117-0.481883-1.656471-0.752941-0.421647-0.240941-0.903529-0.572235-1.325177-0.813177-0.451765-0.361412-0.421647-0.271058-0.783058-0.692706-0.783059-0.602353-0.512-0.512-0.632471-0.542118-87.853176-87.853176a26.352941 26.352941 0 1 1 37.285647-37.25553l42.827294 42.827294v-129.626353c0-13.432471 10.089412-24.515765 23.070117-26.142117l3.312942-0.210824z" fill="#568af2" /></svg>