<svg class="icon" style="width: 1em;height: 1em;vertical-align: middle;fill: currentColor;overflow: hidden;" viewBox="0 0 1024 1024" version="1.1" xmlns="http://www.w3.org/2000/svg" width="32" height="32"><path d="M422.912 180.705882c7.830588 0 15.239529 3.463529 20.239059 9.487059L523.083294 286.117647h286.328471c32.406588 0 58.970353 25.088 61.319529 56.922353l0.180706 4.577882v456.764236a61.500235 61.500235 0 0 1-61.500235 61.500235H212.088471A61.500235 61.500235 0 0 1 150.588235 804.382118V242.206118C150.588235 208.233412 178.115765 180.705882 212.088471 180.705882h210.823529z m-34.725647 421.647059a26.503529 26.503529 0 0 0-15.781647 4.939294l-0.602353 0.421647-0.692706 0.602353a26.503529 26.503529 0 0 0-1.716706 1.505883l-0.271059 0.240941a26.864941 26.864941 0 0 0-4.517647 6.023529 26.262588 26.262588 0 0 0 1.746824 28.009412l0.421647 0.542118 0.602353 0.722823a26.503529 26.503529 0 0 0 1.505882 1.716706l0.240941 0.271059 87.853177 87.823059a26.352941 26.352941 0 1 0 37.255529-37.25553l-42.827294-42.857411h182.332235a26.352941 26.352941 0 0 0 26.142118-23.04l0.210824-3.312942a26.352941 26.352941 0 0 0-26.352942-26.352941z m176.338823-185.524706a26.352941 26.352941 0 1 0-37.285647 37.25553L570.127059 496.941176h-182.332235a26.352941 26.352941 0 0 0-26.142118 23.04l-0.210824 3.312942c0 14.546824 11.806118 26.352941 26.352942 26.352941h245.970823l3.312941-0.210824a26.202353 26.202353 0 0 0 12.16753-4.818823l0.451764-0.331294 0.692706-0.542118a26.503529 26.503529 0 0 0 1.566118-1.385412l0.421647-0.421647a26.864941 26.864941 0 0 0 6.384941-10.300235 26.473412 26.473412 0 0 0-3.614118-23.702588l-0.391529-0.602353-0.632471-0.752941a26.503529 26.503529 0 0 0-1.264941-1.445648l-0.481882-0.481882z" fill="#568af2" /></svg>