<svg class="icon" style="width: 1em;height: 1em;vertical-align: middle;fill: currentColor;overflow: hidden;" viewBox="0 0 1024 1024" version="1.1" xmlns="http://www.w3.org/2000/svg" width="32" height="32"><path d="M627.440941 124.235294c2.319059 0 4.517647 0.301176 6.625883 0.843294l0.391529 0.090353a26.112 26.112 0 0 1 11.625412 6.776471l175.676235 175.706353 0.662588 0.662588a26.503529 26.503529 0 0 1 1.084236 1.234823l-1.746824-1.897411a26.563765 26.563765 0 0 1 7.529412 15.329882l0.210823 3.312941v491.91153a61.500235 61.500235 0 0 1-61.500235 61.470117H276.088471a61.500235 61.500235 0 0 1-61.500236-61.470117v-632.470589c0-33.972706 27.527529-61.500235 61.500236-61.500235h351.35247z m-52.705882 298.676706a26.352941 26.352941 0 0 0-26.142118 23.04l-0.210823 3.312941v43.91153h-52.705883v-43.91153a26.352941 26.352941 0 0 0-23.04-26.172235l-3.312941-0.180706a26.352941 26.352941 0 0 0-26.142118 23.04l-0.210823 3.312941v43.91153H399.058824a26.352941 26.352941 0 0 0-26.142118 23.04l-0.210824 3.312941c0 13.432471 10.059294 24.515765 23.04 26.142117l3.312942 0.210824h43.911529v52.705882H399.058824a26.352941 26.352941 0 0 0-26.142118 23.04l-0.210824 3.312941c0 13.432471 10.059294 24.515765 23.04 26.142118l3.312942 0.210824h43.911529v43.911529c0 13.432471 10.059294 24.545882 23.070118 26.172235l3.312941 0.180706a26.352941 26.352941 0 0 0 26.142117-23.04l0.180706-3.312941v-43.911529h52.705883v43.911529c0 13.432471 10.059294 24.545882 23.070117 26.172235l3.312941 0.180706a26.352941 26.352941 0 0 0 26.142118-23.04l0.180706-3.312941v-43.911529h43.941647a26.352941 26.352941 0 0 0 26.142118-23.04l0.210823-3.312942a26.352941 26.352941 0 0 0-23.070117-26.142117l-3.312942-0.210824h-43.911529v-52.705882h43.941647a26.352941 26.352941 0 0 0 26.142118-23.04l0.210823-3.312941a26.352941 26.352941 0 0 0-23.070117-26.142118l-3.312942-0.210823h-43.911529v-43.91153a26.352941 26.352941 0 0 0-23.04-26.172235l-3.312941-0.180706z m-26.352941 122.970353v52.705882h-52.705883v-52.705882h52.705883z m191.09647-245.970824l-85.684706-85.714823v85.714823h85.684706z" fill="#568af2" /></svg>