<svg class="icon" style="width: 1em;height: 1em;vertical-align: middle;fill: currentColor;overflow: hidden;" viewBox="0 0 1024 1024" version="1.1" xmlns="http://www.w3.org/2000/svg" width="32" height="32"><path d="M773.029647 124.235294c33.942588 0 61.470118 27.527529 61.470118 61.500235v632.470589a61.500235 61.500235 0 0 1-61.470118 61.470117h-527.058823a61.500235 61.500235 0 0 1-61.500236-61.470117v-632.470589c0-33.972706 27.527529-61.500235 61.500236-61.500235h527.058823z m-228.412235 544.617412H368.941176a26.352941 26.352941 0 0 0-3.312941 52.525176l3.312941 0.180706h175.676236a26.352941 26.352941 0 1 0 0-52.705882z m-105.411765-105.411765H368.941176a26.352941 26.352941 0 0 0-3.312941 52.525177l3.312941 0.180706h70.264471a26.352941 26.352941 0 1 0 0-52.705883zM752.820706 193.114353c-11.143529 24.997647-25.479529 50.055529-43.158588 73.276235-31.111529 40.96-68.517647 71.378824-113.061647 88.365177a96.647529 96.647529 0 1 0-174.260706 0c-44.513882-16.986353-81.92-47.405176-113.03153-88.365177a372.073412 372.073412 0 0 1-49.965176-89.449412h-13.372235a8.794353 8.794353 0 0 0-8.794353 8.794353v66.740706c8.884706 15.631059 18.913882 31.021176 30.177882 45.839059 39.152941 51.501176 87.702588 89.569882 146.130823 109.327059a96.647529 96.647529 0 0 0 192 0c58.428235-19.757176 107.008-57.825882 146.130824-109.327059 11.294118-14.848 21.323294-30.238118 30.208-45.869176V185.735529a8.794353 8.794353 0 0 0-8.794353-8.794353h-13.402353c-1.867294 4.728471-4.126118 10.149647-6.806588 16.173177z m-243.350588 159.503059a43.911529 43.911529 0 1 1 0 87.853176 43.911529 43.911529 0 0 1 0-87.853176z" fill="#568af2" /></svg>