<svg class="icon" style="width: 1em;height: 1em;vertical-align: middle;fill: currentColor;overflow: hidden;" viewBox="0 0 1024 1024" version="1.1" xmlns="http://www.w3.org/2000/svg" width="32" height="32"><path d="M426.676706 184.470588c7.830588 0 15.239529 3.463529 20.239059 9.487059l79.932235 95.924706H813.176471c32.406588 0 58.970353 25.088 61.319529 56.922353l0.180706 4.577882v456.764236A61.500235 61.500235 0 0 1 813.176471 869.647059H215.853176a61.500235 61.500235 0 0 1-61.500235-61.500235V245.970824c0-33.972706 27.527529-61.500235 61.500235-61.500236h210.82353z m-69.210353 288.828236a26.352941 26.352941 0 0 0-37.285647 0l-2.349177 2.710588a26.352941 26.352941 0 0 0 2.349177 34.544941l69.180235 69.180235-69.180235 69.240471a26.352941 26.352941 0 1 0 37.285647 37.255529l87.823059-87.823059a26.352941 26.352941 0 0 0 0-37.285647z m332.739765 167.966117H549.647059a26.352941 26.352941 0 1 0 0 52.705883h140.559059a26.352941 26.352941 0 0 0 0-52.705883z" fill="#568af2" /></svg>