<svg class="icon" style="width: 1em;height: 1em;vertical-align: middle;fill: currentColor;overflow: hidden;" viewBox="0 0 1024 1024" version="1.1" xmlns="http://www.w3.org/2000/svg" width="32" height="32"><path d="M655.058824 154.352941c14.546824 0 26.352941 11.806118 26.352941 26.352941v26.352942H813.176471c33.972706 0 61.500235 27.527529 61.500235 61.500235v404.058353a26.352941 26.352941 0 0 1-52.705882 0l-0.030118-219.587765H207.058824V813.176471c0 4.156235 2.891294 7.649882 6.77647 8.553411l2.017882 0.240942h298.646589a26.352941 26.352941 0 1 1 0 52.705882H215.853176A61.500235 61.500235 0 0 1 154.352941 813.176471V268.559059c0-33.972706 27.527529-61.500235 61.500235-61.500235h131.734589V180.705882a26.352941 26.352941 0 1 1 52.705882 0v26.352942h228.412235V180.705882c0-14.546824 11.806118-26.352941 26.352942-26.352941z m-35.147295 351.382588a149.323294 149.323294 0 0 1 129.807059 223.201883l97.882353 81.558588a26.352941 26.352941 0 0 1-33.731765 40.508235l-97.882352-81.618823a149.323294 149.323294 0 1 1-96.075295-263.68z m0 52.705883a96.617412 96.617412 0 1 0 0 193.234823 96.617412 96.617412 0 0 0 0-193.234823z" fill="#568af2" /></svg>