<svg class="icon" style="width: 1em;height: 1em;vertical-align: middle;fill: currentColor;overflow: hidden;" viewBox="0 0 1024 1024" version="1.1" xmlns="http://www.w3.org/2000/svg" width="32" height="32"><path d="M768 124.235294c33.972706 0 61.500235 27.527529 61.500235 61.500235v632.470589a61.500235 61.500235 0 0 1-61.500235 61.470117H276.088471a61.500235 61.500235 0 0 1-61.500236-61.470117v-632.470589c0-33.972706 27.527529-61.500235 61.500236-61.500235H768z m-245.970824 562.206118H399.058824a26.352941 26.352941 0 0 0-3.312942 52.495059l3.312942 0.210823h122.970352a26.352941 26.352941 0 0 0 0-52.705882z m123.000471-105.411765H399.058824a26.352941 26.352941 0 0 0-3.312942 52.495059l3.312942 0.210823h245.970823a26.352941 26.352941 0 0 0 0-52.705882zM504.470588 247.205647a114.206118 114.206118 0 0 0-5.872941 228.261647l5.872941 0.150588 7.04753-0.210823a113.784471 113.784471 0 0 0 46.140235-12.920471l5.963294-3.373176 0.752941-0.542118 44.453647 44.453647a26.352941 26.352941 0 0 0 34.544941 2.349177l2.710589-2.349177 2.349176-2.710588a26.383059 26.383059 0 0 0 0-31.864471l-2.349176-2.710588-44.453647-44.423529 0.542117-0.752941a114.206118 114.206118 0 0 0-97.701647-173.327059z m0 52.705882a61.500235 61.500235 0 1 1 0 123.000471 61.500235 61.500235 0 0 1 0-123.000471z" fill="#568af2" /></svg>