<svg class="icon" style="width: 1em;height: 1em;vertical-align: middle;fill: currentColor;overflow: hidden;" viewBox="0 0 1024 1024" version="1.1" xmlns="http://www.w3.org/2000/svg" width="32" height="32"><path d="M851.335529 356.442353l-1.776941-0.060235a26.593882 26.593882 0 0 1 18.191059 7.28847 22.467765 22.467765 0 0 1 2.891294 3.252706l0.301177 0.39153 1.204706 1.807058-1.505883-2.198588a26.563765 26.563765 0 0 1 5.270588 15.811765v456.794353a26.352941 26.352941 0 0 1-26.352941 26.352941H146.823529A26.352941 26.352941 0 0 1 120.470588 839.529412V382.735059c0-5.872941 1.927529-11.294118 5.180236-15.661177l0.090352-0.150588 0.301177-0.391529a26.503529 26.503529 0 0 1 1.656471-1.92753l-1.957648 2.319059a26.533647 26.533647 0 0 1 19.275295-10.480941 27.346824 27.346824 0 0 1 1.445647-0.060235h140.92047a26.352941 26.352941 0 0 1 0 52.705882H225.882353l272.293647 204.227765 272.323765-204.227765h-61.470118a26.352941 26.352941 0 0 1-26.142118-23.04l-0.210823-3.312941c0-14.546824 11.776-26.352941 26.352941-26.352941h140.920471l1.385411 0.060235zM498.206118 180.705882c14.546824 0 26.352941 11.806118 26.352941 26.352942v182.332235l60.416-60.416a26.352941 26.352941 0 0 1 37.255529 37.255529l-105.411764 105.411765-0.602353 0.602353a26.503529 26.503529 0 0 1-1.295059 1.14447l1.897412-1.746823a26.563765 26.563765 0 0 1-15.269648 7.529412l-3.343058 0.210823-3.373177-0.210823a26.352941 26.352941 0 0 1-9.035294-2.891294l-0.602353-0.331295a26.142118 26.142118 0 0 1-5.632-4.306823l-105.411765-105.411765a26.352941 26.352941 0 0 1 37.25553-37.255529l60.416 60.416V207.058824c0-14.546824 11.806118-26.352941 26.383059-26.352942z" fill="#568af2" /></svg>