<svg class="icon" style="width: 1em;height: 1em;vertical-align: middle;fill: currentColor;overflow: hidden;" viewBox="0 0 1024 1024" version="1.1" xmlns="http://www.w3.org/2000/svg" width="32" height="32"><path d="M747.911529 518.264471a79.058824 79.058824 0 0 1 79.058824 79.058823l0.030118 30.870588a79.088941 79.088941 0 0 1 52.705882 74.541177V737.882353a79.058824 79.058824 0 0 1-79.088941 79.058823h-105.411765a79.058824 79.058824 0 0 1-79.058823-79.058823v-35.147294c0-34.424471 21.985882-63.698824 52.705882-74.541177v-30.870588a79.058824 79.058824 0 0 1 79.058823-79.058823z m52.705883-333.793883a79.058824 79.058824 0 0 1 79.058823 79.058824v211.847529a26.352941 26.352941 0 1 1-52.705882 0v-27.376941H176.941176v272.323765c0 14.546824 11.806118 26.352941 26.352942 26.352941h298.676706a26.352941 26.352941 0 0 1 0 52.705882H203.294118a79.058824 79.058824 0 0 1-79.058824-79.058823V263.529412A79.058824 79.058824 0 0 1 203.294118 184.470588h597.323294z m-52.705883 386.499765a26.352941 26.352941 0 0 0-26.352941 26.352941v26.352941h52.705883v-26.352941a26.352941 26.352941 0 0 0-23.04-26.142118l-3.312942-0.210823zM256 281.088a35.147294 35.147294 0 1 0 0 70.294588 35.147294 35.147294 0 0 0 0-70.294588z m105.411765 0a35.147294 35.147294 0 1 0 0 70.294588 35.147294 35.147294 0 0 0 0-70.294588z" fill="#568af2" /></svg>