<svg class="icon" style="width: 1em;height: 1em;vertical-align: middle;fill: currentColor;overflow: hidden;" viewBox="0 0 1024 1024" version="1.1" xmlns="http://www.w3.org/2000/svg" width="32" height="32"><path d="M627.440941 124.235294c2.319059 0 4.517647 0.301176 6.625883 0.843294l0.391529 0.090353a26.112 26.112 0 0 1 11.625412 6.776471l175.676235 175.706353 0.662588 0.662588a26.503529 26.503529 0 0 1 1.084236 1.234823l-1.746824-1.897411a26.563765 26.563765 0 0 1 7.529412 15.329882l0.210823 3.312941v491.91153a61.500235 61.500235 0 0 1-61.500235 61.470117H276.088471a61.500235 61.500235 0 0 1-61.500236-61.470117v-632.470589c0-33.972706 27.527529-61.500235 61.500236-61.500235h351.35247zM558.802824 428.272941l-2.710589 2.349177-175.676235 175.676235a26.352941 26.352941 0 0 0-7.469176 15.179294l-0.240942 3.463529v70.264471c0 13.432471 10.059294 24.545882 23.04 26.172235l3.312942 0.180706h70.26447c5.842824 0 11.444706-1.927529 16.022588-5.421176l2.620236-2.288941 175.676235-175.676236a26.352941 26.352941 0 0 0 2.379294-34.575059l-2.379294-2.710588-70.264471-70.26447a26.352941 26.352941 0 0 0-34.575058-2.349177z m15.932235 58.24753l32.978823 33.008941-149.323294 149.323294h-32.978823v-33.008941l149.323294-149.323294z m79.058823-272.323765v85.714823h85.684706l-85.684706-85.714823z" fill="#568af2" /></svg>