<svg class="icon" style="width: 1em;height: 1em;vertical-align: middle;fill: currentColor;overflow: hidden;" viewBox="0 0 1024 1024" version="1.1" xmlns="http://www.w3.org/2000/svg" width="32" height="32"><path d="M158.599529 474.624l117.157647 58.548706a26.352941 26.352941 0 1 1-23.582117 47.164235l-76.016941-38.00847 0.993882 6.927058c24.094118 152.485647 154.142118 269.703529 312.380235 273.859765l8.673883 0.090353a26.352941 26.352941 0 0 1 0 52.705882C289.581176 875.911529 120.470588 706.800941 120.470588 498.206118a26.352941 26.352941 0 0 1 38.128941-23.582118z m520.282353 57.434353a146.823529 146.823529 0 1 1 0 293.647059 146.823529 146.823529 0 0 1 0-293.647059zM498.176 120.470588c208.624941 0 377.735529 169.110588 377.735529 377.73553a26.352941 26.352941 0 0 1-38.128941 23.552l-117.127529-58.548706a26.352941 26.352941 0 1 1 23.582117-47.134118l75.986824 37.978353-0.993882-6.927059c-24.064-152.455529-154.142118-269.703529-312.380236-273.829647l-8.643764-0.12047a26.352941 26.352941 0 0 1 0-52.705883z m-180.705882 50.206118a146.823529 146.823529 0 1 1 0 293.647059 146.823529 146.823529 0 0 1 0-293.647059z" fill="#568af2" /></svg>