<svg class="icon" style="width: 1em;height: 1em;vertical-align: middle;fill: currentColor;overflow: hidden;" viewBox="0 0 1024 1024" version="1.1" xmlns="http://www.w3.org/2000/svg" width="32" height="32"><path d="M786.823529 180.705882a79.058824 79.058824 0 0 1 79.058824 79.058824v527.058823a79.058824 79.058824 0 0 1-79.058824 79.058824h-527.058823A79.058824 79.058824 0 0 1 180.705882 786.823529v-527.058823A79.058824 79.058824 0 0 1 259.764706 180.705882h527.058823z m-263.529411 140.559059a26.352941 26.352941 0 0 0-26.352942 26.352941V391.529412h-149.323294a26.352941 26.352941 0 0 0-26.172235 23.04l-0.180706 3.312941v175.676235c0 14.576941 11.776 26.352941 26.352941 26.352941H496.941176v96.64753c0 13.432471 10.059294 24.515765 23.04 26.142117l3.312942 0.210824a26.352941 26.352941 0 0 0 26.352941-26.352941v-96.64753h149.323294a26.352941 26.352941 0 0 0 26.172235-23.04l0.180706-3.312941v-175.676235a26.352941 26.352941 0 0 0-26.352941-26.352941H549.647059v-43.91153a26.352941 26.352941 0 0 0-23.04-26.172235zM496.941176 444.235294v122.970353h-122.970352V444.235294H496.941176z m175.676236 0v122.970353H549.647059V444.235294h122.970353z" fill="#568af2" /></svg>