<svg class="icon" style="width: 1em;height: 1em;vertical-align: middle;fill: currentColor;overflow: hidden;" viewBox="0 0 1024 1024" version="1.1" xmlns="http://www.w3.org/2000/svg" width="32" height="32"><path d="M854.859294 214.618353l-1.505882-0.030118a26.593882 26.593882 0 0 1 6.806588 0.90353l0.873412 0.240941a24.606118 24.606118 0 0 1 8.011294 4.035765 20.299294 20.299294 0 0 1 3.403294 3.011764 27.557647 27.557647 0 0 1 1.957647 2.349177l0.271059 0.361412a26.413176 26.413176 0 0 1 1.024 1.505882l-1.295059-1.867294a26.563765 26.563765 0 0 1 5.270588 15.811764v263.529412a26.352941 26.352941 0 1 1-52.705882 0v-210.823529l-309.187765 231.905882a26.352941 26.352941 0 0 1-31.623529 0L176.941176 293.647059v448h325.029648c13.432471 0 24.515765 10.059294 26.142117 23.04l0.210824 3.312941a26.352941 26.352941 0 0 1-26.352941 26.352941H150.588235a26.352941 26.352941 0 0 1-26.352941-26.352941V240.941176l0.030118-1.536a26.352941 26.352941 0 0 1 0.150588-1.596235L124.235294 240.941176a26.232471 26.232471 0 0 1 5.180235-15.691294l0.090353-0.12047 0.180706-0.271059a26.503529 26.503529 0 0 1 1.807059-2.078118l-1.987765 2.349177a26.533647 26.533647 0 0 1 19.486118-10.480941 27.196235 27.196235 0 0 1 1.204706-0.060236h703.488a26.503529 26.503529 0 0 1 1.204706 0.030118z m-141.010823 359.062588a26.352941 26.352941 0 0 1 0 37.25553l-42.88753 42.857411h182.362353a26.352941 26.352941 0 0 1 0 52.705883H671.021176l42.857412 42.857411c9.426824 9.456941 10.24 24.244706 2.349177 34.575059l-2.349177 2.710589a26.352941 26.352941 0 0 1-37.255529 0l-87.853177-87.853177-0.602353-0.602353a26.503529 26.503529 0 0 1-1.14447-1.325176l1.746823 1.927529a26.563765 26.563765 0 0 1-7.710117-18.642823 26.292706 26.292706 0 0 1 7.710117-18.612706l87.853177-87.853177a26.352941 26.352941 0 0 1 37.255529 0z" fill="#568af2" /></svg>