<svg class="icon" style="width: 1em;height: 1em;vertical-align: middle;fill: currentColor;overflow: hidden;" viewBox="0 0 1024 1024" version="1.1" xmlns="http://www.w3.org/2000/svg" width="32" height="32"><path d="M513.144471 155.256471l351.382588 242.145882c8.041412 5.541647 12.047059 14.757647 11.324235 23.883294a12.408471 12.408471 0 0 1 0.060235 1.626353v383.307294c0 35.237647-26.985412 64.692706-61.470117 64.692706h-632.470588C147.456 870.912 120.470588 841.456941 120.470588 806.219294V422.912l0.090353-1.626353a26.352941 26.352941 0 0 1 11.324235-23.883294l351.352471-242.145882a26.352941 26.352941 0 0 1 29.906824 0z m310.061176 322.469647l-132.848941 106.315294-175.706353 140.528941a26.292706 26.292706 0 0 1-12.950588 5.541647l-3.493647 0.240941a26.292706 26.292706 0 0 1-16.474353-5.782588l-67.915294-54.332235-107.760942-86.196706-0.240941-0.210824-132.638117-106.10447v328.493176c0 6.204235 3.433412 10.721882 7.168 11.745882l1.626353 0.240942h632.470588c4.306824 0 8.764235-4.879059 8.764235-11.986824V477.726118zM498.176 208.926118L188.416 422.430118l107.730824 86.196706v-85.714824c0-14.576941 11.806118-26.352941 26.352941-26.352941h351.382588c14.546824 0 26.352941 11.776 26.352941 26.352941v85.684706l107.700706-86.166588-309.76-213.504z" fill="#568af2" /></svg>