<svg class="icon" style="width: 1em;height: 1em;vertical-align: middle;fill: currentColor;overflow: hidden;" viewBox="0 0 1024 1024" version="1.1" xmlns="http://www.w3.org/2000/svg" width="32" height="32"><path d="M768 124.235294c33.972706 0 61.500235 27.527529 61.500235 61.500235v632.470589a61.500235 61.500235 0 0 1-61.500235 61.470117H276.088471a61.500235 61.500235 0 0 1-61.500236-61.470117v-632.470589c0-33.972706 27.527529-61.500235 61.500236-61.500235H768z m-245.970824 562.206118H399.058824a26.352941 26.352941 0 1 0 0 52.705882h122.970352a26.352941 26.352941 0 0 0 0-52.705882z m123.000471-105.411765H399.058824a26.352941 26.352941 0 1 0 0 52.705882h245.970823a26.352941 26.352941 0 0 0 0-52.705882z m1.054118-290.936471a26.352941 26.352941 0 0 0-37.25553 0l-121.946353 121.856-51.621647-51.591529a26.352941 26.352941 0 1 0-37.255529 37.255529l70.26447 70.264471a26.352941 26.352941 0 0 0 37.25553 0l140.559059-140.528941a26.352941 26.352941 0 0 0 0-37.285647z" fill="#568af2" /></svg>