<svg class="icon" style="width: 1em;height: 1em;vertical-align: middle;fill: currentColor;overflow: hidden;" viewBox="0 0 1024 1024" version="1.1" xmlns="http://www.w3.org/2000/svg" width="32" height="32"><path d="M645.029647 124.235294c7.68 0 14.998588 3.373176 19.998118 9.216l158.117647 184.470588c4.096 4.758588 6.324706 10.842353 6.324706 17.136942v518.26447a26.352941 26.352941 0 0 1-26.322824 26.352941H240.941176a26.352941 26.352941 0 0 1-26.352941-26.352941V150.588235c0-14.546824 11.806118-26.352941 26.352941-26.352941h404.088471z m52.705882 597.323294a26.352941 26.352941 0 0 0 8.794353-51.2v-273.799529a26.352941 26.352941 0 0 0-26.383058-26.352941h-105.411765a26.352941 26.352941 0 0 0-26.352941 26.352941v61.470117h-79.058824a26.352941 26.352941 0 0 0-26.142118 23.070118l-0.210823 3.312941v61.470118h-79.058824a26.352941 26.352941 0 0 0-26.142117 23.04l-0.210824 3.312941v98.123294a26.352941 26.352941 0 0 0 8.794353 51.2z" fill="#568af2" /><path d="M442.970353 598.588235h-52.705882v70.264471h52.705882zM548.382118 510.735059h-52.705883v158.117647h52.705883zM653.793882 422.912h-52.705882v245.940706h52.705882z" fill="#568af2" /></svg>