<svg class="icon" style="width: 1em;height: 1em;vertical-align: middle;fill: currentColor;overflow: hidden;" viewBox="0 0 1024 1024" version="1.1" xmlns="http://www.w3.org/2000/svg" width="32" height="32"><path d="M768 124.235294c33.972706 0 61.500235 27.527529 61.500235 61.500235v632.470589a61.500235 61.500235 0 0 1-61.500235 61.470117H276.088471a61.500235 61.500235 0 0 1-61.500236-61.470117v-632.470589c0-33.972706 27.527529-61.500235 61.500236-61.500235H768z m-263.529412 562.206118h-122.970353a26.352941 26.352941 0 0 0-3.312941 52.495059l3.312941 0.210823h122.970353a26.352941 26.352941 0 0 0 0-52.705882z m122.970353-105.411765h-245.940706a26.352941 26.352941 0 0 0-3.312941 52.495059l3.312941 0.210823h245.940706a26.352941 26.352941 0 0 0 0-52.705882z m0-316.235294h-245.940706a26.352941 26.352941 0 0 0-26.172235 23.04l-0.180706 3.312941V466.823529c0 13.432471 10.029176 24.515765 23.04 26.142118l3.312941 0.210824h245.940706a26.352941 26.352941 0 0 0 26.172235-23.04l0.180706-3.312942V291.147294a26.352941 26.352941 0 0 0-26.352941-26.352941z m-26.352941 52.705882v122.970353h-193.234824v-122.970353h193.234824z" fill="#568af2" /></svg>