<svg class="icon" style="width: 1em;height: 1em;vertical-align: middle;fill: currentColor;overflow: hidden;" viewBox="0 0 1024 1024" version="1.1" xmlns="http://www.w3.org/2000/svg" width="32" height="32"><path d="M426.676706 184.470588c7.830588 0 15.239529 3.463529 20.239059 9.487059l79.932235 95.924706H813.176471c32.406588 0 58.970353 25.088 61.319529 56.922353l0.180706 4.577882v456.764236A61.500235 61.500235 0 0 1 813.176471 869.647059H215.853176a61.500235 61.500235 0 0 1-61.500235-61.500235V245.970824c0-33.972706 27.527529-61.500235 61.500235-61.500236h210.82353z m190.313412 246.121412l-3.282824 0.602353-70.26447 16.986353a26.352941 26.352941 0 0 0-19.937883 22.347294l-0.210823 3.282824 0.030117 72.583529a96.617412 96.617412 0 1 0 50.296471 107.52l0.602353-3.132235a26.202353 26.202353 0 0 0 1.566117-6.234353l0.210824-3.312941V494.531765l50.115765-12.137412a26.352941 26.352941 0 0 0-9.125647-51.802353z m-137.637647 157.967059a43.911529 43.911529 0 1 1 0 87.823059 43.911529 43.911529 0 0 1 0-87.823059z" fill="#568af2" /></svg>