<svg class="icon" style="width: 1em;height: 1em;vertical-align: middle;fill: currentColor;overflow: hidden;" viewBox="0 0 1024 1024" version="1.1" xmlns="http://www.w3.org/2000/svg" width="32" height="32"><path d="M645.029647 124.235294c7.469176 0 14.576941 3.162353 19.576471 8.734118l158.117647 175.676235 0.903529 1.054118c0.481882 0.602353 0.903529 1.174588 1.325177 1.807059l-2.228706-2.861177a26.352941 26.352941 0 0 1 4.126117 6.144l0.39153 0.813177a23.973647 23.973647 0 0 1 2.048 7.378823l0.210823 3.312941v158.117647a26.352941 26.352941 0 0 1-52.705882 0l-0.030118-131.794823h-149.323294a26.352941 26.352941 0 0 1-26.352941-26.352941V176.941176H276.088471a8.794353 8.794353 0 0 0-8.553412 6.776471l-0.240941 2.017882v632.470589c0 4.818824 3.915294 8.764235 8.794353 8.764235h210.823529a26.352941 26.352941 0 0 1 0 52.705882h-210.823529a61.500235 61.500235 0 0 1-61.500236-61.470117v-632.470589c0-33.972706 27.527529-61.500235 61.500236-61.500235h368.941176z m183.717647 459.354353a26.352941 26.352941 0 0 1-19.395765 31.834353l-50.145882 12.107294v164.321882c0 3.312941-0.602353 6.505412-1.716706 9.426824a96.617412 96.617412 0 1 1-50.959059-104.297412v-90.172235c0-12.137412 8.312471-22.738824 20.118589-25.6l70.294588-17.016471a26.352941 26.352941 0 0 1 31.804235 19.395765z m-84.781176-283.678118l-90.172236-100.171294v100.171294h90.172236z" fill="#568af2" /></svg>