<svg class="icon" style="width: 1em;height: 1em;vertical-align: middle;fill: currentColor;overflow: hidden;" viewBox="0 0 1024 1024" version="1.1" xmlns="http://www.w3.org/2000/svg" width="32" height="32"><path d="M614.912 124.235294c7.469176 0 14.576941 3.162353 19.576471 8.734118l158.117647 175.676235 0.903529 1.054118c0.481882 0.602353 0.903529 1.174588 1.325177 1.807059l-2.228706-2.861177a26.352941 26.352941 0 0 1 4.126117 6.144l0.39153 0.813177a23.973647 23.973647 0 0 1 2.048 7.378823l0.210823 3.312941v158.117647a26.352941 26.352941 0 0 1-52.705882 0l-0.030118-131.794823h-149.323294a26.352941 26.352941 0 0 1-26.352941-26.352941V176.941176H245.970824a8.794353 8.794353 0 0 0-8.553412 6.776471l-0.240941 2.017882v632.470589c0 4.818824 3.915294 8.764235 8.794353 8.764235h210.823529a26.352941 26.352941 0 0 1 0 52.705882h-210.823529a61.500235 61.500235 0 0 1-61.500236-61.470117v-632.470589c0-33.972706 27.527529-61.500235 61.500236-61.500235h368.941176z m183.416471 457.968941c13.944471 4.276706 21.744941 19.034353 17.468235 32.948706a178.145882 178.145882 0 0 1-25.901177 51.862588l-3.343058 4.457412 43.429647 43.429647a26.352941 26.352941 0 1 1-37.25553 37.285647l-44.272941-44.212706a172.453647 172.453647 0 0 1-25.118118 14.667295l14.034824 52.404705a26.352941 26.352941 0 1 1-50.898824 13.643295l-13.703529-51.07953a171.399529 171.399529 0 0 1-45.357176 0.030118l-13.643295 51.049412a26.352941 26.352941 0 1 1-50.898823-13.643295l14.004706-52.374588a172.423529 172.423529 0 0 1-25.178353-14.637176l-41.140706 41.140706a26.352941 26.352941 0 0 1-37.255529-37.285647l40.297411-40.297412a178.688 178.688 0 0 1-29.274353-56.440471 26.352941 26.352941 0 0 1 50.356706-15.540706c4.065882 13.161412 10.24 25.479529 18.221177 36.532706a119.687529 119.687529 0 0 0 97.129411 50.296471c38.731294 0 74.390588-18.853647 97.15953-50.296471 7.981176-11.053176 14.155294-23.371294 18.221176-36.532706a26.352941 26.352941 0 0 1 32.948706-17.408z" fill="#568af2" /></svg>