<svg class="icon" style="width: 1em;height: 1em;vertical-align: middle;fill: currentColor;overflow: hidden;" viewBox="0 0 1024 1024" version="1.1" xmlns="http://www.w3.org/2000/svg" width="32" height="32"><path d="M702.735059 124.235294c14.576941 0 26.352941 11.806118 26.352941 26.352941v79.058824h79.058824c14.576941 0 26.352941 11.806118 26.352941 26.352941v597.323294a26.352941 26.352941 0 0 1-26.352941 26.352941H316.235294a26.352941 26.352941 0 0 1-26.352941-26.352941v-79.058823H210.823529a26.352941 26.352941 0 0 1-26.352941-26.352942V168.146824c0-24.244706 19.666824-43.911529 43.91153-43.91153h474.352941z m-26.352941 105.411765v-52.705883H237.176471v544.617412h52.705882V256c0-14.546824 11.806118-26.352941 26.352941-26.352941h360.146824z m-8.764236 351.382588h-210.823529a26.352941 26.352941 0 0 0-3.312941 52.495059l3.312941 0.210823h210.823529a26.352941 26.352941 0 0 0 0-52.705882z m0-140.559059h-210.823529a26.352941 26.352941 0 0 0-3.312941 52.495059l3.312941 0.210824h210.823529a26.352941 26.352941 0 0 0 0-52.705883z" fill="#568af2" /></svg>