<svg class="icon" style="width: 1em;height: 1em;vertical-align: middle;fill: currentColor;overflow: hidden;" viewBox="0 0 1024 1024" version="1.1" xmlns="http://www.w3.org/2000/svg" width="32" height="32"><path d="M821.970824 289.882353c14.546824 0 26.352941 11.806118 26.352941 26.352941v474.352941a79.058824 79.058824 0 0 1-79.058824 79.058824H294.912a26.352941 26.352941 0 1 1 0-52.705883h474.352941a26.352941 26.352941 0 0 0 26.352941-26.352941V316.235294c0-14.546824 11.776-26.352941 26.352942-26.352941z m-140.559059-105.411765c33.972706 0 61.500235 27.527529 61.500235 61.500236v456.764235a61.500235 61.500235 0 0 1-61.500235 61.500235H224.617412a61.500235 61.500235 0 0 1-61.470118-61.500235V245.970824c0-33.972706 27.527529-61.500235 61.470118-61.500236h456.794353z m0 52.705883H224.617412a8.794353 8.794353 0 0 0-8.764236 8.794353v239.947294l90.654118-80.564706a61.500235 61.500235 0 0 1 82.221177 0.481882l78.908235 71.770353 70.174118-58.428235a61.500235 61.500235 0 0 1 76.227764-1.92753l76.137412 57.072942V245.970824a8.794353 8.794353 0 0 0-8.764235-8.794353z" fill="#568af2" /></svg>