<svg class="icon" style="width: 1em;height: 1em;vertical-align: middle;fill: currentColor;overflow: hidden;" viewBox="0 0 1024 1024" version="1.1" xmlns="http://www.w3.org/2000/svg" width="32" height="32"><path d="M720.323765 154.352941c7.589647 0 14.817882 3.282824 19.817411 9.005177l123.000471 140.528941c6.023529 6.927059 7.830588 16.052706 5.571765 24.274823 0.602353 3.433412 0.933647 7.017412 0.933647 10.661647v456.794353a61.500235 61.500235 0 0 1-61.500235 61.470118H245.970824a61.500235 61.500235 0 0 1-61.500236-61.470118V338.823529c0-3.644235 0.301176-7.228235 0.90353-10.691764a26.262588 26.262588 0 0 1 5.601882-24.244706l123.000471-140.528941a26.352941 26.352941 0 0 1 19.817411-9.005177h386.529883zM631.567059 488.297412h-210.82353a26.352941 26.352941 0 0 0-3.312941 52.495059l3.312941 0.210823h210.82353a26.352941 26.352941 0 1 0 0-52.705882z m76.769882-281.238588H345.720471L284.250353 277.323294h485.586823L708.367059 207.058824z" fill="#568af2" /></svg>