<svg class="icon" style="width: 1em;height: 1em;vertical-align: middle;fill: currentColor;overflow: hidden;" viewBox="0 0 1024 1024" version="1.1" xmlns="http://www.w3.org/2000/svg" width="32" height="32"><path d="M627.440941 124.235294c2.319059 0 4.517647 0.301176 6.625883 0.843294l0.391529 0.090353a26.112 26.112 0 0 1 11.625412 6.776471l175.676235 175.706353 0.662588 0.662588a26.503529 26.503529 0 0 1 1.084236 1.234823l-1.746824-1.897411a26.563765 26.563765 0 0 1 7.529412 15.329882l0.210823 3.312941v491.91153a61.500235 61.500235 0 0 1-61.500235 61.470117H276.088471a61.500235 61.500235 0 0 1-61.500236-61.470117v-632.470589c0-33.972706 27.527529-61.500235 61.500236-61.500235h351.35247z m8.944941 282.563765l-3.041882 1.264941-105.411765 52.163765a26.352941 26.352941 0 0 0-14.45647 20.299294l-0.210824 3.312941v90.142118a96.617412 96.617412 0 1 0 50.989177 104.357647 27.166118 27.166118 0 0 0 1.505882-6.204236l0.210824-3.282823v-168.658824l90.74447-44.875294a26.352941 26.352941 0 0 0-20.329412-48.519529z m-167.062588 209.347765a43.911529 43.911529 0 1 1 0 87.853176 43.911529 43.911529 0 0 1 0-87.853176z m270.155294-316.235295l-85.684706-85.714823v85.714823h85.684706z" fill="#568af2" /></svg>