<svg class="icon" style="width: 1em;height: 1em;vertical-align: middle;fill: currentColor;overflow: hidden;" viewBox="0 0 1024 1024" version="1.1" xmlns="http://www.w3.org/2000/svg" width="32" height="32"><path d="M607.382588 124.235294c7.981176 0 15.570824 3.614118 20.570353 9.878588l140.559059 175.706353 0.722824 0.993883 0.692705 0.993882 0.90353 1.415529c0.331294 0.602353 0.662588 1.234824 0.963765 1.897412l0.512 1.144471c0.301176 0.692706 0.572235 1.445647 0.813176 2.228706l0.120471 0.481882 0.12047 0.481882a24.184471 24.184471 0 0 1 0.90353 6.806589v79.058823h43.941647c33.942588 0 61.470118 27.527529 61.470117 61.500235v245.970824a61.500235 61.500235 0 0 1-61.470117 61.470118h-43.941647v79.058823a26.352941 26.352941 0 0 1-26.352942 26.352941H256a26.352941 26.352941 0 0 1-26.352941-26.352941v-79.058823H185.735529a61.500235 61.500235 0 0 1-61.500235-61.470118V466.823529c0-33.972706 27.527529-61.500235 61.500235-61.500235h43.91153V150.588235c0-14.546824 11.806118-26.352941 26.352941-26.352941h351.382588z m114.176 650.029177H282.352941v52.705882h439.205647v-52.705882z m-342.588235-281.088h-105.411765a26.352941 26.352941 0 0 0-26.142117 23.04l-0.210824 3.312941 0.210824 3.312941c1.505882 11.896471 10.932706 21.353412 22.859294 22.829176l3.312941 0.210824h52.705882l-73.788235 98.394353a26.352941 26.352941 0 0 0 17.709176 41.953882l3.343059 0.210824h105.411765a26.352941 26.352941 0 0 0 26.172235-23.070118l0.180706-3.312941-0.180706-3.312941a26.352941 26.352941 0 0 0-22.859294-22.829177l-3.312941-0.180706-52.705882-0.030117 73.788235-98.364236a26.352941 26.352941 0 0 0-21.082353-42.164705z m123.000471 0a26.352941 26.352941 0 0 0-26.172236 23.04l-0.180706 3.312941v140.559059a26.352941 26.352941 0 0 0 52.495059 3.312941l0.210824-3.312941V519.529412a26.352941 26.352941 0 0 0-26.352941-26.352941z m184.470588 0H624.941176a26.352941 26.352941 0 0 0-26.142117 23.04l-0.210824 3.312941v140.559059a26.352941 26.352941 0 0 0 52.495059 3.312941l0.210824-3.312941v-26.383059h35.147294a70.264471 70.264471 0 0 0 0-140.528941z m0 52.705882a17.558588 17.558588 0 0 1 2.831059 34.906353l-2.831059 0.240941-35.147294-0.030118v-35.117176h35.147294zM545.882353 176.911059l-263.529412 0.030117v228.382118h439.205647v-52.705882H572.235294a26.352941 26.352941 0 0 1-26.352941-26.352941V176.911059z m-114.206118 87.883294a26.352941 26.352941 0 1 1 0 52.705882H361.411765a26.352941 26.352941 0 0 1 0-52.705882h70.26447z m166.912-83.004235v118.121411h94.539294l-94.539294-118.121411z" fill="#568af2" /></svg>