<svg class="icon" style="width: 1em;height: 1em;vertical-align: middle;fill: currentColor;overflow: hidden;" viewBox="0 0 1024 1024" version="1.1" xmlns="http://www.w3.org/2000/svg" width="32" height="32"><path d="M800.617412 184.470588a79.058824 79.058824 0 0 1 79.058823 79.058824v527.058823a79.058824 79.058824 0 0 1-79.058823 79.058824H203.294118a79.058824 79.058824 0 0 1-79.058824-79.058824V263.529412A79.058824 79.058824 0 0 1 203.294118 184.470588h597.323294z m-87.823059 456.794353h-281.118118a26.352941 26.352941 0 0 0-3.312941 52.495059l3.312941 0.210824h281.118118a26.352941 26.352941 0 0 0 0-52.705883z m-386.529882 0H291.147294a26.352941 26.352941 0 0 0-3.312941 52.495059l3.312941 0.210824h35.117177a26.352941 26.352941 0 0 0 0-52.705883z m386.529882-140.559059h-281.118118a26.352941 26.352941 0 0 0-3.312941 52.495059l3.312941 0.210824h281.118118a26.352941 26.352941 0 0 0 0-52.705883z m-386.529882 0H291.147294a26.352941 26.352941 0 0 0-3.312941 52.495059l3.312941 0.210824h35.117177a26.352941 26.352941 0 1 0 0-52.705883z m500.615529-175.706353H177.001412v52.705883h649.878588v-52.705883z" fill="#568af2" /></svg>