<svg class="icon" style="width: 1em;height: 1em;vertical-align: middle;fill: currentColor;overflow: hidden;" viewBox="0 0 1024 1024" version="1.1" xmlns="http://www.w3.org/2000/svg" width="32" height="32"><path d="M505.464471 124.476235l3.433411 0.692706L789.985882 201.788235c10.330353 2.831059 17.799529 11.535059 19.184942 21.925647l0.240941 3.493647v99.026824a26.352941 26.352941 0 0 1-23.04 26.172235l-3.312941 0.180706h-8.794353v368.941177h26.352941c13.432471 0 24.545882 10.059294 26.172235 23.070117l0.180706 3.312941v79.028706h26.352941a26.352941 26.352941 0 0 1 3.312941 52.525177l-3.312941 0.180706H150.588235a26.352941 26.352941 0 0 1-3.312941-52.495059l3.312941-0.210824h26.352941v-79.058823c0-13.432471 10.059294-24.515765 23.04-26.142118l3.312942-0.210823h26.352941v-368.941177h-8.794353a26.352941 26.352941 0 0 1-26.142118-23.04l-0.210823-3.312941V227.237647c0-10.691765 6.445176-20.178824 16.112941-24.274823l3.312941-1.144471 281.088-76.649412a26.352941 26.352941 0 0 1 10.450824-0.692706z m-152.847059 228.141177H282.352941v368.941176h70.264471v-368.941176z m122.970353 0h-70.264471v368.941176h70.264471v-368.941176z m123.00047 0h-70.294588v368.941176h70.294588v-368.941176z m122.970353 0h-70.26447v368.941176h70.26447v-368.941176z" fill="#568af2" /></svg>