<svg class="icon" style="width: 1em;height: 1em;vertical-align: middle;fill: currentColor;overflow: hidden;" viewBox="0 0 1024 1024" version="1.1" xmlns="http://www.w3.org/2000/svg" width="32" height="32"><path d="M728.425412 154.352941a114.206118 114.206118 0 1 1-111.134118 140.559059H303.676235c-55.717647 0-96.617412 40.899765-96.617411 96.617412 0 53.790118 38.128941 93.786353 90.925176 96.496941l5.722353 0.120471h386.499765c84.811294 0 149.323294 64.512 149.323294 149.353411 0 82.582588-61.138824 145.92-142.667294 149.202824l-6.656 0.12047H279.491765l42.827294 42.857412c9.426824 9.426824 10.24 24.244706 2.349176 34.575059l-2.349176 2.710588a26.352941 26.352941 0 0 1-34.575059 2.349177l-2.710588-2.379294-87.823059-87.823059-0.451765-0.481883a26.503529 26.503529 0 0 1-1.295059-1.445647l1.746824 1.92753a26.533647 26.533647 0 0 1-7.710118-18.642824 26.292706 26.292706 0 0 1 5.360941-15.962353l0.602353-0.752941a26.503529 26.503529 0 0 1 1.295059-1.445647l0.451765-0.481882 87.853176-87.823059a26.352941 26.352941 0 0 1 39.604706 34.544941l-2.349176 2.710588-42.88753 42.857412h410.774589c55.717647 0 96.617412-40.899765 96.617411-96.617412 0-53.820235-38.128941-93.786353-90.925176-96.496941l-5.722353-0.150588H303.706353c-84.811294 0-149.323294-64.481882-149.323294-149.323294 0-82.582588 61.138824-145.92 142.667294-149.202824l6.656-0.12047 313.615059-0.030118a114.236235 114.236235 0 0 1 111.134117-87.823059z" fill="#568af2" /></svg>