<svg class="icon" style="width: 1em;height: 1em;vertical-align: middle;fill: currentColor;overflow: hidden;" viewBox="0 0 1024 1024" version="1.1" xmlns="http://www.w3.org/2000/svg" width="32" height="32"><path d="M737.219765 874.496l-1.41553 1.144471-1.626353 1.084235-1.14447 0.692706a27.497412 27.497412 0 0 1-9.336471 3.041882l-3.373176 0.210824-3.373177-0.210824-1.204706-0.180706a26.202353 26.202353 0 0 1-6.746353-2.138353l-1.295058-0.662588a24.756706 24.756706 0 0 1-3.312942-2.168471l-0.692705-0.542117-1.566118-1.385412-88.304941-88.244706a26.352941 26.352941 0 0 1 34.575059-39.634823l2.710588 2.349176 42.827294 42.827294V608.376471a114.206118 114.206118 0 0 0-108.303059-114.05553l-5.872941-0.150588-254.765177-0.030118v296.538353l42.88753-42.827294a26.352941 26.352941 0 0 1 39.604706 34.575059l-2.349177 2.710588-87.853176 87.823059a26.352941 26.352941 0 0 1-34.544941 2.349176l-2.710589-2.349176-87.853176-87.853176a26.352941 26.352941 0 0 1 34.575059-39.604706l2.710588 2.349176 42.827294 42.827294V349.575529a114.236235 114.236235 0 0 1 26.383059-225.340235 114.206118 114.206118 0 0 1 26.352941 225.340235l-0.030118 91.858824h254.765177a166.912 166.912 0 0 1 166.761412 160.376471l0.150588 6.565647-0.030118 182.302117 42.88753-42.827294a26.352941 26.352941 0 0 1 39.604706 34.575059l-2.349177 2.710588-87.853176 87.823059-0.421647 0.421647-0.783059 0.722824-0.331294 0.240941-0.180706 0.150588z" fill="#568af2" /></svg>