<svg class="icon" style="width: 1em;height: 1em;vertical-align: middle;fill: currentColor;overflow: hidden;" viewBox="0 0 1024 1024" version="1.1" xmlns="http://www.w3.org/2000/svg" width="32" height="32"><path d="M349.575529 355.147294a114.236235 114.236235 0 0 1-225.340235-26.352941 114.206118 114.206118 0 0 1 225.340235-26.383059h310.512942a219.617882 219.617882 0 0 1 7.228235 439.115294l-7.228235 0.120471H214.196706l42.857412 42.857412c9.456941 9.426824 10.24 24.244706 2.379294 34.575058l-2.379294 2.710589a26.352941 26.352941 0 0 1-34.544942 2.349176l-2.710588-2.379294L131.915294 733.967059l-0.240941-0.271059a26.503529 26.503529 0 0 1-1.505882-1.716706l1.746823 1.987765a26.533647 26.533647 0 0 1-7.710118-18.642824 26.232471 26.232471 0 0 1 5.360942-15.962353l0.602353-0.692706a26.503529 26.503529 0 0 1 1.505882-1.716705l0.240941-0.271059 87.853177-87.823059a26.352941 26.352941 0 0 1 39.634823 34.544941l-2.379294 2.710588-42.857412 42.857412h445.891765a166.912 166.912 0 0 0 6.535529-333.703529l-6.535529-0.090353z" fill="#568af2" /></svg>