<svg class="icon" style="width: 1em;height: 1em;vertical-align: middle;fill: currentColor;overflow: hidden;" viewBox="0 0 1024 1024" version="1.1" xmlns="http://www.w3.org/2000/svg" width="32" height="32"><path d="M757.488941 124.235294a122.187294 122.187294 0 0 1 0 244.374588l-69.481412-0.030117v266.721882h69.481412a122.187294 122.187294 0 0 1 122.036706 116.103529l0.150588 6.083765a122.187294 122.187294 0 1 1-244.34447 0l-0.030118-69.481412h-266.721882v69.481412a122.187294 122.187294 0 0 1-116.073412 122.036706l-6.083765 0.150588a122.187294 122.187294 0 0 1 0-244.34447l69.451294-0.030118v-266.721882H246.422588A122.187294 122.187294 0 0 1 124.385882 252.536471l-0.150588-6.083765a122.187294 122.187294 0 0 1 244.224-6.113882l0.150588 6.113882-0.030117 69.451294h266.721882V246.422588A122.187294 122.187294 0 0 1 751.435294 124.385882z m-122.187294 244.344471h-266.721882v266.721882h266.721882v-266.721882z" fill="#568af2" /></svg>