<svg class="icon" style="width: 1em;height: 1em;vertical-align: middle;fill: currentColor;overflow: hidden;" viewBox="0 0 1024 1024" version="1.1" xmlns="http://www.w3.org/2000/svg" width="32" height="32"><path d="M501.940706 124.235294a90.232471 90.232471 0 1 0 0 180.464941 90.232471 90.232471 0 0 0 0-180.464941z m0 574.945882a90.232471 90.232471 0 1 0 0 180.495059 90.232471 90.232471 0 0 0 0-180.464941zM214.467765 411.708235a90.232471 90.232471 0 1 0 0 180.495059 90.232471 90.232471 0 0 0 0-180.495059z m574.976 0a90.232471 90.232471 0 1 0 0 180.495059 90.232471 90.232471 0 0 0 0-180.495059z m-156.310589-166.972235a26.352941 26.352941 0 0 1 36.352-8.192 315.331765 315.331765 0 0 1 97.882353 97.882353 26.352941 26.352941 0 1 1-44.513882 28.190118 262.625882 262.625882 0 0 0-81.528471-81.528471 26.352941 26.352941 0 0 1-8.192-36.352z m89.720471 396.589176a26.352941 26.352941 0 0 1 44.544 28.16 315.331765 315.331765 0 0 1-97.882353 97.882353 26.352941 26.352941 0 0 1-28.190118-44.513882 262.625882 262.625882 0 0 0 81.528471-81.528471z m-478.117647-8.192a26.352941 26.352941 0 0 1 36.352 8.192A262.625882 262.625882 0 0 0 362.616471 722.823529a26.352941 26.352941 0 1 1-28.190118 44.544 315.331765 315.331765 0 0 1-97.882353-97.882353 26.352941 26.352941 0 0 1 8.192-36.382117z m89.690353-396.589176a26.352941 26.352941 0 0 1 28.190118 44.544 262.625882 262.625882 0 0 0-81.528471 81.528471 26.352941 26.352941 0 1 1-44.574118-28.190118 315.331765 315.331765 0 0 1 97.912471-97.882353z" fill="#568af2" /></svg>