<svg class="icon" style="width: 1em;height: 1em;vertical-align: middle;fill: currentColor;overflow: hidden;" viewBox="0 0 1024 1024" version="1.1" xmlns="http://www.w3.org/2000/svg" width="32" height="32"><path d="M527.058824 124.235294a93.093647 93.093647 0 0 0-92.912942 93.274353c0 51.501176 41.562353 93.274353 92.912942 93.274353a93.093647 93.093647 0 0 0 92.943058-93.274353c0-51.501176-41.562353-93.274353-92.943058-93.274353zM277.383529 626.206118a93.093647 93.093647 0 0 0-92.912941 93.274353c0 51.501176 41.562353 93.274353 92.943059 93.274353a93.093647 93.093647 0 0 0 92.912941-93.274353c0-51.501176-41.562353-93.274353-92.912941-93.274353z m499.350589 0a93.093647 93.093647 0 0 0-92.943059 93.274353c0 51.501176 41.562353 93.274353 92.912941 93.274353a93.093647 93.093647 0 0 0 92.943059-93.274353c0-51.501176-41.562353-93.274353-92.943059-93.274353zM664.997647 248.048941a26.352941 26.352941 0 0 1 36.141177-9.185882 344.395294 344.395294 0 0 1 167.002352 329.065412 26.352941 26.352941 0 1 1-52.495058-4.909177 291.689412 291.689412 0 0 0-141.432471-278.859294 26.352941 26.352941 0 0 1-9.185882-36.111059z m-25.027765 556.001883a26.352941 26.352941 0 0 1 20.630589 48.489411c-41.863529 17.829647-87.100235 27.136-133.541647 27.136-46.441412 0-91.648-9.306353-133.541648-27.105882a26.352941 26.352941 0 0 1 20.630589-48.519529c35.418353 15.058824 73.577412 22.919529 112.941176 22.919529a287.472941 287.472941 0 0 0 112.880941-22.919529z m-287.021176-565.187765a26.352941 26.352941 0 1 1 26.955294 45.327059 291.689412 291.689412 0 0 0-141.432471 278.829176 26.352941 26.352941 0 0 1-52.495058 4.909177c-0.993882-10.752-1.505882-21.594353-1.505883-32.527059 0-123.120941 64.903529-235.008 168.508236-296.538353z" fill="#568af2" /></svg>