<svg class="icon" style="width: 1em;height: 1em;vertical-align: middle;fill: currentColor;overflow: hidden;" viewBox="0 0 1024 1024" version="1.1" xmlns="http://www.w3.org/2000/svg" width="32" height="32"><path d="M150.588235 874.676706a26.352941 26.352941 0 0 1-3.312941-52.525177l3.312941-0.180705h44.544a61.680941 61.680941 0 0 1-0.451764-4.216471L194.499765 813.176471v-281.088c0-32.436706 25.088-58.970353 56.922353-61.31953l4.577882-0.180706h140.559059c2.981647 0 5.903059 0.210824 8.764235 0.602353V215.883294c0-32.436706 25.088-58.970353 56.922353-61.319529l4.577882-0.180706h281.088c32.436706 0 58.970353 25.088 61.31953 56.922353l0.180706 4.577882V813.176471c0 3.011765-0.210824 5.903059-0.602353 8.794353h44.513882a26.352941 26.352941 0 0 1 3.312941 52.495058l-3.312941 0.210824H150.588235z m210.82353-228.261647H291.147294l-3.312941 0.210823a26.352941 26.352941 0 0 0 0 52.284236l3.312941 0.210823H361.411765l3.312941-0.210823a26.352941 26.352941 0 0 0-3.312941-52.495059z m281.088 0H572.235294l-3.312941 0.210823a26.352941 26.352941 0 0 0 0 52.284236l3.312941 0.210823h70.264471l3.312941-0.210823a26.352941 26.352941 0 0 0-3.312941-52.495059z m0-158.117647H572.235294l-3.312941 0.210823a26.352941 26.352941 0 0 0 0 52.284236l3.312941 0.210823h70.264471l3.312941-0.210823a26.352941 26.352941 0 0 0-3.312941-52.495059z m0-158.117647H572.235294l-3.312941 0.210823a26.352941 26.352941 0 0 0 0 52.284236l3.312941 0.210823h70.264471l3.312941-0.210823a26.352941 26.352941 0 0 0-3.312941-52.495059z" fill="#568af2" /></svg>