<svg class="icon" style="width: 1em;height: 1em;vertical-align: middle;fill: currentColor;overflow: hidden;" viewBox="0 0 1024 1024" version="1.1" xmlns="http://www.w3.org/2000/svg" width="32" height="32"><path d="M519.529412 130.951529l2.439529 2.499765 97.551059 113.754353h22.979765c3.523765 0 6.987294 0.722824 10.24 2.078118l3.102117 1.566117 43.640471 25.419294 43.489882 24.997648 17.377883 9.758117 17.468235 9.517177a29.696 29.696 0 0 0 4.517647 1.746823l2.198588 0.662588 7.228236 1.897412 9.125647 1.987765 10.631529 2.017882c6.475294 1.144471 13.312 2.228706 20.269176 3.222588l10.480942 1.445648 13.884235 1.686588c26.624 2.891294 31.954824 38.309647 9.306353 49.633882l-3.252706 1.385412-31.713882 10.902588-9.216 3.011765-13.161412 4.096-12.528941 3.553882-17.167059 4.457412-14.576941 3.614118-14.757647 3.463529-13.040942 2.951529-5.692235 0.602353h-8.794353v52.705883h96.64753c12.408471 0 22.949647 8.643765 25.660235 20.48l0.542118 3.282823 35.147294 351.352471a26.352941 26.352941 0 0 1-22.949647 28.79247l-3.282824 0.180706H150.588235a26.352941 26.352941 0 0 1-26.352941-25.690353l0.120471-3.282823L159.503059 499.350588c1.234824-12.348235 10.842353-21.985882 22.889412-23.521882l3.312941-0.210824 79.088941-0.030117v-54.000941l-12.649412-2.891295-20.449882-4.879058-19.094588-4.879059c-4.005647-1.054118-7.860706-2.108235-11.504942-3.162353l-5.300705-1.505883-13.281883-4.156235-20.028235-6.656-20.781177-7.228235c-25.208471-9.035294-22.106353-44.724706 2.56-50.416941l3.493647-0.602353 24.395295-3.132236 10.300235-1.536 9.938823-1.686588 10.63153-2.017882 9.125647-1.987765 7.228235-1.897412a39.604706 39.604706 0 0 0 11.956706-5.270588l2.891294-1.686588 9.697883-5.842824 11.113411-7.047529 12.408471-8.192 19.636706-13.342118 12.438588-8.704 12.468706-8.794353 16.263529-11.745882a26.352941 26.352941 0 0 1 12.257883-4.909176l3.312941-0.210824h24.214588l115.290353-115.260235a26.352941 26.352941 0 0 1 36.201412-0.993883z m274.823529 397.342118H209.558588l-29.876706 298.676706h225.641412v-79.058824c0-49.091765 36.743529-89.961412 85.473882-95.924705l5.451295-0.512 5.722353-0.180706c51.501176 0 93.635765 40.357647 96.466823 91.136l0.150588 5.481411v79.058824h225.611294l-29.846588-298.676706z m-292.382117 175.706353l-3.041883 0.090353a43.941647 43.941647 0 0 0-40.658823 39.544471l-0.240942 4.276705v79.058824h87.853177v-79.058824c0-21.383529-15.299765-39.213176-35.568941-43.12847l-4.126118-0.602353-4.21647-0.180706z m166.851764-281.118118H317.530353v52.705883h351.352471v-52.705883z m-168.357647-233.562353l-57.856 57.886118h107.459765l-49.603765-57.886118z" fill="#568af2" /></svg>