<svg class="icon" style="width: 1em;height: 1em;vertical-align: middle;fill: currentColor;overflow: hidden;" viewBox="0 0 1024 1024" version="1.1" xmlns="http://www.w3.org/2000/svg" width="32" height="32"><path d="M505.735529 180.705882H207.058824A26.352941 26.352941 0 0 0 180.705882 207.058824v245.970823c0 14.546824 11.806118 26.352941 26.352942 26.352941h298.676705a26.352941 26.352941 0 0 0 26.352942-26.352941V207.058824A26.352941 26.352941 0 0 0 505.735529 180.705882z m333.793883 386.499765h-298.676706a26.352941 26.352941 0 0 0-26.352941 26.352941v245.970824c0 14.546824 11.806118 26.352941 26.352941 26.352941h298.676706a26.352941 26.352941 0 0 0 26.352941-26.352941v-245.970824a26.352941 26.352941 0 0 0-26.352941-26.352941z m0-386.499765h-193.264941a26.352941 26.352941 0 0 0-26.352942 26.352942v245.970823c0 14.546824 11.806118 26.352941 26.352942 26.352941h193.264941a26.352941 26.352941 0 0 0 26.352941-26.352941V207.058824A26.352941 26.352941 0 0 0 839.529412 180.705882zM400.323765 567.205647H207.058824a26.352941 26.352941 0 0 0-26.352942 26.352941v245.970824c0 14.546824 11.806118 26.352941 26.352942 26.352941h193.264941a26.352941 26.352941 0 0 0 26.352941-26.352941v-245.970824a26.352941 26.352941 0 0 0-26.352941-26.352941z" fill="#568af2" /></svg>