<svg class="icon" style="width: 1em;height: 1em;vertical-align: middle;fill: currentColor;overflow: hidden;" viewBox="0 0 1024 1024" version="1.1" xmlns="http://www.w3.org/2000/svg" width="32" height="32"><path d="M279.853176 168.658824a114.206118 114.206118 0 0 1 26.352942 225.340235v433.483294a26.352941 26.352941 0 0 1-52.525177 3.312941l-0.180706-3.312941-0.030117-433.483294A114.236235 114.236235 0 0 1 279.853176 168.658824z m228.382118 0c13.432471 0 24.515765 10.059294 26.142118 23.04l0.210823 3.312941v205.101176a114.236235 114.236235 0 0 1 0 222.268235v205.101177a26.352941 26.352941 0 0 1-52.495059 3.312941l-0.210823-3.312941v-205.101177a114.236235 114.236235 0 0 1 0-222.268235v-205.101176c0-14.546824 11.806118-26.352941 26.352941-26.352941z m228.382118 0c13.432471 0 24.545882 10.059294 26.172235 23.04l0.180706 3.312941 0.030118 433.483294a114.236235 114.236235 0 0 1-26.383059 225.340235 114.206118 114.206118 0 0 1-26.352941-225.340235V195.011765c0-14.546824 11.806118-26.352941 26.352941-26.352941z" fill="#568af2" /></svg>