<svg class="icon" style="width: 1em;height: 1em;vertical-align: middle;fill: currentColor;overflow: hidden;" viewBox="0 0 1024 1024" version="1.1" xmlns="http://www.w3.org/2000/svg" width="32" height="32"><path d="M833.174588 195.764706c13.432471 0 24.515765 10.059294 26.142118 23.04l0.210823 3.312941v158.117647a26.352941 26.352941 0 0 1-52.495058 3.312941l-0.210824-3.312941V285.726118l-156.521412 156.521411a296.116706 296.116706 0 0 1 68.668236 181.910589l0.090353 8.31247c0 164.261647-133.150118 297.411765-297.411765 297.411765S124.235294 796.732235 124.235294 632.470588 257.385412 335.058824 421.647059 335.058824c72.944941 0 139.745882 26.262588 191.488 69.842823L769.505882 248.470588h-94.448941a26.352941 26.352941 0 0 1-26.142117-23.04l-0.210824-3.312941c0-13.432471 10.059294-24.515765 23.04-26.142118l3.312941-0.210823h158.117647z" fill="#568af2" /></svg>