<svg class="icon" style="width: 1em;height: 1em;vertical-align: middle;fill: currentColor;overflow: hidden;" viewBox="0 0 1024 1024" version="1.1" xmlns="http://www.w3.org/2000/svg" width="32" height="32"><path d="M517.933176 158.057412l3.011765 2.078117 263.529412 210.82353a26.352941 26.352941 0 0 1 9.637647 17.167059l0.240941 3.403294v421.647059a26.352941 26.352941 0 0 1-23.04 26.142117l-3.312941 0.210824H240.941176a26.352941 26.352941 0 0 1-26.142117-23.04L214.588235 813.176471V391.529412c0-6.866824 2.680471-13.402353 7.378824-18.281412l2.499765-2.288941 263.529411-210.82353a26.352941 26.352941 0 0 1 29.936941-2.108235z m74.390589 400.384h-175.706353a26.352941 26.352941 0 0 0-26.352941 26.352941v202.029176h228.382117v-202.029176a26.352941 26.352941 0 0 0-26.322823-26.352941z" fill="#568af2" /></svg>