<svg class="icon" style="width: 1em;height: 1em;vertical-align: middle;fill: currentColor;overflow: hidden;" viewBox="0 0 1024 1024" version="1.1" xmlns="http://www.w3.org/2000/svg" width="32" height="32"><path d="M561.182118 135.529412c13.432471 0 24.515765 10.059294 26.142117 23.04l0.210824 3.312941-0.030118 62.825412 12.468706 3.493647a296.146824 296.146824 0 0 1 53.669647 22.287059l10.179765 5.722353 0.873412 0.542117 44.513882-44.483765a26.352941 26.352941 0 0 1 31.623529-4.276705l2.921412 1.927529 2.710588 2.349176 67.764706 67.764706c9.426824 9.456941 10.24 24.244706 2.349177 34.575059l-2.349177 2.710588-44.483764 44.453647 0.602352 0.90353c11.745882 20.118588 21.172706 41.532235 27.949177 63.849412l3.192471 11.264 0.240941 1.174588h62.885647c12.348235 0 22.678588 8.463059 25.569882 19.877647l0.602353 3.192471 0.180706 3.312941v95.834353a26.352941 26.352941 0 0 1-23.04 26.142117l-3.312941 0.210824-62.85553-0.030118-3.463529 12.468706a296.176941 296.176941 0 0 1-22.287059 53.669647l-5.692235 10.179765-0.572235 0.903529 44.483764 44.483765a26.352941 26.352941 0 0 1 4.276706 31.623529l-1.927529 2.921412-2.349177 2.710588-67.764706 67.764706a26.352941 26.352941 0 0 1-34.575058 2.349177l-2.710589-2.349177-44.453647-44.483764-11.083294 6.26447a296.176941 296.176941 0 0 1-53.669647 22.287059l-11.264 3.192471-1.204706 0.271058v62.85553c0 12.348235-8.432941 22.678588-19.847529 25.569882l-3.192471 0.602353-3.312941 0.180706h-95.804235a26.352941 26.352941 0 0 1-26.142118-23.04l-0.210823-3.312941-0.030118-62.885647-1.174588-0.240941a296.056471 296.056471 0 0 1-64.933647-25.47953l-10.149647-5.692235-0.933648-0.572235-44.453647 44.483764a26.352941 26.352941 0 0 1-31.653647 4.276706l-2.921411-1.927529-2.710589-2.349177-67.764706-67.764706a26.352941 26.352941 0 0 1-2.349176-34.575058l2.349176-2.710589 44.483765-44.483764-0.572235-0.90353a296.327529 296.327529 0 0 1-27.979294-63.849412l-3.162353-11.233882-0.331294-1.204706H161.882353a26.352941 26.352941 0 0 1-25.539765-19.847529l-0.602353-3.192471-0.210823-3.312941v-95.804235c0-13.432471 10.059294-24.515765 23.04-26.142118l3.312941-0.210823 62.855529-0.030118 0.301177-1.174588a296.056471 296.056471 0 0 1 25.449412-64.933647l5.722353-10.149647 0.512-0.933648-44.453648-44.453647a26.352941 26.352941 0 0 1-4.276705-31.653647l1.927529-2.921411 2.349176-2.710589 67.764706-67.764706a26.352941 26.352941 0 0 1 34.575059-2.349176l2.710588 2.349176 44.453647 44.453648 11.083295-6.234353a296.146824 296.146824 0 0 1 53.699764-22.287059l11.233883-3.162353 1.174588-0.301177V161.882353c0-12.318118 8.463059-22.648471 19.877647-25.539765l3.192471-0.602353 3.312941-0.210823h95.834353z m-47.917177 263.529412a114.206118 114.206118 0 1 0 0 228.382117 114.206118 114.206118 0 0 0 0-228.382117z m0 52.705882a61.500235 61.500235 0 1 1 0 122.970353 61.500235 61.500235 0 0 1 0-122.970353z" fill="#568af2" /></svg>