<svg class="icon" style="width: 1em;height: 1em;vertical-align: middle;fill: currentColor;overflow: hidden;" viewBox="0 0 1024 1024" version="1.1" xmlns="http://www.w3.org/2000/svg" width="32" height="32"><path d="M475.617882 150.588235c179.501176 0 324.999529 145.528471 324.99953 325.029647 0 80.263529-29.093647 153.720471-77.281883 210.432l134.686118 134.716236a26.352941 26.352941 0 0 1-34.544941 39.634823l-2.710588-2.379294-134.716236-134.686118a323.734588 323.734588 0 0 1-210.432 77.281883C296.116706 800.617412 150.588235 655.119059 150.588235 475.617882S296.116706 150.588235 475.617882 150.588235z m0 193.264941a26.352941 26.352941 0 0 0-26.172235 23.04l-0.180706 3.312942-0.030117 79.209411-78.787765 0.120471-3.312941 0.210824a26.352941 26.352941 0 0 0 0.060235 52.284235l3.312941 0.210823 78.72753-0.12047v78.908235l0.210823 3.312941a26.352941 26.352941 0 0 0 52.314353 0l0.210824-3.312941-0.030118-78.998588 79.119059-0.060235 3.312941-0.210824a26.352941 26.352941 0 0 0-0.090353-52.314353l-3.312941-0.180706-79.028706 0.060235v-79.119058l-0.180706-3.312942a26.352941 26.352941 0 0 0-26.142118-23.04z" fill="#568af2" /></svg>