<svg class="icon" style="width: 1em;height: 1em;vertical-align: middle;fill: currentColor;overflow: hidden;" viewBox="0 0 1024 1024" version="1.1" xmlns="http://www.w3.org/2000/svg" width="32" height="32"><path d="M703.909647 180.705882c1.264941 0 2.499765 0.090353 3.704471 0.240942L703.909647 180.705882a26.352941 26.352941 0 0 1 7.469177 1.084236l0.722823 0.210823a24.696471 24.696471 0 0 1 2.800941 1.084235l0.813177 0.39153a25.298824 25.298824 0 0 1 2.770823 1.626353l0.301177 0.210823c1.114353 0.752941 2.078118 1.505882 3.011764 2.349177l0.120471 0.12047 135.589647 126.614589a26.352941 26.352941 0 0 1 8.131765 15.661176l0.240941 3.614118v453.150117a79.058824 79.058824 0 0 1-74.059294 78.908236l-4.99953 0.150588h-527.058823a79.058824 79.058824 0 0 1-78.908235-74.059294L180.705882 786.823529v-527.058823a79.058824 79.058824 0 0 1 74.059294-78.908235L259.764706 180.705882h444.144941zM523.444706 672.617412h-175.826824l-3.312941 0.210823a26.352941 26.352941 0 0 0 0 52.314353l3.312941 0.180706h175.826824l3.312941-0.180706a26.352941 26.352941 0 0 0-3.312941-52.525176z m175.525647-140.528941H347.617882l-3.312941 0.180705a26.352941 26.352941 0 0 0 0 52.314353l3.312941 0.210824h351.352471l3.312941-0.210824a26.352941 26.352941 0 0 0-3.312941-52.495058zM549.737412 233.411765h-228.502588v103.393882c0 23.913412 21.534118 37.165176 43.941647 37.165177h140.559058c22.377412 0 43.911529-13.251765 43.91153-37.165177l0.090353-103.393882z" fill="#568af2" /></svg>