<svg class="icon" style="width: 1em;height: 1em;vertical-align: middle;fill: currentColor;overflow: hidden;" viewBox="0 0 1024 1024" version="1.1" xmlns="http://www.w3.org/2000/svg" width="32" height="32"><path d="M518.264471 120.470588c169.803294 0 307.471059 137.637647 307.471058 307.440941a307.501176 307.501176 0 0 1-181.428705 280.515765l-10.571295 127.216941a43.911529 43.911529 0 0 1-39.54447 40.056471l-4.216471 0.210823h-143.36c-21.443765 0-39.484235-15.36-43.218823-36.050823l-0.572236-4.216471-10.601411-127.216941A307.501176 307.501176 0 0 1 210.823529 427.911529C210.823529 258.108235 348.461176 120.470588 518.264471 120.470588z m72.463058 596.148706h-144.956235l8.914824 106.586353h127.156706l8.884705-106.586353z m32.948706-367.73647l-3.312941 0.180705a26.352941 26.352941 0 0 0-23.04 26.142118v62.765177L530.070588 404.359529l-3.252706-1.385411a26.352941 26.352941 0 0 0-20.329411 1.385411l-67.282824 33.611295v-62.765177l-0.180706-3.312941a26.352941 26.352941 0 0 0-52.525176 3.312941v105.411765l0.210823 3.403294a26.352941 26.352941 0 0 0 37.948236 20.178823l93.605647-46.832941 93.635764 46.832941 3.132236 1.325177a26.352941 26.352941 0 0 0 34.996705-24.907294v-105.411765l-0.180705-3.312941a26.352941 26.352941 0 0 0-26.172236-23.04z" fill="#568af2" /></svg>