<svg class="icon" style="width: 1em;height: 1em;vertical-align: middle;fill: currentColor;overflow: hidden;" viewBox="0 0 1024 1024" version="1.1" xmlns="http://www.w3.org/2000/svg" width="32" height="32"><path d="M804.382118 135.529412a26.352941 26.352941 0 0 1 3.312941 52.495059l-3.312941 0.210823-48.790589 0.060235c-36.141176 168.658824-89.148235 278.076235-161.219764 325.029647 58.910118 38.4 105.050353 118.452706 139.655529 238.351059l3.282824 11.535059 6.023529 22.738824c4.276706 16.745412 8.342588 34.183529 12.227765 52.284235l48.820706 0.030118a26.352941 26.352941 0 0 1 3.312941 52.525176l-3.312941 0.180706H207.058824a26.352941 26.352941 0 0 1-3.312942-52.495059l3.312942-0.210823h48.820705l0.90353-4.216471c36.080941-166.309647 88.786824-274.311529 160.286117-320.873412-55.326118-36.050824-99.388235-108.845176-133.210352-216.937412l-3.403295-11.053176-6.324705-21.865412-1.505883-5.632-1.505882-5.632-5.933177-23.190588a1371.256471 1371.256471 0 0 1-5.662117-24.094118l-2.740706-12.348235-0.90353-4.186353H207.058824a26.352941 26.352941 0 0 1-3.312942-52.495059l3.312942-0.210823h597.323294z" fill="#568af2" /></svg>