<svg class="icon" style="width: 1em;height: 1em;vertical-align: middle;fill: currentColor;overflow: hidden;" viewBox="0 0 1024 1024" version="1.1" xmlns="http://www.w3.org/2000/svg" width="32" height="32"><path d="M849.558588 286.117647c14.576941 0 26.352941 11.806118 26.352941 26.352941v456.794353a26.352941 26.352941 0 0 1-26.352941 26.352941h-527.058823a26.352941 26.352941 0 0 1-20.87153-10.300235L125.891765 556.935529a26.352941 26.352941 0 0 1 0-32.135529l175.706353-228.382118a26.352941 26.352941 0 0 1 20.871529-10.300235z m-209.739294 148.269177a26.352941 26.352941 0 0 0-37.285647 0l-69.210353 69.180235-69.210353-69.180235-2.710588-2.349177a26.352941 26.352941 0 0 0-34.544941 39.604706l69.180235 69.210353-69.180235 69.210353-2.349177 2.710588a26.352941 26.352941 0 0 0 39.604706 34.575059l69.210353-69.240471 69.210353 69.240471 2.710588 2.349176a26.352941 26.352941 0 0 0 34.575059-39.634823l-69.24047-69.210353 69.24047-69.210353 2.349177-2.710588a26.352941 26.352941 0 0 0-2.349177-34.544941z" fill="#568af2" /></svg>