<svg class="icon" style="width: 1em;height: 1em;vertical-align: middle;fill: currentColor;overflow: hidden;" viewBox="0 0 1024 1024" version="1.1" xmlns="http://www.w3.org/2000/svg" width="32" height="32"><path d="M721.829647 133.270588c33.942588 0 61.470118 27.527529 61.470118 61.500236v667.587764a26.352941 26.352941 0 0 1-41.652706 21.443765l-107.670588-76.920471-107.670589 76.920471a26.352941 26.352941 0 0 1-27.467294 1.957647l-3.162353-1.957647-107.670588-76.920471-107.640471 76.920471a26.352941 26.352941 0 0 1-41.472-18.130824l-0.210823-3.312941V194.770824c0-33.972706 27.527529-61.500235 61.500235-61.500236z m-105.411765 456.794353h-210.823529l-3.312941 0.180706a26.352941 26.352941 0 0 0 3.312941 52.525177h210.823529l3.312942-0.210824a26.352941 26.352941 0 0 0-3.312942-52.495059z m0-140.559059h-210.823529l-3.312941 0.210824a26.352941 26.352941 0 0 0 3.312941 52.495059h210.823529l3.312942-0.210824a26.352941 26.352941 0 0 0-3.312942-52.495059z m0-140.559058h-210.823529l-3.312941 0.210823a26.352941 26.352941 0 0 0 3.312941 52.495059h210.823529l3.312942-0.180706a26.352941 26.352941 0 0 0-3.312942-52.525176z" fill="#568af2" /></svg>