<svg class="icon" style="width: 1em;height: 1em;vertical-align: middle;fill: currentColor;overflow: hidden;" viewBox="0 0 1024 1024" version="1.1" xmlns="http://www.w3.org/2000/svg" width="32" height="32"><path d="M540.852706 133.360941l2.710588 2.349177L641.204706 233.411765h129.65647c12.288 0 22.648471 8.432941 25.539765 19.877647l0.602353 3.162353 0.210824 3.312941v129.596235l97.671529 97.731765a26.352941 26.352941 0 0 1 4.306824 31.623529l-1.92753 2.95153-2.379294 2.710588-97.701647 97.671529v129.626353c0 12.348235-8.432941 22.678588-19.847529 25.569883l-3.192471 0.602353-3.312941 0.180705h-129.626353l-97.67153 97.701648a26.352941 26.352941 0 0 1-31.653647 4.276705l-2.921411-1.927529-2.710589-2.349176-97.731764-97.701648H278.949647a26.352941 26.352941 0 0 1-25.539765-19.877647l-0.602353-3.162353-0.210823-3.312941v-129.626353L154.925176 524.348235A26.352941 26.352941 0 0 1 150.588235 492.724706l1.92753-2.921412 2.379294-2.710588 97.671529-97.731765V259.764706c0-12.318118 8.432941-22.648471 19.877647-25.539765l3.162353-0.602353 3.312941-0.210823h129.596236l97.731764-97.701647a26.352941 26.352941 0 0 1 34.575059-2.349177z m-15.962353 240.609883a131.764706 131.764706 0 1 0 0 263.529411 131.764706 131.764706 0 0 0 0-263.529411z m0 52.705882a79.058824 79.058824 0 1 1 0 158.117647 79.058824 79.058824 0 0 1 0-158.117647z" fill="#568af2" /></svg>