<svg class="icon" style="width: 1em;height: 1em;vertical-align: middle;fill: currentColor;overflow: hidden;" viewBox="0 0 1024 1024" version="1.1" xmlns="http://www.w3.org/2000/svg" width="32" height="32"><path d="M475.617882 150.588235c179.501176 0 324.999529 145.528471 324.99953 325.029647 0 80.263529-29.093647 153.720471-77.281883 210.432l134.686118 134.716236a26.352941 26.352941 0 0 1-34.544941 39.634823l-2.710588-2.379294-134.716236-134.686118a323.734588 323.734588 0 0 1-210.432 77.281883C296.116706 800.617412 150.588235 655.119059 150.588235 475.617882S296.116706 150.588235 475.617882 150.588235z m0 140.559059a166.430118 166.430118 0 0 0-118.031058 48.880941 26.352941 26.352941 0 1 0 37.285647 37.25553 113.724235 113.724235 0 0 1 80.715294-33.430589c30.72 0 59.482353 12.137412 80.775529 33.430589a26.352941 26.352941 0 1 0 37.25553-37.25553 166.430118 166.430118 0 0 0-118.000942-48.880941z" fill="#568af2" /></svg>