<svg class="icon" style="width: 1em;height: 1em;vertical-align: middle;fill: currentColor;overflow: hidden;" viewBox="0 0 1024 1024" version="1.1" xmlns="http://www.w3.org/2000/svg" width="32" height="32"><path d="M780.8 172.182588a73.788235 73.788235 0 0 1 73.637647 68.939294l0.150588 4.818824v537.6a73.788235 73.788235 0 0 1-68.939294 73.637647l-4.848941 0.180706H243.2a73.788235 73.788235 0 0 1-73.637647-68.969412l-0.150588-4.818823V245.970824a73.788235 73.788235 0 0 1 68.939294-73.637648l4.848941-0.150588h537.6z m-101.888 37.647059H327.529412V517.421176c0 13.071059 11.806118 23.672471 26.352941 23.672471h298.676706c14.546824 0 26.352941-10.601412 26.352941-23.672471V209.829647zM547.147294 295.152941c13.432471 0 24.515765 10.059294 26.142118 23.04l0.210823 3.312941v70.264471a26.352941 26.352941 0 0 1-52.525176 3.312941l-0.180706-3.312941v-70.264471c0-14.546824 11.776-26.352941 26.352941-26.352941z" fill="#568af2" /></svg>