<svg class="icon" style="width: 1em;height: 1em;vertical-align: middle;fill: currentColor;overflow: hidden;" viewBox="0 0 1024 1024" version="1.1" xmlns="http://www.w3.org/2000/svg" width="32" height="32"><path d="M513.264941 135.529412c208.594824 0 377.705412 169.110588 377.705412 377.735529 0 208.594824-169.110588 377.705412-377.705412 377.705412-208.624941 0-377.735529-169.110588-377.735529-377.705412C135.529412 304.64 304.64 135.529412 513.264941 135.529412z m-175.706353 325.029647a52.705882 52.705882 0 1 0 0 105.411765 52.705882 52.705882 0 0 0 0-105.411765z m175.706353 0a52.705882 52.705882 0 1 0 0 105.411765 52.705882 52.705882 0 0 0 0-105.411765z m175.676235 0a52.705882 52.705882 0 1 0 0 105.411765 52.705882 52.705882 0 0 0 0-105.411765z" fill="#568af2" /></svg>