<svg class="icon" style="width: 1em;height: 1em;vertical-align: middle;fill: currentColor;overflow: hidden;" viewBox="0 0 1024 1024" version="1.1" xmlns="http://www.w3.org/2000/svg" width="32" height="32"><path d="M764.235294 120.470588c33.972706 0 61.500235 27.527529 61.500235 61.500236v667.587764a26.352941 26.352941 0 0 1-38.460235 23.43153l-269.010823-139.113412-268.980706 139.113412a26.352941 26.352941 0 0 1-38.249412-19.998118L210.823529 849.558588V181.970824C210.823529 147.998118 238.351059 120.470588 272.323765 120.470588z m-246.844235 174.802824a26.352941 26.352941 0 0 0-26.352941 26.352941l-0.030118 79.028706-79.028706 0.030117-3.312941 0.210824a26.352941 26.352941 0 0 0 3.312941 52.495059l79.028706-0.030118 0.030118 79.088941 0.210823 3.312942a26.352941 26.352941 0 0 0 52.495059-3.312942l-0.030118-79.088941 79.088942 0.030118 3.312941-0.210824a26.352941 26.352941 0 0 0-3.312941-52.495059l-79.088942-0.030117 0.030118-79.028706-0.210824-3.312941a26.352941 26.352941 0 0 0-26.142117-23.04z" fill="#568af2" /></svg>