<svg class="icon" style="width: 1em;height: 1em;vertical-align: middle;fill: currentColor;overflow: hidden;" viewBox="0 0 1024 1024" version="1.1" xmlns="http://www.w3.org/2000/svg" width="32" height="32"><path d="M809.411765 210.823529c33.972706 0 61.500235 27.527529 61.500235 61.500236v491.911529a61.500235 61.500235 0 0 1-61.500235 61.500235H212.088471A61.500235 61.500235 0 0 1 150.588235 764.235294V272.323765C150.588235 238.351059 178.115765 210.823529 212.088471 210.823529z m0 52.705883H212.088471a8.794353 8.794353 0 0 0-8.794353 8.794353v357.978353l130.710588-130.650353a26.352941 26.352941 0 0 1 32.105412-4.005647l2.981647 2.048 67.915294 54.362353 88.847059-103.634824a26.352941 26.352941 0 0 1 36.050823-3.794823l256.271059 195.975529V272.323765a8.794353 8.794353 0 0 0-6.746353-8.553412l-2.017882-0.240941z m-465.558589 70.26447a52.705882 52.705882 0 1 1 0 105.411765 52.705882 52.705882 0 0 1 0-105.411765z" fill="#568af2" /></svg>