<svg class="icon" style="width: 1em;height: 1em;vertical-align: middle;fill: currentColor;overflow: hidden;" viewBox="0 0 1024 1024" version="1.1" xmlns="http://www.w3.org/2000/svg" width="32" height="32"><path d="M511.006118 133.270588c13.432471 0 24.515765 10.059294 26.142117 23.04l0.210824 3.312941v62.644706a288.346353 288.346353 0 0 1 145.197176 55.055059l45.839059-45.839059a26.352941 26.352941 0 0 1 39.634824 34.575059l-2.379294 2.710588-43.550118 43.550118a288.948706 288.948706 0 0 1 75.474823 154.744471h64.783059a26.352941 26.352941 0 0 1 3.312941 52.525176l-3.312941 0.180706h-61.620706a288.617412 288.617412 0 0 1-66.981647 176.730353l44.333177 44.303059a26.352941 26.352941 0 0 1-34.575059 39.634823l-2.710588-2.349176-44.272941-44.333177a288.587294 288.587294 0 0 1-159.171765 65.957647v62.644706a26.352941 26.352941 0 0 1-52.525177 3.312941l-0.180706-3.312941v-62.644706a288.828235 288.828235 0 0 1-172.333176-77.613176l-43.580235 43.580235a26.352941 26.352941 0 0 1-39.604706-34.575059l2.349176-2.710588 45.839059-45.839059a288.466824 288.466824 0 0 1-56.079059-162.755764H159.623529a26.352941 26.352941 0 0 1-3.312941-52.525177l3.312941-0.210823h64.783059a288.677647 288.677647 0 0 1 63.819294-141.552942L243.892706 281.178353A26.352941 26.352941 0 0 1 278.467765 241.543529l2.710588 2.349177 44.333176 44.333176A288.587294 288.587294 0 0 1 484.592941 222.268235V159.623529c0-14.546824 11.806118-26.352941 26.383059-26.352941z" fill="#568af2" /></svg>