<svg class="icon" style="width: 1em;height: 1em;vertical-align: middle;fill: currentColor;overflow: hidden;" viewBox="0 0 1024 1024" version="1.1" xmlns="http://www.w3.org/2000/svg" width="32" height="32"><path d="M671.382588 180.705882a219.617882 219.617882 0 0 1 219.587765 219.617883c0 179.079529-196.216471 377.253647-369.392941 434.80847a26.352941 26.352941 0 0 1-16.624941 0C331.776 777.607529 135.529412 579.433412 135.529412 400.323765a219.617882 219.617882 0 0 1 373.007059-157.214118l4.698353 4.818824 4.758588-4.818824a219.075765 219.075765 0 0 1 145.046588-62.253176z m-69.210353 218.533647a26.352941 26.352941 0 0 0-37.285647 0l-51.651764 51.621647-51.621648-51.621647-2.710588-2.349176a26.352941 26.352941 0 0 0-34.544941 39.634823l51.621647 51.621648-51.621647 51.651764-2.379294 2.710588a26.352941 26.352941 0 0 0 39.634823 34.544942l51.621648-51.651765 51.651764 51.651765 2.710588 2.379294a26.352941 26.352941 0 0 0 34.575059-39.634824l-51.651764-51.651764 51.651764-51.621648 2.349177-2.710588a26.352941 26.352941 0 0 0-2.349177-34.575059z" fill="#568af2" /></svg>