<svg class="icon" style="width: 1em;height: 1em;vertical-align: middle;fill: currentColor;overflow: hidden;" viewBox="0 0 1024 1024" version="1.1" xmlns="http://www.w3.org/2000/svg" width="32" height="32"><path d="M136.432941 539.738353l176.489412 0.030118a202.149647 202.149647 0 0 0 173.959529 173.808941v176.489412c-187.542588-12.950588-337.438118-162.785882-350.448941-350.328471z m753.633883 0c-13.010824 187.572706-162.906353 337.408-350.479059 350.328471v-176.489412a202.149647 202.149647 0 0 0 173.989647-173.778824l176.489412-0.060235z m-376.801883-175.826824a149.323294 149.323294 0 1 1 0 298.676706 149.323294 149.323294 0 0 1 0-298.676706z m26.322824-227.478588c187.693176 12.950588 337.618824 162.936471 350.509176 350.629647h-176.489412a202.149647 202.149647 0 0 0-174.019764-174.140235V136.432941z m-52.705883 0v176.489412a202.149647 202.149647 0 0 0-173.989647 174.110118H136.432941c12.890353-187.632941 162.816-337.648941 350.479059-350.569412z" fill="#568af2" /></svg>