<svg class="icon" style="width: 1em;height: 1em;vertical-align: middle;fill: currentColor;overflow: hidden;" viewBox="0 0 1024 1024" version="1.1" xmlns="http://www.w3.org/2000/svg" width="32" height="32"><path d="M417.882353 180.705882H242.206118A61.500235 61.500235 0 0 0 180.705882 242.206118v175.676235c0 33.972706 27.527529 61.500235 61.500236 61.500235h175.676235a61.500235 61.500235 0 0 0 61.500235-61.500235V242.206118A61.500235 61.500235 0 0 0 417.882353 180.705882z m0 386.499765H242.206118A61.500235 61.500235 0 0 0 180.705882 628.705882v175.676236c0 33.972706 27.527529 61.500235 61.500236 61.500235h175.676235a61.500235 61.500235 0 0 0 61.500235-61.500235v-175.676236a61.500235 61.500235 0 0 0-61.500235-61.500235zM804.382118 180.705882h-175.676236a61.500235 61.500235 0 0 0-61.500235 61.500236v175.676235c0 33.972706 27.527529 61.500235 61.500235 61.500235h175.676236a61.500235 61.500235 0 0 0 61.500235-61.500235V242.206118A61.500235 61.500235 0 0 0 804.382118 180.705882z m0 386.499765h-175.676236a61.500235 61.500235 0 0 0-61.500235 61.500235v175.676236c0 33.972706 27.527529 61.500235 61.500235 61.500235h175.676236a61.500235 61.500235 0 0 0 61.500235-61.500235v-175.676236a61.500235 61.500235 0 0 0-61.500235-61.500235z" fill="#568af2" /></svg>