<svg class="icon" style="width: 1em;height: 1em;vertical-align: middle;fill: currentColor;overflow: hidden;" viewBox="0 0 1024 1024" version="1.1" xmlns="http://www.w3.org/2000/svg" width="32" height="32"><path d="M390.264471 239.284706a272.323765 272.323765 0 1 1 11.023058 407.16047l-62.855529 62.795295 93.184 93.184a26.352941 26.352941 0 0 1-34.575059 39.604705l-2.710588-2.349176L301.176471 746.496l-105.562353 105.622588a26.352941 26.352941 0 0 1-39.634824-34.575059l2.349177-2.710588 105.59247-105.59247-93.153882-93.153883a26.352941 26.352941 0 0 1 34.575059-39.634823l2.710588 2.349176 93.123765 93.153883 63.247058-63.186824a271.299765 271.299765 0 0 1-60.054588-161.460706l-0.150588-9.33647c0-71.740235 28.009412-140.830118 79.751529-192.572236z" fill="#568af2" /></svg>