<svg class="icon" style="width: 1em;height: 1em;vertical-align: middle;fill: currentColor;overflow: hidden;" viewBox="0 0 1024 1024" version="1.1" xmlns="http://www.w3.org/2000/svg" width="32" height="32"><path d="M523.294118 180.705882c6.987294 0 13.703529 2.770824 18.642823 7.710118l284.129883 284.129882a89.630118 89.630118 0 0 1-0.060236 126.403765l-226.725647 226.725647a89.6 89.6 0 0 1-126.795294 0l-284.039529-283.708235a26.352941 26.352941 0 0 1-7.740236-18.672941v-316.235294C180.705882 192.512 192.512 180.705882 207.058824 180.705882zM391.529412 347.617882a43.911529 43.911529 0 1 0 0 87.823059 43.911529 43.911529 0 0 0 0-87.823059z" fill="#568af2" /></svg>