<svg class="icon" style="width: 1em;height: 1em;vertical-align: middle;fill: currentColor;overflow: hidden;" viewBox="0 0 1024 1024" version="1.1" xmlns="http://www.w3.org/2000/svg" width="32" height="32"><path d="M524.920471 150.256941l-3.312942 0.210824a26.352941 26.352941 0 0 0-23.04 26.142117v122.970353l0.210824 3.312941a26.352941 26.352941 0 0 0 52.495059-3.312941V176.609882l-0.210824-3.312941a26.352941 26.352941 0 0 0-26.142117-23.04c208.594824 0 377.735529 169.110588 377.735529 377.73553 0 208.594824-169.140706 377.705412-377.735529 377.705411-208.624941 0-377.735529-169.110588-377.73553-377.705411 0-208.624941 169.110588-377.735529 377.73553-377.73553z m0 579.764706a26.352941 26.352941 0 0 0-26.352942 26.352941v122.970353l0.210824 3.312941a26.352941 26.352941 0 0 0 52.495059-3.312941v-122.970353l-0.210824-3.312941a26.352941 26.352941 0 0 0-26.142117-23.04z m351.382588-228.382118h-140.559059l-3.312941 0.180706a26.352941 26.352941 0 0 0 3.312941 52.525177h140.559059l3.312941-0.210824a26.352941 26.352941 0 0 0-3.312941-52.495059z m-579.764706 0H173.537882l-3.312941 0.180706a26.352941 26.352941 0 0 0 3.312941 52.525177h123.000471l3.312941-0.210824a26.352941 26.352941 0 0 0-3.312941-52.495059z" fill="#568af2" /></svg>