<svg class="icon" style="width: 1em;height: 1em;vertical-align: middle;fill: currentColor;overflow: hidden;" viewBox="0 0 1024 1024" version="1.1" xmlns="http://www.w3.org/2000/svg" width="32" height="32"><path d="M517.029647 124.235294a131.764706 131.764706 0 0 1 84.419765 232.929882l184.741647 343.130353a26.352941 26.352941 0 0 1-19.968 38.640942l-3.252706 0.210823-149.323294-0.030118v114.206118a26.352941 26.352941 0 0 1-23.04 26.172235l-3.312941 0.180706a26.352941 26.352941 0 0 1-26.142118-23.04l-0.210824-3.312941v-140.528941c0-13.432471 10.059294-24.545882 23.04-26.172235l3.312942-0.180706 131.523764-0.030118-160.798117-298.646588h-82.040471l-160.798118 298.646588h131.553883c13.432471 0 24.545882 10.059294 26.172235 23.070118l0.180706 3.312941v140.528941a26.352941 26.352941 0 0 1-52.495059 3.312941l-0.210823-3.312941v-114.206118H271.058824a26.352941 26.352941 0 0 1-24.576-35.870117l1.385411-2.95153 184.741647-343.130353a131.764706 131.764706 0 0 1 84.419765-232.929882z" fill="#568af2" /></svg>