<svg class="icon" style="width: 1em;height: 1em;vertical-align: middle;fill: currentColor;overflow: hidden;" viewBox="0 0 1024 1024" version="1.1" xmlns="http://www.w3.org/2000/svg" width="32" height="32"><path d="M603.617882 195.764706c8.854588 0 17.046588 4.457412 21.89553 11.715765l1.65647 2.861176L672.587294 301.176471h124.265412a79.058824 79.058824 0 0 1 78.908235 74.059294l0.150588 4.999529v421.647059a79.058824 79.058824 0 0 1-74.059294 78.908235l-4.999529 0.150588H199.529412a79.058824 79.058824 0 0 1-78.908236-74.059294L120.470588 801.882353v-421.647059a79.058824 79.058824 0 0 1 74.059294-78.908235L199.529412 301.176471h124.265412l45.417411-90.834824a26.352941 26.352941 0 0 1 20.269177-14.366118l3.312941-0.210823h210.823529z m-105.411764 228.382118a166.912 166.912 0 1 0 0 333.824 166.912 166.912 0 0 0 0-333.824z m0 52.705882a114.206118 114.206118 0 1 1 0 228.412235 114.206118 114.206118 0 0 1 0-228.412235zM587.294118 248.470588h-178.266353L382.704941 301.176471h230.972235l-26.352941-52.705883z" fill="#568af2" /></svg>