<svg class="icon" style="width: 1em;height: 1em;vertical-align: middle;fill: currentColor;overflow: hidden;" viewBox="0 0 1024 1024" version="1.1" xmlns="http://www.w3.org/2000/svg" width="32" height="32"><path d="M688.941176 186.729412c8.161882 0 15.811765 3.794824 20.781177 10.119529l1.927529 2.861177 175.706353 298.676706c4.216471 7.228235 4.758588 15.962353 1.566118 23.552l-1.566118 3.162352-175.706353 298.676706a26.352941 26.352941 0 0 1-19.245176 12.769883l-3.46353 0.210823H337.558588a26.352941 26.352941 0 0 1-20.751059-10.119529l-1.957647-2.861177-175.676235-298.676706a26.352941 26.352941 0 0 1-1.596235-23.521882l1.596235-3.19247 175.676235-298.676706a26.352941 26.352941 0 0 1 19.275294-12.739765l3.433412-0.240941h351.382588z m-175.676235 210.823529a114.206118 114.206118 0 1 0 0 228.382118 114.206118 114.206118 0 0 0 0-228.382118z m0 52.705883a61.500235 61.500235 0 1 1 0 122.970352 61.500235 61.500235 0 0 1 0-122.970352z" fill="#568af2" /></svg>