<svg class="icon" style="width: 1em;height: 1em;vertical-align: middle;fill: currentColor;overflow: hidden;" viewBox="0 0 1024 1024" version="1.1" xmlns="http://www.w3.org/2000/svg" width="32" height="32"><path d="M498.206118 271.058824c92.099765 0 181.488941 42.044235 265.276235 111.465411a745.532235 745.532235 0 0 1 78.064941 75.14353l3.011765 3.343059 2.861176 3.282823 10.691765 12.468706 4.788706 5.812706 7.80047 9.908706a26.352941 26.352941 0 0 1 2.048 28.28047l-2.048 3.222589-1.024 1.325176-11.565176 14.396235-10.691765 12.468706-5.872941 6.625883c-23.04 25.6-49.212235 51.2-78.064941 75.143529-83.787294 69.421176-173.176471 111.465412-265.276235 111.465412s-181.519059-42.044235-265.276236-111.465412a745.532235 745.532235 0 0 1-78.095058-75.143529l-2.981648-3.343059-2.891294-3.282824-10.691764-12.468706-4.758589-5.812706-7.830588-9.908705a26.352941 26.352941 0 0 1-2.048-28.280471l2.078118-3.222588 2.288941-3.011765 10.270118-12.709647 10.691764-12.468706 5.872942-6.625882c23.04-25.6 49.212235-51.2 78.095058-75.14353C316.687059 313.103059 406.106353 271.058824 498.206118 271.058824z m0 122.970352a114.206118 114.206118 0 1 0 0 228.412236 114.206118 114.206118 0 0 0 0-228.412236z m0 52.705883a61.500235 61.500235 0 1 1 0 123.00047 61.500235 61.500235 0 0 1 0-123.00047z" fill="#568af2" /></svg>