<svg class="icon" style="width: 1em;height: 1em;vertical-align: middle;fill: currentColor;overflow: hidden;" viewBox="0 0 1024 1024" version="1.1" xmlns="http://www.w3.org/2000/svg" width="32" height="32"><path d="M583.740235 164.954353a26.352941 26.352941 0 0 1 30.509177-13.402353 377.133176 377.133176 0 0 1 156.16 87.371294c8.523294 7.951059 10.842353 20.510118 5.692235 30.960941a79.028706 79.028706 0 0 0 70.776471 113.965177h1.475764a26.352941 26.352941 0 0 1 25.298824 18.432 379.301647 379.301647 0 0 1 9.637647 189.379764 26.352941 26.352941 0 0 1-28.370824 20.961883 79.058824 79.058824 0 0 0-68.306823 129.626353 26.352941 26.352941 0 0 1-1.174588 35.237647 377.615059 377.615059 0 0 1-164.23153 100.201412 26.352941 26.352941 0 0 1-32.617412-17.227295 79.088941 79.088941 0 0 0-150.64847 0 26.352941 26.352941 0 0 1-32.617412 17.227295 377.615059 377.615059 0 0 1-164.261647-100.171295 26.352941 26.352941 0 0 1-1.144471-35.267764 79.058824 79.058824 0 0 0-68.306823-129.626353 26.352941 26.352941 0 0 1-28.400941-20.931765A379.301647 379.301647 0 0 1 135.529412 515.614118c0-38.851765 5.872941-76.950588 17.287529-113.332706a26.352941 26.352941 0 0 1 25.328941-18.432l6.324706-0.150588a79.058824 79.058824 0 0 0 65.957647-113.814589 26.352941 26.352941 0 0 1 5.692236-30.960941 377.133176 377.133176 0 0 1 156.16-87.371294c12.047059-3.343059 24.816941 2.258824 30.479058 13.402353a79.028706 79.028706 0 0 0 140.950589 0z m-70.475294 201.336471a149.323294 149.323294 0 1 0 0 298.646588 149.323294 149.323294 0 0 0 0-298.646588z m0 52.705882a96.617412 96.617412 0 1 1 0 193.234823 96.617412 96.617412 0 0 1 0-193.234823z" fill="#568af2" /></svg>