<svg class="icon" style="width: 1em;height: 1em;vertical-align: middle;fill: currentColor;overflow: hidden;" viewBox="0 0 1024 1024" version="1.1" xmlns="http://www.w3.org/2000/svg" width="32" height="32"><path d="M693.970824 135.529412c13.432471 0 24.515765 10.059294 26.142117 23.04l0.210824 3.312941L720.293647 240.941176h79.088941c13.432471 0 24.515765 10.059294 26.142118 23.04l0.210823 3.312942v597.323294a26.352941 26.352941 0 0 1-37.827764 23.732706l-216.937412-104.688942-216.937412 104.688942a26.352941 26.352941 0 0 1-37.586823-20.35953l-0.210824-3.373176v-115.501177l-67.282823 33.67153a26.352941 26.352941 0 0 1-37.948236-20.178824L210.823529 759.205647V161.882353c0-13.432471 10.059294-24.515765 23.04-26.142118l3.312942-0.210823h456.794353z m-26.383059 52.705882H263.529412v528.323765l52.705882-26.352941V267.294118c0-13.432471 10.059294-24.515765 23.04-26.142118l3.312941-0.210824h324.99953V188.235294z" fill="#568af2" /></svg>