<svg class="icon" style="width: 1em;height: 1em;vertical-align: middle;fill: currentColor;overflow: hidden;" viewBox="0 0 1024 1024" version="1.1" xmlns="http://www.w3.org/2000/svg" width="32" height="32"><path d="M653.793882 135.529412a237.176471 237.176471 0 0 0-237.17647 237.17647l0.240941 10.63153c1.264941 28.310588 7.499294 55.777882 18.311529 81.408l0.451765 1.024-292.382118 292.382117a26.352941 26.352941 0 0 0 0 37.25553l87.853177 87.853176 2.710588 2.349177a26.352941 26.352941 0 0 0 34.544941-2.349177l292.382118-292.382117 1.024 0.481882A237.176471 237.176471 0 0 0 863.503059 261.812706l-1.807059-2.981647a26.352941 26.352941 0 0 0-40.116706-3.312941l-115.079529 115.019294-50.56753-50.56753 115.049412-115.049411a26.352941 26.352941 0 0 0-6.264471-41.923765 236.242824 236.242824 0 0 0-110.923294-27.467294z" fill="#568af2" /></svg>