<svg class="icon" style="width: 1em;height: 1em;vertical-align: middle;fill: currentColor;overflow: hidden;" viewBox="0 0 1024 1024" version="1.1" xmlns="http://www.w3.org/2000/svg" width="32" height="32"><path d="M611.508706 417.882353a26.352941 26.352941 0 0 1 21.955765 40.96l-72.372706 108.754823 87.823059 22.046118c17.92 4.487529 25.479529 25.268706 15.600941 40.056471l-2.078118 2.710588-201.487059 233.110588c-18.160941 21.022118-52.254118 3.312941-45.537882-23.582117l39.424-158.177883-79.600941-11.414588a26.352941 26.352941 0 0 1-22.196706-30.72l0.752941-3.072 62.012235-202.059294a26.352941 26.352941 0 0 1 25.178353-18.612706z m-221.364706-263.529412c110.019765 0 206.576941 68.427294 246.543059 168.719059l0.963765 2.620235 7.740235-2.288941c12.438588-3.403294 25.298824-5.481412 38.369882-6.174118l9.848471-0.240941c102.881882 0 186.066824 84.720941 186.066823 188.988236 0 75.715765-44.272941 143.269647-111.435294 173.17647a26.352941 26.352941 0 1 1-21.443765-48.188235c48.248471-21.443765 80.173176-70.174118 80.173177-124.988235 0-75.384471-59.813647-136.282353-133.360941-136.282353-21.172706 0-41.592471 5.029647-60.054588 14.546823a26.352941 26.352941 0 0 1-37.586824-16.624941c-24.967529-94.117647-109.025882-160.557176-205.793882-160.557176-117.669647 0-213.232941 97.310118-213.232942 217.6a218.684235 218.684235 0 0 0 85.473883 174.230588 26.352941 26.352941 0 1 1-32.015059 41.863529A271.390118 271.390118 0 0 1 124.235294 424.658824c0-149.172706 118.964706-270.305882 265.938824-270.305883z" fill="#568af2" /></svg>