<svg class="icon" style="width: 1em;height: 1em;vertical-align: middle;fill: currentColor;overflow: hidden;" viewBox="0 0 1024 1024" version="1.1" xmlns="http://www.w3.org/2000/svg" width="32" height="32"><path d="M621.116235 294.912a145.528471 145.528471 0 0 1 112.880941 237.327059c83.425882 18.763294 145.679059 94.328471 145.679059 184.560941 0 75.715765-44.272941 143.269647-111.435294 173.176471a26.352941 26.352941 0 1 1-21.443765-48.188236c48.248471-21.443765 80.173176-70.174118 80.173177-124.988235 0-75.384471-59.813647-136.282353-133.360941-136.282353-21.172706 0-41.592471 5.029647-60.054588 14.546824a26.352941 26.352941 0 0 1-37.586824-16.624942c-24.967529-94.117647-109.025882-160.557176-205.793882-160.557176-117.669647 0-213.232941 97.310118-213.232942 217.6a218.684235 218.684235 0 0 0 85.473883 174.230588 26.352941 26.352941 0 1 1-32.015059 41.86353A271.390118 271.390118 0 0 1 124.235294 635.482353c0-149.172706 118.964706-270.305882 265.938824-270.305882 34.002824 0 66.740706 6.535529 96.88847 18.55247a145.588706 145.588706 0 0 1 134.053647-88.847059z m-224.557176 210.823529c35.388235 0 68.638118 14.034824 93.153882 38.580706a26.352941 26.352941 0 0 1-37.255529 37.285647 79.058824 79.058824 0 0 0-111.796706 111.796706 26.352941 26.352941 0 0 1-37.285647 37.25553 131.764706 131.764706 0 0 1 93.184-224.948706z m456.764235-79.058823a35.147294 35.147294 0 1 1 0 70.26447 35.147294 35.147294 0 0 1 0-70.26447z m-35.117176-158.117647a35.147294 35.147294 0 1 1 0 70.26447 35.147294 35.147294 0 0 1 0-70.26447zM466.823529 233.411765a35.147294 35.147294 0 1 1 0 70.26447 35.147294 35.147294 0 0 1 0-70.26447zM660.088471 180.705882a35.147294 35.147294 0 1 1 0 70.264471 35.147294 35.147294 0 0 1 0-70.264471z" fill="#568af2" /></svg>