<svg class="icon" style="width: 1em;height: 1em;vertical-align: middle;fill: currentColor;overflow: hidden;" viewBox="0 0 1024 1024" version="1.1" xmlns="http://www.w3.org/2000/svg" width="32" height="32"><path d="M779.294118 735.382588a43.911529 43.911529 0 1 1 0 87.823059 43.911529 43.911529 0 0 1 0-87.823059z m-509.500236 0a43.911529 43.911529 0 1 1 0 87.823059 43.911529 43.911529 0 0 1 0-87.823059z m254.765177-465.588706a254.735059 254.735059 0 1 1 0 509.500236 254.735059 254.735059 0 0 1 0-509.500236zM779.294118 225.882353a43.911529 43.911529 0 1 1 0 87.853176 43.911529 43.911529 0 0 1 0-87.853176z m-509.500236 0a43.911529 43.911529 0 1 1 0 87.853176 43.911529 43.911529 0 0 1 0-87.853176z m254.765177-17.558588a43.911529 43.911529 0 1 0 0-87.853177 43.911529 43.911529 0 0 0 0 87.853177z m360.146823 360.146823a43.911529 43.911529 0 1 0 0-87.853176 43.911529 43.911529 0 0 0 0 87.853176zM524.559059 928.617412a43.911529 43.911529 0 1 0 0-87.823059 43.911529 43.911529 0 0 0 0 87.823059zM164.382118 568.470588a43.911529 43.911529 0 1 0 0-87.853176 43.911529 43.911529 0 0 0 0 87.853176z" fill="#568af2" /></svg>