<svg class="icon" style="width: 1em;height: 1em;vertical-align: middle;fill: currentColor;overflow: hidden;" viewBox="0 0 1024 1024" version="1.1" xmlns="http://www.w3.org/2000/svg" width="32" height="32"><path d="M662.768941 670.298353a26.352941 26.352941 0 0 1 34.575059-2.349177l2.710588 2.349177 158.117647 158.117647a26.352941 26.352941 0 0 1-34.575059 39.634824l-2.710588-2.349177-158.117647-158.117647a26.352941 26.352941 0 0 1 0-37.285647z m-316.235294 0a26.352941 26.352941 0 0 1 39.634824 34.575059l-2.349177 2.710588-158.117647 158.117647a26.352941 26.352941 0 0 1-39.634823-34.575059l2.349176-2.710588 158.117647-158.117647z m316.235294-286.479059a26.352941 26.352941 0 0 0 34.575059 2.349177l2.710588-2.349177 158.117647-158.117647a26.352941 26.352941 0 0 0-34.575059-39.634823l-2.710588 2.349176-158.117647 158.117647a26.352941 26.352941 0 0 0 0 37.285647z m-316.235294 0a26.352941 26.352941 0 0 0 39.634824-34.575059l-2.349177-2.710588-158.117647-158.117647a26.352941 26.352941 0 0 0-39.634823 34.575059l2.349176 2.710588 158.117647 158.117647z m176.760471 32.828235a114.206118 114.206118 0 1 0 0 228.382118 114.206118 114.206118 0 0 0 0-228.412235z" fill="#568af2" /></svg>