<svg class="icon" style="width: 1em;height: 1em;vertical-align: middle;fill: currentColor;overflow: hidden;" viewBox="0 0 1024 1024" version="1.1" xmlns="http://www.w3.org/2000/svg" width="32" height="32"><path d="M315.572706 874.496l-1.41553 1.144471-1.626352 1.084235-1.144471 0.692706a27.497412 27.497412 0 0 1-9.336471 3.041882l-3.373176 0.210824-3.373177-0.210824-1.204705-0.180706a26.202353 26.202353 0 0 1-6.746353-2.138353l-1.295059-0.662588a24.756706 24.756706 0 0 1-3.312941-2.168471l-0.692706-0.542117L280.485647 873.411765 192.150588 785.167059a26.352941 26.352941 0 0 1 34.575059-39.664941l2.710588 2.379294 42.827294 42.797176V608.376471a166.912 166.912 0 0 1 160.376471-166.79153l6.535529-0.12047 254.735059-0.030118v-91.858824a114.236235 114.236235 0 0 1 26.383059-225.340235 114.206118 114.206118 0 0 1 26.352941 225.340235l-0.030117 441.072942 42.887529-42.797177a26.352941 26.352941 0 0 1 39.604706 34.575059l-2.349177 2.710588-87.853176 87.823059a26.352941 26.352941 0 0 1-34.544941 2.349176l-2.710588-2.349176-87.853177-87.853176a26.352941 26.352941 0 0 1 34.575059-39.634824l2.710588 2.379294 42.827294 42.797177v-296.508236h-254.735059a114.206118 114.206118 0 0 0-114.025411 108.333177l-0.150589 5.903059-0.030117 182.272 42.887529-42.797177a26.352941 26.352941 0 0 1 39.604706 34.575059l-2.349176 2.710588-87.853177 87.823059-0.421647 0.421647-0.783059 0.722824-0.331294 0.240941-0.180706 0.150588z" fill="#568af2" /></svg>