<svg class="icon" style="width: 1em;height: 1em;vertical-align: middle;fill: currentColor;overflow: hidden;" viewBox="0 0 1024 1024" version="1.1" xmlns="http://www.w3.org/2000/svg" width="32" height="32"><path d="M833.445647 743.634824l1.144471 1.505882a29.304471 29.304471 0 0 1 1.746823 2.710588 26.262588 26.262588 0 0 1-2.16847 28.55153l-0.602353 0.722823a26.503529 26.503529 0 0 1-1.505883 1.716706l-0.240941 0.271059-87.853176 87.823059a26.352941 26.352941 0 0 1-39.634824-34.544942l2.379294-2.710588 42.797177-42.857412H303.676235c-84.811294 0-149.323294-64.512-149.323294-149.323294 0-82.612706 61.138824-145.92 142.667294-149.202823l6.656-0.150588h386.529883c55.717647 0 96.617412-40.899765 96.617411-96.617412 0-53.790118-38.128941-93.786353-90.925176-96.466824l-5.722353-0.150588H397.251765a114.236235 114.236235 0 0 1-225.340236-26.352941 114.206118 114.206118 0 0 1 225.340236-26.383059h292.954353c84.811294 0 149.323294 64.512 149.323294 149.353412 0 82.582588-61.138824 145.92-142.667294 149.202823l-6.656 0.120471H303.676235c-55.717647 0-96.617412 40.929882-96.617411 96.647529 0 53.790118 38.128941 93.786353 90.925176 96.466824l5.722353 0.150588h445.801412l-42.797177-42.857412a26.352941 26.352941 0 0 1-2.379294-34.575059l2.379294-2.710588a26.352941 26.352941 0 0 1 34.544941-2.349176l2.710589 2.379294 87.853176 87.823059 0.240941 0.271059 0.783059 0.843294 0.421647 0.481882 0.180706 0.210824z" fill="#568af2" /></svg>