<svg class="icon" style="width: 1em;height: 1em;vertical-align: middle;fill: currentColor;overflow: hidden;" viewBox="0 0 1024 1024" version="1.1" xmlns="http://www.w3.org/2000/svg" width="32" height="32"><path d="M765.500235 214.588235a114.206118 114.206118 0 1 1-111.134117 140.559059h-310.512942a166.912 166.912 0 0 0-6.565647 333.673412l6.565647 0.12047 445.801412-0.030117-42.797176-42.827294a26.352941 26.352941 0 0 1-2.349177-34.575059l2.349177-2.710588a26.352941 26.352941 0 0 1 34.575059-2.349177l2.710588 2.379294 87.823059 87.823059 0.451764 0.481882a26.503529 26.503529 0 0 1 1.295059 1.445648l-1.746823-1.92753a26.533647 26.533647 0 0 1 7.710117 18.642824 26.292706 26.292706 0 0 1-5.360941 15.962353l-0.602353 0.752941a26.503529 26.503529 0 0 1-1.295059 1.445647l-0.451764 0.481882-87.853177 87.823059a26.352941 26.352941 0 0 1-39.604706-34.544941l2.349177-2.710588 42.797176-42.88753-445.801412 0.030118a219.617882 219.617882 0 0 1-7.258352-439.115294l7.228235-0.090353 310.512941-0.030118a114.236235 114.236235 0 0 1 111.134118-87.823059z" fill="#568af2" /></svg>