<svg class="icon" style="width: 1em;height: 1em;vertical-align: middle;fill: currentColor;overflow: hidden;" viewBox="0 0 1024 1024" version="1.1" xmlns="http://www.w3.org/2000/svg" width="32" height="32"><path d="M280.937412 157.455059l0.361412 0.180706a26.172235 26.172235 0 0 1 3.19247 2.078117l0.692706 0.542118a26.503529 26.503529 0 0 1 1.566118 1.385412l0.421647 0.421647 87.853176 87.853176a26.352941 26.352941 0 0 1-34.575059 39.634824l-2.710588-2.379294-42.857412-42.857412v445.891765c0 55.717647 40.929882 96.617412 96.64753 96.617411 53.790118 0 93.786353-38.128941 96.496941-90.925176l0.120471-5.722353V303.706353c0-84.811294 64.512-149.323294 149.353411-149.323294 82.582588 0 145.92 61.138824 149.202824 142.667294l0.12047 6.656v310.512941a114.236235 114.236235 0 0 1-26.352941 225.340235 114.206118 114.206118 0 0 1-26.352941-225.340235v-310.512941c0-55.717647-40.899765-96.617412-96.617412-96.617412-53.820235 0-93.786353 38.128941-96.496941 90.925177l-0.150588 5.722353v386.499764c0 84.811294-64.481882 149.323294-149.323294 149.323294-82.582588 0-145.92-61.138824-149.202824-142.667294l-0.12047-6.656L242.145882 244.314353 199.348706 287.171765a26.352941 26.352941 0 0 1-34.575059 2.379294l-2.710588-2.379294a26.352941 26.352941 0 0 1-2.349177-34.544941l2.349177-2.710589 87.853176-87.853176 0.451765-0.421647a26.503529 26.503529 0 0 1 1.566118-1.385412l-2.017883 1.807059a26.563765 26.563765 0 0 1 11.595294-6.746353l0.421647-0.120471a26.262588 26.262588 0 0 1 19.004236 2.258824z" fill="#568af2" /></svg>