<svg class="icon" style="width: 1em;height: 1em;vertical-align: middle;fill: currentColor;overflow: hidden;" viewBox="0 0 1024 1024" version="1.1" xmlns="http://www.w3.org/2000/svg" width="32" height="32"><path d="M520.794353 132.156235l2.258823 2.620236 97.490824 129.987764h39.544471c5.180235 0 10.24 1.566118 14.516705 4.367059l3.041883 2.379294 6.505412 5.601883 6.595764 5.481411c10.330353 8.493176 21.353412 16.986353 32.527059 24.847059 10.360471 7.288471 20.299294 13.643294 29.605647 18.853647 8.011294 4.487529 15.36 8.011294 21.865412 10.450824 9.728 3.614118 23.100235 6.987294 38.640941 9.878588l7.951059 1.415529 7.529412 1.204706 13.94447 1.987765 13.161412 1.505882c26.804706 2.710588 32.225882 38.430118 9.366588 49.724236l-3.132235 1.325176-20.781176 7.228235-10.932706 3.704471-10.691765 3.463529-11.685647 3.614118-7.920941 2.288941-17.438118 4.638118c-10.24 2.620235-21.172706 5.270588-32.105412 7.80047l6.02353-1.445647v286.479059h61.530353c13.432471 0 24.515765 10.059294 26.142117 23.070118l0.210824 3.312941v105.411765a26.352941 26.352941 0 0 1-26.352941 26.322823h-632.470589a26.352941 26.352941 0 0 1-26.352941-26.352941v-105.411765c0-14.546824 11.776-26.352941 26.352941-26.352941h61.44v-286.418823l-2.68047-0.662589-2.680471-0.63247-19.877647-4.909177-18.070588-4.818823-13.643294-4.005647-12.739765-4.065883-14.998588-5.029647-20.781177-7.228235c-25.389176-9.065412-22.016-45.176471 3.011765-50.507294l3.343059-0.542118 16.414118-1.957647c12.468706-1.686588 24.907294-3.764706 36.382117-6.204235 11.294118-2.409412 20.931765-5.059765 28.310588-7.830588 6.505412-2.439529 13.854118-5.963294 21.89553-10.450824 9.276235-5.210353 19.215059-11.565176 29.575529-18.853647 7.439059-5.240471 14.848-10.752 21.985883-16.384l10.541176-8.432941 3.523765-2.921412 9.577412-8.192a26.352941 26.352941 0 0 1 13.733647-6.445176l3.855058-0.301177h39.544471l97.490824-129.987764a26.352941 26.352941 0 0 1 39.905882-2.620236z m183.205647 308.284236H299.911529v281.118117h404.088471v-281.118117z m-202.059294-245.940706l-52.705882 70.26447h105.411764l-52.705882-70.26447z" fill="#568af2" /></svg>