<svg class="icon" style="width: 1em;height: 1em;vertical-align: middle;fill: currentColor;overflow: hidden;" viewBox="0 0 1024 1024" version="1.1" xmlns="http://www.w3.org/2000/svg" width="32" height="32"><path d="M180.705882 794.352941a26.352941 26.352941 0 0 1-26.142117-23.04l-0.210824-3.312941V416.617412c0-7.017412 2.800941-13.673412 7.68-18.582588l2.620235-2.288942 228.382118-175.706353 0.421647-0.301176a26.744471 26.744471 0 0 1 1.807059-1.204706l0.752941-0.481882 0.632471-0.361412a26.624 26.624 0 0 1 2.499764-1.174588l0.301177-0.120471a26.202353 26.202353 0 0 1 6.294588-1.626353h0.39153a20.600471 20.600471 0 0 1 2.439529-0.210823l0.572235 0.030117a26.503529 26.503529 0 0 1 3.072 0.180706l1.295059 0.180706a18.733176 18.733176 0 0 1 1.505882 0.301177l0.451765 0.12047a26.443294 26.443294 0 0 1 1.897412 0.542118l0.903529 0.301176 0.481883 0.210824a26.352941 26.352941 0 0 1 0.331294 0.12047l473.509647 175.375059a26.352941 26.352941 0 0 1 16.956235 21.082353l0.240941 3.614118V768a26.352941 26.352941 0 0 1-23.04 26.142118l-3.312941 0.210823H180.705882z m360.357647-293.195294l-0.210823 3.312941v237.146353h52.705882v-200.583529l105.411765 35.147294v165.436235h52.705882V557.176471l-0.210823-3.373177a26.352941 26.352941 0 0 0-14.667294-20.359529l-3.132236-1.264941-158.117647-52.705883-3.19247-0.843294a26.383059 26.383059 0 0 0-31.292236 22.528z m-158.32847-206.727529l-175.676235 135.137882v312.079059h175.676235V294.4z" fill="#568af2" /></svg>