<svg class="icon" style="width: 1em;height: 1em;vertical-align: middle;fill: currentColor;overflow: hidden;" viewBox="0 0 1024 1024" version="1.1" xmlns="http://www.w3.org/2000/svg" width="32" height="32"><path d="M853.323294 282.352941c13.432471 0 24.545882 10.059294 26.172235 23.04l0.180706 3.312941v158.117647a26.352941 26.352941 0 0 1-23.04 26.142118l-3.312941 0.210824h-147.215059L327.348706 871.966118a26.352941 26.352941 0 0 1-11.806118 6.806588l-3.373176 0.692706-3.46353 0.210823H150.588235a26.352941 26.352941 0 0 1-26.142117-23.04l-0.210824-3.312941v-158.117647c0-13.432471 10.059294-24.515765 23.04-26.142118l3.312941-0.210823h147.184941L676.592941 290.063059a26.352941 26.352941 0 0 1 11.776-6.806588l3.373177-0.662589 3.463529-0.240941h158.117647z m-508.385882 95.563294c9.396706 9.426824 10.179765 24.244706 2.319059 34.575059l-2.349177 2.710588-113.091765 113.061647 41.743059 0.060236c13.432471 0 24.545882 10.029176 26.172236 23.04l0.180705 3.312941a26.352941 26.352941 0 0 1-23.04 26.142118l-3.312941 0.210823h-105.411764a26.413176 26.413176 0 0 1-8.372706-1.385412l-1.325177-0.481882a26.925176 26.925176 0 0 1-8.914823-5.872941l-0.602353-0.602353-0.481883-0.542118 0.481883 0.512-0.993883-1.114353-1.114353-1.385412a26.443294 26.443294 0 0 1-3.162353-5.782588l-0.481882-1.325176a26.473412 26.473412 0 0 1-1.385412-8.372706v-105.411765a26.352941 26.352941 0 0 1 52.525177-3.312941l0.180706 3.312941-0.030118 41.773177 113.182118-113.121883a26.352941 26.352941 0 0 1 37.255529 0zM572.235294 124.235294a26.232471 26.232471 0 0 1 18.642824 7.710118l0.240941 0.271059a26.503529 26.503529 0 0 1 1.505882 1.716705l-1.746823-1.987764a26.533647 26.533647 0 0 1 7.529411 15.36l0.180706 3.282823v105.411765a26.352941 26.352941 0 0 1-52.495059 3.312941l-0.210823-3.312941V214.166588l-113.121882 113.182118a26.352941 26.352941 0 0 1-39.634824-34.575059l2.349177-2.710588 113.121882-113.121883H466.823529a26.352941 26.352941 0 0 1-26.142117-23.04L440.470588 150.588235c0-13.432471 10.059294-24.515765 23.04-26.142117l3.312941-0.210824H572.235294z" fill="#568af2" /></svg>