<svg class="icon" style="width: 1em;height: 1em;vertical-align: middle;fill: currentColor;overflow: hidden;" viewBox="0 0 1024 1024" version="1.1" xmlns="http://www.w3.org/2000/svg" width="32" height="32"><path d="M198.445176 187.572706L198.776471 187.331765a26.503529 26.503529 0 0 1 5.180235-2.017883l0.993882-0.210823a22.196706 22.196706 0 0 1 2.349177-0.451765h0.180706l0.331294-0.060235a25.901176 25.901176 0 0 1 2.710588-0.180706L210.823529 184.470588h632.470589c13.432471 0 24.515765 10.059294 26.142117 23.04l0.210824 3.312941v632.470589a26.352941 26.352941 0 0 1-23.04 26.142117l-3.312941 0.210824H210.552471a25.901176 25.901176 0 0 1-2.710589-0.150588l2.981647 0.150588a26.593882 26.593882 0 0 1-6.294588-0.752941l-0.240941-0.060236a23.130353 23.130353 0 0 1-6.144-2.409411 26.864941 26.864941 0 0 1-8.944941-8.07153 26.021647 26.021647 0 0 1-4.517647-11.745882L184.470588 843.294118V210.823529a26.112 26.112 0 0 1 13.492706-23.009882l0.481882-0.240941zM535.401412 291.237647a26.352941 26.352941 0 0 1 17.769412 21.624471l0.240941 3.373176v421.647059a26.352941 26.352941 0 0 1-14.908236 23.732706l-3.102117 1.264941-162.213647 54.031059 443.753411 0.030117V237.176471H373.187765l162.213647 54.061176zM421.647059 465.558588a26.352941 26.352941 0 0 0-26.142118 23.070118l-0.210823 3.312941v70.264471l0.210823 3.312941a26.352941 26.352941 0 0 0 52.284235 0l0.210824-3.312941v-70.294589l-0.210824-3.312941a26.352941 26.352941 0 0 0-26.142117-23.04z" fill="#568af2" /></svg>