<svg class="icon" style="width: 1em;height: 1em;vertical-align: middle;fill: currentColor;overflow: hidden;" viewBox="0 0 1024 1024" version="1.1" xmlns="http://www.w3.org/2000/svg" width="32" height="32"><path d="M150.588235 839.529412a26.352941 26.352941 0 0 1-3.312941-52.495059l3.312941-0.210824h61.470118v-368.941176H150.588235c-25.6 0-35.629176-32.316235-16.263529-47.134118l2.710588-1.807059 351.352471-210.823529a26.352941 26.352941 0 0 1 23.913411-1.656471l3.222589 1.656471 351.382588 210.823529c21.955765 13.161412 13.914353 46.049882-10.330353 48.760471l-3.252706 0.180706h-61.500235v368.941176h61.500235a26.352941 26.352941 0 0 1 3.312941 52.495059l-3.312941 0.210824H150.588235z m237.146353-421.647059H264.764235v368.941176h122.970353v-368.941176z m175.676236 0h-122.970353v368.941176h122.970353v-368.941176z m175.706352 0h-123.00047v368.941176h123.00047v-368.941176z" fill="#568af2" /></svg>