<svg class="icon" style="width: 1em;height: 1em;vertical-align: middle;fill: currentColor;overflow: hidden;" viewBox="0 0 1024 1024" version="1.1" xmlns="http://www.w3.org/2000/svg" width="32" height="32"><path d="M747.911529 154.352941c32.436706 0 58.970353 25.088 61.31953 56.922353l0.180706 4.577882V813.176471c0 3.011765-0.210824 5.903059-0.602353 8.794353h44.513882a26.352941 26.352941 0 0 1 3.312941 52.495058l-3.312941 0.210824H150.588235a26.352941 26.352941 0 0 1-3.312941-52.525177l3.312941-0.180705h44.544a61.680941 61.680941 0 0 1-0.451764-4.216471L194.499765 813.176471v-210.82353c0-32.406588 25.088-58.970353 56.922353-61.319529l4.577882-0.180706h70.264471c3.011765 0 5.933176 0.210824 8.794353 0.63247V215.853176c0-32.436706 25.088-58.970353 56.922352-61.319529l4.577883-0.180706h351.35247z m-421.647058 439.205647H256a8.794353 8.794353 0 0 0-8.553412 6.776471L247.205647 602.352941v210.82353c0 4.156235 2.891294 7.649882 6.776471 8.553411l2.017882 0.240942h70.264471a8.794353 8.794353 0 0 0 8.553411-6.776471l0.240942-2.017882-0.030118-104.96-0.180706 2.861176a26.352941 26.352941 0 0 1-22.829176 22.829177l-3.312942 0.210823h-17.558588a26.352941 26.352941 0 0 1-3.312941-52.495059l3.312941-0.210823h17.558588c14.396235 0 26.081882 11.535059 26.352942 25.871059V602.352941a8.794353 8.794353 0 0 0-8.794353-8.794353zM677.647059 655.058824h-70.264471v70.26447H677.647059V655.058824z m0-122.970353h-70.264471V602.352941H677.647059v-70.26447z m-140.559059-123.000471H466.823529v70.294588h70.264471v-70.294588z m140.559059 0h-70.264471v70.294588H677.647059v-70.294588zM537.088 286.117647H466.823529v70.264471h70.264471V286.117647z m140.559059 0h-70.264471v70.264471H677.647059V286.117647z" fill="#568af2" /></svg>