<svg class="icon" style="width: 1em;height: 1em;vertical-align: middle;fill: currentColor;overflow: hidden;" viewBox="0 0 1024 1024" version="1.1" xmlns="http://www.w3.org/2000/svg" width="32" height="32"><path d="M426.104471 228.321882l-1.325177 2.800942-0.993882 3.011764-140.528941 527.058824-0.662589 3.252706a26.352941 26.352941 0 0 0 25.810824 29.906823H150.588235a26.352941 26.352941 0 0 1-24.395294-36.382117l1.475765-2.95153 298.465882-526.697412z m45.778823-0.903529l0.301177 0.542118 187.632941 331.113411 30.358588-50.597647a26.352941 26.352941 0 0 1 43.459765-2.590117l2.017882 3.072 140.559059 245.970823a26.352941 26.352941 0 0 1-19.576471 39.213177l-3.312941 0.210823H308.404706a26.383059 26.383059 0 0 0 24.576-16.112941l1.204706-3.463529 140.528941-527.058824 0.662588-3.222588a26.292706 26.292706 0 0 0-3.523765-17.106824z m240.308706 346.744471l-22.528 37.586823 73.577412 129.867294 44.66447 0.030118-95.713882-167.484235z" fill="#568af2" /></svg>