<svg class="icon" style="width: 1em;height: 1em;vertical-align: middle;fill: currentColor;overflow: hidden;" viewBox="0 0 1024 1024" version="1.1" xmlns="http://www.w3.org/2000/svg" width="32" height="32"><path d="M501.970824 124.235294c71.800471 0 141.703529 11.143529 207.058823 29.756235 22.889412 6.505412 43.580235 13.492706 61.801412 20.510118l2.349176 0.903529 2.228706 0.90353 11.264 4.577882 7.529412 3.312941c8.252235 3.855059 13.854118 11.655529 14.998588 20.510118l0.210824 3.373177v100.623058a26.352941 26.352941 0 0 1-23.04 26.142118l-3.312941 0.210824h-8.794353v386.499764h26.352941c13.432471 0 24.545882 10.059294 26.172235 23.070118l0.180706 3.312941v79.028706h26.352941a26.352941 26.352941 0 0 1 3.312941 52.525176l-3.312941 0.180706H150.588235a26.352941 26.352941 0 0 1-3.312941-52.495059l3.312941-0.210823h26.352941v-79.058824c0-13.432471 10.059294-24.515765 23.04-26.142117l3.312942-0.210824h26.352941V335.058824h-8.794353a26.352941 26.352941 0 0 1-26.142118-23.04l-0.210823-3.312942V208.112941c0-9.125647 4.698353-17.468235 12.227764-22.287059l2.981647-1.626353 7.529412-3.312941 15.841883-6.384941a725.323294 725.323294 0 0 1 61.831529-20.510118c65.355294-18.582588 135.228235-29.756235 207.058824-29.756235z m-149.353412 210.82353H282.352941v386.499764h70.264471V335.058824z m122.970353 0h-70.264471v386.499764h70.264471V335.058824z m123.00047 0h-70.294588v386.499764h70.294588V335.058824z m122.970353 0h-70.26447v386.499764h70.26447V335.058824z" fill="#568af2" /></svg>