<svg class="icon" style="width: 1em;height: 1em;vertical-align: middle;fill: currentColor;overflow: hidden;" viewBox="0 0 1024 1024" version="1.1" xmlns="http://www.w3.org/2000/svg" width="32" height="32"><path d="M150.588235 879.676235a26.352941 26.352941 0 0 1-3.312941-52.495059l3.312941-0.210823h96.617412V431.646118c0-7.348706 3.102118-14.336 8.432941-19.275294l2.831059-2.288942 164.412235-115.169882V150.588235a26.352941 26.352941 0 0 1 38.671059-23.311059l2.800941 1.716706 175.706353 123.000471a26.352941 26.352941 0 0 1 11.233883 21.564235v214.829177l111.947294 79.962353c5.933176 4.246588 9.788235 10.721882 10.782117 17.859764l0.240942 3.614118v237.116235l79.058823 0.030118a26.352941 26.352941 0 0 1 3.312941 52.525176l-3.312941 0.180706H150.588235z m272.293647-520.372706L299.911529 445.44v381.530353h122.970353V359.303529z" fill="#568af2" /></svg>