<svg class="icon" style="width: 1em;height: 1em;vertical-align: middle;fill: currentColor;overflow: hidden;" viewBox="0 0 1024 1024" version="1.1" xmlns="http://www.w3.org/2000/svg" width="32" height="32"><path d="M695.205647 299.911529a26.352941 26.352941 0 0 1 3.312941 52.525177l-3.312941 0.180706h-22.618353l40.869647 305.995294-0.090353-0.060235 4.397177 32.768 0.030117-0.090353 18.040471 135.740235h117.488941a26.352941 26.352941 0 0 1 3.312941 52.525176l-3.312941 0.180706H150.588235a26.352941 26.352941 0 0 1-3.312941-52.495059l3.312941-0.210823h117.458824l18.070588-135.740235 0.030118 0.030117 4.397176-32.707764-0.060235 0.060235L331.294118 352.617412h-22.588236a26.352941 26.352941 0 0 1-3.312941-52.495059l3.312941-0.210824h386.499765zM659.275294 651.294118H344.636235l-7.017411 52.705882h328.673882l-7.04753-52.705882z m-23.401412-175.706353h-267.776l-7.017411 52.705882h281.810823l-7.017412-52.705882z m-11.956706-343.642353A26.352941 26.352941 0 0 1 663.491765 166.550588l-2.349177 2.710588-14.546823 14.546824a96.647529 96.647529 0 0 1-61.952 28.099765l-6.384941 0.210823h-12.047059c-10.209882 0-20.028235 3.523765-27.828706 9.938824l-3.222588 2.921412-14.576942 14.546823a26.352941 26.352941 0 0 1-39.604705-34.575059l2.349176-2.710588 14.546824-14.546824a96.647529 96.647529 0 0 1 61.952-28.069647l6.384941-0.210823h12.047059c10.209882 0 20.028235-3.553882 27.828705-9.938824l3.222589-2.921411 14.576941-14.576942z" fill="#568af2" /></svg>