<svg class="icon" style="width: 1em;height: 1em;vertical-align: middle;fill: currentColor;overflow: hidden;" viewBox="0 0 1024 1024" version="1.1" xmlns="http://www.w3.org/2000/svg" width="32" height="32"><path d="M853.323294 264.794353c14.576941 0 26.352941 11.776 26.352941 26.352941v562.176a26.352941 26.352941 0 0 1-26.352941 26.352941H291.147294a26.352941 26.352941 0 0 1-26.352941-26.352941v-140.528941c0-14.576941 11.776-26.352941 26.352941-26.352941l114.176-0.030118V572.235294c0-13.432471 10.059294-24.515765 23.070118-26.142118l3.312941-0.210823h114.176v-114.206118c0-13.432471 10.059294-24.515765 23.04-26.142117l3.312941-0.210824h114.176V291.147294c0-13.432471 10.059294-24.545882 23.070118-26.172235l3.312941-0.180706zM143.902118 580.156235l-1.656471-0.481882a26.172235 26.172235 0 0 1-10.300235-6.384941l-0.421647-0.421647a26.503529 26.503529 0 0 1-1.385412-1.566118l1.807059 1.987765a26.563765 26.563765 0 0 1-7.529412-15.329883l-0.180706-3.312941v-105.411764a26.352941 26.352941 0 0 1 52.495059-3.312942l0.210823 3.312942v41.773176l113.121883-113.091765a26.352941 26.352941 0 0 1 39.634823 34.575059l-2.349176 2.710588-113.152 113.091765H256c13.432471 0 24.515765 10.059294 26.142118 23.070118l0.210823 3.312941a26.352941 26.352941 0 0 1-23.04 26.142118l-3.312941 0.210823H150.588235l-3.373176-0.210823a26.413176 26.413176 0 0 1-3.312941-0.662589zM554.676706 124.235294a26.232471 26.232471 0 0 1 18.612706 7.710118l0.481882 0.481882a26.503529 26.503529 0 0 1 1.264941 1.445647l-1.746823-1.927529a26.533647 26.533647 0 0 1 7.529412 15.36l0.210823 3.282823v105.411765a26.352941 26.352941 0 0 1-52.525176 3.312941l-0.180706-3.312941-0.030118-41.803294-113.121882 113.152A26.352941 26.352941 0 0 1 375.567059 292.743529l2.349176-2.710588 113.091765-113.121882h-41.743059a26.352941 26.352941 0 0 1-26.172235-23.04L422.912 150.588235c0-13.432471 10.029176-24.515765 23.04-26.142117l3.312941-0.210824h105.411765z" fill="#568af2" /></svg>