<svg class="icon" style="width: 1em;height: 1em;vertical-align: middle;fill: currentColor;overflow: hidden;" viewBox="0 0 1024 1024" version="1.1" xmlns="http://www.w3.org/2000/svg" width="32" height="32"><path d="M641.234824 751.676235v96.64753l0.210823 3.312941a26.352941 26.352941 0 0 0 26.172235 23.04h-281.118117a26.352941 26.352941 0 0 0 26.352941-26.352941v-96.64753h228.382118zM843.294118 154.352941c14.546824 0 26.352941 11.806118 26.352941 26.352941v667.617883a26.352941 26.352941 0 0 1-26.352941 26.352941h-175.676236a26.352941 26.352941 0 0 0 26.352942-26.352941l-0.030118-412.882824H737.882353a26.352941 26.352941 0 0 0 26.352941-26.352941v-105.411765a26.352941 26.352941 0 0 0-26.352941-26.352941h-421.647059a26.352941 26.352941 0 0 0-26.352941 26.352941v105.411765c0 14.576941 11.806118 26.352941 26.352941 26.352941h43.91153v412.882824l0.210823 3.312941a26.352941 26.352941 0 0 0 26.142118 23.04H210.823529a26.352941 26.352941 0 0 1-26.352941-26.352941V180.705882c0-14.546824 11.806118-26.352941 26.352941-26.352941z m-202.059294 491.91153v52.705882h-228.382118v-52.705882h228.382118z m0-105.411765v52.705882h-228.382118v-52.705882h228.382118z m0-105.411765v52.705883h-228.382118v-52.705883h228.382118z" fill="#568af2" /></svg>