<svg class="icon" style="width: 1em;height: 1em;vertical-align: middle;fill: currentColor;overflow: hidden;" viewBox="0 0 1024 1024" version="1.1" xmlns="http://www.w3.org/2000/svg" width="32" height="32"><path d="M180.705882 879.676235a26.352941 26.352941 0 0 1-26.142117-23.04l-0.210824-3.312941V466.823529c0-13.432471 10.059294-24.515765 23.04-26.142117l3.312941-0.210824h43.91153V338.823529c0-1.264941 0.090353-2.529882 0.301176-3.764705h-26.654117a43.941647 43.941647 0 0 1-43.700706-39.695059l-0.210824-4.216471V150.588235a26.352941 26.352941 0 0 1 52.495059-3.312941l0.210824 3.312941v26.352941h70.26447V150.588235a26.352941 26.352941 0 0 1 52.525177-3.312941l0.180705 3.312941v26.352941h70.264471V150.588235c0-13.432471 10.059294-24.515765 23.070118-26.142117l3.312941-0.210824c13.432471 0 24.515765 10.059294 26.142118 23.04l0.210823 3.312941v140.559059c0 22.829176-17.438118 41.562353-39.695059 43.700706l-4.21647 0.210824h-26.654118l0.090353 0.451764 0.180706 3.312941v101.647059h140.559059V308.705882a26.352941 26.352941 0 0 1 52.495058-3.312941l0.210824 3.312941v26.352942h87.823059v-26.352942a26.352941 26.352941 0 0 1 52.525176-3.312941l0.210824 3.312941-0.030118 26.352942h87.853177v-26.352942a26.352941 26.352941 0 0 1 52.525176-3.312941l0.180706 3.312941v544.617412a26.352941 26.352941 0 0 1-23.04 26.172235l-3.312941 0.180706H180.705882z m509.500236-228.382117a26.352941 26.352941 0 0 0-26.172236 23.04l-0.180706 3.312941-0.030117 149.323294h52.705882V677.647059l-0.180706-3.312941a26.352941 26.352941 0 0 0-26.142117-23.04z m-360.176942-158.117647H207.058824v333.793882h122.970352V493.176471z m193.264942 0h-140.559059v333.793882h140.559059V493.176471z m-192.993883-158.117647H277.082353l0.090353 0.451764 0.180706 3.312941v101.647059h52.705882V338.823529c0-1.264941 0.090353-2.529882 0.301177-3.764705z m70.595765-105.411765H207.058824v54.151529h193.837176V229.647059z" fill="#568af2" /></svg>