<svg class="icon" style="width: 1em;height: 1em;vertical-align: middle;fill: currentColor;overflow: hidden;" viewBox="0 0 1024 1024" version="1.1" xmlns="http://www.w3.org/2000/svg" width="32" height="32"><path d="M486.851765 189.229176a26.352941 26.352941 0 0 1 30.208 0l351.382588 245.970824a26.352941 26.352941 0 0 1 11.233882 21.594353V843.294118a26.352941 26.352941 0 0 1-26.352941 26.352941H150.588235A26.352941 26.352941 0 0 1 124.235294 843.294118V456.794353c0-8.613647 4.216471-16.655059 11.233882-21.594353z m15.088941 416.888471a166.881882 166.881882 0 0 0-118.000941 48.880941 26.352941 26.352941 0 1 0 37.255529 37.285647 114.176 114.176 0 0 1 161.520941 0 26.352941 26.352941 0 1 0 37.25553-37.285647 166.912 166.912 0 0 0-118.031059-48.880941z m0-140.559059a307.501176 307.501176 0 0 0-217.389177 90.051765 26.352941 26.352941 0 1 0 37.285647 37.285647 254.795294 254.795294 0 0 1 360.267295 0 26.352941 26.352941 0 0 0 37.255529-37.285647 307.501176 307.501176 0 0 0-217.389176-90.051765z" fill="#568af2" /></svg>