<svg class="icon" style="width: 1em;height: 1em;vertical-align: middle;fill: currentColor;overflow: hidden;" viewBox="0 0 1024 1024" version="1.1" xmlns="http://www.w3.org/2000/svg" width="32" height="32"><path d="M150.588235 852.088471a26.352941 26.352941 0 0 1-26.142117-23.070118l-0.210824-3.312941V685.176471c0-13.432471 10.059294-24.515765 23.04-26.142118l3.312941-0.210824h26.352941v-96.617411c0-13.432471 10.059294-24.545882 23.04-26.172236l3.312942-0.180706h26.352941v-79.058823c0-13.432471 10.059294-24.545882 23.04-26.172235l3.312941-0.180706h26.352941v-79.058824c0-13.432471 10.059294-24.545882 23.04-26.172235l3.312941-0.180706 96.617412-0.030118V210.823529c0-13.432471 10.059294-24.515765 23.070118-26.142117l3.312941-0.210824H572.235294c14.546824 0 26.352941 11.806118 26.352941 26.352941l-0.030117 114.176h96.677647c13.402353 0 24.515765 10.059294 26.142117 23.070118l0.180706 3.312941v79.058824l-104.749176-0.030118 11.685647 52.705882h66.710588a26.352941 26.352941 0 0 0 26.352941-26.322823v-26.352941h26.352941c13.432471 0 24.545882 10.029176 26.172236 23.04l0.180706 3.312941v79.058823l-134.053647-0.030117 11.715764 52.705882h95.984941a26.352941 26.352941 0 0 0 26.352942-26.322823v-26.352942h26.352941c13.432471 0 24.545882 10.029176 26.172235 23.04l0.180706 3.312942v96.617411l-159.412706-0.030117 11.715765 52.705882 121.374117 0.030118a26.352941 26.352941 0 0 0 26.322824-26.352941v-26.352942h26.352941c13.432471 0 24.545882 10.059294 26.172235 23.04l0.180706 3.312942v140.559058a26.352941 26.352941 0 0 1-23.04 26.142118l-3.312941 0.210824H150.588235z m26.352941-166.912c0 14.546824 11.806118 26.352941 26.352942 26.352941l121.344-0.030118 11.715764-52.705882H176.941176v26.383059z m436.585412-26.383059h-223.171764l-11.715765 52.705882h246.603294l-11.715765-52.705882zM229.647059 562.206118c0 14.546824 11.806118 26.352941 26.352941 26.352941l95.984941-0.030118 11.715765-52.705882H229.647059v26.383059z m356.562823-26.383059h-168.538353l-11.715764 52.705882h191.969882l-11.715765-52.705882zM282.352941 456.794353c0 14.546824 11.806118 26.352941 26.352941 26.352941l66.710589-0.030118 11.685647-52.705882H282.352941v26.383059z m280.425412-26.383059h-121.675294l-11.715765 52.705882h145.106824l-11.715765-52.705882z" fill="#568af2" /></svg>