<svg class="icon" style="width: 1em;height: 1em;vertical-align: middle;fill: currentColor;overflow: hidden;" viewBox="0 0 1024 1024" version="1.1" xmlns="http://www.w3.org/2000/svg" width="32" height="32"><path d="M150.588235 867.990588a26.352941 26.352941 0 0 1-26.142117-23.070117l-0.210824-3.312942v-193.234823c0-32.406588 25.088-58.970353 56.922353-61.31953l4.577882-0.180705H264.734118v-96.617412c0-6.625882 2.499765-12.890353 6.836706-17.679059l2.319058-2.258824 2.590118-1.987764 199.077647-132.728471V174.019765a26.352941 26.352941 0 0 1 2.800941-11.806118l0.301177-0.602353a26.322824 26.322824 0 0 1 0.210823-0.361412l-0.512 0.963765c2.921412-5.812706 8.101647-12.980706 16.173177-19.907765 28.792471-24.696471 70.656-25.690353 121.072941 5.692236l6.354823 4.096 5.601883 3.614117c31.021176 19.395765 47.887059 18.913882 58.277647 9.999059l1.445647-1.325176 1.024-1.084236 0.873412-1.084235c11.926588-23.823059 46.832941-16.685176 49.724235 8.432941l0.210823 3.373177v105.411764c0 4.096-0.963765 8.131765-2.800941 11.776a65.807059 65.807059 0 0 1-16.173176 19.937883c-28.792471 24.696471-70.656 25.660235-121.072941-5.722353l-6.324706-4.065883-5.632-3.614117c-30.991059-19.425882-47.887059-18.913882-58.277647-10.029177l-0.572236 0.481883v47.375059l199.107765 132.758588a26.352941 26.352941 0 0 1 11.535059 18.672941l0.210823 3.252706-0.030117 96.617412h79.088941c30.870588 0 56.410353 22.768941 60.837647 52.404705l0.481882 4.517648 0.150589 4.577882v158.117647a61.500235 61.500235 0 0 1-56.892236 61.319529l-4.577882 0.180706H150.588235z m421.647059-281.118117h-140.559059l-3.312941 0.210823a26.352941 26.352941 0 0 0-22.829176 22.829177l-0.210824 3.312941v202.029176h52.705882v-175.676235h87.853177l-0.030118 175.676235h52.705883l0.030117-202.029176-0.210823-3.312941a26.352941 26.352941 0 0 0-22.829177-22.829177l-3.312941-0.210823zM530.763294 180.826353l-1.897412 1.505882-0.572235 0.481883v48.24847l3.945412-0.662588c21.895529-3.312941 47.585882 2.409412 76.197647 18.703059l7.228235 4.306823 11.926588 7.710118c29.184 18.281412 45.869176 18.913882 56.380236 11.474824l1.897411-1.475765 0.542118-0.512V222.328471l-3.915294 0.722823c-21.895529 3.282824-47.585882-2.409412-76.197647-18.733176l-7.198118-4.276706-11.956706-7.740236c-29.153882-18.251294-45.839059-18.883765-56.380235-11.474823z" fill="#568af2" /></svg>