<svg class="icon" style="width: 1em;height: 1em;vertical-align: middle;fill: currentColor;overflow: hidden;" viewBox="0 0 1024 1024" version="1.1" xmlns="http://www.w3.org/2000/svg" width="32" height="32"><path d="M783.058824 124.235294c32.406588 0 58.970353 25.088 61.319529 56.922353l0.180706 4.577882-0.030118 641.234824h8.794353a26.352941 26.352941 0 0 1 3.312941 52.525176l-3.312941 0.180706H150.588235a26.352941 26.352941 0 0 1-3.312941-52.495059l3.312941-0.210823h8.764236V783.058824c0-54.814118 12.890353-106.616471 35.779764-152.545883a19.425882 19.425882 0 0 1-0.421647-2.258823l-0.210823-3.312942V220.852706a26.352941 26.352941 0 0 1 52.525176-3.312941l0.180706 3.312941v333.131294a344.064 344.064 0 0 1 87.853177-70.174118v-157.515294a26.352941 26.352941 0 0 1 52.495058-3.312941l0.210824 3.312941v133.662118a342.046118 342.046118 0 0 1 114.206118-19.486118c33.551059 0 65.987765 4.818824 96.647529 13.824l-0.030118-268.559059c0-32.436706 25.088-58.970353 56.922353-61.319529l4.577883-0.180706H783.058824z m-281.088 368.941177c34.575059 0 70.595765 65.355294 87.220705 160.37647l-6.505411-0.240941-6.384942-0.301176-26.624-0.933648-6.354823-0.180705-6.264471-0.150589-23.883294-0.391529h-22.437647l-5.782588 0.060235-5.903059 0.090353-24.816941 0.572235-6.475294 0.210824-6.625883 0.210824-26.413176 1.084235c16.112941-92.069647 50.416941-156.310588 83.998118-160.225883l3.252706-0.180705a289.490824 289.490824 0 0 0-94.057412 15.600941c-17.287529 29.665882-31.051294 67.644235-40.538353 111.104l-1.897412 9.155764-3.132235 16.865883-1.41553 8.643765-0.331294 1.957647-17.588706 1.14447c-11.866353 0.783059-23.943529 1.596235-36.141176 2.499765l-19.606588 1.475765-19.215059 1.505882-31.262118 2.650353a287.683765 287.683765 0 0 0-17.889882 54.512941l34.846117-3.102118 37.556706-3.011764 42.947765-3.132236 20.48-1.355294a710.776471 710.776471 0 0 0-1.867294 36.924236l-0.240941 18.883764v52.705883h52.705882v-52.705883l0.090353-9.637647c0.210824-16.865882 1.054118-33.310118 2.439529-49.182117l1.204706-0.060236 6.987294-0.301176 26.834824-1.144471 25.057882-0.752941 23.190589-0.361412h21.684705l5.601883 0.060236 5.722353 0.060235 24.154353 0.602353 25.961411 0.903529 21.805177 0.993883c1.234824 14.155294 2.048 28.792471 2.379294 43.730823l0.150588 15.058824v52.705882h52.705883v-52.705882l-0.060236-9.667765c-0.180706-15.661176-0.843294-31.021176-1.957647-46.08l21.744941 1.415529 22.166589 1.566118 19.425882 1.475765 9.577412 0.722823 9.456941 0.752941 36.442353 3.072 16.926118 1.505883a287.683765 287.683765 0 0 0-17.889883-54.452706l-12.559059-1.114353-37.918117-3.041882-19.606588-1.475765c-18.281412-1.325176-36.291765-2.56-53.820236-3.614118-8.975059-58.819765-25.238588-109.989647-47.194353-147.787294a289.370353 289.370353 0 0 0-77.613176-15.119059l-8.192-0.331294-8.252235-0.12047z m289.852235-140.559059h-140.528941v122.036706a344.094118 344.094118 0 0 1 140.559058 125.771294l-0.030117-247.808zM783.058824 176.941176h-122.970353a8.794353 8.794353 0 0 0-8.553412 6.776471l-0.240941 2.017882v114.176h140.528941V185.735529a8.794353 8.794353 0 0 0-6.746353-8.553411L783.058824 176.941176z" fill="#568af2" /></svg>