<svg class="icon" style="width: 1em;height: 1em;vertical-align: middle;fill: currentColor;overflow: hidden;" viewBox="0 0 1024 1024" version="1.1" xmlns="http://www.w3.org/2000/svg" width="32" height="32"><path d="M150.588235 862.117647a26.352941 26.352941 0 0 1-3.312941-52.495059l3.312941-0.210823h43.91153V168.146824c0-22.829176 17.438118-41.562353 39.695059-43.700706l4.21647-0.210824h351.382588c22.829176 0 41.592471 17.408 43.730824 39.695059l0.210823 4.216471-0.030117 143.209411 162.93647 97.731765c6.927059 4.156235 11.504941 11.233882 12.559059 19.154824l0.210824 3.433411v377.73553h43.911529a26.352941 26.352941 0 0 1 3.312941 52.495059l-3.312941 0.210823H150.588235z m483.117177-489.321412v436.61553h123.00047V446.614588l-123.00047-73.818353z" fill="#568af2" /></svg>