<svg class="icon" style="width: 1em;height: 1em;vertical-align: middle;fill: currentColor;overflow: hidden;" viewBox="0 0 1024 1024" version="1.1" xmlns="http://www.w3.org/2000/svg" width="32" height="32"><path d="M210.823529 879.676235a26.352941 26.352941 0 0 1-3.312941-52.495059l3.312941-0.210823h26.352942v-70.264471H210.823529a26.352941 26.352941 0 0 1-3.312941-52.495058l3.312941-0.210824h26.352942V264.764235H210.823529a26.352941 26.352941 0 0 1-3.312941-52.495059L210.823529 212.088471l26.352942-0.030118V150.588235a26.352941 26.352941 0 0 1 52.495058-3.312941l0.210824 3.312941v61.470118h474.352941V150.588235a26.352941 26.352941 0 0 1 52.495059-3.312941l0.210823 3.312941v61.470118H843.294118a26.352941 26.352941 0 0 1 3.312941 52.525176l-3.312941 0.210824-26.352942-0.030118v439.235765H843.294118a26.352941 26.352941 0 0 1 3.312941 52.495059l-3.312941 0.210823h-26.352942v70.264471H843.294118a26.352941 26.352941 0 0 1 3.312941 52.525176l-3.312941 0.180706H210.823529z m553.411765-122.970353H289.882353v70.264471h474.352941v-70.264471zM412.852706 264.764235h-52.705882v439.235765h52.705882V264.764235z m140.559059 0h-52.705883v439.235765h52.705883V264.764235z m140.528941 0h-52.705882v439.235765h52.705882V264.764235z" fill="#568af2" /></svg>