<svg class="icon" style="width: 1em;height: 1em;vertical-align: middle;fill: currentColor;overflow: hidden;" viewBox="0 0 1024 1024" version="1.1" xmlns="http://www.w3.org/2000/svg" width="32" height="32"><path d="M220.852706 874.676706a26.352941 26.352941 0 0 1-26.142118-23.070118l-0.210823-3.312941V488.176941H150.588235a26.352941 26.352941 0 0 1-25.479529-33.069176l1.024-3.072L196.367059 276.329412a26.352941 26.352941 0 0 1 20.931765-16.323765l3.523764-0.240941h114.176L335.058824 180.705882c0-13.432471 10.059294-24.515765 23.04-26.142117l3.312941-0.210824h281.088c13.432471 0 24.545882 10.059294 26.172235 23.04l0.180706 3.312941v79.058824H783.058824c9.577412 0 18.311529 5.180235 22.919529 13.372235l1.536 3.192471 70.294588 175.676235a26.352941 26.352941 0 0 1-21.263059 35.960471l-3.222588 0.180706h-43.941647l0.030118 360.176941a26.352941 26.352941 0 0 1-23.04 26.142117l-3.312941 0.210824H220.852706z m421.647059-298.676706H361.411765l-3.312941 0.210824a26.352941 26.352941 0 0 0-22.829177 22.829176l-0.210823 3.312941v219.587765h333.793882V602.352941l-0.180706-3.312941a26.352941 26.352941 0 0 0-22.859294-22.829176l-3.312941-0.210824z m-166.912 52.705882v193.234824h-87.823059v-193.234824h87.823059z m52.705882 0h87.853177v193.234824h-87.853177v-193.264941z m-193.264941-316.235294H238.682353l-49.182118 122.970353h145.528471v-122.970353z m430.170353 0h-96.346353v122.970353h145.52847l-49.182117-122.970353z m-263.228235-70.26447a26.352941 26.352941 0 0 0-26.172236 23.04l-0.180706 3.312941-0.030117 26.322823h-26.322824l-3.312941 0.210824a26.352941 26.352941 0 0 0 0 52.314353l3.312941 0.210823 26.322824-0.030117v26.383059l0.210823 3.312941a26.352941 26.352941 0 0 0 52.314353 0l0.210824-3.312941-0.030118-26.383059h26.383059l3.312941-0.180706a26.352941 26.352941 0 0 0 0-52.314353l-3.312941-0.180706-26.383059-0.030118v-26.322823l-0.180706-3.312941a26.352941 26.352941 0 0 0-26.142117-23.04z" fill="#568af2" /></svg>