<svg class="icon" style="width: 1em;height: 1em;vertical-align: middle;fill: currentColor;overflow: hidden;" viewBox="0 0 1024 1024" version="1.1" xmlns="http://www.w3.org/2000/svg" width="32" height="32"><path d="M848.323765 133.029647a26.352941 26.352941 0 0 1 3.312941 52.495059l-3.312941 0.210823h-26.383059v52.705883h26.383059c13.432471 0 24.515765 10.029176 26.142117 23.04l0.210824 3.312941v52.705882c0 34.424471-21.985882 63.698824-52.705882 74.541177v470.076235a26.352941 26.352941 0 0 1-23.070118 26.142118l-3.312941 0.210823h-175.676236a26.352941 26.352941 0 0 1-26.142117-23.04l-0.210824-3.312941v-263.529412a79.058824 79.058824 0 0 0-157.967059-4.999529l-0.150588 4.999529v263.529412a26.352941 26.352941 0 0 1-23.04 26.142118l-3.312941 0.210823H233.411765a26.352941 26.352941 0 0 1-26.142118-23.04l-0.210823-3.312941V392.041412a79.119059 79.119059 0 0 1-52.495059-68.879059l-0.210824-5.662118v-52.705882c0-13.432471 10.059294-24.545882 23.04-26.172235L180.705882 238.441412h26.352942v-52.705883H180.705882a26.352941 26.352941 0 0 1-3.312941-52.525176L180.705882 133.029647h667.617883z m-79.088941 52.705882H259.764706v52.705883h509.470118v-52.705883z" fill="#568af2" /></svg>