<svg class="icon" style="width: 1em;height: 1em;vertical-align: middle;fill: currentColor;overflow: hidden;" viewBox="0 0 1024 1024" version="1.1" xmlns="http://www.w3.org/2000/svg" width="32" height="32"><path d="M501.970824 335.058824c-61.891765 0-139.806118 12.679529-226.69553 33.972705-23.190588 5.692235-45.929412 11.745882-67.824941 17.92l-29.184 8.493177-13.763765 4.186353-22.166588 7.017412a26.352941 26.352941 0 0 0-18.100706 25.027764V677.647059c0 14.546824 11.806118 26.352941 26.352941 26.352941h140.559059a26.352941 26.352941 0 0 0 26.352941-26.352941 184.470588 184.470588 0 0 1 368.941177 0c0 14.546824 11.776 26.352941 26.352941 26.352941h140.528941a26.352941 26.352941 0 0 0 26.352941-26.352941v-245.970824a26.413176 26.413176 0 0 0-18.281411-25.088l-18.432-5.872941-21.052236-6.384941-7.890823-2.319059a1996.890353 1996.890353 0 0 0-89.328941-23.943529c-85.383529-20.720941-161.852235-33.008941-222.72-33.008941z" fill="#568af2" /></svg>