<svg class="icon" style="width: 1em;height: 1em;vertical-align: middle;fill: currentColor;overflow: hidden;" viewBox="0 0 1024 1024" version="1.1" xmlns="http://www.w3.org/2000/svg" width="32" height="32"><path d="M150.588235 839.529412a26.352941 26.352941 0 0 1-26.142117-23.04L124.235294 813.176471V409.088c0-7.800471 3.463529-15.149176 9.336471-20.118588l2.650353-1.957647L487.604706 158.599529a26.352941 26.352941 0 0 1 25.328941-1.837176l3.403294 1.837176L867.689412 387.011765c6.535529 4.216471 10.842353 11.143529 11.776 18.763294l0.210823 3.312941V813.176471a26.352941 26.352941 0 0 1-23.04 26.142117l-3.312941 0.210824H150.588235z m270.095059-419.237647l-2.951529 1.596235-140.559059 87.853176-2.740706 1.957648a26.352941 26.352941 0 0 0-9.426824 17.01647l-0.210823 3.373177-0.030118 254.735058h52.705883v-240.158117l87.853176-54.904471v295.062588h52.705882V444.235294l-0.210823-3.373176a26.383059 26.383059 0 0 0-37.135059-20.600471z m125.409882 20.570353l-0.210823 3.373176v342.588235h52.705882l-0.030117-295.092705 87.853176 54.934588v240.158117h52.705882v-254.735058l-0.210823-3.373177a26.352941 26.352941 0 0 0-9.396706-17.01647l-2.770823-1.957648-140.528942-87.853176-2.981647-1.626353a26.383059 26.383059 0 0 0-37.135059 20.600471z" fill="#568af2" /></svg>