<svg class="icon" style="width: 1em;height: 1em;vertical-align: middle;fill: currentColor;overflow: hidden;" viewBox="0 0 1024 1024" version="1.1" xmlns="http://www.w3.org/2000/svg" width="32" height="32"><path d="M883.440941 193.264941a26.352941 26.352941 0 0 1 3.312941 52.495059l-3.312941 0.210824-8.794353-0.030118V790.588235h8.794353a26.352941 26.352941 0 0 1 3.312941 52.495059l-3.312941 0.210824H532.088471a26.352941 26.352941 0 0 0 26.352941-26.352942V219.617882l-0.210824-3.312941a26.352941 26.352941 0 0 0-52.495059 3.312941v597.323294l0.180706 3.312942a26.352941 26.352941 0 0 0 26.172236 23.04H180.705882a26.352941 26.352941 0 0 1-3.312941-52.495059L180.705882 790.588235h8.764236V245.940706H180.705882l-3.764706-0.180706c-30.117647-3.493647-30.117647-48.790588 0-52.284235L180.705882 193.264941h702.735059zM373.970824 421.647059a26.352941 26.352941 0 0 0-26.352942 26.352941l-0.030117 76.920471-7.710118-7.710118-2.710588-2.349177a26.352941 26.352941 0 0 0-34.544941 39.604706l52.705882 52.705883 0.451765 0.451764a26.503529 26.503529 0 0 0 1.566117 1.385412l0.692706 0.542118a26.352941 26.352941 0 0 0 8.884706 4.397176l0.421647 0.120471c2.108235 0.542118 4.306824 0.843294 6.625883 0.843294l-1.807059-0.060235a26.503529 26.503529 0 0 0 17.287529-4.969412l0.451765-0.331294 0.692706-0.542118a26.503529 26.503529 0 0 0 1.566117-1.385412l0.421647-0.451764 52.705883-52.705883 2.379294-2.710588a26.352941 26.352941 0 0 0-39.634824-34.544941l-7.740235 7.710118v-76.920471l-0.180706-3.312941a26.352941 26.352941 0 0 0-26.142117-23.04z m322.921411 0.843294a26.473412 26.473412 0 0 0-17.468235 1.445647l-1.626353 0.813176-0.602353 0.301177a26.172235 26.172235 0 0 0-2.499765 1.626353l-0.421647 0.331294-0.783058 0.602353a26.503529 26.503529 0 0 0-1.295059 1.144471l-0.632471 0.602352-52.705882 52.705883-2.349177 2.710588a26.352941 26.352941 0 0 0 2.349177 34.575059l2.710588 2.349176a26.352941 26.352941 0 0 0 34.544941-2.349176l7.710118-7.710118v76.920471l0.210823 3.312941a26.352941 26.352941 0 0 0 52.525177-3.312941l-0.030118-76.920471 7.740235 7.710118 2.710589 2.349176a26.352941 26.352941 0 0 0 34.544941-39.634823l-52.705882-52.705883-0.602353-0.602352a26.503529 26.503529 0 0 0-1.295059-1.144471l-0.783059-0.602353a26.352941 26.352941 0 0 0-7.529412-4.005647z" fill="#568af2" /></svg>