<svg class="icon" style="width: 1em;height: 1em;vertical-align: middle;fill: currentColor;overflow: hidden;" viewBox="0 0 1024 1024" version="1.1" xmlns="http://www.w3.org/2000/svg" width="32" height="32"><path d="M909.613176 237.628235l0.180706 3.312941v544.617412a26.352941 26.352941 0 0 1-23.04 26.172236l-3.312941 0.180705H180.705882a26.352941 26.352941 0 0 1-26.142117-23.04l-0.210824-3.312941V240.941176c0-13.432471 10.059294-24.515765 23.04-26.142117L180.705882 214.588235h140.559059c13.432471 0 24.515765 10.059294 26.142118 23.04l0.210823 3.312941-0.030117 96.617412h87.853176V240.941176c0-12.318118 8.432941-22.648471 19.877647-25.539764l3.192471-0.602353 3.312941-0.210824H602.352941c13.432471 0 24.515765 10.059294 26.142118 23.04l0.210823 3.312941v96.617412h87.823059V240.941176c0-12.318118 8.463059-22.648471 19.877647-25.539764l3.192471-0.602353 3.312941-0.210824h140.528941c13.432471 0 24.545882 10.059294 26.172235 23.04z m-210.642823 152.636236h-52.705882v87.853176h-228.382118v-87.853176h-52.705882v87.853176h-158.117647v52.705882h298.646588v87.823059H207.058824v52.705883h158.117647v87.853176h52.705882v-87.853176h228.382118v87.853176h52.705882v-87.853176h158.117647v-52.705883h-298.676706v-87.823059h298.676706v-52.705882h-158.117647v-87.853176z" fill="#568af2" /></svg>