<svg class="icon" style="width: 1em;height: 1em;vertical-align: middle;fill: currentColor;overflow: hidden;" viewBox="0 0 1024 1024" version="1.1" xmlns="http://www.w3.org/2000/svg" width="32" height="32"><path d="M543.021176 129.596235l2.680471 2.349177 140.528941 140.559059a26.352941 26.352941 0 0 1-34.544941 39.634823l-2.710588-2.379294-17.167059-17.136941-20.48 112.700235h38.701176a26.352941 26.352941 0 0 1 3.312942 52.525177l-3.312942 0.180705h-5.300705l13.884235 110.893177 17.52847 140.318118 0.060236 0.481882 3.644235 29.184 10.992941 88.064H843.294118a26.352941 26.352941 0 0 1 3.312941 52.525176l-3.312941 0.180706H210.823529a26.352941 26.352941 0 0 1-3.312941-52.495059l3.312941-0.210823h152.425412l14.637177-117.278118v0.240941l0.090353-0.933647 17.468235-139.745882 0.843294-6.565647 13.071059-104.658824h-5.270588a26.352941 26.352941 0 0 1-3.312942-52.495058l3.312942-0.210824H442.729412l-20.48-112.700235-17.136941 17.167059a26.352941 26.352941 0 0 1-39.634824-34.575059l2.379294-2.710588L508.385882 131.915294a26.352941 26.352941 0 0 1 34.575059-2.349176z m77.161412 556.815059h-186.277647l-6.565647 52.705882h199.408941l-6.565647-52.705882z m-17.588706-140.528941h-151.100235l-6.595765 52.705882h164.291765l-6.595765-52.705882z m168.779294-152.756706l2.710589 2.349177 52.705882 52.705882a26.352941 26.352941 0 0 1-34.575059 39.634823l-2.710588-2.349176-52.705882-52.705882a26.352941 26.352941 0 0 1 34.575058-39.634824z m-454.083764 2.349177c9.456941 9.456941 10.24 24.244706 2.379294 34.575058l-2.379294 2.710589-52.705883 52.705882A26.352941 26.352941 0 0 1 224.978824 450.861176l2.349176-2.710588 52.705882-52.705882a26.352941 26.352941 0 0 1 37.25553 0zM527.058824 187.843765l-59.452236 59.452235 28.732236 158.027294h61.409882l28.732235-158.027294L527.058824 187.843765zM843.294118 282.352941a26.352941 26.352941 0 0 1 3.312941 52.495059l-3.312941 0.210824h-70.264471a26.352941 26.352941 0 0 1-3.312941-52.495059l3.312941-0.210824H843.294118z m-562.206118 0a26.352941 26.352941 0 0 1 3.312941 52.495059l-3.312941 0.210824H210.823529a26.352941 26.352941 0 0 1-3.312941-52.495059L210.823529 282.352941h70.264471z m545.731765-150.407529c9.396706 9.456941 10.179765 24.244706 2.319059 34.575059l-2.349177 2.710588-52.705882 52.705882a26.352941 26.352941 0 0 1-39.634824-34.575059l2.379294-2.710588 52.705883-52.705882a26.352941 26.352941 0 0 1 37.255529 0zM261.872941 129.596235l2.710588 2.349177 52.705883 52.705882a26.352941 26.352941 0 0 1-34.575059 39.634824l-2.710588-2.349177-52.705883-52.705882a26.352941 26.352941 0 0 1 34.575059-39.634824z" fill="#568af2" /></svg>