<svg class="icon" style="width: 1em;height: 1em;vertical-align: middle;fill: currentColor;overflow: hidden;" viewBox="0 0 1024 1024" version="1.1" xmlns="http://www.w3.org/2000/svg" width="32" height="32"><path d="M485.496471 130.017882a26.352941 26.352941 0 0 1 32.918588 0L869.797647 411.105882a26.352941 26.352941 0 0 1 9.878588 20.570353v421.647059a26.352941 26.352941 0 0 1-26.352941 26.352941h-210.823529a26.352941 26.352941 0 0 1-26.352941-26.352941v-289.882353h-228.382118v289.882353a26.352941 26.352941 0 0 1-23.04 26.172235l-3.312941 0.180706H150.588235a26.352941 26.352941 0 0 1-26.352941-26.352941v-421.647059c0-7.981176 3.614118-15.570824 9.878588-20.570353z m16.474353 521.276236c13.432471 0 24.515765 10.059294 26.142117 23.04l0.210824 3.312941v175.676235a26.352941 26.352941 0 0 1-52.525177 3.312941l-0.180706-3.312941V677.647059c0-14.546824 11.776-26.352941 26.352942-26.352941z" fill="#568af2" /></svg>