<svg class="icon" style="width: 1em;height: 1em;vertical-align: middle;fill: currentColor;overflow: hidden;" viewBox="0 0 1024 1024" version="1.1" xmlns="http://www.w3.org/2000/svg" width="32" height="32"><path d="M150.588235 879.676235a26.352941 26.352941 0 0 1-26.142117-23.04l-0.210824-3.312941v-158.117647c0-6.324706 2.288941-12.408471 6.324706-17.167059l2.680471-2.650353 131.523764-115.109647v-128.602353c0-5.812706 1.957647-11.444706 5.451294-16.022588l2.288942-2.590118 132.818823-132.879058v-59.331765c0-5.812706 1.927529-11.444706 5.421177-16.022588l2.319058-2.590118 70.264471-70.294588a26.352941 26.352941 0 0 1 34.575059-2.349177l2.710588 2.349177 70.264471 70.294588a26.352941 26.352941 0 0 1 7.469176 15.149176l0.240941 3.46353-0.030117 59.331765 132.848941 132.879058a26.352941 26.352941 0 0 1 7.529412 15.149177l0.210823 3.463529-0.030118 127.969883 130.831059 106.315294a26.352941 26.352941 0 0 1 9.517177 17.106823l0.210823 3.373177v166.881882a26.352941 26.352941 0 0 1-23.04 26.172235l-3.312941 0.180706H150.588235z m254.735059-524.92047l-87.853176 87.853176v384.361412h87.853176V354.755765z m281.088 87.853176l-87.853176-87.883294v472.244706h87.853176V442.608941z m-421.647059 187.693177l-87.823059 76.830117v119.838118h87.823059v-196.668235z m474.352941-2.710589v199.378824h87.853177v-128l-87.853177-71.378824z" fill="#568af2" /></svg>