<svg class="icon" style="width: 1em;height: 1em;vertical-align: middle;fill: currentColor;overflow: hidden;" viewBox="0 0 1024 1024" version="1.1" xmlns="http://www.w3.org/2000/svg" width="32" height="32"><path d="M853.323294 133.029647a26.352941 26.352941 0 0 1 3.312941 52.495059l-3.312941 0.210823H150.588235a26.352941 26.352941 0 0 1-3.312941-52.525176L150.588235 133.029647h702.735059z" fill="#568af2" /><path d="M747.911529 133.029647c33.972706 0 61.500235 27.527529 61.500236 61.470118v632.470588a61.500235 61.500235 0 0 1-61.500236 61.500235H572.235294l3.312941-0.210823a26.352941 26.352941 0 0 0 23.04-26.142118V677.647059h8.794353l3.824941-0.180706c23.973647-2.078118 42.797176-23.582118 37.948236-48.670118-12.378353-63.488-74.842353-109.266824-147.184941-109.266823-72.372706 0-134.836706 45.778824-147.184942 109.266823-5.12 26.413176 15.962353 48.850824 41.773177 48.850824h8.734117l0.030118 184.470588 0.210824 3.312941a26.352941 26.352941 0 0 0 26.142117 23.04H256a61.500235 61.500235 0 0 1-61.500235-61.500235v-632.470588c0-33.942588 27.527529-61.470118 61.500235-61.470118zM545.882353 677.647059v158.117647h-87.853177V677.647059h87.853177z m-135.017412-52.705883l1.897412-4.005647C427.369412 592.504471 461.703529 572.235294 501.970824 572.235294l5.993411 0.150588c37.647059 1.897412 69.360941 21.564235 83.184941 48.549647l1.867295 4.005647h-182.15153z m-31.894588-245.970823h-35.117177l-3.312941 0.210823a26.352941 26.352941 0 0 0 3.312941 52.495059h35.117177l3.312941-0.180706a26.352941 26.352941 0 0 0-3.312941-52.525176z m140.559059 0h-35.147294l-3.312942 0.210823a26.352941 26.352941 0 0 0 3.312942 52.495059h35.147294l3.312941-0.180706a26.352941 26.352941 0 0 0-3.312941-52.525176z m140.559059 0H624.941176l-3.312941 0.210823a26.352941 26.352941 0 0 0 3.312941 52.495059h35.147295l3.312941-0.180706a26.352941 26.352941 0 0 0-3.312941-52.525176z m-281.118118-105.411765h-35.117177l-3.312941 0.210824a26.352941 26.352941 0 0 0 3.312941 52.495059h35.117177l3.312941-0.180706a26.352941 26.352941 0 0 0-3.312941-52.525177z m140.559059 0h-35.147294l-3.312942 0.210824a26.352941 26.352941 0 0 0 3.312942 52.495059h35.147294l3.312941-0.180706a26.352941 26.352941 0 0 0-3.312941-52.525177z m140.559059 0H624.941176l-3.312941 0.210824a26.352941 26.352941 0 0 0 3.312941 52.495059h35.147295l3.312941-0.180706a26.352941 26.352941 0 0 0-3.312941-52.525177z" fill="#568af2" /><path d="M853.323294 835.764706a26.352941 26.352941 0 0 1 3.312941 52.495059l-3.312941 0.210823H150.588235a26.352941 26.352941 0 0 1-3.312941-52.495059L150.588235 835.764706h702.735059z" fill="#568af2" /></svg>