<svg class="icon" style="width: 1em;height: 1em;vertical-align: middle;fill: currentColor;overflow: hidden;" viewBox="0 0 1024 1024" version="1.1" xmlns="http://www.w3.org/2000/svg" width="32" height="32"><path d="M526.607059 147.275294l0.210823 3.312941-0.030117 43.91153h286.418823c13.402353 0 24.485647 10.059294 26.112 23.070117l0.210824 3.312942V783.058824a26.352941 26.352941 0 0 1-23.04 26.142117l-3.312941 0.210824h-286.388706v43.911529c0 15.721412-13.552941 27.678118-28.732236 26.262588l-3.252705-0.512-319.759059-70.26447a26.352941 26.352941 0 0 1-20.48-22.40753L154.352941 783.058824V220.852706c0-11.233882 7.107765-21.112471 17.468235-24.816941l3.222589-0.90353L494.832941 124.837647a26.352941 26.352941 0 0 1 31.804235 22.437647z m0.180706 609.430588h260.035764V247.205647h-260.035764v509.500235zM391.529412 440.470588a26.352941 26.352941 0 0 0-26.142118 23.04l-0.210823 3.312941v70.264471l0.210823 3.312941a26.352941 26.352941 0 0 0 52.284235 0l0.210824-3.312941V466.823529l-0.210824-3.312941a26.352941 26.352941 0 0 0-26.142117-23.04z" fill="#568af2" /></svg>