<svg class="icon" style="width: 1em;height: 1em;vertical-align: middle;fill: currentColor;overflow: hidden;" viewBox="0 0 1024 1024" version="1.1" xmlns="http://www.w3.org/2000/svg" width="32" height="32"><path d="M210.823529 879.676235a26.352941 26.352941 0 0 1-26.352941-26.352941v-632.470588c0-5.692235 1.837176-11.233882 5.270588-15.811765l52.705883-70.26447a26.352941 26.352941 0 0 1 42.164706 0l52.705882 70.26447a26.352941 26.352941 0 0 1 5.270588 15.811765v221.515294l149.172706-135.589647a26.352941 26.352941 0 0 1 32.587294-2.258824l2.861177 2.258824 149.172706 135.619765V220.852706c0-4.547765 1.204706-9.035294 3.433411-12.950588l1.837177-2.861177 52.705882-70.26447a26.352941 26.352941 0 0 1 42.164706 0l52.705882 70.26447a26.352941 26.352941 0 0 1 5.270589 15.811765v632.470588a26.352941 26.352941 0 0 1-26.352941 26.352941z m298.676706-386.499764a26.352941 26.352941 0 0 0-26.172235 23.04l-0.180706 3.312941-0.030118 43.911529h-43.911529l-3.312941 0.210824a26.352941 26.352941 0 0 0 0 52.314353l3.312941 0.180706h43.911529v79.058823l0.210824 3.312941a26.352941 26.352941 0 0 0 52.314353 0l0.210823-3.312941-0.030117-79.058823h43.941647l3.312941-0.180706a26.352941 26.352941 0 0 0 0-52.314353l-3.312941-0.210824h-43.941647V519.529412l-0.180706-3.312941a26.352941 26.352941 0 0 0-26.142118-23.04z" fill="#568af2" /></svg>