<svg class="icon" style="width: 1em;height: 1em;vertical-align: middle;fill: currentColor;overflow: hidden;" viewBox="0 0 1024 1024" version="1.1" xmlns="http://www.w3.org/2000/svg" width="32" height="32"><path d="M430.441412 150.588235a26.352941 26.352941 0 0 1 33.28-25.419294l386.499764 105.411765c11.444706 3.132235 19.425882 13.552941 19.425883 25.419294v491.911529c0 11.896471-7.951059 22.287059-19.425883 25.449412l-386.499764 105.411765a26.352941 26.352941 0 0 1-33.28-25.449412z m166.881882 289.882353a26.352941 26.352941 0 0 0-26.352941 26.352941v70.264471l0.210823 3.312941a26.352941 26.352941 0 0 0 52.495059-3.312941V466.823529l-0.180706-3.312941a26.352941 26.352941 0 0 0-26.172235-23.04z" fill="#568af2" /><path d="M456.794353 229.647059c14.546824 0 26.352941 11.806118 26.352941 26.352941v491.911529a26.352941 26.352941 0 0 1-26.352941 26.352942H210.823529a26.352941 26.352941 0 0 1-26.352941-26.352942V256c0-14.546824 11.806118-26.352941 26.352941-26.352941z m-26.383059 52.705882H237.176471v439.205647h193.234823V282.352941z" fill="#568af2" /></svg>