<svg class="icon" style="width: 1em;height: 1em;vertical-align: middle;fill: currentColor;overflow: hidden;" viewBox="0 0 1024 1024" version="1.1" xmlns="http://www.w3.org/2000/svg" width="32" height="32"><path d="M180.705882 879.676235a26.352941 26.352941 0 0 1-3.312941-52.495059l3.312941-0.210823h192.963765l-2.650353-9.306353a1570.093176 1570.093176 0 0 1-15.570823-60.506353 1200.308706 1200.308706 0 0 1-22.889412-123.060706c-6.625882-52.284235-7.830588-98.093176-2.258824-135.951059a328.372706 328.372706 0 0 1 9.577412-43.821176 420.231529 420.231529 0 0 1 7.830588-24.696471c2.319059-6.656 4.879059-13.552941 7.619765-20.48 16.052706-40.749176 38.309647-83.666824 65.174588-127.638588a1288.523294 1288.523294 0 0 1 49.754353-75.113412l12.769883-17.618823 10.782117-14.456471 9.848471-12.769882 2.048-2.620235V150.588235a26.352941 26.352941 0 0 1 52.525176-3.312941l0.210824 3.312941-0.030118 8.402824 11.926588 15.36 10.782118 14.426353c21.293176 28.912941 42.586353 60.175059 62.494118 92.762353 26.895059 43.941647 49.152 86.859294 65.204706 127.60847l2.740705 7.107765-0.090353-0.120471 1.807059 4.758589c1.144471 3.011765 2.228706 6.053647 3.282824 9.065411l-0.090353-0.271058a457.336471 457.336471 0 0 1 11.625412 39.213176c2.409412 9.968941 4.336941 19.727059 5.722353 29.214118 5.571765 37.888 4.397176 83.727059-2.258824 135.981176a1200.338824 1200.338824 0 0 1-22.889412 123.060706c-4.969412 21.082353-10.24 41.411765-15.570823 60.506353l-2.650353 9.306353h192.993882a26.352941 26.352941 0 0 1 3.312941 52.525176l-3.312941 0.180706H180.705882z m482.002824-158.117647h-261.300706a1422.336 1422.336 0 0 0 12.559059 52.705883h236.212706a1512.086588 1512.086588 0 0 0 12.528941-52.705883z m17.92-105.411764h-297.140706l1.355294 11.294117c1.716706 13.492706 3.824941 27.316706 6.234353 41.381647h281.991529c2.409412-14.064941 4.517647-27.888941 6.204236-41.381647l1.355294-11.294117z m1.716706-105.411765h-300.544l-0.421647 3.312941a360.839529 360.839529 0 0 0-1.746824 49.392941h304.850824c0.512-19.365647-0.150588-37.044706-2.108236-52.705882z m-32.286118-105.411765H414.117647c-3.493647 7.830588-6.746353 15.540706-9.728 23.160471-4.005647 10.119529-7.529412 19.998118-10.541176 29.575529h276.510117c-3.011765-9.577412-6.535529-19.456-10.541176-29.575529-3.011765-7.619765-6.234353-15.329882-9.728-23.130353z m-57.103059-105.411765l-121.825882-0.030117c-1.897412 3.011765-3.764706 6.083765-5.632 9.125647-9.035294 14.727529-17.468235 29.274353-25.238588 43.64047h183.627294c-7.800471-14.336-16.233412-28.912941-25.238588-43.64047l-5.692236-9.09553z" fill="#568af2" /></svg>