<svg class="icon" style="width: 1em;height: 1em;vertical-align: middle;fill: currentColor;overflow: hidden;" viewBox="0 0 1024 1024" version="1.1" xmlns="http://www.w3.org/2000/svg" width="32" height="32"><path d="M507.723294 128.481882a26.352941 26.352941 0 0 1 28.611765 0l9.938823 6.324706 20.540236 12.649412a1249.701647 1249.701647 0 0 0 40.658823 23.552l6.806588 3.704471 12.769883 6.625882c4.035765 2.048 7.860706 3.915294 11.444706 5.541647l16.655058 7.318588 17.408 7.288471a26.352941 26.352941 0 0 1 6.02353 45.327059l-10.179765 7.559529-8.854588 6.234353-3.915294 2.56a110.110118 110.110118 0 0 1-6.324706 3.734588c-2.770824 1.505882-5.782588 3.011765-9.035294 4.577883l-4.638118 2.16847-8.764235 3.885177-7.348706 3.011764a26.352941 26.352941 0 0 1-9.637647 1.807059h-8.794353v52.705883h26.352941c6.204235 0 12.167529 2.168471 16.865883 6.083764l2.650352 2.56 6.324706 6.595765 9.517177 9.276235c4.909176 4.577882 9.968941 9.095529 15.149176 13.372236 9.697882 8.011294 18.974118 14.576941 27.316706 19.154823 3.734588 2.048 7.168 3.644235 10.24 4.788706a114.447059 114.447059 0 0 0 18.160941 4.517647c5.12 0.903529 10.541176 1.686588 16.112942 2.319059l8.372705 0.843294 14.305883 1.114353c22.166588 3.553882 29.786353 32.316235 12.288 46.381176l-2.800941 1.987765-7.258353 4.397177-9.125647 5.270588-7.981177 4.397176-7.529412 3.885177a173.116235 173.116235 0 0 1-29.726117 11.535059c-5.089882 1.566118-10.360471 3.041882-15.691294 4.457411l-8.041412 2.048-10.872471 2.529883-5.571764 0.602353h-43.91153v52.705882h8.794353c5.872941 0 11.565176 1.957647 16.173177 5.541647l2.620235 2.349176 6.836706 6.565648 10.420706 9.246117c5.360941 4.608 10.962824 9.095529 16.685176 13.402353 12.288 9.155765 24.094118 16.444235 34.635294 21.112471 2.951529 1.325176 5.782588 2.409412 8.463059 3.252706 5.541647 1.807059 13.040941 3.403294 21.805176 4.788705 6.023529 0.903529 12.348235 1.716706 18.82353 2.349177l9.788235 0.903529 12.890353 0.783059c25.569882 0.993882 34.334118 33.611294 14.456471 47.676235l-2.861177 1.807059-15.721412 8.161883-11.836235 5.722353-8.432941 3.824941a168.267294 168.267294 0 0 1-19.576471 7.228235l-5.662117 1.686588-12.498824 3.222589c-5.872941 1.415529-11.986824 2.770824-18.160941 4.035764l-9.306353 1.807059-12.528941 2.288941-4.306824 0.361412h-8.794353v149.323294a26.352941 26.352941 0 0 1-23.04 26.172235l-3.312941 0.180706h-281.088a26.352941 26.352941 0 0 1-26.172235-23.04l-0.180706-3.312941-0.030118-149.323294H346.352941l-4.306823-0.361412-21.865412-4.096-9.185882-1.957647-8.944942-2.078117-12.528941-3.222589a191.939765 191.939765 0 0 1-25.20847-8.914823l-5.210353-2.319059-3.222589-1.505882-11.836235-5.722353-8.402823-4.276706-7.318589-3.915294c-22.467765-12.257882-15.811765-45.357176 8.222118-49.121883l3.373176-0.331294 6.505412-0.361412 16.143059-1.325176c6.475294-0.632471 12.830118-1.415529 18.823529-2.349177 8.794353-1.385412 16.263529-3.011765 21.835295-4.788705 2.650353-0.843294 5.481412-1.927529 8.463058-3.252706 10.541176-4.668235 22.347294-11.956706 34.635295-21.112471 5.722353-4.306824 11.324235-8.794353 16.685176-13.402353l7.830588-6.927059 4.818824-4.427294 4.608-4.457412a26.352941 26.352941 0 0 1 15.299764-7.649882l3.493648-0.240941h8.734117v-52.705882h-43.881412l-5.541647-0.602353-7.469176-1.716706-11.444706-2.861177a408.816941 408.816941 0 0 1-15.691294-4.457411 212.449882 212.449882 0 0 1-21.172706-7.529412l-2.048-0.90353-2.108235-0.993882-9.065412-4.487529-10.842353-5.903059-9.125647-5.270588-7.258353-4.397177c-21.022118-13.101176-13.793882-44.634353 9.487059-48.368941l3.282823-0.301177 8.131765-0.572235 11.264-1.084235c5.541647-0.632471 10.962824-1.415529 16.082824-2.319059a114.447059 114.447059 0 0 0 18.160941-4.517647c3.102118-1.144471 6.535529-2.710588 10.24-4.788706a182.512941 182.512941 0 0 0 27.346823-19.154823c5.150118-4.276706 10.24-8.794353 15.119059-13.372236l7.168-6.927059 2.379294-2.349176 6.324706-6.595765a26.352941 26.352941 0 0 1 15.811765-8.372706l3.674353-0.271058h26.352941v-52.705883h-8.764235a26.352941 26.352941 0 0 1-6.505412-0.813176l-3.132235-1.024-7.348706-3.011765-8.764236-3.855059-9.33647-4.487529-4.336941-2.258824a110.110118 110.110118 0 0 1-8.854589-5.330823l-5.541647-3.824941-9.035294-6.505412-5.872941-4.427294a26.352941 26.352941 0 0 1 6.053647-45.327059l17.408-7.288471 13.793882-6.023529 8.432942-3.915294 5.872941-2.891294 12.769882-6.656 6.836706-3.704471 13.854118-7.800471c13.281882-7.589647 26.895059-15.751529 40.05647-23.913411l7.228236-4.517647z m128.512 575.518118H407.792941v122.970353h228.412235v-122.970353z m-52.705882-210.823529H460.498824v52.705882h123.00047v-52.705882z m-35.147294-210.82353h-52.705883v52.705883h52.705883v-52.705883z" fill="#568af2" /></svg>