<svg class="icon" style="width: 1em;height: 1em;vertical-align: middle;fill: currentColor;overflow: hidden;" viewBox="0 0 1024 1024" version="1.1" xmlns="http://www.w3.org/2000/svg" width="32" height="32"><path d="M291.147294 124.235294c14.546824 0 26.352941 11.806118 26.352941 26.352941l-0.030117 238.441412 242.989176-121.464471a26.352941 26.352941 0 0 1 37.948235 20.178824l0.180706 3.403294v97.882353l242.959059-121.464471a26.352941 26.352941 0 0 1 37.948235 20.178824l0.180706 3.403294v562.176a26.352941 26.352941 0 0 1-26.352941 26.352941H150.588235a26.352941 26.352941 0 0 1-26.352941-26.352941V150.588235c0-14.546824 11.806118-26.352941 26.352941-26.352941z m140.528941 421.647059H291.147294a26.352941 26.352941 0 0 0-26.352941 26.352941v140.559059c0 14.546824 11.776 26.352941 26.352941 26.352941h140.528941a26.352941 26.352941 0 0 0 26.352941-26.352941V572.235294a26.352941 26.352941 0 0 0-26.352941-26.352941z m281.118118 0H572.235294a26.352941 26.352941 0 0 0-26.352941 26.352941v140.559059c0 14.546824 11.806118 26.352941 26.352941 26.352941h140.559059a26.352941 26.352941 0 0 0 26.352941-26.352941V572.235294a26.352941 26.352941 0 0 0-26.352941-26.352941z" fill="#568af2" /></svg>