<svg class="icon" style="width: 1em;height: 1em;vertical-align: middle;fill: currentColor;overflow: hidden;" viewBox="0 0 1024 1024" version="1.1" xmlns="http://www.w3.org/2000/svg" width="32" height="32"><path d="M742.912 124.235294c14.546824 0 26.352941 11.806118 26.352941 26.352941v105.411765a26.352941 26.352941 0 0 1-26.352941 26.352941h-43.941647v544.617412h184.470588a26.352941 26.352941 0 0 1 3.312941 52.525176l-3.312941 0.180706H180.705882a26.352941 26.352941 0 0 1-3.312941-52.495059l3.312941-0.210823h184.470589V282.352941h-43.91153a26.352941 26.352941 0 0 1-26.172235-23.04l-0.180706-3.312941V150.588235c0-14.546824 11.776-26.352941 26.352941-26.352941z m-96.647529 158.117647h-228.382118v281.088h228.382118V282.352941z" fill="#568af2" /></svg>