<svg class="icon" style="width: 1em;height: 1em;vertical-align: middle;fill: currentColor;overflow: hidden;" viewBox="0 0 1024 1024" version="1.1" xmlns="http://www.w3.org/2000/svg" width="32" height="32"><path d="M592.323765 124.235294c13.432471 0 24.515765 10.059294 26.142117 23.04l0.210824 3.312941-0.030118 141.281883-193.234823 23.792941v11.294117l193.264941-18.642823-0.030118-16.444235 75.866353-9.336471c14.667294-1.807059 27.708235 8.764235 29.394824 23.070118l0.180706 3.102117-0.030118 152.184471-404.058353 46.622118v12.016941l404.088471-35.147294-0.030118-23.491765 23.341176-2.680471a26.352941 26.352941 0 0 1 29.214118 23.070118l0.180706 3.102118-0.030118 134.866823-509.470117 63.668706v12.288l509.500235-52.705882-0.030118-23.250824 23.100236-2.891294c14.697412-1.807059 27.768471 8.734118 29.455058 23.04l0.180706 3.102118v210.823529a26.352941 26.352941 0 0 1-26.352941 26.352941H240.941176a26.352941 26.352941 0 0 1-26.352941-26.352941v-140.528941c0-13.312 9.908706-24.515765 23.070118-26.172235l29.635765-3.704471v-145.829647c0-12.257882 8.432941-22.738824 20.08847-25.6l3.252706-0.572235 29.364706-3.403294v-155.557647c0-12.197647 8.342588-22.648471 19.877647-25.539765l3.252706-0.602353 82.281412-10.149647V150.588235c0-13.432471 10.059294-24.515765 23.04-26.142117l3.312941-0.210824h140.559059z" fill="#568af2" /></svg>