<svg class="icon" style="width: 1em;height: 1em;vertical-align: middle;fill: currentColor;overflow: hidden;" viewBox="0 0 1024 1024" version="1.1" xmlns="http://www.w3.org/2000/svg" width="32" height="32"><path d="M871.905882 162.394353l-1.65647 2.800941-70.294588 105.411765a26.352941 26.352941 0 0 1-18.642824 11.535059l-3.282824 0.210823h-43.941647v87.823059h61.530353a26.352941 26.352941 0 0 1 3.312942 52.525176l-3.312942 0.210824-61.530353-0.030118v245.970824h26.383059c13.432471 0 24.515765 10.059294 26.142118 23.070118l0.210823 3.312941v158.117647a26.352941 26.352941 0 0 1-23.04 26.142117l-3.312941 0.180706h-105.411764a26.352941 26.352941 0 0 1-26.142118-23.04l-0.210824-3.312941v-158.117647c0-13.432471 10.059294-24.515765 23.04-26.142118l3.312942-0.210823h26.322823V422.851765H347.587765v245.970823h26.383059c13.432471 0 24.515765 10.059294 26.142117 23.070118l0.210824 3.312941v158.117647a26.352941 26.352941 0 0 1-23.070118 26.142118l-3.312941 0.180706h-105.411765a26.352941 26.352941 0 0 1-26.142117-23.04l-0.180706-3.312942v-158.117647c0-13.432471 10.029176-24.515765 23.04-26.142117l3.312941-0.210824h26.322823V422.851765H233.411765a26.352941 26.352941 0 0 1-3.312941-52.495059l3.312941-0.180706 61.470117-0.030118V282.352941H250.970353a26.352941 26.352941 0 0 1-19.937882-9.125647l-1.987765-2.620235-70.264471-105.411765a26.352941 26.352941 0 0 1 21.052236-40.96l3.252705 0.120471 47.796706 3.915294 32.346353 2.439529 33.882353 2.379294c18.462118 1.204706 36.803765 2.349176 54.874353 3.343059l26.834824 1.445647 17.257411 0.813177 25.99153 1.114353 40.086588 1.295058 27.045647 0.512 25.298824 0.180706h6.927059l7.017411-0.060235 29.515294-0.421647 31.62353-0.903529 34.695529-1.325177c25.840941-1.114353 52.675765-2.56 80.052706-4.21647l27.557647-1.807059 50.296471-3.553883 31.442823-2.439529 32.316236-2.710588a26.352941 26.352941 0 0 1 25.931294 38.038588zM488.116706 282.352941h-140.559059v87.823059h140.559059V282.352941z m193.234823 0h-140.528941v87.823059h140.528941V282.352941z" fill="#568af2" /></svg>