<svg class="icon" style="width: 1em;height: 1em;vertical-align: middle;fill: currentColor;overflow: hidden;" viewBox="0 0 1024 1024" version="1.1" xmlns="http://www.w3.org/2000/svg" width="32" height="32"><path d="M677.948235 131.192471l2.379294 2.529882 87.853177 105.411765a25.901176 25.901176 0 0 1 6.144 17.468235l-0.060235 78.456471H783.058824c22.829176 0 41.592471 17.408 43.730823 39.695058l0.180706 4.216471v245.970823c0 21.263059-15.058824 38.972235-35.147294 43.068236v158.960941h61.500235a26.352941 26.352941 0 0 1 3.312941 52.525176l-3.312941 0.180706H150.588235a26.352941 26.352941 0 0 1-3.312941-52.495059l3.312941-0.210823h61.470118V466.823529c0-32.406588 25.118118-58.970353 56.922353-61.319529l4.577882-0.180706h219.617883v-26.352941c0-22.829176 17.408-41.562353 39.695058-43.700706l4.216471-0.210823h8.794353V257.445647a25.630118 25.630118 0 0 1 1.626353-10.691765c0.150588-0.301176 0.301176-0.602353 0.391529-0.903529a15.36 15.36 0 0 1 0.90353-1.957647l0.602353-1.084235a13.552941 13.552941 0 0 1 0.63247-1.054118l0.301177-0.391529a26.443294 26.443294 0 0 1 0.963764-1.385412l0.692706-0.843294 87.823059-105.411765a26.352941 26.352941 0 0 1 38.128941-2.529882zM633.675294 668.852706h-52.705882v158.117647l54.211764 0.030118a26.202353 26.202353 0 0 1-1.295058-5.51153l-0.180706-3.312941-0.030118-149.323294z m105.411765 0h-52.705883v149.353412a26.322824 26.322824 0 0 1-1.505882 8.794353l54.211765-0.030118v-158.117647z m-324.99953 17.588706h-70.26447l-3.312941 0.180706a26.352941 26.352941 0 0 0 0 52.314353l3.312941 0.210823h70.26447l3.312942-0.210823a26.352941 26.352941 0 0 0-3.312942-52.495059z m0-123.000471h-70.26447l-3.312941 0.210824a26.352941 26.352941 0 0 0 0 52.314353l3.312941 0.180706h70.26447l3.312942-0.180706a26.352941 26.352941 0 0 0-3.312942-52.525177z m245.970824-114.176a52.705882 52.705882 0 1 0 0 105.411765 52.705882 52.705882 0 0 0 0-105.411765z m-61.500235-114.206117h122.970353v-52.705883h-122.970353v52.705883z m61.470117-143.329883l-31.563294 37.918118h63.156706l-31.593412-37.918118z" fill="#568af2" /></svg>