<svg class="icon" style="width: 1em;height: 1em;vertical-align: middle;fill: currentColor;overflow: hidden;" viewBox="0 0 1024 1024" version="1.1" xmlns="http://www.w3.org/2000/svg" width="32" height="32"><path d="M250.970353 879.676235a26.352941 26.352941 0 0 1-26.142118-23.04l-0.210823-3.312941V483.719529a149.082353 149.082353 0 0 1-17.769412-6.746353l-8.613647-4.246588-6.505412-3.70447-24.576-14.757647a26.352941 26.352941 0 0 1-12.589176-19.154824l-0.210824-3.433412V291.147294c0-13.432471 10.059294-24.545882 23.04-26.172235L180.705882 264.794353l43.91153-0.030118V150.588235c0-13.432471 10.059294-24.515765 23.070117-26.142117l3.312942-0.210824H813.176471c13.432471 0 24.515765 10.059294 26.142117 23.04l0.210824 3.312941-0.030118 114.176h43.971765c13.402353 0 24.515765 10.059294 26.142117 23.070118l0.180706 3.312941v140.528941c0 8.131765-3.704471 15.691294-9.938823 20.660706l-2.831059 1.957647-24.576 14.757647a149.263059 149.263059 0 0 1-32.918588 14.667294v369.603765a26.352941 26.352941 0 0 1-23.04 26.172235l-3.312941 0.180706H250.970353z m281.088-417.28l-10.992941 6.625883a149.353412 149.353412 0 0 1-140.16753 7.198117l-6.987294-3.493647-6.505412-3.70447-11.023058-6.625883-10.992942 6.625883a149.202824 149.202824 0 0 1-68.065882 21.022117v336.926118h140.559059v-184.470588c0-13.432471 10.059294-24.515765 23.04-26.142118l3.312941-0.210823h175.676235c14.576941 0 26.352941 11.806118 26.352942 26.352941v184.470588h140.559058V490.044235a149.172706 149.172706 0 0 1-60.054588-16.564706l-7.981176-4.457411-11.053177-6.595765-10.992941 6.625882a149.353412 149.353412 0 0 1-140.137412 7.168l-6.987294-3.493647-6.535529-3.70447-11.023059-6.625883z m254.765176-285.455059H277.323294v87.823059h509.470118l0.030117-87.823059z" fill="#568af2" /></svg>