<svg class="icon" style="width: 1em;height: 1em;vertical-align: middle;fill: currentColor;overflow: hidden;" viewBox="0 0 1024 1024" version="1.1" xmlns="http://www.w3.org/2000/svg" width="32" height="32"><path d="M542.418824 128.783059l4.096 0.903529 135.770352 36.382118a43.941647 43.941647 0 0 1 31.954824 49.633882l-0.903529 4.156236-6.836706 25.419294 25.479529 6.836706 0.210824 0.090352 33.731764 9.035295a26.352941 26.352941 0 0 1-10.390588 51.561411l-3.252706-0.662588-8.523294-2.288941-41.050353 152.666353 8.643765 2.349176a26.352941 26.352941 0 0 1-10.390588 51.561412l-3.252706-0.662588-8.673883-2.319059-41.050353 152.696471 8.794353 2.349176a26.352941 26.352941 0 0 1-10.390588 51.59153l-3.252706-0.662589-8.82447-2.409411-27.708236 103.152941h246.723765a26.352941 26.352941 0 0 1 3.312941 52.525176l-3.312941 0.180706H150.588235a26.352941 26.352941 0 0 1-3.312941-52.495059l3.312941-0.210823h103.002353l53.549177-190.795294-3.403294-0.90353a26.352941 26.352941 0 0 1 10.390588-51.561412l3.252706 0.662589 3.975529 1.054117 42.736941-152.244706-5.782588-1.536a26.352941 26.352941 0 0 1 10.390588-51.591529l3.222589 0.662588 6.415058 1.716706 42.706824-152.244706-8.161882-2.198588a26.352941 26.352941 0 0 1 10.390588-51.561412l3.252706 0.662588 33.581176 9.005177 0.361412 0.090353 25.419294 6.77647 6.836706-25.419294a43.941647 43.941647 0 0 1 49.694118-31.954823zM358.008471 643.011765l-49.694118 177.152h88.997647l17.980235-67.102118a26.352941 26.352941 0 0 1 51.561412 10.390588l-0.662588 3.252706-14.336 53.458824h100.141176l31.382589-116.766118-225.370353-60.385882z m56.95247-202.992941l-42.706823 152.244705 81.197176 21.775059 14.546824-54.211764a26.352941 26.352941 0 0 1 51.561411 10.36047l-0.662588 3.252706-14.516706 54.211765 92.672 24.847059 41.050353-152.696471-223.141647-59.783529z m56.952471-202.992942l-42.706824 152.244706 79.691294 21.353412 11.806118-44.062118a26.352941 26.352941 0 0 1 51.561412 10.390589l-0.662588 3.252705-11.806118 44.032 91.979294 24.666353 41.050353-152.69647-195.222588-52.314353-25.690353-6.866824z" fill="#568af2" /></svg>