<svg class="icon" style="width: 1em;height: 1em;vertical-align: middle;fill: currentColor;overflow: hidden;" viewBox="0 0 1024 1024" version="1.1" xmlns="http://www.w3.org/2000/svg" width="32" height="32"><path d="M505.223529 124.235294c123.542588 0 233.261176 59.331765 302.170353 151.04l1.505883 2.048c1.385412 1.837176 2.710588 3.704471 4.065882 5.571765l-5.601882-7.619765a379.994353 379.994353 0 0 1 49.453176 88.395294 473.328941 473.328941 0 0 1 4.306824 11.444706l0.722823 2.108235c3.373176 9.637647 6.324706 19.365647 8.944941 29.304471l0.692706 2.831059-0.692706-2.831059c2.108235 8.222118 4.005647 16.534588 5.571765 24.937412l0.361412 1.927529a324.065882 324.065882 0 0 1 3.102118 19.877647 386.921412 386.921412 0 0 1 2.861176 62.554353 378.759529 378.759529 0 0 1-8.884706 69.029647l-1.114353 4.668236a354.785882 354.785882 0 0 1-7.017412 25.660235l-0.12047 0.240941-0.933647 3.102118c-3.102118 9.396706-6.535529 18.733176-10.330353 27.919058l0.060235-0.060235a376.470588 376.470588 0 0 1-39.213176 71.589647l-1.566118 2.228706c-6.595765 9.306353-13.583059 18.311529-20.992 26.985412-0.240941 0.210824-0.421647 0.451765-0.602353 0.662588a376.952471 376.952471 0 0 1-106.345412 86.046118l-1.867294 1.024-2.198588 1.14447c-1.867294 0.993882-3.764706 1.987765-5.632 2.921412l-0.722824 0.361412-5.270588 2.620235a376.229647 376.229647 0 0 1-164.743529 37.707294c-180.103529 0-330.812235-126.102588-368.579765-294.851764l-0.361412-1.626353-0.180706-0.783059a375.747765 375.747765 0 0 1-2.228705-11.083294l-0.481883-2.710589a360.899765 360.899765 0 0 1-3.553882-24.576l-0.240941-2.108235a379.512471 379.512471 0 0 1-1.897412-51.802353l-0.180706 11.836236a383.909647 383.909647 0 0 1 3.011765-47.826824l0.301176-2.319059c0.361412-2.800941 0.752941-5.601882 1.204706-8.432941l0.301177-2.078118 0.180705-0.993882c0.662588-4.035765 1.385412-8.041412 2.168471-12.016941l0.391529-1.867294c34.966588-172.423529 187.422118-302.200471 370.145883-302.200471z m254.614589 579.794824l-237.056-0.030118-3.312942 0.210824a26.352941 26.352941 0 0 0 0 52.284235l3.312942 0.210823h184.32a325.451294 325.451294 0 0 0 52.705882-52.675764z m55.717647-105.411765l-187.361883-0.030118-3.312941 0.210824a26.352941 26.352941 0 0 0 0 52.284235l3.312941 0.210824h165.76753c8.704-16.805647 15.962353-34.424471 21.62447-52.705883z m14.516706-105.441882H180.314353a331.715765 331.715765 0 0 0 2.831059 52.736h644.126117c1.957647-14.426353 2.951529-29.093647 2.95153-43.971765l-0.150588-8.764235zM417.370353 247.205647a96.617412 96.617412 0 1 0 0 193.264941 96.617412 96.617412 0 0 0 0-193.264941z m376.591059 105.411765h-113.061647l-3.312941 0.210823a26.352941 26.352941 0 0 0 0 52.314353l3.312941 0.180706h134.716235a322.379294 322.379294 0 0 0-21.654588-52.705882z m-376.591059-52.705883a43.911529 43.911529 0 1 1 0 87.853177 43.911529 43.911529 0 0 1 0-87.853177z" fill="#568af2" /></svg>