<svg class="icon" style="width: 1em;height: 1em;vertical-align: middle;fill: currentColor;overflow: hidden;" viewBox="0 0 1024 1024" version="1.1" xmlns="http://www.w3.org/2000/svg" width="32" height="32"><path d="M554.676706 124.235294c14.546824 0 26.352941 11.806118 26.352941 26.352941l-0.030118 202.029177h8.794353c13.432471 0 24.545882 10.059294 26.172236 23.070117l0.180706 3.312942v219.587764h8.794352c13.432471 0 24.515765 10.059294 26.142118 23.04l0.210824 3.312941-0.030118 202.029177h202.089412a26.352941 26.352941 0 0 1 3.312941 52.525176l-3.312941 0.180706H150.588235a26.352941 26.352941 0 0 1-3.312941-52.495059l3.312941-0.210823h202.029177V624.941176c0-13.432471 10.059294-24.515765 23.070117-26.142117l3.312942-0.210824h8.764235v-219.617882c0-13.432471 10.059294-24.515765 23.04-26.142118l3.312941-0.210823h8.764235V150.588235c0-13.432471 10.059294-24.515765 23.070118-26.142117l3.312941-0.210824z" fill="#568af2" /></svg>