<svg class="icon" style="width: 1em;height: 1em;vertical-align: middle;fill: currentColor;overflow: hidden;" viewBox="0 0 1024 1024" version="1.1" xmlns="http://www.w3.org/2000/svg" width="32" height="32"><path d="M883.440941 154.352941c13.432471 0 24.545882 10.059294 26.172235 23.04l0.180706 3.312941v140.559059c0 8.101647-3.704471 15.661176-9.938823 20.630588l-2.831059 1.957647-24.576 14.757648a149.172706 149.172706 0 0 1-50.507294 18.913882v128.180706h26.383059c13.432471 0 24.515765 10.059294 26.142117 23.070117l0.210824 3.312942v316.235294a26.352941 26.352941 0 0 1-26.352941 26.352941h-632.470589a26.352941 26.352941 0 0 1-26.352941-26.352941v-316.235294c0-14.576941 11.776-26.352941 26.352941-26.352942l26.322824-0.030117v-128.180706a149.082353 149.082353 0 0 1-35.478588-11.053177l-8.432941-4.186353-6.53553-3.70447-24.576-14.72753a26.352941 26.352941 0 0 1-12.589176-19.154823l-0.210824-3.433412V180.705882c0-13.432471 10.059294-24.515765 23.04-26.142117L180.705882 154.352941h702.735059z m-351.382588 197.601883l-10.992941 6.625882a149.353412 149.353412 0 0 1-140.16753 7.228235l-6.987294-3.523765-6.505412-3.70447-11.023058-6.625882-10.992942 6.625882a149.172706 149.172706 0 0 1-50.507294 18.974118v128.150588h474.352942v-128.180706a149.112471 149.112471 0 0 1-42.465883-14.456471l-7.981176-4.487529-11.023059-6.595765-11.023059 6.625883a149.353412 149.353412 0 0 1-140.137412 7.168l-6.987294-3.493648-6.535529-3.70447-11.023059-6.625882z" fill="#568af2" /></svg>