<svg class="icon" style="width: 1em;height: 1em;vertical-align: middle;fill: currentColor;overflow: hidden;" viewBox="0 0 1024 1024" version="1.1" xmlns="http://www.w3.org/2000/svg" width="32" height="32"><path d="M746.315294 129.596235l2.680471 2.349177 122.970353 123.00047c15.811765 15.811765 5.903059 42.285176-15.36 44.784942l-3.282824 0.180705h-26.352941v79.058824c0 11.474824-7.318588 21.232941-17.558588 24.847059v106.917647h43.911529c12.348235 0 22.678588 8.432941 25.569882 19.877647l0.602353 3.19247 0.180706 3.312942v316.235294a26.352941 26.352941 0 0 1-23.04 26.142117l-3.312941 0.180706h-245.940706a26.352941 26.352941 0 0 1-26.172235-23.04l-0.180706-3.312941V783.058824a79.058824 79.058824 0 0 0-157.967059-4.99953l-0.150588 4.99953v70.26447a26.352941 26.352941 0 0 1-23.070118 26.172235l-3.312941 0.180706H150.588235a26.352941 26.352941 0 0 1-26.142117-23.04l-0.210824-3.312941v-316.235294c0-13.432471 10.059294-24.515765 23.04-26.142118l3.312941-0.210823h43.91153v-106.917647a26.383059 26.383059 0 0 1-17.347765-21.534118l-0.210824-3.312941V299.911529H150.588235c-22.347294 0-34.093176-25.750588-20.811294-42.526117l2.168471-2.43953L254.945882 131.915294a26.352941 26.352941 0 0 1 34.544942-2.349176l2.710588 2.349176 122.970353 123.000471c15.811765 15.811765 5.903059 42.285176-15.36 44.784941l-3.252706 0.180706h-26.383059v79.058823c0 11.444706-7.288471 21.232941-17.528471 24.847059l-0.030117 106.917647h52.705882v-61.470117c0-4.668235 1.234824-9.216 3.523765-13.161412l1.927529-2.861177 2.288941-2.620235 70.264471-70.264471a26.352941 26.352941 0 0 1 34.575059-2.379294l2.710588 2.379294 70.264471 70.264471a26.352941 26.352941 0 0 1 7.469176 15.179294l0.240941 3.46353v61.470117h52.705883v-106.917647a26.383059 26.383059 0 0 1-17.377883-21.534118l-0.180706-3.312941V299.911529h-26.352941c-22.377412 0-34.093176-25.750588-20.811294-42.526117l2.168471-2.43953L711.68 131.915294a26.352941 26.352941 0 0 1 34.575059-2.349176zM317.44 299.911529H229.616941l0.030118 52.705883h87.823059v-52.705883z m456.794353 0H686.381176l0.030118 52.705883h87.853177v-52.705883zM273.558588 187.843765L214.196706 247.205647h118.693647l-59.331765-59.361882z m456.794353 0l-59.361882 59.361882h118.693647l-59.331765-59.361882z" fill="#568af2" /></svg>