<svg class="icon" style="width: 1em;height: 1em;vertical-align: middle;fill: currentColor;overflow: hidden;" viewBox="0 0 1024 1024" version="1.1" xmlns="http://www.w3.org/2000/svg" width="32" height="32"><path d="M210.823529 879.676235a26.352941 26.352941 0 0 1-26.142117-23.04l-0.210824-3.312941v-421.647059c0-6.264471 2.228706-12.288 6.234353-17.01647l2.620235-2.680471 316.235295-281.088a26.352941 26.352941 0 0 1 32.165647-2.198588l2.831058 2.198588 316.235295 281.088a26.352941 26.352941 0 0 1 8.583529 15.962353l0.271059 3.734588v421.647059a26.352941 26.352941 0 0 1-23.04 26.172235l-3.312941 0.180706H210.823529z m96.617412-351.382588H237.176471v298.676706l70.26447-0.030118v-298.646588z m386.499765 0H360.146824v298.646588h70.26447v-184.44047c0-13.432471 10.059294-24.515765 23.070118-26.142118l3.312941-0.210823h140.528941c14.576941 0 26.352941 11.806118 26.352941 26.352941v184.44047h70.264471v-298.646588z m123.00047 0h-70.294588v298.646588l70.294588 0.030118v-298.676706z m-509.500235-147.275294l-70.26447 62.494118v32.075294h70.26447v-94.569412zM527.058824 185.825882l-166.912 148.329412v141.432471h333.793882v-141.432471L527.058824 185.825882z m219.587764 195.192471v94.569412h70.294588v-32.045177l-70.294588-62.524235z" fill="#568af2" /></svg>