<svg class="icon" style="width: 1em;height: 1em;vertical-align: middle;fill: currentColor;overflow: hidden;" viewBox="0 0 1024 1024" version="1.1" xmlns="http://www.w3.org/2000/svg" width="32" height="32"><path d="M341.714824 134.083765l3.312941 3.011764 67.824941 67.824942 45.17647-22.558118a149.353412 149.353412 0 0 1 118.422589-6.535529l7.649882 3.072 7.469177 3.463529L712.282353 242.748235c6.023529 3.011765 10.571294 8.161882 12.890353 14.366118l49.694118-49.694118a43.941647 43.941647 0 0 1 58.729411-3.011764l3.373177 3.011764 45.417412 45.417412c16.082824 16.082824 17.076706 41.532235 3.011764 58.759529l-3.011764 3.343059-123.78353 123.753412 56.19953 309.007059c13.432471 16.112941 13.552941 39.574588 0.331294 55.808l-3.011765 3.373176-45.447529 45.417412c-2.409412 2.409412-4.999529 4.457412-7.740236 6.174118a26.503529 26.503529 0 0 1-19.998117 13.763764l-3.312942 0.210824H243.712a26.352941 26.352941 0 0 1-26.322824-27.858824l0.39153-3.222588 9.035294-49.844706a43.670588 43.670588 0 0 1-10.902588-6.535529l-3.252706-2.951529-45.44753-45.44753a43.941647 43.941647 0 0 1-3.011764-58.759529l3.011764-3.343059 98.846118-98.876235 46.531765-255.819295-75.113412-75.113411a43.941647 43.941647 0 0 1-3.011765-58.789647l3.011765-3.312942 45.447529-45.447529a43.941647 43.941647 0 0 1 58.789648-3.011765z m183.085176 457.216a96.195765 96.195765 0 0 1-47.104-12.227765l-52.103529 52.103529-141.824 141.763765-8.493177 46.742588h396.709647l-118.272-118.241882a43.941647 43.941647 0 0 1-3.011765-58.789647l3.011765-3.312941 39.213177-39.273412-21.022118-20.992a96.195765 96.195765 0 0 1-47.104 12.227765z m105.381647-164.773647l-20.992 21.052235c7.800471 13.944471 12.227765 29.997176 12.227765 47.104 0 17.106824-4.427294 33.159529-12.227765 47.104l140.077177 140.077176-37.225412-204.8c-13.342118 3.614118-28.039529 0.873412-39.273412-8.282353l-3.312941-3.011764-39.273412-39.243294z m-272.263529-61.44l-27.226353 149.684706a43.971765 43.971765 0 0 1 46.140235 5.812705l3.312941 3.011765 39.243294 39.213177 21.022118-21.022118a96.195765 96.195765 0 0 1-12.227765-47.104c0-17.106824 4.427294-33.159529 12.227765-47.104l-82.492235-82.492235z m166.881882 85.684706a43.911529 43.911529 0 1 0 0 87.823058 43.911529 43.911529 0 0 0 0-87.823058zM487.484235 226.785882l-5.903059 2.710589-29.424941 14.697411 43.730824 43.730824c16.082824 16.052706 17.076706 41.502118 3.011765 58.759529l-3.011765 3.312941-39.243294 39.243295 21.052235 21.022117a96.195765 96.195765 0 0 1 47.104-12.227764c17.106824 0 33.159529 4.427294 47.104 12.227764l57.223529-57.223529 51.049412-51.07953-3.282823-18.04047-108.875294-54.422588a96.617412 96.617412 0 0 0-80.534589-2.710589z" fill="#568af2" /></svg>