<svg class="icon" style="width: 1em;height: 1em;vertical-align: middle;fill: currentColor;overflow: hidden;" viewBox="0 0 1024 1024" version="1.1" xmlns="http://www.w3.org/2000/svg" width="32" height="32"><path d="M510.735059 124.235294l19.395765 0.150588c3.192471 0.030118 6.354824 0.090353 9.517176 0.180706l18.672941 0.572236c6.144 0.240941 12.197647 0.512 18.160941 0.843294l17.618824 1.174588 8.583529 0.692706 16.745412 1.596235 8.131765 0.903529 15.721412 2.048c79.510588 11.324235 131.011765 34.575059 131.011764 70.896942 0 33.611294-44.092235 56.018824-113.724235 68.186353l-4.005647 9.155764a1577.532235 1577.532235 0 0 0-30.569412 76.528941c-8.975059 24.365176-16.865882 47.917176-23.461647 70.204236-8.613647 29.304471-14.667294 55.627294-17.769412 78.185412-4.487529 32.527059-6.174118 71.860706-5.451294 116.434823 0.752941 47.164235 4.216471 97.852235 9.426824 148.931765l2.590117 23.913412 2.650353 22.437647 1.295059 9.697882h258.048a26.352941 26.352941 0 0 1 3.312941 52.525176l-3.312941 0.180706H150.588235a26.352941 26.352941 0 0 1-3.312941-52.495059l3.312941-0.210823h258.499765l0.120471-0.602353 3.162353-22.588235 3.102117-24.184471 1.505883-12.649412c5.812706-49.904941 9.728-99.267765 10.932705-145.227294 1.174588-44.483765-0.301176-83.727059-4.758588-116.163764-3.102118-22.558118-9.185882-48.880941-17.799529-78.185412-6.565647-22.287059-14.456471-45.839059-23.461647-70.174118a1548.920471 1548.920471 0 0 0-22.768941-58.066823l-10.480942-24.696471-2.590117-5.782588C285.093647 256 247.205647 234.435765 247.205647 203.294118c0-33.972706 45.056-56.530824 115.952941-68.577883l15.058824-2.319059 15.721412-2.048 8.131764-0.903529 16.715294-1.596235c5.692235-0.481882 11.444706-0.903529 17.347765-1.325177l17.889882-0.993882c3.011765-0.150588 6.083765-0.301176 9.155765-0.391529l18.672941-0.602353 9.517177-0.150589 19.365647-0.150588z" fill="#568af2" /></svg>