<svg class="icon" style="width: 1em;height: 1em;vertical-align: middle;fill: currentColor;overflow: hidden;" viewBox="0 0 1024 1024" version="1.1" xmlns="http://www.w3.org/2000/svg" width="32" height="32"><path d="M677.647059 124.235294c14.546824 0 26.352941 11.806118 26.352941 26.352941l-0.030118 104.929883 0.030118 0.481882v421.647059l-0.030118 0.481882v148.841412h149.38353a26.352941 26.352941 0 0 1 3.312941 52.525176l-3.312941 0.180706H150.588235a26.352941 26.352941 0 0 1-3.312941-52.495059l3.312941-0.210823h149.323294V150.588235c0-14.546824 11.806118-26.352941 26.352942-26.352941z m-272.323765 439.205647h-52.705882v87.853177h52.705882v-87.853177z m240.489412-0.180706l-3.312941 0.180706h-184.470589v87.853177h193.264942l0.030117-89.359059a26.202353 26.202353 0 0 1-5.511529 1.325176z m5.481412-280.907294h-193.264942v54.211765a26.322824 26.322824 0 0 1 34.936471 21.534118l0.210824 3.312941v70.26447a26.352941 26.352941 0 0 1-35.147295 24.847059v54.211765h184.470589c3.102118 0 6.083765 0.542118 8.82447 1.505882l-0.030117-229.888z m-245.970824 0h-52.705882v228.382118h52.705882V282.352941z" fill="#568af2" /></svg>