<svg class="icon" style="width: 1em;height: 1em;vertical-align: middle;fill: currentColor;overflow: hidden;" viewBox="0 0 1024 1024" version="1.1" xmlns="http://www.w3.org/2000/svg" width="32" height="32"><path d="M565.850353 142.245647l0.301176 0.873412 0.361412 0.963765 2.108235 4.999529 0.722824 1.505882 0.783059 1.656471 3.855059 7.649882 1.204706 2.168471 1.204705 2.288941 5.812706 10.149647c16.956235 28.672 41.441882 61.861647 74.872471 98.996706 17.377882 19.305412 40.357647 40.749176 67.855059 63.638588l10.541176 8.673883 16.865883 13.492705 22.799058 17.558589c19.004235 14.396235 38.671059 28.611765 58.518589 42.465882l19.877647 13.673412 8.523294 5.782588 16.052706 10.721882 19.425882 12.619294c21.353412 13.462588 13.131294 45.658353-10.721882 48.429177l-3.373177 0.180706h-131.764706v87.853176H813.176471c13.432471 0 24.515765 10.059294 26.142117 23.04l0.210824 3.312941v228.382118a26.352941 26.352941 0 0 1-26.352941 26.352941H250.970353a26.352941 26.352941 0 0 1-26.352941-26.352941V624.941176c0-14.546824 11.806118-26.352941 26.352941-26.352941h61.500235v-87.853176H180.705882c-25.901176 0-35.719529-32.888471-15.841882-47.435294l2.770824-1.807059 11.836235-6.896941 31.774117-19.245177c10.932706-6.776471 22.166588-13.854118 33.490824-21.172706l17.046588-11.143529 12.830118-8.553412 22.588235-15.450353c55.055059-38.339765 99.538824-74.511059 127.457883-105.532235 38.219294-42.465882 64.240941-79.058824 80.414117-108.664471l3.282824-6.234353 2.620235-5.270588 0.843294-1.716706 0.752941-1.596235 2.198589-4.999529 2.469647-6.174118c9.938824-20.540235 41.020235-19.425882 48.609882 3.403294z m133.12 368.489412H365.176471v87.853176h333.793882v-87.853176z" fill="#568af2" /></svg>