<svg class="icon" style="width: 1em;height: 1em;vertical-align: middle;fill: currentColor;overflow: hidden;" viewBox="0 0 1024 1024" version="1.1" xmlns="http://www.w3.org/2000/svg" width="32" height="32"><path d="M774.535529 184.470588c10.902588 0 20.660706 6.686118 24.576 16.865883l52.766118 136.553411c21.383529 55.356235 2.891294 113.483294-37.496471 148.299294a18.040471 18.040471 0 0 1 0.451765 2.409412l0.210824 3.312941V843.294118a26.352941 26.352941 0 0 1-23.04 26.142117l-3.312941 0.210824H226.484706a26.352941 26.352941 0 0 1-26.142118-23.04L200.131765 843.294118V491.911529c0-1.957647 0.210824-3.855059 0.602353-5.722353-40.297412-34.785882-58.789647-92.882824-37.436236-148.239058l52.766118-136.613647a26.352941 26.352941 0 0 1 24.576-16.865883z m-152.576 280.997647l-4.999529 6.294589a131.493647 131.493647 0 0 1-94.087529 46.381176l-6.384942 0.120471h-17.889882a131.553882 131.553882 0 0 1-104.899765-52.013177l-0.572235-0.783059-4.999529 6.264471a132.005647 132.005647 0 0 1-94.268236 46.381176l-6.415058 0.150589c-12.047059 0-23.642353-1.566118-34.605177-4.48753v303.164235h509.470118V513.776941c-10.962824 2.921412-22.588235 4.517647-34.635294 4.517647a132.096 132.096 0 0 1-105.170824-52.073412l-0.542118-0.752941z" fill="#568af2" /></svg>