<svg class="icon" style="width: 1em;height: 1em;vertical-align: middle;fill: currentColor;overflow: hidden;" viewBox="0 0 1024 1024" version="1.1" xmlns="http://www.w3.org/2000/svg" width="32" height="32"><path d="M150.588235 879.676235a26.352941 26.352941 0 0 1-3.312941-52.495059l3.312941-0.210823h96.617412V326.234353c0-7.288471 3.011765-14.185412 8.252235-19.124706l2.800942-2.319059 245.940705-175.676235A26.352941 26.352941 0 0 1 545.882353 150.588235l-0.030118 144.504471 234.947765 167.845647c5.933176 4.246588 9.818353 10.721882 10.782118 17.859765l0.271058 3.614117-0.030117 342.528 61.500235 0.030118a26.352941 26.352941 0 0 1 3.312941 52.525176l-3.312941 0.180706H150.588235zM545.852235 359.905882v467.064471h193.264941V497.935059l-193.264941-138.059294z" fill="#568af2" /></svg>