<svg class="icon" style="width: 1em;height: 1em;vertical-align: middle;fill: currentColor;overflow: hidden;" viewBox="0 0 1024 1024" version="1.1" xmlns="http://www.w3.org/2000/svg" width="32" height="32"><path d="M326.264471 124.235294c13.432471 0 24.545882 10.059294 26.172235 23.04l0.180706 3.312941v14.697412l9.396706 5.12c11.474824 6.445176 24.244706 13.974588 37.978353 22.467765a1074.778353 1074.778353 0 0 1 115.2 81.799529c17.167059 14.095059 33.340235 28.370824 48.338823 42.797177h78.968471a26.352941 26.352941 0 0 1 3.312941 52.525176l-3.312941 0.210824h-30.08753c22.919529 28.099765 41.231059 56.741647 54.181647 85.925647 16.685176 37.556706 27.617882 80.112941 33.520942 126.795294 9.065412 71.499294 6.023529 147.395765-4.457412 220.551529-1.204706 8.282353-2.409412 16.143059-3.704471 23.582118l161.370353-0.090353a26.352941 26.352941 0 0 1 3.312941 52.525176l-3.312941 0.180706H150.588235a26.352941 26.352941 0 0 1-3.312941-52.495059l3.312941-0.210823h149.323294V370.176H256a26.352941 26.352941 0 0 1-3.312941-52.495059l3.312941-0.180706 43.911529-0.030117V150.588235c0-14.546824 11.806118-26.352941 26.352942-26.352941z m26.352941 562.145882v52.705883l202.059294 0.060235 3.312941-0.210823a26.352941 26.352941 0 0 0 0-52.314353l-3.312941-0.180706-202.059294-0.060236z m0-122.970352v52.705882l184.470588 0.030118 3.312941-0.180706a26.352941 26.352941 0 0 0 0-52.314353l-3.312941-0.210824-184.470588-0.030117z m0-122.970353v52.705882l114.206117 0.030118 3.312942-0.210824a26.352941 26.352941 0 0 0 0-52.284235l-3.312942-0.210824-114.206117-0.030117z" fill="#568af2" /></svg>