<svg class="icon" style="width: 1em;height: 1em;vertical-align: middle;fill: currentColor;overflow: hidden;" viewBox="0 0 1024 1024" version="1.1" xmlns="http://www.w3.org/2000/svg" width="32" height="32"><path d="M150.588235 879.676235a26.352941 26.352941 0 0 1-3.312941-52.495059l3.312941-0.210823h8.764236v-219.587765c0-32.436706 25.118118-58.970353 56.922353-61.319529l4.577882-0.180706h8.794353v-43.911529a26.352941 26.352941 0 0 1 52.495059-3.312942l0.210823 3.312942v43.911529h52.705883v-43.911529c0-13.432471 10.059294-24.545882 23.04-26.172236l3.312941-0.180706 16.263529 0.030118c-1.536-2.198588-3.072-4.427294-4.577882-6.686118-12.950588-19.456-23.491765-38.610824-30.659765-57.103058-10.932706-28.129882-13.914353-53.910588-5.903059-76.739765 8.553412-24.335059 21.082353-41.984 43.279059-64.632471l6.294588-6.324706 20.600471-20.239058 10.450823-10.902589 15.962353-16.444235 14.21553-14.275765 21.714823-21.383529 6.53553-6.354824V150.588235a26.352941 26.352941 0 0 1 52.525176-3.312941l0.210824 3.312941-0.030118 24.003765 15.36 14.968471 25.298824 25.20847 11.926588 12.16753 16.323765 16.986353 26.895058 26.563764c22.196706 22.648471 34.725647 40.297412 43.279059 64.632471 8.011294 22.859294 5.029647 48.609882-5.903059 76.739765-7.198118 18.492235-17.709176 37.647059-30.689882 57.103058l-4.577882 6.625883h16.293647c13.432471 0 24.545882 10.059294 26.172235 23.070117l0.180706 3.312942v43.911529h52.705882v-43.911529a26.352941 26.352941 0 0 1 52.525177-3.312942l0.180706 3.312942v43.911529H783.058824c32.406588 0 58.970353 25.088 61.319529 56.922353l0.180706 4.577882-0.030118 219.587765h8.794353a26.352941 26.352941 0 0 1 3.312941 52.525176l-3.312941 0.180706H150.588235z m632.470589-281.088h-114.206118v228.382118h122.970353v-219.587765a8.794353 8.794353 0 0 0-6.746353-8.553412L783.058824 598.588235z m-281.088 52.705883a26.352941 26.352941 0 0 0-26.172236 23.04l-0.180706 3.312941-0.030117 149.323294h52.705882V677.647059l-0.180706-3.312941a26.352941 26.352941 0 0 0-26.142117-23.04z m-166.912-52.705883H220.852706a8.794353 8.794353 0 0 0-8.553412 6.776471l-0.210823 2.017882-0.030118 219.587765h123.000471v-228.382118z" fill="#568af2" /></svg>