<svg class="icon" style="width: 1em;height: 1em;vertical-align: middle;fill: currentColor;overflow: hidden;" viewBox="0 0 1024 1024" version="1.1" xmlns="http://www.w3.org/2000/svg" width="32" height="32"><path d="M527.058824 124.235294c38.249412 0 70.113882 27.105882 77.462588 63.186824a288.768 288.768 0 0 1 99.538823 49.814588 79.058824 79.058824 0 0 1 93.033412 123.904 289.310118 289.310118 0 0 1 19.064471 127.277176 79.058824 79.058824 0 0 1-51.742118 144.865883 290.575059 290.575059 0 0 1-52.976941 57.223529l100.894117 147.968a26.352941 26.352941 0 0 1-41.291294 32.527059l-2.228706-2.831059-100.894117-147.968c-19.877647 11.083294-41.140706 19.877647-63.397647 26.021647a79.088941 79.088941 0 0 1-154.925177 0 287.924706 287.924706 0 0 1-63.397647-25.991529l-100.894117 147.937882a26.352941 26.352941 0 0 1-45.357177-26.593882l1.807059-3.102118 100.894118-147.968a291.056941 291.056941 0 0 1-52.976942-57.253647l-3.584 0.301177-4.999529 0.180705a79.058824 79.058824 0 0 1-43.068235-145.377882 289.219765 289.219765 0 0 1 19.034353-127.247059 79.058824 79.058824 0 0 1 93.003294-123.904 289.099294 289.099294 0 0 1 99.538823-49.78447A79.028706 79.028706 0 0 1 527.058824 124.235294z m14.96847 411.256471a70.535529 70.535529 0 0 1-29.936941 0l-96.075294 140.950588c13.071059 6.927059 26.804706 12.649412 41.08047 17.076706a79.028706 79.028706 0 0 1 139.926589-0.030118c14.275765-4.367059 28.009412-10.089412 41.08047-17.046588l-96.075294-140.950588z m54.994824-295.363765a79.088941 79.088941 0 0 1-139.926589 0 236.182588 236.182588 0 0 0-69.391058 34.755765 79.058824 79.058824 0 0 1-83.937883 111.887059 235.309176 235.309176 0 0 0-13.884235 80.052705l0.210823 9.276236a79.058824 79.058824 0 0 1 47.706353 133.662117c10.24 13.583059 21.895529 25.961412 34.69553 36.954353l96.075294-140.890353a70.264471 70.264471 0 1 1 116.946823 0l96.075295 140.920471a238.351059 238.351059 0 0 0 34.755764-36.984471 79.058824 79.058824 0 0 1 47.646118-133.632 236.724706 236.724706 0 0 0-13.613177-89.389176 79.058824 79.058824 0 0 1-83.998117-111.826824 235.068235 235.068235 0 0 0-69.360941-34.785882z" fill="#568af2" /><path d="M351.382588 826.970353a26.352941 26.352941 0 0 1 3.312941 52.525176l-3.312941 0.180706H210.823529a26.352941 26.352941 0 0 1-3.312941-52.495059l3.312941-0.210823h140.559059zM843.294118 826.970353a26.352941 26.352941 0 0 1 3.312941 52.525176l-3.312941 0.180706h-140.559059a26.352941 26.352941 0 0 1-3.312941-52.495059l3.312941-0.210823H843.294118z" fill="#568af2" /></svg>