<svg class="icon" style="width: 1em;height: 1em;vertical-align: middle;fill: currentColor;overflow: hidden;" viewBox="0 0 1024 1024" version="1.1" xmlns="http://www.w3.org/2000/svg" width="32" height="32"><path d="M532.088471 154.352941c208.594824 0 377.705412 169.110588 377.705411 377.73553 0 113.694118-39.755294 206.968471-115.169882 272.323764h88.847059a26.352941 26.352941 0 0 1 3.312941 52.495059l-3.312941 0.180706H180.705882a26.352941 26.352941 0 0 1-3.312941-52.495059l3.312941-0.210823h88.816942c-75.384471-65.325176-115.169882-158.629647-115.169883-272.293647 0-208.624941 169.110588-377.735529 377.73553-377.73553z m-172.513883 648.342588l3.282824 1.686589 58.006588 0.030117c-14.968471-39.875765-25.630118-90.051765-31.834353-147.395764a1874.371765 1874.371765 0 0 1-154.443294-20.781177l-13.854118-2.56c21.594353 73.758118 68.457412 130.951529 138.842353 169.020235z m262.02353-141.643294l-10.782118 0.632471c-26.352941 1.415529-52.645647 2.168471-78.727529 2.16847a1497.750588 1497.750588 0 0 1-89.509647-2.770823c6.144 51.712 16.143059 96.015059 29.485176 129.686588l3.102118 7.529412 2.740706 6.083765h108.303058l2.770824-6.083765c14.908235-34.454588 25.991529-81.558588 32.617412-137.246118z m221.81647-27.316706H843.294118a1872.504471 1872.504471 0 0 1-168.176942 23.280942c-6.174118 57.374118-16.865882 107.52-31.804235 147.395764l57.976471-0.030117 3.312941-1.686589c70.354824-38.038588 117.217882-95.232 138.812235-168.96z m-311.326117-128a2937.374118 2937.374118 0 0 0-96.256 1.626353c-0.301176 8.161882-0.391529 16.414118-0.39153 24.696471 0 26.322824 0.813176 51.712 2.349177 75.896471 31.623529 2.078118 63.156706 3.192471 94.268235 3.19247 31.141647 0 62.704941-1.114353 94.328471-3.162353 0.993882-15.781647 1.686588-32.045176 2.048-48.76047l0.210823-13.763765 0.060235-13.372235v-5.12l-0.060235-5.029647-0.301176-14.576942a2937.464471 2937.464471 0 0 0-96.256-1.626353z m-149.082353 3.794824l-4.99953 0.240941c-25.750588 1.295059-51.410824 2.861176-76.830117 4.668235l-30.960942 2.349177-28.641882 2.409412-34.364235 3.343058a401.197176 401.197176 0 0 0 2.409412 55.265883l6.565647 1.355294 14.396235 2.770823 27.196235 4.848942a1830.008471 1830.008471 0 0 0 126.915765 16.865882 1270.332235 1270.332235 0 0 1-1.716706-94.117647z m298.164706 0l0.030117 1.144471a1272.109176 1272.109176 0 0 1-1.746823 92.973176 1819.286588 1819.286588 0 0 0 126.915764-16.865882l27.196236-4.818824 20.992-4.156235c0.903529-8.011294 1.596235-16.173176 2.017882-24.485647l0.391529-10.691765 0.120471-10.541176c0-3.192471-0.030118-6.384941-0.120471-9.547295l-15.661176-1.596235-32.737882-2.951529-29.816471-2.409412a3632.911059 3632.911059 0 0 0-97.581176-6.053647z m-14.275765-146.793412l0.783059 4.216471c0.813176 4.397176 1.566118 8.884706 2.288941 13.402353l1.475765 9.577411 2.590117 19.034353 2.228706 19.546353c0.963765 9.216 1.776941 18.612706 2.469647 28.099765 29.485176 1.415529 58.910118 3.192471 88.003765 5.270588l31.442823 2.379294 29.093647 2.43953 23.702589 2.319059a322.56 322.56 0 0 0-15.75153-54.452706l-5.722353-2.409412-17.829647-6.957176a988.882824 988.882824 0 0 0-144.775529-42.465883z m-269.673412 0l-10.270118 2.198588a988.882824 988.882824 0 0 0-134.445176 40.237177l-17.829647 7.017412-5.722353 2.409411c-6.776471 17.438118-12.077176 35.599059-15.781647 54.362353l10.089412-0.993882 27.858823-2.499765 30.298353-2.409411a3685.496471 3685.496471 0 0 1 104.056471-6.415059 855.341176 855.341176 0 0 1 11.745882-93.906824z m132.065882-15.119059h-2.349176a607.171765 607.171765 0 0 0-73.607529 5.481412c-0.542118 2.379294-1.024 4.758588-1.505883 7.168l-2.529882 13.071059-2.891294 16.865882-1.355294 8.613647-1.264942 8.764236-2.258823 17.950117-0.542118 4.577883-0.481882 4.577882-1.776941 18.672941-0.060236 1.174588a2978.032941 2978.032941 0 0 1 93.424942-1.505882c30.870588 0 62.102588 0.512 93.394823 1.505882l-0.451765-5.872941-1.385411-13.974588-2.108236-18.191059-2.409411-17.679059-1.355295-8.643764-2.891294-16.865883-2.379294-12.227764-1.65647-7.981177a626.145882 626.145882 0 0 0-58.639059-5.12l-22.91953-0.361412z m-83.877647-128.903529l-5.029647 1.475765a325.571765 325.571765 0 0 0-173.417411 123.813647c12.920471-4.397176 26.503529-8.734118 40.56847-12.890353a967.378824 967.378824 0 0 1 102.580706-24.576l2.529882-8.734118c9.095529-30.509176 20.088471-57.223529 32.768-79.058823z m173.357177 0.030118l2.56 4.577882c12.769882 23.070118 23.732706 51.169882 32.707765 83.184941 33.882353 6.113882 68.246588 14.456471 102.580705 24.606118 14.095059 4.186353 27.648 8.493176 40.598589 12.890353a325.632 325.632 0 0 0-178.447059-125.259294z m-86.678588-11.685647c-16.233412 0-33.069176 18.160941-48.067765 49.603764l-2.95153 6.445177-4.638117 11.053176c-2.048 5.12-4.035765 10.480941-5.963294 16.052706l-2.680471 8.101647a637.771294 637.771294 0 0 1 58.608941-3.373176h11.354353c19.275294 0.180706 38.821647 1.355294 58.608941 3.373176-17.468235-54.121412-39.845647-88.244706-61.409882-91.075765l-2.861176-0.180705z" fill="#568af2" /></svg>