<svg class="icon" style="width: 1em;height: 1em;vertical-align: middle;fill: currentColor;overflow: hidden;" viewBox="0 0 1024 1024" version="1.1" xmlns="http://www.w3.org/2000/svg" width="32" height="32"><path d="M150.588235 879.676235a26.352941 26.352941 0 0 1-3.312941-52.495059l3.312941-0.210823h26.352941v-219.587765c0-32.436706 25.088-58.970353 56.922353-61.319529l4.577883-0.180706h79.028706v-61.500235c0-6.264471 2.258824-12.288 6.26447-17.016471l2.590118-2.680471 149.263059-132.698352V247.205647h-43.91153a26.352941 26.352941 0 0 1-3.312941-52.495059l3.312941-0.210823h43.91153V150.588235a26.352941 26.352941 0 0 1 52.525176-3.312941l0.210824 3.312941-0.030118 43.91153H572.235294a26.352941 26.352941 0 0 1 3.312941 52.525176l-3.312941 0.180706h-43.941647v84.781177l149.293177 132.698352a26.352941 26.352941 0 0 1 8.583529 15.962353l0.271059 3.734589-0.030118 61.500235h79.088941c32.406588 0 58.970353 25.088 61.31953 56.922353l0.150588 4.577882v219.587765h26.352941a26.352941 26.352941 0 0 1 3.312941 52.525176l-3.312941 0.180706H150.588235z m351.382589-228.382117a26.352941 26.352941 0 0 0-26.172236 23.04l-0.180706 3.312941-0.030117 149.323294h52.705882V677.647059l-0.180706-3.312941a26.352941 26.352941 0 0 0-26.142117-23.04z" fill="#568af2" /></svg>