<svg class="icon" style="width: 1em;height: 1em;vertical-align: middle;fill: currentColor;overflow: hidden;" viewBox="0 0 1024 1024" version="1.1" xmlns="http://www.w3.org/2000/svg" width="32" height="32"><path d="M501.970824 124.235294c13.432471 0 24.515765 10.059294 26.142117 23.04l0.210824 3.312941v83.546353a79.088941 79.088941 0 0 1 34.996706 124.416l34.93647 209.347765 0.210824 2.469647a131.312941 131.312941 0 0 1 35.237647 89.720471c0 23.792941-6.294588 46.08-17.317647 65.355294l50.356706 117.519059a26.352941 26.352941 0 0 1-46.98353 23.702588l-1.475765-2.95153-40.96-95.563294a131.072 131.072 0 0 1-49.031529 21.082353v64.090353a26.352941 26.352941 0 0 1-52.495059 3.312941l-0.180706-3.312941-0.030117-64.12047a131.072 131.072 0 0 1-49.001412-21.022118l-40.96 95.533176a26.352941 26.352941 0 0 1-49.543529-17.648941l1.114352-3.102117 50.296471-117.519059a131.162353 131.162353 0 0 1-17.287529-65.355294 131.312941 131.312941 0 0 1 35.237647-89.720471l0.240941-2.469647 34.906353-209.347765a79.088941 79.088941 0 0 1 34.996706-124.385882V150.588235c0-14.546824 11.806118-26.352941 26.383059-26.352941z m0 263.529412c-4.306824 0-8.523294-0.331294-12.649412-0.993882l-24.485647 146.853647a131.794824 131.794824 0 0 1 74.24 0l-24.485647-146.853647a79.631059 79.631059 0 0 1-12.649412 0.993882z" fill="#568af2" /></svg>