<svg class="icon" style="width: 1em;height: 1em;vertical-align: middle;fill: currentColor;overflow: hidden;" viewBox="0 0 1024 1024" version="1.1" xmlns="http://www.w3.org/2000/svg" width="32" height="32"><path d="M712.794353 299.911529a26.352941 26.352941 0 0 1 3.312941 52.525177l-3.312941 0.180706h-5.300706l11.715765 93.665882c0.903529 7.318588 2.379294 14.576941 4.336941 21.684706l2.168471 7.017412 58.578823 175.73647c3.794824 11.384471 6.565647 23.04 8.282353 34.876236l1.084235 8.914823 13.221647 132.457412h46.441412a26.352941 26.352941 0 0 1 3.312941 52.525176l-3.312941 0.180706H150.588235a26.352941 26.352941 0 0 1-3.312941-52.495059l3.312941-0.210823h46.411294l13.251765-132.457412c1.204706-11.926588 3.463529-23.702588 6.716235-35.207529l2.650353-8.58353 58.578824-175.73647a149.383529 149.383529 0 0 0 5.421176-21.38353l1.084236-7.318588 11.715764-93.665882h-5.270588a26.352941 26.352941 0 0 1-3.312941-52.495059l3.312941-0.210824h421.647059z m-333.824 298.676706a26.352941 26.352941 0 0 0-26.352941 26.352941 149.534118 149.534118 0 0 0 91.136 137.547295 26.352941 26.352941 0 1 0 20.540235-48.51953 96.858353 96.858353 0 0 1-58.970353-89.027765 26.352941 26.352941 0 0 0-26.352941-26.352941z m245.970823 0a26.352941 26.352941 0 0 0-26.352941 26.352941 96.858353 96.858353 0 0 1-58.970353 89.027765 26.352941 26.352941 0 1 0 20.570353 48.51953 149.564235 149.564235 0 0 0 91.105883-137.547295 26.352941 26.352941 0 0 0-26.352942-26.352941z m-122.970352-8.794353a35.147294 35.147294 0 1 0 0 70.294589 35.147294 35.147294 0 0 0 0-70.294589z m0-114.176c-41.381647 0-80.112941 16.926118-108.092236 46.290824a26.352941 26.352941 0 0 0 38.128941 36.352 96.256 96.256 0 0 1 69.963295-29.936941c26.804706 0 51.802353 10.932706 69.933176 29.936941a26.352941 26.352941 0 1 0 38.159059-36.352 148.961882 148.961882 0 0 0-108.122353-46.290824z m121.916235-343.642353a26.352941 26.352941 0 0 1 39.604706 34.544942l-2.349177 2.710588-14.546823 14.546823a96.647529 96.647529 0 0 1-61.952 28.099765l-6.384941 0.210824h-12.047059c-10.209882 0-20.028235 3.523765-27.828706 9.938823l-3.222588 2.921412-14.576942 14.546823a26.352941 26.352941 0 0 1-39.604705-34.575058l2.349176-2.710589 14.546824-14.546823a96.647529 96.647529 0 0 1 61.952-28.069647l6.384941-0.210824h12.047059c10.209882 0 20.028235-3.553882 27.828705-9.938823l3.222589-2.921412 14.576941-14.576941z" fill="#568af2" /></svg>