<svg class="icon" style="width: 1em;height: 1em;vertical-align: middle;fill: currentColor;overflow: hidden;" viewBox="0 0 1024 1024" version="1.1" xmlns="http://www.w3.org/2000/svg" width="32" height="32"><path d="M150.588235 879.676235a26.352941 26.352941 0 0 1-3.312941-52.495059l3.312941-0.210823h149.323294v-79.058824c0-13.432471 10.059294-24.515765 23.070118-26.142117l3.312941-0.210824h45.628236L405.383529 236.604235a26.352941 26.352941 0 0 1 3.885177-12.016941l1.837176-2.620235 70.264471-87.853177a26.352941 26.352941 0 0 1 41.170823 0l70.264471 87.853177c3.373176 4.216471 5.360941 9.306353 5.722353 14.637176l33.430588 484.954353H677.647059c13.432471 0 24.515765 10.059294 26.142117 23.070118l0.210824 3.312941-0.030118 79.028706h149.38353a26.352941 26.352941 0 0 1 3.312941 52.525176l-3.312941 0.180706H150.588235z" fill="#568af2" /></svg>