<svg class="icon" style="width: 1em;height: 1em;vertical-align: middle;fill: currentColor;overflow: hidden;" viewBox="0 0 1024 1024" version="1.1" xmlns="http://www.w3.org/2000/svg" width="32" height="32"><path d="M645.752471 147.998118l6.354823 4.096 5.601882 3.614117c31.021176 19.395765 47.887059 18.913882 58.277648 9.999059l1.445647-1.325176 1.024-1.084236 0.873411-1.084235c11.926588-23.823059 46.832941-16.685176 49.724236 8.432941l0.210823 3.373177v105.411764c0 4.096-0.963765 8.131765-2.800941 11.776a65.807059 65.807059 0 0 1-16.173176 19.937883c-28.792471 24.696471-70.656 25.660235-121.072942-5.722353l-6.324706-4.065883-5.632-3.614117c-30.991059-19.425882-47.887059-18.913882-58.277647-10.029177l-0.542117 0.512v28.340706l2.499764 1.385412c12.257882 6.595765 25.148235 13.191529 38.008471 19.305412 7.951059 3.794824 15.661176 7.288471 22.979765 10.420706 11.986824 5.12 22.768941 9.155765 31.924706 11.926588 21.564235 6.475294 54.452706 10.842353 92.461176 13.402353l10.480941 0.692706 21.594353 1.054117 22.287059 0.752942 5.632 0.150588 5.662118 0.12047 22.859294 0.301177h13.492706c14.968471 0 26.684235 12.348235 26.352941 26.895059l-0.301177 3.162353-17.52847 122.970353a26.352941 26.352941 0 0 1-11.14353 17.980235l-3.162353 1.867294-5.933176 2.921412-11.745882 5.541647 3.282823 16.956235 5.51153 26.473412 5.270588 24.304941 3.343059 14.396235 4.156235 16.173177 2.379294 8.734117 5.270588 18.672942 5.963294 20.208941 3.222589 10.631529a3622.490353 3622.490353 0 0 0 24.545882 76.498824l17.287529 50.778353 3.192471 9.155764a26.352941 26.352941 0 0 1-21.504 34.936471l-3.312941 0.210823H180.705882a26.352941 26.352941 0 0 1-25.750588-31.924705l1.445647-4.698353 8.161883-23.612236 3.011764-8.794353c8.794353-25.840941 17.588706-52.464941 25.810824-78.426353l7.529412-24.094117 6.26447-20.961883 5.632-19.425882 4.909177-17.889882 4.156235-16.173177 1.807059-7.439059 9.788235-45.327058 5.632-28.03953 0.421647-2.529882-15.902118-6.354824a26.352941 26.352941 0 0 1-15.570823-17.317647l-0.722824-3.433411-17.588706-122.970353a26.352941 26.352941 0 0 1 22.768942-29.876706l3.132235-0.210824 22.859294-0.421647 25.539765-0.903529c11.715765-0.481882 23.401412-1.084235 34.846117-1.807059l16.956236-1.204706 14.155294-1.204706 17.739294-1.776941 16.173176-1.987765c15.390118-2.108235 28.310588-4.577882 38.128942-7.28847 10.119529-2.800941 21.985882-6.927059 35.237647-12.197647 7.830588-3.132235 16.082824-6.625882 24.606117-10.390589 9.216-4.096 18.432-8.372706 27.467294-12.739764l13.372236-6.565647 3.011764-1.505883V173.989647a26.503529 26.503529 0 0 1 1.716706-9.426823l0.602353-1.325177-0.451764 0.903529 0.421647-0.903529 0.481882-1.054118 0.301176-0.602353a66.650353 66.650353 0 0 1 15.872-19.335529c28.792471-24.666353 70.656-25.660235 121.072942 5.722353zM533.564235 554.767059l-2.379294 2.409412-5.75247 6.294588-17.28753 19.968-7.469176 8.342588c-3.945412 4.336941-7.408941 7.830588-10.571294 10.631529 3.132235 69.692235-11.504941 136.884706-38.038589 199.107765-4.879059 11.474824-9.788235 21.955765-14.546823 31.322353h189.138823c-4.758588-9.366588-9.667765-19.847529-14.576941-31.322353-27.919059-65.505882-42.676706-136.493176-37.406117-210.160941l-1.92753-1.716706-1.927529-1.746823-24.033883-22.136471-6.927058-6.023529-1.566118-1.295059-1.505882-1.204706-3.222589-2.469647z m-145.317647-1.686588l-9.517176 3.644235c-31.021176 11.324235-60.446118 16.323765-88.184471 13.673412l-6.204235 30.629647-7.619765 35.388235-3.584 15.36-4.367059 17.046588-5.12 18.672941-5.842823 20.178824-6.53553 21.684706-7.649882 24.606117c-5.541647 17.558588-11.354353 35.418353-17.257412 53.12753l-8.673882 25.690353h159.472941l0.692706-1.114353 2.258824-3.794824c7.981176-13.703529 15.962353-29.455059 23.491764-47.013647 23.491765-55.115294 36.442353-114.356706 33.882353-175.22447a110.351059 110.351059 0 0 1-14.607059-13.854118l-3.553882-3.945412-23.280941-26.774588-5.240471-5.511529-2.56-2.469647z m285.816471-0.361412l-3.403294 2.409412a160.015059 160.015059 0 0 0-9.125647 7.439058l-3.614118 3.192471-2.800941 2.529882-22.046118 20.329412-5.12 4.48753-0.301176 0.240941-0.301177 0.210823v0.421647c-4.818824 64.963765 8.222118 128.240941 33.219765 186.88 7.499294 17.558588 15.510588 33.310118 23.491765 46.98353l2.951529 4.909176 159.412706 0.030118-8.613647-25.690353c-2.951529-8.854588-5.903059-17.769412-8.764235-26.624l-8.523295-26.50353-7.649882-24.576-6.535529-21.684705-5.842824-20.208942-5.12-18.672941a1010.266353 1010.266353 0 0 1-2.258823-8.734117l-4.005647-16.203295-6.53553-29.876705-7.348706-34.996706c-13.733647 5.180235-24.033882 7.830588-32.316235 7.830588-8.372706 0-14.757647-1.415529-23.130353-5.601882l-4.367059-2.319059-7.740235-4.608-2.138353-1.355294-2.258824-1.445647-17.950117-11.745883-11.264-7.047529z" fill="#568af2" /></svg>