<svg class="icon" style="width: 1em;height: 1em;vertical-align: middle;fill: currentColor;overflow: hidden;" viewBox="0 0 1024 1024" version="1.1" xmlns="http://www.w3.org/2000/svg" width="32" height="32"><path d="M451.885176 124.385882A95.623529 95.623529 0 0 0 361.712941 219.858824l-0.030117 268.679529-0.602353-0.903529a98.304 98.304 0 0 0-161.852236 111.254588l165.104941 266.209882c5.662118 9.065412 15.570824 14.576941 26.232471 14.576941h343.04a79.058824 79.058824 0 0 0 79.028706-79.058823V448l-0.150588-4.728471a64.752941 64.752941 0 0 0-62.433883-59.994353l-197.150117-6.595764 0.030117-156.822588a95.623529 95.623529 0 0 0-95.623529-95.62353l-5.421177 0.150588z" fill="#568af2" /></svg>