<svg class="icon" style="width: 1em;height: 1em;vertical-align: middle;fill: currentColor;overflow: hidden;" viewBox="0 0 1024 1024" version="1.1" xmlns="http://www.w3.org/2000/svg" width="32" height="32"><path d="M432.880941 834.981647c-55.386353 0-89.901176-33.731765-97.159529-74.270118l-0.783059-4.638117-31.051294-202.059294H203.354353a79.149176 79.149176 0 0 1-78.968471-74.089412l-0.150588-5.029647 0.271059-6.53553a79.088941 79.088941 0 0 1 78.908235-72.553411l314.88 0.150588-3.102117-3.46353-6.475295-6.836705-20.419764-20.781177c-33.008941-34.424471-47.435294-58.458353-47.435294-92.461176 0-79.36 55.115294-113.061647 107.158588-68.788706l3.674353 3.162353 16.685176 14.757647 92.190118 84.148706 97.611294 90.051764h95.171765c13.402353 0 24.515765 10.059294 26.142117 23.070118l0.180706 3.312941v386.499765a26.352941 26.352941 0 0 1-23.04 26.142118l-3.312941 0.210823zM826.970353 448.451765h-52.705882v333.793882h52.705882V448.451765z" fill="#568af2" /></svg>