<svg class="icon" style="width: 1em;height: 1em;vertical-align: middle;fill: currentColor;overflow: hidden;" viewBox="0 0 1024 1024" version="1.1" xmlns="http://www.w3.org/2000/svg" width="32" height="32"><path d="M373.970824 124.235294a219.617882 219.617882 0 0 1 96.677647 416.828235l-0.060236 132.909177 383.337412 83.335529c10.992941 2.409412 19.154824 11.444706 20.540235 22.40753l0.210824 3.343059v70.26447a26.352941 26.352941 0 0 1-52.525177 3.312941l-0.180705-3.312941-0.030118-49.031529-383.307294-83.33553a26.352941 26.352941 0 0 1-20.540236-22.407529l-0.210823-3.312941v-170.767059V343.823059a43.911529 43.911529 0 0 0-87.642353-4.216471l-0.210824 4.216471v509.470117a26.352941 26.352941 0 0 1-52.495058 3.312942l-0.210824-3.312942V541.093647a219.648 219.648 0 0 1 96.64753-416.858353z" fill="#568af2" /></svg>