<svg class="icon" style="width: 1em;height: 1em;vertical-align: middle;fill: currentColor;overflow: hidden;" viewBox="0 0 1024 1024" version="1.1" xmlns="http://www.w3.org/2000/svg" width="32" height="32"><path d="M833.566118 853.323294a26.352941 26.352941 0 0 1-26.352942 26.352941H420.743529a26.352941 26.352941 0 0 1-26.352941-26.352941v-95.171765l-18.733176-20.48-121.976471-133.933176-47.134117-52.796235-6.204236-7.439059c-39.213176-50.718118-5.300706-103.092706 71.981177-103.092706 34.093176 0 57.976471 14.546824 92.039529 47.736471l6.505412 6.445176 13.251765 13.312 6.475294 6.234353 3.975529 3.674353 0.030118-129.957647-0.150588-184.470588a79.088941 79.088941 0 0 1 158.057411-5.029647l0.150589 4.999529-0.030118 118.061176 203.776 31.352471 7.830588 1.505882c36.713412 8.734118 66.770824 40.237176 69.210353 89.630118l0.150588 6.535529zM473.479529 176.941176a26.383059 26.383059 0 0 0-26.142117 23.100236l-0.210824 3.312941 0.120471 327.499294-0.150588 29.093647-0.301177 3.614118-0.963765 4.005647-0.421647 0.963765-8.884706 12.167529-15.811764 3.493647v1.776941c-17.317647 0-32.617412-6.384941-48.549647-18.311529l-5.360941-4.216471-5.421177-4.577882-3.373176-3.011765-7.077647-6.686118-22.528-22.467764c-24.937412-24.365176-39.845647-33.581176-56.079059-33.581177h-4.939294l-4.517647 0.120471-7.830589 0.451765c-19.817412 1.626353-21.413647 6.927059-13.161411 17.438117l1.776941 2.168471 4.818823 5.601882 37.737412 42.224941 146.100706 160.436706h348.551529v-271.119059c0-24.395294-10.541176-38.339765-24.425411-43.52l-3.011765-0.993882-3.343059-0.752941-6.294588-1.054118-221.455059-33.972706a26.352941 26.352941 0 0 1-22.226824-22.859294l-0.180705-3.19247V203.354353a26.443294 26.443294 0 0 0-26.443295-26.413177z" fill="#568af2" /></svg>