<svg class="icon" style="width: 1em;height: 1em;vertical-align: middle;fill: currentColor;overflow: hidden;" viewBox="0 0 1024 1024" version="1.1" xmlns="http://www.w3.org/2000/svg" width="32" height="32"><path d="M452.005647 317.650824a70.264471 70.264471 0 0 0-65.475765 70.113882v142.095059l-1.054117-0.692706a93.665882 93.665882 0 0 0-106.315294 7.408941c-34.243765 27.346824-44.664471 74.511059-23.491765 112.489412 57.133176 102.610824 124.325647 182.814118 200.704 211.395764 80.624941 30.117647 142.817882 29.515294 212.871529-0.481882 38.731294-16.564706 72.372706-49.694118 101.074824-90.352941 13.643294-19.365647 20.299294-42.917647 20.299294-67.945412v-138.24a70.264471 70.264471 0 0 0-70.264471-70.26447l-4.818823 0.150588a69.963294 69.963294 0 0 0-18.281412 3.734588l-1.536 0.572235-0.361412-0.813176A70.264471 70.264471 0 0 0 632.470588 458.029176l-4.818823 0.180706a69.963294 69.963294 0 0 0-18.251294 3.704471l-1.566118 0.572235-0.361412-0.783059a70.264471 70.264471 0 0 0-62.855529-38.791529l-4.818824 0.150588c-3.162353 0.210824-6.294588 0.632471-9.33647 1.264941l-3.403294 0.813177v-37.376a70.264471 70.264471 0 0 0-70.264471-70.264471l-4.818824 0.150589zM288.828235 219.768471a26.352941 26.352941 0 0 1 34.544941-2.319059l2.710589 2.349176 52.705882 52.705883a26.352941 26.352941 0 0 1-34.575059 39.634823l-2.710588-2.379294-52.705882-52.705882a26.352941 26.352941 0 0 1 0-37.25553z m137.276236-95.171765a26.352941 26.352941 0 0 1 29.575529 18.432l0.752941 3.222588 17.558588 105.411765a26.352941 26.352941 0 0 1-51.230117 11.89647l-0.752941-3.222588-17.558589-105.411765a26.352941 26.352941 0 0 1 21.654589-30.32847z m122.940235 81.648941a26.352941 26.352941 0 0 1 45.537882 26.383059l-1.686588 2.861176-35.117176 52.705883a26.352941 26.352941 0 0 1-45.537883-26.383059l1.686588-2.861177 35.117177-52.705882z" fill="#568af2" /></svg>