<svg class="icon" style="width: 1em;height: 1em;vertical-align: middle;fill: currentColor;overflow: hidden;" viewBox="0 0 1024 1024" version="1.1" xmlns="http://www.w3.org/2000/svg" width="32" height="32"><path d="M180.705882 833.566118a26.352941 26.352941 0 0 1-26.142117-23.04l-0.210824-3.312942V420.743529c0-13.432471 10.059294-24.515765 23.04-26.142117l3.312941-0.210824h95.171765l152.094118-138.601412 42.134588-37.827764 16.504471-14.456471c51.892706-44.062118 107.038118-10.450824 107.038117 68.848941 0 36.171294-16.414118 60.897882-54.211765 98.544942l-13.312 13.251764-6.234352 6.445177-3.674353 3.975529 131.824941 0.030118 182.603294-0.150588a79.088941 79.088941 0 0 1 79.149176 79.028705l-0.150588 4.99953a79.149176 79.149176 0 0 1-78.96847 74.179765l-118.091295-0.030118-31.322353 203.776-1.505882 7.830588c-9.065412 38.309647-43.008 69.360941-96.165647 69.360941H180.705882z m79.058824-386.529883h-52.705882v333.824h52.705882V447.036235z" fill="#568af2" /></svg>