<svg class="icon" style="width: 1em;height: 1em;vertical-align: middle;fill: currentColor;overflow: hidden;" viewBox="0 0 1024 1024" version="1.1" xmlns="http://www.w3.org/2000/svg" width="32" height="32"><path d="M283.075765 154.352941c33.942588 0 61.470118 27.527529 61.470117 61.500235v351.352471A61.500235 61.500235 0 0 1 283.105882 628.705882H215.853176a61.500235 61.500235 0 0 1-61.289411-66.590117l29.274353-351.382589A61.500235 61.500235 0 0 1 245.157647 154.352941z m0 52.705883h-37.948236a8.794353 8.794353 0 0 0-8.734117 8.041411L207.058824 566.512941c-0.421647 5.12 3.614118 9.517176 8.734117 9.517177H283.105882c4.818824 0 8.764235-3.915294 8.764236-8.794353V215.853176a8.794353 8.794353 0 0 0-8.764236-8.794352z m474.112-52.705883h-298.435765a61.500235 61.500235 0 0 0-61.500235 61.500235v344.786824c0 24.877176 14.968471 47.284706 37.526588 57.916235 40.267294 18.974118 74.179765 42.887529 89.208471 67.97553 10.721882 17.859765 18.974118 45.357176 24.545882 78.366117 3.222588 19.124706 5.180235 37.767529 6.204235 53.940706l0.572235 11.354353 0.180706 4.758588 0.421647 4.035765c5.782588 41.652706 43.158588 43.730824 79.088942 24.244706 25.298824-13.733647 51.260235-37.918118 65.957647-62.433882 15.269647-25.449412 19.968-57.072941 17.799529-91.949177a214.558118 214.558118 0 0 0-5.360941-36.653176l-2.95153-11.956706-3.764705-13.613177-5.180236-17.558588-5.300706-17.679059h155.346824a61.500235 61.500235 0 0 0 59.151059-78.185411L816.368941 199.137882a61.500235 61.500235 0 0 0-59.181176-44.784941z" fill="#568af2" /></svg>