<svg class="icon" style="width: 1em;height: 1em;vertical-align: middle;fill: currentColor;overflow: hidden;" viewBox="0 0 1024 1024" version="1.1" xmlns="http://www.w3.org/2000/svg" width="32" height="32"><path d="M252.807529 417.882353c33.972706 0 61.500235 27.527529 61.500236 61.500235V813.176471a61.500235 61.500235 0 0 1-61.500236 61.500235H214.768941a61.500235 61.500235 0 0 1-61.259294-56.169412l-29.033412-333.793882a61.500235 61.500235 0 0 1 61.259294-66.831059z m0 52.705882H185.735529a8.794353 8.794353 0 0 0-8.734117 9.547294l29.003294 333.793883c0.391529 4.547765 4.216471 8.041412 8.734118 8.041412h38.068705c4.848941 0 8.794353-3.915294 8.794353-8.794353V479.382588a8.794353 8.794353 0 0 0-8.794353-8.794353z m272.865883-280.576l-0.301177 2.078118-0.240941 4.126118-0.12047 4.547764c-0.813176 18.130824-2.891294 40.387765-6.746353 63.337412-5.541647 33.039059-13.793882 60.536471-24.515765 78.396235-15.058824 25.057882-48.971294 49.001412-89.208471 67.97553-22.588235 10.631529-37.526588 33.039059-37.526588 57.916235V813.176471c0 33.972706 27.527529 61.500235 61.500235 61.500235h298.405647c27.527529 0 51.712-18.311529 59.181177-44.784941l94.358588-334.064941 1.054118-4.367059a61.500235 61.500235 0 0 0-60.235294-73.848471l-155.316706-0.030118 10.450823-35.177411 3.764706-13.613177c5.029647-19.064471 7.348706-32.527059 8.342588-48.609882 2.138353-34.876235-2.56-66.499765-17.799529-91.949177-14.697412-24.515765-40.658824-48.700235-65.957647-62.433882-35.960471-19.516235-73.336471-17.408-79.119059 24.214588z" fill="#568af2" /></svg>