<svg class="icon" style="width: 1em;height: 1em;vertical-align: middle;fill: currentColor;overflow: hidden;" viewBox="0 0 1024 1024" version="1.1" xmlns="http://www.w3.org/2000/svg" width="32" height="32"><path d="M465.317647 154.352941a121.223529 121.223529 0 0 1 121.223529 121.22353v100.141176h163.087059a89.6 89.6 0 0 1 64.512 26.383059l4.126118 4.427294c17.257412 19.817412 24.907294 46.230588 20.961882 72.282353l-43.64047 284.551529a89.539765 89.539765 0 0 1-89.298824 76.197647H338.341647l-83.486118-0.030117a99.388235 99.388235 0 0 1-99.388235-80.564706l-0.903529-5.51153-0.210824-3.523764v-221.364706l0.240941-3.553882c6.565647-48.549647 47.104-87.552 94.509177-89.47953l5.270588-0.060235 68.879059-0.030118 118.000941-265.426823a26.352941 26.352941 0 0 1 20.630588-15.450353z m-152.847059 333.793883H253.921882c-19.877647-0.331294-38.731294 14.938353-45.206588 35.478588l-1.114353 4.156235-0.542117 2.921412v216.997647l0.542117 3.011765c4.276706 18.432 19.275294 32.316235 37.948235 35.44847l4.367059 0.542118 4.48753 0.12047 58.066823-0.030117v-298.646588z" fill="#568af2" /></svg>