<svg class="icon" style="width: 1em;height: 1em;vertical-align: middle;fill: currentColor;overflow: hidden;" viewBox="0 0 1024 1024" version="1.1" xmlns="http://www.w3.org/2000/svg" width="32" height="32"><path d="M633.524706 342.768941c9.456941 9.456941 10.24 24.244706 2.379294 34.575059l-2.379294 2.710588a26.352941 26.352941 0 0 1-34.544941 2.349177l-2.710589-2.349177-105.411764-105.411764-0.451765-0.481883a26.503529 26.503529 0 0 1-1.295059-1.445647l1.746824 1.92753a26.533647 26.533647 0 0 1-7.710118-18.642824 26.292706 26.292706 0 0 1 5.360941-15.962353l0.602353-0.752941a26.503529 26.503529 0 0 1 1.295059-1.445647l0.451765-0.481883 105.411764-105.411764a26.352941 26.352941 0 0 1 39.634824 34.575059l-2.379294 2.710588-60.416 60.416h94.509176c51.501176 0 93.635765 40.357647 96.466824 91.136l0.150588 5.481412 0.030118 363.821176a96.677647 96.677647 0 0 1-26.383059 189.590588 96.617412 96.617412 0 0 1-26.352941-189.620706V326.264471c0-22.829176-17.408-41.562353-39.695059-43.700706l-4.216471-0.210824h-94.509176l60.416 60.416zM281.088 124.235294a96.617412 96.617412 0 0 1 26.352941 189.620706v376.199529a96.677647 96.677647 0 0 1-26.352941 189.620706 96.617412 96.617412 0 0 1-26.352941-189.620706V313.856a96.677647 96.677647 0 0 1 26.352941-189.620706z" fill="#568af2" /></svg>