<svg class="icon" style="width: 1em;height: 1em;vertical-align: middle;fill: currentColor;overflow: hidden;" viewBox="0 0 1024 1024" version="1.1" xmlns="http://www.w3.org/2000/svg" width="32" height="32"><path d="M414.117647 184.470588c160.015059 0 289.882353 43.279059 289.882353 114.206118v133.451294a202.089412 202.089412 0 1 1-115.802353 381.560471l10.541177-3.072c-50.778353 15.36-115.832471 23.883294-184.621177 23.883294-6.415059 0-12.739765-0.060235-19.064471-0.210824l-18.703058-0.602353-18.371765-1.024c-6.023529-0.391529-12.047059-0.873412-17.950118-1.415529l-17.498353-1.807059a652.348235 652.348235 0 0 1-25.359058-3.433412l-16.26353-2.770823-15.661176-3.132236c-81.889882-17.679059-137.547294-50.898824-140.860236-95.563294l-0.150588-4.21647v-421.647059l0.150588-4.216471c5.059765-68.427294 132.909176-109.989647 289.731765-109.989647z m300.272941 374.302118l-2.68047 2.349176-34.063059 34.093177-34.063059-34.093177-2.710588-2.349176a26.352941 26.352941 0 0 0-36.924236 36.924235l2.349177 2.710588L640.391529 632.470588l-34.093176 34.063059-2.349177 2.710588a26.352941 26.352941 0 0 0 36.924236 36.924236l2.710588-2.349177 34.063059-34.093176 34.063059 34.093176 2.710588 2.349177a26.352941 26.352941 0 0 0 36.924235-36.924236l-2.349176-2.710588L714.902588 632.470588l34.093177-34.063059 2.349176-2.710588a26.352941 26.352941 0 0 0-36.924235-36.924235zM176.971294 508.295529v71.469177c0 10.330353 16.564706 22.106353 44.754824 32.557176l10.390588 3.614118 5.571765 1.807059 11.745882 3.403294c4.065882 1.114353 8.252235 2.198588 12.589176 3.252706l13.402353 3.011765c2.288941 0.512 4.608 0.993882 6.957177 1.445647l14.486588 2.710588c4.939294 0.843294 9.999059 1.626353 15.149177 2.409412l15.751529 2.108235 16.353882 1.807059 16.865883 1.415529a747.971765 747.971765 0 0 0 114.838588-0.572235 201.607529 201.607529 0 0 1 17.618823-89.268706c-25.449412 2.620235-52.103529 3.945412-79.299764 3.945412-98.032941 0-184.711529-16.263529-237.176471-45.116236z m474.413177-140.559058c-23.371294 12.860235-53.488941 23.190588-88.395295 30.72l-15.661176 3.132235-16.233412 2.770823c-8.252235 1.295059-16.715294 2.409412-25.359059 3.433412l-17.498353 1.807059c-5.903059 0.542118-11.896471 1.024-17.950117 1.415529l-18.371765 1.024-18.703059 0.602353a872.990118 872.990118 0 0 1-38.128941 0l-18.703059-0.602353-18.371764-1.024c-6.023529-0.391529-12.047059-0.873412-17.950118-1.415529l-17.498353-1.807059a652.348235 652.348235 0 0 1-25.359059-3.433412l-16.263529-2.770823-15.661177-3.132235c-34.846118-7.529412-64.963765-17.859765-88.335059-30.72l0.030118 71.740235 0.240941 1.897412c1.596235 7.318588 11.023059 15.239529 26.624 22.829176l8.432941 3.824941c5.963294 2.529882 12.619294 4.999529 19.877648 7.378824l11.294117 3.493647c1.957647 0.602353 3.975529 1.144471 5.993412 1.686588l12.589176 3.252706 6.625883 1.536 13.733647 2.921412 7.168 1.385412 14.817882 2.56c10.089412 1.596235 20.630588 3.011765 31.503059 4.21647l16.594824 1.626353c19.666824 1.686588 40.357647 2.620235 61.680941 2.620235 42.465882 0 83.365647-3.463529 119.657411-9.938823a113.995294 113.995294 0 0 1 7.830589-7.68c3.734588-3.403294 7.589647-6.625882 11.535059-9.758118l2.349176-1.807059a201.999059 201.999059 0 0 1 8.643765-6.204235l2.228706-1.505882a201.697882 201.697882 0 0 1 76.980705-30.479059l7.951059-1.174588z m-123.78353 400.022588l-5.24047-6.083765-0.692706-0.813176-1.505883-1.867294a202.812235 202.812235 0 0 1-3.855058-4.939295l-2.108236-2.800941a202.571294 202.571294 0 0 1-3.222588-4.608l-2.469647-3.70447a202.541176 202.541176 0 0 1-18.221177-34.816l-1.415529-3.644236a200.673882 200.673882 0 0 1-4.367059-12.649411l-0.301176-0.933647c-22.648471 2.048-46.140235 3.072-70.053647 3.072-98.032941 0-184.711529-16.263529-237.176471-45.116236v71.469177c0 12.137412 22.949647 26.292706 60.717177 37.948235l11.745882 3.433412c4.065882 1.084235 8.252235 2.168471 12.589176 3.222588l13.402353 3.041882 14.125177 2.800942 14.817882 2.56 7.649883 1.204705 15.751529 2.108236 8.131765 0.903529 16.564706 1.626353 17.106823 1.264941c14.456471 0.903529 29.334588 1.355294 44.574118 1.355294 35.930353 0 70.625882-2.469647 102.219294-7.107764l15.390117-2.499765-4.156235-4.427294-0.963765-1.084235-2.499764-2.861177-0.301177-0.391529 3.764706 4.336941z" fill="#568af2" /></svg>