<svg class="icon" style="width: 1em;height: 1em;vertical-align: middle;fill: currentColor;overflow: hidden;" viewBox="0 0 1024 1024" version="1.1" xmlns="http://www.w3.org/2000/svg" width="32" height="32"><path d="M414.117647 184.470588c160.015059 0 289.882353 43.279059 289.882353 114.206118v133.451294a202.089412 202.089412 0 1 1-115.802353 381.560471l10.541177-3.072c-50.778353 15.36-115.832471 23.883294-184.621177 23.883294-6.415059 0-12.739765-0.060235-19.064471-0.210824l-18.703058-0.602353-18.371765-1.024c-6.023529-0.391529-12.047059-0.873412-17.950118-1.415529l-17.498353-1.807059a652.348235 652.348235 0 0 1-25.359058-3.433412l-16.26353-2.770823-15.661176-3.132236c-81.889882-17.679059-137.547294-50.898824-140.860236-95.563294l-0.150588-4.21647v-421.647059l0.150588-4.216471c5.059765-68.427294 132.909176-109.989647 289.731765-109.989647zM176.941176 648.854588v71.469177c0 12.137412 22.949647 26.292706 60.717177 37.948235l11.745882 3.433412c4.065882 1.084235 8.252235 2.168471 12.589177 3.222588l13.402353 3.041882 14.125176 2.800942 14.817883 2.56 7.649882 1.204705 15.751529 2.108236 8.131765 0.903529 16.564706 1.626353 17.106823 1.264941c14.456471 0.903529 29.334588 1.355294 44.574118 1.355294 35.930353 0 70.625882-2.469647 102.219294-7.107764l15.36-2.499765-5.12-5.571765-1.475765-1.686588-1.325176-1.505882-1.445647-1.746824-2.198588-2.68047a202.812235 202.812235 0 0 1-9.185883-12.348236l-2.469647-3.70447a202.541176 202.541176 0 0 1-19.696941-38.610824l-1.415529-3.824941-0.722824-2.108235-0.722823-2.048a200.493176 200.493176 0 0 1-1.716706-5.451294c-22.678588 2.048-46.170353 3.072-70.083765 3.072-98.032941 0-184.711529-16.263529-237.176471-45.116236z m586.571295 9.938824c-1.505882 10.601412-3.915294 21.714824-7.017412 33.28a472.003765 472.003765 0 0 1-24.003765 66.138353c-2.349176 5.360941-4.788706 10.661647-7.228235 15.841882a149.594353 149.594353 0 0 0 99.388235-115.230118l-61.138823-0.030117z m-171.730824 0h-61.168941l1.385412 6.806588a149.594353 149.594353 0 0 0 98.032941 108.453647 748.423529 748.423529 0 0 1-7.228235-15.841882 472.003765 472.003765 0 0 1-24.003765-66.138353 277.443765 277.443765 0 0 1-7.017412-33.28z m118.332235 0h-64.933647c1.144471 6.174118 2.650353 12.679529 4.517647 19.486117 4.969412 18.371765 12.288 38.189176 21.323294 58.639059l3.282824 7.318588 3.312941 7.137883 3.373177-7.137883 3.312941-7.318588c9.035294-20.449882 16.323765-40.267294 21.323294-58.639059 1.807059-6.806588 3.312941-13.312 4.487529-19.516235zM176.941176 508.265412v71.710117l0.210824 1.837177c2.048 9.818353 18.251294 20.720941 44.544 30.479059l10.390588 3.614117 5.571765 1.807059 11.745882 3.403294c4.065882 1.114353 8.252235 2.198588 12.589177 3.252706l13.402353 3.011765c2.288941 0.512 4.608 0.993882 6.957176 1.445647l14.486588 2.710588c4.939294 0.843294 9.999059 1.626353 15.149177 2.409412l15.751529 2.108235 16.353883 1.807059 16.865882 1.415529a747.971765 747.971765 0 0 0 114.838588-0.572235 201.607529 201.607529 0 0 1 17.618824-89.268706c-25.449412 2.620235-52.103529 3.945412-79.299765 3.945412-98.032941 0-184.711529-16.263529-237.176471-45.116235z m453.12-17.468236l-6.354823 2.349177a149.293176 149.293176 0 0 0-57.193412 39.544471 148.600471 148.600471 0 0 0-35.870117 73.366588l61.138823 0.030117c1.505882-10.601412 3.915294-21.684706 7.017412-33.249882 5.752471-21.202824 13.974588-43.429647 24.003765-66.138353 2.349176-5.391059 4.818824-10.691765 7.258352-15.872z m47.585883 22.708706l-1.716706 3.614118c-1.656471 3.614118-3.312941 7.228235-4.909177 10.842353-9.035294 20.48-16.353882 40.297412-21.353411 58.669176a243.290353 243.290353 0 0 0-4.48753 19.486118h64.933647a243.290353 243.290353 0 0 0-4.517647-19.486118 420.833882 420.833882 0 0 0-21.323294-58.639058l-3.282823-7.318589-3.343059-7.168z m47.616-22.64847l1.897412 4.065882c1.807059 3.885176 3.614118 7.830588 5.330823 11.776 10.029176 22.708706 18.251294 44.935529 24.003765 66.138353 3.132235 11.535059 5.481412 22.648471 7.017412 33.249882h61.138823a149.564235 149.564235 0 0 0-99.388235-115.230117z m-73.908706-123.181177c-23.371294 12.890353-53.488941 23.220706-88.395294 30.750118l-15.661177 3.132235-16.233411 2.770824c-8.252235 1.295059-16.715294 2.409412-25.359059 3.433412l-17.498353 1.807058c-5.903059 0.542118-11.896471 1.024-17.950118 1.41553l-18.371765 1.024-18.703058 0.602353a872.990118 872.990118 0 0 1-38.128942 0l-18.703058-0.602353-18.371765-1.024c-6.023529-0.391529-12.047059-0.873412-17.950118-1.41553l-17.498353-1.807058a652.348235 652.348235 0 0 1-25.359058-3.433412l-16.26353-2.770824-15.661176-3.132235c-34.846118-7.529412-64.963765-17.859765-88.335059-30.72l0.030117 71.740235 0.240942 1.897412c1.596235 7.318588 11.023059 15.239529 26.624 22.829176l8.432941 3.824942c5.963294 2.529882 12.619294 4.999529 19.877647 7.378823l11.294118 3.493647c1.957647 0.602353 3.975529 1.144471 5.993411 1.686588l12.589177 3.252706 6.625882 1.536 13.733647 2.921412 7.168 1.385412 14.817883 2.56c10.089412 1.596235 20.630588 3.011765 31.503058 4.21647l16.594824 1.626353c19.666824 1.686588 40.357647 2.620235 61.680941 2.620236 42.465882 0 83.365647-3.463529 119.657412-9.938824a113.995294 113.995294 0 0 1 7.830588-7.68c3.734588-3.403294 7.589647-6.625882 11.535059-9.758117l2.349176-1.807059a201.999059 201.999059 0 0 1 8.643765-6.204236l2.228706-1.505882a201.697882 201.697882 0 0 1 76.980706-30.479059l7.951059-1.174588z" fill="#568af2" /></svg>