<svg class="icon" style="width: 1em;height: 1em;vertical-align: middle;fill: currentColor;overflow: hidden;" viewBox="0 0 1024 1024" version="1.1" xmlns="http://www.w3.org/2000/svg" width="32" height="32"><path d="M308.705882 124.235294c100.291765 0 184.470588 37.406118 184.470589 96.617412v210.823529c0 59.211294-84.208941 96.647529-184.470589 96.64753-97.581176 0-179.892706-35.448471-184.289882-91.858824l-0.180706-4.788706v-210.823529l0.180706-4.728471c4.397176-56.470588 86.738824-91.888941 184.289882-91.888941z m0 298.676706c-51.109647 0-98.032941-9.728-131.764706-27.105882v35.870117c0 18.432 57.374118 43.941647 131.764706 43.941647 71.800471 0 127.789176-23.792941 131.553883-42.014117l0.210823-1.92753 0.030118-35.870117c-33.731765 17.377882-80.685176 27.105882-131.794824 27.105882z m131.794824-132.517647c-33.731765 17.377882-80.685176 27.105882-131.794824 27.105882-51.109647 0-98.032941-9.728-131.764706-27.105882v35.870118c0 18.432 57.374118 43.941647 131.764706 43.941647 74.390588 0 131.764706-25.509647 131.764706-43.941647z m307.410823-131.011765c51.531294 0 93.665882 40.327529 96.496942 91.136l0.150588 5.481412V361.411765a26.352941 26.352941 0 0 1-52.525177 3.312941l-0.180706-3.312941V256c0-22.829176-17.438118-41.592471-39.695058-43.730824l-4.216471-0.180705h-105.411765a26.352941 26.352941 0 0 1-3.312941-52.525177l3.312941-0.180706h105.411765zM185.735529 616.146824c13.432471 0 24.515765 10.059294 26.142118 23.070117l0.210824 3.312941v105.411765c0 22.799059 17.408 41.562353 39.695058 43.700706l4.216471 0.210823H361.411765a26.352941 26.352941 0 0 1 3.312941 52.495059l-3.312941 0.210824H256a96.617412 96.617412 0 0 1-96.466824-91.166118l-0.150588-5.481412v-105.411764c0-14.546824 11.776-26.352941 26.352941-26.352941z m509.470118-140.528942a114.206118 114.206118 0 0 1 67.764706 206.125177 184.470588 184.470588 0 0 1 116.705882 171.580235 26.352941 26.352941 0 0 1-26.352941 26.352941h-316.235294a26.352941 26.352941 0 0 1-26.352941-26.352941 184.530824 184.530824 0 0 1 116.736-171.610353 114.206118 114.206118 0 0 1 67.764706-206.095059z" fill="#568af2" /></svg>