<svg class="icon" style="width: 1em;height: 1em;vertical-align: middle;fill: currentColor;overflow: hidden;" viewBox="0 0 1024 1024" version="1.1" xmlns="http://www.w3.org/2000/svg" width="32" height="32"><path d="M527.058824 124.235294l9.577411 0.060235c152.395294 1.656471 275.215059 42.917647 280.154353 109.929412l0.150588 4.216471v281.088c0 66.981647-115.832471 109.327059-263.499294 113.78447v56.771765a96.828235 96.828235 0 0 1 66.620236 66.620235H843.294118a26.352941 26.352941 0 0 1 3.312941 52.495059l-3.312941 0.210824-223.262118 0.030117a96.677647 96.677647 0 0 1-185.946353 0L210.823529 809.411765a26.352941 26.352941 0 0 1-3.312941-52.495059l3.312941-0.210824h223.232a96.828235 96.828235 0 0 1 66.650353-66.650353v-56.741647c-144.564706-4.367059-258.620235-45.025882-263.378823-109.568l-0.150588-4.21647V238.441412c0-70.927059 129.867294-114.206118 289.882353-114.206118z m0 368.941177c-98.032941 0-184.711529-16.263529-237.176471-45.116236v71.469177c0 10.330353 16.564706 22.106353 44.754823 32.557176l10.390589 3.614118 5.571764 1.807059 11.745883 3.403294c4.065882 1.114353 8.252235 2.198588 12.589176 3.252706l13.402353 3.011764c2.288941 0.512 4.608 0.993882 6.957177 1.445647l14.486588 2.710589c4.939294 0.843294 9.999059 1.626353 15.149176 2.409411l15.75153 2.108236 16.353882 1.807059 16.865882 1.415529a726.889412 726.889412 0 0 0 106.315295 0l16.865882-1.445647 16.353882-1.807059 15.75153-2.108235c5.150118-0.752941 10.209882-1.536 15.149176-2.409412l14.456471-2.680471 6.987294-1.415529 13.402353-3.041882c4.336941-1.054118 8.523294-2.138353 12.589176-3.252706l11.745883-3.433412 5.571764-1.746823 10.390589-3.644236c26.503529-9.848471 42.767059-20.841412 44.574117-30.72l0.180706-1.837176 0.030118-71.499294c-52.464941 28.912941-139.143529 45.146353-237.206588 45.146353z m157.214117-156.822589l-8.372706 1.867294-15.661176 3.132236-16.233412 2.770823-12.528941 1.807059-12.830118 1.626353-17.498353 1.807059-8.914823 0.752941-9.035294 0.662588-18.371765 1.024-18.703059 0.602353c-6.324706 0.150588-12.649412 0.210824-19.06447 0.210824l-9.577412-0.030118-9.487059-0.180706-18.703059-0.602353-18.371765-1.024-9.035294-0.662588-8.914823-0.752941-17.498353-1.807059-12.830118-1.596235-12.528941-1.837177-16.263529-2.770823-15.661177-3.132236c-34.846118-7.529412-64.963765-17.859765-88.335059-30.72l0.030118 71.469177c0 7.890824 9.697882 16.655059 26.864941 24.997647l8.432941 3.824941c5.963294 2.529882 12.619294 4.999529 19.877647 7.378824l11.294118 3.493647c1.957647 0.602353 3.975529 1.144471 5.993412 1.686588l12.589176 3.252706 6.625883 1.536 13.733647 2.921412 7.168 1.385411 14.817882 2.56c10.089412 1.596235 20.630588 3.011765 31.503059 4.216471l16.594823 1.626353a725.082353 725.082353 0 0 0 123.361883 0l16.564706-1.626353c10.902588-1.204706 21.443765-2.620235 31.533176-4.216471l14.817882-2.56 7.168-1.385411 13.763765-2.921412 12.980706-3.132235c4.216471-1.084235 8.282353-2.198588 12.197647-3.312942l11.324235-3.523764c7.228235-2.379294 13.884235-4.848941 19.877647-7.378824l8.432942-3.824941c17.136941-8.342588 26.834824-17.106824 26.834823-24.997647l0.060235-71.469177c-21.473882 11.806118-48.670118 21.504-80.022588 28.852706z" fill="#568af2" /></svg>