<svg class="icon" style="width: 1em;height: 1em;vertical-align: middle;fill: currentColor;overflow: hidden;" viewBox="0 0 1024 1024" version="1.1" xmlns="http://www.w3.org/2000/svg" width="32" height="32"><path d="M414.117647 184.470588c160.015059 0 289.882353 43.279059 289.882353 114.206118v133.451294a202.089412 202.089412 0 1 1-115.802353 381.560471l10.541177-3.072c-50.778353 15.36-115.832471 23.883294-184.621177 23.883294-6.415059 0-12.739765-0.060235-19.064471-0.210824l-18.703058-0.602353-18.371765-1.024c-6.023529-0.391529-12.047059-0.873412-17.950118-1.415529l-17.498353-1.807059a652.348235 652.348235 0 0 1-25.359058-3.433412l-16.26353-2.770823-15.661176-3.132236c-81.889882-17.679059-137.547294-50.898824-140.860236-95.563294l-0.150588-4.21647v-421.647059l0.150588-4.216471c5.059765-68.427294 132.909176-109.989647 289.731765-109.989647z m263.529412 333.793883a26.352941 26.352941 0 0 0-26.142118 23.070117l-0.210823 3.312941v112.037647l-25.298824-25.298823-2.710588-2.349177a26.352941 26.352941 0 0 0-36.894118 36.924236l2.349177 2.710588 70.26447 70.264471 1.92753 1.746823 2.017882 1.505882 2.921412 1.686589 2.831059 1.234823 3.072 0.90353 2.499764 0.451764 3.373177 0.210824 3.373176-0.210824 1.656471-0.301176 1.65647-0.361412 2.95153-0.963765 3.132235-1.475764 1.92753-1.174589 2.349176-1.776941 1.596235-1.475764 70.264471-70.264471 2.349176-2.710588a26.352941 26.352941 0 0 0-36.924235-36.924236l-2.710588 2.379295-25.268706 25.238588v-112.037647l-0.210824-3.312941a26.352941 26.352941 0 0 0-26.142117-23.04z m-500.705883-9.968942v71.469177c0 10.330353 16.564706 22.106353 44.754824 32.557176l10.390588 3.614118 5.571765 1.807059 11.745882 3.403294c4.065882 1.114353 8.252235 2.198588 12.589177 3.252706l13.402353 3.011765c2.288941 0.512 4.608 0.993882 6.957176 1.445647l14.486588 2.710588c4.939294 0.843294 9.999059 1.626353 15.149177 2.409412l15.751529 2.108235 16.353883 1.807059 16.865882 1.415529a747.971765 747.971765 0 0 0 114.838588-0.572235 201.607529 201.607529 0 0 1 17.618824-89.268706c-25.449412 2.620235-52.103529 3.945412-79.299765 3.945412-98.032941 0-184.711529-16.263529-237.176471-45.116236z m474.413177-140.559058c-23.371294 12.860235-53.488941 23.190588-88.395294 30.72l-15.661177 3.132235-16.233411 2.770823c-8.252235 1.295059-16.715294 2.409412-25.359059 3.433412l-17.498353 1.807059c-5.903059 0.542118-11.896471 1.024-17.950118 1.415529l-18.371765 1.024-18.703058 0.602353a872.990118 872.990118 0 0 1-38.128942 0l-18.703058-0.602353-18.371765-1.024c-6.023529-0.391529-12.047059-0.873412-17.950118-1.415529l-17.498353-1.807059a652.348235 652.348235 0 0 1-25.359058-3.433412l-16.26353-2.770823-15.661176-3.132235c-34.846118-7.529412-64.963765-17.859765-88.335059-30.72l0.030117 71.740235 0.240942 1.897412c1.596235 7.318588 11.023059 15.239529 26.624 22.829176l8.432941 3.824941c5.963294 2.529882 12.619294 4.999529 19.877647 7.378824l11.294118 3.493647c1.957647 0.602353 3.975529 1.144471 5.993411 1.686588l12.589177 3.252706 6.625882 1.536 13.733647 2.921412 7.168 1.385412 14.817883 2.56c10.089412 1.596235 20.630588 3.011765 31.503058 4.21647l16.594824 1.626353c19.666824 1.686588 40.357647 2.620235 61.680941 2.620235 42.465882 0 83.365647-3.463529 119.657412-9.938823a113.995294 113.995294 0 0 1 7.830588-7.68c3.734588-3.403294 7.589647-6.625882 11.535059-9.758118l2.349176-1.807059a201.999059 201.999059 0 0 1 8.643765-6.204235l2.228706-1.505882a201.697882 201.697882 0 0 1 76.980706-30.479059l7.951059-1.174588z m-123.783529 400.022588l-5.240471-6.083765-0.692706-0.813176-1.505882-1.867294a202.812235 202.812235 0 0 1-3.855059-4.939295l-2.108235-2.800941a202.571294 202.571294 0 0 1-3.222589-4.608l-2.469647-3.70447a202.541176 202.541176 0 0 1-21.11247-42.435765l-0.722824-2.108235-0.722823-2.048a200.493176 200.493176 0 0 1-1.716706-5.451294c-22.678588 2.048-46.170353 3.072-70.083765 3.072-98.032941 0-184.711529-16.263529-237.176471-45.116236v71.469177c0 12.137412 22.949647 26.292706 60.717177 37.948235l11.745882 3.433412c4.065882 1.084235 8.252235 2.168471 12.589177 3.222588l13.402353 3.041882 14.125176 2.800942 14.817883 2.56 7.649882 1.204705 15.751529 2.108236 8.131765 0.903529 16.564706 1.626353 17.106823 1.264941c14.456471 0.903529 29.334588 1.355294 44.574118 1.355294 35.930353 0 70.625882-2.469647 102.219294-7.107764l15.390118-2.499765-4.156235-4.427294-0.963765-1.084235-2.499765-2.861177-0.301176-0.391529 3.764706 4.336941z" fill="#568af2" /></svg>