<svg class="icon" style="width: 1em;height: 1em;vertical-align: middle;fill: currentColor;overflow: hidden;" viewBox="0 0 1024 1024" version="1.1" xmlns="http://www.w3.org/2000/svg" width="32" height="32"><path d="M527.088941 124.235294c138.089412 0 250.578824 109.929412 254.614588 247.085177l0.090353 7.649882a254.795294 254.795294 0 0 1-228.382117 253.409882l0.030117 57.705412a96.828235 96.828235 0 0 1 66.620236 66.620235H843.294118a26.352941 26.352941 0 0 1 3.312941 52.495059l-3.312941 0.210824-223.262118 0.030117a96.677647 96.677647 0 0 1-185.946353 0L210.823529 809.411765a26.352941 26.352941 0 0 1-3.312941-52.495059l3.312941-0.210824h223.232a96.828235 96.828235 0 0 1 66.650353-66.650353v-57.675294A254.795294 254.795294 0 0 1 527.058824 124.235294h0.030117z m60.837647 281.118118H466.221176c2.228706 48.188235 10.541176 92.340706 23.341177 125.650823 12.890353 33.490824 27.919059 49.995294 37.526588 49.995294 9.637647 0 24.636235-16.504471 37.526588-49.995294 12.8-33.310118 21.112471-77.462588 23.341177-125.650823z m-174.531764 0h-86.678589a202.24 202.24 0 0 0 119.416471 158.810353c-18.672941-40.899765-30.208-96.677647-32.737882-158.810353z m314.006588 0h-86.678588c-2.529882 62.102588-14.034824 117.910588-32.737883 158.810353a202.24 202.24 0 0 0 119.416471-158.810353z m-281.268706-211.546353l-1.41553 0.602353a202.24 202.24 0 0 0-118.000941 158.208h86.678589c2.529882-62.132706 14.034824-117.940706 32.737882-158.810353z m80.926118-16.865883c-9.637647 0-24.636235 16.534588-37.526589 49.995295-12.8 33.340235-21.112471 77.462588-23.341176 125.650823h121.735529c-2.228706-48.188235-10.541176-92.310588-23.341176-125.650823-12.890353-33.460706-27.919059-49.995294-37.526588-49.995295z m80.926117 16.865883l2.409412 5.421176c17.257412 40.327529 27.888941 93.967059 30.328471 153.359059h86.678588a202.24 202.24 0 0 0-119.416471-158.780235z" fill="#568af2" /></svg>