<svg class="icon" style="width: 1em;height: 1em;vertical-align: middle;fill: currentColor;overflow: hidden;" viewBox="0 0 1024 1024" version="1.1" xmlns="http://www.w3.org/2000/svg" width="32" height="32"><path d="M181.970824 875.911529a61.500235 61.500235 0 0 1-61.31953-56.892235L120.470588 814.441412V252.235294c0-32.406588 25.088-58.970353 56.922353-61.319529l4.577883-0.180706h166.881882V146.823529a26.352941 26.352941 0 0 1 52.525176-3.312941l0.180706 3.312941v43.91153h193.264941V146.823529a26.352941 26.352941 0 0 1 52.495059-3.312941l0.210824 3.312941v43.91153h166.912c32.406588 0 58.970353 25.088 61.319529 56.922353l0.150588 4.577882v562.206118a61.500235 61.500235 0 0 1-56.892235 61.319529l-4.577882 0.150588h-632.470588z m219.587764-421.647058h-52.705882v158.117647H173.176471v52.705882h175.676235v158.117647h52.705882v-158.117647h193.264941v158.117647h52.705883v-158.117647h175.676235v-52.705882H647.529412v-158.117647h-52.705883v158.117647h-193.264941v-158.117647z m-52.705882-210.82353H181.970824c-4.065882 0-7.469176 0.993882-8.493177 2.349177l-0.301176 0.843294v154.925176h650.029176V246.633412c0-1.445647-2.710588-2.710588-6.445176-3.072l-2.319059-0.120471H647.529412v43.941647a26.352941 26.352941 0 0 1-52.495059 3.312941l-0.210824-3.312941V243.440941h-193.264941v43.941647a26.352941 26.352941 0 0 1-52.495059 3.312941l-0.210823-3.312941V243.440941z" fill="#568af2" /></svg>