<svg class="icon" style="width: 1em;height: 1em;vertical-align: middle;fill: currentColor;overflow: hidden;" viewBox="0 0 1024 1024" version="1.1" xmlns="http://www.w3.org/2000/svg" width="32" height="32"><path d="M814.441412 120.470588c32.406588 0 58.970353 25.088 61.319529 56.922353l0.150588 4.577883v632.470588a61.500235 61.500235 0 0 1-56.892235 61.319529l-4.577882 0.150588h-632.470588a61.500235 61.500235 0 0 1-61.31953-56.892235L120.470588 814.441412v-632.470588c0-32.436706 25.088-58.970353 56.922353-61.31953L181.940706 120.470588h632.470588z m8.764235 228.382118H173.176471v467.425882c0 3.312941 2.891294 6.023529 6.77647 6.746353l2.017883 0.180706h632.470588c4.156235 0 7.619765-2.258824 8.553412-5.330823l0.210823-1.566118V348.852706zM357.647059 682.676706a26.352941 26.352941 0 0 1 3.312941 52.495059l-3.312941 0.210823H287.382588a26.352941 26.352941 0 0 1-3.312941-52.525176l3.312941-0.180706h70.264471z m175.676235 0a26.352941 26.352941 0 0 1 3.312941 52.495059l-3.312941 0.210823h-70.26447a26.352941 26.352941 0 0 1-3.312942-52.525176l3.312942-0.180706h70.26447z m175.706353 0a26.352941 26.352941 0 0 1 3.312941 52.495059l-3.312941 0.210823h-70.294588a26.352941 26.352941 0 0 1-3.312941-52.525176l3.312941-0.180706h70.294588z m-351.382588-123.000471a26.352941 26.352941 0 0 1 3.312941 52.525177l-3.312941 0.180706H287.382588a26.352941 26.352941 0 0 1-3.312941-52.495059l3.312941-0.210824h70.264471z m175.676235 0a26.352941 26.352941 0 0 1 3.312941 52.525177l-3.312941 0.180706h-70.26447a26.352941 26.352941 0 0 1-3.312942-52.495059l3.312942-0.210824h70.26447z m175.706353 0a26.352941 26.352941 0 0 1 3.312941 52.525177l-3.312941 0.180706h-70.294588a26.352941 26.352941 0 0 1-3.312941-52.495059l3.312941-0.210824h70.294588zM357.647059 436.705882a26.352941 26.352941 0 0 1 3.312941 52.495059l-3.312941 0.210824H287.382588a26.352941 26.352941 0 0 1-3.312941-52.495059l3.312941-0.210824h70.264471z m175.676235 0a26.352941 26.352941 0 0 1 3.312941 52.495059l-3.312941 0.210824h-70.26447a26.352941 26.352941 0 0 1-3.312942-52.495059l3.312942-0.210824h70.26447z m175.706353 0a26.352941 26.352941 0 0 1 3.312941 52.495059l-3.312941 0.210824h-70.294588a26.352941 26.352941 0 0 1-3.312941-52.495059l3.312941-0.210824h70.294588z" fill="#568af2" /></svg>