<svg class="icon" style="width: 1em;height: 1em;vertical-align: middle;fill: currentColor;overflow: hidden;" viewBox="0 0 1024 1024" version="1.1" xmlns="http://www.w3.org/2000/svg" width="32" height="32"><path d="M498.206118 120.470588c208.594824 0 377.705412 169.110588 377.705411 377.73553 0 208.594824-169.110588 377.705412-377.705411 377.705411C289.581176 875.911529 120.470588 706.800941 120.470588 498.206118 120.470588 289.581176 289.581176 120.470588 498.206118 120.470588z m0.150588 140.559059a26.352941 26.352941 0 0 0-26.352941 26.352941l-0.030118 210.974118 0.210824 3.463529c0.783059 5.722353 3.373176 11.053176 7.529411 15.179294l148.931765 148.961883 2.710588 2.349176a26.352941 26.352941 0 0 0 34.575059-2.349176l2.349177-2.710588a26.352941 26.352941 0 0 0-2.349177-34.575059l-141.281882-141.251765 0.060235-200.041412-0.210823-3.312941a26.352941 26.352941 0 0 0-26.142118-23.04z" fill="#568af2" /></svg>