<svg class="icon" style="width: 1em;height: 1em;vertical-align: middle;fill: currentColor;overflow: hidden;" viewBox="0 0 1024 1024" version="1.1" xmlns="http://www.w3.org/2000/svg" width="32" height="32"><path d="M498.206118 120.470588c67.373176 0 132.246588 17.709176 189.319529 50.808471a26.352941 26.352941 0 1 1-26.473412 45.598117 323.373176 323.373176 0 0 0-162.846117-43.700705c-179.501176 0-325.029647 145.528471-325.029647 325.029647s145.528471 324.999529 325.029647 324.999529 324.999529-145.498353 324.999529-324.999529c0-57.645176-14.998588-113.061647-43.098353-161.882353a26.352941 26.352941 0 0 1 45.688471-26.292706 376.079059 376.079059 0 0 1 50.115764 188.175059c0 208.594824-169.110588 377.705412-377.705411 377.705411C289.581176 875.911529 120.470588 706.800941 120.470588 498.206118 120.470588 289.581176 289.581176 120.470588 498.206118 120.470588z m130.409411 213.38353a26.352941 26.352941 0 0 1 33.912471 33.91247l-8.613647 22.467765-9.758118 24.606118c-6.776471 16.865882-13.703529 33.520941-20.570353 49.362823l-8.131764 18.341647-7.740236 16.835765-7.28847 15.058823c-11.745882 23.612235-21.775059 39.966118-30.900706 49.091765a96.617412 96.617412 0 0 1-136.643765-136.673882c8.131765-8.131765 22.799059-17.468235 43.098353-27.979294l12.860235-6.415059 14.155295-6.716235 15.450352-6.987295 16.655059-7.258353 27.196236-11.444705 19.546353-7.920942 20.660705-8.222117z" fill="#568af2" /></svg>