<svg class="icon" style="width: 1em;height: 1em;vertical-align: middle;fill: currentColor;overflow: hidden;" viewBox="0 0 1024 1024" version="1.1" xmlns="http://www.w3.org/2000/svg" width="32" height="32"><path d="M498.206118 120.470588c208.594824 0 377.705412 169.110588 377.705411 377.73553 0 208.594824-169.110588 377.705412-377.705411 377.705411C289.581176 875.911529 120.470588 706.800941 120.470588 498.206118 120.470588 289.581176 289.581176 120.470588 498.206118 120.470588z m0 509.500236a26.352941 26.352941 0 0 0-26.352942 26.352941v52.705882l0.180706 3.312941a26.352941 26.352941 0 0 0 52.525177-3.312941v-52.705882l-0.210824-3.312941a26.352941 26.352941 0 0 0-26.142117-23.04z m127.728941-40.96a26.352941 26.352941 0 0 0-34.575059 39.634823l37.285647 37.255529 2.710588 2.349177a26.352941 26.352941 0 0 0 34.544941-39.604706l-37.255529-37.285647z m-220.912941 2.349176a26.352941 26.352941 0 0 0-37.25553 0l-37.285647 37.285647-2.349176 2.710588a26.352941 26.352941 0 0 0 39.634823 34.544941l37.25553-37.255529 2.349176-2.710588a26.352941 26.352941 0 0 0-2.349176-34.575059z m304.007529-119.506824h-52.705882l-3.312941 0.180706a26.352941 26.352941 0 0 0 3.312941 52.525177h52.705882l3.312941-0.210824a26.352941 26.352941 0 0 0-3.312941-52.495059z m-368.941176 0h-52.705883l-3.312941 0.180706a26.352941 26.352941 0 0 0 3.312941 52.525177h52.705883l3.312941-0.210824a26.352941 26.352941 0 0 0-3.312941-52.495059z m325.812705-141.372235a26.352941 26.352941 0 0 0-37.255529 0l-37.285647 37.285647-2.349176 2.710588a26.352941 26.352941 0 0 0 39.634823 34.544942l37.255529-37.25553 2.349177-2.710588a26.352941 26.352941 0 0 0-2.349177-34.575059z m-300.845176-2.349176a26.352941 26.352941 0 0 0-34.575059 39.634823l37.285647 37.25553 2.710588 2.349176a26.352941 26.352941 0 0 0 34.544942-39.604706l-37.25553-37.285647z m133.12-67.102118a26.352941 26.352941 0 0 0-26.322824 26.352941v52.705883l0.180706 3.312941a26.352941 26.352941 0 0 0 52.525177-3.312941v-52.705883l-0.210824-3.312941a26.352941 26.352941 0 0 0-26.142117-23.04z" fill="#568af2" /></svg>