<svg class="icon" style="width: 1em;height: 1em;vertical-align: middle;fill: currentColor;overflow: hidden;" viewBox="0 0 1024 1024" version="1.1" xmlns="http://www.w3.org/2000/svg" width="32" height="32"><path d="M648.794353 120.470588c10.420706 0 19.757176 6.144 23.973647 15.450353l1.204706 3.222588 68.547765 225.15953 3.011764 4.909176a253.680941 253.680941 0 0 1 35.026824 128.993883 253.650824 253.650824 0 0 1-38.008471 133.872941l-68.547764 225.159529a26.352941 26.352941 0 0 1-21.775059 18.462118l-3.433412 0.210823h-245.970824a26.352941 26.352941 0 0 1-24.003764-15.450353l-1.204706-3.222588-68.577883-225.249882-2.951529-4.818824A253.680941 253.680941 0 0 1 271.058824 498.206118c0-47.947294 13.281882-93.967059 37.948235-133.842824l68.608-225.219765a26.352941 26.352941 0 0 1 21.775059-18.462117L402.823529 120.470588h245.970824z m14.034823 592.534588A254.192941 254.192941 0 0 1 525.793882 752.941176a254.192941 254.192941 0 0 1-137.005176-39.936l33.520941 110.200471h206.938353l33.581176-110.200471z m-137.035294-364.122352a26.352941 26.352941 0 0 0-26.142117 23.04l-0.210824 3.312941v122.970353l0.240941 3.463529c0.602353 4.547765 2.409412 8.884706 5.210353 12.559059l2.288941 2.590118 70.264471 70.294588 2.710588 2.349176a26.383059 26.383059 0 0 0 31.864471 0l2.710588-2.349176 2.349177-2.710588a26.383059 26.383059 0 0 0 0-31.864471l-2.379295-2.710588-62.554352-62.584471v-112.037647l-0.180706-3.312941a26.352941 26.352941 0 0 0-26.172236-23.04z m103.454118-175.706353h-206.938353l-33.520941 110.230588a254.192941 254.192941 0 0 1 137.035294-39.966118 254.192941 254.192941 0 0 1 137.005176 39.936L629.248 173.176471z" fill="#568af2" /></svg>