<svg class="icon" style="width: 1em;height: 1em;vertical-align: middle;fill: currentColor;overflow: hidden;" viewBox="0 0 1024 1024" version="1.1" xmlns="http://www.w3.org/2000/svg" width="32" height="32"><path d="M814.441412 120.470588c32.406588 0 58.970353 25.088 61.319529 56.922353l0.150588 4.577883v632.470588a61.500235 61.500235 0 0 1-56.892235 61.319529l-4.577882 0.150588h-632.470588a61.500235 61.500235 0 0 1-61.31953-56.892235L120.470588 814.441412v-632.470588c0-32.436706 25.088-58.970353 56.922353-61.31953L181.940706 120.470588h632.470588z m8.764235 228.382118H173.176471v467.425882c0 3.312941 2.891294 6.023529 6.77647 6.746353l2.017883 0.180706h632.470588c4.156235 0 7.619765-2.258824 8.553412-5.330823l0.210823-1.566118V348.852706zM709.029647 436.705882c13.432471 0 24.515765 10.059294 26.142118 23.04l0.210823 3.312942v245.970823a26.352941 26.352941 0 0 1-23.070117 26.142118l-3.312942 0.210823h-140.528941a26.352941 26.352941 0 0 1-26.142117-23.070117l-0.210824-3.312942v-245.940705c0-13.432471 10.059294-24.515765 23.04-26.142118l3.312941-0.210824h140.559059z m-281.118118 0c13.432471 0 24.545882 10.059294 26.172236 23.04l0.180706 3.312942v245.970823a26.352941 26.352941 0 0 1-23.04 26.142118l-3.312942 0.210823H287.382588a26.352941 26.352941 0 0 1-3.312941-52.525176l3.312941-0.180706 114.176-0.030118v-70.26447h-79.058823a26.352941 26.352941 0 0 1-3.312941-52.495059l3.312941-0.210824h79.058823V489.411765H287.382588a26.352941 26.352941 0 0 1-26.172235-23.04l-0.180706-3.312941c0-13.432471 10.029176-24.515765 23.04-26.142118l3.312941-0.210824h140.528941z m254.735059 52.705883H594.823529v193.234823h87.853177V489.411765z" fill="#568af2" /></svg>