<svg class="icon" style="width: 1em;height: 1em;vertical-align: middle;fill: currentColor;overflow: hidden;" viewBox="0 0 1024 1024" version="1.1" xmlns="http://www.w3.org/2000/svg" width="32" height="32"><path d="M590.275765 120.470588c19.275294 0 36.352 12.257882 42.285176 30.268236l1.114353 3.945411 24.395294 106.315294h66.017883c13.432471 0 24.515765 10.059294 26.142117 23.070118l0.210824 3.312941v421.647059a26.352941 26.352941 0 0 1-23.070118 26.142118l-3.312941 0.210823-65.987765-0.030117-24.395294 106.345411a44.303059 44.303059 0 0 1-39.303529 34.032942l-4.096 0.180705h-188.747294c-19.275294 0-36.352-12.257882-42.285177-30.268235l-1.114353-3.915294-24.425412-106.375529H267.294118a26.352941 26.352941 0 0 1-26.142118-23.04L240.941176 708.999529v-421.647058c0-13.402353 10.059294-24.515765 23.04-26.142118l3.312942-0.180706 66.409411-0.030118 24.395295-106.315294a44.303059 44.303059 0 0 1 39.333647-34.032941L401.528471 120.470588H590.305882z m13.733647 614.881883h-216.244706l20.178823 87.853176h175.887059l20.178824-87.853176z m-108.333177-333.793883a96.617412 96.617412 0 1 0 0 193.264941 96.617412 96.617412 0 0 0 0-193.264941z m88.154353-228.382117h-175.887059l-20.178823 87.823058h216.244706l-20.178824-87.823058zM776.794353 331.294118c13.432471 0 24.515765 10.059294 26.142118 23.04l0.210823 3.312941v70.26447a26.352941 26.352941 0 0 1-52.525176 3.312942l-0.180706-3.312942v-70.26447c0-14.546824 11.776-26.352941 26.352941-26.352941z" fill="#568af2" /></svg>