<svg class="icon" style="width: 1em;height: 1em;vertical-align: middle;fill: currentColor;overflow: hidden;" viewBox="0 0 1024 1024" version="1.1" xmlns="http://www.w3.org/2000/svg" width="32" height="32"><path d="M621.176471 120.470588c13.432471 0 24.515765 10.059294 26.142117 23.04l0.210824 3.312941v43.91153h202.029176c13.432471 0 24.545882 10.059294 26.172236 23.070117l0.180705 3.312942v632.470588a26.352941 26.352941 0 0 1-23.04 26.142118l-3.312941 0.180705H146.823529a26.352941 26.352941 0 0 1-26.142117-23.04L120.470588 849.558588v-632.470588c0-13.432471 10.059294-24.515765 23.04-26.142118l3.312941-0.210823h202.029177V146.823529a26.352941 26.352941 0 0 1 52.525176-3.312941l0.180706 3.312941v43.91153h193.264941V146.823529c0-14.546824 11.806118-26.352941 26.352942-26.352941z m87.853176 281.088h-140.559059l-3.312941 0.210824a26.352941 26.352941 0 0 0-22.829176 22.859294l-0.210824 3.312941v245.940706l0.210824 3.312941c1.505882 11.896471 10.932706 21.353412 22.829176 22.829177l3.312941 0.210823h140.559059l3.312941-0.210823a26.352941 26.352941 0 0 0 22.829177-22.829177l0.210823-3.312941v-245.970824l-0.210823-3.312941a26.352941 26.352941 0 0 0-26.142118-23.04z m-281.118118 0H287.382588l-3.312941 0.210824a26.352941 26.352941 0 0 0-22.859294 22.859294l-0.180706 3.312941 0.180706 3.312941c1.505882 11.896471 10.932706 21.323294 22.859294 22.829177l3.312941 0.180706h114.176l-0.030117 70.26447h-79.028706l-3.312941 0.210824a26.352941 26.352941 0 0 0 0 52.314353l3.312941 0.210823h79.028706l0.030117 70.264471H287.382588l-3.312941 0.210823a26.352941 26.352941 0 0 0 0 52.284236l3.312941 0.210823h140.528941l3.312942-0.210823a26.352941 26.352941 0 0 0 22.859294-22.829177l0.180706-3.312941v-245.970824l-0.180706-3.312941a26.352941 26.352941 0 0 0-26.172236-23.04z m254.735059 52.705883V647.529412h-87.853176v-193.264941h87.853176z" fill="#568af2" /></svg>