<svg class="icon" style="width: 1em;height: 1em;vertical-align: middle;fill: currentColor;overflow: hidden;" viewBox="0 0 1024 1024" version="1.1" xmlns="http://www.w3.org/2000/svg" width="32" height="32"><path d="M498.206118 120.470588c205.402353 0 372.645647 162.514824 377.615058 364.995765l0.090353 9.216v354.876235a26.352941 26.352941 0 0 1-23.04 26.172236l-3.312941 0.180705H146.823529a26.352941 26.352941 0 0 1-26.142117-23.04L120.470588 849.558588V494.682353C120.470588 287.954824 289.641412 120.470588 498.206118 120.470588z m0 193.264941a184.470588 184.470588 0 1 0 0 368.941177 184.470588 184.470588 0 0 0 0-368.941177z m0 52.705883c13.432471 0 24.515765 10.029176 26.142117 23.04l0.210824 3.312941-0.030118 94.448941 62.584471 62.584471c9.426824 9.456941 10.24 24.244706 2.349176 34.575059l-2.349176 2.710588a26.352941 26.352941 0 0 1-34.575059 2.349176l-2.710588-2.349176-70.264471-70.294588a26.352941 26.352941 0 0 1-7.499294-15.149177l-0.210824-3.463529v-105.411765c0-14.576941 11.776-26.352941 26.352942-26.352941z" fill="#568af2" /></svg>