<svg class="icon" style="width: 1em;height: 1em;vertical-align: middle;fill: currentColor;overflow: hidden;" viewBox="0 0 1024 1024" version="1.1" xmlns="http://www.w3.org/2000/svg" width="32" height="32"><path d="M498.206118 184.892235c192.451765 0 348.461176 156.009412 348.461176 348.461177 0 192.421647-156.009412 348.431059-348.461176 348.431059-192.451765 0-348.461176-156.009412-348.461177-348.461177 0-192.451765 156.009412-348.461176 348.461177-348.461176z m-4.216471 135.04753a26.352941 26.352941 0 0 0-26.172235 23.04l-0.210824 3.312941v193.415529l0.210824 3.46353c0.602353 4.547765 2.409412 8.884706 5.210353 12.559059l2.288941 2.620235 136.553412 136.523294 2.710588 2.379294a26.383059 26.383059 0 0 0 31.86447 0l2.710589-2.379294 2.349176-2.710588a26.383059 26.383059 0 0 0 0-31.834353l-2.379294-2.710588-128.843294-128.843295 0.030118-182.482823-0.180706-3.312941a26.352941 26.352941 0 0 0-26.172236-23.04zM291.237647 131.493647c7.770353 10.872471 6.113882 25.6-3.343059 34.514824l-2.770823 2.258823-122.970353 87.853177a26.352941 26.352941 0 0 1-33.430588-40.628706l2.770823-2.258824L254.494118 125.379765a26.352941 26.352941 0 0 1 36.743529 6.113882z m447.608471-7.981176l3.072 1.867294 122.970353 87.853176a26.352941 26.352941 0 0 1-27.587765 44.754824l-3.041882-1.867294-123.000471-87.853177a26.352941 26.352941 0 0 1 27.587765-44.754823z" fill="#568af2" /></svg>