<svg class="icon" style="width: 1em;height: 1em;vertical-align: middle;fill: currentColor;overflow: hidden;" viewBox="0 0 1024 1024" version="1.1" xmlns="http://www.w3.org/2000/svg" width="32" height="32"><path d="M611.147294 120.470588a26.352941 26.352941 0 0 1 3.312941 52.495059l-3.312941 0.210824h-79.088941v43.911529a26.292706 26.292706 0 0 1-1.807059 9.728c168.026353 12.498824 300.483765 152.816941 300.483765 324.065882 0 179.501176-145.498353 325.029647-324.99953 325.029647S180.705882 730.413176 180.705882 550.912c0-171.279059 132.457412-311.597176 300.544-324.126118a24.997647 24.997647 0 0 1-1.686588-6.384941l-0.180706-3.312941-0.030117-43.911529h-79.028706a26.352941 26.352941 0 0 1-3.312941-52.495059l3.312941-0.210824h210.823529z m-105.411765 263.529412a26.352941 26.352941 0 0 0-26.172235 23.04l-0.180706 3.312941v140.559059l0.180706 3.312941c1.505882 11.896471 10.932706 21.323294 22.859294 22.829177l3.312941 0.210823h140.528942l3.312941-0.210823a26.352941 26.352941 0 0 0 0-52.314353l-3.312941-0.180706-114.206118-0.030118v-114.176l-0.180706-3.312941a26.352941 26.352941 0 0 0-26.142118-23.04z" fill="#568af2" /></svg>