<svg class="icon" style="width: 1em;height: 1em;vertical-align: middle;fill: currentColor;overflow: hidden;" viewBox="0 0 1024 1024" version="1.1" xmlns="http://www.w3.org/2000/svg" width="32" height="32"><path d="M770.319059 233.592471c9.426824 9.456941 10.24 24.244706 2.349176 34.575058l-2.349176 2.710589-42.616471 42.61647a324.126118 324.126118 0 0 1 103.032471 237.417412c0 179.501176-145.498353 324.999529-324.99953 324.999529S180.705882 730.413176 180.705882 550.912 326.234353 225.882353 505.735529 225.882353c66.740706 0 128.783059 20.118588 180.404706 54.633412l46.923294-46.923294a26.352941 26.352941 0 0 1 37.25553 0z m-264.58353 132.818823a26.352941 26.352941 0 0 0-26.172235 23.070118l-0.180706 3.312941v158.117647l0.180706 3.312941a26.352941 26.352941 0 0 0 52.314353 0l0.210824-3.312941v-158.117647l-0.210824-3.312941a26.352941 26.352941 0 0 0-26.142118-23.04zM628.705882 120.470588a26.352941 26.352941 0 0 1 3.312942 52.495059l-3.312942 0.210824h-245.970823a26.352941 26.352941 0 0 1-3.312941-52.495059l3.312941-0.210824h245.970823z" fill="#568af2" /></svg>