<svg class="icon" style="width: 1em;height: 1em;vertical-align: middle;fill: currentColor;overflow: hidden;" viewBox="0 0 1024 1024" version="1.1" xmlns="http://www.w3.org/2000/svg" width="32" height="32"><path d="M485.647059 180.705882c218.322824 0 395.294118 176.971294 395.294117 395.294118 0 106.255059-42.164706 205.884235-115.772235 279.491765a26.352941 26.352941 0 1 1-37.285647-37.25553 341.534118 341.534118 0 0 0 90.443294-160.135529 25.810824 25.810824 0 0 1-9.938823 0.903529l-3.252706-0.542117-68.48753-15.811765a26.352941 26.352941 0 0 1 8.58353-51.892706l3.282823 0.542118 68.48753 15.811764a26.262588 26.262588 0 0 1 9.426823 4.276706c1.204706-11.655529 1.807059-23.491765 1.807059-35.388235 0-76.348235-24.997647-146.853647-67.19247-203.806118l-52.61553 42.616471a26.352941 26.352941 0 0 1-35.779765-38.550588l2.620236-2.409412 51.2-41.502118a341.473882 341.473882 0 0 0-214.437647-97.942588L512 294.912a26.352941 26.352941 0 0 1-52.495059 3.312941l-0.210823-3.312941V234.405647a341.473882 341.473882 0 0 0-214.497883 97.942588l51.230118 41.502118a26.352941 26.352941 0 0 1-30.238118 43.008l-2.921411-2.048-52.61553-42.616471a341.052235 341.052235 0 0 0-67.19247 203.806118c0 11.926588 0.602353 23.732706 1.807058 35.418353a24.997647 24.997647 0 0 1 6.264471-3.343059l3.162353-0.963765 68.487529-15.811764a26.352941 26.352941 0 0 1 15.028706 50.416941l-3.19247 0.933647-68.457412 15.811765a26.232471 26.232471 0 0 1-13.19153-0.301177 341.594353 341.594353 0 0 0 90.443295 160.075294 26.352941 26.352941 0 0 1-37.285648 37.285647A394.059294 394.059294 0 0 1 90.352941 576C90.352941 357.677176 267.324235 180.705882 485.647059 180.705882z m136.372706 309.338353l-0.90353 3.011765-5.541647 15.36-12.047059 32.135529a2029.417412 2029.417412 0 0 1-19.757176 49.754353l-2.078118 5.029647-2.048 4.909177-8.071529 18.672941-7.077647 15.691294-6.716235 13.974588-6.324706 12.257883c-7.198118 13.312-13.733647 23.190588-19.907765 29.575529a96.617412 96.617412 0 0 1-139.023059-134.26447c9.396706-9.728 27.166118-20.871529 53.007059-34.063059l7.228235-3.644236 15.661177-7.619764 17.227294-8.041412 14.095059-6.384941c13.040941-5.842824 26.503529-11.685647 39.966117-17.377883l20.178824-8.432941 4.999529-2.048 21.714824-8.794353a26.352941 26.352941 0 0 1 35.418353 30.298353z" fill="#568af2" /></svg>