<svg class="icon" style="width: 1em;height: 1em;vertical-align: middle;fill: currentColor;overflow: hidden;" viewBox="0 0 1024 1024" version="1.1" xmlns="http://www.w3.org/2000/svg" width="32" height="32"><path d="M773.029647 184.470588a96.617412 96.617412 0 1 1-93.003294 122.970353h-161.761882v193.234824h161.761882a96.677647 96.677647 0 0 1 87.521882-70.083765l5.481412-0.150588a96.617412 96.617412 0 1 1-93.003294 122.970353l-161.761882-0.030118v193.264941h161.761882a96.677647 96.677647 0 0 1 189.620706 26.383059 96.617412 96.617412 0 0 1-189.620706 26.352941h-188.114824a26.352941 26.352941 0 0 1-26.142117-23.070117l-0.210824-3.312942v-219.617882l-91.467294 0.030118a96.677647 96.677647 0 0 1-189.620706-26.352941 96.617412 96.617412 0 0 1 189.620706-26.383059h91.467294v-219.557647c0-13.462588 10.059294-24.545882 23.070118-26.172236l3.312941-0.210823h188.084706a96.677647 96.677647 0 0 1 93.003294-70.264471z" fill="#568af2" /></svg>