<svg class="icon" style="width: 1em;height: 1em;vertical-align: middle;fill: currentColor;overflow: hidden;" viewBox="0 0 1024 1024" version="1.1" xmlns="http://www.w3.org/2000/svg" width="32" height="32"><path d="M386.499765 184.470588a96.677647 96.677647 0 0 1 93.003294 70.264471h240.790588c85.323294 0 149.383529 63.518118 149.353412 149.353412 0 83.576471-60.717176 145.980235-142.637177 149.202823l-6.716235 0.120471-263.047529-0.030118-0.451765 0.030118h-122.970353c-56.32 0-96.677647 39.996235-96.647529 96.617411 0 54.693647 37.616941 93.846588 90.864941 96.496942l5.782588 0.150588h240.790588a96.677647 96.677647 0 0 1 185.976471 0H843.294118a26.352941 26.352941 0 0 1 3.312941 52.495059l-3.312941 0.210823h-82.703059a96.677647 96.677647 0 0 1-185.976471 0h-240.790588c-85.293176 0-149.353412-63.518118-149.353412-149.353412 0-83.546353 60.717176-145.980235 142.637177-149.202823l6.716235-0.120471h386.499765c56.259765 0 96.617412-39.996235 96.617411-96.617411 0-54.663529-37.616941-93.846588-90.864941-96.496942l-5.782588-0.150588h-240.790588a96.677647 96.677647 0 0 1-185.976471 0H210.823529a26.352941 26.352941 0 0 1-3.312941-52.495059L210.823529 254.735059h82.703059a96.677647 96.677647 0 0 1 92.973177-70.264471z" fill="#568af2" /></svg>