<svg class="icon" style="width: 1em;height: 1em;vertical-align: middle;fill: currentColor;overflow: hidden;" viewBox="0 0 1024 1024" version="1.1" xmlns="http://www.w3.org/2000/svg" width="32" height="32"><path d="M247.205647 741.616941v61.530353a26.352941 26.352941 0 0 1-52.495059 3.312941l-0.210823-3.312941v-61.530353L150.588235 741.647059a26.352941 26.352941 0 0 1-26.142117-23.04l-0.210824-3.312941v-245.970824c0-13.432471 10.059294-24.515765 23.04-26.142118l3.312941-0.210823h43.91153V240.941176c0-13.432471 10.059294-24.515765 23.070117-26.142117l3.312942-0.210824H783.058824c13.432471 0 24.515765 10.059294 26.142117 23.04l0.210824 3.312941-0.030118 202.029177h43.971765c13.402353 0 24.515765 10.059294 26.142117 23.070118l0.180706 3.312941v245.940706a26.352941 26.352941 0 0 1-23.04 26.142117l-3.312941 0.210824-43.911529-0.030118v61.530353a26.352941 26.352941 0 0 1-52.495059 3.312941l-0.210824-3.312941v-61.530353H247.205647z m509.470118-298.646588l0.030117-175.676235H247.205647v175.676235h43.941647c13.432471 0 24.515765 10.059294 26.142118 23.070118l0.210823 3.312941-0.030117 79.028706h368.941176v-79.058824c0-13.432471 10.059294-24.515765 23.070118-26.142118l3.312941-0.210823h43.881412z" fill="#568af2" /></svg>