<svg class="icon" style="width: 1em;height: 1em;vertical-align: middle;fill: currentColor;overflow: hidden;" viewBox="0 0 1024 1024" version="1.1" xmlns="http://www.w3.org/2000/svg" width="32" height="32"><path d="M501.970824 124.235294a96.617412 96.617412 0 0 1 96.617411 96.617412c0 19.486118-9.878588 47.073882-27.587764 84.329412-3.222588 6.866824-6.716235 13.944471-10.390589 21.202823-7.047529 13.914353-14.516706 27.919059-22.046117 41.472l296.538353 148.239059a80.655059 80.655059 0 0 1-30.960942 152.606118l-5.12 0.150588h-42.345411l0.030117 184.470588a26.352941 26.352941 0 0 1-23.04 26.172235l-3.312941 0.180706H273.558588a26.352941 26.352941 0 0 1-26.352941-26.352941v-184.470588H204.890353a80.655059 80.655059 0 0 1-41.080471-150.046118l4.99953-2.710588 314.247529-157.153882 4.547765-7.920942 2.319059-4.156235c8.071529-14.456471 16.143059-29.485176 23.67247-44.272941 3.463529-6.896941 6.746353-13.552941 9.818353-19.998118l2.921412-6.26447 5.330824-11.926588 4.547764-10.872471 1.987765-5.029647 3.312941-9.09553 2.409412-7.740235c1.264941-4.668235 1.957647-8.342588 1.957647-10.812235a43.911529 43.911529 0 0 0-87.642353-4.216471l-0.210824 4.216471a26.352941 26.352941 0 1 1-52.705882 0 96.617412 96.617412 0 0 1 96.64753-96.617412z m-0.030118 284.190118l-309.549177 154.804706a27.949176 27.949176 0 0 0-15.239529 21.504l-0.210824 3.493647c0 14.305882 10.782118 26.142118 24.696471 27.738353l3.252706 0.180706h42.315294v-8.764236c0-13.432471 10.059294-24.545882 23.070118-26.172235l3.312941-0.180706H730.352941c14.546824 0 26.352941 11.776 26.352941 26.352941l-0.030117 8.764236h42.375529a27.949176 27.949176 0 0 0 15.510588-51.169883l-3.011764-1.746823-309.609412-154.804706z" fill="#568af2" /></svg>