<svg class="icon" style="width: 1em;height: 1em;vertical-align: middle;fill: currentColor;overflow: hidden;" viewBox="0 0 1024 1024" version="1.1" xmlns="http://www.w3.org/2000/svg" width="32" height="32"><path d="M730.352941 214.588235a79.058824 79.058824 0 0 1 78.908235 74.059294l0.150589 4.99953v167.393882a79.088941 79.088941 0 0 1 70.113882 73.517177l0.150588 5.059764v158.117647a26.352941 26.352941 0 0 1-23.04 26.142118l-3.312941 0.210824-8.794353-0.030118V768a26.352941 26.352941 0 0 1-52.495059 3.312941l-0.180706-3.312941-0.030117-43.941647H212.058353V768a26.352941 26.352941 0 0 1-52.495059 3.312941l-0.180706-3.312941-0.030117-43.941647H150.588235a26.352941 26.352941 0 0 1-26.142117-23.04l-0.210824-3.312941v-158.117647a79.058824 79.058824 0 0 1 70.294588-78.546824V293.647059a79.058824 79.058824 0 0 1 74.029177-78.908235l4.999529-0.150589H730.352941z m-298.676706 210.82353h-105.411764a26.352941 26.352941 0 0 0-26.142118 23.04l-0.210824 3.312941v8.764235h158.117647V451.764706a26.352941 26.352941 0 0 0-19.877647-25.539765l-3.162353-0.602353-3.312941-0.210823z m245.970824 0H572.235294a26.352941 26.352941 0 0 0-26.142118 23.04l-0.210823 3.312941v8.764235h158.117647V451.764706a26.352941 26.352941 0 0 0-19.877647-25.539765l-3.162353-0.602353-3.312941-0.210823z m52.705882-158.117647H273.558588a26.352941 26.352941 0 0 0-26.142117 23.04l-0.210824 3.312941v166.881882V451.764706a79.058824 79.058824 0 0 1 74.089412-78.908235l4.969412-0.150589h105.411764c30.629647 0 57.163294 17.408 70.294589 42.827294a78.968471 78.968471 0 0 1 65.264941-42.676705l4.999529-0.150589h105.411765a79.058824 79.058824 0 0 1 78.908235 74.059294l0.120471 4.969412 0.030117-158.087529a26.352941 26.352941 0 0 0-19.877647-25.539765l-3.162353-0.602353-3.312941-0.210823z" fill="#568af2" /></svg>