<svg class="icon" style="width: 1em;height: 1em;vertical-align: middle;fill: currentColor;overflow: hidden;" viewBox="0 0 1024 1024" version="1.1" xmlns="http://www.w3.org/2000/svg" width="32" height="32"><path d="M813.176471 184.470588c32.406588 0 58.970353 25.088 61.319529 56.922353l0.180706 4.577883V316.235294c0 30.991059-22.889412 56.621176-52.705882 60.867765v431.043765a61.500235 61.500235 0 0 1-56.922353 61.319529l-4.577883 0.180706H268.559059a61.500235 61.500235 0 0 1-61.31953-56.922353l-0.180705-4.577882V377.103059a61.500235 61.500235 0 0 1-52.525177-56.018824l-0.180706-4.848941V245.970824c0-32.436706 25.088-58.970353 56.922353-61.31953l4.577882-0.180706H813.176471z m-43.941647 193.234824H259.764706v430.441412c0 4.156235 2.891294 7.649882 6.77647 8.553411l2.017883 0.240941H760.470588a8.794353 8.794353 0 0 0 8.553412-6.77647l0.240941-2.017882-0.030117-430.441412z m-336.805648 71.770353a26.352941 26.352941 0 0 1 35.809883-16.865883c38.912 16.865882 64.391529 48.368941 78.848 88.244706l0.331294 1.024 3.553882-3.19247a126.102588 126.102588 0 0 1 44.453647-24.515765l7.348706-2.048a26.352941 26.352941 0 0 1 32.587294 23.160471c1.505882 16.715294 5.12 29.424941 11.745883 44.754823l-0.90353-2.108235 2.258824 5.059764 8.643765 20.35953 1.807058 4.698353c3.222588 9.456941 4.939294 18.462118 4.939294 28.009412 0 81.92-66.921412 148.178824-149.353411 148.178823-82.401882 0-149.323294-66.258824-149.323294-148.178823 0-35.388235 9.487059-60.837647 30.810353-95.533177l14.486588-23.311059c11.023059-18.311529 17.287529-31.563294 21.955764-47.73647z" fill="#568af2" /></svg>