<svg class="icon" style="width: 1em;height: 1em;vertical-align: middle;fill: currentColor;overflow: hidden;" viewBox="0 0 1024 1024" version="1.1" xmlns="http://www.w3.org/2000/svg" width="32" height="32"><path d="M632.470588 124.235294c32.406588 0 58.970353 25.088 61.31953 56.922353l0.180706 4.577882-0.030118 114.176H843.294118c12.318118 0 22.648471 8.432941 25.539764 19.877647l0.602353 3.192471 0.210824 3.312941v105.411765a26.352941 26.352941 0 0 1-26.352941 26.322823h-149.353412v360.176942a61.500235 61.500235 0 0 1-56.892235 61.319529l-4.577883 0.150588H245.970824A61.500235 61.500235 0 0 1 184.621176 822.814118l-0.180705-4.577883v-632.470588c0-32.436706 25.088-58.970353 56.922353-61.319529l4.577882-0.180706H632.470588z m0 52.705882H245.970824a8.794353 8.794353 0 0 0-8.553412 6.776471l-0.240941 2.017882v632.470589c0 4.156235 2.891294 7.619765 6.77647 8.553411l2.017883 0.210824H632.470588a8.794353 8.794353 0 0 0 8.553412-6.746353l0.240941-2.017882-0.030117-360.176942h-119.657412l-4.276706 4.276706a113.904941 113.904941 0 0 1-71.288471 30.659765l-6.806588 0.210824a114.206118 114.206118 0 1 1 78.095059-197.541647l4.306823 4.276705h119.627295V185.735529A8.794353 8.794353 0 0 0 632.470588 176.941176z m-105.411764 474.352942a26.352941 26.352941 0 0 1 3.312941 52.495058l-3.312941 0.210824h-175.676236a26.352941 26.352941 0 0 1-3.312941-52.495059l3.312941-0.210823H527.058824z" fill="#568af2" /></svg>