<svg class="icon" style="width: 1em;height: 1em;vertical-align: middle;fill: currentColor;overflow: hidden;" viewBox="0 0 1024 1024" version="1.1" xmlns="http://www.w3.org/2000/svg" width="32" height="32"><path d="M760.470588 184.470588a79.058824 79.058824 0 0 1 79.058824 79.058824v527.058823a79.058824 79.058824 0 0 1-79.058824 79.058824H426.676706a26.262588 26.262588 0 0 0 18.612706-7.710118L831.849412 475.407059l2.349176-2.710588a26.352941 26.352941 0 0 0-39.634823-34.544942L707.764706 524.920471l-85.714824-85.714824 174.622118-174.622118 2.349176-2.710588a26.352941 26.352941 0 0 0-39.604705-34.544941l-350.328471 350.268235-85.714824-85.684706 262.475295-262.445176 2.349176-2.710588a26.352941 26.352941 0 0 0-39.604706-34.575059L162.032941 578.710588l-2.349176 2.710588a26.352941 26.352941 0 0 0 39.634823 34.544942L286.117647 529.197176l85.684706 85.684706-174.592 174.652236-2.349177 2.710588a26.352941 26.352941 0 0 0 39.604706 34.544941l350.298353-350.298353 85.714824 85.684706-262.445177 262.475294-2.349176 2.710588a26.352941 26.352941 0 0 0 20.992 42.285177H233.411765a79.058824 79.058824 0 0 1-79.058824-79.058824V263.529412A79.058824 79.058824 0 0 1 233.411765 184.470588z" fill="#568af2" /></svg>