<svg class="icon" style="width: 1em;height: 1em;vertical-align: middle;fill: currentColor;overflow: hidden;" viewBox="0 0 1024 1024" version="1.1" xmlns="http://www.w3.org/2000/svg" width="32" height="32"><path d="M646.264471 124.235294c126.735059 0 232.688941 73.185882 237.025882 169.502118l0.150588 6.174117v553.411765a26.352941 26.352941 0 0 1-52.495059 3.312941l-0.210823-3.312941V299.911529c0-65.566118-81.016471-122.970353-184.470588-122.970353-100.773647 0-180.284235 54.512941-184.32 117.940706l-0.150589 5.029647v1.325177c85.654588 8.613647 154.112 58.639059 157.967059 124.596706l0.150588 5.842823V466.823529a26.352941 26.352941 0 0 1-23.04 26.142118l-3.312941 0.210824h-316.235294a26.352941 26.352941 0 0 1-26.142118-23.04l-0.210823-3.312942v-35.147294c0-68.818824 69.963294-121.584941 158.117647-130.439529v-1.325177c0-99.358118 107.760941-175.676235 237.176471-175.676235z m-210.82353 685.176471c13.432471 0 24.515765 10.059294 26.142118 23.04l0.210823 3.312941v17.558588a26.352941 26.352941 0 0 1-52.495058 3.312941l-0.210824-3.312941v-17.558588c0-14.546824 11.806118-26.352941 26.352941-26.352941z m-233.923765 2.108235c12.619294 4.608 19.576471 17.859765 16.685177 30.599529l-0.933647 3.192471-6.02353 16.504471a26.352941 26.352941 0 0 1-50.447058-14.848l0.903529-3.162353 6.023529-16.534589a26.352941 26.352941 0 0 1 33.792-15.751529z m233.923765-142.667294c13.432471 0 24.515765 10.059294 26.142118 23.070118l0.210823 3.312941v35.117176a26.352941 26.352941 0 0 1-52.495058 3.312941l-0.210824-3.312941v-35.147294c0-14.546824 11.806118-26.352941 26.352941-26.352941z m-178.206117 2.650353c12.619294 4.608 19.576471 17.829647 16.685176 30.599529l-0.963765 3.192471-12.016941 33.008941a26.352941 26.352941 0 0 1-50.447059-14.848l0.933647-3.162353 12.016942-33.039059a26.352941 26.352941 0 0 1 33.792-15.751529z m178.206117-125.620706c13.432471 0 24.515765 10.059294 26.142118 23.04l0.210823 3.312941v17.558588a26.352941 26.352941 0 0 1-52.495058 3.312942l-0.210824-3.312942V572.235294c0-14.546824 11.806118-26.352941 26.352941-26.352941z m-128.512 2.108235c12.619294 4.608 19.576471 17.859765 16.685177 30.59953l-0.933647 3.19247-6.02353 16.504471a26.352941 26.352941 0 0 1-50.447059-14.848l0.90353-3.162353 6.023529-16.534588a26.352941 26.352941 0 0 1 33.792-15.75153z" fill="#568af2" /></svg>