<svg class="icon" style="width: 1em;height: 1em;vertical-align: middle;fill: currentColor;overflow: hidden;" viewBox="0 0 1024 1024" version="1.1" xmlns="http://www.w3.org/2000/svg" width="32" height="32"><path d="M422.309647 165.707294c76.197647-53.308235 148.630588-54.693647 202.691765-7.529412 47.435294 41.381647 74.300235 116.314353 74.270117 197.421177 2.409412 77.342118 23.130353 114.688 66.861177 156.581647l0.271059 0.210823a26.352941 26.352941 0 0 1-1.987765 39.785412c-45.718588 35.809882-91.798588 61.921882-137.938824 78.848l-0.692705 0.210824 1.536 7.318588c0.752941 3.312941 1.505882 6.625882 2.288941 9.728l2.288941 8.854588c3.072 11.324235 7.920941 16.715294 17.046588 19.395765 12.348235 3.674353 24.455529 6.686118 45.839059 11.565176l5.210353 1.204706 14.125176 3.252706c30.750118 7.168 50.688 12.8 69.872942 20.510118 26.744471 10.782118 47.887059 24.606118 63.638588 43.610353 18.492235 22.347294 27.617882 50.055529 27.015529 82.221176-0.451765 22.949647-19.546353 40.779294-42.345412 40.779294H196.698353c-22.799059 0-41.863529-17.829647-42.315294-40.779294-0.602353-32.165647 8.523294-59.873882 26.985412-82.221176 15.751529-19.004235 36.924235-32.828235 63.638588-43.610353 19.184941-7.710118 39.152941-13.342118 69.903059-20.510118l14.155294-3.252706c26.352941-6.023529 37.647059-8.794353 51.019294-12.769882 9.125647-2.710588 13.944471-8.071529 17.046588-19.395765 1.204706-4.427294 2.499765-9.637647 3.764706-15.058823l0.150588-0.843294-10.511059-3.102118a380.506353 380.506353 0 0 1-117.187764-61.31953l-9.216-7.318588a26.352941 26.352941 0 0 1 1.355294-41.773176c13.161412-9.487059 21.684706-19.395765 26.684235-29.876706 7.198118-15.088941 7.469176-30.117647 3.102118-54.874353l-0.752941-4.156235a327.378824 327.378824 0 0 1-1.807059-10.541177c-25.961412-173.959529 29.756235-256.210824 126.554353-262.083765l2.529882-0.12047 0.512-0.361412z" fill="#568af2" /></svg>