<svg class="icon" style="width: 1em;height: 1em;vertical-align: middle;fill: currentColor;overflow: hidden;" viewBox="0 0 1024 1024" version="1.1" xmlns="http://www.w3.org/2000/svg" width="32" height="32"><path d="M527.058824 124.235294a237.176471 237.176471 0 0 1 167.695058 404.87153 26.352941 26.352941 0 0 1-37.255529-37.25553c9.848471-9.848471 18.492235-20.690824 25.810823-32.286118l-0.421647-0.090352c5.421176-20.299294-4.728471-37.797647-30.72-57.494589a285.304471 285.304471 0 0 0-15.269647-10.721882l-14.426353-9.426824c-6.896941-4.668235-23.190588-8.704-57.584941-14.576941l-5.12-0.873412c-36.833882-6.264471-52.193882-9.728-66.740706-16.835764-17.829647-8.734118-29.696-23.009882-42.646588-45.748706-0.542118-0.903529-10.360471-18.823529-12.739765-22.618353-1.927529-3.102118-3.102118-4.577882-2.439529-4.547765l0.481882 0.150588-1.957647-0.813176c-12.498824-4.638118-21.865412-0.210824-43.188706 30.268235-18.672941 26.744471-29.244235 71.378824-30.418823 133.722353a183.416471 183.416471 0 0 0 36.502588 51.892706 26.352941 26.352941 0 1 1-37.255529 37.25553A237.176471 237.176471 0 0 1 527.058824 124.235294z m86.768941 482.063059a26.352941 26.352941 0 0 1 34.153411-2.680471l193.234824 140.559059c5.360941 3.915294 9.035294 9.637647 10.360471 16.143059l17.558588 87.853176a26.352941 26.352941 0 0 1-51.681883 10.330353l-15.570823-77.793882-166.731294-121.223529-89.449412 89.509647a26.352941 26.352941 0 0 1-34.575059 2.349176l-2.710588-2.349176-89.479529-89.509647-166.731295 121.223529-15.540705 77.793882a26.352941 26.352941 0 0 1-27.708236 21.112471l-3.312941-0.451765a26.352941 26.352941 0 0 1-20.660706-31.021176l17.558588-87.823059a26.352941 26.352941 0 0 1 10.360471-16.143059l193.234824-140.559059a26.352941 26.352941 0 0 1 34.153411 2.710589l86.768942 86.768941 86.768941-86.799059z" fill="#568af2" /></svg>