<svg class="icon" style="width: 1em;height: 1em;vertical-align: middle;fill: currentColor;overflow: hidden;" viewBox="0 0 1024 1024" version="1.1" xmlns="http://www.w3.org/2000/svg" width="32" height="32"><path d="M501.970824 154.352941a149.323294 149.323294 0 1 1 0 298.676706 149.323294 149.323294 0 0 1 0-298.676706zM466.823529 523.294118a26.352941 26.352941 0 1 1 0 52.705882c-160.737882 0-289.882353 114.778353-289.882353 254.735059a26.352941 26.352941 0 1 1-52.705882 0c0-170.526118 154.021647-307.440941 342.588235-307.440941z m228.382118 52.705882a131.764706 131.764706 0 0 1 117.549177 191.367529l56.380235 42.285177a26.352941 26.352941 0 1 1-31.62353 42.164706l-57.524705-43.158588a131.764706 131.764706 0 1 1-84.751059-232.658824z" fill="#568af2" /></svg>