<svg class="icon" style="width: 1em;height: 1em;vertical-align: middle;fill: currentColor;overflow: hidden;" viewBox="0 0 1024 1024" version="1.1" xmlns="http://www.w3.org/2000/svg" width="32" height="32"><path d="M506.970353 154.352941c150.979765 0 289.129412 114.447059 337.799529 265.035294 0.602353 1.897412 3.704471 5.150118 11.956706 11.083294 1.807059 1.295059 11.595294 8.071529 14.576941 10.209883 31.924706 23.009882 48.549647 47.706353 48.549647 87.883294s-16.775529 64.632471-48.338823 85.714823l-4.096 2.680471-5.210353 3.343059-5.210353 3.343059c-7.68 5.059765-10.209882 7.529412-10.450823 8.342588-46.652235 153.389176-186.307765 270.787765-339.576471 270.787765-152.545882 0-291.749647-116.495059-339.034353-269.040942-0.301176-1.054118-2.951529-3.644235-10.782118-8.854588-1.204706-0.813176-11.264-7.228235-14.516706-9.456941-31.713882-21.413647-48.519529-46.140235-48.519529-86.859294 0-40.719059 16.715294-65.626353 48.670118-88.274824 3.072-2.198588 12.950588-8.884706 14.516706-9.999058 8.252235-5.782588 11.264-8.884706 11.836235-10.63153 48.549647-150.768941 186.759529-265.306353 337.829647-265.306353z m-118.512941 499.169883c-8.131765 12.077176-4.939294 28.461176 7.137882 36.592941 38.008471 25.569882 75.233882 38.731294 111.555765 38.731294 36.683294 0 72.493176-13.432471 106.917647-39.514353a26.352941 26.352941 0 0 0-31.834353-42.014118 165.104941 165.104941 0 0 1-29.063529 17.889883l-7.168 3.132235-79.420236-0.030118a199.378824 199.378824 0 0 1-41.562353-21.925647 26.352941 26.352941 0 0 0-36.562823 7.137883z m2.56-221.57553c-10.360471 0-20.088471 6.144-27.316706 16.956235s-11.324235 25.419294-11.324235 41.020236c0 15.570824 4.126118 30.177882 11.324235 40.96 7.228235 10.842353 16.956235 17.016471 27.316706 17.01647 10.390588 0 20.118588-6.174118 27.346823-16.986353 7.198118-10.812235 11.324235-25.419294 11.324236-40.990117 0-15.600941-4.126118-30.208-11.324236-41.020236-7.228235-10.842353-16.956235-16.956235-27.346823-16.956235z m231.905882 0c-10.360471 0-20.118588 6.144-27.316706 16.956235-7.228235 10.812235-11.324235 25.419294-11.324235 41.020236 0 15.570824 4.126118 30.177882 11.324235 40.96 7.228235 10.842353 16.956235 17.016471 27.316706 17.01647 10.360471 0 20.118588-6.174118 27.346824-16.986353 7.198118-10.812235 11.324235-25.419294 11.324235-40.990117 0-15.600941-4.126118-30.208-11.324235-41.020236-7.228235-10.842353-16.986353-16.956235-27.346824-16.956235z m-5.451294-199.890823l0.060235 1.355294c0.361412 17.950118-6.023529 29.575529-19.696941 37.978353-20.239059 12.498824-57.042824 19.034353-109.628235 18.130823a26.352941 26.352941 0 1 0-0.90353 52.705883c61.741176 1.054118 107.610353-7.107765 138.209883-25.961412 21.805176-13.462588 35.719529-32.346353 41.562353-55.416471a308.043294 308.043294 0 0 0-49.603765-28.79247z" fill="#568af2" /></svg>