<svg class="icon" style="width: 1em;height: 1em;vertical-align: middle;fill: currentColor;overflow: hidden;" viewBox="0 0 1024 1024" version="1.1" xmlns="http://www.w3.org/2000/svg" width="32" height="32"><path d="M506.970353 124.235294a184.470588 184.470588 0 1 1 0 368.941177 184.470588 184.470588 0 0 1 0-368.941177z m133.300706 386.499765l3.674353 0.240941c93.093647 12.257882 208.715294 173.537882 221.967059 315.994353h27.587764a26.352941 26.352941 0 0 1 0 52.705882H120.470588a26.352941 26.352941 0 1 1 0-52.705882h27.437177c11.444706-140.318118 111.736471-280.816941 217.449411-314.940235a26.352941 26.352941 0 0 1 27.316706 7.047529 3498.014118 3498.014118 0 0 1 26.744471 28.762353c20.058353 21.684706 40.086588 43.670588 58.819765 64.602353l6.415058 7.168c5.421176 6.083765 10.631529 11.956706 15.600942 17.618823l7.198117 8.192 113.483294-125.952a26.352941 26.352941 0 0 1 19.33553-8.734117z m9.33647 55.567059l-123.060705 136.673882a26.352941 26.352941 0 0 1-37.195295 1.957647l-2.499764-2.590118a2420.675765 2420.675765 0 0 0-41.532236-47.646117l-6.324705-7.107765a5725.184 5725.184 0 0 0-71.499295-78.245647l-1.14447-1.234824-2.379294 1.084236c-77.703529 36.743529-152.515765 147.727059-163.147294 257.807059H812.875294c-12.438588-111.134118-98.785882-237.718588-162.93647-260.577883l-0.361412-0.12047z" fill="#568af2" /></svg>