<svg class="icon" style="width: 1em;height: 1em;vertical-align: middle;fill: currentColor;overflow: hidden;" viewBox="0 0 1024 1024" version="1.1" xmlns="http://www.w3.org/2000/svg" width="32" height="32"><path d="M414.117647 154.352941a149.323294 149.323294 0 1 1 0 298.676706 149.323294 149.323294 0 0 1 0-298.676706z m38.640941 386.499765c103.695059 0 128.361412 2.017882 160.105412 18.191059a166.912 166.912 0 0 1 72.944941 72.944941c16.173176 31.744 18.191059 56.410353 18.191059 160.105412v21.082353a26.352941 26.352941 0 0 1-26.352941 26.352941H150.588235A26.352941 26.352941 0 0 1 124.235294 813.176471v-21.082353c0-103.695059 2.017882-128.361412 18.191059-160.105412a166.912 166.912 0 0 1 72.944941-72.944941c31.744-16.173176 56.410353-18.191059 160.105412-18.191059h77.281882z m177.844706-356.171294a26.352941 26.352941 0 0 1 36.171294-8.975059 149.232941 149.232941 0 0 1 72.372706 128 149.232941 149.232941 0 0 1-72.372706 127.969882 26.352941 26.352941 0 0 1-27.196235-45.17647 96.557176 96.557176 0 0 0 46.863059-82.82353 96.557176 96.557176 0 0 0-46.863059-82.823529 26.352941 26.352941 0 0 1-8.975059-36.171294z m122.518588 385.897412a26.352941 26.352941 0 0 1 35.418353-11.535059 166.912 166.912 0 0 1 72.944941 72.944941c16.173176 31.744 18.191059 56.410353 18.191059 160.105412v21.082353a26.352941 26.352941 0 1 1-52.705882 0v-21.082353c0-93.093647-1.807059-115.290353-12.438588-136.161883a114.206118 114.206118 0 0 0-49.904941-49.904941 26.352941 26.352941 0 0 1-11.504942-35.44847z" fill="#568af2" /></svg>