<svg class="icon" style="width: 1em;height: 1em;vertical-align: middle;fill: currentColor;overflow: hidden;" viewBox="0 0 1024 1024" version="1.1" xmlns="http://www.w3.org/2000/svg" width="32" height="32"><path d="M444.235294 189.500235a149.323294 149.323294 0 1 1 0 298.646589 149.323294 149.323294 0 0 1 0-298.646589z m234.164706 37.918118a26.352941 26.352941 0 0 1 35.358118 11.776c2.891294 5.782588 6.776471 15.480471 10.541176 28.611765 14.697412 51.139765 14.697412 109.146353-9.697882 168.839529a26.352941 26.352941 0 0 1-48.790588-19.968c19.486118-47.646118 19.486118-93.756235 7.830588-134.324706a127.307294 127.307294 0 0 0-7.017412-19.57647 26.352941 26.352941 0 0 1 11.776-35.358118z m121.976471-69.752471a26.352941 26.352941 0 0 1 35.84 10.24c5.180235 9.336471 12.468706 25.720471 19.636705 48.128 28.190118 88.365176 28.190118 188.656941-18.672941 291.84a26.352941 26.352941 0 0 1-48.007529-21.835294c40.96-90.112 40.96-177.212235 16.474353-253.982117a285.876706 285.876706 0 0 0-11.053177-29.274353 135.529412 135.529412 0 0 0-4.457411-9.276236 26.352941 26.352941 0 0 1 10.24-35.84zM643.011765 594.221176a166.912 166.912 0 0 1 72.944941 72.944942c16.173176 31.744 18.191059 56.410353 18.191059 160.105411v21.082353a26.352941 26.352941 0 0 1-26.352941 26.352942H180.705882a26.352941 26.352941 0 0 1-26.352941-26.352942v-40.207058c0.301176-87.792941 3.072-111.284706 18.191059-140.980706a166.912 166.912 0 0 1 72.944941-72.944942c29.696-15.119059 53.187765-17.859765 140.980706-18.160941h115.531294c87.792941 0.301176 111.284706 3.011765 140.980706 18.160941z m-142.396236 34.544942h-112.700235c-78.366118 0.240941-98.996706 2.499765-118.482823 12.40847a114.206118 114.206118 0 0 0-49.904942 49.904941c-9.938824 19.486118-12.167529 40.116706-12.40847 118.482824l-0.030118 12.408471h474.322824v-3.794824c-0.090353-82.522353-1.987765-105.351529-11.384471-124.988235l-1.024-2.108236a114.206118 114.206118 0 0 0-49.904941-49.904941c-19.486118-9.938824-40.116706-12.167529-118.482824-12.40847z" fill="#568af2" /></svg>