<svg class="icon" style="width: 1em;height: 1em;vertical-align: middle;fill: currentColor;overflow: hidden;" viewBox="0 0 1024 1024" version="1.1" xmlns="http://www.w3.org/2000/svg" width="32" height="32"><path d="M527.058824 124.235294a166.912 166.912 0 1 1 0 333.793882 166.912 166.912 0 0 1 0-333.793882z m0 386.499765c189.199059 0 342.588235 153.389176 342.588235 342.588235a26.352941 26.352941 0 1 1-52.705883 0c0-147.757176-110.561882-269.703529-253.470117-287.623529l59.030588 192.030117a26.352941 26.352941 0 0 1-4.577882 24.214589l-70.294589 87.853176a26.352941 26.352941 0 0 1-41.140705 0l-70.294589-87.853176a26.352941 26.352941 0 0 1-4.608-24.214589l59.060706-192.030117c-142.908235 17.92-253.470118 139.866353-253.470117 287.623529a26.352941 26.352941 0 1 1-52.705883 0c0-189.199059 153.389176-342.588235 342.588236-342.588235z" fill="#568af2" /></svg>