<svg class="icon" style="width: 1em;height: 1em;vertical-align: middle;fill: currentColor;overflow: hidden;" viewBox="0 0 1024 1024" version="1.1" xmlns="http://www.w3.org/2000/svg" width="32" height="32"><path d="M326.264471 154.352941a149.323294 149.323294 0 1 1 0 298.676706 149.323294 149.323294 0 0 1 0-298.676706z m351.382588 0a149.323294 149.323294 0 1 1 0 298.676706 149.323294 149.323294 0 0 1 0-298.676706z m-290.334118 368.941177c38.701176 0 72.764235 16.022588 101.827765 42.134588 4.638118 4.126118 8.854588 8.252235 12.709647 12.348235 3.704471-4.186353 7.770353-8.222118 12.047059-12.167529 28.581647-26.202353 62.012235-42.315294 99.900235-42.315294h89.840941c98.243765 0 176.037647 91.316706 176.037647 202.029176v158.117647a26.352941 26.352941 0 1 1-52.705882 0v-158.117647c0-83.305412-56.229647-149.323294-123.331765-149.323294H613.797647c-22.979765 0-44.604235 10.420706-64.240941 28.431059a159.292235 159.292235 0 0 0-23.702588 27.467294l-0.993883 1.536 0.240941-0.451765 0.602353-1.204706 0.060236-0.150588-1.144471 2.228706a26.352941 26.352941 0 0 1-45.17647 0.180706 159.713882 159.713882 0 0 0-25.47953-29.424941c-20.178824-18.100706-42.556235-28.611765-66.650353-28.611765H298.526118c-66.048 0-121.584941 65.957647-121.584942 149.323294v158.117647a26.352941 26.352941 0 1 1-52.705882 0v-158.117647c0-110.652235 76.950588-202.029176 174.290824-202.029176h88.786823z m-36.562823 205.101176c10.24 10.300235 10.24 26.985412-0.090353 37.25553l-21.293177 21.172705h355.448471l-20.660706-20.781176a26.352941 26.352941 0 0 1 37.345882-37.165177l21.805177 21.89553 43.550117 43.821176c10.119529 10.179765 10.24 26.593882 0.240942 36.894118l-65.325177 67.523765a26.352941 26.352941 0 0 1-37.857882-36.653177l21.775059-22.497882 0.271058-0.331294H328.914824l21.895529 22.166588a26.352941 26.352941 0 1 1-37.496471 37.044706l-22.13647-22.377412L246.964706 831.548235a26.352941 26.352941 0 0 1 0.150588-37.195294l44.272941-44.062117 22.106353-22.016a26.352941 26.352941 0 0 1 37.285647 0.090352z" fill="#568af2" /></svg>