<svg class="icon" style="width: 1em;height: 1em;vertical-align: middle;fill: currentColor;overflow: hidden;" viewBox="0 0 1024 1024" version="1.1" xmlns="http://www.w3.org/2000/svg" width="32" height="32"><path d="M532.088471 154.352941a149.323294 149.323294 0 1 1 0 298.676706 149.323294 149.323294 0 0 1 0-298.676706zM496.941176 523.294118a26.352941 26.352941 0 1 1 0 52.705882c-160.737882 0-289.882353 114.778353-289.882352 254.735059a26.352941 26.352941 0 1 1-52.705883 0c0-170.526118 154.021647-307.440941 342.588235-307.440941z m210.82353 0a184.470588 184.470588 0 1 1 0 368.941176 184.470588 184.470588 0 0 1 0-368.941176z m-17.558588 105.411764a26.352941 26.352941 0 0 0-26.352942 26.352942v70.26447c0 14.576941 11.776 26.352941 26.352942 26.352941h70.26447a26.352941 26.352941 0 0 0 26.352941-26.352941l-0.210823-3.312941a26.352941 26.352941 0 0 0-26.142118-23.04h-43.911529V655.058824a26.352941 26.352941 0 0 0-26.352941-26.352942z" fill="#568af2" /></svg>