<svg class="icon" style="width: 1em;height: 1em;vertical-align: middle;fill: currentColor;overflow: hidden;" viewBox="0 0 1024 1024" version="1.1" xmlns="http://www.w3.org/2000/svg" width="32" height="32"><path d="M527.058824 124.235294a166.912 166.912 0 1 1 0 333.793882 166.912 166.912 0 0 1 0-333.793882z m0 386.499765c189.199059 0 342.588235 153.389176 342.588235 342.588235a26.352941 26.352941 0 1 1-52.705883 0 289.882353 289.882353 0 0 0-579.764705 0 26.352941 26.352941 0 1 1-52.705883 0c0-189.199059 153.389176-342.588235 342.588236-342.588235z m0 140.559059c14.546824 0 26.352941 11.806118 26.352941 26.352941v61.470117h61.500235a26.352941 26.352941 0 0 1 0 52.705883h-61.500235v61.500235a26.352941 26.352941 0 1 1-52.705883 0v-61.500235h-61.500235a26.352941 26.352941 0 0 1 0-52.705883h61.500235V677.647059c0-14.546824 11.806118-26.352941 26.352942-26.352941z" fill="#568af2" /></svg>