<svg class="icon" style="width: 1em;height: 1em;vertical-align: middle;fill: currentColor;overflow: hidden;" viewBox="0 0 1024 1024" version="1.1" xmlns="http://www.w3.org/2000/svg" width="32" height="32"><path d="M414.117647 184.470588a149.323294 149.323294 0 1 1 0 298.676706 149.323294 149.323294 0 0 1 0-298.676706z m198.776471 404.690824a166.912 166.912 0 0 1 72.914823 72.944941c16.173176 31.744 18.191059 56.410353 18.191059 160.105412v21.082353a26.352941 26.352941 0 0 1-26.352941 26.352941H150.588235A26.352941 26.352941 0 0 1 124.235294 843.294118v-40.176942c0.301176-87.823059 3.072-111.314824 18.191059-141.010823a166.912 166.912 0 0 1 72.944941-72.944941c29.696-15.119059 53.187765-17.859765 140.980706-18.160941h115.531294c87.792941 0.301176 111.284706 3.011765 140.980706 18.160941z m-142.456471 34.544941h-112.64c-78.396235 0.271059-99.026824 2.499765-118.512941 12.438588a114.206118 114.206118 0 0 0-49.904941 49.904941c-9.938824 19.456-12.167529 40.116706-12.408471 118.452706l-0.030118 12.408471h474.322824V813.176471c-0.090353-82.552471-1.987765-105.381647-11.384471-124.988236l-1.024-2.108235a114.206118 114.206118 0 0 0-49.904941-49.904941c-19.486118-9.938824-40.116706-12.167529-118.482823-12.438588z m277.473882-316.235294c14.576941 0 26.352941 11.776 26.352942 26.322823v79.058824h79.058823c13.432471 0 24.545882 10.059294 26.172235 23.070118l0.180706 3.312941a26.352941 26.352941 0 0 1-26.352941 26.322823h-79.058823v79.058824a26.352941 26.352941 0 0 1-23.04 26.172235l-3.312942 0.180706a26.352941 26.352941 0 0 1-26.352941-26.352941v-79.058824h-79.058823a26.352941 26.352941 0 0 1-26.142118-23.04l-0.210823-3.312941c0-14.546824 11.806118-26.352941 26.352941-26.352941h79.058823v-79.058824c0-13.432471 10.059294-24.515765 23.070118-26.142117l3.312941-0.210824z" fill="#568af2" /></svg>