<svg class="icon" style="width: 1em;height: 1em;vertical-align: middle;fill: currentColor;overflow: hidden;" viewBox="0 0 1024 1024" version="1.1" xmlns="http://www.w3.org/2000/svg" width="32" height="32"><path d="M527.058824 124.235294a166.912 166.912 0 1 1 0 333.793882 166.912 166.912 0 0 1 0-333.793882z m0 386.499765c189.199059 0 342.588235 153.389176 342.588235 342.588235a26.352941 26.352941 0 1 1-52.705883 0 289.882353 289.882353 0 0 0-579.764705 0 26.352941 26.352941 0 1 1-52.705883 0c0-189.199059 153.389176-342.588235 342.588236-342.588235z m88.907294 183.41647a26.352941 26.352941 0 0 1 0 37.25553L564.344471 783.058824l51.621647 51.651764a26.352941 26.352941 0 0 1-37.25553 37.25553L527.058824 820.344471l-51.651765 51.621647a26.352941 26.352941 0 0 1-37.25553-37.25553L489.773176 783.058824l-51.621647-51.651765a26.352941 26.352941 0 0 1 37.25553-37.25553l51.651765 51.621647 51.651764-51.621647a26.352941 26.352941 0 0 1 37.25553 0z" fill="#568af2" /></svg>