<svg class="icon" style="width: 1em;height: 1em;vertical-align: middle;fill: currentColor;overflow: hidden;" viewBox="0 0 1024 1024" version="1.1" xmlns="http://www.w3.org/2000/svg" width="32" height="32"><path d="M532.088471 154.352941a149.323294 149.323294 0 1 1 0 298.676706 149.323294 149.323294 0 0 1 0-298.676706zM496.941176 523.294118a26.352941 26.352941 0 1 1 0 52.705882c-160.737882 0-289.882353 114.778353-289.882352 254.735059a26.352941 26.352941 0 1 1-52.705883 0c0-170.526118 154.021647-307.440941 342.588235-307.440941z m220.702118 18.703058a26.352941 26.352941 0 0 1 15.36 0 1032.914824 1032.914824 0 0 1 63.186824 21.684706c11.625412 4.397176 22.076235 8.734118 31.201882 12.890353 33.039059 15.088941 47.284706 24.847059 47.284706 46.863059 0 72.161882-25.419294 134.083765-67.46353 185.374118-25.178353 30.659765-50.447059 51.2-68.156235 62.012235a26.352941 26.352941 0 0 1-27.437176 0c-17.709176-10.812235-43.008-31.322353-68.156236-62.042353-42.074353-51.260235-67.463529-113.182118-67.463529-185.344 0-21.985882 14.245647-31.774118 47.284706-46.863059 9.095529-4.186353 19.576471-8.493176 31.171765-12.890353a1032.914824 1032.914824 0 0 1 63.186823-21.684706z" fill="#568af2" /></svg>