<svg class="icon" style="width: 1em;height: 1em;vertical-align: middle;fill: currentColor;overflow: hidden;" viewBox="0 0 1024 1024" version="1.1" xmlns="http://www.w3.org/2000/svg" width="32" height="32"><path d="M520.583529 192.180706l80.143059 80.112941h252.596706c13.432471 0 24.545882 10.059294 26.172235 23.070118l0.180706 3.312941v527.058823a26.352941 26.352941 0 0 1-26.352941 26.352942H150.588235a26.352941 26.352941 0 0 1-26.352941-26.352942v-527.058823c0-14.576941 11.806118-26.352941 26.352941-26.352941l252.596706-0.030118 80.112941-80.112941a26.352941 26.352941 0 0 1 37.285647 0z m-18.612705 185.524706a114.206118 114.206118 0 0 0-82.401883 193.264941c-60.325647 27.226353-102.098824 83.546353-102.098823 149.353412a26.352941 26.352941 0 0 0 52.705882 0c0-62.343529 58.368-114.206118 131.794824-114.206118 73.396706 0 131.764706 51.862588 131.764705 114.206118a26.352941 26.352941 0 0 0 52.705883 0c0-65.807059-41.773176-122.127059-102.098824-149.38353a114.206118 114.206118 0 0 0-82.371764-193.204706z m0 52.705882a61.500235 61.500235 0 1 1 0 123.000471 61.500235 61.500235 0 0 1 0-122.970353z" fill="#568af2" /></svg>