<svg class="icon" style="width: 1em;height: 1em;vertical-align: middle;fill: currentColor;overflow: hidden;" viewBox="0 0 1024 1024" version="1.1" xmlns="http://www.w3.org/2000/svg" width="32" height="32"><path d="M276.058353 181.127529a26.352941 26.352941 0 0 1 30.147765 43.248942 96.466824 96.466824 0 0 0-41.411765 79.299764c0 34.334118 17.980235 65.475765 46.832941 82.853647a26.352941 26.352941 0 1 1-27.196235 45.146353 149.232941 149.232941 0 0 1-72.342588-128c0-49.392941 24.214588-94.810353 63.969882-122.548706z m415.111529 6.53553a26.352941 26.352941 0 0 1 36.683294-6.53553 149.172706 149.172706 0 0 1 64 122.578824 149.172706 149.172706 0 0 1-64 122.548706 26.352941 26.352941 0 0 1-30.147764-43.248941 96.466824 96.466824 0 0 0 41.441882-79.329883c0-31.984941-15.661176-61.319529-41.441882-79.299764a26.352941 26.352941 0 0 1-6.53553-36.713412z m-189.199058-33.310118a149.323294 149.323294 0 1 1 0 298.676706 149.323294 149.323294 0 0 1 0-298.676706z m0 386.499765c86.256941 0 106.857412 1.415529 134.144 12.709647a166.881882 166.881882 0 0 1 90.322823 90.352941c11.294118 27.256471 12.709647 47.856941 12.709647 134.113882V813.176471a26.352941 26.352941 0 0 1-26.352941 26.352941h-421.647059A26.352941 26.352941 0 0 1 264.794353 813.176471v-35.147295c0-86.256941 1.385412-106.857412 12.679529-134.144a166.881882 166.881882 0 0 1 90.352942-90.322823c27.256471-11.294118 47.856941-12.709647 134.144-12.709647z m251.151058 29.726118a26.352941 26.352941 0 0 1 35.418353-11.535059 166.912 166.912 0 0 1 72.944941 72.944941c16.173176 31.744 18.191059 56.410353 18.191059 160.105412v21.082353a26.352941 26.352941 0 1 1-52.705882 0v-21.082353c0-93.093647-1.807059-115.290353-12.438588-136.161883a114.206118 114.206118 0 0 0-49.904941-49.904941 26.352941 26.352941 0 0 1-11.504942-35.44847zM215.341176 559.043765a26.352941 26.352941 0 1 1 23.913412 46.983529 114.206118 114.206118 0 0 0-49.904941 49.904941c-9.938824 19.456-12.167529 40.116706-12.408471 118.482824L176.941176 813.176471a26.352941 26.352941 0 1 1-52.705882 0v-21.082353c0-103.695059 2.017882-128.361412 18.191059-160.105412a166.912 166.912 0 0 1 72.944941-72.944941z" fill="#568af2" /></svg>