<svg class="icon" style="width: 1em;height: 1em;vertical-align: middle;fill: currentColor;overflow: hidden;" viewBox="0 0 1024 1024" version="1.1" xmlns="http://www.w3.org/2000/svg" width="32" height="32"><path d="M439.205647 184.470588a149.323294 149.323294 0 1 1 0 298.676706 149.323294 149.323294 0 0 1 0-298.676706z m316.235294 421.647059c2.319059 0 4.517647 0.301176 6.625883 0.843294l0.391529 0.090353a26.112 26.112 0 0 1 11.625412 6.776471l70.26447 70.294588a26.352941 26.352941 0 1 1-37.255529 37.255529l-25.298824-25.268706v112.037648a26.352941 26.352941 0 1 1-52.705882 0v-112.067765l-25.298824 25.298823a26.352941 26.352941 0 0 1-34.544941 2.349177l-2.710588-2.349177a26.352941 26.352941 0 0 1 0-37.255529l70.294588-70.294588 0.421647-0.421647a26.503529 26.503529 0 0 1 1.566118-1.385412l-1.987765 1.807059a26.563765 26.563765 0 0 1 18.612706-7.710118z m-175.676235-35.147294a26.352941 26.352941 0 0 1 0 52.705882l-161.731765 0.030118c-78.396235 0.271059-99.026824 2.499765-118.512941 12.438588a114.206118 114.206118 0 0 0-49.904941 49.904941c-9.938824 19.456-12.167529 40.116706-12.408471 118.452706l-0.030117 12.408471 342.588235 0.030117c13.432471 0 24.515765 10.059294 26.142118 23.04l0.210823 3.312942a26.352941 26.352941 0 0 1-26.352941 26.352941H210.823529A26.352941 26.352941 0 0 1 184.470588 843.294118v-21.082353c0-103.695059 2.017882-128.361412 18.191059-160.105412a166.912 166.912 0 0 1 72.944941-72.944941c31.744-16.173176 56.410353-18.191059 160.105412-18.191059h144.052706z" fill="#568af2" /></svg>