<svg class="icon" style="width: 1em;height: 1em;vertical-align: middle;fill: currentColor;overflow: hidden;" viewBox="0 0 1024 1024" version="1.1" xmlns="http://www.w3.org/2000/svg" width="32" height="32"><path d="M439.205647 184.470588a149.323294 149.323294 0 1 1 0 298.676706 149.323294 149.323294 0 0 1 0-298.676706z m312.892235 649.818353l-1.024-0.150588a26.172235 26.172235 0 0 1-14.245647-7.348706L666.503529 756.555294a26.352941 26.352941 0 1 1 37.285647-37.285647l25.268706 25.298824V632.470588a26.352941 26.352941 0 0 1 52.705883 0v112.037647l25.298823-25.268706a26.352941 26.352941 0 1 1 37.25553 37.285647l-70.264471 70.264471-0.662588 0.632471a26.503529 26.503529 0 0 1-1.264941 1.114353l1.927529-1.746824a26.563765 26.563765 0 0 1-15.269647 7.529412l-3.373176 0.180706-3.343059-0.210824z m-172.333176-263.318588a26.352941 26.352941 0 0 1 0 52.705882l-161.731765 0.030118c-78.396235 0.271059-99.026824 2.499765-118.512941 12.438588a114.206118 114.206118 0 0 0-49.904941 49.904941c-9.938824 19.456-12.167529 40.116706-12.408471 118.452706l-0.030117 12.408471 342.588235 0.030117c13.432471 0 24.515765 10.059294 26.142118 23.04l0.210823 3.312942a26.352941 26.352941 0 0 1-26.352941 26.352941H210.823529A26.352941 26.352941 0 0 1 184.470588 843.294118v-21.082353c0-103.695059 2.017882-128.361412 18.191059-160.105412a166.912 166.912 0 0 1 72.944941-72.944941c31.744-16.173176 56.410353-18.191059 160.105412-18.191059h144.052706z" fill="#568af2" /></svg>