<svg class="icon" style="width: 1em;height: 1em;vertical-align: middle;fill: currentColor;overflow: hidden;" viewBox="0 0 1024 1024" version="1.1" xmlns="http://www.w3.org/2000/svg" width="32" height="32"><path d="M808.146824 124.235294c14.576941 0 26.352941 11.806118 26.352941 26.352941v702.735059a26.352941 26.352941 0 0 1-26.352941 26.352941H245.970824a26.352941 26.352941 0 0 1-26.352942-26.352941v-140.528941a26.352941 26.352941 0 1 1 52.705883 0v114.176h509.470117V176.941176H272.323765v114.206118a26.352941 26.352941 0 0 1-23.070118 26.142118l-3.312941 0.210823a26.352941 26.352941 0 0 1-26.322824-26.352941V150.588235c0-14.546824 11.776-26.352941 26.352942-26.352941h562.176zM527.058824 528.323765a166.912 166.912 0 0 1 166.912 166.881882 26.352941 26.352941 0 0 1-52.705883 0 114.206118 114.206118 0 1 0-228.412235 0 26.352941 26.352941 0 1 1-52.705882 0 166.912 166.912 0 0 1 166.912-166.881882z m-245.970824 52.705882a26.352941 26.352941 0 1 1 0 52.705882H210.823529a26.352941 26.352941 0 0 1 0-52.705882h70.264471z m0-105.411765a26.352941 26.352941 0 1 1 0 52.705883H210.823529a26.352941 26.352941 0 0 1 0-52.705883h70.264471zM527.058824 282.352941a96.617412 96.617412 0 1 1 0 193.264941 96.617412 96.617412 0 0 1 0-193.264941z m-245.970824 87.853177a26.352941 26.352941 0 1 1 0 52.705882H210.823529a26.352941 26.352941 0 0 1 0-52.705882h70.264471z" fill="#568af2" /></svg>