<svg class="icon" style="width: 1em;height: 1em;vertical-align: middle;fill: currentColor;overflow: hidden;" viewBox="0 0 1024 1024" version="1.1" xmlns="http://www.w3.org/2000/svg" width="32" height="32"><path d="M328.794353 184.470588a96.617412 96.617412 0 1 1 0 193.264941 96.617412 96.617412 0 0 1 0-193.264941z m316.235294 0a96.617412 96.617412 0 1 1 0 193.264941 96.617412 96.617412 0 0 1 0-193.264941z m-228.412235 245.970824c15.510588 0 27.648 13.281882 26.262588 28.732235l-35.147294 386.499765a26.352941 26.352941 0 0 1-26.232471 23.973647h-105.411764a26.352941 26.352941 0 0 1-26.262589-23.973647L214.738824 459.173647A26.352941 26.352941 0 0 1 240.941176 430.441412h175.676236z m316.235294 0c12.739765 0 23.672471 9.095529 25.931294 21.62447l35.147294 193.264942a26.352941 26.352941 0 0 1-25.931294 31.051294h-28.611765l-15.420235 169.291294a26.352941 26.352941 0 0 1-22.889412 23.762823l-3.343059 0.210824h-105.411764a26.352941 26.352941 0 0 1-26.262589-23.973647l-15.420235-169.291294h-28.611765a26.352941 26.352941 0 0 1-26.292705-27.828706l0.361411-3.222588 35.147294-193.264942a26.352941 26.352941 0 0 1 25.931295-21.62447h175.676235z" fill="#568af2" /></svg>