<svg class="icon" style="width: 1em;height: 1em;vertical-align: middle;fill: currentColor;overflow: hidden;" viewBox="0 0 1024 1024" version="1.1" xmlns="http://www.w3.org/2000/svg" width="32" height="32"><path d="M768 124.235294c33.972706 0 61.500235 27.527529 61.500235 61.500235v632.470589a61.500235 61.500235 0 0 1-61.500235 61.470117H276.088471a61.500235 61.500235 0 0 1-61.500236-61.470117v-632.470589c0-33.972706 27.527529-61.500235 61.500236-61.500235H768z m-228.382118 579.764706h-123.00047a26.352941 26.352941 0 0 0-3.312941 52.495059l3.312941 0.210823h123.00047a26.352941 26.352941 0 0 0 0-52.705882z m87.823059-105.411765h-210.823529a26.352941 26.352941 0 0 0-3.312941 52.495059l3.312941 0.210824h210.823529a26.352941 26.352941 0 1 0 0-52.705883z m-105.411765-351.382588a96.617412 96.617412 0 0 0-71.469176 161.641412 131.584 131.584 0 0 0-60.295529 110.682353 26.352941 26.352941 0 0 0 52.705882 0 79.058824 79.058824 0 0 1 158.117647 0 26.352941 26.352941 0 0 0 52.705882 0 131.644235 131.644235 0 0 0-60.235294-110.712471 96.617412 96.617412 0 0 0-71.499294-161.611294z m0 52.705882a43.911529 43.911529 0 1 1 0 87.853177 43.911529 43.911529 0 0 1 0-87.853177z" fill="#568af2" /></svg>