<svg class="icon" style="width: 1em;height: 1em;vertical-align: middle;fill: currentColor;overflow: hidden;" viewBox="0 0 1024 1024" version="1.1" xmlns="http://www.w3.org/2000/svg" width="32" height="32"><path d="M818.206118 214.588235c33.942588 0 61.470118 27.527529 61.470117 61.500236V768a61.500235 61.500235 0 0 1-61.470117 61.500235h-632.470589A61.500235 61.500235 0 0 1 124.235294 768V276.088471c0-33.972706 27.527529-61.500235 61.500235-61.500236h632.470589z m-439.235765 158.117647a96.617412 96.617412 0 0 0-71.469177 161.641412 131.523765 131.523765 0 0 0-60.295529 110.682353 26.352941 26.352941 0 0 0 52.705882 0 79.058824 79.058824 0 0 1 158.117647 0 26.352941 26.352941 0 0 0 52.705883 0 131.644235 131.644235 0 0 0-60.235294-110.712471 96.617412 96.617412 0 0 0-71.499294-161.611294z m333.824 193.264942h-105.411765a26.352941 26.352941 0 1 0 0 52.705882h105.411765a26.352941 26.352941 0 0 0 0-52.705882z m0-140.559059H572.235294a26.352941 26.352941 0 1 0 0 52.705882h140.559059a26.352941 26.352941 0 0 0 0-52.705882z" fill="#568af2" /><path d="M378.970353 425.411765a43.911529 43.911529 0 1 0 0 87.853176 43.911529 43.911529 0 0 0 0-87.853176z" fill="#568af2" /></svg>