<svg class="icon" style="width: 1em;height: 1em;vertical-align: middle;fill: currentColor;overflow: hidden;" viewBox="0 0 1024 1024" version="1.1" xmlns="http://www.w3.org/2000/svg" width="32" height="32"><path d="M853.323294 184.470588c14.576941 0 26.352941 11.806118 26.352941 26.352941v527.058824a26.352941 26.352941 0 0 1-26.352941 26.352941h-252.626823l-80.112942 80.112941a26.352941 26.352941 0 0 1-34.544941 2.379294l-2.710588-2.379294-80.112941-80.112941H150.588235a26.352941 26.352941 0 0 1-26.142117-23.04l-0.210824-3.312941V210.823529c0-14.546824 11.806118-26.352941 26.352941-26.352941h702.735059z m-351.35247 105.411765a114.206118 114.206118 0 0 0-82.432 193.234823c-60.295529 27.226353-102.038588 83.546353-102.038589 149.353412a26.352941 26.352941 0 1 0 52.705883 0c0-62.343529 58.337882-114.206118 131.764706-114.206117 73.396706 0 131.764706 51.862588 131.764705 114.206117a26.352941 26.352941 0 1 0 52.705883 0c0-65.807059-41.743059-122.096941-102.098824-149.383529a114.206118 114.206118 0 0 0-82.401882-193.234824z m0 52.705882a61.500235 61.500235 0 1 1 0 122.970353 61.500235 61.500235 0 0 1 0-122.970353z" fill="#568af2" /></svg>