<svg class="icon" style="width: 1em;height: 1em;vertical-align: middle;fill: currentColor;overflow: hidden;" viewBox="0 0 1024 1024" version="1.1" xmlns="http://www.w3.org/2000/svg" width="32" height="32"><path d="M444.235294 184.470588a149.323294 149.323294 0 1 1 0 298.676706 149.323294 149.323294 0 0 1 0-298.676706z m422.701177 165.827765a26.352941 26.352941 0 0 1 0 37.285647l-51.651765 51.621647 51.651765 51.651765a26.352941 26.352941 0 1 1-37.25553 37.255529l-51.651765-51.651765-51.621647 51.651765a26.352941 26.352941 0 1 1-37.285647-37.255529l51.621647-51.651765-51.621647-51.621647a26.352941 26.352941 0 1 1 37.285647-37.285647l51.621647 51.621647 51.651765-51.621647a26.352941 26.352941 0 0 1 37.25553 0z m-223.954824 238.863059a166.912 166.912 0 0 1 72.944941 72.944941c16.173176 31.744 18.191059 56.410353 18.191059 160.105412v21.082353a26.352941 26.352941 0 0 1-26.352941 26.352941H180.705882A26.352941 26.352941 0 0 1 154.352941 843.294118v-40.176942c0.301176-87.823059 3.072-111.314824 18.191059-141.010823a166.912 166.912 0 0 1 72.944941-72.944941c29.696-15.119059 53.187765-17.859765 140.980706-18.160941h115.531294c87.792941 0.301176 111.284706 3.011765 140.980706 18.160941z m-142.396235 34.544941h-112.700236c-78.366118 0.271059-98.996706 2.499765-118.482823 12.438588a114.206118 114.206118 0 0 0-49.904941 49.904941c-9.938824 19.456-12.167529 40.116706-12.408471 118.452706l-0.030117 12.408471h474.322823V813.176471c-0.090353-82.552471-1.987765-105.381647-11.384471-124.988236l-1.024-2.108235a114.206118 114.206118 0 0 0-49.904941-49.904941c-19.486118-9.938824-40.116706-12.167529-118.482823-12.438588z" fill="#568af2" /></svg>