<svg class="icon" style="width: 1em;height: 1em;vertical-align: middle;fill: currentColor;overflow: hidden;" viewBox="0 0 1024 1024" version="1.1" xmlns="http://www.w3.org/2000/svg" width="32" height="32"><path d="M501.970824 124.235294a114.206118 114.206118 0 1 1 0 228.382118 114.206118 114.206118 0 0 1 0-228.382118z m312.922352 404.48c41.080471 26.443294 64.783059 59.211294 64.783059 96.225882 0 97.039059-164.321882 164.472471-366.71247 166.851765l-80.203294 80.173177a26.352941 26.352941 0 0 1-37.285647-37.25553l44.875294-44.905412c-178.477176-12.047059-316.114824-76.077176-316.114824-164.864 0-37.044706 23.732706-69.782588 64.783059-96.225882a26.352941 26.352941 0 0 1 28.551529 44.303059c-27.497412 17.679059-40.628706 35.84-40.628706 51.922823 0 49.362824 110.290824 99.689412 258.710589 111.555765l-40.176941-40.207059a26.352941 26.352941 0 0 1-2.349177-34.575058l2.349177-2.710589a26.352941 26.352941 0 0 1 37.285647 0l80.052705 80.052706c175.585882-2.228706 314.157176-58.789647 314.157177-114.115765 0-16.082824-13.131294-34.243765-40.598588-51.922823a26.352941 26.352941 0 0 1 28.521411-44.303059z m-246.874352-123.361882c8.432941 0.060235 12.920471 0.180706 17.046588 0.481882l3.523764 0.301177a166.912 166.912 0 0 1 149.744942 149.744941l0.301176 3.523764c0.301176 4.126118 0.421647 8.613647 0.481882 17.046589V589.793882a26.352941 26.352941 0 0 1-26.322823 26.352942h-421.647059a26.352941 26.352941 0 0 1-26.352941-26.352942v-13.342117c0.060235-8.432941 0.180706-12.920471 0.481882-17.046589l0.301177-3.523764a166.912 166.912 0 0 1 149.744941-149.744941l3.553882-0.301177c3.433412-0.271059 7.107765-0.391529 13.131294-0.451765h136.011295z m-0.512 52.705882H436.404706c-9.035294 0.060235-12.468706 0.180706-15.962353 0.542118a114.206118 114.206118 0 0 0-102.550588 103.755294l-0.090353 1.084235H686.08l-0.090353-1.084235-0.120471-1.325177a114.206118 114.206118 0 0 0-118.362352-102.972235z" fill="#568af2" /></svg>