<svg class="icon" style="width: 1em;height: 1em;vertical-align: middle;fill: currentColor;overflow: hidden;" viewBox="0 0 1024 1024" version="1.1" xmlns="http://www.w3.org/2000/svg" width="32" height="32"><path d="M792.485647 124.235294a92.220235 92.220235 0 0 1 92.220235 92.250353v610.484706h8.794353a26.352941 26.352941 0 0 1 0 52.705882H120.470588a26.352941 26.352941 0 0 1 0-52.705882h19.275294c17.769412-139.625412 173.477647-281.088 367.224471-281.088 7.137882 0 18.974118 0.662588 34.213647 2.620235 25.238588 3.222588 51.139765 9.035294 76.318118 18.100706 30.569412 11.053176 53.428706 16.805647 69.330823 16.655059 12.137412-0.120471 13.402353-1.204706 13.402353-11.023059V216.485647a92.220235 92.220235 0 0 1 92.250353-92.250353z m0 52.705882c-21.835294 0-39.544471 17.709176-39.544471 39.544471V572.235294c0 41.170824-26.503529 63.337412-65.596235 63.728941-24.003765 0.240941-51.561412-6.716235-87.732706-19.757176a307.501176 307.501176 0 0 0-65.084235-15.450353 238.351059 238.351059 0 0 0-27.557647-2.168471c-164.080941 0-295.544471 117.157647-314.006588 228.412236l639.036235-0.030118V216.485647c0-21.835294-17.709176-39.544471-39.544471-39.544471z m-285.515294-52.705882a184.470588 184.470588 0 1 1 0 368.941177 184.470588 184.470588 0 0 1 0-368.941177z" fill="#568af2" /></svg>