<svg class="icon" style="width: 1em;height: 1em;vertical-align: middle;fill: currentColor;overflow: hidden;" viewBox="0 0 1024 1024" version="1.1" xmlns="http://www.w3.org/2000/svg" width="32" height="32"><path d="M572.235294 646.264471a149.353412 149.353412 0 0 1 148.992 139.023058 26.352941 26.352941 0 0 0 43.068235 18.522353 376.410353 376.410353 0 0 1-262.324705 106.014118A376.470588 376.470588 0 0 1 241.242353 805.345882c3.794824 2.740706 8.402824 4.457412 13.402353 4.818824a26.352941 26.352941 0 0 0 28.009412-24.576 149.353412 149.353412 0 0 1 142.305882-139.203765l6.716235-0.150588H572.235294zM501.970824 154.352941c208.594824 0 377.705412 169.110588 377.705411 377.73553 0 105.231059-43.038118 200.432941-112.489411 268.950588a26.202353 26.202353 0 0 0 6.625882-19.305412 202.059294 202.059294 0 0 0-194.499765-188.054588L572.235294 593.558588h-140.559059A202.059294 202.059294 0 0 0 230.098824 782.155294a26.232471 26.232471 0 0 0 5.059764 17.347765 376.651294 376.651294 0 0 1-110.923294-267.384471c0-208.624941 169.110588-377.735529 377.73553-377.735529z m0 158.117647a114.206118 114.206118 0 1 0 0 228.382118 114.206118 114.206118 0 0 0 0-228.382118z m0 52.705883a61.500235 61.500235 0 1 1 0 122.970353 61.500235 61.500235 0 0 1 0-122.970353z" fill="#568af2" /></svg>