<svg class="icon" style="width: 1em;height: 1em;vertical-align: middle;fill: currentColor;overflow: hidden;" viewBox="0 0 1024 1024" version="1.1" xmlns="http://www.w3.org/2000/svg" width="32" height="32"><path d="M424.448 155.407059c24.847059-1.264941 39.815529-1.505882 56.500706-0.240941 60.235294 4.487529 108.423529 16.926118 145.769412 34.816 24.094118 11.535059 39.815529 23.311059 48.790588 33.129411 13.342118 15.450353 22.889412 34.032941 28.672 55.416471 1.807059 6.625882 3.011765 12.408471 3.553882 16.835765 4.216471 23.792941 4.728471 47.495529 3.192471 75.595294-0.361412 6.445176-0.963765 13.071059-1.807059 20.178823l-0.752941 5.963294 0.301176 0.39153c2.831059 3.614118 5.029647 7.228235 6.866824 11.715765l1.716706 4.72847c1.957647 6.023529 2.831059 12.257882 2.800941 20.239059a152.696471 152.696471 0 0 1-28.250353 80.143059c-4.939294 6.957176-9.336471 12.077176-20.088471 23.883294-31.352471 34.575059-43.038118 54.031059-46.08 87.853176a244.826353 244.826353 0 0 0-0.873411 12.348236l-0.090353 3.102117 1.65647 0.843294c5.632 2.620235 13.824 5.511529 24.816941 8.553412l5.722353 1.505883a485.948235 485.948235 0 0 0 50.898824 9.84847c38.008471 6.836706 70.144 18.371765 96.015059 34.785883 22.166588 14.064941 39.755294 31.623529 52.043294 52.193882 15.480471 25.961412 19.998118 51.2 18.733176 69.451294v16.112941a40.056471 40.056471 0 0 1-40.267294 39.875765H194.680471a40.056471 40.056471 0 0 1-40.267295-39.875765l0.030118-14.848c-1.024-19.968 3.704471-45.357176 19.33553-71.469176 12.378353-20.690824 29.997176-38.279529 52.103529-52.254118 25.871059-16.323765 57.856-27.648 95.713882-34.032941a454.987294 454.987294 0 0 0 50.718118-9.848471c13.854118-3.553882 23.823059-6.987294 30.388706-10.029176l1.596235-0.813177-0.090353-3.132235a215.371294 215.371294 0 0 0-0.451765-7.770353l-0.391529-4.517647c-3.072-33.852235-14.757647-53.308235-45.236706-86.949647l-0.903529-0.933647c-10.691765-11.806118-15.119059-16.926118-20.058353-23.883294a152.756706 152.756706 0 0 1-28.250353-80.564706c0-13.402353 3.403294-23.702588 9.818353-32.677647l2.228706-2.921412-0.210824-1.505882a370.085647 370.085647 0 0 1-1.084235-90.804706l1.234823-8.342588 0.481883-5.601883c3.704471-31.171765 20.781176-55.928471 40.207059-73.728l4.517647-3.975529 0.271058-0.301177-0.090352-0.451764a48.368941 48.368941 0 0 1-0.421648-13.432471l0.722824-4.758588c3.373176-17.046588 15.781647-31.623529 37.195294-37.135059 6.686118-1.746824 11.836235-2.288941 20.660706-2.710588z" fill="#568af2" /></svg>