<svg class="icon" style="width: 1em;height: 1em;vertical-align: middle;fill: currentColor;overflow: hidden;" viewBox="0 0 1024 1024" version="1.1" xmlns="http://www.w3.org/2000/svg" width="32" height="32"><path d="M747.911529 231.544471c14.576941 0 26.352941 11.776 26.352942 26.352941v597.323294a26.352941 26.352941 0 0 1-26.352942 26.352941H256a26.352941 26.352941 0 0 1-26.352941-26.352941V257.867294c0-14.546824 11.806118-26.322824 26.352941-26.322823h491.911529z m-175.676235 421.647058h-140.559059a26.352941 26.352941 0 0 0 0 52.705883H572.235294a26.352941 26.352941 0 1 0 0-52.705883z m-70.26447-245.970823a96.617412 96.617412 0 1 0 0 193.264941 96.617412 96.617412 0 0 0 0-193.264941z" fill="#568af2" /><path d="M635.572706 127.036235a26.352941 26.352941 0 0 1 33.28 25.449412v105.411765a26.352941 26.352941 0 1 1-52.705882 0V186.940235L262.927059 283.316706a26.352941 26.352941 0 0 1-31.292235-15.36l-1.054118-3.132235a26.352941 26.352941 0 0 1 18.492235-32.376471l386.499765-105.411765z" fill="#568af2" /></svg>