<svg class="icon" style="width: 1em;height: 1em;vertical-align: middle;fill: currentColor;overflow: hidden;" viewBox="0 0 1024 1024" version="1.1" xmlns="http://www.w3.org/2000/svg" width="32" height="32"><path d="M501.970824 154.352941a114.206118 114.206118 0 0 1 82.401882 193.234824 202.089412 202.089412 0 0 1 118.272 160.88847 114.206118 114.206118 0 0 1 57.404235 190.494118 201.938824 201.938824 0 0 1 119.627294 184.470588 26.352941 26.352941 0 1 1-52.705882 0 149.323294 149.323294 0 0 0-298.646588 0 26.352941 26.352941 0 0 1-23.070118 26.172235l-3.312941 0.180706a26.352941 26.352941 0 0 1-26.322824-26.352941 149.323294 149.323294 0 0 0-298.676706 0 26.352941 26.352941 0 1 1-52.705882 0 202.089412 202.089412 0 0 1 119.657412-184.530823 113.483294 113.483294 0 0 1-31.804235-78.998589 114.236235 114.236235 0 0 1 89.20847-111.435294 202.179765 202.179765 0 0 1 118.272-160.918588 114.206118 114.206118 0 0 1 82.401883-193.204706z m0 228.382118a149.383529 149.383529 0 0 0-147.606589 126.494117 114.206118 114.206118 0 0 1 54.302118 189.741177 202.631529 202.631529 0 0 1 93.334588 84.690823 202.480941 202.480941 0 0 1 93.244235-84.751058 114.236235 114.236235 0 0 1 54.272-189.711059 149.323294 149.323294 0 0 0-147.57647-126.464z" fill="#568af2" /></svg>