<svg class="icon" style="width: 1em;height: 1em;vertical-align: middle;fill: currentColor;overflow: hidden;" viewBox="0 0 1024 1024" version="1.1" xmlns="http://www.w3.org/2000/svg" width="32" height="32"><path d="M532.088471 154.352941a149.323294 149.323294 0 1 1 0 298.676706 149.323294 149.323294 0 0 1 0-298.676706zM496.941176 523.294118a26.352941 26.352941 0 1 1 0 52.705882c-160.737882 0-289.882353 114.778353-289.882352 254.735059a26.352941 26.352941 0 1 1-52.705883 0c0-170.526118 154.021647-307.440941 342.588235-307.440941z m210.82353 0A79.058824 79.058824 0 0 1 786.823529 602.352941v26.352941h43.91153c14.576941 0 26.352941 11.806118 26.352941 26.352942v175.676235a26.352941 26.352941 0 0 1-26.352941 26.352941h-245.940706a26.352941 26.352941 0 0 1-26.352941-26.352941V655.058824c0-14.546824 11.776-26.352941 26.352941-26.352942h43.911529V602.352941a79.058824 79.058824 0 0 1 79.058824-79.058823z m0 52.705882a26.352941 26.352941 0 0 0-26.352941 26.352941v26.352941h52.705882V602.352941a26.352941 26.352941 0 0 0-26.352941-26.352941z" fill="#568af2" /></svg>