<svg class="icon" style="width: 1em;height: 1em;vertical-align: middle;fill: currentColor;overflow: hidden;" viewBox="0 0 1024 1024" version="1.1" xmlns="http://www.w3.org/2000/svg" width="32" height="32"><path d="M185.735529 883.440941a26.352941 26.352941 0 0 1-52.525176 3.312941l-0.180706-3.312941V180.705882a26.352941 26.352941 0 0 1 52.495059-3.312941l0.210823 3.312941-0.030117 79.058824H361.411765V215.853176c0-13.432471 10.059294-24.545882 23.04-26.172235l3.312941-0.180706h245.970823c13.432471 0 24.515765 10.029176 26.142118 23.04l0.210824 3.312941v140.528942a26.352941 26.352941 0 0 1-23.070118 26.172235l-3.312941 0.180706h-245.940706a26.352941 26.352941 0 0 1-26.142118-23.04l-0.210823-3.312941v-43.91153H185.705412v193.234824H361.411765v-43.91153c0-13.432471 10.059294-24.515765 23.04-26.142117l3.312941-0.210824h351.382588c13.432471 0 24.515765 10.059294 26.142118 23.070118l0.210823 3.312941V602.352941a26.352941 26.352941 0 0 1-23.070117 26.142118l-3.312942 0.210823H387.794824a26.352941 26.352941 0 0 1-26.142118-23.04L361.411765 602.352941v-43.941647H185.705412v193.264941H361.411765V707.764706c0-13.432471 10.059294-24.515765 23.04-26.142118l3.312941-0.210823h456.794353c13.432471 0 24.515765 10.059294 26.142117 23.04l0.210824 3.312941v140.559059a26.352941 26.352941 0 0 1-23.070118 26.142117l-3.312941 0.210824H387.794824a26.352941 26.352941 0 0 1-26.142118-23.070118l-0.210824-3.312941v-43.911529H185.705412v79.058823z" fill="#568af2" /></svg>