<svg class="icon" style="width: 1em;height: 1em;vertical-align: middle;fill: currentColor;overflow: hidden;" viewBox="0 0 1024 1024" version="1.1" xmlns="http://www.w3.org/2000/svg" width="32" height="32"><path d="M806.701176 252.416c9.456941 9.456941 10.24 24.244706 2.379295 34.575059l-2.379295 2.710588-51.651764 51.621647 51.651764 51.651765a26.352941 26.352941 0 0 1-34.544941 39.634823l-2.710588-2.379294-51.651765-51.651764-51.621647 51.651764a26.352941 26.352941 0 0 1-39.634823-34.544941l2.349176-2.710588 51.621647-51.651765-51.621647-51.621647a26.352941 26.352941 0 0 1 34.575059-39.634823l2.710588 2.349176 51.621647 51.621647 51.651765-51.621647a26.352941 26.352941 0 0 1 37.255529 0z m-3.312941 352.677647a26.352941 26.352941 0 0 1 41.833412 31.834353l-2.168471 2.861176-122.970352 140.559059a26.352941 26.352941 0 0 1-35.870118 3.553883l-2.620235-2.288942-70.264471-70.26447a26.352941 26.352941 0 0 1 34.575059-39.634824l2.710588 2.349177 50.326588 50.356706 104.448-119.356236zM506.970353 244.675765H120.470588A26.352941 26.352941 0 0 0 94.117647 271.058824v140.559058c0 14.546824 11.806118 26.352941 26.352941 26.352942h386.499765a26.352941 26.352941 0 0 0 26.352941-26.352942V271.058824a26.352941 26.352941 0 0 0-26.352941-26.352942z m0 351.382588H120.470588a26.352941 26.352941 0 0 0-26.352941 26.352941v140.528941c0 14.576941 11.806118 26.352941 26.352941 26.352941h386.499765a26.352941 26.352941 0 0 0 26.352941-26.352941v-140.528941a26.352941 26.352941 0 0 0-26.352941-26.352941z" fill="#568af2" /></svg>