<svg class="icon" style="width: 1em;height: 1em;vertical-align: middle;fill: currentColor;overflow: hidden;" viewBox="0 0 1024 1024" version="1.1" xmlns="http://www.w3.org/2000/svg" width="32" height="32"><path d="M501.970824 124.235294c208.594824 0 377.705412 169.110588 377.705411 377.73553 0 50.055529-26.804706 72.222118-92.973176 90.112l-14.757647 3.764705-7.890824 1.867295-16.624941 3.674352-31.382588 6.475295-15.390118 3.433411-13.733647 3.312942-6.26447 1.686588-11.384471 3.312941c-21.323294 6.716235-34.123294 13.703529-42.164706 22.799059-14.878118 16.775529-22.287059 41.050353-26.714353 81.317647l-3.19247 33.129412-0.813177 7.830588-1.867294 14.817882c-9.938824 71.228235-30.991059 100.171294-92.551529 100.171294-208.624941 0-377.735529-169.110588-377.73553-377.705411 0-208.624941 169.110588-377.735529 377.73553-377.73553z m-123.000471 421.647059a79.058824 79.058824 0 1 0 0 158.117647 79.058824 79.058824 0 0 0 0-158.117647zM361.411765 317.500235a79.058824 79.058824 0 1 0 0 158.117647 79.058824 79.058824 0 0 0 0-158.117647z m210.823529-70.294588a79.058824 79.058824 0 1 0 0 158.117647 79.058824 79.058824 0 0 0 0-158.117647z" fill="#568af2" /></svg>