<svg class="icon" style="width: 1em;height: 1em;vertical-align: middle;fill: currentColor;overflow: hidden;" viewBox="0 0 1024 1024" version="1.1" xmlns="http://www.w3.org/2000/svg" width="32" height="32"><path d="M712.794353 124.235294a166.912 166.912 0 1 1 0 333.793882h-421.647059a166.912 166.912 0 1 1 0-333.793882z m0 105.411765a61.500235 61.500235 0 1 0 0 122.970353 61.500235 61.500235 0 0 0 0-122.970353z m0 316.235294a166.912 166.912 0 1 1 0 333.793882h-421.647059a166.912 166.912 0 1 1 0-333.793882z m-421.647059 105.411765a61.500235 61.500235 0 1 0 0 122.970353 61.500235 61.500235 0 0 0 0-122.970353z" fill="#568af2" /></svg>