<svg class="icon" style="width: 1em;height: 1em;vertical-align: middle;fill: currentColor;overflow: hidden;" viewBox="0 0 1024 1024" version="1.1" xmlns="http://www.w3.org/2000/svg" width="32" height="32"><path d="M818.206118 184.470588c32.406588 0 58.970353 25.088 61.319529 56.922353l0.150588 4.577883v562.176a61.500235 61.500235 0 0 1-56.892235 61.319529l-4.577882 0.180706h-632.470589a61.500235 61.500235 0 0 1-61.319529-56.922353l-0.180706-4.577882V245.970824c0-32.436706 25.088-58.970353 56.922353-61.31953l4.577882-0.180706h632.470589zM361.411765 658.823529H176.941176v149.323295c0 4.156235 2.891294 7.649882 6.776471 8.553411l2.017882 0.240941L361.411765 816.911059v-158.08753z m228.382117 0H414.117647v158.08753h175.676235v-158.08753z m237.176471 0h-184.470588v158.08753l175.706353 0.030117a8.794353 8.794353 0 0 0 8.553411-6.77647l0.210824-2.017882v-149.323295z m-465.558588-210.823529H176.941176v158.117647H361.411765v-158.117647z m228.382117 0H414.117647v158.117647h175.676235v-158.117647z m237.176471 0h-184.470588v158.117647h184.470588v-158.117647z" fill="#568af2" /></svg>