<svg class="icon" style="width: 1em;height: 1em;vertical-align: middle;fill: currentColor;overflow: hidden;" viewBox="0 0 1024 1024" version="1.1" xmlns="http://www.w3.org/2000/svg" width="32" height="32"><path d="M263.529412 869.647059a79.058824 79.058824 0 0 1-78.908236-74.059294l-0.150588-4.99953V263.529412a79.058824 79.058824 0 0 1 74.059294-78.908236l4.99953-0.150588h527.058823a79.058824 79.058824 0 0 1 78.908236 74.059294l0.150588 4.99953v527.058823a79.058824 79.058824 0 0 1-74.059294 78.908236l-4.99953 0.150588H263.529412z m114.176-439.235765H237.176471v367.375059c0 9.697882 9.938824 17.709176 22.768941 18.974118l3.584 0.180705h114.176V430.411294z m439.235764 0H430.411294v386.529882H790.588235c13.342118 0 24.395294-7.228235 26.112-16.564705l0.240941-2.590118V430.381176z" fill="#568af2" /></svg>