<svg class="icon" style="width: 1em;height: 1em;vertical-align: middle;fill: currentColor;overflow: hidden;" viewBox="0 0 1024 1024" version="1.1" xmlns="http://www.w3.org/2000/svg" width="32" height="32"><path d="M796.852706 244.705882c32.436706 0 58.970353 25.088 61.319529 56.922353l0.180706 4.577883v421.647058a61.500235 61.500235 0 0 1-56.922353 61.31953l-4.577882 0.150588h-632.470588a61.500235 61.500235 0 0 1-61.31953-56.892235l-0.150588-4.577883v-421.647058c0-32.436706 25.088-58.970353 56.892235-61.31953l4.577883-0.180706h632.470588z m-245.940706 140.559059h-140.559059l-3.312941 0.180706a26.352941 26.352941 0 0 0-22.829176 22.859294l-0.210824 3.312941v210.82353l0.210824 3.312941c1.505882 11.896471 10.932706 21.323294 22.829176 22.829176l3.312941 0.210824h140.559059l3.312941-0.210824a26.352941 26.352941 0 0 0 22.829177-22.859294l0.210823-3.312941v-210.823529l-0.210823-3.312941a26.352941 26.352941 0 0 0-26.142118-23.009883z m254.735059-0.030117h-114.206118l-3.312941 0.210823a26.352941 26.352941 0 0 0-22.829176 22.859294l-0.210824 3.312941v210.82353l0.210824 3.312941c1.505882 11.896471 10.932706 21.323294 22.859294 22.829176l3.312941 0.210824 114.145882-0.030118v-52.705882h-87.823059v-158.117647h87.853177v-52.705882z m-535.853177 0H155.617882v52.705882h87.823059v158.117647H155.617882v52.705882h114.176l3.312942-0.180706a26.352941 26.352941 0 0 0 22.859294-22.859294l0.180706-3.312941v-210.823529l-0.180706-3.312941a26.352941 26.352941 0 0 0-26.172236-23.009883z m254.735059 52.705882v158.117647H436.705882v-158.117647h87.823059z" fill="#568af2" /></svg>