<svg class="icon" style="width: 1em;height: 1em;vertical-align: middle;fill: currentColor;overflow: hidden;" viewBox="0 0 1024 1024" version="1.1" xmlns="http://www.w3.org/2000/svg" width="32" height="32"><path d="M484.382118 154.352941H150.588235A26.352941 26.352941 0 0 0 124.235294 180.705882v386.499765c0 14.576941 11.806118 26.352941 26.352941 26.352941h333.793883a26.352941 26.352941 0 0 0 26.352941-26.352941V180.705882a26.352941 26.352941 0 0 0-26.352941-26.352941z m368.941176 527.058824c14.576941 0 26.352941 11.806118 26.352941 26.352941v158.117647a26.352941 26.352941 0 0 1-26.352941 26.352941H150.588235a26.352941 26.352941 0 0 1-26.352941-26.352941V707.764706c0-14.546824 11.806118-26.352941 26.352941-26.352941z m-26.352941 52.705882H176.941176v105.411765h650.029177v-105.411765z m26.352941-579.764706c14.576941 0 26.352941 11.806118 26.352941 26.352941v140.559059a26.352941 26.352941 0 0 1-26.352941 26.352941H624.941176a26.352941 26.352941 0 0 1-26.352941-26.352941V180.705882c0-14.546824 11.806118-26.352941 26.352941-26.352941z m-26.352941 52.705883h-175.676235v87.823058h175.676235V207.058824z m26.352941 193.264941c14.576941 0 26.352941 11.776 26.352941 26.352941v140.528941a26.352941 26.352941 0 0 1-26.352941 26.352941H624.941176a26.352941 26.352941 0 0 1-26.352941-26.352941v-140.528941c0-14.576941 11.806118-26.352941 26.352941-26.352941z m-26.352941 52.675764h-175.676235v87.853177h175.676235v-87.853177z" fill="#568af2" /></svg>