<svg class="icon" style="width: 1em;height: 1em;vertical-align: middle;fill: currentColor;overflow: hidden;" viewBox="0 0 1024 1024" version="1.1" xmlns="http://www.w3.org/2000/svg" width="32" height="32"><path d="M829.500235 848.323765a61.500235 61.500235 0 0 1-61.500235 61.470117H276.088471a61.500235 61.500235 0 0 1-61.500236-61.470117v-632.470589c0-33.972706 27.527529-61.500235 61.500236-61.500235H768c33.972706 0 61.500235 27.527529 61.500235 61.500235v632.470589zM557.176471 734.117647h-70.264471a26.352941 26.352941 0 0 0-3.312941 52.495059l3.312941 0.210823H557.176471a26.352941 26.352941 0 1 0 0-52.705882z m210.823529-527.058823H276.088471a8.794353 8.794353 0 0 0-8.794353 8.794352V611.087059h509.470117V215.853176a8.794353 8.794353 0 0 0-8.764235-8.794352z" fill="#568af2" /></svg>