<svg class="icon" style="width: 1em;height: 1em;vertical-align: middle;fill: currentColor;overflow: hidden;" viewBox="0 0 1024 1024" version="1.1" xmlns="http://www.w3.org/2000/svg" width="32" height="32"><path d="M491.911529 154.352941a26.352941 26.352941 0 1 1 0 52.705883H263.529412a26.352941 26.352941 0 0 0-26.352941 26.352941v386.499764c0 14.576941 11.806118 26.352941 26.352941 26.352942h527.058823a26.352941 26.352941 0 0 0 26.352941-26.352942v-158.117647a26.352941 26.352941 0 0 1 52.705883 0v158.117647a79.058824 79.058824 0 0 1-79.058824 79.058824h-237.17647v87.853176h149.323294a26.352941 26.352941 0 1 1 0 52.705883H351.382588a26.352941 26.352941 0 1 1 0-52.705883h149.323294v-87.853176H263.529412a79.058824 79.058824 0 0 1-79.058824-79.058824V233.411765A79.058824 79.058824 0 0 1 263.529412 154.352941h228.382117z m293.406118 0c46.381176 0 84.329412 36.833882 84.329412 82.642824 0 61.861647-64.903529 125.500235-123.663059 144.474353a26.352941 26.352941 0 0 1-16.203294 0c-58.759529-18.974118-123.663059-82.612706-123.663059-144.474353 0-45.808941 37.948235-82.642824 84.329412-82.642824 15.751529 0 30.840471 4.276706 43.791059 11.986824l3.644235 2.379294 3.644235-2.379294a85.323294 85.323294 0 0 1 37.918118-11.776l5.872941-0.210824z" fill="#568af2" /></svg>