<svg class="icon" style="width: 1em;height: 1em;vertical-align: middle;fill: currentColor;overflow: hidden;" viewBox="0 0 1024 1024" version="1.1" xmlns="http://www.w3.org/2000/svg" width="32" height="32"><path d="M790.588235 184.470588a79.058824 79.058824 0 0 1 79.058824 79.058824v527.058823a79.058824 79.058824 0 0 1-79.058824 79.058824H263.529412a79.058824 79.058824 0 0 1-79.058824-79.058824V263.529412A79.058824 79.058824 0 0 1 263.529412 184.470588h527.058823z m-87.853176 175.676236h-140.528941a26.352941 26.352941 0 0 0-26.352942 26.352941v121.554823a26.352941 26.352941 0 0 0 42.465883 20.841412c2.469647-1.897412 8.252235-5.511529 16.624941-9.246118 14.155294-6.354824 29.816471-10.149647 46.320941-10.149647 24.847059 0 35.117176 18.160941 35.117177 70.264471 0 44.574118-15.058824 61.500235-51.712 61.500235-26.292706 0-36.141176-11.173647-36.141177-32.737882a26.352941 26.352941 0 0 0-52.705882 0c0 49.272471 31.864471 85.443765 88.847059 85.443765 67.162353 0 104.417882-41.773176 104.417882-114.206118 0-77.342118-25.810824-122.970353-87.823059-122.970353l-9.125647 0.240941c-15.028706 0.843294-29.364706 3.764706-42.917647 8.312471l-0.662588 0.210823v-52.705882h114.176a26.352941 26.352941 0 1 0 0-52.705882z m-228.382118 0h-122.970353a26.352941 26.352941 0 0 0-26.352941 26.352941v281.118117c0 14.546824 11.776 26.352941 26.352941 26.352942l3.312941-0.210824a26.352941 26.352941 0 0 0 23.04-26.142118l-0.030117-114.206117h96.647529a26.352941 26.352941 0 0 0 26.142118-23.04l0.210823-3.312941a26.352941 26.352941 0 0 0-26.352941-26.352942h-96.647529v-87.853176h96.647529a26.352941 26.352941 0 1 0 0-52.705882z" fill="#568af2" /></svg>