<svg class="icon" style="width: 1em;height: 1em;vertical-align: middle;fill: currentColor;overflow: hidden;" viewBox="0 0 1024 1024" version="1.1" xmlns="http://www.w3.org/2000/svg" width="32" height="32"><path d="M848.323765 570.970353c14.546824 0 26.352941 11.806118 26.352941 26.352941V843.294118a26.352941 26.352941 0 0 1-26.352941 26.352941H180.705882A26.352941 26.352941 0 0 1 154.352941 843.294118v-245.970824c0-14.546824 11.806118-26.352941 26.352941-26.352941h667.617883z m-527.058824 114.206118a35.147294 35.147294 0 1 0 0 70.26447 35.147294 35.147294 0 0 0 0-70.26447z m140.528941 0a35.147294 35.147294 0 1 0 0 70.26447 35.147294 35.147294 0 0 0 0-70.26447z m245.970824 8.794353h-70.264471a26.352941 26.352941 0 1 0 0 52.705882H707.764706a26.352941 26.352941 0 0 0 0-52.705882z m140.559059-509.500236c14.546824 0 26.352941 11.806118 26.352941 26.352941v245.970824a26.352941 26.352941 0 0 1-26.352941 26.352941H180.705882a26.352941 26.352941 0 0 1-26.352941-26.352941V210.823529c0-14.546824 11.806118-26.352941 26.352941-26.352941h667.617883z m-527.058824 114.206118a35.147294 35.147294 0 1 0 0 70.26447 35.147294 35.147294 0 0 0 0-70.26447z m140.528941 0a35.147294 35.147294 0 1 0 0 70.26447 35.147294 35.147294 0 0 0 0-70.26447z m245.970824 8.764235h-70.264471a26.352941 26.352941 0 0 0 0 52.705883H707.764706a26.352941 26.352941 0 1 0 0-52.705883z" fill="#568af2" /></svg>