<svg class="icon" style="width: 1em;height: 1em;vertical-align: middle;fill: currentColor;overflow: hidden;" viewBox="0 0 1024 1024" version="1.1" xmlns="http://www.w3.org/2000/svg" width="32" height="32"><path d="M364.724706 853.985882l-0.481882-0.180706a375.265882 375.265882 0 0 1-10.24-4.21647l-3.252706-1.385412c-2.770824-1.204706-5.541647-2.469647-8.282353-3.734588l-1.054118-0.512c-128.391529-60.446118-217.178353-190.855529-217.178353-341.985882 0-208.624941 169.110588-377.735529 377.73553-377.73553 208.594824 0 377.705412 169.110588 377.705411 377.73553 0 151.070118-88.696471 281.449412-216.877176 341.835294l-0.301177 0.150588-2.048 0.963765c-2.349176 1.084235-4.698353 2.168471-7.077647 3.19247l9.125647-4.156235a376.139294 376.139294 0 0 1-22.768941 9.818353l-2.108235 0.813176a339.998118 339.998118 0 0 1-11.926588 4.367059 369.935059 369.935059 0 0 1-45.929412 12.709647l-2.861177 0.602353-9.637647 1.807059-1.807058 0.301176a365.778824 365.778824 0 0 1-47.49553 4.969412 390.957176 390.957176 0 0 1-26.624 0.180706l10.63153 0.150588a383.759059 383.759059 0 0 1-63.548236-5.300706l-1.807059-0.301176a359.604706 359.604706 0 0 1-37.345882-8.523294 370.507294 370.507294 0 0 1-28.190118-9.155765l-6.354823-2.409412z m137.246118-132.427294a114.236235 114.236235 0 0 0-110.712471 86.016c16.534588 6.053647 33.551059 10.691765 50.898823 13.914353a61.44 61.44 0 0 1 119.627295 0c17.347765-3.222588 34.334118-7.830588 50.898823-13.854117a114.236235 114.236235 0 0 0-110.71247-86.076236z m-228.412236-289.882353a52.705882 52.705882 0 1 0 0 105.411765 52.705882 52.705882 0 0 0 0-105.411765z m456.794353 0a52.705882 52.705882 0 1 0 0 105.411765 52.705882 52.705882 0 0 0 0-105.411765zM343.853176 291.147294a52.705882 52.705882 0 1 0 0 105.411765 52.705882 52.705882 0 0 0 0-105.411765z m316.235295 0a52.705882 52.705882 0 1 0 0 105.411765 52.705882 52.705882 0 0 0 0-105.411765z m-158.117647-70.294588a52.705882 52.705882 0 1 0 0 105.411765 52.705882 52.705882 0 0 0 0-105.411765z" fill="#568af2" /></svg>