<svg class="icon" style="width: 1em;height: 1em;vertical-align: middle;fill: currentColor;overflow: hidden;" viewBox="0 0 1024 1024" version="1.1" xmlns="http://www.w3.org/2000/svg" width="32" height="32"><path d="M783.36 197.752471c7.228235 12.649412 2.831059 28.732235-9.818353 35.96047l-159.804235 91.256471 199.439059 0.060235c33.972706 0 61.500235 27.527529 61.500235 61.470118v421.647059A61.500235 61.500235 0 0 1 813.176471 869.647059H215.853176a61.500235 61.500235 0 0 1-61.500235-61.500235v-421.647059c0-33.942588 27.527529-61.470118 61.500235-61.470118l187.934118-0.030118-149.052235-91.738353a26.352941 26.352941 0 0 1 27.617882-44.875294l222.027294 136.613647h3.162353l239.856941-137.035294a26.352941 26.352941 0 0 1 35.960471 9.788236z m-75.595294 469.835294a35.147294 35.147294 0 1 0 0 70.294588 35.147294 35.147294 0 0 0 0-70.264471z m0-237.146353a26.352941 26.352941 0 0 0-26.142118 23.04l-0.210823 3.312941v105.411765a26.352941 26.352941 0 0 0 52.495059 3.312941l0.210823-3.312941v-105.411765a26.352941 26.352941 0 0 0-26.352941-26.352941z" fill="#568af2" /></svg>