<svg class="icon" style="width: 1em;height: 1em;vertical-align: middle;fill: currentColor;overflow: hidden;" viewBox="0 0 1024 1024" version="1.1" xmlns="http://www.w3.org/2000/svg" width="32" height="32"><path d="M251.181176 245.609412l560.00753 150.046117a26.352941 26.352941 0 0 1 15.179294 39.966118l-10.480941 15.841882 32.587294 8.734118a26.352941 26.352941 0 0 1 18.612706 32.286118l-36.352 135.770353a26.352941 26.352941 0 0 1-32.286118 18.612706l-83.486117-22.377412-20.148706 30.539294a26.352941 26.352941 0 0 1-28.792471 10.932706l-212.931765-57.042824 0.030118 154.051765a26.352941 26.352941 0 0 1-26.352941 26.352941H180.705882a26.352941 26.352941 0 0 1 0-52.705882h219.708236v-141.854118l-226.514824-60.656941a26.352941 26.352941 0 0 1-18.672941-32.286118L218.955294 264.252235a26.352941 26.352941 0 0 1 32.256-18.672941z m535.612236 252.626823l-18.552471 33.400471-25.359059 45.778823 43.760942 11.715765 22.708705-84.841412-22.588235-6.053647z" fill="#568af2" /></svg>