<svg class="icon" style="width: 1em;height: 1em;vertical-align: middle;fill: currentColor;overflow: hidden;" viewBox="0 0 1024 1024" version="1.1" xmlns="http://www.w3.org/2000/svg" width="32" height="32"><path d="M783.058824 124.235294a96.617412 96.617412 0 0 1 5.872941 193.054118L704.933647 667.708235l64.120471 64.120471a26.352941 26.352941 0 0 1 0 37.255529c-147.516235 147.516235-386.680471 147.516235-534.196706 0-147.486118-147.516235-147.486118-386.680471 0-534.196706a26.352941 26.352941 0 0 1 37.285647 0l64.090353 64.120471 350.388706-83.998118A96.647529 96.647529 0 0 1 783.058824 124.235294z m-47.104 181.007059l-196.758589 196.698353 122.006589 122.006588 76.227764-317.891765a96.496941 96.496941 0 0 1-1.505882-0.813176zM697.825882 266.480941l-317.921882 76.197647 122.006588 122.006588 196.728471-196.72847a96.436706 96.436706 0 0 1-0.813177-1.475765zM783.058824 176.941176a43.911529 43.911529 0 1 0 0 87.853177 43.911529 43.911529 0 0 0 0-87.853177z" fill="#568af2" /></svg>