<svg class="icon" style="width: 1em;height: 1em;vertical-align: middle;fill: currentColor;overflow: hidden;" viewBox="0 0 1024 1024" version="1.1" xmlns="http://www.w3.org/2000/svg" width="32" height="32"><path d="M420.894118 244.705882h397.312c33.942588 0 61.470118 27.527529 61.470117 61.500236v456.764235a61.500235 61.500235 0 0 1-61.470117 61.500235H420.894118V244.705882z m-46.501647 0v579.764706H186.247529a61.741176 61.741176 0 0 1-62.012235-61.500235V306.206118a61.741176 61.741176 0 0 1 62.012235-61.500236h188.144942zM273.558588 640a35.147294 35.147294 0 1 0 0 70.264471 35.147294 35.147294 0 0 0 0-70.264471z m437.519059-281.509647l-2.258823 2.770823-210.82353 298.676706a26.352941 26.352941 0 0 0 40.809412 33.189647l2.258823-2.800941 210.82353-298.646588a26.352941 26.352941 0 0 0-40.809412-33.189647zM273.558588 534.588235a35.147294 35.147294 0 1 0 0 70.264471 35.147294 35.147294 0 0 0 0-70.264471z m0-166.912a26.352941 26.352941 0 0 0-26.142117 23.070118l-0.210824 3.312941v70.264471a26.352941 26.352941 0 0 0 52.525177 3.312941l0.180705-3.312941v-70.294589a26.352941 26.352941 0 0 0-26.352941-26.352941z" fill="#568af2" /></svg>