<svg class="icon" style="width: 1em;height: 1em;vertical-align: middle;fill: currentColor;overflow: hidden;" viewBox="0 0 1024 1024" version="1.1" xmlns="http://www.w3.org/2000/svg" width="32" height="32"><path d="M687.826824 184.470588c14.576941 0 26.352941 11.806118 26.352941 26.352941v237.176471h114.206117c14.546824 0 26.352941 11.806118 26.352942 26.352941V843.294118a26.352941 26.352941 0 0 1-26.352942 26.352941h-632.470588A26.352941 26.352941 0 0 1 169.562353 843.294118V474.352941c0-14.546824 11.806118-26.352941 26.352941-26.352941h114.176V210.823529c0-14.546824 11.806118-26.352941 26.383059-26.352941h351.352471z m-245.940706 105.411765a26.352941 26.352941 0 0 0-26.172236 23.04l-0.180706 3.312941v35.147294a26.352941 26.352941 0 0 0 52.495059 3.312941l0.210824-3.312941V316.235294a26.352941 26.352941 0 0 0-26.352941-26.352941z m140.528941 0a26.352941 26.352941 0 0 0-26.142118 23.04l-0.210823 3.312941v35.147294a26.352941 26.352941 0 0 0 52.525176 3.312941l0.180706-3.312941V316.235294a26.352941 26.352941 0 0 0-26.352941-26.352941z" fill="#568af2" /></svg>