<svg class="icon" style="width: 1em;height: 1em;vertical-align: middle;fill: currentColor;overflow: hidden;" viewBox="0 0 1024 1024" version="1.1" xmlns="http://www.w3.org/2000/svg" width="32" height="32"><path d="M750.441412 154.352941c33.942588 0 61.470118 27.527529 61.470117 61.500235V813.176471a61.500235 61.500235 0 0 1-61.470117 61.500235H276.088471A61.500235 61.500235 0 0 1 214.588235 813.176471v-87.853177c0-7.981176 3.614118-15.570824 9.878589-20.570353l77.94447-62.373647v-31.262118H240.941176a26.352941 26.352941 0 0 1-26.142117-23.04l-0.210824-3.312941v-52.705882c0-6.144 2.168471-12.107294 6.113883-16.865882l81.709176-98.063059V215.853176c0-32.436706 25.118118-58.970353 56.922353-61.319529l4.577882-0.180706h386.529883zM662.588235 259.764706a26.352941 26.352941 0 0 0-26.352941 26.352941v70.264471a26.352941 26.352941 0 1 0 52.705882 0V286.117647A26.352941 26.352941 0 0 0 662.588235 259.764706z m-210.823529 0a26.352941 26.352941 0 0 0-26.352941 26.352941v70.264471a26.352941 26.352941 0 1 0 52.705882 0V286.117647A26.352941 26.352941 0 0 0 451.764706 259.764706z m105.411765 0a26.352941 26.352941 0 0 0-26.352942 26.352941v70.264471a26.352941 26.352941 0 1 0 52.705883 0V286.117647a26.352941 26.352941 0 0 0-26.352941-26.352941z" fill="#568af2" /></svg>