<svg class="icon" style="width: 1em;height: 1em;vertical-align: middle;fill: currentColor;overflow: hidden;" viewBox="0 0 1024 1024" version="1.1" xmlns="http://www.w3.org/2000/svg" width="32" height="32"><path d="M466.823529 219.617882a26.352941 26.352941 0 1 1 0 52.705883H273.558588a26.352941 26.352941 0 0 0-26.352941 26.352941v342.588235h509.470118l0.030117-166.912c0-13.432471 10.059294-24.515765 23.04-26.142117l3.312942-0.210824c14.546824 0 26.352941 11.806118 26.352941 26.352941l-0.030118 166.881883h43.971765c14.546824 0 26.322824 11.806118 26.322823 26.383058v35.117177a131.764706 131.764706 0 0 1-131.764706 131.764706H256a131.764706 131.764706 0 0 1-131.764706-131.764706v-35.117177c0-14.576941 11.806118-26.352941 26.352941-26.352941l43.91153-0.030117V298.676706a79.058824 79.058824 0 0 1 79.058823-79.058824H466.823529z m211.877647-27.407058a26.352941 26.352941 0 0 1 0 37.255529L627.049412 281.088l51.651764 51.651765c9.456941 9.426824 10.24 24.244706 2.379295 34.575059l-2.379295 2.710588a26.352941 26.352941 0 0 1-37.255529 0l-70.264471-70.294588a26.352941 26.352941 0 0 1 0-37.25553l70.264471-70.294588a26.352941 26.352941 0 0 1 37.255529 0z m105.411765 0l70.294588 70.26447a26.352941 26.352941 0 0 1 0 37.25553l-70.294588 70.26447a26.352941 26.352941 0 1 1-37.255529-37.255529l51.621647-51.651765-51.621647-51.621647a26.352941 26.352941 0 0 1-2.349177-34.575059l2.349177-2.710588a26.352941 26.352941 0 0 1 37.255529 0z" fill="#568af2" /></svg>