<svg class="icon" style="width: 1em;height: 1em;vertical-align: middle;fill: currentColor;overflow: hidden;" viewBox="0 0 1024 1024" version="1.1" xmlns="http://www.w3.org/2000/svg" width="32" height="32"><path d="M683.881412 124.235294c24.244706 0 43.911529 19.666824 43.911529 43.91153v272.323764h107.640471c20.239059 0 35.237647 18.733176 30.870588 38.460236-23.883294 107.429647-88.606118 193.626353-180.284235 229.074823l73.607529 132.517647a26.352941 26.352941 0 0 1-23.04 39.152941h-421.647059l-3.764706-0.210823c-21.684706-2.499765-27.768471-26.684235-18.221176-41.35153l1.295059-1.746823 71.318588-128.361412c-91.708235-35.448471-156.461176-121.645176-180.344471-229.074823a31.623529 31.623529 0 0 1 30.870589-38.460236h107.64047V168.146824c0-24.244706 19.666824-43.911529 43.91153-43.91153h316.235294z m-158.117647 614.912c-34.213647 0-70.686118-5.391059-108.724706-15.239529l-57.313883 103.062588H691.802353l-57.283765-103.062588c-38.068706 9.848471-74.511059 15.239529-108.724706 15.239529z m282.292706-245.970823H243.440941l0.662588 2.288941c24.576 78.727529 75.444706 139.143529 142.848 164.291764l7.830589 2.710589c47.224471 15.420235 91.587765 23.973647 131.011764 23.973647 39.393882 0 83.727059-8.553412 130.95153-23.94353 71.288471-23.220706 125.138824-85.293176 150.678588-167.03247l0.632471-2.288941z m-132.969412-316.235295h-298.646588v263.529412h52.705882V256c0-14.546824 11.776-26.352941 26.352941-26.352941h140.528941c14.576941 0 26.352941 11.806118 26.352941 26.352941v184.470588h52.705883v-263.529412z" fill="#568af2" /></svg>