<svg class="icon" style="width: 1em;height: 1em;vertical-align: middle;fill: currentColor;overflow: hidden;" viewBox="0 0 1024 1024" version="1.1" xmlns="http://www.w3.org/2000/svg" width="32" height="32"><path d="M665.088 247.205647a79.058824 79.058824 0 0 1 79.058824 79.058824v197.541647l-1.355295 4.065882-33.792 101.315765v171.429647a79.058824 79.058824 0 0 1-74.029176 78.908235l-4.999529 0.150588h-210.82353a79.058824 79.058824 0 0 1-79.058823-79.058823l-0.030118-171.429647-33.761882-101.315765-1.355295-4.065882v-197.541647a79.058824 79.058824 0 0 1 79.058824-79.058824h281.088z m-105.411765 263.529412H489.411765a26.352941 26.352941 0 0 0 0 52.705882h70.26447a26.352941 26.352941 0 1 0 0-52.705882z m35.147294-122.970353h-140.559058a26.352941 26.352941 0 0 0 0 52.705882h140.559058a26.352941 26.352941 0 1 0 0-52.705882z" fill="#568af2" /><path d="M436.705882 124.235294c14.546824 0 26.352941 11.806118 26.352942 26.352941v122.970353a26.352941 26.352941 0 1 1-52.705883 0V150.588235c0-14.546824 11.806118-26.352941 26.352941-26.352941zM594.823529 176.941176c14.546824 0 26.352941 11.806118 26.352942 26.352942v70.26447a26.352941 26.352941 0 1 1-52.705883 0V203.294118c0-14.546824 11.806118-26.352941 26.352941-26.352942z" fill="#568af2" /></svg>