<svg class="icon" style="width: 1em;height: 1em;vertical-align: middle;fill: currentColor;overflow: hidden;" viewBox="0 0 1024 1024" version="1.1" xmlns="http://www.w3.org/2000/svg" width="32" height="32"><path d="M803.147294 124.235294c14.546824 0 26.352941 11.806118 26.352941 26.352941v702.735059a26.352941 26.352941 0 0 1-26.352941 26.352941H240.941176a26.352941 26.352941 0 0 1-26.352941-26.352941V465.468235c0-9.758118 5.391059-18.703059 14.004706-23.280941l91.346824-48.519529V150.588235c0-13.432471 10.089412-24.515765 23.070117-26.142117l3.312942-0.210824h456.82447zM469.323294 264.794353a26.352941 26.352941 0 0 0-26.352941 26.352941v105.411765a26.352941 26.352941 0 0 0 52.705882 0v-105.411765a26.352941 26.352941 0 0 0-26.352941-26.352941z m210.82353 0a26.352941 26.352941 0 0 0-26.352942 26.352941v105.411765a26.352941 26.352941 0 0 0 52.705883 0v-105.411765a26.352941 26.352941 0 0 0-26.352941-26.352941z m-105.411765 0a26.352941 26.352941 0 0 0-26.352941 26.352941v105.411765a26.352941 26.352941 0 0 0 52.705882 0v-105.411765a26.352941 26.352941 0 0 0-26.352941-26.352941z" fill="#568af2" /></svg>