<svg class="icon" style="width: 1em;height: 1em;vertical-align: middle;fill: currentColor;overflow: hidden;" viewBox="0 0 1024 1024" version="1.1" xmlns="http://www.w3.org/2000/svg" width="32" height="32"><path d="M664.485647 335.058824c298.646588 0 298.646588 368.941176 0 368.941176h-316.235294c-134.776471 0-224.015059-80.323765-224.015059-184.470588s89.238588-184.470588 224.015059-184.470588h316.235294z m0 105.411764a26.352941 26.352941 0 0 0-26.352941 26.352941l-0.030118 26.352942h-52.705882V466.823529a26.352941 26.352941 0 0 0-23.04-26.142117l-3.312941-0.210824a26.352941 26.352941 0 0 0-26.322824 26.352941l-0.030117 26.352942h-52.705883V466.823529a26.352941 26.352941 0 0 0-23.04-26.142117l-3.312941-0.210824a26.352941 26.352941 0 0 0-26.322824 26.352941l-0.030117 26.352942h-52.705883V466.823529a26.352941 26.352941 0 0 0-23.04-26.142117l-3.312941-0.210824a26.352941 26.352941 0 0 0-26.322823 26.352941l-0.030118 26.352942h-26.322823a26.352941 26.352941 0 0 0-26.172236 23.04l-0.180706 3.312941c0 14.546824 11.776 26.352941 26.352942 26.352941h26.322823V572.235294c0 13.432471 10.059294 24.515765 23.070118 26.142118l3.312941 0.210823a26.352941 26.352941 0 0 0 26.352941-26.352941l-0.030118-26.352941h52.705883V572.235294c0 13.432471 10.059294 24.515765 23.070117 26.142118l3.312942 0.210823a26.352941 26.352941 0 0 0 26.352941-26.352941l-0.030118-26.352941h52.705883V572.235294c0 13.432471 10.059294 24.515765 23.070117 26.142118l3.312941 0.210823a26.352941 26.352941 0 0 0 26.352942-26.352941l-0.030118-26.352941h52.705882V572.235294c0 13.432471 10.059294 24.515765 23.070118 26.142118l3.312941 0.210823a26.352941 26.352941 0 0 0 26.352941-26.352941l-0.030117-26.352941h26.383058a26.352941 26.352941 0 0 0 26.142118-23.04l0.210824-3.312941a26.352941 26.352941 0 0 0-26.352942-26.352941h-26.383058V466.823529a26.352941 26.352941 0 0 0-23.04-26.142117z" fill="#568af2" /></svg>