<svg class="icon" style="width: 1em;height: 1em;vertical-align: middle;fill: currentColor;overflow: hidden;" viewBox="0 0 1024 1024" version="1.1" xmlns="http://www.w3.org/2000/svg" width="32" height="32"><path d="M697.072941 132.788706a26.352941 26.352941 0 0 1-1.626353 37.225412l-141.733647 129.897411h264.493177c33.942588 0 61.470118 27.527529 61.470117 61.500236v456.794353a61.500235 61.500235 0 0 1-61.470117 61.470117h-632.470589a61.500235 61.500235 0 0 1-61.500235-61.470117V361.411765c0-33.972706 27.527529-61.500235 61.500235-61.500236H412.611765l-103.122824-85.082353a26.352941 26.352941 0 1 1 33.551059-40.658823l142.004706 117.187765 174.802823-160.195765a26.352941 26.352941 0 0 1 37.225412 1.626353z m-72.131765 290.123294H273.558588a26.352941 26.352941 0 0 0-26.142117 23.04l-0.210824 3.312941v281.088c0 13.432471 10.059294 24.515765 23.070118 26.142118l3.312941 0.210823H624.941176a26.352941 26.352941 0 0 0 26.142118-23.04l0.210824-3.312941v-281.088a26.352941 26.352941 0 0 0-26.352942-26.352941z m-26.383058 52.705882v228.382118H299.911529v-228.382118h298.646589z m149.383529 52.705883a26.352941 26.352941 0 0 0-26.172235 23.04l-0.210824 3.312941V572.235294a26.352941 26.352941 0 0 0 52.525177 3.312941l0.180706-3.312941v-17.558588a26.352941 26.352941 0 0 0-26.352942-26.352941z m0-123.000471a26.352941 26.352941 0 0 0-26.172235 23.070118l-0.210824 3.312941v17.558588a26.352941 26.352941 0 0 0 52.525177 3.312941l0.180706-3.312941v-17.588706a26.352941 26.352941 0 0 0-26.352942-26.352941z" fill="#568af2" /></svg>