<svg class="icon" style="width: 1em;height: 1em;vertical-align: middle;fill: currentColor;overflow: hidden;" viewBox="0 0 1024 1024" version="1.1" xmlns="http://www.w3.org/2000/svg" width="32" height="32"><path d="M245.970824 829.500235A61.500235 61.500235 0 0 1 184.470588 768V436.043294c0-12.137412 3.614118-24.003765 10.330353-34.093176l106.616471-159.984942a61.500235 61.500235 0 0 1 51.2-27.376941h455.529412c33.972706 0 61.500235 27.527529 61.500235 61.500236V768a61.500235 61.500235 0 0 1-61.500235 61.500235H245.970824z m149.323294-210.823529h263.529411v158.117647l52.705883-0.030118v-184.44047a26.352941 26.352941 0 0 0-23.04-26.172236l-3.312941-0.180705h-316.235295a26.352941 26.352941 0 0 0-26.142117 23.04l-0.210824 3.312941v184.44047h52.705883v-158.117647zM421.647059 214.588235a26.352941 26.352941 0 0 0-26.142118 23.04l-0.210823 3.312941v140.559059a26.352941 26.352941 0 0 0 52.495058 3.312941l0.210824-3.312941V240.941176A26.352941 26.352941 0 0 0 421.647059 214.588235z m105.411765 0a26.352941 26.352941 0 0 0-26.142118 23.04l-0.210824 3.312941v140.559059a26.352941 26.352941 0 0 0 52.495059 3.312941l0.210824-3.312941V240.941176a26.352941 26.352941 0 0 0-26.352941-26.352941z m105.411764 0a26.352941 26.352941 0 0 0-26.142117 23.04l-0.210824 3.312941v140.559059a26.352941 26.352941 0 0 0 52.495059 3.312941l0.210823-3.312941V240.941176A26.352941 26.352941 0 0 0 632.470588 214.588235z m105.411765 0a26.352941 26.352941 0 0 0-26.142118 23.04l-0.210823 3.312941v140.559059a26.352941 26.352941 0 0 0 52.495059 3.312941l0.210823-3.312941V240.941176a26.352941 26.352941 0 0 0-26.352941-26.352941z" fill="#568af2" /></svg>