<svg class="icon" style="width: 1em;height: 1em;vertical-align: middle;fill: currentColor;overflow: hidden;" viewBox="0 0 1024 1024" version="1.1" xmlns="http://www.w3.org/2000/svg" width="32" height="32"><path d="M488.146824 519.529412c0 34.424471-21.985882 63.698824-52.675765 74.541176v153.840941a26.352941 26.352941 0 0 1-26.383059 26.352942h-105.411765a26.352941 26.352941 0 1 1 0-52.705883h79.058824v-127.457882a79.088941 79.088941 0 0 1-52.705883-74.571294v-131.764706H286.117647c-67.463529 0-131.764706-54.151529-131.764706-131.764706 0-77.974588 57.163294-131.764706 122.970353-131.764706h184.470588c14.576941 0 26.352941 11.806118 26.352942 26.352941v368.941177z m-52.705883-131.764706h-52.705882v131.764706c0 13.432471 10.059294 24.515765 23.070117 26.142117l3.312942 0.210824a26.352941 26.352941 0 0 0 26.322823-26.352941v-131.764706z m316.235294-158.117647c65.837176 0 123.000471 53.790118 123.000471 131.764706 0 77.613176-64.331294 131.764706-131.764706 131.764706h-43.941647v131.764705c0 34.424471-21.985882 63.698824-52.675765 74.541177v127.488h79.028706c13.432471 0 24.545882 10.059294 26.172235 23.070118l0.180706 3.312941a26.352941 26.352941 0 0 1-26.352941 26.322823h-105.411765a26.352941 26.352941 0 0 1-26.352941-26.352941v-153.810823a79.088941 79.088941 0 0 1-52.705882-74.571295V256c0-14.546824 11.806118-26.352941 26.352941-26.352941h184.470588z m-105.411764 263.529412h-52.705883v131.764705c0 13.432471 10.059294 24.515765 23.070118 26.142118l3.312941 0.210824a26.352941 26.352941 0 0 0 26.322824-26.352942v-131.764705z" fill="#568af2" /></svg>