<svg class="icon" style="width: 1em;height: 1em;vertical-align: middle;fill: currentColor;overflow: hidden;" viewBox="0 0 1024 1024" version="1.1" xmlns="http://www.w3.org/2000/svg" width="32" height="32"><path d="M678.219294 124.235294c7.077647 0 13.854118 2.861176 18.82353 7.920941l124.928 127.789177c4.818824 4.909176 7.529412 11.535059 7.529411 18.401882v574.976a26.352941 26.352941 0 0 1-26.352941 26.352941H240.941176a26.352941 26.352941 0 0 1-26.352941-26.352941V150.588235c0-14.546824 11.806118-26.352941 26.352941-26.352941h437.278118z m1.92753 386.499765h-316.235295a26.352941 26.352941 0 0 0-26.142117 23.070117l-0.210824 3.312942v175.676235c0 13.432471 10.059294 24.515765 23.070118 26.142118l3.312941 0.210823h316.235294a26.352941 26.352941 0 0 0 26.142118-23.070118l0.180706-3.312941v-175.676235a26.352941 26.352941 0 0 0-26.352941-26.352941z m-26.352942 52.705882v122.970353h-263.529411v-122.970353h263.529411z m-289.882353-298.646588a26.352941 26.352941 0 0 0-26.142117 23.04l-0.210824 3.312941v105.411765a26.352941 26.352941 0 0 0 52.525177 3.312941l0.180706-3.312941v-105.411765a26.352941 26.352941 0 0 0-26.352942-26.352941z m105.411765 0a26.352941 26.352941 0 0 0-26.142118 23.04l-0.210823 3.312941v105.411765a26.352941 26.352941 0 0 0 52.525176 3.312941l0.180706-3.312941v-105.411765a26.352941 26.352941 0 0 0-26.352941-26.352941z m105.411765 0a26.352941 26.352941 0 0 0-26.142118 23.04l-0.210823 3.312941v105.411765a26.352941 26.352941 0 0 0 52.525176 3.312941l0.180706-3.312941v-105.411765a26.352941 26.352941 0 0 0-26.352941-26.352941z" fill="#568af2" /></svg>