<svg class="icon" style="width: 1em;height: 1em;vertical-align: middle;fill: currentColor;overflow: hidden;" viewBox="0 0 1024 1024" version="1.1" xmlns="http://www.w3.org/2000/svg" width="32" height="32"><path d="M517.029647 124.235294a166.912 166.912 0 0 1 166.881882 166.912v210.82353a166.912 166.912 0 1 1-333.793882 0v-210.82353a166.912 166.912 0 0 1 166.912-166.912z m-52.705882 316.235294H376.470588a26.352941 26.352941 0 1 0 0 52.705883h87.853177a26.352941 26.352941 0 0 0 0-52.705883z m193.234823 0h-87.823059a26.352941 26.352941 0 1 0 0 52.705883h87.823059a26.352941 26.352941 0 1 0 0-52.705883z m-193.234823-105.411764H376.470588a26.352941 26.352941 0 1 0 0 52.705882h87.853177a26.352941 26.352941 0 0 0 0-52.705882z m193.234823 0h-87.823059a26.352941 26.352941 0 1 0 0 52.705882h87.823059a26.352941 26.352941 0 1 0 0-52.705882z m-140.528941-193.264942a26.352941 26.352941 0 0 0-26.352941 26.352942v105.411764a26.352941 26.352941 0 1 0 52.705882 0v-105.411764a26.352941 26.352941 0 0 0-26.352941-26.352942z" fill="#568af2" /><path d="M762.970353 422.912c14.576941 0 26.352941 11.776 26.352941 26.352941v52.705883a272.323765 272.323765 0 1 1-544.617412 0v-52.705883a26.352941 26.352941 0 1 1 52.705883 0v52.705883a219.617882 219.617882 0 1 0 439.205647 0v-52.705883c0-14.576941 11.806118-26.352941 26.352941-26.352941z" fill="#568af2" /><path d="M490.676706 747.911529v105.411765h52.705882v-105.411765z" fill="#568af2" /><path d="M657.558588 826.970353a26.352941 26.352941 0 0 1 0 52.705882H376.470588a26.352941 26.352941 0 1 1 0-52.705882h281.088z" fill="#568af2" /></svg>