<svg class="icon" style="width: 1em;height: 1em;vertical-align: middle;fill: currentColor;overflow: hidden;" viewBox="0 0 1024 1024" version="1.1" xmlns="http://www.w3.org/2000/svg" width="32" height="32"><path d="M737.882353 154.352941A131.764706 131.764706 0 0 1 869.647059 286.117647v456.794353a131.764706 131.764706 0 0 1-125.379765 131.614118l-6.384941 0.150588a131.764706 131.764706 0 0 1-131.764706-131.764706v-105.411765a79.058824 79.058824 0 0 0-158.117647 0v105.411765a131.764706 131.764706 0 0 1-125.379765 131.614118l-6.384941 0.150588a131.764706 131.764706 0 0 1-131.764706-131.764706V286.117647a131.764706 131.764706 0 0 1 263.529412 0v70.264471a131.192471 131.192471 0 0 1 79.058824-26.352942c29.665882 0 57.042824 9.818353 79.088941 26.352942L606.117647 286.117647A131.764706 131.764706 0 0 1 737.882353 154.352941z m-421.647059 509.500235a79.058824 79.058824 0 1 0 0 158.117648 79.058824 79.058824 0 0 0 0-158.117648z m421.647059 0a79.058824 79.058824 0 1 0 0 158.117648 79.058824 79.058824 0 0 0 0-158.117648z m-210.823529-281.118117a79.058824 79.058824 0 0 0-79.058824 79.058823v70.264471a131.192471 131.192471 0 0 1 79.058824-26.322824c29.665882 0 57.042824 9.788235 79.088941 26.352942l-0.030118-70.294589a79.058824 79.058824 0 0 0-79.058823-79.058823z" fill="#568af2" /></svg>