<svg class="icon" style="width: 1em;height: 1em;vertical-align: middle;fill: currentColor;overflow: hidden;" viewBox="0 0 1024 1024" version="1.1" xmlns="http://www.w3.org/2000/svg" width="32" height="32"><path d="M562.206118 184.470588c170.526118 0 307.440941 154.021647 307.440941 342.588236 0 188.536471-136.914824 342.588235-307.440941 342.588235-70.354824 0-136.944941-26.413176-190.584471-73.697883-6.324706 2.228706-13.131294 3.433412-20.239059 3.433412h-105.411764A61.500235 61.500235 0 0 1 184.470588 737.882353v-421.647059c0-33.972706 27.527529-61.500235 61.500236-61.500235h105.411764c7.107765 0 13.914353 1.204706 20.269177 3.433412 53.609412-47.284706 120.169412-73.697882 190.554353-73.697883z m0 52.705883c-56.018824 0-109.296941 20.660706-153.027765 58.157176a60.235294 60.235294 0 0 1 3.674353 20.901647v421.647059c0 7.348706-1.264941 14.396235-3.644235 20.931765 43.700706 37.466353 96.978824 58.127059 152.997647 58.127058 139.956706 0 254.735059-129.144471 254.735058-289.882352s-114.778353-289.882353-254.735058-289.882353z m-263.529412 307.440941a35.147294 35.147294 0 1 0 0 70.294588 35.147294 35.147294 0 0 0 0-70.294588z m0-122.970353a35.147294 35.147294 0 1 0 0 70.26447 35.147294 35.147294 0 0 0 0-70.26447z" fill="#568af2" /></svg>