<svg class="icon" style="width: 1em;height: 1em;vertical-align: middle;fill: currentColor;overflow: hidden;" viewBox="0 0 1024 1024" version="1.1" xmlns="http://www.w3.org/2000/svg" width="32" height="32"><path d="M818.206118 304.941176c33.942588 0 61.470118 27.527529 61.470117 61.500236v137.035294c0 4.065882-0.391529 8.131765-1.204706 12.077176l-28.79247 144.022589a61.500235 61.500235 0 0 1-60.29553 49.453176H214.528A61.500235 61.500235 0 0 1 154.232471 659.576471l-28.792471-144.022589a61.500235 61.500235 0 0 1-1.204706-12.047058v-137.065412c0-33.972706 27.527529-61.500235 61.500235-61.500236h632.470589z m-333.824 228.382118h-35.117177a26.352941 26.352941 0 0 0 0 52.705882h35.117177a26.352941 26.352941 0 1 0 0-52.705882z m123.00047 0H572.235294a26.352941 26.352941 0 0 0 0 52.705882h35.147294a26.352941 26.352941 0 0 0 0-52.705882z m122.970353 0h-35.147294a26.352941 26.352941 0 0 0 0 52.705882h35.147294a26.352941 26.352941 0 1 0 0-52.705882zM361.411765 480.617412H256a26.352941 26.352941 0 0 0 0 52.705882H361.411765a26.352941 26.352941 0 1 0 0-52.705882z m122.970353-52.705883h-35.117177a26.352941 26.352941 0 0 0 0 52.705883h35.117177a26.352941 26.352941 0 1 0 0-52.705883z m123.00047 0H572.235294a26.352941 26.352941 0 0 0 0 52.705883h35.147294a26.352941 26.352941 0 0 0 0-52.705883z m122.970353 0h-35.147294a26.352941 26.352941 0 0 0 0 52.705883h35.147294a26.352941 26.352941 0 1 0 0-52.705883z" fill="#568af2" /></svg>