<svg class="icon" style="width: 1em;height: 1em;vertical-align: middle;fill: currentColor;overflow: hidden;" viewBox="0 0 1024 1024" version="1.1" xmlns="http://www.w3.org/2000/svg" width="32" height="32"><path d="M765.861647 154.352941c12.468706 0 23.250824 8.764235 25.780706 20.992l87.491765 421.647059a37.707294 37.707294 0 0 1 0.481882 3.794824l0.060235 0.451764a26.804706 26.804706 0 0 1 0 1.144471v228.382117a26.352941 26.352941 0 0 1-26.352941 26.352942H150.588235a26.352941 26.352941 0 0 1-26.352941-26.352942v-204.348235l-0.060235-24.335059 0.12047-0.933647 0.150589-2.108235a26.292706 26.292706 0 0 1 0.240941-1.566118l0.12047-0.512 88.515765-421.647058a26.352941 26.352941 0 0 1 25.780706-20.961883h526.757647z m-61.861647 518.294588a43.911529 43.911529 0 1 0 0 87.853177 43.911529 43.911529 0 0 0 0-87.853177z m149.323294-96.617411H150.588235a26.352941 26.352941 0 0 0-25.901176 21.443764l-0.39153 3.674353-0.060235 1.204706v24.094118l755.410824 0.391529v-23.100235-2.499765a26.533647 26.533647 0 0 0-0.120471-1.837176l-0.090353-0.602353 0.090353 0.602353a26.352941 26.352941 0 0 0-26.202353-23.371294z m-351.35247-316.235294c-59.512471 0-102.610824 36.201412-112.128 91.075764-41.020235 9.607529-72.342588 42.887529-72.342589 84.811294 0 55.747765 42.164706 85.534118 102.339765 87.521883l6.535529 0.090353h150.91953c63.698824 0 109.146353-29.876706 109.146353-87.612236 0-47.887059-29.515294-77.522824-72.282353-85.443764-9.938824-54.121412-53.187765-90.443294-112.188235-90.443294z m0 52.705882c38.159059 0 61.590588 23.672471 61.590588 61.921882 0 14.576941 11.806118 26.352941 26.352941 26.352941 29.003294 0 43.821176 11.233882 43.821176 34.936471 0 21.564235-16.384 33.520941-50.29647 34.785882l-6.144 0.090353h-150.91953c-38.008471 0-56.169412-11.986824-56.169411-34.906353 0-17.528471 16.775529-32.858353 39.424-34.695529l4.577882-0.210824 3.312941-0.180705a26.383059 26.383059 0 0 0 22.40753-20.35953l0.481882-2.861176 0.180706-2.95153 0.12047-5.180235c1.987765-35.689412 24.545882-56.741647 61.259295-56.741647z" fill="#568af2" /></svg>