<svg class="icon" style="width: 1em;height: 1em;vertical-align: middle;fill: currentColor;overflow: hidden;" viewBox="0 0 1024 1024" version="1.1" xmlns="http://www.w3.org/2000/svg" width="32" height="32"><path d="M577.264941 154.352941c33.942588 0 61.470118 27.527529 61.470118 61.500235v128.602353a219.467294 219.467294 0 0 1 105.411765 187.632942c0 79.450353-42.164706 149.052235-105.411765 187.602823v128.602353a61.500235 61.500235 0 0 1-61.470118 61.500235h-105.411765a61.500235 61.500235 0 0 1-61.500235-61.470117v-128.602353a219.467294 219.467294 0 0 1-105.411765-187.632941 219.467294 219.467294 0 0 1 105.411765-187.632942v-128.602353c0-33.972706 27.527529-61.500235 61.500235-61.500235h105.411765z m-52.705882 597.323294a219.708235 219.708235 0 0 1-61.500235-8.734117v105.381647c0 4.818824 3.915294 8.764235 8.794352 8.764235h105.411765c4.818824 0 8.764235-3.915294 8.764235-8.764235v-105.381647a219.708235 219.708235 0 0 1-61.470117 8.734117zM542.117647 453.029647a26.352941 26.352941 0 0 0-26.142118 23.04l-0.210823 3.312941v43.91153h-43.91153a26.352941 26.352941 0 0 0-26.172235 23.04l-0.180706 3.312941c0 13.432471 10.029176 24.515765 23.04 26.142117l3.312941 0.210824H542.117647a26.352941 26.352941 0 0 0 26.352941-26.352941v-70.264471a26.352941 26.352941 0 0 0-26.352941-26.352941z m35.147294-245.970823h-105.411765a8.794353 8.794353 0 0 0-8.794352 8.794352v105.35153a219.708235 219.708235 0 0 1 61.500235-8.734118c21.353412 0 41.984 3.041882 61.500235 8.734118V215.853176a8.794353 8.794353 0 0 0-8.794353-8.794352z" fill="#568af2" /></svg>