<svg class="icon" style="width: 1em;height: 1em;vertical-align: middle;fill: currentColor;overflow: hidden;" viewBox="0 0 1024 1024" version="1.1" xmlns="http://www.w3.org/2000/svg" width="32" height="32"><path d="M624.941176 244.705882a149.383529 149.383529 0 0 1 147.004236 123.000471h81.377882c14.576941 0 26.352941 11.776 26.352941 26.322823v281.118118a26.352941 26.352941 0 0 1-26.352941 26.352941l-8.794353-0.030117v79.088941a26.352941 26.352941 0 0 1-26.322823 26.352941h-105.411765a26.352941 26.352941 0 0 1-26.352941-26.352941l-0.030118-79.088941h-368.941176v79.088941a26.352941 26.352941 0 0 1-26.322824 26.352941h-105.411765a26.352941 26.352941 0 0 1-26.352941-26.352941L159.322353 701.44H150.588235a26.352941 26.352941 0 0 1-26.352941-26.322824v-281.118117c0-14.546824 11.806118-26.352941 26.352941-26.352941h327.348706a149.383529 149.383529 0 0 1 147.004235-122.970353z m-228.382117 263.529412H256a26.352941 26.352941 0 0 0-3.312941 52.495059l3.312941 0.210823h140.559059a26.352941 26.352941 0 0 0 0-52.705882z m228.382117-166.912a52.705882 52.705882 0 1 0 0 105.411765 52.705882 52.705882 0 0 0 0-105.411765z" fill="#568af2" /></svg>