<svg class="icon" style="width: 1em;height: 1em;vertical-align: middle;fill: currentColor;overflow: hidden;" viewBox="0 0 1024 1024" version="1.1" xmlns="http://www.w3.org/2000/svg" width="32" height="32"><path d="M698.428235 791.672471l19.727059 28.220235a25.810824 25.810824 0 0 1-42.285176 29.605647l-19.757177-28.190118a25.810824 25.810824 0 1 1 42.285177-29.635764z m-307.862588-1.505883a25.810824 25.810824 0 0 1 0 36.502588l-24.335059 24.335059a25.810824 25.810824 0 1 1-36.502588-36.502588l24.335059-24.335059a25.810824 25.810824 0 0 1 36.502588 0z m395.836235-73.155764l35.599059 50.838588a25.810824 25.810824 0 0 1-42.285176 29.605647l-35.599059-50.808471a25.810824 25.810824 0 1 1 42.285176-29.635764z m-479.472941 0.030117a25.810824 25.810824 0 0 1 0 36.502588l-43.851294 43.881412a25.810824 25.810824 0 1 1-36.502588-36.502588l43.851294-43.881412a25.810824 25.810824 0 0 1 36.532706 0zM524.950588 154.895059c14.245647 0 25.810824 11.565176 25.810824 25.810823v43.91153c192.301176 13.251765 344.184471 173.447529 344.18447 369.121882a25.810824 25.810824 0 0 1-25.810823 25.810824h-147.937883a197.963294 197.963294 0 0 1-392.523294 0H180.705882a25.810824 25.810824 0 0 1-25.810823-25.810824c0-195.674353 151.883294-355.870118 344.18447-369.121882V180.705882c0-14.245647 11.565176-25.810824 25.840942-25.810823zM668.912941 619.52h-288.045176l1.204706 5.993412a146.371765 146.371765 0 0 0 136.31247 114.356706l6.53553 0.12047c69.872941 0 128.301176-48.971294 142.817882-114.477176l1.204706-5.993412z" fill="#568af2" /></svg>