<svg class="icon" style="width: 1em;height: 1em;vertical-align: middle;fill: currentColor;overflow: hidden;" viewBox="0 0 1024 1024" version="1.1" xmlns="http://www.w3.org/2000/svg" width="32" height="32"><path d="M725.323294 576a149.323294 149.323294 0 1 1-149.323294 149.323294 26.352941 26.352941 0 1 1 52.705882 0 96.617412 96.617412 0 1 0 96.617412-96.617412 26.352941 26.352941 0 0 1 0-52.705882z m-421.647059 0a26.352941 26.352941 0 0 1 0 52.705882 96.617412 96.617412 0 1 0 96.64753 96.617412 26.352941 26.352941 0 0 1 52.705882 0 149.323294 149.323294 0 1 1-149.353412-149.323294z m440.32-290.936471a26.352941 26.352941 0 0 1 0 37.25553l-115.290353 115.230117v153.901177l115.260236 115.260235a26.352941 26.352941 0 1 1-37.25553 37.25553l-115.260235-115.260236h-153.901177l-115.230117 115.260236a26.352941 26.352941 0 1 1-37.25553-37.25553l115.230118-115.290353v-153.840941l-115.230118-115.260235a26.352941 26.352941 0 1 1 37.25553-37.25553l115.260235 115.230118h153.840941l115.290353-115.230118a26.352941 26.352941 0 0 1 37.25553 0zM360.809412 165.707294a149.323294 149.323294 0 0 1 92.16 137.968941 26.352941 26.352941 0 0 1-52.705883 0 96.617412 96.617412 0 1 0-96.617411 96.64753 26.352941 26.352941 0 0 1 0 52.705882 149.323294 149.323294 0 1 1 57.163294-287.322353z m393.637647-8.493176a149.323294 149.323294 0 0 1-29.153883 295.815529 26.352941 26.352941 0 1 1 0-52.705882 96.617412 96.617412 0 1 0-96.617411-96.64753 26.352941 26.352941 0 0 1-52.705883 0 149.323294 149.323294 0 0 1 178.477177-146.462117z" fill="#568af2" /></svg>