<svg class="icon" style="width: 1em;height: 1em;vertical-align: middle;fill: currentColor;overflow: hidden;" viewBox="0 0 1024 1024" version="1.1" xmlns="http://www.w3.org/2000/svg" width="32" height="32"><path d="M369.212235 879.676235a26.473412 26.473412 0 0 1-5.360941-0.542117 131.855059 131.855059 0 0 1-119.145412-131.222589V185.735529c0-33.972706 27.527529-61.500235 61.500236-61.500235h421.647058c33.942588 0 61.470118 27.527529 61.470118 61.500235v562.176a131.764706 131.764706 0 0 1-131.764706 131.764706H369.242353z m288.346353-210.823529H376.470588a79.058824 79.058824 0 0 0-8.764235 157.635765v-60.988236a26.352941 26.352941 0 0 1 52.705882 0l-0.030117 61.470118h35.147294v-61.470118a26.352941 26.352941 0 1 1 52.705882 0v61.470118h35.117177v-61.470118a26.352941 26.352941 0 1 1 52.705882 0v61.470118h61.500235a79.058824 79.058824 0 0 0 0-158.117647z m0 43.941647a35.147294 35.147294 0 1 1 0 70.264471 35.147294 35.147294 0 0 1 0-70.264471z m-122.970353-272.323765h-35.147294a26.352941 26.352941 0 0 0-3.312941 52.495059l3.312941 0.210824h35.147294a26.352941 26.352941 0 1 0 0-52.705883z m0-140.559059h-35.147294a26.352941 26.352941 0 0 0-3.312941 52.525177l3.312941 0.180706h35.147294a26.352941 26.352941 0 1 0 0-52.705883z" fill="#568af2" /></svg>