<svg class="icon" style="width: 1em;height: 1em;vertical-align: middle;fill: currentColor;overflow: hidden;" viewBox="0 0 1024 1024" version="1.1" xmlns="http://www.w3.org/2000/svg" width="32" height="32"><path d="M675.147294 154.352941a79.058824 79.058824 0 0 1 79.058824 79.058824v597.323294a79.058824 79.058824 0 0 1-79.058824 79.058823H323.764706a79.058824 79.058824 0 0 1-79.058824-79.058823V233.411765a79.058824 79.058824 0 0 1 79.058824-79.058824h351.382588z m-105.411765 597.323294H429.176471a26.352941 26.352941 0 0 0 0 52.705883h140.559058a26.352941 26.352941 0 0 0 0-52.705883zM534.588235 259.764706h-70.26447a26.352941 26.352941 0 1 0 0 52.705882h70.26447a26.352941 26.352941 0 1 0 0-52.705882z" fill="#568af2" /></svg>