<svg class="icon" style="width: 1em;height: 1em;vertical-align: middle;fill: currentColor;overflow: hidden;" viewBox="0 0 1024 1024" version="1.1" xmlns="http://www.w3.org/2000/svg" width="32" height="32"><path d="M727.853176 124.235294c33.942588 0 61.470118 27.527529 61.470118 61.500235v632.470589a61.500235 61.500235 0 0 1-61.470118 61.470117h-421.647058a61.500235 61.500235 0 0 1-61.500236-61.470117v-632.470589c0-33.972706 27.527529-61.500235 61.500236-61.500235h421.647058zM640 712.794353a35.147294 35.147294 0 1 0 0 70.264471 35.147294 35.147294 0 0 0 0-70.264471z m-193.264941-131.764706a26.352941 26.352941 0 0 0-26.142118 23.04l-0.210823 3.312941v43.91153H376.470588a26.352941 26.352941 0 0 0-26.142117 23.04l-0.210824 3.312941c0 13.432471 10.059294 24.515765 23.04 26.142117l3.312941 0.210824h43.91153v43.911529c0 13.432471 10.059294 24.545882 23.070117 26.172236l3.312941 0.180706a26.352941 26.352941 0 0 0 26.142118-23.04l0.180706-3.312942v-43.911529h43.941647a26.352941 26.352941 0 0 0 26.142118-23.04l0.210823-3.312941a26.352941 26.352941 0 0 0-23.070117-26.142118l-3.312942-0.210823h-43.911529v-43.91153a26.352941 26.352941 0 0 0-23.04-26.172235l-3.312941-0.180706zM640 572.235294a35.147294 35.147294 0 1 0 0 70.264471 35.147294 35.147294 0 0 0 0-70.264471z m17.558588-342.588235H376.470588a26.352941 26.352941 0 0 0-26.142117 23.04l-0.210824 3.312941v158.117647c0 13.432471 10.059294 24.515765 23.04 26.142118l3.312941 0.210823h281.088a26.352941 26.352941 0 0 0 26.172236-23.04l0.180705-3.312941V256a26.352941 26.352941 0 0 0-26.352941-26.352941z m-26.352941 52.705882v105.411765h-228.382118v-105.411765h228.382118z" fill="#568af2" /></svg>