<svg class="icon" style="width: 1em;height: 1em;vertical-align: middle;fill: currentColor;overflow: hidden;" viewBox="0 0 1024 1024" version="1.1" xmlns="http://www.w3.org/2000/svg" width="32" height="32"><path d="M783.058824 184.470588c14.546824 0 26.352941 11.806118 26.352941 26.352941v90.051765c0 24.244706-19.666824 43.911529-43.91153 43.91153l-79.058823-0.030118-0.030118 50.537412h131.794824c33.942588 0 61.470118 27.527529 61.470117 61.500235v351.352471a61.500235 61.500235 0 0 1-61.470117 61.500235h-632.470589a61.500235 61.500235 0 0 1-61.500235-61.500235V456.794353c0-33.972706 27.527529-61.500235 61.500235-61.500235H633.675294v-59.301647c0-24.244706 19.696941-43.911529 43.941647-43.91153l79.058824-0.030117V210.823529c0-13.432471 10.059294-24.515765 23.04-26.142117l3.312941-0.210824z m-158.117648 527.058824h-245.970823a26.352941 26.352941 0 0 0-3.312941 52.495059l3.312941 0.210823h245.970823a26.352941 26.352941 0 1 0 0-52.705882zM361.411765 597.323294a35.147294 35.147294 0 1 0 0 70.294588 35.147294 35.147294 0 0 0 0-70.294588z m-105.411765 0a35.147294 35.147294 0 1 0 0 70.294588 35.147294 35.147294 0 0 0 0-70.294588z m210.823529 0a35.147294 35.147294 0 1 0 0 70.294588 35.147294 35.147294 0 0 0 0-70.294588z m105.411765 0a35.147294 35.147294 0 1 0 0 70.294588 35.147294 35.147294 0 0 0 0-70.294588z m105.411765 0a35.147294 35.147294 0 1 0 0 70.294588 35.147294 35.147294 0 0 0 0-70.294588z m-351.382588-105.411765a35.147294 35.147294 0 1 0 0 70.294589 35.147294 35.147294 0 0 0 0-70.294589z m105.411764 0a35.147294 35.147294 0 1 0 0 70.294589 35.147294 35.147294 0 0 0 0-70.294589z m105.411765 0a35.147294 35.147294 0 1 0 0 70.294589 35.147294 35.147294 0 0 0 0-70.294589z m105.411765 0a35.147294 35.147294 0 1 0 0 70.294589 35.147294 35.147294 0 0 0 0-70.294589z m105.411764 0a35.147294 35.147294 0 1 0 0 70.294589 35.147294 35.147294 0 0 0 0-70.294589z" fill="#568af2" /></svg>