<svg class="icon" style="width: 1em;height: 1em;vertical-align: middle;fill: currentColor;overflow: hidden;" viewBox="0 0 1024 1024" version="1.1" xmlns="http://www.w3.org/2000/svg" width="32" height="32"><path d="M737.882353 184.470588c33.972706 0 61.500235 27.527529 61.500235 61.500236l-0.030117 184.44047h8.794353c33.972706 0 61.500235 27.557647 61.500235 61.500235v316.235295a61.500235 61.500235 0 0 1-61.500235 61.500235H783.058824v0.12047H391.529412v-0.12047H245.970824a61.500235 61.500235 0 0 1-61.500236-61.500235v-316.235295c0-33.942588 27.527529-61.470118 61.500236-61.470117l8.764235-0.030118V245.970824c0-33.972706 27.527529-61.500235 61.500235-61.500236h421.647059z m-14.275765 492.122353l-3.312941-0.210823h-263.529412a26.352941 26.352941 0 0 0-26.142117 23.070117l-0.180706 3.312941-0.030118 113.724236h52.705882v-87.401412h210.82353v87.401412h52.705882v-113.754353a26.352941 26.352941 0 0 0-23.04-26.142118zM368.941176 535.853176H316.235294a26.352941 26.352941 0 0 0-3.312941 52.495059l3.312941 0.210824h52.705882a26.352941 26.352941 0 0 0 0-52.705883zM737.882353 237.176471h-421.647059a8.794353 8.794353 0 0 0-8.794353 8.794353v184.44047h439.205647V245.970824a8.794353 8.794353 0 0 0-8.764235-8.794353z" fill="#568af2" /></svg>