<svg class="icon" style="width: 1em;height: 1em;vertical-align: middle;fill: currentColor;overflow: hidden;" viewBox="0 0 1024 1024" version="1.1" xmlns="http://www.w3.org/2000/svg" width="32" height="32"><path d="M795.617882 154.352941a79.058824 79.058824 0 0 1 79.058824 79.058824v562.206117a79.058824 79.058824 0 0 1-79.058824 79.058824H233.411765a79.058824 79.058824 0 0 1-79.058824-79.058824V233.411765A79.058824 79.058824 0 0 1 233.411765 154.352941h562.206117z m-263.529411 535.853177a35.147294 35.147294 0 1 0 0 70.26447 35.147294 35.147294 0 0 0 0-70.26447z m105.411764 0a35.147294 35.147294 0 1 0 0 70.26447 35.147294 35.147294 0 0 0 0-70.26447z m105.411765 0a35.147294 35.147294 0 1 0 0 70.26447 35.147294 35.147294 0 0 0 0-70.26447z m-316.235294-412.882824H286.117647a26.352941 26.352941 0 0 0-26.142118 23.070118l-0.210823 3.312941v421.647059c0 13.402353 10.059294 24.515765 23.04 26.142117l3.312941 0.180706h140.559059a26.352941 26.352941 0 0 0 26.142118-23.04l0.210823-3.312941v-421.647059a26.352941 26.352941 0 0 0-26.352941-26.352941z m-26.383059 52.705882v368.941177h-87.823059v-368.941177h87.823059z m131.794824 254.765177a35.147294 35.147294 0 1 0 0 70.264471 35.147294 35.147294 0 0 0 0-70.264471z m105.411764 0a35.147294 35.147294 0 1 0 0 70.264471 35.147294 35.147294 0 0 0 0-70.264471z m105.411765 0a35.147294 35.147294 0 1 0 0 70.264471 35.147294 35.147294 0 0 0 0-70.264471z m-210.823529-105.411765a35.147294 35.147294 0 1 0 0 70.264471 35.147294 35.147294 0 0 0 0-70.264471z m105.411764 0a35.147294 35.147294 0 1 0 0 70.264471 35.147294 35.147294 0 0 0 0-70.264471z m105.411765 0a35.147294 35.147294 0 1 0 0 70.264471 35.147294 35.147294 0 0 0 0-70.264471z m0-202.059294h-210.823529a26.352941 26.352941 0 0 0-26.172236 23.070118l-0.180706 3.312941v105.411765c0 13.402353 10.029176 24.515765 23.04 26.142117l3.312942 0.180706h210.823529a26.352941 26.352941 0 0 0 26.142118-23.04l0.210823-3.312941v-105.411765a26.352941 26.352941 0 0 0-26.352941-26.352941z m-26.352941 52.705882v52.705883h-158.117647v-52.705883h158.117647z" fill="#568af2" /></svg>