<svg class="icon" style="width: 1em;height: 1em;vertical-align: middle;fill: currentColor;overflow: hidden;" viewBox="0 0 1024 1024" version="1.1" xmlns="http://www.w3.org/2000/svg" width="32" height="32"><path d="M501.970824 124.235294c61.500235 0 113.182118 42.164706 127.698823 99.147294l222.960941 223.051294a96.617412 96.617412 0 1 1-136.643764 136.643765l-82.281412-82.251294v247.085176a131.764706 131.764706 0 0 1-261.180236 24.816942l-219.979294-220.009412a96.617412 96.617412 0 1 1 136.643765-136.643765l80.986353 80.986353V256a131.764706 131.764706 0 0 1 131.794824-131.764706z m0 579.764706a26.352941 26.352941 0 0 0-26.172236 23.04l-0.180706 3.312941v17.558588a26.352941 26.352941 0 0 0 52.495059 3.312942l0.210824-3.312942v-17.558588a26.352941 26.352941 0 0 0-26.352941-26.352941zM189.801412 453.330824c-17.167059 17.167059-17.167059 44.965647 0 62.132705l180.374588 180.404706v-124.265411l-118.241882-118.272a43.911529 43.911529 0 0 0-62.132706 0z m443.934117-151.311059v124.265411l119.506824 119.506824a43.941647 43.941647 0 0 0 58.789647 3.011765l3.312941-3.011765c17.167059-17.136941 17.167059-44.935529 0-62.102588l-181.609412-181.669647z m-131.764705-72.372706a26.352941 26.352941 0 0 0-26.172236 23.04l-0.180706 3.312941v17.558588a26.352941 26.352941 0 0 0 52.495059 3.312941l0.210824-3.312941V256a26.352941 26.352941 0 0 0-26.352941-26.352941z" fill="#568af2" /></svg>