<svg class="icon" style="width: 1em;height: 1em;vertical-align: middle;fill: currentColor;overflow: hidden;" viewBox="0 0 1024 1024" version="1.1" xmlns="http://www.w3.org/2000/svg" width="32" height="32"><path d="M547.147294 124.235294c33.942588 0 61.470118 27.527529 61.470118 61.500235v96.587295l26.352941 0.030117A79.058824 79.058824 0 0 1 714.029176 361.411765v61.470117H722.823529a26.352941 26.352941 0 1 1 0 52.705883h-8.794353v166.912a79.058824 79.058824 0 0 1-79.058823 79.058823h-26.352941v96.64753a61.500235 61.500235 0 0 1-61.470118 61.470117h-105.411765a61.500235 61.500235 0 0 1-61.500235-61.470117v-96.64753h-26.352941a79.058824 79.058824 0 0 1-79.058824-79.058823V361.411765a79.058824 79.058824 0 0 1 79.058824-79.058824l26.352941-0.030117V185.735529c0-33.972706 27.527529-61.500235 61.500235-61.500235h105.411765z m8.764235 597.323294h-122.970353v96.64753c0 4.818824 3.915294 8.764235 8.794353 8.764235h105.411765c4.818824 0 8.764235-3.915294 8.764235-8.764235v-96.64753z m-114.176-245.940706H406.588235a26.352941 26.352941 0 0 0-3.312941 52.495059l3.312941 0.210824h35.147294a26.352941 26.352941 0 0 0 0-52.705883z m140.528942 0h-35.117177a26.352941 26.352941 0 0 0-3.312941 52.495059l3.312941 0.210824h35.117177a26.352941 26.352941 0 0 0 0-52.705883z m-35.117177-298.676706h-105.411765a8.794353 8.794353 0 0 0-8.794353 8.794353v96.587295h122.970353V185.735529a8.794353 8.794353 0 0 0-8.764235-8.794353z" fill="#568af2" /></svg>