<svg class="icon" style="width: 1em;height: 1em;vertical-align: middle;fill: currentColor;overflow: hidden;" viewBox="0 0 1024 1024" version="1.1" xmlns="http://www.w3.org/2000/svg" width="32" height="32"><path d="M818.206118 535.853176c33.942588 0 61.470118 27.527529 61.470117 61.470118v94.177882c0 26.322824-16.624941 49.453176-40.417882 62.464-21.865412 11.926588-37.948235 31.021176-44.423529 60.144942-6.927059 31.322353-32.647529 55.536941-64.481883 55.536941H273.558588c-31.834353 0-57.524706-24.244706-64.481882-55.536941-6.475294-29.123765-22.558118-48.188235-44.42353-60.144942-23.792941-13.010824-40.417882-36.141176-40.417882-62.464v-94.177882c0-33.942588 27.527529-61.470118 61.500235-61.470118h632.470589zM677.647059 658.823529H326.264471a26.352941 26.352941 0 0 0 0 52.705883H677.647059a26.352941 26.352941 0 1 0 0-52.705883zM499.531294 193.686588a26.352941 26.352941 0 1 1 39.996235 34.273883l-68.126117 79.48047h118.39247c21.383529 0 33.430588 23.853176 22.016 40.869647l-1.987764 2.650353-105.411765 122.970353a26.352941 26.352941 0 0 1-40.026353-34.304l68.096-79.48047h-118.362353a26.352941 26.352941 0 0 1-21.985882-40.869648l1.987764-2.620235 105.411765-122.970353z" fill="#568af2" /></svg>