<svg class="icon" style="width: 1em;height: 1em;vertical-align: middle;fill: currentColor;overflow: hidden;" viewBox="0 0 1024 1024" version="1.1" xmlns="http://www.w3.org/2000/svg" width="32" height="32"><path d="M722.823529 184.32v0.150588h67.764706a79.058824 79.058824 0 0 1 79.058824 79.058824v527.058823a79.058824 79.058824 0 0 1-79.058824 79.058824H263.529412a79.058824 79.058824 0 0 1-79.058824-79.058824V263.529412A79.058824 79.058824 0 0 1 263.529412 184.470588H331.294118V184.32h391.529411z m-72.794353 527.209412h-245.940705a26.352941 26.352941 0 0 0-3.312942 52.495059l3.312942 0.210823h245.940705a26.352941 26.352941 0 1 0 0-52.705882z m43.91153-473.99153h-52.705882v122.608942h-228.382118V237.537882h-52.705882v148.961883c0 13.432471 10.059294 24.545882 23.070117 26.172235l3.312941 0.180706h281.088a26.352941 26.352941 0 0 0 26.142118-23.04l0.210824-3.312941-0.030118-148.961883z" fill="#568af2" /></svg>