<svg class="icon" style="width: 1em;height: 1em;vertical-align: middle;fill: currentColor;overflow: hidden;" viewBox="0 0 1024 1024" version="1.1" xmlns="http://www.w3.org/2000/svg" width="32" height="32"><path d="M667.617882 124.235294c14.546824 0 26.352941 11.806118 26.352942 26.352941v140.559059a26.322824 26.322824 0 0 1-1.505883 8.794353H843.294118c14.546824 0 26.352941 11.776 26.352941 26.322824v175.706353c0 4.096-0.963765 8.131765-2.770824 11.776-40.628706 81.227294-93.003294 140.8-156.641882 178.236235l-16.414118 163.96047a26.352941 26.352941 0 0 1-26.202353 23.732706h-281.118117a26.352941 26.352941 0 0 1-26.202353-23.732706l-16.414118-163.96047c-63.638588-37.436235-116.013176-97.008941-156.611765-178.236235a26.352941 26.352941 0 0 1-2.800941-11.776v-175.706353c0-14.546824 11.806118-26.352941 26.352941-26.352942l150.829177 0.030118a26.322824 26.322824 0 0 1-1.505882-8.794353V150.588235a26.352941 26.352941 0 0 1 52.705882 0v140.559059a26.322824 26.322824 0 0 1-1.505882 8.794353h231.424a26.322824 26.322824 0 0 1-1.505883-8.794353V150.588235c0-14.546824 11.776-26.352941 26.352941-26.352941zM527.058824 739.147294c-45.959529 0-88.545882-7.077647-127.608471-21.11247l10.872471 108.935529h233.441882l10.902588-108.935529c-39.092706 14.034824-81.648941 21.082353-127.60847 21.082352z m35.147294-263.529412h-70.294589a26.352941 26.352941 0 0 0-3.312941 52.495059l3.312941 0.210824h70.294589a26.352941 26.352941 0 0 0 0-52.705883z" fill="#568af2" /></svg>