<svg class="icon" style="width: 1em;height: 1em;vertical-align: middle;fill: currentColor;overflow: hidden;" viewBox="0 0 1024 1024" version="1.1" xmlns="http://www.w3.org/2000/svg" width="32" height="32"><path d="M818.206118 193.264941c33.942588 0 61.470118 27.527529 61.470117 61.470118v491.941647a61.500235 61.500235 0 0 1-61.470117 61.470118h-632.470589a61.500235 61.500235 0 0 1-61.500235-61.470118V254.735059c0-33.942588 27.527529-61.470118 61.500235-61.470118h632.470589zM458.390588 298.255059c-15.239529 42.977882-26.714353 85.232941-32.88847 125.259294-4.909176 31.924706-6.264471 61.530353-3.553883 88.515765l1.204706 9.968941 0.662588 3.162353c2.770824 10.24 11.444706 17.799529 21.89553 19.215059l3.553882 0.240941h80.715294l4.608 68.879059c-10.631529 0.903529-21.504 1.415529-32.617411 1.415529-48.880941 0-93.063529-9.216-131.824942-24.515765a285.786353 285.786353 0 0 1-35.147294-16.564706 137.125647 137.125647 0 0 1-10.962823-6.716235 26.352941 26.352941 0 0 0-30.659765 42.857412c10.842353 7.770353 30.268235 18.703059 57.404235 29.424941 44.664471 17.648941 95.352471 28.220235 151.190589 28.220235 12.288 0 24.335059-0.512 36.141176-1.505882l5.933176 89.328941h52.856471l-6.475294-97.099294c22.046118-4.728471 42.947765-11.143529 62.704941-18.944 27.166118-10.721882 46.561882-21.654588 57.434353-29.424941a26.352941 26.352941 0 1 0-30.689882-42.857412 137.125647 137.125647 0 0 1-10.962824 6.716235c-9.938824 5.601882-21.684706 11.264-35.147294 16.564706-14.848 5.872941-30.479059 10.842353-46.893176 14.72753l-5.903059-88.606118-0.421647-3.132235a26.352941 26.352941 0 0 0-22.437647-21.232941l-3.433412-0.240942h-81.257412l-0.12047-5.933176a340.028235 340.028235 0 0 1 4.306823-54.452706c5.601882-36.352 16.233412-75.565176 30.448941-115.651765a899.102118 899.102118 0 0 1 28.190118-69.903058h-57.524706c-6.957176 16.414118-13.854118 33.942588-20.329412 52.284235z m219.256471 35.538823a26.352941 26.352941 0 0 0-26.142118 23.070118l-0.210823 3.312941v35.117177a26.352941 26.352941 0 0 0 52.495058 3.312941l0.210824-3.312941v-35.147294a26.352941 26.352941 0 0 0-26.352941-26.352942z m-351.382588 0a26.352941 26.352941 0 0 0-26.142118 23.070118l-0.210824 3.312941v35.117177a26.352941 26.352941 0 0 0 52.525177 3.312941l0.180706-3.312941v-35.147294a26.352941 26.352941 0 0 0-26.352941-26.352942z" fill="#568af2" /></svg>