<svg class="icon" style="width: 1em;height: 1em;vertical-align: middle;fill: currentColor;overflow: hidden;" viewBox="0 0 1024 1024" version="1.1" xmlns="http://www.w3.org/2000/svg" width="32" height="32"><path d="M505.735529 214.588235c74.842353 0 131.764706 54.512941 131.764706 131.764706v79.058824h43.91153c33.972706 0 61.500235 27.527529 61.500235 61.500235v245.940706a61.500235 61.500235 0 0 1-61.500235 61.500235H330.029176a61.500235 61.500235 0 0 1-61.470117-61.500235v-245.940706c0-33.972706 27.527529-61.500235 61.470117-61.500235h43.941648V346.352941c0-77.281882 56.922353-131.764706 131.764705-131.764706z m0 351.382589a26.352941 26.352941 0 0 0-26.172235 23.04l-0.180706 3.312941v35.117176a26.352941 26.352941 0 0 0 52.495059 3.312941l0.210824-3.312941v-35.117176a26.352941 26.352941 0 0 0-26.352942-26.352941z m0-298.676706c-46.260706 0-79.058824 31.412706-79.058823 79.058823v79.058824h158.117647V346.352941c0-47.646118-32.828235-79.058824-79.058824-79.058823z m-316.235294 122.970353c14.546824 0 26.352941 11.806118 26.352941 26.352941v210.823529a26.352941 26.352941 0 1 1-52.705882 0v-210.823529c0-14.546824 11.776-26.352941 26.352941-26.352941z m632.470589 0c14.546824 0 26.352941 11.806118 26.352941 26.352941v210.823529a26.352941 26.352941 0 0 1-52.705883 0v-210.823529c0-14.546824 11.776-26.352941 26.352942-26.352941z" fill="#568af2" /></svg>