<svg class="icon" style="width: 1em;height: 1em;vertical-align: middle;fill: currentColor;overflow: hidden;" viewBox="0 0 1024 1024" version="1.1" xmlns="http://www.w3.org/2000/svg" width="32" height="32"><path d="M532.088471 184.470588a26.352941 26.352941 0 0 1 0 52.705883H207.058824v122.970353h222.268235c57.434353 0 112.278588 10.872471 162.695529 30.659764 49.001412-64.150588 119.868235-103.484235 183.055059-61.349647 63.126588 42.074353 47.314824 125.741176 0.843294 196.427294a443.331765 443.331765 0 0 1 98.755765 279.612236 29.033412 29.033412 0 0 1-29.033412 29.003294H180.705882a26.352941 26.352941 0 0 1-26.352941-26.352941V399.058824c0-2.349176 0.210824-4.638118 0.602353-6.866824a26.985412 26.985412 0 0 1-0.602353-5.662118V210.823529c0-14.546824 11.806118-26.352941 26.352941-26.352941h351.382589z m298.646588 491.91153H180.705882a26.352941 26.352941 0 0 0-3.312941 52.525176l3.312941 0.180706h650.029177a26.352941 26.352941 0 1 0 0-52.705882z m-474.352941-228.382118a96.617412 96.617412 0 1 0 0 193.264941 96.617412 96.617412 0 0 0 0-193.264941z m0 52.705882a43.911529 43.911529 0 1 1 0 87.853177 43.911529 43.911529 0 0 1 0-87.853177z m287.201882-89.449411l-2.198588 2.529882a446.765176 446.765176 0 0 1 97.430588 71.499294c25.901176-45.748706 33.340235-94.448941 7.047529-111.977412-28.310588-18.853647-69.391059 1.174588-102.279529 37.948236z" fill="#568af2" /></svg>