<svg class="icon" style="width: 1em;height: 1em;vertical-align: middle;fill: currentColor;overflow: hidden;" viewBox="0 0 1024 1024" version="1.1" xmlns="http://www.w3.org/2000/svg" width="32" height="32"><path d="M670.991059 361.411765c23.883294 0 43.218824 19.365647 43.218823 43.218823v27.888941a146.341647 146.341647 0 0 1-12.047058 289.67153 249.615059 249.615059 0 0 1-487.032471-76.8v-240.760471c0-23.853176 19.365647-43.218824 43.218823-43.218823h412.611765z m-10.059294 309.790117H268.438588a197.993412 197.993412 0 0 0 181.669647 171.580236l7.469177 0.391529 7.107764 0.120471 7.318589-0.120471a197.963294 197.963294 0 0 0 188.928-171.971765z m53.308235-185.765647v159.924706c0 7.589647-0.361412 15.119059-1.024 22.528a94.659765 94.659765 0 0 0 0.993882-182.452706z m-51.681882-72.402823H266.752V481.882353h395.806118v-68.818824z m-197.872942-258.138353c14.245647 0 25.810824 11.565176 25.810824 25.810823v103.273412a25.810824 25.810824 0 1 1-51.651765 0V180.705882c0-14.245647 11.565176-25.810824 25.840941-25.810823z m-137.697882 34.42447c14.275765 0 25.810824 11.535059 25.810824 25.810824v34.424471a25.810824 25.810824 0 0 1-51.621647 0V215.130353c0-14.275765 11.565176-25.810824 25.810823-25.810824z m275.365647 0c14.245647 0 25.810824 11.535059 25.810824 25.810824v34.424471a25.810824 25.810824 0 1 1-51.621647 0V215.130353c0-14.275765 11.565176-25.810824 25.810823-25.810824z" fill="#568af2" /></svg>