<svg class="icon" style="width: 1em;height: 1em;vertical-align: middle;fill: currentColor;overflow: hidden;" viewBox="0 0 1024 1024" version="1.1" xmlns="http://www.w3.org/2000/svg" width="32" height="32"><path d="M795.617882 244.705882a79.058824 79.058824 0 0 1 79.058824 79.058824v386.499765a79.058824 79.058824 0 0 1-79.058824 79.058823H233.411765a79.058824 79.058824 0 0 1-79.058824-79.058823V323.764706A79.058824 79.058824 0 0 1 233.411765 244.705882h562.206117z m-474.352941 360.146824a35.147294 35.147294 0 1 0 0 70.294588 35.147294 35.147294 0 0 0 0-70.294588z m0-237.176471a26.352941 26.352941 0 0 0-26.352941 26.352941v123.000471a26.352941 26.352941 0 0 0 52.705882 0v-123.000471a26.352941 26.352941 0 0 0-26.352941-26.352941z" fill="#568af2" /></svg>