<svg class="icon" style="width: 1em;height: 1em;vertical-align: middle;fill: currentColor;overflow: hidden;" viewBox="0 0 1024 1024" version="1.1" xmlns="http://www.w3.org/2000/svg" width="32" height="32"><path d="M501.970824 276.088471a114.206118 114.206118 0 0 1 114.176 114.176v8.794353h8.794352c17.739294 0 30.418824 17.167059 25.178353 34.093176l-37.827764 123.000471a26.352941 26.352941 0 0 1-25.178353 18.582588H416.828235a26.352941 26.352941 0 0 1-25.20847-18.582588l-37.827765-123.000471a26.352941 26.352941 0 0 1 25.178353-34.093176h8.794353v-8.794353a114.206118 114.206118 0 0 1 114.206118-114.176z m0 52.705882a61.500235 61.500235 0 0 0-61.500236 61.470118v8.794353h122.970353v-8.794353a61.500235 61.500235 0 0 0-61.470117-61.470118z m-210.82353 140.528941c14.546824 0 26.352941 11.806118 26.352941 26.352941v123.000471a26.352941 26.352941 0 0 1-26.352941 26.352941H168.146824a26.352941 26.352941 0 0 1-26.352942-26.352941v-123.000471c0-14.546824 11.806118-26.352941 26.352942-26.352941h123.00047z m544.617412 0c14.546824 0 26.352941 11.806118 26.352941 26.352941v123.000471a26.352941 26.352941 0 0 1-26.352941 26.352941h-122.970353a26.352941 26.352941 0 0 1-26.352941-26.352941v-123.000471c0-14.546824 11.776-26.352941 26.352941-26.352941h122.970353zM361.411765 223.382588a26.352941 26.352941 0 1 1 0 52.705883H150.588235a26.352941 26.352941 0 0 1 0-52.705883h210.82353z m232.899764 442.669177a26.352941 26.352941 0 0 1 35.930353 9.818353l70.294589 122.970353a26.352941 26.352941 0 1 1-45.778824 26.142117l-70.264471-122.970353a26.352941 26.352941 0 0 1 9.818353-35.96047z m-220.641882 9.818353a26.352941 26.352941 0 0 1 45.778824 26.142117l-70.294589 122.970353a26.352941 26.352941 0 1 1-45.778823-26.142117l70.294588-122.970353zM853.323294 223.382588a26.352941 26.352941 0 1 1 0 52.705883h-210.823529a26.352941 26.352941 0 0 1 0-52.705883h210.823529z" fill="#568af2" /></svg>