<svg class="icon" style="width: 1em;height: 1em;vertical-align: middle;fill: currentColor;overflow: hidden;" viewBox="0 0 1024 1024" version="1.1" xmlns="http://www.w3.org/2000/svg" width="32" height="32"><path d="M800.617412 133.029647a79.058824 79.058824 0 0 1 79.058823 79.058824v597.323294a79.058824 79.058824 0 0 1-79.058823 79.058823H203.294118a79.058824 79.058824 0 0 1-79.058824-79.058823V212.088471A79.058824 79.058824 0 0 1 203.294118 133.029647h597.323294z m-96.64753 52.705882H317.470118v289.882353c0 13.432471 10.059294 24.515765 23.070117 26.142118l3.312941 0.210824H677.647059a26.352941 26.352941 0 0 0 26.142117-23.070118l0.210824-3.312941-0.030118-289.852236z m-52.705882 0v263.529412h-281.057882v-263.529412h281.088zM589.854118 256a26.352941 26.352941 0 0 0-26.172236 23.04l-0.210823 3.312941v70.264471a26.352941 26.352941 0 0 0 52.525176 3.312941l0.180706-3.312941V282.352941a26.352941 26.352941 0 0 0-26.352941-26.352941z" fill="#568af2" /></svg>