<svg class="icon" style="width: 1em;height: 1em;vertical-align: middle;fill: currentColor;overflow: hidden;" viewBox="0 0 1024 1024" version="1.1" xmlns="http://www.w3.org/2000/svg" width="32" height="32"><path d="M732.852706 124.235294c33.972706 0 61.500235 27.527529 61.500235 61.500235v632.470589a61.500235 61.500235 0 0 1-61.500235 61.470117H276.088471a61.500235 61.500235 0 0 1-61.500236-61.470117v-632.470589c0-33.972706 27.527529-61.500235 61.500236-61.500235h456.764235z m0 52.705882H276.088471a8.794353 8.794353 0 0 0-8.794353 8.794353v632.470589c0 4.818824 3.915294 8.764235 8.794353 8.764235h456.764235c4.848941 0 8.794353-3.915294 8.794353-8.764235v-632.470589a8.794353 8.794353 0 0 0-8.794353-8.794353z m-228.382118 316.235295a131.764706 131.764706 0 1 1 0 263.529411 131.764706 131.764706 0 0 1 0-263.529411zM451.764706 370.206118a26.352941 26.352941 0 1 1 0 52.705882h-52.705882a26.352941 26.352941 0 0 1 0-52.705882H451.764706z m158.117647 0a26.352941 26.352941 0 1 1 0 52.705882H557.176471a26.352941 26.352941 0 0 1 0-52.705882h52.705882zM451.764706 264.794353a26.352941 26.352941 0 1 1 0 52.705882h-52.705882a26.352941 26.352941 0 0 1 0-52.705882H451.764706z" fill="#568af2" /></svg>