<svg class="icon" style="width: 1em;height: 1em;vertical-align: middle;fill: currentColor;overflow: hidden;" viewBox="0 0 1024 1024" version="1.1" xmlns="http://www.w3.org/2000/svg" width="32" height="32"><path d="M593.739294 154.895059c14.275765 0 25.810824 11.565176 25.810824 25.810823v77.402353l249.554823 0.030118c14.275765 0 25.810824 11.565176 25.810824 25.840941v275.33553a25.810824 25.810824 0 0 1-25.810824 25.840941l-88.636235-0.030118 10.571294 137.697882h43.670588c14.245647 0 25.780706 11.565176 25.780706 25.810824v120.470588a25.810824 25.810824 0 0 1-25.810823 25.810824H215.130353a25.810824 25.810824 0 0 1-25.810824-25.810824v-120.470588c0-14.245647 11.535059-25.810824 25.810824-25.810824H258.710588l21.775059-273.01647a25.810824 25.810824 0 0 0-6.264471-18.974118L161.219765 300.905412A25.810824 25.810824 0 0 1 180.705882 258.138353h232.32753V180.705882c0-14.245647 11.565176-25.810824 25.810823-25.810823h154.895059zM559.314824 602.352941h-86.046118a25.810824 25.810824 0 0 0-3.222588 51.440941l3.222588 0.180706h86.046118a25.810824 25.810824 0 1 0 0-51.621647z m0-103.273412h-86.046118a25.810824 25.810824 0 0 0-3.222588 51.440942l3.222588 0.210823h86.046118a25.810824 25.810824 0 1 0 0-51.651765zM843.294118 309.790118l-83.998118-0.030118 17.197176 223.744H843.294118v-223.713882z m-283.979294 86.046117h-86.046118a25.810824 25.810824 0 0 0-3.222588 51.410824l3.222588 0.210823h86.046118a25.810824 25.810824 0 0 0 0-51.621647z m8.583529-189.319529h-103.243294v51.621647h103.243294V206.516706z" fill="#568af2" /></svg>