<svg class="icon" style="width: 1em;height: 1em;vertical-align: middle;fill: currentColor;overflow: hidden;" viewBox="0 0 1024 1024" version="1.1" xmlns="http://www.w3.org/2000/svg" width="32" height="32"><path d="M757.248 154.895059a60.235294 60.235294 0 0 1 60.235294 60.235294v619.550118a60.235294 60.235294 0 0 1-60.235294 60.235294h-481.882353a60.235294 60.235294 0 0 1-60.235294-60.235294V215.130353a60.235294 60.235294 0 0 1 60.235294-60.235294h481.882353z m0 206.516706h-481.882353c-4.758588 0-8.613647 2.921412-8.613647 6.505411v468.87153c0 3.614118 3.855059 6.505412 8.613647 6.505412h481.882353c4.758588 0 8.613647-2.921412 8.613647-6.505412V367.917176c0-3.614118-3.855059-6.505412-8.613647-6.505411z m-172.092235-111.856941a34.424471 34.424471 0 1 0 0 68.818823 34.424471 34.424471 0 0 0 0-68.818823z m103.243294 0a34.424471 34.424471 0 1 0 0 68.818823 34.424471 34.424471 0 0 0 0-68.818823z" fill="#568af2" /><path d="M791.672471 352.798118a25.810824 25.810824 0 1 1 0 51.651764H240.941176a25.810824 25.810824 0 1 1 0-51.651764h550.731295zM516.306824 481.882353a146.281412 146.281412 0 1 1 0 292.562823 146.281412 146.281412 0 0 1 0-292.562823z m0 51.621647a94.659765 94.659765 0 1 0 0 189.319529 94.659765 94.659765 0 0 0 0-189.319529z" fill="#568af2" /></svg>