<svg class="icon" style="width: 1em;height: 1em;vertical-align: middle;fill: currentColor;overflow: hidden;" viewBox="0 0 1024 1024" version="1.1" xmlns="http://www.w3.org/2000/svg" width="32" height="32"><path d="M517.029647 154.352941a272.323765 272.323765 0 0 1 157.936941 494.170353l94.027294 187.994353a26.352941 26.352941 0 0 1-23.582117 38.159059H288.617412a26.352941 26.352941 0 0 1-23.552-38.159059l93.967059-188.024471a272.323765 272.323765 0 0 1 157.997176-494.140235zM404.781176 674.846118l-73.547294 147.124706h371.531294l-73.547294-147.124706a271.329882 271.329882 0 0 1-112.188235 24.124235 271.329882 271.329882 0 0 1-112.248471-24.124235z m112.248471-379.934118a131.764706 131.764706 0 1 0 0 263.529412 131.764706 131.764706 0 0 0 0-263.529412z m0 52.705882a79.058824 79.058824 0 1 1 0 158.117647 79.058824 79.058824 0 0 1 0-158.117647z" fill="#568af2" /></svg>