<svg class="icon" style="width: 1em;height: 1em;vertical-align: middle;fill: currentColor;overflow: hidden;" viewBox="0 0 1024 1024" version="1.1" xmlns="http://www.w3.org/2000/svg" width="32" height="32"><path d="M778.059294 124.235294c33.942588 0 61.470118 27.527529 61.470118 61.500235v632.470589a61.500235 61.500235 0 0 1-61.470118 61.470117H215.853176a61.500235 61.500235 0 0 1-61.500235-61.470117v-632.470589c0-33.972706 27.527529-61.500235 61.500235-61.500235h562.206118zM427.730824 553.592471a26.352941 26.352941 0 0 0-37.25553 0l-42.887529 42.857411-42.827294-42.857411a26.352941 26.352941 0 0 0-34.575059-2.349177l-2.710588 2.349177a26.352941 26.352941 0 0 0 0 37.285647l42.857411 42.827294-42.827294 42.887529a26.352941 26.352941 0 0 0-2.379294 34.544941l2.379294 2.710589a26.352941 26.352941 0 0 0 37.25553 0l42.827294-42.857412 42.887529 42.857412a26.352941 26.352941 0 0 0 34.575059 2.349176l2.710588-2.349176a26.352941 26.352941 0 0 0 0-37.25553l-42.887529-42.887529 42.857412-42.827294a26.352941 26.352941 0 0 0 2.379294-34.575059z m280.033882 115.260235h-140.528941a26.352941 26.352941 0 0 0 0 52.705882H707.764706a26.352941 26.352941 0 1 0 0-52.705882z m0-105.411765h-140.528941a26.352941 26.352941 0 0 0 0 52.705883H707.764706a26.352941 26.352941 0 1 0 0-52.705883z m-17.558588-333.793882H303.706353a26.352941 26.352941 0 0 0-26.172235 23.04l-0.180706 3.312941v158.117647c0 13.432471 10.029176 24.515765 23.04 26.142118l3.312941 0.210823h386.499765a26.352941 26.352941 0 0 0 26.142117-23.04l0.210824-3.312941V256a26.352941 26.352941 0 0 0-26.352941-26.352941z" fill="#568af2" /><path d="M663.853176 282.352941H330.059294v105.411765h333.793882z" fill="#568af2" /></svg>