<svg class="icon" style="width: 1em;height: 1em;vertical-align: middle;fill: currentColor;overflow: hidden;" viewBox="0 0 1024 1024" version="1.1" xmlns="http://www.w3.org/2000/svg" width="32" height="32"><path d="M276.088471 909.793882a61.500235 61.500235 0 0 1-61.500236-61.470117v-10.179765h-0.301176v-481.882353h0.301176V215.853176c0-33.972706 27.527529-61.500235 61.500236-61.500235h354.635294c16.052706 0 31.442824 6.264471 42.917647 17.468235l137.246117 133.662118c11.896471 11.565176 18.612706 27.467294 18.612706 44.062118v498.748235a61.500235 61.500235 0 0 1-61.500235 61.500235H276.088471z m499.651764-456.794353H267.986824v52.705883h122.277647v158.117647h-122.277647v52.705882h122.277647v139.535059h52.705882V505.705412h158.117647v350.358588h52.705882v-86.829176h121.976471v-52.705883h-121.976471v-70.26447h121.976471v-52.705883h-121.976471v-87.853176h121.976471v-52.705883z" fill="#568af2" /></svg>