<svg class="icon" style="width: 1em;height: 1em;vertical-align: middle;fill: currentColor;overflow: hidden;" viewBox="0 0 1024 1024" version="1.1" xmlns="http://www.w3.org/2000/svg" width="32" height="32"><path d="M629.970824 154.352941c14.546824 0 26.352941 11.806118 26.352941 26.352941l-0.030118 114.176h54.934588c18.191059 0 32.918588 14.757647 32.918589 32.948706v362.37553a219.617882 219.617882 0 0 1-439.205648 0V327.830588c0-18.191059 14.757647-32.918588 32.918589-32.918588l54.90447-0.030118V180.705882c0-14.546824 11.806118-26.352941 26.383059-26.352941h210.82353zM594.823529 593.558588h-140.559058a26.352941 26.352941 0 0 0-3.312942 52.525177l3.312942 0.180706h140.559058a26.352941 26.352941 0 1 0 0-52.705883z m0-140.528941h-140.559058a26.352941 26.352941 0 0 0-3.312942 52.495059l3.312942 0.210823h140.559058a26.352941 26.352941 0 0 0 0-52.705882z m8.794353-245.970823h-158.117647l-0.030117 87.823058h158.117647V207.058824z" fill="#568af2" /></svg>