<svg class="icon" style="width: 1em;height: 1em;vertical-align: middle;fill: currentColor;overflow: hidden;" viewBox="0 0 1024 1024" version="1.1" xmlns="http://www.w3.org/2000/svg" width="32" height="32"><path d="M818.206118 184.470588c33.942588 0 61.470118 27.527529 61.470117 61.500236v456.764235a61.500235 61.500235 0 0 1-61.470117 61.500235H739.087059V843.294118a26.352941 26.352941 0 0 1-52.705883 0v-79.058824h-368.941176V843.294118a26.352941 26.352941 0 0 1-52.705882 0v-79.058824H185.735529a61.500235 61.500235 0 0 1-61.500235-61.500235V245.970824c0-33.972706 27.527529-61.500235 61.500235-61.500236h632.470589z m-105.411765 360.146824a35.147294 35.147294 0 1 0 0 70.294588 35.147294 35.147294 0 0 0 0-70.294588z m-158.117647-202.029177H256a26.352941 26.352941 0 0 0-26.142118 23.04l-0.210823 3.312941v210.82353c0 13.432471 10.059294 24.515765 23.04 26.142118l3.312941 0.210823h298.676706a26.352941 26.352941 0 0 0 26.142118-23.04l0.210823-3.312941v-210.82353a26.352941 26.352941 0 0 0-26.352941-26.352941z m-26.383059 52.705883v158.117647H282.352941v-158.117647h245.940706z m219.617882 52.705882H677.647059a26.352941 26.352941 0 0 0-3.312941 52.495059l3.312941 0.210823h70.26447a26.352941 26.352941 0 1 0 0-52.705882z m0-105.411765H677.647059a26.352941 26.352941 0 0 0-3.312941 52.495059l3.312941 0.210824h70.26447a26.352941 26.352941 0 1 0 0-52.705883z" fill="#568af2" /></svg>