<svg class="icon" style="width: 1em;height: 1em;vertical-align: middle;fill: currentColor;overflow: hidden;" viewBox="0 0 1024 1024" version="1.1" xmlns="http://www.w3.org/2000/svg" width="32" height="32"><path d="M727.853176 124.235294c33.942588 0 61.470118 27.527529 61.470118 61.500235v632.470589a61.500235 61.500235 0 0 1-61.470118 61.470117h-421.647058a61.500235 61.500235 0 0 1-61.500236-61.470117v-632.470589c0-33.972706 27.527529-61.500235 61.500236-61.500235h421.647058z m-281.118117 421.647059a26.352941 26.352941 0 0 0-26.142118 23.04l-0.210823 3.312941v43.91153H376.470588a26.352941 26.352941 0 0 0-26.142117 23.070117l-0.210824 3.312941c0 13.402353 10.059294 24.515765 23.04 26.142118l3.312941 0.180706h43.91153v43.941647c0 13.432471 10.059294 24.515765 23.070117 26.142118l3.312941 0.210823a26.352941 26.352941 0 0 0 26.142118-23.070118l0.180706-3.312941v-43.911529h43.941647a26.352941 26.352941 0 0 0 26.142118-23.04l0.210823-3.312941a26.352941 26.352941 0 0 0-23.070117-26.142118l-3.312942-0.210823h-43.911529V572.235294a26.352941 26.352941 0 0 0-23.04-26.142118l-3.312941-0.210823z m158.117647 114.206118a35.147294 35.147294 0 1 0 0 70.26447 35.147294 35.147294 0 0 0 0-70.26447z m52.705882-123.000471a35.147294 35.147294 0 1 0 0 70.294588 35.147294 35.147294 0 0 0 0-70.294588z m0-272.293647H376.470588a26.352941 26.352941 0 0 0-26.142117 23.04l-0.210824 3.312941V466.823529c0 13.432471 10.059294 24.515765 23.04 26.142118l3.312941 0.210824h281.088a26.352941 26.352941 0 0 0 26.172236-23.04l0.180705-3.312942V291.147294a26.352941 26.352941 0 0 0-26.352941-26.352941z m-26.352941 52.705882v122.970353h-228.382118v-122.970353h228.382118z" fill="#568af2" /></svg>