<svg class="icon" style="width: 1em;height: 1em;vertical-align: middle;fill: currentColor;overflow: hidden;" viewBox="0 0 1024 1024" version="1.1" xmlns="http://www.w3.org/2000/svg" width="32" height="32"><path d="M874.676706 680.146824a149.323294 149.323294 0 1 1-298.676706 0v-26.352942h-123.000471v26.352942a149.323294 149.323294 0 1 1-298.646588 0V433.995294c0-121.072941 98.334118-219.376941 219.617883-219.376941h281.088a219.617882 219.617882 0 0 1 219.617882 219.407059v246.151529zM207.058824 576.933647v103.213177a96.617412 96.617412 0 1 0 193.264941 0l-0.030118-26.352942h-26.322823a219.105882 219.105882 0 0 1-166.912-76.860235z m448 76.860235h-26.352942v26.352942a96.617412 96.617412 0 1 0 193.264942 0v-103.243295a219.105882 219.105882 0 0 1-166.912 76.890353zM391.529412 337.558588a26.352941 26.352941 0 0 0-26.142118 23.070118l-0.210823 3.312941v43.881412h-43.91153a26.352941 26.352941 0 0 0-26.172235 23.070117l-0.180706 3.312942c0 13.432471 10.029176 24.515765 23.04 26.142117l3.312941 0.210824 43.91153-0.030118v43.941647c0 13.432471 10.059294 24.515765 23.04 26.142118l3.312941 0.210823a26.352941 26.352941 0 0 0 26.142117-23.04l0.210824-3.312941v-43.941647h43.911529a26.352941 26.352941 0 0 0 26.172236-23.04l0.180706-3.312941a26.352941 26.352941 0 0 0-23.04-26.142118l-3.312942-0.180706-43.911529-0.030117v-43.91153a26.352941 26.352941 0 0 0-23.04-26.142117l-3.312941-0.210824zM619.911529 451.764706a35.147294 35.147294 0 1 0 0 70.26447 35.147294 35.147294 0 0 0 0-70.26447z m70.294589-87.853177a35.147294 35.147294 0 1 0 0 70.294589 35.147294 35.147294 0 0 0 0-70.294589z" fill="#568af2" /></svg>