<svg class="icon" style="width: 1em;height: 1em;vertical-align: middle;fill: currentColor;overflow: hidden;" viewBox="0 0 1024 1024" version="1.1" xmlns="http://www.w3.org/2000/svg" width="32" height="32"><path d="M510.735059 184.470588a61.500235 61.500235 0 0 1 26.352941 117.067294v93.756236h202.059294c33.942588 0 61.470118 27.527529 61.470118 61.500235v351.352471a61.500235 61.500235 0 0 1-61.470118 61.500235H282.352941a61.500235 61.500235 0 0 1-61.500235-61.500235V456.794353c0-33.972706 27.527529-61.500235 61.500235-61.500235h202.029177v-93.756236a61.500235 61.500235 0 0 1 26.352941-117.067294z m70.294588 483.147294h-140.559059a35.147294 35.147294 0 1 0 0 70.264471h140.559059a35.147294 35.147294 0 1 0 0-70.264471zM387.764706 527.058824a35.147294 35.147294 0 1 0 0 70.26447 35.147294 35.147294 0 0 0 0-70.26447z m245.970823 0a35.147294 35.147294 0 1 0 0 70.26447 35.147294 35.147294 0 0 0 0-70.26447z m-123.00047-289.882353a8.794353 8.794353 0 1 0 0 17.558588 8.794353 8.794353 0 0 0 0-17.558588zM159.382588 535.853176c14.546824 0 26.352941 11.776 26.352941 26.352942v140.528941a26.352941 26.352941 0 1 1-52.705882 0v-140.528941c0-14.576941 11.776-26.352941 26.352941-26.352942z m702.735059 0c14.546824 0 26.352941 11.776 26.352941 26.352942v140.528941a26.352941 26.352941 0 1 1-52.705882 0v-140.528941c0-14.576941 11.806118-26.352941 26.352941-26.352942z" fill="#568af2" /></svg>