<svg class="icon" style="width: 1em;height: 1em;vertical-align: middle;fill: currentColor;overflow: hidden;" viewBox="0 0 1024 1024" version="1.1" xmlns="http://www.w3.org/2000/svg" width="32" height="32"><path d="M714.631529 154.714353v0.150588h42.616471a60.235294 60.235294 0 0 1 60.235294 60.235294v619.580236a60.235294 60.235294 0 0 1-60.235294 60.235294h-481.882353a60.235294 60.235294 0 0 1-60.235294-60.235294V215.130353a60.235294 60.235294 0 0 1 60.235294-60.235294h47.736471v-0.180706h391.529411z m-162.334117 280.786823l-2.620236 2.319059-137.667764 137.697883-2.138353 2.409411a25.840941 25.840941 0 0 0 17.01647 41.441883l3.373177 0.210823h109.808941l-93.665882 93.635765a25.810824 25.810824 0 0 0 33.882353 38.821647l2.650353-2.319059 137.728-137.697882 2.138353-2.409412a25.840941 25.840941 0 0 0-17.016471-41.441882l-3.373177-0.210824-109.808941-0.030117 93.57553-93.605647a25.810824 25.810824 0 0 0-33.852236-38.821648z m144.685176-228.47247h-51.621647v85.534118h-258.138353v-85.534118h-51.651764v111.344941c0 13.161412 9.878588 24.033882 22.588235 25.6l3.252706 0.240941h309.790117a25.810824 25.810824 0 0 0 25.6-22.588235l0.210824-3.252706-0.030118-111.344941z" fill="#568af2" /></svg>