<svg class="icon" style="width: 1em;height: 1em;vertical-align: middle;fill: currentColor;overflow: hidden;" viewBox="0 0 1024 1024" version="1.1" xmlns="http://www.w3.org/2000/svg" width="32" height="32"><path d="M707.704471 184.470588c40.056471 0 73.788235 29.967059 78.516705 69.752471l55.235765 465.558588c1.234824 10.330353 0.421647 20.389647-2.108235 29.816471a131.794824 131.794824 0 0 1-131.252706 120.048941h-421.647059A131.764706 131.764706 0 0 1 154.684235 737.882353v-1.144471a79.450353 79.450353 0 0 1 0.542118-19.335529l69.571765-465.558588a79.058824 79.058824 0 0 1 78.215529-67.373177h404.690824z m-263.137883 518.264471a35.147294 35.147294 0 1 0 0 70.294588 35.147294 35.147294 0 0 0 0-70.294588z m245.970824 8.794353h-105.411765a26.352941 26.352941 0 0 0-3.312941 52.495059l3.312941 0.210823h105.411765a26.352941 26.352941 0 0 0 0-52.705882z m17.167059-474.352941H303.013647a26.352941 26.352941 0 0 0-26.081882 22.467764L222.689882 622.531765a131.162353 131.162353 0 0 1 63.759059-16.444236h421.647059c25.359059 0 49.031529 7.168 69.150118 19.576471l-43.369412-365.266824a26.352941 26.352941 0 0 0-26.172235-23.250823z m-175.284706 52.705882a26.352941 26.352941 0 0 1 0 52.705882h-70.294589a26.352941 26.352941 0 1 1 0-52.705882h70.294589z" fill="#568af2" /></svg>