<svg class="icon" style="width: 1em;height: 1em;vertical-align: middle;fill: currentColor;overflow: hidden;" viewBox="0 0 1024 1024" version="1.1" xmlns="http://www.w3.org/2000/svg" width="32" height="32"><path d="M660.088471 442.970353c33.942588 0 61.470118 27.527529 61.470117 61.500235v29.696l121.072941-53.790117a26.352941 26.352941 0 0 1 37.044706 24.094117v281.088a26.352941 26.352941 0 0 1-37.044706 24.094118l-121.072941-53.820235v29.726117a61.500235 61.500235 0 0 1-61.470117 61.500236H185.735529a61.500235 61.500235 0 0 1-61.500235-61.500236V504.470588c0-33.972706 27.527529-61.500235 61.500235-61.500235h474.352942z m166.881882 102.038588l-105.411765 46.832941v106.315294l105.411765 46.832942v-199.981177z m-237.176471 3.373177h-158.117647a26.352941 26.352941 0 0 0-26.142117 23.070117l-0.210824 3.312941v140.528942c0 13.432471 10.059294 24.515765 23.070118 26.142117l3.312941 0.210824h158.117647a26.352941 26.352941 0 0 0 26.142118-23.04l0.180706-3.312941v-140.559059a26.352941 26.352941 0 0 0-26.352942-26.352941z m-26.352941 52.705882v87.823059h-105.411765v-87.823059h105.411765z m-8.764235-386.499765a114.206118 114.206118 0 1 1 0 228.382118 114.206118 114.206118 0 0 1 0-228.382118z m-245.970824 0a114.206118 114.206118 0 1 1 0 228.382118 114.206118 114.206118 0 0 1 0-228.382118z" fill="#568af2" /></svg>