<svg class="icon" style="width: 1em;height: 1em;vertical-align: middle;fill: currentColor;overflow: hidden;" viewBox="0 0 1024 1024" version="1.1" xmlns="http://www.w3.org/2000/svg" width="32" height="32"><path d="M501.970824 219.617882a26.352941 26.352941 0 0 1 0 52.705883H273.558588a26.352941 26.352941 0 0 0-26.352941 26.352941v342.588235h509.470118l0.030117-61.500235c0-13.432471 10.059294-24.515765 23.04-26.142118l3.312942-0.210823c14.546824 0 26.352941 11.806118 26.352941 26.352941l-0.030118 61.470118h43.971765c14.546824 0 26.322824 11.806118 26.322823 26.383058v35.117177a131.764706 131.764706 0 0 1-131.764706 131.764706H256a131.764706 131.764706 0 0 1-131.764706-131.764706v-35.117177c0-14.576941 11.806118-26.352941 26.352941-26.352941l43.91153-0.030117V298.676706a79.058824 79.058824 0 0 1 79.058823-79.058824h228.412236z m210.823529-35.147294a79.058824 79.058824 0 0 1 79.058823 79.058824v30.84047a79.088941 79.088941 0 0 1 52.705883 74.571294v35.147295a79.058824 79.058824 0 0 1-79.058824 79.058823h-105.411764a79.058824 79.058824 0 0 1-79.058824-79.058823V368.941176c0-34.424471 21.985882-63.698824 52.675765-74.541176V263.529412a79.058824 79.058824 0 0 1 79.088941-79.058824z m0 52.705883a26.352941 26.352941 0 0 0-26.352941 26.352941v26.352941h52.705882V263.529412a26.352941 26.352941 0 0 0-23.070118-26.142118l-3.312941-0.210823z" fill="#568af2" /></svg>