<svg class="icon" style="width: 1em;height: 1em;vertical-align: middle;fill: currentColor;overflow: hidden;" viewBox="0 0 1024 1024" version="1.1" xmlns="http://www.w3.org/2000/svg" width="32" height="32"><path d="M715.294118 124.235294a79.058824 79.058824 0 0 1 79.058823 79.058824v597.323294a79.058824 79.058824 0 0 1-79.058823 79.058823h-421.647059a79.058824 79.058824 0 0 1-79.058824-79.058823V203.294118A79.058824 79.058824 0 0 1 293.647059 124.235294h421.647059z m-122.970353 562.206118H557.176471a26.352941 26.352941 0 0 0-3.312942 52.495059l3.312942 0.210823h35.147294a26.352941 26.352941 0 0 0 0-52.705882z m-140.559059 0h-35.147294a26.352941 26.352941 0 0 0-3.312941 52.495059l3.312941 0.210823H451.764706a26.352941 26.352941 0 0 0 0-52.705882z m52.705882-368.941177a149.323294 149.323294 0 1 0 0 298.646589 149.323294 149.323294 0 0 0 0-298.646589z m0 52.705883a96.617412 96.617412 0 1 1 0 193.234823 96.617412 96.617412 0 0 1 0-193.234823z m140.559059-149.353412a35.147294 35.147294 0 1 0 0 70.294588 35.147294 35.147294 0 0 0 0-70.294588z" fill="#568af2" /></svg>