<svg class="icon" style="width: 1em;height: 1em;vertical-align: middle;fill: currentColor;overflow: hidden;" viewBox="0 0 1024 1024" version="1.1" xmlns="http://www.w3.org/2000/svg" width="32" height="32"><path d="M501.970824 668.852706l14.155294 0.180706c75.233882 1.957647 147.937882 19.456 214.497882 50.898823l8.523294 4.216471-5.722353 6.023529a324.065882 324.065882 0 0 1-231.454117 96.798118l-10.209883-0.150588a324.005647 324.005647 0 0 1-221.244235-96.677647l-5.812706-6.02353 8.613647-4.156235a533.684706 533.684706 0 0 1 228.653177-51.109647z m0-544.617412l-3.312942 0.210824a26.352941 26.352941 0 0 0-22.859294 22.829176l-0.180706 3.312941v70.264471a26.352941 26.352941 0 0 0 52.495059 3.312941l0.210824-3.312941V150.588235a26.352941 26.352941 0 0 0-23.070118-26.142117l-3.312941-0.210824c101.526588 0 196.728471 40.267294 267.083294 110.592a26.352941 26.352941 0 0 0-34.334118-2.108235l-2.68047 2.379294-54.994824 54.964706a26.352941 26.352941 0 0 0 34.575059 39.634823l2.710588-2.349176 54.964706-54.994824a26.352941 26.352941 0 0 0 2.379294-34.575058l-2.138353-2.43953 7.198118 7.408941a376.470588 376.470588 0 0 1 103.002353 259.222589c0 86.618353-29.214118 166.460235-78.245647 230.189176a26.352941 26.352941 0 0 0-7.920941-38.821647 585.276235 585.276235 0 0 0-265.216-76.589177v-185.072941a26.352941 26.352941 0 0 0-52.525177-3.312941l-0.180706 3.312941v185.072941a585.276235 585.276235 0 0 0-265.246117 76.589177 26.352941 26.352941 0 0 0-7.800471 38.972235 376.109176 376.109176 0 0 1-78.215529-221.184l-0.120471-9.155764c0-101.285647 40.086588-196.306824 110.170353-266.63153a26.352941 26.352941 0 0 0-2.108235 34.334118l2.349176 2.710588 54.994824 54.964706a26.352941 26.352941 0 0 0 39.604706-34.575059l-2.349177-2.710588-54.994823-54.964706a26.352941 26.352941 0 0 0-34.544942-2.379294l-2.469647 2.108235 7.378824-7.168a376.470588 376.470588 0 0 1 259.704471-103.424zM220.852706 475.617882H150.588235a26.352941 26.352941 0 0 0-3.312941 52.495059l3.312941 0.210824h70.264471a26.352941 26.352941 0 0 0 0-52.705883z m632.470588 0H783.058824a26.352941 26.352941 0 0 0-3.312942 52.495059l3.312942 0.210824h70.26447a26.352941 26.352941 0 0 0 26.172235-23.070118l0.180706-3.312941a26.352941 26.352941 0 0 0-26.352941-26.322824z" fill="#568af2" /></svg>