<svg class="icon" style="width: 1em;height: 1em;vertical-align: middle;fill: currentColor;overflow: hidden;" viewBox="0 0 1024 1024" version="1.1" xmlns="http://www.w3.org/2000/svg" width="32" height="32"><path d="M484.382118 219.587765a26.352941 26.352941 0 1 1 0 52.705882h-210.82353a26.352941 26.352941 0 0 0-26.352941 26.352941V641.204706h509.470118l0.030117-96.587294c0-13.432471 10.059294-24.515765 23.04-26.142118l3.312942-0.210823c14.546824 0 26.352941 11.806118 26.352941 26.352941v96.617412h43.911529c14.576941 0 26.352941 11.806118 26.352941 26.352941v35.147294a131.764706 131.764706 0 0 1-131.764706 131.764706H256a131.764706 131.764706 0 0 1-131.764706-131.764706v-35.147294c0-14.546824 11.806118-26.352941 26.352941-26.352941h43.91153V298.646588a79.058824 79.058824 0 0 1 79.058823-79.058823h210.82353z m228.412235-35.117177a131.764706 131.764706 0 1 1 0 263.529412 131.764706 131.764706 0 0 1 0-263.529412zM633.735529 316.235294a79.058824 79.058824 0 0 0 113.121883 71.378824l-105.411765-105.441883a78.757647 78.757647 0 0 0-7.710118 34.063059z m79.058824-79.058823c-12.227765 0-23.792941 2.770824-34.093177 7.710117l105.411765 105.441883a79.058824 79.058824 0 0 0-71.378823-113.152z" fill="#568af2" /></svg>