<svg class="icon" style="width: 1em;height: 1em;vertical-align: middle;fill: currentColor;overflow: hidden;" viewBox="0 0 1024 1024" version="1.1" xmlns="http://www.w3.org/2000/svg" width="32" height="32"><path d="M893.500235 274.823529c14.546824 0 26.352941 11.806118 26.352941 26.352942v421.647058a26.352941 26.352941 0 0 1-26.352941 26.352942h-281.118117a26.352941 26.352941 0 0 1-18.612706-7.710118l-86.799059-86.799059-86.738824 86.799059a26.352941 26.352941 0 0 1-15.209411 7.469176l-3.46353 0.240942H120.470588A26.352941 26.352941 0 0 1 94.117647 722.823529V301.176471c0-14.546824 11.806118-26.352941 26.352941-26.352942h773.029647z m-579.764706 140.559059a96.617412 96.617412 0 1 0 0 193.234824 96.617412 96.617412 0 0 0 0-193.234824z m386.499765 0a96.617412 96.617412 0 1 0 0 193.234824 96.617412 96.617412 0 0 0 0-193.234824z m-386.499765 52.705883a43.911529 43.911529 0 1 1 0 87.823058 43.911529 43.911529 0 0 1 0-87.823058z m386.499765 0a43.911529 43.911529 0 1 1 0 87.823058 43.911529 43.911529 0 0 1 0-87.823058z" fill="#568af2" /></svg>