<svg class="icon" style="width: 1em;height: 1em;vertical-align: middle;fill: currentColor;overflow: hidden;" viewBox="0 0 1024 1024" version="1.1" xmlns="http://www.w3.org/2000/svg" width="32" height="32"><path d="M647.529412 229.647059c33.972706 0 61.500235 27.527529 61.500235 61.500235v562.176a61.500235 61.500235 0 0 1-61.500235 61.500235h-281.088a61.500235 61.500235 0 0 1-61.500236-61.500235V291.147294c0-33.972706 27.527529-61.500235 61.500236-61.500235H647.529412z m-140.559059 465.558588a43.911529 43.911529 0 1 0 0 87.853177 43.911529 43.911529 0 0 0 0-87.853177z m0-289.882353c-54.091294 0-96.617412 47.856941-96.617412 105.411765a26.352941 26.352941 0 1 0 52.705883 0c0-29.756235 20.389647-52.705882 43.911529-52.705883 23.521882 0 43.941647 22.949647 43.941647 52.705883s-20.419765 52.705882-43.941647 52.705882a26.352941 26.352941 0 0 0-26.352941 26.352941v52.705883c0 14.576941 11.806118 26.352941 26.352941 26.352941l3.312941-0.180706a26.352941 26.352941 0 0 0 23.04-26.172235v-30.328471l4.48753-1.445647c38.580706-14.095059 65.807059-53.910588 65.807058-99.990588 0-57.554824-42.526118-105.411765-96.647529-105.411765zM436.705882 220.852706V185.735529c0-19.425882 15.721412-35.147294 35.147294-35.147294H542.117647c19.395765 0 35.147294 15.721412 35.147294 35.147294v35.117177H436.705882z" fill="#568af2" /></svg>