<svg class="icon" style="width: 1em;height: 1em;vertical-align: middle;fill: currentColor;overflow: hidden;" viewBox="0 0 1024 1024" version="1.1" xmlns="http://www.w3.org/2000/svg" width="32" height="32"><path d="M378.970353 214.588235c14.576941 0 26.352941 11.806118 26.352941 26.352941v61.470118h68.216471l2.56-1.445647a270.938353 270.938353 0 0 1 120.560941-33.460706l10.721882-0.210823c46.531765 0 91.407059 11.745882 131.252706 33.671529l2.529882 1.445647h77.040942c13.432471 0 24.515765 10.059294 26.142117 23.070118l0.210824 3.312941-0.030118 76.980706 1.505883 2.56a270.938353 270.938353 0 0 1 33.430588 120.560941l0.210823 10.721882c0 46.531765-11.715765 91.407059-33.671529 131.252706l-1.475765 2.529883v77.040941a26.352941 26.352941 0 0 1-23.04 26.142117l-3.312941 0.210824-77.010824-0.030118-2.529882 1.505883a270.938353 270.938353 0 0 1-120.560941 33.430588l-10.691765 0.210823a271.209412 271.209412 0 0 1-131.282823-33.671529l-2.56-1.475765H150.588235a26.352941 26.352941 0 0 1-26.142117-23.04l-0.210824-3.312941v-421.647059c0-14.546824 11.806118-26.322824 26.352941-26.322823l43.91153-0.030118V240.941176c0-14.546824 11.806118-26.352941 26.352941-26.352941h158.117647z m333.824 298.676706a26.352941 26.352941 0 0 0-26.352941 26.352941 79.058824 79.058824 0 0 1-79.058824 79.058824 26.352941 26.352941 0 1 0 0 52.705882 131.764706 131.764706 0 0 0 131.764706-131.764706 26.352941 26.352941 0 0 0-26.352941-26.352941zM256 442.970353a26.352941 26.352941 0 0 0-26.142118 23.070118l-0.210823 3.312941v140.528941a26.352941 26.352941 0 0 0 52.495059 3.312941l0.210823-3.312941v-140.559059a26.352941 26.352941 0 0 0-26.352941-26.352941z m351.382588-35.117177a131.764706 131.764706 0 0 0-131.764706 131.764706 26.352941 26.352941 0 0 0 52.705883 0 79.058824 79.058824 0 0 1 79.058823-79.058823 26.352941 26.352941 0 0 0 0-52.705883z" fill="#568af2" /></svg>