<svg class="icon" style="width: 1em;height: 1em;vertical-align: middle;fill: currentColor;overflow: hidden;" viewBox="0 0 1024 1024" version="1.1" xmlns="http://www.w3.org/2000/svg" width="32" height="32"><path d="M555.670588 168.929882a26.352941 26.352941 0 0 1-11.806117 35.358118l-216.45553 108.182588H813.176471c33.972706 0 61.500235 27.527529 61.500235 61.500236v421.647058A61.500235 61.500235 0 0 1 813.176471 857.088H215.853176a61.500235 61.500235 0 0 1-61.500235-61.470118v-421.647058c0-31.563294 23.762824-57.554824 54.362353-61.078589l311.567059-155.76847a26.352941 26.352941 0 0 1 35.358118 11.806117z m-146.582588 301.658353a131.764706 131.764706 0 1 0 0 263.529412 131.764706 131.764706 0 0 0 0-263.529412z m316.235294 175.676236h-105.411765a26.352941 26.352941 0 0 0-3.312941 52.525176l3.312941 0.180706h105.411765a26.352941 26.352941 0 1 0 0-52.705882z m0-140.528942h-105.411765a26.352941 26.352941 0 0 0-3.312941 52.495059l3.312941 0.210824h105.411765a26.352941 26.352941 0 0 0 0-52.705883z" fill="#568af2" /></svg>