<svg class="icon" style="width: 1em;height: 1em;vertical-align: middle;fill: currentColor;overflow: hidden;" viewBox="0 0 1024 1024" version="1.1" xmlns="http://www.w3.org/2000/svg" width="32" height="32"><path d="M607.382588 244.705882a272.323765 272.323765 0 0 1 0 544.617412h-210.823529a272.323765 272.323765 0 1 1 0-544.617412h210.823529z m-228.412235 158.117647a26.352941 26.352941 0 0 0-26.352941 26.352942v175.676235a26.352941 26.352941 0 0 0 52.705882 0V429.176471a26.352941 26.352941 0 0 0-26.352941-26.352942zM695.205647 481.882353a35.147294 35.147294 0 1 0 0 70.264471 35.147294 35.147294 0 0 0 0-70.264471z m-70.264471-87.853177a35.147294 35.147294 0 1 0 0 70.294589 35.147294 35.147294 0 0 0 0-70.294589z" fill="#568af2" /></svg>