<svg class="icon" style="width: 1em;height: 1em;vertical-align: middle;fill: currentColor;overflow: hidden;" viewBox="0 0 1024 1024" version="1.1" xmlns="http://www.w3.org/2000/svg" width="32" height="32"><path d="M378.970353 816.941176a26.352941 26.352941 0 0 1 0-52.705882h96.617412V658.974118H190.012235v-0.150589h-4.276706a61.500235 61.500235 0 0 1-61.500235-61.500235V245.970824c0-33.972706 27.527529-61.500235 61.500235-61.500236h632.470589l1.807058 0.060236h1.204706l-0.030117 0.030117 1.596235 0.090353c31.804235 2.349176 56.922353 28.912941 56.922353 61.31953v351.35247c0 32.948706-25.931294 59.843765-58.488471 61.44v0.240941l-292.924235-0.030117v105.261176h96.647529a26.352941 26.352941 0 1 1 0 52.705882h-245.970823zM422.881882 237.327059h-52.705882v157.967059H185.735529a26.322824 26.322824 0 0 0-8.432941 1.355294v49.995294a26.202353 26.202353 0 0 0 5.12 1.14447l3.312941 0.210824h184.440471v158.177882h52.705882v-158.177882h158.117647v158.177882h52.705883v-158.177882h184.500706a26.352941 26.352941 0 0 0 7.649882-1.144471v-50.416941a26.202353 26.202353 0 0 0-4.367059-0.933647l-3.312941-0.210823h-184.470588V237.327059h-52.705883v157.967059h-158.117647V237.327059z" fill="#568af2" /></svg>