<svg class="icon" style="width: 1em;height: 1em;vertical-align: middle;fill: currentColor;overflow: hidden;" viewBox="0 0 1024 1024" version="1.1" xmlns="http://www.w3.org/2000/svg" width="32" height="32"><path d="M330.029176 762.970353a26.352941 26.352941 0 1 1-52.705882 0v-43.941647l-61.470118 0.030118a61.500235 61.500235 0 0 1-61.500235-61.500236V306.206118c0-33.972706 27.527529-61.500235 61.500235-61.500236H813.176471c33.972706 0 61.500235 27.527529 61.500235 61.500236v351.35247A61.500235 61.500235 0 0 1 813.176471 719.058824l-61.500236-0.030118v43.971765a26.352941 26.352941 0 1 1-52.705882 0v-43.971765h-87.853177v43.971765a26.352941 26.352941 0 0 1-52.705882 0v-43.971765h-87.823059v43.971765a26.352941 26.352941 0 1 1-52.705882 0v-43.971765h-87.853177v43.971765z m377.584942-254.584471h-386.409412a26.352941 26.352941 0 0 0-3.312941 52.495059l3.312941 0.210824h386.409412a26.352941 26.352941 0 1 0 0-52.705883z m-386.409412-114.447058a35.087059 35.087059 0 1 0 0 70.174117 35.087059 35.087059 0 0 0 0-70.174117z m193.355294 9.035294h-70.174118a26.352941 26.352941 0 0 0-3.312941 52.495058l3.312941 0.210824h70.174118a26.352941 26.352941 0 1 0 0-52.705882z" fill="#568af2" /></svg>