<svg class="icon" style="width: 1em;height: 1em;vertical-align: middle;fill: currentColor;overflow: hidden;" viewBox="0 0 1024 1024" version="1.1" xmlns="http://www.w3.org/2000/svg" width="32" height="32"><path d="M712.794353 184.470588c14.546824 0 26.352941 11.806118 26.352941 26.352941l-0.030118 324.99953h79.088942c33.942588 0 61.470118 27.557647 61.470117 61.500235v175.706353a61.500235 61.500235 0 0 1-61.470117 61.470118h-632.470589a61.500235 61.500235 0 0 1-61.500235-61.470118v-175.706353c0-33.942588 27.527529-61.470118 61.500235-61.470118l79.028706-0.030117V210.823529a26.352941 26.352941 0 1 1 52.705883 0v324.99953h368.941176V210.823529c0-14.546824 11.806118-26.352941 26.383059-26.352941z m-70.294588 465.558588a35.147294 35.147294 0 1 0 0 70.294589 35.147294 35.147294 0 0 0 0-70.294589z m-175.676236 8.794353h-140.559058a26.352941 26.352941 0 0 0-3.312942 52.495059l3.312942 0.210824H466.823529a26.352941 26.352941 0 1 0 0-52.705883z" fill="#568af2" /></svg>