<svg class="icon" style="width: 1em;height: 1em;vertical-align: middle;fill: currentColor;overflow: hidden;" viewBox="0 0 1024 1024" version="1.1" xmlns="http://www.w3.org/2000/svg" width="32" height="32"><path d="M818.206118 304.941176c33.942588 0 61.470118 27.527529 61.470117 61.500236v151.883294c0 23.04-12.8 44.032-32.286117 57.223529-25.750588 17.408-45.387294 42.767059-52.61553 77.552941-6.535529 31.472941-32.466824 55.928471-64.421647 55.928471H273.558588c-31.954824 0-57.856-24.455529-64.421647-55.928471-7.228235-34.785882-26.834824-60.144941-52.585412-77.552941-19.486118-13.191529-32.316235-34.183529-32.316235-57.223529v-151.883294c0-33.972706 27.527529-61.500235 61.500235-61.500236h632.470589zM677.647059 498.206118a26.352941 26.352941 0 0 0-26.352941 26.352941v26.322823h-70.294589v-26.322823a26.352941 26.352941 0 0 0-23.04-26.172235l-3.312941-0.180706a26.352941 26.352941 0 0 0-26.322823 26.352941l-0.030118 26.322823h-52.705882v-26.322823a26.352941 26.352941 0 0 0-23.04-26.172235l-3.312941-0.180706a26.352941 26.352941 0 0 0-26.322824 26.352941l-0.030118 26.322823h-70.26447v-26.322823a26.352941 26.352941 0 0 0-23.04-26.172235l-3.312941-0.180706a26.352941 26.352941 0 0 0-26.352942 26.352941v52.705882c0 14.546824 11.806118 26.352941 26.352942 26.352941H677.647059l3.312941-0.210823a26.352941 26.352941 0 0 0 23.04-26.142118v-52.705882a26.352941 26.352941 0 0 0-26.352941-26.352941z m-368.941177-87.853177H273.558588a26.352941 26.352941 0 1 0 0 52.705883h35.147294a26.352941 26.352941 0 1 0 0-52.705883z m140.559059 0H414.117647a26.352941 26.352941 0 1 0 0 52.705883h35.147294a26.352941 26.352941 0 0 0 0-52.705883z m140.528941 0h-35.117176a26.352941 26.352941 0 1 0 0 52.705883h35.117176a26.352941 26.352941 0 1 0 0-52.705883z m140.559059 0h-35.147294a26.352941 26.352941 0 0 0 0 52.705883h35.147294a26.352941 26.352941 0 1 0 0-52.705883z" fill="#568af2" /></svg>