<svg class="icon" style="width: 1em;height: 1em;vertical-align: middle;fill: currentColor;overflow: hidden;" viewBox="0 0 1024 1024" version="1.1" xmlns="http://www.w3.org/2000/svg" width="32" height="32"><path d="M221.665882 435.380706L682.164706 742.339765l161.430588-96.798118a26.352941 26.352941 0 0 1 34.243765 6.324706l1.897412 2.710588a26.352941 26.352941 0 0 1-9.035295 36.141177l-166.159058 99.689411c-14.546824 8.734118-32.828235 8.312471-46.98353-1.114353l-264.794353-176.519529-58.337882 87.552a26.352941 26.352941 0 0 1-21.925647 11.745882l-96.617412-0.030117v131.764706a26.352941 26.352941 0 1 1-52.705882 0v-281.088a26.352941 26.352941 0 1 1 52.705882 0v96.617411h82.492235l50.537412-75.806117-156.431059-104.297412a26.352941 26.352941 0 0 1 29.214118-43.851294z m151.642353-273.859765l475.467294 311.536941c26.684235 17.468235 26.413176 56.681412-0.481882 73.788236l-160.647529 102.249411a43.911529 43.911529 0 0 1-47.947294-0.512l-445.891765-297.261176a43.911529 43.911529 0 0 1-4.818824-69.391059l131.072-116.495059a43.911529 43.911529 0 0 1 53.248-3.915294z" fill="#568af2" /></svg>