<svg class="icon" style="width: 1em;height: 1em;vertical-align: middle;fill: currentColor;overflow: hidden;" viewBox="0 0 1024 1024" version="1.1" xmlns="http://www.w3.org/2000/svg" width="32" height="32"><path d="M255.939765 869.647059A131.764706 131.764706 0 0 1 176.911059 632.470588l0.030117-215.311059a127.277176 127.277176 0 0 1 127.277177-127.277176c5.662118 0 11.294118 0.180706 16.865882 0.542118a26.262588 26.262588 0 0 1 15.299765 1.445647 258.861176 258.861176 0 0 1 174.381176 100.592941V316.235294c0-73.185882 52.043294-131.764706 131.734589-131.764706 79.721412 0 131.764706 58.548706 131.764706 131.764706v395.294118h65.897411c13.281882 0 24.485647 9.908706 26.142118 23.070117l13.191529 105.411765a26.352941 26.352941 0 0 1-26.172235 29.635765h-210.823529a26.352941 26.352941 0 0 1-26.142118-29.635765l13.191529-105.411765a26.352941 26.352941 0 0 1 26.142118-23.070117h65.867294V316.235294c0-45.387294-29.906824-79.058824-79.058823-79.058823-49.091765 0-79.058824 33.671529-79.058824 79.058823v219.617882l-0.301176-0.030117c0.210824 4.397176 0.301176 8.824471 0.301176 13.251765v292.231529c0 15.661176-12.679529 28.340706-28.310588 28.340706h-279.190588z m96.707764-521.336471v299.971765a131.312941 131.312941 0 0 1 35.117177 89.6c0 29.665882-9.818353 57.042824-26.352941 79.088941l149.323294-0.030118v-267.836235a206.607059 206.607059 0 0 0-158.08753-200.82447z m-52.736-5.601882l4.306824-0.120471a74.571294 74.571294 0 0 0-74.571294 74.571294v191.608471a132.367059 132.367059 0 0 1 70.26447 4.848941v-270.908235z" fill="#568af2" /></svg>