<svg class="icon" style="width: 1em;height: 1em;vertical-align: middle;fill: currentColor;overflow: hidden;" viewBox="0 0 1024 1024" version="1.1" xmlns="http://www.w3.org/2000/svg" width="32" height="32"><path d="M592.323765 133.029647a26.352941 26.352941 0 0 1 0 52.705882h-43.941647V274.672941c60.747294 5.180235 116.434824 27.979294 161.91247 63.247059l39.062588-39.062588a26.352941 26.352941 0 1 1 37.285648 37.255529l-37.586824 37.586824a306.326588 306.326588 0 0 1 80.414118 207.329882c0 169.803294-137.637647 307.440941-307.440942 307.440941S214.588235 750.832941 214.588235 581.029647c0-160.918588 123.632941-292.984471 281.088-306.356706V185.735529H451.764706a26.352941 26.352941 0 1 1 0-52.705882h140.559059z m-70.294589 316.235294a26.352941 26.352941 0 0 0-26.142117 23.04l-0.210824 3.312941v79.028706h-79.058823a26.352941 26.352941 0 0 0-26.142118 23.070118l-0.210823 3.312941c0 13.432471 10.059294 24.515765 23.070117 26.142118l3.312941 0.210823h105.411765l3.312941-0.210823a26.352941 26.352941 0 0 0 22.829177-22.859294l0.180706-3.312942v-105.411764a26.352941 26.352941 0 0 0-26.352942-26.322824z" fill="#568af2" /></svg>