<svg class="icon" style="width: 1em;height: 1em;vertical-align: middle;fill: currentColor;overflow: hidden;" viewBox="0 0 1024 1024" version="1.1" xmlns="http://www.w3.org/2000/svg" width="32" height="32"><path d="M675.779765 184.470588a96.617412 96.617412 0 0 1 94.32847 75.565177l35.960471 161.219764 0.783059 0.39153a131.764706 131.764706 0 0 1 72.673882 111.375059l0.150588 6.475294v163.237647a79.058824 79.058824 0 0 1-79.058823 79.058823h-9.155765l-0.180706 2.108236a96.677647 96.677647 0 0 1-90.563765 85.594353l-5.481411 0.150588a96.677647 96.677647 0 0 1-96.045177-85.744941l-0.180706-2.108236h-194.108235l-0.180706 2.108236a96.647529 96.647529 0 0 1-90.533647 85.594353l-5.481412 0.150588a96.647529 96.647529 0 0 1-96.015058-85.744941l-0.180706-2.108236H203.294118A79.058824 79.058824 0 0 1 124.385882 707.764706l-0.150588-4.99953v-163.207529c0-49.935059 28.220235-95.563294 72.884706-117.880471l0.873412-0.451764 37.797647-162.032941a96.617412 96.617412 0 0 1 88.545882-74.541177l5.541647-0.150588h345.901177zM317.500235 579.764706a43.911529 43.911529 0 1 0 0 87.853176 43.911529 43.911529 0 0 0 0-87.853176z m368.941177 0a43.911529 43.911529 0 1 0 0 87.853176 43.911529 43.911529 0 0 0 0-87.853176z m-72.131765-272.323765h-224.707765c-27.105882 0-50.838588 17.769412-58.729411 43.279059l-1.295059 4.879059-29.033412 130.620235a26.352941 26.352941 0 0 0 22.407529 31.864471l3.312942 0.180706H677.647059c15.721412 0 27.708235-13.583059 26.23247-28.792471l-0.512-3.252706-29.033411-130.620235a61.500235 61.500235 0 0 0-60.024471-48.158118z m0 52.705883l2.017882 0.240941c3.222588 0.752941 5.812706 3.312941 6.565647 6.625882l21.865412 98.544941h-285.665882l21.925647-98.514823a8.794353 8.794353 0 0 1 8.583529-6.896941h224.707765z" fill="#568af2" /></svg>