<svg class="icon" style="width: 1em;height: 1em;vertical-align: middle;fill: currentColor;overflow: hidden;" viewBox="0 0 1024 1024" version="1.1" xmlns="http://www.w3.org/2000/svg" width="32" height="32"><path d="M316.235294 879.676235a26.352941 26.352941 0 1 1 0-52.705882h61.44L377.765647 783.058824a26.352941 26.352941 0 1 1 52.705882 0l-0.030117 43.911529h205.703529l171.550118-249.494588-311.597177-249.283765-86.678588 151.702588a26.352941 26.352941 0 0 1-41.502118 5.571765L192.150588 309.76a26.352941 26.352941 0 0 1 5.571765-41.502118l245.970823-140.559058a26.352941 26.352941 0 0 1 31.683765 4.246588l70.294588 70.294588c8.402824 8.402824 10.119529 21.383529 4.216471 31.683765l-27.407059 47.947294 337.257412 269.793882a26.352941 26.352941 0 0 1 5.240471 35.508706l-164.864 239.796706h72.884705a26.352941 26.352941 0 0 1 0 52.705882H316.235294z" fill="#568af2" /></svg>