<svg class="icon" style="width: 1em;height: 1em;vertical-align: middle;fill: currentColor;overflow: hidden;" viewBox="0 0 1024 1024" version="1.1" xmlns="http://www.w3.org/2000/svg" width="32" height="32"><path d="M786.763294 236.604235a131.764706 131.764706 0 0 1 0 186.337883L463.751529 745.953882a131.824941 131.824941 0 0 1-165.857882 16.77553L199.378824 861.274353A26.352941 26.352941 0 0 1 162.032941 824.018824l98.575059-98.575059a131.824941 131.824941 0 0 1 16.775529-165.827765L600.395294 236.604235a131.764706 131.764706 0 0 1 186.368 0zM372.856471 472.636235a26.352941 26.352941 0 0 0-2.349177 34.575059l2.349177 2.710588 140.559058 140.528942a26.352941 26.352941 0 0 0 39.634824-34.544942l-2.379294-2.710588-140.528941-140.559059a26.352941 26.352941 0 0 0-37.285647 0z m269.312-138.24a35.147294 35.147294 0 1 0 60.837647 35.147294 35.147294 35.147294 0 0 0-60.837647-35.117176z" fill="#568af2" /></svg>