<svg class="icon" style="width: 1em;height: 1em;vertical-align: middle;fill: currentColor;overflow: hidden;" viewBox="0 0 1024 1024" version="1.1" xmlns="http://www.w3.org/2000/svg" width="32" height="32"><path d="M692.705882 124.235294c33.972706 0 61.500235 27.527529 61.500236 61.500235v632.470589A61.500235 61.500235 0 0 1 692.705882 879.676235H306.206118a61.500235 61.500235 0 0 1-61.500236-61.470117v-632.470589c0-33.972706 27.527529-61.500235 61.500236-61.500235H692.705882z m-193.264941 456.794353a96.617412 96.617412 0 1 0 0 193.234824 96.617412 96.617412 0 0 0 0-193.234824z m0 52.705882a43.911529 43.911529 0 1 1 0 87.823059 43.911529 43.911529 0 0 1 0-87.823059z m17.588706-158.117647H481.882353a26.352941 26.352941 0 0 0-3.312941 52.495059l3.312941 0.210824h35.147294a26.352941 26.352941 0 0 0 0-52.705883z m87.823059-245.970823h-210.82353a26.352941 26.352941 0 0 0-26.142117 23.04l-0.210824 3.312941v140.559059c0 13.432471 10.059294 24.515765 23.070118 26.142117l3.312941 0.210824h210.82353a26.352941 26.352941 0 0 0 26.142117-23.070118l0.180706-3.312941V256a26.352941 26.352941 0 0 0-26.352941-26.352941z m-26.352941 52.705882v87.823059h-158.117647V282.352941h158.117647z" fill="#568af2" /></svg>