<svg class="icon" style="width: 1em;height: 1em;vertical-align: middle;fill: currentColor;overflow: hidden;" viewBox="0 0 1024 1024" version="1.1" xmlns="http://www.w3.org/2000/svg" width="32" height="32"><path d="M449.264941 219.617882a26.352941 26.352941 0 0 1 0 52.705883H273.558588a26.352941 26.352941 0 0 0-26.352941 26.352941v342.588235h509.470118l0.030117-96.647529c0-13.432471 10.059294-24.515765 23.04-26.142118l3.312942-0.210823c14.546824 0 26.352941 11.806118 26.352941 26.352941v96.617412h43.911529c14.576941 0 26.352941 11.806118 26.352941 26.383058v35.117177a131.764706 131.764706 0 0 1-131.764706 131.764706H256a131.764706 131.764706 0 0 1-131.764706-131.764706v-35.117177c0-14.576941 11.806118-26.352941 26.352941-26.352941l43.91153-0.030117V298.676706a79.058824 79.058824 0 0 1 79.058823-79.058824h175.706353z m245.940706-35.147294c14.576941 0 26.352941 11.806118 26.352941 26.352941l0.030118 48.429177c9.246118 3.282824 17.709176 8.222118 24.997647 14.45647l41.953882-24.214588a26.352941 26.352941 0 0 1 26.352941 45.628236l-41.923764 24.274823a79.510588 79.510588 0 0 1 0 28.852706l41.923764 24.214588a26.352941 26.352941 0 0 1-26.352941 45.658353l-41.984-24.214588a78.968471 78.968471 0 0 1-24.967529 14.45647v48.429177a26.352941 26.352941 0 0 1-52.705882 0v-48.429177a78.968471 78.968471 0 0 1-24.997648-14.45647l-41.984 24.214588a26.352941 26.352941 0 0 1-26.352941-45.658353l41.923765-24.18447a79.510588 79.510588 0 0 1 0-28.912942l-41.953882-24.244705a26.352941 26.352941 0 0 1 26.352941-45.628236l41.984 24.184471c7.318588-6.234353 15.751529-11.143529 24.997647-14.456471V210.823529c0-14.546824 11.806118-26.352941 26.352941-26.352941z" fill="#568af2" /></svg>