<svg class="icon" style="width: 1em;height: 1em;vertical-align: middle;fill: currentColor;overflow: hidden;" viewBox="0 0 1024 1024" version="1.1" xmlns="http://www.w3.org/2000/svg" width="32" height="32"><path d="M647.529412 229.647059c33.972706 0 61.500235 27.527529 61.500235 61.500235v562.176a61.500235 61.500235 0 0 1-61.500235 61.500235h-281.088a61.500235 61.500235 0 0 1-61.500236-61.500235V291.147294c0-33.972706 27.527529-61.500235 61.500236-61.500235H647.529412zM506.970353 677.647059a35.147294 35.147294 0 1 0 0 70.26447 35.147294 35.147294 0 0 0 0-70.26447z m0-272.323765a26.352941 26.352941 0 0 0-26.352941 26.352941v175.706353a26.352941 26.352941 0 0 0 52.705882 0v-175.706353a26.352941 26.352941 0 0 0-26.352941-26.352941zM436.705882 220.852706V185.735529c0-19.425882 15.721412-35.147294 35.147294-35.147294H542.117647c19.395765 0 35.147294 15.721412 35.147294 35.147294v35.117177H436.705882z" fill="#568af2" /></svg>