<svg class="icon" style="width: 1em;height: 1em;vertical-align: middle;fill: currentColor;overflow: hidden;" viewBox="0 0 1024 1024" version="1.1" xmlns="http://www.w3.org/2000/svg" width="32" height="32"><path d="M813.176471 184.470588c33.972706 0 61.500235 27.527529 61.500235 61.500236v421.647058a61.500235 61.500235 0 0 1-56.922353 61.31953l-4.577882 0.150588h-137.697883l39.393883 104.96a26.352941 26.352941 0 0 1-24.696471 35.599059H338.823529a26.352941 26.352941 0 0 1-24.69647-35.599059l39.363765-104.96h-137.637648a61.500235 61.500235 0 0 1-61.500235-61.470118v-421.647058c0-33.972706 27.527529-61.500235 61.500235-61.500236H813.176471z m-193.957647 544.617412h-209.438118l-32.948706 87.823059h275.335529l-32.948705-87.823059z m-104.719059-149.323294a35.147294 35.147294 0 1 0 0 70.26447 35.147294 35.147294 0 0 0 0-70.26447zM813.176471 237.176471H215.853176a8.794353 8.794353 0 0 0-8.794352 8.794353v255.367529a62.042353 62.042353 0 0 1 8.794352-0.632471H813.176471c3.011765 0 5.903059 0.210824 8.794353 0.602353V246.000941A8.794353 8.794353 0 0 0 813.176471 237.176471z m-212.570353 93.123764c11.625412 8.734118 14.004706 25.238588 5.270588 36.894118l-52.705882 70.264471a26.352941 26.352941 0 0 1-42.164706-31.62353l52.705882-70.26447a26.352941 26.352941 0 0 1 36.894118-5.270589z m-104.779294-34.635294a26.352941 26.352941 0 0 1 4.126117 37.044706l-70.26447 87.823059A26.352941 26.352941 0 1 1 388.517647 387.614118l70.264471-87.853177a26.352941 26.352941 0 0 1 37.044706-4.096z" fill="#568af2" /></svg>