<svg class="icon" style="width: 1em;height: 1em;vertical-align: middle;fill: currentColor;overflow: hidden;" viewBox="0 0 1024 1024" version="1.1" xmlns="http://www.w3.org/2000/svg" width="32" height="32"><path d="M519.529412 219.617882a26.352941 26.352941 0 1 1 0 52.705883H273.558588a26.352941 26.352941 0 0 0-26.352941 26.352941v342.588235h509.470118l0.030117-131.764706c0-13.432471 10.059294-24.545882 23.04-26.172235l3.312942-0.180706c14.546824 0 26.352941 11.776 26.352941 26.352941v131.734589h43.911529c14.576941 0 26.352941 11.806118 26.352941 26.383058v35.117177a131.764706 131.764706 0 0 1-131.764706 131.764706H256a131.764706 131.764706 0 0 1-131.764706-131.764706v-35.117177c0-14.576941 11.806118-26.352941 26.352941-26.352941l43.91153-0.030117V298.676706a79.058824 79.058824 0 0 1 79.058823-79.058824h245.970824z m210.823529-35.147294a26.232471 26.232471 0 0 1 18.642824 7.710118l87.823059 87.853176a26.352941 26.352941 0 1 1-37.25553 37.25553l-42.857412-42.827294V421.647059a26.352941 26.352941 0 1 1-52.705882 0V274.401882l-42.857412 42.88753a26.352941 26.352941 0 0 1-34.575059 2.379294l-2.710588-2.379294a26.352941 26.352941 0 0 1 0-37.25553l87.853177-87.853176 0.271058-0.240941a26.503529 26.503529 0 0 1 1.716706-1.505883l-1.987764 1.746824a26.533647 26.533647 0 0 1 18.432-7.710118h0.210823z" fill="#568af2" /></svg>