<svg class="icon" style="width: 1em;height: 1em;vertical-align: middle;fill: currentColor;overflow: hidden;" viewBox="0 0 1024 1024" version="1.1" xmlns="http://www.w3.org/2000/svg" width="32" height="32"><path d="M638.373647 184.470588c20.961882 0 41.080471 8.342588 55.898353 23.160471l67.764706 67.764706 84.449882 84.449882c14.817882 14.817882 23.160471 34.936471 23.160471 55.898353V790.588235a79.058824 79.058824 0 0 1-79.058824 79.058824H263.529412a79.058824 79.058824 0 0 1-79.058824-79.058824V263.529412A79.058824 79.058824 0 0 1 263.529412 184.470588h374.844235z m11.655529 351.382588h-245.940705a79.058824 79.058824 0 0 0-78.908236 74.059295l-0.150588 4.999529-0.030118 202.24h404.088471v-202.24a79.058824 79.058824 0 0 0-79.058824-79.058824z m0 52.705883l3.312942 0.180706a26.352941 26.352941 0 0 1 23.04 26.172235v202.029176h-298.646589v-202.029176c0-14.576941 11.776-26.352941 26.352942-26.352941h245.940705z m-272.323764-351.171765h-52.705883v96.406588a79.058824 79.058824 0 0 0 74.089412 78.908236l4.99953 0.150588h210.823529a26.352941 26.352941 0 0 0 3.312941-52.495059l-3.312941-0.210823h-210.823529a26.352941 26.352941 0 0 1-26.172236-23.04l-0.180706-3.312942-0.030117-96.406588z" fill="#568af2" /></svg>