<svg class="icon" style="width: 1em;height: 1em;vertical-align: middle;fill: currentColor;overflow: hidden;" viewBox="0 0 1024 1024" version="1.1" xmlns="http://www.w3.org/2000/svg" width="32" height="32"><path d="M642.499765 154.352941c14.576941 0 26.352941 11.806118 26.352941 26.352941v114.176h149.353412c33.942588 0 61.470118 27.557647 61.470117 61.500236v281.118117a61.500235 61.500235 0 0 1-61.470117 61.470118h-149.353412v149.353412a26.352941 26.352941 0 0 1-26.352941 26.352941H361.411765a26.352941 26.352941 0 0 1-26.352941-26.352941l-0.030118-149.353412H185.735529a61.500235 61.500235 0 0 1-61.500235-61.470118v-281.118117c0-33.942588 27.527529-61.470118 61.500235-61.470118l149.293177-0.030118L335.058824 180.705882c0-14.546824 11.806118-26.352941 26.352941-26.352941h281.088z m-105.411765 527.058824H466.823529a26.352941 26.352941 0 0 0-3.312941 52.495059l3.312941 0.210823h70.264471a26.352941 26.352941 0 1 0 0-52.705882z m202.059294-254.735059a26.352941 26.352941 0 0 1-26.352941 26.352941h-421.647059a26.352941 26.352941 0 0 1-26.352941-26.352941L264.734118 347.557647H185.735529a8.794353 8.794353 0 0 0-8.794353 8.794353v281.118118c0 4.818824 3.915294 8.764235 8.794353 8.764235h149.293177L335.058824 602.352941c0-3.072 0.542118-6.023529 1.505882-8.794353h-27.858824a26.352941 26.352941 0 1 1 0-52.705882h386.499765a26.352941 26.352941 0 0 1 0 52.705882h-27.858823c0.993882 2.740706 1.505882 5.722353 1.505882 8.794353v43.91153h149.353412c4.818824 0 8.764235-3.915294 8.764235-8.764236v-281.118117a8.794353 8.794353 0 0 0-8.764235-8.764236l-79.088942-0.030117v79.088941z" fill="#568af2" /></svg>