<svg class="icon" style="width: 1em;height: 1em;vertical-align: middle;fill: currentColor;overflow: hidden;" viewBox="0 0 1024 1024" version="1.1" xmlns="http://www.w3.org/2000/svg" width="32" height="32"><path d="M514.499765 154.352941c198.927059 0 360.176941 161.249882 360.176941 360.146824 0 198.927059-161.249882 360.176941-360.176941 360.176941-198.896941 0-360.146824-161.249882-360.146824-360.176941 0-198.896941 161.249882-360.146824 360.146824-360.146824z m118.543059 251.813647h-237.056a118.753882 118.753882 0 0 0-6.113883 237.357177l6.113883 0.150588h237.056a118.753882 118.753882 0 0 0 0-237.507765z m4.547764 61.861647a61.44 61.44 0 1 1 0 122.88 61.44 61.44 0 0 1 0-122.88z" fill="#568af2" /></svg>