<svg class="icon" style="width: 1em;height: 1em;vertical-align: middle;fill: currentColor;overflow: hidden;" viewBox="0 0 1024 1024" version="1.1" xmlns="http://www.w3.org/2000/svg" width="32" height="32"><path d="M765.861647 154.352941c12.468706 0 23.250824 8.764235 25.780706 20.992l87.491765 421.647059a26.352941 26.352941 0 0 0-25.810824-20.961882H150.588235a26.352941 26.352941 0 0 0-25.780706 20.901647l754.326589 0.060235a26.473412 26.473412 0 0 1 0.542117 5.391059v228.382117a26.352941 26.352941 0 0 1-26.352941 26.352942H150.588235a26.352941 26.352941 0 0 1-26.352941-26.352942V602.352941c0-1.867294 0.180706-3.704471 0.572235-5.451294l88.515765-421.647059a26.352941 26.352941 0 0 1 25.780706-20.931764h526.757647z m-61.861647 518.294588a43.911529 43.911529 0 1 0 0 87.853177 43.911529 43.911529 0 0 0 0-87.853177z" fill="#568af2" /></svg>