<svg class="icon" style="width: 1em;height: 1em;vertical-align: middle;fill: currentColor;overflow: hidden;" viewBox="0 0 1024 1024" version="1.1" xmlns="http://www.w3.org/2000/svg" width="32" height="32"><path d="M783.058824 184.470588c14.546824 0 26.352941 11.806118 26.352941 26.352941v347.437177l69.12 224.587294a26.352941 26.352941 0 0 1-25.208471 34.093176h-245.458823a27.407059 27.407059 0 0 1-0.481883 0h-210.823529l-0.512-0.030117-245.458824 0.030117a26.352941 26.352941 0 0 1-25.178353-34.093176l69.059765-224.587294L194.499765 210.823529c0-14.546824 11.806118-26.352941 26.352941-26.352941H783.058824z m-19.486118 404.058353H240.338824l-54.061177 175.706353 190.976-0.030118 27.587765-86.979764a26.352941 26.352941 0 0 1 25.118117-18.401883h144.052706c11.504941 0 21.684706 7.439059 25.148236 18.371765l27.527529 87.009882h191.006118l-54.091294-175.676235z" fill="#568af2" /></svg>