<svg class="icon" style="width: 1em;height: 1em;vertical-align: middle;fill: currentColor;overflow: hidden;" viewBox="0 0 1024 1024" version="1.1" xmlns="http://www.w3.org/2000/svg" width="32" height="32"><path d="M409.088 184.470588c14.576941 0 26.352941 11.806118 26.352941 26.352941v272.293647h52.705883V368.941176a79.058824 79.058824 0 0 1 79.058823-79.058823h228.412235a79.058824 79.058824 0 0 1 79.058824 79.058823v281.088a79.058824 79.058824 0 0 1-79.058824 79.058824h-228.412235a79.058824 79.058824 0 0 1-79.058823-79.058824v-114.206117h-52.705883v272.323765a26.352941 26.352941 0 0 1-26.352941 26.352941H180.705882a26.352941 26.352941 0 0 1-26.352941-26.352941V210.823529c0-14.546824 11.806118-26.352941 26.352941-26.352941h228.382118z m-26.352941 52.705883H207.058824v544.617411h175.676235V237.176471z m298.676706 193.264941a87.853176 87.853176 0 1 0 0 175.676235 87.853176 87.853176 0 0 0 0-175.676235z m0 52.705882a35.147294 35.147294 0 1 1 0 70.264471 35.147294 35.147294 0 0 1 0-70.264471zM294.912 351.382588a43.911529 43.911529 0 1 1 0 87.823059 43.911529 43.911529 0 0 1 0-87.823059z" fill="#568af2" /></svg>