<svg class="icon" style="width: 1em;height: 1em;vertical-align: middle;fill: currentColor;overflow: hidden;" viewBox="0 0 1024 1024" version="1.1" xmlns="http://www.w3.org/2000/svg" width="32" height="32"><path d="M677.647059 154.352941a61.500235 61.500235 0 1 1 0 122.970353l-2.921412-0.12047-54.994823 87.973647h110.622117c33.972706 0 61.500235 27.527529 61.500235 61.500235l-0.030117 61.470118h61.500235c14.576941 0 26.352941 11.806118 26.352941 26.352941v175.706353a26.352941 26.352941 0 0 1-26.352941 26.352941l-61.500235-0.030118V813.176471a61.500235 61.500235 0 0 1-61.470118 61.500235H273.558588A61.500235 61.500235 0 0 1 212.088471 813.176471l-0.030118-96.64753H150.588235a26.352941 26.352941 0 0 1-26.352941-26.322823v-175.706353c0-14.546824 11.806118-26.352941 26.352941-26.352941h61.470118v-61.470118c0-33.972706 27.557647-61.500235 61.500235-61.500235h110.592L329.185882 277.263059a61.500235 61.500235 0 1 1 46.592-24.907294l70.505412 112.820706h111.344941l70.505412-112.850824A61.500235 61.500235 0 0 1 677.647059 154.352941zM572.235294 488.146824h-140.559059a96.617412 96.617412 0 0 0-5.481411 193.114352l5.481411 0.150589H572.235294a96.617412 96.617412 0 0 0 0-193.264941z m254.735059 52.705882H791.792941v122.970353h35.147294v-122.970353z m-614.912 0H176.941176v122.970353h35.117177v-122.970353z m360.176941 0a43.911529 43.911529 0 0 1 4.216471 87.642353l-4.216471 0.210823h-140.559059a43.911529 43.911529 0 0 1-4.21647-87.642353l4.21647-0.210823H572.235294z m105.411765-333.793882a8.794353 8.794353 0 1 0 0 17.558588 8.794353 8.794353 0 0 0 0-17.558588z m-351.382588 0a8.794353 8.794353 0 1 0 0 17.558588 8.794353 8.794353 0 0 0 0-17.558588z" fill="#568af2" /></svg>