<svg class="icon" style="width: 1em;height: 1em;vertical-align: middle;fill: currentColor;overflow: hidden;" viewBox="0 0 1024 1024" version="1.1" xmlns="http://www.w3.org/2000/svg" width="32" height="32"><path d="M732.852706 154.352941c33.972706 0 61.500235 27.527529 61.500235 61.500235V813.176471a61.500235 61.500235 0 0 1-61.500235 61.500235H276.088471A61.500235 61.500235 0 0 1 214.588235 813.176471v-298.676706c0-14.546824 11.806118-26.352941 26.352941-26.352941h43.91153v-52.705883H240.941176a26.352941 26.352941 0 0 1-26.142117-23.04l-0.210824-3.312941v-87.823059c0-6.384941 2.319059-12.559059 6.505412-17.377882l112.489412-128.542118a61.500235 61.500235 0 0 1 46.290823-20.992h352.978824zM662.588235 259.764706a26.352941 26.352941 0 0 0-26.352941 26.352941v70.264471a26.352941 26.352941 0 1 0 52.705882 0V286.117647A26.352941 26.352941 0 0 0 662.588235 259.764706z m-210.823529 0a26.352941 26.352941 0 0 0-26.352941 26.352941v70.264471a26.352941 26.352941 0 1 0 52.705882 0V286.117647A26.352941 26.352941 0 0 0 451.764706 259.764706z m105.411765 0a26.352941 26.352941 0 0 0-26.352942 26.352941v70.264471a26.352941 26.352941 0 1 0 52.705883 0V286.117647a26.352941 26.352941 0 0 0-26.352941-26.352941z" fill="#568af2" /></svg>