<svg class="icon" style="width: 1em;height: 1em;vertical-align: middle;fill: currentColor;overflow: hidden;" viewBox="0 0 1024 1024" version="1.1" xmlns="http://www.w3.org/2000/svg" width="32" height="32"><path d="M747.911529 304.941176c33.972706 0 61.500235 27.527529 61.500236 61.500236V647.529412a61.500235 61.500235 0 0 1-61.500236 61.500235H185.735529A61.500235 61.500235 0 0 1 124.235294 647.529412v-281.088c0-33.972706 27.527529-61.500235 61.500235-61.500236h562.176zM308.705882 427.911529a26.352941 26.352941 0 0 0-26.352941 26.352942v105.411764a26.352941 26.352941 0 1 0 52.705883 0v-105.411764a26.352941 26.352941 0 0 0-26.352942-26.352942z m105.411765 0a26.352941 26.352941 0 0 0-26.352941 26.352942v105.411764a26.352941 26.352941 0 1 0 52.705882 0v-105.411764a26.352941 26.352941 0 0 0-26.352941-26.352942z m105.411765 0a26.352941 26.352941 0 0 0-26.352941 26.352942v105.411764a26.352941 26.352941 0 1 0 52.705882 0v-105.411764a26.352941 26.352941 0 0 0-26.352941-26.352942z m105.411764 52.705883a26.352941 26.352941 0 0 0-26.352941 26.352941v52.705882a26.352941 26.352941 0 1 0 52.705883 0v-52.705882a26.352941 26.352941 0 0 0-26.352942-26.352941z m193.264942-43.91153h35.117176c19.425882 0 35.147294 15.721412 35.147294 35.147294V542.117647c0 19.395765-15.721412 35.147294-35.147294 35.147294h-35.117176V436.705882z" fill="#568af2" /></svg>