<svg class="icon" style="width: 1em;height: 1em;vertical-align: middle;fill: currentColor;overflow: hidden;" viewBox="0 0 1024 1024" version="1.1" xmlns="http://www.w3.org/2000/svg" width="32" height="32"><path d="M602.352941 124.235294c33.972706 0 61.500235 27.527529 61.500235 61.500235L663.792941 580.969412h114.206118a96.617412 96.617412 0 1 1 0 193.264941h-114.206118v43.941647A61.500235 61.500235 0 0 1 602.352941 879.676235H215.853176a61.500235 61.500235 0 0 1-61.500235-61.470117v-632.470589c0-33.972706 27.527529-61.500235 61.500235-61.500235H602.352941z m0 52.705882H215.853176a8.794353 8.794353 0 0 0-8.794352 8.794353v632.470589c0 4.818824 3.915294 8.764235 8.794352 8.764235H602.352941c4.848941 0 8.794353-3.915294 8.794353-8.764235l-0.030118-43.941647H496.941176a96.617412 96.617412 0 1 1 0-193.234824l114.176-0.030118V185.735529A8.794353 8.794353 0 0 0 602.352941 176.941176zM286.117647 466.823529a35.147294 35.147294 0 1 1 0 70.264471 35.147294 35.147294 0 0 1 0-70.264471z m122.970353 0a35.147294 35.147294 0 1 1 0 70.264471 35.147294 35.147294 0 0 1 0-70.264471z m123.000471 0a35.147294 35.147294 0 1 1 0 70.264471 35.147294 35.147294 0 0 1 0-70.264471zM286.117647 361.411765a35.147294 35.147294 0 1 1 0 70.26447A35.147294 35.147294 0 0 1 286.117647 361.411765z m122.970353 0a35.147294 35.147294 0 1 1 0 70.26447 35.147294 35.147294 0 0 1 0-70.26447z m123.000471 0a35.147294 35.147294 0 1 1 0 70.26447 35.147294 35.147294 0 0 1 0-70.26447zM286.117647 256a35.147294 35.147294 0 1 1 0 70.264471 35.147294 35.147294 0 0 1 0-70.264471z m122.970353 0a35.147294 35.147294 0 1 1 0 70.264471 35.147294 35.147294 0 0 1 0-70.264471z m123.000471 0a35.147294 35.147294 0 1 1 0 70.264471 35.147294 35.147294 0 0 1 0-70.264471z" fill="#568af2" /></svg>