<svg class="icon" style="width: 1em;height: 1em;vertical-align: middle;fill: currentColor;overflow: hidden;" viewBox="0 0 1024 1024" version="1.1" xmlns="http://www.w3.org/2000/svg" width="32" height="32"><path d="M790.588235 184.470588a79.058824 79.058824 0 0 1 79.058824 79.058824v527.058823a79.058824 79.058824 0 0 1-79.058824 79.058824H263.529412a79.058824 79.058824 0 0 1-79.058824-79.058824V263.529412A79.058824 79.058824 0 0 1 263.529412 184.470588h527.058823z m-87.853176 158.117647H351.382588a26.352941 26.352941 0 0 0-26.172235 23.04l-0.180706 3.312941v210.82353c0 13.432471 10.029176 24.515765 23.04 26.142118l3.312941 0.210823h61.470118v79.058824c0 13.432471 10.059294 24.515765 23.070118 26.142117l3.312941 0.210824h175.676235a26.352941 26.352941 0 0 0 26.142118-23.04l0.210823-3.312941-0.030117-79.058824h61.500235a26.352941 26.352941 0 0 0 26.172235-23.04l0.180706-3.312941v-210.82353a26.352941 26.352941 0 0 0-26.352941-26.352941z m-114.206118 263.529412v52.705882h-122.970353v-52.705882h122.970353z m-140.528941-210.823529v43.911529a26.352941 26.352941 0 0 0 52.495059 3.312941l0.210823-3.312941v-43.911529h52.705883v43.911529c0 13.432471 10.059294 24.545882 23.04 26.172235l3.312941 0.180706a26.352941 26.352941 0 0 0 26.142118-23.04l0.210823-3.312941v-43.911529h70.264471v158.117647h-298.646589v-158.117647h70.264471z" fill="#568af2" /></svg>