<svg class="icon" style="width: 1em;height: 1em;vertical-align: middle;fill: currentColor;overflow: hidden;" viewBox="0 0 1024 1024" version="1.1" xmlns="http://www.w3.org/2000/svg" width="32" height="32"><path d="M727.853176 124.235294c33.942588 0 61.470118 27.527529 61.470118 61.500235v562.176a131.764706 131.764706 0 0 1-131.764706 131.764706H376.470588a131.764706 131.764706 0 0 1-131.764706-131.764706V185.735529c0-33.972706 27.527529-61.500235 61.500236-61.500235h421.647058z m-70.294588 588.559059a35.147294 35.147294 0 1 0 0 70.264471 35.147294 35.147294 0 0 0 0-70.264471z m70.294588-535.853177h-421.647058a8.794353 8.794353 0 0 0-8.794353 8.794353v456.764236a131.192471 131.192471 0 0 1 79.058823-26.352941h281.088c29.665882 0 57.072941 9.818353 79.088941 26.352941V185.735529a8.794353 8.794353 0 0 0-8.794353-8.794353z m-44.875294 121.133177l-52.705882 193.264941a26.352941 26.352941 0 0 1-25.419294 19.395765H429.176471a26.352941 26.352941 0 0 1-25.419295-19.395765l-52.705882-193.264941c-7.107765-26.081882 24.937412-44.694588 44.062118-25.6l51.621647 51.651765 51.651765-51.621647a26.352941 26.352941 0 0 1 34.575058-2.349177l2.710589 2.349177 51.621647 51.651764 51.651764-51.651764c19.094588-19.124706 51.169882-0.512 44.062118 25.569882z m-165.978353 30.328471l-51.621647 51.651764a26.352941 26.352941 0 0 1-37.255529 0l-0.120471-0.090353 21.293177 78.064941h135.439059l21.293176-78.095058a26.383059 26.383059 0 0 1-34.665412 2.469647l-2.710588-2.349177-51.651765-51.651764z" fill="#568af2" /></svg>