<svg class="icon" style="width: 1em;height: 1em;vertical-align: middle;fill: currentColor;overflow: hidden;" viewBox="0 0 1024 1024" version="1.1" xmlns="http://www.w3.org/2000/svg" width="32" height="32"><path d="M800.617412 343.853176a79.058824 79.058824 0 0 1 79.058823 79.058824v107.851294c0 14.817882-4.156235 29.334588-12.016941 41.893647l-64.331294 102.972235a79.058824 79.058824 0 0 1-67.041882 37.165177H267.655529a79.058824 79.058824 0 0 1-67.041882-37.165177l-64.361412-102.972235c-7.830588-12.559059-12.016941-27.075765-12.016941-41.863529v-107.881412a79.058824 79.058824 0 0 1 79.058824-79.058824h597.323294z m-43.941647 52.705883H247.205647v114.176c0 13.432471 10.059294 24.545882 23.070118 26.172235l3.312941 0.180706H730.352941a26.352941 26.352941 0 0 0 26.142118-23.04l0.210823-3.312941-0.030117-114.176z m-52.705883 0v87.823059h-35.117176v-8.764236a26.352941 26.352941 0 0 0-23.04-26.172235l-3.312941-0.180706a26.352941 26.352941 0 0 0-26.142118 23.04l-0.210823 3.312941v8.734118h-35.147295v-8.734118a26.352941 26.352941 0 0 0-23.04-26.172235l-3.312941-0.180706a26.352941 26.352941 0 0 0-26.142117 23.04l-0.180706 3.312941v8.734118h-52.705883v-8.734118a26.352941 26.352941 0 0 0-23.070117-26.172235l-3.312941-0.180706a26.352941 26.352941 0 0 0-26.142118 23.04l-0.180706 3.312941v8.734118h-35.177412l0.030118-8.734118a26.352941 26.352941 0 0 0-23.04-26.172235l-3.312941-0.180706a26.352941 26.352941 0 0 0-26.142118 23.04l-0.210823 3.312941v8.734118H299.881412v-87.792941h404.058353z" fill="#568af2" /></svg>