<svg class="icon" style="width: 1em;height: 1em;vertical-align: middle;fill: currentColor;overflow: hidden;" viewBox="0 0 1024 1024" version="1.1" xmlns="http://www.w3.org/2000/svg" width="32" height="32"><path d="M519.529412 219.617882a26.352941 26.352941 0 1 1 0 52.705883H273.558588a26.352941 26.352941 0 0 0-26.352941 26.352941v342.588235h509.470118l0.030117-114.206117c0-13.432471 10.059294-24.515765 23.04-26.142118l3.312942-0.210824c14.546824 0 26.352941 11.806118 26.352941 26.352942v114.176h43.911529c14.576941 0 26.352941 11.806118 26.352941 26.383058v35.117177a131.764706 131.764706 0 0 1-131.764706 131.764706H256a131.764706 131.764706 0 0 1-131.764706-131.764706v-35.117177c0-14.576941 11.806118-26.352941 26.352941-26.352941l43.91153-0.030117V298.676706a79.058824 79.058824 0 0 1 79.058823-79.058824h245.970824z m193.264941-35.147294c14.546824 0 26.352941 11.806118 26.352941 26.352941l-0.030118 147.154824 42.88753-42.797177a26.352941 26.352941 0 1 1 37.255529 37.25553l-87.853176 87.853176-0.421647 0.421647a26.503529 26.503529 0 0 1-1.566118 1.385412l1.987765-1.807059a26.563765 26.563765 0 0 1-18.612706 7.710118 26.383059 26.383059 0 0 1-6.625882-0.843294l-0.39153-0.090353a26.112 26.112 0 0 1-11.625412-6.776471l-87.853176-87.853176a26.352941 26.352941 0 1 1 37.285647-37.25553l42.827294 42.797177V210.823529c0-14.546824 11.806118-26.352941 26.383059-26.352941z" fill="#568af2" /></svg>