<svg class="icon" style="width: 1em;height: 1em;vertical-align: middle;fill: currentColor;overflow: hidden;" viewBox="0 0 1024 1024" version="1.1" xmlns="http://www.w3.org/2000/svg" width="32" height="32"><path d="M790.588235 184.470588a79.058824 79.058824 0 0 1 79.058824 79.058824v527.058823a79.058824 79.058824 0 0 1-79.058824 79.058824H263.529412a79.058824 79.058824 0 0 1-79.058824-79.058824V263.529412A79.058824 79.058824 0 0 1 263.529412 184.470588h527.058823z m-175.676235 175.676236a26.352941 26.352941 0 0 0-26.352941 26.352941l-0.030118 26.352941h-122.970353v-26.352941a26.352941 26.352941 0 0 0-23.04-26.142118l-3.312941-0.210823a26.352941 26.352941 0 0 0-26.352941 26.352941v26.352941h-26.352941a26.352941 26.352941 0 0 0-26.142118 23.070118l-0.210823 3.312941c0 14.546824 11.806118 26.322824 26.352941 26.322823h26.352941v122.970353h-26.352941a26.352941 26.352941 0 0 0-26.142118 23.070118l-0.210823 3.312941c0 14.546824 11.806118 26.352941 26.352941 26.352941l26.352941-0.030117v26.383058c0 13.432471 10.059294 24.515765 23.070118 26.142118l3.312941 0.210824a26.352941 26.352941 0 0 0 26.322823-26.352942v-26.383058h122.970353v26.383058c0 13.432471 10.059294 24.515765 23.070118 26.142118l3.312941 0.210824a26.352941 26.352941 0 0 0 26.352941-26.352942l-0.030117-26.383058h26.383058a26.352941 26.352941 0 0 0 26.142118-23.04l0.210824-3.312942a26.352941 26.352941 0 0 0-26.352942-26.322823l-26.383058-0.030118v-122.970353h26.383058a26.352941 26.352941 0 0 0 26.142118-23.04l0.210824-3.312941a26.352941 26.352941 0 0 0-26.352942-26.352941h-26.383058v-26.352941a26.352941 26.352941 0 0 0-23.04-26.142118z m-26.383059 105.411764v122.970353h-122.970353v-122.970353h122.970353z" fill="#568af2" /></svg>