<svg class="icon" style="width: 1em;height: 1em;vertical-align: middle;fill: currentColor;overflow: hidden;" viewBox="0 0 1024 1024" version="1.1" xmlns="http://www.w3.org/2000/svg" width="32" height="32"><path d="M647.529412 229.647059c33.972706 0 61.500235 27.527529 61.500235 61.500235v562.176a61.500235 61.500235 0 0 1-61.500235 61.500235h-281.088a61.500235 61.500235 0 0 1-61.500236-61.500235V291.147294c0-33.972706 27.527529-61.500235 61.500236-61.500235H647.529412z m-111.194353 178.477176a26.352941 26.352941 0 0 0-35.358118 11.776l-87.853176 175.676236-1.234824 2.891294a26.352941 26.352941 0 0 0 31.201883 34.484706l84.961882-21.293177-62.223059 124.476235a26.352941 26.352941 0 1 0 47.164235 23.582118l87.823059-175.706353 1.264941-2.891294a26.352941 26.352941 0 0 0-31.232-34.454588l-84.961882 21.232941 62.223059-124.416a26.352941 26.352941 0 0 0-11.776-35.358118zM436.705882 220.852706V185.735529c0-19.425882 15.721412-35.147294 35.147294-35.147294H542.117647c19.395765 0 35.147294 15.721412 35.147294 35.147294v35.117177H436.705882z" fill="#568af2" /></svg>