<svg class="icon" style="width: 1em;height: 1em;vertical-align: middle;fill: currentColor;overflow: hidden;" viewBox="0 0 1024 1024" version="1.1" xmlns="http://www.w3.org/2000/svg" width="32" height="32"><path d="M520.944941 190.253176l263.529412 210.82353a26.352941 26.352941 0 0 1 9.878588 20.570353v421.647059a26.352941 26.352941 0 0 1-26.352941 26.352941H240.941176A26.352941 26.352941 0 0 1 214.588235 843.294118V421.647059c0-8.011294 3.614118-15.570824 9.878589-20.570353l263.529411-210.82353a26.352941 26.352941 0 0 1 32.948706 0z m-16.474353 275.305412a26.352941 26.352941 0 0 0-26.352941 26.352941v210.82353a26.352941 26.352941 0 1 0 52.705882 0v-210.82353a26.352941 26.352941 0 0 0-26.352941-26.352941z m122.970353 70.294588a26.352941 26.352941 0 0 0-26.352941 26.352942V632.470588a26.352941 26.352941 0 0 0 52.705882 0v-70.26447a26.352941 26.352941 0 0 0-26.352941-26.352942z m-245.940706 0a26.352941 26.352941 0 0 0-26.352941 26.352942V632.470588a26.352941 26.352941 0 1 0 52.705882 0v-70.26447a26.352941 26.352941 0 0 0-26.352941-26.352942z" fill="#568af2" /></svg>