<svg class="icon" style="width: 1em;height: 1em;vertical-align: middle;fill: currentColor;overflow: hidden;" viewBox="0 0 1024 1024" version="1.1" xmlns="http://www.w3.org/2000/svg" width="32" height="32"><path d="M627.440941 124.235294c14.576941 0 26.352941 11.806118 26.352941 26.352941v61.470118H768c12.288 0 22.949647 8.523294 25.690353 20.48l35.147294 153.750588a26.352941 26.352941 0 0 1-1.505882 16.293647l-122.970353 285.515294a26.352941 26.352941 0 0 1-24.214588 15.902118h-131.764706v122.970353h228.382117v-103.092706c0-13.432471 10.059294-24.515765 23.070118-26.142118l3.312941-0.210823c14.546824 0 26.352941 11.806118 26.352941 26.352941v129.445647a26.352941 26.352941 0 0 1-26.352941 26.352941h-281.118118a26.352941 26.352941 0 0 1-26.352941-26.352941v-149.323294h-131.764706a26.352941 26.352941 0 0 1-24.18447-15.932235l-123.000471-285.485177a26.352941 26.352941 0 0 1-1.475764-16.293647l35.147294-153.72047a26.352941 26.352941 0 0 1 25.690353-20.48l114.176-0.030118V150.588235a26.352941 26.352941 0 0 1 52.705882 0v61.470118h158.117647V150.588235c0-14.546824 11.806118-26.352941 26.352941-26.352941z m0 298.676706h-210.823529a26.352941 26.352941 0 0 0-3.312941 52.495059l3.312941 0.210823h210.823529a26.352941 26.352941 0 0 0 0-52.705882z" fill="#568af2" /></svg>