<svg class="icon" style="width: 1em;height: 1em;vertical-align: middle;fill: currentColor;overflow: hidden;" viewBox="0 0 1024 1024" version="1.1" xmlns="http://www.w3.org/2000/svg" width="32" height="32"><path d="M818.206118 244.705882c33.942588 0 61.470118 27.527529 61.470117 61.500236v351.35247a61.500235 61.500235 0 0 1-61.470117 61.500236h-114.206118V798.117647a26.352941 26.352941 0 1 1-52.705882 0v-79.058823h-298.676706V798.117647a26.352941 26.352941 0 1 1-52.705883 0v-79.058823H185.735529a61.500235 61.500235 0 0 1-61.500235-61.500236V306.206118c0-33.972706 27.527529-61.500235 61.500235-61.500236h632.470589z m-193.264942 122.970353a114.206118 114.206118 0 1 0 0 228.412236 114.206118 114.206118 0 0 0 0-228.412236zM361.411765 508.235294H291.147294a26.352941 26.352941 0 0 0-3.312941 52.495059l3.312941 0.210823H361.411765a26.352941 26.352941 0 1 0 0-52.705882z m263.529411-87.853176a61.500235 61.500235 0 1 1 0 123.00047 61.500235 61.500235 0 0 1 0-123.00047z m-228.382117-17.558589h-105.411765a26.352941 26.352941 0 0 0-3.312941 52.495059l3.312941 0.210824h105.411765a26.352941 26.352941 0 0 0 0-52.705883z" fill="#568af2" /></svg>