<svg class="icon" style="width: 1em;height: 1em;vertical-align: middle;fill: currentColor;overflow: hidden;" viewBox="0 0 1024 1024" version="1.1" xmlns="http://www.w3.org/2000/svg" width="32" height="32"><path d="M738.123294 173.477647a26.352941 26.352941 0 0 1-18.100706 32.557177l-310.964706 88.847058h444.265412c14.576941 0 26.352941 11.806118 26.352941 26.383059V813.176471a26.352941 26.352941 0 0 1-26.352941 26.352941h-43.911529v43.911529a26.352941 26.352941 0 1 1-52.705883 0v-43.911529H247.205647v43.911529a26.352941 26.352941 0 1 1-52.705882 0v-43.911529H150.588235A26.352941 26.352941 0 0 1 124.235294 813.176471V321.264941c0-14.576941 11.806118-26.352941 26.352941-26.352941l66.590118-0.030118 488.357647-139.504941a26.352941 26.352941 0 0 1 32.587294 18.070588z m-113.182118 279.552a114.206118 114.206118 0 1 0 0 228.382118 114.206118 114.206118 0 0 0 0-228.382118z m-228.382117 158.117647h-105.411765a26.352941 26.352941 0 0 0-3.312941 52.495059l3.312941 0.210823h105.411765a26.352941 26.352941 0 0 0 0-52.705882z m228.382117-105.411765a61.500235 61.500235 0 1 1 0 122.970353 61.500235 61.500235 0 0 1 0-122.970353z m-228.382117-35.147294h-105.411765a26.352941 26.352941 0 0 0-3.312941 52.495059l3.312941 0.210824h105.411765a26.352941 26.352941 0 0 0 0-52.705883z" fill="#568af2" /></svg>