<svg class="icon" style="width: 1em;height: 1em;vertical-align: middle;fill: currentColor;overflow: hidden;" viewBox="0 0 1024 1024" version="1.1" xmlns="http://www.w3.org/2000/svg" width="32" height="32"><path d="M848.323765 154.352941c14.546824 0 26.352941 11.806118 26.352941 26.352941v667.617883a26.352941 26.352941 0 0 1-26.352941 26.352941H180.705882a26.352941 26.352941 0 0 1-26.352941-26.352941V356.382118c0-14.546824 11.806118-26.352941 26.352941-26.352942h131.764706V180.705882c0-14.546824 11.806118-26.352941 26.352941-26.352941h509.500236z m-377.73553 228.382118h-263.529411v439.205647h263.529411V382.735059z m149.323294 333.824h-35.117176a26.352941 26.352941 0 0 0-3.312941 52.495059l3.312941 0.210823h35.117176a26.352941 26.352941 0 0 0 0-52.705882z m-263.529411 0a26.352941 26.352941 0 1 1 0 52.705882h-35.117177a26.352941 26.352941 0 0 1 0-52.705882h35.117177z" fill="#568af2" /></svg>