<svg class="icon" style="width: 1em;height: 1em;vertical-align: middle;fill: currentColor;overflow: hidden;" viewBox="0 0 1024 1024" version="1.1" xmlns="http://www.w3.org/2000/svg" width="32" height="32"><path d="M848.323765 154.352941c14.546824 0 26.352941 11.806118 26.352941 26.352941v667.617883a26.352941 26.352941 0 0 1-26.352941 26.352941H180.705882a26.352941 26.352941 0 0 1-26.352941-26.352941V496.941176c0-14.546824 11.806118-26.352941 26.352941-26.352941h289.882353V180.705882c0-13.432471 10.059294-24.515765 23.04-26.142117l3.312941-0.210824h351.382589z m-175.706353 140.559059l-3.312941 0.180706a26.352941 26.352941 0 0 0-23.04 26.172235v324.969412l-261.421177 0.030118 25.298824-25.298824a26.352941 26.352941 0 0 0 2.379294-34.544941l-2.349177-2.710588a26.352941 26.352941 0 0 0-37.285647 0l-70.26447 70.294588a26.834824 26.834824 0 0 0-5.872942 8.914823 26.262588 26.262588 0 0 0 3.192471 25.208471l0.301177 0.421647 0.63247 0.783059a26.503529 26.503529 0 0 0 1.114353 1.264941l0.602353 0.662588 70.294588 70.264471a26.352941 26.352941 0 0 0 37.285647 0l2.349177-2.710588a26.352941 26.352941 0 0 0-2.349177-34.544942l-25.298823-25.298823h287.744a26.352941 26.352941 0 0 0 26.172235-23.04l0.180706-3.312941V321.264941a26.352941 26.352941 0 0 0-26.352941-26.352941z" fill="#568af2" /></svg>