<svg class="icon" style="width: 1em;height: 1em;vertical-align: middle;fill: currentColor;overflow: hidden;" viewBox="0 0 1024 1024" version="1.1" xmlns="http://www.w3.org/2000/svg" width="32" height="32"><path d="M810.104471 584.944941c70.053647 72.523294 109.748706 167.484235 109.748705 268.378353a26.352941 26.352941 0 0 1-26.352941 26.352941H120.470588a26.352941 26.352941 0 0 1-26.352941-26.352941c0-100.894118 39.664941-195.855059 109.748706-268.378353a26.352941 26.352941 0 0 1 40.237176 2.800941 324.487529 324.487529 0 0 0 262.866824 133.812706c105.261176 0 202.059294-50.326588 262.896941-133.812706a26.352941 26.352941 0 0 1 40.237177-2.800941zM506.970353 124.235294a254.735059 254.735059 0 1 1 0 509.500235 254.735059 254.735059 0 0 1 0-509.500235z m0 140.559059a114.206118 114.206118 0 1 0 0 228.382118 114.206118 114.206118 0 0 0 0-228.382118z m0 52.705882a61.500235 61.500235 0 1 1 0 122.970353 61.500235 61.500235 0 0 1 0-122.970353z" fill="#568af2" /></svg>