<svg class="icon" style="width: 1em;height: 1em;vertical-align: middle;fill: currentColor;overflow: hidden;" viewBox="0 0 1024 1024" version="1.1" xmlns="http://www.w3.org/2000/svg" width="32" height="32"><path d="M727.853176 124.235294c33.942588 0 61.470118 27.527529 61.470118 61.500235v17.558589a26.352941 26.352941 0 1 1-52.705882 0v-17.558589a8.794353 8.794353 0 0 0-8.764236-8.794353h-421.647058a8.794353 8.794353 0 0 0-8.794353 8.794353v456.764236a131.192471 131.192471 0 0 1 79.058823-26.352941h281.088c29.665882 0 57.072941 9.818353 79.088941 26.352941v-26.352941a26.352941 26.352941 0 0 1 52.705883 0v131.764705a131.764706 131.764706 0 0 1-131.794824 131.764706H376.470588a131.764706 131.764706 0 0 1-131.764706-131.764706V185.735529c0-33.972706 27.527529-61.500235 61.500236-61.500235h421.647058z m-70.294588 588.559059a35.147294 35.147294 0 1 0 0 70.264471 35.147294 35.147294 0 0 0 0-70.264471zM534.588235 282.352941a26.352941 26.352941 0 1 1 0 52.705883h-17.558588a79.058824 79.058824 0 0 0 0 158.117647h17.558588a26.352941 26.352941 0 1 1 0 52.705882h-17.558588a131.764706 131.764706 0 0 1 0-263.529412h17.558588z m158.117647 0a131.764706 131.764706 0 0 1 0 263.529412h-17.558588a26.352941 26.352941 0 1 1 0-52.705882H692.705882a79.058824 79.058824 0 0 0 0-158.117647h-17.558588a26.352941 26.352941 0 1 1 0-52.705883H692.705882z m-17.558588 105.411765a26.352941 26.352941 0 0 1 0 52.705882H534.588235a26.352941 26.352941 0 1 1 0-52.705882h140.559059z" fill="#568af2" /></svg>