<svg class="icon" style="width: 1em;height: 1em;vertical-align: middle;fill: currentColor;overflow: hidden;" viewBox="0 0 1024 1024" version="1.1" xmlns="http://www.w3.org/2000/svg" width="32" height="32"><path d="M853.323294 184.470588c14.576941 0 26.352941 11.806118 26.352941 26.352941v527.058824a26.352941 26.352941 0 0 1-26.352941 26.352941h-240.790588l50.477176 62.494118a26.352941 26.352941 0 0 1-20.48 42.917647H361.411765a26.352941 26.352941 0 0 1-20.48-42.917647l50.447059-62.494118H150.588235a26.352941 26.352941 0 0 1-26.352941-26.352941V210.823529c0-14.546824 11.806118-26.352941 26.352941-26.352941h702.735059z m-308.555294 579.764706h-85.684706l-42.556235 52.705882h170.827294l-42.586353-52.705882z m282.202353-140.559059H176.941176v87.823059h650.029177v-87.823059zM310.302118 421.647059H271.962353a15.962353 15.962353 0 0 0-15.962353 15.962353v38.339764c0 8.824471 7.137882 15.962353 15.962353 15.962353h38.339765a15.962353 15.962353 0 0 0 15.962353-15.962353V437.609412a15.962353 15.962353 0 0 0-15.962353-15.962353z m140.559058 0h-38.339764a15.962353 15.962353 0 0 0-15.962353 15.962353v38.339764c0 8.824471 7.137882 15.962353 15.962353 15.962353h38.339764a15.962353 15.962353 0 0 0 15.962353-15.962353V437.609412a15.962353 15.962353 0 0 0-15.962353-15.962353z m140.528942 0h-38.309647a15.962353 15.962353 0 0 0-15.962353 15.962353v38.339764c0 8.824471 7.137882 15.962353 15.962353 15.962353h38.309647a15.962353 15.962353 0 0 0 15.962353-15.962353V437.609412a15.962353 15.962353 0 0 0-15.962353-15.962353z m-281.088-105.411765H271.962353a15.962353 15.962353 0 0 0-15.962353 15.962353v38.339765c0 8.824471 7.137882 15.962353 15.962353 15.962353h38.339765a15.962353 15.962353 0 0 0 15.962353-15.962353V332.197647a15.962353 15.962353 0 0 0-15.962353-15.962353z m140.559058 0h-38.339764a15.962353 15.962353 0 0 0-15.962353 15.962353v38.339765c0 8.824471 7.137882 15.962353 15.962353 15.962353h38.339764a15.962353 15.962353 0 0 0 15.962353-15.962353V332.197647a15.962353 15.962353 0 0 0-15.962353-15.962353z m140.528942 0h-38.309647a15.962353 15.962353 0 0 0-15.962353 15.962353v38.339765c0 8.824471 7.137882 15.962353 15.962353 15.962353h38.309647a15.962353 15.962353 0 0 0 15.962353-15.962353V332.197647a15.962353 15.962353 0 0 0-15.962353-15.962353z m140.559058 0H693.609412a15.962353 15.962353 0 0 0-15.962353 15.962353v38.339765c0 8.824471 7.137882 15.962353 15.962353 15.962353h38.339764a15.962353 15.962353 0 0 0 15.962353-15.962353V332.197647a15.962353 15.962353 0 0 0-15.962353-15.962353z" fill="#568af2" /></svg>