<svg class="icon" style="width: 1em;height: 1em;vertical-align: middle;fill: currentColor;overflow: hidden;" viewBox="0 0 1024 1024" version="1.1" xmlns="http://www.w3.org/2000/svg" width="32" height="32"><path d="M803.147294 124.235294c14.546824 0 26.352941 11.806118 26.352941 26.352941v702.735059a26.352941 26.352941 0 0 1-26.352941 26.352941H240.941176a26.352941 26.352941 0 0 1-26.352941-26.352941V291.147294c0-5.722353 1.837176-11.264 5.270589-15.811765l105.411764-140.559058a26.352941 26.352941 0 0 1 21.082353-10.541177h456.794353z m-439.235765 193.264941a26.352941 26.352941 0 0 0-26.352941 26.352941v105.411765a26.352941 26.352941 0 0 0 52.705883 0v-105.411765a26.352941 26.352941 0 0 0-26.352942-26.352941z m105.411765-52.705882a26.352941 26.352941 0 0 0-26.352941 26.352941v105.411765a26.352941 26.352941 0 0 0 52.705882 0v-105.411765a26.352941 26.352941 0 0 0-26.352941-26.352941z m210.82353 0a26.352941 26.352941 0 0 0-26.352942 26.352941v105.411765a26.352941 26.352941 0 0 0 52.705883 0v-105.411765a26.352941 26.352941 0 0 0-26.352941-26.352941z m-105.411765 0a26.352941 26.352941 0 0 0-26.352941 26.352941v105.411765a26.352941 26.352941 0 0 0 52.705882 0v-105.411765a26.352941 26.352941 0 0 0-26.352941-26.352941z" fill="#568af2" /></svg>