<svg class="icon" style="width: 1em;height: 1em;vertical-align: middle;fill: currentColor;overflow: hidden;" viewBox="0 0 1024 1024" version="1.1" xmlns="http://www.w3.org/2000/svg" width="32" height="32"><path d="M800.617412 124.235294a79.058824 79.058824 0 0 1 79.058823 79.058824v597.323294a79.058824 79.058824 0 0 1-79.058823 79.058823H203.294118a79.058824 79.058824 0 0 1-79.058824-79.058823V203.294118A79.058824 79.058824 0 0 1 203.294118 124.235294h597.323294zM291.147294 677.647059a35.147294 35.147294 0 1 0 0 70.26447 35.147294 35.147294 0 0 0 0-70.26447z m421.647059 0a35.147294 35.147294 0 1 0 0 70.26447 35.147294 35.147294 0 0 0 0-70.26447z m-210.823529-360.146824a184.470588 184.470588 0 1 0 0 368.941177 184.470588 184.470588 0 0 0 0-368.941177z m-210.82353-61.500235a35.147294 35.147294 0 1 0 0 70.264471 35.147294 35.147294 0 0 0 0-70.264471z m421.647059 0a35.147294 35.147294 0 1 0 0 70.264471 35.147294 35.147294 0 0 0 0-70.264471z" fill="#568af2" /></svg>