<svg class="icon" style="width: 1em;height: 1em;vertical-align: middle;fill: currentColor;overflow: hidden;" viewBox="0 0 1024 1024" version="1.1" xmlns="http://www.w3.org/2000/svg" width="32" height="32"><path d="M524.920471 185.012706c204.348235 0 369.995294 165.647059 369.995294 370.025412 0 98.785882-33.129412 193.656471-92.882824 258.409411a25.810824 25.810824 0 0 1-18.974117 8.342589H266.752c-7.228235 0-14.095059-3.011765-18.974118-8.312471-59.723294-64.752941-92.882824-159.623529-92.882823-258.439529 0-204.378353 165.647059-370.025412 370.025412-370.025412z m0 223.713882a25.810824 25.810824 0 0 0-25.840942 25.840941v81.016471a94.689882 94.689882 0 0 0 25.840942 185.735529 94.659765 94.659765 0 0 0 25.810823-185.765647v-81.01647a25.810824 25.810824 0 0 0-25.810823-25.810824zM301.176471 546.424471H266.752a25.810824 25.810824 0 0 0 0 51.621647H301.176471a25.810824 25.810824 0 0 0 0-51.621647z m481.882353 0h-34.424471a25.810824 25.810824 0 0 0 0 51.621647H783.058824a25.810824 25.810824 0 0 0 0-51.621647zM353.852235 381.891765a25.810824 25.810824 0 1 0-36.502588 36.502588l24.335059 24.335059a25.810824 25.810824 0 1 0 36.502588-36.502588z m385.746824 0a25.810824 25.810824 0 0 0-36.502588 0l-24.335059 24.335059a25.810824 25.810824 0 0 0 36.502588 36.502588l24.335059-24.335059a25.810824 25.810824 0 0 0 0-36.532706zM524.920471 271.058824a25.810824 25.810824 0 0 0-25.840942 25.810823V331.294118a25.810824 25.810824 0 0 0 51.651765 0V296.869647A25.810824 25.810824 0 0 0 524.920471 271.058824z" fill="#568af2" /></svg>