<svg class="icon" style="width: 1em;height: 1em;vertical-align: middle;fill: currentColor;overflow: hidden;" viewBox="0 0 1024 1024" version="1.1" xmlns="http://www.w3.org/2000/svg" width="32" height="32"><path d="M747.911529 124.235294c14.576941 0 26.352941 11.806118 26.352942 26.352941v254.735059H229.647059v26.352941c0 13.432471 10.059294 24.545882 23.04 26.172236l3.312941 0.180705h491.911529a26.352941 26.352941 0 0 0 26.352942-26.352941v-26.352941h79.058823c14.576941 0 26.352941 11.806118 26.352941 26.352941v316.235294a26.352941 26.352941 0 0 1-26.352941 26.352942h-96.647529l0.030117 79.058823a26.352941 26.352941 0 0 1-26.352941 26.352941H273.558588a26.352941 26.352941 0 0 1-26.352941-26.352941v-79.058823h26.021647l3.312941-0.180706a26.352941 26.352941 0 0 0 23.04-26.172236l-0.030117-79.058823h404.751058v79.058823c0 14.576941 11.806118 26.352941 26.352942 26.352942h26.021647l0.030117-131.764706a26.352941 26.352941 0 0 0-23.04-26.142118l-3.312941-0.210823H273.558588a26.352941 26.352941 0 0 0-26.352941 26.352941v131.764706H150.588235a26.352941 26.352941 0 0 1-26.352941-26.352942v-316.235294c0-14.546824 11.806118-26.352941 26.352941-26.352941h79.058824V150.588235c0-14.546824 11.806118-26.352941 26.352941-26.352941h491.911529z" fill="#568af2" /></svg>