<svg class="icon" style="width: 1em;height: 1em;vertical-align: middle;fill: currentColor;overflow: hidden;" viewBox="0 0 1024 1024" version="1.1" xmlns="http://www.w3.org/2000/svg" width="32" height="32"><path d="M765.861647 154.352941c12.468706 0 23.250824 8.764235 25.780706 20.992l87.491765 421.647059 0.210823 1.084235a26.322824 26.322824 0 0 1 0.150588 1.174589l-0.361411-2.228706c0.361412 1.716706 0.542118 3.614118 0.572235 5.632v228.111058a26.352941 26.352941 0 0 1-26.383059 26.352942H150.588235a26.352941 26.352941 0 0 1-26.352941-26.352942v-202.059294h755.350588l0.090353-13.101176V602.352941a26.352941 26.352941 0 0 0-26.352941-26.322823H150.588235a26.352941 26.352941 0 0 0-26.352941 26.352941v26.322823H124.084706v-23.792941-1.596235l0.030118-1.807059c0.030118-1.505882 0.271059-3.041882 0.662588-4.547765l88.515764-421.647058a26.352941 26.352941 0 0 1 25.780706-20.961883h526.757647zM414.117647 277.353412a114.206118 114.206118 0 0 0 0 228.382117 26.352941 26.352941 0 1 0 0-52.705882 61.500235 61.500235 0 0 1 0-122.970353 26.352941 26.352941 0 1 0 0-52.705882z m175.676235 0a26.352941 26.352941 0 0 0 0 52.705882 61.500235 61.500235 0 0 1 0 122.970353 26.352941 26.352941 0 0 0 0 52.705882 114.206118 114.206118 0 0 0 0-228.382117zM572.235294 365.206588h-140.559059a26.352941 26.352941 0 0 0-3.312941 52.495059l3.312941 0.210824H572.235294a26.352941 26.352941 0 0 0 0-52.705883z" fill="#568af2" /></svg>