<svg class="icon" style="width: 1em;height: 1em;vertical-align: middle;fill: currentColor;overflow: hidden;" viewBox="0 0 1024 1024" version="1.1" xmlns="http://www.w3.org/2000/svg" width="32" height="32"><path d="M501.970824 124.235294c208.594824 0 377.705412 169.110588 377.705411 377.73553 0 208.594824-169.110588 377.705412-377.705411 377.705411-208.624941 0-377.735529-169.110588-377.73553-377.705411 0-208.624941 169.110588-377.735529 377.73553-377.73553z m-133.12 404.540235a26.352941 26.352941 0 0 0-49.995295 16.655059l35.117177 105.411765a26.352941 26.352941 0 0 0 49.995294-16.655059z m299.550117-16.685176a26.352941 26.352941 0 0 0-33.310117 16.685176l-35.147295 105.411765a26.352941 26.352941 0 0 0 49.995295 16.655059l35.147294-105.411765a26.352941 26.352941 0 0 0-16.685177-33.340235z m-166.430117-229.737412a26.352941 26.352941 0 0 0-26.352942 26.352941v105.411765a26.352941 26.352941 0 1 0 52.705883 0v-105.411765a26.352941 26.352941 0 0 0-26.352941-26.352941z" fill="#568af2" /></svg>