<svg class="icon" style="width: 1em;height: 1em;vertical-align: middle;fill: currentColor;overflow: hidden;" viewBox="0 0 1024 1024" version="1.1" xmlns="http://www.w3.org/2000/svg" width="32" height="32"><path d="M800.617412 214.588235c33.972706 0 61.500235 27.527529 61.500235 61.500236v351.35247a61.500235 61.500235 0 0 1-61.500235 61.500235H203.294118a61.500235 61.500235 0 0 1-61.500236-61.500235V276.088471c0-33.972706 27.527529-61.500235 61.500236-61.500236h597.323294z m-263.529412 105.411765H466.823529a26.352941 26.352941 0 1 0 0 52.705882h70.264471a26.352941 26.352941 0 1 0 0-52.705882z m316.235294 456.794353a26.352941 26.352941 0 1 1 0 52.705882H150.588235a26.352941 26.352941 0 0 1 0-52.705882h702.735059z" fill="#568af2" /></svg>