<svg class="icon" style="width: 1em;height: 1em;vertical-align: middle;fill: currentColor;overflow: hidden;" viewBox="0 0 1024 1024" version="1.1" xmlns="http://www.w3.org/2000/svg" width="32" height="32"><path d="M596.299294 154.352941c15.299765 0 30.057412 5.722353 41.35153 15.992471l171.700705 156.099764c12.830118 11.655529 20.148706 28.16 20.148706 45.477648v476.400941a61.500235 61.500235 0 0 1-61.500235 61.470117H276.088471a61.500235 61.500235 0 0 1-61.500236-61.470117v-632.470589c0-33.972706 27.527529-61.500235 61.500236-61.500235h320.210823zM662.588235 488.146824h-281.088a26.352941 26.352941 0 0 0-26.172235 23.070117l-0.180706 3.312941v245.940706c0 13.432471 10.029176 24.515765 23.04 26.142118l3.312941 0.210823H662.588235a26.352941 26.352941 0 0 0 26.142118-23.04l0.210823-3.312941v-245.970823a26.352941 26.352941 0 0 0-26.352941-26.352941z m-26.352941 52.705882v193.234823h-228.382118v-193.234823h228.382118z m-237.17647-237.176471a52.705882 52.705882 0 1 0 0 105.411765 52.705882 52.705882 0 0 0 0-105.411765z" fill="#568af2" /></svg>