<svg class="icon" style="width: 1em;height: 1em;vertical-align: middle;fill: currentColor;overflow: hidden;" viewBox="0 0 1024 1024" version="1.1" xmlns="http://www.w3.org/2000/svg" width="32" height="32"><path d="M677.647059 274.823529c33.972706 0 61.500235 27.527529 61.500235 61.500236l-0.030118 62.765176 102.430118-51.2a26.352941 26.352941 0 0 1 38.128941 23.552v316.235294a26.352941 26.352941 0 0 1-38.128941 23.582118l-102.430118-51.230118V722.823529a61.500235 61.500235 0 0 1-61.470117 61.500236H185.735529A61.500235 61.500235 0 0 1 124.235294 722.823529V336.323765c0-33.972706 27.527529-61.500235 61.500235-61.500236H677.647059z m-245.970824 122.970353a131.764706 131.764706 0 1 0 0 263.529412 131.764706 131.764706 0 0 0 0-263.529412z m395.294118 16.26353l-87.853177 43.941647v143.119059l87.853177 43.911529v-230.972235z m-395.294118 36.442353a79.058824 79.058824 0 1 1 0 158.117647 79.058824 79.058824 0 0 1 0-158.117647z" fill="#568af2" /></svg>