<svg class="icon" style="width: 1em;height: 1em;vertical-align: middle;fill: currentColor;overflow: hidden;" viewBox="0 0 1024 1024" version="1.1" xmlns="http://www.w3.org/2000/svg" width="32" height="32"><path d="M879.676235 853.323294a26.352941 26.352941 0 0 1-26.352941 26.352941H150.588235a26.352941 26.352941 0 0 1-26.352941-26.352941v-106.496c0-0.481882 0.060235-0.963765 0.090353-1.415529l-0.090353 2.499764a26.593882 26.593882 0 0 1 1.897412-9.788235l0.240941-0.602353 103.273412-241.061647V150.588235a26.352941 26.352941 0 1 1 52.705882 0v324.99953h193.234824V150.588235a26.352941 26.352941 0 1 1 52.705882 0v324.99953h193.264941V150.588235a26.352941 26.352941 0 0 1 52.705883 0v345.961412l103.303529 241.001412 0.150588 0.361412a26.172235 26.172235 0 0 1 0.602353 1.686588l-0.752941-2.048a27.075765 27.075765 0 0 1 1.897412 6.77647l0.090353 0.813177a16.263529 16.263529 0 0 1 0.12047 1.686588v106.496z m-52.705882-79.058823H176.941176v52.705882h650.029177v-52.705882z" fill="#568af2" /></svg>