<svg class="icon" style="width: 1em;height: 1em;vertical-align: middle;fill: currentColor;overflow: hidden;" viewBox="0 0 1024 1024" version="1.1" xmlns="http://www.w3.org/2000/svg" width="32" height="32"><path d="M522.029176 124.235294c2.319059 0 4.517647 0.301176 6.625883 0.843294l0.391529 0.090353a26.112 26.112 0 0 1 8.493177 4.096l1.114353 0.873412 1.566117 1.385412 88.304941 88.244706a26.352941 26.352941 0 1 1-37.285647 37.285647l-42.857411-42.827294v524.348235l8.011294 6.595765 150.106353-102.731295v-47.495529a96.677647 96.677647 0 0 1 26.352941-189.620706 96.617412 96.617412 0 0 1 26.352941 189.620706v61.44a26.352941 26.352941 0 0 1-11.444706 21.744941l-199.378823 136.372706v12.468706h26.352941a26.352941 26.352941 0 0 1 0 52.705882h-105.411765a26.352941 26.352941 0 0 1 0-52.705882h26.352941v-63.578353l-201.246117-166.219294a26.352941 26.352941 0 0 1-9.577412-20.299294v-87.341177a96.677647 96.677647 0 0 1 26.352941-189.620706 96.617412 96.617412 0 0 1 26.352941 189.620706v74.902589l158.117647 130.620235V214.166588l-42.857411 42.88753a26.352941 26.352941 0 0 1-34.544942 2.379294l-2.710588-2.379294a26.352941 26.352941 0 0 1 0-37.25553l87.853177-87.853176 1.987764-1.807059 1.144471-0.873412a27.527529 27.527529 0 0 1 2.740706-1.746823 26.262588 26.262588 0 0 1 12.739764-3.282824z" fill="#568af2" /></svg>