<svg class="icon" style="width: 1em;height: 1em;vertical-align: middle;fill: currentColor;overflow: hidden;" viewBox="0 0 1024 1024" version="1.1" xmlns="http://www.w3.org/2000/svg" width="32" height="32"><path d="M818.206118 214.588235c33.942588 0 61.470118 27.527529 61.470117 61.500236V662.588235a61.500235 61.500235 0 0 1-61.470117 61.500236l-10.300236-0.030118c0.963765 2.740706 1.505882 5.722353 1.505883 8.794353a96.617412 96.617412 0 0 1-193.264941 0c0-3.072 0.542118-6.023529 1.505882-8.794353h-185.976471c-3.614118 0-7.198118-0.301176-10.661647-0.903529 1.204706 2.951529 1.897412 6.264471 1.897412 9.697882a96.617412 96.617412 0 0 1-193.264941 0c0-3.072 0.542118-6.023529 1.505882-8.794353H150.588235a26.352941 26.352941 0 0 1-26.352941-26.322824v-132.457411c0-7.348706 3.072-14.366118 8.493177-19.365647l122.970353-113.513412a26.352941 26.352941 0 0 1 17.859764-6.987294h96.617412V276.088471c0-33.972706 27.557647-61.500235 61.500235-61.500236h386.529883zM371.712 724.058353H280.847059c0.963765 2.740706 1.505882 5.722353 1.505882 8.794353a43.911529 43.911529 0 0 0 87.853177 0c0-3.072 0.512-6.023529 1.505882-8.794353z m386.499765 0h-90.864941c0.993882 2.740706 1.505882 5.722353 1.505882 8.794353a43.911529 43.911529 0 0 0 87.853176 0c0-3.072 0.542118-6.023529 1.505883-8.794353z" fill="#568af2" /></svg>