<svg class="icon" style="width: 1em;height: 1em;vertical-align: middle;fill: currentColor;overflow: hidden;" viewBox="0 0 1024 1024" version="1.1" xmlns="http://www.w3.org/2000/svg" width="32" height="32"><path d="M577.746824 124.235294a121.223529 121.223529 0 0 1 55.898352 228.833882l75.113412 210.371765H813.176471c33.972706 0 61.500235 27.527529 61.500235 61.500235v193.264942a61.500235 61.500235 0 0 1-56.922353 61.319529l-4.577882 0.150588H215.853176a61.500235 61.500235 0 0 1-61.500235-61.470117V624.941176c0-33.972706 27.527529-61.500235 61.500235-61.500235h104.387765l75.173647-210.371765a121.223529 121.223529 0 0 1 55.838118-228.833882h126.494118zM813.176471 616.146824H215.853176a8.794353 8.794353 0 0 0-8.794352 8.794352v44.544a62.042353 62.042353 0 0 1 8.794352-0.602352H813.176471c3.011765 0 5.903059 0.180706 8.794353 0.602352V624.941176a8.794353 8.794353 0 0 0-8.794353-8.794352z" fill="#568af2" /></svg>