<svg class="icon" style="width: 1em;height: 1em;vertical-align: middle;fill: currentColor;overflow: hidden;" viewBox="0 0 1024 1024" version="1.1" xmlns="http://www.w3.org/2000/svg" width="32" height="32"><path d="M604.852706 154.352941c108.423529 0 166.912 81.859765 166.912 184.470588a26.352941 26.352941 0 1 1-52.705882 0c0-76.589176-39.424-131.764706-114.206118-131.764705-59.964235 0-89.298824 31.382588-95.412706 89.419294a237.236706 237.236706 0 0 1 209.618824 235.610353v140.528941a237.176471 237.176471 0 0 1-474.352942 0v-140.528941a237.206588 237.206588 0 0 1 211.877647-235.851295c7.529412-85.835294 55.235765-141.884235 148.269177-141.884235z m61.500235 421.647059H481.882353l-0.481882-0.030118H297.411765v96.677647l0.12047 6.746353a184.470588 184.470588 0 0 0 368.700236 0l0.12047-6.77647v-96.617412z" fill="#568af2" /></svg>