<svg class="icon" style="width: 1em;height: 1em;vertical-align: middle;fill: currentColor;overflow: hidden;" viewBox="0 0 1024 1024" version="1.1" xmlns="http://www.w3.org/2000/svg" width="32" height="32"><path d="M163.659294 187.934118l115.320471 65.897411 327.408941-42.255058a184.470588 184.470588 0 0 1 155.858823 331.776l-107.64047 255.698823a115.410824 115.410824 0 0 1-106.37553 70.595765c-82.522353 0-138.390588-84.118588-106.345411-160.195765l67.553882-160.527059-230.460235-29.756235-115.320471 65.897412a26.352941 26.352941 0 0 1-39.424-22.889412V210.823529a26.352941 26.352941 0 0 1 39.454118-22.889411z m501.458824 66.800941a131.764706 131.764706 0 1 0 0 263.529412 131.764706 131.764706 0 0 0 0-263.529412z m-488.176942 1.475765v260.547764l70.264471-40.146823V296.357647L176.941176 256.210824z" fill="#568af2" /></svg>