<svg class="icon" style="width: 1em;height: 1em;vertical-align: middle;fill: currentColor;overflow: hidden;" viewBox="0 0 1024 1024" version="1.1" xmlns="http://www.w3.org/2000/svg" width="32" height="32"><path d="M527.058824 184.470588c189.199059 0 342.588235 153.389176 342.588235 342.588236S716.257882 869.647059 527.058824 869.647059 184.470588 716.257882 184.470588 527.058824 337.859765 184.470588 527.058824 184.470588z m0 228.382118a114.206118 114.206118 0 1 0 0 228.412235 114.206118 114.206118 0 0 0 0-228.412235z m0 52.705882a61.500235 61.500235 0 1 1 0 123.000471 61.500235 61.500235 0 0 1 0-123.000471z m0-158.117647a219.617882 219.617882 0 0 0-219.617883 219.617883 26.352941 26.352941 0 0 0 52.705883 0 166.912 166.912 0 0 1 166.912-166.912 26.352941 26.352941 0 1 0 0-52.705883z" fill="#568af2" /></svg>