<svg class="icon" style="width: 1em;height: 1em;vertical-align: middle;fill: currentColor;overflow: hidden;" viewBox="0 0 1024 1024" version="1.1" xmlns="http://www.w3.org/2000/svg" width="32" height="32"><path d="M686.441412 240.941176v562.206118a26.352941 26.352941 0 0 1-35.900236 24.545882l-311.627294-121.193411H150.588235a26.352941 26.352941 0 0 1-26.352941-26.352941v-316.235295c0-14.546824 11.806118-26.352941 26.352941-26.352941h188.265412L650.541176 216.365176A26.352941 26.352941 0 0 1 686.441412 240.941176z m-52.705883 38.520471l-263.559529 102.460235v280.184471l263.529412 102.490353V279.461647z m184.470589 93.244235a26.352941 26.352941 0 0 1 0 52.705883H783.058824a26.352941 26.352941 0 1 1 0-52.705883h35.147294z m35.117176 140.559059a26.352941 26.352941 0 1 1 0 52.705883h-87.823059a26.352941 26.352941 0 0 1 0-52.705883h87.823059z m-35.117176 140.528941a26.352941 26.352941 0 0 1 0 52.705883H783.058824a26.352941 26.352941 0 1 1 0-52.705883h35.147294z" fill="#568af2" /></svg>