<svg class="icon" style="width: 1em;height: 1em;vertical-align: middle;fill: currentColor;overflow: hidden;" viewBox="0 0 1024 1024" version="1.1" xmlns="http://www.w3.org/2000/svg" width="32" height="32"><path d="M809.411765 154.352941A79.058824 79.058824 0 0 1 888.470588 233.411765v597.323294a79.058824 79.058824 0 0 1-79.058823 79.058823H212.088471a79.058824 79.058824 0 0 1-79.058824-79.058823V233.411765a79.058824 79.058824 0 0 1 79.058824-79.058824h597.323294z m-527.058824 597.323294h-17.558588a26.352941 26.352941 0 0 0 0 52.705883h17.558588a26.352941 26.352941 0 1 0 0-52.705883z m474.352941 0h-210.823529a26.352941 26.352941 0 0 0 0 52.705883h210.823529a26.352941 26.352941 0 1 0 0-52.705883z m105.411765-105.411764H159.382588a26.352941 26.352941 0 0 0 0 52.705882h702.735059a26.352941 26.352941 0 1 0 0-52.705882z" fill="#568af2" /><path d="M862.117647 558.441412c14.546824 0 26.352941 11.776 26.352941 26.352941v175.676235a26.352941 26.352941 0 1 1-52.705882 0v-175.676235c0-14.576941 11.806118-26.352941 26.352941-26.352941zM159.382588 558.441412c14.546824 0 26.352941 11.776 26.352941 26.352941v175.676235a26.352941 26.352941 0 1 1-52.705882 0v-175.676235c0-14.576941 11.776-26.352941 26.352941-26.352941z" fill="#568af2" /></svg>