<svg class="icon" style="width: 1em;height: 1em;vertical-align: middle;fill: currentColor;overflow: hidden;" viewBox="0 0 1024 1024" version="1.1" xmlns="http://www.w3.org/2000/svg" width="32" height="32"><path d="M641.264941 124.235294c14.546824 0 26.352941 11.806118 26.352941 26.352941l-0.030117 114.176h8.794353c33.972706 0 61.500235 27.557647 61.500235 61.500236V677.647059a61.500235 61.500235 0 0 1-61.500235 61.500235l-8.794353-0.030118v96.64753c0 24.244706-19.636706 43.911529-43.91153 43.911529h-210.823529a43.911529 43.911529 0 0 1-43.91153-43.911529v-96.64753h-8.794352A61.500235 61.500235 0 0 1 298.676706 677.647059V326.264471c0-33.942588 27.527529-61.470118 61.470118-61.470118l8.794352-0.030118V150.588235c0-14.546824 11.806118-26.352941 26.352942-26.352941h245.970823z m-26.383059 614.881882H421.647059v87.853177h193.234823V739.087059z m-96.617411-158.117647a26.352941 26.352941 0 0 0-26.142118 23.070118l-0.210824 3.312941v79.028706h52.705883v-79.028706a26.352941 26.352941 0 0 0-26.352941-26.352941z m-88.124236-105.411764l-78.757647 0.873411v52.705883l79.329883-0.843294a26.352941 26.352941 0 1 0-0.572236-52.705883z m255.036236-0.873412l-79.36 0.903529a26.352941 26.352941 0 0 0-2.710589 52.525177l3.312942 0.180706 78.757647-0.873412v-52.736z m-140.559059-157.244235h-52.705883v79.088941a26.352941 26.352941 0 0 0 52.525177 3.312941l0.180706-3.312941V317.44z m70.26447-140.528942H421.647059v87.823059h193.234823V176.941176zM219.617882 405.323294c14.546824 0 26.352941 11.806118 26.352942 26.352941V572.235294a26.352941 26.352941 0 1 1-52.705883 0v-140.559059c0-14.546824 11.776-26.352941 26.352941-26.352941z m597.323294 0c14.546824 0 26.352941 11.806118 26.352942 26.352941V572.235294a26.352941 26.352941 0 1 1-52.705883 0v-140.559059c0-14.546824 11.806118-26.352941 26.352941-26.352941z" fill="#568af2" /></svg>