<svg class="icon" style="width: 1em;height: 1em;vertical-align: middle;fill: currentColor;overflow: hidden;" viewBox="0 0 1024 1024" version="1.1" xmlns="http://www.w3.org/2000/svg" width="32" height="32"><path d="M185.735529 789.323294a61.500235 61.500235 0 0 1-61.500235-61.470118v-421.647058c0-33.972706 27.527529-61.500235 61.500235-61.500236h632.470589c33.942588 0 61.470118 27.527529 61.470117 61.500236v421.647058a61.500235 61.500235 0 0 1-61.470117 61.470118h-632.470589z m184.018824-102.821647a8.794353 8.794353 0 0 1 6.204235-2.590118h235.971765l2.078118 0.240942c1.325176 0.331294 2.590118 0.963765 3.644235 1.897411l59.030588 50.597647 80.986353-0.030117-105.712941-90.593883a61.500235 61.500235 0 0 0-34.544941-14.576941l-5.481412-0.240941h-235.971765c-14.486588 0-28.461176 5.12-39.454117 14.366118l-4.005647 3.644235-87.43153 87.401412h74.511059z m-26.352941-125.620706l0.451764 0.060235h317.078589a96.617412 96.617412 0 0 0 4.638117-193.114352l-5.481411-0.150589h-316.235295a96.617412 96.617412 0 0 0-5.481411 193.114353l4.758588 0.090353h0.271059z m230.580706-140.498823c-6.716235 13.191529-10.541176 28.129882-10.541177 43.941647s3.824941 30.750118 10.541177 43.941647h-144.052706c6.746353-13.191529 10.541176-28.129882 10.541176-43.971765 0-15.781647-3.794824-30.72-10.541176-43.911529h144.052706z m-230.128942 0a43.911529 43.911529 0 1 1 0 87.853176 43.911529 43.911529 0 0 1 0-87.853176z m316.235295 0a43.911529 43.911529 0 1 1 0 87.853176 43.911529 43.911529 0 0 1 0-87.853176z" fill="#568af2" /></svg>