<svg class="icon" style="width: 1em;height: 1em;vertical-align: middle;fill: currentColor;overflow: hidden;" viewBox="0 0 1024 1024" version="1.1" xmlns="http://www.w3.org/2000/svg" width="32" height="32"><path d="M259.584 844.348235a26.352941 26.352941 0 1 1-37.285647-37.255529l113.121882-113.152h-59.331764A61.500235 61.500235 0 0 1 214.588235 632.470588V245.970824c0-33.972706 27.527529-61.500235 61.500236-61.500236H768c33.972706 0 61.500235 27.527529 61.500235 61.500236V632.470588a61.500235 61.500235 0 0 1-61.500235 61.500236l-46.772706-0.030118 101.616941 114.266353a26.352941 26.352941 0 1 1-39.393882 35.026823l-132.698353-149.293176h-240.790588l-150.377412 150.407529z m86.768941-299.730823a35.147294 35.147294 0 1 0 0 70.294588 35.147294 35.147294 0 0 0 0-70.294588z m351.382588 0a35.147294 35.147294 0 1 0 0 70.294588 35.147294 35.147294 0 0 0 0-70.294588z m0-254.735059H346.352941a26.352941 26.352941 0 0 0-26.142117 23.04l-0.210824 3.312941v175.676235c0 13.432471 10.059294 24.545882 23.04 26.172236l3.312941 0.180706h351.382588a26.352941 26.352941 0 0 0 26.142118-23.04l0.210824-3.312942V316.235294a26.352941 26.352941 0 0 0-26.352942-26.352941z m-26.383058 52.705882v122.970353h-298.646589v-122.970353h298.646589z" fill="#568af2" /></svg>