<svg class="icon" style="width: 1em;height: 1em;vertical-align: middle;fill: currentColor;overflow: hidden;" viewBox="0 0 1024 1024" version="1.1" xmlns="http://www.w3.org/2000/svg" width="32" height="32"><path d="M732.852706 124.235294c33.972706 0 61.500235 27.527529 61.500235 61.500235v632.470589a61.500235 61.500235 0 0 1-61.500235 61.470117H276.088471a61.500235 61.500235 0 0 1-61.500236-61.470117v-632.470589c0-33.972706 27.527529-61.500235 61.500236-61.500235h456.764235z m-87.823059 588.559059a35.147294 35.147294 0 1 0 0 70.264471 35.147294 35.147294 0 0 0 0-70.264471z m-281.118118 0a35.147294 35.147294 0 1 0 0 70.264471 35.147294 35.147294 0 0 0 0-70.264471zM504.470588 299.911529a166.912 166.912 0 0 0-166.912 166.912 26.352941 26.352941 0 0 0 52.705883 0 114.206118 114.206118 0 1 1 114.206117 114.206118 26.352941 26.352941 0 1 0 0 52.705882 166.912 166.912 0 1 0 0-333.824z m18.642824 148.269177a26.352941 26.352941 0 0 0-37.285647 0l-105.411765 105.411765a26.352941 26.352941 0 1 0 37.285647 37.285647l105.411765-105.411765a26.352941 26.352941 0 0 0 0-37.285647z m121.916235-227.328a35.147294 35.147294 0 1 0 0 70.294588 35.147294 35.147294 0 0 0 0-70.294588z m-281.118118 0a35.147294 35.147294 0 1 0 0 70.294588 35.147294 35.147294 0 0 0 0-70.294588z" fill="#568af2" /></svg>