<svg class="icon" style="width: 1em;height: 1em;vertical-align: middle;fill: currentColor;overflow: hidden;" viewBox="0 0 1024 1024" version="1.1" xmlns="http://www.w3.org/2000/svg" width="32" height="32"><path d="M760.470588 184.470588c14.546824 0 26.352941 11.806118 26.352941 26.352941v114.176H813.176471c33.972706 0 61.500235 27.557647 61.500235 61.500236v421.647059A61.500235 61.500235 0 0 1 813.176471 869.647059H215.853176a61.500235 61.500235 0 0 1-61.500235-61.500235v-421.647059c0-33.942588 27.527529-61.470118 61.500235-61.470118l26.322824-0.030118V210.823529c0-14.546824 11.806118-26.352941 26.383059-26.352941H760.470588z m-351.382588 263.529412a149.323294 149.323294 0 1 0 0 298.676706 149.323294 149.323294 0 0 0 0-298.676706z m316.235294 228.382118H655.058824a26.352941 26.352941 0 0 0-3.312942 52.525176l3.312942 0.180706h70.26447a26.352941 26.352941 0 1 0 0-52.705882z m-316.235294-175.676236a96.617412 96.617412 0 1 1 0 193.264942 96.617412 96.617412 0 0 1 0-193.264942z m316.235294 70.264471H655.058824a26.352941 26.352941 0 0 0-3.312942 52.525176l3.312942 0.180706h70.26447a26.352941 26.352941 0 1 0 0-52.705882z m0-105.411765H655.058824a26.352941 26.352941 0 0 0-3.312942 52.525177l3.312942 0.180706h70.26447a26.352941 26.352941 0 1 0 0-52.705883z m8.794353-228.382117H294.912l-0.030118 87.823058h439.235765V237.176471z" fill="#568af2" /></svg>