<svg class="icon" style="width: 1em;height: 1em;vertical-align: middle;fill: currentColor;overflow: hidden;" viewBox="0 0 1024 1024" version="1.1" xmlns="http://www.w3.org/2000/svg" width="32" height="32"><path d="M381.500235 874.676706a26.352941 26.352941 0 0 1 0-52.705882l114.176-0.030118v-53.790118c-157.455059-13.372235-281.088-145.438118-281.088-306.356706 0-169.803294 137.637647-307.440941 307.440941-307.440941s307.471059 137.637647 307.471059 307.440941c0 160.918588-123.632941 292.984471-281.088 306.356706l-0.030117 53.790118H662.588235a26.352941 26.352941 0 1 1 0 52.705882h-281.088z m140.528941-562.206118a149.323294 149.323294 0 1 0 0 298.676706 149.323294 149.323294 0 0 0 0-298.676706z m0 52.705883a96.617412 96.617412 0 1 1 0 193.264941 96.617412 96.617412 0 0 1 0-193.264941z" fill="#568af2" /></svg>