<svg class="icon" style="width: 1em;height: 1em;vertical-align: middle;fill: currentColor;overflow: hidden;" viewBox="0 0 1024 1024" version="1.1" xmlns="http://www.w3.org/2000/svg" width="32" height="32"><path d="M778.029176 184.470588c33.972706 0 61.500235 27.527529 61.500236 61.500236v81.257411h0.512v271.058824h-0.512v103.905882a79.058824 79.058824 0 0 1-79.058824 79.058824h-9.155764l-0.150589 2.017882a96.677647 96.677647 0 0 1-90.533647 85.594353l-5.481412 0.150588-5.481411-0.150588a96.677647 96.677647 0 0 1-90.563765-85.594353l-0.180706-2.017882h-123.783529l-0.150589 2.048a96.617412 96.617412 0 0 1-90.503529 85.534117l-5.481412 0.180706a96.617412 96.617412 0 0 1-96.015059-85.714823l-0.180705-2.048h-9.185883a79.058824 79.058824 0 0 1-78.908235-74.059294l-0.150588-4.99953V512.301176a26.593882 26.593882 0 0 1 0-6.927058V246.000941c0-33.972706 27.527529-61.500235 61.500235-61.500235h561.995294z m-421.647058 421.014588h-35.117177a26.352941 26.352941 0 0 0-3.312941 52.495059l3.312941 0.210824h35.117177a26.352941 26.352941 0 0 0 0-52.705883z m316.235294 0h-35.117177a26.352941 26.352941 0 0 0-3.312941 52.495059l3.312941 0.210824h35.117177a26.352941 26.352941 0 0 0 0-52.705883z m0-298.676705H321.264941a26.352941 26.352941 0 0 0-26.172235 23.04l-0.180706 3.312941-0.030118 149.323294h52.705883v-122.970353h298.676706v122.970353h52.705882v-149.323294a26.352941 26.352941 0 0 0-23.04-26.142118l-3.312941-0.210823z" fill="#568af2" /></svg>