<svg class="icon" style="width: 1em;height: 1em;vertical-align: middle;fill: currentColor;overflow: hidden;" viewBox="0 0 1024 1024" version="1.1" xmlns="http://www.w3.org/2000/svg" width="32" height="32"><path d="M732.852706 154.352941c33.972706 0 61.500235 27.527529 61.500235 61.500235V813.176471a61.500235 61.500235 0 0 1-61.500235 61.500235H276.088471A61.500235 61.500235 0 0 1 214.588235 813.176471V215.853176c0-33.972706 27.527529-61.500235 61.500236-61.500235h456.764235z m8.794353 281.088H267.294118V813.176471c0 4.848941 3.915294 8.794353 8.794353 8.794353h456.764235c4.848941 0 8.794353-3.915294 8.794353-8.794353V435.440941z m-237.176471 52.705883a131.764706 131.764706 0 1 1 0 263.529411 131.764706 131.764706 0 0 1 0-263.529411z m228.382118-281.088H276.088471a8.794353 8.794353 0 0 0-8.794353 8.794352v166.881883h474.352941V215.853176a8.794353 8.794353 0 0 0-8.794353-8.794352z" fill="#568af2" /></svg>