<svg class="icon" style="width: 1em;height: 1em;vertical-align: middle;fill: currentColor;overflow: hidden;" viewBox="0 0 1024 1024" version="1.1" xmlns="http://www.w3.org/2000/svg" width="32" height="32"><path d="M790.588235 184.470588a79.058824 79.058824 0 0 1 79.058824 79.058824v527.058823a79.058824 79.058824 0 0 1-79.058824 79.058824H263.529412a79.058824 79.058824 0 0 1-79.058824-79.058824V263.529412A79.058824 79.058824 0 0 1 263.529412 184.470588h527.058823z m-263.529411 175.676236a26.352941 26.352941 0 0 0-26.352942 26.352941v89.931294l-73.667764-51.561412a26.352941 26.352941 0 0 0-34.454589 3.674353l-2.228705 2.770824a26.352941 26.352941 0 0 0 6.475294 36.743529l84.239058 59.000471-84.269176 59.030588a26.352941 26.352941 0 0 0-8.312471 33.641412l1.867295 3.072a26.352941 26.352941 0 0 0 36.683294 6.445176l73.667764-51.591529v89.961411c0 13.432471 10.059294 24.515765 23.04 26.142118l3.312942 0.210824a26.352941 26.352941 0 0 0 26.352941-26.352942V577.656471l73.667764 51.561411a26.352941 26.352941 0 0 0 34.454589-3.674353l2.258823-2.770823a26.352941 26.352941 0 0 0-6.475294-36.74353l-84.299294-59.030588 84.299294-59.00047a26.352941 26.352941 0 0 0 8.312471-33.641412l-1.867294-3.072a26.352941 26.352941 0 0 0-36.683295-6.445177l-73.667764 51.531295v-89.901177a26.352941 26.352941 0 0 0-23.04-26.142118z" fill="#568af2" /></svg>