<svg class="icon" style="width: 1em;height: 1em;vertical-align: middle;fill: currentColor;overflow: hidden;" viewBox="0 0 1024 1024" version="1.1" xmlns="http://www.w3.org/2000/svg" width="32" height="32"><path d="M732.190118 154.081882c1.234824 0 2.439529 0.090353 3.614117 0.271059H768c33.972706 0 61.500235 27.527529 61.500235 61.500235v632.470589a61.500235 61.500235 0 0 1-61.500235 61.470117h-70.264471l1.084236-0.090353h-353.581177l1.114353 0.090353H276.088471a61.500235 61.500235 0 0 1-61.500236-61.470117v-632.470589c0-33.972706 27.527529-61.500235 61.500236-61.500235h29.756235a26.593882 26.593882 0 0 1 3.644235-0.271059h422.701177z m-34.454589 351.653647H346.352941a26.352941 26.352941 0 0 0-26.142117 23.04l-0.210824 3.312942v324.909176h52.705882v-158.027294h298.646589v158.027294h52.705882V532.088471a26.352941 26.352941 0 0 0-23.04-26.172236l-3.312941-0.180706z m-26.383058 52.705883v87.823059h-298.646589v-87.823059h298.646589zM372.705882 206.787765h-52.705882v149.594353c0 13.432471 10.059294 24.545882 23.04 26.172235l3.312941 0.180706h351.382588a26.352941 26.352941 0 0 0 26.142118-23.04l0.210824-3.312941-0.030118-149.594353h-52.705882v123.241411h-298.646589V206.787765z" fill="#568af2" /></svg>