<svg class="icon" style="width: 1em;height: 1em;vertical-align: middle;fill: currentColor;overflow: hidden;" viewBox="0 0 1024 1024" version="1.1" xmlns="http://www.w3.org/2000/svg" width="32" height="32"><path d="M449.264941 244.705882c14.546824 0 26.352941 11.806118 26.352941 26.352942l-0.030117 166.881882h342.618353c33.942588 0 61.470118 27.557647 61.470117 61.500235v210.82353a61.500235 61.500235 0 0 1-61.470117 61.500235h-632.470589a61.500235 61.500235 0 0 1-61.500235-61.500235v-210.82353c0-33.942588 27.527529-61.470118 61.500235-61.470117l43.91153-0.030118V271.058824c0-14.546824 11.806118-26.352941 26.352941-26.352942h193.264941zM361.411765 569.735529a35.147294 35.147294 0 1 0 0 70.264471 35.147294 35.147294 0 0 0 0-70.264471z m351.382588 8.764236H572.235294a26.352941 26.352941 0 0 0-3.312941 52.525176l3.312941 0.180706h140.559059a26.352941 26.352941 0 0 0 0-52.705882zM422.851765 297.411765H282.352941v140.528941h140.528941V297.411765z" fill="#568af2" /></svg>