<svg class="icon" style="width: 1em;height: 1em;vertical-align: middle;fill: currentColor;overflow: hidden;" viewBox="0 0 1024 1024" version="1.1" xmlns="http://www.w3.org/2000/svg" width="32" height="32"><path d="M812.152471 184.771765l0.602353 0.090353a26.142118 26.142118 0 0 1 2.469647 0.542117l0.662588 0.210824a21.895529 21.895529 0 0 1 2.499765 0.903529l0.692705 0.301177c0.783059 0.361412 1.505882 0.722824 2.228706 1.14447l0.752941 0.481883a22.768941 22.768941 0 0 1 5.240471 4.276706 26.624 26.624 0 0 1 6.384941 11.444705l0.210824 1.054118c0.180706 0.722824 0.301176 1.505882 0.421647 2.288941 0 0.331294 0.060235 0.662588 0.090353 0.963765l0.090353 0.993882v2.017883a26.503529 26.503529 0 0 1-1.295059 7.499294l-122.970353 377.735529a26.232471 26.232471 0 0 1-6.836706 10.842353 26.051765 26.051765 0 0 1-10.149647 14.21553 262.957176 262.957176 0 0 1-174.983529 46.682352v148.449883L843.294118 816.941176c13.432471 0 24.515765 10.059294 26.142117 23.04l0.210824 3.312942a26.352941 26.352941 0 0 1-26.352941 26.352941H210.823529a26.352941 26.352941 0 0 1-24.455529-36.141177l121.886118-304.850823A264.071529 264.071529 0 0 1 383.909647 193.957647a26.142118 26.142118 0 0 1 20.178824-9.456941h404.720941a26.503529 26.503529 0 0 1 1.024 0.060235l1.626353 0.150588 0.692706 0.090353zM344.244706 580.668235l-94.509177 236.272941 215.823059-0.030117v-158.629647a262.746353 262.746353 0 0 1-121.313882-77.613177z m413.515294-300.212706l-179.290353 131.46353 93.153882 133.029647 86.136471-264.493177z m-209.528471 88.274824l179.440942-131.584h-271.570824l92.16 131.584z" fill="#568af2" /></svg>