<svg class="icon" style="width: 1em;height: 1em;vertical-align: middle;fill: currentColor;overflow: hidden;" viewBox="0 0 1024 1024" version="1.1" xmlns="http://www.w3.org/2000/svg" width="32" height="32"><path d="M813.176471 214.588235c33.972706 0 61.500235 27.527529 61.500235 61.500236V768A61.500235 61.500235 0 0 1 813.176471 829.500235H215.853176A61.500235 61.500235 0 0 1 154.352941 768V276.088471c0-33.972706 27.527529-61.500235 61.500235-61.500236H813.176471zM294.881882 688.941176H207.058824V768c0 4.848941 3.915294 8.794353 8.794352 8.794353l79.028706-0.030118v-87.823059zM813.176471 267.294118H347.587765v509.470117H813.176471c4.848941 0 8.794353-3.915294 8.794353-8.764235V276.088471A8.794353 8.794353 0 0 0 813.176471 267.294118z m-228.382118 70.26447a184.470588 184.470588 0 1 1 0 368.941177 184.470588 184.470588 0 0 1 0-368.941177z m-289.912471 210.82353H207.058824v87.853176h87.823058v-87.853176z m289.912471-79.058824a52.705882 52.705882 0 1 0 0 105.411765 52.705882 52.705882 0 0 0 0-105.411765zM294.851765 407.823059H207.058824v87.853176h87.823058v-87.853176z m0-140.528941H215.853176a8.794353 8.794353 0 0 0-8.794352 8.794353v79.028705h87.823058V267.294118z" fill="#568af2" /></svg>