<svg class="icon" style="width: 1em;height: 1em;vertical-align: middle;fill: currentColor;overflow: hidden;" viewBox="0 0 1024 1024" version="1.1" xmlns="http://www.w3.org/2000/svg" width="32" height="32"><path d="M838.083765 304.941176a61.500235 61.500235 0 0 1 60.928 69.812706l-43.128471 316.235294a61.500235 61.500235 0 0 1-60.928 53.157648H259.011765a61.500235 61.500235 0 0 1-60.928-53.157648l-43.128471-316.235294a61.500235 61.500235 0 0 1 60.928-69.812706h622.230588z m-293.556706 245.970824h-35.117177a26.352941 26.352941 0 1 0 0 52.705882h35.117177a26.352941 26.352941 0 0 0 0-52.705882z m-140.528941 0h-35.147294a26.352941 26.352941 0 1 0 0 52.705882h35.147294a26.352941 26.352941 0 0 0 0-52.705882z m281.088 0H649.938824a26.352941 26.352941 0 0 0 0 52.705882h35.147294a26.352941 26.352941 0 0 0 0-52.705882z m-210.82353-105.411765H439.115294a26.352941 26.352941 0 0 0 0 52.705883h35.147294a26.352941 26.352941 0 0 0 0-52.705883z m-140.559059 0H298.586353a26.352941 26.352941 0 1 0 0 52.705883h35.117176a26.352941 26.352941 0 0 0 0-52.705883z m281.118118 0h-35.147294a26.352941 26.352941 0 1 0 0 52.705883h35.147294a26.352941 26.352941 0 0 0 0-52.705883z m140.528941 0h-35.117176a26.352941 26.352941 0 1 0 0 52.705883h35.117176a26.352941 26.352941 0 0 0 0-52.705883z" fill="#568af2" /></svg>