<svg class="icon" style="width: 1em;height: 1em;vertical-align: middle;fill: currentColor;overflow: hidden;" viewBox="0 0 1024 1024" version="1.1" xmlns="http://www.w3.org/2000/svg" width="32" height="32"><path d="M818.206118 244.705882c33.942588 0 61.470118 27.527529 61.470117 61.500236v421.647058a61.500235 61.500235 0 0 1-61.470117 61.470118H427.971765a61.470118 61.470118 0 0 1-41.953883-16.534588l-253.409882-236.513882a26.352941 26.352941 0 0 1 0-38.520471l253.409882-236.513882c11.384471-10.631529 26.383059-16.534588 41.953883-16.534589h390.234353z m-86.799059 165.827765a26.352941 26.352941 0 0 0-37.25553 0L624.941176 479.774118l-69.210352-69.210353a26.352941 26.352941 0 0 0-34.575059-2.349177l-2.710589 2.349177a26.352941 26.352941 0 0 0 0 37.285647l69.210353 69.180235-69.180235 69.240471a26.352941 26.352941 0 0 0-2.379294 34.544941l2.379294 2.710588a26.352941 26.352941 0 0 0 37.25553 0l69.210352-69.210353 69.210353 69.210353a26.352941 26.352941 0 0 0 34.575059 2.349177l2.710588-2.349177a26.352941 26.352941 0 0 0 0-37.255529l-69.24047-69.240471 69.210353-69.180235a26.352941 26.352941 0 0 0 2.379294-34.575059z" fill="#568af2" /></svg>