<svg class="icon" style="width: 1em;height: 1em;vertical-align: middle;fill: currentColor;overflow: hidden;" viewBox="0 0 1024 1024" version="1.1" xmlns="http://www.w3.org/2000/svg" width="32" height="32"><path d="M768 124.235294c33.972706 0 61.500235 27.527529 61.500235 61.500235v632.470589a61.500235 61.500235 0 0 1-61.500235 61.470117H276.088471a61.500235 61.500235 0 0 1-61.500236-61.470117v-632.470589c0-33.972706 27.527529-61.500235 61.500236-61.500235H768zM399.058824 712.794353a35.147294 35.147294 0 1 0 0 70.264471 35.147294 35.147294 0 0 0 0-70.264471z m122.970352 0a35.147294 35.147294 0 1 0 0 70.264471 35.147294 35.147294 0 0 0 0-70.264471z m123.000471 0a35.147294 35.147294 0 1 0 0 70.264471 35.147294 35.147294 0 0 0 0-70.264471z m-245.970823-105.411765a35.147294 35.147294 0 1 0 0 70.264471 35.147294 35.147294 0 0 0 0-70.264471z m122.970352 0a35.147294 35.147294 0 1 0 0 70.264471 35.147294 35.147294 0 0 0 0-70.264471z m123.000471 0a35.147294 35.147294 0 1 0 0 70.264471 35.147294 35.147294 0 0 0 0-70.264471z m-245.970823-105.411764a35.147294 35.147294 0 1 0 0 70.26447 35.147294 35.147294 0 0 0 0-70.26447z m122.970352 0a35.147294 35.147294 0 1 0 0 70.26447 35.147294 35.147294 0 0 0 0-70.26447z m123.000471 0a35.147294 35.147294 0 1 0 0 70.26447 35.147294 35.147294 0 0 0 0-70.26447z m52.705882-254.765177H346.352941a26.352941 26.352941 0 0 0-26.142117 23.070118l-0.210824 3.312941v158.117647c0 13.402353 10.059294 24.515765 23.04 26.142118l3.312941 0.180705h351.382588a26.352941 26.352941 0 0 0 26.142118-23.04l0.210824-3.312941v-158.117647a26.352941 26.352941 0 0 0-26.352942-26.352941z m-26.383058 52.705882v105.411765h-298.646589v-105.411765h298.646589z" fill="#568af2" /></svg>