<svg class="icon" style="width: 1em;height: 1em;vertical-align: middle;fill: currentColor;overflow: hidden;" viewBox="0 0 1024 1024" version="1.1" xmlns="http://www.w3.org/2000/svg" width="32" height="32"><path d="M680.146824 154.352941c14.576941 0 26.352941 11.806118 26.352941 26.352941v254.735059H768c33.972706 0 61.500235 27.527529 61.500235 61.500235v351.382589a61.500235 61.500235 0 0 1-61.500235 61.470117H276.088471a61.500235 61.500235 0 0 1-61.500236-61.470117V496.941176c0-33.972706 27.527529-61.500235 61.500236-61.500235h61.470117V180.705882c0-14.546824 11.806118-26.352941 26.352941-26.352941h316.235295z m-26.352942 52.705883h-263.529411v228.382117h263.529411V207.058824z m-184.470588 52.705882c14.576941 0 26.352941 11.806118 26.352941 26.352941v35.147294a26.352941 26.352941 0 0 1-52.705882 0V286.117647c0-14.546824 11.806118-26.352941 26.352941-26.352941z m105.411765 0c14.576941 0 26.352941 11.806118 26.352941 26.352941v35.147294a26.352941 26.352941 0 0 1-52.705882 0V286.117647c0-14.546824 11.806118-26.352941 26.352941-26.352941z" fill="#568af2" /></svg>