<svg class="icon" style="width: 1em;height: 1em;vertical-align: middle;fill: currentColor;overflow: hidden;" viewBox="0 0 1024 1024" version="1.1" xmlns="http://www.w3.org/2000/svg" width="32" height="32"><path d="M281.088 885.097412a26.352941 26.352941 0 1 1 0-52.705883h360.056471c6.324706-4.758588 14.968471-11.294118 18.522353-14.034823 10.390588-8.011294 19.124706-15.058824 27.407058-22.317177 50.416941-44.212706 77.161412-89.871059 77.161412-148.118588 0-78.697412-45.748706-138.601412-99.388235-148.058353a105.441882 105.441882 0 0 1-162.966588 59.030588l-4.186353 4.126118-61.861647 61.83153 17.227294 17.227294a26.352941 26.352941 0 0 1-37.25553 37.255529l-42.074353-42.044235-53.037176 53.067294a26.352941 26.352941 0 0 1-37.285647 0l-86.949647-86.949647a26.352941 26.352941 0 0 1 0-37.285647l53.067294-53.067294-57.344-57.344a26.352941 26.352941 0 0 1 37.285647-37.25553l32.466823 32.466824 226.484706-226.424471a122.608941 122.608941 0 0 1 87.94353-36.020706 25.027765 25.027765 0 0 1 5.210353-7.469176l31.021176-31.021177a87.853176 87.853176 0 0 1 124.265412 124.205177l-31.081412 31.051294a26.292706 26.292706 0 0 1-7.439059 5.240471 122.548706 122.548706 0 0 1-36.020706 87.943529l-9.33647 9.336471-4.126118 4.096c7.649882 10.721882 13.040941 22.588235 16.173177 34.876235 84.028235 9.065412 151.913412 94.177882 151.913411 201.185882 0 74.270118-32.948706 132.065882-91.437176 184.470588H843.294118a26.352941 26.352941 0 0 1 0 52.705883H281.088z m5.662118-334.787765l-34.394353 34.424471 49.694117 49.694117 34.394353-34.42447-49.694117-49.694118z m238.893176-288.527059l-223.623529 223.593412 5.812706 5.782588 0.210823 0.210824 87.190588 87.190588 0.361412 0.421647 5.812706 5.782588 66.379294-66.349176a105.441882 105.441882 0 0 1 140.589177-140.589177l7.348705-7.348706 9.336471-9.33647c27.376941-27.407059 27.407059-71.740235 0.150588-99.20753l-0.391529-0.391529-3.614118-3.343059a70.294588 70.294588 0 0 0-95.563294 3.553883z m124.235294-74.541176l-12.438588 12.378353 49.694118 49.694117 12.438588-12.378353c12.739765-12.739765 13.643294-32.828235 2.710588-46.652235l-2.710588-3.041882a35.147294 35.147294 0 0 0-49.694118 0z" fill="#568af2" /></svg>