<svg class="icon" style="width: 1em;height: 1em;vertical-align: middle;fill: currentColor;overflow: hidden;" viewBox="0 0 1024 1024" version="1.1" xmlns="http://www.w3.org/2000/svg" width="32" height="32"><path d="M210.823529 705.897412a26.352941 26.352941 0 0 1-26.352941-26.352941v-84.028236c0-6.806588 2.650353-13.372235 7.378824-18.281411l98.785882-102.4a377.735529 377.735529 0 0 1 167.454118-290.454589l25.118117-16.745411a79.058824 79.058824 0 0 1 87.702589 0l25.118117 16.745411a377.735529 377.735529 0 0 1 167.454118 290.454589l98.785882 102.4c4.728471 4.909176 7.378824 11.444706 7.378824 18.311529v84.028235a26.352941 26.352941 0 0 1-26.352941 26.322824H210.823529z m79.058824-154.383059l-52.705882 54.633412v47.043764l52.705882-0.030117v-101.647059z m222.569412-340.028235l-25.118118 16.745411a325.029647 325.029647 0 0 0-144.745412 270.456471v154.503529h368.941177v-154.503529c0-105.411765-51.079529-204.016941-136.613647-264.854588l-8.131765-5.601883-25.118118-16.745411a26.352941 26.352941 0 0 0-29.214117 0z m251.783529 340.058353v101.616941h52.705882v-46.98353l-52.705882-54.633411zM527.058824 319.397647a131.764706 131.764706 0 1 1 0 263.529412 131.764706 131.764706 0 0 1 0-263.529412z m0 421.647059c14.546824 0 26.352941 11.806118 26.352941 26.352941v105.411765a26.352941 26.352941 0 1 1-52.705883 0v-105.411765c0-14.546824 11.806118-26.352941 26.352942-26.352941z m-140.559059 35.147294c14.576941 0 26.352941 11.806118 26.352941 26.352941v35.117177a26.352941 26.352941 0 0 1-52.705882 0v-35.117177c0-14.546824 11.806118-26.352941 26.352941-26.352941z m281.118117 0c14.546824 0 26.352941 11.806118 26.352942 26.352941v35.117177a26.352941 26.352941 0 0 1-52.705883 0v-35.117177c0-14.546824 11.776-26.352941 26.352941-26.352941z" fill="#568af2" /></svg>