<svg class="icon" style="width: 1em;height: 1em;vertical-align: middle;fill: currentColor;overflow: hidden;" viewBox="0 0 1024 1024" version="1.1" xmlns="http://www.w3.org/2000/svg" width="32" height="32"><path d="M629.970824 244.705882c14.546824 0 26.352941 11.806118 26.352941 26.352942l-0.030118 96.617411h124.265412c8.252235 0 16.022588 3.885176 21.022117 10.480941l112.941177 149.323295a26.352941 26.352941 0 0 1 5.330823 15.902117V692.705882a26.352941 26.352941 0 0 1-26.352941 26.352942h-100.291764a96.677647 96.677647 0 0 1-185.946353 0.030117H389.12a96.677647 96.677647 0 0 1-185.976471 0L120.470588 719.058824A26.352941 26.352941 0 0 1 94.117647 692.705882V271.058824c0-14.546824 11.806118-26.352941 26.352941-26.352942h509.500236z m-26.383059 52.705883H146.823529v368.941176h56.32a96.677647 96.677647 0 0 1 186.006589 0h214.437647V297.411765z m163.84 122.970353h-111.134118v186.247529l5.722353-2.710588a96.677647 96.677647 0 0 1 131.192471 62.403765h73.938823v-114.115765l-99.689412-131.824941z" fill="#568af2" /></svg>