<svg class="icon" style="width: 1em;height: 1em;vertical-align: middle;fill: currentColor;overflow: hidden;" viewBox="0 0 1024 1024" version="1.1" xmlns="http://www.w3.org/2000/svg" width="32" height="32"><path d="M293.647059 879.676235a26.352941 26.352941 0 1 1 0-52.705882h51.350588l48.790588-144.865882a289.972706 289.972706 0 0 1-179.2-267.986824 289.882353 289.882353 0 0 1 289.882353-289.882353 289.882353 289.882353 0 0 1 289.882353 289.882353 289.972706 289.972706 0 0 1-179.561412 268.137412l49.121883 144.715294h51.380706a26.352941 26.352941 0 0 1 0 52.705882h-421.647059z m208.745412-175.706353l-60.385883 0.030118-41.411764 122.970353h207.600941l-41.743059-122.970353H504.470588l-2.078117-0.030118z m2.078117-421.616941a131.764706 131.764706 0 1 0 0 263.529412 131.764706 131.764706 0 0 0 0-263.529412z m0 52.705883a79.058824 79.058824 0 1 1 0 158.117647 79.058824 79.058824 0 0 1 0-158.117647z" fill="#568af2" /></svg>