<svg class="icon" style="width: 1em;height: 1em;vertical-align: middle;fill: currentColor;overflow: hidden;" viewBox="0 0 1024 1024" version="1.1" xmlns="http://www.w3.org/2000/svg" width="32" height="32"><path d="M702.433882 124.235294c28.611765 0 51.772235 23.190588 51.772236 51.742118V624.941176a254.735059 254.735059 0 0 1-509.500236 0V175.977412c0-28.581647 23.190588-51.742118 51.742118-51.742118h405.985882z m-202.992941 351.382588a149.323294 149.323294 0 1 0 0 298.646589 149.323294 149.323294 0 0 0 0-298.646589z m0 52.705883a96.617412 96.617412 0 1 1 0 193.234823 96.617412 96.617412 0 0 1 0-193.234823z m-70.26447-193.264941H376.470588a26.352941 26.352941 0 0 0-3.312941 52.495058l3.312941 0.210824h52.705883a26.352941 26.352941 0 1 0 0-52.705882z m193.264941 0h-52.705883a26.352941 26.352941 0 0 0-3.312941 52.495058l3.312941 0.210824h52.705883a26.352941 26.352941 0 0 0 0-52.705882zM376.470588 220.852706a35.147294 35.147294 0 1 0 0 70.294588 35.147294 35.147294 0 0 0 0-70.294588z" fill="#568af2" /></svg>