<svg class="icon" style="width: 1em;height: 1em;vertical-align: middle;fill: currentColor;overflow: hidden;" viewBox="0 0 1024 1024" version="1.1" xmlns="http://www.w3.org/2000/svg" width="32" height="32"><path d="M851.787294 193.264941a26.352941 26.352941 0 1 1 0 52.705883H526.787765v260.608l284.400941 76.197647a26.352941 26.352941 0 0 1 15.179294 39.996235l-10.541176 15.811765 32.647529 8.734117a26.352941 26.352941 0 0 1 18.612706 32.286118l-36.352 135.770353a26.352941 26.352941 0 0 1-32.286118 18.642823l-83.486117-22.377411-20.148706 30.509176a26.352941 26.352941 0 0 1-28.792471 10.932706l-492.122353-131.855059a26.352941 26.352941 0 0 1-18.672941-32.286118l63.698823-237.568a26.352941 26.352941 0 0 1 32.256-18.642823l222.870589 59.723294V245.970824H184.229647a26.352941 26.352941 0 0 1 0-52.705883h667.587765z m-64.993882 492.122353l-43.971765 79.149177 43.821177 11.715764 22.708705-84.841411-22.588235-6.02353z" fill="#568af2" /></svg>