<svg class="icon" style="width: 1em;height: 1em;vertical-align: middle;fill: currentColor;overflow: hidden;" viewBox="0 0 1024 1024" version="1.1" xmlns="http://www.w3.org/2000/svg" width="32" height="32"><path d="M512 124.235294A237.176471 237.176471 0 0 1 749.176471 361.411765v140.559059a237.176471 237.176471 0 0 1-474.352942 0V361.411765A237.176471 237.176471 0 0 1 512 124.235294z m0 430.441412a35.147294 35.147294 0 1 0 0 70.26447 35.147294 35.147294 0 0 0 0-70.26447z m0-307.471059a131.764706 131.764706 0 1 0 0 263.529412 131.764706 131.764706 0 0 0 0-263.529412z" fill="#568af2" /><path d="M512 299.911529a79.058824 79.058824 0 1 0 0 158.117647 79.058824 79.058824 0 0 0 0-158.117647zM512 686.441412c14.546824 0 26.352941 11.776 26.352941 26.352941v140.528941a26.352941 26.352941 0 1 1-52.705882 0v-140.528941c0-14.576941 11.806118-26.352941 26.352941-26.352941z" fill="#568af2" /><path d="M652.559059 826.970353a26.352941 26.352941 0 0 1 0 52.705882h-281.118118a26.352941 26.352941 0 0 1 0-52.705882h281.118118z" fill="#568af2" /></svg>