<svg class="icon" style="width: 1em;height: 1em;vertical-align: middle;fill: currentColor;overflow: hidden;" viewBox="0 0 1024 1024" version="1.1" xmlns="http://www.w3.org/2000/svg" width="32" height="32"><path d="M449.264941 219.617882a26.352941 26.352941 0 0 1 0 52.705883H273.558588a26.352941 26.352941 0 0 0-26.352941 26.352941v342.588235h509.470118l0.030117-149.353412c0-13.432471 10.059294-24.515765 23.04-26.142117l3.312942-0.210824c14.546824 0 26.352941 11.806118 26.352941 26.352941v149.323295h43.911529c14.576941 0 26.352941 11.806118 26.352941 26.383058v35.117177a131.764706 131.764706 0 0 1-131.764706 131.764706H256a131.764706 131.764706 0 0 1-131.764706-131.764706v-35.117177c0-14.576941 11.806118-26.352941 26.352941-26.352941l43.91153-0.030117V298.676706a79.058824 79.058824 0 0 1 79.058823-79.058824h175.706353z m293.376-35.147294c46.411294 0 84.329412 36.833882 84.329412 82.642824 0 61.861647-64.903529 125.500235-123.663059 144.474353a26.352941 26.352941 0 0 1-16.173176 0c-58.789647-18.974118-123.693176-82.612706-123.693177-144.474353 0-45.808941 37.948235-82.642824 84.329412-82.642824 15.781647 0 30.840471 4.276706 43.791059 11.986824l3.644235 2.379294 3.644235-2.379294a85.323294 85.323294 0 0 1 37.948236-11.776l5.842823-0.210824z" fill="#568af2" /></svg>