<svg class="icon" style="width: 1em;height: 1em;vertical-align: middle;fill: currentColor;overflow: hidden;" viewBox="0 0 1024 1024" version="1.1" xmlns="http://www.w3.org/2000/svg" width="32" height="32"><path d="M569.584941 196.788706l275.937883 275.937882c16.414118 16.444235 16.414118 43.068235 0 59.482353l-13.733648 13.733647a236.965647 236.965647 0 0 1-215.009882 64.752941 38.339765 38.339765 0 0 1-5.12 6.324706l-202.24 202.24a131.764706 131.764706 0 0 1-186.368-186.337882l202.270118-202.270118a39.152941 39.152941 0 0 1 6.324706-5.12c-15.269647-75.324235 6.324706-156.611765 64.722823-215.009882l13.733647-13.733647a42.044235 42.044235 0 0 1 59.482353 0z m-119.567059 283.708235l-189.680941 189.680941a79.058824 79.058824 0 0 0 111.796706 111.796706l189.650824-189.680941a236.784941 236.784941 0 0 1-65.41553-46.351059 236.784941 236.784941 0 0 1-46.381176-65.445647z m-3.343058 115.139765a26.352941 26.352941 0 0 1 0 37.285647l-24.847059 24.847059a26.352941 26.352941 0 1 1-37.25553-37.285647l24.847059-24.847059a26.352941 26.352941 0 0 1 37.25553 0z m99.388235-186.337882a26.352941 26.352941 0 0 0-2.349177 34.575058l2.349177 2.710589 49.694117 49.694117a26.352941 26.352941 0 0 0 39.634824-34.575059l-2.379294-2.710588-49.694118-49.694117a26.352941 26.352941 0 0 0-37.255529 0z" fill="#568af2" /></svg>