<svg class="icon" style="width: 1em;height: 1em;vertical-align: middle;fill: currentColor;overflow: hidden;" viewBox="0 0 1024 1024" version="1.1" xmlns="http://www.w3.org/2000/svg" width="32" height="32"><path d="M696.801882 361.411765c23.883294 0 43.218824 19.365647 43.218824 43.218823V662.588235a232.327529 232.327529 0 0 1-464.655059 0v-257.957647c0-23.853176 19.365647-43.218824 43.218824-43.218823h378.217411z m-10.24 327.017411H328.824471a180.766118 180.766118 0 0 0 172.092235 154.744471l6.77647 0.120471 7.168-0.150589a180.766118 180.766118 0 0 0 171.700706-154.714353z m1.837177-275.395764h-361.411765v223.713882h361.411765v-223.713882z" fill="#568af2" /><path d="M662.588235 154.895059c14.245647 0 25.810824 11.565176 25.810824 25.810823v206.516706a25.810824 25.810824 0 0 1-25.810824 25.810824H352.798118a25.810824 25.810824 0 0 1-25.810824-25.810824V180.705882c0-14.245647 11.565176-25.810824 25.810824-25.810823H662.588235zM456.071529 240.941176a25.810824 25.810824 0 0 0-25.810823 25.810824V301.176471A25.810824 25.810824 0 1 0 481.882353 301.176471V266.752A25.810824 25.810824 0 0 0 456.071529 240.941176z m103.243295 0a25.810824 25.810824 0 0 0-25.810824 25.810824V301.176471a25.810824 25.810824 0 0 0 51.651765 0V266.752A25.810824 25.810824 0 0 0 559.284706 240.941176z" fill="#568af2" /></svg>