<svg class="icon" style="width: 1em;height: 1em;vertical-align: middle;fill: currentColor;overflow: hidden;" viewBox="0 0 1024 1024" version="1.1" xmlns="http://www.w3.org/2000/svg" width="32" height="32"><path d="M326.264471 304.941176l2.981647 0.150589a33.731765 33.731765 0 0 1 3.312941-0.150589h361.411765c24.937412 0 45.176471 27.527529 45.17647 61.500236l-0.030118 43.911529h114.206118c14.576941 0 26.352941 11.806118 26.352941 26.352941v175.676236a26.352941 26.352941 0 0 1-26.352941 26.352941h-114.206118v43.941647c0 33.942588-20.178824 61.470118-45.17647 61.470118h-361.411765l-3.312941-0.150589a26.654118 26.654118 0 0 1-2.951529 0.150589H150.588235a26.352941 26.352941 0 0 1-26.352941-26.352942V331.294118c0-14.546824 11.806118-26.352941 26.352941-26.352942h175.676236z m-38.430118 52.705883H176.941176v333.793882l110.893177 0.030118a84.058353 84.058353 0 0 1-0.451765-8.794353v-316.235294c0-3.011765 0.150588-5.933176 0.451765-8.794353zM607.382588 542.117647a35.147294 35.147294 0 1 0 0 70.264471 35.147294 35.147294 0 0 0 0-70.264471z m219.557647-79.058823h-87.823059v122.970352h87.853177v-122.970352z m-219.557647-26.352942a35.147294 35.147294 0 1 0 0 70.264471 35.147294 35.147294 0 0 0 0-70.264471z" fill="#568af2" /></svg>