<svg class="icon" style="width: 1em;height: 1em;vertical-align: middle;fill: currentColor;overflow: hidden;" viewBox="0 0 1024 1024" version="1.1" xmlns="http://www.w3.org/2000/svg" width="32" height="32"><path d="M373.970824 154.352941c56.109176 0 107.339294 21.082353 146.160941 55.717647l18.883764-18.883764a26.352941 26.352941 0 1 1 37.285647 37.255529l-21.263058 21.232941a218.352941 218.352941 0 0 1 37.857882 106.797177l138.24 217.359058c21.413647 33.641412 23.250824 74.992941 7.077647 109.507765l128.722824 128.783059c16.624941 16.564706 4.848941 44.965647-18.612706 44.965647h-158.117647a26.352941 26.352941 0 1 1 0-52.705882h94.479058l-79.510588-79.540706a113.965176 113.965176 0 0 1-131.343059 6.324706l-217.359058-138.270118a218.352941 218.352941 0 0 1-106.797177-37.857882l-21.232941 21.263058a26.352941 26.352941 0 0 1-37.255529-37.285647l18.883764-18.883764a219.617882 219.617882 0 0 1 163.900236-365.778824z m142.96847 133.451294l-229.135059 229.135059a166.128941 166.128941 0 0 0 86.136471 23.913412c23.491765 0 45.839059-4.818824 66.108235-13.583059 5.210353-2.379294 10.360471-4.969412 15.36-7.830588 13.673412-7.710118 25.961412-16.835765 36.562824-27.467294 10.631529-10.601412 19.757176-22.889412 27.467294-36.532706a204.8 204.8 0 0 0 7.830588-15.36c8.734118-20.299294 13.583059-42.646588 13.583059-66.108235 0-31.533176-8.734118-61.018353-23.913412-86.136471z m-142.96847-80.745411a166.912 166.912 0 0 0-126.554353 275.727058l235.369411-235.369411a166.249412 166.249412 0 0 0-108.815058-40.357647z" fill="#568af2" /></svg>