<svg class="icon" style="width: 1em;height: 1em;vertical-align: middle;fill: currentColor;overflow: hidden;" viewBox="0 0 1024 1024" version="1.1" xmlns="http://www.w3.org/2000/svg" width="32" height="32"><path d="M790.588235 184.470588a79.058824 79.058824 0 0 1 79.058824 79.058824v527.058823a79.058824 79.058824 0 0 1-79.058824 79.058824H263.529412a79.058824 79.058824 0 0 1-79.058824-79.058824V263.529412A79.058824 79.058824 0 0 1 263.529412 184.470588h527.058823z m0 52.705883H263.529412a26.352941 26.352941 0 0 0-26.352941 26.352941v527.058823c0 14.546824 11.806118 26.352941 26.352941 26.352941h527.058823a26.352941 26.352941 0 0 0 26.352941-26.352941V263.529412a26.352941 26.352941 0 0 0-26.352941-26.352941z m-105.411764 105.411764c14.546824 0 26.352941 11.806118 26.352941 26.352941l0.030117 45.44753c10.24 3.614118 17.528471 13.372235 17.528471 24.816941v140.559059a26.352941 26.352941 0 0 1-26.352941 26.352941h-61.500235v79.058824a26.352941 26.352941 0 0 1-26.322824 26.352941h-175.706353a26.352941 26.352941 0 0 1-26.352941-26.352941v-79.058824h-61.470118a26.352941 26.352941 0 0 1-26.352941-26.352941v-140.559059c0-11.444706 7.318588-21.232941 17.558588-24.847059V368.941176a26.352941 26.352941 0 1 1 52.705883 0v43.91153h52.705882V368.941176a26.352941 26.352941 0 1 1 52.705882 0v43.91153h52.705883V368.941176a26.352941 26.352941 0 1 1 52.705882 0v43.91153h52.705882V368.941176c0-14.546824 11.806118-26.352941 26.352942-26.352941z" fill="#568af2" /></svg>