<svg class="icon" style="width: 1em;height: 1em;vertical-align: middle;fill: currentColor;overflow: hidden;" viewBox="0 0 1024 1024" version="1.1" xmlns="http://www.w3.org/2000/svg" width="32" height="32"><path d="M479.382588 154.352941a26.352941 26.352941 0 0 1 0 52.705883H233.411765a26.352941 26.352941 0 0 0-26.352941 26.352941v386.499764c0 14.576941 11.806118 26.352941 26.352941 26.352942h527.058823a26.352941 26.352941 0 0 0 26.352941-26.352942V496.941176a26.352941 26.352941 0 0 1 52.705883 0v122.970353a79.058824 79.058824 0 0 1-79.058824 79.058824h-237.17647v87.823059l149.323294 0.030117a26.352941 26.352941 0 0 1 0 52.705883h-174.712471a26.804706 26.804706 0 0 1-0.963765 0.030117l-0.933647-0.060235-174.742588 0.030118a26.352941 26.352941 0 1 1 0-52.705883l149.323294-0.030117v-87.823059H233.411765a79.058824 79.058824 0 0 1-79.058824-79.058824V233.411765A79.058824 79.058824 0 0 1 233.411765 154.352941h245.970823z m228.382118 0.030118a131.764706 131.764706 0 1 1 0 263.529412 131.764706 131.764706 0 0 1 0-263.529412zM673.731765 214.799059c-14.456471 6.927059-26.503529 18.100706-34.484706 31.924706l-2.800941 5.330823 105.411764 105.472c14.486588-6.927059 26.533647-18.130824 34.514824-31.984941l2.800941-5.330823-105.441882-105.411765z" fill="#568af2" /></svg>