<svg class="icon" style="width: 1em;height: 1em;vertical-align: middle;fill: currentColor;overflow: hidden;" viewBox="0 0 1024 1024" version="1.1" xmlns="http://www.w3.org/2000/svg" width="32" height="32"><path d="M666.684235 94.117647c14.576941 0 26.352941 11.806118 26.352941 26.352941v79.058824H752.941176c33.972706 0 61.500235 27.527529 61.500236 61.500235l-0.030118 59.873882h79.088941a26.352941 26.352941 0 0 1 0 52.705883H814.381176v107.008h79.088942a26.352941 26.352941 0 0 1 0 52.705882H814.381176v107.008h79.088942a26.352941 26.352941 0 0 1 0 52.705882H814.381176V752.941176A61.500235 61.500235 0 0 1 752.941176 814.441412l-59.904-0.030118v79.088941a26.352941 26.352941 0 0 1-52.705882 0V814.381176h-107.008v79.088942a26.352941 26.352941 0 0 1-52.705882 0V814.381176h-107.008v79.088942a26.352941 26.352941 0 0 1-52.705883 0V814.381176H261.029647A61.500235 61.500235 0 0 1 199.529412 752.941176v-59.904H120.470588a26.352941 26.352941 0 1 1 0-52.705882h79.058824v-107.008H120.470588a26.352941 26.352941 0 1 1 0-52.705882h79.058824v-107.008H120.470588a26.352941 26.352941 0 0 1 0-52.705883h79.058824V261.029647c0-33.972706 27.527529-61.500235 61.500235-61.500235h59.873882V120.470588a26.352941 26.352941 0 1 1 52.705883 0v79.058824h107.008V120.470588a26.352941 26.352941 0 0 1 52.705882 0v79.058824h107.008V120.470588c0-14.546824 11.806118-26.352941 26.352941-26.352941zM752.941176 252.235294H261.029647a8.794353 8.794353 0 0 0-8.794353 8.794353V752.941176c0 4.848941 3.915294 8.794353 8.794353 8.794353H752.941176c4.848941 0 8.794353-3.915294 8.794353-8.794353V261.029647A8.794353 8.794353 0 0 0 752.941176 252.235294z m-140.559058 122.970353c14.576941 0 26.352941 11.806118 26.352941 26.352941v210.82353a26.352941 26.352941 0 0 1-26.352941 26.352941h-210.82353a26.352941 26.352941 0 0 1-26.352941-26.352941v-210.82353c0-14.546824 11.806118-26.352941 26.352941-26.352941h210.82353z" fill="#568af2" /></svg>