<svg class="icon" style="width: 1em;height: 1em;vertical-align: middle;fill: currentColor;overflow: hidden;" viewBox="0 0 1024 1024" version="1.1" xmlns="http://www.w3.org/2000/svg" width="32" height="32"><path d="M557.176471 124.235294a96.617412 96.617412 0 1 1-45.176471 182.091294l-117.398588 146.793412c4.096 6.987294 7.348706 14.516706 9.607529 22.497882h235.670588a96.677647 96.677647 0 0 1 189.620706 26.352942 96.617412 96.617412 0 0 1-141.793882 85.443764l-117.428706 146.793412a96.617412 96.617412 0 1 1-38.249412-36.592941l117.458824-146.82353a96.075294 96.075294 0 0 1-9.637647-22.467764h-235.640471a96.677647 96.677647 0 0 1-189.620706-26.352941 96.617412 96.617412 0 0 1 141.763765-85.473883l117.458824-146.793412a96.617412 96.617412 0 0 1 83.395764-145.468235z" fill="#568af2" /></svg>