<svg class="icon" style="width: 1em;height: 1em;vertical-align: middle;fill: currentColor;overflow: hidden;" viewBox="0 0 1024 1024" version="1.1" xmlns="http://www.w3.org/2000/svg" width="32" height="32"><path d="M755.440941 184.470588a114.206118 114.206118 0 0 1 26.383059 225.340236V729.148235a140.468706 140.468706 0 0 1-280.816941 6.415059l-0.150588-6.415059V325.089882a87.943529 87.943529 0 0 0-175.676236-5.150117l-0.150588 5.150117v319.247059a114.236235 114.236235 0 0 1-26.352941 225.310118 114.206118 114.206118 0 0 1-26.383059-225.340235V325.089882a140.649412 140.649412 0 0 1 281.118118-6.445176l0.150588 6.445176v404.088471a87.762824 87.762824 0 0 0 175.375059 5.150118l0.150588-5.150118V409.810824a114.236235 114.236235 0 0 1 26.352941-225.340236z" fill="#568af2" /></svg>