<svg class="icon" style="width: 1em;height: 1em;vertical-align: middle;fill: currentColor;overflow: hidden;" viewBox="0 0 1024 1024" version="1.1" xmlns="http://www.w3.org/2000/svg" width="32" height="32"><path d="M783.058824 184.470588c13.432471 0 24.515765 10.059294 26.142117 23.04l0.210824 3.312941v210.82353a26.352941 26.352941 0 0 1-23.04 26.142117l-3.312941 0.210824h-254.765177v87.823059H783.058824c13.432471 0 24.515765 10.059294 26.142117 23.070117l0.210824 3.312942v114.176h43.911529c13.432471 0 24.545882 10.059294 26.172235 23.070117l0.180706 3.312941V843.294118a26.352941 26.352941 0 0 1-26.352941 26.352941h-140.528941a26.352941 26.352941 0 0 1-26.352941-26.352941v-140.559059c0-14.546824 11.776-26.352941 26.352941-26.352941h43.911529v-87.853177l-228.412235-0.030117v87.883294H572.235294c13.432471 0 24.515765 10.059294 26.142118 23.070117l0.210823 3.312941V843.294118a26.352941 26.352941 0 0 1-26.352941 26.352941h-140.559059a26.352941 26.352941 0 0 1-26.352941-26.352941v-140.559059c0-14.546824 11.806118-26.352941 26.352941-26.352941h43.91153V588.498824l-228.382118 0.030117v87.853177h43.941647c13.432471 0 24.515765 10.059294 26.142118 23.070117l0.210823 3.312941V843.294118a26.352941 26.352941 0 0 1-23.070117 26.142117l-3.312942 0.210824H150.588235a26.352941 26.352941 0 0 1-26.142117-23.04L124.235294 843.294118v-140.559059c0-13.432471 10.059294-24.515765 23.04-26.142118l3.312941-0.210823h43.91153v-114.176c0-13.432471 10.059294-24.545882 23.070117-26.172236l3.312942-0.180706 254.704941-0.030117v-87.823059H220.852706a26.352941 26.352941 0 0 1-26.142118-23.04L194.499765 421.647059V210.823529c0-13.432471 10.059294-24.515765 23.070117-26.142117l3.312942-0.210824H783.058824z m-421.647059 105.411765h-35.147294l-3.312942 0.210823a26.352941 26.352941 0 0 0 0 52.284236l3.312942 0.210823H361.411765l3.312941-0.210823A26.352941 26.352941 0 0 0 361.411765 289.882353z" fill="#568af2" /></svg>