<svg class="icon" style="width: 1em;height: 1em;vertical-align: middle;fill: currentColor;overflow: hidden;" viewBox="0 0 1024 1024" version="1.1" xmlns="http://www.w3.org/2000/svg" width="32" height="32"><path d="M790.588235 184.470588a79.058824 79.058824 0 0 1 79.058824 79.058824v527.058823a79.058824 79.058824 0 0 1-79.058824 79.058824H263.529412a79.058824 79.058824 0 0 1-79.058824-79.058824V263.529412A79.058824 79.058824 0 0 1 263.529412 184.470588z m-87.853176 140.559059H351.382588a26.352941 26.352941 0 0 0-26.352941 26.352941v351.352471c0 14.576941 11.776 26.352941 26.352941 26.352941h351.352471a26.352941 26.352941 0 0 0 26.352941-26.352941V351.382588a26.352941 26.352941 0 0 0-26.352941-26.352941z" fill="#568af2" /></svg>