<svg class="icon" style="width: 1em;height: 1em;vertical-align: middle;fill: currentColor;overflow: hidden;" viewBox="0 0 1024 1024" version="1.1" xmlns="http://www.w3.org/2000/svg" width="32" height="32"><path d="M501.970824 154.352941l9.155764 0.120471c204.378353 4.848941 368.549647 172.062118 368.549647 377.615059 0 208.594824-169.110588 377.705412-377.705411 377.705411-208.624941 0-377.735529-169.110588-377.73553-377.705411 0-208.624941 169.110588-377.735529 377.73553-377.73553z m-26.383059 614.881883l-195.824941 0.060235a323.915294 323.915294 0 0 0 179.350588 84.992l8.553412 1.024 7.920941 0.692706v-86.768941z m0-140.528942h-284.009412a323.764706 323.764706 0 0 0 42.977882 88.154353l0.572236-0.12047 3.312941-0.180706 237.146353-0.030118v-87.823059z m0-140.559058H179.892706a327.981176 327.981176 0 0 0 0 87.853176h295.695059v-87.853176z m-241.03153-140.830118l-1.415529 2.017882a323.704471 323.704471 0 0 0-41.592471 86.136471l284.03953-0.030118v-87.853176H238.441412a26.563765 26.563765 0 0 1-3.885177-0.271059z m241.03153-139.203765l-7.920941 0.722824A323.855059 323.855059 0 0 0 279.792941 294.881882h195.824941V208.112941z" fill="#568af2" /></svg>