<svg class="icon" style="width: 1em;height: 1em;vertical-align: middle;fill: currentColor;overflow: hidden;" viewBox="0 0 1024 1024" version="1.1" xmlns="http://www.w3.org/2000/svg" width="32" height="32"><path d="M725.955765 712.161882l2.710588 2.349177 140.528941 139.89647a26.352941 26.352941 0 0 1-34.454588 39.725177l-2.710588-2.349177-140.559059-139.926588a26.352941 26.352941 0 0 1 34.484706-39.695059z m-72.282353-554.405647a26.352941 26.352941 0 0 1 39.303529 23.672471l-6.144 219.136 162.635294 147.877647a26.352941 26.352941 0 0 1-6.927059 43.610353l-3.373176 1.204706-211.365647 61.921882-90.985412 199.710118a26.352941 26.352941 0 0 1-43.52 6.806588l-2.16847-2.770824-124.536471-180.976941-218.955294-24.455529a26.352941 26.352941 0 0 1-19.787294-39.544471l1.897412-2.770823 134.324705-173.748706-44.242823-214.738824a26.352941 26.352941 0 0 1 31.412706-31.081411l3.222588 0.903529 207.570824 73.577412z" fill="#568af2" /></svg>