<svg class="icon" style="width: 1em;height: 1em;vertical-align: middle;fill: currentColor;overflow: hidden;" viewBox="0 0 1024 1024" version="1.1" xmlns="http://www.w3.org/2000/svg" width="32" height="32"><path d="M501.970824 124.235294a237.176471 237.176471 0 0 1 229.225411 298.224941 237.327059 237.327059 0 0 1 148.48 220.03953 237.176471 237.176471 0 0 1-377.735529 191.066353 237.176471 237.176471 0 1 1-229.195294-411.105883 237.176471 237.176471 0 0 1 229.195294-298.224941zM291.84 471.612235l-4.879059 2.048a184.470588 184.470588 0 1 0 252.897883 121.916236 237.146353 237.146353 0 0 1-247.988706-123.964236z m420.141176-0.030117l-2.951529 5.541647a238.049882 238.049882 0 0 1-118.452706 104.357647 235.52 235.52 0 0 1 7.981177 61.018353 236.242824 236.242824 0 0 1-57.072942 154.352941 184.470588 184.470588 0 0 0 170.526118-325.270588z" fill="#568af2" /></svg>