<svg class="icon" style="width: 1em;height: 1em;vertical-align: middle;fill: currentColor;overflow: hidden;" viewBox="0 0 1024 1024" version="1.1" xmlns="http://www.w3.org/2000/svg" width="32" height="32"><path d="M197.180235 489.652706c10.932706 9.577412 12.047059 26.202353 2.499765 37.165176-15.239529 17.438118-22.738824 35.237647-22.738824 52.946824 0 67.674353 109.507765 131.011765 258.017883 146.010353l-21.89553-21.985883a26.352941 26.352941 0 0 1 34.544942-39.604705l2.710588 2.349176 70.26447 70.294588a26.563765 26.563765 0 0 1 2.710589 3.132236l1.65647 2.590117 1.505883 3.192471 0.481882 1.325176a26.473412 26.473412 0 0 1-0.060235 16.956236l-0.843294 2.16847-1.566118 3.011765-1.505882 2.16847-2.379295 2.710589-70.26447 70.26447a26.352941 26.352941 0 0 1-39.634824-34.544941l2.379294-2.710588 27.798589-27.828706c-178.296471-14.938353-316.626824-94.659765-316.626824-199.499294 0-31.322353 12.559059-61.078588 35.749647-87.642353a26.352941 26.352941 0 0 1 37.195294-2.469647z m646.746353 2.499765c23.190588 26.503529 35.749647 56.32 35.749647 87.612235 0 86.377412-93.876706 156.732235-231.54447 186.819765a26.352941 26.352941 0 0 1-11.233883-51.501177c116.314353-25.419294 190.072471-80.715294 190.072471-135.318588 0-17.709176-7.499294-35.538824-22.708706-52.946824a26.352941 26.352941 0 1 1 39.664941-34.665411zM589.793882 184.470588c8.884706 0 17.076706 4.457412 21.925647 11.715765l1.656471 2.861176 27.828706 55.68753h71.589647c12.318118 0 22.648471 8.432941 25.539765 19.877647l0.602353 3.19247 0.210823 3.312942v281.088a26.352941 26.352941 0 0 1-23.070118 26.142117l-3.312941 0.210824h-421.647059a26.352941 26.352941 0 0 1-26.142117-23.070118l-0.180706-3.312941V281.118118c0-13.432471 10.029176-24.515765 23.04-26.142118l3.312941-0.210824h71.529412l27.858823-55.717647a26.352941 26.352941 0 0 1 17.106824-13.733647l3.192471-0.602353 3.282823-0.210823h175.676235z m-87.823058 122.970353a96.617412 96.617412 0 1 0 0 193.264941 96.617412 96.617412 0 0 0 0-193.264941z" fill="#568af2" /></svg>