<svg class="icon" style="width: 1em;height: 1em;vertical-align: middle;fill: currentColor;overflow: hidden;" viewBox="0 0 1024 1024" version="1.1" xmlns="http://www.w3.org/2000/svg" width="32" height="32"><path d="M795.617882 154.352941a79.058824 79.058824 0 0 1 79.058824 79.058824v562.206117a79.058824 79.058824 0 0 1-79.058824 79.058824H233.411765a79.058824 79.058824 0 0 1-79.058824-79.058824V233.411765A79.058824 79.058824 0 0 1 233.411765 154.352941z m-209.769411 517.210353a26.352941 26.352941 0 0 0-37.25553 0l-34.093176 34.032941-34.032941-34.032941-2.710589-2.349176a26.352941 26.352941 0 0 0-34.575059 39.604706l52.705883 52.705882 2.710588 2.379294a26.352941 26.352941 0 0 0 34.544941-2.379294l52.705883-52.705882 2.349176-2.710589a26.352941 26.352941 0 0 0-2.349176-34.544941z m120.289882-230.761412a26.352941 26.352941 0 0 0-34.575059 2.379294l-2.349176 2.710589a26.352941 26.352941 0 0 0 2.349176 34.544941l34.032941 34.063059-34.032941 34.093176-2.349176 2.710588a26.352941 26.352941 0 0 0 39.604706 34.544942l52.705882-52.705883 2.379294-2.710588a26.352941 26.352941 0 0 0-2.379294-34.544941l-52.705882-52.705883z m-348.672 2.379294a26.352941 26.352941 0 0 0-37.285647 0l-52.705882 52.705883-2.349177 2.710588a26.352941 26.352941 0 0 0 2.349177 34.544941l52.705882 52.705883 2.710588 2.349176a26.352941 26.352941 0 0 0 34.575059-2.349176l2.349176-2.710589a26.352941 26.352941 0 0 0-2.349176-34.544941l-34.093177-34.093176 34.093177-34.032941 2.349176-2.710589a26.352941 26.352941 0 0 0-2.349176-34.575059z m172.965647-178.055529a26.352941 26.352941 0 0 0-34.544941 2.349177l-52.705883 52.705882-2.379294 2.710588a26.352941 26.352941 0 0 0 2.379294 34.575059l2.710589 2.349176a26.352941 26.352941 0 0 0 34.544941-2.349176l34.063059-34.093177 34.093176 34.093177 2.710588 2.349176a26.352941 26.352941 0 0 0 34.544942-39.634823l-52.705883-52.705882z" fill="#568af2" /></svg>