<svg class="icon" style="width: 1em;height: 1em;vertical-align: middle;fill: currentColor;overflow: hidden;" viewBox="0 0 1024 1024" version="1.1" xmlns="http://www.w3.org/2000/svg" width="32" height="32"><path d="M501.970824 124.235294c208.594824 0 377.705412 169.110588 377.705411 377.73553 0 208.594824-169.110588 377.705412-377.705411 377.705411-208.624941 0-377.735529-169.110588-377.73553-377.705411 0-208.624941 169.110588-377.735529 377.73553-377.73553z m0 52.705882c-179.501176 0-325.029647 145.528471-325.029648 325.029648 0 70.656 22.588235 136.071529 60.867765 189.44l121.464471-136.673883a26.352941 26.352941 0 0 1 33.490823-4.969412l2.831059 2.017883 96.527059 78.396235 129.807059-162.243765a26.352941 26.352941 0 0 1 34.093176-6.174117l2.95153 2.048 156.28047 124.988235c7.649882-27.648 11.745882-56.771765 11.745883-86.829176 0-179.501176-145.528471-325.029647-325.029647-325.029648z m-105.411765 105.411765a96.617412 96.617412 0 1 1 0 193.264941 96.617412 96.617412 0 0 1 0-193.264941z" fill="#568af2" /></svg>