<svg class="icon" style="width: 1em;height: 1em;vertical-align: middle;fill: currentColor;overflow: hidden;" viewBox="0 0 1024 1024" version="1.1" xmlns="http://www.w3.org/2000/svg" width="32" height="32"><path d="M676.382118 180.705882c0-14.546824 11.806118-26.352941 26.352941-26.352941H843.294118c14.546824 0 26.352941 11.806118 26.352941 26.352941l-0.030118 104.929883 0.030118 0.481882v281.088c0 189.229176-153.389176 342.588235-342.588235 342.588235-186.247529 0-337.799529-148.630588-342.467765-333.733647l-0.120471-8.854588V180.705882c0-14.546824 11.806118-26.352941 26.352941-26.352941h140.559059c14.546824 0 26.352941 11.806118 26.352941 26.352941v386.499765a149.323294 149.323294 0 0 0 298.526118 6.475294l0.120471-6.475294z m140.559058 131.764706h-87.853176v254.735059a202.029176 202.029176 0 0 1-403.937882 7.107765l-0.120471-7.107765-0.030118-254.735059H237.176471v254.735059a289.882353 289.882353 0 0 0 289.882353 289.882353c157.334588 0 285.394824-125.349647 289.761882-281.6l0.12047-8.282353v-254.735059z" fill="#568af2" /></svg>