<svg class="icon" style="width: 1em;height: 1em;vertical-align: middle;fill: currentColor;overflow: hidden;" viewBox="0 0 1024 1024" version="1.1" xmlns="http://www.w3.org/2000/svg" width="32" height="32"><path d="M509.500235 154.352941c13.432471 0 24.515765 10.059294 26.142118 23.04l0.210823 3.312941-0.030117 26.352942h43.941647a26.352941 26.352941 0 0 1 3.312941 52.495058l-3.312941 0.210824h-43.941647v544.617412h26.383059a26.352941 26.352941 0 0 1 3.312941 52.525176l-3.312941 0.180706h-26.383059v26.352941a26.352941 26.352941 0 0 1-52.495059 3.312941l-0.180706-3.312941-0.030118-26.352941H210.823529a26.352941 26.352941 0 0 1-26.142117-23.04l-0.210824-3.312941V233.411765c0-14.546824 11.806118-26.352941 26.352941-26.352941h272.293647V180.705882c0-14.546824 11.806118-26.352941 26.383059-26.352941z m193.234824 52.705883a26.352941 26.352941 0 0 1 3.312941 52.495058l-3.312941 0.210824h-35.117177a26.352941 26.352941 0 0 1-3.312941-52.495059l3.312941-0.210823h35.117177z m0 597.323294a26.352941 26.352941 0 0 1 3.312941 52.525176l-3.312941 0.180706h-35.117177a26.352941 26.352941 0 0 1-3.312941-52.495059l3.312941-0.210823h35.117177z m105.411765-597.323294c13.432471 0 24.545882 10.059294 26.172235 23.04l0.180706 3.312941v35.147294a26.352941 26.352941 0 0 1-52.495059 3.312941l-0.210824-3.312941V233.411765c0-14.546824 11.806118-26.352941 26.352942-26.352941z m0 140.559058c13.432471 0 24.545882 10.029176 26.172235 23.04l0.180706 3.312942v35.117176a26.352941 26.352941 0 0 1-52.495059 3.312941l-0.210824-3.312941v-35.117176c0-14.576941 11.806118-26.352941 26.352942-26.352942z m0 140.528942c13.432471 0 24.545882 10.059294 26.172235 23.070117l0.180706 3.312941v35.117177a26.352941 26.352941 0 0 1-52.495059 3.312941l-0.210824-3.312941v-35.147294c0-14.546824 11.806118-26.352941 26.352942-26.352941z m0 140.559058c13.432471 0 24.545882 10.059294 26.172235 23.04l0.180706 3.312942v35.147294a26.352941 26.352941 0 0 1-52.495059 3.312941l-0.210824-3.312941V655.058824c0-14.546824 11.806118-26.352941 26.352942-26.352942z m0 140.559059c13.432471 0 24.545882 10.029176 26.172235 23.04l0.180706 3.312941v35.117177a26.352941 26.352941 0 0 1-52.495059 3.312941l-0.210824-3.312941v-35.117177c0-14.576941 11.806118-26.352941 26.352942-26.352941z" fill="#568af2" /></svg>