<svg class="icon" style="width: 1em;height: 1em;vertical-align: middle;fill: currentColor;overflow: hidden;" viewBox="0 0 1024 1024" version="1.1" xmlns="http://www.w3.org/2000/svg" width="32" height="32"><path d="M572.235294 244.705882c13.432471 0 24.515765 10.059294 26.142118 23.04l0.210823 3.312942v43.911529h254.735059a26.352941 26.352941 0 0 1 3.312941 52.525176l-3.312941 0.180706h-179.109647a307.681882 307.681882 0 0 1 134.083765 228.412236h45.025882c13.432471 0 24.545882 10.029176 26.172235 23.04l0.180706 3.312941v140.528941a26.352941 26.352941 0 0 1-23.04 26.172235l-3.312941 0.180706h-140.528941a26.352941 26.352941 0 0 1-26.172235-23.04l-0.180706-3.312941v-140.528941c0-13.432471 10.029176-24.545882 23.04-26.172236l3.312941-0.180705h42.556235a255.006118 255.006118 0 0 0-156.732235-209.438118l-0.030118 24.967529a26.352941 26.352941 0 0 1-23.04 26.142118l-3.312941 0.210824h-140.559059a26.352941 26.352941 0 0 1-26.142117-23.070118l-0.210824-3.312941v-24.96753a255.006118 255.006118 0 0 0-156.762353 209.438118h42.586353c13.432471 0 24.515765 10.059294 26.142118 23.070118l0.210823 3.312941v140.528941a26.352941 26.352941 0 0 1-23.070117 26.172235l-3.312942 0.180706H150.588235a26.352941 26.352941 0 0 1-26.142117-23.04l-0.210824-3.312941v-140.528941c0-13.432471 10.059294-24.545882 23.04-26.172236l3.312941-0.180705h45.056a307.681882 307.681882 0 0 1 134.083765-228.412236H150.588235a26.352941 26.352941 0 0 1-3.312941-52.495059l3.312941-0.210823h254.735059V271.058824c0-13.432471 10.059294-24.515765 23.070118-26.142118l3.312941-0.210824H572.235294z" fill="#568af2" /></svg>