<svg class="icon" style="width: 1em;height: 1em;vertical-align: middle;fill: currentColor;overflow: hidden;" viewBox="0 0 1024 1024" version="1.1" xmlns="http://www.w3.org/2000/svg" width="32" height="32"><path d="M527.058824 184.470588a96.617412 96.617412 0 0 1 26.383058 189.620706v441.675294a289.972706 289.972706 0 0 0 262.324706-262.324706l-77.884235-0.030117a26.352941 26.352941 0 0 1-3.312941-52.495059l3.312941-0.210824H843.294118c14.546824 0 26.352941 11.806118 26.352941 26.352942 0 189.199059-153.389176 342.588235-342.588235 342.588235S184.470588 716.257882 184.470588 527.058824c0-14.546824 11.806118-26.352941 26.352941-26.352942h105.411765a26.352941 26.352941 0 0 1 3.312941 52.495059l-3.312941 0.210824H238.351059a289.972706 289.972706 0 0 0 262.354823 262.324706V374.121412a96.677647 96.677647 0 0 1 26.352942-189.620706z" fill="#568af2" /></svg>