<svg class="icon" style="width: 1em;height: 1em;vertical-align: middle;fill: currentColor;overflow: hidden;" viewBox="0 0 1024 1024" version="1.1" xmlns="http://www.w3.org/2000/svg" width="32" height="32"><path d="M584.794353 124.235294c33.942588 0 61.470118 27.527529 61.470118 61.500235v140.528942a61.500235 61.500235 0 0 1-61.470118 61.500235l-43.941647-0.030118v87.853177h307.471059a26.352941 26.352941 0 0 1 3.312941 52.525176l-3.312941 0.210824-96.64753-0.030118v87.853177h43.941647c32.406588 0 58.970353 25.088 61.31953 56.922352l0.150588 4.577883v140.559059a61.500235 61.500235 0 0 1-61.470118 61.470117H655.058824a61.500235 61.500235 0 0 1-61.500236-61.470117V677.647059c0-33.972706 27.527529-61.500235 61.500236-61.500235h43.911529v-87.853177h-368.941177v87.853177h43.941648c32.406588 0 58.970353 25.088 61.319529 56.922352l0.150588 4.577883v140.559059a61.500235 61.500235 0 0 1-61.470117 61.470117H233.411765a61.500235 61.500235 0 0 1-61.500236-61.470117V677.647059c0-33.972706 27.527529-61.500235 61.500236-61.500235h43.911529v-87.853177H180.705882a26.352941 26.352941 0 0 1-3.312941-52.495059l3.312941-0.180706 307.440942-0.030117v-87.853177l-43.91153 0.030118a61.500235 61.500235 0 0 1-61.319529-56.922353l-0.180706-4.577882V185.735529c0-33.972706 27.527529-61.500235 61.500235-61.500235z" fill="#568af2" /></svg>