<svg class="icon" style="width: 1em;height: 1em;vertical-align: middle;fill: currentColor;overflow: hidden;" viewBox="0 0 1024 1024" version="1.1" xmlns="http://www.w3.org/2000/svg" width="32" height="32"><path d="M313.825882 247.205647a96.677647 96.677647 0 0 1-189.590588-26.352941 96.617412 96.617412 0 0 1 189.620706-26.352941h117.820235c51.531294 0 93.665882 40.357647 96.496941 91.166117l0.150589 5.481412v404.058353c0 22.829176 17.408 41.592471 39.695059 43.730824l4.21647 0.210823 217.449412-0.030118-42.827294-42.827294a26.352941 26.352941 0 0 1-2.349177-34.575058l2.349177-2.710589a26.352941 26.352941 0 0 1 34.575059-2.349176l2.710588 2.349176 87.823059 87.853177 0.63247 0.662588 0.752941 0.843294 0.150589 0.180706 0.210823 0.240941 0.933647 1.204706a27.798588 27.798588 0 0 1 0.993883 1.475765l0.843294 1.415529a28.310588 28.310588 0 0 1 1.355294 2.921412 26.262588 26.262588 0 0 1-2.108235 23.552l-1.084236 1.626353a17.347765 17.347765 0 0 1-0.301176 0.451765l-0.632471 0.783058a26.503529 26.503529 0 0 1-1.14447 1.295059l-0.602353 0.602353-87.853177 87.853177a26.352941 26.352941 0 0 1-39.604706-34.575059l2.349177-2.710588 42.797176-42.857412H572.235294a96.647529 96.647529 0 0 1-96.466823-91.136l-0.150589-5.481412V291.147294c0-22.829176-17.438118-41.592471-39.695058-43.730823l-4.216471-0.210824z" fill="#568af2" /></svg>