<svg class="icon" style="width: 1em;height: 1em;vertical-align: middle;fill: currentColor;overflow: hidden;" viewBox="0 0 1024 1024" version="1.1" xmlns="http://www.w3.org/2000/svg" width="32" height="32"><path d="M707.764706 124.235294a96.617412 96.617412 0 1 1-47.826824 180.61553l-1.445647 2.228705-2.379294 2.710589-24.003765 23.973647a166.159059 166.159059 0 0 1 31.744 97.91247 166.159059 166.159059 0 0 1-32.707764 99.237647l81.92 102.369883a131.764706 131.764706 0 1 1-39.755294 34.665411l-79.992471-99.990588a166.128941 166.128941 0 0 1-96.376471 30.629647c-22.738824 0-44.393412-4.517647-64.150588-12.769882l-44.15247 44.182588a131.764706 131.764706 0 1 1-40.869647-33.701647l39.122823-39.152941a166.490353 166.490353 0 0 1-56.862118-125.470118c0-27.407059 6.625882-53.308235 18.341648-76.107294l-50.296471-50.29647a96.617412 96.617412 0 1 1 37.315765-37.315765l44.574117 44.66447c30.117647-29.605647 71.439059-47.826824 116.976941-47.826823 36.592941 0 70.415059 11.745882 97.912471 31.713882l24.003765-24.003764a26.413176 26.413176 0 0 1 4.909176-3.885177 96.617412 96.617412 0 0 1 84.028236-144.384z" fill="#568af2" /></svg>