<svg class="icon" style="width: 1em;height: 1em;vertical-align: middle;fill: currentColor;overflow: hidden;" viewBox="0 0 1024 1024" version="1.1" xmlns="http://www.w3.org/2000/svg" width="32" height="32"><path d="M568.470588 240.941176c13.432471 0 24.515765 10.059294 26.142118 23.04l0.210823 3.312942-0.030117 43.911529h123.00047v-26.352941c0-13.432471 10.059294-24.515765 23.070118-26.142118l3.312941-0.210823h105.411765c13.402353 0 24.515765 10.059294 26.142118 23.070117l0.180705 3.312942v105.411764a26.352941 26.352941 0 0 1-23.04 26.142118l-3.312941 0.180706h-105.411764a26.352941 26.352941 0 0 1-26.142118-23.04l-0.210824-3.312941v-26.352942H594.823529v34.484706c139.745882 49.513412 245.970824 200.975059 245.970824 360.809412a26.352941 26.352941 0 0 1-52.705882 0c0-167.544471-136.523294-324.999529-289.882353-324.999529-153.389176 0-289.882353 157.455059-289.882353 324.999529a26.352941 26.352941 0 1 1-52.705883 0c0-159.834353 106.224941-311.296 245.940706-360.809412v-34.484706H278.588235v26.352942a26.352941 26.352941 0 0 1-23.04 26.172235l-3.312941 0.180706h-105.411765a26.352941 26.352941 0 0 1-26.142117-23.04L120.470588 390.264471v-105.411765c0-13.432471 10.059294-24.515765 23.04-26.142118l3.312941-0.210823h105.411765c13.432471 0 24.515765 10.059294 26.142118 23.070117l0.210823 3.312942v26.322823h122.970353V267.294118c0-13.432471 10.059294-24.515765 23.070118-26.142118l3.312941-0.210824h140.528941z" fill="#568af2" /></svg>