<svg class="icon" style="width: 1em;height: 1em;vertical-align: middle;fill: currentColor;overflow: hidden;" viewBox="0 0 1024 1024" version="1.1" xmlns="http://www.w3.org/2000/svg" width="32" height="32"><path d="M286.117647 124.235294c32.406588 0 58.970353 25.088 61.319529 56.922353l0.180706 4.577882-0.030117 10.270118a26.202353 26.202353 0 0 1 5.511529-1.295059l3.312941-0.210823H707.764706c3.072 0 6.023529 0.542118 8.794353 1.505882v-10.270118c0-32.436706 25.088-58.970353 56.892235-61.319529l4.577882-0.180706h70.294589c32.406588 0 58.970353 25.088 61.319529 56.922353l0.150588 4.577882V256a61.500235 61.500235 0 0 1-56.892235 61.319529l-4.577882 0.180706-10.300236-0.030117a26.202353 26.202353 0 0 1 1.295059 5.511529l0.210824 3.312941V677.647059c0 3.072-0.542118 6.023529-1.505883 8.794353h10.300236c32.406588 0 58.970353 25.088 61.319529 56.892235l0.150588 4.577882v70.294589a61.500235 61.500235 0 0 1-56.892235 61.319529l-4.577882 0.150588h-70.294589a61.500235 61.500235 0 0 1-61.319529-56.892235l-0.150588-4.577882v-10.300236a26.202353 26.202353 0 0 1-5.481412 1.295059l-3.312941 0.210824H356.382118a26.322824 26.322824 0 0 1-8.794353-1.505883v10.300236a61.500235 61.500235 0 0 1-56.892236 61.319529l-4.577882 0.150588H215.853176A61.500235 61.500235 0 0 1 154.503529 822.814118l-0.180705-4.577883v-70.294588c0-32.406588 25.088-58.970353 56.922352-61.319529l4.577883-0.150589h10.270117a26.202353 26.202353 0 0 1-1.295058-5.481411l-0.210824-3.312942V326.264471c0-3.072 0.542118-6.023529 1.505882-8.794353h-10.270117A61.500235 61.500235 0 0 1 154.503529 260.608L154.352941 256V185.735529c0-32.436706 25.088-58.970353 56.922353-61.319529l4.577882-0.180706H286.117647z m430.441412 121.464471a26.202353 26.202353 0 0 1-5.481412 1.325176l-3.312941 0.180706H356.382118a26.322824 26.322824 0 0 1-8.794353-1.505882V256a61.500235 61.500235 0 0 1-56.892236 61.319529l-4.577882 0.180706-10.300235-0.030117a26.202353 26.202353 0 0 1 1.325176 5.511529l0.180706 3.312941V677.647059c0 3.072-0.512 6.023529-1.505882 8.794353H286.117647c32.406588 0 58.970353 25.088 61.319529 56.892235l0.180706 4.577882-0.030117 10.300236a26.202353 26.202353 0 0 1 5.511529-1.295059l3.312941-0.210824H707.764706c3.072 0 6.023529 0.542118 8.794353 1.505883v-10.300236c0-32.406588 25.088-58.970353 56.892235-61.319529l4.577882-0.150588h10.300236a26.202353 26.202353 0 0 1-1.295059-5.481412l-0.210824-3.312941V326.264471c0-3.072 0.542118-6.023529 1.505883-8.794353h-10.300236a61.500235 61.500235 0 0 1-61.319529-56.892236l-0.150588-4.577882v-10.300235z" fill="#568af2" /></svg>