<svg class="icon" style="width: 1em;height: 1em;vertical-align: middle;fill: currentColor;overflow: hidden;" viewBox="0 0 1024 1024" version="1.1" xmlns="http://www.w3.org/2000/svg" width="32" height="32"><path d="M291.147294 154.352941c14.546824 0 26.352941 11.806118 26.352941 26.352941l-0.030117 43.91153h368.941176V180.705882c0-13.432471 10.059294-24.515765 23.070118-26.142117l3.312941-0.210824h140.528941c14.576941 0 26.352941 11.806118 26.352941 26.352941v140.559059a26.352941 26.352941 0 0 1-26.352941 26.352941h-140.528941a26.352941 26.352941 0 0 1-26.352941-26.352941l-0.030118-43.941647h-59.331765c97.460706 81.950118 172.935529 245.217882 181.519059 386.529882h44.724706c14.576941 0 26.352941 11.776 26.352941 26.352942v140.528941a26.352941 26.352941 0 0 1-26.352941 26.352941h-140.528941a26.352941 26.352941 0 0 1-26.352941-26.352941v-140.528941c0-14.576941 11.776-26.352941 26.352941-26.352942h42.977882c-12.137412-173.176471-138.902588-386.529882-253.801411-386.529882-114.928941 0-241.694118 213.353412-253.801412 386.499765h42.977882c14.546824 0 26.352941 11.806118 26.352941 26.383059v140.528941a26.352941 26.352941 0 0 1-26.352941 26.352941H150.588235a26.352941 26.352941 0 0 1-26.352941-26.352941v-140.528941c0-14.576941 11.806118-26.352941 26.352941-26.352942h44.724706c8.583529-141.312 84.088471-304.579765 181.549177-386.529882H317.44v43.941647a26.352941 26.352941 0 0 1-23.04 26.142118l-3.312941 0.210823H150.588235a26.352941 26.352941 0 0 1-26.352941-26.352941V180.705882c0-14.546824 11.806118-26.352941 26.352941-26.352941z" fill="#568af2" /></svg>