<svg class="icon" style="width: 1em;height: 1em;vertical-align: middle;fill: currentColor;overflow: hidden;" viewBox="0 0 1024 1024" version="1.1" xmlns="http://www.w3.org/2000/svg" width="32" height="32"><path d="M501.970824 244.705882a96.677647 96.677647 0 0 1 92.973176 70.264471h131.132235a79.088941 79.088941 0 1 1 0 52.736h-131.132235a96.225882 96.225882 0 0 1-13.733647 28.912941c148.208941 42.646588 263.348706 199.951059 263.348706 366.351059a26.352941 26.352941 0 0 1-52.705883 0c0-167.544471-136.523294-324.999529-289.882352-324.999529-153.389176 0-289.882353 157.455059-289.882353 324.999529a26.352941 26.352941 0 1 1-52.705883 0c0-166.4 115.109647-323.704471 263.318588-366.381177a95.713882 95.713882 0 0 1-13.733647-28.912941l-131.132235 0.030118a79.088941 79.088941 0 1 1 0-52.705882h131.132235a96.677647 96.677647 0 0 1 93.003295-70.294589z" fill="#568af2" /></svg>