<svg class="icon" style="width: 1em;height: 1em;vertical-align: middle;fill: currentColor;overflow: hidden;" viewBox="0 0 1024 1024" version="1.1" xmlns="http://www.w3.org/2000/svg" width="32" height="32"><path d="M637.500235 154.352941c82.582588 0 145.92 61.138824 149.202824 142.667294l0.12047 6.656-0.030117 445.891765 42.887529-42.857412a26.352941 26.352941 0 0 1 39.634824 34.575059l-2.379294 2.710588-87.823059 87.823059-0.271059 0.240941a26.503529 26.503529 0 0 1-1.716706 1.505883l1.987765-1.746824a26.533647 26.533647 0 0 1-18.642824 7.710118 26.232471 26.232471 0 0 1-15.962353-5.360941l-0.692706-0.602353a26.503529 26.503529 0 0 1-1.716705-1.505883l-0.271059-0.240941-87.823059-87.853176a26.352941 26.352941 0 0 1 34.544941-39.634824l2.710588 2.379294 42.827294 42.797177 0.030118-445.83153c0-55.717647-40.899765-96.617412-96.617412-96.617411-53.820235 0-93.786353 38.128941-96.496941 90.925176l-0.150588 5.722353v386.499765c0 84.811294-64.481882 149.323294-149.323294 149.323294-82.582588 0-145.92-61.138824-149.202824-142.667294l-0.12047-6.656-0.030118-310.512942a114.236235 114.236235 0 0 1 26.383059-225.340235 114.206118 114.206118 0 0 1 26.352941 225.340235v310.512942c0 55.717647 40.899765 96.617412 96.617412 96.617411 53.790118 0 93.786353-38.128941 96.496941-90.925176l0.120471-5.722353V303.706353c0-84.811294 64.512-149.323294 149.353411-149.323294z" fill="#568af2" /></svg>