<?xml version="1.0" encoding="UTF-8"?>
<svg width="96px" height="30px" viewBox="0 0 96 30" version="1.1" xmlns="http://www.w3.org/2000/svg" xmlns:xlink="http://www.w3.org/1999/xlink">
    <!-- Generator: Sketch 61.2 (89653) - https://sketch.com -->
    <title>logo-white</title>
    <desc>Created with Sketch.</desc>
    <g id="LOGO" stroke="none" stroke-width="1" fill="none" fill-rule="evenodd">
        <g id="Artboard" transform="translate(-532.000000, -324.000000)" fill="#FFFFFF">
            <g id="logo-white" transform="translate(532.000000, 324.000000)">
                <g id="Group">
                    <path d="M14.9514788,0 C23.2089525,0 29.9029576,6.69400506 29.9029576,14.9514788 C29.9029576,23.2089525 23.2089525,29.9029576 14.9514788,29.9029576 C6.69400506,29.9029576 0,23.2089525 0,14.9514788 C0,6.69400506 6.69400506,0 14.9514788,0 Z M22.5195153,6.64555947 L12.1826559,6.64555947 C9.12434915,6.64555947 6.64510168,9.12480693 6.64510168,12.1831137 L6.64510168,22.5195153 C6.64510168,22.9272896 6.97566801,23.2578559 7.38344224,23.2578559 L18.2741661,23.2578559 C21.026582,23.2578559 23.2578559,21.026582 23.2578559,18.2741661 L23.2578559,14.028817 C23.2578559,13.6210427 22.9272896,13.2904764 22.5195153,13.2904764 L14.0285989,13.2904764 C13.6209001,13.2906698 13.2903651,13.6211183 13.290065,14.0288169 L13.2895816,15.8745943 C13.2893008,16.2483873 13.5669722,16.557377 13.9273427,16.6063618 L14.0275293,16.6131282 C14.0275958,16.6131282 14.0276623,16.6131282 14.0277288,16.6129287 L19.1969828,16.6128857 C19.5707758,16.6128769 19.8796951,16.8906414 19.9285885,17.2510255 L19.9353234,17.3512201 L19.9353234,17.3512201 L19.9353234,17.7203717 C19.9353234,18.9436944 18.9436244,19.9353933 17.7203017,19.9353933 L10.7055168,19.9353933 C10.2978011,19.935373 9.96727909,19.6048601 9.9672475,19.1971444 L9.96705415,12.1830396 C9.96695937,10.9597169 10.958631,9.9679906 12.1819537,9.96795688 L12.1820148,9.96801793 L22.5174546,9.96801793 C22.92505,9.96755984 23.2555422,9.63727256 23.2562531,9.22967752 L23.2573979,7.38389988 C23.2580494,7.01010717 22.9805085,6.70101801 22.6201572,6.65190412 L22.5195153,6.64555947 L22.5195153,6.64555947 Z" id="Combined-Shape"></path>
                </g>
                <path d="M43.2266504,26.4705882 C45.4740227,26.4705882 47.2681749,26.0322218 48.609107,25.1554889 C49.9500392,24.2787561 50.6205053,23.1434994 50.6205053,21.749719 C50.6205053,19.501686 48.9424673,18.3776695 45.5863913,18.3776695 L45.5863913,18.3776695 L43.5188088,18.3776695 C42.8296146,18.3776695 42.3351927,18.3102286 42.0355431,18.1753466 C41.7358934,18.0404646 41.5860686,17.8156613 41.5860686,17.5009367 C41.5860686,17.1862121 41.6834547,16.9239416 41.878227,16.7141251 C41.9531394,16.6242038 42.0505255,16.59423 42.1703854,16.6242038 C42.6498248,16.7590858 43.1067905,16.8265268 43.5412825,16.8265268 C45.0844781,16.8265268 46.339261,16.4556013 47.3056311,15.7137505 C48.2720012,14.9718996 48.7551862,13.8741102 48.7551862,12.4203822 C48.7551862,11.8808543 48.6578001,11.4012739 48.4630278,10.9816411 C48.4480454,10.9516673 48.451791,10.9179468 48.4742647,10.8804796 C48.4967384,10.8430124 48.530449,10.8242788 48.5753965,10.8242788 L48.5753965,10.8242788 L49.0922921,10.8242788 C49.4668541,10.8242788 49.7814863,10.6968902 50.0361885,10.4421132 C50.2908907,10.1873361 50.4182417,9.87261146 50.4182417,9.4979393 L50.4182417,9.4979393 L50.4182417,9.18321469 C50.4182417,8.82352941 50.2908907,8.51255152 50.0361885,8.250281 C49.7814863,7.98801049 49.4668541,7.85687523 49.0922921,7.85687523 L49.0922921,7.85687523 L45.7886548,7.85687523 C45.6837774,7.85687523 45.5714088,7.84188835 45.451549,7.81191457 C44.8672322,7.63207194 44.2304767,7.54215062 43.5412825,7.54215062 C42.5674212,7.54215062 41.6759635,7.71075309 40.8669095,8.04795804 C40.0578554,8.38516298 39.3873894,8.9246909 38.8555112,9.66654178 C38.3236331,10.4083927 38.0576941,11.2888722 38.0576941,12.3079805 C38.0576941,13.0123642 38.2225014,13.6568003 38.552116,14.2412889 C38.8817306,14.8257774 39.2937488,15.2978644 39.7881708,15.6575496 C39.8181357,15.6725365 39.8331182,15.6950169 39.8331182,15.7249906 C39.8331182,15.7549644 39.8181357,15.7849382 39.7881708,15.814912 C39.3686613,16.1146497 39.0315554,16.4780817 38.7768532,16.9052079 C38.522151,17.3323342 38.3947999,17.7707006 38.3947999,18.2203072 C38.3947999,19.179468 38.7768532,19.9213188 39.5409598,20.4458599 C39.5709248,20.4608468 39.5859072,20.4870738 39.5859072,20.524541 C39.5859072,20.5620082 39.5709248,20.5957287 39.5409598,20.6257025 C38.9416605,20.9254402 38.4884404,21.292619 38.1812996,21.7272387 C37.8741587,22.1618584 37.7205882,22.6414387 37.7205882,23.1659798 C37.7205882,23.9153241 37.9752904,24.5447733 38.4846948,25.0543275 C38.9940992,25.5638816 39.6495828,25.9273136 40.4511456,26.1446235 C41.2527084,26.3619333 42.1778766,26.4705882 43.2266504,26.4705882 Z M43.5412825,14.3536905 C43.0468606,14.3536905 42.6460792,14.1775946 42.3389383,13.8254028 C42.0317974,13.4732109 41.878227,12.9674035 41.878227,12.3079805 C41.878227,11.6635444 42.0317974,11.1652304 42.3389383,10.8130386 C42.6460792,10.4608468 43.0468606,10.2847508 43.5412825,10.2847508 C44.0357044,10.2847508 44.4364858,10.4571 44.7436267,10.8017984 C45.0507676,11.1464968 45.204338,11.6485575 45.204338,12.3079805 C45.204338,12.9674035 45.0507676,13.4732109 44.7436267,13.8254028 C44.4364858,14.1775946 44.0357044,14.3536905 43.5412825,14.3536905 Z M43.8559146,23.9078306 C43.0019131,23.9078306 42.3239558,23.7916823 41.8220427,23.5593855 C41.3201295,23.3270888 41.069173,22.9786437 41.069173,22.5140502 C41.069173,22.139378 41.2414715,21.7871862 41.5860686,21.4574747 C41.631016,21.4125141 41.6984372,21.3900337 41.7883321,21.3900337 L41.7883321,21.3900337 L41.8557533,21.3900337 C42.2303153,21.4649682 42.7996496,21.5024354 43.5637562,21.5024354 L43.5637562,21.5024354 L44.799811,21.5024354 C45.4590402,21.5024354 45.9422252,21.5698764 46.2493661,21.7047583 C46.556507,21.8396403 46.7100774,22.0869239 46.7100774,22.4466092 C46.7100774,22.866242 46.4441384,23.2146871 45.9122603,23.4919445 C45.3803822,23.7692019 44.6949336,23.9078306 43.8559146,23.9078306 Z M54.7331966,5.96852754 C55.4074083,5.96852754 55.9617601,5.77369801 56.3962521,5.38403897 C56.8307441,4.99437992 57.04799,4.49231922 57.04799,3.87785688 C57.04799,3.26339453 56.8307441,2.75758711 56.3962521,2.36043462 C55.9617601,1.96328213 55.4074083,1.76470588 54.7331966,1.76470588 C54.0440024,1.76470588 53.4784137,1.96328213 53.0364305,2.36043462 C52.5944473,2.75758711 52.3734557,3.26339453 52.3734557,3.87785688 C52.3734557,4.49231922 52.5944473,4.99437992 53.0364305,5.38403897 C53.4784137,5.77369801 54.0440024,5.96852754 54.7331966,5.96852754 Z M55.429882,20.8954665 C55.7894616,20.8954665 56.1003481,20.7643312 56.3625415,20.5020607 C56.6247349,20.2397902 56.7558316,19.9288123 56.7558316,19.569127 L56.7558316,19.569127 L56.7558316,9.1157737 C56.7558316,8.75608842 56.6247349,8.44511053 56.3625415,8.18284001 C56.1003481,7.9205695 55.7894616,7.78943425 55.429882,7.78943425 L55.429882,7.78943425 L54.0140374,7.78943425 C53.6394754,7.78943425 53.3248433,7.9205695 53.0701411,8.18284001 C52.8154389,8.44511053 52.6880878,8.75608842 52.6880878,9.1157737 L52.6880878,9.1157737 L52.6880878,19.569127 C52.6880878,19.9288123 52.8154389,20.2397902 53.0701411,20.5020607 C53.3248433,20.7643312 53.6394754,20.8954665 54.0140374,20.8954665 L54.0140374,20.8954665 L55.429882,20.8954665 Z M65.2059515,21.2101911 C65.7752858,21.2101911 66.3371289,21.157737 66.8914807,21.0528288 C67.2510603,20.9928812 67.5282362,20.7980517 67.7230085,20.4683402 C67.8578508,20.2435369 67.925272,20.0112402 67.925272,19.77145 C67.925272,19.6665418 67.9177807,19.5541401 67.9027983,19.434245 L67.9027983,19.434245 L67.8129034,19.0745598 C67.737991,18.7598351 67.5507099,18.5088048 67.2510603,18.3214687 C66.9514107,18.1341326 66.6143048,18.0329712 66.2397428,18.0179843 C65.2059515,17.9730236 64.6890559,17.2986137 64.6890559,15.9947546 L64.6890559,15.9947546 L64.6890559,11.1614837 C64.6890559,11.0565755 64.7414946,11.0041214 64.8463719,11.0041214 L64.8463719,11.0041214 L66.4420063,11.0041214 C66.8015858,11.0041214 67.1124723,10.8729861 67.3746658,10.6107156 C67.6368592,10.3484451 67.7679559,10.0374672 67.7679559,9.67778194 L67.7679559,9.67778194 L67.7679559,9.1157737 C67.7679559,8.75608842 67.6368592,8.44511053 67.3746658,8.18284001 C67.1124723,7.9205695 66.8015858,7.78943425 66.4420063,7.78943425 L66.4420063,7.78943425 L64.8463719,7.78943425 C64.7414946,7.78943425 64.6890559,7.73698014 64.6890559,7.63207194 L64.6890559,7.63207194 L64.6890559,5.67628325 C64.6890559,5.30161109 64.5579592,4.98688647 64.2957657,4.7321094 C64.0335723,4.47733233 63.7226858,4.3499438 63.3631062,4.3499438 L63.3631062,4.3499438 L62.5989996,4.3499438 C62.2244376,4.3499438 61.894823,4.47358561 61.6101558,4.72086924 C61.3254887,4.96815287 61.1531901,5.27913076 61.0932602,5.65380292 L61.0932602,5.65380292 L60.8460492,7.63207194 C60.8310668,7.73698014 60.7636456,7.79692769 60.6437857,7.81191457 L60.6437857,7.81191457 L60.1268901,7.85687523 C59.752328,7.88684901 59.4376959,8.04046459 59.1829937,8.31772199 C58.9282915,8.59497939 58.8009404,8.92094417 58.8009404,9.29561634 L58.8009404,9.29561634 L58.8009404,9.67778194 C58.8009404,10.0374672 58.9320372,10.3484451 59.1942306,10.6107156 C59.456424,10.8729861 59.7673105,11.0041214 60.1268901,11.0041214 L60.1268901,11.0041214 L60.4190485,11.0041214 C60.5239259,11.0041214 60.5763646,11.0565755 60.5763646,11.1614837 L60.5763646,11.1614837 L60.5763646,16.0397152 C60.5763646,17.6732859 60.9509266,18.9434245 61.7000507,19.8501311 C62.4491748,20.7568378 63.6178084,21.2101911 65.2059515,21.2101911 Z M76.1956021,21.2101911 C77.3942006,21.2101911 78.5778167,20.9329337 79.7464503,20.3784189 C80.0760649,20.22855 80.2858197,19.9662795 80.3757145,19.5916073 C80.420662,19.4717123 80.4431357,19.3518172 80.4431357,19.2319221 C80.4431357,19.0071188 80.3757145,18.7823155 80.2408722,18.5575122 L80.2408722,18.5575122 L80.173451,18.4226302 C79.9936613,18.1079056 79.7314678,17.8980892 79.3868707,17.793181 C79.2220634,17.7482203 79.0572561,17.72574 78.8924488,17.72574 C78.6976766,17.72574 78.5103955,17.7557138 78.3306058,17.8156613 C77.8212014,17.9955039 77.2968145,18.0854253 76.7574451,18.0854253 C74.9895123,18.0854253 73.9182648,17.2986137 73.5437027,15.7249906 C73.5287203,15.68003 73.5362115,15.638816 73.5661765,15.6013488 C73.5961414,15.5638816 73.6335976,15.545148 73.6785451,15.545148 L73.6785451,15.545148 L79.8588189,15.545148 C80.2483635,15.545148 80.5929605,15.4215062 80.8926102,15.1742226 C81.1922598,14.9269389 81.3495759,14.615961 81.3645584,14.2412889 L81.3645584,14.2412889 L81.3645584,13.8141626 C81.3645584,11.9258149 80.8851189,10.3971525 79.9262401,9.22817535 C78.9673612,8.0591982 77.5739904,7.47470963 75.7461276,7.47470963 C74.9520561,7.47470963 74.1842039,7.63581866 73.442571,7.95803672 C72.7009381,8.28025478 72.0417089,8.72986137 71.4648834,9.3068565 C70.8880578,9.88385163 70.4236009,10.6107156 70.0715125,11.4874485 C69.7194242,12.3641813 69.54338,13.3195954 69.54338,14.3536905 C69.54338,16.4668415 70.1688987,18.1378794 71.4199359,19.366804 C72.6709732,20.5957287 74.2628619,21.2101911 76.1956021,21.2101911 Z M77.7238152,12.8924691 L73.6111239,12.8924691 C73.5062465,12.8924691 73.4538079,12.8550019 73.4538079,12.7800674 C73.4538079,12.1656051 73.7459663,11.6185837 74.3302831,11.1390034 C74.7497926,10.7793181 75.2517057,10.5994755 75.8360225,10.5994755 C76.5102342,10.5994755 77.015893,10.7905583 77.3529988,11.1727239 C77.6901046,11.5548895 77.8736401,12.0681903 77.903605,12.7126265 L77.903605,12.7126265 L77.903605,12.7351068 C77.903605,12.840015 77.8436751,12.8924691 77.7238152,12.8924691 L77.7238152,12.8924691 Z M89.9045731,21.2101911 C91.1031717,21.2101911 92.2867878,20.9329337 93.4554214,20.3784189 C93.785036,20.22855 93.9947907,19.9662795 94.0846856,19.5916073 C94.129633,19.4717123 94.1521068,19.3518172 94.1521068,19.2319221 C94.1521068,19.0071188 94.0846856,18.7823155 93.9498433,18.5575122 L93.9498433,18.5575122 L93.8824221,18.4226302 C93.7026323,18.1079056 93.4404389,17.8980892 93.0958418,17.793181 C92.9310345,17.7482203 92.7662272,17.72574 92.6014199,17.72574 C92.4066476,17.72574 92.2193666,17.7557138 92.0395768,17.8156613 C91.5301724,17.9955039 91.0057855,18.0854253 90.4664162,18.0854253 C88.6984833,18.0854253 87.6272358,17.2986137 87.2526738,15.7249906 C87.2376913,15.68003 87.2451826,15.638816 87.2751475,15.6013488 C87.3051125,15.5638816 87.3425687,15.545148 87.3875161,15.545148 L87.3875161,15.545148 L93.56779,15.545148 C93.9573345,15.545148 94.3019316,15.4215062 94.6015812,15.1742226 C94.9012309,14.9269389 95.0585469,14.615961 95.0735294,14.2412889 L95.0735294,14.2412889 L95.0735294,13.8141626 C95.0735294,11.9258149 94.59409,10.3971525 93.6352111,9.22817535 C92.6763323,8.0591982 91.2829615,7.47470963 89.4550987,7.47470963 C88.6610271,7.47470963 87.8931749,7.63581866 87.151542,7.95803672 C86.4099092,8.28025478 85.75068,8.72986137 85.1738544,9.3068565 C84.5970289,9.88385163 84.1325719,10.6107156 83.7804836,11.4874485 C83.4283953,12.3641813 83.2523511,13.3195954 83.2523511,14.3536905 C83.2523511,16.4668415 83.8778697,18.1378794 85.128907,19.366804 C86.3799442,20.5957287 87.9718329,21.2101911 89.9045731,21.2101911 Z M91.4327863,12.8924691 L87.320095,12.8924691 C87.2152176,12.8924691 87.1627789,12.8550019 87.1627789,12.7800674 C87.1627789,12.1656051 87.4549373,11.6185837 88.0392541,11.1390034 C88.4587636,10.7793181 88.9606767,10.5994755 89.5449935,10.5994755 C90.2192052,10.5994755 90.724864,10.7905583 91.0619699,11.1727239 C91.3990757,11.5548895 91.5826111,12.0681903 91.6125761,12.7126265 L91.6125761,12.7126265 L91.6125761,12.7351068 C91.6125761,12.840015 91.5526461,12.8924691 91.4327863,12.8924691 L91.4327863,12.8924691 Z" id="gitee" fill-rule="nonzero"></path>
            </g>
        </g>
    </g>
</svg>