<?xml version="1.0" standalone="no"?><!DOCTYPE svg PUBLIC "-//W3C//DTD SVG 1.1//EN" "http://www.w3.org/Graphics/SVG/1.1/DTD/svg11.dtd"><svg t="1769254200238" class="icon" viewBox="0 0 1024 1024" version="1.1" xmlns="http://www.w3.org/2000/svg" p-id="1333" xmlns:xlink="http://www.w3.org/1999/xlink" width="32" height="32"><path d="M209.9 769.9a304.6 75.5 0 1 0 609.2 0 304.6 75.5 0 1 0-609.2 0Z" fill="#B8CBCD" p-id="1334"></path><path d="M781.9 593.8c-115 115-299.8 270.5-459.1 111.2-178.8-178.8-21.7-344.1 93.3-459.1" fill="#F7BB83" p-id="1335"></path><path d="M473.1 792.3c-59.9 0-114.8-24.6-163.9-73.7-84.2-84.2-107-176.4-67.8-274.2 31.5-78.5 96.8-147.8 161.1-212 7.5-7.5 19.6-7.5 27.1 0s7.5 19.6 0 27.1c-132.9 132.9-249.6 275.7-93.3 432 142.2 142.2 305.6 15.3 432-111.2 7.5-7.5 19.6-7.5 27.1 0s7.5 19.6 0 27.1C742.8 660 662.8 734.2 576.3 770c-35.8 14.8-70.3 22.3-103.2 22.3z" fill="#6E4123" p-id="1336"></path><path d="M498.1 772.9c-53.2 0-102.7-19.2-147.9-57.5-72.2-61.3-110.7-139.9-105.6-215.7 4.1-60.2 31.7-120.2 87-188.8 6.6-8.2 18.7-9.5 27-2.9 8.2 6.6 9.5 18.7 2.9 27-50.1 62.2-75.1 115.3-78.6 167.3-4.3 63.5 29.3 130.5 92.2 183.8 106 89.8 237.4 53.5 401.8-110.9 7.5-7.5 19.6-7.5 27.1 0s7.5 19.6 0 27.1c-75 75-142.2 124-205.5 149.5-34.8 14-68.3 21.1-100.4 21.1z" fill="#6E4123" p-id="1337"></path><path d="M492.9 523.1c-99.4-99.4-129.7-230.2-67.8-292.1 62-62 192.7-31.6 292.1 67.8C816.6 398.2 846.9 529 785 590.9c-61.9 61.9-192.7 31.6-292.1-67.8z" fill="#B2EDA6" p-id="1338"></path><path d="M698.7 642.1c-71.2 0-153.2-39.4-219.3-105.5-108.5-108.5-138.3-248.7-67.8-319.2 24.7-24.7 59.3-37.7 99.9-37.7 71.2 0 153.2 39.4 219.3 105.5 50.6 50.6 85.9 110.7 99.5 169.3 14.4 61.9 3.1 115.1-31.7 149.9-24.7 24.7-59.2 37.7-99.9 37.7zM511.5 218c-30.3 0-55.5 9.2-72.8 26.5-53.5 53.5-22.4 174.8 67.8 265 58.2 58.2 131.8 94.3 192.2 94.3 30.3 0 55.5-9.2 72.8-26.5 25.1-25.1 32.7-65.6 21.5-114.1-12-51.7-43.7-105.3-89.3-150.9-58.1-58.2-131.8-94.3-192.2-94.3z" fill="#3C663E" p-id="1339"></path><path d="M573.2 442.8c-30.8-30.8-40.5-71-21.6-89.8 18.8-18.8 59-9.1 89.8 21.6 30.8 30.8 40.5 70.9 21.6 89.8-18.9 18.9-59.1 9.2-89.8-21.6z" fill="#FFFFFF" p-id="1340"></path><path d="M637 486.9c-23.7 0-51-13.1-72.9-35-16.5-16.5-28.2-36.2-32.8-55.4-5.2-21.4-1.2-40.1 11.2-52.4 8.7-8.7 20.8-13.3 34.9-13.3 23.7 0 51 13.1 72.9 35 36.3 36.3 45.8 83.7 21.6 107.8-8.7 8.6-20.7 13.3-34.9 13.3z m-59.6-130.6c-7.3 0-13 2-16.9 5.9-7.9 7.9-6.1 21.2-4.4 28.4 3.5 14.5 13 30.3 26 43.3 17 17 38 27.5 54.8 27.5 7.3 0 13-2 16.9-5.9 11.8-11.8 5.9-44.2-21.6-71.7-16.9-17-37.9-27.5-54.8-27.5zM737.6 548.2c-3.3 0-6.5-1.2-9-3.7l-37.4-37.4c-5-5-5-13.1 0-18.1 5-5 13.1-5 18.1 0l37.4 37.4c5 5 5 13.1 0 18.1-2.5 2.5-5.8 3.7-9.1 3.7zM640 574.5c-6.1 0-11.6-4.4-12.6-10.7l-7.1-43c-1.1-7 3.6-13.5 10.5-14.7 7-1.2 13.5 3.6 14.7 10.5l7.1 43c1.1 7-3.6 13.5-10.5 14.7-0.7 0.2-1.4 0.2-2.1 0.2zM525.7 508.9c-3.3 0-6.5-1.2-9-3.7-5-5-5-13.1 0-18.1l25.4-25.4c5-5 13.1-5 18.1 0 5 5 5 13.1 0 18.1l-25.4 25.4c-2.5 2.5-5.8 3.7-9.1 3.7zM587.8 317.1c-6.1 0-11.6-4.4-12.6-10.7l-7.1-43c-1.1-7 3.6-13.5 10.5-14.7 7-1.2 13.5 3.6 14.7 10.5l7.1 43c1.1 7-3.6 13.5-10.5 14.7-0.7 0.1-1.4 0.2-2.1 0.2zM669.6 365c-3.3 0-6.5-1.2-9-3.7-5-5-5-13.1 0-18.1l25.4-25.4c5-5 13.1-5 18.1 0 5 5 5 13.1 0 18.1l-25.4 25.4c-2.5 2.5-5.8 3.7-9.1 3.7zM494.1 399c-0.7 0-1.4-0.1-2.1-0.2l-43-7.1c-7-1.1-11.7-7.7-10.5-14.7 1.1-7 7.7-11.7 14.7-10.5l43 7.1c7 1.1 11.7 7.7 10.5 14.7-1.1 6.3-6.5 10.7-12.6 10.7zM758.8 442.6c-0.7 0-1.4-0.1-2.1-0.2l-43-7.1c-7-1.1-11.7-7.7-10.5-14.7 1.1-7 7.7-11.7 14.7-10.5l43 7.1c7 1.1 11.7 7.7 10.5 14.7-1.1 6.2-6.5 10.7-12.6 10.7zM517.9 328.5c-3.3 0-6.5-1.2-9-3.7l-35.4-35.4c-5-5-5-13.1 0-18.1 5-5 13.1-5 18.1 0l35.4 35.4c5 5 5 13.1 0 18.1-2.5 2.5-5.8 3.7-9.1 3.7z" fill="#3C663E" p-id="1341"></path></svg>